<?xml version="1.0" encoding="utf-8"?>
<svg xmlns="http://www.w3.org/2000/svg" xmlns:xlink="http://www.w3.org/1999/xlink" width="600" height="400" viewBox="0 0 2400 1600">
<defs>
  <clipPath id="clip310">
    <rect x="0" y="0" width="2400" height="1600"/>
  </clipPath>
</defs>
<path clip-path="url(#clip310)" d="
M0 1600 L2400 1600 L2400 0 L0 0  Z
  " fill="#ffffff" fill-rule="evenodd" fill-opacity="1"/>
<defs>
  <clipPath id="clip311">
    <rect x="480" y="0" width="1681" height="1600"/>
  </clipPath>
</defs>
<path clip-path="url(#clip310)" d="
M148.334 1486.45 L2352.76 1486.45 L2352.76 47.2441 L148.334 47.2441  Z
  " fill="#ffffff" fill-rule="evenodd" fill-opacity="1"/>
<defs>
  <clipPath id="clip312">
    <rect x="148" y="47" width="2205" height="1440"/>
  </clipPath>
</defs>
<polyline clip-path="url(#clip312)" style="stroke:#000000; stroke-width:2; stroke-opacity:0.1; fill:none" points="
  185.891,1486.45 185.891,47.2441 
  "/>
<polyline clip-path="url(#clip312)" style="stroke:#000000; stroke-width:2; stroke-opacity:0.1; fill:none" points="
  779.313,1486.45 779.313,47.2441 
  "/>
<polyline clip-path="url(#clip312)" style="stroke:#000000; stroke-width:2; stroke-opacity:0.1; fill:none" points="
  1372.73,1486.45 1372.73,47.2441 
  "/>
<polyline clip-path="url(#clip312)" style="stroke:#000000; stroke-width:2; stroke-opacity:0.1; fill:none" points="
  1966.15,1486.45 1966.15,47.2441 
  "/>
<polyline clip-path="url(#clip310)" style="stroke:#000000; stroke-width:4; stroke-opacity:1; fill:none" points="
  148.334,1486.45 2352.76,1486.45 
  "/>
<polyline clip-path="url(#clip310)" style="stroke:#000000; stroke-width:4; stroke-opacity:1; fill:none" points="
  185.891,1486.45 185.891,1469.18 
  "/>
<polyline clip-path="url(#clip310)" style="stroke:#000000; stroke-width:4; stroke-opacity:1; fill:none" points="
  779.313,1486.45 779.313,1469.18 
  "/>
<polyline clip-path="url(#clip310)" style="stroke:#000000; stroke-width:4; stroke-opacity:1; fill:none" points="
  1372.73,1486.45 1372.73,1469.18 
  "/>
<polyline clip-path="url(#clip310)" style="stroke:#000000; stroke-width:4; stroke-opacity:1; fill:none" points="
  1966.15,1486.45 1966.15,1469.18 
  "/>
<path clip-path="url(#clip310)" d="M 0 0 M68.2647 1543.18 L75.9036 1543.18 L75.9036 1516.82 L67.5935 1518.49 L67.5935 1514.23 L75.8573 1512.56 L80.5332 1512.56 L80.5332 1543.18 L88.172 1543.18 L88.172 1547.12 L68.2647 1547.12 L68.2647 1543.18 Z" fill="#000000" fill-rule="evenodd" fill-opacity="1" /><path clip-path="url(#clip310)" d="M 0 0 M93.3803 1546.4 L93.3803 1542.14 Q95.1396 1542.98 96.9451 1543.42 Q98.7507 1543.86 100.487 1543.86 Q105.116 1543.86 107.547 1540.75 Q110.001 1537.63 110.348 1531.29 Q109.005 1533.28 106.945 1534.34 Q104.885 1535.41 102.385 1535.41 Q97.1998 1535.41 94.1674 1532.28 Q91.1581 1529.13 91.1581 1523.69 Q91.1581 1518.37 94.3063 1515.15 Q97.4544 1511.93 102.686 1511.93 Q108.681 1511.93 111.829 1516.54 Q115.001 1521.12 115.001 1529.87 Q115.001 1538.05 111.112 1542.93 Q107.246 1547.79 100.695 1547.79 Q98.9359 1547.79 97.1303 1547.44 Q95.3248 1547.1 93.3803 1546.4 M102.686 1531.75 Q105.834 1531.75 107.663 1529.6 Q109.515 1527.44 109.515 1523.69 Q109.515 1519.97 107.663 1517.81 Q105.834 1515.64 102.686 1515.64 Q99.5377 1515.64 97.6859 1517.81 Q95.8572 1519.97 95.8572 1523.69 Q95.8572 1527.44 97.6859 1529.6 Q99.5377 1531.75 102.686 1531.75 Z" fill="#000000" fill-rule="evenodd" fill-opacity="1" /><path clip-path="url(#clip310)" d="M 0 0 M120.209 1546.4 L120.209 1542.14 Q121.968 1542.98 123.774 1543.42 Q125.579 1543.86 127.315 1543.86 Q131.945 1543.86 134.376 1540.75 Q136.829 1537.63 137.176 1531.29 Q135.834 1533.28 133.774 1534.34 Q131.713 1535.41 129.213 1535.41 Q124.028 1535.41 120.996 1532.28 Q117.987 1529.13 117.987 1523.69 Q117.987 1518.37 121.135 1515.15 Q124.283 1511.93 129.514 1511.93 Q135.51 1511.93 138.658 1516.54 Q141.829 1521.12 141.829 1529.87 Q141.829 1538.05 137.94 1542.93 Q134.075 1547.79 127.524 1547.79 Q125.764 1547.79 123.959 1547.44 Q122.153 1547.1 120.209 1546.4 M129.514 1531.75 Q132.663 1531.75 134.491 1529.6 Q136.343 1527.44 136.343 1523.69 Q136.343 1519.97 134.491 1517.81 Q132.663 1515.64 129.514 1515.64 Q126.366 1515.64 124.514 1517.81 Q122.686 1519.97 122.686 1523.69 Q122.686 1527.44 124.514 1529.6 Q126.366 1531.75 129.514 1531.75 Z" fill="#000000" fill-rule="evenodd" fill-opacity="1" /><path clip-path="url(#clip310)" d="M 0 0 M157.477 1527.98 Q154.329 1527.98 152.477 1530.13 Q150.649 1532.28 150.649 1536.03 Q150.649 1539.76 152.477 1541.93 Q154.329 1544.09 157.477 1544.09 Q160.625 1544.09 162.454 1541.93 Q164.306 1539.76 164.306 1536.03 Q164.306 1532.28 162.454 1530.13 Q160.625 1527.98 157.477 1527.98 M166.76 1513.32 L166.76 1517.58 Q165 1516.75 163.195 1516.31 Q161.412 1515.87 159.653 1515.87 Q155.024 1515.87 152.57 1519 Q150.139 1522.12 149.792 1528.44 Q151.158 1526.43 153.218 1525.36 Q155.278 1524.27 157.755 1524.27 Q162.963 1524.27 165.973 1527.44 Q169.005 1530.59 169.005 1536.03 Q169.005 1541.36 165.857 1544.57 Q162.709 1547.79 157.477 1547.79 Q151.482 1547.79 148.311 1543.21 Q145.139 1538.6 145.139 1529.87 Q145.139 1521.68 149.028 1516.82 Q152.917 1511.93 159.468 1511.93 Q161.227 1511.93 163.01 1512.28 Q164.815 1512.63 166.76 1513.32 Z" fill="#000000" fill-rule="evenodd" fill-opacity="1" /><path clip-path="url(#clip310)" d="M 0 0 M171.32 1532.24 L183.797 1532.24 L183.797 1536.03 L171.32 1536.03 L171.32 1532.24 Z" fill="#000000" fill-rule="evenodd" fill-opacity="1" /><path clip-path="url(#clip310)" d="M 0 0 M198.866 1515.64 Q195.255 1515.64 193.426 1519.2 Q191.621 1522.75 191.621 1529.87 Q191.621 1536.98 193.426 1540.55 Q195.255 1544.09 198.866 1544.09 Q202.5 1544.09 204.306 1540.55 Q206.134 1536.98 206.134 1529.87 Q206.134 1522.75 204.306 1519.2 Q202.5 1515.64 198.866 1515.64 M198.866 1511.93 Q204.676 1511.93 207.732 1516.54 Q210.81 1521.12 210.81 1529.87 Q210.81 1538.6 207.732 1543.21 Q204.676 1547.79 198.866 1547.79 Q193.056 1547.79 189.977 1543.21 Q186.922 1538.6 186.922 1529.87 Q186.922 1521.12 189.977 1516.54 Q193.056 1511.93 198.866 1511.93 Z" fill="#000000" fill-rule="evenodd" fill-opacity="1" /><path clip-path="url(#clip310)" d="M 0 0 M216.69 1543.18 L224.329 1543.18 L224.329 1516.82 L216.019 1518.49 L216.019 1514.23 L224.282 1512.56 L228.958 1512.56 L228.958 1543.18 L236.597 1543.18 L236.597 1547.12 L216.69 1547.12 L216.69 1543.18 Z" fill="#000000" fill-rule="evenodd" fill-opacity="1" /><path clip-path="url(#clip310)" d="M 0 0 M238.912 1532.24 L251.389 1532.24 L251.389 1536.03 L238.912 1536.03 L238.912 1532.24 Z" fill="#000000" fill-rule="evenodd" fill-opacity="1" /><path clip-path="url(#clip310)" d="M 0 0 M266.458 1515.64 Q262.847 1515.64 261.018 1519.2 Q259.213 1522.75 259.213 1529.87 Q259.213 1536.98 261.018 1540.55 Q262.847 1544.09 266.458 1544.09 Q270.092 1544.09 271.898 1540.55 Q273.727 1536.98 273.727 1529.87 Q273.727 1522.75 271.898 1519.2 Q270.092 1515.64 266.458 1515.64 M266.458 1511.93 Q272.268 1511.93 275.324 1516.54 Q278.403 1521.12 278.403 1529.87 Q278.403 1538.6 275.324 1543.21 Q272.268 1547.79 266.458 1547.79 Q260.648 1547.79 257.569 1543.21 Q254.514 1538.6 254.514 1529.87 Q254.514 1521.12 257.569 1516.54 Q260.648 1511.93 266.458 1511.93 Z" fill="#000000" fill-rule="evenodd" fill-opacity="1" /><path clip-path="url(#clip310)" d="M 0 0 M284.282 1543.18 L291.921 1543.18 L291.921 1516.82 L283.611 1518.49 L283.611 1514.23 L291.875 1512.56 L296.551 1512.56 L296.551 1543.18 L304.189 1543.18 L304.189 1547.12 L284.282 1547.12 L284.282 1543.18 Z" fill="#000000" fill-rule="evenodd" fill-opacity="1" /><path clip-path="url(#clip310)" d="M 0 0 M666.177 1543.18 L682.496 1543.18 L682.496 1547.12 L660.552 1547.12 L660.552 1543.18 Q663.214 1540.43 667.797 1535.8 Q672.403 1531.15 673.584 1529.81 Q675.829 1527.28 676.709 1525.55 Q677.612 1523.79 677.612 1522.1 Q677.612 1519.34 675.667 1517.61 Q673.746 1515.87 670.644 1515.87 Q668.445 1515.87 665.991 1516.63 Q663.561 1517.4 660.783 1518.95 L660.783 1514.23 Q663.607 1513.09 666.061 1512.51 Q668.515 1511.93 670.552 1511.93 Q675.922 1511.93 679.116 1514.62 Q682.311 1517.31 682.311 1521.8 Q682.311 1523.93 681.501 1525.85 Q680.714 1527.74 678.607 1530.34 Q678.028 1531.01 674.927 1534.23 Q671.825 1537.42 666.177 1543.18 Z" fill="#000000" fill-rule="evenodd" fill-opacity="1" /><path clip-path="url(#clip310)" d="M 0 0 M697.565 1515.64 Q693.954 1515.64 692.126 1519.2 Q690.32 1522.75 690.32 1529.87 Q690.32 1536.98 692.126 1540.55 Q693.954 1544.09 697.565 1544.09 Q701.2 1544.09 703.005 1540.55 Q704.834 1536.98 704.834 1529.87 Q704.834 1522.75 703.005 1519.2 Q701.2 1515.64 697.565 1515.64 M697.565 1511.93 Q703.375 1511.93 706.431 1516.54 Q709.51 1521.12 709.51 1529.87 Q709.51 1538.6 706.431 1543.21 Q703.375 1547.79 697.565 1547.79 Q691.755 1547.79 688.676 1543.21 Q685.621 1538.6 685.621 1529.87 Q685.621 1521.12 688.676 1516.54 Q691.755 1511.93 697.565 1511.93 Z" fill="#000000" fill-rule="evenodd" fill-opacity="1" /><path clip-path="url(#clip310)" d="M 0 0 M724.579 1515.64 Q720.968 1515.64 719.139 1519.2 Q717.334 1522.75 717.334 1529.87 Q717.334 1536.98 719.139 1540.55 Q720.968 1544.09 724.579 1544.09 Q728.213 1544.09 730.019 1540.55 Q731.848 1536.98 731.848 1529.87 Q731.848 1522.75 730.019 1519.2 Q728.213 1515.64 724.579 1515.64 M724.579 1511.93 Q730.389 1511.93 733.445 1516.54 Q736.523 1521.12 736.523 1529.87 Q736.523 1538.6 733.445 1543.21 Q730.389 1547.79 724.579 1547.79 Q718.769 1547.79 715.69 1543.21 Q712.635 1538.6 712.635 1529.87 Q712.635 1521.12 715.69 1516.54 Q718.769 1511.93 724.579 1511.93 Z" fill="#000000" fill-rule="evenodd" fill-opacity="1" /><path clip-path="url(#clip310)" d="M 0 0 M755.759 1528.49 Q759.116 1529.2 760.991 1531.47 Q762.889 1533.74 762.889 1537.07 Q762.889 1542.19 759.371 1544.99 Q755.852 1547.79 749.371 1547.79 Q747.195 1547.79 744.88 1547.35 Q742.588 1546.93 740.135 1546.08 L740.135 1541.56 Q742.079 1542.7 744.394 1543.28 Q746.709 1543.86 749.232 1543.86 Q753.63 1543.86 755.922 1542.12 Q758.236 1540.38 758.236 1537.07 Q758.236 1534.02 756.084 1532.31 Q753.954 1530.57 750.135 1530.57 L746.107 1530.57 L746.107 1526.73 L750.32 1526.73 Q753.769 1526.73 755.597 1525.36 Q757.426 1523.97 757.426 1521.38 Q757.426 1518.72 755.528 1517.31 Q753.653 1515.87 750.135 1515.87 Q748.213 1515.87 746.014 1516.29 Q743.815 1516.7 741.176 1517.58 L741.176 1513.42 Q743.838 1512.68 746.153 1512.31 Q748.491 1511.93 750.551 1511.93 Q755.875 1511.93 758.977 1514.37 Q762.079 1516.77 762.079 1520.89 Q762.079 1523.76 760.435 1525.75 Q758.792 1527.72 755.759 1528.49 Z" fill="#000000" fill-rule="evenodd" fill-opacity="1" /><path clip-path="url(#clip310)" d="M 0 0 M765.204 1532.24 L777.681 1532.24 L777.681 1536.03 L765.204 1536.03 L765.204 1532.24 Z" fill="#000000" fill-rule="evenodd" fill-opacity="1" /><path clip-path="url(#clip310)" d="M 0 0 M792.75 1515.64 Q789.139 1515.64 787.31 1519.2 Q785.505 1522.75 785.505 1529.87 Q785.505 1536.98 787.31 1540.55 Q789.139 1544.09 792.75 1544.09 Q796.384 1544.09 798.19 1540.55 Q800.018 1536.98 800.018 1529.87 Q800.018 1522.75 798.19 1519.2 Q796.384 1515.64 792.75 1515.64 M792.75 1511.93 Q798.56 1511.93 801.616 1516.54 Q804.694 1521.12 804.694 1529.87 Q804.694 1538.6 801.616 1543.21 Q798.56 1547.79 792.75 1547.79 Q786.94 1547.79 783.861 1543.21 Q780.806 1538.6 780.806 1529.87 Q780.806 1521.12 783.861 1516.54 Q786.94 1511.93 792.75 1511.93 Z" fill="#000000" fill-rule="evenodd" fill-opacity="1" /><path clip-path="url(#clip310)" d="M 0 0 M810.574 1543.18 L818.213 1543.18 L818.213 1516.82 L809.903 1518.49 L809.903 1514.23 L818.167 1512.56 L822.842 1512.56 L822.842 1543.18 L830.481 1543.18 L830.481 1547.12 L810.574 1547.12 L810.574 1543.18 Z" fill="#000000" fill-rule="evenodd" fill-opacity="1" /><path clip-path="url(#clip310)" d="M 0 0 M832.796 1532.24 L845.273 1532.24 L845.273 1536.03 L832.796 1536.03 L832.796 1532.24 Z" fill="#000000" fill-rule="evenodd" fill-opacity="1" /><path clip-path="url(#clip310)" d="M 0 0 M860.342 1515.64 Q856.731 1515.64 854.902 1519.2 Q853.097 1522.75 853.097 1529.87 Q853.097 1536.98 854.902 1540.55 Q856.731 1544.09 860.342 1544.09 Q863.976 1544.09 865.782 1540.55 Q867.611 1536.98 867.611 1529.87 Q867.611 1522.75 865.782 1519.2 Q863.976 1515.64 860.342 1515.64 M860.342 1511.93 Q866.152 1511.93 869.208 1516.54 Q872.287 1521.12 872.287 1529.87 Q872.287 1538.6 869.208 1543.21 Q866.152 1547.79 860.342 1547.79 Q854.532 1547.79 851.453 1543.21 Q848.398 1538.6 848.398 1529.87 Q848.398 1521.12 851.453 1516.54 Q854.532 1511.93 860.342 1511.93 Z" fill="#000000" fill-rule="evenodd" fill-opacity="1" /><path clip-path="url(#clip310)" d="M 0 0 M878.166 1543.18 L885.805 1543.18 L885.805 1516.82 L877.495 1518.49 L877.495 1514.23 L885.759 1512.56 L890.435 1512.56 L890.435 1543.18 L898.074 1543.18 L898.074 1547.12 L878.166 1547.12 L878.166 1543.18 Z" fill="#000000" fill-rule="evenodd" fill-opacity="1" /><path clip-path="url(#clip310)" d="M 0 0 M1259.89 1543.18 L1276.21 1543.18 L1276.21 1547.12 L1254.26 1547.12 L1254.26 1543.18 Q1256.92 1540.43 1261.51 1535.8 Q1266.11 1531.15 1267.29 1529.81 Q1269.54 1527.28 1270.42 1525.55 Q1271.32 1523.79 1271.32 1522.1 Q1271.32 1519.34 1269.38 1517.61 Q1267.46 1515.87 1264.35 1515.87 Q1262.16 1515.87 1259.7 1516.63 Q1257.27 1517.4 1254.49 1518.95 L1254.49 1514.23 Q1257.32 1513.09 1259.77 1512.51 Q1262.23 1511.93 1264.26 1511.93 Q1269.63 1511.93 1272.83 1514.62 Q1276.02 1517.31 1276.02 1521.8 Q1276.02 1523.93 1275.21 1525.85 Q1274.42 1527.74 1272.32 1530.34 Q1271.74 1531.01 1268.64 1534.23 Q1265.54 1537.42 1259.89 1543.18 Z" fill="#000000" fill-rule="evenodd" fill-opacity="1" /><path clip-path="url(#clip310)" d="M 0 0 M1291.28 1515.64 Q1287.66 1515.64 1285.84 1519.2 Q1284.03 1522.75 1284.03 1529.87 Q1284.03 1536.98 1285.84 1540.55 Q1287.66 1544.09 1291.28 1544.09 Q1294.91 1544.09 1296.72 1540.55 Q1298.54 1536.98 1298.54 1529.87 Q1298.54 1522.75 1296.72 1519.2 Q1294.91 1515.64 1291.28 1515.64 M1291.28 1511.93 Q1297.09 1511.93 1300.14 1516.54 Q1303.22 1521.12 1303.22 1529.87 Q1303.22 1538.6 1300.14 1543.21 Q1297.09 1547.79 1291.28 1547.79 Q1285.47 1547.79 1282.39 1543.21 Q1279.33 1538.6 1279.33 1529.87 Q1279.33 1521.12 1282.39 1516.54 Q1285.47 1511.93 1291.28 1511.93 Z" fill="#000000" fill-rule="evenodd" fill-opacity="1" /><path clip-path="url(#clip310)" d="M 0 0 M1309.1 1543.18 L1316.74 1543.18 L1316.74 1516.82 L1308.43 1518.49 L1308.43 1514.23 L1316.69 1512.56 L1321.37 1512.56 L1321.37 1543.18 L1329.01 1543.18 L1329.01 1547.12 L1309.1 1547.12 L1309.1 1543.18 Z" fill="#000000" fill-rule="evenodd" fill-opacity="1" /><path clip-path="url(#clip310)" d="M 0 0 M1344.08 1515.64 Q1340.47 1515.64 1338.64 1519.2 Q1336.83 1522.75 1336.83 1529.87 Q1336.83 1536.98 1338.64 1540.55 Q1340.47 1544.09 1344.08 1544.09 Q1347.71 1544.09 1349.52 1540.55 Q1351.34 1536.98 1351.34 1529.87 Q1351.34 1522.75 1349.52 1519.2 Q1347.71 1515.64 1344.08 1515.64 M1344.08 1511.93 Q1349.89 1511.93 1352.94 1516.54 Q1356.02 1521.12 1356.02 1529.87 Q1356.02 1538.6 1352.94 1543.21 Q1349.89 1547.79 1344.08 1547.79 Q1338.27 1547.79 1335.19 1543.21 Q1332.13 1538.6 1332.13 1529.87 Q1332.13 1521.12 1335.19 1516.54 Q1338.27 1511.93 1344.08 1511.93 Z" fill="#000000" fill-rule="evenodd" fill-opacity="1" /><path clip-path="url(#clip310)" d="M 0 0 M1358.34 1532.24 L1370.81 1532.24 L1370.81 1536.03 L1358.34 1536.03 L1358.34 1532.24 Z" fill="#000000" fill-rule="evenodd" fill-opacity="1" /><path clip-path="url(#clip310)" d="M 0 0 M1385.88 1515.64 Q1382.27 1515.64 1380.44 1519.2 Q1378.64 1522.75 1378.64 1529.87 Q1378.64 1536.98 1380.44 1540.55 Q1382.27 1544.09 1385.88 1544.09 Q1389.52 1544.09 1391.32 1540.55 Q1393.15 1536.98 1393.15 1529.87 Q1393.15 1522.75 1391.32 1519.2 Q1389.52 1515.64 1385.88 1515.64 M1385.88 1511.93 Q1391.69 1511.93 1394.75 1516.54 Q1397.83 1521.12 1397.83 1529.87 Q1397.83 1538.6 1394.75 1543.21 Q1391.69 1547.79 1385.88 1547.79 Q1380.07 1547.79 1376.99 1543.21 Q1373.94 1538.6 1373.94 1529.87 Q1373.94 1521.12 1376.99 1516.54 Q1380.07 1511.93 1385.88 1511.93 Z" fill="#000000" fill-rule="evenodd" fill-opacity="1" /><path clip-path="url(#clip310)" d="M 0 0 M1403.71 1543.18 L1411.34 1543.18 L1411.34 1516.82 L1403.03 1518.49 L1403.03 1514.23 L1411.3 1512.56 L1415.97 1512.56 L1415.97 1543.18 L1423.61 1543.18 L1423.61 1547.12 L1403.71 1547.12 L1403.71 1543.18 Z" fill="#000000" fill-rule="evenodd" fill-opacity="1" /><path clip-path="url(#clip310)" d="M 0 0 M1425.93 1532.24 L1438.4 1532.24 L1438.4 1536.03 L1425.93 1536.03 L1425.93 1532.24 Z" fill="#000000" fill-rule="evenodd" fill-opacity="1" /><path clip-path="url(#clip310)" d="M 0 0 M1453.47 1515.64 Q1449.86 1515.64 1448.03 1519.2 Q1446.23 1522.75 1446.23 1529.87 Q1446.23 1536.98 1448.03 1540.55 Q1449.86 1544.09 1453.47 1544.09 Q1457.11 1544.09 1458.91 1540.55 Q1460.74 1536.98 1460.74 1529.87 Q1460.74 1522.75 1458.91 1519.2 Q1457.11 1515.64 1453.47 1515.64 M1453.47 1511.93 Q1459.28 1511.93 1462.34 1516.54 Q1465.42 1521.12 1465.42 1529.87 Q1465.42 1538.6 1462.34 1543.21 Q1459.28 1547.79 1453.47 1547.79 Q1447.66 1547.79 1444.59 1543.21 Q1441.53 1538.6 1441.53 1529.87 Q1441.53 1521.12 1444.59 1516.54 Q1447.66 1511.93 1453.47 1511.93 Z" fill="#000000" fill-rule="evenodd" fill-opacity="1" /><path clip-path="url(#clip310)" d="M 0 0 M1471.3 1543.18 L1478.94 1543.18 L1478.94 1516.82 L1470.63 1518.49 L1470.63 1514.23 L1478.89 1512.56 L1483.57 1512.56 L1483.57 1543.18 L1491.21 1543.18 L1491.21 1547.12 L1471.3 1547.12 L1471.3 1543.18 Z" fill="#000000" fill-rule="evenodd" fill-opacity="1" /><path clip-path="url(#clip310)" d="M 0 0 M1853.76 1543.18 L1870.08 1543.18 L1870.08 1547.12 L1848.13 1547.12 L1848.13 1543.18 Q1850.8 1540.43 1855.38 1535.8 Q1859.99 1531.15 1861.17 1529.81 Q1863.41 1527.28 1864.29 1525.55 Q1865.19 1523.79 1865.19 1522.1 Q1865.19 1519.34 1863.25 1517.61 Q1861.33 1515.87 1858.23 1515.87 Q1856.03 1515.87 1853.57 1516.63 Q1851.14 1517.4 1848.37 1518.95 L1848.37 1514.23 Q1851.19 1513.09 1853.64 1512.51 Q1856.1 1511.93 1858.13 1511.93 Q1863.5 1511.93 1866.7 1514.62 Q1869.89 1517.31 1869.89 1521.8 Q1869.89 1523.93 1869.08 1525.85 Q1868.3 1527.74 1866.19 1530.34 Q1865.61 1531.01 1862.51 1534.23 Q1859.41 1537.42 1853.76 1543.18 Z" fill="#000000" fill-rule="evenodd" fill-opacity="1" /><path clip-path="url(#clip310)" d="M 0 0 M1885.15 1515.64 Q1881.54 1515.64 1879.71 1519.2 Q1877.9 1522.75 1877.9 1529.87 Q1877.9 1536.98 1879.71 1540.55 Q1881.54 1544.09 1885.15 1544.09 Q1888.78 1544.09 1890.59 1540.55 Q1892.42 1536.98 1892.42 1529.87 Q1892.42 1522.75 1890.59 1519.2 Q1888.78 1515.64 1885.15 1515.64 M1885.15 1511.93 Q1890.96 1511.93 1894.01 1516.54 Q1897.09 1521.12 1897.09 1529.87 Q1897.09 1538.6 1894.01 1543.21 Q1890.96 1547.79 1885.15 1547.79 Q1879.34 1547.79 1876.26 1543.21 Q1873.2 1538.6 1873.2 1529.87 Q1873.2 1521.12 1876.26 1516.54 Q1879.34 1511.93 1885.15 1511.93 Z" fill="#000000" fill-rule="evenodd" fill-opacity="1" /><path clip-path="url(#clip310)" d="M 0 0 M1902.97 1543.18 L1910.61 1543.18 L1910.61 1516.82 L1902.3 1518.49 L1902.3 1514.23 L1910.56 1512.56 L1915.24 1512.56 L1915.24 1543.18 L1922.88 1543.18 L1922.88 1547.12 L1902.97 1547.12 L1902.97 1543.18 Z" fill="#000000" fill-rule="evenodd" fill-opacity="1" /><path clip-path="url(#clip310)" d="M 0 0 M1926.77 1512.56 L1948.99 1512.56 L1948.99 1514.55 L1936.44 1547.12 L1931.56 1547.12 L1943.37 1516.5 L1926.77 1516.5 L1926.77 1512.56 Z" fill="#000000" fill-rule="evenodd" fill-opacity="1" /><path clip-path="url(#clip310)" d="M 0 0 M1951.31 1532.24 L1963.78 1532.24 L1963.78 1536.03 L1951.31 1536.03 L1951.31 1532.24 Z" fill="#000000" fill-rule="evenodd" fill-opacity="1" /><path clip-path="url(#clip310)" d="M 0 0 M1978.85 1515.64 Q1975.24 1515.64 1973.41 1519.2 Q1971.61 1522.75 1971.61 1529.87 Q1971.61 1536.98 1973.41 1540.55 Q1975.24 1544.09 1978.85 1544.09 Q1982.49 1544.09 1984.29 1540.55 Q1986.12 1536.98 1986.12 1529.87 Q1986.12 1522.75 1984.29 1519.2 Q1982.49 1515.64 1978.85 1515.64 M1978.85 1511.93 Q1984.66 1511.93 1987.72 1516.54 Q1990.8 1521.12 1990.8 1529.87 Q1990.8 1538.6 1987.72 1543.21 Q1984.66 1547.79 1978.85 1547.79 Q1973.04 1547.79 1969.96 1543.21 Q1966.91 1538.6 1966.91 1529.87 Q1966.91 1521.12 1969.96 1516.54 Q1973.04 1511.93 1978.85 1511.93 Z" fill="#000000" fill-rule="evenodd" fill-opacity="1" /><path clip-path="url(#clip310)" d="M 0 0 M1996.68 1543.18 L2004.31 1543.18 L2004.31 1516.82 L1996 1518.49 L1996 1514.23 L2004.27 1512.56 L2008.94 1512.56 L2008.94 1543.18 L2016.58 1543.18 L2016.58 1547.12 L1996.68 1547.12 L1996.68 1543.18 Z" fill="#000000" fill-rule="evenodd" fill-opacity="1" /><path clip-path="url(#clip310)" d="M 0 0 M2018.9 1532.24 L2031.37 1532.24 L2031.37 1536.03 L2018.9 1536.03 L2018.9 1532.24 Z" fill="#000000" fill-rule="evenodd" fill-opacity="1" /><path clip-path="url(#clip310)" d="M 0 0 M2046.44 1515.64 Q2042.83 1515.64 2041 1519.2 Q2039.2 1522.75 2039.2 1529.87 Q2039.2 1536.98 2041 1540.55 Q2042.83 1544.09 2046.44 1544.09 Q2050.08 1544.09 2051.88 1540.55 Q2053.71 1536.98 2053.71 1529.87 Q2053.71 1522.75 2051.88 1519.2 Q2050.08 1515.64 2046.44 1515.64 M2046.44 1511.93 Q2052.25 1511.93 2055.31 1516.54 Q2058.39 1521.12 2058.39 1529.87 Q2058.39 1538.6 2055.31 1543.21 Q2052.25 1547.79 2046.44 1547.79 Q2040.63 1547.79 2037.55 1543.21 Q2034.5 1538.6 2034.5 1529.87 Q2034.5 1521.12 2037.55 1516.54 Q2040.63 1511.93 2046.44 1511.93 Z" fill="#000000" fill-rule="evenodd" fill-opacity="1" /><path clip-path="url(#clip310)" d="M 0 0 M2064.27 1543.18 L2071.91 1543.18 L2071.91 1516.82 L2063.6 1518.49 L2063.6 1514.23 L2071.86 1512.56 L2076.54 1512.56 L2076.54 1543.18 L2084.18 1543.18 L2084.18 1547.12 L2064.27 1547.12 L2064.27 1543.18 Z" fill="#000000" fill-rule="evenodd" fill-opacity="1" /><polyline clip-path="url(#clip312)" style="stroke:#000000; stroke-width:2; stroke-opacity:0.1; fill:none" points="
  148.334,1373.71 2352.76,1373.71 
  "/>
<polyline clip-path="url(#clip312)" style="stroke:#000000; stroke-width:2; stroke-opacity:0.1; fill:none" points="
  148.334,1168 2352.76,1168 
  "/>
<polyline clip-path="url(#clip312)" style="stroke:#000000; stroke-width:2; stroke-opacity:0.1; fill:none" points="
  148.334,962.278 2352.76,962.278 
  "/>
<polyline clip-path="url(#clip312)" style="stroke:#000000; stroke-width:2; stroke-opacity:0.1; fill:none" points="
  148.334,756.56 2352.76,756.56 
  "/>
<polyline clip-path="url(#clip312)" style="stroke:#000000; stroke-width:2; stroke-opacity:0.1; fill:none" points="
  148.334,550.842 2352.76,550.842 
  "/>
<polyline clip-path="url(#clip312)" style="stroke:#000000; stroke-width:2; stroke-opacity:0.1; fill:none" points="
  148.334,345.124 2352.76,345.124 
  "/>
<polyline clip-path="url(#clip312)" style="stroke:#000000; stroke-width:2; stroke-opacity:0.1; fill:none" points="
  148.334,139.406 2352.76,139.406 
  "/>
<polyline clip-path="url(#clip310)" style="stroke:#000000; stroke-width:4; stroke-opacity:1; fill:none" points="
  148.334,1486.45 148.334,47.2441 
  "/>
<polyline clip-path="url(#clip310)" style="stroke:#000000; stroke-width:4; stroke-opacity:1; fill:none" points="
  148.334,1373.71 174.787,1373.71 
  "/>
<polyline clip-path="url(#clip310)" style="stroke:#000000; stroke-width:4; stroke-opacity:1; fill:none" points="
  148.334,1168 174.787,1168 
  "/>
<polyline clip-path="url(#clip310)" style="stroke:#000000; stroke-width:4; stroke-opacity:1; fill:none" points="
  148.334,962.278 174.787,962.278 
  "/>
<polyline clip-path="url(#clip310)" style="stroke:#000000; stroke-width:4; stroke-opacity:1; fill:none" points="
  148.334,756.56 174.787,756.56 
  "/>
<polyline clip-path="url(#clip310)" style="stroke:#000000; stroke-width:4; stroke-opacity:1; fill:none" points="
  148.334,550.842 174.787,550.842 
  "/>
<polyline clip-path="url(#clip310)" style="stroke:#000000; stroke-width:4; stroke-opacity:1; fill:none" points="
  148.334,345.124 174.787,345.124 
  "/>
<polyline clip-path="url(#clip310)" style="stroke:#000000; stroke-width:4; stroke-opacity:1; fill:none" points="
  148.334,139.406 174.787,139.406 
  "/>
<path clip-path="url(#clip310)" d="M 0 0 M63.4226 1359.51 Q59.8115 1359.51 57.9828 1363.08 Q56.1773 1366.62 56.1773 1373.75 Q56.1773 1380.86 57.9828 1384.42 Q59.8115 1387.96 63.4226 1387.96 Q67.0569 1387.96 68.8624 1384.42 Q70.6911 1380.86 70.6911 1373.75 Q70.6911 1366.62 68.8624 1363.08 Q67.0569 1359.51 63.4226 1359.51 M63.4226 1355.81 Q69.2328 1355.81 72.2883 1360.42 Q75.367 1365 75.367 1373.75 Q75.367 1382.48 72.2883 1387.08 Q69.2328 1391.67 63.4226 1391.67 Q57.6125 1391.67 54.5338 1387.08 Q51.4782 1382.48 51.4782 1373.75 Q51.4782 1365 54.5338 1360.42 Q57.6125 1355.81 63.4226 1355.81 Z" fill="#000000" fill-rule="evenodd" fill-opacity="1" /><path clip-path="url(#clip310)" d="M 0 0 M80.4364 1385.11 L85.3206 1385.11 L85.3206 1390.99 L80.4364 1390.99 L80.4364 1385.11 Z" fill="#000000" fill-rule="evenodd" fill-opacity="1" /><path clip-path="url(#clip310)" d="M 0 0 M100.39 1359.51 Q96.7789 1359.51 94.9502 1363.08 Q93.1447 1366.62 93.1447 1373.75 Q93.1447 1380.86 94.9502 1384.42 Q96.7789 1387.96 100.39 1387.96 Q104.024 1387.96 105.83 1384.42 Q107.658 1380.86 107.658 1373.75 Q107.658 1366.62 105.83 1363.08 Q104.024 1359.51 100.39 1359.51 M100.39 1355.81 Q106.2 1355.81 109.256 1360.42 Q112.334 1365 112.334 1373.75 Q112.334 1382.48 109.256 1387.08 Q106.2 1391.67 100.39 1391.67 Q94.5799 1391.67 91.5012 1387.08 Q88.4456 1382.48 88.4456 1373.75 Q88.4456 1365 91.5012 1360.42 Q94.5799 1355.81 100.39 1355.81 Z" fill="#000000" fill-rule="evenodd" fill-opacity="1" /><path clip-path="url(#clip310)" d="M 0 0 M65.0198 1153.79 Q61.4087 1153.79 59.58 1157.36 Q57.7745 1160.9 57.7745 1168.03 Q57.7745 1175.14 59.58 1178.7 Q61.4087 1182.24 65.0198 1182.24 Q68.6541 1182.24 70.4596 1178.7 Q72.2883 1175.14 72.2883 1168.03 Q72.2883 1160.9 70.4596 1157.36 Q68.6541 1153.79 65.0198 1153.79 M65.0198 1150.09 Q70.83 1150.09 73.8855 1154.7 Q76.9642 1159.28 76.9642 1168.03 Q76.9642 1176.76 73.8855 1181.36 Q70.83 1185.95 65.0198 1185.95 Q59.2097 1185.95 56.131 1181.36 Q53.0754 1176.76 53.0754 1168.03 Q53.0754 1159.28 56.131 1154.7 Q59.2097 1150.09 65.0198 1150.09 Z" fill="#000000" fill-rule="evenodd" fill-opacity="1" /><path clip-path="url(#clip310)" d="M 0 0 M82.0336 1179.4 L86.9179 1179.4 L86.9179 1185.28 L82.0336 1185.28 L82.0336 1179.4 Z" fill="#000000" fill-rule="evenodd" fill-opacity="1" /><path clip-path="url(#clip310)" d="M 0 0 M96.015 1181.34 L112.334 1181.34 L112.334 1185.28 L90.3901 1185.28 L90.3901 1181.34 Q93.0521 1178.59 97.6354 1173.96 Q102.242 1169.3 103.422 1167.96 Q105.668 1165.44 106.547 1163.7 Q107.45 1161.94 107.45 1160.25 Q107.45 1157.5 105.506 1155.76 Q103.584 1154.03 100.483 1154.03 Q98.2835 1154.03 95.8298 1154.79 Q93.3993 1155.55 90.6215 1157.11 L90.6215 1152.38 Q93.4456 1151.25 95.8993 1150.67 Q98.353 1150.09 100.39 1150.09 Q105.76 1150.09 108.955 1152.78 Q112.149 1155.46 112.149 1159.95 Q112.149 1162.08 111.339 1164 Q110.552 1165.9 108.446 1168.49 Q107.867 1169.17 104.765 1172.38 Q101.663 1175.58 96.015 1181.34 Z" fill="#000000" fill-rule="evenodd" fill-opacity="1" /><path clip-path="url(#clip310)" d="M 0 0 M62.9365 948.077 Q59.3254 948.077 57.4967 951.642 Q55.6912 955.183 55.6912 962.313 Q55.6912 969.419 57.4967 972.984 Q59.3254 976.526 62.9365 976.526 Q66.5707 976.526 68.3763 972.984 Q70.205 969.419 70.205 962.313 Q70.205 955.183 68.3763 951.642 Q66.5707 948.077 62.9365 948.077 M62.9365 944.373 Q68.7467 944.373 71.8022 948.98 Q74.8809 953.563 74.8809 962.313 Q74.8809 971.04 71.8022 975.646 Q68.7467 980.229 62.9365 980.229 Q57.1264 980.229 54.0477 975.646 Q50.9921 971.04 50.9921 962.313 Q50.9921 953.563 54.0477 948.98 Q57.1264 944.373 62.9365 944.373 Z" fill="#000000" fill-rule="evenodd" fill-opacity="1" /><path clip-path="url(#clip310)" d="M 0 0 M79.9503 973.679 L84.8345 973.679 L84.8345 979.558 L79.9503 979.558 L79.9503 973.679 Z" fill="#000000" fill-rule="evenodd" fill-opacity="1" /><path clip-path="url(#clip310)" d="M 0 0 M102.751 949.072 L90.9456 967.521 L102.751 967.521 L102.751 949.072 M101.524 944.998 L107.404 944.998 L107.404 967.521 L112.334 967.521 L112.334 971.41 L107.404 971.41 L107.404 979.558 L102.751 979.558 L102.751 971.41 L87.1493 971.41 L87.1493 966.896 L101.524 944.998 Z" fill="#000000" fill-rule="evenodd" fill-opacity="1" /><path clip-path="url(#clip310)" d="M 0 0 M63.2606 742.359 Q59.6495 742.359 57.8208 745.924 Q56.0152 749.465 56.0152 756.595 Q56.0152 763.701 57.8208 767.266 Q59.6495 770.808 63.2606 770.808 Q66.8948 770.808 68.7004 767.266 Q70.5291 763.701 70.5291 756.595 Q70.5291 749.465 68.7004 745.924 Q66.8948 742.359 63.2606 742.359 M63.2606 738.655 Q69.0707 738.655 72.1263 743.262 Q75.205 747.845 75.205 756.595 Q75.205 765.322 72.1263 769.928 Q69.0707 774.511 63.2606 774.511 Q57.4504 774.511 54.3717 769.928 Q51.3162 765.322 51.3162 756.595 Q51.3162 747.845 54.3717 743.262 Q57.4504 738.655 63.2606 738.655 Z" fill="#000000" fill-rule="evenodd" fill-opacity="1" /><path clip-path="url(#clip310)" d="M 0 0 M80.2744 767.96 L85.1586 767.96 L85.1586 773.84 L80.2744 773.84 L80.2744 767.96 Z" fill="#000000" fill-rule="evenodd" fill-opacity="1" /><path clip-path="url(#clip310)" d="M 0 0 M100.807 754.697 Q97.6585 754.697 95.8067 756.849 Q93.978 759.002 93.978 762.752 Q93.978 766.479 95.8067 768.655 Q97.6585 770.808 100.807 770.808 Q103.955 770.808 105.783 768.655 Q107.635 766.479 107.635 762.752 Q107.635 759.002 105.783 756.849 Q103.955 754.697 100.807 754.697 M110.089 740.044 L110.089 744.303 Q108.33 743.47 106.524 743.03 Q104.742 742.59 102.983 742.59 Q98.353 742.59 95.8993 745.715 Q93.4688 748.84 93.1215 755.16 Q94.4873 753.146 96.5474 752.081 Q98.6076 750.993 101.084 750.993 Q106.293 750.993 109.302 754.164 Q112.334 757.312 112.334 762.752 Q112.334 768.076 109.186 771.294 Q106.038 774.511 100.807 774.511 Q94.8113 774.511 91.6401 769.928 Q88.4688 765.322 88.4688 756.595 Q88.4688 748.4 92.3576 743.539 Q96.2465 738.655 102.797 738.655 Q104.557 738.655 106.339 739.002 Q108.145 739.35 110.089 740.044 Z" fill="#000000" fill-rule="evenodd" fill-opacity="1" /><path clip-path="url(#clip310)" d="M 0 0 M63.5152 536.641 Q59.9041 536.641 58.0754 540.205 Q56.2699 543.747 56.2699 550.877 Q56.2699 557.983 58.0754 561.548 Q59.9041 565.09 63.5152 565.09 Q67.1494 565.09 68.955 561.548 Q70.7837 557.983 70.7837 550.877 Q70.7837 543.747 68.955 540.205 Q67.1494 536.641 63.5152 536.641 M63.5152 532.937 Q69.3254 532.937 72.3809 537.543 Q75.4596 542.127 75.4596 550.877 Q75.4596 559.604 72.3809 564.21 Q69.3254 568.793 63.5152 568.793 Q57.7051 568.793 54.6264 564.21 Q51.5708 559.604 51.5708 550.877 Q51.5708 542.127 54.6264 537.543 Q57.7051 532.937 63.5152 532.937 Z" fill="#000000" fill-rule="evenodd" fill-opacity="1" /><path clip-path="url(#clip310)" d="M 0 0 M80.529 562.242 L85.4132 562.242 L85.4132 568.122 L80.529 568.122 L80.529 562.242 Z" fill="#000000" fill-rule="evenodd" fill-opacity="1" /><path clip-path="url(#clip310)" d="M 0 0 M100.483 551.71 Q97.1493 551.71 95.228 553.492 Q93.3299 555.275 93.3299 558.4 Q93.3299 561.525 95.228 563.307 Q97.1493 565.09 100.483 565.09 Q103.816 565.09 105.737 563.307 Q107.658 561.502 107.658 558.4 Q107.658 555.275 105.737 553.492 Q103.839 551.71 100.483 551.71 M95.8067 549.719 Q92.7975 548.979 91.1077 546.918 Q89.441 544.858 89.441 541.895 Q89.441 537.752 92.3808 535.344 Q95.3437 532.937 100.483 532.937 Q105.645 532.937 108.584 535.344 Q111.524 537.752 111.524 541.895 Q111.524 544.858 109.834 546.918 Q108.168 548.979 105.182 549.719 Q108.561 550.506 110.436 552.798 Q112.334 555.09 112.334 558.4 Q112.334 563.423 109.256 566.108 Q106.2 568.793 100.483 568.793 Q94.765 568.793 91.6864 566.108 Q88.6308 563.423 88.6308 558.4 Q88.6308 555.09 90.529 552.798 Q92.4271 550.506 95.8067 549.719 M94.0937 542.335 Q94.0937 545.02 95.7604 546.525 Q97.4502 548.03 100.483 548.03 Q103.492 548.03 105.182 546.525 Q106.895 545.02 106.895 542.335 Q106.895 539.65 105.182 538.145 Q103.492 536.641 100.483 536.641 Q97.4502 536.641 95.7604 538.145 Q94.0937 539.65 94.0937 542.335 Z" fill="#000000" fill-rule="evenodd" fill-opacity="1" /><path clip-path="url(#clip310)" d="M 0 0 M55.4597 358.469 L63.0985 358.469 L63.0985 332.103 L54.7884 333.77 L54.7884 329.511 L63.0522 327.844 L67.7281 327.844 L67.7281 358.469 L75.367 358.469 L75.367 362.404 L55.4597 362.404 L55.4597 358.469 Z" fill="#000000" fill-rule="evenodd" fill-opacity="1" /><path clip-path="url(#clip310)" d="M 0 0 M80.4364 356.524 L85.3206 356.524 L85.3206 362.404 L80.4364 362.404 L80.4364 356.524 Z" fill="#000000" fill-rule="evenodd" fill-opacity="1" /><path clip-path="url(#clip310)" d="M 0 0 M100.39 330.923 Q96.7789 330.923 94.9502 334.487 Q93.1447 338.029 93.1447 345.159 Q93.1447 352.265 94.9502 355.83 Q96.7789 359.372 100.39 359.372 Q104.024 359.372 105.83 355.83 Q107.658 352.265 107.658 345.159 Q107.658 338.029 105.83 334.487 Q104.024 330.923 100.39 330.923 M100.39 327.219 Q106.2 327.219 109.256 331.825 Q112.334 336.409 112.334 345.159 Q112.334 353.885 109.256 358.492 Q106.2 363.075 100.39 363.075 Q94.5799 363.075 91.5012 358.492 Q88.4456 353.885 88.4456 345.159 Q88.4456 336.409 91.5012 331.825 Q94.5799 327.219 100.39 327.219 Z" fill="#000000" fill-rule="evenodd" fill-opacity="1" /><path clip-path="url(#clip310)" d="M 0 0 M57.0569 152.751 L64.6958 152.751 L64.6958 126.385 L56.3856 128.052 L56.3856 123.792 L64.6495 122.126 L69.3254 122.126 L69.3254 152.751 L76.9642 152.751 L76.9642 156.686 L57.0569 156.686 L57.0569 152.751 Z" fill="#000000" fill-rule="evenodd" fill-opacity="1" /><path clip-path="url(#clip310)" d="M 0 0 M82.0336 150.806 L86.9179 150.806 L86.9179 156.686 L82.0336 156.686 L82.0336 150.806 Z" fill="#000000" fill-rule="evenodd" fill-opacity="1" /><path clip-path="url(#clip310)" d="M 0 0 M96.015 152.751 L112.334 152.751 L112.334 156.686 L90.3901 156.686 L90.3901 152.751 Q93.0521 149.996 97.6354 145.366 Q102.242 140.714 103.422 139.371 Q105.668 136.848 106.547 135.112 Q107.45 133.353 107.45 131.663 Q107.45 128.908 105.506 127.172 Q103.584 125.436 100.483 125.436 Q98.2835 125.436 95.8298 126.2 Q93.3993 126.964 90.6215 128.515 L90.6215 123.792 Q93.4456 122.658 95.8993 122.08 Q98.353 121.501 100.39 121.501 Q105.76 121.501 108.955 124.186 Q112.149 126.871 112.149 131.362 Q112.149 133.491 111.339 135.413 Q110.552 137.311 108.446 139.903 Q107.867 140.575 104.765 143.792 Q101.663 146.987 96.015 152.751 Z" fill="#000000" fill-rule="evenodd" fill-opacity="1" /><polyline clip-path="url(#clip312)" style="stroke:#009af9; stroke-width:4; stroke-opacity:1; fill:none" points="
  2290.37,622.843 2269.25,705.131 2248.13,715.416 2226.55,87.9763 2205.66,591.986 2184.31,807.99 2163.19,735.988 2142.07,293.694 2121.41,622.843 2099.83,771.989 
  2078.71,671.701 2058.06,373.41 2036.94,841.419 2015.36,944.278 1994.24,833.704 1973.12,509.698 1950.37,944.278 1929.25,1008.56 1908.14,885.134 1887.02,530.27 
  1865.9,869.705 1843.15,897.991 1823.43,774.56 1802.54,586.843 1779.56,1008.56 1758.68,1044.57 1737.79,946.849 1717.83,841.419 1696.71,1070.28 1674.2,1098.57 
  1653.08,1003.42 1632.2,867.134 1611.31,1054.85 1589.73,1031.71 1568.61,921.135 1547.49,864.562 1524.74,1114 1503.63,1088.28 1482.74,1139.71 1461.39,1137.14 
  1440.04,1204 1419.15,1245.14 1398.03,1250.28 1378.3,1240 1355.56,1306.86 1334.67,1324.86 1313.79,1324.86 1292.67,1309.43 1271.32,1327.43 1249.96,1330 
  1229.31,1330 1207.96,1116.57 1186.61,1229.71 1165.95,1240 1144.83,1250.28 1122.09,1209.14 1100.97,1281.14 1079.85,1291.43 1058.73,1301.71 1037.61,1281.14 
  1014.64,1322.28 993.752,1322.28 972.633,1322.28 951.514,1322.28 930.395,1353.14 909.276,1363.43 888.157,1363.43 867.038,1363.43 845.919,1363.43 824.8,1372.79 
  803.681,1372.99 782.562,1374.13 761.443,1375.98 740.092,1363.43 719.437,1371.66 698.086,1363.43 677.199,1370.22 655.848,1370.63 634.729,1363.43 609.664,1384.31 
  588.313,1356.43 571.139,1342.86 550.252,1342.86 529.133,1332.57 506.39,1353.14 485.271,1353.14 464.152,1353.14 443.033,1342.86 421.914,1353.14 400.795,1353.14 
  379.676,1363.43 358.557,1363.43 333.957,1385.44 316.319,1394.29 295.2,1425.14 274.081,1404.57 252.962,1371.86 231.843,1394.29 210.724,1445.72 
  "/>
<path clip-path="url(#clip310)" d="
M1743.21 216.178 L2279.28 216.178 L2279.28 95.2176 L1743.21 95.2176  Z
  " fill="#ffffff" fill-rule="evenodd" fill-opacity="1"/>
<polyline clip-path="url(#clip310)" style="stroke:#000000; stroke-width:4; stroke-opacity:1; fill:none" points="
  1743.21,216.178 2279.28,216.178 2279.28,95.2176 1743.21,95.2176 1743.21,216.178 
  "/>
<polyline clip-path="url(#clip310)" style="stroke:#009af9; stroke-width:4; stroke-opacity:1; fill:none" points="
  1767.7,155.698 1914.66,155.698 
  "/>
<path clip-path="url(#clip310)" d="M 0 0 M1955.54 156.774 Q1957.05 157.283 1958.46 158.95 Q1959.9 160.617 1961.33 163.533 L1966.08 172.978 L1961.05 172.978 L1956.63 164.112 Q1954.92 160.64 1953.3 159.505 Q1951.7 158.371 1948.92 158.371 L1943.83 158.371 L1943.83 172.978 L1939.16 172.978 L1939.16 138.418 L1949.71 138.418 Q1955.64 138.418 1958.55 140.894 Q1961.47 143.371 1961.47 148.371 Q1961.47 151.635 1959.94 153.788 Q1958.44 155.941 1955.54 156.774 M1943.83 142.26 L1943.83 154.529 L1949.71 154.529 Q1953.09 154.529 1954.8 152.978 Q1956.54 151.404 1956.54 148.371 Q1956.54 145.339 1954.8 143.811 Q1953.09 142.26 1949.71 142.26 L1943.83 142.26 Z" fill="#000000" fill-rule="evenodd" fill-opacity="1" /><path clip-path="url(#clip310)" d="M 0 0 M1990.59 158.95 L1990.59 161.033 L1971.01 161.033 Q1971.28 165.431 1973.65 167.746 Q1976.03 170.038 1980.27 170.038 Q1982.72 170.038 1985.01 169.436 Q1987.33 168.834 1989.59 167.63 L1989.59 171.658 Q1987.3 172.63 1984.9 173.14 Q1982.49 173.649 1980.01 173.649 Q1973.81 173.649 1970.17 170.038 Q1966.56 166.427 1966.56 160.269 Q1966.56 153.904 1969.99 150.177 Q1973.44 146.427 1979.27 146.427 Q1984.5 146.427 1987.53 149.806 Q1990.59 153.163 1990.59 158.95 M1986.33 157.7 Q1986.28 154.205 1984.36 152.121 Q1982.47 150.038 1979.32 150.038 Q1975.75 150.038 1973.6 152.052 Q1971.47 154.066 1971.15 157.723 L1986.33 157.7 Z" fill="#000000" fill-rule="evenodd" fill-opacity="1" /><path clip-path="url(#clip310)" d="M 0 0 M1999.18 169.089 L1999.18 182.839 L1994.9 182.839 L1994.9 147.052 L1999.18 147.052 L1999.18 150.987 Q2000.52 148.672 2002.56 147.561 Q2004.62 146.427 2007.47 146.427 Q2012.19 146.427 2015.13 150.177 Q2018.09 153.927 2018.09 160.038 Q2018.09 166.149 2015.13 169.899 Q2012.19 173.649 2007.47 173.649 Q2004.62 173.649 2002.56 172.538 Q2000.52 171.403 1999.18 169.089 M2013.67 160.038 Q2013.67 155.339 2011.72 152.677 Q2009.8 149.992 2006.42 149.992 Q2003.04 149.992 2001.1 152.677 Q1999.18 155.339 1999.18 160.038 Q1999.18 164.737 2001.1 167.422 Q2003.04 170.084 2006.42 170.084 Q2009.8 170.084 2011.72 167.422 Q2013.67 164.737 2013.67 160.038 Z" fill="#000000" fill-rule="evenodd" fill-opacity="1" /><path clip-path="url(#clip310)" d="M 0 0 M2032.6 150.038 Q2029.18 150.038 2027.19 152.723 Q2025.2 155.385 2025.2 160.038 Q2025.2 164.691 2027.16 167.376 Q2029.15 170.038 2032.6 170.038 Q2036.01 170.038 2038 167.353 Q2039.99 164.667 2039.99 160.038 Q2039.99 155.431 2038 152.746 Q2036.01 150.038 2032.6 150.038 M2032.6 146.427 Q2038.16 146.427 2041.33 150.038 Q2044.5 153.649 2044.5 160.038 Q2044.5 166.404 2041.33 170.038 Q2038.16 173.649 2032.6 173.649 Q2027.03 173.649 2023.85 170.038 Q2020.71 166.404 2020.71 160.038 Q2020.71 153.649 2023.85 150.038 Q2027.03 146.427 2032.6 146.427 Z" fill="#000000" fill-rule="evenodd" fill-opacity="1" /><path clip-path="url(#clip310)" d="M 0 0 M2063.99 151.033 Q2063.28 150.617 2062.42 150.431 Q2061.59 150.223 2060.57 150.223 Q2056.96 150.223 2055.01 152.584 Q2053.09 154.922 2053.09 159.32 L2053.09 172.978 L2048.81 172.978 L2048.81 147.052 L2053.09 147.052 L2053.09 151.08 Q2054.43 148.718 2056.59 147.584 Q2058.74 146.427 2061.82 146.427 Q2062.26 146.427 2062.79 146.496 Q2063.32 146.543 2063.97 146.658 L2063.99 151.033 Z" fill="#000000" fill-rule="evenodd" fill-opacity="1" /><path clip-path="url(#clip310)" d="M 0 0 M2072.67 139.691 L2072.67 147.052 L2081.45 147.052 L2081.45 150.362 L2072.67 150.362 L2072.67 164.436 Q2072.67 167.607 2073.53 168.51 Q2074.41 169.413 2077.07 169.413 L2081.45 169.413 L2081.45 172.978 L2077.07 172.978 Q2072.14 172.978 2070.27 171.149 Q2068.39 169.297 2068.39 164.436 L2068.39 150.362 L2065.27 150.362 L2065.27 147.052 L2068.39 147.052 L2068.39 139.691 L2072.67 139.691 Z" fill="#000000" fill-rule="evenodd" fill-opacity="1" /><path clip-path="url(#clip310)" d="M 0 0 M2108.09 158.95 L2108.09 161.033 L2088.51 161.033 Q2088.78 165.431 2091.15 167.746 Q2093.53 170.038 2097.77 170.038 Q2100.22 170.038 2102.51 169.436 Q2104.83 168.834 2107.09 167.63 L2107.09 171.658 Q2104.8 172.63 2102.4 173.14 Q2099.99 173.649 2097.51 173.649 Q2091.31 173.649 2087.67 170.038 Q2084.06 166.427 2084.06 160.269 Q2084.06 153.904 2087.49 150.177 Q2090.94 146.427 2096.77 146.427 Q2102 146.427 2105.03 149.806 Q2108.09 153.163 2108.09 158.95 M2103.83 157.7 Q2103.78 154.205 2101.86 152.121 Q2099.96 150.038 2096.82 150.038 Q2093.25 150.038 2091.1 152.052 Q2088.97 154.066 2088.65 157.723 L2103.83 157.7 Z" fill="#000000" fill-rule="evenodd" fill-opacity="1" /><path clip-path="url(#clip310)" d="M 0 0 M2129.62 150.987 L2129.62 136.959 L2133.88 136.959 L2133.88 172.978 L2129.62 172.978 L2129.62 169.089 Q2128.27 171.403 2126.21 172.538 Q2124.18 173.649 2121.31 173.649 Q2116.61 173.649 2113.65 169.899 Q2110.71 166.149 2110.71 160.038 Q2110.71 153.927 2113.65 150.177 Q2116.61 146.427 2121.31 146.427 Q2124.18 146.427 2126.21 147.561 Q2128.27 148.672 2129.62 150.987 M2115.1 160.038 Q2115.1 164.737 2117.02 167.422 Q2118.97 170.084 2122.35 170.084 Q2125.73 170.084 2127.67 167.422 Q2129.62 164.737 2129.62 160.038 Q2129.62 155.339 2127.67 152.677 Q2125.73 149.992 2122.35 149.992 Q2118.97 149.992 2117.02 152.677 Q2115.1 155.339 2115.1 160.038 Z" fill="#000000" fill-rule="evenodd" fill-opacity="1" /><path clip-path="url(#clip310)" d="M 0 0 M2153.6 138.418 L2175.45 138.418 L2175.45 142.353 L2158.27 142.353 L2158.27 152.584 L2174.73 152.584 L2174.73 156.519 L2158.27 156.519 L2158.27 169.042 L2175.87 169.042 L2175.87 172.978 L2153.6 172.978 L2153.6 138.418 Z" fill="#000000" fill-rule="evenodd" fill-opacity="1" /><path clip-path="url(#clip310)" d="M 0 0 M2185.2 142.26 L2185.2 155.246 L2191.08 155.246 Q2194.34 155.246 2196.12 153.556 Q2197.9 151.867 2197.9 148.742 Q2197.9 145.64 2196.12 143.95 Q2194.34 142.26 2191.08 142.26 L2185.2 142.26 M2180.52 138.418 L2191.08 138.418 Q2196.89 138.418 2199.85 141.056 Q2202.83 143.672 2202.83 148.742 Q2202.83 153.857 2199.85 156.473 Q2196.89 159.089 2191.08 159.089 L2185.2 159.089 L2185.2 172.978 L2180.52 172.978 L2180.52 138.418 Z" fill="#000000" fill-rule="evenodd" fill-opacity="1" /><path clip-path="url(#clip310)" d="M 0 0 M2228.2 139.552 L2228.2 144.112 Q2225.54 142.839 2223.18 142.214 Q2220.82 141.589 2218.62 141.589 Q2214.8 141.589 2212.72 143.07 Q2210.66 144.552 2210.66 147.283 Q2210.66 149.575 2212.02 150.755 Q2213.41 151.913 2217.26 152.63 L2220.08 153.209 Q2225.31 154.205 2227.79 156.728 Q2230.29 159.228 2230.29 163.441 Q2230.29 168.464 2226.91 171.056 Q2223.55 173.649 2217.05 173.649 Q2214.59 173.649 2211.82 173.093 Q2209.06 172.538 2206.1 171.45 L2206.1 166.635 Q2208.95 168.232 2211.68 169.042 Q2214.41 169.853 2217.05 169.853 Q2221.05 169.853 2223.23 168.279 Q2225.4 166.704 2225.4 163.788 Q2225.4 161.242 2223.83 159.806 Q2222.28 158.371 2218.71 157.654 L2215.87 157.098 Q2210.64 156.056 2208.3 153.834 Q2205.96 151.612 2205.96 147.654 Q2205.96 143.07 2209.18 140.431 Q2212.42 137.793 2218.09 137.793 Q2220.52 137.793 2223.04 138.232 Q2225.57 138.672 2228.2 139.552 Z" fill="#000000" fill-rule="evenodd" fill-opacity="1" /></svg>
