<?xml version="1.0" encoding="utf-8"?>
<svg xmlns="http://www.w3.org/2000/svg" xmlns:xlink="http://www.w3.org/1999/xlink" width="600" height="400" viewBox="0 0 2400 1600">
<defs>
  <clipPath id="clip270">
    <rect x="0" y="0" width="2400" height="1600"/>
  </clipPath>
</defs>
<path clip-path="url(#clip270)" d="
M0 1600 L2400 1600 L2400 0 L0 0  Z
  " fill="#ffffff" fill-rule="evenodd" fill-opacity="1"/>
<defs>
  <clipPath id="clip271">
    <rect x="480" y="0" width="1681" height="1600"/>
  </clipPath>
</defs>
<path clip-path="url(#clip270)" d="
M112.177 1486.45 L2352.76 1486.45 L2352.76 47.2441 L112.177 47.2441  Z
  " fill="#ffffff" fill-rule="evenodd" fill-opacity="1"/>
<defs>
  <clipPath id="clip272">
    <rect x="112" y="47" width="2242" height="1440"/>
  </clipPath>
</defs>
<polyline clip-path="url(#clip272)" style="stroke:#000000; stroke-width:2; stroke-opacity:0.1; fill:none" points="
  177.037,1486.45 177.037,47.2441 
  "/>
<polyline clip-path="url(#clip272)" style="stroke:#000000; stroke-width:2; stroke-opacity:0.1; fill:none" points="
  706.56,1486.45 706.56,47.2441 
  "/>
<polyline clip-path="url(#clip272)" style="stroke:#000000; stroke-width:2; stroke-opacity:0.1; fill:none" points="
  1234.64,1486.45 1234.64,47.2441 
  "/>
<polyline clip-path="url(#clip272)" style="stroke:#000000; stroke-width:2; stroke-opacity:0.1; fill:none" points="
  1762.71,1486.45 1762.71,47.2441 
  "/>
<polyline clip-path="url(#clip272)" style="stroke:#000000; stroke-width:2; stroke-opacity:0.1; fill:none" points="
  2290.79,1486.45 2290.79,47.2441 
  "/>
<polyline clip-path="url(#clip270)" style="stroke:#000000; stroke-width:4; stroke-opacity:1; fill:none" points="
  112.177,1486.45 2352.76,1486.45 
  "/>
<polyline clip-path="url(#clip270)" style="stroke:#000000; stroke-width:4; stroke-opacity:1; fill:none" points="
  177.037,1486.45 177.037,1469.18 
  "/>
<polyline clip-path="url(#clip270)" style="stroke:#000000; stroke-width:4; stroke-opacity:1; fill:none" points="
  706.56,1486.45 706.56,1469.18 
  "/>
<polyline clip-path="url(#clip270)" style="stroke:#000000; stroke-width:4; stroke-opacity:1; fill:none" points="
  1234.64,1486.45 1234.64,1469.18 
  "/>
<polyline clip-path="url(#clip270)" style="stroke:#000000; stroke-width:4; stroke-opacity:1; fill:none" points="
  1762.71,1486.45 1762.71,1469.18 
  "/>
<polyline clip-path="url(#clip270)" style="stroke:#000000; stroke-width:4; stroke-opacity:1; fill:none" points="
  2290.79,1486.45 2290.79,1469.18 
  "/>
<path clip-path="url(#clip270)" d="M 0 0 M64.1089 1543.18 L80.4283 1543.18 L80.4283 1547.12 L58.484 1547.12 L58.484 1543.18 Q61.146 1540.43 65.7293 1535.8 Q70.3358 1531.15 71.5163 1529.81 Q73.7617 1527.28 74.6413 1525.55 Q75.5441 1523.79 75.5441 1522.1 Q75.5441 1519.34 73.5996 1517.61 Q71.6783 1515.87 68.5765 1515.87 Q66.3774 1515.87 63.9237 1516.63 Q61.4932 1517.4 58.7154 1518.95 L58.7154 1514.23 Q61.5395 1513.09 63.9932 1512.51 Q66.4469 1511.93 68.4839 1511.93 Q73.8542 1511.93 77.0487 1514.62 Q80.2431 1517.31 80.2431 1521.8 Q80.2431 1523.93 79.4329 1525.85 Q78.6459 1527.74 76.5394 1530.34 Q75.9607 1531.01 72.8589 1534.23 Q69.757 1537.42 64.1089 1543.18 Z" fill="#000000" fill-rule="evenodd" fill-opacity="1" /><path clip-path="url(#clip270)" d="M 0 0 M95.4977 1515.64 Q91.8866 1515.64 90.0579 1519.2 Q88.2523 1522.75 88.2523 1529.87 Q88.2523 1536.98 90.0579 1540.55 Q91.8866 1544.09 95.4977 1544.09 Q99.1319 1544.09 100.937 1540.55 Q102.766 1536.98 102.766 1529.87 Q102.766 1522.75 100.937 1519.2 Q99.1319 1515.64 95.4977 1515.64 M95.4977 1511.93 Q101.308 1511.93 104.363 1516.54 Q107.442 1521.12 107.442 1529.87 Q107.442 1538.6 104.363 1543.21 Q101.308 1547.79 95.4977 1547.79 Q89.6875 1547.79 86.6088 1543.21 Q83.5533 1538.6 83.5533 1529.87 Q83.5533 1521.12 86.6088 1516.54 Q89.6875 1511.93 95.4977 1511.93 Z" fill="#000000" fill-rule="evenodd" fill-opacity="1" /><path clip-path="url(#clip270)" d="M 0 0 M113.322 1543.18 L120.96 1543.18 L120.96 1516.82 L112.65 1518.49 L112.65 1514.23 L120.914 1512.56 L125.59 1512.56 L125.59 1543.18 L133.229 1543.18 L133.229 1547.12 L113.322 1547.12 L113.322 1543.18 Z" fill="#000000" fill-rule="evenodd" fill-opacity="1" /><path clip-path="url(#clip270)" d="M 0 0 M148.877 1527.98 Q145.729 1527.98 143.877 1530.13 Q142.048 1532.28 142.048 1536.03 Q142.048 1539.76 143.877 1541.93 Q145.729 1544.09 148.877 1544.09 Q152.025 1544.09 153.854 1541.93 Q155.706 1539.76 155.706 1536.03 Q155.706 1532.28 153.854 1530.13 Q152.025 1527.98 148.877 1527.98 M158.159 1513.32 L158.159 1517.58 Q156.4 1516.75 154.595 1516.31 Q152.812 1515.87 151.053 1515.87 Q146.423 1515.87 143.97 1519 Q141.539 1522.12 141.192 1528.44 Q142.558 1526.43 144.618 1525.36 Q146.678 1524.27 149.155 1524.27 Q154.363 1524.27 157.372 1527.44 Q160.405 1530.59 160.405 1536.03 Q160.405 1541.36 157.257 1544.57 Q154.108 1547.79 148.877 1547.79 Q142.882 1547.79 139.71 1543.21 Q136.539 1538.6 136.539 1529.87 Q136.539 1521.68 140.428 1516.82 Q144.317 1511.93 150.868 1511.93 Q152.627 1511.93 154.409 1512.28 Q156.215 1512.63 158.159 1513.32 Z" fill="#000000" fill-rule="evenodd" fill-opacity="1" /><path clip-path="url(#clip270)" d="M 0 0 M162.72 1532.24 L175.196 1532.24 L175.196 1536.03 L162.72 1536.03 L162.72 1532.24 Z" fill="#000000" fill-rule="evenodd" fill-opacity="1" /><path clip-path="url(#clip270)" d="M 0 0 M190.266 1515.64 Q186.655 1515.64 184.826 1519.2 Q183.02 1522.75 183.02 1529.87 Q183.02 1536.98 184.826 1540.55 Q186.655 1544.09 190.266 1544.09 Q193.9 1544.09 195.705 1540.55 Q197.534 1536.98 197.534 1529.87 Q197.534 1522.75 195.705 1519.2 Q193.9 1515.64 190.266 1515.64 M190.266 1511.93 Q196.076 1511.93 199.131 1516.54 Q202.21 1521.12 202.21 1529.87 Q202.21 1538.6 199.131 1543.21 Q196.076 1547.79 190.266 1547.79 Q184.456 1547.79 181.377 1543.21 Q178.321 1538.6 178.321 1529.87 Q178.321 1521.12 181.377 1516.54 Q184.456 1511.93 190.266 1511.93 Z" fill="#000000" fill-rule="evenodd" fill-opacity="1" /><path clip-path="url(#clip270)" d="M 0 0 M208.09 1543.18 L215.728 1543.18 L215.728 1516.82 L207.418 1518.49 L207.418 1514.23 L215.682 1512.56 L220.358 1512.56 L220.358 1543.18 L227.997 1543.18 L227.997 1547.12 L208.09 1547.12 L208.09 1543.18 Z" fill="#000000" fill-rule="evenodd" fill-opacity="1" /><path clip-path="url(#clip270)" d="M 0 0 M230.312 1532.24 L242.789 1532.24 L242.789 1536.03 L230.312 1536.03 L230.312 1532.24 Z" fill="#000000" fill-rule="evenodd" fill-opacity="1" /><path clip-path="url(#clip270)" d="M 0 0 M257.858 1515.64 Q254.247 1515.64 252.418 1519.2 Q250.613 1522.75 250.613 1529.87 Q250.613 1536.98 252.418 1540.55 Q254.247 1544.09 257.858 1544.09 Q261.492 1544.09 263.298 1540.55 Q265.126 1536.98 265.126 1529.87 Q265.126 1522.75 263.298 1519.2 Q261.492 1515.64 257.858 1515.64 M257.858 1511.93 Q263.668 1511.93 266.724 1516.54 Q269.802 1521.12 269.802 1529.87 Q269.802 1538.6 266.724 1543.21 Q263.668 1547.79 257.858 1547.79 Q252.048 1547.79 248.969 1543.21 Q245.914 1538.6 245.914 1529.87 Q245.914 1521.12 248.969 1516.54 Q252.048 1511.93 257.858 1511.93 Z" fill="#000000" fill-rule="evenodd" fill-opacity="1" /><path clip-path="url(#clip270)" d="M 0 0 M275.682 1543.18 L283.321 1543.18 L283.321 1516.82 L275.011 1518.49 L275.011 1514.23 L283.274 1512.56 L287.95 1512.56 L287.95 1543.18 L295.589 1543.18 L295.589 1547.12 L275.682 1547.12 L275.682 1543.18 Z" fill="#000000" fill-rule="evenodd" fill-opacity="1" /><path clip-path="url(#clip270)" d="M 0 0 M594.165 1543.18 L610.484 1543.18 L610.484 1547.12 L588.54 1547.12 L588.54 1543.18 Q591.202 1540.43 595.785 1535.8 Q600.392 1531.15 601.572 1529.81 Q603.818 1527.28 604.697 1525.55 Q605.6 1523.79 605.6 1522.1 Q605.6 1519.34 603.655 1517.61 Q601.734 1515.87 598.632 1515.87 Q596.433 1515.87 593.98 1516.63 Q591.549 1517.4 588.771 1518.95 L588.771 1514.23 Q591.595 1513.09 594.049 1512.51 Q596.503 1511.93 598.54 1511.93 Q603.91 1511.93 607.105 1514.62 Q610.299 1517.31 610.299 1521.8 Q610.299 1523.93 609.489 1525.85 Q608.702 1527.74 606.595 1530.34 Q606.017 1531.01 602.915 1534.23 Q599.813 1537.42 594.165 1543.18 Z" fill="#000000" fill-rule="evenodd" fill-opacity="1" /><path clip-path="url(#clip270)" d="M 0 0 M625.554 1515.64 Q621.942 1515.64 620.114 1519.2 Q618.308 1522.75 618.308 1529.87 Q618.308 1536.98 620.114 1540.55 Q621.942 1544.09 625.554 1544.09 Q629.188 1544.09 630.993 1540.55 Q632.822 1536.98 632.822 1529.87 Q632.822 1522.75 630.993 1519.2 Q629.188 1515.64 625.554 1515.64 M625.554 1511.93 Q631.364 1511.93 634.419 1516.54 Q637.498 1521.12 637.498 1529.87 Q637.498 1538.6 634.419 1543.21 Q631.364 1547.79 625.554 1547.79 Q619.743 1547.79 616.665 1543.21 Q613.609 1538.6 613.609 1529.87 Q613.609 1521.12 616.665 1516.54 Q619.743 1511.93 625.554 1511.93 Z" fill="#000000" fill-rule="evenodd" fill-opacity="1" /><path clip-path="url(#clip270)" d="M 0 0 M643.378 1543.18 L651.016 1543.18 L651.016 1516.82 L642.706 1518.49 L642.706 1514.23 L650.97 1512.56 L655.646 1512.56 L655.646 1543.18 L663.285 1543.18 L663.285 1547.12 L643.378 1547.12 L643.378 1543.18 Z" fill="#000000" fill-rule="evenodd" fill-opacity="1" /><path clip-path="url(#clip270)" d="M 0 0 M667.174 1512.56 L689.396 1512.56 L689.396 1514.55 L676.85 1547.12 L671.965 1547.12 L683.771 1516.5 L667.174 1516.5 L667.174 1512.56 Z" fill="#000000" fill-rule="evenodd" fill-opacity="1" /><path clip-path="url(#clip270)" d="M 0 0 M691.711 1532.24 L704.187 1532.24 L704.187 1536.03 L691.711 1536.03 L691.711 1532.24 Z" fill="#000000" fill-rule="evenodd" fill-opacity="1" /><path clip-path="url(#clip270)" d="M 0 0 M719.257 1515.64 Q715.646 1515.64 713.817 1519.2 Q712.011 1522.75 712.011 1529.87 Q712.011 1536.98 713.817 1540.55 Q715.646 1544.09 719.257 1544.09 Q722.891 1544.09 724.697 1540.55 Q726.525 1536.98 726.525 1529.87 Q726.525 1522.75 724.697 1519.2 Q722.891 1515.64 719.257 1515.64 M719.257 1511.93 Q725.067 1511.93 728.122 1516.54 Q731.201 1521.12 731.201 1529.87 Q731.201 1538.6 728.122 1543.21 Q725.067 1547.79 719.257 1547.79 Q713.447 1547.79 710.368 1543.21 Q707.312 1538.6 707.312 1529.87 Q707.312 1521.12 710.368 1516.54 Q713.447 1511.93 719.257 1511.93 Z" fill="#000000" fill-rule="evenodd" fill-opacity="1" /><path clip-path="url(#clip270)" d="M 0 0 M737.081 1543.18 L744.72 1543.18 L744.72 1516.82 L736.409 1518.49 L736.409 1514.23 L744.673 1512.56 L749.349 1512.56 L749.349 1543.18 L756.988 1543.18 L756.988 1547.12 L737.081 1547.12 L737.081 1543.18 Z" fill="#000000" fill-rule="evenodd" fill-opacity="1" /><path clip-path="url(#clip270)" d="M 0 0 M759.303 1532.24 L771.78 1532.24 L771.78 1536.03 L759.303 1536.03 L759.303 1532.24 Z" fill="#000000" fill-rule="evenodd" fill-opacity="1" /><path clip-path="url(#clip270)" d="M 0 0 M786.849 1515.64 Q783.238 1515.64 781.409 1519.2 Q779.604 1522.75 779.604 1529.87 Q779.604 1536.98 781.409 1540.55 Q783.238 1544.09 786.849 1544.09 Q790.483 1544.09 792.289 1540.55 Q794.117 1536.98 794.117 1529.87 Q794.117 1522.75 792.289 1519.2 Q790.483 1515.64 786.849 1515.64 M786.849 1511.93 Q792.659 1511.93 795.715 1516.54 Q798.793 1521.12 798.793 1529.87 Q798.793 1538.6 795.715 1543.21 Q792.659 1547.79 786.849 1547.79 Q781.039 1547.79 777.96 1543.21 Q774.905 1538.6 774.905 1529.87 Q774.905 1521.12 777.96 1516.54 Q781.039 1511.93 786.849 1511.93 Z" fill="#000000" fill-rule="evenodd" fill-opacity="1" /><path clip-path="url(#clip270)" d="M 0 0 M804.673 1543.18 L812.312 1543.18 L812.312 1516.82 L804.002 1518.49 L804.002 1514.23 L812.265 1512.56 L816.941 1512.56 L816.941 1543.18 L824.58 1543.18 L824.58 1547.12 L804.673 1547.12 L804.673 1543.18 Z" fill="#000000" fill-rule="evenodd" fill-opacity="1" /><path clip-path="url(#clip270)" d="M 0 0 M1121.84 1543.18 L1138.16 1543.18 L1138.16 1547.12 L1116.21 1547.12 L1116.21 1543.18 Q1118.87 1540.43 1123.46 1535.8 Q1128.06 1531.15 1129.24 1529.81 Q1131.49 1527.28 1132.37 1525.55 Q1133.27 1523.79 1133.27 1522.1 Q1133.27 1519.34 1131.33 1517.61 Q1129.41 1515.87 1126.3 1515.87 Q1124.1 1515.87 1121.65 1516.63 Q1119.22 1517.4 1116.44 1518.95 L1116.44 1514.23 Q1119.27 1513.09 1121.72 1512.51 Q1124.17 1511.93 1126.21 1511.93 Q1131.58 1511.93 1134.78 1514.62 Q1137.97 1517.31 1137.97 1521.8 Q1137.97 1523.93 1137.16 1525.85 Q1136.37 1527.74 1134.27 1530.34 Q1133.69 1531.01 1130.59 1534.23 Q1127.48 1537.42 1121.84 1543.18 Z" fill="#000000" fill-rule="evenodd" fill-opacity="1" /><path clip-path="url(#clip270)" d="M 0 0 M1153.23 1515.64 Q1149.61 1515.64 1147.79 1519.2 Q1145.98 1522.75 1145.98 1529.87 Q1145.98 1536.98 1147.79 1540.55 Q1149.61 1544.09 1153.23 1544.09 Q1156.86 1544.09 1158.66 1540.55 Q1160.49 1536.98 1160.49 1529.87 Q1160.49 1522.75 1158.66 1519.2 Q1156.86 1515.64 1153.23 1515.64 M1153.23 1511.93 Q1159.04 1511.93 1162.09 1516.54 Q1165.17 1521.12 1165.17 1529.87 Q1165.17 1538.6 1162.09 1543.21 Q1159.04 1547.79 1153.23 1547.79 Q1147.41 1547.79 1144.34 1543.21 Q1141.28 1538.6 1141.28 1529.87 Q1141.28 1521.12 1144.34 1516.54 Q1147.41 1511.93 1153.23 1511.93 Z" fill="#000000" fill-rule="evenodd" fill-opacity="1" /><path clip-path="url(#clip270)" d="M 0 0 M1171.05 1543.18 L1178.69 1543.18 L1178.69 1516.82 L1170.38 1518.49 L1170.38 1514.23 L1178.64 1512.56 L1183.32 1512.56 L1183.32 1543.18 L1190.96 1543.18 L1190.96 1547.12 L1171.05 1547.12 L1171.05 1543.18 Z" fill="#000000" fill-rule="evenodd" fill-opacity="1" /><path clip-path="url(#clip270)" d="M 0 0 M1206.03 1530.71 Q1202.69 1530.71 1200.77 1532.49 Q1198.87 1534.27 1198.87 1537.4 Q1198.87 1540.52 1200.77 1542.31 Q1202.69 1544.09 1206.03 1544.09 Q1209.36 1544.09 1211.28 1542.31 Q1213.2 1540.5 1213.2 1537.4 Q1213.2 1534.27 1211.28 1532.49 Q1209.38 1530.71 1206.03 1530.71 M1201.35 1528.72 Q1198.34 1527.98 1196.65 1525.92 Q1194.98 1523.86 1194.98 1520.89 Q1194.98 1516.75 1197.92 1514.34 Q1200.89 1511.93 1206.03 1511.93 Q1211.19 1511.93 1214.13 1514.34 Q1217.07 1516.75 1217.07 1520.89 Q1217.07 1523.86 1215.38 1525.92 Q1213.71 1527.98 1210.72 1528.72 Q1214.1 1529.5 1215.98 1531.8 Q1217.88 1534.09 1217.88 1537.4 Q1217.88 1542.42 1214.8 1545.11 Q1211.74 1547.79 1206.03 1547.79 Q1200.31 1547.79 1197.23 1545.11 Q1194.17 1542.42 1194.17 1537.4 Q1194.17 1534.09 1196.07 1531.8 Q1197.97 1529.5 1201.35 1528.72 M1199.64 1521.33 Q1199.64 1524.02 1201.3 1525.52 Q1202.99 1527.03 1206.03 1527.03 Q1209.04 1527.03 1210.72 1525.52 Q1212.44 1524.02 1212.44 1521.33 Q1212.44 1518.65 1210.72 1517.14 Q1209.04 1515.64 1206.03 1515.64 Q1202.99 1515.64 1201.3 1517.14 Q1199.64 1518.65 1199.64 1521.33 Z" fill="#000000" fill-rule="evenodd" fill-opacity="1" /><path clip-path="url(#clip270)" d="M 0 0 M1220.19 1532.24 L1232.67 1532.24 L1232.67 1536.03 L1220.19 1536.03 L1220.19 1532.24 Z" fill="#000000" fill-rule="evenodd" fill-opacity="1" /><path clip-path="url(#clip270)" d="M 0 0 M1247.74 1515.64 Q1244.13 1515.64 1242.3 1519.2 Q1240.49 1522.75 1240.49 1529.87 Q1240.49 1536.98 1242.3 1540.55 Q1244.13 1544.09 1247.74 1544.09 Q1251.37 1544.09 1253.18 1540.55 Q1255.01 1536.98 1255.01 1529.87 Q1255.01 1522.75 1253.18 1519.2 Q1251.37 1515.64 1247.74 1515.64 M1247.74 1511.93 Q1253.55 1511.93 1256.6 1516.54 Q1259.68 1521.12 1259.68 1529.87 Q1259.68 1538.6 1256.6 1543.21 Q1253.55 1547.79 1247.74 1547.79 Q1241.93 1547.79 1238.85 1543.21 Q1235.79 1538.6 1235.79 1529.87 Q1235.79 1521.12 1238.85 1516.54 Q1241.93 1511.93 1247.74 1511.93 Z" fill="#000000" fill-rule="evenodd" fill-opacity="1" /><path clip-path="url(#clip270)" d="M 0 0 M1265.56 1543.18 L1273.2 1543.18 L1273.2 1516.82 L1264.89 1518.49 L1264.89 1514.23 L1273.16 1512.56 L1277.83 1512.56 L1277.83 1543.18 L1285.47 1543.18 L1285.47 1547.12 L1265.56 1547.12 L1265.56 1543.18 Z" fill="#000000" fill-rule="evenodd" fill-opacity="1" /><path clip-path="url(#clip270)" d="M 0 0 M1287.78 1532.24 L1300.26 1532.24 L1300.26 1536.03 L1287.78 1536.03 L1287.78 1532.24 Z" fill="#000000" fill-rule="evenodd" fill-opacity="1" /><path clip-path="url(#clip270)" d="M 0 0 M1315.33 1515.64 Q1311.72 1515.64 1309.89 1519.2 Q1308.09 1522.75 1308.09 1529.87 Q1308.09 1536.98 1309.89 1540.55 Q1311.72 1544.09 1315.33 1544.09 Q1318.96 1544.09 1320.77 1540.55 Q1322.6 1536.98 1322.6 1529.87 Q1322.6 1522.75 1320.77 1519.2 Q1318.96 1515.64 1315.33 1515.64 M1315.33 1511.93 Q1321.14 1511.93 1324.2 1516.54 Q1327.28 1521.12 1327.28 1529.87 Q1327.28 1538.6 1324.2 1543.21 Q1321.14 1547.79 1315.33 1547.79 Q1309.52 1547.79 1306.44 1543.21 Q1303.39 1538.6 1303.39 1529.87 Q1303.39 1521.12 1306.44 1516.54 Q1309.52 1511.93 1315.33 1511.93 Z" fill="#000000" fill-rule="evenodd" fill-opacity="1" /><path clip-path="url(#clip270)" d="M 0 0 M1333.15 1543.18 L1340.79 1543.18 L1340.79 1516.82 L1332.48 1518.49 L1332.48 1514.23 L1340.75 1512.56 L1345.42 1512.56 L1345.42 1543.18 L1353.06 1543.18 L1353.06 1547.12 L1333.15 1547.12 L1333.15 1543.18 Z" fill="#000000" fill-rule="evenodd" fill-opacity="1" /><path clip-path="url(#clip270)" d="M 0 0 M1649.96 1543.18 L1666.28 1543.18 L1666.28 1547.12 L1644.33 1547.12 L1644.33 1543.18 Q1647 1540.43 1651.58 1535.8 Q1656.19 1531.15 1657.37 1529.81 Q1659.61 1527.28 1660.49 1525.55 Q1661.39 1523.79 1661.39 1522.1 Q1661.39 1519.34 1659.45 1517.61 Q1657.53 1515.87 1654.43 1515.87 Q1652.23 1515.87 1649.77 1516.63 Q1647.34 1517.4 1644.57 1518.95 L1644.57 1514.23 Q1647.39 1513.09 1649.84 1512.51 Q1652.3 1511.93 1654.33 1511.93 Q1659.7 1511.93 1662.9 1514.62 Q1666.09 1517.31 1666.09 1521.8 Q1666.09 1523.93 1665.28 1525.85 Q1664.5 1527.74 1662.39 1530.34 Q1661.81 1531.01 1658.71 1534.23 Q1655.61 1537.42 1649.96 1543.18 Z" fill="#000000" fill-rule="evenodd" fill-opacity="1" /><path clip-path="url(#clip270)" d="M 0 0 M1681.35 1515.64 Q1677.74 1515.64 1675.91 1519.2 Q1674.1 1522.75 1674.1 1529.87 Q1674.1 1536.98 1675.91 1540.55 Q1677.74 1544.09 1681.35 1544.09 Q1684.98 1544.09 1686.79 1540.55 Q1688.62 1536.98 1688.62 1529.87 Q1688.62 1522.75 1686.79 1519.2 Q1684.98 1515.64 1681.35 1515.64 M1681.35 1511.93 Q1687.16 1511.93 1690.21 1516.54 Q1693.29 1521.12 1693.29 1529.87 Q1693.29 1538.6 1690.21 1543.21 Q1687.16 1547.79 1681.35 1547.79 Q1675.54 1547.79 1672.46 1543.21 Q1669.4 1538.6 1669.4 1529.87 Q1669.4 1521.12 1672.46 1516.54 Q1675.54 1511.93 1681.35 1511.93 Z" fill="#000000" fill-rule="evenodd" fill-opacity="1" /><path clip-path="url(#clip270)" d="M 0 0 M1699.17 1543.18 L1706.81 1543.18 L1706.81 1516.82 L1698.5 1518.49 L1698.5 1514.23 L1706.76 1512.56 L1711.44 1512.56 L1711.44 1543.18 L1719.08 1543.18 L1719.08 1547.12 L1699.17 1547.12 L1699.17 1543.18 Z" fill="#000000" fill-rule="evenodd" fill-opacity="1" /><path clip-path="url(#clip270)" d="M 0 0 M1724.29 1546.4 L1724.29 1542.14 Q1726.05 1542.98 1727.85 1543.42 Q1729.66 1543.86 1731.39 1543.86 Q1736.02 1543.86 1738.45 1540.75 Q1740.91 1537.63 1741.26 1531.29 Q1739.91 1533.28 1737.85 1534.34 Q1735.79 1535.41 1733.29 1535.41 Q1728.11 1535.41 1725.07 1532.28 Q1722.07 1529.13 1722.07 1523.69 Q1722.07 1518.37 1725.21 1515.15 Q1728.36 1511.93 1733.59 1511.93 Q1739.59 1511.93 1742.74 1516.54 Q1745.91 1521.12 1745.91 1529.87 Q1745.91 1538.05 1742.02 1542.93 Q1738.15 1547.79 1731.6 1547.79 Q1729.84 1547.79 1728.04 1547.44 Q1726.23 1547.1 1724.29 1546.4 M1733.59 1531.75 Q1736.74 1531.75 1738.57 1529.6 Q1740.42 1527.44 1740.42 1523.69 Q1740.42 1519.97 1738.57 1517.81 Q1736.74 1515.64 1733.59 1515.64 Q1730.45 1515.64 1728.59 1517.81 Q1726.76 1519.97 1726.76 1523.69 Q1726.76 1527.44 1728.59 1529.6 Q1730.45 1531.75 1733.59 1531.75 Z" fill="#000000" fill-rule="evenodd" fill-opacity="1" /><path clip-path="url(#clip270)" d="M 0 0 M1748.22 1532.24 L1760.7 1532.24 L1760.7 1536.03 L1748.22 1536.03 L1748.22 1532.24 Z" fill="#000000" fill-rule="evenodd" fill-opacity="1" /><path clip-path="url(#clip270)" d="M 0 0 M1775.77 1515.64 Q1772.16 1515.64 1770.33 1519.2 Q1768.52 1522.75 1768.52 1529.87 Q1768.52 1536.98 1770.33 1540.55 Q1772.16 1544.09 1775.77 1544.09 Q1779.4 1544.09 1781.21 1540.55 Q1783.04 1536.98 1783.04 1529.87 Q1783.04 1522.75 1781.21 1519.2 Q1779.4 1515.64 1775.77 1515.64 M1775.77 1511.93 Q1781.58 1511.93 1784.63 1516.54 Q1787.71 1521.12 1787.71 1529.87 Q1787.71 1538.6 1784.63 1543.21 Q1781.58 1547.79 1775.77 1547.79 Q1769.96 1547.79 1766.88 1543.21 Q1763.82 1538.6 1763.82 1529.87 Q1763.82 1521.12 1766.88 1516.54 Q1769.96 1511.93 1775.77 1511.93 Z" fill="#000000" fill-rule="evenodd" fill-opacity="1" /><path clip-path="url(#clip270)" d="M 0 0 M1793.59 1543.18 L1801.23 1543.18 L1801.23 1516.82 L1792.92 1518.49 L1792.92 1514.23 L1801.19 1512.56 L1805.86 1512.56 L1805.86 1543.18 L1813.5 1543.18 L1813.5 1547.12 L1793.59 1547.12 L1793.59 1543.18 Z" fill="#000000" fill-rule="evenodd" fill-opacity="1" /><path clip-path="url(#clip270)" d="M 0 0 M1815.81 1532.24 L1828.29 1532.24 L1828.29 1536.03 L1815.81 1536.03 L1815.81 1532.24 Z" fill="#000000" fill-rule="evenodd" fill-opacity="1" /><path clip-path="url(#clip270)" d="M 0 0 M1843.36 1515.64 Q1839.75 1515.64 1837.92 1519.2 Q1836.12 1522.75 1836.12 1529.87 Q1836.12 1536.98 1837.92 1540.55 Q1839.75 1544.09 1843.36 1544.09 Q1847 1544.09 1848.8 1540.55 Q1850.63 1536.98 1850.63 1529.87 Q1850.63 1522.75 1848.8 1519.2 Q1847 1515.64 1843.36 1515.64 M1843.36 1511.93 Q1849.17 1511.93 1852.23 1516.54 Q1855.31 1521.12 1855.31 1529.87 Q1855.31 1538.6 1852.23 1543.21 Q1849.17 1547.79 1843.36 1547.79 Q1837.55 1547.79 1834.47 1543.21 Q1831.42 1538.6 1831.42 1529.87 Q1831.42 1521.12 1834.47 1516.54 Q1837.55 1511.93 1843.36 1511.93 Z" fill="#000000" fill-rule="evenodd" fill-opacity="1" /><path clip-path="url(#clip270)" d="M 0 0 M1861.19 1543.18 L1868.82 1543.18 L1868.82 1516.82 L1860.51 1518.49 L1860.51 1514.23 L1868.78 1512.56 L1873.45 1512.56 L1873.45 1543.18 L1881.09 1543.18 L1881.09 1547.12 L1861.19 1547.12 L1861.19 1543.18 Z" fill="#000000" fill-rule="evenodd" fill-opacity="1" /><path clip-path="url(#clip270)" d="M 0 0 M2178.13 1543.18 L2194.45 1543.18 L2194.45 1547.12 L2172.5 1547.12 L2172.5 1543.18 Q2175.17 1540.43 2179.75 1535.8 Q2184.36 1531.15 2185.54 1529.81 Q2187.78 1527.28 2188.66 1525.55 Q2189.56 1523.79 2189.56 1522.1 Q2189.56 1519.34 2187.62 1517.61 Q2185.7 1515.87 2182.6 1515.87 Q2180.4 1515.87 2177.94 1516.63 Q2175.51 1517.4 2172.74 1518.95 L2172.74 1514.23 Q2175.56 1513.09 2178.01 1512.51 Q2180.47 1511.93 2182.5 1511.93 Q2187.87 1511.93 2191.07 1514.62 Q2194.26 1517.31 2194.26 1521.8 Q2194.26 1523.93 2193.45 1525.85 Q2192.67 1527.74 2190.56 1530.34 Q2189.98 1531.01 2186.88 1534.23 Q2183.78 1537.42 2178.13 1543.18 Z" fill="#000000" fill-rule="evenodd" fill-opacity="1" /><path clip-path="url(#clip270)" d="M 0 0 M2209.52 1515.64 Q2205.91 1515.64 2204.08 1519.2 Q2202.27 1522.75 2202.27 1529.87 Q2202.27 1536.98 2204.08 1540.55 Q2205.91 1544.09 2209.52 1544.09 Q2213.15 1544.09 2214.96 1540.55 Q2216.79 1536.98 2216.79 1529.87 Q2216.79 1522.75 2214.96 1519.2 Q2213.15 1515.64 2209.52 1515.64 M2209.52 1511.93 Q2215.33 1511.93 2218.38 1516.54 Q2221.46 1521.12 2221.46 1529.87 Q2221.46 1538.6 2218.38 1543.21 Q2215.33 1547.79 2209.52 1547.79 Q2203.71 1547.79 2200.63 1543.21 Q2197.57 1538.6 2197.57 1529.87 Q2197.57 1521.12 2200.63 1516.54 Q2203.71 1511.93 2209.52 1511.93 Z" fill="#000000" fill-rule="evenodd" fill-opacity="1" /><path clip-path="url(#clip270)" d="M 0 0 M2230.56 1543.18 L2246.88 1543.18 L2246.88 1547.12 L2224.93 1547.12 L2224.93 1543.18 Q2227.6 1540.43 2232.18 1535.8 Q2236.79 1531.15 2237.97 1529.81 Q2240.21 1527.28 2241.09 1525.55 Q2241.99 1523.79 2241.99 1522.1 Q2241.99 1519.34 2240.05 1517.61 Q2238.13 1515.87 2235.03 1515.87 Q2232.83 1515.87 2230.37 1516.63 Q2227.94 1517.4 2225.17 1518.95 L2225.17 1514.23 Q2227.99 1513.09 2230.44 1512.51 Q2232.9 1511.93 2234.93 1511.93 Q2240.3 1511.93 2243.5 1514.62 Q2246.69 1517.31 2246.69 1521.8 Q2246.69 1523.93 2245.88 1525.85 Q2245.1 1527.74 2242.99 1530.34 Q2242.41 1531.01 2239.31 1534.23 Q2236.21 1537.42 2230.56 1543.18 Z" fill="#000000" fill-rule="evenodd" fill-opacity="1" /><path clip-path="url(#clip270)" d="M 0 0 M2261.95 1515.64 Q2258.34 1515.64 2256.51 1519.2 Q2254.7 1522.75 2254.7 1529.87 Q2254.7 1536.98 2256.51 1540.55 Q2258.34 1544.09 2261.95 1544.09 Q2265.58 1544.09 2267.39 1540.55 Q2269.22 1536.98 2269.22 1529.87 Q2269.22 1522.75 2267.39 1519.2 Q2265.58 1515.64 2261.95 1515.64 M2261.95 1511.93 Q2267.76 1511.93 2270.81 1516.54 Q2273.89 1521.12 2273.89 1529.87 Q2273.89 1538.6 2270.81 1543.21 Q2267.76 1547.79 2261.95 1547.79 Q2256.14 1547.79 2253.06 1543.21 Q2250 1538.6 2250 1529.87 Q2250 1521.12 2253.06 1516.54 Q2256.14 1511.93 2261.95 1511.93 Z" fill="#000000" fill-rule="evenodd" fill-opacity="1" /><path clip-path="url(#clip270)" d="M 0 0 M2276.21 1532.24 L2288.68 1532.24 L2288.68 1536.03 L2276.21 1536.03 L2276.21 1532.24 Z" fill="#000000" fill-rule="evenodd" fill-opacity="1" /><path clip-path="url(#clip270)" d="M 0 0 M2303.75 1515.64 Q2300.14 1515.64 2298.31 1519.2 Q2296.51 1522.75 2296.51 1529.87 Q2296.51 1536.98 2298.31 1540.55 Q2300.14 1544.09 2303.75 1544.09 Q2307.39 1544.09 2309.19 1540.55 Q2311.02 1536.98 2311.02 1529.87 Q2311.02 1522.75 2309.19 1519.2 Q2307.39 1515.64 2303.75 1515.64 M2303.75 1511.93 Q2309.56 1511.93 2312.62 1516.54 Q2315.7 1521.12 2315.7 1529.87 Q2315.7 1538.6 2312.62 1543.21 Q2309.56 1547.79 2303.75 1547.79 Q2297.94 1547.79 2294.86 1543.21 Q2291.81 1538.6 2291.81 1529.87 Q2291.81 1521.12 2294.86 1516.54 Q2297.94 1511.93 2303.75 1511.93 Z" fill="#000000" fill-rule="evenodd" fill-opacity="1" /><path clip-path="url(#clip270)" d="M 0 0 M2321.58 1543.18 L2329.22 1543.18 L2329.22 1516.82 L2320.91 1518.49 L2320.91 1514.23 L2329.17 1512.56 L2333.85 1512.56 L2333.85 1543.18 L2341.48 1543.18 L2341.48 1547.12 L2321.58 1547.12 L2321.58 1543.18 Z" fill="#000000" fill-rule="evenodd" fill-opacity="1" /><path clip-path="url(#clip270)" d="M 0 0 M2343.8 1532.24 L2356.28 1532.24 L2356.28 1536.03 L2343.8 1536.03 L2343.8 1532.24 Z" fill="#000000" fill-rule="evenodd" fill-opacity="1" /><path clip-path="url(#clip270)" d="M 0 0 M2371.35 1515.64 Q2367.73 1515.64 2365.91 1519.2 Q2364.1 1522.75 2364.1 1529.87 Q2364.1 1536.98 2365.91 1540.55 Q2367.73 1544.09 2371.35 1544.09 Q2374.98 1544.09 2376.78 1540.55 Q2378.61 1536.98 2378.61 1529.87 Q2378.61 1522.75 2376.78 1519.2 Q2374.98 1515.64 2371.35 1515.64 M2371.35 1511.93 Q2377.16 1511.93 2380.21 1516.54 Q2383.29 1521.12 2383.29 1529.87 Q2383.29 1538.6 2380.21 1543.21 Q2377.16 1547.79 2371.35 1547.79 Q2365.54 1547.79 2362.46 1543.21 Q2359.4 1538.6 2359.4 1529.87 Q2359.4 1521.12 2362.46 1516.54 Q2365.54 1511.93 2371.35 1511.93 Z" fill="#000000" fill-rule="evenodd" fill-opacity="1" /><path clip-path="url(#clip270)" d="M 0 0 M2389.17 1543.18 L2396.81 1543.18 L2396.81 1516.82 L2388.5 1518.49 L2388.5 1514.23 L2396.76 1512.56 L2401.44 1512.56 L2401.44 1543.18 L2409.08 1543.18 L2409.08 1547.12 L2389.17 1547.12 L2389.17 1543.18 Z" fill="#000000" fill-rule="evenodd" fill-opacity="1" /><polyline clip-path="url(#clip272)" style="stroke:#000000; stroke-width:2; stroke-opacity:0.1; fill:none" points="
  112.177,1295.05 2352.76,1295.05 
  "/>
<polyline clip-path="url(#clip272)" style="stroke:#000000; stroke-width:2; stroke-opacity:0.1; fill:none" points="
  112.177,941.572 2352.76,941.572 
  "/>
<polyline clip-path="url(#clip272)" style="stroke:#000000; stroke-width:2; stroke-opacity:0.1; fill:none" points="
  112.177,588.097 2352.76,588.097 
  "/>
<polyline clip-path="url(#clip272)" style="stroke:#000000; stroke-width:2; stroke-opacity:0.1; fill:none" points="
  112.177,234.621 2352.76,234.621 
  "/>
<polyline clip-path="url(#clip270)" style="stroke:#000000; stroke-width:4; stroke-opacity:1; fill:none" points="
  112.177,1486.45 112.177,47.2441 
  "/>
<polyline clip-path="url(#clip270)" style="stroke:#000000; stroke-width:4; stroke-opacity:1; fill:none" points="
  112.177,1295.05 139.064,1295.05 
  "/>
<polyline clip-path="url(#clip270)" style="stroke:#000000; stroke-width:4; stroke-opacity:1; fill:none" points="
  112.177,941.572 139.064,941.572 
  "/>
<polyline clip-path="url(#clip270)" style="stroke:#000000; stroke-width:4; stroke-opacity:1; fill:none" points="
  112.177,588.097 139.064,588.097 
  "/>
<polyline clip-path="url(#clip270)" style="stroke:#000000; stroke-width:4; stroke-opacity:1; fill:none" points="
  112.177,234.621 139.064,234.621 
  "/>
<path clip-path="url(#clip270)" d="M 0 0 M56.2699 1308.39 L63.9087 1308.39 L63.9087 1282.03 L55.5986 1283.69 L55.5986 1279.44 L63.8624 1277.77 L68.5383 1277.77 L68.5383 1308.39 L76.1772 1308.39 L76.1772 1312.33 L56.2699 1312.33 L56.2699 1308.39 Z" fill="#000000" fill-rule="evenodd" fill-opacity="1" /><path clip-path="url(#clip270)" d="M 0 0 M59.8578 954.917 L76.1772 954.917 L76.1772 958.852 L54.2328 958.852 L54.2328 954.917 Q56.8949 952.163 61.4782 947.533 Q66.0846 942.88 67.2652 941.538 Q69.5105 939.015 70.3902 937.279 Q71.2929 935.519 71.2929 933.829 Q71.2929 931.075 69.3485 929.339 Q67.4272 927.603 64.3254 927.603 Q62.1263 927.603 59.6726 928.367 Q57.2421 929.13 54.4643 930.681 L54.4643 925.959 Q57.2884 924.825 59.7421 924.246 Q62.1958 923.667 64.2328 923.667 Q69.6031 923.667 72.7976 926.353 Q75.992 929.038 75.992 933.529 Q75.992 935.658 75.1818 937.579 Q74.3948 939.478 72.2883 942.07 Q71.7096 942.741 68.6078 945.959 Q65.5059 949.153 59.8578 954.917 Z" fill="#000000" fill-rule="evenodd" fill-opacity="1" /><path clip-path="url(#clip270)" d="M 0 0 M69.0476 586.742 Q72.404 587.46 74.279 589.729 Q76.1772 591.997 76.1772 595.33 Q76.1772 600.446 72.6587 603.247 Q69.1402 606.048 62.6587 606.048 Q60.4828 606.048 58.168 605.608 Q55.8764 605.191 53.4227 604.335 L53.4227 599.821 Q55.3671 600.955 57.6819 601.534 Q59.9967 602.113 62.5198 602.113 Q66.918 602.113 69.2096 600.377 Q71.5244 598.641 71.5244 595.33 Q71.5244 592.275 69.3717 590.562 Q67.242 588.826 63.4226 588.826 L59.3949 588.826 L59.3949 584.983 L63.6078 584.983 Q67.0569 584.983 68.8855 583.617 Q70.7142 582.229 70.7142 579.636 Q70.7142 576.974 68.8161 575.562 Q66.9411 574.127 63.4226 574.127 Q61.5013 574.127 59.3023 574.543 Q57.1032 574.96 54.4643 575.84 L54.4643 571.673 Q57.1264 570.932 59.4412 570.562 Q61.7791 570.192 63.8393 570.192 Q69.1633 570.192 72.2652 572.622 Q75.367 575.03 75.367 579.15 Q75.367 582.02 73.7235 584.011 Q72.08 585.979 69.0476 586.742 Z" fill="#000000" fill-rule="evenodd" fill-opacity="1" /><path clip-path="url(#clip270)" d="M 0 0 M66.5939 221.415 L54.7884 239.864 L66.5939 239.864 L66.5939 221.415 M65.367 217.341 L71.2466 217.341 L71.2466 239.864 L76.1772 239.864 L76.1772 243.753 L71.2466 243.753 L71.2466 251.901 L66.5939 251.901 L66.5939 243.753 L50.9921 243.753 L50.9921 239.239 L65.367 217.341 Z" fill="#000000" fill-rule="evenodd" fill-opacity="1" /><polyline clip-path="url(#clip272)" style="stroke:#009af9; stroke-width:4; stroke-opacity:1; fill:none" points="
  2289.34,1108.06 1761.27,1445.72 1233.19,87.9763 705.113,325.119 175.59,1110 
  "/>
<path clip-path="url(#clip270)" d="
M1491.62 216.178 L2278.07 216.178 L2278.07 95.2176 L1491.62 95.2176  Z
  " fill="#ffffff" fill-rule="evenodd" fill-opacity="1"/>
<polyline clip-path="url(#clip270)" style="stroke:#000000; stroke-width:4; stroke-opacity:1; fill:none" points="
  1491.62,216.178 2278.07,216.178 2278.07,95.2176 1491.62,95.2176 1491.62,216.178 
  "/>
<polyline clip-path="url(#clip270)" style="stroke:#009af9; stroke-width:4; stroke-opacity:1; fill:none" points="
  1516.51,155.698 1665.89,155.698 
  "/>
<path clip-path="url(#clip270)" d="M 0 0 M1718.65 141.08 L1718.65 146.01 Q1716.29 143.811 1713.61 142.723 Q1710.94 141.635 1707.93 141.635 Q1702.01 141.635 1698.86 145.269 Q1695.71 148.88 1695.71 155.732 Q1695.71 162.561 1698.86 166.195 Q1702.01 169.806 1707.93 169.806 Q1710.94 169.806 1713.61 168.718 Q1716.29 167.63 1718.65 165.431 L1718.65 170.316 Q1716.2 171.982 1713.44 172.816 Q1710.71 173.649 1707.66 173.649 Q1699.81 173.649 1695.3 168.857 Q1690.78 164.042 1690.78 155.732 Q1690.78 147.399 1695.3 142.607 Q1699.81 137.793 1707.66 137.793 Q1710.76 137.793 1713.49 138.626 Q1716.25 139.436 1718.65 141.08 Z" fill="#000000" fill-rule="evenodd" fill-opacity="1" /><path clip-path="url(#clip270)" d="M 0 0 M1734.9 159.945 Q1729.74 159.945 1727.75 161.126 Q1725.76 162.306 1725.76 165.154 Q1725.76 167.422 1727.24 168.765 Q1728.74 170.084 1731.31 170.084 Q1734.86 170.084 1736.99 167.584 Q1739.14 165.061 1739.14 160.894 L1739.14 159.945 L1734.9 159.945 M1743.4 158.186 L1743.4 172.978 L1739.14 172.978 L1739.14 169.042 Q1737.68 171.403 1735.5 172.538 Q1733.33 173.649 1730.18 173.649 Q1726.2 173.649 1723.84 171.427 Q1721.5 169.181 1721.5 165.431 Q1721.5 161.056 1724.42 158.834 Q1727.36 156.612 1733.17 156.612 L1739.14 156.612 L1739.14 156.195 Q1739.14 153.255 1737.19 151.658 Q1735.27 150.038 1731.78 150.038 Q1729.56 150.038 1727.45 150.57 Q1725.34 151.103 1723.4 152.167 L1723.4 148.232 Q1725.74 147.33 1727.93 146.89 Q1730.13 146.427 1732.22 146.427 Q1737.84 146.427 1740.62 149.343 Q1743.4 152.26 1743.4 158.186 Z" fill="#000000" fill-rule="evenodd" fill-opacity="1" /><path clip-path="url(#clip270)" d="M 0 0 M1764.39 147.816 L1764.39 151.843 Q1762.59 150.917 1760.64 150.455 Q1758.7 149.992 1756.62 149.992 Q1753.44 149.992 1751.85 150.964 Q1750.27 151.936 1750.27 153.88 Q1750.27 155.362 1751.41 156.218 Q1752.54 157.052 1755.97 157.816 L1757.43 158.14 Q1761.96 159.112 1763.86 160.894 Q1765.78 162.654 1765.78 165.825 Q1765.78 169.436 1762.91 171.542 Q1760.06 173.649 1755.06 173.649 Q1752.98 173.649 1750.71 173.232 Q1748.47 172.839 1745.97 172.028 L1745.97 167.63 Q1748.33 168.857 1750.62 169.482 Q1752.91 170.084 1755.16 170.084 Q1758.17 170.084 1759.79 169.066 Q1761.41 168.024 1761.41 166.149 Q1761.41 164.413 1760.23 163.487 Q1759.07 162.561 1755.11 161.704 L1753.63 161.357 Q1749.67 160.524 1747.91 158.811 Q1746.15 157.075 1746.15 154.066 Q1746.15 150.408 1748.74 148.418 Q1751.34 146.427 1756.11 146.427 Q1758.47 146.427 1760.55 146.774 Q1762.63 147.121 1764.39 147.816 Z" fill="#000000" fill-rule="evenodd" fill-opacity="1" /><path clip-path="url(#clip270)" d="M 0 0 M1791.8 157.329 L1791.8 172.978 L1787.54 172.978 L1787.54 157.468 Q1787.54 153.788 1786.11 151.959 Q1784.67 150.13 1781.8 150.13 Q1778.35 150.13 1776.36 152.33 Q1774.37 154.529 1774.37 158.325 L1774.37 172.978 L1770.09 172.978 L1770.09 136.959 L1774.37 136.959 L1774.37 151.08 Q1775.9 148.742 1777.96 147.584 Q1780.04 146.427 1782.75 146.427 Q1787.22 146.427 1789.51 149.205 Q1791.8 151.959 1791.8 157.329 Z" fill="#000000" fill-rule="evenodd" fill-opacity="1" /><path clip-path="url(#clip270)" d="M 0 0 M1811.52 138.418 L1831.38 138.418 L1831.38 142.353 L1816.2 142.353 L1816.2 152.538 L1829.9 152.538 L1829.9 156.473 L1816.2 156.473 L1816.2 172.978 L1811.52 172.978 L1811.52 138.418 Z" fill="#000000" fill-rule="evenodd" fill-opacity="1" /><path clip-path="url(#clip270)" d="M 0 0 M1835.85 136.959 L1840.11 136.959 L1840.11 172.978 L1835.85 172.978 L1835.85 136.959 Z" fill="#000000" fill-rule="evenodd" fill-opacity="1" /><path clip-path="url(#clip270)" d="M 0 0 M1854.62 150.038 Q1851.2 150.038 1849.21 152.723 Q1847.22 155.385 1847.22 160.038 Q1847.22 164.691 1849.18 167.376 Q1851.17 170.038 1854.62 170.038 Q1858.03 170.038 1860.02 167.353 Q1862.01 164.667 1862.01 160.038 Q1862.01 155.431 1860.02 152.746 Q1858.03 150.038 1854.62 150.038 M1854.62 146.427 Q1860.18 146.427 1863.35 150.038 Q1866.52 153.649 1866.52 160.038 Q1866.52 166.404 1863.35 170.038 Q1860.18 173.649 1854.62 173.649 Q1849.05 173.649 1845.87 170.038 Q1842.73 166.404 1842.73 160.038 Q1842.73 153.649 1845.87 150.038 Q1849.05 146.427 1854.62 146.427 Z" fill="#000000" fill-rule="evenodd" fill-opacity="1" /><path clip-path="url(#clip270)" d="M 0 0 M1868.51 147.052 L1872.77 147.052 L1878.1 167.283 L1883.4 147.052 L1888.42 147.052 L1893.74 167.283 L1899.04 147.052 L1903.3 147.052 L1896.52 172.978 L1891.5 172.978 L1885.92 151.728 L1880.32 172.978 L1875.3 172.978 L1868.51 147.052 Z" fill="#000000" fill-rule="evenodd" fill-opacity="1" /><path clip-path="url(#clip270)" d="M 0 0 M1935.97 136.959 L1935.97 140.501 L1931.89 140.501 Q1929.6 140.501 1928.7 141.427 Q1927.82 142.353 1927.82 144.76 L1927.82 147.052 L1934.83 147.052 L1934.83 150.362 L1927.82 150.362 L1927.82 172.978 L1923.54 172.978 L1923.54 150.362 L1919.46 150.362 L1919.46 147.052 L1923.54 147.052 L1923.54 145.246 Q1923.54 140.918 1925.55 138.95 Q1927.56 136.959 1931.94 136.959 L1935.97 136.959 Z" fill="#000000" fill-rule="evenodd" fill-opacity="1" /><path clip-path="url(#clip270)" d="M 0 0 M1955.46 151.033 Q1954.74 150.617 1953.88 150.431 Q1953.05 150.223 1952.03 150.223 Q1948.42 150.223 1946.48 152.584 Q1944.55 154.922 1944.55 159.32 L1944.55 172.978 L1940.27 172.978 L1940.27 147.052 L1944.55 147.052 L1944.55 151.08 Q1945.9 148.718 1948.05 147.584 Q1950.2 146.427 1953.28 146.427 Q1953.72 146.427 1954.25 146.496 Q1954.79 146.543 1955.43 146.658 L1955.46 151.033 Z" fill="#000000" fill-rule="evenodd" fill-opacity="1" /><path clip-path="url(#clip270)" d="M 0 0 M1968.93 150.038 Q1965.5 150.038 1963.51 152.723 Q1961.52 155.385 1961.52 160.038 Q1961.52 164.691 1963.49 167.376 Q1965.48 170.038 1968.93 170.038 Q1972.33 170.038 1974.32 167.353 Q1976.31 164.667 1976.31 160.038 Q1976.31 155.431 1974.32 152.746 Q1972.33 150.038 1968.93 150.038 M1968.93 146.427 Q1974.48 146.427 1977.66 150.038 Q1980.83 153.649 1980.83 160.038 Q1980.83 166.404 1977.66 170.038 Q1974.48 173.649 1968.93 173.649 Q1963.35 173.649 1960.18 170.038 Q1957.03 166.404 1957.03 160.038 Q1957.03 153.649 1960.18 150.038 Q1963.35 146.427 1968.93 146.427 Z" fill="#000000" fill-rule="evenodd" fill-opacity="1" /><path clip-path="url(#clip270)" d="M 0 0 M2005.48 152.029 Q2007.08 149.158 2009.3 147.793 Q2011.52 146.427 2014.53 146.427 Q2018.58 146.427 2020.78 149.274 Q2022.98 152.098 2022.98 157.329 L2022.98 172.978 L2018.7 172.978 L2018.7 157.468 Q2018.7 153.742 2017.38 151.936 Q2016.06 150.13 2013.35 150.13 Q2010.04 150.13 2008.12 152.33 Q2006.2 154.529 2006.2 158.325 L2006.2 172.978 L2001.91 172.978 L2001.91 157.468 Q2001.91 153.718 2000.6 151.936 Q1999.28 150.13 1996.52 150.13 Q1993.26 150.13 1991.34 152.353 Q1989.41 154.552 1989.41 158.325 L1989.41 172.978 L1985.13 172.978 L1985.13 147.052 L1989.41 147.052 L1989.41 151.08 Q1990.87 148.695 1992.91 147.561 Q1994.95 146.427 1997.75 146.427 Q2000.57 146.427 2002.54 147.862 Q2004.53 149.297 2005.48 152.029 Z" fill="#000000" fill-rule="evenodd" fill-opacity="1" /><path clip-path="url(#clip270)" d="M 0 0 M2042.7 138.418 L2062.56 138.418 L2062.56 142.353 L2047.38 142.353 L2047.38 152.538 L2061.08 152.538 L2061.08 156.473 L2047.38 156.473 L2047.38 172.978 L2042.7 172.978 L2042.7 138.418 Z" fill="#000000" fill-rule="evenodd" fill-opacity="1" /><path clip-path="url(#clip270)" d="M 0 0 M2063.58 147.052 L2067.84 147.052 L2067.84 172.978 L2063.58 172.978 L2063.58 147.052 M2063.58 136.959 L2067.84 136.959 L2067.84 142.353 L2063.58 142.353 L2063.58 136.959 Z" fill="#000000" fill-rule="evenodd" fill-opacity="1" /><path clip-path="url(#clip270)" d="M 0 0 M2093.86 157.329 L2093.86 172.978 L2089.6 172.978 L2089.6 157.468 Q2089.6 153.788 2088.16 151.959 Q2086.73 150.13 2083.86 150.13 Q2080.41 150.13 2078.42 152.33 Q2076.43 154.529 2076.43 158.325 L2076.43 172.978 L2072.15 172.978 L2072.15 147.052 L2076.43 147.052 L2076.43 151.08 Q2077.96 148.742 2080.02 147.584 Q2082.1 146.427 2084.81 146.427 Q2089.28 146.427 2091.57 149.205 Q2093.86 151.959 2093.86 157.329 Z" fill="#000000" fill-rule="evenodd" fill-opacity="1" /><path clip-path="url(#clip270)" d="M 0 0 M2110.11 159.945 Q2104.95 159.945 2102.96 161.126 Q2100.97 162.306 2100.97 165.154 Q2100.97 167.422 2102.45 168.765 Q2103.95 170.084 2106.52 170.084 Q2110.06 170.084 2112.19 167.584 Q2114.34 165.061 2114.34 160.894 L2114.34 159.945 L2110.11 159.945 M2118.6 158.186 L2118.6 172.978 L2114.34 172.978 L2114.34 169.042 Q2112.89 171.403 2110.71 172.538 Q2108.53 173.649 2105.39 173.649 Q2101.4 173.649 2099.04 171.427 Q2096.71 169.181 2096.71 165.431 Q2096.71 161.056 2099.62 158.834 Q2102.56 156.612 2108.37 156.612 L2114.34 156.612 L2114.34 156.195 Q2114.34 153.255 2112.4 151.658 Q2110.48 150.038 2106.98 150.038 Q2104.76 150.038 2102.65 150.57 Q2100.55 151.103 2098.6 152.167 L2098.6 148.232 Q2100.94 147.33 2103.14 146.89 Q2105.34 146.427 2107.42 146.427 Q2113.05 146.427 2115.83 149.343 Q2118.6 152.26 2118.6 158.186 Z" fill="#000000" fill-rule="evenodd" fill-opacity="1" /><path clip-path="url(#clip270)" d="M 0 0 M2144.62 157.329 L2144.62 172.978 L2140.36 172.978 L2140.36 157.468 Q2140.36 153.788 2138.93 151.959 Q2137.49 150.13 2134.62 150.13 Q2131.17 150.13 2129.18 152.33 Q2127.19 154.529 2127.19 158.325 L2127.19 172.978 L2122.91 172.978 L2122.91 147.052 L2127.19 147.052 L2127.19 151.08 Q2128.72 148.742 2130.78 147.584 Q2132.86 146.427 2135.57 146.427 Q2140.04 146.427 2142.33 149.205 Q2144.62 151.959 2144.62 157.329 Z" fill="#000000" fill-rule="evenodd" fill-opacity="1" /><path clip-path="url(#clip270)" d="M 0 0 M2167.75 148.047 L2167.75 152.029 Q2165.94 151.033 2164.11 150.547 Q2162.31 150.038 2160.46 150.038 Q2156.31 150.038 2154.02 152.677 Q2151.73 155.292 2151.73 160.038 Q2151.73 164.783 2154.02 167.422 Q2156.31 170.038 2160.46 170.038 Q2162.31 170.038 2164.11 169.552 Q2165.94 169.042 2167.75 168.047 L2167.75 171.982 Q2165.96 172.816 2164.04 173.232 Q2162.15 173.649 2159.99 173.649 Q2154.14 173.649 2150.69 169.968 Q2147.24 166.288 2147.24 160.038 Q2147.24 153.695 2150.71 150.061 Q2154.21 146.427 2160.27 146.427 Q2162.24 146.427 2164.11 146.843 Q2165.99 147.237 2167.75 148.047 Z" fill="#000000" fill-rule="evenodd" fill-opacity="1" /><path clip-path="url(#clip270)" d="M 0 0 M2172.21 147.052 L2176.47 147.052 L2176.47 172.978 L2172.21 172.978 L2172.21 147.052 M2172.21 136.959 L2176.47 136.959 L2176.47 142.353 L2172.21 142.353 L2172.21 136.959 Z" fill="#000000" fill-rule="evenodd" fill-opacity="1" /><path clip-path="url(#clip270)" d="M 0 0 M2202.49 157.329 L2202.49 172.978 L2198.23 172.978 L2198.23 157.468 Q2198.23 153.788 2196.8 151.959 Q2195.36 150.13 2192.49 150.13 Q2189.04 150.13 2187.05 152.33 Q2185.06 154.529 2185.06 158.325 L2185.06 172.978 L2180.78 172.978 L2180.78 147.052 L2185.06 147.052 L2185.06 151.08 Q2186.59 148.742 2188.65 147.584 Q2190.73 146.427 2193.44 146.427 Q2197.91 146.427 2200.2 149.205 Q2202.49 151.959 2202.49 157.329 Z" fill="#000000" fill-rule="evenodd" fill-opacity="1" /><path clip-path="url(#clip270)" d="M 0 0 M2224.02 159.714 Q2224.02 155.084 2222.1 152.538 Q2220.2 149.992 2216.75 149.992 Q2213.33 149.992 2211.4 152.538 Q2209.51 155.084 2209.51 159.714 Q2209.51 164.32 2211.4 166.866 Q2213.33 169.413 2216.75 169.413 Q2220.2 169.413 2222.1 166.866 Q2224.02 164.32 2224.02 159.714 M2228.28 169.76 Q2228.28 176.38 2225.34 179.598 Q2222.4 182.839 2216.33 182.839 Q2214.09 182.839 2212.1 182.491 Q2210.11 182.167 2208.23 181.473 L2208.23 177.329 Q2210.11 178.348 2211.94 178.834 Q2213.77 179.32 2215.66 179.32 Q2219.85 179.32 2221.94 177.121 Q2224.02 174.945 2224.02 170.524 L2224.02 168.417 Q2222.7 170.709 2220.64 171.843 Q2218.58 172.978 2215.71 172.978 Q2210.94 172.978 2208.02 169.343 Q2205.11 165.709 2205.11 159.714 Q2205.11 153.695 2208.02 150.061 Q2210.94 146.427 2215.71 146.427 Q2218.58 146.427 2220.64 147.561 Q2222.7 148.695 2224.02 150.987 L2224.02 147.052 L2228.28 147.052 L2228.28 169.76 Z" fill="#000000" fill-rule="evenodd" fill-opacity="1" /></svg>
