<?xml version="1.0" encoding="utf-8"?>
<svg xmlns="http://www.w3.org/2000/svg" xmlns:xlink="http://www.w3.org/1999/xlink" width="600" height="400" viewBox="0 0 2400 1600">
<defs>
  <clipPath id="clip010">
    <rect x="0" y="0" width="2400" height="1600"/>
  </clipPath>
</defs>
<path clip-path="url(#clip010)" d="
M0 1600 L2400 1600 L2400 0 L0 0  Z
  " fill="#ffffff" fill-rule="evenodd" fill-opacity="1"/>
<defs>
  <clipPath id="clip011">
    <rect x="480" y="0" width="1681" height="1600"/>
  </clipPath>
</defs>
<path clip-path="url(#clip010)" d="
M137.871 1486.45 L2352.76 1486.45 L2352.76 47.2441 L137.871 47.2441  Z
  " fill="#ffffff" fill-rule="evenodd" fill-opacity="1"/>
<defs>
  <clipPath id="clip012">
    <rect x="137" y="47" width="2216" height="1440"/>
  </clipPath>
</defs>
<polyline clip-path="url(#clip012)" style="stroke:#000000; stroke-width:2; stroke-opacity:0.1; fill:none" points="
  306.92,1486.45 306.92,47.2441 
  "/>
<polyline clip-path="url(#clip012)" style="stroke:#000000; stroke-width:2; stroke-opacity:0.1; fill:none" points="
  725.509,1486.45 725.509,47.2441 
  "/>
<polyline clip-path="url(#clip012)" style="stroke:#000000; stroke-width:2; stroke-opacity:0.1; fill:none" points="
  1142.95,1486.45 1142.95,47.2441 
  "/>
<polyline clip-path="url(#clip012)" style="stroke:#000000; stroke-width:2; stroke-opacity:0.1; fill:none" points="
  1560.4,1486.45 1560.4,47.2441 
  "/>
<polyline clip-path="url(#clip012)" style="stroke:#000000; stroke-width:2; stroke-opacity:0.1; fill:none" points="
  1977.84,1486.45 1977.84,47.2441 
  "/>
<polyline clip-path="url(#clip010)" style="stroke:#000000; stroke-width:4; stroke-opacity:1; fill:none" points="
  137.871,1486.45 2352.76,1486.45 
  "/>
<polyline clip-path="url(#clip010)" style="stroke:#000000; stroke-width:4; stroke-opacity:1; fill:none" points="
  306.92,1486.45 306.92,1469.18 
  "/>
<polyline clip-path="url(#clip010)" style="stroke:#000000; stroke-width:4; stroke-opacity:1; fill:none" points="
  725.509,1486.45 725.509,1469.18 
  "/>
<polyline clip-path="url(#clip010)" style="stroke:#000000; stroke-width:4; stroke-opacity:1; fill:none" points="
  1142.95,1486.45 1142.95,1469.18 
  "/>
<polyline clip-path="url(#clip010)" style="stroke:#000000; stroke-width:4; stroke-opacity:1; fill:none" points="
  1560.4,1486.45 1560.4,1469.18 
  "/>
<polyline clip-path="url(#clip010)" style="stroke:#000000; stroke-width:4; stroke-opacity:1; fill:none" points="
  1977.84,1486.45 1977.84,1469.18 
  "/>
<path clip-path="url(#clip010)" d="M 0 0 M193.992 1543.18 L210.311 1543.18 L210.311 1547.12 L188.367 1547.12 L188.367 1543.18 Q191.029 1540.43 195.612 1535.8 Q200.219 1531.15 201.399 1529.81 Q203.645 1527.28 204.524 1525.55 Q205.427 1523.79 205.427 1522.1 Q205.427 1519.34 203.483 1517.61 Q201.561 1515.87 198.46 1515.87 Q196.261 1515.87 193.807 1516.63 Q191.376 1517.4 188.599 1518.95 L188.599 1514.23 Q191.423 1513.09 193.876 1512.51 Q196.33 1511.93 198.367 1511.93 Q203.737 1511.93 206.932 1514.62 Q210.126 1517.31 210.126 1521.8 Q210.126 1523.93 209.316 1525.85 Q208.529 1527.74 206.423 1530.34 Q205.844 1531.01 202.742 1534.23 Q199.64 1537.42 193.992 1543.18 Z" fill="#000000" fill-rule="evenodd" fill-opacity="1" /><path clip-path="url(#clip010)" d="M 0 0 M225.381 1515.64 Q221.77 1515.64 219.941 1519.2 Q218.135 1522.75 218.135 1529.87 Q218.135 1536.98 219.941 1540.55 Q221.77 1544.09 225.381 1544.09 Q229.015 1544.09 230.821 1540.55 Q232.649 1536.98 232.649 1529.87 Q232.649 1522.75 230.821 1519.2 Q229.015 1515.64 225.381 1515.64 M225.381 1511.93 Q231.191 1511.93 234.246 1516.54 Q237.325 1521.12 237.325 1529.87 Q237.325 1538.6 234.246 1543.21 Q231.191 1547.79 225.381 1547.79 Q219.571 1547.79 216.492 1543.21 Q213.436 1538.6 213.436 1529.87 Q213.436 1521.12 216.492 1516.54 Q219.571 1511.93 225.381 1511.93 Z" fill="#000000" fill-rule="evenodd" fill-opacity="1" /><path clip-path="url(#clip010)" d="M 0 0 M243.205 1543.18 L250.844 1543.18 L250.844 1516.82 L242.533 1518.49 L242.533 1514.23 L250.797 1512.56 L255.473 1512.56 L255.473 1543.18 L263.112 1543.18 L263.112 1547.12 L243.205 1547.12 L243.205 1543.18 Z" fill="#000000" fill-rule="evenodd" fill-opacity="1" /><path clip-path="url(#clip010)" d="M 0 0 M278.76 1527.98 Q275.612 1527.98 273.76 1530.13 Q271.931 1532.28 271.931 1536.03 Q271.931 1539.76 273.76 1541.93 Q275.612 1544.09 278.76 1544.09 Q281.908 1544.09 283.737 1541.93 Q285.589 1539.76 285.589 1536.03 Q285.589 1532.28 283.737 1530.13 Q281.908 1527.98 278.76 1527.98 M288.042 1513.32 L288.042 1517.58 Q286.283 1516.75 284.478 1516.31 Q282.695 1515.87 280.936 1515.87 Q276.306 1515.87 273.853 1519 Q271.422 1522.12 271.075 1528.44 Q272.441 1526.43 274.501 1525.36 Q276.561 1524.27 279.038 1524.27 Q284.246 1524.27 287.255 1527.44 Q290.288 1530.59 290.288 1536.03 Q290.288 1541.36 287.14 1544.57 Q283.992 1547.79 278.76 1547.79 Q272.765 1547.79 269.593 1543.21 Q266.422 1538.6 266.422 1529.87 Q266.422 1521.68 270.311 1516.82 Q274.2 1511.93 280.751 1511.93 Q282.51 1511.93 284.292 1512.28 Q286.098 1512.63 288.042 1513.32 Z" fill="#000000" fill-rule="evenodd" fill-opacity="1" /><path clip-path="url(#clip010)" d="M 0 0 M292.603 1532.24 L305.079 1532.24 L305.079 1536.03 L292.603 1536.03 L292.603 1532.24 Z" fill="#000000" fill-rule="evenodd" fill-opacity="1" /><path clip-path="url(#clip010)" d="M 0 0 M320.149 1515.64 Q316.538 1515.64 314.709 1519.2 Q312.903 1522.75 312.903 1529.87 Q312.903 1536.98 314.709 1540.55 Q316.538 1544.09 320.149 1544.09 Q323.783 1544.09 325.589 1540.55 Q327.417 1536.98 327.417 1529.87 Q327.417 1522.75 325.589 1519.2 Q323.783 1515.64 320.149 1515.64 M320.149 1511.93 Q325.959 1511.93 329.014 1516.54 Q332.093 1521.12 332.093 1529.87 Q332.093 1538.6 329.014 1543.21 Q325.959 1547.79 320.149 1547.79 Q314.339 1547.79 311.26 1543.21 Q308.204 1538.6 308.204 1529.87 Q308.204 1521.12 311.26 1516.54 Q314.339 1511.93 320.149 1511.93 Z" fill="#000000" fill-rule="evenodd" fill-opacity="1" /><path clip-path="url(#clip010)" d="M 0 0 M337.973 1543.18 L345.612 1543.18 L345.612 1516.82 L337.301 1518.49 L337.301 1514.23 L345.565 1512.56 L350.241 1512.56 L350.241 1543.18 L357.88 1543.18 L357.88 1547.12 L337.973 1547.12 L337.973 1543.18 Z" fill="#000000" fill-rule="evenodd" fill-opacity="1" /><path clip-path="url(#clip010)" d="M 0 0 M360.195 1532.24 L372.672 1532.24 L372.672 1536.03 L360.195 1536.03 L360.195 1532.24 Z" fill="#000000" fill-rule="evenodd" fill-opacity="1" /><path clip-path="url(#clip010)" d="M 0 0 M387.741 1515.64 Q384.13 1515.64 382.301 1519.2 Q380.496 1522.75 380.496 1529.87 Q380.496 1536.98 382.301 1540.55 Q384.13 1544.09 387.741 1544.09 Q391.375 1544.09 393.181 1540.55 Q395.009 1536.98 395.009 1529.87 Q395.009 1522.75 393.181 1519.2 Q391.375 1515.64 387.741 1515.64 M387.741 1511.93 Q393.551 1511.93 396.607 1516.54 Q399.685 1521.12 399.685 1529.87 Q399.685 1538.6 396.607 1543.21 Q393.551 1547.79 387.741 1547.79 Q381.931 1547.79 378.852 1543.21 Q375.797 1538.6 375.797 1529.87 Q375.797 1521.12 378.852 1516.54 Q381.931 1511.93 387.741 1511.93 Z" fill="#000000" fill-rule="evenodd" fill-opacity="1" /><path clip-path="url(#clip010)" d="M 0 0 M405.565 1543.18 L413.204 1543.18 L413.204 1516.82 L404.894 1518.49 L404.894 1514.23 L413.158 1512.56 L417.833 1512.56 L417.833 1543.18 L425.472 1543.18 L425.472 1547.12 L405.565 1547.12 L405.565 1543.18 Z" fill="#000000" fill-rule="evenodd" fill-opacity="1" /><path clip-path="url(#clip010)" d="M 0 0 M613.113 1543.18 L629.433 1543.18 L629.433 1547.12 L607.488 1547.12 L607.488 1543.18 Q610.15 1540.43 614.734 1535.8 Q619.34 1531.15 620.521 1529.81 Q622.766 1527.28 623.646 1525.55 Q624.548 1523.79 624.548 1522.1 Q624.548 1519.34 622.604 1517.61 Q620.683 1515.87 617.581 1515.87 Q615.382 1515.87 612.928 1516.63 Q610.498 1517.4 607.72 1518.95 L607.72 1514.23 Q610.544 1513.09 612.998 1512.51 Q615.451 1511.93 617.488 1511.93 Q622.859 1511.93 626.053 1514.62 Q629.248 1517.31 629.248 1521.8 Q629.248 1523.93 628.437 1525.85 Q627.65 1527.74 625.544 1530.34 Q624.965 1531.01 621.863 1534.23 Q618.761 1537.42 613.113 1543.18 Z" fill="#000000" fill-rule="evenodd" fill-opacity="1" /><path clip-path="url(#clip010)" d="M 0 0 M644.502 1515.64 Q640.891 1515.64 639.062 1519.2 Q637.257 1522.75 637.257 1529.87 Q637.257 1536.98 639.062 1540.55 Q640.891 1544.09 644.502 1544.09 Q648.136 1544.09 649.942 1540.55 Q651.771 1536.98 651.771 1529.87 Q651.771 1522.75 649.942 1519.2 Q648.136 1515.64 644.502 1515.64 M644.502 1511.93 Q650.312 1511.93 653.368 1516.54 Q656.446 1521.12 656.446 1529.87 Q656.446 1538.6 653.368 1543.21 Q650.312 1547.79 644.502 1547.79 Q638.692 1547.79 635.613 1543.21 Q632.558 1538.6 632.558 1529.87 Q632.558 1521.12 635.613 1516.54 Q638.692 1511.93 644.502 1511.93 Z" fill="#000000" fill-rule="evenodd" fill-opacity="1" /><path clip-path="url(#clip010)" d="M 0 0 M662.326 1543.18 L669.965 1543.18 L669.965 1516.82 L661.655 1518.49 L661.655 1514.23 L669.919 1512.56 L674.595 1512.56 L674.595 1543.18 L682.233 1543.18 L682.233 1547.12 L662.326 1547.12 L662.326 1543.18 Z" fill="#000000" fill-rule="evenodd" fill-opacity="1" /><path clip-path="url(#clip010)" d="M 0 0 M686.122 1512.56 L708.344 1512.56 L708.344 1514.55 L695.798 1547.12 L690.914 1547.12 L702.719 1516.5 L686.122 1516.5 L686.122 1512.56 Z" fill="#000000" fill-rule="evenodd" fill-opacity="1" /><path clip-path="url(#clip010)" d="M 0 0 M710.659 1532.24 L723.136 1532.24 L723.136 1536.03 L710.659 1536.03 L710.659 1532.24 Z" fill="#000000" fill-rule="evenodd" fill-opacity="1" /><path clip-path="url(#clip010)" d="M 0 0 M738.205 1515.64 Q734.594 1515.64 732.765 1519.2 Q730.96 1522.75 730.96 1529.87 Q730.96 1536.98 732.765 1540.55 Q734.594 1544.09 738.205 1544.09 Q741.84 1544.09 743.645 1540.55 Q745.474 1536.98 745.474 1529.87 Q745.474 1522.75 743.645 1519.2 Q741.84 1515.64 738.205 1515.64 M738.205 1511.93 Q744.015 1511.93 747.071 1516.54 Q750.15 1521.12 750.15 1529.87 Q750.15 1538.6 747.071 1543.21 Q744.015 1547.79 738.205 1547.79 Q732.395 1547.79 729.316 1543.21 Q726.261 1538.6 726.261 1529.87 Q726.261 1521.12 729.316 1516.54 Q732.395 1511.93 738.205 1511.93 Z" fill="#000000" fill-rule="evenodd" fill-opacity="1" /><path clip-path="url(#clip010)" d="M 0 0 M756.029 1543.18 L763.668 1543.18 L763.668 1516.82 L755.358 1518.49 L755.358 1514.23 L763.622 1512.56 L768.298 1512.56 L768.298 1543.18 L775.937 1543.18 L775.937 1547.12 L756.029 1547.12 L756.029 1543.18 Z" fill="#000000" fill-rule="evenodd" fill-opacity="1" /><path clip-path="url(#clip010)" d="M 0 0 M778.251 1532.24 L790.728 1532.24 L790.728 1536.03 L778.251 1536.03 L778.251 1532.24 Z" fill="#000000" fill-rule="evenodd" fill-opacity="1" /><path clip-path="url(#clip010)" d="M 0 0 M805.798 1515.64 Q802.186 1515.64 800.358 1519.2 Q798.552 1522.75 798.552 1529.87 Q798.552 1536.98 800.358 1540.55 Q802.186 1544.09 805.798 1544.09 Q809.432 1544.09 811.237 1540.55 Q813.066 1536.98 813.066 1529.87 Q813.066 1522.75 811.237 1519.2 Q809.432 1515.64 805.798 1515.64 M805.798 1511.93 Q811.608 1511.93 814.663 1516.54 Q817.742 1521.12 817.742 1529.87 Q817.742 1538.6 814.663 1543.21 Q811.608 1547.79 805.798 1547.79 Q799.987 1547.79 796.909 1543.21 Q793.853 1538.6 793.853 1529.87 Q793.853 1521.12 796.909 1516.54 Q799.987 1511.93 805.798 1511.93 Z" fill="#000000" fill-rule="evenodd" fill-opacity="1" /><path clip-path="url(#clip010)" d="M 0 0 M823.621 1543.18 L831.26 1543.18 L831.26 1516.82 L822.95 1518.49 L822.95 1514.23 L831.214 1512.56 L835.89 1512.56 L835.89 1543.18 L843.529 1543.18 L843.529 1547.12 L823.621 1547.12 L823.621 1543.18 Z" fill="#000000" fill-rule="evenodd" fill-opacity="1" /><path clip-path="url(#clip010)" d="M 0 0 M1030.15 1543.18 L1046.47 1543.18 L1046.47 1547.12 L1024.53 1547.12 L1024.53 1543.18 Q1027.19 1540.43 1031.77 1535.8 Q1036.38 1531.15 1037.56 1529.81 Q1039.81 1527.28 1040.69 1525.55 Q1041.59 1523.79 1041.59 1522.1 Q1041.59 1519.34 1039.64 1517.61 Q1037.72 1515.87 1034.62 1515.87 Q1032.42 1515.87 1029.97 1516.63 Q1027.54 1517.4 1024.76 1518.95 L1024.76 1514.23 Q1027.58 1513.09 1030.04 1512.51 Q1032.49 1511.93 1034.53 1511.93 Q1039.9 1511.93 1043.09 1514.62 Q1046.29 1517.31 1046.29 1521.8 Q1046.29 1523.93 1045.48 1525.85 Q1044.69 1527.74 1042.58 1530.34 Q1042.01 1531.01 1038.9 1534.23 Q1035.8 1537.42 1030.15 1543.18 Z" fill="#000000" fill-rule="evenodd" fill-opacity="1" /><path clip-path="url(#clip010)" d="M 0 0 M1061.54 1515.64 Q1057.93 1515.64 1056.1 1519.2 Q1054.3 1522.75 1054.3 1529.87 Q1054.3 1536.98 1056.1 1540.55 Q1057.93 1544.09 1061.54 1544.09 Q1065.18 1544.09 1066.98 1540.55 Q1068.81 1536.98 1068.81 1529.87 Q1068.81 1522.75 1066.98 1519.2 Q1065.18 1515.64 1061.54 1515.64 M1061.54 1511.93 Q1067.35 1511.93 1070.41 1516.54 Q1073.49 1521.12 1073.49 1529.87 Q1073.49 1538.6 1070.41 1543.21 Q1067.35 1547.79 1061.54 1547.79 Q1055.73 1547.79 1052.65 1543.21 Q1049.6 1538.6 1049.6 1529.87 Q1049.6 1521.12 1052.65 1516.54 Q1055.73 1511.93 1061.54 1511.93 Z" fill="#000000" fill-rule="evenodd" fill-opacity="1" /><path clip-path="url(#clip010)" d="M 0 0 M1079.37 1543.18 L1087.01 1543.18 L1087.01 1516.82 L1078.69 1518.49 L1078.69 1514.23 L1086.96 1512.56 L1091.63 1512.56 L1091.63 1543.18 L1099.27 1543.18 L1099.27 1547.12 L1079.37 1547.12 L1079.37 1543.18 Z" fill="#000000" fill-rule="evenodd" fill-opacity="1" /><path clip-path="url(#clip010)" d="M 0 0 M1114.34 1530.71 Q1111.01 1530.71 1109.09 1532.49 Q1107.19 1534.27 1107.19 1537.4 Q1107.19 1540.52 1109.09 1542.31 Q1111.01 1544.09 1114.34 1544.09 Q1117.68 1544.09 1119.6 1542.31 Q1121.52 1540.5 1121.52 1537.4 Q1121.52 1534.27 1119.6 1532.49 Q1117.7 1530.71 1114.34 1530.71 M1109.67 1528.72 Q1106.66 1527.98 1104.97 1525.92 Q1103.3 1523.86 1103.3 1520.89 Q1103.3 1516.75 1106.24 1514.34 Q1109.2 1511.93 1114.34 1511.93 Q1119.5 1511.93 1122.44 1514.34 Q1125.38 1516.75 1125.38 1520.89 Q1125.38 1523.86 1123.69 1525.92 Q1122.03 1527.98 1119.04 1528.72 Q1122.42 1529.5 1124.3 1531.8 Q1126.19 1534.09 1126.19 1537.4 Q1126.19 1542.42 1123.12 1545.11 Q1120.06 1547.79 1114.34 1547.79 Q1108.63 1547.79 1105.55 1545.11 Q1102.49 1542.42 1102.49 1537.4 Q1102.49 1534.09 1104.39 1531.8 Q1106.29 1529.5 1109.67 1528.72 M1107.95 1521.33 Q1107.95 1524.02 1109.62 1525.52 Q1111.31 1527.03 1114.34 1527.03 Q1117.35 1527.03 1119.04 1525.52 Q1120.75 1524.02 1120.75 1521.33 Q1120.75 1518.65 1119.04 1517.14 Q1117.35 1515.64 1114.34 1515.64 Q1111.31 1515.64 1109.62 1517.14 Q1107.95 1518.65 1107.95 1521.33 Z" fill="#000000" fill-rule="evenodd" fill-opacity="1" /><path clip-path="url(#clip010)" d="M 0 0 M1128.51 1532.24 L1140.99 1532.24 L1140.99 1536.03 L1128.51 1536.03 L1128.51 1532.24 Z" fill="#000000" fill-rule="evenodd" fill-opacity="1" /><path clip-path="url(#clip010)" d="M 0 0 M1156.06 1515.64 Q1152.44 1515.64 1150.62 1519.2 Q1148.81 1522.75 1148.81 1529.87 Q1148.81 1536.98 1150.62 1540.55 Q1152.44 1544.09 1156.06 1544.09 Q1159.69 1544.09 1161.5 1540.55 Q1163.32 1536.98 1163.32 1529.87 Q1163.32 1522.75 1161.5 1519.2 Q1159.69 1515.64 1156.06 1515.64 M1156.06 1511.93 Q1161.87 1511.93 1164.92 1516.54 Q1168 1521.12 1168 1529.87 Q1168 1538.6 1164.92 1543.21 Q1161.87 1547.79 1156.06 1547.79 Q1150.25 1547.79 1147.17 1543.21 Q1144.11 1538.6 1144.11 1529.87 Q1144.11 1521.12 1147.17 1516.54 Q1150.25 1511.93 1156.06 1511.93 Z" fill="#000000" fill-rule="evenodd" fill-opacity="1" /><path clip-path="url(#clip010)" d="M 0 0 M1173.88 1543.18 L1181.52 1543.18 L1181.52 1516.82 L1173.21 1518.49 L1173.21 1514.23 L1181.47 1512.56 L1186.15 1512.56 L1186.15 1543.18 L1193.79 1543.18 L1193.79 1547.12 L1173.88 1547.12 L1173.88 1543.18 Z" fill="#000000" fill-rule="evenodd" fill-opacity="1" /><path clip-path="url(#clip010)" d="M 0 0 M1196.1 1532.24 L1208.58 1532.24 L1208.58 1536.03 L1196.1 1536.03 L1196.1 1532.24 Z" fill="#000000" fill-rule="evenodd" fill-opacity="1" /><path clip-path="url(#clip010)" d="M 0 0 M1223.65 1515.64 Q1220.04 1515.64 1218.21 1519.2 Q1216.4 1522.75 1216.4 1529.87 Q1216.4 1536.98 1218.21 1540.55 Q1220.04 1544.09 1223.65 1544.09 Q1227.28 1544.09 1229.09 1540.55 Q1230.92 1536.98 1230.92 1529.87 Q1230.92 1522.75 1229.09 1519.2 Q1227.28 1515.64 1223.65 1515.64 M1223.65 1511.93 Q1229.46 1511.93 1232.51 1516.54 Q1235.59 1521.12 1235.59 1529.87 Q1235.59 1538.6 1232.51 1543.21 Q1229.46 1547.79 1223.65 1547.79 Q1217.84 1547.79 1214.76 1543.21 Q1211.7 1538.6 1211.7 1529.87 Q1211.7 1521.12 1214.76 1516.54 Q1217.84 1511.93 1223.65 1511.93 Z" fill="#000000" fill-rule="evenodd" fill-opacity="1" /><path clip-path="url(#clip010)" d="M 0 0 M1241.47 1543.18 L1249.11 1543.18 L1249.11 1516.82 L1240.8 1518.49 L1240.8 1514.23 L1249.06 1512.56 L1253.74 1512.56 L1253.74 1543.18 L1261.38 1543.18 L1261.38 1547.12 L1241.47 1547.12 L1241.47 1543.18 Z" fill="#000000" fill-rule="evenodd" fill-opacity="1" /><path clip-path="url(#clip010)" d="M 0 0 M1447.65 1543.18 L1463.96 1543.18 L1463.96 1547.12 L1442.02 1547.12 L1442.02 1543.18 Q1444.68 1540.43 1449.27 1535.8 Q1453.87 1531.15 1455.05 1529.81 Q1457.3 1527.28 1458.18 1525.55 Q1459.08 1523.79 1459.08 1522.1 Q1459.08 1519.34 1457.14 1517.61 Q1455.21 1515.87 1452.11 1515.87 Q1449.91 1515.87 1447.46 1516.63 Q1445.03 1517.4 1442.25 1518.95 L1442.25 1514.23 Q1445.08 1513.09 1447.53 1512.51 Q1449.98 1511.93 1452.02 1511.93 Q1457.39 1511.93 1460.58 1514.62 Q1463.78 1517.31 1463.78 1521.8 Q1463.78 1523.93 1462.97 1525.85 Q1462.18 1527.74 1460.08 1530.34 Q1459.5 1531.01 1456.4 1534.23 Q1453.29 1537.42 1447.65 1543.18 Z" fill="#000000" fill-rule="evenodd" fill-opacity="1" /><path clip-path="url(#clip010)" d="M 0 0 M1479.03 1515.64 Q1475.42 1515.64 1473.59 1519.2 Q1471.79 1522.75 1471.79 1529.87 Q1471.79 1536.98 1473.59 1540.55 Q1475.42 1544.09 1479.03 1544.09 Q1482.67 1544.09 1484.47 1540.55 Q1486.3 1536.98 1486.3 1529.87 Q1486.3 1522.75 1484.47 1519.2 Q1482.67 1515.64 1479.03 1515.64 M1479.03 1511.93 Q1484.84 1511.93 1487.9 1516.54 Q1490.98 1521.12 1490.98 1529.87 Q1490.98 1538.6 1487.9 1543.21 Q1484.84 1547.79 1479.03 1547.79 Q1473.22 1547.79 1470.14 1543.21 Q1467.09 1538.6 1467.09 1529.87 Q1467.09 1521.12 1470.14 1516.54 Q1473.22 1511.93 1479.03 1511.93 Z" fill="#000000" fill-rule="evenodd" fill-opacity="1" /><path clip-path="url(#clip010)" d="M 0 0 M1496.86 1543.18 L1504.5 1543.18 L1504.5 1516.82 L1496.19 1518.49 L1496.19 1514.23 L1504.45 1512.56 L1509.13 1512.56 L1509.13 1543.18 L1516.77 1543.18 L1516.77 1547.12 L1496.86 1547.12 L1496.86 1543.18 Z" fill="#000000" fill-rule="evenodd" fill-opacity="1" /><path clip-path="url(#clip010)" d="M 0 0 M1521.97 1546.4 L1521.97 1542.14 Q1523.73 1542.98 1525.54 1543.42 Q1527.34 1543.86 1529.08 1543.86 Q1533.71 1543.86 1536.14 1540.75 Q1538.59 1537.63 1538.94 1531.29 Q1537.6 1533.28 1535.54 1534.34 Q1533.48 1535.41 1530.98 1535.41 Q1525.79 1535.41 1522.76 1532.28 Q1519.75 1529.13 1519.75 1523.69 Q1519.75 1518.37 1522.9 1515.15 Q1526.05 1511.93 1531.28 1511.93 Q1537.27 1511.93 1540.42 1516.54 Q1543.59 1521.12 1543.59 1529.87 Q1543.59 1538.05 1539.7 1542.93 Q1535.84 1547.79 1529.29 1547.79 Q1527.53 1547.79 1525.72 1547.44 Q1523.92 1547.1 1521.97 1546.4 M1531.28 1531.75 Q1534.43 1531.75 1536.26 1529.6 Q1538.11 1527.44 1538.11 1523.69 Q1538.11 1519.97 1536.26 1517.81 Q1534.43 1515.64 1531.28 1515.64 Q1528.13 1515.64 1526.28 1517.81 Q1524.45 1519.97 1524.45 1523.69 Q1524.45 1527.44 1526.28 1529.6 Q1528.13 1531.75 1531.28 1531.75 Z" fill="#000000" fill-rule="evenodd" fill-opacity="1" /><path clip-path="url(#clip010)" d="M 0 0 M1545.91 1532.24 L1558.39 1532.24 L1558.39 1536.03 L1545.91 1536.03 L1545.91 1532.24 Z" fill="#000000" fill-rule="evenodd" fill-opacity="1" /><path clip-path="url(#clip010)" d="M 0 0 M1573.45 1515.64 Q1569.84 1515.64 1568.01 1519.2 Q1566.21 1522.75 1566.21 1529.87 Q1566.21 1536.98 1568.01 1540.55 Q1569.84 1544.09 1573.45 1544.09 Q1577.09 1544.09 1578.89 1540.55 Q1580.72 1536.98 1580.72 1529.87 Q1580.72 1522.75 1578.89 1519.2 Q1577.09 1515.64 1573.45 1515.64 M1573.45 1511.93 Q1579.26 1511.93 1582.32 1516.54 Q1585.4 1521.12 1585.4 1529.87 Q1585.4 1538.6 1582.32 1543.21 Q1579.26 1547.79 1573.45 1547.79 Q1567.64 1547.79 1564.57 1543.21 Q1561.51 1538.6 1561.51 1529.87 Q1561.51 1521.12 1564.57 1516.54 Q1567.64 1511.93 1573.45 1511.93 Z" fill="#000000" fill-rule="evenodd" fill-opacity="1" /><path clip-path="url(#clip010)" d="M 0 0 M1591.28 1543.18 L1598.92 1543.18 L1598.92 1516.82 L1590.61 1518.49 L1590.61 1514.23 L1598.87 1512.56 L1603.55 1512.56 L1603.55 1543.18 L1611.19 1543.18 L1611.19 1547.12 L1591.28 1547.12 L1591.28 1543.18 Z" fill="#000000" fill-rule="evenodd" fill-opacity="1" /><path clip-path="url(#clip010)" d="M 0 0 M1613.5 1532.24 L1625.98 1532.24 L1625.98 1536.03 L1613.5 1536.03 L1613.5 1532.24 Z" fill="#000000" fill-rule="evenodd" fill-opacity="1" /><path clip-path="url(#clip010)" d="M 0 0 M1641.05 1515.64 Q1637.44 1515.64 1635.61 1519.2 Q1633.8 1522.75 1633.8 1529.87 Q1633.8 1536.98 1635.61 1540.55 Q1637.44 1544.09 1641.05 1544.09 Q1644.68 1544.09 1646.49 1540.55 Q1648.32 1536.98 1648.32 1529.87 Q1648.32 1522.75 1646.49 1519.2 Q1644.68 1515.64 1641.05 1515.64 M1641.05 1511.93 Q1646.86 1511.93 1649.91 1516.54 Q1652.99 1521.12 1652.99 1529.87 Q1652.99 1538.6 1649.91 1543.21 Q1646.86 1547.79 1641.05 1547.79 Q1635.24 1547.79 1632.16 1543.21 Q1629.1 1538.6 1629.1 1529.87 Q1629.1 1521.12 1632.16 1516.54 Q1635.24 1511.93 1641.05 1511.93 Z" fill="#000000" fill-rule="evenodd" fill-opacity="1" /><path clip-path="url(#clip010)" d="M 0 0 M1658.87 1543.18 L1666.51 1543.18 L1666.51 1516.82 L1658.2 1518.49 L1658.2 1514.23 L1666.46 1512.56 L1671.14 1512.56 L1671.14 1543.18 L1678.78 1543.18 L1678.78 1547.12 L1658.87 1547.12 L1658.87 1543.18 Z" fill="#000000" fill-rule="evenodd" fill-opacity="1" /><path clip-path="url(#clip010)" d="M 0 0 M1865.18 1543.18 L1881.5 1543.18 L1881.5 1547.12 L1859.56 1547.12 L1859.56 1543.18 Q1862.22 1540.43 1866.8 1535.8 Q1871.41 1531.15 1872.59 1529.81 Q1874.84 1527.28 1875.72 1525.55 Q1876.62 1523.79 1876.62 1522.1 Q1876.62 1519.34 1874.67 1517.61 Q1872.75 1515.87 1869.65 1515.87 Q1867.45 1515.87 1865 1516.63 Q1862.57 1517.4 1859.79 1518.95 L1859.79 1514.23 Q1862.61 1513.09 1865.07 1512.51 Q1867.52 1511.93 1869.56 1511.93 Q1874.93 1511.93 1878.12 1514.62 Q1881.32 1517.31 1881.32 1521.8 Q1881.32 1523.93 1880.51 1525.85 Q1879.72 1527.74 1877.61 1530.34 Q1877.03 1531.01 1873.93 1534.23 Q1870.83 1537.42 1865.18 1543.18 Z" fill="#000000" fill-rule="evenodd" fill-opacity="1" /><path clip-path="url(#clip010)" d="M 0 0 M1896.57 1515.64 Q1892.96 1515.64 1891.13 1519.2 Q1889.33 1522.75 1889.33 1529.87 Q1889.33 1536.98 1891.13 1540.55 Q1892.96 1544.09 1896.57 1544.09 Q1900.21 1544.09 1902.01 1540.55 Q1903.84 1536.98 1903.84 1529.87 Q1903.84 1522.75 1902.01 1519.2 Q1900.21 1515.64 1896.57 1515.64 M1896.57 1511.93 Q1902.38 1511.93 1905.44 1516.54 Q1908.52 1521.12 1908.52 1529.87 Q1908.52 1538.6 1905.44 1543.21 Q1902.38 1547.79 1896.57 1547.79 Q1890.76 1547.79 1887.68 1543.21 Q1884.63 1538.6 1884.63 1529.87 Q1884.63 1521.12 1887.68 1516.54 Q1890.76 1511.93 1896.57 1511.93 Z" fill="#000000" fill-rule="evenodd" fill-opacity="1" /><path clip-path="url(#clip010)" d="M 0 0 M1917.61 1543.18 L1933.93 1543.18 L1933.93 1547.12 L1911.99 1547.12 L1911.99 1543.18 Q1914.65 1540.43 1919.23 1535.8 Q1923.84 1531.15 1925.02 1529.81 Q1927.27 1527.28 1928.15 1525.55 Q1929.05 1523.79 1929.05 1522.1 Q1929.05 1519.34 1927.1 1517.61 Q1925.18 1515.87 1922.08 1515.87 Q1919.88 1515.87 1917.43 1516.63 Q1915 1517.4 1912.22 1518.95 L1912.22 1514.23 Q1915.04 1513.09 1917.5 1512.51 Q1919.95 1511.93 1921.99 1511.93 Q1927.36 1511.93 1930.55 1514.62 Q1933.75 1517.31 1933.75 1521.8 Q1933.75 1523.93 1932.94 1525.85 Q1932.15 1527.74 1930.04 1530.34 Q1929.46 1531.01 1926.36 1534.23 Q1923.26 1537.42 1917.61 1543.18 Z" fill="#000000" fill-rule="evenodd" fill-opacity="1" /><path clip-path="url(#clip010)" d="M 0 0 M1949 1515.64 Q1945.39 1515.64 1943.56 1519.2 Q1941.76 1522.75 1941.76 1529.87 Q1941.76 1536.98 1943.56 1540.55 Q1945.39 1544.09 1949 1544.09 Q1952.64 1544.09 1954.44 1540.55 Q1956.27 1536.98 1956.27 1529.87 Q1956.27 1522.75 1954.44 1519.2 Q1952.64 1515.64 1949 1515.64 M1949 1511.93 Q1954.81 1511.93 1957.87 1516.54 Q1960.95 1521.12 1960.95 1529.87 Q1960.95 1538.6 1957.87 1543.21 Q1954.81 1547.79 1949 1547.79 Q1943.19 1547.79 1940.11 1543.21 Q1937.06 1538.6 1937.06 1529.87 Q1937.06 1521.12 1940.11 1516.54 Q1943.19 1511.93 1949 1511.93 Z" fill="#000000" fill-rule="evenodd" fill-opacity="1" /><path clip-path="url(#clip010)" d="M 0 0 M1963.26 1532.24 L1975.74 1532.24 L1975.74 1536.03 L1963.26 1536.03 L1963.26 1532.24 Z" fill="#000000" fill-rule="evenodd" fill-opacity="1" /><path clip-path="url(#clip010)" d="M 0 0 M1990.81 1515.64 Q1987.2 1515.64 1985.37 1519.2 Q1983.56 1522.75 1983.56 1529.87 Q1983.56 1536.98 1985.37 1540.55 Q1987.2 1544.09 1990.81 1544.09 Q1994.44 1544.09 1996.25 1540.55 Q1998.08 1536.98 1998.08 1529.87 Q1998.08 1522.75 1996.25 1519.2 Q1994.44 1515.64 1990.81 1515.64 M1990.81 1511.93 Q1996.62 1511.93 1999.67 1516.54 Q2002.75 1521.12 2002.75 1529.87 Q2002.75 1538.6 1999.67 1543.21 Q1996.62 1547.79 1990.81 1547.79 Q1985 1547.79 1981.92 1543.21 Q1978.86 1538.6 1978.86 1529.87 Q1978.86 1521.12 1981.92 1516.54 Q1985 1511.93 1990.81 1511.93 Z" fill="#000000" fill-rule="evenodd" fill-opacity="1" /><path clip-path="url(#clip010)" d="M 0 0 M2008.63 1543.18 L2016.27 1543.18 L2016.27 1516.82 L2007.96 1518.49 L2007.96 1514.23 L2016.22 1512.56 L2020.9 1512.56 L2020.9 1543.18 L2028.54 1543.18 L2028.54 1547.12 L2008.63 1547.12 L2008.63 1543.18 Z" fill="#000000" fill-rule="evenodd" fill-opacity="1" /><path clip-path="url(#clip010)" d="M 0 0 M2030.85 1532.24 L2043.33 1532.24 L2043.33 1536.03 L2030.85 1536.03 L2030.85 1532.24 Z" fill="#000000" fill-rule="evenodd" fill-opacity="1" /><path clip-path="url(#clip010)" d="M 0 0 M2058.4 1515.64 Q2054.79 1515.64 2052.96 1519.2 Q2051.15 1522.75 2051.15 1529.87 Q2051.15 1536.98 2052.96 1540.55 Q2054.79 1544.09 2058.4 1544.09 Q2062.03 1544.09 2063.84 1540.55 Q2065.67 1536.98 2065.67 1529.87 Q2065.67 1522.75 2063.84 1519.2 Q2062.03 1515.64 2058.4 1515.64 M2058.4 1511.93 Q2064.21 1511.93 2067.27 1516.54 Q2070.34 1521.12 2070.34 1529.87 Q2070.34 1538.6 2067.27 1543.21 Q2064.21 1547.79 2058.4 1547.79 Q2052.59 1547.79 2049.51 1543.21 Q2046.46 1538.6 2046.46 1529.87 Q2046.46 1521.12 2049.51 1516.54 Q2052.59 1511.93 2058.4 1511.93 Z" fill="#000000" fill-rule="evenodd" fill-opacity="1" /><path clip-path="url(#clip010)" d="M 0 0 M2076.22 1543.18 L2083.86 1543.18 L2083.86 1516.82 L2075.55 1518.49 L2075.55 1514.23 L2083.82 1512.56 L2088.49 1512.56 L2088.49 1543.18 L2096.13 1543.18 L2096.13 1547.12 L2076.22 1547.12 L2076.22 1543.18 Z" fill="#000000" fill-rule="evenodd" fill-opacity="1" /><polyline clip-path="url(#clip012)" style="stroke:#000000; stroke-width:2; stroke-opacity:0.1; fill:none" points="
  137.871,1235.94 2352.76,1235.94 
  "/>
<polyline clip-path="url(#clip012)" style="stroke:#000000; stroke-width:2; stroke-opacity:0.1; fill:none" points="
  137.871,961.43 2352.76,961.43 
  "/>
<polyline clip-path="url(#clip012)" style="stroke:#000000; stroke-width:2; stroke-opacity:0.1; fill:none" points="
  137.871,686.923 2352.76,686.923 
  "/>
<polyline clip-path="url(#clip012)" style="stroke:#000000; stroke-width:2; stroke-opacity:0.1; fill:none" points="
  137.871,412.416 2352.76,412.416 
  "/>
<polyline clip-path="url(#clip012)" style="stroke:#000000; stroke-width:2; stroke-opacity:0.1; fill:none" points="
  137.871,137.909 2352.76,137.909 
  "/>
<polyline clip-path="url(#clip010)" style="stroke:#000000; stroke-width:4; stroke-opacity:1; fill:none" points="
  137.871,1486.45 137.871,47.2441 
  "/>
<polyline clip-path="url(#clip010)" style="stroke:#000000; stroke-width:4; stroke-opacity:1; fill:none" points="
  137.871,1235.94 164.45,1235.94 
  "/>
<polyline clip-path="url(#clip010)" style="stroke:#000000; stroke-width:4; stroke-opacity:1; fill:none" points="
  137.871,961.43 164.45,961.43 
  "/>
<polyline clip-path="url(#clip010)" style="stroke:#000000; stroke-width:4; stroke-opacity:1; fill:none" points="
  137.871,686.923 164.45,686.923 
  "/>
<polyline clip-path="url(#clip010)" style="stroke:#000000; stroke-width:4; stroke-opacity:1; fill:none" points="
  137.871,412.416 164.45,412.416 
  "/>
<polyline clip-path="url(#clip010)" style="stroke:#000000; stroke-width:4; stroke-opacity:1; fill:none" points="
  137.871,137.909 164.45,137.909 
  "/>
<path clip-path="url(#clip010)" d="M 0 0 M53.9551 1218.66 L72.3115 1218.66 L72.3115 1222.59 L58.2375 1222.59 L58.2375 1231.06 Q59.256 1230.72 60.2745 1230.56 Q61.293 1230.37 62.3115 1230.37 Q68.0985 1230.37 71.4781 1233.54 Q74.8577 1236.71 74.8577 1242.13 Q74.8577 1247.71 71.3855 1250.81 Q67.9133 1253.89 61.5939 1253.89 Q59.418 1253.89 57.1495 1253.52 Q54.9041 1253.15 52.4967 1252.41 L52.4967 1247.71 Q54.5801 1248.84 56.8023 1249.4 Q59.0245 1249.95 61.5013 1249.95 Q65.5059 1249.95 67.8439 1247.85 Q70.1818 1245.74 70.1818 1242.13 Q70.1818 1238.52 67.8439 1236.41 Q65.5059 1234.31 61.5013 1234.31 Q59.6263 1234.31 57.7513 1234.72 Q55.8995 1235.14 53.9551 1236.02 L53.9551 1218.66 Z" fill="#000000" fill-rule="evenodd" fill-opacity="1" /><path clip-path="url(#clip010)" d="M 0 0 M89.9271 1221.74 Q86.316 1221.74 84.4873 1225.3 Q82.6818 1228.84 82.6818 1235.97 Q82.6818 1243.08 84.4873 1246.64 Q86.316 1250.18 89.9271 1250.18 Q93.5613 1250.18 95.3669 1246.64 Q97.1956 1243.08 97.1956 1235.97 Q97.1956 1228.84 95.3669 1225.3 Q93.5613 1221.74 89.9271 1221.74 M89.9271 1218.03 Q95.7373 1218.03 98.7928 1222.64 Q101.871 1227.22 101.871 1235.97 Q101.871 1244.7 98.7928 1249.31 Q95.7373 1253.89 89.9271 1253.89 Q84.1169 1253.89 81.0383 1249.31 Q77.9827 1244.7 77.9827 1235.97 Q77.9827 1227.22 81.0383 1222.64 Q84.1169 1218.03 89.9271 1218.03 Z" fill="#000000" fill-rule="evenodd" fill-opacity="1" /><path clip-path="url(#clip010)" d="M 0 0 M63.33 959.567 Q60.1819 959.567 58.33 961.72 Q56.5014 963.872 56.5014 967.622 Q56.5014 971.349 58.33 973.525 Q60.1819 975.678 63.33 975.678 Q66.4782 975.678 68.3068 973.525 Q70.1587 971.349 70.1587 967.622 Q70.1587 963.872 68.3068 961.72 Q66.4782 959.567 63.33 959.567 M72.6124 944.914 L72.6124 949.173 Q70.8531 948.34 69.0476 947.9 Q67.2652 947.46 65.5059 947.46 Q60.8763 947.46 58.4226 950.585 Q55.9921 953.71 55.6449 960.03 Q57.0106 958.016 59.0708 956.951 Q61.131 955.863 63.6078 955.863 Q68.8161 955.863 71.8253 959.034 Q74.8577 962.183 74.8577 967.622 Q74.8577 972.946 71.7096 976.164 Q68.5615 979.382 63.33 979.382 Q57.3347 979.382 54.1634 974.798 Q50.9921 970.192 50.9921 961.465 Q50.9921 953.271 54.881 948.41 Q58.7699 943.525 65.3208 943.525 Q67.08 943.525 68.8624 943.873 Q70.6679 944.22 72.6124 944.914 Z" fill="#000000" fill-rule="evenodd" fill-opacity="1" /><path clip-path="url(#clip010)" d="M 0 0 M89.9271 947.229 Q86.316 947.229 84.4873 950.794 Q82.6818 954.335 82.6818 961.465 Q82.6818 968.571 84.4873 972.136 Q86.316 975.678 89.9271 975.678 Q93.5613 975.678 95.3669 972.136 Q97.1956 968.571 97.1956 961.465 Q97.1956 954.335 95.3669 950.794 Q93.5613 947.229 89.9271 947.229 M89.9271 943.525 Q95.7373 943.525 98.7928 948.132 Q101.871 952.715 101.871 961.465 Q101.871 970.192 98.7928 974.798 Q95.7373 979.382 89.9271 979.382 Q84.1169 979.382 81.0383 974.798 Q77.9827 970.192 77.9827 961.465 Q77.9827 952.715 81.0383 948.132 Q84.1169 943.525 89.9271 943.525 Z" fill="#000000" fill-rule="evenodd" fill-opacity="1" /><path clip-path="url(#clip010)" d="M 0 0 M52.6356 669.643 L74.8577 669.643 L74.8577 671.634 L62.3115 704.203 L57.4273 704.203 L69.2328 673.578 L52.6356 673.578 L52.6356 669.643 Z" fill="#000000" fill-rule="evenodd" fill-opacity="1" /><path clip-path="url(#clip010)" d="M 0 0 M89.9271 672.722 Q86.316 672.722 84.4873 676.287 Q82.6818 679.828 82.6818 686.958 Q82.6818 694.064 84.4873 697.629 Q86.316 701.171 89.9271 701.171 Q93.5613 701.171 95.3669 697.629 Q97.1956 694.064 97.1956 686.958 Q97.1956 679.828 95.3669 676.287 Q93.5613 672.722 89.9271 672.722 M89.9271 669.018 Q95.7373 669.018 98.7928 673.625 Q101.871 678.208 101.871 686.958 Q101.871 695.685 98.7928 700.291 Q95.7373 704.875 89.9271 704.875 Q84.1169 704.875 81.0383 700.291 Q77.9827 695.685 77.9827 686.958 Q77.9827 678.208 81.0383 673.625 Q84.1169 669.018 89.9271 669.018 Z" fill="#000000" fill-rule="evenodd" fill-opacity="1" /><path clip-path="url(#clip010)" d="M 0 0 M63.006 413.284 Q59.6726 413.284 57.7513 415.067 Q55.8532 416.849 55.8532 419.974 Q55.8532 423.099 57.7513 424.881 Q59.6726 426.664 63.006 426.664 Q66.3393 426.664 68.2606 424.881 Q70.1818 423.076 70.1818 419.974 Q70.1818 416.849 68.2606 415.067 Q66.3624 413.284 63.006 413.284 M58.33 411.294 Q55.3208 410.553 53.631 408.493 Q51.9643 406.432 51.9643 403.469 Q51.9643 399.326 54.9041 396.919 Q57.8671 394.511 63.006 394.511 Q68.168 394.511 71.1078 396.919 Q74.0476 399.326 74.0476 403.469 Q74.0476 406.432 72.3578 408.493 Q70.6911 410.553 67.705 411.294 Q71.0846 412.081 72.9596 414.372 Q74.8577 416.664 74.8577 419.974 Q74.8577 424.997 71.7791 427.682 Q68.7235 430.367 63.006 430.367 Q57.2884 430.367 54.2097 427.682 Q51.1542 424.997 51.1542 419.974 Q51.1542 416.664 53.0523 414.372 Q54.9504 412.081 58.33 411.294 M56.6171 403.909 Q56.6171 406.594 58.2838 408.099 Q59.9736 409.604 63.006 409.604 Q66.0152 409.604 67.705 408.099 Q69.418 406.594 69.418 403.909 Q69.418 401.224 67.705 399.719 Q66.0152 398.215 63.006 398.215 Q59.9736 398.215 58.2838 399.719 Q56.6171 401.224 56.6171 403.909 Z" fill="#000000" fill-rule="evenodd" fill-opacity="1" /><path clip-path="url(#clip010)" d="M 0 0 M89.9271 398.215 Q86.316 398.215 84.4873 401.78 Q82.6818 405.321 82.6818 412.451 Q82.6818 419.557 84.4873 423.122 Q86.316 426.664 89.9271 426.664 Q93.5613 426.664 95.3669 423.122 Q97.1956 419.557 97.1956 412.451 Q97.1956 405.321 95.3669 401.78 Q93.5613 398.215 89.9271 398.215 M89.9271 394.511 Q95.7373 394.511 98.7928 399.118 Q101.871 403.701 101.871 412.451 Q101.871 421.178 98.7928 425.784 Q95.7373 430.367 89.9271 430.367 Q84.1169 430.367 81.0383 425.784 Q77.9827 421.178 77.9827 412.451 Q77.9827 403.701 81.0383 399.118 Q84.1169 394.511 89.9271 394.511 Z" fill="#000000" fill-rule="evenodd" fill-opacity="1" /><path clip-path="url(#clip010)" d="M 0 0 M53.2375 154.472 L53.2375 150.212 Q54.9967 151.046 56.8023 151.485 Q58.6078 151.925 60.3439 151.925 Q64.9735 151.925 67.4041 148.823 Q69.8578 145.698 70.205 139.356 Q68.8624 141.347 66.8022 142.411 Q64.7421 143.476 62.2421 143.476 Q57.0569 143.476 54.0245 140.351 Q51.0153 137.203 51.0153 131.763 Q51.0153 126.439 54.1634 123.222 Q57.3115 120.004 62.543 120.004 Q68.5383 120.004 71.6865 124.611 Q74.8577 129.194 74.8577 137.944 Q74.8577 146.115 70.9689 150.999 Q67.1032 155.86 60.5523 155.86 Q58.793 155.86 56.9875 155.513 Q55.1819 155.166 53.2375 154.472 M62.543 139.819 Q65.6911 139.819 67.5198 137.666 Q69.3717 135.513 69.3717 131.763 Q69.3717 128.036 67.5198 125.884 Q65.6911 123.708 62.543 123.708 Q59.3949 123.708 57.543 125.884 Q55.7143 128.036 55.7143 131.763 Q55.7143 135.513 57.543 137.666 Q59.3949 139.819 62.543 139.819 Z" fill="#000000" fill-rule="evenodd" fill-opacity="1" /><path clip-path="url(#clip010)" d="M 0 0 M89.9271 123.708 Q86.316 123.708 84.4873 127.273 Q82.6818 130.814 82.6818 137.944 Q82.6818 145.05 84.4873 148.615 Q86.316 152.157 89.9271 152.157 Q93.5613 152.157 95.3669 148.615 Q97.1956 145.05 97.1956 137.944 Q97.1956 130.814 95.3669 127.273 Q93.5613 123.708 89.9271 123.708 M89.9271 120.004 Q95.7373 120.004 98.7928 124.611 Q101.871 129.194 101.871 137.944 Q101.871 146.671 98.7928 151.277 Q95.7373 155.86 89.9271 155.86 Q84.1169 155.86 81.0383 151.277 Q77.9827 146.671 77.9827 137.944 Q77.9827 129.194 81.0383 124.611 Q84.1169 120.004 89.9271 120.004 Z" fill="#000000" fill-rule="evenodd" fill-opacity="1" /><polyline clip-path="url(#clip012)" style="stroke:#009af9; stroke-width:4; stroke-opacity:1; fill:none" points="
  2290.07,832.467 2184.85,970.077 2080.78,1007.74 1976.7,87.9763 1871.48,850.529 1766.26,1131.38 1662.19,1015.92 1559.26,294.104 1454.04,881.823 1348.82,1146.31 
  1244.74,930.219 1141.81,184.767 1036.59,1165.14 931.372,1361.99 827.297,1156.44 724.365,457.682 619.146,1322.35 513.927,1445.72 409.851,1220.65 305.776,525.733 
  200.557,1194.73 
  "/>
<path clip-path="url(#clip010)" d="
M1668.29 216.178 L2278.93 216.178 L2278.93 95.2176 L1668.29 95.2176  Z
  " fill="#ffffff" fill-rule="evenodd" fill-opacity="1"/>
<polyline clip-path="url(#clip010)" style="stroke:#000000; stroke-width:4; stroke-opacity:1; fill:none" points="
  1668.29,216.178 2278.93,216.178 2278.93,95.2176 1668.29,95.2176 1668.29,216.178 
  "/>
<polyline clip-path="url(#clip010)" style="stroke:#009af9; stroke-width:4; stroke-opacity:1; fill:none" points="
  1692.9,155.698 1840.56,155.698 
  "/>
<path clip-path="url(#clip010)" d="M 0 0 M1881.56 156.774 Q1883.07 157.283 1884.48 158.95 Q1885.91 160.617 1887.35 163.533 L1892.09 172.978 L1887.07 172.978 L1882.65 164.112 Q1880.94 160.64 1879.32 159.505 Q1877.72 158.371 1874.94 158.371 L1869.85 158.371 L1869.85 172.978 L1865.17 172.978 L1865.17 138.418 L1875.73 138.418 Q1881.65 138.418 1884.57 140.894 Q1887.49 143.371 1887.49 148.371 Q1887.49 151.635 1885.96 153.788 Q1884.45 155.941 1881.56 156.774 M1869.85 142.26 L1869.85 154.529 L1875.73 154.529 Q1879.11 154.529 1880.82 152.978 Q1882.56 151.404 1882.56 148.371 Q1882.56 145.339 1880.82 143.811 Q1879.11 142.26 1875.73 142.26 L1869.85 142.26 Z" fill="#000000" fill-rule="evenodd" fill-opacity="1" /><path clip-path="url(#clip010)" d="M 0 0 M1916.61 158.95 L1916.61 161.033 L1897.02 161.033 Q1897.3 165.431 1899.66 167.746 Q1902.05 170.038 1906.28 170.038 Q1908.74 170.038 1911.03 169.436 Q1913.34 168.834 1915.61 167.63 L1915.61 171.658 Q1913.32 172.63 1910.91 173.14 Q1908.5 173.649 1906.03 173.649 Q1899.82 173.649 1896.19 170.038 Q1892.58 166.427 1892.58 160.269 Q1892.58 153.904 1896 150.177 Q1899.45 146.427 1905.29 146.427 Q1910.52 146.427 1913.55 149.806 Q1916.61 153.163 1916.61 158.95 M1912.35 157.7 Q1912.3 154.205 1910.38 152.121 Q1908.48 150.038 1905.33 150.038 Q1901.77 150.038 1899.62 152.052 Q1897.49 154.066 1897.16 157.723 L1912.35 157.7 Z" fill="#000000" fill-rule="evenodd" fill-opacity="1" /><path clip-path="url(#clip010)" d="M 0 0 M1918.02 147.052 L1922.53 147.052 L1930.63 168.811 L1938.74 147.052 L1943.25 147.052 L1933.53 172.978 L1927.74 172.978 L1918.02 147.052 Z" fill="#000000" fill-rule="evenodd" fill-opacity="1" /><path clip-path="url(#clip010)" d="M 0 0 M1969.89 158.95 L1969.89 161.033 L1950.31 161.033 Q1950.59 165.431 1952.95 167.746 Q1955.33 170.038 1959.57 170.038 Q1962.02 170.038 1964.31 169.436 Q1966.63 168.834 1968.9 167.63 L1968.9 171.658 Q1966.61 172.63 1964.2 173.14 Q1961.79 173.649 1959.31 173.649 Q1953.11 173.649 1949.48 170.038 Q1945.87 166.427 1945.87 160.269 Q1945.87 153.904 1949.29 150.177 Q1952.74 146.427 1958.57 146.427 Q1963.81 146.427 1966.84 149.806 Q1969.89 153.163 1969.89 158.95 M1965.63 157.7 Q1965.59 154.205 1963.67 152.121 Q1961.77 150.038 1958.62 150.038 Q1955.06 150.038 1952.9 152.052 Q1950.77 154.066 1950.45 157.723 L1965.63 157.7 Z" fill="#000000" fill-rule="evenodd" fill-opacity="1" /><path clip-path="url(#clip010)" d="M 0 0 M1995.91 157.329 L1995.91 172.978 L1991.65 172.978 L1991.65 157.468 Q1991.65 153.788 1990.22 151.959 Q1988.78 150.13 1985.91 150.13 Q1982.46 150.13 1980.47 152.33 Q1978.48 154.529 1978.48 158.325 L1978.48 172.978 L1974.2 172.978 L1974.2 147.052 L1978.48 147.052 L1978.48 151.08 Q1980.01 148.742 1982.07 147.584 Q1984.15 146.427 1986.86 146.427 Q1991.33 146.427 1993.62 149.205 Q1995.91 151.959 1995.91 157.329 Z" fill="#000000" fill-rule="evenodd" fill-opacity="1" /><path clip-path="url(#clip010)" d="M 0 0 M1999.94 162.746 L1999.94 147.052 L2004.2 147.052 L2004.2 162.584 Q2004.2 166.265 2005.63 168.116 Q2007.07 169.945 2009.94 169.945 Q2013.39 169.945 2015.38 167.746 Q2017.39 165.547 2017.39 161.751 L2017.39 147.052 L2021.65 147.052 L2021.65 172.978 L2017.39 172.978 L2017.39 168.996 Q2015.84 171.357 2013.78 172.515 Q2011.74 173.649 2009.04 173.649 Q2004.57 173.649 2002.25 170.871 Q1999.94 168.093 1999.94 162.746 M2010.66 146.427 L2010.66 146.427 Z" fill="#000000" fill-rule="evenodd" fill-opacity="1" /><path clip-path="url(#clip010)" d="M 0 0 M2048.3 158.95 L2048.3 161.033 L2028.71 161.033 Q2028.99 165.431 2031.35 167.746 Q2033.74 170.038 2037.97 170.038 Q2040.43 170.038 2042.72 169.436 Q2045.03 168.834 2047.3 167.63 L2047.3 171.658 Q2045.01 172.63 2042.6 173.14 Q2040.19 173.649 2037.72 173.649 Q2031.51 173.649 2027.88 170.038 Q2024.27 166.427 2024.27 160.269 Q2024.27 153.904 2027.69 150.177 Q2031.14 146.427 2036.98 146.427 Q2042.21 146.427 2045.24 149.806 Q2048.3 153.163 2048.3 158.95 M2044.04 157.7 Q2043.99 154.205 2042.07 152.121 Q2040.17 150.038 2037.02 150.038 Q2033.46 150.038 2031.31 152.052 Q2029.18 154.066 2028.85 157.723 L2044.04 157.7 Z" fill="#000000" fill-rule="evenodd" fill-opacity="1" /><path clip-path="url(#clip010)" d="M 0 0 M2078.06 137.006 Q2074.96 142.33 2073.46 147.538 Q2071.95 152.746 2071.95 158.093 Q2071.95 163.441 2073.46 168.695 Q2074.99 173.927 2078.06 179.228 L2074.36 179.228 Q2070.89 173.788 2069.15 168.533 Q2067.44 163.279 2067.44 158.093 Q2067.44 152.931 2069.15 147.7 Q2070.87 142.468 2074.36 137.006 L2078.06 137.006 Z" fill="#000000" fill-rule="evenodd" fill-opacity="1" /><path clip-path="url(#clip010)" d="M 0 0 M2101.14 160.038 Q2101.14 155.339 2099.2 152.677 Q2097.28 149.992 2093.9 149.992 Q2090.52 149.992 2088.57 152.677 Q2086.65 155.339 2086.65 160.038 Q2086.65 164.737 2088.57 167.422 Q2090.52 170.084 2093.9 170.084 Q2097.28 170.084 2099.2 167.422 Q2101.14 164.737 2101.14 160.038 M2086.65 150.987 Q2087.99 148.672 2090.03 147.561 Q2092.09 146.427 2094.94 146.427 Q2099.66 146.427 2102.6 150.177 Q2105.56 153.927 2105.56 160.038 Q2105.56 166.149 2102.6 169.899 Q2099.66 173.649 2094.94 173.649 Q2092.09 173.649 2090.03 172.538 Q2087.99 171.403 2086.65 169.089 L2086.65 172.978 L2082.37 172.978 L2082.37 136.959 L2086.65 136.959 L2086.65 150.987 Z" fill="#000000" fill-rule="evenodd" fill-opacity="1" /><path clip-path="url(#clip010)" d="M 0 0 M2110.03 147.052 L2114.29 147.052 L2114.29 172.978 L2110.03 172.978 L2110.03 147.052 M2110.03 136.959 L2114.29 136.959 L2114.29 142.353 L2110.03 142.353 L2110.03 136.959 Z" fill="#000000" fill-rule="evenodd" fill-opacity="1" /><path clip-path="url(#clip010)" d="M 0 0 M2118.76 136.959 L2123.02 136.959 L2123.02 172.978 L2118.76 172.978 L2118.76 136.959 Z" fill="#000000" fill-rule="evenodd" fill-opacity="1" /><path clip-path="url(#clip010)" d="M 0 0 M2127.49 136.959 L2131.74 136.959 L2131.74 172.978 L2127.49 172.978 L2127.49 136.959 Z" fill="#000000" fill-rule="evenodd" fill-opacity="1" /><path clip-path="url(#clip010)" d="M 0 0 M2136.21 147.052 L2140.47 147.052 L2140.47 172.978 L2136.21 172.978 L2136.21 147.052 M2136.21 136.959 L2140.47 136.959 L2140.47 142.353 L2136.21 142.353 L2136.21 136.959 Z" fill="#000000" fill-rule="evenodd" fill-opacity="1" /><path clip-path="url(#clip010)" d="M 0 0 M2154.98 150.038 Q2151.56 150.038 2149.57 152.723 Q2147.58 155.385 2147.58 160.038 Q2147.58 164.691 2149.55 167.376 Q2151.54 170.038 2154.98 170.038 Q2158.39 170.038 2160.38 167.353 Q2162.37 164.667 2162.37 160.038 Q2162.37 155.431 2160.38 152.746 Q2158.39 150.038 2154.98 150.038 M2154.98 146.427 Q2160.54 146.427 2163.71 150.038 Q2166.88 153.649 2166.88 160.038 Q2166.88 166.404 2163.71 170.038 Q2160.54 173.649 2154.98 173.649 Q2149.41 173.649 2146.23 170.038 Q2143.09 166.404 2143.09 160.038 Q2143.09 153.649 2146.23 150.038 Q2149.41 146.427 2154.98 146.427 Z" fill="#000000" fill-rule="evenodd" fill-opacity="1" /><path clip-path="url(#clip010)" d="M 0 0 M2192.9 157.329 L2192.9 172.978 L2188.64 172.978 L2188.64 157.468 Q2188.64 153.788 2187.21 151.959 Q2185.77 150.13 2182.9 150.13 Q2179.45 150.13 2177.46 152.33 Q2175.47 154.529 2175.47 158.325 L2175.47 172.978 L2171.19 172.978 L2171.19 147.052 L2175.47 147.052 L2175.47 151.08 Q2177 148.742 2179.06 147.584 Q2181.14 146.427 2183.85 146.427 Q2188.32 146.427 2190.61 149.205 Q2192.9 151.959 2192.9 157.329 Z" fill="#000000" fill-rule="evenodd" fill-opacity="1" /><path clip-path="url(#clip010)" d="M 0 0 M2213.9 147.816 L2213.9 151.843 Q2212.09 150.917 2210.15 150.455 Q2208.2 149.992 2206.12 149.992 Q2202.95 149.992 2201.35 150.964 Q2199.78 151.936 2199.78 153.88 Q2199.78 155.362 2200.91 156.218 Q2202.04 157.052 2205.47 157.816 L2206.93 158.14 Q2211.47 159.112 2213.36 160.894 Q2215.29 162.654 2215.29 165.825 Q2215.29 169.436 2212.42 171.542 Q2209.57 173.649 2204.57 173.649 Q2202.48 173.649 2200.22 173.232 Q2197.97 172.839 2195.47 172.028 L2195.47 167.63 Q2197.83 168.857 2200.12 169.482 Q2202.42 170.084 2204.66 170.084 Q2207.67 170.084 2209.29 169.066 Q2210.91 168.024 2210.91 166.149 Q2210.91 164.413 2209.73 163.487 Q2208.57 162.561 2204.61 161.704 L2203.13 161.357 Q2199.17 160.524 2197.42 158.811 Q2195.66 157.075 2195.66 154.066 Q2195.66 150.408 2198.25 148.418 Q2200.84 146.427 2205.61 146.427 Q2207.97 146.427 2210.05 146.774 Q2212.14 147.121 2213.9 147.816 Z" fill="#000000" fill-rule="evenodd" fill-opacity="1" /><path clip-path="url(#clip010)" d="M 0 0 M2219.08 137.006 L2222.79 137.006 Q2226.26 142.468 2227.97 147.7 Q2229.71 152.931 2229.71 158.093 Q2229.71 163.279 2227.97 168.533 Q2226.26 173.788 2222.79 179.228 L2219.08 179.228 Q2222.16 173.927 2223.67 168.695 Q2225.19 163.441 2225.19 158.093 Q2225.19 152.746 2223.67 147.538 Q2222.16 142.33 2219.08 137.006 Z" fill="#000000" fill-rule="evenodd" fill-opacity="1" /></svg>
