<?xml version="1.0" encoding="utf-8"?>
<svg xmlns="http://www.w3.org/2000/svg" xmlns:xlink="http://www.w3.org/1999/xlink" width="600" height="400" viewBox="0 0 2400 1600">
<defs>
  <clipPath id="clip880">
    <rect x="0" y="0" width="2400" height="1600"/>
  </clipPath>
</defs>
<path clip-path="url(#clip880)" d="
M0 1600 L2400 1600 L2400 0 L0 0  Z
  " fill="#ffffff" fill-rule="evenodd" fill-opacity="1"/>
<defs>
  <clipPath id="clip881">
    <rect x="480" y="0" width="1681" height="1600"/>
  </clipPath>
</defs>
<path clip-path="url(#clip880)" d="
M192.339 1486.45 L2352.76 1486.45 L2352.76 47.2441 L192.339 47.2441  Z
  " fill="#ffffff" fill-rule="evenodd" fill-opacity="1"/>
<defs>
  <clipPath id="clip882">
    <rect x="192" y="47" width="2161" height="1440"/>
  </clipPath>
</defs>
<polyline clip-path="url(#clip882)" style="stroke:#222255; stroke-linecap:butt; stroke-linejoin:round; stroke-width:2; stroke-opacity:0.1; fill:none" points="
  239.985,1486.45 239.985,47.2441 
  "/>
<polyline clip-path="url(#clip882)" style="stroke:#222255; stroke-linecap:butt; stroke-linejoin:round; stroke-width:2; stroke-opacity:0.1; fill:none" points="
  847.375,1486.45 847.375,47.2441 
  "/>
<polyline clip-path="url(#clip882)" style="stroke:#222255; stroke-linecap:butt; stroke-linejoin:round; stroke-width:2; stroke-opacity:0.1; fill:none" points="
  1461.51,1486.45 1461.51,47.2441 
  "/>
<polyline clip-path="url(#clip882)" style="stroke:#222255; stroke-linecap:butt; stroke-linejoin:round; stroke-width:2; stroke-opacity:0.1; fill:none" points="
  2082.4,1486.45 2082.4,47.2441 
  "/>
<polyline clip-path="url(#clip882)" style="stroke:#222255; stroke-linecap:butt; stroke-linejoin:round; stroke-width:2; stroke-opacity:0.05; fill:none" points="
  361.463,1486.45 361.463,47.2441 
  "/>
<polyline clip-path="url(#clip882)" style="stroke:#222255; stroke-linecap:butt; stroke-linejoin:round; stroke-width:2; stroke-opacity:0.05; fill:none" points="
  482.941,1486.45 482.941,47.2441 
  "/>
<polyline clip-path="url(#clip882)" style="stroke:#222255; stroke-linecap:butt; stroke-linejoin:round; stroke-width:2; stroke-opacity:0.05; fill:none" points="
  604.419,1486.45 604.419,47.2441 
  "/>
<polyline clip-path="url(#clip882)" style="stroke:#222255; stroke-linecap:butt; stroke-linejoin:round; stroke-width:2; stroke-opacity:0.05; fill:none" points="
  725.897,1486.45 725.897,47.2441 
  "/>
<polyline clip-path="url(#clip882)" style="stroke:#222255; stroke-linecap:butt; stroke-linejoin:round; stroke-width:2; stroke-opacity:0.05; fill:none" points="
  970.202,1486.45 970.202,47.2441 
  "/>
<polyline clip-path="url(#clip882)" style="stroke:#222255; stroke-linecap:butt; stroke-linejoin:round; stroke-width:2; stroke-opacity:0.05; fill:none" points="
  1093.03,1486.45 1093.03,47.2441 
  "/>
<polyline clip-path="url(#clip882)" style="stroke:#222255; stroke-linecap:butt; stroke-linejoin:round; stroke-width:2; stroke-opacity:0.05; fill:none" points="
  1215.86,1486.45 1215.86,47.2441 
  "/>
<polyline clip-path="url(#clip882)" style="stroke:#222255; stroke-linecap:butt; stroke-linejoin:round; stroke-width:2; stroke-opacity:0.05; fill:none" points="
  1338.69,1486.45 1338.69,47.2441 
  "/>
<polyline clip-path="url(#clip882)" style="stroke:#222255; stroke-linecap:butt; stroke-linejoin:round; stroke-width:2; stroke-opacity:0.05; fill:none" points="
  1585.69,1486.45 1585.69,47.2441 
  "/>
<polyline clip-path="url(#clip882)" style="stroke:#222255; stroke-linecap:butt; stroke-linejoin:round; stroke-width:2; stroke-opacity:0.05; fill:none" points="
  1709.87,1486.45 1709.87,47.2441 
  "/>
<polyline clip-path="url(#clip882)" style="stroke:#222255; stroke-linecap:butt; stroke-linejoin:round; stroke-width:2; stroke-opacity:0.05; fill:none" points="
  1834.05,1486.45 1834.05,47.2441 
  "/>
<polyline clip-path="url(#clip882)" style="stroke:#222255; stroke-linecap:butt; stroke-linejoin:round; stroke-width:2; stroke-opacity:0.05; fill:none" points="
  1958.22,1486.45 1958.22,47.2441 
  "/>
<polyline clip-path="url(#clip882)" style="stroke:#222255; stroke-linecap:butt; stroke-linejoin:round; stroke-width:2; stroke-opacity:0.05; fill:none" points="
  2207.96,1486.45 2207.96,47.2441 
  "/>
<polyline clip-path="url(#clip882)" style="stroke:#222255; stroke-linecap:butt; stroke-linejoin:round; stroke-width:2; stroke-opacity:0.05; fill:none" points="
  2333.51,1486.45 2333.51,47.2441 
  "/>
<polyline clip-path="url(#clip880)" style="stroke:#222255; stroke-linecap:butt; stroke-linejoin:round; stroke-width:4; stroke-opacity:0; fill:none" points="
  239.985,1486.45 239.985,1467.55 
  "/>
<polyline clip-path="url(#clip880)" style="stroke:#222255; stroke-linecap:butt; stroke-linejoin:round; stroke-width:4; stroke-opacity:0; fill:none" points="
  847.375,1486.45 847.375,1467.55 
  "/>
<polyline clip-path="url(#clip880)" style="stroke:#222255; stroke-linecap:butt; stroke-linejoin:round; stroke-width:4; stroke-opacity:0; fill:none" points="
  1461.51,1486.45 1461.51,1467.55 
  "/>
<polyline clip-path="url(#clip880)" style="stroke:#222255; stroke-linecap:butt; stroke-linejoin:round; stroke-width:4; stroke-opacity:0; fill:none" points="
  2082.4,1486.45 2082.4,1467.55 
  "/>
<polyline clip-path="url(#clip880)" style="stroke:#222255; stroke-linecap:butt; stroke-linejoin:round; stroke-width:4; stroke-opacity:0; fill:none" points="
  361.463,1486.45 361.463,1477 
  "/>
<polyline clip-path="url(#clip880)" style="stroke:#222255; stroke-linecap:butt; stroke-linejoin:round; stroke-width:4; stroke-opacity:0; fill:none" points="
  482.941,1486.45 482.941,1477 
  "/>
<polyline clip-path="url(#clip880)" style="stroke:#222255; stroke-linecap:butt; stroke-linejoin:round; stroke-width:4; stroke-opacity:0; fill:none" points="
  604.419,1486.45 604.419,1477 
  "/>
<polyline clip-path="url(#clip880)" style="stroke:#222255; stroke-linecap:butt; stroke-linejoin:round; stroke-width:4; stroke-opacity:0; fill:none" points="
  725.897,1486.45 725.897,1477 
  "/>
<polyline clip-path="url(#clip880)" style="stroke:#222255; stroke-linecap:butt; stroke-linejoin:round; stroke-width:4; stroke-opacity:0; fill:none" points="
  970.202,1486.45 970.202,1477 
  "/>
<polyline clip-path="url(#clip880)" style="stroke:#222255; stroke-linecap:butt; stroke-linejoin:round; stroke-width:4; stroke-opacity:0; fill:none" points="
  1093.03,1486.45 1093.03,1477 
  "/>
<polyline clip-path="url(#clip880)" style="stroke:#222255; stroke-linecap:butt; stroke-linejoin:round; stroke-width:4; stroke-opacity:0; fill:none" points="
  1215.86,1486.45 1215.86,1477 
  "/>
<polyline clip-path="url(#clip880)" style="stroke:#222255; stroke-linecap:butt; stroke-linejoin:round; stroke-width:4; stroke-opacity:0; fill:none" points="
  1338.69,1486.45 1338.69,1477 
  "/>
<polyline clip-path="url(#clip880)" style="stroke:#222255; stroke-linecap:butt; stroke-linejoin:round; stroke-width:4; stroke-opacity:0; fill:none" points="
  1585.69,1486.45 1585.69,1477 
  "/>
<polyline clip-path="url(#clip880)" style="stroke:#222255; stroke-linecap:butt; stroke-linejoin:round; stroke-width:4; stroke-opacity:0; fill:none" points="
  1709.87,1486.45 1709.87,1477 
  "/>
<polyline clip-path="url(#clip880)" style="stroke:#222255; stroke-linecap:butt; stroke-linejoin:round; stroke-width:4; stroke-opacity:0; fill:none" points="
  1834.05,1486.45 1834.05,1477 
  "/>
<polyline clip-path="url(#clip880)" style="stroke:#222255; stroke-linecap:butt; stroke-linejoin:round; stroke-width:4; stroke-opacity:0; fill:none" points="
  1958.22,1486.45 1958.22,1477 
  "/>
<polyline clip-path="url(#clip880)" style="stroke:#222255; stroke-linecap:butt; stroke-linejoin:round; stroke-width:4; stroke-opacity:0; fill:none" points="
  2207.96,1486.45 2207.96,1477 
  "/>
<polyline clip-path="url(#clip880)" style="stroke:#222255; stroke-linecap:butt; stroke-linejoin:round; stroke-width:4; stroke-opacity:0; fill:none" points="
  2333.51,1486.45 2333.51,1477 
  "/>
<path clip-path="url(#clip880)" d="M111.78 1544.91 L128.099 1544.91 L128.099 1548.85 L106.155 1548.85 L106.155 1544.91 Q108.817 1542.16 113.4 1537.53 Q118.007 1532.88 119.187 1531.53 Q121.433 1529.01 122.312 1527.27 Q123.215 1525.51 123.215 1523.82 Q123.215 1521.07 121.27 1519.33 Q119.349 1517.6 116.247 1517.6 Q114.048 1517.6 111.595 1518.36 Q109.164 1519.13 106.386 1520.68 L106.386 1515.95 Q109.21 1514.82 111.664 1514.24 Q114.118 1513.66 116.155 1513.66 Q121.525 1513.66 124.72 1516.35 Q127.914 1519.03 127.914 1523.52 Q127.914 1525.65 127.104 1527.57 Q126.317 1529.47 124.21 1532.07 Q123.632 1532.74 120.53 1535.95 Q117.428 1539.15 111.78 1544.91 Z" fill="#000000" fill-rule="evenodd" fill-opacity="1" /><path clip-path="url(#clip880)" d="M147.914 1517.37 Q144.303 1517.37 142.474 1520.93 Q140.669 1524.47 140.669 1531.6 Q140.669 1538.71 142.474 1542.27 Q144.303 1545.82 147.914 1545.82 Q151.548 1545.82 153.354 1542.27 Q155.182 1538.71 155.182 1531.6 Q155.182 1524.47 153.354 1520.93 Q151.548 1517.37 147.914 1517.37 M147.914 1513.66 Q153.724 1513.66 156.78 1518.27 Q159.858 1522.85 159.858 1531.6 Q159.858 1540.33 156.78 1544.94 Q153.724 1549.52 147.914 1549.52 Q142.104 1549.52 139.025 1544.94 Q135.969 1540.33 135.969 1531.6 Q135.969 1522.85 139.025 1518.27 Q142.104 1513.66 147.914 1513.66 Z" fill="#000000" fill-rule="evenodd" fill-opacity="1" /><path clip-path="url(#clip880)" d="M172.104 1544.91 L188.423 1544.91 L188.423 1548.85 L166.479 1548.85 L166.479 1544.91 Q169.141 1542.16 173.724 1537.53 Q178.33 1532.88 179.511 1531.53 Q181.756 1529.01 182.636 1527.27 Q183.539 1525.51 183.539 1523.82 Q183.539 1521.07 181.594 1519.33 Q179.673 1517.6 176.571 1517.6 Q174.372 1517.6 171.918 1518.36 Q169.488 1519.13 166.71 1520.68 L166.71 1515.95 Q169.534 1514.82 171.988 1514.24 Q174.441 1513.66 176.479 1513.66 Q181.849 1513.66 185.043 1516.35 Q188.238 1519.03 188.238 1523.52 Q188.238 1525.65 187.428 1527.57 Q186.64 1529.47 184.534 1532.07 Q183.955 1532.74 180.853 1535.95 Q177.752 1539.15 172.104 1544.91 Z" fill="#000000" fill-rule="evenodd" fill-opacity="1" /><path clip-path="url(#clip880)" d="M202.265 1544.91 L218.585 1544.91 L218.585 1548.85 L196.64 1548.85 L196.64 1544.91 Q199.302 1542.16 203.886 1537.53 Q208.492 1532.88 209.673 1531.53 Q211.918 1529.01 212.798 1527.27 Q213.701 1525.51 213.701 1523.82 Q213.701 1521.07 211.756 1519.33 Q209.835 1517.6 206.733 1517.6 Q204.534 1517.6 202.08 1518.36 Q199.65 1519.13 196.872 1520.68 L196.872 1515.95 Q199.696 1514.82 202.15 1514.24 Q204.603 1513.66 206.64 1513.66 Q212.011 1513.66 215.205 1516.35 Q218.4 1519.03 218.4 1523.52 Q218.4 1525.65 217.589 1527.57 Q216.802 1529.47 214.696 1532.07 Q214.117 1532.74 211.015 1535.95 Q207.914 1539.15 202.265 1544.91 Z" fill="#000000" fill-rule="evenodd" fill-opacity="1" /><path clip-path="url(#clip880)" d="M225.645 1533.96 L238.122 1533.96 L238.122 1537.76 L225.645 1537.76 L225.645 1533.96 Z" fill="#000000" fill-rule="evenodd" fill-opacity="1" /><path clip-path="url(#clip880)" d="M255.506 1517.37 Q251.895 1517.37 250.066 1520.93 Q248.261 1524.47 248.261 1531.6 Q248.261 1538.71 250.066 1542.27 Q251.895 1545.82 255.506 1545.82 Q259.14 1545.82 260.946 1542.27 Q262.774 1538.71 262.774 1531.6 Q262.774 1524.47 260.946 1520.93 Q259.14 1517.37 255.506 1517.37 M255.506 1513.66 Q261.316 1513.66 264.372 1518.27 Q267.45 1522.85 267.45 1531.6 Q267.45 1540.33 264.372 1544.94 Q261.316 1549.52 255.506 1549.52 Q249.696 1549.52 246.617 1544.94 Q243.561 1540.33 243.561 1531.6 Q243.561 1522.85 246.617 1518.27 Q249.696 1513.66 255.506 1513.66 Z" fill="#000000" fill-rule="evenodd" fill-opacity="1" /><path clip-path="url(#clip880)" d="M276.478 1544.91 L284.117 1544.91 L284.117 1518.55 L275.807 1520.21 L275.807 1515.95 L284.071 1514.29 L288.746 1514.29 L288.746 1544.91 L296.385 1544.91 L296.385 1548.85 L276.478 1548.85 L276.478 1544.91 Z" fill="#000000" fill-rule="evenodd" fill-opacity="1" /><path clip-path="url(#clip880)" d="M303.075 1533.96 L315.552 1533.96 L315.552 1537.76 L303.075 1537.76 L303.075 1533.96 Z" fill="#000000" fill-rule="evenodd" fill-opacity="1" /><path clip-path="url(#clip880)" d="M332.936 1517.37 Q329.325 1517.37 327.496 1520.93 Q325.691 1524.47 325.691 1531.6 Q325.691 1538.71 327.496 1542.27 Q329.325 1545.82 332.936 1545.82 Q336.57 1545.82 338.376 1542.27 Q340.204 1538.71 340.204 1531.6 Q340.204 1524.47 338.376 1520.93 Q336.57 1517.37 332.936 1517.37 M332.936 1513.66 Q338.746 1513.66 341.802 1518.27 Q344.88 1522.85 344.88 1531.6 Q344.88 1540.33 341.802 1544.94 Q338.746 1549.52 332.936 1549.52 Q327.126 1549.52 324.047 1544.94 Q320.992 1540.33 320.992 1531.6 Q320.992 1522.85 324.047 1518.27 Q327.126 1513.66 332.936 1513.66 Z" fill="#000000" fill-rule="evenodd" fill-opacity="1" /><path clip-path="url(#clip880)" d="M353.908 1544.91 L361.547 1544.91 L361.547 1518.55 L353.237 1520.21 L353.237 1515.95 L361.501 1514.29 L366.177 1514.29 L366.177 1544.91 L373.815 1544.91 L373.815 1548.85 L353.908 1548.85 L353.908 1544.91 Z" fill="#000000" fill-rule="evenodd" fill-opacity="1" /><path clip-path="url(#clip880)" d="M719.169 1544.91 L735.489 1544.91 L735.489 1548.85 L713.544 1548.85 L713.544 1544.91 Q716.206 1542.16 720.79 1537.53 Q725.396 1532.88 726.577 1531.53 Q728.822 1529.01 729.702 1527.27 Q730.604 1525.51 730.604 1523.82 Q730.604 1521.07 728.66 1519.33 Q726.739 1517.6 723.637 1517.6 Q721.438 1517.6 718.984 1518.36 Q716.554 1519.13 713.776 1520.68 L713.776 1515.95 Q716.6 1514.82 719.054 1514.24 Q721.507 1513.66 723.544 1513.66 Q728.915 1513.66 732.109 1516.35 Q735.304 1519.03 735.304 1523.52 Q735.304 1525.65 734.493 1527.57 Q733.706 1529.47 731.6 1532.07 Q731.021 1532.74 727.919 1535.95 Q724.817 1539.15 719.169 1544.91 Z" fill="#000000" fill-rule="evenodd" fill-opacity="1" /><path clip-path="url(#clip880)" d="M755.303 1517.37 Q751.692 1517.37 749.864 1520.93 Q748.058 1524.47 748.058 1531.6 Q748.058 1538.71 749.864 1542.27 Q751.692 1545.82 755.303 1545.82 Q758.938 1545.82 760.743 1542.27 Q762.572 1538.71 762.572 1531.6 Q762.572 1524.47 760.743 1520.93 Q758.938 1517.37 755.303 1517.37 M755.303 1513.66 Q761.114 1513.66 764.169 1518.27 Q767.248 1522.85 767.248 1531.6 Q767.248 1540.33 764.169 1544.94 Q761.114 1549.52 755.303 1549.52 Q749.493 1549.52 746.415 1544.94 Q743.359 1540.33 743.359 1531.6 Q743.359 1522.85 746.415 1518.27 Q749.493 1513.66 755.303 1513.66 Z" fill="#000000" fill-rule="evenodd" fill-opacity="1" /><path clip-path="url(#clip880)" d="M779.493 1544.91 L795.812 1544.91 L795.812 1548.85 L773.868 1548.85 L773.868 1544.91 Q776.53 1542.16 781.113 1537.53 Q785.72 1532.88 786.9 1531.53 Q789.146 1529.01 790.025 1527.27 Q790.928 1525.51 790.928 1523.82 Q790.928 1521.07 788.984 1519.33 Q787.062 1517.6 783.961 1517.6 Q781.762 1517.6 779.308 1518.36 Q776.877 1519.13 774.1 1520.68 L774.1 1515.95 Q776.924 1514.82 779.377 1514.24 Q781.831 1513.66 783.868 1513.66 Q789.238 1513.66 792.433 1516.35 Q795.627 1519.03 795.627 1523.52 Q795.627 1525.65 794.817 1527.57 Q794.03 1529.47 791.924 1532.07 Q791.345 1532.74 788.243 1535.95 Q785.141 1539.15 779.493 1544.91 Z" fill="#000000" fill-rule="evenodd" fill-opacity="1" /><path clip-path="url(#clip880)" d="M809.655 1544.91 L825.974 1544.91 L825.974 1548.85 L804.03 1548.85 L804.03 1544.91 Q806.692 1542.16 811.275 1537.53 Q815.882 1532.88 817.062 1531.53 Q819.308 1529.01 820.187 1527.27 Q821.09 1525.51 821.09 1523.82 Q821.09 1521.07 819.146 1519.33 Q817.224 1517.6 814.123 1517.6 Q811.923 1517.6 809.47 1518.36 Q807.039 1519.13 804.261 1520.68 L804.261 1515.95 Q807.086 1514.82 809.539 1514.24 Q811.993 1513.66 814.03 1513.66 Q819.4 1513.66 822.595 1516.35 Q825.789 1519.03 825.789 1523.52 Q825.789 1525.65 824.979 1527.57 Q824.192 1529.47 822.085 1532.07 Q821.507 1532.74 818.405 1535.95 Q815.303 1539.15 809.655 1544.91 Z" fill="#000000" fill-rule="evenodd" fill-opacity="1" /><path clip-path="url(#clip880)" d="M833.034 1533.96 L845.511 1533.96 L845.511 1537.76 L833.034 1537.76 L833.034 1533.96 Z" fill="#000000" fill-rule="evenodd" fill-opacity="1" /><path clip-path="url(#clip880)" d="M862.895 1517.37 Q859.284 1517.37 857.456 1520.93 Q855.65 1524.47 855.65 1531.6 Q855.65 1538.71 857.456 1542.27 Q859.284 1545.82 862.895 1545.82 Q866.53 1545.82 868.335 1542.27 Q870.164 1538.71 870.164 1531.6 Q870.164 1524.47 868.335 1520.93 Q866.53 1517.37 862.895 1517.37 M862.895 1513.66 Q868.706 1513.66 871.761 1518.27 Q874.84 1522.85 874.84 1531.6 Q874.84 1540.33 871.761 1544.94 Q868.706 1549.52 862.895 1549.52 Q857.085 1549.52 854.007 1544.94 Q850.951 1540.33 850.951 1531.6 Q850.951 1522.85 854.007 1518.27 Q857.085 1513.66 862.895 1513.66 Z" fill="#000000" fill-rule="evenodd" fill-opacity="1" /><path clip-path="url(#clip880)" d="M895.904 1518.36 L884.099 1536.81 L895.904 1536.81 L895.904 1518.36 M894.678 1514.29 L900.557 1514.29 L900.557 1536.81 L905.488 1536.81 L905.488 1540.7 L900.557 1540.7 L900.557 1548.85 L895.904 1548.85 L895.904 1540.7 L880.303 1540.7 L880.303 1536.19 L894.678 1514.29 Z" fill="#000000" fill-rule="evenodd" fill-opacity="1" /><path clip-path="url(#clip880)" d="M910.465 1533.96 L922.941 1533.96 L922.941 1537.76 L910.465 1537.76 L910.465 1533.96 Z" fill="#000000" fill-rule="evenodd" fill-opacity="1" /><path clip-path="url(#clip880)" d="M940.326 1517.37 Q936.714 1517.37 934.886 1520.93 Q933.08 1524.47 933.08 1531.6 Q933.08 1538.71 934.886 1542.27 Q936.714 1545.82 940.326 1545.82 Q943.96 1545.82 945.765 1542.27 Q947.594 1538.71 947.594 1531.6 Q947.594 1524.47 945.765 1520.93 Q943.96 1517.37 940.326 1517.37 M940.326 1513.66 Q946.136 1513.66 949.191 1518.27 Q952.27 1522.85 952.27 1531.6 Q952.27 1540.33 949.191 1544.94 Q946.136 1549.52 940.326 1549.52 Q934.515 1549.52 931.437 1544.94 Q928.381 1540.33 928.381 1531.6 Q928.381 1522.85 931.437 1518.27 Q934.515 1513.66 940.326 1513.66 Z" fill="#000000" fill-rule="evenodd" fill-opacity="1" /><path clip-path="url(#clip880)" d="M961.298 1544.91 L968.937 1544.91 L968.937 1518.55 L960.626 1520.21 L960.626 1515.95 L968.89 1514.29 L973.566 1514.29 L973.566 1544.91 L981.205 1544.91 L981.205 1548.85 L961.298 1548.85 L961.298 1544.91 Z" fill="#000000" fill-rule="evenodd" fill-opacity="1" /><path clip-path="url(#clip880)" d="M1333.31 1544.91 L1349.63 1544.91 L1349.63 1548.85 L1327.68 1548.85 L1327.68 1544.91 Q1330.34 1542.16 1334.93 1537.53 Q1339.53 1532.88 1340.72 1531.53 Q1342.96 1529.01 1343.84 1527.27 Q1344.74 1525.51 1344.74 1523.82 Q1344.74 1521.07 1342.8 1519.33 Q1340.88 1517.6 1337.78 1517.6 Q1335.58 1517.6 1333.12 1518.36 Q1330.69 1519.13 1327.91 1520.68 L1327.91 1515.95 Q1330.74 1514.82 1333.19 1514.24 Q1335.65 1513.66 1337.68 1513.66 Q1343.05 1513.66 1346.25 1516.35 Q1349.44 1519.03 1349.44 1523.52 Q1349.44 1525.65 1348.63 1527.57 Q1347.84 1529.47 1345.74 1532.07 Q1345.16 1532.74 1342.06 1535.95 Q1338.96 1539.15 1333.31 1544.91 Z" fill="#000000" fill-rule="evenodd" fill-opacity="1" /><path clip-path="url(#clip880)" d="M1369.44 1517.37 Q1365.83 1517.37 1364 1520.93 Q1362.2 1524.47 1362.2 1531.6 Q1362.2 1538.71 1364 1542.27 Q1365.83 1545.82 1369.44 1545.82 Q1373.08 1545.82 1374.88 1542.27 Q1376.71 1538.71 1376.71 1531.6 Q1376.71 1524.47 1374.88 1520.93 Q1373.08 1517.37 1369.44 1517.37 M1369.44 1513.66 Q1375.25 1513.66 1378.31 1518.27 Q1381.39 1522.85 1381.39 1531.6 Q1381.39 1540.33 1378.31 1544.94 Q1375.25 1549.52 1369.44 1549.52 Q1363.63 1549.52 1360.55 1544.94 Q1357.5 1540.33 1357.5 1531.6 Q1357.5 1522.85 1360.55 1518.27 Q1363.63 1513.66 1369.44 1513.66 Z" fill="#000000" fill-rule="evenodd" fill-opacity="1" /><path clip-path="url(#clip880)" d="M1393.63 1544.91 L1409.95 1544.91 L1409.95 1548.85 L1388.01 1548.85 L1388.01 1544.91 Q1390.67 1542.16 1395.25 1537.53 Q1399.86 1532.88 1401.04 1531.53 Q1403.28 1529.01 1404.16 1527.27 Q1405.07 1525.51 1405.07 1523.82 Q1405.07 1521.07 1403.12 1519.33 Q1401.2 1517.6 1398.1 1517.6 Q1395.9 1517.6 1393.45 1518.36 Q1391.02 1519.13 1388.24 1520.68 L1388.24 1515.95 Q1391.06 1514.82 1393.52 1514.24 Q1395.97 1513.66 1398.01 1513.66 Q1403.38 1513.66 1406.57 1516.35 Q1409.77 1519.03 1409.77 1523.52 Q1409.77 1525.65 1408.96 1527.57 Q1408.17 1529.47 1406.06 1532.07 Q1405.48 1532.74 1402.38 1535.95 Q1399.28 1539.15 1393.63 1544.91 Z" fill="#000000" fill-rule="evenodd" fill-opacity="1" /><path clip-path="url(#clip880)" d="M1423.79 1544.91 L1440.11 1544.91 L1440.11 1548.85 L1418.17 1548.85 L1418.17 1544.91 Q1420.83 1542.16 1425.41 1537.53 Q1430.02 1532.88 1431.2 1531.53 Q1433.45 1529.01 1434.33 1527.27 Q1435.23 1525.51 1435.23 1523.82 Q1435.23 1521.07 1433.28 1519.33 Q1431.36 1517.6 1428.26 1517.6 Q1426.06 1517.6 1423.61 1518.36 Q1421.18 1519.13 1418.4 1520.68 L1418.4 1515.95 Q1421.22 1514.82 1423.68 1514.24 Q1426.13 1513.66 1428.17 1513.66 Q1433.54 1513.66 1436.73 1516.35 Q1439.93 1519.03 1439.93 1523.52 Q1439.93 1525.65 1439.12 1527.57 Q1438.33 1529.47 1436.22 1532.07 Q1435.65 1532.74 1432.54 1535.95 Q1429.44 1539.15 1423.79 1544.91 Z" fill="#000000" fill-rule="evenodd" fill-opacity="1" /><path clip-path="url(#clip880)" d="M1447.17 1533.96 L1459.65 1533.96 L1459.65 1537.76 L1447.17 1537.76 L1447.17 1533.96 Z" fill="#000000" fill-rule="evenodd" fill-opacity="1" /><path clip-path="url(#clip880)" d="M1477.03 1517.37 Q1473.42 1517.37 1471.59 1520.93 Q1469.79 1524.47 1469.79 1531.6 Q1469.79 1538.71 1471.59 1542.27 Q1473.42 1545.82 1477.03 1545.82 Q1480.67 1545.82 1482.47 1542.27 Q1484.3 1538.71 1484.3 1531.6 Q1484.3 1524.47 1482.47 1520.93 Q1480.67 1517.37 1477.03 1517.37 M1477.03 1513.66 Q1482.84 1513.66 1485.9 1518.27 Q1488.98 1522.85 1488.98 1531.6 Q1488.98 1540.33 1485.9 1544.94 Q1482.84 1549.52 1477.03 1549.52 Q1471.22 1549.52 1468.14 1544.94 Q1465.09 1540.33 1465.09 1531.6 Q1465.09 1522.85 1468.14 1518.27 Q1471.22 1513.66 1477.03 1513.66 Z" fill="#000000" fill-rule="evenodd" fill-opacity="1" /><path clip-path="url(#clip880)" d="M1496.02 1514.29 L1518.24 1514.29 L1518.24 1516.28 L1505.69 1548.85 L1500.81 1548.85 L1512.61 1518.22 L1496.02 1518.22 L1496.02 1514.29 Z" fill="#000000" fill-rule="evenodd" fill-opacity="1" /><path clip-path="url(#clip880)" d="M1524.6 1533.96 L1537.08 1533.96 L1537.08 1537.76 L1524.6 1537.76 L1524.6 1533.96 Z" fill="#000000" fill-rule="evenodd" fill-opacity="1" /><path clip-path="url(#clip880)" d="M1554.46 1517.37 Q1550.85 1517.37 1549.02 1520.93 Q1547.22 1524.47 1547.22 1531.6 Q1547.22 1538.71 1549.02 1542.27 Q1550.85 1545.82 1554.46 1545.82 Q1558.1 1545.82 1559.9 1542.27 Q1561.73 1538.71 1561.73 1531.6 Q1561.73 1524.47 1559.9 1520.93 Q1558.1 1517.37 1554.46 1517.37 M1554.46 1513.66 Q1560.27 1513.66 1563.33 1518.27 Q1566.41 1522.85 1566.41 1531.6 Q1566.41 1540.33 1563.33 1544.94 Q1560.27 1549.52 1554.46 1549.52 Q1548.65 1549.52 1545.58 1544.94 Q1542.52 1540.33 1542.52 1531.6 Q1542.52 1522.85 1545.58 1518.27 Q1548.65 1513.66 1554.46 1513.66 Z" fill="#000000" fill-rule="evenodd" fill-opacity="1" /><path clip-path="url(#clip880)" d="M1575.44 1544.91 L1583.07 1544.91 L1583.07 1518.55 L1574.76 1520.21 L1574.76 1515.95 L1583.03 1514.29 L1587.7 1514.29 L1587.7 1544.91 L1595.34 1544.91 L1595.34 1548.85 L1575.44 1548.85 L1575.44 1544.91 Z" fill="#000000" fill-rule="evenodd" fill-opacity="1" /><path clip-path="url(#clip880)" d="M1954.19 1544.91 L1970.51 1544.91 L1970.51 1548.85 L1948.57 1548.85 L1948.57 1544.91 Q1951.23 1542.16 1955.82 1537.53 Q1960.42 1532.88 1961.6 1531.53 Q1963.85 1529.01 1964.73 1527.27 Q1965.63 1525.51 1965.63 1523.82 Q1965.63 1521.07 1963.69 1519.33 Q1961.76 1517.6 1958.66 1517.6 Q1956.46 1517.6 1954.01 1518.36 Q1951.58 1519.13 1948.8 1520.68 L1948.8 1515.95 Q1951.63 1514.82 1954.08 1514.24 Q1956.53 1513.66 1958.57 1513.66 Q1963.94 1513.66 1967.13 1516.35 Q1970.33 1519.03 1970.33 1523.52 Q1970.33 1525.65 1969.52 1527.57 Q1968.73 1529.47 1966.63 1532.07 Q1966.05 1532.74 1962.94 1535.95 Q1959.84 1539.15 1954.19 1544.91 Z" fill="#000000" fill-rule="evenodd" fill-opacity="1" /><path clip-path="url(#clip880)" d="M1990.33 1517.37 Q1986.72 1517.37 1984.89 1520.93 Q1983.08 1524.47 1983.08 1531.6 Q1983.08 1538.71 1984.89 1542.27 Q1986.72 1545.82 1990.33 1545.82 Q1993.96 1545.82 1995.77 1542.27 Q1997.6 1538.71 1997.6 1531.6 Q1997.6 1524.47 1995.77 1520.93 Q1993.96 1517.37 1990.33 1517.37 M1990.33 1513.66 Q1996.14 1513.66 1999.19 1518.27 Q2002.27 1522.85 2002.27 1531.6 Q2002.27 1540.33 1999.19 1544.94 Q1996.14 1549.52 1990.33 1549.52 Q1984.52 1549.52 1981.44 1544.94 Q1978.38 1540.33 1978.38 1531.6 Q1978.38 1522.85 1981.44 1518.27 Q1984.52 1513.66 1990.33 1513.66 Z" fill="#000000" fill-rule="evenodd" fill-opacity="1" /><path clip-path="url(#clip880)" d="M2014.52 1544.91 L2030.84 1544.91 L2030.84 1548.85 L2008.89 1548.85 L2008.89 1544.91 Q2011.56 1542.16 2016.14 1537.53 Q2020.75 1532.88 2021.93 1531.53 Q2024.17 1529.01 2025.05 1527.27 Q2025.95 1525.51 2025.95 1523.82 Q2025.95 1521.07 2024.01 1519.33 Q2022.09 1517.6 2018.99 1517.6 Q2016.79 1517.6 2014.33 1518.36 Q2011.9 1519.13 2009.13 1520.68 L2009.13 1515.95 Q2011.95 1514.82 2014.4 1514.24 Q2016.86 1513.66 2018.89 1513.66 Q2024.26 1513.66 2027.46 1516.35 Q2030.65 1519.03 2030.65 1523.52 Q2030.65 1525.65 2029.84 1527.57 Q2029.06 1529.47 2026.95 1532.07 Q2026.37 1532.74 2023.27 1535.95 Q2020.17 1539.15 2014.52 1544.91 Z" fill="#000000" fill-rule="evenodd" fill-opacity="1" /><path clip-path="url(#clip880)" d="M2044.68 1544.91 L2061 1544.91 L2061 1548.85 L2039.06 1548.85 L2039.06 1544.91 Q2041.72 1542.16 2046.3 1537.53 Q2050.91 1532.88 2052.09 1531.53 Q2054.33 1529.01 2055.21 1527.27 Q2056.12 1525.51 2056.12 1523.82 Q2056.12 1521.07 2054.17 1519.33 Q2052.25 1517.6 2049.15 1517.6 Q2046.95 1517.6 2044.5 1518.36 Q2042.06 1519.13 2039.29 1520.68 L2039.29 1515.95 Q2042.11 1514.82 2044.56 1514.24 Q2047.02 1513.66 2049.06 1513.66 Q2054.43 1513.66 2057.62 1516.35 Q2060.81 1519.03 2060.81 1523.52 Q2060.81 1525.65 2060 1527.57 Q2059.22 1529.47 2057.11 1532.07 Q2056.53 1532.74 2053.43 1535.95 Q2050.33 1539.15 2044.68 1544.91 Z" fill="#000000" fill-rule="evenodd" fill-opacity="1" /><path clip-path="url(#clip880)" d="M2068.06 1533.96 L2080.54 1533.96 L2080.54 1537.76 L2068.06 1537.76 L2068.06 1533.96 Z" fill="#000000" fill-rule="evenodd" fill-opacity="1" /><path clip-path="url(#clip880)" d="M2088.73 1544.91 L2096.37 1544.91 L2096.37 1518.55 L2088.06 1520.21 L2088.06 1515.95 L2096.32 1514.29 L2101 1514.29 L2101 1544.91 L2108.64 1544.91 L2108.64 1548.85 L2088.73 1548.85 L2088.73 1544.91 Z" fill="#000000" fill-rule="evenodd" fill-opacity="1" /><path clip-path="url(#clip880)" d="M2128.08 1517.37 Q2124.47 1517.37 2122.64 1520.93 Q2120.84 1524.47 2120.84 1531.6 Q2120.84 1538.71 2122.64 1542.27 Q2124.47 1545.82 2128.08 1545.82 Q2131.72 1545.82 2133.52 1542.27 Q2135.35 1538.71 2135.35 1531.6 Q2135.35 1524.47 2133.52 1520.93 Q2131.72 1517.37 2128.08 1517.37 M2128.08 1513.66 Q2133.89 1513.66 2136.95 1518.27 Q2140.03 1522.85 2140.03 1531.6 Q2140.03 1540.33 2136.95 1544.94 Q2133.89 1549.52 2128.08 1549.52 Q2122.27 1549.52 2119.19 1544.94 Q2116.14 1540.33 2116.14 1531.6 Q2116.14 1522.85 2119.19 1518.27 Q2122.27 1513.66 2128.08 1513.66 Z" fill="#000000" fill-rule="evenodd" fill-opacity="1" /><path clip-path="url(#clip880)" d="M2145.49 1533.96 L2157.97 1533.96 L2157.97 1537.76 L2145.49 1537.76 L2145.49 1533.96 Z" fill="#000000" fill-rule="evenodd" fill-opacity="1" /><path clip-path="url(#clip880)" d="M2175.35 1517.37 Q2171.74 1517.37 2169.91 1520.93 Q2168.11 1524.47 2168.11 1531.6 Q2168.11 1538.71 2169.91 1542.27 Q2171.74 1545.82 2175.35 1545.82 Q2178.99 1545.82 2180.79 1542.27 Q2182.62 1538.71 2182.62 1531.6 Q2182.62 1524.47 2180.79 1520.93 Q2178.99 1517.37 2175.35 1517.37 M2175.35 1513.66 Q2181.16 1513.66 2184.22 1518.27 Q2187.3 1522.85 2187.3 1531.6 Q2187.3 1540.33 2184.22 1544.94 Q2181.16 1549.52 2175.35 1549.52 Q2169.54 1549.52 2166.46 1544.94 Q2163.41 1540.33 2163.41 1531.6 Q2163.41 1522.85 2166.46 1518.27 Q2169.54 1513.66 2175.35 1513.66 Z" fill="#000000" fill-rule="evenodd" fill-opacity="1" /><path clip-path="url(#clip880)" d="M2196.32 1544.91 L2203.96 1544.91 L2203.96 1518.55 L2195.65 1520.21 L2195.65 1515.95 L2203.92 1514.29 L2208.59 1514.29 L2208.59 1544.91 L2216.23 1544.91 L2216.23 1548.85 L2196.32 1548.85 L2196.32 1544.91 Z" fill="#000000" fill-rule="evenodd" fill-opacity="1" /><polyline clip-path="url(#clip882)" style="stroke:#222255; stroke-linecap:butt; stroke-linejoin:round; stroke-width:2; stroke-opacity:0.1; fill:none" points="
  192.339,1294.28 2352.76,1294.28 
  "/>
<polyline clip-path="url(#clip882)" style="stroke:#222255; stroke-linecap:butt; stroke-linejoin:round; stroke-width:2; stroke-opacity:0.1; fill:none" points="
  192.339,945.05 2352.76,945.05 
  "/>
<polyline clip-path="url(#clip882)" style="stroke:#222255; stroke-linecap:butt; stroke-linejoin:round; stroke-width:2; stroke-opacity:0.1; fill:none" points="
  192.339,595.823 2352.76,595.823 
  "/>
<polyline clip-path="url(#clip882)" style="stroke:#222255; stroke-linecap:butt; stroke-linejoin:round; stroke-width:2; stroke-opacity:0.1; fill:none" points="
  192.339,246.596 2352.76,246.596 
  "/>
<polyline clip-path="url(#clip882)" style="stroke:#222255; stroke-linecap:butt; stroke-linejoin:round; stroke-width:2; stroke-opacity:0.05; fill:none" points="
  192.339,1433.97 2352.76,1433.97 
  "/>
<polyline clip-path="url(#clip882)" style="stroke:#222255; stroke-linecap:butt; stroke-linejoin:round; stroke-width:2; stroke-opacity:0.05; fill:none" points="
  192.339,1364.12 2352.76,1364.12 
  "/>
<polyline clip-path="url(#clip882)" style="stroke:#222255; stroke-linecap:butt; stroke-linejoin:round; stroke-width:2; stroke-opacity:0.05; fill:none" points="
  192.339,1224.43 2352.76,1224.43 
  "/>
<polyline clip-path="url(#clip882)" style="stroke:#222255; stroke-linecap:butt; stroke-linejoin:round; stroke-width:2; stroke-opacity:0.05; fill:none" points="
  192.339,1154.59 2352.76,1154.59 
  "/>
<polyline clip-path="url(#clip882)" style="stroke:#222255; stroke-linecap:butt; stroke-linejoin:round; stroke-width:2; stroke-opacity:0.05; fill:none" points="
  192.339,1084.74 2352.76,1084.74 
  "/>
<polyline clip-path="url(#clip882)" style="stroke:#222255; stroke-linecap:butt; stroke-linejoin:round; stroke-width:2; stroke-opacity:0.05; fill:none" points="
  192.339,1014.9 2352.76,1014.9 
  "/>
<polyline clip-path="url(#clip882)" style="stroke:#222255; stroke-linecap:butt; stroke-linejoin:round; stroke-width:2; stroke-opacity:0.05; fill:none" points="
  192.339,875.205 2352.76,875.205 
  "/>
<polyline clip-path="url(#clip882)" style="stroke:#222255; stroke-linecap:butt; stroke-linejoin:round; stroke-width:2; stroke-opacity:0.05; fill:none" points="
  192.339,805.359 2352.76,805.359 
  "/>
<polyline clip-path="url(#clip882)" style="stroke:#222255; stroke-linecap:butt; stroke-linejoin:round; stroke-width:2; stroke-opacity:0.05; fill:none" points="
  192.339,735.514 2352.76,735.514 
  "/>
<polyline clip-path="url(#clip882)" style="stroke:#222255; stroke-linecap:butt; stroke-linejoin:round; stroke-width:2; stroke-opacity:0.05; fill:none" points="
  192.339,665.668 2352.76,665.668 
  "/>
<polyline clip-path="url(#clip882)" style="stroke:#222255; stroke-linecap:butt; stroke-linejoin:round; stroke-width:2; stroke-opacity:0.05; fill:none" points="
  192.339,525.978 2352.76,525.978 
  "/>
<polyline clip-path="url(#clip882)" style="stroke:#222255; stroke-linecap:butt; stroke-linejoin:round; stroke-width:2; stroke-opacity:0.05; fill:none" points="
  192.339,456.132 2352.76,456.132 
  "/>
<polyline clip-path="url(#clip882)" style="stroke:#222255; stroke-linecap:butt; stroke-linejoin:round; stroke-width:2; stroke-opacity:0.05; fill:none" points="
  192.339,386.287 2352.76,386.287 
  "/>
<polyline clip-path="url(#clip882)" style="stroke:#222255; stroke-linecap:butt; stroke-linejoin:round; stroke-width:2; stroke-opacity:0.05; fill:none" points="
  192.339,316.441 2352.76,316.441 
  "/>
<polyline clip-path="url(#clip882)" style="stroke:#222255; stroke-linecap:butt; stroke-linejoin:round; stroke-width:2; stroke-opacity:0.05; fill:none" points="
  192.339,176.751 2352.76,176.751 
  "/>
<polyline clip-path="url(#clip882)" style="stroke:#222255; stroke-linecap:butt; stroke-linejoin:round; stroke-width:2; stroke-opacity:0.05; fill:none" points="
  192.339,106.905 2352.76,106.905 
  "/>
<polyline clip-path="url(#clip880)" style="stroke:#222255; stroke-linecap:butt; stroke-linejoin:round; stroke-width:4; stroke-opacity:0; fill:none" points="
  192.339,1294.28 211.236,1294.28 
  "/>
<polyline clip-path="url(#clip880)" style="stroke:#222255; stroke-linecap:butt; stroke-linejoin:round; stroke-width:4; stroke-opacity:0; fill:none" points="
  192.339,945.05 211.236,945.05 
  "/>
<polyline clip-path="url(#clip880)" style="stroke:#222255; stroke-linecap:butt; stroke-linejoin:round; stroke-width:4; stroke-opacity:0; fill:none" points="
  192.339,595.823 211.236,595.823 
  "/>
<polyline clip-path="url(#clip880)" style="stroke:#222255; stroke-linecap:butt; stroke-linejoin:round; stroke-width:4; stroke-opacity:0; fill:none" points="
  192.339,246.596 211.236,246.596 
  "/>
<polyline clip-path="url(#clip880)" style="stroke:#222255; stroke-linecap:butt; stroke-linejoin:round; stroke-width:4; stroke-opacity:0; fill:none" points="
  192.339,1433.97 201.788,1433.97 
  "/>
<polyline clip-path="url(#clip880)" style="stroke:#222255; stroke-linecap:butt; stroke-linejoin:round; stroke-width:4; stroke-opacity:0; fill:none" points="
  192.339,1364.12 201.788,1364.12 
  "/>
<polyline clip-path="url(#clip880)" style="stroke:#222255; stroke-linecap:butt; stroke-linejoin:round; stroke-width:4; stroke-opacity:0; fill:none" points="
  192.339,1224.43 201.788,1224.43 
  "/>
<polyline clip-path="url(#clip880)" style="stroke:#222255; stroke-linecap:butt; stroke-linejoin:round; stroke-width:4; stroke-opacity:0; fill:none" points="
  192.339,1154.59 201.788,1154.59 
  "/>
<polyline clip-path="url(#clip880)" style="stroke:#222255; stroke-linecap:butt; stroke-linejoin:round; stroke-width:4; stroke-opacity:0; fill:none" points="
  192.339,1084.74 201.788,1084.74 
  "/>
<polyline clip-path="url(#clip880)" style="stroke:#222255; stroke-linecap:butt; stroke-linejoin:round; stroke-width:4; stroke-opacity:0; fill:none" points="
  192.339,1014.9 201.788,1014.9 
  "/>
<polyline clip-path="url(#clip880)" style="stroke:#222255; stroke-linecap:butt; stroke-linejoin:round; stroke-width:4; stroke-opacity:0; fill:none" points="
  192.339,875.205 201.788,875.205 
  "/>
<polyline clip-path="url(#clip880)" style="stroke:#222255; stroke-linecap:butt; stroke-linejoin:round; stroke-width:4; stroke-opacity:0; fill:none" points="
  192.339,805.359 201.788,805.359 
  "/>
<polyline clip-path="url(#clip880)" style="stroke:#222255; stroke-linecap:butt; stroke-linejoin:round; stroke-width:4; stroke-opacity:0; fill:none" points="
  192.339,735.514 201.788,735.514 
  "/>
<polyline clip-path="url(#clip880)" style="stroke:#222255; stroke-linecap:butt; stroke-linejoin:round; stroke-width:4; stroke-opacity:0; fill:none" points="
  192.339,665.668 201.788,665.668 
  "/>
<polyline clip-path="url(#clip880)" style="stroke:#222255; stroke-linecap:butt; stroke-linejoin:round; stroke-width:4; stroke-opacity:0; fill:none" points="
  192.339,525.978 201.788,525.978 
  "/>
<polyline clip-path="url(#clip880)" style="stroke:#222255; stroke-linecap:butt; stroke-linejoin:round; stroke-width:4; stroke-opacity:0; fill:none" points="
  192.339,456.132 201.788,456.132 
  "/>
<polyline clip-path="url(#clip880)" style="stroke:#222255; stroke-linecap:butt; stroke-linejoin:round; stroke-width:4; stroke-opacity:0; fill:none" points="
  192.339,386.287 201.788,386.287 
  "/>
<polyline clip-path="url(#clip880)" style="stroke:#222255; stroke-linecap:butt; stroke-linejoin:round; stroke-width:4; stroke-opacity:0; fill:none" points="
  192.339,316.441 201.788,316.441 
  "/>
<polyline clip-path="url(#clip880)" style="stroke:#222255; stroke-linecap:butt; stroke-linejoin:round; stroke-width:4; stroke-opacity:0; fill:none" points="
  192.339,176.751 201.788,176.751 
  "/>
<polyline clip-path="url(#clip880)" style="stroke:#222255; stroke-linecap:butt; stroke-linejoin:round; stroke-width:4; stroke-opacity:0; fill:none" points="
  192.339,106.905 201.788,106.905 
  "/>
<path clip-path="url(#clip880)" d="M50.9921 1294.73 L80.6679 1294.73 L80.6679 1298.66 L50.9921 1298.66 L50.9921 1294.73 Z" fill="#000000" fill-rule="evenodd" fill-opacity="1" /><path clip-path="url(#clip880)" d="M100.76 1280.08 Q97.1493 1280.08 95.3206 1283.64 Q93.515 1287.18 93.515 1294.31 Q93.515 1301.42 95.3206 1304.98 Q97.1493 1308.52 100.76 1308.52 Q104.395 1308.52 106.2 1304.98 Q108.029 1301.42 108.029 1294.31 Q108.029 1287.18 106.2 1283.64 Q104.395 1280.08 100.76 1280.08 M100.76 1276.37 Q106.571 1276.37 109.626 1280.98 Q112.705 1285.56 112.705 1294.31 Q112.705 1303.04 109.626 1307.64 Q106.571 1312.23 100.76 1312.23 Q94.9502 1312.23 91.8715 1307.64 Q88.816 1303.04 88.816 1294.31 Q88.816 1285.56 91.8715 1280.98 Q94.9502 1276.37 100.76 1276.37 Z" fill="#000000" fill-rule="evenodd" fill-opacity="1" /><path clip-path="url(#clip880)" d="M120.922 1305.68 L125.807 1305.68 L125.807 1311.56 L120.922 1311.56 L120.922 1305.68 Z" fill="#000000" fill-rule="evenodd" fill-opacity="1" /><path clip-path="url(#clip880)" d="M140.019 1307.62 L156.339 1307.62 L156.339 1311.56 L134.394 1311.56 L134.394 1307.62 Q137.056 1304.87 141.64 1300.24 Q146.246 1295.58 147.427 1294.24 Q149.672 1291.72 150.552 1289.98 Q151.455 1288.22 151.455 1286.53 Q151.455 1283.78 149.51 1282.04 Q147.589 1280.31 144.487 1280.31 Q142.288 1280.31 139.834 1281.07 Q137.404 1281.83 134.626 1283.39 L134.626 1278.66 Q137.45 1277.53 139.904 1276.95 Q142.357 1276.37 144.394 1276.37 Q149.765 1276.37 152.959 1279.06 Q156.154 1281.74 156.154 1286.23 Q156.154 1288.36 155.343 1290.28 Q154.556 1292.18 152.45 1294.77 Q151.871 1295.45 148.769 1298.66 Q145.668 1301.86 140.019 1307.62 Z" fill="#000000" fill-rule="evenodd" fill-opacity="1" /><path clip-path="url(#clip880)" d="M99.1632 930.849 Q95.5521 930.849 93.7234 934.413 Q91.9178 937.955 91.9178 945.085 Q91.9178 952.191 93.7234 955.756 Q95.5521 959.298 99.1632 959.298 Q102.797 959.298 104.603 955.756 Q106.432 952.191 106.432 945.085 Q106.432 937.955 104.603 934.413 Q102.797 930.849 99.1632 930.849 M99.1632 927.145 Q104.973 927.145 108.029 931.751 Q111.108 936.335 111.108 945.085 Q111.108 953.811 108.029 958.418 Q104.973 963.001 99.1632 963.001 Q93.353 963.001 90.2743 958.418 Q87.2188 953.811 87.2188 945.085 Q87.2188 936.335 90.2743 931.751 Q93.353 927.145 99.1632 927.145 Z" fill="#000000" fill-rule="evenodd" fill-opacity="1" /><path clip-path="url(#clip880)" d="M119.325 956.45 L124.209 956.45 L124.209 962.33 L119.325 962.33 L119.325 956.45 Z" fill="#000000" fill-rule="evenodd" fill-opacity="1" /><path clip-path="url(#clip880)" d="M144.394 930.849 Q140.783 930.849 138.955 934.413 Q137.149 937.955 137.149 945.085 Q137.149 952.191 138.955 955.756 Q140.783 959.298 144.394 959.298 Q148.029 959.298 149.834 955.756 Q151.663 952.191 151.663 945.085 Q151.663 937.955 149.834 934.413 Q148.029 930.849 144.394 930.849 M144.394 927.145 Q150.205 927.145 153.26 931.751 Q156.339 936.335 156.339 945.085 Q156.339 953.811 153.26 958.418 Q150.205 963.001 144.394 963.001 Q138.584 963.001 135.506 958.418 Q132.45 953.811 132.45 945.085 Q132.45 936.335 135.506 931.751 Q138.584 927.145 144.394 927.145 Z" fill="#000000" fill-rule="evenodd" fill-opacity="1" /><path clip-path="url(#clip880)" d="M100.76 581.622 Q97.1493 581.622 95.3206 585.186 Q93.515 588.728 93.515 595.858 Q93.515 602.964 95.3206 606.529 Q97.1493 610.071 100.76 610.071 Q104.395 610.071 106.2 606.529 Q108.029 602.964 108.029 595.858 Q108.029 588.728 106.2 585.186 Q104.395 581.622 100.76 581.622 M100.76 577.918 Q106.571 577.918 109.626 582.524 Q112.705 587.108 112.705 595.858 Q112.705 604.585 109.626 609.191 Q106.571 613.774 100.76 613.774 Q94.9502 613.774 91.8715 609.191 Q88.816 604.585 88.816 595.858 Q88.816 587.108 91.8715 582.524 Q94.9502 577.918 100.76 577.918 Z" fill="#000000" fill-rule="evenodd" fill-opacity="1" /><path clip-path="url(#clip880)" d="M120.922 607.223 L125.807 607.223 L125.807 613.103 L120.922 613.103 L120.922 607.223 Z" fill="#000000" fill-rule="evenodd" fill-opacity="1" /><path clip-path="url(#clip880)" d="M140.019 609.168 L156.339 609.168 L156.339 613.103 L134.394 613.103 L134.394 609.168 Q137.056 606.413 141.64 601.784 Q146.246 597.131 147.427 595.788 Q149.672 593.265 150.552 591.529 Q151.455 589.77 151.455 588.08 Q151.455 585.325 149.51 583.589 Q147.589 581.853 144.487 581.853 Q142.288 581.853 139.834 582.617 Q137.404 583.381 134.626 584.932 L134.626 580.21 Q137.45 579.075 139.904 578.497 Q142.357 577.918 144.394 577.918 Q149.765 577.918 152.959 580.603 Q156.154 583.288 156.154 587.779 Q156.154 589.909 155.343 591.83 Q154.556 593.728 152.45 596.321 Q151.871 596.992 148.769 600.21 Q145.668 603.404 140.019 609.168 Z" fill="#000000" fill-rule="evenodd" fill-opacity="1" /><path clip-path="url(#clip880)" d="M98.6771 232.395 Q95.066 232.395 93.2373 235.96 Q91.4317 239.501 91.4317 246.631 Q91.4317 253.737 93.2373 257.302 Q95.066 260.844 98.6771 260.844 Q102.311 260.844 104.117 257.302 Q105.946 253.737 105.946 246.631 Q105.946 239.501 104.117 235.96 Q102.311 232.395 98.6771 232.395 M98.6771 228.691 Q104.487 228.691 107.543 233.298 Q110.621 237.881 110.621 246.631 Q110.621 255.358 107.543 259.964 Q104.487 264.547 98.6771 264.547 Q92.8669 264.547 89.7882 259.964 Q86.7327 255.358 86.7327 246.631 Q86.7327 237.881 89.7882 233.298 Q92.8669 228.691 98.6771 228.691 Z" fill="#000000" fill-rule="evenodd" fill-opacity="1" /><path clip-path="url(#clip880)" d="M118.839 257.996 L123.723 257.996 L123.723 263.876 L118.839 263.876 L118.839 257.996 Z" fill="#000000" fill-rule="evenodd" fill-opacity="1" /><path clip-path="url(#clip880)" d="M146.756 233.39 L134.95 251.839 L146.756 251.839 L146.756 233.39 M145.529 229.316 L151.408 229.316 L151.408 251.839 L156.339 251.839 L156.339 255.728 L151.408 255.728 L151.408 263.876 L146.756 263.876 L146.756 255.728 L131.154 255.728 L131.154 251.214 L145.529 229.316 Z" fill="#000000" fill-rule="evenodd" fill-opacity="1" /><polyline clip-path="url(#clip882)" style="stroke:#4477aa; stroke-linecap:butt; stroke-linejoin:round; stroke-width:12; stroke-opacity:1; fill:none" points="
  253.483,946.785 260.231,942.639 266.98,953.669 273.729,946.42 280.478,944.483 300.724,942.953 307.473,931.973 314.222,928.563 320.97,939.593 327.719,937.829 
  354.714,945.546 361.463,943.855 368.212,939.464 374.961,931.994 395.207,930.363 401.956,920.586 408.704,925.382 415.453,916.842 422.202,930.082 442.448,936.614 
  449.197,931.985 455.946,925.094 462.695,909.617 469.443,904.179 489.69,898.511 496.438,890.049 503.187,880.043 509.936,887.458 516.685,891.85 536.931,887.365 
  543.68,882.39 550.429,876.571 557.177,857.391 563.926,862.599 590.921,854.747 597.67,838.776 604.419,851.975 611.168,841.425 631.414,841.193 638.163,823.911 
  644.911,833.415 651.66,829.63 658.409,817.749 678.655,788.894 685.404,766.033 692.153,797.406 698.902,789.855 705.65,786.077 725.897,785.264 732.646,809.865 
  739.394,819.873 746.143,824.781 752.892,836.127 773.138,825.543 779.887,835.081 786.636,822.281 793.384,826.046 800.133,826.117 820.38,842.545 827.128,852.08 
  833.877,845.37 840.626,836.345 847.375,838.995 867.621,841.587 874.37,831.939 881.119,822.795 887.867,822.478 894.616,814.068 914.862,798.673 921.611,793.791 
  928.36,798.315 935.109,788.959 962.104,785.507 968.853,800.042 975.601,800.417 982.35,790.607 989.099,779.337 1009.35,796.907 1016.09,780.429 1022.84,784.661 
  1029.59,795.819 1036.34,770.008 1056.59,780.331 1063.34,782.836 1070.08,798.356 1076.83,773.69 1083.58,766.772 1103.83,758.945 1110.58,766.917 1117.33,754.854 
  1124.07,764.387 1130.82,780.736 1151.07,773.763 1157.82,785.827 1164.57,764.027 1171.32,753.184 1178.06,754.789 1198.31,760.815 1205.06,756.719 1211.81,767.708 
  1218.56,779.695 1225.31,795.171 1252.3,794.352 1259.05,782.199 1265.8,786.522 1272.55,782.06 1292.79,782.948 1299.54,786.719 1306.29,778.515 1313.04,765.59 
  1319.79,735.758 1340.04,688.17 1346.78,678.569 1353.53,685.893 1360.28,661.051 1367.03,655.303 1394.03,669.285 1400.77,670.692 1407.52,682.75 1414.27,700.461 
  1434.52,696.077 1441.27,685.333 1448.02,688.655 1454.76,689.935 1461.51,699.044 1488.51,688.663 1495.26,677.79 1502.01,685.142 1508.75,682.975 1529,675.33 
  1535.75,668.995 1542.5,670.562 1549.25,659.061 1556,670.988 1576.24,664.938 1582.99,681.38 1589.74,679.038 1596.49,697.867 1603.24,698.63 1623.48,695.606 
  1630.23,688.141 1636.98,710.561 1643.73,728.845 1650.48,738.492 1670.72,741.416 1677.47,728.177 1684.22,741.53 1690.97,752.125 1697.72,737.933 1717.97,744.764 
  1724.72,742.928 1731.46,755.166 1738.21,750.342 1744.96,768.118 1765.21,763.584 1771.96,762.941 1778.71,751.574 1785.45,752.812 1792.2,736.971 1812.45,718.22 
  1819.2,720.633 1825.95,722.733 1832.7,735.849 1839.44,707.529 1859.69,701.39 1866.44,690.556 1873.19,679.183 1879.94,671.482 1886.69,671.906 1913.68,661.019 
  1920.43,681.45 1927.18,679.928 1933.93,691.732 1954.17,700.187 1960.92,663.761 1967.67,664.447 1974.42,645.08 1981.17,640.822 2001.41,645.368 2008.16,632.444 
  2014.91,626.496 2021.66,615.235 2028.41,593.642 2048.66,573.559 2055.4,570.719 2062.15,603.013 2068.9,587.608 2075.65,577.19 2095.9,609.917 2102.65,637.417 
  2109.4,629.745 2116.14,620.854 2122.89,594.943 2143.14,578.935 2149.89,574.203 2156.64,576.044 2163.39,585.1 2170.13,561.57 2190.38,579.253 2197.13,588.626 
  2203.88,571.823 2210.63,562.07 2217.38,587.337 2237.62,591.687 2244.37,607.741 2251.12,609.353 2257.87,608.388 2264.62,614.946 2284.86,604.139 2291.61,606.751 
  
  "/>
<polyline clip-path="url(#clip882)" style="stroke:#ee6677; stroke-linecap:butt; stroke-linejoin:round; stroke-width:12; stroke-opacity:1; fill:none" points="
  253.483,1008.46 260.231,961.449 266.98,1117.96 273.729,1124.56 280.478,1121.7 300.724,1109.86 307.473,965.094 314.222,926.8 320.97,1048.89 327.719,1066.33 
  354.714,1203.27 361.463,1165.7 368.212,1183.25 374.961,1206.25 395.207,1167.64 401.956,1144.98 408.704,1259.81 415.453,1259.81 422.202,1259.81 442.448,1218.36 
  449.197,1172.26 455.946,1080.71 462.695,1090.7 469.443,1058.58 489.69,1006.54 496.438,928.751 503.187,804.967 509.936,955.268 516.685,954.88 536.931,938.948 
  543.68,899.824 550.429,819.825 557.177,724.08 563.926,772.103 590.921,757.238 597.67,725.222 604.419,769.647 611.168,650.289 631.414,593.171 638.163,465.917 
  644.911,540.39 651.66,497.378 658.409,383.652 678.655,278.047 685.404,87.9763 692.153,295.423 698.902,273.993 705.65,322.576 725.897,427.708 732.646,557.15 
  739.394,514.403 746.143,481.02 752.892,541.339 773.138,489.407 779.887,539.039 786.636,446.841 793.384,397.72 800.133,425.574 820.38,549.293 827.128,546.284 
  833.877,493.53 840.626,489.804 847.375,532.903 867.621,500.023 874.37,542.943 881.119,526.897 887.867,501.004 894.616,458.164 914.862,424.244 921.611,371.734 
  928.36,338.891 935.109,361.658 962.104,340.36 968.853,444.606 975.601,410.974 982.35,435.532 989.099,502.68 1009.35,626.217 1016.09,615.811 1022.84,667.592 
  1029.59,630.851 1036.34,631.623 1056.59,758.165 1063.34,740.274 1070.08,674.306 1076.83,700.074 1083.58,688.862 1103.83,787.285 1110.58,844.428 1117.33,789.324 
  1124.07,893.57 1130.82,948.42 1151.07,884.624 1157.82,927.021 1164.57,923.443 1171.32,825.534 1178.06,820.835 1198.31,789.606 1205.06,739.24 1211.81,779.873 
  1218.56,792.304 1225.31,788.805 1252.3,855.577 1259.05,812.982 1265.8,731.226 1272.55,799.257 1292.79,828.671 1299.54,785.39 1306.29,791.618 1313.04,813.136 
  1319.79,723.604 1340.04,723.604 1346.78,723.604 1353.53,638.476 1360.28,565.077 1367.03,565.077 1394.03,589.635 1400.77,563.366 1407.52,604.971 1414.27,611.737 
  1434.52,619.335 1441.27,630.554 1448.02,635.768 1454.76,677.186 1461.51,677.186 1488.51,677.186 1495.26,677.186 1502.01,677.186 1508.75,677.186 1529,677.186 
  1535.75,677.186 1542.5,677.186 1549.25,677.186 1556,677.186 1576.24,677.186 1582.99,677.186 1589.74,677.186 1596.49,677.186 1603.24,677.186 1623.48,677.186 
  1630.23,677.186 1636.98,677.186 1643.73,677.186 1650.48,677.186 1670.72,677.186 1677.47,677.186 1684.22,677.186 1690.97,677.186 1697.72,677.186 1717.97,677.186 
  1724.72,677.186 1731.46,677.186 1738.21,677.186 1744.96,677.186 1765.21,677.186 1771.96,677.186 1778.71,677.186 1785.45,677.186 1792.2,677.186 1812.45,677.186 
  1819.2,677.186 1825.95,677.186 1832.7,677.186 1839.44,677.186 1859.69,677.186 1866.44,677.186 1873.19,677.186 1879.94,677.186 1886.69,677.186 1913.68,677.186 
  1920.43,677.186 1927.18,677.186 1933.93,677.186 1954.17,677.186 1960.92,677.186 1967.67,677.186 1974.42,677.186 1981.17,677.186 2001.41,677.186 2008.16,677.186 
  2014.91,677.186 2021.66,677.186 2028.41,677.186 2048.66,677.186 2055.4,677.186 2062.15,677.186 2068.9,677.186 2075.65,677.186 2095.9,677.186 2102.65,677.186 
  2109.4,677.186 2116.14,677.186 2122.89,677.186 2143.14,677.186 2149.89,677.186 2156.64,677.186 2163.39,677.186 2170.13,677.186 2190.38,677.186 2197.13,677.186 
  2203.88,677.186 2210.63,677.186 2217.38,677.186 2237.62,677.186 2244.37,677.186 2251.12,677.186 2257.87,677.186 2264.62,677.186 2284.86,677.186 2291.61,677.186 
  
  "/>
<polyline clip-path="url(#clip882)" style="stroke:#228833; stroke-linecap:butt; stroke-linejoin:round; stroke-width:4.8; stroke-opacity:1; fill:none" points="
  253.483,956.833 260.231,957.041 266.98,963.067 273.729,964.942 280.478,969.742 300.724,971.205 307.473,967.653 314.222,968.279 320.97,965.359 327.719,974.974 
  354.714,985.907 361.463,981.694 368.212,979.801 374.961,973.298 395.207,976.022 401.956,978.33 408.704,988.017 415.453,982.325 422.202,980.221 442.448,981.483 
  449.197,985.063 455.946,982.535 462.695,989.919 469.443,1000.73 489.69,999.245 496.438,1004.99 503.187,1003.71 509.936,1019.77 516.685,1008.41 536.931,1018.26 
  543.68,1021.92 550.429,1019.55 557.177,1015.69 563.926,1012.69 590.921,1013.76 597.67,1022.57 604.419,1018.69 611.168,1017.19 631.414,1004.35 638.163,997.97 
  644.911,1019.55 651.66,1011.83 658.409,1005.63 678.655,1014.19 685.404,1022.35 692.153,1027.09 698.902,1036.41 705.65,1037.71 725.897,1053.86 732.646,1051.01 
  739.394,1048.39 746.143,1046.86 752.892,1041.84 773.138,1059.79 779.887,1064.2 786.636,1056.27 793.384,1058.47 800.133,1073.93 820.38,1068.84 827.128,1061.11 
  833.877,1057.15 840.626,1055.83 847.375,1063.98 867.621,1062.65 874.37,1080.37 881.119,1086.17 887.867,1089.3 894.616,1098.95 914.862,1106.39 921.611,1101.2 
  928.36,1099.18 935.109,1111.14 962.104,1116.82 968.853,1127.76 975.601,1116.82 982.35,1126.16 989.099,1128.45 1009.35,1117.5 1016.09,1112.96 1022.84,1118.41 
  1029.59,1119.09 1036.34,1130.97 1056.59,1143.16 1063.34,1139.01 1070.08,1127.76 1076.83,1145.24 1083.58,1152.65 1103.83,1144.78 1110.58,1139.7 1117.33,1133.72 
  1124.07,1130.28 1130.82,1136.71 1151.07,1133.95 1157.82,1144.31 1164.57,1136.94 1171.32,1133.26 1178.06,1127.99 1198.31,1134.18 1205.06,1120 1211.81,1112.96 
  1218.56,1114.77 1225.31,1109.79 1252.3,1119.78 1259.05,1130.97 1265.8,1129.37 1272.55,1131.89 1292.79,1142.24 1299.54,1136.25 1306.29,1143.39 1313.04,1145.7 
  1319.79,1160.55 1340.04,1188.99 1346.78,1198.49 1353.53,1178.6 1360.28,1174.83 1367.03,1173.89 1394.03,1181.9 1400.77,1167.56 1407.52,1159.16 1414.27,1162.42 
  1434.52,1170.84 1441.27,1169.9 1448.02,1159.86 1454.76,1152.42 1461.51,1142.01 1488.51,1139.01 1495.26,1149.63 1502.01,1154.5 1508.75,1160.32 1529,1153.81 
  1535.75,1150.79 1542.5,1145.24 1549.25,1150.79 1556,1144.54 1576.24,1149.87 1582.99,1151.26 1589.74,1152.88 1596.49,1138.55 1603.24,1124.34 1623.48,1130.74 
  1630.23,1130.28 1636.98,1125.48 1643.73,1113.41 1650.48,1114.77 1670.72,1110.69 1677.47,1128.45 1684.22,1119.78 1690.97,1115.46 1697.72,1135.33 1717.97,1127.54 
  1724.72,1131.43 1731.46,1126.62 1738.21,1136.48 1744.96,1128.45 1765.21,1126.62 1771.96,1128.91 1778.71,1139.24 1785.45,1136.02 1792.2,1147.09 1812.45,1154.97 
  1819.2,1155.67 1825.95,1160.09 1832.7,1150.56 1839.44,1154.04 1859.69,1161.95 1866.44,1160.55 1873.19,1167.8 1879.94,1180.95 1886.69,1176.48 1913.68,1192.31 
  1920.43,1179.77 1927.18,1185.2 1933.93,1185.91 1954.17,1188.04 1960.92,1196.83 1967.67,1194.69 1974.42,1199.92 1981.17,1201.83 2001.41,1203.02 2008.16,1211.64 
  2014.91,1206.85 2021.66,1224.9 2028.41,1229.74 2048.66,1252.19 2055.4,1259.83 2062.15,1232.89 2068.9,1241.91 2075.65,1246.06 2095.9,1235.33 2102.65,1230.95 
  2109.4,1240.2 2116.14,1246.8 2122.89,1255.88 2143.14,1263.78 2149.89,1263.28 2156.64,1261.31 2163.39,1267.49 2170.13,1275.94 2190.38,1272.21 2197.13,1268.24 
  2203.88,1282.67 2210.63,1294.46 2217.38,1291.45 2237.62,1293.96 2244.37,1277.43 2251.12,1270.47 2257.87,1261.31 2264.62,1264.77 2284.86,1270.22 2291.61,1272.46 
  
  "/>
<polyline clip-path="url(#clip882)" style="stroke:#ccbb44; stroke-linecap:butt; stroke-linejoin:round; stroke-width:4.8; stroke-opacity:1; fill:none" points="
  253.483,972.121 260.231,959.305 266.98,964.565 273.729,986.077 280.478,978.148 300.724,972.847 307.473,952.112 314.222,947.298 320.97,953.24 327.719,958.276 
  354.714,961.159 361.463,933.648 368.212,938.017 374.961,943.723 395.207,934.155 401.956,928.582 408.704,957.041 415.453,979.71 422.202,984.927 442.448,974.612 
  449.197,973.158 455.946,966.838 462.695,969.322 469.443,966.631 489.69,953.753 496.438,948.424 503.187,942.498 509.936,949.14 516.685,916.181 536.931,906.863 
  543.68,923.53 550.429,905.664 557.177,881.959 563.926,883.24 590.921,879.597 597.67,871.744 604.419,882.649 611.168,888.869 631.414,870.863 638.163,839.431 
  644.911,857.698 651.66,847.333 658.409,819.738 678.655,793.976 685.404,746.845 692.153,799.512 698.902,794.07 705.65,806.385 725.897,832.906 732.646,865.878 
  739.394,854.979 746.143,846.464 752.892,861.88 773.138,848.589 779.887,861.296 786.636,837.606 793.384,824.974 800.133,832.14 820.38,864.219 827.128,863.439 
  833.877,849.749 840.626,848.782 847.375,859.934 867.621,851.491 874.37,862.465 881.119,858.378 887.867,851.781 894.616,840.874 914.862,832.236 921.611,818.882 
  928.36,810.541 935.109,816.319 962.104,810.919 968.853,837.51 975.601,828.983 982.35,835.206 989.099,852.265 1009.35,883.931 1016.09,881.27 1022.84,894.515 
  1029.59,885.115 1036.34,885.312 1056.59,917.99 1063.34,913.37 1070.08,896.302 1076.83,902.97 1083.58,900.081 1103.83,925.549 1110.58,940.358 1117.33,926.155 
  1124.07,953.137 1130.82,967.356 1151.07,950.779 1157.82,961.778 1164.57,960.85 1171.32,935.374 1178.06,934.155 1198.31,926.054 1205.06,912.969 1211.81,923.53 
  1218.56,926.761 1225.31,925.852 1252.3,943.212 1259.05,932.126 1265.8,910.764 1272.55,928.582 1292.79,936.288 1299.54,924.943 1306.29,926.559 1313.04,932.126 
  1319.79,908.862 1340.04,955.602 1346.78,969.633 1353.53,946.992 1360.28,927.469 1367.03,941.887 1394.03,948.424 1400.77,941.479 1407.52,952.214 1414.27,953.959 
  1434.52,955.91 1441.27,958.79 1448.02,960.129 1454.76,970.773 1461.51,972.224 1488.51,1009.66 1495.26,1037.54 1502.01,1036.57 1508.75,1035.82 1529,1045.2 
  1535.75,1051.71 1542.5,1043.37 1549.25,1068.07 1556,1071.58 1576.24,1069.93 1582.99,1065.77 1589.74,1082.26 1596.49,1057.8 1603.24,1053.44 1623.48,1058.23 
  1630.23,1060.3 1636.98,1042.61 1643.73,1021.46 1650.48,1016.56 1670.72,1006.69 1677.47,1017.09 1684.22,1012.84 1690.97,984.195 1697.72,1003.94 1717.97,989.216 
  1724.72,983.882 1731.46,988.274 1738.21,992.887 1744.96,976.899 1765.21,999.512 1771.96,1002.57 1778.71,1013.9 1785.45,1018.48 1792.2,1031.31 1812.45,1042.93 
  1819.2,1030.77 1825.95,1025.63 1832.7,1020.29 1839.44,1041.64 1859.69,1040.56 1866.44,1055.18 1873.19,1068.73 1879.94,1084.14 1886.69,1068.84 1913.68,1079.06 
  1920.43,1061.4 1927.18,1071.91 1933.93,1062.71 1954.17,1053.88 1960.92,1076.75 1967.67,1083.48 1974.42,1116.4 1981.17,1106.74 2001.41,1105.4 2008.16,1115.39 
  2014.91,1107.3 2021.66,1108.31 2028.41,1138.74 2048.66,1159.17 2055.4,1155.6 2062.15,1119.67 2068.9,1120.01 2075.65,1119.9 2095.9,1077.96 2102.65,1053.12 
  2109.4,1062.82 2116.14,1064.78 2122.89,1084.03 2143.14,1110.78 2149.89,1114.38 2156.64,1105.06 2163.39,1117.19 2170.13,1139.08 2190.38,1134.07 2197.13,1130.32 
  2203.88,1153.87 2210.63,1156.64 2217.38,1125.78 2237.62,1131.45 2244.37,1127.48 2251.12,1116.4 2257.87,1119.11 2264.62,1137.03 2284.86,1151.34 2291.61,1133.61 
  
  "/>
<polyline clip-path="url(#clip882)" style="stroke:#66ccee; stroke-linecap:butt; stroke-linejoin:round; stroke-width:4.8; stroke-opacity:1; fill:none" points="
  253.483,934.969 260.231,935.554 266.98,969.41 273.729,971.051 280.478,977.968 300.724,980.142 307.473,964.384 314.222,959.595 320.97,983.822 327.719,983.108 
  354.714,1014.31 361.463,1032.53 368.212,1051.97 374.961,1086.59 395.207,1079.19 401.956,1100.64 408.704,1105.02 415.453,1113.67 422.202,1070.83 442.448,1039.66 
  449.197,1027.9 455.946,1011.02 462.695,1052.55 469.443,1044.36 489.69,1049.98 496.438,1035.67 503.187,1010.3 509.936,1041.95 516.685,1076.73 536.931,1082.45 
  543.68,1054.51 550.429,1052.55 557.177,1090.26 563.926,1101.6 590.921,1120.44 597.67,1151.69 604.419,1126.88 611.168,1087.5 631.414,1091.98 638.163,1118.78 
  644.911,1086.95 651.66,1095.66 658.409,1109.91 678.655,1162.15 685.404,1175.44 692.153,1129.24 698.902,1137.15 705.65,1159.49 725.897,1172.3 732.646,1134.32 
  739.394,1096.02 746.143,1074.31 752.892,1060.71 773.138,1061.22 779.887,1040.9 786.636,1063.54 793.384,1037.41 800.133,1028.9 820.38,1016.8 827.128,995.135 
  833.877,1005.53 840.626,1032.96 847.375,1028.02 867.621,1013.12 874.37,1035.32 881.119,1052.87 887.867,1044.09 894.616,1048.77 914.862,1078.87 921.611,1085.35 
  928.36,1065.47 935.109,1087.34 962.104,1086.63 968.853,1058.66 975.601,1059.96 982.35,1086.27 989.099,1134.85 1009.35,1124.76 1016.09,1176.07 1022.84,1171.17 
  1029.59,1127.61 1036.34,1193.36 1056.59,1182.88 1063.34,1174.9 1070.08,1122.52 1076.83,1185.71 1083.58,1196.16 1103.83,1252.98 1110.58,1248.95 1117.33,1276.92 
  1124.07,1278.74 1130.82,1237.48 1151.07,1244.58 1157.82,1209.03 1164.57,1280.88 1171.32,1291.6 1178.06,1290.84 1198.31,1258.47 1205.06,1271.85 1211.81,1256.5 
  1218.56,1221.95 1225.31,1179.6 1252.3,1189.43 1259.05,1203.61 1265.8,1170.88 1272.55,1199.56 1292.79,1194.25 1299.54,1177.58 1306.29,1196.67 1313.04,1238.7 
  1319.79,1290.08 1340.04,1357.67 1346.78,1362.94 1353.53,1338.22 1360.28,1396.99 1367.03,1400.76 1394.03,1357.34 1400.77,1360.51 1407.52,1343.48 1414.27,1288.83 
  1434.52,1295.51 1441.27,1331.56 1448.02,1332.98 1454.76,1347.22 1461.51,1328.85 1488.51,1325.56 1495.26,1319.67 1502.01,1293.71 1508.75,1295.15 1529,1315.21 
  1535.75,1330.73 1542.5,1339.93 1549.25,1344.17 1556,1311.13 1576.24,1325.6 1582.99,1279.05 1589.74,1267.96 1596.49,1250.27 1603.24,1266.54 1623.48,1264.42 
  1630.23,1285.2 1636.98,1240.44 1643.73,1218.81 1650.48,1193.41 1670.72,1198.58 1677.47,1210.14 1684.22,1183.01 1690.97,1184.19 1697.72,1187.14 1717.97,1189.17 
  1724.72,1196.12 1731.46,1159.82 1738.21,1159.82 1744.96,1130.51 1765.21,1123.33 1771.96,1119.91 1778.71,1132.35 1785.45,1127.28 1792.2,1150.91 1812.45,1187.65 
  1819.2,1191.88 1825.95,1186.3 1832.7,1161.82 1839.44,1221.95 1859.69,1233.53 1866.44,1252.81 1873.19,1266.15 1879.94,1260.67 1886.69,1279.18 1913.68,1285.79 
  1920.43,1254.69 1927.18,1243.32 1933.93,1216.4 1954.17,1197.73 1960.92,1275.36 1967.67,1268.71 1974.42,1288.65 1981.17,1309.18 2001.41,1295.69 2008.16,1315.85 
  2014.91,1346.58 2021.66,1361.31 2028.41,1390.81 2048.66,1408.17 2055.4,1412.63 2062.15,1378.61 2068.9,1415.47 2075.65,1442.68 2095.9,1397.18 2102.65,1343.89 
  2109.4,1347.96 2116.14,1366.07 2122.89,1415.47 2143.14,1428.85 2149.89,1439.95 2156.64,1445.72 2163.39,1400.23 2170.13,1440.48 2190.38,1396.18 2197.13,1375.78 
  2203.88,1388.2 2210.63,1402.9 2217.38,1360.98 2237.62,1339.74 2244.37,1312.08 2251.12,1325.28 2257.87,1334.63 2264.62,1293.58 2284.86,1306.24 2291.61,1313.89 
  
  "/>
<path clip-path="url(#clip880)" d="
M264.353 406.258 L977.984 406.258 L977.984 95.2176 L264.353 95.2176  Z
  " fill="#ffffff" fill-rule="evenodd" fill-opacity="0.9"/>
<polyline clip-path="url(#clip880)" style="stroke:#222255; stroke-linecap:butt; stroke-linejoin:round; stroke-width:4; stroke-opacity:0.1; fill:none" points="
  264.353,406.258 977.984,406.258 977.984,95.2176 264.353,95.2176 264.353,406.258 
  "/>
<polyline clip-path="url(#clip880)" style="stroke:#4477aa; stroke-linecap:butt; stroke-linejoin:round; stroke-width:4; stroke-opacity:1; fill:none" points="
  288.357,147.058 432.385,147.058 
  "/>
<path clip-path="url(#clip880)" d="M456.39 129.778 L485.626 129.778 L485.626 133.713 L473.357 133.713 L473.357 164.338 L468.658 164.338 L468.658 133.713 L456.39 133.713 L456.39 129.778 Z" fill="#000000" fill-rule="evenodd" fill-opacity="1" /><path clip-path="url(#clip880)" d="M498.01 142.393 Q497.292 141.977 496.436 141.791 Q495.603 141.583 494.584 141.583 Q490.973 141.583 489.028 143.944 Q487.107 146.282 487.107 150.68 L487.107 164.338 L482.825 164.338 L482.825 138.412 L487.107 138.412 L487.107 142.44 Q488.45 140.078 490.603 138.944 Q492.755 137.787 495.834 137.787 Q496.274 137.787 496.806 137.856 Q497.339 137.903 497.987 138.018 L498.01 142.393 Z" fill="#000000" fill-rule="evenodd" fill-opacity="1" /><path clip-path="url(#clip880)" d="M523.612 150.31 L523.612 152.393 L504.028 152.393 Q504.306 156.791 506.667 159.106 Q509.052 161.398 513.288 161.398 Q515.741 161.398 518.033 160.796 Q520.348 160.194 522.616 158.99 L522.616 163.018 Q520.325 163.99 517.917 164.5 Q515.51 165.009 513.033 165.009 Q506.829 165.009 503.195 161.398 Q499.584 157.787 499.584 151.629 Q499.584 145.264 503.01 141.537 Q506.459 137.787 512.292 137.787 Q517.524 137.787 520.556 141.166 Q523.612 144.523 523.612 150.31 M519.352 149.06 Q519.306 145.565 517.385 143.481 Q515.487 141.398 512.339 141.398 Q508.774 141.398 506.621 143.412 Q504.491 145.426 504.167 149.083 L519.352 149.06 Z" fill="#000000" fill-rule="evenodd" fill-opacity="1" /><path clip-path="url(#clip880)" d="M552.153 148.689 L552.153 164.338 L547.894 164.338 L547.894 148.828 Q547.894 145.148 546.459 143.319 Q545.024 141.49 542.153 141.49 Q538.704 141.49 536.713 143.69 Q534.723 145.889 534.723 149.685 L534.723 164.338 L530.44 164.338 L530.44 138.412 L534.723 138.412 L534.723 142.44 Q536.25 140.102 538.311 138.944 Q540.394 137.787 543.102 137.787 Q547.57 137.787 549.861 140.565 Q552.153 143.319 552.153 148.689 Z" fill="#000000" fill-rule="evenodd" fill-opacity="1" /><path clip-path="url(#clip880)" d="M577.709 142.347 L577.709 128.319 L581.968 128.319 L581.968 164.338 L577.709 164.338 L577.709 160.449 Q576.366 162.763 574.306 163.898 Q572.269 165.009 569.398 165.009 Q564.699 165.009 561.736 161.259 Q558.797 157.509 558.797 151.398 Q558.797 145.287 561.736 141.537 Q564.699 137.787 569.398 137.787 Q572.269 137.787 574.306 138.921 Q576.366 140.032 577.709 142.347 M563.195 151.398 Q563.195 156.097 565.116 158.782 Q567.06 161.444 570.44 161.444 Q573.82 161.444 575.764 158.782 Q577.709 156.097 577.709 151.398 Q577.709 146.699 575.764 144.037 Q573.82 141.352 570.44 141.352 Q567.06 141.352 565.116 144.037 Q563.195 146.699 563.195 151.398 Z" fill="#000000" fill-rule="evenodd" fill-opacity="1" /><path clip-path="url(#clip880)" d="M605.995 129.778 L625.856 129.778 L625.856 133.713 L610.671 133.713 L610.671 143.898 L624.375 143.898 L624.375 147.833 L610.671 147.833 L610.671 164.338 L605.995 164.338 L605.995 129.778 Z" fill="#000000" fill-rule="evenodd" fill-opacity="1" /><path clip-path="url(#clip880)" d="M641.435 141.398 Q638.009 141.398 636.018 144.083 Q634.028 146.745 634.028 151.398 Q634.028 156.051 635.995 158.736 Q637.986 161.398 641.435 161.398 Q644.838 161.398 646.829 158.713 Q648.819 156.027 648.819 151.398 Q648.819 146.791 646.829 144.106 Q644.838 141.398 641.435 141.398 M641.435 137.787 Q646.991 137.787 650.162 141.398 Q653.333 145.009 653.333 151.398 Q653.333 157.764 650.162 161.398 Q646.991 165.009 641.435 165.009 Q635.856 165.009 632.685 161.398 Q629.537 157.764 629.537 151.398 Q629.537 145.009 632.685 141.398 Q635.856 137.787 641.435 137.787 Z" fill="#000000" fill-rule="evenodd" fill-opacity="1" /><path clip-path="url(#clip880)" d="M660.393 128.319 L664.653 128.319 L664.653 164.338 L660.393 164.338 L660.393 128.319 Z" fill="#000000" fill-rule="evenodd" fill-opacity="1" /><path clip-path="url(#clip880)" d="M673.565 128.319 L677.824 128.319 L677.824 164.338 L673.565 164.338 L673.565 128.319 Z" fill="#000000" fill-rule="evenodd" fill-opacity="1" /><path clip-path="url(#clip880)" d="M696.782 141.398 Q693.356 141.398 691.365 144.083 Q689.375 146.745 689.375 151.398 Q689.375 156.051 691.342 158.736 Q693.333 161.398 696.782 161.398 Q700.185 161.398 702.175 158.713 Q704.166 156.027 704.166 151.398 Q704.166 146.791 702.175 144.106 Q700.185 141.398 696.782 141.398 M696.782 137.787 Q702.338 137.787 705.509 141.398 Q708.68 145.009 708.68 151.398 Q708.68 157.764 705.509 161.398 Q702.338 165.009 696.782 165.009 Q691.203 165.009 688.032 161.398 Q684.884 157.764 684.884 151.398 Q684.884 145.009 688.032 141.398 Q691.203 137.787 696.782 137.787 Z" fill="#000000" fill-rule="evenodd" fill-opacity="1" /><path clip-path="url(#clip880)" d="M713.263 138.412 L717.523 138.412 L722.847 158.643 L728.148 138.412 L733.171 138.412 L738.495 158.643 L743.796 138.412 L748.055 138.412 L741.272 164.338 L736.249 164.338 L730.671 143.088 L725.069 164.338 L720.046 164.338 L713.263 138.412 Z" fill="#000000" fill-rule="evenodd" fill-opacity="1" /><path clip-path="url(#clip880)" d="M754.513 138.412 L758.772 138.412 L758.772 164.338 L754.513 164.338 L754.513 138.412 M754.513 128.319 L758.772 128.319 L758.772 133.713 L754.513 133.713 L754.513 128.319 Z" fill="#000000" fill-rule="evenodd" fill-opacity="1" /><path clip-path="url(#clip880)" d="M789.235 148.689 L789.235 164.338 L784.976 164.338 L784.976 148.828 Q784.976 145.148 783.541 143.319 Q782.106 141.49 779.235 141.49 Q775.786 141.49 773.795 143.69 Q771.805 145.889 771.805 149.685 L771.805 164.338 L767.522 164.338 L767.522 138.412 L771.805 138.412 L771.805 142.44 Q773.333 140.102 775.393 138.944 Q777.476 137.787 780.184 137.787 Q784.652 137.787 786.944 140.565 Q789.235 143.319 789.235 148.689 Z" fill="#000000" fill-rule="evenodd" fill-opacity="1" /><path clip-path="url(#clip880)" d="M814.791 151.074 Q814.791 146.444 812.869 143.898 Q810.971 141.352 807.522 141.352 Q804.096 141.352 802.175 143.898 Q800.277 146.444 800.277 151.074 Q800.277 155.68 802.175 158.226 Q804.096 160.773 807.522 160.773 Q810.971 160.773 812.869 158.226 Q814.791 155.68 814.791 151.074 M819.05 161.12 Q819.05 167.74 816.11 170.958 Q813.17 174.199 807.105 174.199 Q804.86 174.199 802.869 173.851 Q800.879 173.527 799.004 172.833 L799.004 168.689 Q800.879 169.708 802.707 170.194 Q804.536 170.68 806.434 170.68 Q810.624 170.68 812.707 168.481 Q814.791 166.305 814.791 161.884 L814.791 159.777 Q813.471 162.069 811.411 163.203 Q809.351 164.338 806.48 164.338 Q801.712 164.338 798.795 160.703 Q795.879 157.069 795.879 151.074 Q795.879 145.055 798.795 141.421 Q801.712 137.787 806.48 137.787 Q809.351 137.787 811.411 138.921 Q813.471 140.055 814.791 142.347 L814.791 138.412 L819.05 138.412 L819.05 161.12 Z" fill="#000000" fill-rule="evenodd" fill-opacity="1" /><polyline clip-path="url(#clip880)" style="stroke:#ee6677; stroke-linecap:butt; stroke-linejoin:round; stroke-width:4; stroke-opacity:1; fill:none" points="
  288.357,198.898 432.385,198.898 
  "/>
<path clip-path="url(#clip880)" d="M456.39 181.618 L485.626 181.618 L485.626 185.553 L473.357 185.553 L473.357 216.178 L468.658 216.178 L468.658 185.553 L456.39 185.553 L456.39 181.618 Z" fill="#000000" fill-rule="evenodd" fill-opacity="1" /><path clip-path="url(#clip880)" d="M498.01 194.233 Q497.292 193.817 496.436 193.631 Q495.603 193.423 494.584 193.423 Q490.973 193.423 489.028 195.784 Q487.107 198.122 487.107 202.52 L487.107 216.178 L482.825 216.178 L482.825 190.252 L487.107 190.252 L487.107 194.28 Q488.45 191.918 490.603 190.784 Q492.755 189.627 495.834 189.627 Q496.274 189.627 496.806 189.696 Q497.339 189.743 497.987 189.858 L498.01 194.233 Z" fill="#000000" fill-rule="evenodd" fill-opacity="1" /><path clip-path="url(#clip880)" d="M523.612 202.15 L523.612 204.233 L504.028 204.233 Q504.306 208.631 506.667 210.946 Q509.052 213.238 513.288 213.238 Q515.741 213.238 518.033 212.636 Q520.348 212.034 522.616 210.83 L522.616 214.858 Q520.325 215.83 517.917 216.34 Q515.51 216.849 513.033 216.849 Q506.829 216.849 503.195 213.238 Q499.584 209.627 499.584 203.469 Q499.584 197.104 503.01 193.377 Q506.459 189.627 512.292 189.627 Q517.524 189.627 520.556 193.006 Q523.612 196.363 523.612 202.15 M519.352 200.9 Q519.306 197.405 517.385 195.321 Q515.487 193.238 512.339 193.238 Q508.774 193.238 506.621 195.252 Q504.491 197.266 504.167 200.923 L519.352 200.9 Z" fill="#000000" fill-rule="evenodd" fill-opacity="1" /><path clip-path="url(#clip880)" d="M552.153 200.529 L552.153 216.178 L547.894 216.178 L547.894 200.668 Q547.894 196.988 546.459 195.159 Q545.024 193.33 542.153 193.33 Q538.704 193.33 536.713 195.53 Q534.723 197.729 534.723 201.525 L534.723 216.178 L530.44 216.178 L530.44 190.252 L534.723 190.252 L534.723 194.28 Q536.25 191.942 538.311 190.784 Q540.394 189.627 543.102 189.627 Q547.57 189.627 549.861 192.405 Q552.153 195.159 552.153 200.529 Z" fill="#000000" fill-rule="evenodd" fill-opacity="1" /><path clip-path="url(#clip880)" d="M577.709 194.187 L577.709 180.159 L581.968 180.159 L581.968 216.178 L577.709 216.178 L577.709 212.289 Q576.366 214.603 574.306 215.738 Q572.269 216.849 569.398 216.849 Q564.699 216.849 561.736 213.099 Q558.797 209.349 558.797 203.238 Q558.797 197.127 561.736 193.377 Q564.699 189.627 569.398 189.627 Q572.269 189.627 574.306 190.761 Q576.366 191.872 577.709 194.187 M563.195 203.238 Q563.195 207.937 565.116 210.622 Q567.06 213.284 570.44 213.284 Q573.82 213.284 575.764 210.622 Q577.709 207.937 577.709 203.238 Q577.709 198.539 575.764 195.877 Q573.82 193.192 570.44 193.192 Q567.06 193.192 565.116 195.877 Q563.195 198.539 563.195 203.238 Z" fill="#000000" fill-rule="evenodd" fill-opacity="1" /><path clip-path="url(#clip880)" d="M605.995 181.618 L625.856 181.618 L625.856 185.553 L610.671 185.553 L610.671 195.738 L624.375 195.738 L624.375 199.673 L610.671 199.673 L610.671 216.178 L605.995 216.178 L605.995 181.618 Z" fill="#000000" fill-rule="evenodd" fill-opacity="1" /><path clip-path="url(#clip880)" d="M641.435 193.238 Q638.009 193.238 636.018 195.923 Q634.028 198.585 634.028 203.238 Q634.028 207.891 635.995 210.576 Q637.986 213.238 641.435 213.238 Q644.838 213.238 646.829 210.553 Q648.819 207.867 648.819 203.238 Q648.819 198.631 646.829 195.946 Q644.838 193.238 641.435 193.238 M641.435 189.627 Q646.991 189.627 650.162 193.238 Q653.333 196.849 653.333 203.238 Q653.333 209.604 650.162 213.238 Q646.991 216.849 641.435 216.849 Q635.856 216.849 632.685 213.238 Q629.537 209.604 629.537 203.238 Q629.537 196.849 632.685 193.238 Q635.856 189.627 641.435 189.627 Z" fill="#000000" fill-rule="evenodd" fill-opacity="1" /><path clip-path="url(#clip880)" d="M660.393 180.159 L664.653 180.159 L664.653 216.178 L660.393 216.178 L660.393 180.159 Z" fill="#000000" fill-rule="evenodd" fill-opacity="1" /><path clip-path="url(#clip880)" d="M673.565 180.159 L677.824 180.159 L677.824 216.178 L673.565 216.178 L673.565 180.159 Z" fill="#000000" fill-rule="evenodd" fill-opacity="1" /><path clip-path="url(#clip880)" d="M696.782 193.238 Q693.356 193.238 691.365 195.923 Q689.375 198.585 689.375 203.238 Q689.375 207.891 691.342 210.576 Q693.333 213.238 696.782 213.238 Q700.185 213.238 702.175 210.553 Q704.166 207.867 704.166 203.238 Q704.166 198.631 702.175 195.946 Q700.185 193.238 696.782 193.238 M696.782 189.627 Q702.338 189.627 705.509 193.238 Q708.68 196.849 708.68 203.238 Q708.68 209.604 705.509 213.238 Q702.338 216.849 696.782 216.849 Q691.203 216.849 688.032 213.238 Q684.884 209.604 684.884 203.238 Q684.884 196.849 688.032 193.238 Q691.203 189.627 696.782 189.627 Z" fill="#000000" fill-rule="evenodd" fill-opacity="1" /><path clip-path="url(#clip880)" d="M713.263 190.252 L717.523 190.252 L722.847 210.483 L728.148 190.252 L733.171 190.252 L738.495 210.483 L743.796 190.252 L748.055 190.252 L741.272 216.178 L736.249 216.178 L730.671 194.928 L725.069 216.178 L720.046 216.178 L713.263 190.252 Z" fill="#000000" fill-rule="evenodd" fill-opacity="1" /><path clip-path="url(#clip880)" d="M754.513 190.252 L758.772 190.252 L758.772 216.178 L754.513 216.178 L754.513 190.252 M754.513 180.159 L758.772 180.159 L758.772 185.553 L754.513 185.553 L754.513 180.159 Z" fill="#000000" fill-rule="evenodd" fill-opacity="1" /><path clip-path="url(#clip880)" d="M789.235 200.529 L789.235 216.178 L784.976 216.178 L784.976 200.668 Q784.976 196.988 783.541 195.159 Q782.106 193.33 779.235 193.33 Q775.786 193.33 773.795 195.53 Q771.805 197.729 771.805 201.525 L771.805 216.178 L767.522 216.178 L767.522 190.252 L771.805 190.252 L771.805 194.28 Q773.333 191.942 775.393 190.784 Q777.476 189.627 780.184 189.627 Q784.652 189.627 786.944 192.405 Q789.235 195.159 789.235 200.529 Z" fill="#000000" fill-rule="evenodd" fill-opacity="1" /><path clip-path="url(#clip880)" d="M814.791 202.914 Q814.791 198.284 812.869 195.738 Q810.971 193.192 807.522 193.192 Q804.096 193.192 802.175 195.738 Q800.277 198.284 800.277 202.914 Q800.277 207.52 802.175 210.066 Q804.096 212.613 807.522 212.613 Q810.971 212.613 812.869 210.066 Q814.791 207.52 814.791 202.914 M819.05 212.96 Q819.05 219.58 816.11 222.798 Q813.17 226.039 807.105 226.039 Q804.86 226.039 802.869 225.691 Q800.879 225.367 799.004 224.673 L799.004 220.529 Q800.879 221.548 802.707 222.034 Q804.536 222.52 806.434 222.52 Q810.624 222.52 812.707 220.321 Q814.791 218.145 814.791 213.724 L814.791 211.617 Q813.471 213.909 811.411 215.043 Q809.351 216.178 806.48 216.178 Q801.712 216.178 798.795 212.543 Q795.879 208.909 795.879 202.914 Q795.879 196.895 798.795 193.261 Q801.712 189.627 806.48 189.627 Q809.351 189.627 811.411 190.761 Q813.471 191.895 814.791 194.187 L814.791 190.252 L819.05 190.252 L819.05 212.96 Z" fill="#000000" fill-rule="evenodd" fill-opacity="1" /><path clip-path="url(#clip880)" d="M840.74 201.293 L853.216 201.293 L853.216 205.09 L840.74 205.09 L840.74 201.293 Z" fill="#000000" fill-rule="evenodd" fill-opacity="1" /><path clip-path="url(#clip880)" d="M875.253 181.618 L879.929 181.618 L879.929 212.242 L896.758 212.242 L896.758 216.178 L875.253 216.178 L875.253 181.618 Z" fill="#000000" fill-rule="evenodd" fill-opacity="1" /><path clip-path="url(#clip880)" d="M914.003 184.789 Q908.91 184.789 905.901 188.585 Q902.915 192.381 902.915 198.932 Q902.915 205.46 905.901 209.256 Q908.91 213.053 914.003 213.053 Q919.096 213.053 922.059 209.256 Q925.045 205.46 925.045 198.932 Q925.045 192.381 922.059 188.585 Q919.096 184.789 914.003 184.789 M914.003 180.993 Q921.272 180.993 925.623 185.877 Q929.975 190.738 929.975 198.932 Q929.975 207.104 925.623 211.988 Q921.272 216.849 914.003 216.849 Q906.711 216.849 902.336 211.988 Q897.985 207.127 897.985 198.932 Q897.985 190.738 902.336 185.877 Q906.711 180.993 914.003 180.993 Z" fill="#000000" fill-rule="evenodd" fill-opacity="1" /><polyline clip-path="url(#clip880)" style="stroke:#228833; stroke-linecap:butt; stroke-linejoin:round; stroke-width:4; stroke-opacity:1; fill:none" points="
  288.357,250.738 432.385,250.738 
  "/>
<path clip-path="url(#clip880)" d="M461.066 251.513 L461.066 264.175 L468.566 264.175 Q472.339 264.175 474.144 262.624 Q475.973 261.05 475.973 257.832 Q475.973 254.592 474.144 253.064 Q472.339 251.513 468.566 251.513 L461.066 251.513 M461.066 237.3 L461.066 247.717 L467.987 247.717 Q471.413 247.717 473.079 246.444 Q474.769 245.147 474.769 242.508 Q474.769 239.893 473.079 238.596 Q471.413 237.3 467.987 237.3 L461.066 237.3 M456.39 233.458 L468.334 233.458 Q473.681 233.458 476.575 235.68 Q479.468 237.902 479.468 241.999 Q479.468 245.17 477.987 247.045 Q476.505 248.92 473.635 249.383 Q477.084 250.124 478.982 252.485 Q480.904 254.823 480.904 258.342 Q480.904 262.971 477.755 265.494 Q474.607 268.018 468.797 268.018 L456.39 268.018 L456.39 233.458 Z" fill="#000000" fill-rule="evenodd" fill-opacity="1" /><path clip-path="url(#clip880)" d="M488.913 233.458 L495.209 233.458 L510.533 262.369 L510.533 233.458 L515.07 233.458 L515.07 268.018 L508.774 268.018 L493.45 239.106 L493.45 268.018 L488.913 268.018 L488.913 233.458 Z" fill="#000000" fill-rule="evenodd" fill-opacity="1" /><path clip-path="url(#clip880)" d="M529.051 237.3 L529.051 264.175 L534.7 264.175 Q541.852 264.175 545.162 260.934 Q548.496 257.694 548.496 250.703 Q548.496 243.758 545.162 240.541 Q541.852 237.3 534.7 237.3 L529.051 237.3 M524.376 233.458 L533.982 233.458 Q544.028 233.458 548.727 237.647 Q553.426 241.814 553.426 250.703 Q553.426 259.638 548.704 263.828 Q543.982 268.018 533.982 268.018 L524.376 268.018 L524.376 233.458 Z" fill="#000000" fill-rule="evenodd" fill-opacity="1" /><polyline clip-path="url(#clip880)" style="stroke:#ccbb44; stroke-linecap:butt; stroke-linejoin:round; stroke-width:4; stroke-opacity:1; fill:none" points="
  288.357,302.578 432.385,302.578 
  "/>
<path clip-path="url(#clip880)" d="M481.945 314.927 L481.945 305.645 L474.306 305.645 L474.306 301.802 L486.575 301.802 L486.575 316.64 Q483.866 318.561 480.603 319.557 Q477.339 320.529 473.635 320.529 Q465.533 320.529 460.95 315.807 Q456.39 311.061 456.39 302.612 Q456.39 294.14 460.95 289.418 Q465.533 284.673 473.635 284.673 Q477.015 284.673 480.047 285.506 Q483.103 286.339 485.672 287.96 L485.672 292.936 Q483.079 290.737 480.163 289.626 Q477.246 288.515 474.029 288.515 Q467.686 288.515 464.492 292.057 Q461.32 295.598 461.32 302.612 Q461.32 309.603 464.492 313.145 Q467.686 316.686 474.029 316.686 Q476.505 316.686 478.45 316.27 Q480.394 315.83 481.945 314.927 Z" fill="#000000" fill-rule="evenodd" fill-opacity="1" /><path clip-path="url(#clip880)" d="M495.116 285.298 L499.792 285.298 L499.792 315.922 L516.621 315.922 L516.621 319.858 L495.116 319.858 L495.116 285.298 Z" fill="#000000" fill-rule="evenodd" fill-opacity="1" /><path clip-path="url(#clip880)" d="M526.204 289.14 L526.204 316.015 L531.852 316.015 Q539.005 316.015 542.315 312.774 Q545.649 309.534 545.649 302.543 Q545.649 295.598 542.315 292.381 Q539.005 289.14 531.852 289.14 L526.204 289.14 M521.528 285.298 L531.135 285.298 Q541.181 285.298 545.88 289.487 Q550.579 293.654 550.579 302.543 Q550.579 311.478 545.857 315.668 Q541.135 319.858 531.135 319.858 L521.528 319.858 L521.528 285.298 Z" fill="#000000" fill-rule="evenodd" fill-opacity="1" /><polyline clip-path="url(#clip880)" style="stroke:#66ccee; stroke-linecap:butt; stroke-linejoin:round; stroke-width:4; stroke-opacity:1; fill:none" points="
  288.357,354.418 432.385,354.418 
  "/>
<path clip-path="url(#clip880)" d="M478.635 338.272 L478.635 342.832 Q475.973 341.559 473.612 340.934 Q471.251 340.309 469.052 340.309 Q465.232 340.309 463.149 341.79 Q461.089 343.272 461.089 346.003 Q461.089 348.295 462.455 349.475 Q463.843 350.633 467.686 351.35 L470.51 351.929 Q475.742 352.925 478.218 355.448 Q480.718 357.948 480.718 362.161 Q480.718 367.184 477.339 369.776 Q473.982 372.369 467.478 372.369 Q465.024 372.369 462.246 371.813 Q459.492 371.258 456.529 370.17 L456.529 365.355 Q459.376 366.952 462.107 367.762 Q464.839 368.573 467.478 368.573 Q471.482 368.573 473.658 366.999 Q475.834 365.424 475.834 362.508 Q475.834 359.962 474.26 358.526 Q472.709 357.091 469.144 356.374 L466.297 355.818 Q461.066 354.776 458.728 352.554 Q456.39 350.332 456.39 346.374 Q456.39 341.79 459.607 339.151 Q462.848 336.513 468.519 336.513 Q470.95 336.513 473.473 336.952 Q475.996 337.392 478.635 338.272 Z" fill="#000000" fill-rule="evenodd" fill-opacity="1" /><path clip-path="url(#clip880)" d="M492.686 340.98 L492.686 353.966 L498.565 353.966 Q501.829 353.966 503.612 352.276 Q505.394 350.587 505.394 347.462 Q505.394 344.36 503.612 342.67 Q501.829 340.98 498.565 340.98 L492.686 340.98 M488.01 337.138 L498.565 337.138 Q504.376 337.138 507.339 339.776 Q510.325 342.392 510.325 347.462 Q510.325 352.577 507.339 355.193 Q504.376 357.809 498.565 357.809 L492.686 357.809 L492.686 371.698 L488.01 371.698 L488.01 337.138 Z" fill="#000000" fill-rule="evenodd" fill-opacity="1" /><path clip-path="url(#clip880)" d="M510.811 337.138 L515.834 337.138 L525.417 351.35 L534.931 337.138 L539.954 337.138 L527.732 355.239 L527.732 371.698 L523.033 371.698 L523.033 355.239 L510.811 337.138 Z" fill="#000000" fill-rule="evenodd" fill-opacity="1" /></svg>
