<?xml version="1.0" encoding="utf-8"?>
<svg xmlns="http://www.w3.org/2000/svg" xmlns:xlink="http://www.w3.org/1999/xlink" width="600" height="400" viewBox="0 0 2400 1600">
<defs>
  <clipPath id="clip400">
    <rect x="0" y="0" width="2400" height="1600"/>
  </clipPath>
</defs>
<path clip-path="url(#clip400)" d="
M0 1600 L2400 1600 L2400 0 L0 0  Z
  " fill="#ffffff" fill-rule="evenodd" fill-opacity="1"/>
<defs>
  <clipPath id="clip401">
    <rect x="480" y="0" width="1681" height="1600"/>
  </clipPath>
</defs>
<path clip-path="url(#clip400)" d="
M274.676 1486.45 L2352.76 1486.45 L2352.76 47.2441 L274.676 47.2441  Z
  " fill="#ffffff" fill-rule="evenodd" fill-opacity="1"/>
<defs>
  <clipPath id="clip402">
    <rect x="274" y="47" width="2079" height="1440"/>
  </clipPath>
</defs>
<polyline clip-path="url(#clip402)" style="stroke:#000000; stroke-linecap:butt; stroke-linejoin:round; stroke-width:2; stroke-opacity:0.1; fill:none" points="
  333.508,1486.45 333.508,47.2441 
  "/>
<polyline clip-path="url(#clip402)" style="stroke:#000000; stroke-linecap:butt; stroke-linejoin:round; stroke-width:2; stroke-opacity:0.1; fill:none" points="
  869.147,1486.45 869.147,47.2441 
  "/>
<polyline clip-path="url(#clip402)" style="stroke:#000000; stroke-linecap:butt; stroke-linejoin:round; stroke-width:2; stroke-opacity:0.1; fill:none" points="
  1404.79,1486.45 1404.79,47.2441 
  "/>
<polyline clip-path="url(#clip402)" style="stroke:#000000; stroke-linecap:butt; stroke-linejoin:round; stroke-width:2; stroke-opacity:0.1; fill:none" points="
  1940.42,1486.45 1940.42,47.2441 
  "/>
<polyline clip-path="url(#clip400)" style="stroke:#000000; stroke-linecap:butt; stroke-linejoin:round; stroke-width:4; stroke-opacity:1; fill:none" points="
  274.677,1486.45 2352.76,1486.45 
  "/>
<polyline clip-path="url(#clip400)" style="stroke:#000000; stroke-linecap:butt; stroke-linejoin:round; stroke-width:4; stroke-opacity:1; fill:none" points="
  333.508,1486.45 333.508,1467.55 
  "/>
<polyline clip-path="url(#clip400)" style="stroke:#000000; stroke-linecap:butt; stroke-linejoin:round; stroke-width:4; stroke-opacity:1; fill:none" points="
  869.147,1486.45 869.147,1467.55 
  "/>
<polyline clip-path="url(#clip400)" style="stroke:#000000; stroke-linecap:butt; stroke-linejoin:round; stroke-width:4; stroke-opacity:1; fill:none" points="
  1404.79,1486.45 1404.79,1467.55 
  "/>
<polyline clip-path="url(#clip400)" style="stroke:#000000; stroke-linecap:butt; stroke-linejoin:round; stroke-width:4; stroke-opacity:1; fill:none" points="
  1940.42,1486.45 1940.42,1467.55 
  "/>
<path clip-path="url(#clip400)" d="M179.574 1544.91 L187.213 1544.91 L187.213 1518.55 L178.903 1520.21 L178.903 1515.95 L187.166 1514.29 L191.842 1514.29 L191.842 1544.91 L199.481 1544.91 L199.481 1548.85 L179.574 1548.85 L179.574 1544.91 Z" fill="#000000" fill-rule="evenodd" fill-opacity="1" /><path clip-path="url(#clip400)" d="M208.972 1514.29 L227.328 1514.29 L227.328 1518.22 L213.254 1518.22 L213.254 1526.7 Q214.273 1526.35 215.291 1526.19 Q216.31 1526 217.328 1526 Q223.115 1526 226.495 1529.17 Q229.875 1532.34 229.875 1537.76 Q229.875 1543.34 226.402 1546.44 Q222.93 1549.52 216.611 1549.52 Q214.435 1549.52 212.166 1549.15 Q209.921 1548.78 207.514 1548.04 L207.514 1543.34 Q209.597 1544.47 211.819 1545.03 Q214.041 1545.58 216.518 1545.58 Q220.523 1545.58 222.861 1543.48 Q225.199 1541.37 225.199 1537.76 Q225.199 1534.15 222.861 1532.04 Q220.523 1529.94 216.518 1529.94 Q214.643 1529.94 212.768 1530.35 Q210.916 1530.77 208.972 1531.65 L208.972 1514.29 Z" fill="#000000" fill-rule="evenodd" fill-opacity="1" /><path clip-path="url(#clip400)" d="M239.574 1542.97 L244.458 1542.97 L244.458 1548.85 L239.574 1548.85 L239.574 1542.97 M239.574 1524.33 L244.458 1524.33 L244.458 1530.21 L239.574 1530.21 L239.574 1524.33 Z" fill="#000000" fill-rule="evenodd" fill-opacity="1" /><path clip-path="url(#clip400)" d="M265.06 1517.37 Q261.449 1517.37 259.62 1520.93 Q257.814 1524.47 257.814 1531.6 Q257.814 1538.71 259.62 1542.27 Q261.449 1545.82 265.06 1545.82 Q268.694 1545.82 270.499 1542.27 Q272.328 1538.71 272.328 1531.6 Q272.328 1524.47 270.499 1520.93 Q268.694 1517.37 265.06 1517.37 M265.06 1513.66 Q270.87 1513.66 273.925 1518.27 Q277.004 1522.85 277.004 1531.6 Q277.004 1540.33 273.925 1544.94 Q270.87 1549.52 265.06 1549.52 Q259.249 1549.52 256.171 1544.94 Q253.115 1540.33 253.115 1531.6 Q253.115 1522.85 256.171 1518.27 Q259.249 1513.66 265.06 1513.66 Z" fill="#000000" fill-rule="evenodd" fill-opacity="1" /><path clip-path="url(#clip400)" d="M295.221 1517.37 Q291.61 1517.37 289.782 1520.93 Q287.976 1524.47 287.976 1531.6 Q287.976 1538.71 289.782 1542.27 Q291.61 1545.82 295.221 1545.82 Q298.856 1545.82 300.661 1542.27 Q302.49 1538.71 302.49 1531.6 Q302.49 1524.47 300.661 1520.93 Q298.856 1517.37 295.221 1517.37 M295.221 1513.66 Q301.032 1513.66 304.087 1518.27 Q307.166 1522.85 307.166 1531.6 Q307.166 1540.33 304.087 1544.94 Q301.032 1549.52 295.221 1549.52 Q289.411 1549.52 286.333 1544.94 Q283.277 1540.33 283.277 1531.6 Q283.277 1522.85 286.333 1518.27 Q289.411 1513.66 295.221 1513.66 Z" fill="#000000" fill-rule="evenodd" fill-opacity="1" /><path clip-path="url(#clip400)" d="M315.87 1542.97 L320.754 1542.97 L320.754 1548.85 L315.87 1548.85 L315.87 1542.97 M315.87 1524.33 L320.754 1524.33 L320.754 1530.21 L315.87 1530.21 L315.87 1524.33 Z" fill="#000000" fill-rule="evenodd" fill-opacity="1" /><path clip-path="url(#clip400)" d="M341.355 1517.37 Q337.744 1517.37 335.916 1520.93 Q334.11 1524.47 334.11 1531.6 Q334.11 1538.71 335.916 1542.27 Q337.744 1545.82 341.355 1545.82 Q344.99 1545.82 346.795 1542.27 Q348.624 1538.71 348.624 1531.6 Q348.624 1524.47 346.795 1520.93 Q344.99 1517.37 341.355 1517.37 M341.355 1513.66 Q347.166 1513.66 350.221 1518.27 Q353.3 1522.85 353.3 1531.6 Q353.3 1540.33 350.221 1544.94 Q347.166 1549.52 341.355 1549.52 Q335.545 1549.52 332.467 1544.94 Q329.411 1540.33 329.411 1531.6 Q329.411 1522.85 332.467 1518.27 Q335.545 1513.66 341.355 1513.66 Z" fill="#000000" fill-rule="evenodd" fill-opacity="1" /><path clip-path="url(#clip400)" d="M371.517 1517.37 Q367.906 1517.37 366.078 1520.93 Q364.272 1524.47 364.272 1531.6 Q364.272 1538.71 366.078 1542.27 Q367.906 1545.82 371.517 1545.82 Q375.152 1545.82 376.957 1542.27 Q378.786 1538.71 378.786 1531.6 Q378.786 1524.47 376.957 1520.93 Q375.152 1517.37 371.517 1517.37 M371.517 1513.66 Q377.328 1513.66 380.383 1518.27 Q383.462 1522.85 383.462 1531.6 Q383.462 1540.33 380.383 1544.94 Q377.328 1549.52 371.517 1549.52 Q365.707 1549.52 362.629 1544.94 Q359.573 1540.33 359.573 1531.6 Q359.573 1522.85 362.629 1518.27 Q365.707 1513.66 371.517 1513.66 Z" fill="#000000" fill-rule="evenodd" fill-opacity="1" /><path clip-path="url(#clip400)" d="M391.679 1542.97 L396.564 1542.97 L396.564 1548.85 L391.679 1548.85 L391.679 1542.97 Z" fill="#000000" fill-rule="evenodd" fill-opacity="1" /><path clip-path="url(#clip400)" d="M416.749 1517.37 Q413.138 1517.37 411.309 1520.93 Q409.503 1524.47 409.503 1531.6 Q409.503 1538.71 411.309 1542.27 Q413.138 1545.82 416.749 1545.82 Q420.383 1545.82 422.188 1542.27 Q424.017 1538.71 424.017 1531.6 Q424.017 1524.47 422.188 1520.93 Q420.383 1517.37 416.749 1517.37 M416.749 1513.66 Q422.559 1513.66 425.614 1518.27 Q428.693 1522.85 428.693 1531.6 Q428.693 1540.33 425.614 1544.94 Q422.559 1549.52 416.749 1549.52 Q410.938 1549.52 407.86 1544.94 Q404.804 1540.33 404.804 1531.6 Q404.804 1522.85 407.86 1518.27 Q410.938 1513.66 416.749 1513.66 Z" fill="#000000" fill-rule="evenodd" fill-opacity="1" /><path clip-path="url(#clip400)" d="M446.91 1517.37 Q443.299 1517.37 441.471 1520.93 Q439.665 1524.47 439.665 1531.6 Q439.665 1538.71 441.471 1542.27 Q443.299 1545.82 446.91 1545.82 Q450.545 1545.82 452.35 1542.27 Q454.179 1538.71 454.179 1531.6 Q454.179 1524.47 452.35 1520.93 Q450.545 1517.37 446.91 1517.37 M446.91 1513.66 Q452.721 1513.66 455.776 1518.27 Q458.855 1522.85 458.855 1531.6 Q458.855 1540.33 455.776 1544.94 Q452.721 1549.52 446.91 1549.52 Q441.1 1549.52 438.022 1544.94 Q434.966 1540.33 434.966 1531.6 Q434.966 1522.85 438.022 1518.27 Q441.1 1513.66 446.91 1513.66 Z" fill="#000000" fill-rule="evenodd" fill-opacity="1" /><path clip-path="url(#clip400)" d="M465.892 1514.29 L488.114 1514.29 L488.114 1516.28 L475.568 1548.85 L470.683 1548.85 L482.489 1518.22 L465.892 1518.22 L465.892 1514.29 Z" fill="#000000" fill-rule="evenodd" fill-opacity="1" /><path clip-path="url(#clip400)" d="M715.212 1544.91 L722.851 1544.91 L722.851 1518.55 L714.541 1520.21 L714.541 1515.95 L722.805 1514.29 L727.481 1514.29 L727.481 1544.91 L735.12 1544.91 L735.12 1548.85 L715.212 1548.85 L715.212 1544.91 Z" fill="#000000" fill-rule="evenodd" fill-opacity="1" /><path clip-path="url(#clip400)" d="M744.61 1514.29 L762.967 1514.29 L762.967 1518.22 L748.893 1518.22 L748.893 1526.7 Q749.911 1526.35 750.93 1526.19 Q751.948 1526 752.967 1526 Q758.754 1526 762.133 1529.17 Q765.513 1532.34 765.513 1537.76 Q765.513 1543.34 762.041 1546.44 Q758.569 1549.52 752.249 1549.52 Q750.073 1549.52 747.805 1549.15 Q745.559 1548.78 743.152 1548.04 L743.152 1543.34 Q745.235 1544.47 747.458 1545.03 Q749.68 1545.58 752.157 1545.58 Q756.161 1545.58 758.499 1543.48 Q760.837 1541.37 760.837 1537.76 Q760.837 1534.15 758.499 1532.04 Q756.161 1529.94 752.157 1529.94 Q750.282 1529.94 748.407 1530.35 Q746.555 1530.77 744.61 1531.65 L744.61 1514.29 Z" fill="#000000" fill-rule="evenodd" fill-opacity="1" /><path clip-path="url(#clip400)" d="M775.212 1542.97 L780.096 1542.97 L780.096 1548.85 L775.212 1548.85 L775.212 1542.97 M775.212 1524.33 L780.096 1524.33 L780.096 1530.21 L775.212 1530.21 L775.212 1524.33 Z" fill="#000000" fill-rule="evenodd" fill-opacity="1" /><path clip-path="url(#clip400)" d="M800.698 1517.37 Q797.087 1517.37 795.258 1520.93 Q793.453 1524.47 793.453 1531.6 Q793.453 1538.71 795.258 1542.27 Q797.087 1545.82 800.698 1545.82 Q804.332 1545.82 806.138 1542.27 Q807.967 1538.71 807.967 1531.6 Q807.967 1524.47 806.138 1520.93 Q804.332 1517.37 800.698 1517.37 M800.698 1513.66 Q806.508 1513.66 809.564 1518.27 Q812.642 1522.85 812.642 1531.6 Q812.642 1540.33 809.564 1544.94 Q806.508 1549.52 800.698 1549.52 Q794.888 1549.52 791.809 1544.94 Q788.754 1540.33 788.754 1531.6 Q788.754 1522.85 791.809 1518.27 Q794.888 1513.66 800.698 1513.66 Z" fill="#000000" fill-rule="evenodd" fill-opacity="1" /><path clip-path="url(#clip400)" d="M830.86 1517.37 Q827.249 1517.37 825.42 1520.93 Q823.615 1524.47 823.615 1531.6 Q823.615 1538.71 825.42 1542.27 Q827.249 1545.82 830.86 1545.82 Q834.494 1545.82 836.3 1542.27 Q838.128 1538.71 838.128 1531.6 Q838.128 1524.47 836.3 1520.93 Q834.494 1517.37 830.86 1517.37 M830.86 1513.66 Q836.67 1513.66 839.726 1518.27 Q842.804 1522.85 842.804 1531.6 Q842.804 1540.33 839.726 1544.94 Q836.67 1549.52 830.86 1549.52 Q825.05 1549.52 821.971 1544.94 Q818.916 1540.33 818.916 1531.6 Q818.916 1522.85 821.971 1518.27 Q825.05 1513.66 830.86 1513.66 Z" fill="#000000" fill-rule="evenodd" fill-opacity="1" /><path clip-path="url(#clip400)" d="M851.508 1542.97 L856.392 1542.97 L856.392 1548.85 L851.508 1548.85 L851.508 1542.97 M851.508 1524.33 L856.392 1524.33 L856.392 1530.21 L851.508 1530.21 L851.508 1524.33 Z" fill="#000000" fill-rule="evenodd" fill-opacity="1" /><path clip-path="url(#clip400)" d="M876.994 1517.37 Q873.383 1517.37 871.554 1520.93 Q869.749 1524.47 869.749 1531.6 Q869.749 1538.71 871.554 1542.27 Q873.383 1545.82 876.994 1545.82 Q880.628 1545.82 882.434 1542.27 Q884.262 1538.71 884.262 1531.6 Q884.262 1524.47 882.434 1520.93 Q880.628 1517.37 876.994 1517.37 M876.994 1513.66 Q882.804 1513.66 885.86 1518.27 Q888.938 1522.85 888.938 1531.6 Q888.938 1540.33 885.86 1544.94 Q882.804 1549.52 876.994 1549.52 Q871.184 1549.52 868.105 1544.94 Q865.05 1540.33 865.05 1531.6 Q865.05 1522.85 868.105 1518.27 Q871.184 1513.66 876.994 1513.66 Z" fill="#000000" fill-rule="evenodd" fill-opacity="1" /><path clip-path="url(#clip400)" d="M907.156 1517.37 Q903.545 1517.37 901.716 1520.93 Q899.91 1524.47 899.91 1531.6 Q899.91 1538.71 901.716 1542.27 Q903.545 1545.82 907.156 1545.82 Q910.79 1545.82 912.596 1542.27 Q914.424 1538.71 914.424 1531.6 Q914.424 1524.47 912.596 1520.93 Q910.79 1517.37 907.156 1517.37 M907.156 1513.66 Q912.966 1513.66 916.021 1518.27 Q919.1 1522.85 919.1 1531.6 Q919.1 1540.33 916.021 1544.94 Q912.966 1549.52 907.156 1549.52 Q901.346 1549.52 898.267 1544.94 Q895.211 1540.33 895.211 1531.6 Q895.211 1522.85 898.267 1518.27 Q901.346 1513.66 907.156 1513.66 Z" fill="#000000" fill-rule="evenodd" fill-opacity="1" /><path clip-path="url(#clip400)" d="M927.318 1542.97 L932.202 1542.97 L932.202 1548.85 L927.318 1548.85 L927.318 1542.97 Z" fill="#000000" fill-rule="evenodd" fill-opacity="1" /><path clip-path="url(#clip400)" d="M946.415 1544.91 L962.734 1544.91 L962.734 1548.85 L940.79 1548.85 L940.79 1544.91 Q943.452 1542.16 948.035 1537.53 Q952.642 1532.88 953.822 1531.53 Q956.068 1529.01 956.947 1527.27 Q957.85 1525.51 957.85 1523.82 Q957.85 1521.07 955.906 1519.33 Q953.984 1517.6 950.882 1517.6 Q948.683 1517.6 946.23 1518.36 Q943.799 1519.13 941.021 1520.68 L941.021 1515.95 Q943.845 1514.82 946.299 1514.24 Q948.753 1513.66 950.79 1513.66 Q956.16 1513.66 959.355 1516.35 Q962.549 1519.03 962.549 1523.52 Q962.549 1525.65 961.739 1527.57 Q960.952 1529.47 958.845 1532.07 Q958.267 1532.74 955.165 1535.95 Q952.063 1539.15 946.415 1544.91 Z" fill="#000000" fill-rule="evenodd" fill-opacity="1" /><path clip-path="url(#clip400)" d="M972.595 1514.29 L990.952 1514.29 L990.952 1518.22 L976.878 1518.22 L976.878 1526.7 Q977.896 1526.35 978.915 1526.19 Q979.933 1526 980.952 1526 Q986.739 1526 990.118 1529.17 Q993.498 1532.34 993.498 1537.76 Q993.498 1543.34 990.026 1546.44 Q986.554 1549.52 980.234 1549.52 Q978.058 1549.52 975.79 1549.15 Q973.544 1548.78 971.137 1548.04 L971.137 1543.34 Q973.22 1544.47 975.442 1545.03 Q977.665 1545.58 980.142 1545.58 Q984.146 1545.58 986.484 1543.48 Q988.822 1541.37 988.822 1537.76 Q988.822 1534.15 986.484 1532.04 Q984.146 1529.94 980.142 1529.94 Q978.267 1529.94 976.392 1530.35 Q974.54 1530.77 972.595 1531.65 L972.595 1514.29 Z" fill="#000000" fill-rule="evenodd" fill-opacity="1" /><path clip-path="url(#clip400)" d="M1001.53 1514.29 L1023.75 1514.29 L1023.75 1516.28 L1011.21 1548.85 L1006.32 1548.85 L1018.13 1518.22 L1001.53 1518.22 L1001.53 1514.29 Z" fill="#000000" fill-rule="evenodd" fill-opacity="1" /><path clip-path="url(#clip400)" d="M1250.85 1544.91 L1258.49 1544.91 L1258.49 1518.55 L1250.18 1520.21 L1250.18 1515.95 L1258.44 1514.29 L1263.12 1514.29 L1263.12 1544.91 L1270.76 1544.91 L1270.76 1548.85 L1250.85 1548.85 L1250.85 1544.91 Z" fill="#000000" fill-rule="evenodd" fill-opacity="1" /><path clip-path="url(#clip400)" d="M1280.25 1514.29 L1298.61 1514.29 L1298.61 1518.22 L1284.53 1518.22 L1284.53 1526.7 Q1285.55 1526.35 1286.57 1526.19 Q1287.59 1526 1288.61 1526 Q1294.39 1526 1297.77 1529.17 Q1301.15 1532.34 1301.15 1537.76 Q1301.15 1543.34 1297.68 1546.44 Q1294.21 1549.52 1287.89 1549.52 Q1285.71 1549.52 1283.44 1549.15 Q1281.2 1548.78 1278.79 1548.04 L1278.79 1543.34 Q1280.87 1544.47 1283.1 1545.03 Q1285.32 1545.58 1287.8 1545.58 Q1291.8 1545.58 1294.14 1543.48 Q1296.48 1541.37 1296.48 1537.76 Q1296.48 1534.15 1294.14 1532.04 Q1291.8 1529.94 1287.8 1529.94 Q1285.92 1529.94 1284.05 1530.35 Q1282.19 1530.77 1280.25 1531.65 L1280.25 1514.29 Z" fill="#000000" fill-rule="evenodd" fill-opacity="1" /><path clip-path="url(#clip400)" d="M1310.85 1542.97 L1315.73 1542.97 L1315.73 1548.85 L1310.85 1548.85 L1310.85 1542.97 M1310.85 1524.33 L1315.73 1524.33 L1315.73 1530.21 L1310.85 1530.21 L1310.85 1524.33 Z" fill="#000000" fill-rule="evenodd" fill-opacity="1" /><path clip-path="url(#clip400)" d="M1336.34 1517.37 Q1332.73 1517.37 1330.9 1520.93 Q1329.09 1524.47 1329.09 1531.6 Q1329.09 1538.71 1330.9 1542.27 Q1332.73 1545.82 1336.34 1545.82 Q1339.97 1545.82 1341.78 1542.27 Q1343.6 1538.71 1343.6 1531.6 Q1343.6 1524.47 1341.78 1520.93 Q1339.97 1517.37 1336.34 1517.37 M1336.34 1513.66 Q1342.15 1513.66 1345.2 1518.27 Q1348.28 1522.85 1348.28 1531.6 Q1348.28 1540.33 1345.2 1544.94 Q1342.15 1549.52 1336.34 1549.52 Q1330.53 1549.52 1327.45 1544.94 Q1324.39 1540.33 1324.39 1531.6 Q1324.39 1522.85 1327.45 1518.27 Q1330.53 1513.66 1336.34 1513.66 Z" fill="#000000" fill-rule="evenodd" fill-opacity="1" /><path clip-path="url(#clip400)" d="M1366.5 1517.37 Q1362.89 1517.37 1361.06 1520.93 Q1359.25 1524.47 1359.25 1531.6 Q1359.25 1538.71 1361.06 1542.27 Q1362.89 1545.82 1366.5 1545.82 Q1370.13 1545.82 1371.94 1542.27 Q1373.77 1538.71 1373.77 1531.6 Q1373.77 1524.47 1371.94 1520.93 Q1370.13 1517.37 1366.5 1517.37 M1366.5 1513.66 Q1372.31 1513.66 1375.36 1518.27 Q1378.44 1522.85 1378.44 1531.6 Q1378.44 1540.33 1375.36 1544.94 Q1372.31 1549.52 1366.5 1549.52 Q1360.69 1549.52 1357.61 1544.94 Q1354.55 1540.33 1354.55 1531.6 Q1354.55 1522.85 1357.61 1518.27 Q1360.69 1513.66 1366.5 1513.66 Z" fill="#000000" fill-rule="evenodd" fill-opacity="1" /><path clip-path="url(#clip400)" d="M1387.15 1542.97 L1392.03 1542.97 L1392.03 1548.85 L1387.15 1548.85 L1387.15 1542.97 M1387.15 1524.33 L1392.03 1524.33 L1392.03 1530.21 L1387.15 1530.21 L1387.15 1524.33 Z" fill="#000000" fill-rule="evenodd" fill-opacity="1" /><path clip-path="url(#clip400)" d="M1412.63 1517.37 Q1409.02 1517.37 1407.19 1520.93 Q1405.39 1524.47 1405.39 1531.6 Q1405.39 1538.71 1407.19 1542.27 Q1409.02 1545.82 1412.63 1545.82 Q1416.27 1545.82 1418.07 1542.27 Q1419.9 1538.71 1419.9 1531.6 Q1419.9 1524.47 1418.07 1520.93 Q1416.27 1517.37 1412.63 1517.37 M1412.63 1513.66 Q1418.44 1513.66 1421.5 1518.27 Q1424.58 1522.85 1424.58 1531.6 Q1424.58 1540.33 1421.5 1544.94 Q1418.44 1549.52 1412.63 1549.52 Q1406.82 1549.52 1403.74 1544.94 Q1400.69 1540.33 1400.69 1531.6 Q1400.69 1522.85 1403.74 1518.27 Q1406.82 1513.66 1412.63 1513.66 Z" fill="#000000" fill-rule="evenodd" fill-opacity="1" /><path clip-path="url(#clip400)" d="M1442.79 1517.37 Q1439.18 1517.37 1437.35 1520.93 Q1435.55 1524.47 1435.55 1531.6 Q1435.55 1538.71 1437.35 1542.27 Q1439.18 1545.82 1442.79 1545.82 Q1446.43 1545.82 1448.23 1542.27 Q1450.06 1538.71 1450.06 1531.6 Q1450.06 1524.47 1448.23 1520.93 Q1446.43 1517.37 1442.79 1517.37 M1442.79 1513.66 Q1448.6 1513.66 1451.66 1518.27 Q1454.74 1522.85 1454.74 1531.6 Q1454.74 1540.33 1451.66 1544.94 Q1448.6 1549.52 1442.79 1549.52 Q1436.98 1549.52 1433.91 1544.94 Q1430.85 1540.33 1430.85 1531.6 Q1430.85 1522.85 1433.91 1518.27 Q1436.98 1513.66 1442.79 1513.66 Z" fill="#000000" fill-rule="evenodd" fill-opacity="1" /><path clip-path="url(#clip400)" d="M1462.96 1542.97 L1467.84 1542.97 L1467.84 1548.85 L1462.96 1548.85 L1462.96 1542.97 Z" fill="#000000" fill-rule="evenodd" fill-opacity="1" /><path clip-path="url(#clip400)" d="M1478.07 1514.29 L1496.43 1514.29 L1496.43 1518.22 L1482.35 1518.22 L1482.35 1526.7 Q1483.37 1526.35 1484.39 1526.19 Q1485.41 1526 1486.43 1526 Q1492.22 1526 1495.59 1529.17 Q1498.97 1532.34 1498.97 1537.76 Q1498.97 1543.34 1495.5 1546.44 Q1492.03 1549.52 1485.71 1549.52 Q1483.53 1549.52 1481.27 1549.15 Q1479.02 1548.78 1476.61 1548.04 L1476.61 1543.34 Q1478.7 1544.47 1480.92 1545.03 Q1483.14 1545.58 1485.62 1545.58 Q1489.62 1545.58 1491.96 1543.48 Q1494.3 1541.37 1494.3 1537.76 Q1494.3 1534.15 1491.96 1532.04 Q1489.62 1529.94 1485.62 1529.94 Q1483.74 1529.94 1481.87 1530.35 Q1480.02 1530.77 1478.07 1531.65 L1478.07 1514.29 Z" fill="#000000" fill-rule="evenodd" fill-opacity="1" /><path clip-path="url(#clip400)" d="M1518.19 1517.37 Q1514.58 1517.37 1512.75 1520.93 Q1510.94 1524.47 1510.94 1531.6 Q1510.94 1538.71 1512.75 1542.27 Q1514.58 1545.82 1518.19 1545.82 Q1521.82 1545.82 1523.63 1542.27 Q1525.46 1538.71 1525.46 1531.6 Q1525.46 1524.47 1523.63 1520.93 Q1521.82 1517.37 1518.19 1517.37 M1518.19 1513.66 Q1524 1513.66 1527.05 1518.27 Q1530.13 1522.85 1530.13 1531.6 Q1530.13 1540.33 1527.05 1544.94 Q1524 1549.52 1518.19 1549.52 Q1512.38 1549.52 1509.3 1544.94 Q1506.24 1540.33 1506.24 1531.6 Q1506.24 1522.85 1509.3 1518.27 Q1512.38 1513.66 1518.19 1513.66 Z" fill="#000000" fill-rule="evenodd" fill-opacity="1" /><path clip-path="url(#clip400)" d="M1537.17 1514.29 L1559.39 1514.29 L1559.39 1516.28 L1546.84 1548.85 L1541.96 1548.85 L1553.77 1518.22 L1537.17 1518.22 L1537.17 1514.29 Z" fill="#000000" fill-rule="evenodd" fill-opacity="1" /><path clip-path="url(#clip400)" d="M1786.49 1544.91 L1794.13 1544.91 L1794.13 1518.55 L1785.82 1520.21 L1785.82 1515.95 L1794.08 1514.29 L1798.76 1514.29 L1798.76 1544.91 L1806.4 1544.91 L1806.4 1548.85 L1786.49 1548.85 L1786.49 1544.91 Z" fill="#000000" fill-rule="evenodd" fill-opacity="1" /><path clip-path="url(#clip400)" d="M1815.89 1514.29 L1834.24 1514.29 L1834.24 1518.22 L1820.17 1518.22 L1820.17 1526.7 Q1821.19 1526.35 1822.21 1526.19 Q1823.23 1526 1824.24 1526 Q1830.03 1526 1833.41 1529.17 Q1836.79 1532.34 1836.79 1537.76 Q1836.79 1543.34 1833.32 1546.44 Q1829.85 1549.52 1823.53 1549.52 Q1821.35 1549.52 1819.08 1549.15 Q1816.84 1548.78 1814.43 1548.04 L1814.43 1543.34 Q1816.51 1544.47 1818.73 1545.03 Q1820.96 1545.58 1823.43 1545.58 Q1827.44 1545.58 1829.78 1543.48 Q1832.11 1541.37 1832.11 1537.76 Q1832.11 1534.15 1829.78 1532.04 Q1827.44 1529.94 1823.43 1529.94 Q1821.56 1529.94 1819.68 1530.35 Q1817.83 1530.77 1815.89 1531.65 L1815.89 1514.29 Z" fill="#000000" fill-rule="evenodd" fill-opacity="1" /><path clip-path="url(#clip400)" d="M1846.49 1542.97 L1851.37 1542.97 L1851.37 1548.85 L1846.49 1548.85 L1846.49 1542.97 M1846.49 1524.33 L1851.37 1524.33 L1851.37 1530.21 L1846.49 1530.21 L1846.49 1524.33 Z" fill="#000000" fill-rule="evenodd" fill-opacity="1" /><path clip-path="url(#clip400)" d="M1871.97 1517.37 Q1868.36 1517.37 1866.54 1520.93 Q1864.73 1524.47 1864.73 1531.6 Q1864.73 1538.71 1866.54 1542.27 Q1868.36 1545.82 1871.97 1545.82 Q1875.61 1545.82 1877.41 1542.27 Q1879.24 1538.71 1879.24 1531.6 Q1879.24 1524.47 1877.41 1520.93 Q1875.61 1517.37 1871.97 1517.37 M1871.97 1513.66 Q1877.79 1513.66 1880.84 1518.27 Q1883.92 1522.85 1883.92 1531.6 Q1883.92 1540.33 1880.84 1544.94 Q1877.79 1549.52 1871.97 1549.52 Q1866.16 1549.52 1863.09 1544.94 Q1860.03 1540.33 1860.03 1531.6 Q1860.03 1522.85 1863.09 1518.27 Q1866.16 1513.66 1871.97 1513.66 Z" fill="#000000" fill-rule="evenodd" fill-opacity="1" /><path clip-path="url(#clip400)" d="M1902.14 1517.37 Q1898.53 1517.37 1896.7 1520.93 Q1894.89 1524.47 1894.89 1531.6 Q1894.89 1538.71 1896.7 1542.27 Q1898.53 1545.82 1902.14 1545.82 Q1905.77 1545.82 1907.58 1542.27 Q1909.41 1538.71 1909.41 1531.6 Q1909.41 1524.47 1907.58 1520.93 Q1905.77 1517.37 1902.14 1517.37 M1902.14 1513.66 Q1907.95 1513.66 1911 1518.27 Q1914.08 1522.85 1914.08 1531.6 Q1914.08 1540.33 1911 1544.94 Q1907.95 1549.52 1902.14 1549.52 Q1896.33 1549.52 1893.25 1544.94 Q1890.19 1540.33 1890.19 1531.6 Q1890.19 1522.85 1893.25 1518.27 Q1896.33 1513.66 1902.14 1513.66 Z" fill="#000000" fill-rule="evenodd" fill-opacity="1" /><path clip-path="url(#clip400)" d="M1922.78 1542.97 L1927.67 1542.97 L1927.67 1548.85 L1922.78 1548.85 L1922.78 1542.97 M1922.78 1524.33 L1927.67 1524.33 L1927.67 1530.21 L1922.78 1530.21 L1922.78 1524.33 Z" fill="#000000" fill-rule="evenodd" fill-opacity="1" /><path clip-path="url(#clip400)" d="M1948.27 1517.37 Q1944.66 1517.37 1942.83 1520.93 Q1941.03 1524.47 1941.03 1531.6 Q1941.03 1538.71 1942.83 1542.27 Q1944.66 1545.82 1948.27 1545.82 Q1951.91 1545.82 1953.71 1542.27 Q1955.54 1538.71 1955.54 1531.6 Q1955.54 1524.47 1953.71 1520.93 Q1951.91 1517.37 1948.27 1517.37 M1948.27 1513.66 Q1954.08 1513.66 1957.14 1518.27 Q1960.22 1522.85 1960.22 1531.6 Q1960.22 1540.33 1957.14 1544.94 Q1954.08 1549.52 1948.27 1549.52 Q1942.46 1549.52 1939.38 1544.94 Q1936.33 1540.33 1936.33 1531.6 Q1936.33 1522.85 1939.38 1518.27 Q1942.46 1513.66 1948.27 1513.66 Z" fill="#000000" fill-rule="evenodd" fill-opacity="1" /><path clip-path="url(#clip400)" d="M1978.43 1517.37 Q1974.82 1517.37 1972.99 1520.93 Q1971.19 1524.47 1971.19 1531.6 Q1971.19 1538.71 1972.99 1542.27 Q1974.82 1545.82 1978.43 1545.82 Q1982.07 1545.82 1983.87 1542.27 Q1985.7 1538.71 1985.7 1531.6 Q1985.7 1524.47 1983.87 1520.93 Q1982.07 1517.37 1978.43 1517.37 M1978.43 1513.66 Q1984.24 1513.66 1987.3 1518.27 Q1990.38 1522.85 1990.38 1531.6 Q1990.38 1540.33 1987.3 1544.94 Q1984.24 1549.52 1978.43 1549.52 Q1972.62 1549.52 1969.54 1544.94 Q1966.49 1540.33 1966.49 1531.6 Q1966.49 1522.85 1969.54 1518.27 Q1972.62 1513.66 1978.43 1513.66 Z" fill="#000000" fill-rule="evenodd" fill-opacity="1" /><path clip-path="url(#clip400)" d="M1998.59 1542.97 L2003.48 1542.97 L2003.48 1548.85 L1998.59 1548.85 L1998.59 1542.97 Z" fill="#000000" fill-rule="evenodd" fill-opacity="1" /><path clip-path="url(#clip400)" d="M2012.48 1514.29 L2034.71 1514.29 L2034.71 1516.28 L2022.16 1548.85 L2017.28 1548.85 L2029.08 1518.22 L2012.48 1518.22 L2012.48 1514.29 Z" fill="#000000" fill-rule="evenodd" fill-opacity="1" /><path clip-path="url(#clip400)" d="M2043.87 1514.29 L2062.23 1514.29 L2062.23 1518.22 L2048.15 1518.22 L2048.15 1526.7 Q2049.17 1526.35 2050.19 1526.19 Q2051.21 1526 2052.23 1526 Q2058.02 1526 2061.4 1529.17 Q2064.77 1532.34 2064.77 1537.76 Q2064.77 1543.34 2061.3 1546.44 Q2057.83 1549.52 2051.51 1549.52 Q2049.34 1549.52 2047.07 1549.15 Q2044.82 1548.78 2042.41 1548.04 L2042.41 1543.34 Q2044.5 1544.47 2046.72 1545.03 Q2048.94 1545.58 2051.42 1545.58 Q2055.42 1545.58 2057.76 1543.48 Q2060.1 1541.37 2060.1 1537.76 Q2060.1 1534.15 2057.76 1532.04 Q2055.42 1529.94 2051.42 1529.94 Q2049.54 1529.94 2047.67 1530.35 Q2045.82 1530.77 2043.87 1531.65 L2043.87 1514.29 Z" fill="#000000" fill-rule="evenodd" fill-opacity="1" /><path clip-path="url(#clip400)" d="M2072.81 1514.29 L2095.03 1514.29 L2095.03 1516.28 L2082.48 1548.85 L2077.6 1548.85 L2089.4 1518.22 L2072.81 1518.22 L2072.81 1514.29 Z" fill="#000000" fill-rule="evenodd" fill-opacity="1" /><polyline clip-path="url(#clip402)" style="stroke:#000000; stroke-linecap:butt; stroke-linejoin:round; stroke-width:2; stroke-opacity:0.1; fill:none" points="
  274.677,1377.83 2352.76,1377.83 
  "/>
<polyline clip-path="url(#clip402)" style="stroke:#000000; stroke-linecap:butt; stroke-linejoin:round; stroke-width:2; stroke-opacity:0.1; fill:none" points="
  274.677,1038.39 2352.76,1038.39 
  "/>
<polyline clip-path="url(#clip402)" style="stroke:#000000; stroke-linecap:butt; stroke-linejoin:round; stroke-width:2; stroke-opacity:0.1; fill:none" points="
  274.677,698.959 2352.76,698.959 
  "/>
<polyline clip-path="url(#clip402)" style="stroke:#000000; stroke-linecap:butt; stroke-linejoin:round; stroke-width:2; stroke-opacity:0.1; fill:none" points="
  274.677,359.524 2352.76,359.524 
  "/>
<polyline clip-path="url(#clip400)" style="stroke:#000000; stroke-linecap:butt; stroke-linejoin:round; stroke-width:4; stroke-opacity:1; fill:none" points="
  274.677,1486.45 274.677,47.2441 
  "/>
<polyline clip-path="url(#clip400)" style="stroke:#000000; stroke-linecap:butt; stroke-linejoin:round; stroke-width:4; stroke-opacity:1; fill:none" points="
  274.677,1377.83 293.573,1377.83 
  "/>
<polyline clip-path="url(#clip400)" style="stroke:#000000; stroke-linecap:butt; stroke-linejoin:round; stroke-width:4; stroke-opacity:1; fill:none" points="
  274.677,1038.39 293.573,1038.39 
  "/>
<polyline clip-path="url(#clip400)" style="stroke:#000000; stroke-linecap:butt; stroke-linejoin:round; stroke-width:4; stroke-opacity:1; fill:none" points="
  274.677,698.959 293.573,698.959 
  "/>
<polyline clip-path="url(#clip400)" style="stroke:#000000; stroke-linecap:butt; stroke-linejoin:round; stroke-width:4; stroke-opacity:1; fill:none" points="
  274.677,359.524 293.573,359.524 
  "/>
<path clip-path="url(#clip400)" d="M52.659 1391.17 L60.2978 1391.17 L60.2978 1364.81 L51.9877 1366.47 L51.9877 1362.22 L60.2515 1360.55 L64.9274 1360.55 L64.9274 1391.17 L72.5663 1391.17 L72.5663 1395.11 L52.659 1395.11 L52.659 1391.17 Z" fill="#000000" fill-rule="evenodd" fill-opacity="1" /><path clip-path="url(#clip400)" d="M92.5893 1375.97 Q89.4412 1375.97 87.5894 1378.12 Q85.7607 1380.27 85.7607 1384.02 Q85.7607 1387.75 87.5894 1389.92 Q89.4412 1392.08 92.5893 1392.08 Q95.7375 1392.08 97.5662 1389.92 Q99.418 1387.75 99.418 1384.02 Q99.418 1380.27 97.5662 1378.12 Q95.7375 1375.97 92.5893 1375.97 M101.872 1361.31 L101.872 1365.57 Q100.112 1364.74 98.3069 1364.3 Q96.5245 1363.86 94.7652 1363.86 Q90.1356 1363.86 87.682 1366.98 Q85.2514 1370.11 84.9042 1376.43 Q86.2699 1374.41 88.3301 1373.35 Q90.3903 1372.26 92.8671 1372.26 Q98.0754 1372.26 101.085 1375.43 Q104.117 1378.58 104.117 1384.02 Q104.117 1389.34 100.969 1392.56 Q97.8208 1395.78 92.5893 1395.78 Q86.594 1395.78 83.4227 1391.2 Q80.2514 1386.59 80.2514 1377.86 Q80.2514 1369.67 84.1403 1364.81 Q88.0292 1359.92 94.5801 1359.92 Q96.3393 1359.92 98.1217 1360.27 Q99.9273 1360.62 101.872 1361.31 Z" fill="#000000" fill-rule="evenodd" fill-opacity="1" /><path clip-path="url(#clip400)" d="M126.339 1376.47 Q129.696 1377.19 131.571 1379.46 Q133.469 1381.73 133.469 1385.06 Q133.469 1390.18 129.95 1392.98 Q126.432 1395.78 119.95 1395.78 Q117.774 1395.78 115.46 1395.34 Q113.168 1394.92 110.714 1394.07 L110.714 1389.55 Q112.659 1390.69 114.973 1391.27 Q117.288 1391.84 119.811 1391.84 Q124.21 1391.84 126.501 1390.11 Q128.816 1388.37 128.816 1385.06 Q128.816 1382.01 126.663 1380.29 Q124.534 1378.56 120.714 1378.56 L116.686 1378.56 L116.686 1374.72 L120.899 1374.72 Q124.348 1374.72 126.177 1373.35 Q128.006 1371.96 128.006 1369.37 Q128.006 1366.71 126.108 1365.29 Q124.233 1363.86 120.714 1363.86 Q118.793 1363.86 116.594 1364.28 Q114.395 1364.69 111.756 1365.57 L111.756 1361.41 Q114.418 1360.66 116.733 1360.29 Q119.071 1359.92 121.131 1359.92 Q126.455 1359.92 129.557 1362.35 Q132.659 1364.76 132.659 1368.88 Q132.659 1371.75 131.015 1373.74 Q129.372 1375.71 126.339 1376.47 Z" fill="#000000" fill-rule="evenodd" fill-opacity="1" /><path clip-path="url(#clip400)" d="M142.334 1389.23 L147.219 1389.23 L147.219 1395.11 L142.334 1395.11 L142.334 1389.23 Z" fill="#000000" fill-rule="evenodd" fill-opacity="1" /><path clip-path="url(#clip400)" d="M167.404 1363.63 Q163.793 1363.63 161.964 1367.19 Q160.158 1370.73 160.158 1377.86 Q160.158 1384.97 161.964 1388.53 Q163.793 1392.08 167.404 1392.08 Q171.038 1392.08 172.844 1388.53 Q174.672 1384.97 174.672 1377.86 Q174.672 1370.73 172.844 1367.19 Q171.038 1363.63 167.404 1363.63 M167.404 1359.92 Q173.214 1359.92 176.269 1364.53 Q179.348 1369.11 179.348 1377.86 Q179.348 1386.59 176.269 1391.2 Q173.214 1395.78 167.404 1395.78 Q161.594 1395.78 158.515 1391.2 Q155.459 1386.59 155.459 1377.86 Q155.459 1369.11 158.515 1364.53 Q161.594 1359.92 167.404 1359.92 Z" fill="#000000" fill-rule="evenodd" fill-opacity="1" /><path clip-path="url(#clip400)" d="M191.593 1391.17 L207.913 1391.17 L207.913 1395.11 L185.968 1395.11 L185.968 1391.17 Q188.63 1388.42 193.214 1383.79 Q197.82 1379.14 199.001 1377.79 Q201.246 1375.27 202.126 1373.53 Q203.029 1371.78 203.029 1370.09 Q203.029 1367.33 201.084 1365.59 Q199.163 1363.86 196.061 1363.86 Q193.862 1363.86 191.408 1364.62 Q188.978 1365.39 186.2 1366.94 L186.2 1362.22 Q189.024 1361.08 191.478 1360.5 Q193.931 1359.92 195.968 1359.92 Q201.339 1359.92 204.533 1362.61 Q207.728 1365.29 207.728 1369.78 Q207.728 1371.91 206.917 1373.84 Q206.13 1375.73 204.024 1378.33 Q203.445 1379 200.343 1382.22 Q197.242 1385.41 191.593 1391.17 Z" fill="#000000" fill-rule="evenodd" fill-opacity="1" /><path clip-path="url(#clip400)" d="M217.774 1360.55 L236.13 1360.55 L236.13 1364.48 L222.056 1364.48 L222.056 1372.96 Q223.075 1372.61 224.093 1372.45 Q225.112 1372.26 226.13 1372.26 Q231.917 1372.26 235.297 1375.43 Q238.677 1378.6 238.677 1384.02 Q238.677 1389.6 235.204 1392.7 Q231.732 1395.78 225.413 1395.78 Q223.237 1395.78 220.968 1395.41 Q218.723 1395.04 216.316 1394.3 L216.316 1389.6 Q218.399 1390.73 220.621 1391.29 Q222.843 1391.84 225.32 1391.84 Q229.325 1391.84 231.663 1389.74 Q234.001 1387.63 234.001 1384.02 Q234.001 1380.41 231.663 1378.3 Q229.325 1376.2 225.32 1376.2 Q223.445 1376.2 221.57 1376.61 Q219.718 1377.03 217.774 1377.91 L217.774 1360.55 Z" fill="#000000" fill-rule="evenodd" fill-opacity="1" /><path clip-path="url(#clip400)" d="M51.6636 1051.74 L59.3025 1051.74 L59.3025 1025.37 L50.9923 1027.04 L50.9923 1022.78 L59.2562 1021.11 L63.9321 1021.11 L63.9321 1051.74 L71.5709 1051.74 L71.5709 1055.67 L51.6636 1055.67 L51.6636 1051.74 Z" fill="#000000" fill-rule="evenodd" fill-opacity="1" /><path clip-path="url(#clip400)" d="M91.594 1036.53 Q88.4458 1036.53 86.594 1038.68 Q84.7653 1040.84 84.7653 1044.59 Q84.7653 1048.31 86.594 1050.49 Q88.4458 1052.64 91.594 1052.64 Q94.7421 1052.64 96.5708 1050.49 Q98.4226 1048.31 98.4226 1044.59 Q98.4226 1040.84 96.5708 1038.68 Q94.7421 1036.53 91.594 1036.53 M100.876 1021.88 L100.876 1026.14 Q99.1171 1025.3 97.3115 1024.86 Q95.5291 1024.42 93.7699 1024.42 Q89.1403 1024.42 86.6866 1027.55 Q84.256 1030.67 83.9088 1036.99 Q85.2746 1034.98 87.3347 1033.91 Q89.3949 1032.83 91.8717 1032.83 Q97.0801 1032.83 100.089 1036 Q103.122 1039.15 103.122 1044.59 Q103.122 1049.91 99.9736 1053.13 Q96.8254 1056.35 91.594 1056.35 Q85.5986 1056.35 82.4274 1051.76 Q79.2561 1047.16 79.2561 1038.43 Q79.2561 1030.23 83.1449 1025.37 Q87.0338 1020.49 93.5847 1020.49 Q95.3439 1020.49 97.1263 1020.84 Q98.9319 1021.18 100.876 1021.88 Z" fill="#000000" fill-rule="evenodd" fill-opacity="1" /><path clip-path="url(#clip400)" d="M125.344 1037.04 Q128.7 1037.76 130.575 1040.03 Q132.473 1042.29 132.473 1045.63 Q132.473 1050.74 128.955 1053.54 Q125.436 1056.35 118.955 1056.35 Q116.779 1056.35 114.464 1055.91 Q112.173 1055.49 109.719 1054.63 L109.719 1050.12 Q111.663 1051.25 113.978 1051.83 Q116.293 1052.41 118.816 1052.41 Q123.214 1052.41 125.506 1050.67 Q127.821 1048.94 127.821 1045.63 Q127.821 1042.57 125.668 1040.86 Q123.538 1039.12 119.719 1039.12 L115.691 1039.12 L115.691 1035.28 L119.904 1035.28 Q123.353 1035.28 125.182 1033.91 Q127.01 1032.53 127.01 1029.93 Q127.01 1027.27 125.112 1025.86 Q123.237 1024.42 119.719 1024.42 Q117.798 1024.42 115.598 1024.84 Q113.399 1025.26 110.761 1026.14 L110.761 1021.97 Q113.423 1021.23 115.737 1020.86 Q118.075 1020.49 120.135 1020.49 Q125.46 1020.49 128.561 1022.92 Q131.663 1025.33 131.663 1029.45 Q131.663 1032.32 130.02 1034.31 Q128.376 1036.28 125.344 1037.04 Z" fill="#000000" fill-rule="evenodd" fill-opacity="1" /><path clip-path="url(#clip400)" d="M141.339 1049.79 L146.223 1049.79 L146.223 1055.67 L141.339 1055.67 L141.339 1049.79 Z" fill="#000000" fill-rule="evenodd" fill-opacity="1" /><path clip-path="url(#clip400)" d="M166.408 1024.19 Q162.797 1024.19 160.969 1027.76 Q159.163 1031.3 159.163 1038.43 Q159.163 1045.54 160.969 1049.1 Q162.797 1052.64 166.408 1052.64 Q170.043 1052.64 171.848 1049.1 Q173.677 1045.54 173.677 1038.43 Q173.677 1031.3 171.848 1027.76 Q170.043 1024.19 166.408 1024.19 M166.408 1020.49 Q172.219 1020.49 175.274 1025.1 Q178.353 1029.68 178.353 1038.43 Q178.353 1047.16 175.274 1051.76 Q172.219 1056.35 166.408 1056.35 Q160.598 1056.35 157.52 1051.76 Q154.464 1047.16 154.464 1038.43 Q154.464 1029.68 157.52 1025.1 Q160.598 1020.49 166.408 1020.49 Z" fill="#000000" fill-rule="evenodd" fill-opacity="1" /><path clip-path="url(#clip400)" d="M186.617 1021.11 L204.973 1021.11 L204.973 1025.05 L190.899 1025.05 L190.899 1033.52 Q191.918 1033.17 192.936 1033.01 Q193.955 1032.83 194.973 1032.83 Q200.76 1032.83 204.14 1036 Q207.519 1039.17 207.519 1044.59 Q207.519 1050.16 204.047 1053.27 Q200.575 1056.35 194.255 1056.35 Q192.08 1056.35 189.811 1055.97 Q187.566 1055.6 185.158 1054.86 L185.158 1050.16 Q187.242 1051.3 189.464 1051.85 Q191.686 1052.41 194.163 1052.41 Q198.167 1052.41 200.505 1050.3 Q202.843 1048.2 202.843 1044.59 Q202.843 1040.97 200.505 1038.87 Q198.167 1036.76 194.163 1036.76 Q192.288 1036.76 190.413 1037.18 Q188.561 1037.6 186.617 1038.47 L186.617 1021.11 Z" fill="#000000" fill-rule="evenodd" fill-opacity="1" /><path clip-path="url(#clip400)" d="M226.732 1024.19 Q223.121 1024.19 221.292 1027.76 Q219.487 1031.3 219.487 1038.43 Q219.487 1045.54 221.292 1049.1 Q223.121 1052.64 226.732 1052.64 Q230.366 1052.64 232.172 1049.1 Q234.001 1045.54 234.001 1038.43 Q234.001 1031.3 232.172 1027.76 Q230.366 1024.19 226.732 1024.19 M226.732 1020.49 Q232.542 1020.49 235.598 1025.1 Q238.677 1029.68 238.677 1038.43 Q238.677 1047.16 235.598 1051.76 Q232.542 1056.35 226.732 1056.35 Q220.922 1056.35 217.843 1051.76 Q214.788 1047.16 214.788 1038.43 Q214.788 1029.68 217.843 1025.1 Q220.922 1020.49 226.732 1020.49 Z" fill="#000000" fill-rule="evenodd" fill-opacity="1" /><path clip-path="url(#clip400)" d="M52.659 712.304 L60.2978 712.304 L60.2978 685.938 L51.9877 687.605 L51.9877 683.346 L60.2515 681.679 L64.9274 681.679 L64.9274 712.304 L72.5663 712.304 L72.5663 716.239 L52.659 716.239 L52.659 712.304 Z" fill="#000000" fill-rule="evenodd" fill-opacity="1" /><path clip-path="url(#clip400)" d="M92.5893 697.096 Q89.4412 697.096 87.5894 699.248 Q85.7607 701.401 85.7607 705.151 Q85.7607 708.878 87.5894 711.054 Q89.4412 713.207 92.5893 713.207 Q95.7375 713.207 97.5662 711.054 Q99.418 708.878 99.418 705.151 Q99.418 701.401 97.5662 699.248 Q95.7375 697.096 92.5893 697.096 M101.872 682.443 L101.872 686.702 Q100.112 685.869 98.3069 685.429 Q96.5245 684.989 94.7652 684.989 Q90.1356 684.989 87.682 688.114 Q85.2514 691.239 84.9042 697.559 Q86.2699 695.545 88.3301 694.48 Q90.3903 693.392 92.8671 693.392 Q98.0754 693.392 101.085 696.563 Q104.117 699.711 104.117 705.151 Q104.117 710.475 100.969 713.693 Q97.8208 716.91 92.5893 716.91 Q86.594 716.91 83.4227 712.327 Q80.2514 707.721 80.2514 698.994 Q80.2514 690.799 84.1403 685.938 Q88.0292 681.054 94.5801 681.054 Q96.3393 681.054 98.1217 681.401 Q99.9273 681.748 101.872 682.443 Z" fill="#000000" fill-rule="evenodd" fill-opacity="1" /><path clip-path="url(#clip400)" d="M126.339 697.605 Q129.696 698.322 131.571 700.591 Q133.469 702.859 133.469 706.193 Q133.469 711.308 129.95 714.109 Q126.432 716.91 119.95 716.91 Q117.774 716.91 115.46 716.47 Q113.168 716.054 110.714 715.197 L110.714 710.683 Q112.659 711.818 114.973 712.396 Q117.288 712.975 119.811 712.975 Q124.21 712.975 126.501 711.239 Q128.816 709.503 128.816 706.193 Q128.816 703.137 126.663 701.424 Q124.534 699.688 120.714 699.688 L116.686 699.688 L116.686 695.846 L120.899 695.846 Q124.348 695.846 126.177 694.48 Q128.006 693.091 128.006 690.498 Q128.006 687.836 126.108 686.424 Q124.233 684.989 120.714 684.989 Q118.793 684.989 116.594 685.406 Q114.395 685.823 111.756 686.702 L111.756 682.535 Q114.418 681.795 116.733 681.424 Q119.071 681.054 121.131 681.054 Q126.455 681.054 129.557 683.485 Q132.659 685.892 132.659 690.012 Q132.659 692.883 131.015 694.873 Q129.372 696.841 126.339 697.605 Z" fill="#000000" fill-rule="evenodd" fill-opacity="1" /><path clip-path="url(#clip400)" d="M142.334 710.359 L147.219 710.359 L147.219 716.239 L142.334 716.239 L142.334 710.359 Z" fill="#000000" fill-rule="evenodd" fill-opacity="1" /><path clip-path="url(#clip400)" d="M167.404 684.758 Q163.793 684.758 161.964 688.322 Q160.158 691.864 160.158 698.994 Q160.158 706.1 161.964 709.665 Q163.793 713.207 167.404 713.207 Q171.038 713.207 172.844 709.665 Q174.672 706.1 174.672 698.994 Q174.672 691.864 172.844 688.322 Q171.038 684.758 167.404 684.758 M167.404 681.054 Q173.214 681.054 176.269 685.66 Q179.348 690.244 179.348 698.994 Q179.348 707.721 176.269 712.327 Q173.214 716.91 167.404 716.91 Q161.594 716.91 158.515 712.327 Q155.459 707.721 155.459 698.994 Q155.459 690.244 158.515 685.66 Q161.594 681.054 167.404 681.054 Z" fill="#000000" fill-rule="evenodd" fill-opacity="1" /><path clip-path="url(#clip400)" d="M186.385 681.679 L208.607 681.679 L208.607 683.67 L196.061 716.239 L191.177 716.239 L202.982 685.614 L186.385 685.614 L186.385 681.679 Z" fill="#000000" fill-rule="evenodd" fill-opacity="1" /><path clip-path="url(#clip400)" d="M217.774 681.679 L236.13 681.679 L236.13 685.614 L222.056 685.614 L222.056 694.086 Q223.075 693.739 224.093 693.577 Q225.112 693.392 226.13 693.392 Q231.917 693.392 235.297 696.563 Q238.677 699.734 238.677 705.151 Q238.677 710.73 235.204 713.832 Q231.732 716.91 225.413 716.91 Q223.237 716.91 220.968 716.54 Q218.723 716.17 216.316 715.429 L216.316 710.73 Q218.399 711.864 220.621 712.42 Q222.843 712.975 225.32 712.975 Q229.325 712.975 231.663 710.869 Q234.001 708.762 234.001 705.151 Q234.001 701.54 231.663 699.434 Q229.325 697.327 225.32 697.327 Q223.445 697.327 221.57 697.744 Q219.718 698.16 217.774 699.04 L217.774 681.679 Z" fill="#000000" fill-rule="evenodd" fill-opacity="1" /><path clip-path="url(#clip400)" d="M51.6636 372.869 L59.3025 372.869 L59.3025 346.503 L50.9923 348.17 L50.9923 343.911 L59.2562 342.244 L63.9321 342.244 L63.9321 372.869 L71.5709 372.869 L71.5709 376.804 L51.6636 376.804 L51.6636 372.869 Z" fill="#000000" fill-rule="evenodd" fill-opacity="1" /><path clip-path="url(#clip400)" d="M91.594 357.661 Q88.4458 357.661 86.594 359.814 Q84.7653 361.966 84.7653 365.716 Q84.7653 369.443 86.594 371.619 Q88.4458 373.772 91.594 373.772 Q94.7421 373.772 96.5708 371.619 Q98.4226 369.443 98.4226 365.716 Q98.4226 361.966 96.5708 359.814 Q94.7421 357.661 91.594 357.661 M100.876 343.008 L100.876 347.267 Q99.1171 346.434 97.3115 345.994 Q95.5291 345.554 93.7699 345.554 Q89.1403 345.554 86.6866 348.679 Q84.256 351.804 83.9088 358.124 Q85.2746 356.11 87.3347 355.045 Q89.3949 353.957 91.8717 353.957 Q97.0801 353.957 100.089 357.128 Q103.122 360.276 103.122 365.716 Q103.122 371.04 99.9736 374.258 Q96.8254 377.475 91.594 377.475 Q85.5986 377.475 82.4274 372.892 Q79.2561 368.286 79.2561 359.559 Q79.2561 351.364 83.1449 346.503 Q87.0338 341.619 93.5847 341.619 Q95.3439 341.619 97.1263 341.966 Q98.9319 342.314 100.876 343.008 Z" fill="#000000" fill-rule="evenodd" fill-opacity="1" /><path clip-path="url(#clip400)" d="M125.344 358.17 Q128.7 358.888 130.575 361.156 Q132.473 363.425 132.473 366.758 Q132.473 371.874 128.955 374.675 Q125.436 377.475 118.955 377.475 Q116.779 377.475 114.464 377.036 Q112.173 376.619 109.719 375.762 L109.719 371.249 Q111.663 372.383 113.978 372.962 Q116.293 373.54 118.816 373.54 Q123.214 373.54 125.506 371.804 Q127.821 370.068 127.821 366.758 Q127.821 363.702 125.668 361.989 Q123.538 360.253 119.719 360.253 L115.691 360.253 L115.691 356.411 L119.904 356.411 Q123.353 356.411 125.182 355.045 Q127.01 353.656 127.01 351.064 Q127.01 348.402 125.112 346.99 Q123.237 345.554 119.719 345.554 Q117.798 345.554 115.598 345.971 Q113.399 346.388 110.761 347.267 L110.761 343.101 Q113.423 342.36 115.737 341.99 Q118.075 341.619 120.135 341.619 Q125.46 341.619 128.561 344.05 Q131.663 346.457 131.663 350.577 Q131.663 353.448 130.02 355.439 Q128.376 357.406 125.344 358.17 Z" fill="#000000" fill-rule="evenodd" fill-opacity="1" /><path clip-path="url(#clip400)" d="M141.339 370.925 L146.223 370.925 L146.223 376.804 L141.339 376.804 L141.339 370.925 Z" fill="#000000" fill-rule="evenodd" fill-opacity="1" /><path clip-path="url(#clip400)" d="M157.219 372.869 L164.857 372.869 L164.857 346.503 L156.547 348.17 L156.547 343.911 L164.811 342.244 L169.487 342.244 L169.487 372.869 L177.126 372.869 L177.126 376.804 L157.219 376.804 L157.219 372.869 Z" fill="#000000" fill-rule="evenodd" fill-opacity="1" /><path clip-path="url(#clip400)" d="M196.57 345.323 Q192.959 345.323 191.13 348.888 Q189.325 352.429 189.325 359.559 Q189.325 366.665 191.13 370.23 Q192.959 373.772 196.57 373.772 Q200.204 373.772 202.01 370.23 Q203.839 366.665 203.839 359.559 Q203.839 352.429 202.01 348.888 Q200.204 345.323 196.57 345.323 M196.57 341.619 Q202.38 341.619 205.436 346.226 Q208.515 350.809 208.515 359.559 Q208.515 368.286 205.436 372.892 Q202.38 377.475 196.57 377.475 Q190.76 377.475 187.681 372.892 Q184.626 368.286 184.626 359.559 Q184.626 350.809 187.681 346.226 Q190.76 341.619 196.57 341.619 Z" fill="#000000" fill-rule="evenodd" fill-opacity="1" /><path clip-path="url(#clip400)" d="M226.732 345.323 Q223.121 345.323 221.292 348.888 Q219.487 352.429 219.487 359.559 Q219.487 366.665 221.292 370.23 Q223.121 373.772 226.732 373.772 Q230.366 373.772 232.172 370.23 Q234.001 366.665 234.001 359.559 Q234.001 352.429 232.172 348.888 Q230.366 345.323 226.732 345.323 M226.732 341.619 Q232.542 341.619 235.598 346.226 Q238.677 350.809 238.677 359.559 Q238.677 368.286 235.598 372.892 Q232.542 377.475 226.732 377.475 Q220.922 377.475 217.843 372.892 Q214.788 368.286 214.788 359.559 Q214.788 350.809 217.843 346.226 Q220.922 341.619 226.732 341.619 Z" fill="#000000" fill-rule="evenodd" fill-opacity="1" /><polyline clip-path="url(#clip402)" style="stroke:#009af9; stroke-linecap:butt; stroke-linejoin:round; stroke-width:4; stroke-opacity:1; fill:none" points="
  333.508,631.072 333.508,631.072 339.935,631.072 
  339.935,495.298 339.935,631.072 339.935,495.298 
  342.078,495.298 344.22,495.298 346.362,495.298 
  350.647,495.298 352.789,495.298 
  352.789,631.072 359.216,631.072 363.501,631.072 
  365.643,631.072 367.786,631.072 372.07,631.072 374.213,631.072 374.213,495.298 
  376.355,495.298 378.497,495.298 378.497,631.072 
  387.067,631.072 391.351,631.072 393.494,631.072 414.917,631.072 
  417.059,631.072 
  425.629,631.072 427.771,631.072 432.056,631.072 
  432.056,495.298 474.921,495.298 515.625,495.298 522.052,495.298 
  552.045,495.298 552.045,359.524 588.464,359.524 588.464,495.298 
  588.464,359.524 590.607,359.524 592.749,359.524 
  601.318,359.524 637.738,359.524 659.18,359.524 661.322,359.524 
  680.603,359.524 849.866,359.524 
  907.709,359.524 944.128,359.524 952.698,359.524 
  
  976.263,359.524 
  976.263,223.75 976.263,359.524 976.263,223.75 
  978.406,223.75 978.406,87.9763 978.406,223.75 
  978.406,87.9763 978.406,223.75 978.406,87.9763 
  980.548,87.9763 982.69,87.9763 984.833,87.9763 1008.42,87.9763 
  1019.13,87.9763 1021.27,87.9763 1023.41,87.9763 
  1031.98,87.9763 1036.27,87.9763 1038.41,87.9763 1046.98,87.9763 1055.55,87.9763 
  1057.69,87.9763 
  1059.83,87.9763 
  1074.83,87.9763 1096.25,87.9763 1113.39,87.9763 
  1128.39,87.9763 1130.53,87.9763 
  1130.53,223.75 
  1130.53,87.9763 1132.67,87.9763 1132.67,223.75 
  
  1134.81,223.75 1136.96,223.75 
  1136.96,359.524 
  1139.1,359.524 1147.67,359.524 1160.52,359.524 1169.09,359.524 
  1171.23,359.524 1171.23,495.298 1173.38,495.298 
  
  1175.52,495.298 1177.68,495.298 1179.82,495.298 
  1192.68,495.298 1192.68,631.072 1231.24,631.072 
  1235.52,631.072 
  1235.52,766.846 1235.52,631.072 
  1235.52,766.846 1237.66,766.846 
  
  1239.81,766.846 
  1239.81,902.62 1244.09,902.62 1246.23,902.62 1248.38,902.62 1250.52,902.62 
  1256.95,902.62 1261.23,902.62 1265.52,902.62 1282.65,902.62 1286.94,902.62 
  1304.08,902.62 1304.08,1038.39 1306.22,1038.39 
  1308.36,1038.39 1312.65,1038.39 
  1314.79,1038.39 1323.36,1038.39 1327.64,1038.39 
  1329.79,1038.39 1329.79,1174.17 1355.51,1174.17 
  1357.65,1174.17 1359.8,1174.17 
  1404.79,1174.17 1406.93,1174.17 
  1406.93,1038.39 
  1409.07,1038.39 1409.07,902.62 1456.2,902.62 1456.2,1038.39 
  
  
  1462.63,1038.39 1492.62,1038.39 
  1520.47,1038.39 1541.91,1038.39 1541.91,1174.17 1610.47,1174.17 1610.47,1038.39 1629.75,1038.39 1629.75,1174.17 
  1640.46,1174.17 1640.46,1038.39 1646.89,1038.39 1649.03,1038.39 1649.03,902.62 
  1717.6,902.62 1837.57,902.62 
  1837.57,766.846 1837.57,902.62 1837.57,766.846 1839.72,766.846 1839.72,902.62 
  1839.72,766.846 
  1859,766.846 1859,631.072 1876.14,631.072 1936.14,631.072 
  1976.84,631.072 1976.84,495.298 1978.99,495.298 1978.99,631.072 1978.99,495.298 
  1978.99,359.524 
  1985.41,359.524 2015.41,359.524 2017.55,359.524 2017.55,495.298 2041.11,495.298 
  2244.67,495.298 
  2246.81,495.298 2246.81,359.524 2248.96,359.524 
  2251.1,359.524 2251.1,223.75 2270.38,223.75 2270.38,359.524 
  2293.95,359.524 
  "/>
<polyline clip-path="url(#clip402)" style="stroke:#e26f46; stroke-linecap:butt; stroke-linejoin:round; stroke-width:4; stroke-opacity:1; fill:none" points="
  333.508,902.62 333.508,1038.39 339.935,1038.39 339.935,902.62 
  339.935,766.846 339.935,902.62 339.935,766.846 
  342.078,766.846 342.078,631.072 344.22,631.072 346.362,631.072 
  350.647,631.072 350.647,766.846 350.647,902.62 352.789,902.62 
  359.216,902.62 363.501,902.62 
  365.643,902.62 367.786,902.62 372.07,902.62 372.07,766.846 374.213,766.846 
  374.213,902.62 376.355,902.62 376.355,766.846 376.355,902.62 376.355,766.846 378.497,766.846 
  387.067,766.846 391.351,766.846 393.494,766.846 393.494,902.62 414.917,902.62 414.917,766.846 414.917,902.62 
  417.059,902.62 
  425.629,902.62 427.771,902.62 432.056,902.62 
  432.056,766.846 474.921,766.846 515.625,766.846 522.052,766.846 
  552.045,766.846 552.045,631.072 588.464,631.072 
  590.607,631.072 592.749,631.072 
  601.318,631.072 637.738,631.072 659.18,631.072 661.322,631.072 
  680.603,631.072 849.866,631.072 
  907.709,631.072 944.128,631.072 944.128,766.846 952.698,766.846 952.698,631.072 
  
  976.263,631.072 
  976.263,495.298 
  976.263,359.524 978.406,359.524 
  
  980.548,359.524 980.548,223.75 980.548,359.524 982.69,359.524 984.833,359.524 1008.42,359.524 1008.42,223.75 
  1019.13,223.75 1021.27,223.75 1021.27,359.524 1023.41,359.524 
  1031.98,359.524 1036.27,359.524 1038.41,359.524 1046.98,359.524 1055.55,359.524 
  1057.69,359.524 1057.69,223.75 
  1057.69,359.524 1057.69,223.75 1057.69,359.524 1059.83,359.524 
  1074.83,359.524 1096.25,359.524 1113.39,359.524 
  1128.39,359.524 1128.39,223.75 1130.53,223.75 1130.53,359.524 
  1130.53,223.75 1130.53,359.524 
  1132.67,359.524 
  1132.67,495.298 1132.67,359.524 1132.67,495.298 
  1134.81,495.298 1136.96,495.298 
  
  1139.1,495.298 1147.67,495.298 1160.52,495.298 1169.09,495.298 1169.09,631.072 
  1169.09,495.298 1169.09,766.846 1171.23,766.846 1173.38,766.846 
  
  1175.52,766.846 1177.68,766.846 1179.82,766.846 
  1192.68,766.846 1231.24,766.846 
  1231.24,902.62 1235.52,902.62 1235.52,766.846 1235.52,902.62 
  1235.52,1038.39 1235.52,902.62 
  1235.52,1038.39 1235.52,902.62 1235.52,1038.39 1237.66,1038.39 
  
  1239.81,1038.39 
  1244.09,1038.39 1246.23,1038.39 1246.23,1174.17 1248.38,1174.17 1248.38,1038.39 1250.52,1038.39 1250.52,1174.17 
  1256.95,1174.17 1261.23,1174.17 1261.23,1038.39 1265.52,1038.39 1265.52,1174.17 1282.65,1174.17 1286.94,1174.17 
  1304.08,1174.17 1304.08,1309.94 1306.22,1309.94 
  1308.36,1309.94 1308.36,1174.17 1312.65,1174.17 
  1314.79,1174.17 1314.79,1309.94 1323.36,1309.94 1323.36,1445.72 1327.64,1445.72 1327.64,1309.94 
  1327.64,1445.72 1327.64,1309.94 1329.79,1309.94 1355.51,1309.94 
  1355.51,1445.72 1357.65,1445.72 1359.8,1445.72 
  1404.79,1445.72 1406.93,1445.72 
  1406.93,1309.94 
  1409.07,1309.94 1456.2,1309.94 
  
  
  1462.63,1309.94 1492.62,1309.94 
  1520.47,1309.94 1541.91,1309.94 1610.47,1309.94 1629.75,1309.94 
  1640.46,1309.94 1646.89,1309.94 1649.03,1309.94 
  1717.6,1309.94 1717.6,1174.17 1837.57,1174.17 
  1837.57,1038.39 1837.57,1174.17 1837.57,1038.39 1839.72,1038.39 1839.72,1174.17 
  1839.72,1038.39 
  1859,1038.39 1876.14,1038.39 1876.14,902.62 1936.14,902.62 
  1976.84,902.62 1976.84,766.846 1978.99,766.846 
  
  1985.41,766.846 2015.41,766.846 2017.55,766.846 2041.11,766.846 
  2244.67,766.846 
  2246.81,766.846 2246.81,631.072 2248.96,631.072 
  2251.1,631.072 2270.38,631.072 
  2293.95,631.072 2293.95,766.846 
  "/>
<path clip-path="url(#clip400)" d="
M1840.18 250.738 L2283.49 250.738 L2283.49 95.2176 L1840.18 95.2176  Z
  " fill="#ffffff" fill-rule="evenodd" fill-opacity="1"/>
<polyline clip-path="url(#clip400)" style="stroke:#000000; stroke-linecap:butt; stroke-linejoin:round; stroke-width:4; stroke-opacity:1; fill:none" points="
  1840.18,250.738 2283.49,250.738 2283.49,95.2176 1840.18,95.2176 1840.18,250.738 
  "/>
<polyline clip-path="url(#clip400)" style="stroke:#009af9; stroke-linecap:butt; stroke-linejoin:round; stroke-width:4; stroke-opacity:1; fill:none" points="
  1863.27,147.058 2001.81,147.058 
  "/>
<path clip-path="url(#clip400)" d="M2040.73 134.384 L2034.39 151.583 L2047.1 151.583 L2040.73 134.384 M2038.1 129.778 L2043.4 129.778 L2056.57 164.338 L2051.71 164.338 L2048.56 155.472 L2032.98 155.472 L2029.83 164.338 L2024.9 164.338 L2038.1 129.778 Z" fill="#000000" fill-rule="evenodd" fill-opacity="1" /><path clip-path="url(#clip400)" d="M2077.96 139.176 L2077.96 143.203 Q2076.15 142.277 2074.21 141.815 Q2072.26 141.352 2070.18 141.352 Q2067.01 141.352 2065.41 142.324 Q2063.84 143.296 2063.84 145.24 Q2063.84 146.722 2064.97 147.578 Q2066.1 148.412 2069.53 149.176 L2070.99 149.5 Q2075.53 150.472 2077.42 152.254 Q2079.34 154.014 2079.34 157.185 Q2079.34 160.796 2076.47 162.902 Q2073.63 165.009 2068.63 165.009 Q2066.54 165.009 2064.28 164.592 Q2062.03 164.199 2059.53 163.388 L2059.53 158.99 Q2061.89 160.217 2064.18 160.842 Q2066.47 161.444 2068.72 161.444 Q2071.73 161.444 2073.35 160.426 Q2074.97 159.384 2074.97 157.509 Q2074.97 155.773 2073.79 154.847 Q2072.63 153.921 2068.67 153.064 L2067.19 152.717 Q2063.23 151.884 2061.47 150.171 Q2059.72 148.435 2059.72 145.426 Q2059.72 141.768 2062.31 139.778 Q2064.9 137.787 2069.67 137.787 Q2072.03 137.787 2074.11 138.134 Q2076.2 138.481 2077.96 139.176 Z" fill="#000000" fill-rule="evenodd" fill-opacity="1" /><path clip-path="url(#clip400)" d="M2085.97 128.319 L2090.25 128.319 L2090.25 149.592 L2102.96 138.412 L2108.4 138.412 L2094.65 150.541 L2108.97 164.338 L2103.42 164.338 L2090.25 151.676 L2090.25 164.338 L2085.97 164.338 L2085.97 128.319 Z" fill="#000000" fill-rule="evenodd" fill-opacity="1" /><path clip-path="url(#clip400)" d="M2133.51 133.62 L2133.51 146.606 L2139.39 146.606 Q2142.65 146.606 2144.44 144.916 Q2146.22 143.227 2146.22 140.102 Q2146.22 137 2144.44 135.31 Q2142.65 133.62 2139.39 133.62 L2133.51 133.62 M2128.84 129.778 L2139.39 129.778 Q2145.2 129.778 2148.16 132.416 Q2151.15 135.032 2151.15 140.102 Q2151.15 145.217 2148.16 147.833 Q2145.2 150.449 2139.39 150.449 L2133.51 150.449 L2133.51 164.338 L2128.84 164.338 L2128.84 129.778 Z" fill="#000000" fill-rule="evenodd" fill-opacity="1" /><path clip-path="url(#clip400)" d="M2171.43 142.393 Q2170.71 141.977 2169.85 141.791 Q2169.02 141.583 2168 141.583 Q2164.39 141.583 2162.45 143.944 Q2160.53 146.282 2160.53 150.68 L2160.53 164.338 L2156.24 164.338 L2156.24 138.412 L2160.53 138.412 L2160.53 142.44 Q2161.87 140.078 2164.02 138.944 Q2166.17 137.787 2169.25 137.787 Q2169.69 137.787 2170.22 137.856 Q2170.76 137.903 2171.4 138.018 L2171.43 142.393 Z" fill="#000000" fill-rule="evenodd" fill-opacity="1" /><path clip-path="url(#clip400)" d="M2175.9 138.412 L2180.15 138.412 L2180.15 164.338 L2175.9 164.338 L2175.9 138.412 M2175.9 128.319 L2180.15 128.319 L2180.15 133.713 L2175.9 133.713 L2175.9 128.319 Z" fill="#000000" fill-rule="evenodd" fill-opacity="1" /><path clip-path="url(#clip400)" d="M2207.72 139.407 L2207.72 143.389 Q2205.92 142.393 2204.09 141.907 Q2202.28 141.398 2200.43 141.398 Q2196.29 141.398 2194 144.037 Q2191.71 146.652 2191.71 151.398 Q2191.71 156.143 2194 158.782 Q2196.29 161.398 2200.43 161.398 Q2202.28 161.398 2204.09 160.912 Q2205.92 160.402 2207.72 159.407 L2207.72 163.342 Q2205.94 164.176 2204.02 164.592 Q2202.12 165.009 2199.97 165.009 Q2194.11 165.009 2190.66 161.328 Q2187.21 157.648 2187.21 151.398 Q2187.21 145.055 2190.69 141.421 Q2194.18 137.787 2200.25 137.787 Q2202.21 137.787 2204.09 138.203 Q2205.96 138.597 2207.72 139.407 Z" fill="#000000" fill-rule="evenodd" fill-opacity="1" /><path clip-path="url(#clip400)" d="M2237.31 150.31 L2237.31 152.393 L2217.72 152.393 Q2218 156.791 2220.36 159.106 Q2222.75 161.398 2226.98 161.398 Q2229.44 161.398 2231.73 160.796 Q2234.04 160.194 2236.31 158.99 L2236.31 163.018 Q2234.02 163.99 2231.61 164.5 Q2229.21 165.009 2226.73 165.009 Q2220.52 165.009 2216.89 161.398 Q2213.28 157.787 2213.28 151.629 Q2213.28 145.264 2216.71 141.537 Q2220.15 137.787 2225.99 137.787 Q2231.22 137.787 2234.25 141.166 Q2237.31 144.523 2237.31 150.31 M2233.05 149.06 Q2233 145.565 2231.08 143.481 Q2229.18 141.398 2226.03 141.398 Q2222.47 141.398 2220.32 143.412 Q2218.19 145.426 2217.86 149.083 L2233.05 149.06 Z" fill="#000000" fill-rule="evenodd" fill-opacity="1" /><polyline clip-path="url(#clip400)" style="stroke:#e26f46; stroke-linecap:butt; stroke-linejoin:round; stroke-width:4; stroke-opacity:1; fill:none" points="
  1863.27,198.898 2001.81,198.898 
  "/>
<path clip-path="url(#clip400)" d="M2029.58 199.673 L2029.58 212.335 L2037.08 212.335 Q2040.85 212.335 2042.66 210.784 Q2044.48 209.21 2044.48 205.992 Q2044.48 202.752 2042.66 201.224 Q2040.85 199.673 2037.08 199.673 L2029.58 199.673 M2029.58 185.46 L2029.58 195.877 L2036.5 195.877 Q2039.92 195.877 2041.59 194.604 Q2043.28 193.307 2043.28 190.668 Q2043.28 188.053 2041.59 186.756 Q2039.92 185.46 2036.5 185.46 L2029.58 185.46 M2024.9 181.618 L2036.85 181.618 Q2042.19 181.618 2045.09 183.84 Q2047.98 186.062 2047.98 190.159 Q2047.98 193.33 2046.5 195.205 Q2045.02 197.08 2042.15 197.543 Q2045.6 198.284 2047.49 200.645 Q2049.41 202.983 2049.41 206.502 Q2049.41 211.131 2046.27 213.654 Q2043.12 216.178 2037.31 216.178 L2024.9 216.178 L2024.9 181.618 Z" fill="#000000" fill-rule="evenodd" fill-opacity="1" /><path clip-path="url(#clip400)" d="M2057.24 190.252 L2061.5 190.252 L2061.5 216.178 L2057.24 216.178 L2057.24 190.252 M2057.24 180.159 L2061.5 180.159 L2061.5 185.553 L2057.24 185.553 L2057.24 180.159 Z" fill="#000000" fill-rule="evenodd" fill-opacity="1" /><path clip-path="url(#clip400)" d="M2087.47 194.187 L2087.47 180.159 L2091.73 180.159 L2091.73 216.178 L2087.47 216.178 L2087.47 212.289 Q2086.13 214.603 2084.07 215.738 Q2082.03 216.849 2079.16 216.849 Q2074.46 216.849 2071.5 213.099 Q2068.56 209.349 2068.56 203.238 Q2068.56 197.127 2071.5 193.377 Q2074.46 189.627 2079.16 189.627 Q2082.03 189.627 2084.07 190.761 Q2086.13 191.872 2087.47 194.187 M2072.96 203.238 Q2072.96 207.937 2074.88 210.622 Q2076.82 213.284 2080.2 213.284 Q2083.58 213.284 2085.53 210.622 Q2087.47 207.937 2087.47 203.238 Q2087.47 198.539 2085.53 195.877 Q2083.58 193.192 2080.2 193.192 Q2076.82 193.192 2074.88 195.877 Q2072.96 198.539 2072.96 203.238 Z" fill="#000000" fill-rule="evenodd" fill-opacity="1" /><path clip-path="url(#clip400)" d="M2120.43 185.46 L2120.43 198.446 L2126.31 198.446 Q2129.58 198.446 2131.36 196.756 Q2133.14 195.067 2133.14 191.942 Q2133.14 188.84 2131.36 187.15 Q2129.58 185.46 2126.31 185.46 L2120.43 185.46 M2115.76 181.618 L2126.31 181.618 Q2132.12 181.618 2135.09 184.256 Q2138.07 186.872 2138.07 191.942 Q2138.07 197.057 2135.09 199.673 Q2132.12 202.289 2126.31 202.289 L2120.43 202.289 L2120.43 216.178 L2115.76 216.178 L2115.76 181.618 Z" fill="#000000" fill-rule="evenodd" fill-opacity="1" /><path clip-path="url(#clip400)" d="M2158.35 194.233 Q2157.63 193.817 2156.78 193.631 Q2155.94 193.423 2154.92 193.423 Q2151.31 193.423 2149.37 195.784 Q2147.45 198.122 2147.45 202.52 L2147.45 216.178 L2143.16 216.178 L2143.16 190.252 L2147.45 190.252 L2147.45 194.28 Q2148.79 191.918 2150.94 190.784 Q2153.09 189.627 2156.17 189.627 Q2156.61 189.627 2157.15 189.696 Q2157.68 189.743 2158.33 189.858 L2158.35 194.233 Z" fill="#000000" fill-rule="evenodd" fill-opacity="1" /><path clip-path="url(#clip400)" d="M2162.82 190.252 L2167.08 190.252 L2167.08 216.178 L2162.82 216.178 L2162.82 190.252 M2162.82 180.159 L2167.08 180.159 L2167.08 185.553 L2162.82 185.553 L2162.82 180.159 Z" fill="#000000" fill-rule="evenodd" fill-opacity="1" /><path clip-path="url(#clip400)" d="M2194.65 191.247 L2194.65 195.229 Q2192.84 194.233 2191.01 193.747 Q2189.21 193.238 2187.35 193.238 Q2183.21 193.238 2180.92 195.877 Q2178.63 198.492 2178.63 203.238 Q2178.63 207.983 2180.92 210.622 Q2183.21 213.238 2187.35 213.238 Q2189.21 213.238 2191.01 212.752 Q2192.84 212.242 2194.65 211.247 L2194.65 215.182 Q2192.86 216.016 2190.94 216.432 Q2189.04 216.849 2186.89 216.849 Q2181.03 216.849 2177.59 213.168 Q2174.14 209.488 2174.14 203.238 Q2174.14 196.895 2177.61 193.261 Q2181.1 189.627 2187.17 189.627 Q2189.14 189.627 2191.01 190.043 Q2192.89 190.437 2194.65 191.247 Z" fill="#000000" fill-rule="evenodd" fill-opacity="1" /><path clip-path="url(#clip400)" d="M2224.23 202.15 L2224.23 204.233 L2204.65 204.233 Q2204.92 208.631 2207.28 210.946 Q2209.67 213.238 2213.9 213.238 Q2216.36 213.238 2218.65 212.636 Q2220.96 212.034 2223.23 210.83 L2223.23 214.858 Q2220.94 215.83 2218.53 216.34 Q2216.13 216.849 2213.65 216.849 Q2207.45 216.849 2203.81 213.238 Q2200.2 209.627 2200.2 203.469 Q2200.2 197.104 2203.63 193.377 Q2207.08 189.627 2212.91 189.627 Q2218.14 189.627 2221.17 193.006 Q2224.23 196.363 2224.23 202.15 M2219.97 200.9 Q2219.92 197.405 2218 195.321 Q2216.1 193.238 2212.96 193.238 Q2209.39 193.238 2207.24 195.252 Q2205.11 197.266 2204.78 200.923 L2219.97 200.9 Z" fill="#000000" fill-rule="evenodd" fill-opacity="1" /></svg>
