<?xml version="1.0" encoding="utf-8"?>
<svg xmlns="http://www.w3.org/2000/svg" xmlns:xlink="http://www.w3.org/1999/xlink" width="600" height="400" viewBox="0 0 2400 1600">
<defs>
  <clipPath id="clip520">
    <rect x="0" y="0" width="2400" height="1600"/>
  </clipPath>
</defs>
<path clip-path="url(#clip520)" d="
M0 1600 L2400 1600 L2400 0 L0 0  Z
  " fill="#ffffff" fill-rule="evenodd" fill-opacity="1"/>
<defs>
  <clipPath id="clip521">
    <rect x="480" y="0" width="1681" height="1600"/>
  </clipPath>
</defs>
<path clip-path="url(#clip520)" d="
M274.676 1486.45 L2352.76 1486.45 L2352.76 47.2441 L274.676 47.2441  Z
  " fill="#ffffff" fill-rule="evenodd" fill-opacity="1"/>
<defs>
  <clipPath id="clip522">
    <rect x="274" y="47" width="2079" height="1440"/>
  </clipPath>
</defs>
<polyline clip-path="url(#clip522)" style="stroke:#000000; stroke-linecap:butt; stroke-linejoin:round; stroke-width:2; stroke-opacity:0.1; fill:none" points="
  333.49,1486.45 333.49,47.2441 
  "/>
<polyline clip-path="url(#clip522)" style="stroke:#000000; stroke-linecap:butt; stroke-linejoin:round; stroke-width:2; stroke-opacity:0.1; fill:none" points="
  847.229,1486.45 847.229,47.2441 
  "/>
<polyline clip-path="url(#clip522)" style="stroke:#000000; stroke-linecap:butt; stroke-linejoin:round; stroke-width:2; stroke-opacity:0.1; fill:none" points="
  1360.99,1486.45 1360.99,47.2441 
  "/>
<polyline clip-path="url(#clip522)" style="stroke:#000000; stroke-linecap:butt; stroke-linejoin:round; stroke-width:2; stroke-opacity:0.1; fill:none" points="
  1874.73,1486.45 1874.73,47.2441 
  "/>
<polyline clip-path="url(#clip520)" style="stroke:#000000; stroke-linecap:butt; stroke-linejoin:round; stroke-width:4; stroke-opacity:1; fill:none" points="
  274.677,1486.45 2352.76,1486.45 
  "/>
<polyline clip-path="url(#clip520)" style="stroke:#000000; stroke-linecap:butt; stroke-linejoin:round; stroke-width:4; stroke-opacity:1; fill:none" points="
  333.49,1486.45 333.49,1467.55 
  "/>
<polyline clip-path="url(#clip520)" style="stroke:#000000; stroke-linecap:butt; stroke-linejoin:round; stroke-width:4; stroke-opacity:1; fill:none" points="
  847.229,1486.45 847.229,1467.55 
  "/>
<polyline clip-path="url(#clip520)" style="stroke:#000000; stroke-linecap:butt; stroke-linejoin:round; stroke-width:4; stroke-opacity:1; fill:none" points="
  1360.99,1486.45 1360.99,1467.55 
  "/>
<polyline clip-path="url(#clip520)" style="stroke:#000000; stroke-linecap:butt; stroke-linejoin:round; stroke-width:4; stroke-opacity:1; fill:none" points="
  1874.73,1486.45 1874.73,1467.55 
  "/>
<path clip-path="url(#clip520)" d="M179.556 1544.91 L187.194 1544.91 L187.194 1518.55 L178.884 1520.21 L178.884 1515.95 L187.148 1514.29 L191.824 1514.29 L191.824 1544.91 L199.463 1544.91 L199.463 1548.85 L179.556 1548.85 L179.556 1544.91 Z" fill="#000000" fill-rule="evenodd" fill-opacity="1" /><path clip-path="url(#clip520)" d="M208.954 1514.29 L227.31 1514.29 L227.31 1518.22 L213.236 1518.22 L213.236 1526.7 Q214.255 1526.35 215.273 1526.19 Q216.292 1526 217.31 1526 Q223.097 1526 226.477 1529.17 Q229.856 1532.34 229.856 1537.76 Q229.856 1543.34 226.384 1546.44 Q222.912 1549.52 216.592 1549.52 Q214.417 1549.52 212.148 1549.15 Q209.903 1548.78 207.495 1548.04 L207.495 1543.34 Q209.579 1544.47 211.801 1545.03 Q214.023 1545.58 216.5 1545.58 Q220.504 1545.58 222.842 1543.48 Q225.18 1541.37 225.18 1537.76 Q225.18 1534.15 222.842 1532.04 Q220.504 1529.94 216.5 1529.94 Q214.625 1529.94 212.75 1530.35 Q210.898 1530.77 208.954 1531.65 L208.954 1514.29 Z" fill="#000000" fill-rule="evenodd" fill-opacity="1" /><path clip-path="url(#clip520)" d="M239.555 1542.97 L244.44 1542.97 L244.44 1548.85 L239.555 1548.85 L239.555 1542.97 M239.555 1524.33 L244.44 1524.33 L244.44 1530.21 L239.555 1530.21 L239.555 1524.33 Z" fill="#000000" fill-rule="evenodd" fill-opacity="1" /><path clip-path="url(#clip520)" d="M265.041 1517.37 Q261.43 1517.37 259.601 1520.93 Q257.796 1524.47 257.796 1531.6 Q257.796 1538.71 259.601 1542.27 Q261.43 1545.82 265.041 1545.82 Q268.676 1545.82 270.481 1542.27 Q272.31 1538.71 272.31 1531.6 Q272.31 1524.47 270.481 1520.93 Q268.676 1517.37 265.041 1517.37 M265.041 1513.66 Q270.851 1513.66 273.907 1518.27 Q276.986 1522.85 276.986 1531.6 Q276.986 1540.33 273.907 1544.94 Q270.851 1549.52 265.041 1549.52 Q259.231 1549.52 256.152 1544.94 Q253.097 1540.33 253.097 1531.6 Q253.097 1522.85 256.152 1518.27 Q259.231 1513.66 265.041 1513.66 Z" fill="#000000" fill-rule="evenodd" fill-opacity="1" /><path clip-path="url(#clip520)" d="M295.203 1517.37 Q291.592 1517.37 289.763 1520.93 Q287.958 1524.47 287.958 1531.6 Q287.958 1538.71 289.763 1542.27 Q291.592 1545.82 295.203 1545.82 Q298.837 1545.82 300.643 1542.27 Q302.472 1538.71 302.472 1531.6 Q302.472 1524.47 300.643 1520.93 Q298.837 1517.37 295.203 1517.37 M295.203 1513.66 Q301.013 1513.66 304.069 1518.27 Q307.148 1522.85 307.148 1531.6 Q307.148 1540.33 304.069 1544.94 Q301.013 1549.52 295.203 1549.52 Q289.393 1549.52 286.314 1544.94 Q283.259 1540.33 283.259 1531.6 Q283.259 1522.85 286.314 1518.27 Q289.393 1513.66 295.203 1513.66 Z" fill="#000000" fill-rule="evenodd" fill-opacity="1" /><path clip-path="url(#clip520)" d="M315.851 1542.97 L320.735 1542.97 L320.735 1548.85 L315.851 1548.85 L315.851 1542.97 M315.851 1524.33 L320.735 1524.33 L320.735 1530.21 L315.851 1530.21 L315.851 1524.33 Z" fill="#000000" fill-rule="evenodd" fill-opacity="1" /><path clip-path="url(#clip520)" d="M341.337 1517.37 Q337.726 1517.37 335.897 1520.93 Q334.092 1524.47 334.092 1531.6 Q334.092 1538.71 335.897 1542.27 Q337.726 1545.82 341.337 1545.82 Q344.971 1545.82 346.777 1542.27 Q348.606 1538.71 348.606 1531.6 Q348.606 1524.47 346.777 1520.93 Q344.971 1517.37 341.337 1517.37 M341.337 1513.66 Q347.147 1513.66 350.203 1518.27 Q353.282 1522.85 353.282 1531.6 Q353.282 1540.33 350.203 1544.94 Q347.147 1549.52 341.337 1549.52 Q335.527 1549.52 332.448 1544.94 Q329.393 1540.33 329.393 1531.6 Q329.393 1522.85 332.448 1518.27 Q335.527 1513.66 341.337 1513.66 Z" fill="#000000" fill-rule="evenodd" fill-opacity="1" /><path clip-path="url(#clip520)" d="M371.499 1517.37 Q367.888 1517.37 366.059 1520.93 Q364.254 1524.47 364.254 1531.6 Q364.254 1538.71 366.059 1542.27 Q367.888 1545.82 371.499 1545.82 Q375.133 1545.82 376.939 1542.27 Q378.768 1538.71 378.768 1531.6 Q378.768 1524.47 376.939 1520.93 Q375.133 1517.37 371.499 1517.37 M371.499 1513.66 Q377.309 1513.66 380.365 1518.27 Q383.443 1522.85 383.443 1531.6 Q383.443 1540.33 380.365 1544.94 Q377.309 1549.52 371.499 1549.52 Q365.689 1549.52 362.61 1544.94 Q359.555 1540.33 359.555 1531.6 Q359.555 1522.85 362.61 1518.27 Q365.689 1513.66 371.499 1513.66 Z" fill="#000000" fill-rule="evenodd" fill-opacity="1" /><path clip-path="url(#clip520)" d="M391.661 1542.97 L396.545 1542.97 L396.545 1548.85 L391.661 1548.85 L391.661 1542.97 Z" fill="#000000" fill-rule="evenodd" fill-opacity="1" /><path clip-path="url(#clip520)" d="M416.73 1517.37 Q413.119 1517.37 411.29 1520.93 Q409.485 1524.47 409.485 1531.6 Q409.485 1538.71 411.29 1542.27 Q413.119 1545.82 416.73 1545.82 Q420.365 1545.82 422.17 1542.27 Q423.999 1538.71 423.999 1531.6 Q423.999 1524.47 422.17 1520.93 Q420.365 1517.37 416.73 1517.37 M416.73 1513.66 Q422.54 1513.66 425.596 1518.27 Q428.675 1522.85 428.675 1531.6 Q428.675 1540.33 425.596 1544.94 Q422.54 1549.52 416.73 1549.52 Q410.92 1549.52 407.841 1544.94 Q404.786 1540.33 404.786 1531.6 Q404.786 1522.85 407.841 1518.27 Q410.92 1513.66 416.73 1513.66 Z" fill="#000000" fill-rule="evenodd" fill-opacity="1" /><path clip-path="url(#clip520)" d="M446.892 1517.37 Q443.281 1517.37 441.452 1520.93 Q439.647 1524.47 439.647 1531.6 Q439.647 1538.71 441.452 1542.27 Q443.281 1545.82 446.892 1545.82 Q450.526 1545.82 452.332 1542.27 Q454.161 1538.71 454.161 1531.6 Q454.161 1524.47 452.332 1520.93 Q450.526 1517.37 446.892 1517.37 M446.892 1513.66 Q452.702 1513.66 455.758 1518.27 Q458.837 1522.85 458.837 1531.6 Q458.837 1540.33 455.758 1544.94 Q452.702 1549.52 446.892 1549.52 Q441.082 1549.52 438.003 1544.94 Q434.948 1540.33 434.948 1531.6 Q434.948 1522.85 438.003 1518.27 Q441.082 1513.66 446.892 1513.66 Z" fill="#000000" fill-rule="evenodd" fill-opacity="1" /><path clip-path="url(#clip520)" d="M465.874 1514.29 L488.096 1514.29 L488.096 1516.28 L475.549 1548.85 L470.665 1548.85 L482.471 1518.22 L465.874 1518.22 L465.874 1514.29 Z" fill="#000000" fill-rule="evenodd" fill-opacity="1" /><path clip-path="url(#clip520)" d="M693.295 1544.91 L700.933 1544.91 L700.933 1518.55 L692.623 1520.21 L692.623 1515.95 L700.887 1514.29 L705.563 1514.29 L705.563 1544.91 L713.202 1544.91 L713.202 1548.85 L693.295 1548.85 L693.295 1544.91 Z" fill="#000000" fill-rule="evenodd" fill-opacity="1" /><path clip-path="url(#clip520)" d="M722.693 1514.29 L741.049 1514.29 L741.049 1518.22 L726.975 1518.22 L726.975 1526.7 Q727.994 1526.35 729.012 1526.19 Q730.031 1526 731.049 1526 Q736.836 1526 740.216 1529.17 Q743.595 1532.34 743.595 1537.76 Q743.595 1543.34 740.123 1546.44 Q736.651 1549.52 730.331 1549.52 Q728.156 1549.52 725.887 1549.15 Q723.642 1548.78 721.234 1548.04 L721.234 1543.34 Q723.318 1544.47 725.54 1545.03 Q727.762 1545.58 730.239 1545.58 Q734.243 1545.58 736.581 1543.48 Q738.919 1541.37 738.919 1537.76 Q738.919 1534.15 736.581 1532.04 Q734.243 1529.94 730.239 1529.94 Q728.364 1529.94 726.489 1530.35 Q724.637 1530.77 722.693 1531.65 L722.693 1514.29 Z" fill="#000000" fill-rule="evenodd" fill-opacity="1" /><path clip-path="url(#clip520)" d="M753.294 1542.97 L758.179 1542.97 L758.179 1548.85 L753.294 1548.85 L753.294 1542.97 M753.294 1524.33 L758.179 1524.33 L758.179 1530.21 L753.294 1530.21 L753.294 1524.33 Z" fill="#000000" fill-rule="evenodd" fill-opacity="1" /><path clip-path="url(#clip520)" d="M778.78 1517.37 Q775.169 1517.37 773.341 1520.93 Q771.535 1524.47 771.535 1531.6 Q771.535 1538.71 773.341 1542.27 Q775.169 1545.82 778.78 1545.82 Q782.415 1545.82 784.22 1542.27 Q786.049 1538.71 786.049 1531.6 Q786.049 1524.47 784.22 1520.93 Q782.415 1517.37 778.78 1517.37 M778.78 1513.66 Q784.59 1513.66 787.646 1518.27 Q790.725 1522.85 790.725 1531.6 Q790.725 1540.33 787.646 1544.94 Q784.59 1549.52 778.78 1549.52 Q772.97 1549.52 769.891 1544.94 Q766.836 1540.33 766.836 1531.6 Q766.836 1522.85 769.891 1518.27 Q772.97 1513.66 778.78 1513.66 Z" fill="#000000" fill-rule="evenodd" fill-opacity="1" /><path clip-path="url(#clip520)" d="M808.942 1517.37 Q805.331 1517.37 803.502 1520.93 Q801.697 1524.47 801.697 1531.6 Q801.697 1538.71 803.502 1542.27 Q805.331 1545.82 808.942 1545.82 Q812.576 1545.82 814.382 1542.27 Q816.211 1538.71 816.211 1531.6 Q816.211 1524.47 814.382 1520.93 Q812.576 1517.37 808.942 1517.37 M808.942 1513.66 Q814.752 1513.66 817.808 1518.27 Q820.887 1522.85 820.887 1531.6 Q820.887 1540.33 817.808 1544.94 Q814.752 1549.52 808.942 1549.52 Q803.132 1549.52 800.053 1544.94 Q796.998 1540.33 796.998 1531.6 Q796.998 1522.85 800.053 1518.27 Q803.132 1513.66 808.942 1513.66 Z" fill="#000000" fill-rule="evenodd" fill-opacity="1" /><path clip-path="url(#clip520)" d="M829.59 1542.97 L834.474 1542.97 L834.474 1548.85 L829.59 1548.85 L829.59 1542.97 M829.59 1524.33 L834.474 1524.33 L834.474 1530.21 L829.59 1530.21 L829.59 1524.33 Z" fill="#000000" fill-rule="evenodd" fill-opacity="1" /><path clip-path="url(#clip520)" d="M855.076 1517.37 Q851.465 1517.37 849.636 1520.93 Q847.831 1524.47 847.831 1531.6 Q847.831 1538.71 849.636 1542.27 Q851.465 1545.82 855.076 1545.82 Q858.71 1545.82 860.516 1542.27 Q862.345 1538.71 862.345 1531.6 Q862.345 1524.47 860.516 1520.93 Q858.71 1517.37 855.076 1517.37 M855.076 1513.66 Q860.886 1513.66 863.942 1518.27 Q867.021 1522.85 867.021 1531.6 Q867.021 1540.33 863.942 1544.94 Q860.886 1549.52 855.076 1549.52 Q849.266 1549.52 846.187 1544.94 Q843.132 1540.33 843.132 1531.6 Q843.132 1522.85 846.187 1518.27 Q849.266 1513.66 855.076 1513.66 Z" fill="#000000" fill-rule="evenodd" fill-opacity="1" /><path clip-path="url(#clip520)" d="M885.238 1517.37 Q881.627 1517.37 879.798 1520.93 Q877.993 1524.47 877.993 1531.6 Q877.993 1538.71 879.798 1542.27 Q881.627 1545.82 885.238 1545.82 Q888.872 1545.82 890.678 1542.27 Q892.507 1538.71 892.507 1531.6 Q892.507 1524.47 890.678 1520.93 Q888.872 1517.37 885.238 1517.37 M885.238 1513.66 Q891.048 1513.66 894.104 1518.27 Q897.182 1522.85 897.182 1531.6 Q897.182 1540.33 894.104 1544.94 Q891.048 1549.52 885.238 1549.52 Q879.428 1549.52 876.349 1544.94 Q873.294 1540.33 873.294 1531.6 Q873.294 1522.85 876.349 1518.27 Q879.428 1513.66 885.238 1513.66 Z" fill="#000000" fill-rule="evenodd" fill-opacity="1" /><path clip-path="url(#clip520)" d="M905.4 1542.97 L910.284 1542.97 L910.284 1548.85 L905.4 1548.85 L905.4 1542.97 Z" fill="#000000" fill-rule="evenodd" fill-opacity="1" /><path clip-path="url(#clip520)" d="M924.497 1544.91 L940.816 1544.91 L940.816 1548.85 L918.872 1548.85 L918.872 1544.91 Q921.534 1542.16 926.117 1537.53 Q930.724 1532.88 931.904 1531.53 Q934.15 1529.01 935.029 1527.27 Q935.932 1525.51 935.932 1523.82 Q935.932 1521.07 933.988 1519.33 Q932.067 1517.6 928.965 1517.6 Q926.766 1517.6 924.312 1518.36 Q921.881 1519.13 919.104 1520.68 L919.104 1515.95 Q921.928 1514.82 924.381 1514.24 Q926.835 1513.66 928.872 1513.66 Q934.242 1513.66 937.437 1516.35 Q940.631 1519.03 940.631 1523.52 Q940.631 1525.65 939.821 1527.57 Q939.034 1529.47 936.928 1532.07 Q936.349 1532.74 933.247 1535.95 Q930.145 1539.15 924.497 1544.91 Z" fill="#000000" fill-rule="evenodd" fill-opacity="1" /><path clip-path="url(#clip520)" d="M950.678 1514.29 L969.034 1514.29 L969.034 1518.22 L954.96 1518.22 L954.96 1526.7 Q955.978 1526.35 956.997 1526.19 Q958.015 1526 959.034 1526 Q964.821 1526 968.201 1529.17 Q971.58 1532.34 971.58 1537.76 Q971.58 1543.34 968.108 1546.44 Q964.636 1549.52 958.316 1549.52 Q956.14 1549.52 953.872 1549.15 Q951.627 1548.78 949.219 1548.04 L949.219 1543.34 Q951.303 1544.47 953.525 1545.03 Q955.747 1545.58 958.224 1545.58 Q962.228 1545.58 964.566 1543.48 Q966.904 1541.37 966.904 1537.76 Q966.904 1534.15 964.566 1532.04 Q962.228 1529.94 958.224 1529.94 Q956.349 1529.94 954.474 1530.35 Q952.622 1530.77 950.678 1531.65 L950.678 1514.29 Z" fill="#000000" fill-rule="evenodd" fill-opacity="1" /><path clip-path="url(#clip520)" d="M979.613 1514.29 L1001.83 1514.29 L1001.83 1516.28 L989.288 1548.85 L984.404 1548.85 L996.21 1518.22 L979.613 1518.22 L979.613 1514.29 Z" fill="#000000" fill-rule="evenodd" fill-opacity="1" /><path clip-path="url(#clip520)" d="M1207.05 1544.91 L1214.69 1544.91 L1214.69 1518.55 L1206.38 1520.21 L1206.38 1515.95 L1214.64 1514.29 L1219.32 1514.29 L1219.32 1544.91 L1226.96 1544.91 L1226.96 1548.85 L1207.05 1548.85 L1207.05 1544.91 Z" fill="#000000" fill-rule="evenodd" fill-opacity="1" /><path clip-path="url(#clip520)" d="M1236.45 1514.29 L1254.81 1514.29 L1254.81 1518.22 L1240.73 1518.22 L1240.73 1526.7 Q1241.75 1526.35 1242.77 1526.19 Q1243.79 1526 1244.81 1526 Q1250.59 1526 1253.97 1529.17 Q1257.35 1532.34 1257.35 1537.76 Q1257.35 1543.34 1253.88 1546.44 Q1250.41 1549.52 1244.09 1549.52 Q1241.91 1549.52 1239.64 1549.15 Q1237.4 1548.78 1234.99 1548.04 L1234.99 1543.34 Q1237.07 1544.47 1239.3 1545.03 Q1241.52 1545.58 1244 1545.58 Q1248 1545.58 1250.34 1543.48 Q1252.68 1541.37 1252.68 1537.76 Q1252.68 1534.15 1250.34 1532.04 Q1248 1529.94 1244 1529.94 Q1242.12 1529.94 1240.25 1530.35 Q1238.39 1530.77 1236.45 1531.65 L1236.45 1514.29 Z" fill="#000000" fill-rule="evenodd" fill-opacity="1" /><path clip-path="url(#clip520)" d="M1267.05 1542.97 L1271.94 1542.97 L1271.94 1548.85 L1267.05 1548.85 L1267.05 1542.97 M1267.05 1524.33 L1271.94 1524.33 L1271.94 1530.21 L1267.05 1530.21 L1267.05 1524.33 Z" fill="#000000" fill-rule="evenodd" fill-opacity="1" /><path clip-path="url(#clip520)" d="M1292.54 1517.37 Q1288.93 1517.37 1287.1 1520.93 Q1285.29 1524.47 1285.29 1531.6 Q1285.29 1538.71 1287.1 1542.27 Q1288.93 1545.82 1292.54 1545.82 Q1296.17 1545.82 1297.98 1542.27 Q1299.81 1538.71 1299.81 1531.6 Q1299.81 1524.47 1297.98 1520.93 Q1296.17 1517.37 1292.54 1517.37 M1292.54 1513.66 Q1298.35 1513.66 1301.4 1518.27 Q1304.48 1522.85 1304.48 1531.6 Q1304.48 1540.33 1301.4 1544.94 Q1298.35 1549.52 1292.54 1549.52 Q1286.73 1549.52 1283.65 1544.94 Q1280.59 1540.33 1280.59 1531.6 Q1280.59 1522.85 1283.65 1518.27 Q1286.73 1513.66 1292.54 1513.66 Z" fill="#000000" fill-rule="evenodd" fill-opacity="1" /><path clip-path="url(#clip520)" d="M1322.7 1517.37 Q1319.09 1517.37 1317.26 1520.93 Q1315.45 1524.47 1315.45 1531.6 Q1315.45 1538.71 1317.26 1542.27 Q1319.09 1545.82 1322.7 1545.82 Q1326.33 1545.82 1328.14 1542.27 Q1329.97 1538.71 1329.97 1531.6 Q1329.97 1524.47 1328.14 1520.93 Q1326.33 1517.37 1322.7 1517.37 M1322.7 1513.66 Q1328.51 1513.66 1331.57 1518.27 Q1334.64 1522.85 1334.64 1531.6 Q1334.64 1540.33 1331.57 1544.94 Q1328.51 1549.52 1322.7 1549.52 Q1316.89 1549.52 1313.81 1544.94 Q1310.76 1540.33 1310.76 1531.6 Q1310.76 1522.85 1313.81 1518.27 Q1316.89 1513.66 1322.7 1513.66 Z" fill="#000000" fill-rule="evenodd" fill-opacity="1" /><path clip-path="url(#clip520)" d="M1343.35 1542.97 L1348.23 1542.97 L1348.23 1548.85 L1343.35 1548.85 L1343.35 1542.97 M1343.35 1524.33 L1348.23 1524.33 L1348.23 1530.21 L1343.35 1530.21 L1343.35 1524.33 Z" fill="#000000" fill-rule="evenodd" fill-opacity="1" /><path clip-path="url(#clip520)" d="M1368.83 1517.37 Q1365.22 1517.37 1363.39 1520.93 Q1361.59 1524.47 1361.59 1531.6 Q1361.59 1538.71 1363.39 1542.27 Q1365.22 1545.82 1368.83 1545.82 Q1372.47 1545.82 1374.27 1542.27 Q1376.1 1538.71 1376.1 1531.6 Q1376.1 1524.47 1374.27 1520.93 Q1372.47 1517.37 1368.83 1517.37 M1368.83 1513.66 Q1374.64 1513.66 1377.7 1518.27 Q1380.78 1522.85 1380.78 1531.6 Q1380.78 1540.33 1377.7 1544.94 Q1374.64 1549.52 1368.83 1549.52 Q1363.02 1549.52 1359.94 1544.94 Q1356.89 1540.33 1356.89 1531.6 Q1356.89 1522.85 1359.94 1518.27 Q1363.02 1513.66 1368.83 1513.66 Z" fill="#000000" fill-rule="evenodd" fill-opacity="1" /><path clip-path="url(#clip520)" d="M1399 1517.37 Q1395.38 1517.37 1393.56 1520.93 Q1391.75 1524.47 1391.75 1531.6 Q1391.75 1538.71 1393.56 1542.27 Q1395.38 1545.82 1399 1545.82 Q1402.63 1545.82 1404.44 1542.27 Q1406.26 1538.71 1406.26 1531.6 Q1406.26 1524.47 1404.44 1520.93 Q1402.63 1517.37 1399 1517.37 M1399 1513.66 Q1404.81 1513.66 1407.86 1518.27 Q1410.94 1522.85 1410.94 1531.6 Q1410.94 1540.33 1407.86 1544.94 Q1404.81 1549.52 1399 1549.52 Q1393.19 1549.52 1390.11 1544.94 Q1387.05 1540.33 1387.05 1531.6 Q1387.05 1522.85 1390.11 1518.27 Q1393.19 1513.66 1399 1513.66 Z" fill="#000000" fill-rule="evenodd" fill-opacity="1" /><path clip-path="url(#clip520)" d="M1419.16 1542.97 L1424.04 1542.97 L1424.04 1548.85 L1419.16 1548.85 L1419.16 1542.97 Z" fill="#000000" fill-rule="evenodd" fill-opacity="1" /><path clip-path="url(#clip520)" d="M1434.27 1514.29 L1452.63 1514.29 L1452.63 1518.22 L1438.56 1518.22 L1438.56 1526.7 Q1439.57 1526.35 1440.59 1526.19 Q1441.61 1526 1442.63 1526 Q1448.42 1526 1451.8 1529.17 Q1455.18 1532.34 1455.18 1537.76 Q1455.18 1543.34 1451.7 1546.44 Q1448.23 1549.52 1441.91 1549.52 Q1439.74 1549.52 1437.47 1549.15 Q1435.22 1548.78 1432.81 1548.04 L1432.81 1543.34 Q1434.9 1544.47 1437.12 1545.03 Q1439.34 1545.58 1441.82 1545.58 Q1445.82 1545.58 1448.16 1543.48 Q1450.5 1541.37 1450.5 1537.76 Q1450.5 1534.15 1448.16 1532.04 Q1445.82 1529.94 1441.82 1529.94 Q1439.94 1529.94 1438.07 1530.35 Q1436.22 1530.77 1434.27 1531.65 L1434.27 1514.29 Z" fill="#000000" fill-rule="evenodd" fill-opacity="1" /><path clip-path="url(#clip520)" d="M1474.39 1517.37 Q1470.78 1517.37 1468.95 1520.93 Q1467.14 1524.47 1467.14 1531.6 Q1467.14 1538.71 1468.95 1542.27 Q1470.78 1545.82 1474.39 1545.82 Q1478.02 1545.82 1479.83 1542.27 Q1481.66 1538.71 1481.66 1531.6 Q1481.66 1524.47 1479.83 1520.93 Q1478.02 1517.37 1474.39 1517.37 M1474.39 1513.66 Q1480.2 1513.66 1483.25 1518.27 Q1486.33 1522.85 1486.33 1531.6 Q1486.33 1540.33 1483.25 1544.94 Q1480.2 1549.52 1474.39 1549.52 Q1468.58 1549.52 1465.5 1544.94 Q1462.44 1540.33 1462.44 1531.6 Q1462.44 1522.85 1465.5 1518.27 Q1468.58 1513.66 1474.39 1513.66 Z" fill="#000000" fill-rule="evenodd" fill-opacity="1" /><path clip-path="url(#clip520)" d="M1493.37 1514.29 L1515.59 1514.29 L1515.59 1516.28 L1503.05 1548.85 L1498.16 1548.85 L1509.97 1518.22 L1493.37 1518.22 L1493.37 1514.29 Z" fill="#000000" fill-rule="evenodd" fill-opacity="1" /><path clip-path="url(#clip520)" d="M1720.79 1544.91 L1728.43 1544.91 L1728.43 1518.55 L1720.12 1520.21 L1720.12 1515.95 L1728.38 1514.29 L1733.06 1514.29 L1733.06 1544.91 L1740.7 1544.91 L1740.7 1548.85 L1720.79 1548.85 L1720.79 1544.91 Z" fill="#000000" fill-rule="evenodd" fill-opacity="1" /><path clip-path="url(#clip520)" d="M1750.19 1514.29 L1768.55 1514.29 L1768.55 1518.22 L1754.47 1518.22 L1754.47 1526.7 Q1755.49 1526.35 1756.51 1526.19 Q1757.53 1526 1758.55 1526 Q1764.33 1526 1767.71 1529.17 Q1771.09 1532.34 1771.09 1537.76 Q1771.09 1543.34 1767.62 1546.44 Q1764.15 1549.52 1757.83 1549.52 Q1755.65 1549.52 1753.38 1549.15 Q1751.14 1548.78 1748.73 1548.04 L1748.73 1543.34 Q1750.81 1544.47 1753.04 1545.03 Q1755.26 1545.58 1757.74 1545.58 Q1761.74 1545.58 1764.08 1543.48 Q1766.42 1541.37 1766.42 1537.76 Q1766.42 1534.15 1764.08 1532.04 Q1761.74 1529.94 1757.74 1529.94 Q1755.86 1529.94 1753.99 1530.35 Q1752.13 1530.77 1750.19 1531.65 L1750.19 1514.29 Z" fill="#000000" fill-rule="evenodd" fill-opacity="1" /><path clip-path="url(#clip520)" d="M1780.79 1542.97 L1785.67 1542.97 L1785.67 1548.85 L1780.79 1548.85 L1780.79 1542.97 M1780.79 1524.33 L1785.67 1524.33 L1785.67 1530.21 L1780.79 1530.21 L1780.79 1524.33 Z" fill="#000000" fill-rule="evenodd" fill-opacity="1" /><path clip-path="url(#clip520)" d="M1806.28 1517.37 Q1802.67 1517.37 1800.84 1520.93 Q1799.03 1524.47 1799.03 1531.6 Q1799.03 1538.71 1800.84 1542.27 Q1802.67 1545.82 1806.28 1545.82 Q1809.91 1545.82 1811.72 1542.27 Q1813.55 1538.71 1813.55 1531.6 Q1813.55 1524.47 1811.72 1520.93 Q1809.91 1517.37 1806.28 1517.37 M1806.28 1513.66 Q1812.09 1513.66 1815.14 1518.27 Q1818.22 1522.85 1818.22 1531.6 Q1818.22 1540.33 1815.14 1544.94 Q1812.09 1549.52 1806.28 1549.52 Q1800.47 1549.52 1797.39 1544.94 Q1794.33 1540.33 1794.33 1531.6 Q1794.33 1522.85 1797.39 1518.27 Q1800.47 1513.66 1806.28 1513.66 Z" fill="#000000" fill-rule="evenodd" fill-opacity="1" /><path clip-path="url(#clip520)" d="M1836.44 1517.37 Q1832.83 1517.37 1831 1520.93 Q1829.19 1524.47 1829.19 1531.6 Q1829.19 1538.71 1831 1542.27 Q1832.83 1545.82 1836.44 1545.82 Q1840.07 1545.82 1841.88 1542.27 Q1843.71 1538.71 1843.71 1531.6 Q1843.71 1524.47 1841.88 1520.93 Q1840.07 1517.37 1836.44 1517.37 M1836.44 1513.66 Q1842.25 1513.66 1845.3 1518.27 Q1848.38 1522.85 1848.38 1531.6 Q1848.38 1540.33 1845.3 1544.94 Q1842.25 1549.52 1836.44 1549.52 Q1830.63 1549.52 1827.55 1544.94 Q1824.49 1540.33 1824.49 1531.6 Q1824.49 1522.85 1827.55 1518.27 Q1830.63 1513.66 1836.44 1513.66 Z" fill="#000000" fill-rule="evenodd" fill-opacity="1" /><path clip-path="url(#clip520)" d="M1857.09 1542.97 L1861.97 1542.97 L1861.97 1548.85 L1857.09 1548.85 L1857.09 1542.97 M1857.09 1524.33 L1861.97 1524.33 L1861.97 1530.21 L1857.09 1530.21 L1857.09 1524.33 Z" fill="#000000" fill-rule="evenodd" fill-opacity="1" /><path clip-path="url(#clip520)" d="M1882.57 1517.37 Q1878.96 1517.37 1877.13 1520.93 Q1875.33 1524.47 1875.33 1531.6 Q1875.33 1538.71 1877.13 1542.27 Q1878.96 1545.82 1882.57 1545.82 Q1886.21 1545.82 1888.01 1542.27 Q1889.84 1538.71 1889.84 1531.6 Q1889.84 1524.47 1888.01 1520.93 Q1886.21 1517.37 1882.57 1517.37 M1882.57 1513.66 Q1888.38 1513.66 1891.44 1518.27 Q1894.52 1522.85 1894.52 1531.6 Q1894.52 1540.33 1891.44 1544.94 Q1888.38 1549.52 1882.57 1549.52 Q1876.76 1549.52 1873.68 1544.94 Q1870.63 1540.33 1870.63 1531.6 Q1870.63 1522.85 1873.68 1518.27 Q1876.76 1513.66 1882.57 1513.66 Z" fill="#000000" fill-rule="evenodd" fill-opacity="1" /><path clip-path="url(#clip520)" d="M1912.73 1517.37 Q1909.12 1517.37 1907.29 1520.93 Q1905.49 1524.47 1905.49 1531.6 Q1905.49 1538.71 1907.29 1542.27 Q1909.12 1545.82 1912.73 1545.82 Q1916.37 1545.82 1918.17 1542.27 Q1920 1538.71 1920 1531.6 Q1920 1524.47 1918.17 1520.93 Q1916.37 1517.37 1912.73 1517.37 M1912.73 1513.66 Q1918.54 1513.66 1921.6 1518.27 Q1924.68 1522.85 1924.68 1531.6 Q1924.68 1540.33 1921.6 1544.94 Q1918.54 1549.52 1912.73 1549.52 Q1906.92 1549.52 1903.85 1544.94 Q1900.79 1540.33 1900.79 1531.6 Q1900.79 1522.85 1903.85 1518.27 Q1906.92 1513.66 1912.73 1513.66 Z" fill="#000000" fill-rule="evenodd" fill-opacity="1" /><path clip-path="url(#clip520)" d="M1932.9 1542.97 L1937.78 1542.97 L1937.78 1548.85 L1932.9 1548.85 L1932.9 1542.97 Z" fill="#000000" fill-rule="evenodd" fill-opacity="1" /><path clip-path="url(#clip520)" d="M1946.79 1514.29 L1969.01 1514.29 L1969.01 1516.28 L1956.46 1548.85 L1951.58 1548.85 L1963.38 1518.22 L1946.79 1518.22 L1946.79 1514.29 Z" fill="#000000" fill-rule="evenodd" fill-opacity="1" /><path clip-path="url(#clip520)" d="M1978.17 1514.29 L1996.53 1514.29 L1996.53 1518.22 L1982.46 1518.22 L1982.46 1526.7 Q1983.47 1526.35 1984.49 1526.19 Q1985.51 1526 1986.53 1526 Q1992.32 1526 1995.7 1529.17 Q1999.08 1532.34 1999.08 1537.76 Q1999.08 1543.34 1995.6 1546.44 Q1992.13 1549.52 1985.81 1549.52 Q1983.64 1549.52 1981.37 1549.15 Q1979.12 1548.78 1976.72 1548.04 L1976.72 1543.34 Q1978.8 1544.47 1981.02 1545.03 Q1983.24 1545.58 1985.72 1545.58 Q1989.72 1545.58 1992.06 1543.48 Q1994.4 1541.37 1994.4 1537.76 Q1994.4 1534.15 1992.06 1532.04 Q1989.72 1529.94 1985.72 1529.94 Q1983.85 1529.94 1981.97 1530.35 Q1980.12 1530.77 1978.17 1531.65 L1978.17 1514.29 Z" fill="#000000" fill-rule="evenodd" fill-opacity="1" /><path clip-path="url(#clip520)" d="M2007.11 1514.29 L2029.33 1514.29 L2029.33 1516.28 L2016.78 1548.85 L2011.9 1548.85 L2023.71 1518.22 L2007.11 1518.22 L2007.11 1514.29 Z" fill="#000000" fill-rule="evenodd" fill-opacity="1" /><polyline clip-path="url(#clip522)" style="stroke:#000000; stroke-linecap:butt; stroke-linejoin:round; stroke-width:2; stroke-opacity:0.1; fill:none" points="
  274.677,1377.83 2352.76,1377.83 
  "/>
<polyline clip-path="url(#clip522)" style="stroke:#000000; stroke-linecap:butt; stroke-linejoin:round; stroke-width:2; stroke-opacity:0.1; fill:none" points="
  274.677,1038.39 2352.76,1038.39 
  "/>
<polyline clip-path="url(#clip522)" style="stroke:#000000; stroke-linecap:butt; stroke-linejoin:round; stroke-width:2; stroke-opacity:0.1; fill:none" points="
  274.677,698.959 2352.76,698.959 
  "/>
<polyline clip-path="url(#clip522)" style="stroke:#000000; stroke-linecap:butt; stroke-linejoin:round; stroke-width:2; stroke-opacity:0.1; fill:none" points="
  274.677,359.524 2352.76,359.524 
  "/>
<polyline clip-path="url(#clip520)" style="stroke:#000000; stroke-linecap:butt; stroke-linejoin:round; stroke-width:4; stroke-opacity:1; fill:none" points="
  274.677,1486.45 274.677,47.2441 
  "/>
<polyline clip-path="url(#clip520)" style="stroke:#000000; stroke-linecap:butt; stroke-linejoin:round; stroke-width:4; stroke-opacity:1; fill:none" points="
  274.677,1377.83 293.573,1377.83 
  "/>
<polyline clip-path="url(#clip520)" style="stroke:#000000; stroke-linecap:butt; stroke-linejoin:round; stroke-width:4; stroke-opacity:1; fill:none" points="
  274.677,1038.39 293.573,1038.39 
  "/>
<polyline clip-path="url(#clip520)" style="stroke:#000000; stroke-linecap:butt; stroke-linejoin:round; stroke-width:4; stroke-opacity:1; fill:none" points="
  274.677,698.959 293.573,698.959 
  "/>
<polyline clip-path="url(#clip520)" style="stroke:#000000; stroke-linecap:butt; stroke-linejoin:round; stroke-width:4; stroke-opacity:1; fill:none" points="
  274.677,359.524 293.573,359.524 
  "/>
<path clip-path="url(#clip520)" d="M52.659 1391.17 L60.2978 1391.17 L60.2978 1364.81 L51.9877 1366.47 L51.9877 1362.22 L60.2515 1360.55 L64.9274 1360.55 L64.9274 1391.17 L72.5663 1391.17 L72.5663 1395.11 L52.659 1395.11 L52.659 1391.17 Z" fill="#000000" fill-rule="evenodd" fill-opacity="1" /><path clip-path="url(#clip520)" d="M92.5893 1375.97 Q89.4412 1375.97 87.5894 1378.12 Q85.7607 1380.27 85.7607 1384.02 Q85.7607 1387.75 87.5894 1389.92 Q89.4412 1392.08 92.5893 1392.08 Q95.7375 1392.08 97.5662 1389.92 Q99.418 1387.75 99.418 1384.02 Q99.418 1380.27 97.5662 1378.12 Q95.7375 1375.97 92.5893 1375.97 M101.872 1361.31 L101.872 1365.57 Q100.112 1364.74 98.3069 1364.3 Q96.5245 1363.86 94.7652 1363.86 Q90.1356 1363.86 87.682 1366.98 Q85.2514 1370.11 84.9042 1376.43 Q86.2699 1374.41 88.3301 1373.35 Q90.3903 1372.26 92.8671 1372.26 Q98.0754 1372.26 101.085 1375.43 Q104.117 1378.58 104.117 1384.02 Q104.117 1389.34 100.969 1392.56 Q97.8208 1395.78 92.5893 1395.78 Q86.594 1395.78 83.4227 1391.2 Q80.2514 1386.59 80.2514 1377.86 Q80.2514 1369.67 84.1403 1364.81 Q88.0292 1359.92 94.5801 1359.92 Q96.3393 1359.92 98.1217 1360.27 Q99.9273 1360.62 101.872 1361.31 Z" fill="#000000" fill-rule="evenodd" fill-opacity="1" /><path clip-path="url(#clip520)" d="M126.339 1376.47 Q129.696 1377.19 131.571 1379.46 Q133.469 1381.73 133.469 1385.06 Q133.469 1390.18 129.95 1392.98 Q126.432 1395.78 119.95 1395.78 Q117.774 1395.78 115.46 1395.34 Q113.168 1394.92 110.714 1394.07 L110.714 1389.55 Q112.659 1390.69 114.973 1391.27 Q117.288 1391.84 119.811 1391.84 Q124.21 1391.84 126.501 1390.11 Q128.816 1388.37 128.816 1385.06 Q128.816 1382.01 126.663 1380.29 Q124.534 1378.56 120.714 1378.56 L116.686 1378.56 L116.686 1374.72 L120.899 1374.72 Q124.348 1374.72 126.177 1373.35 Q128.006 1371.96 128.006 1369.37 Q128.006 1366.71 126.108 1365.29 Q124.233 1363.86 120.714 1363.86 Q118.793 1363.86 116.594 1364.28 Q114.395 1364.69 111.756 1365.57 L111.756 1361.41 Q114.418 1360.66 116.733 1360.29 Q119.071 1359.92 121.131 1359.92 Q126.455 1359.92 129.557 1362.35 Q132.659 1364.76 132.659 1368.88 Q132.659 1371.75 131.015 1373.74 Q129.372 1375.71 126.339 1376.47 Z" fill="#000000" fill-rule="evenodd" fill-opacity="1" /><path clip-path="url(#clip520)" d="M142.334 1389.23 L147.219 1389.23 L147.219 1395.11 L142.334 1395.11 L142.334 1389.23 Z" fill="#000000" fill-rule="evenodd" fill-opacity="1" /><path clip-path="url(#clip520)" d="M167.404 1363.63 Q163.793 1363.63 161.964 1367.19 Q160.158 1370.73 160.158 1377.86 Q160.158 1384.97 161.964 1388.53 Q163.793 1392.08 167.404 1392.08 Q171.038 1392.08 172.844 1388.53 Q174.672 1384.97 174.672 1377.86 Q174.672 1370.73 172.844 1367.19 Q171.038 1363.63 167.404 1363.63 M167.404 1359.92 Q173.214 1359.92 176.269 1364.53 Q179.348 1369.11 179.348 1377.86 Q179.348 1386.59 176.269 1391.2 Q173.214 1395.78 167.404 1395.78 Q161.594 1395.78 158.515 1391.2 Q155.459 1386.59 155.459 1377.86 Q155.459 1369.11 158.515 1364.53 Q161.594 1359.92 167.404 1359.92 Z" fill="#000000" fill-rule="evenodd" fill-opacity="1" /><path clip-path="url(#clip520)" d="M191.593 1391.17 L207.913 1391.17 L207.913 1395.11 L185.968 1395.11 L185.968 1391.17 Q188.63 1388.42 193.214 1383.79 Q197.82 1379.14 199.001 1377.79 Q201.246 1375.27 202.126 1373.53 Q203.029 1371.78 203.029 1370.09 Q203.029 1367.33 201.084 1365.59 Q199.163 1363.86 196.061 1363.86 Q193.862 1363.86 191.408 1364.62 Q188.978 1365.39 186.2 1366.94 L186.2 1362.22 Q189.024 1361.08 191.478 1360.5 Q193.931 1359.92 195.968 1359.92 Q201.339 1359.92 204.533 1362.61 Q207.728 1365.29 207.728 1369.78 Q207.728 1371.91 206.917 1373.84 Q206.13 1375.73 204.024 1378.33 Q203.445 1379 200.343 1382.22 Q197.242 1385.41 191.593 1391.17 Z" fill="#000000" fill-rule="evenodd" fill-opacity="1" /><path clip-path="url(#clip520)" d="M217.774 1360.55 L236.13 1360.55 L236.13 1364.48 L222.056 1364.48 L222.056 1372.96 Q223.075 1372.61 224.093 1372.45 Q225.112 1372.26 226.13 1372.26 Q231.917 1372.26 235.297 1375.43 Q238.677 1378.6 238.677 1384.02 Q238.677 1389.6 235.204 1392.7 Q231.732 1395.78 225.413 1395.78 Q223.237 1395.78 220.968 1395.41 Q218.723 1395.04 216.316 1394.3 L216.316 1389.6 Q218.399 1390.73 220.621 1391.29 Q222.843 1391.84 225.32 1391.84 Q229.325 1391.84 231.663 1389.74 Q234.001 1387.63 234.001 1384.02 Q234.001 1380.41 231.663 1378.3 Q229.325 1376.2 225.32 1376.2 Q223.445 1376.2 221.57 1376.61 Q219.718 1377.03 217.774 1377.91 L217.774 1360.55 Z" fill="#000000" fill-rule="evenodd" fill-opacity="1" /><path clip-path="url(#clip520)" d="M51.6636 1051.74 L59.3025 1051.74 L59.3025 1025.37 L50.9923 1027.04 L50.9923 1022.78 L59.2562 1021.11 L63.9321 1021.11 L63.9321 1051.74 L71.5709 1051.74 L71.5709 1055.67 L51.6636 1055.67 L51.6636 1051.74 Z" fill="#000000" fill-rule="evenodd" fill-opacity="1" /><path clip-path="url(#clip520)" d="M91.594 1036.53 Q88.4458 1036.53 86.594 1038.68 Q84.7653 1040.84 84.7653 1044.59 Q84.7653 1048.31 86.594 1050.49 Q88.4458 1052.64 91.594 1052.64 Q94.7421 1052.64 96.5708 1050.49 Q98.4226 1048.31 98.4226 1044.59 Q98.4226 1040.84 96.5708 1038.68 Q94.7421 1036.53 91.594 1036.53 M100.876 1021.88 L100.876 1026.14 Q99.1171 1025.3 97.3115 1024.86 Q95.5291 1024.42 93.7699 1024.42 Q89.1403 1024.42 86.6866 1027.55 Q84.256 1030.67 83.9088 1036.99 Q85.2746 1034.98 87.3347 1033.91 Q89.3949 1032.83 91.8717 1032.83 Q97.0801 1032.83 100.089 1036 Q103.122 1039.15 103.122 1044.59 Q103.122 1049.91 99.9736 1053.13 Q96.8254 1056.35 91.594 1056.35 Q85.5986 1056.35 82.4274 1051.76 Q79.2561 1047.16 79.2561 1038.43 Q79.2561 1030.23 83.1449 1025.37 Q87.0338 1020.49 93.5847 1020.49 Q95.3439 1020.49 97.1263 1020.84 Q98.9319 1021.18 100.876 1021.88 Z" fill="#000000" fill-rule="evenodd" fill-opacity="1" /><path clip-path="url(#clip520)" d="M125.344 1037.04 Q128.7 1037.76 130.575 1040.03 Q132.473 1042.29 132.473 1045.63 Q132.473 1050.74 128.955 1053.54 Q125.436 1056.35 118.955 1056.35 Q116.779 1056.35 114.464 1055.91 Q112.173 1055.49 109.719 1054.63 L109.719 1050.12 Q111.663 1051.25 113.978 1051.83 Q116.293 1052.41 118.816 1052.41 Q123.214 1052.41 125.506 1050.67 Q127.821 1048.94 127.821 1045.63 Q127.821 1042.57 125.668 1040.86 Q123.538 1039.12 119.719 1039.12 L115.691 1039.12 L115.691 1035.28 L119.904 1035.28 Q123.353 1035.28 125.182 1033.91 Q127.01 1032.53 127.01 1029.93 Q127.01 1027.27 125.112 1025.86 Q123.237 1024.42 119.719 1024.42 Q117.798 1024.42 115.598 1024.84 Q113.399 1025.26 110.761 1026.14 L110.761 1021.97 Q113.423 1021.23 115.737 1020.86 Q118.075 1020.49 120.135 1020.49 Q125.46 1020.49 128.561 1022.92 Q131.663 1025.33 131.663 1029.45 Q131.663 1032.32 130.02 1034.31 Q128.376 1036.28 125.344 1037.04 Z" fill="#000000" fill-rule="evenodd" fill-opacity="1" /><path clip-path="url(#clip520)" d="M141.339 1049.79 L146.223 1049.79 L146.223 1055.67 L141.339 1055.67 L141.339 1049.79 Z" fill="#000000" fill-rule="evenodd" fill-opacity="1" /><path clip-path="url(#clip520)" d="M166.408 1024.19 Q162.797 1024.19 160.969 1027.76 Q159.163 1031.3 159.163 1038.43 Q159.163 1045.54 160.969 1049.1 Q162.797 1052.64 166.408 1052.64 Q170.043 1052.64 171.848 1049.1 Q173.677 1045.54 173.677 1038.43 Q173.677 1031.3 171.848 1027.76 Q170.043 1024.19 166.408 1024.19 M166.408 1020.49 Q172.219 1020.49 175.274 1025.1 Q178.353 1029.68 178.353 1038.43 Q178.353 1047.16 175.274 1051.76 Q172.219 1056.35 166.408 1056.35 Q160.598 1056.35 157.52 1051.76 Q154.464 1047.16 154.464 1038.43 Q154.464 1029.68 157.52 1025.1 Q160.598 1020.49 166.408 1020.49 Z" fill="#000000" fill-rule="evenodd" fill-opacity="1" /><path clip-path="url(#clip520)" d="M186.617 1021.11 L204.973 1021.11 L204.973 1025.05 L190.899 1025.05 L190.899 1033.52 Q191.918 1033.17 192.936 1033.01 Q193.955 1032.83 194.973 1032.83 Q200.76 1032.83 204.14 1036 Q207.519 1039.17 207.519 1044.59 Q207.519 1050.16 204.047 1053.27 Q200.575 1056.35 194.255 1056.35 Q192.08 1056.35 189.811 1055.97 Q187.566 1055.6 185.158 1054.86 L185.158 1050.16 Q187.242 1051.3 189.464 1051.85 Q191.686 1052.41 194.163 1052.41 Q198.167 1052.41 200.505 1050.3 Q202.843 1048.2 202.843 1044.59 Q202.843 1040.97 200.505 1038.87 Q198.167 1036.76 194.163 1036.76 Q192.288 1036.76 190.413 1037.18 Q188.561 1037.6 186.617 1038.47 L186.617 1021.11 Z" fill="#000000" fill-rule="evenodd" fill-opacity="1" /><path clip-path="url(#clip520)" d="M226.732 1024.19 Q223.121 1024.19 221.292 1027.76 Q219.487 1031.3 219.487 1038.43 Q219.487 1045.54 221.292 1049.1 Q223.121 1052.64 226.732 1052.64 Q230.366 1052.64 232.172 1049.1 Q234.001 1045.54 234.001 1038.43 Q234.001 1031.3 232.172 1027.76 Q230.366 1024.19 226.732 1024.19 M226.732 1020.49 Q232.542 1020.49 235.598 1025.1 Q238.677 1029.68 238.677 1038.43 Q238.677 1047.16 235.598 1051.76 Q232.542 1056.35 226.732 1056.35 Q220.922 1056.35 217.843 1051.76 Q214.788 1047.16 214.788 1038.43 Q214.788 1029.68 217.843 1025.1 Q220.922 1020.49 226.732 1020.49 Z" fill="#000000" fill-rule="evenodd" fill-opacity="1" /><path clip-path="url(#clip520)" d="M52.659 712.304 L60.2978 712.304 L60.2978 685.938 L51.9877 687.605 L51.9877 683.346 L60.2515 681.679 L64.9274 681.679 L64.9274 712.304 L72.5663 712.304 L72.5663 716.239 L52.659 716.239 L52.659 712.304 Z" fill="#000000" fill-rule="evenodd" fill-opacity="1" /><path clip-path="url(#clip520)" d="M92.5893 697.096 Q89.4412 697.096 87.5894 699.248 Q85.7607 701.401 85.7607 705.151 Q85.7607 708.878 87.5894 711.054 Q89.4412 713.207 92.5893 713.207 Q95.7375 713.207 97.5662 711.054 Q99.418 708.878 99.418 705.151 Q99.418 701.401 97.5662 699.248 Q95.7375 697.096 92.5893 697.096 M101.872 682.443 L101.872 686.702 Q100.112 685.869 98.3069 685.429 Q96.5245 684.989 94.7652 684.989 Q90.1356 684.989 87.682 688.114 Q85.2514 691.239 84.9042 697.559 Q86.2699 695.545 88.3301 694.48 Q90.3903 693.392 92.8671 693.392 Q98.0754 693.392 101.085 696.563 Q104.117 699.711 104.117 705.151 Q104.117 710.475 100.969 713.693 Q97.8208 716.91 92.5893 716.91 Q86.594 716.91 83.4227 712.327 Q80.2514 707.721 80.2514 698.994 Q80.2514 690.799 84.1403 685.938 Q88.0292 681.054 94.5801 681.054 Q96.3393 681.054 98.1217 681.401 Q99.9273 681.748 101.872 682.443 Z" fill="#000000" fill-rule="evenodd" fill-opacity="1" /><path clip-path="url(#clip520)" d="M126.339 697.605 Q129.696 698.322 131.571 700.591 Q133.469 702.859 133.469 706.193 Q133.469 711.308 129.95 714.109 Q126.432 716.91 119.95 716.91 Q117.774 716.91 115.46 716.47 Q113.168 716.054 110.714 715.197 L110.714 710.683 Q112.659 711.818 114.973 712.396 Q117.288 712.975 119.811 712.975 Q124.21 712.975 126.501 711.239 Q128.816 709.503 128.816 706.193 Q128.816 703.137 126.663 701.424 Q124.534 699.688 120.714 699.688 L116.686 699.688 L116.686 695.846 L120.899 695.846 Q124.348 695.846 126.177 694.48 Q128.006 693.091 128.006 690.498 Q128.006 687.836 126.108 686.424 Q124.233 684.989 120.714 684.989 Q118.793 684.989 116.594 685.406 Q114.395 685.823 111.756 686.702 L111.756 682.535 Q114.418 681.795 116.733 681.424 Q119.071 681.054 121.131 681.054 Q126.455 681.054 129.557 683.485 Q132.659 685.892 132.659 690.012 Q132.659 692.883 131.015 694.873 Q129.372 696.841 126.339 697.605 Z" fill="#000000" fill-rule="evenodd" fill-opacity="1" /><path clip-path="url(#clip520)" d="M142.334 710.359 L147.219 710.359 L147.219 716.239 L142.334 716.239 L142.334 710.359 Z" fill="#000000" fill-rule="evenodd" fill-opacity="1" /><path clip-path="url(#clip520)" d="M167.404 684.758 Q163.793 684.758 161.964 688.322 Q160.158 691.864 160.158 698.994 Q160.158 706.1 161.964 709.665 Q163.793 713.207 167.404 713.207 Q171.038 713.207 172.844 709.665 Q174.672 706.1 174.672 698.994 Q174.672 691.864 172.844 688.322 Q171.038 684.758 167.404 684.758 M167.404 681.054 Q173.214 681.054 176.269 685.66 Q179.348 690.244 179.348 698.994 Q179.348 707.721 176.269 712.327 Q173.214 716.91 167.404 716.91 Q161.594 716.91 158.515 712.327 Q155.459 707.721 155.459 698.994 Q155.459 690.244 158.515 685.66 Q161.594 681.054 167.404 681.054 Z" fill="#000000" fill-rule="evenodd" fill-opacity="1" /><path clip-path="url(#clip520)" d="M186.385 681.679 L208.607 681.679 L208.607 683.67 L196.061 716.239 L191.177 716.239 L202.982 685.614 L186.385 685.614 L186.385 681.679 Z" fill="#000000" fill-rule="evenodd" fill-opacity="1" /><path clip-path="url(#clip520)" d="M217.774 681.679 L236.13 681.679 L236.13 685.614 L222.056 685.614 L222.056 694.086 Q223.075 693.739 224.093 693.577 Q225.112 693.392 226.13 693.392 Q231.917 693.392 235.297 696.563 Q238.677 699.734 238.677 705.151 Q238.677 710.73 235.204 713.832 Q231.732 716.91 225.413 716.91 Q223.237 716.91 220.968 716.54 Q218.723 716.17 216.316 715.429 L216.316 710.73 Q218.399 711.864 220.621 712.42 Q222.843 712.975 225.32 712.975 Q229.325 712.975 231.663 710.869 Q234.001 708.762 234.001 705.151 Q234.001 701.54 231.663 699.434 Q229.325 697.327 225.32 697.327 Q223.445 697.327 221.57 697.744 Q219.718 698.16 217.774 699.04 L217.774 681.679 Z" fill="#000000" fill-rule="evenodd" fill-opacity="1" /><path clip-path="url(#clip520)" d="M51.6636 372.869 L59.3025 372.869 L59.3025 346.503 L50.9923 348.17 L50.9923 343.911 L59.2562 342.244 L63.9321 342.244 L63.9321 372.869 L71.5709 372.869 L71.5709 376.804 L51.6636 376.804 L51.6636 372.869 Z" fill="#000000" fill-rule="evenodd" fill-opacity="1" /><path clip-path="url(#clip520)" d="M91.594 357.661 Q88.4458 357.661 86.594 359.814 Q84.7653 361.966 84.7653 365.716 Q84.7653 369.443 86.594 371.619 Q88.4458 373.772 91.594 373.772 Q94.7421 373.772 96.5708 371.619 Q98.4226 369.443 98.4226 365.716 Q98.4226 361.966 96.5708 359.814 Q94.7421 357.661 91.594 357.661 M100.876 343.008 L100.876 347.267 Q99.1171 346.434 97.3115 345.994 Q95.5291 345.554 93.7699 345.554 Q89.1403 345.554 86.6866 348.679 Q84.256 351.804 83.9088 358.124 Q85.2746 356.11 87.3347 355.045 Q89.3949 353.957 91.8717 353.957 Q97.0801 353.957 100.089 357.128 Q103.122 360.276 103.122 365.716 Q103.122 371.04 99.9736 374.258 Q96.8254 377.475 91.594 377.475 Q85.5986 377.475 82.4274 372.892 Q79.2561 368.286 79.2561 359.559 Q79.2561 351.364 83.1449 346.503 Q87.0338 341.619 93.5847 341.619 Q95.3439 341.619 97.1263 341.966 Q98.9319 342.314 100.876 343.008 Z" fill="#000000" fill-rule="evenodd" fill-opacity="1" /><path clip-path="url(#clip520)" d="M125.344 358.17 Q128.7 358.888 130.575 361.156 Q132.473 363.425 132.473 366.758 Q132.473 371.874 128.955 374.675 Q125.436 377.475 118.955 377.475 Q116.779 377.475 114.464 377.036 Q112.173 376.619 109.719 375.762 L109.719 371.249 Q111.663 372.383 113.978 372.962 Q116.293 373.54 118.816 373.54 Q123.214 373.54 125.506 371.804 Q127.821 370.068 127.821 366.758 Q127.821 363.702 125.668 361.989 Q123.538 360.253 119.719 360.253 L115.691 360.253 L115.691 356.411 L119.904 356.411 Q123.353 356.411 125.182 355.045 Q127.01 353.656 127.01 351.064 Q127.01 348.402 125.112 346.99 Q123.237 345.554 119.719 345.554 Q117.798 345.554 115.598 345.971 Q113.399 346.388 110.761 347.267 L110.761 343.101 Q113.423 342.36 115.737 341.99 Q118.075 341.619 120.135 341.619 Q125.46 341.619 128.561 344.05 Q131.663 346.457 131.663 350.577 Q131.663 353.448 130.02 355.439 Q128.376 357.406 125.344 358.17 Z" fill="#000000" fill-rule="evenodd" fill-opacity="1" /><path clip-path="url(#clip520)" d="M141.339 370.925 L146.223 370.925 L146.223 376.804 L141.339 376.804 L141.339 370.925 Z" fill="#000000" fill-rule="evenodd" fill-opacity="1" /><path clip-path="url(#clip520)" d="M157.219 372.869 L164.857 372.869 L164.857 346.503 L156.547 348.17 L156.547 343.911 L164.811 342.244 L169.487 342.244 L169.487 372.869 L177.126 372.869 L177.126 376.804 L157.219 376.804 L157.219 372.869 Z" fill="#000000" fill-rule="evenodd" fill-opacity="1" /><path clip-path="url(#clip520)" d="M196.57 345.323 Q192.959 345.323 191.13 348.888 Q189.325 352.429 189.325 359.559 Q189.325 366.665 191.13 370.23 Q192.959 373.772 196.57 373.772 Q200.204 373.772 202.01 370.23 Q203.839 366.665 203.839 359.559 Q203.839 352.429 202.01 348.888 Q200.204 345.323 196.57 345.323 M196.57 341.619 Q202.38 341.619 205.436 346.226 Q208.515 350.809 208.515 359.559 Q208.515 368.286 205.436 372.892 Q202.38 377.475 196.57 377.475 Q190.76 377.475 187.681 372.892 Q184.626 368.286 184.626 359.559 Q184.626 350.809 187.681 346.226 Q190.76 341.619 196.57 341.619 Z" fill="#000000" fill-rule="evenodd" fill-opacity="1" /><path clip-path="url(#clip520)" d="M226.732 345.323 Q223.121 345.323 221.292 348.888 Q219.487 352.429 219.487 359.559 Q219.487 366.665 221.292 370.23 Q223.121 373.772 226.732 373.772 Q230.366 373.772 232.172 370.23 Q234.001 366.665 234.001 359.559 Q234.001 352.429 232.172 348.888 Q230.366 345.323 226.732 345.323 M226.732 341.619 Q232.542 341.619 235.598 346.226 Q238.677 350.809 238.677 359.559 Q238.677 368.286 235.598 372.892 Q232.542 377.475 226.732 377.475 Q220.922 377.475 217.843 372.892 Q214.788 368.286 214.788 359.559 Q214.788 350.809 217.843 346.226 Q220.922 341.619 226.732 341.619 Z" fill="#000000" fill-rule="evenodd" fill-opacity="1" /><polyline clip-path="url(#clip522)" style="stroke:#009af9; stroke-linecap:butt; stroke-linejoin:round; stroke-width:4; stroke-opacity:1; fill:none" points="
  333.49,631.072 333.49,631.072 339.642,631.072 
  339.642,495.298 339.642,631.072 339.642,495.298 
  341.693,495.298 343.762,495.298 345.813,495.298 
  349.915,495.298 351.984,495.298 
  351.984,631.072 358.136,631.072 362.256,631.072 
  364.307,631.072 366.357,631.072 370.477,631.072 372.528,631.072 372.528,495.298 
  374.579,495.298 376.63,495.298 376.63,631.072 
  384.851,631.072 388.971,631.072 391.022,631.072 411.566,631.072 
  413.635,631.072 
  421.838,631.072 423.907,631.072 428.009,631.072 
  428.009,495.298 469.116,495.298 508.154,495.298 514.325,495.298 
  543.091,495.298 543.091,359.524 578.027,359.524 578.027,495.298 
  578.027,359.524 580.078,359.524 582.129,359.524 
  590.35,359.524 625.287,359.524 645.85,359.524 647.9,359.524 
  666.394,359.524 828.735,359.524 
  884.216,359.524 919.153,359.524 927.374,359.524 
  
  949.988,359.524 
  949.988,223.75 949.988,359.524 949.988,223.75 
  952.039,223.75 952.039,87.9763 952.039,223.75 
  952.039,87.9763 952.039,223.75 952.039,87.9763 
  954.089,87.9763 956.14,87.9763 958.191,87.9763 980.804,87.9763 
  991.077,87.9763 993.127,87.9763 995.197,87.9763 
  1003.42,87.9763 1007.52,87.9763 1009.57,87.9763 1017.79,87.9763 1026.01,87.9763 
  1028.06,87.9763 
  1030.13,87.9763 
  1044.51,87.9763 1065.05,87.9763 1081.49,87.9763 
  1095.89,87.9763 1097.94,87.9763 
  1097.94,223.75 
  1097.94,87.9763 1099.99,87.9763 1099.99,223.75 
  
  1102.06,223.75 1104.11,223.75 
  1104.11,359.524 
  1106.16,359.524 1114.38,359.524 1126.7,359.524 1134.92,359.524 
  1136.99,359.524 1136.99,495.298 1139.04,495.298 
  
  1141.09,495.298 1143.15,495.298 1145.2,495.298 
  1157.54,495.298 1157.54,631.072 1194.53,631.072 
  1198.63,631.072 
  1198.63,766.846 1198.63,631.072 
  1198.63,766.846 1200.7,766.846 
  
  1202.75,766.846 
  1202.75,902.62 1206.85,902.62 1208.92,902.62 1210.97,902.62 1213.02,902.62 
  1219.19,902.62 1223.29,902.62 1227.41,902.62 1243.84,902.62 1247.96,902.62 
  1264.4,902.62 1264.4,1038.39 1266.45,1038.39 
  1268.5,1038.39 1272.62,1038.39 
  1274.67,1038.39 1282.89,1038.39 1286.99,1038.39 
  1289.06,1038.39 1289.06,1174.17 1313.71,1174.17 
  1315.78,1174.17 1317.83,1174.17 
  1360.99,1174.17 1363.04,1174.17 
  1363.04,1038.39 
  1365.09,1038.39 1365.09,902.62 1410.3,902.62 1410.3,1038.39 
  
  
  1416.47,1038.39 1445.23,1038.39 
  1471.95,1038.39 1492.49,1038.39 1492.49,1174.17 1558.26,1174.17 1558.26,1038.39 1576.76,1038.39 1576.76,1174.17 
  1587.03,1174.17 1587.03,1038.39 1593.2,1038.39 1595.25,1038.39 1595.25,902.62 
  1661,902.62 1776.09,902.62 
  1776.09,766.846 1776.09,902.62 1776.09,766.846 1778.14,766.846 1778.14,902.62 
  1778.14,766.846 
  1796.63,766.846 1796.63,631.072 1813.07,631.072 1870.62,631.072 
  1909.66,631.072 1909.66,495.298 1911.71,495.298 1911.71,631.072 1911.71,495.298 
  1911.71,359.524 
  1917.88,359.524 1946.65,359.524 1948.7,359.524 1948.7,495.298 1971.31,495.298 
  2166.54,495.298 
  2168.59,495.298 2168.59,359.524 2170.64,359.524 
  2172.69,359.524 2172.69,223.75 2191.2,223.75 2191.2,359.524 
  2213.8,359.524 
  "/>
<polyline clip-path="url(#clip522)" style="stroke:#e26f46; stroke-linecap:butt; stroke-linejoin:round; stroke-width:4; stroke-opacity:1; fill:none" points="
  333.49,902.62 333.49,1038.39 339.642,1038.39 339.642,902.62 
  339.642,766.846 339.642,902.62 339.642,766.846 
  341.693,766.846 341.693,631.072 343.762,631.072 345.813,631.072 
  349.915,631.072 349.915,766.846 349.915,902.62 351.984,902.62 
  358.136,902.62 362.256,902.62 
  364.307,902.62 366.357,902.62 370.477,902.62 370.477,766.846 372.528,766.846 
  372.528,902.62 374.579,902.62 374.579,766.846 374.579,902.62 374.579,766.846 376.63,766.846 
  384.851,766.846 388.971,766.846 391.022,766.846 391.022,902.62 411.566,902.62 411.566,766.846 411.566,902.62 
  413.635,902.62 
  421.838,902.62 423.907,902.62 428.009,902.62 
  428.009,766.846 469.116,766.846 508.154,766.846 514.325,766.846 
  543.091,766.846 543.091,631.072 578.027,631.072 
  580.078,631.072 582.129,631.072 
  590.35,631.072 625.287,631.072 645.85,631.072 647.9,631.072 
  666.394,631.072 828.735,631.072 
  884.216,631.072 919.153,631.072 919.153,766.846 927.374,766.846 927.374,631.072 
  
  949.988,631.072 
  949.988,495.298 
  949.988,359.524 952.039,359.524 
  
  954.089,359.524 954.089,223.75 954.089,359.524 956.14,359.524 958.191,359.524 980.804,359.524 980.804,223.75 
  991.077,223.75 993.127,223.75 993.127,359.524 995.197,359.524 
  1003.42,359.524 1007.52,359.524 1009.57,359.524 1017.79,359.524 1026.01,359.524 
  1028.06,359.524 1028.06,223.75 
  1028.06,359.524 1028.06,223.75 1028.06,359.524 1030.13,359.524 
  1044.51,359.524 1065.05,359.524 1081.49,359.524 
  1095.89,359.524 1095.89,223.75 1097.94,223.75 1097.94,359.524 
  1097.94,223.75 1097.94,359.524 
  1099.99,359.524 
  1099.99,495.298 1099.99,359.524 1099.99,495.298 
  1102.06,495.298 1104.11,495.298 
  
  1106.16,495.298 1114.38,495.298 1126.7,495.298 1134.92,495.298 1134.92,631.072 
  1134.92,495.298 1134.92,766.846 1136.99,766.846 1139.04,766.846 
  
  1141.09,766.846 1143.15,766.846 1145.2,766.846 
  1157.54,766.846 1194.53,766.846 
  1194.53,902.62 1198.63,902.62 1198.63,766.846 1198.63,902.62 
  1198.63,1038.39 1198.63,902.62 
  1198.63,1038.39 1198.63,902.62 1198.63,1038.39 1200.7,1038.39 
  
  1202.75,1038.39 
  1206.85,1038.39 1208.92,1038.39 1208.92,1174.17 1210.97,1174.17 1210.97,1038.39 1213.02,1038.39 1213.02,1174.17 
  1219.19,1174.17 1223.29,1174.17 1223.29,1038.39 1227.41,1038.39 1227.41,1174.17 1243.84,1174.17 1247.96,1174.17 
  1264.4,1174.17 1264.4,1309.94 1266.45,1309.94 
  1268.5,1309.94 1268.5,1174.17 1272.62,1174.17 
  1274.67,1174.17 1274.67,1309.94 1282.89,1309.94 1282.89,1445.72 1286.99,1445.72 1286.99,1309.94 
  1286.99,1445.72 1286.99,1309.94 1289.06,1309.94 1313.71,1309.94 
  1313.71,1445.72 1315.78,1445.72 1317.83,1445.72 
  1360.99,1445.72 1363.04,1445.72 
  1363.04,1309.94 
  1365.09,1309.94 1410.3,1309.94 
  
  
  1416.47,1309.94 1445.23,1309.94 
  1471.95,1309.94 1492.49,1309.94 1558.26,1309.94 1576.76,1309.94 
  1587.03,1309.94 1593.2,1309.94 1595.25,1309.94 
  1661,1309.94 1661,1174.17 1776.09,1174.17 
  1776.09,1038.39 1776.09,1174.17 1776.09,1038.39 1778.14,1038.39 1778.14,1174.17 
  1778.14,1038.39 
  1796.63,1038.39 1813.07,1038.39 1813.07,902.62 1870.62,902.62 
  1909.66,902.62 1909.66,766.846 1911.71,766.846 
  
  1917.88,766.846 1946.65,766.846 1948.7,766.846 1971.31,766.846 
  2166.54,766.846 
  2168.59,766.846 2168.59,631.072 2170.64,631.072 
  2172.69,631.072 2191.2,631.072 
  2213.8,631.072 2213.8,766.846 
  "/>
<circle clip-path="url(#clip522)" cx="339.642" cy="766.846" r="14" fill="#3da44d" fill-rule="evenodd" fill-opacity="1" stroke="#000000" stroke-opacity="1" stroke-width="3.2"/>
<circle clip-path="url(#clip522)" cx="339.642" cy="631.072" r="14" fill="#3da44d" fill-rule="evenodd" fill-opacity="1" stroke="#000000" stroke-opacity="1" stroke-width="3.2"/>
<circle clip-path="url(#clip522)" cx="339.642" cy="631.072" r="14" fill="#3da44d" fill-rule="evenodd" fill-opacity="1" stroke="#000000" stroke-opacity="1" stroke-width="3.2"/>
<circle clip-path="url(#clip522)" cx="339.642" cy="631.072" r="14" fill="#3da44d" fill-rule="evenodd" fill-opacity="1" stroke="#000000" stroke-opacity="1" stroke-width="3.2"/>
<circle clip-path="url(#clip522)" cx="339.642" cy="631.072" r="14" fill="#3da44d" fill-rule="evenodd" fill-opacity="1" stroke="#000000" stroke-opacity="1" stroke-width="3.2"/>
<circle clip-path="url(#clip522)" cx="341.693" cy="495.298" r="14" fill="#3da44d" fill-rule="evenodd" fill-opacity="1" stroke="#000000" stroke-opacity="1" stroke-width="3.2"/>
<circle clip-path="url(#clip522)" cx="341.693" cy="495.298" r="14" fill="#3da44d" fill-rule="evenodd" fill-opacity="1" stroke="#000000" stroke-opacity="1" stroke-width="3.2"/>
<circle clip-path="url(#clip522)" cx="341.693" cy="495.298" r="14" fill="#3da44d" fill-rule="evenodd" fill-opacity="1" stroke="#000000" stroke-opacity="1" stroke-width="3.2"/>
<circle clip-path="url(#clip522)" cx="343.762" cy="495.298" r="14" fill="#3da44d" fill-rule="evenodd" fill-opacity="1" stroke="#000000" stroke-opacity="1" stroke-width="3.2"/>
<circle clip-path="url(#clip522)" cx="343.762" cy="495.298" r="14" fill="#3da44d" fill-rule="evenodd" fill-opacity="1" stroke="#000000" stroke-opacity="1" stroke-width="3.2"/>
<circle clip-path="url(#clip522)" cx="388.971" cy="631.072" r="14" fill="#3da44d" fill-rule="evenodd" fill-opacity="1" stroke="#000000" stroke-opacity="1" stroke-width="3.2"/>
<circle clip-path="url(#clip522)" cx="388.971" cy="631.072" r="14" fill="#3da44d" fill-rule="evenodd" fill-opacity="1" stroke="#000000" stroke-opacity="1" stroke-width="3.2"/>
<circle clip-path="url(#clip522)" cx="411.566" cy="766.846" r="14" fill="#3da44d" fill-rule="evenodd" fill-opacity="1" stroke="#000000" stroke-opacity="1" stroke-width="3.2"/>
<circle clip-path="url(#clip522)" cx="411.566" cy="766.846" r="14" fill="#3da44d" fill-rule="evenodd" fill-opacity="1" stroke="#000000" stroke-opacity="1" stroke-width="3.2"/>
<circle clip-path="url(#clip522)" cx="411.566" cy="766.846" r="14" fill="#3da44d" fill-rule="evenodd" fill-opacity="1" stroke="#000000" stroke-opacity="1" stroke-width="3.2"/>
<circle clip-path="url(#clip522)" cx="411.566" cy="766.846" r="14" fill="#3da44d" fill-rule="evenodd" fill-opacity="1" stroke="#000000" stroke-opacity="1" stroke-width="3.2"/>
<circle clip-path="url(#clip522)" cx="411.566" cy="631.072" r="14" fill="#3da44d" fill-rule="evenodd" fill-opacity="1" stroke="#000000" stroke-opacity="1" stroke-width="3.2"/>
<circle clip-path="url(#clip522)" cx="413.635" cy="631.072" r="14" fill="#3da44d" fill-rule="evenodd" fill-opacity="1" stroke="#000000" stroke-opacity="1" stroke-width="3.2"/>
<circle clip-path="url(#clip522)" cx="413.635" cy="631.072" r="14" fill="#3da44d" fill-rule="evenodd" fill-opacity="1" stroke="#000000" stroke-opacity="1" stroke-width="3.2"/>
<circle clip-path="url(#clip522)" cx="454.724" cy="631.072" r="14" fill="#3da44d" fill-rule="evenodd" fill-opacity="1" stroke="#000000" stroke-opacity="1" stroke-width="3.2"/>
<circle clip-path="url(#clip522)" cx="454.724" cy="631.072" r="14" fill="#3da44d" fill-rule="evenodd" fill-opacity="1" stroke="#000000" stroke-opacity="1" stroke-width="3.2"/>
<circle clip-path="url(#clip522)" cx="469.116" cy="631.072" r="14" fill="#3da44d" fill-rule="evenodd" fill-opacity="1" stroke="#000000" stroke-opacity="1" stroke-width="3.2"/>
<circle clip-path="url(#clip522)" cx="469.116" cy="631.072" r="14" fill="#3da44d" fill-rule="evenodd" fill-opacity="1" stroke="#000000" stroke-opacity="1" stroke-width="3.2"/>
<circle clip-path="url(#clip522)" cx="497.882" cy="495.298" r="14" fill="#3da44d" fill-rule="evenodd" fill-opacity="1" stroke="#000000" stroke-opacity="1" stroke-width="3.2"/>
<circle clip-path="url(#clip522)" cx="508.154" cy="631.072" r="14" fill="#3da44d" fill-rule="evenodd" fill-opacity="1" stroke="#000000" stroke-opacity="1" stroke-width="3.2"/>
<circle clip-path="url(#clip522)" cx="508.154" cy="495.298" r="14" fill="#3da44d" fill-rule="evenodd" fill-opacity="1" stroke="#000000" stroke-opacity="1" stroke-width="3.2"/>
<circle clip-path="url(#clip522)" cx="508.154" cy="495.298" r="14" fill="#3da44d" fill-rule="evenodd" fill-opacity="1" stroke="#000000" stroke-opacity="1" stroke-width="3.2"/>
<circle clip-path="url(#clip522)" cx="518.427" cy="766.846" r="14" fill="#3da44d" fill-rule="evenodd" fill-opacity="1" stroke="#000000" stroke-opacity="1" stroke-width="3.2"/>
<circle clip-path="url(#clip522)" cx="518.427" cy="766.846" r="14" fill="#3da44d" fill-rule="evenodd" fill-opacity="1" stroke="#000000" stroke-opacity="1" stroke-width="3.2"/>
<circle clip-path="url(#clip522)" cx="543.091" cy="495.298" r="14" fill="#3da44d" fill-rule="evenodd" fill-opacity="1" stroke="#000000" stroke-opacity="1" stroke-width="3.2"/>
<circle clip-path="url(#clip522)" cx="543.091" cy="495.298" r="14" fill="#3da44d" fill-rule="evenodd" fill-opacity="1" stroke="#000000" stroke-opacity="1" stroke-width="3.2"/>
<circle clip-path="url(#clip522)" cx="543.091" cy="495.298" r="14" fill="#3da44d" fill-rule="evenodd" fill-opacity="1" stroke="#000000" stroke-opacity="1" stroke-width="3.2"/>
<circle clip-path="url(#clip522)" cx="543.091" cy="495.298" r="14" fill="#3da44d" fill-rule="evenodd" fill-opacity="1" stroke="#000000" stroke-opacity="1" stroke-width="3.2"/>
<circle clip-path="url(#clip522)" cx="553.363" cy="631.072" r="14" fill="#3da44d" fill-rule="evenodd" fill-opacity="1" stroke="#000000" stroke-opacity="1" stroke-width="3.2"/>
<circle clip-path="url(#clip522)" cx="553.363" cy="631.072" r="14" fill="#3da44d" fill-rule="evenodd" fill-opacity="1" stroke="#000000" stroke-opacity="1" stroke-width="3.2"/>
<circle clip-path="url(#clip522)" cx="555.414" cy="766.846" r="14" fill="#3da44d" fill-rule="evenodd" fill-opacity="1" stroke="#000000" stroke-opacity="1" stroke-width="3.2"/>
<circle clip-path="url(#clip522)" cx="578.027" cy="495.298" r="14" fill="#3da44d" fill-rule="evenodd" fill-opacity="1" stroke="#000000" stroke-opacity="1" stroke-width="3.2"/>
<circle clip-path="url(#clip522)" cx="578.027" cy="495.298" r="14" fill="#3da44d" fill-rule="evenodd" fill-opacity="1" stroke="#000000" stroke-opacity="1" stroke-width="3.2"/>
<circle clip-path="url(#clip522)" cx="578.027" cy="495.298" r="14" fill="#3da44d" fill-rule="evenodd" fill-opacity="1" stroke="#000000" stroke-opacity="1" stroke-width="3.2"/>
<circle clip-path="url(#clip522)" cx="578.027" cy="495.298" r="14" fill="#3da44d" fill-rule="evenodd" fill-opacity="1" stroke="#000000" stroke-opacity="1" stroke-width="3.2"/>
<circle clip-path="url(#clip522)" cx="578.027" cy="495.298" r="14" fill="#3da44d" fill-rule="evenodd" fill-opacity="1" stroke="#000000" stroke-opacity="1" stroke-width="3.2"/>
<circle clip-path="url(#clip522)" cx="578.027" cy="495.298" r="14" fill="#3da44d" fill-rule="evenodd" fill-opacity="1" stroke="#000000" stroke-opacity="1" stroke-width="3.2"/>
<circle clip-path="url(#clip522)" cx="578.027" cy="495.298" r="14" fill="#3da44d" fill-rule="evenodd" fill-opacity="1" stroke="#000000" stroke-opacity="1" stroke-width="3.2"/>
<circle clip-path="url(#clip522)" cx="580.078" cy="359.524" r="14" fill="#3da44d" fill-rule="evenodd" fill-opacity="1" stroke="#000000" stroke-opacity="1" stroke-width="3.2"/>
<circle clip-path="url(#clip522)" cx="584.198" cy="495.298" r="14" fill="#3da44d" fill-rule="evenodd" fill-opacity="1" stroke="#000000" stroke-opacity="1" stroke-width="3.2"/>
<circle clip-path="url(#clip522)" cx="594.47" cy="495.298" r="14" fill="#3da44d" fill-rule="evenodd" fill-opacity="1" stroke="#000000" stroke-opacity="1" stroke-width="3.2"/>
<circle clip-path="url(#clip522)" cx="594.47" cy="495.298" r="14" fill="#3da44d" fill-rule="evenodd" fill-opacity="1" stroke="#000000" stroke-opacity="1" stroke-width="3.2"/>
<circle clip-path="url(#clip522)" cx="635.559" cy="495.298" r="14" fill="#3da44d" fill-rule="evenodd" fill-opacity="1" stroke="#000000" stroke-opacity="1" stroke-width="3.2"/>
<circle clip-path="url(#clip522)" cx="645.85" cy="359.524" r="14" fill="#3da44d" fill-rule="evenodd" fill-opacity="1" stroke="#000000" stroke-opacity="1" stroke-width="3.2"/>
<circle clip-path="url(#clip522)" cx="645.85" cy="383.963" r="14" fill="#3da44d" fill-rule="evenodd" fill-opacity="1" stroke="#000000" stroke-opacity="1" stroke-width="3.2"/>
<circle clip-path="url(#clip522)" cx="867.773" cy="631.072" r="14" fill="#3da44d" fill-rule="evenodd" fill-opacity="1" stroke="#000000" stroke-opacity="1" stroke-width="3.2"/>
<circle clip-path="url(#clip522)" cx="919.153" cy="631.072" r="14" fill="#3da44d" fill-rule="evenodd" fill-opacity="1" stroke="#000000" stroke-opacity="1" stroke-width="3.2"/>
<circle clip-path="url(#clip522)" cx="923.273" cy="631.072" r="14" fill="#3da44d" fill-rule="evenodd" fill-opacity="1" stroke="#000000" stroke-opacity="1" stroke-width="3.2"/>
<circle clip-path="url(#clip522)" cx="949.988" cy="359.524" r="14" fill="#3da44d" fill-rule="evenodd" fill-opacity="1" stroke="#000000" stroke-opacity="1" stroke-width="3.2"/>
<circle clip-path="url(#clip522)" cx="949.988" cy="359.524" r="14" fill="#3da44d" fill-rule="evenodd" fill-opacity="1" stroke="#000000" stroke-opacity="1" stroke-width="3.2"/>
<circle clip-path="url(#clip522)" cx="949.988" cy="359.524" r="14" fill="#3da44d" fill-rule="evenodd" fill-opacity="1" stroke="#000000" stroke-opacity="1" stroke-width="3.2"/>
<circle clip-path="url(#clip522)" cx="949.988" cy="359.524" r="14" fill="#3da44d" fill-rule="evenodd" fill-opacity="1" stroke="#000000" stroke-opacity="1" stroke-width="3.2"/>
<circle clip-path="url(#clip522)" cx="949.988" cy="359.524" r="14" fill="#3da44d" fill-rule="evenodd" fill-opacity="1" stroke="#000000" stroke-opacity="1" stroke-width="3.2"/>
<circle clip-path="url(#clip522)" cx="949.988" cy="359.524" r="14" fill="#3da44d" fill-rule="evenodd" fill-opacity="1" stroke="#000000" stroke-opacity="1" stroke-width="3.2"/>
<circle clip-path="url(#clip522)" cx="949.988" cy="359.524" r="14" fill="#3da44d" fill-rule="evenodd" fill-opacity="1" stroke="#000000" stroke-opacity="1" stroke-width="3.2"/>
<circle clip-path="url(#clip522)" cx="949.988" cy="359.524" r="14" fill="#3da44d" fill-rule="evenodd" fill-opacity="1" stroke="#000000" stroke-opacity="1" stroke-width="3.2"/>
<circle clip-path="url(#clip522)" cx="949.988" cy="223.75" r="14" fill="#3da44d" fill-rule="evenodd" fill-opacity="1" stroke="#000000" stroke-opacity="1" stroke-width="3.2"/>
<circle clip-path="url(#clip522)" cx="952.039" cy="223.75" r="14" fill="#3da44d" fill-rule="evenodd" fill-opacity="1" stroke="#000000" stroke-opacity="1" stroke-width="3.2"/>
<circle clip-path="url(#clip522)" cx="954.089" cy="87.9763" r="14" fill="#3da44d" fill-rule="evenodd" fill-opacity="1" stroke="#000000" stroke-opacity="1" stroke-width="3.2"/>
<circle clip-path="url(#clip522)" cx="958.191" cy="223.75" r="14" fill="#3da44d" fill-rule="evenodd" fill-opacity="1" stroke="#000000" stroke-opacity="1" stroke-width="3.2"/>
<circle clip-path="url(#clip522)" cx="993.127" cy="87.9763" r="14" fill="#3da44d" fill-rule="evenodd" fill-opacity="1" stroke="#000000" stroke-opacity="1" stroke-width="3.2"/>
<circle clip-path="url(#clip522)" cx="1007.52" cy="223.75" r="14" fill="#3da44d" fill-rule="evenodd" fill-opacity="1" stroke="#000000" stroke-opacity="1" stroke-width="3.2"/>
<circle clip-path="url(#clip522)" cx="1007.52" cy="223.75" r="14" fill="#3da44d" fill-rule="evenodd" fill-opacity="1" stroke="#000000" stroke-opacity="1" stroke-width="3.2"/>
<circle clip-path="url(#clip522)" cx="1007.52" cy="223.75" r="14" fill="#3da44d" fill-rule="evenodd" fill-opacity="1" stroke="#000000" stroke-opacity="1" stroke-width="3.2"/>
<circle clip-path="url(#clip522)" cx="1007.52" cy="223.75" r="14" fill="#3da44d" fill-rule="evenodd" fill-opacity="1" stroke="#000000" stroke-opacity="1" stroke-width="3.2"/>
<circle clip-path="url(#clip522)" cx="1026.01" cy="87.9763" r="14" fill="#3da44d" fill-rule="evenodd" fill-opacity="1" stroke="#000000" stroke-opacity="1" stroke-width="3.2"/>
<circle clip-path="url(#clip522)" cx="1026.01" cy="87.9763" r="14" fill="#3da44d" fill-rule="evenodd" fill-opacity="1" stroke="#000000" stroke-opacity="1" stroke-width="3.2"/>
<circle clip-path="url(#clip522)" cx="1026.01" cy="87.9763" r="14" fill="#3da44d" fill-rule="evenodd" fill-opacity="1" stroke="#000000" stroke-opacity="1" stroke-width="3.2"/>
<circle clip-path="url(#clip522)" cx="1026.01" cy="87.9763" r="14" fill="#3da44d" fill-rule="evenodd" fill-opacity="1" stroke="#000000" stroke-opacity="1" stroke-width="3.2"/>
<circle clip-path="url(#clip522)" cx="1026.01" cy="87.9763" r="14" fill="#3da44d" fill-rule="evenodd" fill-opacity="1" stroke="#000000" stroke-opacity="1" stroke-width="3.2"/>
<circle clip-path="url(#clip522)" cx="1028.06" cy="87.9763" r="14" fill="#3da44d" fill-rule="evenodd" fill-opacity="1" stroke="#000000" stroke-opacity="1" stroke-width="3.2"/>
<circle clip-path="url(#clip522)" cx="1028.06" cy="87.9763" r="14" fill="#3da44d" fill-rule="evenodd" fill-opacity="1" stroke="#000000" stroke-opacity="1" stroke-width="3.2"/>
<circle clip-path="url(#clip522)" cx="1030.13" cy="223.75" r="14" fill="#3da44d" fill-rule="evenodd" fill-opacity="1" stroke="#000000" stroke-opacity="1" stroke-width="3.2"/>
<circle clip-path="url(#clip522)" cx="1073.27" cy="87.9763" r="14" fill="#3da44d" fill-rule="evenodd" fill-opacity="1" stroke="#000000" stroke-opacity="1" stroke-width="3.2"/>
<circle clip-path="url(#clip522)" cx="1075.34" cy="87.9763" r="14" fill="#3da44d" fill-rule="evenodd" fill-opacity="1" stroke="#000000" stroke-opacity="1" stroke-width="3.2"/>
<circle clip-path="url(#clip522)" cx="1095.89" cy="87.9763" r="14" fill="#3da44d" fill-rule="evenodd" fill-opacity="1" stroke="#000000" stroke-opacity="1" stroke-width="3.2"/>
<circle clip-path="url(#clip522)" cx="1095.89" cy="87.9763" r="14" fill="#3da44d" fill-rule="evenodd" fill-opacity="1" stroke="#000000" stroke-opacity="1" stroke-width="3.2"/>
<circle clip-path="url(#clip522)" cx="1095.89" cy="87.9763" r="14" fill="#3da44d" fill-rule="evenodd" fill-opacity="1" stroke="#000000" stroke-opacity="1" stroke-width="3.2"/>
<circle clip-path="url(#clip522)" cx="1097.94" cy="223.75" r="14" fill="#3da44d" fill-rule="evenodd" fill-opacity="1" stroke="#000000" stroke-opacity="1" stroke-width="3.2"/>
<circle clip-path="url(#clip522)" cx="1097.94" cy="87.9763" r="14" fill="#3da44d" fill-rule="evenodd" fill-opacity="1" stroke="#000000" stroke-opacity="1" stroke-width="3.2"/>
<circle clip-path="url(#clip522)" cx="1097.94" cy="223.75" r="14" fill="#3da44d" fill-rule="evenodd" fill-opacity="1" stroke="#000000" stroke-opacity="1" stroke-width="3.2"/>
<circle clip-path="url(#clip522)" cx="1097.94" cy="223.75" r="14" fill="#3da44d" fill-rule="evenodd" fill-opacity="1" stroke="#000000" stroke-opacity="1" stroke-width="3.2"/>
<circle clip-path="url(#clip522)" cx="1097.94" cy="223.75" r="14" fill="#3da44d" fill-rule="evenodd" fill-opacity="1" stroke="#000000" stroke-opacity="1" stroke-width="3.2"/>
<circle clip-path="url(#clip522)" cx="1097.94" cy="223.75" r="14" fill="#3da44d" fill-rule="evenodd" fill-opacity="1" stroke="#000000" stroke-opacity="1" stroke-width="3.2"/>
<circle clip-path="url(#clip522)" cx="1097.94" cy="223.75" r="14" fill="#3da44d" fill-rule="evenodd" fill-opacity="1" stroke="#000000" stroke-opacity="1" stroke-width="3.2"/>
<circle clip-path="url(#clip522)" cx="1097.94" cy="223.75" r="14" fill="#3da44d" fill-rule="evenodd" fill-opacity="1" stroke="#000000" stroke-opacity="1" stroke-width="3.2"/>
<circle clip-path="url(#clip522)" cx="1097.94" cy="223.75" r="14" fill="#3da44d" fill-rule="evenodd" fill-opacity="1" stroke="#000000" stroke-opacity="1" stroke-width="3.2"/>
<circle clip-path="url(#clip522)" cx="1097.94" cy="359.524" r="14" fill="#3da44d" fill-rule="evenodd" fill-opacity="1" stroke="#000000" stroke-opacity="1" stroke-width="3.2"/>
<circle clip-path="url(#clip522)" cx="1097.94" cy="359.524" r="14" fill="#3da44d" fill-rule="evenodd" fill-opacity="1" stroke="#000000" stroke-opacity="1" stroke-width="3.2"/>
<circle clip-path="url(#clip522)" cx="1097.94" cy="359.524" r="14" fill="#3da44d" fill-rule="evenodd" fill-opacity="1" stroke="#000000" stroke-opacity="1" stroke-width="3.2"/>
<circle clip-path="url(#clip522)" cx="1097.94" cy="359.524" r="14" fill="#3da44d" fill-rule="evenodd" fill-opacity="1" stroke="#000000" stroke-opacity="1" stroke-width="3.2"/>
<circle clip-path="url(#clip522)" cx="1097.94" cy="359.524" r="14" fill="#3da44d" fill-rule="evenodd" fill-opacity="1" stroke="#000000" stroke-opacity="1" stroke-width="3.2"/>
<circle clip-path="url(#clip522)" cx="1097.94" cy="359.524" r="14" fill="#3da44d" fill-rule="evenodd" fill-opacity="1" stroke="#000000" stroke-opacity="1" stroke-width="3.2"/>
<circle clip-path="url(#clip522)" cx="1097.94" cy="359.524" r="14" fill="#3da44d" fill-rule="evenodd" fill-opacity="1" stroke="#000000" stroke-opacity="1" stroke-width="3.2"/>
<circle clip-path="url(#clip522)" cx="1097.94" cy="359.524" r="14" fill="#3da44d" fill-rule="evenodd" fill-opacity="1" stroke="#000000" stroke-opacity="1" stroke-width="3.2"/>
<circle clip-path="url(#clip522)" cx="1097.94" cy="359.524" r="14" fill="#3da44d" fill-rule="evenodd" fill-opacity="1" stroke="#000000" stroke-opacity="1" stroke-width="3.2"/>
<circle clip-path="url(#clip522)" cx="1102.06" cy="223.75" r="14" fill="#3da44d" fill-rule="evenodd" fill-opacity="1" stroke="#000000" stroke-opacity="1" stroke-width="3.2"/>
<circle clip-path="url(#clip522)" cx="1102.06" cy="223.75" r="14" fill="#3da44d" fill-rule="evenodd" fill-opacity="1" stroke="#000000" stroke-opacity="1" stroke-width="3.2"/>
<circle clip-path="url(#clip522)" cx="1104.11" cy="223.75" r="14" fill="#3da44d" fill-rule="evenodd" fill-opacity="1" stroke="#000000" stroke-opacity="1" stroke-width="3.2"/>
<circle clip-path="url(#clip522)" cx="1104.11" cy="223.75" r="14" fill="#3da44d" fill-rule="evenodd" fill-opacity="1" stroke="#000000" stroke-opacity="1" stroke-width="3.2"/>
<circle clip-path="url(#clip522)" cx="1112.33" cy="427.411" r="14" fill="#3da44d" fill-rule="evenodd" fill-opacity="1" stroke="#000000" stroke-opacity="1" stroke-width="3.2"/>
<circle clip-path="url(#clip522)" cx="1112.33" cy="427.411" r="14" fill="#3da44d" fill-rule="evenodd" fill-opacity="1" stroke="#000000" stroke-opacity="1" stroke-width="3.2"/>
<circle clip-path="url(#clip522)" cx="1134.92" cy="495.298" r="14" fill="#3da44d" fill-rule="evenodd" fill-opacity="1" stroke="#000000" stroke-opacity="1" stroke-width="3.2"/>
<circle clip-path="url(#clip522)" cx="1134.92" cy="495.298" r="14" fill="#3da44d" fill-rule="evenodd" fill-opacity="1" stroke="#000000" stroke-opacity="1" stroke-width="3.2"/>
<circle clip-path="url(#clip522)" cx="1134.92" cy="495.298" r="14" fill="#3da44d" fill-rule="evenodd" fill-opacity="1" stroke="#000000" stroke-opacity="1" stroke-width="3.2"/>
<circle clip-path="url(#clip522)" cx="1134.92" cy="495.298" r="14" fill="#3da44d" fill-rule="evenodd" fill-opacity="1" stroke="#000000" stroke-opacity="1" stroke-width="3.2"/>
<circle clip-path="url(#clip522)" cx="1134.92" cy="495.298" r="14" fill="#3da44d" fill-rule="evenodd" fill-opacity="1" stroke="#000000" stroke-opacity="1" stroke-width="3.2"/>
<circle clip-path="url(#clip522)" cx="1134.92" cy="495.298" r="14" fill="#3da44d" fill-rule="evenodd" fill-opacity="1" stroke="#000000" stroke-opacity="1" stroke-width="3.2"/>
<circle clip-path="url(#clip522)" cx="1134.92" cy="495.298" r="14" fill="#3da44d" fill-rule="evenodd" fill-opacity="1" stroke="#000000" stroke-opacity="1" stroke-width="3.2"/>
<circle clip-path="url(#clip522)" cx="1134.92" cy="495.298" r="14" fill="#3da44d" fill-rule="evenodd" fill-opacity="1" stroke="#000000" stroke-opacity="1" stroke-width="3.2"/>
<circle clip-path="url(#clip522)" cx="1134.92" cy="495.298" r="14" fill="#3da44d" fill-rule="evenodd" fill-opacity="1" stroke="#000000" stroke-opacity="1" stroke-width="3.2"/>
<circle clip-path="url(#clip522)" cx="1134.92" cy="495.298" r="14" fill="#3da44d" fill-rule="evenodd" fill-opacity="1" stroke="#000000" stroke-opacity="1" stroke-width="3.2"/>
<circle clip-path="url(#clip522)" cx="1139.04" cy="631.072" r="14" fill="#3da44d" fill-rule="evenodd" fill-opacity="1" stroke="#000000" stroke-opacity="1" stroke-width="3.2"/>
<circle clip-path="url(#clip522)" cx="1139.04" cy="631.072" r="14" fill="#3da44d" fill-rule="evenodd" fill-opacity="1" stroke="#000000" stroke-opacity="1" stroke-width="3.2"/>
<circle clip-path="url(#clip522)" cx="1139.04" cy="495.298" r="14" fill="#3da44d" fill-rule="evenodd" fill-opacity="1" stroke="#000000" stroke-opacity="1" stroke-width="3.2"/>
<circle clip-path="url(#clip522)" cx="1139.04" cy="495.298" r="14" fill="#3da44d" fill-rule="evenodd" fill-opacity="1" stroke="#000000" stroke-opacity="1" stroke-width="3.2"/>
<circle clip-path="url(#clip522)" cx="1163.69" cy="571.332" r="14" fill="#3da44d" fill-rule="evenodd" fill-opacity="1" stroke="#000000" stroke-opacity="1" stroke-width="3.2"/>
<circle clip-path="url(#clip522)" cx="1163.69" cy="571.332" r="14" fill="#3da44d" fill-rule="evenodd" fill-opacity="1" stroke="#000000" stroke-opacity="1" stroke-width="3.2"/>
<circle clip-path="url(#clip522)" cx="1169.86" cy="538.746" r="14" fill="#3da44d" fill-rule="evenodd" fill-opacity="1" stroke="#000000" stroke-opacity="1" stroke-width="3.2"/>
<circle clip-path="url(#clip522)" cx="1194.53" cy="631.072" r="14" fill="#3da44d" fill-rule="evenodd" fill-opacity="1" stroke="#000000" stroke-opacity="1" stroke-width="3.2"/>
<circle clip-path="url(#clip522)" cx="1194.53" cy="631.072" r="14" fill="#3da44d" fill-rule="evenodd" fill-opacity="1" stroke="#000000" stroke-opacity="1" stroke-width="3.2"/>
<circle clip-path="url(#clip522)" cx="1194.53" cy="766.846" r="14" fill="#3da44d" fill-rule="evenodd" fill-opacity="1" stroke="#000000" stroke-opacity="1" stroke-width="3.2"/>
<circle clip-path="url(#clip522)" cx="1194.53" cy="766.846" r="14" fill="#3da44d" fill-rule="evenodd" fill-opacity="1" stroke="#000000" stroke-opacity="1" stroke-width="3.2"/>
<circle clip-path="url(#clip522)" cx="1194.53" cy="766.846" r="14" fill="#3da44d" fill-rule="evenodd" fill-opacity="1" stroke="#000000" stroke-opacity="1" stroke-width="3.2"/>
<circle clip-path="url(#clip522)" cx="1198.63" cy="766.846" r="14" fill="#3da44d" fill-rule="evenodd" fill-opacity="1" stroke="#000000" stroke-opacity="1" stroke-width="3.2"/>
<circle clip-path="url(#clip522)" cx="1198.63" cy="766.846" r="14" fill="#3da44d" fill-rule="evenodd" fill-opacity="1" stroke="#000000" stroke-opacity="1" stroke-width="3.2"/>
<circle clip-path="url(#clip522)" cx="1198.63" cy="766.846" r="14" fill="#3da44d" fill-rule="evenodd" fill-opacity="1" stroke="#000000" stroke-opacity="1" stroke-width="3.2"/>
<circle clip-path="url(#clip522)" cx="1198.63" cy="902.62" r="14" fill="#3da44d" fill-rule="evenodd" fill-opacity="1" stroke="#000000" stroke-opacity="1" stroke-width="3.2"/>
<circle clip-path="url(#clip522)" cx="1198.63" cy="766.846" r="14" fill="#3da44d" fill-rule="evenodd" fill-opacity="1" stroke="#000000" stroke-opacity="1" stroke-width="3.2"/>
<circle clip-path="url(#clip522)" cx="1198.63" cy="902.62" r="14" fill="#3da44d" fill-rule="evenodd" fill-opacity="1" stroke="#000000" stroke-opacity="1" stroke-width="3.2"/>
<circle clip-path="url(#clip522)" cx="1198.63" cy="902.62" r="14" fill="#3da44d" fill-rule="evenodd" fill-opacity="1" stroke="#000000" stroke-opacity="1" stroke-width="3.2"/>
<circle clip-path="url(#clip522)" cx="1198.63" cy="902.62" r="14" fill="#3da44d" fill-rule="evenodd" fill-opacity="1" stroke="#000000" stroke-opacity="1" stroke-width="3.2"/>
<circle clip-path="url(#clip522)" cx="1198.63" cy="766.846" r="14" fill="#3da44d" fill-rule="evenodd" fill-opacity="1" stroke="#000000" stroke-opacity="1" stroke-width="3.2"/>
<circle clip-path="url(#clip522)" cx="1198.63" cy="766.846" r="14" fill="#3da44d" fill-rule="evenodd" fill-opacity="1" stroke="#000000" stroke-opacity="1" stroke-width="3.2"/>
<circle clip-path="url(#clip522)" cx="1198.63" cy="902.62" r="14" fill="#3da44d" fill-rule="evenodd" fill-opacity="1" stroke="#000000" stroke-opacity="1" stroke-width="3.2"/>
<circle clip-path="url(#clip522)" cx="1221.24" cy="940.637" r="14" fill="#3da44d" fill-rule="evenodd" fill-opacity="1" stroke="#000000" stroke-opacity="1" stroke-width="3.2"/>
<circle clip-path="url(#clip522)" cx="1221.24" cy="940.637" r="14" fill="#3da44d" fill-rule="evenodd" fill-opacity="1" stroke="#000000" stroke-opacity="1" stroke-width="3.2"/>
<circle clip-path="url(#clip522)" cx="1243.84" cy="1038.39" r="14" fill="#3da44d" fill-rule="evenodd" fill-opacity="1" stroke="#000000" stroke-opacity="1" stroke-width="3.2"/>
<circle clip-path="url(#clip522)" cx="1243.84" cy="902.62" r="14" fill="#3da44d" fill-rule="evenodd" fill-opacity="1" stroke="#000000" stroke-opacity="1" stroke-width="3.2"/>
<circle clip-path="url(#clip522)" cx="1264.4" cy="902.62" r="14" fill="#3da44d" fill-rule="evenodd" fill-opacity="1" stroke="#000000" stroke-opacity="1" stroke-width="3.2"/>
<circle clip-path="url(#clip522)" cx="1264.4" cy="1174.17" r="14" fill="#3da44d" fill-rule="evenodd" fill-opacity="1" stroke="#000000" stroke-opacity="1" stroke-width="3.2"/>
<circle clip-path="url(#clip522)" cx="1264.4" cy="1174.17" r="14" fill="#3da44d" fill-rule="evenodd" fill-opacity="1" stroke="#000000" stroke-opacity="1" stroke-width="3.2"/>
<circle clip-path="url(#clip522)" cx="1266.45" cy="1174.17" r="14" fill="#3da44d" fill-rule="evenodd" fill-opacity="1" stroke="#000000" stroke-opacity="1" stroke-width="3.2"/>
<circle clip-path="url(#clip522)" cx="1266.45" cy="1174.17" r="14" fill="#3da44d" fill-rule="evenodd" fill-opacity="1" stroke="#000000" stroke-opacity="1" stroke-width="3.2"/>
<circle clip-path="url(#clip522)" cx="1266.45" cy="1174.17" r="14" fill="#3da44d" fill-rule="evenodd" fill-opacity="1" stroke="#000000" stroke-opacity="1" stroke-width="3.2"/>
<circle clip-path="url(#clip522)" cx="1266.45" cy="1174.17" r="14" fill="#3da44d" fill-rule="evenodd" fill-opacity="1" stroke="#000000" stroke-opacity="1" stroke-width="3.2"/>
<circle clip-path="url(#clip522)" cx="1282.89" cy="1174.17" r="14" fill="#3da44d" fill-rule="evenodd" fill-opacity="1" stroke="#000000" stroke-opacity="1" stroke-width="3.2"/>
<circle clip-path="url(#clip522)" cx="1313.71" cy="1066.91" r="14" fill="#3da44d" fill-rule="evenodd" fill-opacity="1" stroke="#000000" stroke-opacity="1" stroke-width="3.2"/>
<circle clip-path="url(#clip522)" cx="1313.71" cy="1309.94" r="14" fill="#3da44d" fill-rule="evenodd" fill-opacity="1" stroke="#000000" stroke-opacity="1" stroke-width="3.2"/>
<circle clip-path="url(#clip522)" cx="1315.78" cy="1309.94" r="14" fill="#3da44d" fill-rule="evenodd" fill-opacity="1" stroke="#000000" stroke-opacity="1" stroke-width="3.2"/>
<circle clip-path="url(#clip522)" cx="1350.7" cy="1175.53" r="14" fill="#3da44d" fill-rule="evenodd" fill-opacity="1" stroke="#000000" stroke-opacity="1" stroke-width="3.2"/>
<circle clip-path="url(#clip522)" cx="1352.76" cy="1308.58" r="14" fill="#3da44d" fill-rule="evenodd" fill-opacity="1" stroke="#000000" stroke-opacity="1" stroke-width="3.2"/>
<circle clip-path="url(#clip522)" cx="1363.04" cy="1174.17" r="14" fill="#3da44d" fill-rule="evenodd" fill-opacity="1" stroke="#000000" stroke-opacity="1" stroke-width="3.2"/>
<circle clip-path="url(#clip522)" cx="1363.04" cy="1174.17" r="14" fill="#3da44d" fill-rule="evenodd" fill-opacity="1" stroke="#000000" stroke-opacity="1" stroke-width="3.2"/>
<circle clip-path="url(#clip522)" cx="1363.04" cy="1174.17" r="14" fill="#3da44d" fill-rule="evenodd" fill-opacity="1" stroke="#000000" stroke-opacity="1" stroke-width="3.2"/>
<circle clip-path="url(#clip522)" cx="1363.04" cy="1174.17" r="14" fill="#3da44d" fill-rule="evenodd" fill-opacity="1" stroke="#000000" stroke-opacity="1" stroke-width="3.2"/>
<circle clip-path="url(#clip522)" cx="1385.63" cy="1174.17" r="14" fill="#3da44d" fill-rule="evenodd" fill-opacity="1" stroke="#000000" stroke-opacity="1" stroke-width="3.2"/>
<circle clip-path="url(#clip522)" cx="1395.9" cy="1106.28" r="14" fill="#3da44d" fill-rule="evenodd" fill-opacity="1" stroke="#000000" stroke-opacity="1" stroke-width="3.2"/>
<circle clip-path="url(#clip522)" cx="1523.33" cy="1171.45" r="14" fill="#3da44d" fill-rule="evenodd" fill-opacity="1" stroke="#000000" stroke-opacity="1" stroke-width="3.2"/>
<circle clip-path="url(#clip522)" cx="1589.08" cy="1039.75" r="14" fill="#3da44d" fill-rule="evenodd" fill-opacity="1" stroke="#000000" stroke-opacity="1" stroke-width="3.2"/>
<circle clip-path="url(#clip522)" cx="1589.08" cy="1174.17" r="14" fill="#3da44d" fill-rule="evenodd" fill-opacity="1" stroke="#000000" stroke-opacity="1" stroke-width="3.2"/>
<circle clip-path="url(#clip522)" cx="1593.2" cy="1174.17" r="14" fill="#3da44d" fill-rule="evenodd" fill-opacity="1" stroke="#000000" stroke-opacity="1" stroke-width="3.2"/>
<circle clip-path="url(#clip522)" cx="1776.09" cy="902.62" r="14" fill="#3da44d" fill-rule="evenodd" fill-opacity="1" stroke="#000000" stroke-opacity="1" stroke-width="3.2"/>
<circle clip-path="url(#clip522)" cx="1776.09" cy="902.62" r="14" fill="#3da44d" fill-rule="evenodd" fill-opacity="1" stroke="#000000" stroke-opacity="1" stroke-width="3.2"/>
<circle clip-path="url(#clip522)" cx="1776.09" cy="902.62" r="14" fill="#3da44d" fill-rule="evenodd" fill-opacity="1" stroke="#000000" stroke-opacity="1" stroke-width="3.2"/>
<circle clip-path="url(#clip522)" cx="1776.09" cy="902.62" r="14" fill="#3da44d" fill-rule="evenodd" fill-opacity="1" stroke="#000000" stroke-opacity="1" stroke-width="3.2"/>
<circle clip-path="url(#clip522)" cx="1776.09" cy="902.62" r="14" fill="#3da44d" fill-rule="evenodd" fill-opacity="1" stroke="#000000" stroke-opacity="1" stroke-width="3.2"/>
<circle clip-path="url(#clip522)" cx="1909.66" cy="631.072" r="14" fill="#3da44d" fill-rule="evenodd" fill-opacity="1" stroke="#000000" stroke-opacity="1" stroke-width="3.2"/>
<circle clip-path="url(#clip522)" cx="1909.66" cy="631.072" r="14" fill="#3da44d" fill-rule="evenodd" fill-opacity="1" stroke="#000000" stroke-opacity="1" stroke-width="3.2"/>
<circle clip-path="url(#clip522)" cx="1911.71" cy="631.072" r="14" fill="#3da44d" fill-rule="evenodd" fill-opacity="1" stroke="#000000" stroke-opacity="1" stroke-width="3.2"/>
<circle clip-path="url(#clip522)" cx="1946.65" cy="766.846" r="14" fill="#3da44d" fill-rule="evenodd" fill-opacity="1" stroke="#000000" stroke-opacity="1" stroke-width="3.2"/>
<circle clip-path="url(#clip522)" cx="1946.65" cy="766.846" r="14" fill="#3da44d" fill-rule="evenodd" fill-opacity="1" stroke="#000000" stroke-opacity="1" stroke-width="3.2"/>
<circle clip-path="url(#clip522)" cx="2008.3" cy="514.306" r="14" fill="#3da44d" fill-rule="evenodd" fill-opacity="1" stroke="#000000" stroke-opacity="1" stroke-width="3.2"/>
<circle clip-path="url(#clip522)" cx="2032.97" cy="495.298" r="14" fill="#3da44d" fill-rule="evenodd" fill-opacity="1" stroke="#000000" stroke-opacity="1" stroke-width="3.2"/>
<circle clip-path="url(#clip522)" cx="2094.62" cy="747.838" r="14" fill="#3da44d" fill-rule="evenodd" fill-opacity="1" stroke="#000000" stroke-opacity="1" stroke-width="3.2"/>
<circle clip-path="url(#clip522)" cx="2154.2" cy="499.371" r="14" fill="#3da44d" fill-rule="evenodd" fill-opacity="1" stroke="#000000" stroke-opacity="1" stroke-width="3.2"/>
<circle clip-path="url(#clip522)" cx="2170.64" cy="359.524" r="14" fill="#3da44d" fill-rule="evenodd" fill-opacity="1" stroke="#000000" stroke-opacity="1" stroke-width="3.2"/>
<circle clip-path="url(#clip522)" cx="2170.64" cy="359.524" r="14" fill="#3da44d" fill-rule="evenodd" fill-opacity="1" stroke="#000000" stroke-opacity="1" stroke-width="3.2"/>
<circle clip-path="url(#clip522)" cx="2172.69" cy="359.524" r="14" fill="#3da44d" fill-rule="evenodd" fill-opacity="1" stroke="#000000" stroke-opacity="1" stroke-width="3.2"/>
<circle clip-path="url(#clip522)" cx="2172.69" cy="359.524" r="14" fill="#3da44d" fill-rule="evenodd" fill-opacity="1" stroke="#000000" stroke-opacity="1" stroke-width="3.2"/>
<circle clip-path="url(#clip522)" cx="2293.95" cy="360.882" r="14" fill="#3da44d" fill-rule="evenodd" fill-opacity="1" stroke="#000000" stroke-opacity="1" stroke-width="3.2"/>
<path clip-path="url(#clip520)" d="
M1840.18 302.578 L2283.49 302.578 L2283.49 95.2176 L1840.18 95.2176  Z
  " fill="#ffffff" fill-rule="evenodd" fill-opacity="1"/>
<polyline clip-path="url(#clip520)" style="stroke:#000000; stroke-linecap:butt; stroke-linejoin:round; stroke-width:4; stroke-opacity:1; fill:none" points="
  1840.18,302.578 2283.49,302.578 2283.49,95.2176 1840.18,95.2176 1840.18,302.578 
  "/>
<polyline clip-path="url(#clip520)" style="stroke:#009af9; stroke-linecap:butt; stroke-linejoin:round; stroke-width:4; stroke-opacity:1; fill:none" points="
  1863.27,147.058 2001.81,147.058 
  "/>
<path clip-path="url(#clip520)" d="M2040.73 134.384 L2034.39 151.583 L2047.1 151.583 L2040.73 134.384 M2038.1 129.778 L2043.4 129.778 L2056.57 164.338 L2051.71 164.338 L2048.56 155.472 L2032.98 155.472 L2029.83 164.338 L2024.9 164.338 L2038.1 129.778 Z" fill="#000000" fill-rule="evenodd" fill-opacity="1" /><path clip-path="url(#clip520)" d="M2077.96 139.176 L2077.96 143.203 Q2076.15 142.277 2074.21 141.815 Q2072.26 141.352 2070.18 141.352 Q2067.01 141.352 2065.41 142.324 Q2063.84 143.296 2063.84 145.24 Q2063.84 146.722 2064.97 147.578 Q2066.1 148.412 2069.53 149.176 L2070.99 149.5 Q2075.53 150.472 2077.42 152.254 Q2079.34 154.014 2079.34 157.185 Q2079.34 160.796 2076.47 162.902 Q2073.63 165.009 2068.63 165.009 Q2066.54 165.009 2064.28 164.592 Q2062.03 164.199 2059.53 163.388 L2059.53 158.99 Q2061.89 160.217 2064.18 160.842 Q2066.47 161.444 2068.72 161.444 Q2071.73 161.444 2073.35 160.426 Q2074.97 159.384 2074.97 157.509 Q2074.97 155.773 2073.79 154.847 Q2072.63 153.921 2068.67 153.064 L2067.19 152.717 Q2063.23 151.884 2061.47 150.171 Q2059.72 148.435 2059.72 145.426 Q2059.72 141.768 2062.31 139.778 Q2064.9 137.787 2069.67 137.787 Q2072.03 137.787 2074.11 138.134 Q2076.2 138.481 2077.96 139.176 Z" fill="#000000" fill-rule="evenodd" fill-opacity="1" /><path clip-path="url(#clip520)" d="M2085.97 128.319 L2090.25 128.319 L2090.25 149.592 L2102.96 138.412 L2108.4 138.412 L2094.65 150.541 L2108.97 164.338 L2103.42 164.338 L2090.25 151.676 L2090.25 164.338 L2085.97 164.338 L2085.97 128.319 Z" fill="#000000" fill-rule="evenodd" fill-opacity="1" /><path clip-path="url(#clip520)" d="M2133.51 133.62 L2133.51 146.606 L2139.39 146.606 Q2142.65 146.606 2144.44 144.916 Q2146.22 143.227 2146.22 140.102 Q2146.22 137 2144.44 135.31 Q2142.65 133.62 2139.39 133.62 L2133.51 133.62 M2128.84 129.778 L2139.39 129.778 Q2145.2 129.778 2148.16 132.416 Q2151.15 135.032 2151.15 140.102 Q2151.15 145.217 2148.16 147.833 Q2145.2 150.449 2139.39 150.449 L2133.51 150.449 L2133.51 164.338 L2128.84 164.338 L2128.84 129.778 Z" fill="#000000" fill-rule="evenodd" fill-opacity="1" /><path clip-path="url(#clip520)" d="M2171.43 142.393 Q2170.71 141.977 2169.85 141.791 Q2169.02 141.583 2168 141.583 Q2164.39 141.583 2162.45 143.944 Q2160.53 146.282 2160.53 150.68 L2160.53 164.338 L2156.24 164.338 L2156.24 138.412 L2160.53 138.412 L2160.53 142.44 Q2161.87 140.078 2164.02 138.944 Q2166.17 137.787 2169.25 137.787 Q2169.69 137.787 2170.22 137.856 Q2170.76 137.903 2171.4 138.018 L2171.43 142.393 Z" fill="#000000" fill-rule="evenodd" fill-opacity="1" /><path clip-path="url(#clip520)" d="M2175.9 138.412 L2180.15 138.412 L2180.15 164.338 L2175.9 164.338 L2175.9 138.412 M2175.9 128.319 L2180.15 128.319 L2180.15 133.713 L2175.9 133.713 L2175.9 128.319 Z" fill="#000000" fill-rule="evenodd" fill-opacity="1" /><path clip-path="url(#clip520)" d="M2207.72 139.407 L2207.72 143.389 Q2205.92 142.393 2204.09 141.907 Q2202.28 141.398 2200.43 141.398 Q2196.29 141.398 2194 144.037 Q2191.71 146.652 2191.71 151.398 Q2191.71 156.143 2194 158.782 Q2196.29 161.398 2200.43 161.398 Q2202.28 161.398 2204.09 160.912 Q2205.92 160.402 2207.72 159.407 L2207.72 163.342 Q2205.94 164.176 2204.02 164.592 Q2202.12 165.009 2199.97 165.009 Q2194.11 165.009 2190.66 161.328 Q2187.21 157.648 2187.21 151.398 Q2187.21 145.055 2190.69 141.421 Q2194.18 137.787 2200.25 137.787 Q2202.21 137.787 2204.09 138.203 Q2205.96 138.597 2207.72 139.407 Z" fill="#000000" fill-rule="evenodd" fill-opacity="1" /><path clip-path="url(#clip520)" d="M2237.31 150.31 L2237.31 152.393 L2217.72 152.393 Q2218 156.791 2220.36 159.106 Q2222.75 161.398 2226.98 161.398 Q2229.44 161.398 2231.73 160.796 Q2234.04 160.194 2236.31 158.99 L2236.31 163.018 Q2234.02 163.99 2231.61 164.5 Q2229.21 165.009 2226.73 165.009 Q2220.52 165.009 2216.89 161.398 Q2213.28 157.787 2213.28 151.629 Q2213.28 145.264 2216.71 141.537 Q2220.15 137.787 2225.99 137.787 Q2231.22 137.787 2234.25 141.166 Q2237.31 144.523 2237.31 150.31 M2233.05 149.06 Q2233 145.565 2231.08 143.481 Q2229.18 141.398 2226.03 141.398 Q2222.47 141.398 2220.32 143.412 Q2218.19 145.426 2217.86 149.083 L2233.05 149.06 Z" fill="#000000" fill-rule="evenodd" fill-opacity="1" /><polyline clip-path="url(#clip520)" style="stroke:#e26f46; stroke-linecap:butt; stroke-linejoin:round; stroke-width:4; stroke-opacity:1; fill:none" points="
  1863.27,198.898 2001.81,198.898 
  "/>
<path clip-path="url(#clip520)" d="M2029.58 199.673 L2029.58 212.335 L2037.08 212.335 Q2040.85 212.335 2042.66 210.784 Q2044.48 209.21 2044.48 205.992 Q2044.48 202.752 2042.66 201.224 Q2040.85 199.673 2037.08 199.673 L2029.58 199.673 M2029.58 185.46 L2029.58 195.877 L2036.5 195.877 Q2039.92 195.877 2041.59 194.604 Q2043.28 193.307 2043.28 190.668 Q2043.28 188.053 2041.59 186.756 Q2039.92 185.46 2036.5 185.46 L2029.58 185.46 M2024.9 181.618 L2036.85 181.618 Q2042.19 181.618 2045.09 183.84 Q2047.98 186.062 2047.98 190.159 Q2047.98 193.33 2046.5 195.205 Q2045.02 197.08 2042.15 197.543 Q2045.6 198.284 2047.49 200.645 Q2049.41 202.983 2049.41 206.502 Q2049.41 211.131 2046.27 213.654 Q2043.12 216.178 2037.31 216.178 L2024.9 216.178 L2024.9 181.618 Z" fill="#000000" fill-rule="evenodd" fill-opacity="1" /><path clip-path="url(#clip520)" d="M2057.24 190.252 L2061.5 190.252 L2061.5 216.178 L2057.24 216.178 L2057.24 190.252 M2057.24 180.159 L2061.5 180.159 L2061.5 185.553 L2057.24 185.553 L2057.24 180.159 Z" fill="#000000" fill-rule="evenodd" fill-opacity="1" /><path clip-path="url(#clip520)" d="M2087.47 194.187 L2087.47 180.159 L2091.73 180.159 L2091.73 216.178 L2087.47 216.178 L2087.47 212.289 Q2086.13 214.603 2084.07 215.738 Q2082.03 216.849 2079.16 216.849 Q2074.46 216.849 2071.5 213.099 Q2068.56 209.349 2068.56 203.238 Q2068.56 197.127 2071.5 193.377 Q2074.46 189.627 2079.16 189.627 Q2082.03 189.627 2084.07 190.761 Q2086.13 191.872 2087.47 194.187 M2072.96 203.238 Q2072.96 207.937 2074.88 210.622 Q2076.82 213.284 2080.2 213.284 Q2083.58 213.284 2085.53 210.622 Q2087.47 207.937 2087.47 203.238 Q2087.47 198.539 2085.53 195.877 Q2083.58 193.192 2080.2 193.192 Q2076.82 193.192 2074.88 195.877 Q2072.96 198.539 2072.96 203.238 Z" fill="#000000" fill-rule="evenodd" fill-opacity="1" /><path clip-path="url(#clip520)" d="M2120.43 185.46 L2120.43 198.446 L2126.31 198.446 Q2129.58 198.446 2131.36 196.756 Q2133.14 195.067 2133.14 191.942 Q2133.14 188.84 2131.36 187.15 Q2129.58 185.46 2126.31 185.46 L2120.43 185.46 M2115.76 181.618 L2126.31 181.618 Q2132.12 181.618 2135.09 184.256 Q2138.07 186.872 2138.07 191.942 Q2138.07 197.057 2135.09 199.673 Q2132.12 202.289 2126.31 202.289 L2120.43 202.289 L2120.43 216.178 L2115.76 216.178 L2115.76 181.618 Z" fill="#000000" fill-rule="evenodd" fill-opacity="1" /><path clip-path="url(#clip520)" d="M2158.35 194.233 Q2157.63 193.817 2156.78 193.631 Q2155.94 193.423 2154.92 193.423 Q2151.31 193.423 2149.37 195.784 Q2147.45 198.122 2147.45 202.52 L2147.45 216.178 L2143.16 216.178 L2143.16 190.252 L2147.45 190.252 L2147.45 194.28 Q2148.79 191.918 2150.94 190.784 Q2153.09 189.627 2156.17 189.627 Q2156.61 189.627 2157.15 189.696 Q2157.68 189.743 2158.33 189.858 L2158.35 194.233 Z" fill="#000000" fill-rule="evenodd" fill-opacity="1" /><path clip-path="url(#clip520)" d="M2162.82 190.252 L2167.08 190.252 L2167.08 216.178 L2162.82 216.178 L2162.82 190.252 M2162.82 180.159 L2167.08 180.159 L2167.08 185.553 L2162.82 185.553 L2162.82 180.159 Z" fill="#000000" fill-rule="evenodd" fill-opacity="1" /><path clip-path="url(#clip520)" d="M2194.65 191.247 L2194.65 195.229 Q2192.84 194.233 2191.01 193.747 Q2189.21 193.238 2187.35 193.238 Q2183.21 193.238 2180.92 195.877 Q2178.63 198.492 2178.63 203.238 Q2178.63 207.983 2180.92 210.622 Q2183.21 213.238 2187.35 213.238 Q2189.21 213.238 2191.01 212.752 Q2192.84 212.242 2194.65 211.247 L2194.65 215.182 Q2192.86 216.016 2190.94 216.432 Q2189.04 216.849 2186.89 216.849 Q2181.03 216.849 2177.59 213.168 Q2174.14 209.488 2174.14 203.238 Q2174.14 196.895 2177.61 193.261 Q2181.1 189.627 2187.17 189.627 Q2189.14 189.627 2191.01 190.043 Q2192.89 190.437 2194.65 191.247 Z" fill="#000000" fill-rule="evenodd" fill-opacity="1" /><path clip-path="url(#clip520)" d="M2224.23 202.15 L2224.23 204.233 L2204.65 204.233 Q2204.92 208.631 2207.28 210.946 Q2209.67 213.238 2213.9 213.238 Q2216.36 213.238 2218.65 212.636 Q2220.96 212.034 2223.23 210.83 L2223.23 214.858 Q2220.94 215.83 2218.53 216.34 Q2216.13 216.849 2213.65 216.849 Q2207.45 216.849 2203.81 213.238 Q2200.2 209.627 2200.2 203.469 Q2200.2 197.104 2203.63 193.377 Q2207.08 189.627 2212.91 189.627 Q2218.14 189.627 2221.17 193.006 Q2224.23 196.363 2224.23 202.15 M2219.97 200.9 Q2219.92 197.405 2218 195.321 Q2216.1 193.238 2212.96 193.238 Q2209.39 193.238 2207.24 195.252 Q2205.11 197.266 2204.78 200.923 L2219.97 200.9 Z" fill="#000000" fill-rule="evenodd" fill-opacity="1" /><circle clip-path="url(#clip520)" cx="1932.54" cy="250.738" r="23" fill="#3da44d" fill-rule="evenodd" fill-opacity="1" stroke="#000000" stroke-opacity="1" stroke-width="5.12"/>
<path clip-path="url(#clip520)" d="M2024.9 233.458 L2054.14 233.458 L2054.14 237.393 L2041.87 237.393 L2041.87 268.018 L2037.17 268.018 L2037.17 237.393 L2024.9 237.393 L2024.9 233.458 Z" fill="#000000" fill-rule="evenodd" fill-opacity="1" /><path clip-path="url(#clip520)" d="M2066.52 246.073 Q2065.8 245.657 2064.95 245.471 Q2064.11 245.263 2063.1 245.263 Q2059.48 245.263 2057.54 247.624 Q2055.62 249.962 2055.62 254.36 L2055.62 268.018 L2051.34 268.018 L2051.34 242.092 L2055.62 242.092 L2055.62 246.12 Q2056.96 243.758 2059.11 242.624 Q2061.27 241.467 2064.35 241.467 Q2064.78 241.467 2065.32 241.536 Q2065.85 241.583 2066.5 241.698 L2066.52 246.073 Z" fill="#000000" fill-rule="evenodd" fill-opacity="1" /><path clip-path="url(#clip520)" d="M2082.77 254.985 Q2077.61 254.985 2075.62 256.166 Q2073.63 257.346 2073.63 260.194 Q2073.63 262.462 2075.11 263.805 Q2076.61 265.124 2079.18 265.124 Q2082.72 265.124 2084.85 262.624 Q2087.01 260.101 2087.01 255.934 L2087.01 254.985 L2082.77 254.985 M2091.27 253.226 L2091.27 268.018 L2087.01 268.018 L2087.01 264.082 Q2085.55 266.443 2083.37 267.578 Q2081.2 268.689 2078.05 268.689 Q2074.07 268.689 2071.71 266.467 Q2069.37 264.221 2069.37 260.471 Q2069.37 256.096 2072.28 253.874 Q2075.22 251.652 2081.03 251.652 L2087.01 251.652 L2087.01 251.235 Q2087.01 248.295 2085.06 246.698 Q2083.14 245.078 2079.65 245.078 Q2077.42 245.078 2075.32 245.61 Q2073.21 246.143 2071.27 247.207 L2071.27 243.272 Q2073.6 242.37 2075.8 241.93 Q2078 241.467 2080.09 241.467 Q2085.71 241.467 2088.49 244.383 Q2091.27 247.3 2091.27 253.226 Z" fill="#000000" fill-rule="evenodd" fill-opacity="1" /><path clip-path="url(#clip520)" d="M2117.1 246.027 L2117.1 231.999 L2121.36 231.999 L2121.36 268.018 L2117.1 268.018 L2117.1 264.129 Q2115.76 266.443 2113.7 267.578 Q2111.66 268.689 2108.79 268.689 Q2104.09 268.689 2101.13 264.939 Q2098.19 261.189 2098.19 255.078 Q2098.19 248.967 2101.13 245.217 Q2104.09 241.467 2108.79 241.467 Q2111.66 241.467 2113.7 242.601 Q2115.76 243.712 2117.1 246.027 M2102.59 255.078 Q2102.59 259.777 2104.51 262.462 Q2106.45 265.124 2109.83 265.124 Q2113.21 265.124 2115.15 262.462 Q2117.1 259.777 2117.1 255.078 Q2117.1 250.379 2115.15 247.717 Q2113.21 245.032 2109.83 245.032 Q2106.45 245.032 2104.51 247.717 Q2102.59 250.379 2102.59 255.078 Z" fill="#000000" fill-rule="evenodd" fill-opacity="1" /><path clip-path="url(#clip520)" d="M2152.31 253.99 L2152.31 256.073 L2132.72 256.073 Q2133 260.471 2135.36 262.786 Q2137.75 265.078 2141.98 265.078 Q2144.44 265.078 2146.73 264.476 Q2149.04 263.874 2151.31 262.67 L2151.31 266.698 Q2149.02 267.67 2146.61 268.18 Q2144.21 268.689 2141.73 268.689 Q2135.53 268.689 2131.89 265.078 Q2128.28 261.467 2128.28 255.309 Q2128.28 248.944 2131.71 245.217 Q2135.15 241.467 2140.99 241.467 Q2146.22 241.467 2149.25 244.846 Q2152.31 248.203 2152.31 253.99 M2148.05 252.74 Q2148 249.245 2146.08 247.161 Q2144.18 245.078 2141.03 245.078 Q2137.47 245.078 2135.32 247.092 Q2133.19 249.106 2132.86 252.763 L2148.05 252.74 Z" fill="#000000" fill-rule="evenodd" fill-opacity="1" /><path clip-path="url(#clip520)" d="M2175.83 242.856 L2175.83 246.883 Q2174.02 245.957 2172.08 245.495 Q2170.13 245.032 2168.05 245.032 Q2164.88 245.032 2163.28 246.004 Q2161.71 246.976 2161.71 248.92 Q2161.71 250.402 2162.84 251.258 Q2163.97 252.092 2167.4 252.856 L2168.86 253.18 Q2173.4 254.152 2175.29 255.934 Q2177.21 257.694 2177.21 260.865 Q2177.21 264.476 2174.34 266.582 Q2171.5 268.689 2166.5 268.689 Q2164.41 268.689 2162.15 268.272 Q2159.9 267.879 2157.4 267.068 L2157.4 262.67 Q2159.76 263.897 2162.05 264.522 Q2164.34 265.124 2166.59 265.124 Q2169.6 265.124 2171.22 264.106 Q2172.84 263.064 2172.84 261.189 Q2172.84 259.453 2171.66 258.527 Q2170.5 257.601 2166.54 256.744 L2165.06 256.397 Q2161.1 255.564 2159.34 253.851 Q2157.59 252.115 2157.59 249.106 Q2157.59 245.448 2160.18 243.458 Q2162.77 241.467 2167.54 241.467 Q2169.9 241.467 2171.98 241.814 Q2174.07 242.161 2175.83 242.856 Z" fill="#000000" fill-rule="evenodd" fill-opacity="1" /></svg>
