<?xml version="1.0" encoding="utf-8"?>
<svg xmlns="http://www.w3.org/2000/svg" xmlns:xlink="http://www.w3.org/1999/xlink" width="600" height="400" viewBox="0 0 2400 1600">
<defs>
  <clipPath id="clip660">
    <rect x="0" y="0" width="2400" height="1600"/>
  </clipPath>
</defs>
<path clip-path="url(#clip660)" d="M0 1600 L2400 1600 L2400 0 L0 0  Z" fill="#ffffff" fill-rule="evenodd" fill-opacity="1"/>
<defs>
  <clipPath id="clip661">
    <rect x="480" y="0" width="1681" height="1600"/>
  </clipPath>
</defs>
<path clip-path="url(#clip660)" d="M186.274 1486.45 L2352.76 1486.45 L2352.76 47.2441 L186.274 47.2441  Z" fill="#ffffff" fill-rule="evenodd" fill-opacity="1"/>
<defs>
  <clipPath id="clip662">
    <rect x="186" y="47" width="2167" height="1440"/>
  </clipPath>
</defs>
<polyline clip-path="url(#clip662)" style="stroke:#000000; stroke-linecap:round; stroke-linejoin:round; stroke-width:2; stroke-opacity:0.1; fill:none" points="451.647,1486.45 451.647,47.2441 "/>
<polyline clip-path="url(#clip662)" style="stroke:#000000; stroke-linecap:round; stroke-linejoin:round; stroke-width:2; stroke-opacity:0.1; fill:none" points="1049.89,1486.45 1049.89,47.2441 "/>
<polyline clip-path="url(#clip662)" style="stroke:#000000; stroke-linecap:round; stroke-linejoin:round; stroke-width:2; stroke-opacity:0.1; fill:none" points="1648.95,1486.45 1648.95,47.2441 "/>
<polyline clip-path="url(#clip662)" style="stroke:#000000; stroke-linecap:round; stroke-linejoin:round; stroke-width:2; stroke-opacity:0.1; fill:none" points="2247.19,1486.45 2247.19,47.2441 "/>
<polyline clip-path="url(#clip660)" style="stroke:#000000; stroke-linecap:round; stroke-linejoin:round; stroke-width:4; stroke-opacity:1; fill:none" points="186.274,1486.45 2352.76,1486.45 "/>
<polyline clip-path="url(#clip660)" style="stroke:#000000; stroke-linecap:round; stroke-linejoin:round; stroke-width:4; stroke-opacity:1; fill:none" points="451.647,1486.45 451.647,1467.55 "/>
<polyline clip-path="url(#clip660)" style="stroke:#000000; stroke-linecap:round; stroke-linejoin:round; stroke-width:4; stroke-opacity:1; fill:none" points="1049.89,1486.45 1049.89,1467.55 "/>
<polyline clip-path="url(#clip660)" style="stroke:#000000; stroke-linecap:round; stroke-linejoin:round; stroke-width:4; stroke-opacity:1; fill:none" points="1648.95,1486.45 1648.95,1467.55 "/>
<polyline clip-path="url(#clip660)" style="stroke:#000000; stroke-linecap:round; stroke-linejoin:round; stroke-width:4; stroke-opacity:1; fill:none" points="2247.19,1486.45 2247.19,1467.55 "/>
<path clip-path="url(#clip660)" d="M323.441 1544.91 L339.761 1544.91 L339.761 1548.85 L317.817 1548.85 L317.817 1544.91 Q320.479 1542.16 325.062 1537.53 Q329.668 1532.88 330.849 1531.53 Q333.094 1529.01 333.974 1527.27 Q334.877 1525.51 334.877 1523.82 Q334.877 1521.07 332.932 1519.33 Q331.011 1517.6 327.909 1517.6 Q325.71 1517.6 323.256 1518.36 Q320.826 1519.13 318.048 1520.68 L318.048 1515.95 Q320.872 1514.82 323.326 1514.24 Q325.779 1513.66 327.816 1513.66 Q333.187 1513.66 336.381 1516.35 Q339.576 1519.03 339.576 1523.52 Q339.576 1525.65 338.765 1527.57 Q337.978 1529.47 335.872 1532.07 Q335.293 1532.74 332.191 1535.95 Q329.09 1539.15 323.441 1544.91 Z" fill="#000000" fill-rule="evenodd" fill-opacity="1" /><path clip-path="url(#clip660)" d="M359.576 1517.37 Q355.964 1517.37 354.136 1520.93 Q352.33 1524.47 352.33 1531.6 Q352.33 1538.71 354.136 1542.27 Q355.964 1545.82 359.576 1545.82 Q363.21 1545.82 365.015 1542.27 Q366.844 1538.71 366.844 1531.6 Q366.844 1524.47 365.015 1520.93 Q363.21 1517.37 359.576 1517.37 M359.576 1513.66 Q365.386 1513.66 368.441 1518.27 Q371.52 1522.85 371.52 1531.6 Q371.52 1540.33 368.441 1544.94 Q365.386 1549.52 359.576 1549.52 Q353.765 1549.52 350.687 1544.94 Q347.631 1540.33 347.631 1531.6 Q347.631 1522.85 350.687 1518.27 Q353.765 1513.66 359.576 1513.66 Z" fill="#000000" fill-rule="evenodd" fill-opacity="1" /><path clip-path="url(#clip660)" d="M380.548 1544.91 L388.187 1544.91 L388.187 1518.55 L379.876 1520.21 L379.876 1515.95 L388.14 1514.29 L392.816 1514.29 L392.816 1544.91 L400.455 1544.91 L400.455 1548.85 L380.548 1548.85 L380.548 1544.91 Z" fill="#000000" fill-rule="evenodd" fill-opacity="1" /><path clip-path="url(#clip660)" d="M408.719 1514.29 L430.941 1514.29 L430.941 1516.28 L418.395 1548.85 L413.51 1548.85 L425.316 1518.22 L408.719 1518.22 L408.719 1514.29 Z" fill="#000000" fill-rule="evenodd" fill-opacity="1" /><path clip-path="url(#clip660)" d="M437.307 1533.96 L449.783 1533.96 L449.783 1537.76 L437.307 1537.76 L437.307 1533.96 Z" fill="#000000" fill-rule="evenodd" fill-opacity="1" /><path clip-path="url(#clip660)" d="M467.168 1517.37 Q463.556 1517.37 461.728 1520.93 Q459.922 1524.47 459.922 1531.6 Q459.922 1538.71 461.728 1542.27 Q463.556 1545.82 467.168 1545.82 Q470.802 1545.82 472.607 1542.27 Q474.436 1538.71 474.436 1531.6 Q474.436 1524.47 472.607 1520.93 Q470.802 1517.37 467.168 1517.37 M467.168 1513.66 Q472.978 1513.66 476.033 1518.27 Q479.112 1522.85 479.112 1531.6 Q479.112 1540.33 476.033 1544.94 Q472.978 1549.52 467.168 1549.52 Q461.357 1549.52 458.279 1544.94 Q455.223 1540.33 455.223 1531.6 Q455.223 1522.85 458.279 1518.27 Q461.357 1513.66 467.168 1513.66 Z" fill="#000000" fill-rule="evenodd" fill-opacity="1" /><path clip-path="url(#clip660)" d="M488.14 1544.91 L495.779 1544.91 L495.779 1518.55 L487.468 1520.21 L487.468 1515.95 L495.732 1514.29 L500.408 1514.29 L500.408 1544.91 L508.047 1544.91 L508.047 1548.85 L488.14 1548.85 L488.14 1544.91 Z" fill="#000000" fill-rule="evenodd" fill-opacity="1" /><path clip-path="url(#clip660)" d="M514.737 1533.96 L527.214 1533.96 L527.214 1537.76 L514.737 1537.76 L514.737 1533.96 Z" fill="#000000" fill-rule="evenodd" fill-opacity="1" /><path clip-path="url(#clip660)" d="M544.598 1517.37 Q540.987 1517.37 539.158 1520.93 Q537.352 1524.47 537.352 1531.6 Q537.352 1538.71 539.158 1542.27 Q540.987 1545.82 544.598 1545.82 Q548.232 1545.82 550.037 1542.27 Q551.866 1538.71 551.866 1531.6 Q551.866 1524.47 550.037 1520.93 Q548.232 1517.37 544.598 1517.37 M544.598 1513.66 Q550.408 1513.66 553.463 1518.27 Q556.542 1522.85 556.542 1531.6 Q556.542 1540.33 553.463 1544.94 Q550.408 1549.52 544.598 1549.52 Q538.788 1549.52 535.709 1544.94 Q532.653 1540.33 532.653 1531.6 Q532.653 1522.85 535.709 1518.27 Q538.788 1513.66 544.598 1513.66 Z" fill="#000000" fill-rule="evenodd" fill-opacity="1" /><path clip-path="url(#clip660)" d="M565.57 1544.91 L573.209 1544.91 L573.209 1518.55 L564.899 1520.21 L564.899 1515.95 L573.162 1514.29 L577.838 1514.29 L577.838 1544.91 L585.477 1544.91 L585.477 1548.85 L565.57 1548.85 L565.57 1544.91 Z" fill="#000000" fill-rule="evenodd" fill-opacity="1" /><path clip-path="url(#clip660)" d="M921.682 1544.91 L938.001 1544.91 L938.001 1548.85 L916.057 1548.85 L916.057 1544.91 Q918.719 1542.16 923.302 1537.53 Q927.909 1532.88 929.089 1531.53 Q931.334 1529.01 932.214 1527.27 Q933.117 1525.51 933.117 1523.82 Q933.117 1521.07 931.172 1519.33 Q929.251 1517.6 926.149 1517.6 Q923.95 1517.6 921.497 1518.36 Q919.066 1519.13 916.288 1520.68 L916.288 1515.95 Q919.112 1514.82 921.566 1514.24 Q924.02 1513.66 926.057 1513.66 Q931.427 1513.66 934.621 1516.35 Q937.816 1519.03 937.816 1523.52 Q937.816 1525.65 937.006 1527.57 Q936.219 1529.47 934.112 1532.07 Q933.533 1532.74 930.432 1535.95 Q927.33 1539.15 921.682 1544.91 Z" fill="#000000" fill-rule="evenodd" fill-opacity="1" /><path clip-path="url(#clip660)" d="M957.816 1517.37 Q954.205 1517.37 952.376 1520.93 Q950.57 1524.47 950.57 1531.6 Q950.57 1538.71 952.376 1542.27 Q954.205 1545.82 957.816 1545.82 Q961.45 1545.82 963.256 1542.27 Q965.084 1538.71 965.084 1531.6 Q965.084 1524.47 963.256 1520.93 Q961.45 1517.37 957.816 1517.37 M957.816 1513.66 Q963.626 1513.66 966.681 1518.27 Q969.76 1522.85 969.76 1531.6 Q969.76 1540.33 966.681 1544.94 Q963.626 1549.52 957.816 1549.52 Q952.006 1549.52 948.927 1544.94 Q945.871 1540.33 945.871 1531.6 Q945.871 1522.85 948.927 1518.27 Q952.006 1513.66 957.816 1513.66 Z" fill="#000000" fill-rule="evenodd" fill-opacity="1" /><path clip-path="url(#clip660)" d="M978.788 1544.91 L986.427 1544.91 L986.427 1518.55 L978.117 1520.21 L978.117 1515.95 L986.38 1514.29 L991.056 1514.29 L991.056 1544.91 L998.695 1544.91 L998.695 1548.85 L978.788 1548.85 L978.788 1544.91 Z" fill="#000000" fill-rule="evenodd" fill-opacity="1" /><path clip-path="url(#clip660)" d="M1008.28 1548.13 L1008.28 1543.87 Q1010.04 1544.7 1011.84 1545.14 Q1013.65 1545.58 1015.38 1545.58 Q1020.01 1545.58 1022.45 1542.48 Q1024.9 1539.36 1025.25 1533.01 Q1023.9 1535.01 1021.84 1536.07 Q1019.78 1537.13 1017.28 1537.13 Q1012.1 1537.13 1009.07 1534.01 Q1006.06 1530.86 1006.06 1525.42 Q1006.06 1520.1 1009.2 1516.88 Q1012.35 1513.66 1017.58 1513.66 Q1023.58 1513.66 1026.73 1518.27 Q1029.9 1522.85 1029.9 1531.6 Q1029.9 1539.77 1026.01 1544.66 Q1022.14 1549.52 1015.59 1549.52 Q1013.83 1549.52 1012.03 1549.17 Q1010.22 1548.82 1008.28 1548.13 M1017.58 1533.48 Q1020.73 1533.48 1022.56 1531.32 Q1024.41 1529.17 1024.41 1525.42 Q1024.41 1521.7 1022.56 1519.54 Q1020.73 1517.37 1017.58 1517.37 Q1014.44 1517.37 1012.58 1519.54 Q1010.76 1521.7 1010.76 1525.42 Q1010.76 1529.17 1012.58 1531.32 Q1014.44 1533.48 1017.58 1533.48 Z" fill="#000000" fill-rule="evenodd" fill-opacity="1" /><path clip-path="url(#clip660)" d="M1035.55 1533.96 L1048.02 1533.96 L1048.02 1537.76 L1035.55 1537.76 L1035.55 1533.96 Z" fill="#000000" fill-rule="evenodd" fill-opacity="1" /><path clip-path="url(#clip660)" d="M1065.41 1517.37 Q1061.8 1517.37 1059.97 1520.93 Q1058.16 1524.47 1058.16 1531.6 Q1058.16 1538.71 1059.97 1542.27 Q1061.8 1545.82 1065.41 1545.82 Q1069.04 1545.82 1070.85 1542.27 Q1072.68 1538.71 1072.68 1531.6 Q1072.68 1524.47 1070.85 1520.93 Q1069.04 1517.37 1065.41 1517.37 M1065.41 1513.66 Q1071.22 1513.66 1074.27 1518.27 Q1077.35 1522.85 1077.35 1531.6 Q1077.35 1540.33 1074.27 1544.94 Q1071.22 1549.52 1065.41 1549.52 Q1059.6 1549.52 1056.52 1544.94 Q1053.46 1540.33 1053.46 1531.6 Q1053.46 1522.85 1056.52 1518.27 Q1059.6 1513.66 1065.41 1513.66 Z" fill="#000000" fill-rule="evenodd" fill-opacity="1" /><path clip-path="url(#clip660)" d="M1086.38 1544.91 L1094.02 1544.91 L1094.02 1518.55 L1085.71 1520.21 L1085.71 1515.95 L1093.97 1514.29 L1098.65 1514.29 L1098.65 1544.91 L1106.29 1544.91 L1106.29 1548.85 L1086.38 1548.85 L1086.38 1544.91 Z" fill="#000000" fill-rule="evenodd" fill-opacity="1" /><path clip-path="url(#clip660)" d="M1112.98 1533.96 L1125.45 1533.96 L1125.45 1537.76 L1112.98 1537.76 L1112.98 1533.96 Z" fill="#000000" fill-rule="evenodd" fill-opacity="1" /><path clip-path="url(#clip660)" d="M1142.84 1517.37 Q1139.23 1517.37 1137.4 1520.93 Q1135.59 1524.47 1135.59 1531.6 Q1135.59 1538.71 1137.4 1542.27 Q1139.23 1545.82 1142.84 1545.82 Q1146.47 1545.82 1148.28 1542.27 Q1150.11 1538.71 1150.11 1531.6 Q1150.11 1524.47 1148.28 1520.93 Q1146.47 1517.37 1142.84 1517.37 M1142.84 1513.66 Q1148.65 1513.66 1151.7 1518.27 Q1154.78 1522.85 1154.78 1531.6 Q1154.78 1540.33 1151.7 1544.94 Q1148.65 1549.52 1142.84 1549.52 Q1137.03 1549.52 1133.95 1544.94 Q1130.89 1540.33 1130.89 1531.6 Q1130.89 1522.85 1133.95 1518.27 Q1137.03 1513.66 1142.84 1513.66 Z" fill="#000000" fill-rule="evenodd" fill-opacity="1" /><path clip-path="url(#clip660)" d="M1163.81 1544.91 L1171.45 1544.91 L1171.45 1518.55 L1163.14 1520.21 L1163.14 1515.95 L1171.4 1514.29 L1176.08 1514.29 L1176.08 1544.91 L1183.72 1544.91 L1183.72 1548.85 L1163.81 1548.85 L1163.81 1544.91 Z" fill="#000000" fill-rule="evenodd" fill-opacity="1" /><path clip-path="url(#clip660)" d="M1520.74 1544.91 L1537.06 1544.91 L1537.06 1548.85 L1515.12 1548.85 L1515.12 1544.91 Q1517.78 1542.16 1522.36 1537.53 Q1526.97 1532.88 1528.15 1531.53 Q1530.39 1529.01 1531.27 1527.27 Q1532.18 1525.51 1532.18 1523.82 Q1532.18 1521.07 1530.23 1519.33 Q1528.31 1517.6 1525.21 1517.6 Q1523.01 1517.6 1520.56 1518.36 Q1518.13 1519.13 1515.35 1520.68 L1515.35 1515.95 Q1518.17 1514.82 1520.63 1514.24 Q1523.08 1513.66 1525.12 1513.66 Q1530.49 1513.66 1533.68 1516.35 Q1536.88 1519.03 1536.88 1523.52 Q1536.88 1525.65 1536.07 1527.57 Q1535.28 1529.47 1533.17 1532.07 Q1532.59 1532.74 1529.49 1535.95 Q1526.39 1539.15 1520.74 1544.91 Z" fill="#000000" fill-rule="evenodd" fill-opacity="1" /><path clip-path="url(#clip660)" d="M1556.88 1517.37 Q1553.26 1517.37 1551.44 1520.93 Q1549.63 1524.47 1549.63 1531.6 Q1549.63 1538.71 1551.44 1542.27 Q1553.26 1545.82 1556.88 1545.82 Q1560.51 1545.82 1562.32 1542.27 Q1564.14 1538.71 1564.14 1531.6 Q1564.14 1524.47 1562.32 1520.93 Q1560.51 1517.37 1556.88 1517.37 M1556.88 1513.66 Q1562.69 1513.66 1565.74 1518.27 Q1568.82 1522.85 1568.82 1531.6 Q1568.82 1540.33 1565.74 1544.94 Q1562.69 1549.52 1556.88 1549.52 Q1551.07 1549.52 1547.99 1544.94 Q1544.93 1540.33 1544.93 1531.6 Q1544.93 1522.85 1547.99 1518.27 Q1551.07 1513.66 1556.88 1513.66 Z" fill="#000000" fill-rule="evenodd" fill-opacity="1" /><path clip-path="url(#clip660)" d="M1581.07 1544.91 L1597.38 1544.91 L1597.38 1548.85 L1575.44 1548.85 L1575.44 1544.91 Q1578.1 1542.16 1582.69 1537.53 Q1587.29 1532.88 1588.47 1531.53 Q1590.72 1529.01 1591.6 1527.27 Q1592.5 1525.51 1592.5 1523.82 Q1592.5 1521.07 1590.56 1519.33 Q1588.63 1517.6 1585.53 1517.6 Q1583.33 1517.6 1580.88 1518.36 Q1578.45 1519.13 1575.67 1520.68 L1575.67 1515.95 Q1578.5 1514.82 1580.95 1514.24 Q1583.4 1513.66 1585.44 1513.66 Q1590.81 1513.66 1594 1516.35 Q1597.2 1519.03 1597.2 1523.52 Q1597.2 1525.65 1596.39 1527.57 Q1595.6 1529.47 1593.5 1532.07 Q1592.92 1532.74 1589.82 1535.95 Q1586.71 1539.15 1581.07 1544.91 Z" fill="#000000" fill-rule="evenodd" fill-opacity="1" /><path clip-path="url(#clip660)" d="M1608.01 1544.91 L1615.65 1544.91 L1615.65 1518.55 L1607.34 1520.21 L1607.34 1515.95 L1615.6 1514.29 L1620.28 1514.29 L1620.28 1544.91 L1627.92 1544.91 L1627.92 1548.85 L1608.01 1548.85 L1608.01 1544.91 Z" fill="#000000" fill-rule="evenodd" fill-opacity="1" /><path clip-path="url(#clip660)" d="M1634.61 1533.96 L1647.08 1533.96 L1647.08 1537.76 L1634.61 1537.76 L1634.61 1533.96 Z" fill="#000000" fill-rule="evenodd" fill-opacity="1" /><path clip-path="url(#clip660)" d="M1664.47 1517.37 Q1660.86 1517.37 1659.03 1520.93 Q1657.22 1524.47 1657.22 1531.6 Q1657.22 1538.71 1659.03 1542.27 Q1660.86 1545.82 1664.47 1545.82 Q1668.1 1545.82 1669.91 1542.27 Q1671.74 1538.71 1671.74 1531.6 Q1671.74 1524.47 1669.91 1520.93 Q1668.1 1517.37 1664.47 1517.37 M1664.47 1513.66 Q1670.28 1513.66 1673.33 1518.27 Q1676.41 1522.85 1676.41 1531.6 Q1676.41 1540.33 1673.33 1544.94 Q1670.28 1549.52 1664.47 1549.52 Q1658.66 1549.52 1655.58 1544.94 Q1652.52 1540.33 1652.52 1531.6 Q1652.52 1522.85 1655.58 1518.27 Q1658.66 1513.66 1664.47 1513.66 Z" fill="#000000" fill-rule="evenodd" fill-opacity="1" /><path clip-path="url(#clip660)" d="M1685.44 1544.91 L1693.08 1544.91 L1693.08 1518.55 L1684.77 1520.21 L1684.77 1515.95 L1693.03 1514.29 L1697.71 1514.29 L1697.71 1544.91 L1705.35 1544.91 L1705.35 1548.85 L1685.44 1548.85 L1685.44 1544.91 Z" fill="#000000" fill-rule="evenodd" fill-opacity="1" /><path clip-path="url(#clip660)" d="M1712.04 1533.96 L1724.51 1533.96 L1724.51 1537.76 L1712.04 1537.76 L1712.04 1533.96 Z" fill="#000000" fill-rule="evenodd" fill-opacity="1" /><path clip-path="url(#clip660)" d="M1741.9 1517.37 Q1738.29 1517.37 1736.46 1520.93 Q1734.65 1524.47 1734.65 1531.6 Q1734.65 1538.71 1736.46 1542.27 Q1738.29 1545.82 1741.9 1545.82 Q1745.53 1545.82 1747.34 1542.27 Q1749.17 1538.71 1749.17 1531.6 Q1749.17 1524.47 1747.34 1520.93 Q1745.53 1517.37 1741.9 1517.37 M1741.9 1513.66 Q1747.71 1513.66 1750.76 1518.27 Q1753.84 1522.85 1753.84 1531.6 Q1753.84 1540.33 1750.76 1544.94 Q1747.71 1549.52 1741.9 1549.52 Q1736.09 1549.52 1733.01 1544.94 Q1729.95 1540.33 1729.95 1531.6 Q1729.95 1522.85 1733.01 1518.27 Q1736.09 1513.66 1741.9 1513.66 Z" fill="#000000" fill-rule="evenodd" fill-opacity="1" /><path clip-path="url(#clip660)" d="M1762.87 1544.91 L1770.51 1544.91 L1770.51 1518.55 L1762.2 1520.21 L1762.2 1515.95 L1770.46 1514.29 L1775.14 1514.29 L1775.14 1544.91 L1782.78 1544.91 L1782.78 1548.85 L1762.87 1548.85 L1762.87 1544.91 Z" fill="#000000" fill-rule="evenodd" fill-opacity="1" /><path clip-path="url(#clip660)" d="M2118.98 1544.91 L2135.3 1544.91 L2135.3 1548.85 L2113.36 1548.85 L2113.36 1544.91 Q2116.02 1542.16 2120.6 1537.53 Q2125.21 1532.88 2126.39 1531.53 Q2128.63 1529.01 2129.51 1527.27 Q2130.42 1525.51 2130.42 1523.82 Q2130.42 1521.07 2128.47 1519.33 Q2126.55 1517.6 2123.45 1517.6 Q2121.25 1517.6 2118.8 1518.36 Q2116.37 1519.13 2113.59 1520.68 L2113.59 1515.95 Q2116.41 1514.82 2118.87 1514.24 Q2121.32 1513.66 2123.36 1513.66 Q2128.73 1513.66 2131.92 1516.35 Q2135.12 1519.03 2135.12 1523.52 Q2135.12 1525.65 2134.31 1527.57 Q2133.52 1529.47 2131.41 1532.07 Q2130.83 1532.74 2127.73 1535.95 Q2124.63 1539.15 2118.98 1544.91 Z" fill="#000000" fill-rule="evenodd" fill-opacity="1" /><path clip-path="url(#clip660)" d="M2155.12 1517.37 Q2151.5 1517.37 2149.68 1520.93 Q2147.87 1524.47 2147.87 1531.6 Q2147.87 1538.71 2149.68 1542.27 Q2151.5 1545.82 2155.12 1545.82 Q2158.75 1545.82 2160.56 1542.27 Q2162.38 1538.71 2162.38 1531.6 Q2162.38 1524.47 2160.56 1520.93 Q2158.75 1517.37 2155.12 1517.37 M2155.12 1513.66 Q2160.93 1513.66 2163.98 1518.27 Q2167.06 1522.85 2167.06 1531.6 Q2167.06 1540.33 2163.98 1544.94 Q2160.93 1549.52 2155.12 1549.52 Q2149.31 1549.52 2146.23 1544.94 Q2143.17 1540.33 2143.17 1531.6 Q2143.17 1522.85 2146.23 1518.27 Q2149.31 1513.66 2155.12 1513.66 Z" fill="#000000" fill-rule="evenodd" fill-opacity="1" /><path clip-path="url(#clip660)" d="M2179.31 1544.91 L2195.62 1544.91 L2195.62 1548.85 L2173.68 1548.85 L2173.68 1544.91 Q2176.34 1542.16 2180.93 1537.53 Q2185.53 1532.88 2186.71 1531.53 Q2188.96 1529.01 2189.84 1527.27 Q2190.74 1525.51 2190.74 1523.82 Q2190.74 1521.07 2188.8 1519.33 Q2186.87 1517.6 2183.77 1517.6 Q2181.57 1517.6 2179.12 1518.36 Q2176.69 1519.13 2173.91 1520.68 L2173.91 1515.95 Q2176.74 1514.82 2179.19 1514.24 Q2181.64 1513.66 2183.68 1513.66 Q2189.05 1513.66 2192.25 1516.35 Q2195.44 1519.03 2195.44 1523.52 Q2195.44 1525.65 2194.63 1527.57 Q2193.84 1529.47 2191.74 1532.07 Q2191.16 1532.74 2188.06 1535.95 Q2184.95 1539.15 2179.31 1544.91 Z" fill="#000000" fill-rule="evenodd" fill-opacity="1" /><path clip-path="url(#clip660)" d="M2219.61 1530.21 Q2222.96 1530.93 2224.84 1533.2 Q2226.74 1535.47 2226.74 1538.8 Q2226.74 1543.92 2223.22 1546.72 Q2219.7 1549.52 2213.22 1549.52 Q2211.04 1549.52 2208.73 1549.08 Q2206.43 1548.66 2203.98 1547.81 L2203.98 1543.29 Q2205.93 1544.43 2208.24 1545.01 Q2210.56 1545.58 2213.08 1545.58 Q2217.48 1545.58 2219.77 1543.85 Q2222.08 1542.11 2222.08 1538.8 Q2222.08 1535.75 2219.93 1534.03 Q2217.8 1532.3 2213.98 1532.3 L2209.95 1532.3 L2209.95 1528.45 L2214.17 1528.45 Q2217.62 1528.45 2219.44 1527.09 Q2221.27 1525.7 2221.27 1523.11 Q2221.27 1520.45 2219.37 1519.03 Q2217.5 1517.6 2213.98 1517.6 Q2212.06 1517.6 2209.86 1518.01 Q2207.66 1518.43 2205.02 1519.31 L2205.02 1515.14 Q2207.68 1514.4 2210 1514.03 Q2212.34 1513.66 2214.4 1513.66 Q2219.72 1513.66 2222.82 1516.09 Q2225.93 1518.5 2225.93 1522.62 Q2225.93 1525.49 2224.28 1527.48 Q2222.64 1529.45 2219.61 1530.21 Z" fill="#000000" fill-rule="evenodd" fill-opacity="1" /><path clip-path="url(#clip660)" d="M2232.85 1533.96 L2245.32 1533.96 L2245.32 1537.76 L2232.85 1537.76 L2232.85 1533.96 Z" fill="#000000" fill-rule="evenodd" fill-opacity="1" /><path clip-path="url(#clip660)" d="M2262.71 1517.37 Q2259.1 1517.37 2257.27 1520.93 Q2255.46 1524.47 2255.46 1531.6 Q2255.46 1538.71 2257.27 1542.27 Q2259.1 1545.82 2262.71 1545.82 Q2266.34 1545.82 2268.15 1542.27 Q2269.98 1538.71 2269.98 1531.6 Q2269.98 1524.47 2268.15 1520.93 Q2266.34 1517.37 2262.71 1517.37 M2262.71 1513.66 Q2268.52 1513.66 2271.57 1518.27 Q2274.65 1522.85 2274.65 1531.6 Q2274.65 1540.33 2271.57 1544.94 Q2268.52 1549.52 2262.71 1549.52 Q2256.9 1549.52 2253.82 1544.94 Q2250.76 1540.33 2250.76 1531.6 Q2250.76 1522.85 2253.82 1518.27 Q2256.9 1513.66 2262.71 1513.66 Z" fill="#000000" fill-rule="evenodd" fill-opacity="1" /><path clip-path="url(#clip660)" d="M2283.68 1544.91 L2291.32 1544.91 L2291.32 1518.55 L2283.01 1520.21 L2283.01 1515.95 L2291.27 1514.29 L2295.95 1514.29 L2295.95 1544.91 L2303.59 1544.91 L2303.59 1548.85 L2283.68 1548.85 L2283.68 1544.91 Z" fill="#000000" fill-rule="evenodd" fill-opacity="1" /><path clip-path="url(#clip660)" d="M2310.28 1533.96 L2322.75 1533.96 L2322.75 1537.76 L2310.28 1537.76 L2310.28 1533.96 Z" fill="#000000" fill-rule="evenodd" fill-opacity="1" /><path clip-path="url(#clip660)" d="M2340.14 1517.37 Q2336.53 1517.37 2334.7 1520.93 Q2332.89 1524.47 2332.89 1531.6 Q2332.89 1538.71 2334.7 1542.27 Q2336.53 1545.82 2340.14 1545.82 Q2343.77 1545.82 2345.58 1542.27 Q2347.41 1538.71 2347.41 1531.6 Q2347.41 1524.47 2345.58 1520.93 Q2343.77 1517.37 2340.14 1517.37 M2340.14 1513.66 Q2345.95 1513.66 2349 1518.27 Q2352.08 1522.85 2352.08 1531.6 Q2352.08 1540.33 2349 1544.94 Q2345.95 1549.52 2340.14 1549.52 Q2334.33 1549.52 2331.25 1544.94 Q2328.19 1540.33 2328.19 1531.6 Q2328.19 1522.85 2331.25 1518.27 Q2334.33 1513.66 2340.14 1513.66 Z" fill="#000000" fill-rule="evenodd" fill-opacity="1" /><path clip-path="url(#clip660)" d="M2361.11 1544.91 L2368.75 1544.91 L2368.75 1518.55 L2360.44 1520.21 L2360.44 1515.95 L2368.7 1514.29 L2373.38 1514.29 L2373.38 1544.91 L2381.02 1544.91 L2381.02 1548.85 L2361.11 1548.85 L2361.11 1544.91 Z" fill="#000000" fill-rule="evenodd" fill-opacity="1" /><polyline clip-path="url(#clip662)" style="stroke:#000000; stroke-linecap:round; stroke-linejoin:round; stroke-width:2; stroke-opacity:0.1; fill:none" points="186.274,1453.55 2352.76,1453.55 "/>
<polyline clip-path="url(#clip662)" style="stroke:#000000; stroke-linecap:round; stroke-linejoin:round; stroke-width:2; stroke-opacity:0.1; fill:none" points="186.274,1104.07 2352.76,1104.07 "/>
<polyline clip-path="url(#clip662)" style="stroke:#000000; stroke-linecap:round; stroke-linejoin:round; stroke-width:2; stroke-opacity:0.1; fill:none" points="186.274,754.582 2352.76,754.582 "/>
<polyline clip-path="url(#clip662)" style="stroke:#000000; stroke-linecap:round; stroke-linejoin:round; stroke-width:2; stroke-opacity:0.1; fill:none" points="186.274,405.097 2352.76,405.097 "/>
<polyline clip-path="url(#clip662)" style="stroke:#000000; stroke-linecap:round; stroke-linejoin:round; stroke-width:2; stroke-opacity:0.1; fill:none" points="186.274,55.6118 2352.76,55.6118 "/>
<polyline clip-path="url(#clip660)" style="stroke:#000000; stroke-linecap:round; stroke-linejoin:round; stroke-width:4; stroke-opacity:1; fill:none" points="186.274,1486.45 186.274,47.2441 "/>
<polyline clip-path="url(#clip660)" style="stroke:#000000; stroke-linecap:round; stroke-linejoin:round; stroke-width:4; stroke-opacity:1; fill:none" points="186.274,1453.55 205.172,1453.55 "/>
<polyline clip-path="url(#clip660)" style="stroke:#000000; stroke-linecap:round; stroke-linejoin:round; stroke-width:4; stroke-opacity:1; fill:none" points="186.274,1104.07 205.172,1104.07 "/>
<polyline clip-path="url(#clip660)" style="stroke:#000000; stroke-linecap:round; stroke-linejoin:round; stroke-width:4; stroke-opacity:1; fill:none" points="186.274,754.582 205.172,754.582 "/>
<polyline clip-path="url(#clip660)" style="stroke:#000000; stroke-linecap:round; stroke-linejoin:round; stroke-width:4; stroke-opacity:1; fill:none" points="186.274,405.097 205.172,405.097 "/>
<polyline clip-path="url(#clip660)" style="stroke:#000000; stroke-linecap:round; stroke-linejoin:round; stroke-width:4; stroke-opacity:1; fill:none" points="186.274,55.6118 205.172,55.6118 "/>
<path clip-path="url(#clip660)" d="M62.9365 1439.35 Q59.3254 1439.35 57.4967 1442.92 Q55.6912 1446.46 55.6912 1453.59 Q55.6912 1460.69 57.4967 1464.26 Q59.3254 1467.8 62.9365 1467.8 Q66.5707 1467.8 68.3763 1464.26 Q70.205 1460.69 70.205 1453.59 Q70.205 1446.46 68.3763 1442.92 Q66.5707 1439.35 62.9365 1439.35 M62.9365 1435.65 Q68.7467 1435.65 71.8022 1440.25 Q74.8809 1444.84 74.8809 1453.59 Q74.8809 1462.31 71.8022 1466.92 Q68.7467 1471.5 62.9365 1471.5 Q57.1264 1471.5 54.0477 1466.92 Q50.9921 1462.31 50.9921 1453.59 Q50.9921 1444.84 54.0477 1440.25 Q57.1264 1435.65 62.9365 1435.65 Z" fill="#000000" fill-rule="evenodd" fill-opacity="1" /><path clip-path="url(#clip660)" d="M83.0984 1464.95 L87.9827 1464.95 L87.9827 1470.83 L83.0984 1470.83 L83.0984 1464.95 Z" fill="#000000" fill-rule="evenodd" fill-opacity="1" /><path clip-path="url(#clip660)" d="M108.168 1439.35 Q104.557 1439.35 102.728 1442.92 Q100.922 1446.46 100.922 1453.59 Q100.922 1460.69 102.728 1464.26 Q104.557 1467.8 108.168 1467.8 Q111.802 1467.8 113.608 1464.26 Q115.436 1460.69 115.436 1453.59 Q115.436 1446.46 113.608 1442.92 Q111.802 1439.35 108.168 1439.35 M108.168 1435.65 Q113.978 1435.65 117.033 1440.25 Q120.112 1444.84 120.112 1453.59 Q120.112 1462.31 117.033 1466.92 Q113.978 1471.5 108.168 1471.5 Q102.358 1471.5 99.2789 1466.92 Q96.2234 1462.31 96.2234 1453.59 Q96.2234 1444.84 99.2789 1440.25 Q102.358 1435.65 108.168 1435.65 Z" fill="#000000" fill-rule="evenodd" fill-opacity="1" /><path clip-path="url(#clip660)" d="M138.33 1439.35 Q134.719 1439.35 132.89 1442.92 Q131.084 1446.46 131.084 1453.59 Q131.084 1460.69 132.89 1464.26 Q134.719 1467.8 138.33 1467.8 Q141.964 1467.8 143.769 1464.26 Q145.598 1460.69 145.598 1453.59 Q145.598 1446.46 143.769 1442.92 Q141.964 1439.35 138.33 1439.35 M138.33 1435.65 Q144.14 1435.65 147.195 1440.25 Q150.274 1444.84 150.274 1453.59 Q150.274 1462.31 147.195 1466.92 Q144.14 1471.5 138.33 1471.5 Q132.519 1471.5 129.441 1466.92 Q126.385 1462.31 126.385 1453.59 Q126.385 1444.84 129.441 1440.25 Q132.519 1435.65 138.33 1435.65 Z" fill="#000000" fill-rule="evenodd" fill-opacity="1" /><path clip-path="url(#clip660)" d="M63.9319 1089.87 Q60.3208 1089.87 58.4921 1093.43 Q56.6865 1096.97 56.6865 1104.1 Q56.6865 1111.21 58.4921 1114.77 Q60.3208 1118.31 63.9319 1118.31 Q67.5661 1118.31 69.3717 1114.77 Q71.2004 1111.21 71.2004 1104.1 Q71.2004 1096.97 69.3717 1093.43 Q67.5661 1089.87 63.9319 1089.87 M63.9319 1086.16 Q69.742 1086.16 72.7976 1090.77 Q75.8763 1095.35 75.8763 1104.1 Q75.8763 1112.83 72.7976 1117.43 Q69.742 1122.02 63.9319 1122.02 Q58.1217 1122.02 55.043 1117.43 Q51.9875 1112.83 51.9875 1104.1 Q51.9875 1095.35 55.043 1090.77 Q58.1217 1086.16 63.9319 1086.16 Z" fill="#000000" fill-rule="evenodd" fill-opacity="1" /><path clip-path="url(#clip660)" d="M84.0938 1115.47 L88.978 1115.47 L88.978 1121.35 L84.0938 1121.35 L84.0938 1115.47 Z" fill="#000000" fill-rule="evenodd" fill-opacity="1" /><path clip-path="url(#clip660)" d="M103.191 1117.41 L119.51 1117.41 L119.51 1121.35 L97.566 1121.35 L97.566 1117.41 Q100.228 1114.66 104.811 1110.03 Q109.418 1105.37 110.598 1104.03 Q112.844 1101.51 113.723 1099.77 Q114.626 1098.01 114.626 1096.32 Q114.626 1093.57 112.682 1091.83 Q110.76 1090.1 107.658 1090.1 Q105.459 1090.1 103.006 1090.86 Q100.575 1091.62 97.7974 1093.18 L97.7974 1088.45 Q100.621 1087.32 103.075 1086.74 Q105.529 1086.16 107.566 1086.16 Q112.936 1086.16 116.131 1088.85 Q119.325 1091.53 119.325 1096.02 Q119.325 1098.15 118.515 1100.07 Q117.728 1101.97 115.621 1104.56 Q115.043 1105.24 111.941 1108.45 Q108.839 1111.65 103.191 1117.41 Z" fill="#000000" fill-rule="evenodd" fill-opacity="1" /><path clip-path="url(#clip660)" d="M129.371 1086.79 L147.728 1086.79 L147.728 1090.72 L133.654 1090.72 L133.654 1099.19 Q134.672 1098.85 135.691 1098.68 Q136.709 1098.5 137.728 1098.5 Q143.515 1098.5 146.894 1101.67 Q150.274 1104.84 150.274 1110.26 Q150.274 1115.84 146.802 1118.94 Q143.33 1122.02 137.01 1122.02 Q134.834 1122.02 132.566 1121.65 Q130.32 1121.28 127.913 1120.54 L127.913 1115.84 Q129.996 1116.97 132.219 1117.53 Q134.441 1118.08 136.918 1118.08 Q140.922 1118.08 143.26 1115.98 Q145.598 1113.87 145.598 1110.26 Q145.598 1106.65 143.26 1104.54 Q140.922 1102.43 136.918 1102.43 Q135.043 1102.43 133.168 1102.85 Q131.316 1103.27 129.371 1104.15 L129.371 1086.79 Z" fill="#000000" fill-rule="evenodd" fill-opacity="1" /><path clip-path="url(#clip660)" d="M62.9365 740.381 Q59.3254 740.381 57.4967 743.945 Q55.6912 747.487 55.6912 754.617 Q55.6912 761.723 57.4967 765.288 Q59.3254 768.829 62.9365 768.829 Q66.5707 768.829 68.3763 765.288 Q70.205 761.723 70.205 754.617 Q70.205 747.487 68.3763 743.945 Q66.5707 740.381 62.9365 740.381 M62.9365 736.677 Q68.7467 736.677 71.8022 741.283 Q74.8809 745.867 74.8809 754.617 Q74.8809 763.343 71.8022 767.95 Q68.7467 772.533 62.9365 772.533 Q57.1264 772.533 54.0477 767.95 Q50.9921 763.343 50.9921 754.617 Q50.9921 745.867 54.0477 741.283 Q57.1264 736.677 62.9365 736.677 Z" fill="#000000" fill-rule="evenodd" fill-opacity="1" /><path clip-path="url(#clip660)" d="M83.0984 765.982 L87.9827 765.982 L87.9827 771.862 L83.0984 771.862 L83.0984 765.982 Z" fill="#000000" fill-rule="evenodd" fill-opacity="1" /><path clip-path="url(#clip660)" d="M98.2141 737.302 L116.57 737.302 L116.57 741.237 L102.496 741.237 L102.496 749.709 Q103.515 749.362 104.534 749.2 Q105.552 749.015 106.571 749.015 Q112.358 749.015 115.737 752.186 Q119.117 755.357 119.117 760.774 Q119.117 766.353 115.645 769.454 Q112.172 772.533 105.853 772.533 Q103.677 772.533 101.409 772.163 Q99.1632 771.792 96.7558 771.052 L96.7558 766.353 Q98.8391 767.487 101.061 768.042 Q103.284 768.598 105.76 768.598 Q109.765 768.598 112.103 766.492 Q114.441 764.385 114.441 760.774 Q114.441 757.163 112.103 755.056 Q109.765 752.95 105.76 752.95 Q103.885 752.95 102.01 753.367 Q100.159 753.783 98.2141 754.663 L98.2141 737.302 Z" fill="#000000" fill-rule="evenodd" fill-opacity="1" /><path clip-path="url(#clip660)" d="M138.33 740.381 Q134.719 740.381 132.89 743.945 Q131.084 747.487 131.084 754.617 Q131.084 761.723 132.89 765.288 Q134.719 768.829 138.33 768.829 Q141.964 768.829 143.769 765.288 Q145.598 761.723 145.598 754.617 Q145.598 747.487 143.769 743.945 Q141.964 740.381 138.33 740.381 M138.33 736.677 Q144.14 736.677 147.195 741.283 Q150.274 745.867 150.274 754.617 Q150.274 763.343 147.195 767.95 Q144.14 772.533 138.33 772.533 Q132.519 772.533 129.441 767.95 Q126.385 763.343 126.385 754.617 Q126.385 745.867 129.441 741.283 Q132.519 736.677 138.33 736.677 Z" fill="#000000" fill-rule="evenodd" fill-opacity="1" /><path clip-path="url(#clip660)" d="M63.9319 390.896 Q60.3208 390.896 58.4921 394.46 Q56.6865 398.002 56.6865 405.132 Q56.6865 412.238 58.4921 415.803 Q60.3208 419.344 63.9319 419.344 Q67.5661 419.344 69.3717 415.803 Q71.2004 412.238 71.2004 405.132 Q71.2004 398.002 69.3717 394.46 Q67.5661 390.896 63.9319 390.896 M63.9319 387.192 Q69.742 387.192 72.7976 391.798 Q75.8763 396.382 75.8763 405.132 Q75.8763 413.858 72.7976 418.465 Q69.742 423.048 63.9319 423.048 Q58.1217 423.048 55.043 418.465 Q51.9875 413.858 51.9875 405.132 Q51.9875 396.382 55.043 391.798 Q58.1217 387.192 63.9319 387.192 Z" fill="#000000" fill-rule="evenodd" fill-opacity="1" /><path clip-path="url(#clip660)" d="M84.0938 416.497 L88.978 416.497 L88.978 422.377 L84.0938 422.377 L84.0938 416.497 Z" fill="#000000" fill-rule="evenodd" fill-opacity="1" /><path clip-path="url(#clip660)" d="M97.9826 387.817 L120.205 387.817 L120.205 389.808 L107.658 422.377 L102.774 422.377 L114.58 391.752 L97.9826 391.752 L97.9826 387.817 Z" fill="#000000" fill-rule="evenodd" fill-opacity="1" /><path clip-path="url(#clip660)" d="M129.371 387.817 L147.728 387.817 L147.728 391.752 L133.654 391.752 L133.654 400.224 Q134.672 399.877 135.691 399.715 Q136.709 399.53 137.728 399.53 Q143.515 399.53 146.894 402.701 Q150.274 405.872 150.274 411.289 Q150.274 416.868 146.802 419.969 Q143.33 423.048 137.01 423.048 Q134.834 423.048 132.566 422.678 Q130.32 422.307 127.913 421.567 L127.913 416.868 Q129.996 418.002 132.219 418.557 Q134.441 419.113 136.918 419.113 Q140.922 419.113 143.26 417.006 Q145.598 414.9 145.598 411.289 Q145.598 407.678 143.26 405.571 Q140.922 403.465 136.918 403.465 Q135.043 403.465 133.168 403.882 Q131.316 404.298 129.371 405.178 L129.371 387.817 Z" fill="#000000" fill-rule="evenodd" fill-opacity="1" /><path clip-path="url(#clip660)" d="M53.7467 68.9566 L61.3856 68.9566 L61.3856 42.591 L53.0754 44.2577 L53.0754 39.9984 L61.3393 38.3318 L66.0152 38.3318 L66.0152 68.9566 L73.654 68.9566 L73.654 72.8918 L53.7467 72.8918 L53.7467 68.9566 Z" fill="#000000" fill-rule="evenodd" fill-opacity="1" /><path clip-path="url(#clip660)" d="M83.0984 67.0122 L87.9827 67.0122 L87.9827 72.8918 L83.0984 72.8918 L83.0984 67.0122 Z" fill="#000000" fill-rule="evenodd" fill-opacity="1" /><path clip-path="url(#clip660)" d="M108.168 41.4105 Q104.557 41.4105 102.728 44.9753 Q100.922 48.5169 100.922 55.6465 Q100.922 62.7529 102.728 66.3177 Q104.557 69.8594 108.168 69.8594 Q111.802 69.8594 113.608 66.3177 Q115.436 62.7529 115.436 55.6465 Q115.436 48.5169 113.608 44.9753 Q111.802 41.4105 108.168 41.4105 M108.168 37.7068 Q113.978 37.7068 117.033 42.3132 Q120.112 46.8965 120.112 55.6465 Q120.112 64.3733 117.033 68.9798 Q113.978 73.5631 108.168 73.5631 Q102.358 73.5631 99.2789 68.9798 Q96.2234 64.3733 96.2234 55.6465 Q96.2234 46.8965 99.2789 42.3132 Q102.358 37.7068 108.168 37.7068 Z" fill="#000000" fill-rule="evenodd" fill-opacity="1" /><path clip-path="url(#clip660)" d="M138.33 41.4105 Q134.719 41.4105 132.89 44.9753 Q131.084 48.5169 131.084 55.6465 Q131.084 62.7529 132.89 66.3177 Q134.719 69.8594 138.33 69.8594 Q141.964 69.8594 143.769 66.3177 Q145.598 62.7529 145.598 55.6465 Q145.598 48.5169 143.769 44.9753 Q141.964 41.4105 138.33 41.4105 M138.33 37.7068 Q144.14 37.7068 147.195 42.3132 Q150.274 46.8965 150.274 55.6465 Q150.274 64.3733 147.195 68.9798 Q144.14 73.5631 138.33 73.5631 Q132.519 73.5631 129.441 68.9798 Q126.385 64.3733 126.385 55.6465 Q126.385 46.8965 129.441 42.3132 Q132.519 37.7068 138.33 37.7068 Z" fill="#000000" fill-rule="evenodd" fill-opacity="1" /><polyline clip-path="url(#clip662)" style="stroke:#009af9; stroke-linecap:round; stroke-linejoin:round; stroke-width:4; stroke-opacity:1; fill:none" points="247.59,1398.26 248.409,1405.73 249.229,1408.32 251.687,1392.95 252.507,1402.41 253.326,1401.2 254.146,1402.58 254.965,1400.86 257.424,1412.89 258.243,1411.02 259.063,1411.89 259.882,1398.96 260.702,1408 263.16,1412.26 263.98,1412.93 264.799,1403.84 265.619,1396.15 266.438,1394.84 268.897,1400.69 269.716,1392.28 270.536,1405.38 271.355,1413.42 272.175,1418.69 275.453,1419.52 276.272,1422.59 277.092,1428.1 277.911,1430.16 280.37,1429.64 281.189,1429.21 282.009,1432.3 282.828,1431 283.648,1432.89 286.106,1431.98 286.926,1432.44 287.745,1431.75 288.565,1429.09 289.384,1431.39 291.843,1429.23 292.662,1431.4 293.482,1431.15 294.301,1427.5 295.121,1429.6 297.579,1426.57 298.399,1420.87 299.218,1424.97 300.038,1430.87 300.857,1433.28 304.136,1433.41 304.955,1432.99 305.775,1434.06 306.594,1432.84 309.053,1432.7 309.872,1431.55 310.692,1432.59 311.511,1432.61 312.331,1431.83 314.789,1432.82 315.609,1432.67 316.428,1431.48 317.248,1432.11 318.067,1432.55 320.526,1430.55 321.345,1429.61 322.165,1429.12 322.984,1428.45 323.804,1428.5 326.262,1430.29 327.082,1429.53 327.901,1428.45 328.721,1426.09 329.54,1426.55 331.999,1428.29 332.818,1427.19 333.638,1426.1 334.457,1425.84 335.277,1426.48 337.735,1426.42 338.555,1428.12 339.374,1427.31 340.194,1427.53 341.013,1426.24 343.472,1425.02 344.291,1425.54 345.111,1424.49 345.93,1424.07 346.75,1426.09 349.208,1423.24 350.028,1426.89 350.847,1426.05 351.667,1425.96 352.486,1423.93 355.764,1422.56 356.584,1423.31 357.403,1423.56 358.223,1421.13 360.682,1411.28 361.501,1416.62 362.321,1413.09 363.14,1412.89 363.96,1417.39 366.418,1415.45 367.238,1414.72 368.057,1418.11 368.877,1422.85 369.696,1422.49 372.155,1423.36 372.974,1422.62 373.794,1424.24 374.613,1424.52 375.433,1422.18 377.891,1420.81 378.711,1422.55 379.53,1421.16 380.35,1424.57 381.169,1422.37 383.628,1423.78 384.447,1424.83 385.267,1422.73 386.086,1421.33 386.906,1420.92 389.364,1416.79 390.184,1413.01 391.003,1415.25 391.823,1414.57 392.642,1414.71 395.101,1413.89 395.92,1414.49 396.74,1414.43 397.559,1411.44 398.379,1409.48 400.837,1406.2 401.657,1407.09 402.476,1408.23 403.296,1408.99 404.115,1407.87 406.574,1407.91 407.393,1414.9 408.213,1418.78 409.032,1420.16 409.852,1420.09 412.31,1419.9 413.13,1415.71 413.949,1427.41 414.769,1429.98 415.588,1428 418.047,1424.23 418.867,1422.75 419.686,1422.74 421.325,1424.62 423.784,1424.09 424.603,1423.18 425.423,1419.47 426.242,1417.6 427.062,1413.47 429.52,1413.61 430.34,1413.8 431.159,1415.6 431.979,1419.15 432.798,1420.26 435.257,1420.87 436.076,1421.54 436.896,1422.08 437.715,1420.67 438.535,1421.59 440.993,1421.4 441.813,1421.65 442.632,1422.26 443.452,1421.78 444.271,1423.05 447.549,1422.61 448.369,1422.95 449.188,1418.25 450.008,1418.3 453.286,1416.86 454.105,1420.02 454.925,1420.49 455.744,1420.5 458.203,1420.83 459.022,1421.38 459.842,1420.79 460.661,1420.84 461.481,1420.66 464.759,1421.29 465.578,1419.7 466.398,1421.79 467.217,1421.08 469.676,1422.48 470.495,1420.4 471.315,1422.61 472.134,1425.28 472.954,1425.08 475.413,1423.7 476.232,1421.34 477.052,1421.25 477.871,1422.04 478.691,1427.48 481.149,1426.1 481.969,1428.41 482.788,1428.47 483.608,1426.96 484.427,1428.61 486.886,1429.19 487.705,1429.88 488.525,1428.96 489.344,1428.74 490.164,1429.44 493.442,1430.71 494.261,1430.66 495.081,1429.96 495.9,1431.1 498.359,1430.38 499.178,1430.91 499.998,1431.18 500.817,1432.07 501.637,1431.4 504.095,1431.84 504.915,1431.05 505.734,1431.97 506.554,1431.69 507.373,1432.06 509.832,1432.38 510.651,1432.67 511.471,1431.84 512.29,1432.35 513.11,1432.34 515.568,1432.22 516.388,1431.64 517.207,1430.59 518.027,1431.06 518.846,1431.22 521.305,1431.53 522.124,1431.36 522.944,1432.7 523.763,1433.23 524.583,1433.66 527.041,1433.6 527.861,1432.15 528.68,1431.5 529.5,1429.82 530.319,1429.82 532.778,1430.01 533.598,1430.01 534.417,1428.75 535.237,1428.37 538.515,1426.35 539.334,1428.26 540.154,1426.39 540.973,1425.65 541.793,1427.04 544.251,1425.74 545.071,1428.52 545.89,1429.16 546.71,1429.43 547.529,1430.04 549.988,1429.74 550.807,1429.19 551.627,1428.78 552.446,1426.34 553.266,1426.02 555.724,1425.54 556.544,1425.82 557.363,1424.2 558.183,1426.25 559.002,1425.13 561.461,1425.13 562.28,1425.75 563.1,1424.79 563.919,1421.04 564.739,1422.43 567.197,1423.72 568.017,1424.39 568.836,1426.53 569.656,1427.03 570.475,1428.49 573.753,1427.26 574.573,1425.92 575.392,1425.99 576.212,1426.73 578.67,1427.92 579.49,1427.84 580.309,1426.87 581.129,1427.56 581.948,1427.23 584.407,1427.67 585.226,1427.17 586.046,1428.52 586.865,1427.84 587.685,1427.94 590.144,1426.84 590.963,1426.79 591.783,1425.7 592.602,1425.9 593.422,1426.99 595.88,1427.32 596.7,1427.28 597.519,1425.67 598.339,1426.02 599.158,1424.54 601.617,1424.93 603.256,1425.13 604.075,1424.23 604.895,1420.88 607.353,1421.21 608.173,1420.23 608.992,1418.42 609.812,1420.86 610.631,1421.06 613.09,1420.62 613.909,1420.83 614.729,1420.82 615.548,1421.89 616.368,1421.61 618.826,1422.06 619.646,1417.91 620.465,1420.54 621.285,1420.45 622.104,1421 624.563,1421.55 625.382,1421.92 626.202,1422.2 627.021,1421.38 627.841,1420.69 630.299,1422.17 631.119,1420.39 631.938,1420.19 632.758,1420.63 633.577,1416.49 636.036,1421.01 636.855,1423.07 637.675,1423.42 638.494,1423.91 639.314,1420.08 641.772,1417.17 642.592,1417.03 643.411,1419.37 644.231,1419.11 645.05,1418.86 647.509,1419.28 648.329,1420.36 649.148,1419.89 649.968,1421.5 650.787,1422.75 654.065,1423.63 654.885,1422.8 655.704,1425.12 656.524,1423.11 658.982,1423.51 659.802,1426.18 660.621,1425.38 661.441,1426.07 662.26,1423.58 664.719,1422.52 665.538,1423.09 666.358,1423.18 667.177,1423.77 667.997,1422.58 670.455,1422.49 671.275,1422.25 672.094,1422.11 672.914,1422.11 673.733,1422.42 676.192,1423.5 677.011,1424.14 677.831,1425.03 678.65,1425.65 679.47,1425.85 681.928,1425.79 682.748,1428.61 683.567,1428.43 684.387,1427.64 685.206,1426.41 687.665,1426.2 688.484,1426.09 689.304,1425.18 690.123,1425.41 690.943,1425.68 693.401,1426.74 694.221,1424.38 695.04,1423.93 695.86,1422.92 696.679,1423.81 699.138,1425.36 699.957,1424.55 700.777,1425.01 701.596,1425.49 702.416,1424.57 704.875,1425.47 705.694,1426.16 706.514,1426.04 707.333,1424.61 708.153,1425.26 710.611,1425.3 711.431,1425.59 712.25,1424.81 713.07,1423.51 713.889,1426.93 716.348,1424.63 717.167,1426.73 717.987,1427.59 719.626,1427.1 722.084,1427.19 722.904,1428.61 723.723,1429.17 724.543,1428.95 725.362,1430.19 727.821,1428.96 728.64,1428.44 729.46,1427.1 730.279,1427.1 731.099,1427.55 733.557,1427.58 734.377,1428.07 735.196,1428.5 736.016,1428.49 736.835,1427.43 739.294,1428.76 740.113,1429.8 740.933,1429.47 741.752,1429.45 742.572,1429.39 745.85,1429.29 746.669,1429.37 747.489,1429.23 748.308,1429.25 751.586,1429.08 752.406,1430.04 753.225,1432.28 754.045,1432.5 756.503,1432.24 757.323,1432.4 758.142,1432.44 758.962,1433.44 759.782,1433.92 763.06,1434.16 763.879,1433.54 764.699,1434.14 765.518,1434.16 767.977,1434.24 768.796,1434.47 769.616,1434.49 770.435,1434.36 771.255,1434.21 773.713,1434.47 774.533,1434.48 775.352,1434.05 776.172,1434.09 776.991,1434.11 779.45,1431.97 780.269,1425.1 781.089,1428.5 781.908,1427.71 782.728,1418.1 785.186,1422.1 786.006,1425.13 786.825,1425.63 787.645,1428.57 788.464,1430.25 791.742,1430.59 792.562,1429.72 793.381,1428.34 794.201,1428.33 796.659,1430.18 797.479,1431.07 798.298,1429.12 799.118,1427.12 799.937,1422.88 802.396,1424.34 803.215,1427.01 804.035,1427.05 804.854,1426.75 805.674,1427.81 808.132,1430.2 808.952,1429.88 809.771,1428.87 810.591,1427.85 811.41,1427.61 813.869,1426.93 814.688,1424.97 815.508,1424.88 816.327,1425.5 817.147,1418.75 819.606,1405.91 820.425,1418.83 821.245,1412.12 822.064,1409.86 825.342,1415.46 826.162,1403.16 826.981,1409.05 827.801,1414.36 828.62,1416.36 831.079,1408.29 831.898,1410.54 832.718,1416.75 833.537,1415.67 834.357,1420.19 836.815,1416.5 837.635,1420.15 838.454,1422.57 839.274,1421.07 840.093,1419.59 842.552,1416.05 843.371,1416.13 844.191,1405.65 845.01,1407.07 845.83,1407.94 848.288,1409.35 849.108,1406.09 849.927,1408.69 850.747,1405.1 851.566,1402.01 854.025,1406.12 854.844,1406.41 855.664,1405.39 856.483,1410.38 857.303,1415.9 859.761,1413.61 860.581,1411.37 861.4,1409.81 862.22,1411.96 863.039,1410.99 865.498,1409.94 866.317,1413.74 867.137,1412.24 867.956,1412.66 868.776,1413.28 872.054,1409.2 872.873,1399.16 873.693,1404.5 874.513,1396.07 876.971,1401.63 877.791,1403.1 878.61,1404.64 879.43,1405.11 880.249,1401.05 882.708,1404.74 883.527,1400.02 884.347,1401.84 885.166,1396.77 885.986,1392.59 888.444,1386.01 889.264,1384.95 890.083,1380.56 890.903,1370.31 891.722,1370.69 894.181,1383.71 895,1368.32 895.82,1371.47 896.639,1387.11 897.459,1414.71 899.917,1407.03 900.737,1410.47 902.376,1422.5 903.195,1420.44 905.654,1418.88 906.473,1420.83 907.293,1417.61 908.112,1410.03 908.932,1413.42 911.39,1416.26 912.21,1417.94 913.029,1418.8 913.849,1413.79 914.668,1406.46 917.127,1412.2 917.946,1417.16 918.766,1422.68 919.585,1423.69 920.405,1419.86 922.863,1416.86 923.683,1414.79 924.502,1414.87 925.322,1406.6 926.141,1409.62 928.6,1414.42 929.419,1417.71 930.239,1419.04 931.058,1418.54 931.878,1422.1 934.337,1419.83 935.156,1419.25 935.976,1426.9 936.795,1429.29 937.615,1426.03 940.073,1429.43 940.893,1430.22 941.712,1428.56 942.532,1431.48 943.351,1429.82 945.81,1429.02 946.629,1429.15 947.449,1431.9 948.268,1432.01 949.088,1429.71 952.366,1430.37 953.185,1429.03 954.005,1429.08 954.824,1427.16 957.283,1424.63 958.102,1424.87 958.922,1426.74 959.741,1428.23 960.561,1429.15 963.019,1430.94 963.839,1430.02 964.658,1429.39 965.478,1429.37 966.297,1431.31 968.756,1431.07 969.575,1431.45 970.395,1431.54 971.214,1429.65 972.034,1429.55 974.492,1429.51 975.312,1428.66 976.131,1427.02 976.951,1426.68 977.77,1424.87 980.229,1425.11 981.048,1424.18 981.868,1424.03 982.687,1414.85 983.507,1400.77 985.965,1409.34 986.785,1404.98 987.604,1415.43 988.424,1416.53 989.244,1415.39 991.702,1409.62 992.522,1410.73 993.341,1402.44 994.161,1372.82 994.98,1389.18 997.439,1361.63 998.258,1353.9 999.078,1370.5 999.897,1380.33 1000.72,1388.13 1003.18,1386.12 1003.99,1389.3 1004.81,1398.19 1005.63,1410.89 1006.45,1411.87 1008.91,1406.31 1009.73,1398.55 1010.55,1396.13 1011.37,1400.53 1012.19,1405.62 1014.65,1410.26 1015.47,1398.45 1016.29,1382.19 1017.93,1383.57 1020.38,1380.73 1021.2,1387.73 1022.02,1382.96 1022.84,1394.07 1023.66,1390.37 1026.12,1399.87 1026.94,1402.55 1028.58,1375.59 1029.4,1373.75 1031.86,1335.89 1032.68,1334.58 1033.5,1341.75 1034.32,1351.66 1035.14,1347.93 1037.59,1303.09 1038.41,1207.99 1039.23,1218.75 1040.05,1178.67 1040.87,1128.73 1043.33,968.873 1044.97,764.436 1045.79,1085.48 1046.61,1113.14 1049.07,1081.27 1050.71,1116.66 1051.53,1122.58 1052.35,974.884 1054.8,1201.59 1055.62,1244.47 1056.44,1254.42 1057.26,1290.6 1058.08,1279.44 1060.54,1267.87 1061.36,1241.98 1062.18,1271.02 1063,1279.84 1063.82,1303.72 1067.1,1319.14 1067.92,1266.14 1068.74,1269.67 1069.56,1255.47 1072.01,1290.65 1072.83,1270.07 1073.65,1271.6 1074.47,1315.84 1075.29,1339.02 1077.75,1344.49 1078.57,1352.54 1079.39,1353.5 1080.21,1351.4 1081.03,1324.53 1083.49,1326.47 1084.31,1337.3 1085.13,1349.1 1085.95,1352.28 1086.76,1336.61 1090.04,1354.61 1090.86,1361.68 1091.68,1365.87 1092.5,1365.43 1094.96,1369.19 1095.78,1371.45 1096.6,1365.7 1097.42,1365.39 1098.24,1362.27 1100.7,1378.5 1101.52,1380.76 1102.34,1379.66 1103.16,1374.35 1103.97,1396.17 1106.43,1407.38 1107.25,1408.27 1108.07,1412.43 1108.89,1405.66 1109.71,1405.03 1112.17,1414.2 1112.99,1415.95 1113.81,1417.56 1114.63,1418.2 1115.45,1428.19 1117.91,1419.87 1118.73,1424.3 1119.55,1427.01 1120.36,1422.33 1121.18,1420.58 1123.64,1419.46 1124.46,1424.15 1125.28,1422.88 1126.1,1421.73 1126.92,1415.73 1129.38,1418.03 1130.2,1421.27 1131.02,1424.84 1131.84,1425.9 1132.66,1427.2 1135.12,1426.45 1135.94,1425.82 1136.75,1428.94 1137.57,1431.07 1140.85,1430.9 1141.67,1431.71 1142.49,1431.01 1143.31,1430.34 1144.13,1426.82 1146.59,1427.87 1147.41,1426.97 1148.23,1424.38 1149.05,1429.09 1149.87,1429.08 1152.33,1432.71 1153.14,1432.25 1153.96,1430.51 1154.78,1429.67 1155.6,1429.22 1158.06,1431.96 1158.88,1431.59 1159.7,1432.4 1160.52,1433.87 1161.34,1434.6 1163.8,1434.64 1164.62,1434.23 1165.44,1434.52 1166.26,1434.17 1167.08,1433.71 1170.35,1433.32 1171.17,1432.61 1171.99,1433.74 1172.81,1431.36 1175.27,1428.7 1176.09,1426.65 1176.91,1429.34 1177.73,1429.93 1178.55,1430.86 1181.01,1432.41 1181.83,1431.82 1182.65,1431.53 1183.47,1430.4 1184.29,1429.26 1186.74,1430.82 1187.56,1430.73 1188.38,1431.7 1189.2,1431.08 1190.02,1432.71 1192.48,1432.67 1193.3,1431.17 1194.12,1428.71 1194.94,1428.4 1195.76,1427.8 1198.22,1427.99 1199.04,1429.48 1199.86,1431.09 1201.5,1431.77 1203.95,1431.54 1204.77,1429.46 1205.59,1429.17 1206.41,1430.06 1207.23,1428.9 1209.69,1429.29 1210.51,1429.1 1211.33,1429.09 1212.15,1426.96 1212.97,1427.34 1215.43,1426.51 1216.25,1426.96 1217.07,1428.54 1217.89,1428.28 1218.71,1428.11 1221.16,1429.31 1221.98,1429.95 1222.8,1430.67 1223.62,1429.49 1224.44,1425.59 1226.9,1422.93 1227.72,1410.19 1228.54,1415.79 1229.36,1414.48 1230.18,1419.67 1232.64,1417.34 1233.46,1414.14 1234.28,1415.72 1235.1,1411.39 1235.92,1412.89 1238.37,1415.75 1239.19,1421.39 1240.01,1417.67 1240.83,1418.35 1241.65,1414.03 1244.11,1400.43 1244.93,1405.77 1245.75,1401.81 1246.57,1403.47 1247.39,1409.74 1250.67,1411.87 1251.49,1407.51 1252.31,1412.74 1253.12,1415.25 1255.58,1415.83 1256.4,1415.77 1257.22,1416.52 1258.04,1418.46 1258.86,1419.24 1261.32,1415.76 1262.14,1415.65 1262.96,1416.66 1263.78,1415.23 1264.6,1414.71 1267.06,1412.38 1267.88,1415.51 1268.7,1413.27 1269.51,1411.52 1270.33,1412.35 1272.79,1416.71 1273.61,1418.67 1274.43,1415.88 1275.25,1405.71 1276.07,1419.34 1278.53,1420.77 1279.35,1417.5 1280.17,1407.28 1280.99,1413.93 1281.81,1419.1 1284.27,1419.46 1285.09,1420.17 1285.91,1425.61 1286.72,1424.73 1287.54,1427.13 1290,1427.77 1290.82,1428.42 1291.64,1429.83 1292.46,1430.54 1293.28,1427.73 1295.74,1426.92 1296.56,1426.74 1297.38,1424.58 1298.2,1424.31 1299.02,1423.64 1301.48,1426.16 1302.3,1426.05 1303.11,1426.08 1303.93,1425.93 1304.75,1424.63 1307.21,1424.63 1308.03,1421.75 1308.85,1422.67 1309.67,1423.12 1310.49,1425.66 1312.95,1427.25 1313.77,1426.71 1314.59,1425.59 1315.41,1422.82 1316.23,1421.61 1318.69,1420 1319.5,1422.57 1320.32,1424.24 1321.96,1424.99 1324.42,1423.09 1325.24,1420.1 1326.06,1416.33 1326.88,1418.32 1327.7,1420.04 1330.16,1424.15 1330.98,1422.51 1331.8,1423.62 1332.62,1423.75 1333.44,1424.08 1335.9,1423.1 1336.71,1425.76 1337.53,1424.36 1338.35,1424.73 1339.17,1426.08 1341.63,1428.92 1342.45,1430.23 1344.09,1431.18 1344.91,1433.88 1347.37,1433.11 1348.19,1432.6 1349.83,1431.02 1350.65,1432.58 1353.1,1432.94 1353.92,1432.03 1354.74,1433.85 1355.56,1433.99 1356.38,1433.6 1358.84,1432.57 1359.66,1433.59 1360.48,1432.97 1361.3,1433.14 1362.12,1434.56 1365.4,1434.4 1366.22,1434.45 1367.04,1434.24 1367.86,1433.75 1370.31,1433.24 1371.13,1432.47 1371.95,1432.42 1372.77,1431.1 1373.59,1431.32 1376.05,1428.93 1376.87,1430.02 1377.69,1430.97 1378.51,1431.8 1379.33,1432.22 1381.79,1432 1382.61,1432.45 1383.43,1432.54 1384.25,1433.03 1385.07,1433.34 1388.34,1433.37 1389.16,1433.69 1389.98,1433.63 1390.8,1433.53 1393.26,1433.2 1394.08,1429.25 1394.9,1425.93 1395.72,1428.56 1396.54,1414.77 1399,1406.51 1399.82,1423.44 1400.64,1419.92 1401.46,1427.63 1402.28,1417.09 1404.73,1405.12 1405.55,1322.69 1406.37,1373.45 1407.19,1285.81 1408.01,902.688 1410.47,1244.12 1411.29,399.594 1412.11,875.577 1412.93,262.346 1413.75,375.092 1416.21,154.684 1417.03,87.9763 1417.85,397.032 1418.67,523.485 1419.48,1010.01 1421.94,718.947 1422.76,931.194 1423.58,808.368 1424.4,424.318 1425.22,588.234 1427.68,437.353 1428.5,996.389 1429.32,994.322 1430.14,1179.35 1433.42,1235.83 1434.24,1167.18 1435.06,1274.64 1435.87,1199.83 1436.69,1230.68 1439.15,1312.81 1439.97,1262.27 1440.79,1094.73 1441.61,1191.35 1442.43,1170.39 1444.89,1240.45 1445.71,1307.35 1446.53,1311.84 1447.35,1348.36 1448.17,1330.14 1450.63,1234.07 1451.45,1253.57 1452.27,1283.52 1453.08,1257.57 1453.9,1267.1 1456.36,1309.12 1457.18,1293.31 1458,1227.42 1458.82,1150.19 1459.64,1189.49 1462.1,1187.43 1462.92,1286.59 1463.74,1259.8 1464.56,1291.61 1465.38,1271.82 1468.66,1292.63 1469.47,1316.81 1470.29,1327.21 1471.11,1338.26 1473.57,1339.38 1474.39,1349.53 1475.21,1354.59 1476.03,1363.17 1476.85,1363.85 1479.31,1384.17 1480.13,1395 1480.95,1387.8 1481.77,1373.98 1482.59,1245.35 1485.05,1288.68 1485.86,1310.2 1486.68,1343.02 1487.5,1352.04 1488.32,1373.35 1490.78,1352.18 1491.6,1362.88 1492.42,1364.45 1493.24,1354.63 1494.06,1358.42 1496.52,1280.49 1497.34,1289.68 1498.16,1315.9 1498.98,1336.24 1502.25,1332 1503.07,1354.74 1503.89,1326.41 1504.71,1341.67 1505.53,1330.49 1507.99,1351.21 1508.81,1327.77 1509.63,1356.02 1510.45,1380.09 1511.27,1403.31 1513.73,1418.26 1514.55,1421.63 1515.37,1430.62 1516.19,1431.79 1517.01,1422.85 1519.46,1427.51 1520.28,1419.35 1521.1,1426.39 1521.92,1430.77 1522.74,1434.66 1525.2,1433.7 1526.02,1434.38 1526.84,1427.27 1527.66,1433.23 1528.48,1403.14 1530.94,1423.51 1531.76,1383.55 1532.58,1404.49 1533.4,1352.44 1534.22,1297.32 1536.67,1404.53 1537.49,1412.6 1538.31,1427.7 1539.13,1422.95 1539.95,1428.25 1542.41,1424.46 1543.23,1403.82 1544.05,1413.59 1544.87,1400.25 1545.69,1425 1548.15,1423.92 1548.97,1430.15 1549.79,1431.01 1550.61,1427.65 1551.43,1434.05 1554.7,1433.42 1555.52,1434.58 1556.34,1434.65 1557.16,1434.65 1559.62,1433.84 1560.44,1434.2 1561.26,1433.99 1562.08,1434.53 1562.9,1434.59 1565.36,1434.47 1566.18,1432.62 1567,1433.81 1567.82,1433.97 1568.64,1433.97 1571.09,1434.25 1571.91,1434.66 1572.73,1434.43 1573.55,1434.06 1574.37,1434.33 1576.83,1434.59 1577.65,1434.23 1578.47,1434.66 1579.29,1434.57 1580.11,1434.59 1582.57,1434.61 1583.39,1434.62 1584.21,1434.6 1585.03,1434.66 1585.84,1434.54 1588.3,1434.11 1589.12,1433.44 1589.94,1433.36 1590.76,1433.02 1591.58,1432.82 1594.04,1431.96 1594.86,1430.22 1595.68,1425.42 1596.5,1410.45 1597.32,1417.34 1599.78,1415.77 1600.6,1431.09 1601.42,1431.62 1602.23,1432.82 1603.05,1432.89 1605.51,1433.14 1606.33,1433.85 1607.15,1434.05 1607.97,1434.07 1608.79,1433.36 1611.25,1434.65 1612.07,1434.66 1612.89,1434.46 1613.71,1434.58 1614.53,1434.38 1616.99,1433.92 1617.81,1433.96 1618.63,1433.97 1620.26,1434.29 1622.72,1434.14 1623.54,1434.18 1624.36,1434.19 1625.18,1434.51 1626,1434.12 1628.46,1434.08 1629.28,1434.15 1630.1,1434.16 1630.92,1433.28 1631.74,1433.17 1634.2,1432.59 1635.02,1433.21 1635.83,1434.18 1636.65,1433.94 1637.47,1434.37 1639.93,1433.77 1640.75,1433.72 1641.57,1433.23 1642.39,1432.77 1645.67,1432.78 1646.49,1432.97 1647.31,1432.29 1648.13,1432.32 1651.41,1432.57 1652.22,1432.05 1653.04,1431.37 1653.86,1432.05 1654.68,1433.24 1657.14,1433.4 1657.96,1432.79 1658.78,1433.1 1659.6,1433.05 1660.42,1432.57 1663.7,1430.81 1664.52,1431.29 1665.34,1431.65 1666.16,1431.53 1668.61,1430.42 1669.43,1431.19 1670.25,1429.95 1671.07,1422.7 1671.89,1430.48 1674.35,1429.05 1675.17,1433.4 1675.99,1433.03 1676.81,1434.05 1677.63,1434.43 1680.09,1434.14 1680.91,1434.23 1681.73,1434.33 1682.55,1434.54 1683.37,1434.66 1686.64,1434.49 1687.46,1434.64 1688.28,1434.08 1689.1,1434.32 1691.56,1434.65 1692.38,1434.37 1693.2,1434.53 1694.02,1434.61 1694.84,1433.49 1697.3,1433.66 1698.12,1434.01 1698.94,1434.27 1699.76,1432.53 1700.58,1430.38 1703.03,1431.44 1703.85,1428.74 1704.67,1431.37 1705.49,1432.52 1706.31,1433.35 1708.77,1433.48 1709.59,1434.39 1710.41,1434.24 1711.23,1434.4 1712.05,1433.56 1714.51,1433.28 1715.33,1434.43 1716.15,1434.3 1716.97,1434.62 1717.79,1434.66 1720.24,1434.11 1721.06,1434.46 1721.88,1434.65 1722.7,1434.36 1725.98,1434.06 1726.8,1434.5 1727.62,1434.11 1728.44,1434.21 1729.26,1434.11 1731.72,1434.57 1732.54,1434.24 1733.36,1433.85 1734.18,1433.92 1735,1434.6 1737.45,1434.58 1738.27,1434.61 1739.09,1434.34 1739.91,1434.12 1740.73,1433.8 1743.19,1434.13 1744.01,1434.34 1744.83,1433.96 1745.65,1433.82 1746.47,1434.12 1748.93,1433.36 1749.75,1433.59 1750.57,1433.02 1751.39,1433.62 1752.2,1434 1754.66,1434.34 1755.48,1434.11 1756.3,1432.89 1757.12,1430.71 1757.94,1431.41 1760.4,1433.08 1761.22,1433.17 1762.04,1432.63 1762.86,1432.33 1763.68,1432.85 1766.14,1432.1 1766.96,1433.04 1767.78,1432.82 1768.59,1432.48 1769.41,1433.51 1772.69,1433.25 1773.51,1432.78 1774.33,1431.58 1775.15,1430.52 1777.61,1432.15 1778.43,1432.13 1779.25,1431.88 1780.07,1432.02 1780.89,1433.02 1783.35,1432.55 1784.17,1431.5 1784.98,1431.21 1785.8,1430.97 1786.62,1430.4 1789.08,1428.8 1789.9,1432.99 1790.72,1432.82 1791.54,1433.93 1792.36,1433.41 1794.82,1432.69 1795.64,1432.73 1796.46,1431.81 1797.28,1431.5 1798.1,1431.29 1801.38,1432.11 1802.19,1431.97 1803.01,1432.17 1803.83,1430.79 1806.29,1432 1807.11,1432.31 1807.93,1432.37 1808.75,1432.66 1809.57,1432.98 1812.03,1432.26 1812.85,1429.26 1813.67,1433.23 1814.49,1434 1815.31,1432.64 1817.77,1433.78 1818.58,1434.4 1819.4,1434.56 1820.22,1434.03 1821.04,1434.35 1823.5,1433.53 1824.32,1433.02 1825.14,1432.85 1825.96,1432.34 1826.78,1432.34 1829.24,1432.61 1830.06,1432.26 1830.88,1433.42 1831.7,1433.66 1832.52,1433.39 1834.97,1433.9 1835.79,1434.2 1836.61,1433.67 1837.43,1431.62 1838.25,1431.81 1840.71,1432.74 1841.53,1433.08 1842.35,1432.37 1843.17,1431.19 1843.99,1430.57 1846.45,1431.45 1847.27,1431.41 1848.09,1430.4 1848.91,1430.43 1849.73,1430.44 1853,1430.82 1853.82,1428.92 1854.64,1428.19 1855.46,1428.3 1857.92,1428.21 1858.74,1427.01 1859.56,1427.68 1860.38,1427.25 1861.2,1426.56 1863.66,1424.57 1864.48,1420.27 1865.3,1417.97 1866.12,1422.75 1866.94,1425.1 1869.39,1426.69 1870.21,1426.07 1871.03,1418.8 1871.85,1416.92 1872.67,1416.07 1875.13,1422.53 1875.95,1424.59 1876.77,1424.23 1877.59,1421.41 1878.41,1424.27 1880.87,1425.7 1881.69,1424.79 1882.51,1421.55 1883.33,1422.61 1884.15,1424.24 1886.6,1426.29 1887.42,1426.54 1888.24,1427.86 1889.06,1428.12 1889.88,1428.74 1892.34,1428.3 1893.16,1429.66 1893.98,1428.52 1894.8,1427.86 1895.62,1429.35 1898.08,1429.85 1898.9,1429.45 1899.72,1429.78 1900.54,1430.28 1901.35,1431.07 1903.81,1432 1904.63,1432.11 1905.45,1432.94 1906.27,1430.86 1907.09,1430.25 1909.55,1431.28 1910.37,1430.64 1911.19,1430.69 1912.01,1430.14 1912.83,1430.49 1915.29,1430.16 1916.11,1429 1916.93,1428 1918.56,1428.73 1921.02,1423.62 1921.84,1427.79 1922.66,1421.02 1923.48,1416.25 1924.3,1422.09 1926.76,1419.11 1927.58,1423.36 1928.4,1428.91 1929.22,1431.19 1930.04,1428.37 1932.5,1428.57 1933.32,1426.67 1934.14,1422.88 1934.95,1425.85 1935.77,1424.95 1938.23,1422.49 1939.05,1418.11 1939.87,1424.37 1940.69,1426.87 1943.97,1426.51 1944.79,1429.64 1945.61,1428.58 1946.43,1428.52 1947.25,1428.21 1949.71,1427.57 1950.53,1428.13 1951.34,1427.56 1952.16,1423.08 1952.98,1422.24 1955.44,1422.91 1956.26,1425.2 1957.08,1426.71 1957.9,1425.69 1958.72,1419.97 1962,1419.62 1962.82,1412.3 1963.64,1410.28 1964.46,1399.15 1966.92,1379.33 1967.74,1384.8 1968.55,1371.7 1969.37,1364.98 1970.19,1358.79 1972.65,1389.17 1973.47,1402.65 1974.29,1408.63 1975.11,1416.14 1975.93,1403.97 1978.39,1409.29 1979.21,1403.14 1980.03,1408.43 1980.85,1418.34 1981.67,1417.9 1984.13,1410.35 1984.94,1403.61 1985.76,1405.81 1986.58,1405.53 1987.4,1393.42 1990.68,1402.75 1991.5,1394.46 1992.32,1390.35 1993.14,1392.04 1995.6,1412.75 1996.42,1406.63 1997.24,1394.41 1998.06,1400.95 1998.88,1398.92 2001.33,1398.33 2002.15,1374.62 2002.97,1361.07 2003.79,1373.06 2004.61,1357.88 2007.07,1332.48 2007.89,1300.37 2008.71,1337.55 2009.53,1366.29 2010.35,1381.13 2012.81,1386.26 2013.63,1385.19 2014.45,1397.82 2015.27,1379 2016.09,1390.68 2018.54,1393.16 2019.36,1395.32 2020.18,1399.65 2021,1392.04 2021.82,1374.23 2024.28,1376.34 2025.1,1387.66 2025.92,1383.51 2026.74,1372.88 2027.56,1370.02 2030.02,1366.38 2030.84,1334.35 2031.66,1331.99 2032.48,1345.85 2035.75,1326.74 2036.57,1332.89 2037.39,1356.72 2038.21,1351.75 2039.03,1362.28 2041.49,1284.97 2042.31,1340.34 2043.13,1303.32 2043.95,1270.2 2044.77,1345.44 2047.23,1216.28 2048.05,1152.42 2048.87,1161.7 2049.69,1293.65 2050.51,1116.79 2052.96,1132.14 2053.78,971.604 2054.6,869.616 2055.42,809.628 2056.24,889.42 2058.7,1121.25 2059.52,985.275 2060.34,1055.51 2061.16,681.38 2061.98,506.5 2064.44,516.897 2065.26,666.606 2066.08,623.43 2066.9,723.314 2067.71,844.168 2070.99,1029.46 2071.81,1113.17 2072.63,1071.36 2073.45,1189.56 2075.91,1114.99 2076.73,1080.65 2077.55,1119.46 2078.37,1135.16 2079.19,983.966 2081.65,896.482 2082.47,654.014 2083.29,725.852 2084.11,999.976 2084.92,691.226 2088.2,817.142 2089.02,1026.71 2089.84,1047.02 2090.66,943.63 2093.12,1038.39 2093.94,965.248 2094.76,715.452 2095.58,909.383 2096.4,803.597 2099.68,916.273 2100.5,865.952 2101.31,771.236 2102.13,1028.61 2104.59,1140.88 2105.41,1096.29 2106.23,928.169 2107.05,877.542 2107.87,1020.52 2110.33,1165.93 2111.15,1177.59 2111.97,1318.97 2112.79,1301.81 2113.61,1268.32 2116.07,1246.66 2116.89,1295.39 2117.7,1194.94 2118.52,1296.67 2119.34,1339.62 2121.8,1392.34 2122.62,1395.8 2123.44,1363.65 2124.26,1385.35 2125.08,1395.16 2127.54,1399.08 2128.36,1380.49 2129.18,1347.95 2130,1360.14 2130.82,1343.9 2133.28,1368.11 2134.1,1358.4 2134.91,1376.48 2135.73,1347.79 2136.55,1344.6 2139.01,1304.03 2139.83,1195.81 2140.65,1210.45 2141.47,1275.14 2142.29,1304.48 2144.75,1153 2145.57,1181.59 2146.39,1177.13 2147.21,1113.52 2148.03,1144.21 2151.3,1176.2 2152.12,1175.86 2152.94,1203.78 2153.76,1270.67 2156.22,1309.83 2157.04,1297.14 2157.86,1133.91 2158.68,1219.19 2159.5,1274.35 2161.96,1230.5 2162.78,1330.44 2163.6,1299.41 2164.42,1144.68 2165.24,1262.47 2167.69,1175.14 2168.51,1100.6 2169.33,873.46 2170.15,1211.95 2170.97,1143.65 2173.43,1219.15 2174.25,1294.29 2175.07,1374.39 2175.89,1372.97 2176.71,1320.27 2179.17,1257.15 2179.99,1142.09 2180.81,1277.57 2181.63,1285.5 2182.45,1341 2184.9,1235.52 2185.72,1325.19 2186.54,1330.81 2187.36,1265.47 2188.18,1131.86 2190.64,1255.9 2191.46,1310.95 2192.28,1304.23 2193.1,1323.61 2193.92,1305.34 2196.38,1334.33 2197.2,1340.8 2198.02,1369.01 2198.84,1373.64 2199.66,1398.32 2202.11,1408.36 2202.93,1405.96 2203.75,1421.37 2204.57,1413.54 2205.39,1422.88 2207.85,1425.53 2208.67,1421.03 2209.49,1413.13 2210.31,1411.47 2211.13,1418.25 2213.59,1419.95 2214.41,1421.26 2215.23,1422.05 2216.87,1423.18 2219.32,1422.26 2220.14,1411.54 2220.96,1411.12 2221.78,1424.84 2222.6,1426.53 2225.06,1427.3 2225.88,1424.05 2226.7,1413.54 2227.52,1416.1 2228.34,1407.94 2230.8,1400.05 2231.62,1402.62 2232.44,1411.37 2233.26,1407.72 2234.07,1400.39 2236.53,1366.68 2237.35,1335.32 2238.17,1308.42 2238.99,1343.32 2239.81,1329.48 2243.09,1309 2243.91,1301.31 2244.73,1272.37 2245.55,1319.74 2248.83,1322.48 2249.65,1258.1 2250.47,1281.06 2251.28,1179.39 2253.74,1251.5 2254.56,1242.99 2255.38,1286.16 2256.2,1310.12 2257.02,1343.49 2260.3,1376.67 2261.12,1377.28 2261.94,1353.46 2262.76,1315.03 2265.22,1388.94 2266.04,1402.19 2266.86,1407.72 2267.67,1411.53 2268.49,1414.78 2270.95,1419.29 2271.77,1416.3 2272.59,1415.1 2273.41,1416.62 2274.23,1416.26 2276.69,1406.88 2277.51,1421.65 2278.33,1423.99 2279.15,1424.09 2279.97,1423.83 2282.43,1422.49 2283.25,1427.5 2284.06,1430.11 2284.88,1431.48 2285.7,1431.78 2288.98,1432.46 2289.8,1430.67 2290.62,1427.62 2291.44,1431.3 "/>
<polyline clip-path="url(#clip662)" style="stroke:#e26f46; stroke-linecap:round; stroke-linejoin:round; stroke-width:4; stroke-opacity:1; fill:none" points="247.59,1445.72 248.409,1445.72 249.229,1445.72 251.687,1445.72 252.507,1445.72 253.326,1445.72 254.146,1445.72 254.965,1445.72 257.424,1445.72 258.243,1445.72 259.063,1445.72 259.882,1445.72 260.702,1445.72 263.16,1445.72 263.98,1445.72 264.799,1445.72 265.619,1445.72 266.438,1445.72 268.897,1445.72 269.716,1445.72 270.536,1445.72 271.355,1445.72 272.175,1445.72 275.453,1445.72 276.272,1445.72 277.092,1445.72 277.911,1445.72 280.37,1445.72 281.189,1445.72 282.009,1445.72 282.828,1445.72 283.648,1445.72 286.106,1445.72 286.926,1445.72 287.745,1445.72 288.565,1445.72 289.384,1445.72 291.843,1445.72 292.662,1445.72 293.482,1445.72 294.301,1445.72 295.121,1445.72 297.579,1381.18 298.399,1385.38 299.218,1389.3 300.038,1392.97 300.857,1396.4 304.136,1408.03 304.955,1410.48 305.775,1412.77 306.594,1414.91 309.053,1420.54 309.872,1422.18 310.692,1423.71 311.511,1425.14 312.331,1426.48 314.789,1429.99 315.609,1431.01 316.428,1431.97 317.248,1432.86 318.067,1433.7 320.526,1435.89 321.345,1436.53 322.165,1437.13 322.984,1437.69 323.804,1438.21 326.262,1439.58 327.082,1439.98 327.901,1440.35 328.721,1440.7 329.54,1441.03 331.999,1441.88 332.818,1442.13 333.638,1442.37 334.457,1442.58 335.277,1442.79 337.735,1443.32 338.555,1443.48 339.374,1443.62 340.194,1443.76 341.013,1443.89 343.472,1444.22 344.291,1444.32 345.111,1444.41 345.93,1444.49 346.75,1444.57 349.208,1444.78 350.028,1444.84 350.847,1444.9 351.667,1444.95 352.486,1445 355.764,1445.17 356.584,1445.21 357.403,1445.24 358.223,1445.27 360.682,1445.35 361.501,1445.38 362.321,1445.4 363.14,1445.42 363.96,1445.44 366.418,1445.49 367.238,1445.5 368.057,1445.52 368.877,1445.53 369.696,1445.54 372.155,1445.57 372.974,1445.58 373.794,1445.59 374.613,1445.6 375.433,1445.61 377.891,1445.63 378.711,1445.63 379.53,1445.64 380.35,1445.64 381.169,1445.65 383.628,1445.66 384.447,1445.66 385.267,1445.67 386.086,1445.67 386.906,1445.67 389.364,1445.68 390.184,1445.68 391.003,1445.69 391.823,1445.69 392.642,1445.69 395.101,1445.69 395.92,1445.7 396.74,1445.7 397.559,1445.7 398.379,1445.7 400.837,1445.7 401.657,1445.7 402.476,1445.7 403.296,1445.7 404.115,1445.71 406.574,1445.71 407.393,1445.71 408.213,1445.71 409.032,1445.71 409.852,1445.71 412.31,1445.71 413.13,1445.71 413.949,1445.71 414.769,1445.71 415.588,1445.71 418.047,1445.71 418.867,1445.71 419.686,1445.71 421.325,1445.71 423.784,1445.71 424.603,1445.71 425.423,1445.71 426.242,1445.71 427.062,1445.71 429.52,1445.71 430.34,1445.71 431.159,1445.71 431.979,1445.71 432.798,1445.71 435.257,1445.71 436.076,1445.71 436.896,1445.71 437.715,1445.72 438.535,1445.72 440.993,1445.72 441.813,1445.72 442.632,1445.72 443.452,1445.72 444.271,1445.72 447.549,1445.72 448.369,1445.72 449.188,1445.72 450.008,1445.72 453.286,1445.72 454.105,1445.72 454.925,1445.72 455.744,1445.72 458.203,1445.72 459.022,1445.72 459.842,1445.72 460.661,1445.72 461.481,1445.72 464.759,1445.72 465.578,1445.72 466.398,1445.72 467.217,1445.72 469.676,1445.72 470.495,1445.72 471.315,1445.72 472.134,1445.72 472.954,1445.72 475.413,1445.72 476.232,1445.72 477.052,1445.72 477.871,1445.72 478.691,1445.72 481.149,1445.72 481.969,1445.72 482.788,1445.72 483.608,1445.72 484.427,1445.72 486.886,1445.72 487.705,1445.72 488.525,1445.72 489.344,1445.72 490.164,1445.72 493.442,1445.72 494.261,1445.72 495.081,1445.72 495.9,1445.72 498.359,1445.72 499.178,1445.72 499.998,1445.72 500.817,1445.72 501.637,1445.72 504.095,1445.72 504.915,1445.72 505.734,1445.72 506.554,1445.72 507.373,1445.72 509.832,1445.72 510.651,1445.72 511.471,1445.72 512.29,1445.72 513.11,1445.72 515.568,1445.72 516.388,1445.72 517.207,1445.72 518.027,1445.72 518.846,1445.72 521.305,1445.72 522.124,1445.72 522.944,1445.72 523.763,1445.72 524.583,1445.72 527.041,1445.72 527.861,1445.72 528.68,1445.72 529.5,1445.72 530.319,1445.72 532.778,1445.72 533.598,1445.72 534.417,1445.72 535.237,1445.72 538.515,1445.72 539.334,1445.72 540.154,1445.72 540.973,1445.72 541.793,1445.72 544.251,1445.72 545.071,1445.72 545.89,1445.72 546.71,1445.72 547.529,1445.72 549.988,1445.72 550.807,1445.72 551.627,1445.72 552.446,1445.72 553.266,1445.72 555.724,1445.72 556.544,1445.72 557.363,1445.72 558.183,1445.72 559.002,1445.72 561.461,1445.72 562.28,1445.72 563.1,1445.72 563.919,1445.72 564.739,1445.72 567.197,1445.72 568.017,1445.72 568.836,1445.72 569.656,1445.72 570.475,1445.72 573.753,1445.72 574.573,1445.72 575.392,1445.72 576.212,1445.72 578.67,1445.72 579.49,1445.72 580.309,1445.72 581.129,1445.72 581.948,1445.72 584.407,1445.72 585.226,1445.72 586.046,1445.72 586.865,1445.72 587.685,1445.72 590.144,1445.72 590.963,1445.72 591.783,1445.72 592.602,1445.72 593.422,1445.72 595.88,1445.72 596.7,1445.72 597.519,1445.72 598.339,1445.72 599.158,1445.72 601.617,1445.72 603.256,1445.72 604.075,1445.72 604.895,1445.72 607.353,1445.72 608.173,1445.72 608.992,1445.72 609.812,1445.72 610.631,1445.72 613.09,1445.72 613.909,1445.72 614.729,1445.72 615.548,1445.72 616.368,1445.72 618.826,1445.72 619.646,1445.72 620.465,1445.72 621.285,1445.72 622.104,1445.72 624.563,1445.72 625.382,1445.72 626.202,1445.72 627.021,1445.72 627.841,1445.72 630.299,1445.72 631.119,1445.72 631.938,1445.72 632.758,1445.72 633.577,1445.72 636.036,1445.72 636.855,1445.72 637.675,1445.72 638.494,1445.72 639.314,1445.72 641.772,1445.72 642.592,1445.72 643.411,1445.72 644.231,1445.72 645.05,1445.72 647.509,1445.72 648.329,1445.72 649.148,1445.72 649.968,1445.72 650.787,1445.72 654.065,1445.72 654.885,1445.72 655.704,1445.72 656.524,1445.72 658.982,1445.72 659.802,1445.72 660.621,1445.72 661.441,1445.72 662.26,1445.72 664.719,1445.72 665.538,1445.72 666.358,1445.72 667.177,1445.72 667.997,1445.72 670.455,1445.72 671.275,1445.72 672.094,1445.72 672.914,1445.72 673.733,1445.72 676.192,1445.72 677.011,1445.72 677.831,1445.72 678.65,1445.72 679.47,1445.72 681.928,1445.72 682.748,1445.72 683.567,1445.72 684.387,1445.72 685.206,1445.72 687.665,1445.72 688.484,1445.72 689.304,1445.72 690.123,1445.72 690.943,1445.72 693.401,1445.72 694.221,1445.72 695.04,1445.72 695.86,1445.72 696.679,1445.72 699.138,1445.72 699.957,1445.72 700.777,1445.72 701.596,1445.72 702.416,1445.72 704.875,1445.72 705.694,1445.72 706.514,1445.72 707.333,1445.72 708.153,1445.72 710.611,1445.72 711.431,1445.72 712.25,1445.72 713.07,1445.72 713.889,1445.72 716.348,1445.72 717.167,1445.72 717.987,1445.72 719.626,1445.72 722.084,1445.72 722.904,1445.72 723.723,1445.72 724.543,1445.72 725.362,1445.72 727.821,1445.72 728.64,1445.72 729.46,1445.72 730.279,1445.72 731.099,1445.72 733.557,1445.72 734.377,1445.72 735.196,1445.72 736.016,1445.72 736.835,1445.72 739.294,1445.72 740.113,1445.72 740.933,1445.72 741.752,1445.72 742.572,1445.72 745.85,1445.72 746.669,1445.72 747.489,1445.72 748.308,1445.72 751.586,1445.72 752.406,1445.72 753.225,1445.72 754.045,1445.72 756.503,1445.72 757.323,1445.72 758.142,1445.72 758.962,1445.72 759.782,1445.72 763.06,1445.72 763.879,1445.72 764.699,1445.72 765.518,1445.72 767.977,1445.72 768.796,1445.72 769.616,1445.72 770.435,1445.72 771.255,1445.72 773.713,1445.72 774.533,1445.72 775.352,1445.72 776.172,1445.72 776.991,1445.72 779.45,1445.72 780.269,1371.89 781.089,1376.69 781.908,1381.18 782.728,1311.55 785.186,1336.06 786.006,1343.19 786.825,1349.86 787.645,1356.09 788.464,1361.92 791.742,1381.68 792.562,1385.84 793.381,1389.73 794.201,1393.37 796.659,1402.93 797.479,1405.72 798.298,1408.32 799.118,1410.75 799.937,1413.02 802.396,1418.99 803.215,1420.73 804.035,1422.36 804.854,1423.87 805.674,1425.3 808.132,1429.03 808.952,1430.11 809.771,1431.13 810.591,1432.07 811.41,1432.96 813.869,1435.29 814.688,1435.97 815.508,1436.6 816.327,1437.19 817.147,1363.93 819.606,1378.87 820.425,1309.39 821.245,1318.25 822.064,1326.54 825.342,1354.64 826.162,1360.56 826.981,1366.1 827.801,1371.28 828.62,1376.12 831.079,1388.83 831.898,1392.53 832.718,1395.99 833.537,1399.22 834.357,1402.24 836.815,1410.18 837.635,1412.49 838.454,1414.65 839.274,1416.67 840.093,1418.56 842.552,1423.52 843.371,1424.97 844.191,1426.31 845.01,1427.58 845.83,1428.76 848.288,1431.85 849.108,1432.75 849.927,1433.6 850.747,1434.39 851.566,1435.12 854.025,1437.06 854.844,1437.62 855.664,1438.15 856.483,1438.64 857.303,1439.1 859.761,1440.31 860.581,1440.66 861.4,1440.99 862.22,1441.3 863.039,1441.58 865.498,1442.34 866.317,1442.56 867.137,1442.76 867.956,1442.95 868.776,1443.13 872.054,1443.74 872.873,1443.87 873.693,1443.99 874.513,1444.1 876.971,1444.4 877.791,1444.48 878.61,1444.56 879.43,1444.64 880.249,1444.71 882.708,1444.89 883.527,1444.95 884.347,1445 885.166,1445.04 885.986,1445.09 888.444,1445.2 889.264,1445.23 890.083,1445.27 890.903,1445.3 891.722,1445.32 894.181,1445.39 895,1445.42 895.82,1445.43 896.639,1445.45 897.459,1445.47 899.917,1445.52 900.737,1445.53 902.376,1445.55 903.195,1445.56 905.654,1445.59 906.473,1445.6 907.293,1445.61 908.112,1445.61 908.932,1445.62 911.39,1445.64 912.21,1445.64 913.029,1445.65 913.849,1445.65 914.668,1445.66 917.127,1445.67 917.946,1445.67 918.766,1445.67 919.585,1445.68 920.405,1445.68 922.863,1445.69 923.683,1445.69 924.502,1445.69 925.322,1445.69 926.141,1445.69 928.6,1445.7 929.419,1445.7 930.239,1445.7 931.058,1445.7 931.878,1445.7 934.337,1445.7 935.156,1445.7 935.976,1445.71 936.795,1445.71 937.615,1445.71 940.073,1445.71 940.893,1445.71 941.712,1445.71 942.532,1445.71 943.351,1445.71 945.81,1445.71 946.629,1445.71 947.449,1445.71 948.268,1445.71 949.088,1445.71 952.366,1445.71 953.185,1445.71 954.005,1445.71 954.824,1445.71 957.283,1445.71 958.102,1445.71 958.922,1445.71 959.741,1445.71 960.561,1445.71 963.019,1445.71 963.839,1445.71 964.658,1445.71 965.478,1445.71 966.297,1445.71 968.756,1445.71 969.575,1445.72 970.395,1445.72 971.214,1445.72 972.034,1445.72 974.492,1445.72 975.312,1445.72 976.131,1445.72 976.951,1445.72 977.77,1445.72 980.229,1445.72 981.048,1445.72 981.868,1445.72 982.687,1371.89 983.507,1376.69 985.965,1389.3 986.785,1392.97 987.604,1396.4 988.424,1399.61 989.244,1402.6 991.702,1410.48 992.522,1412.77 993.341,1414.91 994.161,1343.09 994.98,1349.76 997.439,1367.29 998.258,1372.39 999.078,1377.16 999.897,1381.62 1000.72,1385.78 1003.18,1396.73 1003.99,1399.92 1004.81,1402.89 1005.63,1405.68 1006.45,1408.28 1008.91,1415.12 1009.73,1417.11 1010.55,1418.97 1011.37,1420.71 1012.19,1422.33 1014.65,1426.6 1015.47,1427.85 1016.29,1429.01 1017.93,1431.11 1020.38,1433.78 1021.2,1434.55 1022.02,1435.28 1022.84,1435.96 1023.66,1436.59 1026.12,1438.26 1026.94,1438.74 1028.58,1370.6 1029.4,1375.48 1031.86,1388.31 1032.68,1392.04 1033.5,1395.53 1034.32,1398.8 1035.14,1401.85 1037.59,1409.86 1038.41,1412.19 1039.23,1414.37 1040.05,1416.41 1040.87,1418.32 1043.33,1423.32 1044.97,1357.12 1045.79,1289.05 1046.61,1299.24 1049.07,1325.99 1050.71,1341.06 1051.53,1347.86 1052.35,1354.23 1054.8,1306.4 1055.62,1315.46 1056.44,1323.93 1057.26,1331.85 1058.08,1339.25 1060.54,1358.7 1061.36,1364.36 1062.18,1369.65 1063,1374.59 1063.82,1379.22 1067.1,1394.9 1067.92,1398.2 1068.74,1401.29 1069.56,1404.18 1072.01,1411.77 1072.83,1413.97 1073.65,1416.04 1074.47,1417.97 1075.29,1419.77 1077.75,1424.51 1078.57,1425.89 1079.39,1427.18 1080.21,1428.38 1081.03,1429.51 1083.49,1432.47 1084.31,1433.33 1085.13,1434.14 1085.95,1434.89 1086.76,1435.59 1090.04,1437.98 1090.86,1438.48 1091.68,1438.95 1092.5,1439.39 1094.96,1440.55 1095.78,1440.88 1096.6,1441.2 1097.42,1441.49 1098.24,1441.77 1100.7,1442.49 1101.52,1442.7 1102.34,1442.89 1103.16,1443.08 1103.97,1443.25 1106.43,1443.7 1107.25,1443.83 1108.07,1443.95 1108.89,1444.07 1109.71,1444.18 1112.17,1444.46 1112.99,1444.54 1113.81,1444.61 1114.63,1444.69 1115.45,1444.75 1117.91,1444.93 1118.73,1444.98 1119.55,1445.03 1120.36,1445.07 1121.18,1445.11 1123.64,1445.22 1124.46,1445.26 1125.28,1445.29 1126.1,1445.31 1126.92,1445.34 1129.38,1445.41 1130.2,1445.43 1131.02,1445.45 1131.84,1445.46 1132.66,1445.48 1135.12,1445.52 1135.94,1445.54 1136.75,1445.55 1137.57,1445.56 1140.85,1445.6 1141.67,1445.6 1142.49,1445.61 1143.31,1445.62 1144.13,1445.62 1146.59,1445.64 1147.41,1445.65 1148.23,1445.65 1149.05,1445.65 1149.87,1445.66 1152.33,1445.67 1153.14,1445.67 1153.96,1445.67 1154.78,1445.68 1155.6,1445.68 1158.06,1445.69 1158.88,1445.69 1159.7,1445.69 1160.52,1445.69 1161.34,1445.69 1163.8,1445.7 1164.62,1445.7 1165.44,1445.7 1166.26,1445.7 1167.08,1445.7 1170.35,1445.71 1171.17,1445.71 1171.99,1445.71 1172.81,1445.71 1175.27,1445.71 1176.09,1445.71 1176.91,1445.71 1177.73,1445.71 1178.55,1445.71 1181.01,1445.71 1181.83,1445.71 1182.65,1445.71 1183.47,1445.71 1184.29,1445.71 1186.74,1445.71 1187.56,1445.71 1188.38,1445.71 1189.2,1445.71 1190.02,1445.71 1192.48,1445.71 1193.3,1445.71 1194.12,1445.71 1194.94,1445.71 1195.76,1445.71 1198.22,1445.71 1199.04,1445.71 1199.86,1445.71 1201.5,1445.71 1203.95,1445.72 1204.77,1445.72 1205.59,1445.72 1206.41,1445.72 1207.23,1445.72 1209.69,1445.72 1210.51,1445.72 1211.33,1445.72 1212.15,1445.72 1212.97,1445.72 1215.43,1445.72 1216.25,1445.72 1217.07,1445.72 1217.89,1445.72 1218.71,1445.72 1221.16,1445.72 1221.98,1445.72 1222.8,1445.72 1223.62,1445.72 1224.44,1445.72 1226.9,1445.72 1227.72,1371.89 1228.54,1376.69 1229.36,1381.18 1230.18,1385.38 1232.64,1396.4 1233.46,1399.61 1234.28,1402.6 1235.1,1331.58 1235.92,1339 1238.37,1358.5 1239.19,1364.17 1240.01,1369.47 1240.83,1374.43 1241.65,1379.06 1244.11,1326.7 1244.93,1334.44 1245.75,1341.68 1246.57,1348.44 1247.39,1354.77 1250.67,1376.21 1251.49,1380.73 1252.31,1384.96 1253.12,1388.91 1255.58,1399.28 1256.4,1402.3 1257.22,1405.13 1258.04,1407.77 1258.86,1410.23 1261.32,1416.71 1262.14,1418.6 1262.96,1420.36 1263.78,1422.01 1264.6,1423.55 1267.06,1427.6 1267.88,1428.78 1268.7,1429.88 1269.51,1430.91 1270.33,1431.87 1272.79,1434.4 1273.61,1435.14 1274.43,1435.82 1275.25,1436.47 1276.07,1437.07 1278.53,1438.65 1279.35,1439.11 1280.17,1439.54 1280.99,1439.94 1281.81,1440.31 1284.27,1441.3 1285.09,1441.59 1285.91,1441.86 1286.72,1442.11 1287.54,1442.34 1290,1442.96 1290.82,1443.14 1291.64,1443.31 1292.46,1443.46 1293.28,1443.61 1295.74,1443.99 1296.56,1444.11 1297.38,1444.21 1298.2,1444.31 1299.02,1444.4 1301.48,1444.64 1302.3,1444.71 1303.11,1444.78 1303.93,1444.84 1304.75,1444.89 1307.21,1445.04 1308.03,1445.09 1308.85,1445.13 1309.67,1445.17 1310.49,1445.2 1312.95,1445.3 1313.77,1445.32 1314.59,1445.35 1315.41,1445.37 1316.23,1445.39 1318.69,1445.45 1319.5,1445.47 1320.32,1445.49 1321.96,1445.52 1324.42,1445.55 1325.24,1445.56 1326.06,1445.57 1326.88,1445.58 1327.7,1445.59 1330.16,1445.61 1330.98,1445.62 1331.8,1445.63 1332.62,1445.63 1333.44,1445.64 1335.9,1445.65 1336.71,1445.66 1337.53,1445.66 1338.35,1445.66 1339.17,1445.67 1341.63,1445.68 1342.45,1445.68 1344.09,1445.68 1344.91,1445.69 1347.37,1445.69 1348.19,1445.69 1349.83,1445.7 1350.65,1445.7 1353.1,1445.7 1353.92,1445.7 1354.74,1445.7 1355.56,1445.7 1356.38,1445.7 1358.84,1445.71 1359.66,1445.71 1360.48,1445.71 1361.3,1445.71 1362.12,1445.71 1365.4,1445.71 1366.22,1445.71 1367.04,1445.71 1367.86,1445.71 1370.31,1445.71 1371.13,1445.71 1371.95,1445.71 1372.77,1445.71 1373.59,1445.71 1376.05,1445.71 1376.87,1445.71 1377.69,1445.71 1378.51,1445.71 1379.33,1445.71 1381.79,1445.71 1382.61,1445.71 1383.43,1445.71 1384.25,1445.71 1385.07,1445.71 1388.34,1445.71 1389.16,1445.71 1389.98,1445.71 1390.8,1445.71 1393.26,1445.72 1394.08,1371.89 1394.9,1302.87 1395.72,1312.16 1396.54,1247.02 1399,1283.31 1399.82,1220.05 1400.64,1160.9 1401.46,1105.6 1402.28,1053.89 1404.73,1125.46 1405.55,1072.46 1406.37,1022.91 1407.19,976.576 1408.01,933.258 1410.47,962.327 1411.29,919.935 1412.11,880.3 1412.93,843.242 1413.75,882.416 1416.21,920.772 1417.03,881.082 1417.85,843.973 1418.67,883.099 1419.48,845.859 1421.94,890.892 1422.76,853.145 1423.58,891.675 1424.4,853.877 1425.22,892.36 1427.68,993.434 1428.5,949.019 1429.32,981.315 1430.14,937.689 1433.42,1057.48 1434.24,1082.73 1435.06,1032.51 1435.87,1059.37 1436.69,1084.49 1439.15,1085.94 1439.97,1109.33 1440.79,1057.38 1441.61,1082.63 1442.43,1106.24 1444.89,1168.25 1445.71,1186.29 1446.53,1203.16 1447.35,1145.11 1448.17,1164.65 1450.63,1151.46 1451.45,1170.59 1452.27,1188.48 1453.08,1205.2 1453.9,1220.84 1456.36,1261.92 1457.18,1273.87 1458,1285.04 1458.82,1295.49 1459.64,1305.26 1462.1,1330.91 1462.92,1264.56 1463.74,1276.33 1464.56,1287.35 1465.38,1297.65 1468.66,1332.56 1469.47,1339.92 1470.29,1346.8 1471.11,1353.23 1473.57,1370.12 1474.39,1375.04 1475.21,1379.63 1476.03,1383.93 1476.85,1387.95 1479.31,1333.96 1480.13,1341.23 1480.95,1348.02 1481.77,1354.38 1482.59,1286.49 1485.05,1315.58 1485.86,1324.04 1486.68,1331.95 1487.5,1339.35 1488.32,1346.26 1490.78,1364.43 1491.6,1369.71 1492.42,1374.66 1493.24,1305.45 1494.06,1314.57 1496.52,1338.53 1497.34,1345.5 1498.16,1352.01 1498.98,1358.11 1502.25,1378.76 1503.07,1383.12 1503.89,1387.19 1504.71,1390.99 1505.53,1394.55 1507.99,1403.9 1508.81,1406.62 1509.63,1409.16 1510.45,1411.54 1511.27,1413.76 1513.73,1419.6 1514.55,1421.29 1515.37,1422.88 1516.19,1424.37 1517.01,1425.75 1519.46,1429.4 1520.28,1430.46 1521.1,1431.45 1521.92,1432.38 1522.74,1433.25 1525.2,1435.53 1526.02,1436.19 1526.84,1436.81 1527.66,1437.39 1528.48,1437.93 1530.94,1439.35 1531.76,1439.76 1532.58,1440.15 1533.4,1440.51 1534.22,1440.85 1536.67,1441.74 1537.49,1442 1538.31,1442.24 1539.13,1442.47 1539.95,1442.68 1542.41,1443.23 1543.23,1443.39 1544.05,1443.54 1544.87,1443.69 1545.69,1443.82 1548.15,1444.16 1548.97,1444.27 1549.79,1444.36 1550.61,1444.45 1551.43,1370.71 1554.7,1388.39 1555.52,1318.3 1556.34,1326.58 1557.16,1334.33 1559.62,1354.68 1560.44,1360.6 1561.26,1366.13 1562.08,1371.3 1562.9,1376.14 1565.36,1388.85 1566.18,1392.55 1567,1396.01 1567.82,1399.24 1568.64,1402.26 1571.09,1410.2 1571.91,1412.51 1572.73,1414.67 1573.55,1416.68 1574.37,1418.57 1576.83,1423.53 1577.65,1424.97 1578.47,1426.32 1579.29,1427.58 1580.11,1428.76 1582.57,1431.86 1583.39,1432.76 1584.21,1433.6 1585.03,1434.39 1585.84,1435.13 1588.3,1437.06 1589.12,1437.62 1589.94,1438.15 1590.76,1438.64 1591.58,1439.1 1594.04,1440.31 1594.86,1440.66 1595.68,1440.99 1596.5,1367.47 1597.32,1372.56 1599.78,1385.92 1600.6,1389.81 1601.42,1393.45 1602.23,1396.85 1603.05,1400.02 1605.51,1408.37 1606.33,1410.8 1607.15,1413.07 1607.97,1415.19 1608.79,1417.18 1611.25,1422.39 1612.07,1423.91 1612.89,1425.32 1613.71,1426.65 1614.53,1427.89 1616.99,1431.15 1617.81,1432.09 1618.63,1432.98 1620.26,1434.58 1622.72,1436.61 1623.54,1437.21 1624.36,1437.76 1625.18,1438.28 1626,1438.76 1628.46,1440.03 1629.28,1440.4 1630.1,1440.75 1630.92,1441.07 1631.74,1441.37 1634.2,1442.17 1635.02,1442.4 1635.83,1442.61 1636.65,1442.81 1637.47,1443 1639.93,1443.5 1640.75,1443.64 1641.57,1443.78 1642.39,1443.9 1645.67,1444.33 1646.49,1444.42 1647.31,1444.5 1648.13,1444.58 1651.41,1444.85 1652.22,1444.91 1653.04,1444.96 1653.86,1445.01 1654.68,1445.05 1657.14,1445.18 1657.96,1445.21 1658.78,1445.24 1659.6,1445.27 1660.42,1445.3 1663.7,1445.4 1664.52,1445.42 1665.34,1445.44 1666.16,1445.46 1668.61,1445.5 1669.43,1445.52 1670.25,1445.53 1671.07,1445.54 1671.89,1445.55 1674.35,1445.58 1675.17,1445.59 1675.99,1445.6 1676.81,1445.61 1677.63,1445.62 1680.09,1445.63 1680.91,1445.64 1681.73,1445.64 1682.55,1445.65 1683.37,1445.65 1686.64,1445.67 1687.46,1445.67 1688.28,1445.67 1689.1,1445.68 1691.56,1445.68 1692.38,1445.69 1693.2,1445.69 1694.02,1445.69 1694.84,1445.69 1697.3,1445.7 1698.12,1445.7 1698.94,1445.7 1699.76,1445.7 1700.58,1445.7 1703.03,1445.7 1703.85,1445.7 1704.67,1445.7 1705.49,1445.71 1706.31,1445.71 1708.77,1445.71 1709.59,1445.71 1710.41,1445.71 1711.23,1445.71 1712.05,1445.71 1714.51,1445.71 1715.33,1445.71 1716.15,1445.71 1716.97,1445.71 1717.79,1445.71 1720.24,1445.71 1721.06,1445.71 1721.88,1445.71 1722.7,1445.71 1725.98,1445.71 1726.8,1445.71 1727.62,1445.71 1728.44,1445.71 1729.26,1445.71 1731.72,1445.71 1732.54,1445.71 1733.36,1445.71 1734.18,1445.71 1735,1445.71 1737.45,1445.71 1738.27,1445.71 1739.09,1445.72 1739.91,1445.72 1740.73,1445.72 1743.19,1445.72 1744.01,1445.72 1744.83,1445.72 1745.65,1445.72 1746.47,1445.72 1748.93,1445.72 1749.75,1445.72 1750.57,1445.72 1751.39,1445.72 1752.2,1445.72 1754.66,1445.72 1755.48,1445.72 1756.3,1445.72 1757.12,1445.72 1757.94,1445.72 1760.4,1445.72 1761.22,1445.72 1762.04,1445.72 1762.86,1445.72 1763.68,1445.72 1766.14,1445.72 1766.96,1445.72 1767.78,1445.72 1768.59,1445.72 1769.41,1445.72 1772.69,1445.72 1773.51,1445.72 1774.33,1445.72 1775.15,1445.72 1777.61,1445.72 1778.43,1445.72 1779.25,1445.72 1780.07,1445.72 1780.89,1445.72 1783.35,1445.72 1784.17,1445.72 1784.98,1445.72 1785.8,1445.72 1786.62,1445.72 1789.08,1445.72 1789.9,1445.72 1790.72,1445.72 1791.54,1445.72 1792.36,1445.72 1794.82,1445.72 1795.64,1445.72 1796.46,1445.72 1797.28,1445.72 1798.1,1445.72 1801.38,1445.72 1802.19,1445.72 1803.01,1445.72 1803.83,1445.72 1806.29,1445.72 1807.11,1445.72 1807.93,1445.72 1808.75,1445.72 1809.57,1445.72 1812.03,1445.72 1812.85,1445.72 1813.67,1445.72 1814.49,1445.72 1815.31,1445.72 1817.77,1445.72 1818.58,1445.72 1819.4,1445.72 1820.22,1445.72 1821.04,1445.72 1823.5,1445.72 1824.32,1445.72 1825.14,1445.72 1825.96,1445.72 1826.78,1445.72 1829.24,1445.72 1830.06,1445.72 1830.88,1445.72 1831.7,1445.72 1832.52,1445.72 1834.97,1445.72 1835.79,1445.72 1836.61,1445.72 1837.43,1445.72 1838.25,1445.72 1840.71,1445.72 1841.53,1445.72 1842.35,1445.72 1843.17,1445.72 1843.99,1445.72 1846.45,1445.72 1847.27,1445.72 1848.09,1445.72 1848.91,1445.72 1849.73,1445.72 1853,1445.72 1853.82,1445.72 1854.64,1445.72 1855.46,1445.72 1857.92,1445.72 1858.74,1445.72 1859.56,1445.72 1860.38,1445.72 1861.2,1445.72 1863.66,1445.72 1864.48,1445.72 1865.3,1445.72 1866.12,1445.72 1866.94,1445.72 1869.39,1445.72 1870.21,1445.72 1871.03,1445.72 1871.85,1445.72 1872.67,1445.72 1875.13,1445.72 1875.95,1445.72 1876.77,1445.72 1877.59,1445.72 1878.41,1445.72 1880.87,1445.72 1881.69,1445.72 1882.51,1445.72 1883.33,1445.72 1884.15,1445.72 1886.6,1445.72 1887.42,1445.72 1888.24,1445.72 1889.06,1445.72 1889.88,1445.72 1892.34,1445.72 1893.16,1445.72 1893.98,1445.72 1894.8,1445.72 1895.62,1445.72 1898.08,1445.72 1898.9,1445.72 1899.72,1445.72 1900.54,1445.72 1901.35,1445.72 1903.81,1445.72 1904.63,1445.72 1905.45,1445.72 1906.27,1445.72 1907.09,1445.72 1909.55,1445.72 1910.37,1445.72 1911.19,1445.72 1912.01,1445.72 1912.83,1445.72 1915.29,1445.72 1916.11,1445.72 1916.93,1445.72 1918.56,1445.72 1921.02,1445.72 1921.84,1445.72 1922.66,1445.72 1923.48,1445.72 1924.3,1445.72 1926.76,1445.72 1927.58,1445.72 1928.4,1445.72 1929.22,1445.72 1930.04,1445.72 1932.5,1445.72 1933.32,1445.72 1934.14,1445.72 1934.95,1445.72 1935.77,1445.72 1938.23,1445.72 1939.05,1445.72 1939.87,1445.72 1940.69,1445.72 1943.97,1445.72 1944.79,1445.72 1945.61,1445.72 1946.43,1445.72 1947.25,1445.72 1949.71,1445.72 1950.53,1445.72 1951.34,1445.72 1952.16,1445.72 1952.98,1445.72 1955.44,1445.72 1956.26,1445.72 1957.08,1445.72 1957.9,1445.72 1958.72,1445.72 1962,1445.72 1962.82,1445.72 1963.64,1445.72 1964.46,1445.72 1966.92,1445.72 1967.74,1445.72 1968.55,1445.72 1969.37,1445.72 1970.19,1445.72 1972.65,1445.72 1973.47,1445.72 1974.29,1445.72 1975.11,1445.72 1975.93,1445.72 1978.39,1445.72 1979.21,1445.72 1980.03,1445.72 1980.85,1445.72 1981.67,1445.72 1984.13,1445.72 1984.94,1445.72 1985.76,1445.72 1986.58,1445.72 1987.4,1445.72 1990.68,1445.72 1991.5,1445.72 1992.32,1445.72 1993.14,1445.72 1995.6,1445.72 1996.42,1445.72 1997.24,1445.72 1998.06,1445.72 1998.88,1445.72 2001.33,1445.72 2002.15,1371.89 2002.97,1376.69 2003.79,1307.36 2004.61,1316.35 2007.07,1339.98 2007.89,1346.86 2008.71,1353.29 2009.53,1359.3 2010.35,1364.92 2012.81,1379.67 2013.63,1383.97 2014.45,1387.98 2015.27,1391.74 2016.09,1395.25 2018.54,1404.47 2019.36,1407.15 2020.18,1409.66 2021,1412 2021.82,1414.19 2024.28,1419.95 2025.1,1421.63 2025.92,1423.19 2026.74,1424.66 2027.56,1426.03 2030.02,1429.62 2030.84,1430.67 2031.66,1431.65 2032.48,1432.56 2035.75,1435.66 2036.57,1436.32 2037.39,1436.93 2038.21,1437.5 2039.03,1438.03 2041.49,1374.9 2042.31,1379.51 2043.13,1309.99 2043.95,1318.81 2044.77,1327.07 2047.23,1284.2 2048.05,1294.71 2048.87,1304.52 2049.69,1239.88 2050.51,1179.44 2052.96,1228.08 2053.78,1168.41 2054.6,1186.44 2055.42,1203.3 2056.24,1219.06 2058.7,1260.46 2059.52,1272.51 2060.34,1283.77 2061.16,1220.48 2061.98,1235.12 2064.44,1273.59 2065.26,1284.78 2066.08,1295.24 2066.9,1305.03 2067.71,1314.18 2070.99,1345.19 2071.81,1351.73 2072.63,1357.84 2073.45,1363.55 2075.91,1378.56 2076.73,1382.93 2077.55,1387.01 2078.37,1390.83 2079.19,1394.4 2081.65,1339.24 2082.47,1272.34 2083.29,1283.61 2084.11,1294.15 2084.92,1230.18 2088.2,1281.01 2089.02,1291.72 2089.84,1301.73 2090.66,1311.09 2093.12,1271.15 2093.94,1282.5 2094.76,1293.11 2095.58,1303.03 2096.4,1312.31 2099.68,1343.77 2100.5,1350.4 2101.31,1356.59 2102.13,1362.39 2104.59,1377.61 2105.41,1382.04 2106.23,1386.18 2107.05,1390.05 2107.87,1393.67 2110.33,1403.18 2111.15,1405.94 2111.97,1334.71 2112.79,1341.92 2113.61,1348.67 2116.07,1366.4 2116.89,1371.56 2117.7,1376.38 2118.52,1307.06 2119.34,1316.08 2121.8,1339.76 2122.62,1346.65 2123.44,1353.09 2124.26,1359.11 2125.08,1364.74 2127.54,1379.53 2128.36,1383.84 2129.18,1387.86 2130,1391.62 2130.82,1395.14 2133.28,1404.38 2134.1,1407.07 2134.91,1409.58 2135.73,1411.93 2136.55,1414.12 2139.01,1419.9 2139.83,1421.57 2140.65,1423.14 2141.47,1424.61 2142.29,1425.98 2144.75,1365.05 2145.57,1370.3 2146.39,1375.2 2147.21,1379.79 2148.03,1384.07 2151.3,1398.61 2152.12,1401.67 2152.94,1404.54 2153.76,1407.21 2156.22,1414.25 2157.04,1416.29 2157.86,1344.38 2158.68,1350.97 2159.5,1357.13 2161.96,1373.31 2162.78,1378.02 2163.6,1382.42 2164.42,1386.54 2165.24,1390.39 2167.69,1400.49 2168.51,1403.43 2169.33,1406.18 2170.15,1408.75 2170.97,1411.16 2173.43,1417.47 2174.25,1345.48 2175.07,1278.18 2175.89,1289.07 2176.71,1299.26 2179.17,1261.47 2179.99,1273.45 2180.81,1284.65 2181.63,1295.13 2182.45,1231.1 2184.9,1270.3 2185.72,1207.88 2186.54,1223.35 2187.36,1237.8 2188.18,1251.32 2190.64,1286.83 2191.46,1297.16 2192.28,1306.82 2193.1,1315.85 2193.92,1324.3 2196.38,1346.47 2197.2,1352.93 2198.02,1358.96 2198.84,1290.78 2199.66,1300.85 2202.11,1327.31 2202.93,1335.01 2203.75,1342.21 2204.57,1348.94 2205.39,1281.41 2207.85,1311.42 2208.67,1320.15 2209.49,1328.32 2210.31,1335.95 2211.13,1343.09 2213.59,1361.83 2214.41,1367.29 2215.23,1372.39 2216.87,1381.61 2219.32,1393.32 2220.14,1396.73 2220.96,1399.91 2221.78,1329.07 2222.6,1336.65 2225.06,1356.57 2225.88,1362.37 2226.7,1367.79 2227.52,1372.86 2228.34,1377.59 2230.8,1390.04 2231.62,1393.66 2232.44,1397.04 2233.26,1400.21 2234.07,1403.17 2236.53,1410.94 2237.35,1413.2 2238.17,1415.31 2238.99,1417.29 2239.81,1419.14 2243.09,1425.41 2243.91,1426.73 2244.73,1427.96 2245.55,1429.12 2248.83,1433.03 2249.65,1433.85 2250.47,1434.63 2251.28,1435.35 2253.74,1437.24 2254.56,1437.79 2255.38,1438.31 2256.2,1438.79 2257.02,1439.24 2260.3,1440.77 2261.12,1441.09 2261.94,1441.39 2262.76,1441.67 2265.22,1442.41 2266.04,1442.62 2266.86,1442.83 2267.67,1443.01 2268.49,1443.19 2270.95,1443.65 2271.77,1443.78 2272.59,1443.91 2273.41,1444.03 2274.23,1444.14 2276.69,1444.43 2277.51,1444.51 2278.33,1444.59 2279.15,1444.66 2279.97,1444.73 2282.43,1444.91 2283.25,1444.96 2284.06,1445.01 2284.88,1445.06 2285.7,1445.1 2288.98,1445.25 2289.8,1445.28 2290.62,1445.3 2291.44,1445.33 "/>
<path clip-path="url(#clip660)" d="M1866.67 250.738 L2280.54 250.738 L2280.54 95.2176 L1866.67 95.2176  Z" fill="#ffffff" fill-rule="evenodd" fill-opacity="1"/>
<polyline clip-path="url(#clip660)" style="stroke:#000000; stroke-linecap:round; stroke-linejoin:round; stroke-width:4; stroke-opacity:1; fill:none" points="1866.67,250.738 2280.54,250.738 2280.54,95.2176 1866.67,95.2176 1866.67,250.738 "/>
<polyline clip-path="url(#clip660)" style="stroke:#009af9; stroke-linecap:round; stroke-linejoin:round; stroke-width:4; stroke-opacity:1; fill:none" points="1890.74,147.058 2035.17,147.058 "/>
<path clip-path="url(#clip660)" d="M2063.92 147.833 L2063.92 160.495 L2071.42 160.495 Q2075.2 160.495 2077 158.944 Q2078.83 157.37 2078.83 154.152 Q2078.83 150.912 2077 149.384 Q2075.2 147.833 2071.42 147.833 L2063.92 147.833 M2063.92 133.62 L2063.92 144.037 L2070.84 144.037 Q2074.27 144.037 2075.94 142.764 Q2077.63 141.467 2077.63 138.828 Q2077.63 136.213 2075.94 134.916 Q2074.27 133.62 2070.84 133.62 L2063.92 133.62 M2059.25 129.778 L2071.19 129.778 Q2076.54 129.778 2079.43 132 Q2082.33 134.222 2082.33 138.319 Q2082.33 141.49 2080.84 143.365 Q2079.36 145.24 2076.49 145.703 Q2079.94 146.444 2081.84 148.805 Q2083.76 151.143 2083.76 154.662 Q2083.76 159.291 2080.61 161.814 Q2077.46 164.338 2071.65 164.338 L2059.25 164.338 L2059.25 129.778 Z" fill="#000000" fill-rule="evenodd" fill-opacity="1" /><path clip-path="url(#clip660)" d="M2091.58 138.412 L2095.84 138.412 L2095.84 164.338 L2091.58 164.338 L2091.58 138.412 M2091.58 128.319 L2095.84 128.319 L2095.84 133.713 L2091.58 133.713 L2091.58 128.319 Z" fill="#000000" fill-rule="evenodd" fill-opacity="1" /><path clip-path="url(#clip660)" d="M2126.31 148.689 L2126.31 164.338 L2122.05 164.338 L2122.05 148.828 Q2122.05 145.148 2120.61 143.319 Q2119.18 141.49 2116.31 141.49 Q2112.86 141.49 2110.87 143.69 Q2108.88 145.889 2108.88 149.685 L2108.88 164.338 L2104.59 164.338 L2104.59 138.412 L2108.88 138.412 L2108.88 142.44 Q2110.4 140.102 2112.46 138.944 Q2114.55 137.787 2117.26 137.787 Q2121.72 137.787 2124.01 140.565 Q2126.31 143.319 2126.31 148.689 Z" fill="#000000" fill-rule="evenodd" fill-opacity="1" /><path clip-path="url(#clip660)" d="M2144.85 141.398 Q2141.42 141.398 2139.43 144.083 Q2137.44 146.745 2137.44 151.398 Q2137.44 156.051 2139.41 158.736 Q2141.4 161.398 2144.85 161.398 Q2148.25 161.398 2150.24 158.713 Q2152.23 156.027 2152.23 151.398 Q2152.23 146.791 2150.24 144.106 Q2148.25 141.398 2144.85 141.398 M2144.85 137.787 Q2150.4 137.787 2153.57 141.398 Q2156.75 145.009 2156.75 151.398 Q2156.75 157.764 2153.57 161.398 Q2150.4 165.009 2144.85 165.009 Q2139.27 165.009 2136.1 161.398 Q2132.95 157.764 2132.95 151.398 Q2132.95 145.009 2136.1 141.398 Q2139.27 137.787 2144.85 137.787 Z" fill="#000000" fill-rule="evenodd" fill-opacity="1" /><path clip-path="url(#clip660)" d="M2183.99 143.389 Q2185.59 140.518 2187.81 139.153 Q2190.03 137.787 2193.04 137.787 Q2197.09 137.787 2199.29 140.634 Q2201.49 143.458 2201.49 148.689 L2201.49 164.338 L2197.21 164.338 L2197.21 148.828 Q2197.21 145.102 2195.89 143.296 Q2194.57 141.49 2191.86 141.49 Q2188.55 141.49 2186.63 143.69 Q2184.71 145.889 2184.71 149.685 L2184.71 164.338 L2180.43 164.338 L2180.43 148.828 Q2180.43 145.078 2179.11 143.296 Q2177.79 141.49 2175.03 141.49 Q2171.77 141.49 2169.85 143.713 Q2167.93 145.912 2167.93 149.685 L2167.93 164.338 L2163.64 164.338 L2163.64 138.412 L2167.93 138.412 L2167.93 142.44 Q2169.38 140.055 2171.42 138.921 Q2173.46 137.787 2176.26 137.787 Q2179.08 137.787 2181.05 139.222 Q2183.04 140.657 2183.99 143.389 Z" fill="#000000" fill-rule="evenodd" fill-opacity="1" /><path clip-path="url(#clip660)" d="M2209.99 138.412 L2214.25 138.412 L2214.25 164.338 L2209.99 164.338 L2209.99 138.412 M2209.99 128.319 L2214.25 128.319 L2214.25 133.713 L2209.99 133.713 L2209.99 128.319 Z" fill="#000000" fill-rule="evenodd" fill-opacity="1" /><path clip-path="url(#clip660)" d="M2234.94 151.305 Q2229.78 151.305 2227.79 152.486 Q2225.8 153.666 2225.8 156.514 Q2225.8 158.782 2227.28 160.125 Q2228.78 161.444 2231.35 161.444 Q2234.89 161.444 2237.02 158.944 Q2239.18 156.421 2239.18 152.254 L2239.18 151.305 L2234.94 151.305 M2243.44 149.546 L2243.44 164.338 L2239.18 164.338 L2239.18 160.402 Q2237.72 162.763 2235.54 163.898 Q2233.37 165.009 2230.22 165.009 Q2226.24 165.009 2223.88 162.787 Q2221.54 160.541 2221.54 156.791 Q2221.54 152.416 2224.45 150.194 Q2227.39 147.972 2233.2 147.972 L2239.18 147.972 L2239.18 147.555 Q2239.18 144.615 2237.23 143.018 Q2235.31 141.398 2231.82 141.398 Q2229.59 141.398 2227.49 141.93 Q2225.38 142.463 2223.44 143.527 L2223.44 139.592 Q2225.77 138.69 2227.97 138.25 Q2230.17 137.787 2232.25 137.787 Q2237.88 137.787 2240.66 140.703 Q2243.44 143.62 2243.44 149.546 Z" fill="#000000" fill-rule="evenodd" fill-opacity="1" /><path clip-path="url(#clip660)" d="M2252.21 128.319 L2256.47 128.319 L2256.47 164.338 L2252.21 164.338 L2252.21 128.319 Z" fill="#000000" fill-rule="evenodd" fill-opacity="1" /><polyline clip-path="url(#clip660)" style="stroke:#e26f46; stroke-linecap:round; stroke-linejoin:round; stroke-width:4; stroke-opacity:1; fill:none" points="1890.74,198.898 2035.17,198.898 "/>
<path clip-path="url(#clip660)" d="M2059.25 181.618 L2063.92 181.618 L2063.92 195.784 L2080.91 195.784 L2080.91 181.618 L2085.59 181.618 L2085.59 216.178 L2080.91 216.178 L2080.91 199.719 L2063.92 199.719 L2063.92 216.178 L2059.25 216.178 L2059.25 181.618 Z" fill="#000000" fill-rule="evenodd" fill-opacity="1" /><path clip-path="url(#clip660)" d="M2106.49 203.145 Q2101.33 203.145 2099.34 204.326 Q2097.35 205.506 2097.35 208.354 Q2097.35 210.622 2098.83 211.965 Q2100.33 213.284 2102.9 213.284 Q2106.45 213.284 2108.58 210.784 Q2110.73 208.261 2110.73 204.094 L2110.73 203.145 L2106.49 203.145 M2114.99 201.386 L2114.99 216.178 L2110.73 216.178 L2110.73 212.242 Q2109.27 214.603 2107.09 215.738 Q2104.92 216.849 2101.77 216.849 Q2097.79 216.849 2095.43 214.627 Q2093.09 212.381 2093.09 208.631 Q2093.09 204.256 2096.01 202.034 Q2098.95 199.812 2104.76 199.812 L2110.73 199.812 L2110.73 199.395 Q2110.73 196.455 2108.78 194.858 Q2106.86 193.238 2103.37 193.238 Q2101.14 193.238 2099.04 193.77 Q2096.93 194.303 2094.99 195.367 L2094.99 191.432 Q2097.33 190.53 2099.52 190.09 Q2101.72 189.627 2103.81 189.627 Q2109.43 189.627 2112.21 192.543 Q2114.99 195.46 2114.99 201.386 Z" fill="#000000" fill-rule="evenodd" fill-opacity="1" /><path clip-path="url(#clip660)" d="M2121.28 190.252 L2125.54 190.252 L2130.87 210.483 L2136.17 190.252 L2141.19 190.252 L2146.51 210.483 L2151.82 190.252 L2156.07 190.252 L2149.29 216.178 L2144.27 216.178 L2138.69 194.928 L2133.09 216.178 L2128.07 216.178 L2121.28 190.252 Z" fill="#000000" fill-rule="evenodd" fill-opacity="1" /><path clip-path="url(#clip660)" d="M2162.37 180.159 L2166.65 180.159 L2166.65 201.432 L2179.36 190.252 L2184.8 190.252 L2171.05 202.381 L2185.38 216.178 L2179.82 216.178 L2166.65 203.516 L2166.65 216.178 L2162.37 216.178 L2162.37 180.159 Z" fill="#000000" fill-rule="evenodd" fill-opacity="1" /><path clip-path="url(#clip660)" d="M2210.47 202.15 L2210.47 204.233 L2190.89 204.233 Q2191.17 208.631 2193.53 210.946 Q2195.91 213.238 2200.15 213.238 Q2202.6 213.238 2204.89 212.636 Q2207.21 212.034 2209.48 210.83 L2209.48 214.858 Q2207.19 215.83 2204.78 216.34 Q2202.37 216.849 2199.89 216.849 Q2193.69 216.849 2190.06 213.238 Q2186.45 209.627 2186.45 203.469 Q2186.45 197.104 2189.87 193.377 Q2193.32 189.627 2199.15 189.627 Q2204.38 189.627 2207.42 193.006 Q2210.47 196.363 2210.47 202.15 M2206.21 200.9 Q2206.17 197.405 2204.25 195.321 Q2202.35 193.238 2199.2 193.238 Q2195.63 193.238 2193.48 195.252 Q2191.35 197.266 2191.03 200.923 L2206.21 200.9 Z" fill="#000000" fill-rule="evenodd" fill-opacity="1" /><path clip-path="url(#clip660)" d="M2233.99 191.016 L2233.99 195.043 Q2232.19 194.117 2230.24 193.655 Q2228.3 193.192 2226.21 193.192 Q2223.04 193.192 2221.44 194.164 Q2219.87 195.136 2219.87 197.08 Q2219.87 198.562 2221.01 199.418 Q2222.14 200.252 2225.57 201.016 L2227.02 201.34 Q2231.56 202.312 2233.46 204.094 Q2235.38 205.854 2235.38 209.025 Q2235.38 212.636 2232.51 214.742 Q2229.66 216.849 2224.66 216.849 Q2222.58 216.849 2220.31 216.432 Q2218.07 216.039 2215.57 215.228 L2215.57 210.83 Q2217.93 212.057 2220.22 212.682 Q2222.51 213.284 2224.76 213.284 Q2227.76 213.284 2229.38 212.266 Q2231 211.224 2231 209.349 Q2231 207.613 2229.82 206.687 Q2228.67 205.761 2224.71 204.904 L2223.23 204.557 Q2219.27 203.724 2217.51 202.011 Q2215.75 200.275 2215.75 197.266 Q2215.75 193.608 2218.34 191.618 Q2220.94 189.627 2225.7 189.627 Q2228.07 189.627 2230.15 189.974 Q2232.23 190.321 2233.99 191.016 Z" fill="#000000" fill-rule="evenodd" fill-opacity="1" /></svg>
