<?xml version="1.0" encoding="utf-8"?>
<svg xmlns="http://www.w3.org/2000/svg" xmlns:xlink="http://www.w3.org/1999/xlink" width="600" height="400" viewBox="0 0 2400 1600">
<defs>
  <clipPath id="clip700">
    <rect x="0" y="0" width="2400" height="1600"/>
  </clipPath>
</defs>
<path clip-path="url(#clip700)" d="M0 1600 L2400 1600 L2400 0 L0 0  Z" fill="#ffffff" fill-rule="evenodd" fill-opacity="1"/>
<defs>
  <clipPath id="clip701">
    <rect x="480" y="0" width="1681" height="1600"/>
  </clipPath>
</defs>
<path clip-path="url(#clip700)" d="M156.598 1486.45 L2352.76 1486.45 L2352.76 47.2441 L156.598 47.2441  Z" fill="#ffffff" fill-rule="evenodd" fill-opacity="1"/>
<defs>
  <clipPath id="clip702">
    <rect x="156" y="47" width="2197" height="1440"/>
  </clipPath>
</defs>
<polyline clip-path="url(#clip702)" style="stroke:#000000; stroke-linecap:round; stroke-linejoin:round; stroke-width:2; stroke-opacity:0.1; fill:none" points="208.817,1486.45 208.817,47.2441 "/>
<polyline clip-path="url(#clip702)" style="stroke:#000000; stroke-linecap:round; stroke-linejoin:round; stroke-width:2; stroke-opacity:0.1; fill:none" points="805.032,1486.45 805.032,47.2441 "/>
<polyline clip-path="url(#clip702)" style="stroke:#000000; stroke-linecap:round; stroke-linejoin:round; stroke-width:2; stroke-opacity:0.1; fill:none" points="1416.15,1486.45 1416.15,47.2441 "/>
<polyline clip-path="url(#clip702)" style="stroke:#000000; stroke-linecap:round; stroke-linejoin:round; stroke-width:2; stroke-opacity:0.1; fill:none" points="2022.3,1486.45 2022.3,47.2441 "/>
<polyline clip-path="url(#clip700)" style="stroke:#000000; stroke-linecap:round; stroke-linejoin:round; stroke-width:4; stroke-opacity:1; fill:none" points="156.598,1486.45 2352.76,1486.45 "/>
<polyline clip-path="url(#clip700)" style="stroke:#000000; stroke-linecap:round; stroke-linejoin:round; stroke-width:4; stroke-opacity:1; fill:none" points="208.817,1486.45 208.817,1467.55 "/>
<polyline clip-path="url(#clip700)" style="stroke:#000000; stroke-linecap:round; stroke-linejoin:round; stroke-width:4; stroke-opacity:1; fill:none" points="805.032,1486.45 805.032,1467.55 "/>
<polyline clip-path="url(#clip700)" style="stroke:#000000; stroke-linecap:round; stroke-linejoin:round; stroke-width:4; stroke-opacity:1; fill:none" points="1416.15,1486.45 1416.15,1467.55 "/>
<polyline clip-path="url(#clip700)" style="stroke:#000000; stroke-linecap:round; stroke-linejoin:round; stroke-width:4; stroke-opacity:1; fill:none" points="2022.3,1486.45 2022.3,1467.55 "/>
<path clip-path="url(#clip700)" d="M80.6114 1544.91 L96.9308 1544.91 L96.9308 1548.85 L74.9864 1548.85 L74.9864 1544.91 Q77.6484 1542.16 82.2318 1537.53 Q86.8382 1532.88 88.0188 1531.53 Q90.2641 1529.01 91.1437 1527.27 Q92.0465 1525.51 92.0465 1523.82 Q92.0465 1521.07 90.1021 1519.33 Q88.1808 1517.6 85.079 1517.6 Q82.8799 1517.6 80.4262 1518.36 Q77.9957 1519.13 75.2179 1520.68 L75.2179 1515.95 Q78.042 1514.82 80.4957 1514.24 Q82.9493 1513.66 84.9864 1513.66 Q90.3567 1513.66 93.5511 1516.35 Q96.7456 1519.03 96.7456 1523.52 Q96.7456 1525.65 95.9354 1527.57 Q95.1484 1529.47 93.0419 1532.07 Q92.4632 1532.74 89.3613 1535.95 Q86.2595 1539.15 80.6114 1544.91 Z" fill="#000000" fill-rule="evenodd" fill-opacity="1" /><path clip-path="url(#clip700)" d="M116.745 1517.37 Q113.134 1517.37 111.306 1520.93 Q109.5 1524.47 109.5 1531.6 Q109.5 1538.71 111.306 1542.27 Q113.134 1545.82 116.745 1545.82 Q120.38 1545.82 122.185 1542.27 Q124.014 1538.71 124.014 1531.6 Q124.014 1524.47 122.185 1520.93 Q120.38 1517.37 116.745 1517.37 M116.745 1513.66 Q122.556 1513.66 125.611 1518.27 Q128.69 1522.85 128.69 1531.6 Q128.69 1540.33 125.611 1544.94 Q122.556 1549.52 116.745 1549.52 Q110.935 1549.52 107.857 1544.94 Q104.801 1540.33 104.801 1531.6 Q104.801 1522.85 107.857 1518.27 Q110.935 1513.66 116.745 1513.66 Z" fill="#000000" fill-rule="evenodd" fill-opacity="1" /><path clip-path="url(#clip700)" d="M140.935 1544.91 L157.255 1544.91 L157.255 1548.85 L135.31 1548.85 L135.31 1544.91 Q137.972 1542.16 142.556 1537.53 Q147.162 1532.88 148.343 1531.53 Q150.588 1529.01 151.467 1527.27 Q152.37 1525.51 152.37 1523.82 Q152.37 1521.07 150.426 1519.33 Q148.505 1517.6 145.403 1517.6 Q143.204 1517.6 140.75 1518.36 Q138.319 1519.13 135.542 1520.68 L135.542 1515.95 Q138.366 1514.82 140.819 1514.24 Q143.273 1513.66 145.31 1513.66 Q150.68 1513.66 153.875 1516.35 Q157.069 1519.03 157.069 1523.52 Q157.069 1525.65 156.259 1527.57 Q155.472 1529.47 153.366 1532.07 Q152.787 1532.74 149.685 1535.95 Q146.583 1539.15 140.935 1544.91 Z" fill="#000000" fill-rule="evenodd" fill-opacity="1" /><path clip-path="url(#clip700)" d="M171.097 1544.91 L187.416 1544.91 L187.416 1548.85 L165.472 1548.85 L165.472 1544.91 Q168.134 1542.16 172.717 1537.53 Q177.324 1532.88 178.504 1531.53 Q180.75 1529.01 181.629 1527.27 Q182.532 1525.51 182.532 1523.82 Q182.532 1521.07 180.588 1519.33 Q178.666 1517.6 175.565 1517.6 Q173.366 1517.6 170.912 1518.36 Q168.481 1519.13 165.704 1520.68 L165.704 1515.95 Q168.528 1514.82 170.981 1514.24 Q173.435 1513.66 175.472 1513.66 Q180.842 1513.66 184.037 1516.35 Q187.231 1519.03 187.231 1523.52 Q187.231 1525.65 186.421 1527.57 Q185.634 1529.47 183.528 1532.07 Q182.949 1532.74 179.847 1535.95 Q176.745 1539.15 171.097 1544.91 Z" fill="#000000" fill-rule="evenodd" fill-opacity="1" /><path clip-path="url(#clip700)" d="M194.477 1533.96 L206.953 1533.96 L206.953 1537.76 L194.477 1537.76 L194.477 1533.96 Z" fill="#000000" fill-rule="evenodd" fill-opacity="1" /><path clip-path="url(#clip700)" d="M224.337 1517.37 Q220.726 1517.37 218.898 1520.93 Q217.092 1524.47 217.092 1531.6 Q217.092 1538.71 218.898 1542.27 Q220.726 1545.82 224.337 1545.82 Q227.972 1545.82 229.777 1542.27 Q231.606 1538.71 231.606 1531.6 Q231.606 1524.47 229.777 1520.93 Q227.972 1517.37 224.337 1517.37 M224.337 1513.66 Q230.148 1513.66 233.203 1518.27 Q236.282 1522.85 236.282 1531.6 Q236.282 1540.33 233.203 1544.94 Q230.148 1549.52 224.337 1549.52 Q218.527 1549.52 215.449 1544.94 Q212.393 1540.33 212.393 1531.6 Q212.393 1522.85 215.449 1518.27 Q218.527 1513.66 224.337 1513.66 Z" fill="#000000" fill-rule="evenodd" fill-opacity="1" /><path clip-path="url(#clip700)" d="M245.31 1544.91 L252.948 1544.91 L252.948 1518.55 L244.638 1520.21 L244.638 1515.95 L252.902 1514.29 L257.578 1514.29 L257.578 1544.91 L265.217 1544.91 L265.217 1548.85 L245.31 1548.85 L245.31 1544.91 Z" fill="#000000" fill-rule="evenodd" fill-opacity="1" /><path clip-path="url(#clip700)" d="M271.907 1533.96 L284.383 1533.96 L284.383 1537.76 L271.907 1537.76 L271.907 1533.96 Z" fill="#000000" fill-rule="evenodd" fill-opacity="1" /><path clip-path="url(#clip700)" d="M301.768 1517.37 Q298.157 1517.37 296.328 1520.93 Q294.522 1524.47 294.522 1531.6 Q294.522 1538.71 296.328 1542.27 Q298.157 1545.82 301.768 1545.82 Q305.402 1545.82 307.207 1542.27 Q309.036 1538.71 309.036 1531.6 Q309.036 1524.47 307.207 1520.93 Q305.402 1517.37 301.768 1517.37 M301.768 1513.66 Q307.578 1513.66 310.633 1518.27 Q313.712 1522.85 313.712 1531.6 Q313.712 1540.33 310.633 1544.94 Q307.578 1549.52 301.768 1549.52 Q295.957 1549.52 292.879 1544.94 Q289.823 1540.33 289.823 1531.6 Q289.823 1522.85 292.879 1518.27 Q295.957 1513.66 301.768 1513.66 Z" fill="#000000" fill-rule="evenodd" fill-opacity="1" /><path clip-path="url(#clip700)" d="M322.74 1544.91 L330.379 1544.91 L330.379 1518.55 L322.068 1520.21 L322.068 1515.95 L330.332 1514.29 L335.008 1514.29 L335.008 1544.91 L342.647 1544.91 L342.647 1548.85 L322.74 1548.85 L322.74 1544.91 Z" fill="#000000" fill-rule="evenodd" fill-opacity="1" /><path clip-path="url(#clip700)" d="M676.826 1544.91 L693.146 1544.91 L693.146 1548.85 L671.201 1548.85 L671.201 1544.91 Q673.863 1542.16 678.447 1537.53 Q683.053 1532.88 684.234 1531.53 Q686.479 1529.01 687.359 1527.27 Q688.261 1525.51 688.261 1523.82 Q688.261 1521.07 686.317 1519.33 Q684.396 1517.6 681.294 1517.6 Q679.095 1517.6 676.641 1518.36 Q674.211 1519.13 671.433 1520.68 L671.433 1515.95 Q674.257 1514.82 676.711 1514.24 Q679.164 1513.66 681.201 1513.66 Q686.572 1513.66 689.766 1516.35 Q692.96 1519.03 692.96 1523.52 Q692.96 1525.65 692.15 1527.57 Q691.363 1529.47 689.257 1532.07 Q688.678 1532.74 685.576 1535.95 Q682.474 1539.15 676.826 1544.91 Z" fill="#000000" fill-rule="evenodd" fill-opacity="1" /><path clip-path="url(#clip700)" d="M712.96 1517.37 Q709.349 1517.37 707.521 1520.93 Q705.715 1524.47 705.715 1531.6 Q705.715 1538.71 707.521 1542.27 Q709.349 1545.82 712.96 1545.82 Q716.595 1545.82 718.4 1542.27 Q720.229 1538.71 720.229 1531.6 Q720.229 1524.47 718.4 1520.93 Q716.595 1517.37 712.96 1517.37 M712.96 1513.66 Q718.771 1513.66 721.826 1518.27 Q724.905 1522.85 724.905 1531.6 Q724.905 1540.33 721.826 1544.94 Q718.771 1549.52 712.96 1549.52 Q707.15 1549.52 704.072 1544.94 Q701.016 1540.33 701.016 1531.6 Q701.016 1522.85 704.072 1518.27 Q707.15 1513.66 712.96 1513.66 Z" fill="#000000" fill-rule="evenodd" fill-opacity="1" /><path clip-path="url(#clip700)" d="M737.15 1544.91 L753.469 1544.91 L753.469 1548.85 L731.525 1548.85 L731.525 1544.91 Q734.187 1542.16 738.77 1537.53 Q743.377 1532.88 744.557 1531.53 Q746.803 1529.01 747.682 1527.27 Q748.585 1525.51 748.585 1523.82 Q748.585 1521.07 746.641 1519.33 Q744.719 1517.6 741.618 1517.6 Q739.419 1517.6 736.965 1518.36 Q734.534 1519.13 731.757 1520.68 L731.757 1515.95 Q734.581 1514.82 737.034 1514.24 Q739.488 1513.66 741.525 1513.66 Q746.895 1513.66 750.09 1516.35 Q753.284 1519.03 753.284 1523.52 Q753.284 1525.65 752.474 1527.57 Q751.687 1529.47 749.581 1532.07 Q749.002 1532.74 745.9 1535.95 Q742.798 1539.15 737.15 1544.91 Z" fill="#000000" fill-rule="evenodd" fill-opacity="1" /><path clip-path="url(#clip700)" d="M767.312 1544.91 L783.631 1544.91 L783.631 1548.85 L761.687 1548.85 L761.687 1544.91 Q764.349 1542.16 768.932 1537.53 Q773.539 1532.88 774.719 1531.53 Q776.965 1529.01 777.844 1527.27 Q778.747 1525.51 778.747 1523.82 Q778.747 1521.07 776.803 1519.33 Q774.881 1517.6 771.78 1517.6 Q769.58 1517.6 767.127 1518.36 Q764.696 1519.13 761.918 1520.68 L761.918 1515.95 Q764.743 1514.82 767.196 1514.24 Q769.65 1513.66 771.687 1513.66 Q777.057 1513.66 780.252 1516.35 Q783.446 1519.03 783.446 1523.52 Q783.446 1525.65 782.636 1527.57 Q781.849 1529.47 779.742 1532.07 Q779.164 1532.74 776.062 1535.95 Q772.96 1539.15 767.312 1544.91 Z" fill="#000000" fill-rule="evenodd" fill-opacity="1" /><path clip-path="url(#clip700)" d="M790.691 1533.96 L803.168 1533.96 L803.168 1537.76 L790.691 1537.76 L790.691 1533.96 Z" fill="#000000" fill-rule="evenodd" fill-opacity="1" /><path clip-path="url(#clip700)" d="M820.552 1517.37 Q816.941 1517.37 815.113 1520.93 Q813.307 1524.47 813.307 1531.6 Q813.307 1538.71 815.113 1542.27 Q816.941 1545.82 820.552 1545.82 Q824.187 1545.82 825.992 1542.27 Q827.821 1538.71 827.821 1531.6 Q827.821 1524.47 825.992 1520.93 Q824.187 1517.37 820.552 1517.37 M820.552 1513.66 Q826.363 1513.66 829.418 1518.27 Q832.497 1522.85 832.497 1531.6 Q832.497 1540.33 829.418 1544.94 Q826.363 1549.52 820.552 1549.52 Q814.742 1549.52 811.664 1544.94 Q808.608 1540.33 808.608 1531.6 Q808.608 1522.85 811.664 1518.27 Q814.742 1513.66 820.552 1513.66 Z" fill="#000000" fill-rule="evenodd" fill-opacity="1" /><path clip-path="url(#clip700)" d="M840.761 1514.29 L859.117 1514.29 L859.117 1518.22 L845.043 1518.22 L845.043 1526.7 Q846.062 1526.35 847.08 1526.19 Q848.099 1526 849.117 1526 Q854.904 1526 858.284 1529.17 Q861.663 1532.34 861.663 1537.76 Q861.663 1543.34 858.191 1546.44 Q854.719 1549.52 848.399 1549.52 Q846.224 1549.52 843.955 1549.15 Q841.71 1548.78 839.302 1548.04 L839.302 1543.34 Q841.386 1544.47 843.608 1545.03 Q845.83 1545.58 848.307 1545.58 Q852.311 1545.58 854.649 1543.48 Q856.987 1541.37 856.987 1537.76 Q856.987 1534.15 854.649 1532.04 Q852.311 1529.94 848.307 1529.94 Q846.432 1529.94 844.557 1530.35 Q842.705 1530.77 840.761 1531.65 L840.761 1514.29 Z" fill="#000000" fill-rule="evenodd" fill-opacity="1" /><path clip-path="url(#clip700)" d="M868.122 1533.96 L880.598 1533.96 L880.598 1537.76 L868.122 1537.76 L868.122 1533.96 Z" fill="#000000" fill-rule="evenodd" fill-opacity="1" /><path clip-path="url(#clip700)" d="M897.983 1517.37 Q894.371 1517.37 892.543 1520.93 Q890.737 1524.47 890.737 1531.6 Q890.737 1538.71 892.543 1542.27 Q894.371 1545.82 897.983 1545.82 Q901.617 1545.82 903.422 1542.27 Q905.251 1538.71 905.251 1531.6 Q905.251 1524.47 903.422 1520.93 Q901.617 1517.37 897.983 1517.37 M897.983 1513.66 Q903.793 1513.66 906.848 1518.27 Q909.927 1522.85 909.927 1531.6 Q909.927 1540.33 906.848 1544.94 Q903.793 1549.52 897.983 1549.52 Q892.172 1549.52 889.094 1544.94 Q886.038 1540.33 886.038 1531.6 Q886.038 1522.85 889.094 1518.27 Q892.172 1513.66 897.983 1513.66 Z" fill="#000000" fill-rule="evenodd" fill-opacity="1" /><path clip-path="url(#clip700)" d="M918.955 1544.91 L926.593 1544.91 L926.593 1518.55 L918.283 1520.21 L918.283 1515.95 L926.547 1514.29 L931.223 1514.29 L931.223 1544.91 L938.862 1544.91 L938.862 1548.85 L918.955 1548.85 L918.955 1544.91 Z" fill="#000000" fill-rule="evenodd" fill-opacity="1" /><path clip-path="url(#clip700)" d="M1287.95 1544.91 L1304.27 1544.91 L1304.27 1548.85 L1282.32 1548.85 L1282.32 1544.91 Q1284.98 1542.16 1289.57 1537.53 Q1294.17 1532.88 1295.35 1531.53 Q1297.6 1529.01 1298.48 1527.27 Q1299.38 1525.51 1299.38 1523.82 Q1299.38 1521.07 1297.44 1519.33 Q1295.52 1517.6 1292.41 1517.6 Q1290.22 1517.6 1287.76 1518.36 Q1285.33 1519.13 1282.55 1520.68 L1282.55 1515.95 Q1285.38 1514.82 1287.83 1514.24 Q1290.28 1513.66 1292.32 1513.66 Q1297.69 1513.66 1300.89 1516.35 Q1304.08 1519.03 1304.08 1523.52 Q1304.08 1525.65 1303.27 1527.57 Q1302.48 1529.47 1300.38 1532.07 Q1299.8 1532.74 1296.7 1535.95 Q1293.59 1539.15 1287.95 1544.91 Z" fill="#000000" fill-rule="evenodd" fill-opacity="1" /><path clip-path="url(#clip700)" d="M1324.08 1517.37 Q1320.47 1517.37 1318.64 1520.93 Q1316.84 1524.47 1316.84 1531.6 Q1316.84 1538.71 1318.64 1542.27 Q1320.47 1545.82 1324.08 1545.82 Q1327.71 1545.82 1329.52 1542.27 Q1331.35 1538.71 1331.35 1531.6 Q1331.35 1524.47 1329.52 1520.93 Q1327.71 1517.37 1324.08 1517.37 M1324.08 1513.66 Q1329.89 1513.66 1332.95 1518.27 Q1336.03 1522.85 1336.03 1531.6 Q1336.03 1540.33 1332.95 1544.94 Q1329.89 1549.52 1324.08 1549.52 Q1318.27 1549.52 1315.19 1544.94 Q1312.14 1540.33 1312.14 1531.6 Q1312.14 1522.85 1315.19 1518.27 Q1318.27 1513.66 1324.08 1513.66 Z" fill="#000000" fill-rule="evenodd" fill-opacity="1" /><path clip-path="url(#clip700)" d="M1348.27 1544.91 L1364.59 1544.91 L1364.59 1548.85 L1342.65 1548.85 L1342.65 1544.91 Q1345.31 1542.16 1349.89 1537.53 Q1354.5 1532.88 1355.68 1531.53 Q1357.92 1529.01 1358.8 1527.27 Q1359.71 1525.51 1359.71 1523.82 Q1359.71 1521.07 1357.76 1519.33 Q1355.84 1517.6 1352.74 1517.6 Q1350.54 1517.6 1348.09 1518.36 Q1345.65 1519.13 1342.88 1520.68 L1342.88 1515.95 Q1345.7 1514.82 1348.15 1514.24 Q1350.61 1513.66 1352.65 1513.66 Q1358.02 1513.66 1361.21 1516.35 Q1364.4 1519.03 1364.4 1523.52 Q1364.4 1525.65 1363.59 1527.57 Q1362.81 1529.47 1360.7 1532.07 Q1360.12 1532.74 1357.02 1535.95 Q1353.92 1539.15 1348.27 1544.91 Z" fill="#000000" fill-rule="evenodd" fill-opacity="1" /><path clip-path="url(#clip700)" d="M1378.43 1544.91 L1394.75 1544.91 L1394.75 1548.85 L1372.81 1548.85 L1372.81 1544.91 Q1375.47 1542.16 1380.05 1537.53 Q1384.66 1532.88 1385.84 1531.53 Q1388.08 1529.01 1388.96 1527.27 Q1389.87 1525.51 1389.87 1523.82 Q1389.87 1521.07 1387.92 1519.33 Q1386 1517.6 1382.9 1517.6 Q1380.7 1517.6 1378.25 1518.36 Q1375.82 1519.13 1373.04 1520.68 L1373.04 1515.95 Q1375.86 1514.82 1378.32 1514.24 Q1380.77 1513.66 1382.81 1513.66 Q1388.18 1513.66 1391.37 1516.35 Q1394.57 1519.03 1394.57 1523.52 Q1394.57 1525.65 1393.76 1527.57 Q1392.97 1529.47 1390.86 1532.07 Q1390.28 1532.74 1387.18 1535.95 Q1384.08 1539.15 1378.43 1544.91 Z" fill="#000000" fill-rule="evenodd" fill-opacity="1" /><path clip-path="url(#clip700)" d="M1401.81 1533.96 L1414.29 1533.96 L1414.29 1537.76 L1401.81 1537.76 L1401.81 1533.96 Z" fill="#000000" fill-rule="evenodd" fill-opacity="1" /><path clip-path="url(#clip700)" d="M1431.67 1517.37 Q1428.06 1517.37 1426.23 1520.93 Q1424.43 1524.47 1424.43 1531.6 Q1424.43 1538.71 1426.23 1542.27 Q1428.06 1545.82 1431.67 1545.82 Q1435.31 1545.82 1437.11 1542.27 Q1438.94 1538.71 1438.94 1531.6 Q1438.94 1524.47 1437.11 1520.93 Q1435.31 1517.37 1431.67 1517.37 M1431.67 1513.66 Q1437.48 1513.66 1440.54 1518.27 Q1443.62 1522.85 1443.62 1531.6 Q1443.62 1540.33 1440.54 1544.94 Q1437.48 1549.52 1431.67 1549.52 Q1425.86 1549.52 1422.78 1544.94 Q1419.73 1540.33 1419.73 1531.6 Q1419.73 1522.85 1422.78 1518.27 Q1425.86 1513.66 1431.67 1513.66 Z" fill="#000000" fill-rule="evenodd" fill-opacity="1" /><path clip-path="url(#clip700)" d="M1451.97 1548.13 L1451.97 1543.87 Q1453.73 1544.7 1455.54 1545.14 Q1457.34 1545.58 1459.08 1545.58 Q1463.71 1545.58 1466.14 1542.48 Q1468.59 1539.36 1468.94 1533.01 Q1467.6 1535.01 1465.54 1536.07 Q1463.48 1537.13 1460.98 1537.13 Q1455.79 1537.13 1452.76 1534.01 Q1449.75 1530.86 1449.75 1525.42 Q1449.75 1520.1 1452.9 1516.88 Q1456.05 1513.66 1461.28 1513.66 Q1467.27 1513.66 1470.42 1518.27 Q1473.59 1522.85 1473.59 1531.6 Q1473.59 1539.77 1469.7 1544.66 Q1465.84 1549.52 1459.29 1549.52 Q1457.53 1549.52 1455.72 1549.17 Q1453.92 1548.82 1451.97 1548.13 M1461.28 1533.48 Q1464.43 1533.48 1466.26 1531.32 Q1468.11 1529.17 1468.11 1525.42 Q1468.11 1521.7 1466.26 1519.54 Q1464.43 1517.37 1461.28 1517.37 Q1458.13 1517.37 1456.28 1519.54 Q1454.45 1521.7 1454.45 1525.42 Q1454.45 1529.17 1456.28 1531.32 Q1458.13 1533.48 1461.28 1533.48 Z" fill="#000000" fill-rule="evenodd" fill-opacity="1" /><path clip-path="url(#clip700)" d="M1479.24 1533.96 L1491.72 1533.96 L1491.72 1537.76 L1479.24 1537.76 L1479.24 1533.96 Z" fill="#000000" fill-rule="evenodd" fill-opacity="1" /><path clip-path="url(#clip700)" d="M1509.1 1517.37 Q1505.49 1517.37 1503.66 1520.93 Q1501.86 1524.47 1501.86 1531.6 Q1501.86 1538.71 1503.66 1542.27 Q1505.49 1545.82 1509.1 1545.82 Q1512.74 1545.82 1514.54 1542.27 Q1516.37 1538.71 1516.37 1531.6 Q1516.37 1524.47 1514.54 1520.93 Q1512.74 1517.37 1509.1 1517.37 M1509.1 1513.66 Q1514.91 1513.66 1517.97 1518.27 Q1521.05 1522.85 1521.05 1531.6 Q1521.05 1540.33 1517.97 1544.94 Q1514.91 1549.52 1509.1 1549.52 Q1503.29 1549.52 1500.21 1544.94 Q1497.16 1540.33 1497.16 1531.6 Q1497.16 1522.85 1500.21 1518.27 Q1503.29 1513.66 1509.1 1513.66 Z" fill="#000000" fill-rule="evenodd" fill-opacity="1" /><path clip-path="url(#clip700)" d="M1530.07 1544.91 L1537.71 1544.91 L1537.71 1518.55 L1529.4 1520.21 L1529.4 1515.95 L1537.67 1514.29 L1542.34 1514.29 L1542.34 1544.91 L1549.98 1544.91 L1549.98 1548.85 L1530.07 1548.85 L1530.07 1544.91 Z" fill="#000000" fill-rule="evenodd" fill-opacity="1" /><path clip-path="url(#clip700)" d="M1894.1 1544.91 L1910.42 1544.91 L1910.42 1548.85 L1888.47 1548.85 L1888.47 1544.91 Q1891.14 1542.16 1895.72 1537.53 Q1900.33 1532.88 1901.51 1531.53 Q1903.75 1529.01 1904.63 1527.27 Q1905.53 1525.51 1905.53 1523.82 Q1905.53 1521.07 1903.59 1519.33 Q1901.67 1517.6 1898.57 1517.6 Q1896.37 1517.6 1893.91 1518.36 Q1891.48 1519.13 1888.7 1520.68 L1888.7 1515.95 Q1891.53 1514.82 1893.98 1514.24 Q1896.44 1513.66 1898.47 1513.66 Q1903.84 1513.66 1907.04 1516.35 Q1910.23 1519.03 1910.23 1523.52 Q1910.23 1525.65 1909.42 1527.57 Q1908.64 1529.47 1906.53 1532.07 Q1905.95 1532.74 1902.85 1535.95 Q1899.75 1539.15 1894.1 1544.91 Z" fill="#000000" fill-rule="evenodd" fill-opacity="1" /><path clip-path="url(#clip700)" d="M1930.23 1517.37 Q1926.62 1517.37 1924.79 1520.93 Q1922.99 1524.47 1922.99 1531.6 Q1922.99 1538.71 1924.79 1542.27 Q1926.62 1545.82 1930.23 1545.82 Q1933.87 1545.82 1935.67 1542.27 Q1937.5 1538.71 1937.5 1531.6 Q1937.5 1524.47 1935.67 1520.93 Q1933.87 1517.37 1930.23 1517.37 M1930.23 1513.66 Q1936.04 1513.66 1939.1 1518.27 Q1942.18 1522.85 1942.18 1531.6 Q1942.18 1540.33 1939.1 1544.94 Q1936.04 1549.52 1930.23 1549.52 Q1924.42 1549.52 1921.34 1544.94 Q1918.29 1540.33 1918.29 1531.6 Q1918.29 1522.85 1921.34 1518.27 Q1924.42 1513.66 1930.23 1513.66 Z" fill="#000000" fill-rule="evenodd" fill-opacity="1" /><path clip-path="url(#clip700)" d="M1954.42 1544.91 L1970.74 1544.91 L1970.74 1548.85 L1948.8 1548.85 L1948.8 1544.91 Q1951.46 1542.16 1956.04 1537.53 Q1960.65 1532.88 1961.83 1531.53 Q1964.07 1529.01 1964.95 1527.27 Q1965.86 1525.51 1965.86 1523.82 Q1965.86 1521.07 1963.91 1519.33 Q1961.99 1517.6 1958.89 1517.6 Q1956.69 1517.6 1954.24 1518.36 Q1951.81 1519.13 1949.03 1520.68 L1949.03 1515.95 Q1951.85 1514.82 1954.31 1514.24 Q1956.76 1513.66 1958.8 1513.66 Q1964.17 1513.66 1967.36 1516.35 Q1970.56 1519.03 1970.56 1523.52 Q1970.56 1525.65 1969.75 1527.57 Q1968.96 1529.47 1966.85 1532.07 Q1966.27 1532.74 1963.17 1535.95 Q1960.07 1539.15 1954.42 1544.91 Z" fill="#000000" fill-rule="evenodd" fill-opacity="1" /><path clip-path="url(#clip700)" d="M1994.72 1530.21 Q1998.08 1530.93 1999.95 1533.2 Q2001.85 1535.47 2001.85 1538.8 Q2001.85 1543.92 1998.33 1546.72 Q1994.82 1549.52 1988.33 1549.52 Q1986.16 1549.52 1983.84 1549.08 Q1981.55 1548.66 1979.1 1547.81 L1979.1 1543.29 Q1981.04 1544.43 1983.36 1545.01 Q1985.67 1545.58 1988.2 1545.58 Q1992.59 1545.58 1994.88 1543.85 Q1997.2 1542.11 1997.2 1538.8 Q1997.2 1535.75 1995.05 1534.03 Q1992.92 1532.3 1989.1 1532.3 L1985.07 1532.3 L1985.07 1528.45 L1989.28 1528.45 Q1992.73 1528.45 1994.56 1527.09 Q1996.39 1525.7 1996.39 1523.11 Q1996.39 1520.45 1994.49 1519.03 Q1992.62 1517.6 1989.1 1517.6 Q1987.18 1517.6 1984.98 1518.01 Q1982.78 1518.43 1980.14 1519.31 L1980.14 1515.14 Q1982.8 1514.4 1985.12 1514.03 Q1987.45 1513.66 1989.51 1513.66 Q1994.84 1513.66 1997.94 1516.09 Q2001.04 1518.5 2001.04 1522.62 Q2001.04 1525.49 1999.4 1527.48 Q1997.76 1529.45 1994.72 1530.21 Z" fill="#000000" fill-rule="evenodd" fill-opacity="1" /><path clip-path="url(#clip700)" d="M2007.96 1533.96 L2020.44 1533.96 L2020.44 1537.76 L2007.96 1537.76 L2007.96 1533.96 Z" fill="#000000" fill-rule="evenodd" fill-opacity="1" /><path clip-path="url(#clip700)" d="M2037.82 1517.37 Q2034.21 1517.37 2032.38 1520.93 Q2030.58 1524.47 2030.58 1531.6 Q2030.58 1538.71 2032.38 1542.27 Q2034.21 1545.82 2037.82 1545.82 Q2041.46 1545.82 2043.26 1542.27 Q2045.09 1538.71 2045.09 1531.6 Q2045.09 1524.47 2043.26 1520.93 Q2041.46 1517.37 2037.82 1517.37 M2037.82 1513.66 Q2043.63 1513.66 2046.69 1518.27 Q2049.77 1522.85 2049.77 1531.6 Q2049.77 1540.33 2046.69 1544.94 Q2043.63 1549.52 2037.82 1549.52 Q2032.01 1549.52 2028.94 1544.94 Q2025.88 1540.33 2025.88 1531.6 Q2025.88 1522.85 2028.94 1518.27 Q2032.01 1513.66 2037.82 1513.66 Z" fill="#000000" fill-rule="evenodd" fill-opacity="1" /><path clip-path="url(#clip700)" d="M2058.8 1544.91 L2066.44 1544.91 L2066.44 1518.55 L2058.13 1520.21 L2058.13 1515.95 L2066.39 1514.29 L2071.07 1514.29 L2071.07 1544.91 L2078.7 1544.91 L2078.7 1548.85 L2058.8 1548.85 L2058.8 1544.91 Z" fill="#000000" fill-rule="evenodd" fill-opacity="1" /><path clip-path="url(#clip700)" d="M2085.39 1533.96 L2097.87 1533.96 L2097.87 1537.76 L2085.39 1537.76 L2085.39 1533.96 Z" fill="#000000" fill-rule="evenodd" fill-opacity="1" /><path clip-path="url(#clip700)" d="M2115.25 1517.37 Q2111.64 1517.37 2109.81 1520.93 Q2108.01 1524.47 2108.01 1531.6 Q2108.01 1538.71 2109.81 1542.27 Q2111.64 1545.82 2115.25 1545.82 Q2118.89 1545.82 2120.69 1542.27 Q2122.52 1538.71 2122.52 1531.6 Q2122.52 1524.47 2120.69 1520.93 Q2118.89 1517.37 2115.25 1517.37 M2115.25 1513.66 Q2121.06 1513.66 2124.12 1518.27 Q2127.2 1522.85 2127.2 1531.6 Q2127.2 1540.33 2124.12 1544.94 Q2121.06 1549.52 2115.25 1549.52 Q2109.44 1549.52 2106.37 1544.94 Q2103.31 1540.33 2103.31 1531.6 Q2103.31 1522.85 2106.37 1518.27 Q2109.44 1513.66 2115.25 1513.66 Z" fill="#000000" fill-rule="evenodd" fill-opacity="1" /><path clip-path="url(#clip700)" d="M2136.23 1544.91 L2143.87 1544.91 L2143.87 1518.55 L2135.56 1520.21 L2135.56 1515.95 L2143.82 1514.29 L2148.5 1514.29 L2148.5 1544.91 L2156.13 1544.91 L2156.13 1548.85 L2136.23 1548.85 L2136.23 1544.91 Z" fill="#000000" fill-rule="evenodd" fill-opacity="1" /><polyline clip-path="url(#clip702)" style="stroke:#000000; stroke-linecap:round; stroke-linejoin:round; stroke-width:2; stroke-opacity:0.1; fill:none" points="156.598,1457.04 2352.76,1457.04 "/>
<polyline clip-path="url(#clip702)" style="stroke:#000000; stroke-linecap:round; stroke-linejoin:round; stroke-width:2; stroke-opacity:0.1; fill:none" points="156.598,1254.96 2352.76,1254.96 "/>
<polyline clip-path="url(#clip702)" style="stroke:#000000; stroke-linecap:round; stroke-linejoin:round; stroke-width:2; stroke-opacity:0.1; fill:none" points="156.598,1052.87 2352.76,1052.87 "/>
<polyline clip-path="url(#clip702)" style="stroke:#000000; stroke-linecap:round; stroke-linejoin:round; stroke-width:2; stroke-opacity:0.1; fill:none" points="156.598,850.781 2352.76,850.781 "/>
<polyline clip-path="url(#clip702)" style="stroke:#000000; stroke-linecap:round; stroke-linejoin:round; stroke-width:2; stroke-opacity:0.1; fill:none" points="156.598,648.693 2352.76,648.693 "/>
<polyline clip-path="url(#clip702)" style="stroke:#000000; stroke-linecap:round; stroke-linejoin:round; stroke-width:2; stroke-opacity:0.1; fill:none" points="156.598,446.606 2352.76,446.606 "/>
<polyline clip-path="url(#clip702)" style="stroke:#000000; stroke-linecap:round; stroke-linejoin:round; stroke-width:2; stroke-opacity:0.1; fill:none" points="156.598,244.518 2352.76,244.518 "/>
<polyline clip-path="url(#clip700)" style="stroke:#000000; stroke-linecap:round; stroke-linejoin:round; stroke-width:4; stroke-opacity:1; fill:none" points="156.598,1486.45 156.598,47.2441 "/>
<polyline clip-path="url(#clip700)" style="stroke:#000000; stroke-linecap:round; stroke-linejoin:round; stroke-width:4; stroke-opacity:1; fill:none" points="156.598,1457.04 175.496,1457.04 "/>
<polyline clip-path="url(#clip700)" style="stroke:#000000; stroke-linecap:round; stroke-linejoin:round; stroke-width:4; stroke-opacity:1; fill:none" points="156.598,1254.96 175.496,1254.96 "/>
<polyline clip-path="url(#clip700)" style="stroke:#000000; stroke-linecap:round; stroke-linejoin:round; stroke-width:4; stroke-opacity:1; fill:none" points="156.598,1052.87 175.496,1052.87 "/>
<polyline clip-path="url(#clip700)" style="stroke:#000000; stroke-linecap:round; stroke-linejoin:round; stroke-width:4; stroke-opacity:1; fill:none" points="156.598,850.781 175.496,850.781 "/>
<polyline clip-path="url(#clip700)" style="stroke:#000000; stroke-linecap:round; stroke-linejoin:round; stroke-width:4; stroke-opacity:1; fill:none" points="156.598,648.693 175.496,648.693 "/>
<polyline clip-path="url(#clip700)" style="stroke:#000000; stroke-linecap:round; stroke-linejoin:round; stroke-width:4; stroke-opacity:1; fill:none" points="156.598,446.606 175.496,446.606 "/>
<polyline clip-path="url(#clip700)" style="stroke:#000000; stroke-linecap:round; stroke-linejoin:round; stroke-width:4; stroke-opacity:1; fill:none" points="156.598,244.518 175.496,244.518 "/>
<path clip-path="url(#clip700)" d="M63.4226 1442.84 Q59.8115 1442.84 57.9828 1446.41 Q56.1773 1449.95 56.1773 1457.08 Q56.1773 1464.19 57.9828 1467.75 Q59.8115 1471.29 63.4226 1471.29 Q67.0569 1471.29 68.8624 1467.75 Q70.6911 1464.19 70.6911 1457.08 Q70.6911 1449.95 68.8624 1446.41 Q67.0569 1442.84 63.4226 1442.84 M63.4226 1439.14 Q69.2328 1439.14 72.2883 1443.75 Q75.367 1448.33 75.367 1457.08 Q75.367 1465.81 72.2883 1470.41 Q69.2328 1475 63.4226 1475 Q57.6125 1475 54.5338 1470.41 Q51.4782 1465.81 51.4782 1457.08 Q51.4782 1448.33 54.5338 1443.75 Q57.6125 1439.14 63.4226 1439.14 Z" fill="#000000" fill-rule="evenodd" fill-opacity="1" /><path clip-path="url(#clip700)" d="M83.5845 1468.44 L88.4688 1468.44 L88.4688 1474.32 L83.5845 1474.32 L83.5845 1468.44 Z" fill="#000000" fill-rule="evenodd" fill-opacity="1" /><path clip-path="url(#clip700)" d="M108.654 1442.84 Q105.043 1442.84 103.214 1446.41 Q101.409 1449.95 101.409 1457.08 Q101.409 1464.19 103.214 1467.75 Q105.043 1471.29 108.654 1471.29 Q112.288 1471.29 114.094 1467.75 Q115.922 1464.19 115.922 1457.08 Q115.922 1449.95 114.094 1446.41 Q112.288 1442.84 108.654 1442.84 M108.654 1439.14 Q114.464 1439.14 117.52 1443.75 Q120.598 1448.33 120.598 1457.08 Q120.598 1465.81 117.52 1470.41 Q114.464 1475 108.654 1475 Q102.844 1475 99.765 1470.41 Q96.7095 1465.81 96.7095 1457.08 Q96.7095 1448.33 99.765 1443.75 Q102.844 1439.14 108.654 1439.14 Z" fill="#000000" fill-rule="evenodd" fill-opacity="1" /><path clip-path="url(#clip700)" d="M64.6495 1240.75 Q61.0384 1240.75 59.2097 1244.32 Q57.4041 1247.86 57.4041 1254.99 Q57.4041 1262.1 59.2097 1265.66 Q61.0384 1269.2 64.6495 1269.2 Q68.2837 1269.2 70.0892 1265.66 Q71.9179 1262.1 71.9179 1254.99 Q71.9179 1247.86 70.0892 1244.32 Q68.2837 1240.75 64.6495 1240.75 M64.6495 1237.05 Q70.4596 1237.05 73.5152 1241.66 Q76.5938 1246.24 76.5938 1254.99 Q76.5938 1263.72 73.5152 1268.32 Q70.4596 1272.91 64.6495 1272.91 Q58.8393 1272.91 55.7606 1268.32 Q52.7051 1263.72 52.7051 1254.99 Q52.7051 1246.24 55.7606 1241.66 Q58.8393 1237.05 64.6495 1237.05 Z" fill="#000000" fill-rule="evenodd" fill-opacity="1" /><path clip-path="url(#clip700)" d="M84.8114 1266.36 L89.6956 1266.36 L89.6956 1272.24 L84.8114 1272.24 L84.8114 1266.36 Z" fill="#000000" fill-rule="evenodd" fill-opacity="1" /><path clip-path="url(#clip700)" d="M100.691 1268.3 L108.33 1268.3 L108.33 1241.94 L100.02 1243.6 L100.02 1239.34 L108.283 1237.68 L112.959 1237.68 L112.959 1268.3 L120.598 1268.3 L120.598 1272.24 L100.691 1272.24 L100.691 1268.3 Z" fill="#000000" fill-rule="evenodd" fill-opacity="1" /><path clip-path="url(#clip700)" d="M65.0198 1038.67 Q61.4087 1038.67 59.58 1042.23 Q57.7745 1045.77 57.7745 1052.9 Q57.7745 1060.01 59.58 1063.57 Q61.4087 1067.12 65.0198 1067.12 Q68.6541 1067.12 70.4596 1063.57 Q72.2883 1060.01 72.2883 1052.9 Q72.2883 1045.77 70.4596 1042.23 Q68.6541 1038.67 65.0198 1038.67 M65.0198 1034.96 Q70.83 1034.96 73.8855 1039.57 Q76.9642 1044.15 76.9642 1052.9 Q76.9642 1061.63 73.8855 1066.24 Q70.83 1070.82 65.0198 1070.82 Q59.2097 1070.82 56.131 1066.24 Q53.0754 1061.63 53.0754 1052.9 Q53.0754 1044.15 56.131 1039.57 Q59.2097 1034.96 65.0198 1034.96 Z" fill="#000000" fill-rule="evenodd" fill-opacity="1" /><path clip-path="url(#clip700)" d="M85.1818 1064.27 L90.066 1064.27 L90.066 1070.15 L85.1818 1070.15 L85.1818 1064.27 Z" fill="#000000" fill-rule="evenodd" fill-opacity="1" /><path clip-path="url(#clip700)" d="M104.279 1066.21 L120.598 1066.21 L120.598 1070.15 L98.6539 1070.15 L98.6539 1066.21 Q101.316 1063.46 105.899 1058.83 Q110.506 1054.18 111.686 1052.83 Q113.932 1050.31 114.811 1048.57 Q115.714 1046.82 115.714 1045.13 Q115.714 1042.37 113.77 1040.63 Q111.848 1038.9 108.746 1038.9 Q106.547 1038.9 104.094 1039.66 Q101.663 1040.43 98.8854 1041.98 L98.8854 1037.26 Q101.709 1036.12 104.163 1035.54 Q106.617 1034.96 108.654 1034.96 Q114.024 1034.96 117.219 1037.65 Q120.413 1040.33 120.413 1044.82 Q120.413 1046.95 119.603 1048.88 Q118.816 1050.77 116.709 1053.37 Q116.131 1054.04 113.029 1057.26 Q109.927 1060.45 104.279 1066.21 Z" fill="#000000" fill-rule="evenodd" fill-opacity="1" /><path clip-path="url(#clip700)" d="M64.0708 836.58 Q60.4597 836.58 58.631 840.144 Q56.8254 843.686 56.8254 850.816 Q56.8254 857.922 58.631 861.487 Q60.4597 865.029 64.0708 865.029 Q67.705 865.029 69.5105 861.487 Q71.3392 857.922 71.3392 850.816 Q71.3392 843.686 69.5105 840.144 Q67.705 836.58 64.0708 836.58 M64.0708 832.876 Q69.8809 832.876 72.9365 837.482 Q76.0151 842.066 76.0151 850.816 Q76.0151 859.542 72.9365 864.149 Q69.8809 868.732 64.0708 868.732 Q58.2606 868.732 55.1819 864.149 Q52.1264 859.542 52.1264 850.816 Q52.1264 842.066 55.1819 837.482 Q58.2606 832.876 64.0708 832.876 Z" fill="#000000" fill-rule="evenodd" fill-opacity="1" /><path clip-path="url(#clip700)" d="M84.2327 862.181 L89.1169 862.181 L89.1169 868.061 L84.2327 868.061 L84.2327 862.181 Z" fill="#000000" fill-rule="evenodd" fill-opacity="1" /><path clip-path="url(#clip700)" d="M113.469 849.427 Q116.825 850.144 118.7 852.413 Q120.598 854.681 120.598 858.015 Q120.598 863.13 117.08 865.931 Q113.561 868.732 107.08 868.732 Q104.904 868.732 102.589 868.292 Q100.297 867.876 97.8437 867.019 L97.8437 862.505 Q99.7882 863.64 102.103 864.218 Q104.418 864.797 106.941 864.797 Q111.339 864.797 113.631 863.061 Q115.945 861.325 115.945 858.015 Q115.945 854.959 113.793 853.246 Q111.663 851.51 107.844 851.51 L103.816 851.51 L103.816 847.668 L108.029 847.668 Q111.478 847.668 113.307 846.302 Q115.135 844.913 115.135 842.32 Q115.135 839.658 113.237 838.246 Q111.362 836.811 107.844 836.811 Q105.922 836.811 103.723 837.228 Q101.524 837.644 98.8854 838.524 L98.8854 834.357 Q101.547 833.617 103.862 833.246 Q106.2 832.876 108.26 832.876 Q113.584 832.876 116.686 835.306 Q119.788 837.714 119.788 841.834 Q119.788 844.705 118.145 846.695 Q116.501 848.663 113.469 849.427 Z" fill="#000000" fill-rule="evenodd" fill-opacity="1" /><path clip-path="url(#clip700)" d="M62.9365 634.492 Q59.3254 634.492 57.4967 638.057 Q55.6912 641.598 55.6912 648.728 Q55.6912 655.834 57.4967 659.399 Q59.3254 662.941 62.9365 662.941 Q66.5707 662.941 68.3763 659.399 Q70.205 655.834 70.205 648.728 Q70.205 641.598 68.3763 638.057 Q66.5707 634.492 62.9365 634.492 M62.9365 630.788 Q68.7467 630.788 71.8022 635.395 Q74.8809 639.978 74.8809 648.728 Q74.8809 657.455 71.8022 662.061 Q68.7467 666.645 62.9365 666.645 Q57.1264 666.645 54.0477 662.061 Q50.9921 657.455 50.9921 648.728 Q50.9921 639.978 54.0477 635.395 Q57.1264 630.788 62.9365 630.788 Z" fill="#000000" fill-rule="evenodd" fill-opacity="1" /><path clip-path="url(#clip700)" d="M83.0984 660.094 L87.9827 660.094 L87.9827 665.973 L83.0984 665.973 L83.0984 660.094 Z" fill="#000000" fill-rule="evenodd" fill-opacity="1" /><path clip-path="url(#clip700)" d="M111.015 635.487 L99.2095 653.936 L111.015 653.936 L111.015 635.487 M109.788 631.413 L115.668 631.413 L115.668 653.936 L120.598 653.936 L120.598 657.825 L115.668 657.825 L115.668 665.973 L111.015 665.973 L111.015 657.825 L95.4132 657.825 L95.4132 653.311 L109.788 631.413 Z" fill="#000000" fill-rule="evenodd" fill-opacity="1" /><path clip-path="url(#clip700)" d="M64.418 432.404 Q60.8069 432.404 58.9782 435.969 Q57.1726 439.511 57.1726 446.64 Q57.1726 453.747 58.9782 457.312 Q60.8069 460.853 64.418 460.853 Q68.0522 460.853 69.8578 457.312 Q71.6865 453.747 71.6865 446.64 Q71.6865 439.511 69.8578 435.969 Q68.0522 432.404 64.418 432.404 M64.418 428.701 Q70.2281 428.701 73.2837 433.307 Q76.3624 437.89 76.3624 446.64 Q76.3624 455.367 73.2837 459.974 Q70.2281 464.557 64.418 464.557 Q58.6078 464.557 55.5291 459.974 Q52.4736 455.367 52.4736 446.64 Q52.4736 437.89 55.5291 433.307 Q58.6078 428.701 64.418 428.701 Z" fill="#000000" fill-rule="evenodd" fill-opacity="1" /><path clip-path="url(#clip700)" d="M84.5799 458.006 L89.4641 458.006 L89.4641 463.886 L84.5799 463.886 L84.5799 458.006 Z" fill="#000000" fill-rule="evenodd" fill-opacity="1" /><path clip-path="url(#clip700)" d="M99.6956 429.326 L118.052 429.326 L118.052 433.261 L103.978 433.261 L103.978 441.733 Q104.996 441.386 106.015 441.224 Q107.033 441.039 108.052 441.039 Q113.839 441.039 117.219 444.21 Q120.598 447.381 120.598 452.798 Q120.598 458.376 117.126 461.478 Q113.654 464.557 107.334 464.557 Q105.159 464.557 102.89 464.187 Q100.645 463.816 98.2372 463.075 L98.2372 458.376 Q100.321 459.511 102.543 460.066 Q104.765 460.622 107.242 460.622 Q111.246 460.622 113.584 458.515 Q115.922 456.409 115.922 452.798 Q115.922 449.187 113.584 447.08 Q111.246 444.974 107.242 444.974 Q105.367 444.974 103.492 445.39 Q101.64 445.807 99.6956 446.687 L99.6956 429.326 Z" fill="#000000" fill-rule="evenodd" fill-opacity="1" /><path clip-path="url(#clip700)" d="M63.2606 230.317 Q59.6495 230.317 57.8208 233.881 Q56.0152 237.423 56.0152 244.553 Q56.0152 251.659 57.8208 255.224 Q59.6495 258.766 63.2606 258.766 Q66.8948 258.766 68.7004 255.224 Q70.5291 251.659 70.5291 244.553 Q70.5291 237.423 68.7004 233.881 Q66.8948 230.317 63.2606 230.317 M63.2606 226.613 Q69.0707 226.613 72.1263 231.219 Q75.205 235.803 75.205 244.553 Q75.205 253.279 72.1263 257.886 Q69.0707 262.469 63.2606 262.469 Q57.4504 262.469 54.3717 257.886 Q51.3162 253.279 51.3162 244.553 Q51.3162 235.803 54.3717 231.219 Q57.4504 226.613 63.2606 226.613 Z" fill="#000000" fill-rule="evenodd" fill-opacity="1" /><path clip-path="url(#clip700)" d="M83.4225 255.918 L88.3067 255.918 L88.3067 261.798 L83.4225 261.798 L83.4225 255.918 Z" fill="#000000" fill-rule="evenodd" fill-opacity="1" /><path clip-path="url(#clip700)" d="M109.071 242.655 Q105.922 242.655 104.071 244.807 Q102.242 246.96 102.242 250.71 Q102.242 254.437 104.071 256.613 Q105.922 258.766 109.071 258.766 Q112.219 258.766 114.047 256.613 Q115.899 254.437 115.899 250.71 Q115.899 246.96 114.047 244.807 Q112.219 242.655 109.071 242.655 M118.353 228.002 L118.353 232.261 Q116.594 231.428 114.788 230.988 Q113.006 230.548 111.246 230.548 Q106.617 230.548 104.163 233.673 Q101.733 236.798 101.385 243.118 Q102.751 241.104 104.811 240.039 Q106.871 238.951 109.348 238.951 Q114.557 238.951 117.566 242.122 Q120.598 245.27 120.598 250.71 Q120.598 256.034 117.45 259.252 Q114.302 262.469 109.071 262.469 Q103.075 262.469 99.9039 257.886 Q96.7326 253.279 96.7326 244.553 Q96.7326 236.358 100.621 231.497 Q104.51 226.613 111.061 226.613 Q112.82 226.613 114.603 226.96 Q116.408 227.307 118.353 228.002 Z" fill="#000000" fill-rule="evenodd" fill-opacity="1" /><polyline clip-path="url(#clip702)" style="stroke:#009af9; stroke-linecap:round; stroke-linejoin:round; stroke-width:4; stroke-opacity:1; fill:none" points="218.754,1419.48 223.722,1420.29 228.691,1419.47 233.659,1413 238.627,1411.78 253.533,1412.75 258.501,1416.06 263.47,1418.25 268.438,1416.76 273.407,1408.5 293.281,1407.99 298.249,1397.41 303.217,1394.49 308.186,1378.4 323.091,1349.75 328.06,1357.65 333.028,1338.71 337.997,1329 342.965,1320.05 357.87,1363.97 362.839,1383.46 367.807,1392.11 372.776,1402.96 377.744,1385.37 392.65,1393.06 397.618,1384.17 402.587,1391.81 407.555,1406.14 412.523,1405.5 427.429,1394.6 432.397,1384.85 437.366,1388.02 442.334,1387.62 447.303,1370.11 467.177,1383.61 472.145,1371.62 477.113,1365.67 482.082,1368.12 496.987,1398.07 501.956,1389.21 506.924,1371.55 511.893,1381.01 516.861,1378.06 531.766,1377.22 536.735,1342.94 541.703,1323.35 546.672,1340.68 551.64,1318.74 566.546,1282.02 571.514,1235.61 576.483,1289.35 581.451,1330.9 586.42,1352.36 601.325,1359.76 606.293,1358.22 611.262,1376.47 616.23,1349.27 621.199,1366.16 636.104,1369.73 641.073,1372.86 646.041,1379.12 651.009,1368.12 655.978,1342.38 670.883,1345.43 675.852,1361.79 680.82,1355.79 685.789,1340.42 690.757,1336.29 705.662,1331.03 710.631,1284.72 715.599,1281.32 720.568,1301.36 740.442,1273.73 745.41,1282.61 750.379,1317.06 755.347,1309.87 760.316,1325.1 775.221,1213.34 780.189,1293.39 785.158,1239.86 790.126,1191.99 795.095,1300.75 810,1114.04 814.969,1021.72 819.937,1035.14 824.905,1225.89 829.874,970.216 844.779,992.404 849.748,760.335 854.716,612.901 859.685,526.181 864.653,641.53 879.559,976.659 884.527,780.098 889.495,881.633 894.464,340.784 899.432,87.9763 914.338,103.006 919.306,319.427 924.275,257.012 929.243,401.405 934.212,576.112 954.085,843.974 959.054,964.988 964.022,904.538 968.991,1075.41 983.896,967.618 988.865,917.967 993.833,974.076 998.801,996.775 1003.77,778.205 1018.68,651.738 1023.64,301.224 1028.61,405.073 1033.58,801.35 1038.55,355.018 1058.42,537.043 1063.39,839.991 1068.36,869.36 1073.33,719.896 1088.23,856.886 1093.2,751.146 1098.17,390.039 1103.14,670.387 1108.11,517.462 1127.98,680.348 1132.95,607.604 1137.92,470.682 1142.89,842.744 1157.79,1005.04 1162.76,940.577 1167.73,697.544 1172.7,624.358 1177.67,831.041 1192.57,1041.26 1197.54,1058.11 1202.51,1262.49 1207.48,1237.69 1212.45,1189.27 1227.35,1157.96 1232.32,1228.4 1237.29,1083.19 1242.26,1230.25 1247.22,1292.35 1262.13,1368.56 1267.1,1373.56 1272.07,1327.08 1277.04,1358.46 1282,1372.63 1296.91,1378.31 1301.88,1351.43 1306.85,1304.38 1311.81,1322.01 1316.78,1298.52 1331.69,1333.53 1336.66,1319.49 1341.63,1345.63 1346.59,1304.16 1351.56,1299.54 1366.47,1240.9 1371.44,1084.45 1376.4,1105.61 1381.37,1199.13 1386.34,1241.55 1401.25,1022.57 1406.22,1063.89 1411.18,1057.44 1416.15,965.495 1421.12,1009.86 1440.99,1056.1 1445.96,1055.61 1450.93,1095.98 1455.9,1192.67 1470.8,1249.28 1475.77,1230.93 1480.74,994.97 1485.71,1118.25 1490.68,1197.99 1505.58,1134.6 1510.55,1279.07 1515.52,1234.21 1520.49,1010.54 1525.46,1180.81 1540.36,1054.57 1545.33,946.818 1550.3,618.457 1555.27,1107.79 1560.24,1009.04 1575.14,1118.19 1580.11,1226.82 1585.08,1342.61 1590.05,1340.56 1595.02,1264.37 1609.92,1173.13 1614.89,1006.8 1619.86,1202.64 1624.83,1214.11 1629.8,1294.34 1644.7,1141.86 1649.67,1271.49 1654.64,1279.6 1659.61,1185.15 1664.57,991.995 1679.48,1171.31 1684.45,1250.89 1689.42,1241.19 1694.39,1269.2 1699.35,1242.78 1714.26,1284.69 1719.23,1294.05 1724.2,1334.83 1729.16,1341.52 1734.13,1377.2 1749.04,1391.72 1754.01,1388.24 1758.98,1410.52 1763.94,1399.21 1768.91,1412.7 1783.82,1416.54 1788.79,1410.04 1793.75,1398.61 1798.72,1396.21 1803.69,1406.01 1818.6,1408.46 1823.57,1410.36 1828.53,1411.5 1838.47,1413.14 1853.38,1411.81 1858.34,1396.31 1863.31,1395.71 1868.28,1415.53 1873.25,1417.98 1888.16,1419.09 1893.12,1414.4 1898.09,1399.2 1903.06,1402.9 1908.03,1391.11 1922.93,1379.69 1927.9,1383.42 1932.87,1396.06 1937.84,1390.78 1942.81,1380.2 1957.71,1331.46 1962.68,1286.12 1967.65,1247.24 1972.62,1297.69 1977.59,1277.69 1997.46,1248.08 2002.43,1236.96 2007.4,1195.12 2012.37,1263.61 2032.24,1267.57 2037.21,1174.5 2042.18,1207.69 2047.15,1060.71 2062.05,1164.96 2067.02,1152.66 2071.99,1215.06 2076.96,1249.7 2081.93,1297.93 2101.8,1345.9 2106.77,1346.78 2111.74,1312.35 2116.7,1256.8 2131.61,1363.64 2136.58,1382.79 2141.55,1390.79 2146.52,1396.3 2151.48,1400.99 2166.39,1407.52 2171.36,1403.2 2176.33,1401.46 2181.29,1403.65 2186.26,1403.14 2201.17,1389.57 2206.14,1410.92 2211.11,1414.31 2216.07,1414.45 2221.04,1414.08 2235.95,1412.14 2240.92,1419.39 2245.88,1423.16 2250.85,1425.13 2255.82,1425.57 2275.7,1426.55 2280.66,1423.96 2285.63,1419.56 2290.6,1424.87 "/>
<polyline clip-path="url(#clip702)" style="stroke:#e26f46; stroke-linecap:round; stroke-linejoin:round; stroke-width:4; stroke-opacity:1; fill:none" points="218.754,1445.72 223.722,1445.72 228.691,1445.72 233.659,1445.72 238.627,1445.72 253.533,1445.72 258.501,1445.72 263.47,1445.72 268.438,1445.72 273.407,1445.72 293.281,1445.72 298.249,1445.72 303.217,1445.72 308.186,1445.72 323.091,1445.72 328.06,1445.72 333.028,1445.72 337.997,1445.72 342.965,1445.72 357.87,1445.72 362.839,1445.72 367.807,1445.72 372.776,1445.72 377.744,1445.72 392.65,1445.72 397.618,1445.72 402.587,1445.72 407.555,1445.72 412.523,1445.72 427.429,1445.72 432.397,1445.72 437.366,1445.72 442.334,1445.72 447.303,1445.72 467.177,1445.72 472.145,1445.72 477.113,1445.72 482.082,1445.72 496.987,1445.72 501.956,1445.72 506.924,1445.72 511.893,1445.72 516.861,1445.72 531.766,1445.72 536.735,1339 541.703,1345.94 546.672,1245.71 551.64,1258.71 566.546,1292.87 571.514,1302.81 576.483,1312.1 581.451,1320.79 586.42,1328.91 601.325,1350.25 606.293,1356.45 611.262,1362.26 616.23,1367.68 621.199,1372.76 636.104,1386.08 641.073,1389.96 646.041,1393.59 651.009,1396.98 655.978,1400.14 670.883,1408.47 675.852,1410.89 680.82,1413.16 685.789,1415.27 690.757,1417.25 705.662,1422.45 710.631,1423.96 715.599,1425.38 720.568,1426.7 740.442,1431.18 745.41,1432.13 750.379,1433.01 755.347,1433.84 760.316,1434.61 775.221,1343.35 780.189,1350 785.158,1249.51 790.126,1262.27 795.095,1274.19 810,1212.23 814.969,1227.41 819.937,1241.61 824.905,1148.16 829.874,1060.79 844.779,1131.1 849.748,1044.84 854.716,1070.9 859.685,1095.27 864.653,1118.06 879.559,1177.91 884.527,1195.32 889.495,1211.6 894.464,1120.11 899.432,1141.28 914.338,1196.89 919.306,1213.07 924.275,1228.19 929.243,1242.34 934.212,1255.56 954.085,1300.4 959.054,1309.85 964.022,1318.68 968.991,1326.94 983.896,1348.64 988.865,1354.95 993.833,1360.85 998.801,1366.37 1003.77,1371.53 1018.68,1291.79 1023.64,1195.08 1028.61,1211.37 1033.58,1226.61 1038.55,1134.14 1058.42,1207.61 1063.39,1223.09 1068.36,1237.57 1073.33,1251.1 1088.23,1193.36 1093.2,1209.77 1098.17,1225.11 1103.14,1239.45 1108.11,1252.86 1127.98,1298.34 1132.95,1307.92 1137.92,1316.88 1142.89,1325.26 1157.79,1347.26 1162.76,1353.66 1167.73,1359.65 1172.7,1365.24 1177.67,1370.48 1192.57,1384.22 1197.54,1388.22 1202.51,1285.24 1207.48,1295.67 1212.45,1305.43 1227.35,1331.05 1232.32,1338.51 1237.29,1345.48 1242.26,1245.28 1247.22,1258.31 1262.13,1292.54 1267.1,1302.5 1272.07,1311.81 1277.04,1320.52 1282,1328.66 1296.91,1350.04 1301.88,1356.26 1306.85,1362.08 1311.81,1367.52 1316.78,1372.6 1331.69,1385.96 1336.66,1389.84 1341.63,1393.47 1346.59,1396.87 1351.56,1400.05 1366.47,1408.39 1371.44,1410.82 1376.4,1413.09 1381.37,1415.21 1386.34,1417.19 1401.25,1329.11 1406.22,1336.69 1411.18,1343.78 1416.15,1350.41 1421.12,1356.61 1440.99,1377.62 1445.96,1382.05 1450.93,1386.19 1455.9,1390.06 1470.8,1400.22 1475.77,1403.18 1480.74,1299.23 1485.71,1308.75 1490.68,1317.66 1505.58,1341.05 1510.55,1347.85 1515.52,1354.22 1520.49,1360.17 1525.46,1365.73 1540.36,1380.34 1545.33,1384.59 1550.3,1388.56 1555.27,1392.28 1560.24,1395.76 1575.14,1404.88 1580.11,1300.82 1585.08,1203.52 1590.05,1219.27 1595.02,1233.99 1609.92,1179.37 1614.89,1196.69 1619.86,1212.88 1624.83,1228.02 1629.8,1135.46 1644.7,1192.13 1649.67,1101.9 1654.64,1124.25 1659.61,1145.16 1664.57,1164.7 1679.48,1216.03 1684.45,1230.96 1689.42,1244.93 1694.39,1257.98 1699.35,1270.19 1714.26,1302.25 1719.23,1311.58 1724.2,1320.3 1729.16,1221.74 1734.13,1236.3 1749.04,1274.55 1754.01,1285.68 1758.98,1296.09 1763.94,1305.82 1768.91,1208.19 1783.82,1251.58 1788.79,1264.2 1793.75,1276 1798.72,1287.04 1803.69,1297.36 1818.6,1324.46 1823.57,1332.34 1828.53,1339.71 1838.47,1353.05 1853.38,1369.97 1858.34,1374.9 1863.31,1379.5 1868.28,1277.09 1873.25,1288.06 1888.16,1316.85 1893.12,1325.23 1898.09,1333.07 1903.06,1340.39 1908.03,1347.24 1922.93,1365.23 1927.9,1370.46 1932.87,1375.35 1937.84,1379.93 1942.81,1384.21 1957.71,1395.44 1962.68,1398.71 1967.65,1401.77 1972.62,1404.62 1977.59,1407.3 1997.46,1416.36 2002.43,1418.26 2007.4,1420.05 2012.37,1421.72 2032.24,1427.38 2037.21,1428.57 2042.18,1429.68 2047.15,1430.73 2062.05,1433.46 2067.02,1434.26 2071.99,1435.01 2076.96,1435.7 2081.93,1436.35 2101.8,1438.56 2106.77,1439.03 2111.74,1439.46 2116.7,1439.87 2131.61,1440.94 2136.58,1441.25 2141.55,1441.54 2146.52,1441.81 2151.48,1442.06 2166.39,1442.73 2171.36,1442.92 2176.33,1443.11 2181.29,1443.28 2186.26,1443.43 2201.17,1443.85 2206.14,1443.97 2211.11,1444.09 2216.07,1444.19 2221.04,1444.29 2235.95,1444.55 2240.92,1444.63 2245.88,1444.7 2250.85,1444.76 2255.82,1444.83 2275.7,1445.04 2280.66,1445.08 2285.63,1445.12 2290.6,1445.16 "/>
<path clip-path="url(#clip700)" d="M1862.71 250.738 L2279.55 250.738 L2279.55 95.2176 L1862.71 95.2176  Z" fill="#ffffff" fill-rule="evenodd" fill-opacity="1"/>
<polyline clip-path="url(#clip700)" style="stroke:#000000; stroke-linecap:round; stroke-linejoin:round; stroke-width:4; stroke-opacity:1; fill:none" points="1862.71,250.738 2279.55,250.738 2279.55,95.2176 1862.71,95.2176 1862.71,250.738 "/>
<polyline clip-path="url(#clip700)" style="stroke:#009af9; stroke-linecap:round; stroke-linejoin:round; stroke-width:4; stroke-opacity:1; fill:none" points="1887.12,147.058 2033.53,147.058 "/>
<path clip-path="url(#clip700)" d="M2062.6 147.833 L2062.6 160.495 L2070.1 160.495 Q2073.88 160.495 2075.68 158.944 Q2077.51 157.37 2077.51 154.152 Q2077.51 150.912 2075.68 149.384 Q2073.88 147.833 2070.1 147.833 L2062.6 147.833 M2062.6 133.62 L2062.6 144.037 L2069.52 144.037 Q2072.95 144.037 2074.62 142.764 Q2076.31 141.467 2076.31 138.828 Q2076.31 136.213 2074.62 134.916 Q2072.95 133.62 2069.52 133.62 L2062.6 133.62 M2057.93 129.778 L2069.87 129.778 Q2075.22 129.778 2078.11 132 Q2081.01 134.222 2081.01 138.319 Q2081.01 141.49 2079.52 143.365 Q2078.04 145.24 2075.17 145.703 Q2078.62 146.444 2080.52 148.805 Q2082.44 151.143 2082.44 154.662 Q2082.44 159.291 2079.29 161.814 Q2076.15 164.338 2070.34 164.338 L2057.93 164.338 L2057.93 129.778 Z" fill="#000000" fill-rule="evenodd" fill-opacity="1" /><path clip-path="url(#clip700)" d="M2090.27 138.412 L2094.52 138.412 L2094.52 164.338 L2090.27 164.338 L2090.27 138.412 M2090.27 128.319 L2094.52 128.319 L2094.52 133.713 L2090.27 133.713 L2090.27 128.319 Z" fill="#000000" fill-rule="evenodd" fill-opacity="1" /><path clip-path="url(#clip700)" d="M2124.99 148.689 L2124.99 164.338 L2120.73 164.338 L2120.73 148.828 Q2120.73 145.148 2119.29 143.319 Q2117.86 141.49 2114.99 141.49 Q2111.54 141.49 2109.55 143.69 Q2107.56 145.889 2107.56 149.685 L2107.56 164.338 L2103.27 164.338 L2103.27 138.412 L2107.56 138.412 L2107.56 142.44 Q2109.08 140.102 2111.15 138.944 Q2113.23 137.787 2115.94 137.787 Q2120.4 137.787 2122.7 140.565 Q2124.99 143.319 2124.99 148.689 Z" fill="#000000" fill-rule="evenodd" fill-opacity="1" /><path clip-path="url(#clip700)" d="M2143.53 141.398 Q2140.1 141.398 2138.11 144.083 Q2136.12 146.745 2136.12 151.398 Q2136.12 156.051 2138.09 158.736 Q2140.08 161.398 2143.53 161.398 Q2146.93 161.398 2148.92 158.713 Q2150.91 156.027 2150.91 151.398 Q2150.91 146.791 2148.92 144.106 Q2146.93 141.398 2143.53 141.398 M2143.53 137.787 Q2149.08 137.787 2152.26 141.398 Q2155.43 145.009 2155.43 151.398 Q2155.43 157.764 2152.26 161.398 Q2149.08 165.009 2143.53 165.009 Q2137.95 165.009 2134.78 161.398 Q2131.63 157.764 2131.63 151.398 Q2131.63 145.009 2134.78 141.398 Q2137.95 137.787 2143.53 137.787 Z" fill="#000000" fill-rule="evenodd" fill-opacity="1" /><path clip-path="url(#clip700)" d="M2182.67 143.389 Q2184.27 140.518 2186.49 139.153 Q2188.71 137.787 2191.72 137.787 Q2195.77 137.787 2197.97 140.634 Q2200.17 143.458 2200.17 148.689 L2200.17 164.338 L2195.89 164.338 L2195.89 148.828 Q2195.89 145.102 2194.57 143.296 Q2193.25 141.49 2190.54 141.49 Q2187.23 141.49 2185.31 143.69 Q2183.39 145.889 2183.39 149.685 L2183.39 164.338 L2179.11 164.338 L2179.11 148.828 Q2179.11 145.078 2177.79 143.296 Q2176.47 141.49 2173.71 141.49 Q2170.45 141.49 2168.53 143.713 Q2166.61 145.912 2166.61 149.685 L2166.61 164.338 L2162.33 164.338 L2162.33 138.412 L2166.61 138.412 L2166.61 142.44 Q2168.07 140.055 2170.1 138.921 Q2172.14 137.787 2174.94 137.787 Q2177.77 137.787 2179.73 139.222 Q2181.72 140.657 2182.67 143.389 Z" fill="#000000" fill-rule="evenodd" fill-opacity="1" /><path clip-path="url(#clip700)" d="M2208.67 138.412 L2212.93 138.412 L2212.93 164.338 L2208.67 164.338 L2208.67 138.412 M2208.67 128.319 L2212.93 128.319 L2212.93 133.713 L2208.67 133.713 L2208.67 128.319 Z" fill="#000000" fill-rule="evenodd" fill-opacity="1" /><path clip-path="url(#clip700)" d="M2233.62 151.305 Q2228.46 151.305 2226.47 152.486 Q2224.48 153.666 2224.48 156.514 Q2224.48 158.782 2225.96 160.125 Q2227.46 161.444 2230.03 161.444 Q2233.57 161.444 2235.7 158.944 Q2237.86 156.421 2237.86 152.254 L2237.86 151.305 L2233.62 151.305 M2242.12 149.546 L2242.12 164.338 L2237.86 164.338 L2237.86 160.402 Q2236.4 162.763 2234.22 163.898 Q2232.05 165.009 2228.9 165.009 Q2224.92 165.009 2222.56 162.787 Q2220.22 160.541 2220.22 156.791 Q2220.22 152.416 2223.14 150.194 Q2226.07 147.972 2231.89 147.972 L2237.86 147.972 L2237.86 147.555 Q2237.86 144.615 2235.91 143.018 Q2233.99 141.398 2230.5 141.398 Q2228.27 141.398 2226.17 141.93 Q2224.06 142.463 2222.12 143.527 L2222.12 139.592 Q2224.45 138.69 2226.65 138.25 Q2228.85 137.787 2230.94 137.787 Q2236.56 137.787 2239.34 140.703 Q2242.12 143.62 2242.12 149.546 Z" fill="#000000" fill-rule="evenodd" fill-opacity="1" /><path clip-path="url(#clip700)" d="M2250.89 128.319 L2255.15 128.319 L2255.15 164.338 L2250.89 164.338 L2250.89 128.319 Z" fill="#000000" fill-rule="evenodd" fill-opacity="1" /><polyline clip-path="url(#clip700)" style="stroke:#e26f46; stroke-linecap:round; stroke-linejoin:round; stroke-width:4; stroke-opacity:1; fill:none" points="1887.12,198.898 2033.53,198.898 "/>
<path clip-path="url(#clip700)" d="M2057.93 181.618 L2062.6 181.618 L2062.6 195.784 L2079.59 195.784 L2079.59 181.618 L2084.27 181.618 L2084.27 216.178 L2079.59 216.178 L2079.59 199.719 L2062.6 199.719 L2062.6 216.178 L2057.93 216.178 L2057.93 181.618 Z" fill="#000000" fill-rule="evenodd" fill-opacity="1" /><path clip-path="url(#clip700)" d="M2105.17 203.145 Q2100.01 203.145 2098.02 204.326 Q2096.03 205.506 2096.03 208.354 Q2096.03 210.622 2097.51 211.965 Q2099.02 213.284 2101.58 213.284 Q2105.13 213.284 2107.26 210.784 Q2109.41 208.261 2109.41 204.094 L2109.41 203.145 L2105.17 203.145 M2113.67 201.386 L2113.67 216.178 L2109.41 216.178 L2109.41 212.242 Q2107.95 214.603 2105.77 215.738 Q2103.6 216.849 2100.45 216.849 Q2096.47 216.849 2094.11 214.627 Q2091.77 212.381 2091.77 208.631 Q2091.77 204.256 2094.69 202.034 Q2097.63 199.812 2103.44 199.812 L2109.41 199.812 L2109.41 199.395 Q2109.41 196.455 2107.46 194.858 Q2105.54 193.238 2102.05 193.238 Q2099.83 193.238 2097.72 193.77 Q2095.61 194.303 2093.67 195.367 L2093.67 191.432 Q2096.01 190.53 2098.21 190.09 Q2100.4 189.627 2102.49 189.627 Q2108.11 189.627 2110.89 192.543 Q2113.67 195.46 2113.67 201.386 Z" fill="#000000" fill-rule="evenodd" fill-opacity="1" /><path clip-path="url(#clip700)" d="M2119.96 190.252 L2124.22 190.252 L2129.55 210.483 L2134.85 190.252 L2139.87 190.252 L2145.2 210.483 L2150.5 190.252 L2154.76 190.252 L2147.97 216.178 L2142.95 216.178 L2137.37 194.928 L2131.77 216.178 L2126.75 216.178 L2119.96 190.252 Z" fill="#000000" fill-rule="evenodd" fill-opacity="1" /><path clip-path="url(#clip700)" d="M2161.05 180.159 L2165.33 180.159 L2165.33 201.432 L2178.04 190.252 L2183.48 190.252 L2169.73 202.381 L2184.06 216.178 L2178.51 216.178 L2165.33 203.516 L2165.33 216.178 L2161.05 216.178 L2161.05 180.159 Z" fill="#000000" fill-rule="evenodd" fill-opacity="1" /><path clip-path="url(#clip700)" d="M2209.15 202.15 L2209.15 204.233 L2189.57 204.233 Q2189.85 208.631 2192.21 210.946 Q2194.59 213.238 2198.83 213.238 Q2201.28 213.238 2203.58 212.636 Q2205.89 212.034 2208.16 210.83 L2208.16 214.858 Q2205.87 215.83 2203.46 216.34 Q2201.05 216.849 2198.58 216.849 Q2192.37 216.849 2188.74 213.238 Q2185.13 209.627 2185.13 203.469 Q2185.13 197.104 2188.55 193.377 Q2192 189.627 2197.83 189.627 Q2203.07 189.627 2206.1 193.006 Q2209.15 196.363 2209.15 202.15 M2204.89 200.9 Q2204.85 197.405 2202.93 195.321 Q2201.03 193.238 2197.88 193.238 Q2194.32 193.238 2192.16 195.252 Q2190.03 197.266 2189.71 200.923 L2204.89 200.9 Z" fill="#000000" fill-rule="evenodd" fill-opacity="1" /><path clip-path="url(#clip700)" d="M2232.67 191.016 L2232.67 195.043 Q2230.87 194.117 2228.92 193.655 Q2226.98 193.192 2224.89 193.192 Q2221.72 193.192 2220.13 194.164 Q2218.55 195.136 2218.55 197.08 Q2218.55 198.562 2219.69 199.418 Q2220.82 200.252 2224.25 201.016 L2225.7 201.34 Q2230.24 202.312 2232.14 204.094 Q2234.06 205.854 2234.06 209.025 Q2234.06 212.636 2231.19 214.742 Q2228.34 216.849 2223.34 216.849 Q2221.26 216.849 2218.99 216.432 Q2216.75 216.039 2214.25 215.228 L2214.25 210.83 Q2216.61 212.057 2218.9 212.682 Q2221.19 213.284 2223.44 213.284 Q2226.45 213.284 2228.07 212.266 Q2229.69 211.224 2229.69 209.349 Q2229.69 207.613 2228.51 206.687 Q2227.35 205.761 2223.39 204.904 L2221.91 204.557 Q2217.95 203.724 2216.19 202.011 Q2214.43 200.275 2214.43 197.266 Q2214.43 193.608 2217.02 191.618 Q2219.62 189.627 2224.39 189.627 Q2226.75 189.627 2228.83 189.974 Q2230.91 190.321 2232.67 191.016 Z" fill="#000000" fill-rule="evenodd" fill-opacity="1" /></svg>
