<?xml version="1.0" encoding="utf-8"?>
<svg xmlns="http://www.w3.org/2000/svg" xmlns:xlink="http://www.w3.org/1999/xlink" width="600" height="400" viewBox="0 0 2400 1600">
<defs>
  <clipPath id="clip900">
    <rect x="0" y="0" width="2400" height="1600"/>
  </clipPath>
</defs>
<path clip-path="url(#clip900)" d="M0 1600 L2400 1600 L2400 0 L0 0  Z" fill="#ffffff" fill-rule="evenodd" fill-opacity="1"/>
<defs>
  <clipPath id="clip901">
    <rect x="480" y="0" width="1681" height="1600"/>
  </clipPath>
</defs>
<path clip-path="url(#clip900)" d="M140.696 1486.45 L2352.76 1486.45 L2352.76 47.2441 L140.696 47.2441  Z" fill="#ffffff" fill-rule="evenodd" fill-opacity="1"/>
<defs>
  <clipPath id="clip902">
    <rect x="140" y="47" width="2213" height="1440"/>
  </clipPath>
</defs>
<polyline clip-path="url(#clip902)" style="stroke:#000000; stroke-linecap:round; stroke-linejoin:round; stroke-width:2; stroke-opacity:0.1; fill:none" points="262.363,1486.45 262.363,47.2441 "/>
<polyline clip-path="url(#clip902)" style="stroke:#000000; stroke-linecap:round; stroke-linejoin:round; stroke-width:2; stroke-opacity:0.1; fill:none" points="664.144,1486.45 664.144,47.2441 "/>
<polyline clip-path="url(#clip902)" style="stroke:#000000; stroke-linecap:round; stroke-linejoin:round; stroke-width:2; stroke-opacity:0.1; fill:none" points="1065.92,1486.45 1065.92,47.2441 "/>
<polyline clip-path="url(#clip902)" style="stroke:#000000; stroke-linecap:round; stroke-linejoin:round; stroke-width:2; stroke-opacity:0.1; fill:none" points="1467.71,1486.45 1467.71,47.2441 "/>
<polyline clip-path="url(#clip902)" style="stroke:#000000; stroke-linecap:round; stroke-linejoin:round; stroke-width:2; stroke-opacity:0.1; fill:none" points="1869.49,1486.45 1869.49,47.2441 "/>
<polyline clip-path="url(#clip902)" style="stroke:#000000; stroke-linecap:round; stroke-linejoin:round; stroke-width:2; stroke-opacity:0.1; fill:none" points="2271.27,1486.45 2271.27,47.2441 "/>
<polyline clip-path="url(#clip900)" style="stroke:#000000; stroke-linecap:round; stroke-linejoin:round; stroke-width:4; stroke-opacity:1; fill:none" points="140.696,1486.45 2352.76,1486.45 "/>
<polyline clip-path="url(#clip900)" style="stroke:#000000; stroke-linecap:round; stroke-linejoin:round; stroke-width:4; stroke-opacity:1; fill:none" points="262.363,1486.45 262.363,1467.55 "/>
<polyline clip-path="url(#clip900)" style="stroke:#000000; stroke-linecap:round; stroke-linejoin:round; stroke-width:4; stroke-opacity:1; fill:none" points="664.144,1486.45 664.144,1467.55 "/>
<polyline clip-path="url(#clip900)" style="stroke:#000000; stroke-linecap:round; stroke-linejoin:round; stroke-width:4; stroke-opacity:1; fill:none" points="1065.92,1486.45 1065.92,1467.55 "/>
<polyline clip-path="url(#clip900)" style="stroke:#000000; stroke-linecap:round; stroke-linejoin:round; stroke-width:4; stroke-opacity:1; fill:none" points="1467.71,1486.45 1467.71,1467.55 "/>
<polyline clip-path="url(#clip900)" style="stroke:#000000; stroke-linecap:round; stroke-linejoin:round; stroke-width:4; stroke-opacity:1; fill:none" points="1869.49,1486.45 1869.49,1467.55 "/>
<polyline clip-path="url(#clip900)" style="stroke:#000000; stroke-linecap:round; stroke-linejoin:round; stroke-width:4; stroke-opacity:1; fill:none" points="2271.27,1486.45 2271.27,1467.55 "/>
<path clip-path="url(#clip900)" d="M262.363 1517.37 Q258.752 1517.37 256.923 1520.93 Q255.117 1524.47 255.117 1531.6 Q255.117 1538.71 256.923 1542.27 Q258.752 1545.82 262.363 1545.82 Q265.997 1545.82 267.803 1542.27 Q269.631 1538.71 269.631 1531.6 Q269.631 1524.47 267.803 1520.93 Q265.997 1517.37 262.363 1517.37 M262.363 1513.66 Q268.173 1513.66 271.228 1518.27 Q274.307 1522.85 274.307 1531.6 Q274.307 1540.33 271.228 1544.94 Q268.173 1549.52 262.363 1549.52 Q256.553 1549.52 253.474 1544.94 Q250.418 1540.33 250.418 1531.6 Q250.418 1522.85 253.474 1518.27 Q256.553 1513.66 262.363 1513.66 Z" fill="#000000" fill-rule="evenodd" fill-opacity="1" /><path clip-path="url(#clip900)" d="M623.762 1514.29 L642.118 1514.29 L642.118 1518.22 L628.044 1518.22 L628.044 1526.7 Q629.063 1526.35 630.081 1526.19 Q631.1 1526 632.118 1526 Q637.905 1526 641.285 1529.17 Q644.665 1532.34 644.665 1537.76 Q644.665 1543.34 641.192 1546.44 Q637.72 1549.52 631.401 1549.52 Q629.225 1549.52 626.956 1549.15 Q624.711 1548.78 622.304 1548.04 L622.304 1543.34 Q624.387 1544.47 626.609 1545.03 Q628.831 1545.58 631.308 1545.58 Q635.313 1545.58 637.651 1543.48 Q639.989 1541.37 639.989 1537.76 Q639.989 1534.15 637.651 1532.04 Q635.313 1529.94 631.308 1529.94 Q629.433 1529.94 627.558 1530.35 Q625.706 1530.77 623.762 1531.65 L623.762 1514.29 Z" fill="#000000" fill-rule="evenodd" fill-opacity="1" /><path clip-path="url(#clip900)" d="M663.877 1517.37 Q660.266 1517.37 658.438 1520.93 Q656.632 1524.47 656.632 1531.6 Q656.632 1538.71 658.438 1542.27 Q660.266 1545.82 663.877 1545.82 Q667.512 1545.82 669.317 1542.27 Q671.146 1538.71 671.146 1531.6 Q671.146 1524.47 669.317 1520.93 Q667.512 1517.37 663.877 1517.37 M663.877 1513.66 Q669.688 1513.66 672.743 1518.27 Q675.822 1522.85 675.822 1531.6 Q675.822 1540.33 672.743 1544.94 Q669.688 1549.52 663.877 1549.52 Q658.067 1549.52 654.989 1544.94 Q651.933 1540.33 651.933 1531.6 Q651.933 1522.85 654.989 1518.27 Q658.067 1513.66 663.877 1513.66 Z" fill="#000000" fill-rule="evenodd" fill-opacity="1" /><path clip-path="url(#clip900)" d="M694.039 1517.37 Q690.428 1517.37 688.599 1520.93 Q686.794 1524.47 686.794 1531.6 Q686.794 1538.71 688.599 1542.27 Q690.428 1545.82 694.039 1545.82 Q697.673 1545.82 699.479 1542.27 Q701.308 1538.71 701.308 1531.6 Q701.308 1524.47 699.479 1520.93 Q697.673 1517.37 694.039 1517.37 M694.039 1513.66 Q699.849 1513.66 702.905 1518.27 Q705.984 1522.85 705.984 1531.6 Q705.984 1540.33 702.905 1544.94 Q699.849 1549.52 694.039 1549.52 Q688.229 1549.52 685.15 1544.94 Q682.095 1540.33 682.095 1531.6 Q682.095 1522.85 685.15 1518.27 Q688.229 1513.66 694.039 1513.66 Z" fill="#000000" fill-rule="evenodd" fill-opacity="1" /><path clip-path="url(#clip900)" d="M1010.45 1544.91 L1018.09 1544.91 L1018.09 1518.55 L1009.78 1520.21 L1009.78 1515.95 L1018.04 1514.29 L1022.72 1514.29 L1022.72 1544.91 L1030.36 1544.91 L1030.36 1548.85 L1010.45 1548.85 L1010.45 1544.91 Z" fill="#000000" fill-rule="evenodd" fill-opacity="1" /><path clip-path="url(#clip900)" d="M1049.8 1517.37 Q1046.19 1517.37 1044.36 1520.93 Q1042.56 1524.47 1042.56 1531.6 Q1042.56 1538.71 1044.36 1542.27 Q1046.19 1545.82 1049.8 1545.82 Q1053.44 1545.82 1055.24 1542.27 Q1057.07 1538.71 1057.07 1531.6 Q1057.07 1524.47 1055.24 1520.93 Q1053.44 1517.37 1049.8 1517.37 M1049.8 1513.66 Q1055.61 1513.66 1058.67 1518.27 Q1061.75 1522.85 1061.75 1531.6 Q1061.75 1540.33 1058.67 1544.94 Q1055.61 1549.52 1049.8 1549.52 Q1043.99 1549.52 1040.91 1544.94 Q1037.86 1540.33 1037.86 1531.6 Q1037.86 1522.85 1040.91 1518.27 Q1043.99 1513.66 1049.8 1513.66 Z" fill="#000000" fill-rule="evenodd" fill-opacity="1" /><path clip-path="url(#clip900)" d="M1079.96 1517.37 Q1076.35 1517.37 1074.52 1520.93 Q1072.72 1524.47 1072.72 1531.6 Q1072.72 1538.71 1074.52 1542.27 Q1076.35 1545.82 1079.96 1545.82 Q1083.6 1545.82 1085.4 1542.27 Q1087.23 1538.71 1087.23 1531.6 Q1087.23 1524.47 1085.4 1520.93 Q1083.6 1517.37 1079.96 1517.37 M1079.96 1513.66 Q1085.77 1513.66 1088.83 1518.27 Q1091.91 1522.85 1091.91 1531.6 Q1091.91 1540.33 1088.83 1544.94 Q1085.77 1549.52 1079.96 1549.52 Q1074.15 1549.52 1071.07 1544.94 Q1068.02 1540.33 1068.02 1531.6 Q1068.02 1522.85 1071.07 1518.27 Q1074.15 1513.66 1079.96 1513.66 Z" fill="#000000" fill-rule="evenodd" fill-opacity="1" /><path clip-path="url(#clip900)" d="M1110.13 1517.37 Q1106.51 1517.37 1104.69 1520.93 Q1102.88 1524.47 1102.88 1531.6 Q1102.88 1538.71 1104.69 1542.27 Q1106.51 1545.82 1110.13 1545.82 Q1113.76 1545.82 1115.57 1542.27 Q1117.39 1538.71 1117.39 1531.6 Q1117.39 1524.47 1115.57 1520.93 Q1113.76 1517.37 1110.13 1517.37 M1110.13 1513.66 Q1115.94 1513.66 1118.99 1518.27 Q1122.07 1522.85 1122.07 1531.6 Q1122.07 1540.33 1118.99 1544.94 Q1115.94 1549.52 1110.13 1549.52 Q1104.32 1549.52 1101.24 1544.94 Q1098.18 1540.33 1098.18 1531.6 Q1098.18 1522.85 1101.24 1518.27 Q1104.32 1513.66 1110.13 1513.66 Z" fill="#000000" fill-rule="evenodd" fill-opacity="1" /><path clip-path="url(#clip900)" d="M1412.23 1544.91 L1419.87 1544.91 L1419.87 1518.55 L1411.56 1520.21 L1411.56 1515.95 L1419.82 1514.29 L1424.5 1514.29 L1424.5 1544.91 L1432.14 1544.91 L1432.14 1548.85 L1412.23 1548.85 L1412.23 1544.91 Z" fill="#000000" fill-rule="evenodd" fill-opacity="1" /><path clip-path="url(#clip900)" d="M1441.63 1514.29 L1459.99 1514.29 L1459.99 1518.22 L1445.91 1518.22 L1445.91 1526.7 Q1446.93 1526.35 1447.95 1526.19 Q1448.97 1526 1449.99 1526 Q1455.77 1526 1459.15 1529.17 Q1462.53 1532.34 1462.53 1537.76 Q1462.53 1543.34 1459.06 1546.44 Q1455.59 1549.52 1449.27 1549.52 Q1447.09 1549.52 1444.82 1549.15 Q1442.58 1548.78 1440.17 1548.04 L1440.17 1543.34 Q1442.25 1544.47 1444.48 1545.03 Q1446.7 1545.58 1449.18 1545.58 Q1453.18 1545.58 1455.52 1543.48 Q1457.86 1541.37 1457.86 1537.76 Q1457.86 1534.15 1455.52 1532.04 Q1453.18 1529.94 1449.18 1529.94 Q1447.3 1529.94 1445.43 1530.35 Q1443.57 1530.77 1441.63 1531.65 L1441.63 1514.29 Z" fill="#000000" fill-rule="evenodd" fill-opacity="1" /><path clip-path="url(#clip900)" d="M1481.74 1517.37 Q1478.13 1517.37 1476.3 1520.93 Q1474.5 1524.47 1474.5 1531.6 Q1474.5 1538.71 1476.3 1542.27 Q1478.13 1545.82 1481.74 1545.82 Q1485.38 1545.82 1487.18 1542.27 Q1489.01 1538.71 1489.01 1531.6 Q1489.01 1524.47 1487.18 1520.93 Q1485.38 1517.37 1481.74 1517.37 M1481.74 1513.66 Q1487.55 1513.66 1490.61 1518.27 Q1493.69 1522.85 1493.69 1531.6 Q1493.69 1540.33 1490.61 1544.94 Q1487.55 1549.52 1481.74 1549.52 Q1475.93 1549.52 1472.86 1544.94 Q1469.8 1540.33 1469.8 1531.6 Q1469.8 1522.85 1472.86 1518.27 Q1475.93 1513.66 1481.74 1513.66 Z" fill="#000000" fill-rule="evenodd" fill-opacity="1" /><path clip-path="url(#clip900)" d="M1511.91 1517.37 Q1508.3 1517.37 1506.47 1520.93 Q1504.66 1524.47 1504.66 1531.6 Q1504.66 1538.71 1506.47 1542.27 Q1508.3 1545.82 1511.91 1545.82 Q1515.54 1545.82 1517.35 1542.27 Q1519.17 1538.71 1519.17 1531.6 Q1519.17 1524.47 1517.35 1520.93 Q1515.54 1517.37 1511.91 1517.37 M1511.91 1513.66 Q1517.72 1513.66 1520.77 1518.27 Q1523.85 1522.85 1523.85 1531.6 Q1523.85 1540.33 1520.77 1544.94 Q1517.72 1549.52 1511.91 1549.52 Q1506.1 1549.52 1503.02 1544.94 Q1499.96 1540.33 1499.96 1531.6 Q1499.96 1522.85 1503.02 1518.27 Q1506.1 1513.66 1511.91 1513.66 Z" fill="#000000" fill-rule="evenodd" fill-opacity="1" /><path clip-path="url(#clip900)" d="M1818.1 1544.91 L1834.42 1544.91 L1834.42 1548.85 L1812.47 1548.85 L1812.47 1544.91 Q1815.13 1542.16 1819.72 1537.53 Q1824.32 1532.88 1825.5 1531.53 Q1827.75 1529.01 1828.63 1527.27 Q1829.53 1525.51 1829.53 1523.82 Q1829.53 1521.07 1827.59 1519.33 Q1825.67 1517.6 1822.56 1517.6 Q1820.37 1517.6 1817.91 1518.36 Q1815.48 1519.13 1812.7 1520.68 L1812.7 1515.95 Q1815.53 1514.82 1817.98 1514.24 Q1820.44 1513.66 1822.47 1513.66 Q1827.84 1513.66 1831.04 1516.35 Q1834.23 1519.03 1834.23 1523.52 Q1834.23 1525.65 1833.42 1527.57 Q1832.63 1529.47 1830.53 1532.07 Q1829.95 1532.74 1826.85 1535.95 Q1823.75 1539.15 1818.1 1544.91 Z" fill="#000000" fill-rule="evenodd" fill-opacity="1" /><path clip-path="url(#clip900)" d="M1854.23 1517.37 Q1850.62 1517.37 1848.79 1520.93 Q1846.99 1524.47 1846.99 1531.6 Q1846.99 1538.71 1848.79 1542.27 Q1850.62 1545.82 1854.23 1545.82 Q1857.87 1545.82 1859.67 1542.27 Q1861.5 1538.71 1861.5 1531.6 Q1861.5 1524.47 1859.67 1520.93 Q1857.87 1517.37 1854.23 1517.37 M1854.23 1513.66 Q1860.04 1513.66 1863.1 1518.27 Q1866.18 1522.85 1866.18 1531.6 Q1866.18 1540.33 1863.1 1544.94 Q1860.04 1549.52 1854.23 1549.52 Q1848.42 1549.52 1845.34 1544.94 Q1842.29 1540.33 1842.29 1531.6 Q1842.29 1522.85 1845.34 1518.27 Q1848.42 1513.66 1854.23 1513.66 Z" fill="#000000" fill-rule="evenodd" fill-opacity="1" /><path clip-path="url(#clip900)" d="M1884.39 1517.37 Q1880.78 1517.37 1878.95 1520.93 Q1877.15 1524.47 1877.15 1531.6 Q1877.15 1538.71 1878.95 1542.27 Q1880.78 1545.82 1884.39 1545.82 Q1888.03 1545.82 1889.83 1542.27 Q1891.66 1538.71 1891.66 1531.6 Q1891.66 1524.47 1889.83 1520.93 Q1888.03 1517.37 1884.39 1517.37 M1884.39 1513.66 Q1890.2 1513.66 1893.26 1518.27 Q1896.34 1522.85 1896.34 1531.6 Q1896.34 1540.33 1893.26 1544.94 Q1890.2 1549.52 1884.39 1549.52 Q1878.58 1549.52 1875.5 1544.94 Q1872.45 1540.33 1872.45 1531.6 Q1872.45 1522.85 1875.5 1518.27 Q1878.58 1513.66 1884.39 1513.66 Z" fill="#000000" fill-rule="evenodd" fill-opacity="1" /><path clip-path="url(#clip900)" d="M1914.56 1517.37 Q1910.94 1517.37 1909.12 1520.93 Q1907.31 1524.47 1907.31 1531.6 Q1907.31 1538.71 1909.12 1542.27 Q1910.94 1545.82 1914.56 1545.82 Q1918.19 1545.82 1919.99 1542.27 Q1921.82 1538.71 1921.82 1531.6 Q1921.82 1524.47 1919.99 1520.93 Q1918.19 1517.37 1914.56 1517.37 M1914.56 1513.66 Q1920.37 1513.66 1923.42 1518.27 Q1926.5 1522.85 1926.5 1531.6 Q1926.5 1540.33 1923.42 1544.94 Q1920.37 1549.52 1914.56 1549.52 Q1908.74 1549.52 1905.67 1544.94 Q1902.61 1540.33 1902.61 1531.6 Q1902.61 1522.85 1905.67 1518.27 Q1908.74 1513.66 1914.56 1513.66 Z" fill="#000000" fill-rule="evenodd" fill-opacity="1" /><path clip-path="url(#clip900)" d="M2219.88 1544.91 L2236.2 1544.91 L2236.2 1548.85 L2214.25 1548.85 L2214.25 1544.91 Q2216.92 1542.16 2221.5 1537.53 Q2226.1 1532.88 2227.29 1531.53 Q2229.53 1529.01 2230.41 1527.27 Q2231.31 1525.51 2231.31 1523.82 Q2231.31 1521.07 2229.37 1519.33 Q2227.45 1517.6 2224.35 1517.6 Q2222.15 1517.6 2219.69 1518.36 Q2217.26 1519.13 2214.48 1520.68 L2214.48 1515.95 Q2217.31 1514.82 2219.76 1514.24 Q2222.22 1513.66 2224.25 1513.66 Q2229.62 1513.66 2232.82 1516.35 Q2236.01 1519.03 2236.01 1523.52 Q2236.01 1525.65 2235.2 1527.57 Q2234.42 1529.47 2232.31 1532.07 Q2231.73 1532.74 2228.63 1535.95 Q2225.53 1539.15 2219.88 1544.91 Z" fill="#000000" fill-rule="evenodd" fill-opacity="1" /><path clip-path="url(#clip900)" d="M2246.06 1514.29 L2264.41 1514.29 L2264.41 1518.22 L2250.34 1518.22 L2250.34 1526.7 Q2251.36 1526.35 2252.38 1526.19 Q2253.4 1526 2254.41 1526 Q2260.2 1526 2263.58 1529.17 Q2266.96 1532.34 2266.96 1537.76 Q2266.96 1543.34 2263.49 1546.44 Q2260.02 1549.52 2253.7 1549.52 Q2251.52 1549.52 2249.25 1549.15 Q2247.01 1548.78 2244.6 1548.04 L2244.6 1543.34 Q2246.68 1544.47 2248.91 1545.03 Q2251.13 1545.58 2253.6 1545.58 Q2257.61 1545.58 2259.95 1543.48 Q2262.29 1541.37 2262.29 1537.76 Q2262.29 1534.15 2259.95 1532.04 Q2257.61 1529.94 2253.6 1529.94 Q2251.73 1529.94 2249.85 1530.35 Q2248 1530.77 2246.06 1531.65 L2246.06 1514.29 Z" fill="#000000" fill-rule="evenodd" fill-opacity="1" /><path clip-path="url(#clip900)" d="M2286.17 1517.37 Q2282.56 1517.37 2280.73 1520.93 Q2278.93 1524.47 2278.93 1531.6 Q2278.93 1538.71 2280.73 1542.27 Q2282.56 1545.82 2286.17 1545.82 Q2289.81 1545.82 2291.61 1542.27 Q2293.44 1538.71 2293.44 1531.6 Q2293.44 1524.47 2291.61 1520.93 Q2289.81 1517.37 2286.17 1517.37 M2286.17 1513.66 Q2291.98 1513.66 2295.04 1518.27 Q2298.12 1522.85 2298.12 1531.6 Q2298.12 1540.33 2295.04 1544.94 Q2291.98 1549.52 2286.17 1549.52 Q2280.36 1549.52 2277.29 1544.94 Q2274.23 1540.33 2274.23 1531.6 Q2274.23 1522.85 2277.29 1518.27 Q2280.36 1513.66 2286.17 1513.66 Z" fill="#000000" fill-rule="evenodd" fill-opacity="1" /><path clip-path="url(#clip900)" d="M2316.34 1517.37 Q2312.72 1517.37 2310.9 1520.93 Q2309.09 1524.47 2309.09 1531.6 Q2309.09 1538.71 2310.9 1542.27 Q2312.72 1545.82 2316.34 1545.82 Q2319.97 1545.82 2321.78 1542.27 Q2323.6 1538.71 2323.6 1531.6 Q2323.6 1524.47 2321.78 1520.93 Q2319.97 1517.37 2316.34 1517.37 M2316.34 1513.66 Q2322.15 1513.66 2325.2 1518.27 Q2328.28 1522.85 2328.28 1531.6 Q2328.28 1540.33 2325.2 1544.94 Q2322.15 1549.52 2316.34 1549.52 Q2310.53 1549.52 2307.45 1544.94 Q2304.39 1540.33 2304.39 1531.6 Q2304.39 1522.85 2307.45 1518.27 Q2310.53 1513.66 2316.34 1513.66 Z" fill="#000000" fill-rule="evenodd" fill-opacity="1" /><polyline clip-path="url(#clip902)" style="stroke:#000000; stroke-linecap:round; stroke-linejoin:round; stroke-width:2; stroke-opacity:0.1; fill:none" points="140.696,1445.72 2352.76,1445.72 "/>
<polyline clip-path="url(#clip902)" style="stroke:#000000; stroke-linecap:round; stroke-linejoin:round; stroke-width:2; stroke-opacity:0.1; fill:none" points="140.696,1150.55 2352.76,1150.55 "/>
<polyline clip-path="url(#clip902)" style="stroke:#000000; stroke-linecap:round; stroke-linejoin:round; stroke-width:2; stroke-opacity:0.1; fill:none" points="140.696,855.394 2352.76,855.394 "/>
<polyline clip-path="url(#clip902)" style="stroke:#000000; stroke-linecap:round; stroke-linejoin:round; stroke-width:2; stroke-opacity:0.1; fill:none" points="140.696,560.233 2352.76,560.233 "/>
<polyline clip-path="url(#clip902)" style="stroke:#000000; stroke-linecap:round; stroke-linejoin:round; stroke-width:2; stroke-opacity:0.1; fill:none" points="140.696,265.073 2352.76,265.073 "/>
<polyline clip-path="url(#clip900)" style="stroke:#000000; stroke-linecap:round; stroke-linejoin:round; stroke-width:4; stroke-opacity:1; fill:none" points="140.696,1486.45 140.696,47.2441 "/>
<polyline clip-path="url(#clip900)" style="stroke:#000000; stroke-linecap:round; stroke-linejoin:round; stroke-width:4; stroke-opacity:1; fill:none" points="140.696,1445.72 159.593,1445.72 "/>
<polyline clip-path="url(#clip900)" style="stroke:#000000; stroke-linecap:round; stroke-linejoin:round; stroke-width:4; stroke-opacity:1; fill:none" points="140.696,1150.55 159.593,1150.55 "/>
<polyline clip-path="url(#clip900)" style="stroke:#000000; stroke-linecap:round; stroke-linejoin:round; stroke-width:4; stroke-opacity:1; fill:none" points="140.696,855.394 159.593,855.394 "/>
<polyline clip-path="url(#clip900)" style="stroke:#000000; stroke-linecap:round; stroke-linejoin:round; stroke-width:4; stroke-opacity:1; fill:none" points="140.696,560.233 159.593,560.233 "/>
<polyline clip-path="url(#clip900)" style="stroke:#000000; stroke-linecap:round; stroke-linejoin:round; stroke-width:4; stroke-opacity:1; fill:none" points="140.696,265.073 159.593,265.073 "/>
<path clip-path="url(#clip900)" d="M92.7512 1431.51 Q89.1401 1431.51 87.3114 1435.08 Q85.5058 1438.62 85.5058 1445.75 Q85.5058 1452.86 87.3114 1456.42 Q89.1401 1459.96 92.7512 1459.96 Q96.3854 1459.96 98.1909 1456.42 Q100.02 1452.86 100.02 1445.75 Q100.02 1438.62 98.1909 1435.08 Q96.3854 1431.51 92.7512 1431.51 M92.7512 1427.81 Q98.5613 1427.81 101.617 1432.42 Q104.696 1437 104.696 1445.75 Q104.696 1454.48 101.617 1459.08 Q98.5613 1463.67 92.7512 1463.67 Q86.941 1463.67 83.8623 1459.08 Q80.8068 1454.48 80.8068 1445.75 Q80.8068 1437 83.8623 1432.42 Q86.941 1427.81 92.7512 1427.81 Z" fill="#000000" fill-rule="evenodd" fill-opacity="1" /><path clip-path="url(#clip900)" d="M83.7929 1133.27 L102.149 1133.27 L102.149 1137.21 L88.0753 1137.21 L88.0753 1145.68 Q89.0938 1145.34 90.1123 1145.17 Q91.1308 1144.99 92.1493 1144.99 Q97.9363 1144.99 101.316 1148.16 Q104.696 1151.33 104.696 1156.75 Q104.696 1162.33 101.223 1165.43 Q97.7511 1168.51 91.4317 1168.51 Q89.2558 1168.51 86.9873 1168.14 Q84.7419 1167.77 82.3346 1167.02 L82.3346 1162.33 Q84.4179 1163.46 86.6401 1164.02 Q88.8623 1164.57 91.3391 1164.57 Q95.3437 1164.57 97.6817 1162.46 Q100.02 1160.36 100.02 1156.75 Q100.02 1153.14 97.6817 1151.03 Q95.3437 1148.92 91.3391 1148.92 Q89.4641 1148.92 87.5892 1149.34 Q85.7373 1149.76 83.7929 1150.64 L83.7929 1133.27 Z" fill="#000000" fill-rule="evenodd" fill-opacity="1" /><path clip-path="url(#clip900)" d="M53.3995 868.739 L61.0384 868.739 L61.0384 842.373 L52.7282 844.04 L52.7282 839.781 L60.9921 838.114 L65.668 838.114 L65.668 868.739 L73.3068 868.739 L73.3068 872.674 L53.3995 872.674 L53.3995 868.739 Z" fill="#000000" fill-rule="evenodd" fill-opacity="1" /><path clip-path="url(#clip900)" d="M92.7512 841.193 Q89.1401 841.193 87.3114 844.758 Q85.5058 848.299 85.5058 855.429 Q85.5058 862.535 87.3114 866.1 Q89.1401 869.642 92.7512 869.642 Q96.3854 869.642 98.1909 866.1 Q100.02 862.535 100.02 855.429 Q100.02 848.299 98.1909 844.758 Q96.3854 841.193 92.7512 841.193 M92.7512 837.489 Q98.5613 837.489 101.617 842.096 Q104.696 846.679 104.696 855.429 Q104.696 864.156 101.617 868.762 Q98.5613 873.345 92.7512 873.345 Q86.941 873.345 83.8623 868.762 Q80.8068 864.156 80.8068 855.429 Q80.8068 846.679 83.8623 842.096 Q86.941 837.489 92.7512 837.489 Z" fill="#000000" fill-rule="evenodd" fill-opacity="1" /><path clip-path="url(#clip900)" d="M54.3949 573.578 L62.0337 573.578 L62.0337 547.213 L53.7236 548.879 L53.7236 544.62 L61.9874 542.953 L66.6633 542.953 L66.6633 573.578 L74.3022 573.578 L74.3022 577.513 L54.3949 577.513 L54.3949 573.578 Z" fill="#000000" fill-rule="evenodd" fill-opacity="1" /><path clip-path="url(#clip900)" d="M83.7929 542.953 L102.149 542.953 L102.149 546.889 L88.0753 546.889 L88.0753 555.361 Q89.0938 555.014 90.1123 554.852 Q91.1308 554.666 92.1493 554.666 Q97.9363 554.666 101.316 557.838 Q104.696 561.009 104.696 566.426 Q104.696 572.004 101.223 575.106 Q97.7511 578.185 91.4317 578.185 Q89.2558 578.185 86.9873 577.814 Q84.7419 577.444 82.3346 576.703 L82.3346 572.004 Q84.4179 573.138 86.6401 573.694 Q88.8623 574.25 91.3391 574.25 Q95.3437 574.25 97.6817 572.143 Q100.02 570.037 100.02 566.426 Q100.02 562.814 97.6817 560.708 Q95.3437 558.602 91.3391 558.602 Q89.4641 558.602 87.5892 559.018 Q85.7373 559.435 83.7929 560.314 L83.7929 542.953 Z" fill="#000000" fill-rule="evenodd" fill-opacity="1" /><path clip-path="url(#clip900)" d="M56.6171 278.418 L72.9365 278.418 L72.9365 282.353 L50.9921 282.353 L50.9921 278.418 Q53.6541 275.663 58.2375 271.033 Q62.8439 266.381 64.0245 265.038 Q66.2698 262.515 67.1494 260.779 Q68.0522 259.02 68.0522 257.33 Q68.0522 254.575 66.1078 252.839 Q64.1865 251.103 61.0847 251.103 Q58.8856 251.103 56.4319 251.867 Q54.0014 252.631 51.2236 254.182 L51.2236 249.459 Q54.0477 248.325 56.5014 247.746 Q58.955 247.168 60.9921 247.168 Q66.3624 247.168 69.5568 249.853 Q72.7513 252.538 72.7513 257.029 Q72.7513 259.158 71.9411 261.08 Q71.1541 262.978 69.0476 265.57 Q68.4689 266.242 65.367 269.459 Q62.2652 272.654 56.6171 278.418 Z" fill="#000000" fill-rule="evenodd" fill-opacity="1" /><path clip-path="url(#clip900)" d="M92.7512 250.871 Q89.1401 250.871 87.3114 254.436 Q85.5058 257.978 85.5058 265.107 Q85.5058 272.214 87.3114 275.779 Q89.1401 279.32 92.7512 279.32 Q96.3854 279.32 98.1909 275.779 Q100.02 272.214 100.02 265.107 Q100.02 257.978 98.1909 254.436 Q96.3854 250.871 92.7512 250.871 M92.7512 247.168 Q98.5613 247.168 101.617 251.774 Q104.696 256.357 104.696 265.107 Q104.696 273.834 101.617 278.441 Q98.5613 283.024 92.7512 283.024 Q86.941 283.024 83.8623 278.441 Q80.8068 273.834 80.8068 265.107 Q80.8068 256.357 83.8623 251.774 Q86.941 247.168 92.7512 247.168 Z" fill="#000000" fill-rule="evenodd" fill-opacity="1" /><path clip-path="url(#clip902)" d="M262.363 1386.68 L262.363 1445.72 L302.541 1445.72 L302.541 1386.68 L262.363 1386.68 L262.363 1386.68  Z" fill="#009af9" fill-rule="evenodd" fill-opacity="1"/>
<polyline clip-path="url(#clip902)" style="stroke:#000000; stroke-linecap:round; stroke-linejoin:round; stroke-width:4; stroke-opacity:1; fill:none" points="262.363,1386.68 262.363,1445.72 302.541,1445.72 302.541,1386.68 262.363,1386.68 "/>
<path clip-path="url(#clip902)" d="M302.541 1268.62 L302.541 1445.72 L342.719 1445.72 L342.719 1268.62 L302.541 1268.62 L302.541 1268.62  Z" fill="#009af9" fill-rule="evenodd" fill-opacity="1"/>
<polyline clip-path="url(#clip902)" style="stroke:#000000; stroke-linecap:round; stroke-linejoin:round; stroke-width:4; stroke-opacity:1; fill:none" points="302.541,1268.62 302.541,1445.72 342.719,1445.72 342.719,1268.62 302.541,1268.62 "/>
<path clip-path="url(#clip902)" d="M342.719 1445.72 L342.719 1445.72 L382.897 1445.72 L382.897 1445.72 L342.719 1445.72 L342.719 1445.72  Z" fill="#009af9" fill-rule="evenodd" fill-opacity="1"/>
<polyline clip-path="url(#clip902)" style="stroke:#000000; stroke-linecap:round; stroke-linejoin:round; stroke-width:4; stroke-opacity:1; fill:none" points="342.719,1445.72 342.719,1445.72 382.897,1445.72 342.719,1445.72 "/>
<path clip-path="url(#clip902)" d="M382.897 1327.65 L382.897 1445.72 L423.075 1445.72 L423.075 1327.65 L382.897 1327.65 L382.897 1327.65  Z" fill="#009af9" fill-rule="evenodd" fill-opacity="1"/>
<polyline clip-path="url(#clip902)" style="stroke:#000000; stroke-linecap:round; stroke-linejoin:round; stroke-width:4; stroke-opacity:1; fill:none" points="382.897,1327.65 382.897,1445.72 423.075,1445.72 423.075,1327.65 382.897,1327.65 "/>
<path clip-path="url(#clip902)" d="M423.075 1386.68 L423.075 1445.72 L463.253 1445.72 L463.253 1386.68 L423.075 1386.68 L423.075 1386.68  Z" fill="#009af9" fill-rule="evenodd" fill-opacity="1"/>
<polyline clip-path="url(#clip902)" style="stroke:#000000; stroke-linecap:round; stroke-linejoin:round; stroke-width:4; stroke-opacity:1; fill:none" points="423.075,1386.68 423.075,1445.72 463.253,1445.72 463.253,1386.68 423.075,1386.68 "/>
<path clip-path="url(#clip902)" d="M463.253 1386.68 L463.253 1445.72 L503.431 1445.72 L503.431 1386.68 L463.253 1386.68 L463.253 1386.68  Z" fill="#009af9" fill-rule="evenodd" fill-opacity="1"/>
<polyline clip-path="url(#clip902)" style="stroke:#000000; stroke-linecap:round; stroke-linejoin:round; stroke-width:4; stroke-opacity:1; fill:none" points="463.253,1386.68 463.253,1445.72 503.431,1445.72 503.431,1386.68 463.253,1386.68 "/>
<path clip-path="url(#clip902)" d="M503.431 1327.65 L503.431 1445.72 L543.609 1445.72 L543.609 1327.65 L503.431 1327.65 L503.431 1327.65  Z" fill="#009af9" fill-rule="evenodd" fill-opacity="1"/>
<polyline clip-path="url(#clip902)" style="stroke:#000000; stroke-linecap:round; stroke-linejoin:round; stroke-width:4; stroke-opacity:1; fill:none" points="503.431,1327.65 503.431,1445.72 543.609,1445.72 543.609,1327.65 503.431,1327.65 "/>
<path clip-path="url(#clip902)" d="M543.609 1386.68 L543.609 1445.72 L583.787 1445.72 L583.787 1386.68 L543.609 1386.68 L543.609 1386.68  Z" fill="#009af9" fill-rule="evenodd" fill-opacity="1"/>
<polyline clip-path="url(#clip902)" style="stroke:#000000; stroke-linecap:round; stroke-linejoin:round; stroke-width:4; stroke-opacity:1; fill:none" points="543.609,1386.68 543.609,1445.72 583.787,1445.72 583.787,1386.68 543.609,1386.68 "/>
<path clip-path="url(#clip902)" d="M583.787 1445.72 L583.787 1445.72 L623.966 1445.72 L623.966 1445.72 L583.787 1445.72 L583.787 1445.72  Z" fill="#009af9" fill-rule="evenodd" fill-opacity="1"/>
<polyline clip-path="url(#clip902)" style="stroke:#000000; stroke-linecap:round; stroke-linejoin:round; stroke-width:4; stroke-opacity:1; fill:none" points="583.787,1445.72 583.787,1445.72 623.966,1445.72 583.787,1445.72 "/>
<path clip-path="url(#clip902)" d="M623.966 1327.65 L623.966 1445.72 L664.144 1445.72 L664.144 1327.65 L623.966 1327.65 L623.966 1327.65  Z" fill="#009af9" fill-rule="evenodd" fill-opacity="1"/>
<polyline clip-path="url(#clip902)" style="stroke:#000000; stroke-linecap:round; stroke-linejoin:round; stroke-width:4; stroke-opacity:1; fill:none" points="623.966,1327.65 623.966,1445.72 664.144,1445.72 664.144,1327.65 623.966,1327.65 "/>
<path clip-path="url(#clip902)" d="M664.144 1209.59 L664.144 1445.72 L704.322 1445.72 L704.322 1209.59 L664.144 1209.59 L664.144 1209.59  Z" fill="#009af9" fill-rule="evenodd" fill-opacity="1"/>
<polyline clip-path="url(#clip902)" style="stroke:#000000; stroke-linecap:round; stroke-linejoin:round; stroke-width:4; stroke-opacity:1; fill:none" points="664.144,1209.59 664.144,1445.72 704.322,1445.72 704.322,1209.59 664.144,1209.59 "/>
<path clip-path="url(#clip902)" d="M704.322 1386.68 L704.322 1445.72 L744.5 1445.72 L744.5 1386.68 L704.322 1386.68 L704.322 1386.68  Z" fill="#009af9" fill-rule="evenodd" fill-opacity="1"/>
<polyline clip-path="url(#clip902)" style="stroke:#000000; stroke-linecap:round; stroke-linejoin:round; stroke-width:4; stroke-opacity:1; fill:none" points="704.322,1386.68 704.322,1445.72 744.5,1445.72 744.5,1386.68 704.322,1386.68 "/>
<path clip-path="url(#clip902)" d="M744.5 1445.72 L744.5 1445.72 L784.678 1445.72 L784.678 1445.72 L744.5 1445.72 L744.5 1445.72  Z" fill="#009af9" fill-rule="evenodd" fill-opacity="1"/>
<polyline clip-path="url(#clip902)" style="stroke:#000000; stroke-linecap:round; stroke-linejoin:round; stroke-width:4; stroke-opacity:1; fill:none" points="744.5,1445.72 744.5,1445.72 784.678,1445.72 744.5,1445.72 "/>
<path clip-path="url(#clip902)" d="M784.678 1327.65 L784.678 1445.72 L824.856 1445.72 L824.856 1327.65 L784.678 1327.65 L784.678 1327.65  Z" fill="#009af9" fill-rule="evenodd" fill-opacity="1"/>
<polyline clip-path="url(#clip902)" style="stroke:#000000; stroke-linecap:round; stroke-linejoin:round; stroke-width:4; stroke-opacity:1; fill:none" points="784.678,1327.65 784.678,1445.72 824.856,1445.72 824.856,1327.65 784.678,1327.65 "/>
<path clip-path="url(#clip902)" d="M824.856 1386.68 L824.856 1445.72 L865.034 1445.72 L865.034 1386.68 L824.856 1386.68 L824.856 1386.68  Z" fill="#009af9" fill-rule="evenodd" fill-opacity="1"/>
<polyline clip-path="url(#clip902)" style="stroke:#000000; stroke-linecap:round; stroke-linejoin:round; stroke-width:4; stroke-opacity:1; fill:none" points="824.856,1386.68 824.856,1445.72 865.034,1445.72 865.034,1386.68 824.856,1386.68 "/>
<path clip-path="url(#clip902)" d="M865.034 1386.68 L865.034 1445.72 L905.212 1445.72 L905.212 1386.68 L865.034 1386.68 L865.034 1386.68  Z" fill="#009af9" fill-rule="evenodd" fill-opacity="1"/>
<polyline clip-path="url(#clip902)" style="stroke:#000000; stroke-linecap:round; stroke-linejoin:round; stroke-width:4; stroke-opacity:1; fill:none" points="865.034,1386.68 865.034,1445.72 905.212,1445.72 905.212,1386.68 865.034,1386.68 "/>
<path clip-path="url(#clip902)" d="M905.212 1445.72 L905.212 1445.72 L945.39 1445.72 L945.39 1445.72 L905.212 1445.72 L905.212 1445.72  Z" fill="#009af9" fill-rule="evenodd" fill-opacity="1"/>
<polyline clip-path="url(#clip902)" style="stroke:#000000; stroke-linecap:round; stroke-linejoin:round; stroke-width:4; stroke-opacity:1; fill:none" points="905.212,1445.72 905.212,1445.72 945.39,1445.72 905.212,1445.72 "/>
<path clip-path="url(#clip902)" d="M945.39 1445.72 L945.39 1445.72 L985.568 1445.72 L985.568 1445.72 L945.39 1445.72 L945.39 1445.72  Z" fill="#009af9" fill-rule="evenodd" fill-opacity="1"/>
<polyline clip-path="url(#clip902)" style="stroke:#000000; stroke-linecap:round; stroke-linejoin:round; stroke-width:4; stroke-opacity:1; fill:none" points="945.39,1445.72 945.39,1445.72 985.568,1445.72 945.39,1445.72 "/>
<path clip-path="url(#clip902)" d="M985.568 1445.72 L985.568 1445.72 L1025.75 1445.72 L1025.75 1445.72 L985.568 1445.72 L985.568 1445.72  Z" fill="#009af9" fill-rule="evenodd" fill-opacity="1"/>
<polyline clip-path="url(#clip902)" style="stroke:#000000; stroke-linecap:round; stroke-linejoin:round; stroke-width:4; stroke-opacity:1; fill:none" points="985.568,1445.72 985.568,1445.72 1025.75,1445.72 985.568,1445.72 "/>
<path clip-path="url(#clip902)" d="M1025.75 1209.59 L1025.75 1445.72 L1065.92 1445.72 L1065.92 1209.59 L1025.75 1209.59 L1025.75 1209.59  Z" fill="#009af9" fill-rule="evenodd" fill-opacity="1"/>
<polyline clip-path="url(#clip902)" style="stroke:#000000; stroke-linecap:round; stroke-linejoin:round; stroke-width:4; stroke-opacity:1; fill:none" points="1025.75,1209.59 1025.75,1445.72 1065.92,1445.72 1065.92,1209.59 1025.75,1209.59 "/>
<path clip-path="url(#clip902)" d="M1065.92 1209.59 L1065.92 1445.72 L1106.1 1445.72 L1106.1 1209.59 L1065.92 1209.59 L1065.92 1209.59  Z" fill="#009af9" fill-rule="evenodd" fill-opacity="1"/>
<polyline clip-path="url(#clip902)" style="stroke:#000000; stroke-linecap:round; stroke-linejoin:round; stroke-width:4; stroke-opacity:1; fill:none" points="1065.92,1209.59 1065.92,1445.72 1106.1,1445.72 1106.1,1209.59 1065.92,1209.59 "/>
<path clip-path="url(#clip902)" d="M1106.1 1327.65 L1106.1 1445.72 L1146.28 1445.72 L1146.28 1327.65 L1106.1 1327.65 L1106.1 1327.65  Z" fill="#009af9" fill-rule="evenodd" fill-opacity="1"/>
<polyline clip-path="url(#clip902)" style="stroke:#000000; stroke-linecap:round; stroke-linejoin:round; stroke-width:4; stroke-opacity:1; fill:none" points="1106.1,1327.65 1106.1,1445.72 1146.28,1445.72 1146.28,1327.65 1106.1,1327.65 "/>
<path clip-path="url(#clip902)" d="M1146.28 1386.68 L1146.28 1445.72 L1186.46 1445.72 L1186.46 1386.68 L1146.28 1386.68 L1146.28 1386.68  Z" fill="#009af9" fill-rule="evenodd" fill-opacity="1"/>
<polyline clip-path="url(#clip902)" style="stroke:#000000; stroke-linecap:round; stroke-linejoin:round; stroke-width:4; stroke-opacity:1; fill:none" points="1146.28,1386.68 1146.28,1445.72 1186.46,1445.72 1186.46,1386.68 1146.28,1386.68 "/>
<path clip-path="url(#clip902)" d="M1186.46 1386.68 L1186.46 1445.72 L1226.64 1445.72 L1226.64 1386.68 L1186.46 1386.68 L1186.46 1386.68  Z" fill="#009af9" fill-rule="evenodd" fill-opacity="1"/>
<polyline clip-path="url(#clip902)" style="stroke:#000000; stroke-linecap:round; stroke-linejoin:round; stroke-width:4; stroke-opacity:1; fill:none" points="1186.46,1386.68 1186.46,1445.72 1226.64,1445.72 1226.64,1386.68 1186.46,1386.68 "/>
<path clip-path="url(#clip902)" d="M1226.64 1445.72 L1226.64 1445.72 L1266.81 1445.72 L1266.81 1445.72 L1226.64 1445.72 L1226.64 1445.72  Z" fill="#009af9" fill-rule="evenodd" fill-opacity="1"/>
<polyline clip-path="url(#clip902)" style="stroke:#000000; stroke-linecap:round; stroke-linejoin:round; stroke-width:4; stroke-opacity:1; fill:none" points="1226.64,1445.72 1226.64,1445.72 1266.81,1445.72 1226.64,1445.72 "/>
<path clip-path="url(#clip902)" d="M1266.81 1445.72 L1266.81 1445.72 L1306.99 1445.72 L1306.99 1445.72 L1266.81 1445.72 L1266.81 1445.72  Z" fill="#009af9" fill-rule="evenodd" fill-opacity="1"/>
<polyline clip-path="url(#clip902)" style="stroke:#000000; stroke-linecap:round; stroke-linejoin:round; stroke-width:4; stroke-opacity:1; fill:none" points="1266.81,1445.72 1266.81,1445.72 1306.99,1445.72 1266.81,1445.72 "/>
<path clip-path="url(#clip902)" d="M1306.99 1445.72 L1306.99 1445.72 L1347.17 1445.72 L1347.17 1445.72 L1306.99 1445.72 L1306.99 1445.72  Z" fill="#009af9" fill-rule="evenodd" fill-opacity="1"/>
<polyline clip-path="url(#clip902)" style="stroke:#000000; stroke-linecap:round; stroke-linejoin:round; stroke-width:4; stroke-opacity:1; fill:none" points="1306.99,1445.72 1306.99,1445.72 1347.17,1445.72 1306.99,1445.72 "/>
<path clip-path="url(#clip902)" d="M1347.17 1268.62 L1347.17 1445.72 L1387.35 1445.72 L1387.35 1268.62 L1347.17 1268.62 L1347.17 1268.62  Z" fill="#009af9" fill-rule="evenodd" fill-opacity="1"/>
<polyline clip-path="url(#clip902)" style="stroke:#000000; stroke-linecap:round; stroke-linejoin:round; stroke-width:4; stroke-opacity:1; fill:none" points="1347.17,1268.62 1347.17,1445.72 1387.35,1445.72 1387.35,1268.62 1347.17,1268.62 "/>
<path clip-path="url(#clip902)" d="M1387.35 1327.65 L1387.35 1445.72 L1427.53 1445.72 L1427.53 1327.65 L1387.35 1327.65 L1387.35 1327.65  Z" fill="#009af9" fill-rule="evenodd" fill-opacity="1"/>
<polyline clip-path="url(#clip902)" style="stroke:#000000; stroke-linecap:round; stroke-linejoin:round; stroke-width:4; stroke-opacity:1; fill:none" points="1387.35,1327.65 1387.35,1445.72 1427.53,1445.72 1427.53,1327.65 1387.35,1327.65 "/>
<path clip-path="url(#clip902)" d="M1427.53 1386.68 L1427.53 1445.72 L1467.71 1445.72 L1467.71 1386.68 L1427.53 1386.68 L1427.53 1386.68  Z" fill="#009af9" fill-rule="evenodd" fill-opacity="1"/>
<polyline clip-path="url(#clip902)" style="stroke:#000000; stroke-linecap:round; stroke-linejoin:round; stroke-width:4; stroke-opacity:1; fill:none" points="1427.53,1386.68 1427.53,1445.72 1467.71,1445.72 1467.71,1386.68 1427.53,1386.68 "/>
<path clip-path="url(#clip902)" d="M1467.71 1386.68 L1467.71 1445.72 L1507.88 1445.72 L1507.88 1386.68 L1467.71 1386.68 L1467.71 1386.68  Z" fill="#009af9" fill-rule="evenodd" fill-opacity="1"/>
<polyline clip-path="url(#clip902)" style="stroke:#000000; stroke-linecap:round; stroke-linejoin:round; stroke-width:4; stroke-opacity:1; fill:none" points="1467.71,1386.68 1467.71,1445.72 1507.88,1445.72 1507.88,1386.68 1467.71,1386.68 "/>
<path clip-path="url(#clip902)" d="M1507.88 1327.65 L1507.88 1445.72 L1548.06 1445.72 L1548.06 1327.65 L1507.88 1327.65 L1507.88 1327.65  Z" fill="#009af9" fill-rule="evenodd" fill-opacity="1"/>
<polyline clip-path="url(#clip902)" style="stroke:#000000; stroke-linecap:round; stroke-linejoin:round; stroke-width:4; stroke-opacity:1; fill:none" points="1507.88,1327.65 1507.88,1445.72 1548.06,1445.72 1548.06,1327.65 1507.88,1327.65 "/>
<path clip-path="url(#clip902)" d="M1548.06 1327.65 L1548.06 1445.72 L1588.24 1445.72 L1588.24 1327.65 L1548.06 1327.65 L1548.06 1327.65  Z" fill="#009af9" fill-rule="evenodd" fill-opacity="1"/>
<polyline clip-path="url(#clip902)" style="stroke:#000000; stroke-linecap:round; stroke-linejoin:round; stroke-width:4; stroke-opacity:1; fill:none" points="1548.06,1327.65 1548.06,1445.72 1588.24,1445.72 1588.24,1327.65 1548.06,1327.65 "/>
<path clip-path="url(#clip902)" d="M1588.24 1327.65 L1588.24 1445.72 L1628.42 1445.72 L1628.42 1327.65 L1588.24 1327.65 L1588.24 1327.65  Z" fill="#009af9" fill-rule="evenodd" fill-opacity="1"/>
<polyline clip-path="url(#clip902)" style="stroke:#000000; stroke-linecap:round; stroke-linejoin:round; stroke-width:4; stroke-opacity:1; fill:none" points="1588.24,1327.65 1588.24,1445.72 1628.42,1445.72 1628.42,1327.65 1588.24,1327.65 "/>
<path clip-path="url(#clip902)" d="M1628.42 1327.65 L1628.42 1445.72 L1668.6 1445.72 L1668.6 1327.65 L1628.42 1327.65 L1628.42 1327.65  Z" fill="#009af9" fill-rule="evenodd" fill-opacity="1"/>
<polyline clip-path="url(#clip902)" style="stroke:#000000; stroke-linecap:round; stroke-linejoin:round; stroke-width:4; stroke-opacity:1; fill:none" points="1628.42,1327.65 1628.42,1445.72 1668.6,1445.72 1668.6,1327.65 1628.42,1327.65 "/>
<path clip-path="url(#clip902)" d="M1668.6 1386.68 L1668.6 1445.72 L1708.77 1445.72 L1708.77 1386.68 L1668.6 1386.68 L1668.6 1386.68  Z" fill="#009af9" fill-rule="evenodd" fill-opacity="1"/>
<polyline clip-path="url(#clip902)" style="stroke:#000000; stroke-linecap:round; stroke-linejoin:round; stroke-width:4; stroke-opacity:1; fill:none" points="1668.6,1386.68 1668.6,1445.72 1708.77,1445.72 1708.77,1386.68 1668.6,1386.68 "/>
<path clip-path="url(#clip902)" d="M1708.77 1327.65 L1708.77 1445.72 L1748.95 1445.72 L1748.95 1327.65 L1708.77 1327.65 L1708.77 1327.65  Z" fill="#009af9" fill-rule="evenodd" fill-opacity="1"/>
<polyline clip-path="url(#clip902)" style="stroke:#000000; stroke-linecap:round; stroke-linejoin:round; stroke-width:4; stroke-opacity:1; fill:none" points="1708.77,1327.65 1708.77,1445.72 1748.95,1445.72 1748.95,1327.65 1708.77,1327.65 "/>
<path clip-path="url(#clip902)" d="M1748.95 1386.68 L1748.95 1445.72 L1789.13 1445.72 L1789.13 1386.68 L1748.95 1386.68 L1748.95 1386.68  Z" fill="#009af9" fill-rule="evenodd" fill-opacity="1"/>
<polyline clip-path="url(#clip902)" style="stroke:#000000; stroke-linecap:round; stroke-linejoin:round; stroke-width:4; stroke-opacity:1; fill:none" points="1748.95,1386.68 1748.95,1445.72 1789.13,1445.72 1789.13,1386.68 1748.95,1386.68 "/>
<path clip-path="url(#clip902)" d="M1789.13 1327.65 L1789.13 1445.72 L1829.31 1445.72 L1829.31 1327.65 L1789.13 1327.65 L1789.13 1327.65  Z" fill="#009af9" fill-rule="evenodd" fill-opacity="1"/>
<polyline clip-path="url(#clip902)" style="stroke:#000000; stroke-linecap:round; stroke-linejoin:round; stroke-width:4; stroke-opacity:1; fill:none" points="1789.13,1327.65 1789.13,1445.72 1829.31,1445.72 1829.31,1327.65 1789.13,1327.65 "/>
<path clip-path="url(#clip902)" d="M1829.31 1268.62 L1829.31 1445.72 L1869.49 1445.72 L1869.49 1268.62 L1829.31 1268.62 L1829.31 1268.62  Z" fill="#009af9" fill-rule="evenodd" fill-opacity="1"/>
<polyline clip-path="url(#clip902)" style="stroke:#000000; stroke-linecap:round; stroke-linejoin:round; stroke-width:4; stroke-opacity:1; fill:none" points="1829.31,1268.62 1829.31,1445.72 1869.49,1445.72 1869.49,1268.62 1829.31,1268.62 "/>
<path clip-path="url(#clip902)" d="M1869.49 1445.72 L1869.49 1445.72 L1909.66 1445.72 L1909.66 1445.72 L1869.49 1445.72 L1869.49 1445.72  Z" fill="#009af9" fill-rule="evenodd" fill-opacity="1"/>
<polyline clip-path="url(#clip902)" style="stroke:#000000; stroke-linecap:round; stroke-linejoin:round; stroke-width:4; stroke-opacity:1; fill:none" points="1869.49,1445.72 1869.49,1445.72 1909.66,1445.72 1869.49,1445.72 "/>
<path clip-path="url(#clip902)" d="M1909.66 1445.72 L1909.66 1445.72 L1949.84 1445.72 L1949.84 1445.72 L1909.66 1445.72 L1909.66 1445.72  Z" fill="#009af9" fill-rule="evenodd" fill-opacity="1"/>
<polyline clip-path="url(#clip902)" style="stroke:#000000; stroke-linecap:round; stroke-linejoin:round; stroke-width:4; stroke-opacity:1; fill:none" points="1909.66,1445.72 1909.66,1445.72 1949.84,1445.72 1909.66,1445.72 "/>
<path clip-path="url(#clip902)" d="M1949.84 1386.68 L1949.84 1445.72 L1990.02 1445.72 L1990.02 1386.68 L1949.84 1386.68 L1949.84 1386.68  Z" fill="#009af9" fill-rule="evenodd" fill-opacity="1"/>
<polyline clip-path="url(#clip902)" style="stroke:#000000; stroke-linecap:round; stroke-linejoin:round; stroke-width:4; stroke-opacity:1; fill:none" points="1949.84,1386.68 1949.84,1445.72 1990.02,1445.72 1990.02,1386.68 1949.84,1386.68 "/>
<path clip-path="url(#clip902)" d="M1990.02 1445.72 L1990.02 1445.72 L2030.2 1445.72 L2030.2 1445.72 L1990.02 1445.72 L1990.02 1445.72  Z" fill="#009af9" fill-rule="evenodd" fill-opacity="1"/>
<polyline clip-path="url(#clip902)" style="stroke:#000000; stroke-linecap:round; stroke-linejoin:round; stroke-width:4; stroke-opacity:1; fill:none" points="1990.02,1445.72 1990.02,1445.72 2030.2,1445.72 1990.02,1445.72 "/>
<path clip-path="url(#clip902)" d="M2030.2 1386.68 L2030.2 1445.72 L2070.38 1445.72 L2070.38 1386.68 L2030.2 1386.68 L2030.2 1386.68  Z" fill="#009af9" fill-rule="evenodd" fill-opacity="1"/>
<polyline clip-path="url(#clip902)" style="stroke:#000000; stroke-linecap:round; stroke-linejoin:round; stroke-width:4; stroke-opacity:1; fill:none" points="2030.2,1386.68 2030.2,1445.72 2070.38,1445.72 2070.38,1386.68 2030.2,1386.68 "/>
<path clip-path="url(#clip902)" d="M2070.38 1445.72 L2070.38 1445.72 L2110.55 1445.72 L2110.55 1445.72 L2070.38 1445.72 L2070.38 1445.72  Z" fill="#009af9" fill-rule="evenodd" fill-opacity="1"/>
<polyline clip-path="url(#clip902)" style="stroke:#000000; stroke-linecap:round; stroke-linejoin:round; stroke-width:4; stroke-opacity:1; fill:none" points="2070.38,1445.72 2070.38,1445.72 2110.55,1445.72 2070.38,1445.72 "/>
<path clip-path="url(#clip902)" d="M2110.55 1327.65 L2110.55 1445.72 L2150.73 1445.72 L2150.73 1327.65 L2110.55 1327.65 L2110.55 1327.65  Z" fill="#009af9" fill-rule="evenodd" fill-opacity="1"/>
<polyline clip-path="url(#clip902)" style="stroke:#000000; stroke-linecap:round; stroke-linejoin:round; stroke-width:4; stroke-opacity:1; fill:none" points="2110.55,1327.65 2110.55,1445.72 2150.73,1445.72 2150.73,1327.65 2110.55,1327.65 "/>
<path clip-path="url(#clip902)" d="M2150.73 1327.65 L2150.73 1445.72 L2190.91 1445.72 L2190.91 1327.65 L2150.73 1327.65 L2150.73 1327.65  Z" fill="#009af9" fill-rule="evenodd" fill-opacity="1"/>
<polyline clip-path="url(#clip902)" style="stroke:#000000; stroke-linecap:round; stroke-linejoin:round; stroke-width:4; stroke-opacity:1; fill:none" points="2150.73,1327.65 2150.73,1445.72 2190.91,1445.72 2190.91,1327.65 2150.73,1327.65 "/>
<path clip-path="url(#clip902)" d="M2190.91 1386.68 L2190.91 1445.72 L2231.09 1445.72 L2231.09 1386.68 L2190.91 1386.68 L2190.91 1386.68  Z" fill="#009af9" fill-rule="evenodd" fill-opacity="1"/>
<polyline clip-path="url(#clip902)" style="stroke:#000000; stroke-linecap:round; stroke-linejoin:round; stroke-width:4; stroke-opacity:1; fill:none" points="2190.91,1386.68 2190.91,1445.72 2231.09,1445.72 2231.09,1386.68 2190.91,1386.68 "/>
<circle clip-path="url(#clip902)" style="fill:#009af9; stroke:none; fill-opacity:0" cx="282.452" cy="1386.68" r="2"/>
<circle clip-path="url(#clip902)" style="fill:#009af9; stroke:none; fill-opacity:0" cx="322.63" cy="1268.62" r="2"/>
<circle clip-path="url(#clip902)" style="fill:#009af9; stroke:none; fill-opacity:0" cx="362.808" cy="1445.72" r="2"/>
<circle clip-path="url(#clip902)" style="fill:#009af9; stroke:none; fill-opacity:0" cx="402.986" cy="1327.65" r="2"/>
<circle clip-path="url(#clip902)" style="fill:#009af9; stroke:none; fill-opacity:0" cx="443.164" cy="1386.68" r="2"/>
<circle clip-path="url(#clip902)" style="fill:#009af9; stroke:none; fill-opacity:0" cx="483.342" cy="1386.68" r="2"/>
<circle clip-path="url(#clip902)" style="fill:#009af9; stroke:none; fill-opacity:0" cx="523.52" cy="1327.65" r="2"/>
<circle clip-path="url(#clip902)" style="fill:#009af9; stroke:none; fill-opacity:0" cx="563.698" cy="1386.68" r="2"/>
<circle clip-path="url(#clip902)" style="fill:#009af9; stroke:none; fill-opacity:0" cx="603.876" cy="1445.72" r="2"/>
<circle clip-path="url(#clip902)" style="fill:#009af9; stroke:none; fill-opacity:0" cx="644.055" cy="1327.65" r="2"/>
<circle clip-path="url(#clip902)" style="fill:#009af9; stroke:none; fill-opacity:0" cx="684.233" cy="1209.59" r="2"/>
<circle clip-path="url(#clip902)" style="fill:#009af9; stroke:none; fill-opacity:0" cx="724.411" cy="1386.68" r="2"/>
<circle clip-path="url(#clip902)" style="fill:#009af9; stroke:none; fill-opacity:0" cx="764.589" cy="1445.72" r="2"/>
<circle clip-path="url(#clip902)" style="fill:#009af9; stroke:none; fill-opacity:0" cx="804.767" cy="1327.65" r="2"/>
<circle clip-path="url(#clip902)" style="fill:#009af9; stroke:none; fill-opacity:0" cx="844.945" cy="1386.68" r="2"/>
<circle clip-path="url(#clip902)" style="fill:#009af9; stroke:none; fill-opacity:0" cx="885.123" cy="1386.68" r="2"/>
<circle clip-path="url(#clip902)" style="fill:#009af9; stroke:none; fill-opacity:0" cx="925.301" cy="1445.72" r="2"/>
<circle clip-path="url(#clip902)" style="fill:#009af9; stroke:none; fill-opacity:0" cx="965.479" cy="1445.72" r="2"/>
<circle clip-path="url(#clip902)" style="fill:#009af9; stroke:none; fill-opacity:0" cx="1005.66" cy="1445.72" r="2"/>
<circle clip-path="url(#clip902)" style="fill:#009af9; stroke:none; fill-opacity:0" cx="1045.84" cy="1209.59" r="2"/>
<circle clip-path="url(#clip902)" style="fill:#009af9; stroke:none; fill-opacity:0" cx="1086.01" cy="1209.59" r="2"/>
<circle clip-path="url(#clip902)" style="fill:#009af9; stroke:none; fill-opacity:0" cx="1126.19" cy="1327.65" r="2"/>
<circle clip-path="url(#clip902)" style="fill:#009af9; stroke:none; fill-opacity:0" cx="1166.37" cy="1386.68" r="2"/>
<circle clip-path="url(#clip902)" style="fill:#009af9; stroke:none; fill-opacity:0" cx="1206.55" cy="1386.68" r="2"/>
<circle clip-path="url(#clip902)" style="fill:#009af9; stroke:none; fill-opacity:0" cx="1246.73" cy="1445.72" r="2"/>
<circle clip-path="url(#clip902)" style="fill:#009af9; stroke:none; fill-opacity:0" cx="1286.9" cy="1445.72" r="2"/>
<circle clip-path="url(#clip902)" style="fill:#009af9; stroke:none; fill-opacity:0" cx="1327.08" cy="1445.72" r="2"/>
<circle clip-path="url(#clip902)" style="fill:#009af9; stroke:none; fill-opacity:0" cx="1367.26" cy="1268.62" r="2"/>
<circle clip-path="url(#clip902)" style="fill:#009af9; stroke:none; fill-opacity:0" cx="1407.44" cy="1327.65" r="2"/>
<circle clip-path="url(#clip902)" style="fill:#009af9; stroke:none; fill-opacity:0" cx="1447.62" cy="1386.68" r="2"/>
<circle clip-path="url(#clip902)" style="fill:#009af9; stroke:none; fill-opacity:0" cx="1487.79" cy="1386.68" r="2"/>
<circle clip-path="url(#clip902)" style="fill:#009af9; stroke:none; fill-opacity:0" cx="1527.97" cy="1327.65" r="2"/>
<circle clip-path="url(#clip902)" style="fill:#009af9; stroke:none; fill-opacity:0" cx="1568.15" cy="1327.65" r="2"/>
<circle clip-path="url(#clip902)" style="fill:#009af9; stroke:none; fill-opacity:0" cx="1608.33" cy="1327.65" r="2"/>
<circle clip-path="url(#clip902)" style="fill:#009af9; stroke:none; fill-opacity:0" cx="1648.51" cy="1327.65" r="2"/>
<circle clip-path="url(#clip902)" style="fill:#009af9; stroke:none; fill-opacity:0" cx="1688.68" cy="1386.68" r="2"/>
<circle clip-path="url(#clip902)" style="fill:#009af9; stroke:none; fill-opacity:0" cx="1728.86" cy="1327.65" r="2"/>
<circle clip-path="url(#clip902)" style="fill:#009af9; stroke:none; fill-opacity:0" cx="1769.04" cy="1386.68" r="2"/>
<circle clip-path="url(#clip902)" style="fill:#009af9; stroke:none; fill-opacity:0" cx="1809.22" cy="1327.65" r="2"/>
<circle clip-path="url(#clip902)" style="fill:#009af9; stroke:none; fill-opacity:0" cx="1849.4" cy="1268.62" r="2"/>
<circle clip-path="url(#clip902)" style="fill:#009af9; stroke:none; fill-opacity:0" cx="1889.57" cy="1445.72" r="2"/>
<circle clip-path="url(#clip902)" style="fill:#009af9; stroke:none; fill-opacity:0" cx="1929.75" cy="1445.72" r="2"/>
<circle clip-path="url(#clip902)" style="fill:#009af9; stroke:none; fill-opacity:0" cx="1969.93" cy="1386.68" r="2"/>
<circle clip-path="url(#clip902)" style="fill:#009af9; stroke:none; fill-opacity:0" cx="2010.11" cy="1445.72" r="2"/>
<circle clip-path="url(#clip902)" style="fill:#009af9; stroke:none; fill-opacity:0" cx="2050.29" cy="1386.68" r="2"/>
<circle clip-path="url(#clip902)" style="fill:#009af9; stroke:none; fill-opacity:0" cx="2090.47" cy="1445.72" r="2"/>
<circle clip-path="url(#clip902)" style="fill:#009af9; stroke:none; fill-opacity:0" cx="2130.64" cy="1327.65" r="2"/>
<circle clip-path="url(#clip902)" style="fill:#009af9; stroke:none; fill-opacity:0" cx="2170.82" cy="1327.65" r="2"/>
<circle clip-path="url(#clip902)" style="fill:#009af9; stroke:none; fill-opacity:0" cx="2211" cy="1386.68" r="2"/>
<path clip-path="url(#clip902)" d="M302.541 1386.68 L302.541 1445.72 L342.719 1445.72 L342.719 1386.68 L302.541 1386.68 L302.541 1386.68  Z" fill="#e26f46" fill-rule="evenodd" fill-opacity="1"/>
<polyline clip-path="url(#clip902)" style="stroke:#000000; stroke-linecap:round; stroke-linejoin:round; stroke-width:4; stroke-opacity:1; fill:none" points="302.541,1386.68 302.541,1445.72 342.719,1445.72 342.719,1386.68 302.541,1386.68 "/>
<path clip-path="url(#clip902)" d="M342.719 1445.72 L342.719 1445.72 L382.897 1445.72 L382.897 1445.72 L342.719 1445.72 L342.719 1445.72  Z" fill="#e26f46" fill-rule="evenodd" fill-opacity="1"/>
<polyline clip-path="url(#clip902)" style="stroke:#000000; stroke-linecap:round; stroke-linejoin:round; stroke-width:4; stroke-opacity:1; fill:none" points="342.719,1445.72 342.719,1445.72 382.897,1445.72 342.719,1445.72 "/>
<path clip-path="url(#clip902)" d="M382.897 1445.72 L382.897 1445.72 L423.075 1445.72 L423.075 1445.72 L382.897 1445.72 L382.897 1445.72  Z" fill="#e26f46" fill-rule="evenodd" fill-opacity="1"/>
<polyline clip-path="url(#clip902)" style="stroke:#000000; stroke-linecap:round; stroke-linejoin:round; stroke-width:4; stroke-opacity:1; fill:none" points="382.897,1445.72 382.897,1445.72 423.075,1445.72 382.897,1445.72 "/>
<path clip-path="url(#clip902)" d="M423.075 1445.72 L423.075 1445.72 L463.253 1445.72 L463.253 1445.72 L423.075 1445.72 L423.075 1445.72  Z" fill="#e26f46" fill-rule="evenodd" fill-opacity="1"/>
<polyline clip-path="url(#clip902)" style="stroke:#000000; stroke-linecap:round; stroke-linejoin:round; stroke-width:4; stroke-opacity:1; fill:none" points="423.075,1445.72 423.075,1445.72 463.253,1445.72 423.075,1445.72 "/>
<path clip-path="url(#clip902)" d="M463.253 1445.72 L463.253 1445.72 L503.431 1445.72 L503.431 1445.72 L463.253 1445.72 L463.253 1445.72  Z" fill="#e26f46" fill-rule="evenodd" fill-opacity="1"/>
<polyline clip-path="url(#clip902)" style="stroke:#000000; stroke-linecap:round; stroke-linejoin:round; stroke-width:4; stroke-opacity:1; fill:none" points="463.253,1445.72 463.253,1445.72 503.431,1445.72 463.253,1445.72 "/>
<path clip-path="url(#clip902)" d="M503.431 1445.72 L503.431 1445.72 L543.609 1445.72 L543.609 1445.72 L503.431 1445.72 L503.431 1445.72  Z" fill="#e26f46" fill-rule="evenodd" fill-opacity="1"/>
<polyline clip-path="url(#clip902)" style="stroke:#000000; stroke-linecap:round; stroke-linejoin:round; stroke-width:4; stroke-opacity:1; fill:none" points="503.431,1445.72 503.431,1445.72 543.609,1445.72 503.431,1445.72 "/>
<path clip-path="url(#clip902)" d="M543.609 1445.72 L543.609 1445.72 L583.787 1445.72 L583.787 1445.72 L543.609 1445.72 L543.609 1445.72  Z" fill="#e26f46" fill-rule="evenodd" fill-opacity="1"/>
<polyline clip-path="url(#clip902)" style="stroke:#000000; stroke-linecap:round; stroke-linejoin:round; stroke-width:4; stroke-opacity:1; fill:none" points="543.609,1445.72 543.609,1445.72 583.787,1445.72 543.609,1445.72 "/>
<path clip-path="url(#clip902)" d="M583.787 1445.72 L583.787 1445.72 L623.966 1445.72 L623.966 1445.72 L583.787 1445.72 L583.787 1445.72  Z" fill="#e26f46" fill-rule="evenodd" fill-opacity="1"/>
<polyline clip-path="url(#clip902)" style="stroke:#000000; stroke-linecap:round; stroke-linejoin:round; stroke-width:4; stroke-opacity:1; fill:none" points="583.787,1445.72 583.787,1445.72 623.966,1445.72 583.787,1445.72 "/>
<path clip-path="url(#clip902)" d="M623.966 1445.72 L623.966 1445.72 L664.144 1445.72 L664.144 1445.72 L623.966 1445.72 L623.966 1445.72  Z" fill="#e26f46" fill-rule="evenodd" fill-opacity="1"/>
<polyline clip-path="url(#clip902)" style="stroke:#000000; stroke-linecap:round; stroke-linejoin:round; stroke-width:4; stroke-opacity:1; fill:none" points="623.966,1445.72 623.966,1445.72 664.144,1445.72 623.966,1445.72 "/>
<path clip-path="url(#clip902)" d="M664.144 1445.72 L664.144 1445.72 L704.322 1445.72 L704.322 1445.72 L664.144 1445.72 L664.144 1445.72  Z" fill="#e26f46" fill-rule="evenodd" fill-opacity="1"/>
<polyline clip-path="url(#clip902)" style="stroke:#000000; stroke-linecap:round; stroke-linejoin:round; stroke-width:4; stroke-opacity:1; fill:none" points="664.144,1445.72 664.144,1445.72 704.322,1445.72 664.144,1445.72 "/>
<path clip-path="url(#clip902)" d="M704.322 1445.72 L704.322 1445.72 L744.5 1445.72 L744.5 1445.72 L704.322 1445.72 L704.322 1445.72  Z" fill="#e26f46" fill-rule="evenodd" fill-opacity="1"/>
<polyline clip-path="url(#clip902)" style="stroke:#000000; stroke-linecap:round; stroke-linejoin:round; stroke-width:4; stroke-opacity:1; fill:none" points="704.322,1445.72 704.322,1445.72 744.5,1445.72 704.322,1445.72 "/>
<path clip-path="url(#clip902)" d="M744.5 1386.68 L744.5 1445.72 L784.678 1445.72 L784.678 1386.68 L744.5 1386.68 L744.5 1386.68  Z" fill="#e26f46" fill-rule="evenodd" fill-opacity="1"/>
<polyline clip-path="url(#clip902)" style="stroke:#000000; stroke-linecap:round; stroke-linejoin:round; stroke-width:4; stroke-opacity:1; fill:none" points="744.5,1386.68 744.5,1445.72 784.678,1445.72 784.678,1386.68 744.5,1386.68 "/>
<path clip-path="url(#clip902)" d="M784.678 1268.62 L784.678 1445.72 L824.856 1445.72 L824.856 1268.62 L784.678 1268.62 L784.678 1268.62  Z" fill="#e26f46" fill-rule="evenodd" fill-opacity="1"/>
<polyline clip-path="url(#clip902)" style="stroke:#000000; stroke-linecap:round; stroke-linejoin:round; stroke-width:4; stroke-opacity:1; fill:none" points="784.678,1268.62 784.678,1445.72 824.856,1445.72 824.856,1268.62 784.678,1268.62 "/>
<path clip-path="url(#clip902)" d="M824.856 1445.72 L824.856 1445.72 L865.034 1445.72 L865.034 1445.72 L824.856 1445.72 L824.856 1445.72  Z" fill="#e26f46" fill-rule="evenodd" fill-opacity="1"/>
<polyline clip-path="url(#clip902)" style="stroke:#000000; stroke-linecap:round; stroke-linejoin:round; stroke-width:4; stroke-opacity:1; fill:none" points="824.856,1445.72 824.856,1445.72 865.034,1445.72 824.856,1445.72 "/>
<path clip-path="url(#clip902)" d="M865.034 1445.72 L865.034 1445.72 L905.212 1445.72 L905.212 1445.72 L865.034 1445.72 L865.034 1445.72  Z" fill="#e26f46" fill-rule="evenodd" fill-opacity="1"/>
<polyline clip-path="url(#clip902)" style="stroke:#000000; stroke-linecap:round; stroke-linejoin:round; stroke-width:4; stroke-opacity:1; fill:none" points="865.034,1445.72 865.034,1445.72 905.212,1445.72 865.034,1445.72 "/>
<path clip-path="url(#clip902)" d="M905.212 1445.72 L905.212 1445.72 L945.39 1445.72 L945.39 1445.72 L905.212 1445.72 L905.212 1445.72  Z" fill="#e26f46" fill-rule="evenodd" fill-opacity="1"/>
<polyline clip-path="url(#clip902)" style="stroke:#000000; stroke-linecap:round; stroke-linejoin:round; stroke-width:4; stroke-opacity:1; fill:none" points="905.212,1445.72 905.212,1445.72 945.39,1445.72 905.212,1445.72 "/>
<path clip-path="url(#clip902)" d="M945.39 1386.68 L945.39 1445.72 L985.568 1445.72 L985.568 1386.68 L945.39 1386.68 L945.39 1386.68  Z" fill="#e26f46" fill-rule="evenodd" fill-opacity="1"/>
<polyline clip-path="url(#clip902)" style="stroke:#000000; stroke-linecap:round; stroke-linejoin:round; stroke-width:4; stroke-opacity:1; fill:none" points="945.39,1386.68 945.39,1445.72 985.568,1445.72 985.568,1386.68 945.39,1386.68 "/>
<path clip-path="url(#clip902)" d="M985.568 1386.68 L985.568 1445.72 L1025.75 1445.72 L1025.75 1386.68 L985.568 1386.68 L985.568 1386.68  Z" fill="#e26f46" fill-rule="evenodd" fill-opacity="1"/>
<polyline clip-path="url(#clip902)" style="stroke:#000000; stroke-linecap:round; stroke-linejoin:round; stroke-width:4; stroke-opacity:1; fill:none" points="985.568,1386.68 985.568,1445.72 1025.75,1445.72 1025.75,1386.68 985.568,1386.68 "/>
<path clip-path="url(#clip902)" d="M1025.75 1209.59 L1025.75 1445.72 L1065.92 1445.72 L1065.92 1209.59 L1025.75 1209.59 L1025.75 1209.59  Z" fill="#e26f46" fill-rule="evenodd" fill-opacity="1"/>
<polyline clip-path="url(#clip902)" style="stroke:#000000; stroke-linecap:round; stroke-linejoin:round; stroke-width:4; stroke-opacity:1; fill:none" points="1025.75,1209.59 1025.75,1445.72 1065.92,1445.72 1065.92,1209.59 1025.75,1209.59 "/>
<path clip-path="url(#clip902)" d="M1065.92 1445.72 L1065.92 1445.72 L1106.1 1445.72 L1106.1 1445.72 L1065.92 1445.72 L1065.92 1445.72  Z" fill="#e26f46" fill-rule="evenodd" fill-opacity="1"/>
<polyline clip-path="url(#clip902)" style="stroke:#000000; stroke-linecap:round; stroke-linejoin:round; stroke-width:4; stroke-opacity:1; fill:none" points="1065.92,1445.72 1065.92,1445.72 1106.1,1445.72 1065.92,1445.72 "/>
<path clip-path="url(#clip902)" d="M1106.1 1445.72 L1106.1 1445.72 L1146.28 1445.72 L1146.28 1445.72 L1106.1 1445.72 L1106.1 1445.72  Z" fill="#e26f46" fill-rule="evenodd" fill-opacity="1"/>
<polyline clip-path="url(#clip902)" style="stroke:#000000; stroke-linecap:round; stroke-linejoin:round; stroke-width:4; stroke-opacity:1; fill:none" points="1106.1,1445.72 1106.1,1445.72 1146.28,1445.72 1106.1,1445.72 "/>
<path clip-path="url(#clip902)" d="M1146.28 1445.72 L1146.28 1445.72 L1186.46 1445.72 L1186.46 1445.72 L1146.28 1445.72 L1146.28 1445.72  Z" fill="#e26f46" fill-rule="evenodd" fill-opacity="1"/>
<polyline clip-path="url(#clip902)" style="stroke:#000000; stroke-linecap:round; stroke-linejoin:round; stroke-width:4; stroke-opacity:1; fill:none" points="1146.28,1445.72 1146.28,1445.72 1186.46,1445.72 1146.28,1445.72 "/>
<path clip-path="url(#clip902)" d="M1186.46 1386.68 L1186.46 1445.72 L1226.64 1445.72 L1226.64 1386.68 L1186.46 1386.68 L1186.46 1386.68  Z" fill="#e26f46" fill-rule="evenodd" fill-opacity="1"/>
<polyline clip-path="url(#clip902)" style="stroke:#000000; stroke-linecap:round; stroke-linejoin:round; stroke-width:4; stroke-opacity:1; fill:none" points="1186.46,1386.68 1186.46,1445.72 1226.64,1445.72 1226.64,1386.68 1186.46,1386.68 "/>
<path clip-path="url(#clip902)" d="M1226.64 1327.65 L1226.64 1445.72 L1266.81 1445.72 L1266.81 1327.65 L1226.64 1327.65 L1226.64 1327.65  Z" fill="#e26f46" fill-rule="evenodd" fill-opacity="1"/>
<polyline clip-path="url(#clip902)" style="stroke:#000000; stroke-linecap:round; stroke-linejoin:round; stroke-width:4; stroke-opacity:1; fill:none" points="1226.64,1327.65 1226.64,1445.72 1266.81,1445.72 1266.81,1327.65 1226.64,1327.65 "/>
<path clip-path="url(#clip902)" d="M1266.81 1445.72 L1266.81 1445.72 L1306.99 1445.72 L1306.99 1445.72 L1266.81 1445.72 L1266.81 1445.72  Z" fill="#e26f46" fill-rule="evenodd" fill-opacity="1"/>
<polyline clip-path="url(#clip902)" style="stroke:#000000; stroke-linecap:round; stroke-linejoin:round; stroke-width:4; stroke-opacity:1; fill:none" points="1266.81,1445.72 1266.81,1445.72 1306.99,1445.72 1266.81,1445.72 "/>
<path clip-path="url(#clip902)" d="M1306.99 1445.72 L1306.99 1445.72 L1347.17 1445.72 L1347.17 1445.72 L1306.99 1445.72 L1306.99 1445.72  Z" fill="#e26f46" fill-rule="evenodd" fill-opacity="1"/>
<polyline clip-path="url(#clip902)" style="stroke:#000000; stroke-linecap:round; stroke-linejoin:round; stroke-width:4; stroke-opacity:1; fill:none" points="1306.99,1445.72 1306.99,1445.72 1347.17,1445.72 1306.99,1445.72 "/>
<path clip-path="url(#clip902)" d="M1347.17 1327.65 L1347.17 1445.72 L1387.35 1445.72 L1387.35 1327.65 L1347.17 1327.65 L1347.17 1327.65  Z" fill="#e26f46" fill-rule="evenodd" fill-opacity="1"/>
<polyline clip-path="url(#clip902)" style="stroke:#000000; stroke-linecap:round; stroke-linejoin:round; stroke-width:4; stroke-opacity:1; fill:none" points="1347.17,1327.65 1347.17,1445.72 1387.35,1445.72 1387.35,1327.65 1347.17,1327.65 "/>
<path clip-path="url(#clip902)" d="M1387.35 87.9763 L1387.35 1445.72 L1427.53 1445.72 L1427.53 87.9763 L1387.35 87.9763 L1387.35 87.9763  Z" fill="#e26f46" fill-rule="evenodd" fill-opacity="1"/>
<polyline clip-path="url(#clip902)" style="stroke:#000000; stroke-linecap:round; stroke-linejoin:round; stroke-width:4; stroke-opacity:1; fill:none" points="1387.35,87.9763 1387.35,1445.72 1427.53,1445.72 1427.53,87.9763 1387.35,87.9763 "/>
<path clip-path="url(#clip902)" d="M1427.53 1150.55 L1427.53 1445.72 L1467.71 1445.72 L1467.71 1150.55 L1427.53 1150.55 L1427.53 1150.55  Z" fill="#e26f46" fill-rule="evenodd" fill-opacity="1"/>
<polyline clip-path="url(#clip902)" style="stroke:#000000; stroke-linecap:round; stroke-linejoin:round; stroke-width:4; stroke-opacity:1; fill:none" points="1427.53,1150.55 1427.53,1445.72 1467.71,1445.72 1467.71,1150.55 1427.53,1150.55 "/>
<path clip-path="url(#clip902)" d="M1467.71 1268.62 L1467.71 1445.72 L1507.88 1445.72 L1507.88 1268.62 L1467.71 1268.62 L1467.71 1268.62  Z" fill="#e26f46" fill-rule="evenodd" fill-opacity="1"/>
<polyline clip-path="url(#clip902)" style="stroke:#000000; stroke-linecap:round; stroke-linejoin:round; stroke-width:4; stroke-opacity:1; fill:none" points="1467.71,1268.62 1467.71,1445.72 1507.88,1445.72 1507.88,1268.62 1467.71,1268.62 "/>
<path clip-path="url(#clip902)" d="M1507.88 1327.65 L1507.88 1445.72 L1548.06 1445.72 L1548.06 1327.65 L1507.88 1327.65 L1507.88 1327.65  Z" fill="#e26f46" fill-rule="evenodd" fill-opacity="1"/>
<polyline clip-path="url(#clip902)" style="stroke:#000000; stroke-linecap:round; stroke-linejoin:round; stroke-width:4; stroke-opacity:1; fill:none" points="1507.88,1327.65 1507.88,1445.72 1548.06,1445.72 1548.06,1327.65 1507.88,1327.65 "/>
<path clip-path="url(#clip902)" d="M1548.06 1386.68 L1548.06 1445.72 L1588.24 1445.72 L1588.24 1386.68 L1548.06 1386.68 L1548.06 1386.68  Z" fill="#e26f46" fill-rule="evenodd" fill-opacity="1"/>
<polyline clip-path="url(#clip902)" style="stroke:#000000; stroke-linecap:round; stroke-linejoin:round; stroke-width:4; stroke-opacity:1; fill:none" points="1548.06,1386.68 1548.06,1445.72 1588.24,1445.72 1588.24,1386.68 1548.06,1386.68 "/>
<path clip-path="url(#clip902)" d="M1588.24 1445.72 L1588.24 1445.72 L1628.42 1445.72 L1628.42 1445.72 L1588.24 1445.72 L1588.24 1445.72  Z" fill="#e26f46" fill-rule="evenodd" fill-opacity="1"/>
<polyline clip-path="url(#clip902)" style="stroke:#000000; stroke-linecap:round; stroke-linejoin:round; stroke-width:4; stroke-opacity:1; fill:none" points="1588.24,1445.72 1588.24,1445.72 1628.42,1445.72 1588.24,1445.72 "/>
<path clip-path="url(#clip902)" d="M1628.42 1445.72 L1628.42 1445.72 L1668.6 1445.72 L1668.6 1445.72 L1628.42 1445.72 L1628.42 1445.72  Z" fill="#e26f46" fill-rule="evenodd" fill-opacity="1"/>
<polyline clip-path="url(#clip902)" style="stroke:#000000; stroke-linecap:round; stroke-linejoin:round; stroke-width:4; stroke-opacity:1; fill:none" points="1628.42,1445.72 1628.42,1445.72 1668.6,1445.72 1628.42,1445.72 "/>
<path clip-path="url(#clip902)" d="M1668.6 1445.72 L1668.6 1445.72 L1708.77 1445.72 L1708.77 1445.72 L1668.6 1445.72 L1668.6 1445.72  Z" fill="#e26f46" fill-rule="evenodd" fill-opacity="1"/>
<polyline clip-path="url(#clip902)" style="stroke:#000000; stroke-linecap:round; stroke-linejoin:round; stroke-width:4; stroke-opacity:1; fill:none" points="1668.6,1445.72 1668.6,1445.72 1708.77,1445.72 1668.6,1445.72 "/>
<path clip-path="url(#clip902)" d="M1708.77 1445.72 L1708.77 1445.72 L1748.95 1445.72 L1748.95 1445.72 L1708.77 1445.72 L1708.77 1445.72  Z" fill="#e26f46" fill-rule="evenodd" fill-opacity="1"/>
<polyline clip-path="url(#clip902)" style="stroke:#000000; stroke-linecap:round; stroke-linejoin:round; stroke-width:4; stroke-opacity:1; fill:none" points="1708.77,1445.72 1708.77,1445.72 1748.95,1445.72 1708.77,1445.72 "/>
<path clip-path="url(#clip902)" d="M1748.95 1445.72 L1748.95 1445.72 L1789.13 1445.72 L1789.13 1445.72 L1748.95 1445.72 L1748.95 1445.72  Z" fill="#e26f46" fill-rule="evenodd" fill-opacity="1"/>
<polyline clip-path="url(#clip902)" style="stroke:#000000; stroke-linecap:round; stroke-linejoin:round; stroke-width:4; stroke-opacity:1; fill:none" points="1748.95,1445.72 1748.95,1445.72 1789.13,1445.72 1748.95,1445.72 "/>
<path clip-path="url(#clip902)" d="M1789.13 1445.72 L1789.13 1445.72 L1829.31 1445.72 L1829.31 1445.72 L1789.13 1445.72 L1789.13 1445.72  Z" fill="#e26f46" fill-rule="evenodd" fill-opacity="1"/>
<polyline clip-path="url(#clip902)" style="stroke:#000000; stroke-linecap:round; stroke-linejoin:round; stroke-width:4; stroke-opacity:1; fill:none" points="1789.13,1445.72 1789.13,1445.72 1829.31,1445.72 1789.13,1445.72 "/>
<path clip-path="url(#clip902)" d="M1829.31 1445.72 L1829.31 1445.72 L1869.49 1445.72 L1869.49 1445.72 L1829.31 1445.72 L1829.31 1445.72  Z" fill="#e26f46" fill-rule="evenodd" fill-opacity="1"/>
<polyline clip-path="url(#clip902)" style="stroke:#000000; stroke-linecap:round; stroke-linejoin:round; stroke-width:4; stroke-opacity:1; fill:none" points="1829.31,1445.72 1829.31,1445.72 1869.49,1445.72 1829.31,1445.72 "/>
<path clip-path="url(#clip902)" d="M1869.49 1445.72 L1869.49 1445.72 L1909.66 1445.72 L1909.66 1445.72 L1869.49 1445.72 L1869.49 1445.72  Z" fill="#e26f46" fill-rule="evenodd" fill-opacity="1"/>
<polyline clip-path="url(#clip902)" style="stroke:#000000; stroke-linecap:round; stroke-linejoin:round; stroke-width:4; stroke-opacity:1; fill:none" points="1869.49,1445.72 1869.49,1445.72 1909.66,1445.72 1869.49,1445.72 "/>
<path clip-path="url(#clip902)" d="M1909.66 1445.72 L1909.66 1445.72 L1949.84 1445.72 L1949.84 1445.72 L1909.66 1445.72 L1909.66 1445.72  Z" fill="#e26f46" fill-rule="evenodd" fill-opacity="1"/>
<polyline clip-path="url(#clip902)" style="stroke:#000000; stroke-linecap:round; stroke-linejoin:round; stroke-width:4; stroke-opacity:1; fill:none" points="1909.66,1445.72 1909.66,1445.72 1949.84,1445.72 1909.66,1445.72 "/>
<path clip-path="url(#clip902)" d="M1949.84 1327.65 L1949.84 1445.72 L1990.02 1445.72 L1990.02 1327.65 L1949.84 1327.65 L1949.84 1327.65  Z" fill="#e26f46" fill-rule="evenodd" fill-opacity="1"/>
<polyline clip-path="url(#clip902)" style="stroke:#000000; stroke-linecap:round; stroke-linejoin:round; stroke-width:4; stroke-opacity:1; fill:none" points="1949.84,1327.65 1949.84,1445.72 1990.02,1445.72 1990.02,1327.65 1949.84,1327.65 "/>
<path clip-path="url(#clip902)" d="M1990.02 1150.55 L1990.02 1445.72 L2030.2 1445.72 L2030.2 1150.55 L1990.02 1150.55 L1990.02 1150.55  Z" fill="#e26f46" fill-rule="evenodd" fill-opacity="1"/>
<polyline clip-path="url(#clip902)" style="stroke:#000000; stroke-linecap:round; stroke-linejoin:round; stroke-width:4; stroke-opacity:1; fill:none" points="1990.02,1150.55 1990.02,1445.72 2030.2,1445.72 2030.2,1150.55 1990.02,1150.55 "/>
<path clip-path="url(#clip902)" d="M2030.2 1091.52 L2030.2 1445.72 L2070.38 1445.72 L2070.38 1091.52 L2030.2 1091.52 L2030.2 1091.52  Z" fill="#e26f46" fill-rule="evenodd" fill-opacity="1"/>
<polyline clip-path="url(#clip902)" style="stroke:#000000; stroke-linecap:round; stroke-linejoin:round; stroke-width:4; stroke-opacity:1; fill:none" points="2030.2,1091.52 2030.2,1445.72 2070.38,1445.72 2070.38,1091.52 2030.2,1091.52 "/>
<path clip-path="url(#clip902)" d="M2070.38 1327.65 L2070.38 1445.72 L2110.55 1445.72 L2110.55 1327.65 L2070.38 1327.65 L2070.38 1327.65  Z" fill="#e26f46" fill-rule="evenodd" fill-opacity="1"/>
<polyline clip-path="url(#clip902)" style="stroke:#000000; stroke-linecap:round; stroke-linejoin:round; stroke-width:4; stroke-opacity:1; fill:none" points="2070.38,1327.65 2070.38,1445.72 2110.55,1445.72 2110.55,1327.65 2070.38,1327.65 "/>
<path clip-path="url(#clip902)" d="M2110.55 1327.65 L2110.55 1445.72 L2150.73 1445.72 L2150.73 1327.65 L2110.55 1327.65 L2110.55 1327.65  Z" fill="#e26f46" fill-rule="evenodd" fill-opacity="1"/>
<polyline clip-path="url(#clip902)" style="stroke:#000000; stroke-linecap:round; stroke-linejoin:round; stroke-width:4; stroke-opacity:1; fill:none" points="2110.55,1327.65 2110.55,1445.72 2150.73,1445.72 2150.73,1327.65 2110.55,1327.65 "/>
<path clip-path="url(#clip902)" d="M2150.73 1032.49 L2150.73 1445.72 L2190.91 1445.72 L2190.91 1032.49 L2150.73 1032.49 L2150.73 1032.49  Z" fill="#e26f46" fill-rule="evenodd" fill-opacity="1"/>
<polyline clip-path="url(#clip902)" style="stroke:#000000; stroke-linecap:round; stroke-linejoin:round; stroke-width:4; stroke-opacity:1; fill:none" points="2150.73,1032.49 2150.73,1445.72 2190.91,1445.72 2190.91,1032.49 2150.73,1032.49 "/>
<path clip-path="url(#clip902)" d="M2190.91 1386.68 L2190.91 1445.72 L2231.09 1445.72 L2231.09 1386.68 L2190.91 1386.68 L2190.91 1386.68  Z" fill="#e26f46" fill-rule="evenodd" fill-opacity="1"/>
<polyline clip-path="url(#clip902)" style="stroke:#000000; stroke-linecap:round; stroke-linejoin:round; stroke-width:4; stroke-opacity:1; fill:none" points="2190.91,1386.68 2190.91,1445.72 2231.09,1445.72 2231.09,1386.68 2190.91,1386.68 "/>
<circle clip-path="url(#clip902)" style="fill:#e26f46; stroke:none; fill-opacity:0" cx="322.63" cy="1386.68" r="2"/>
<circle clip-path="url(#clip902)" style="fill:#e26f46; stroke:none; fill-opacity:0" cx="362.808" cy="1445.72" r="2"/>
<circle clip-path="url(#clip902)" style="fill:#e26f46; stroke:none; fill-opacity:0" cx="402.986" cy="1445.72" r="2"/>
<circle clip-path="url(#clip902)" style="fill:#e26f46; stroke:none; fill-opacity:0" cx="443.164" cy="1445.72" r="2"/>
<circle clip-path="url(#clip902)" style="fill:#e26f46; stroke:none; fill-opacity:0" cx="483.342" cy="1445.72" r="2"/>
<circle clip-path="url(#clip902)" style="fill:#e26f46; stroke:none; fill-opacity:0" cx="523.52" cy="1445.72" r="2"/>
<circle clip-path="url(#clip902)" style="fill:#e26f46; stroke:none; fill-opacity:0" cx="563.698" cy="1445.72" r="2"/>
<circle clip-path="url(#clip902)" style="fill:#e26f46; stroke:none; fill-opacity:0" cx="603.876" cy="1445.72" r="2"/>
<circle clip-path="url(#clip902)" style="fill:#e26f46; stroke:none; fill-opacity:0" cx="644.055" cy="1445.72" r="2"/>
<circle clip-path="url(#clip902)" style="fill:#e26f46; stroke:none; fill-opacity:0" cx="684.233" cy="1445.72" r="2"/>
<circle clip-path="url(#clip902)" style="fill:#e26f46; stroke:none; fill-opacity:0" cx="724.411" cy="1445.72" r="2"/>
<circle clip-path="url(#clip902)" style="fill:#e26f46; stroke:none; fill-opacity:0" cx="764.589" cy="1386.68" r="2"/>
<circle clip-path="url(#clip902)" style="fill:#e26f46; stroke:none; fill-opacity:0" cx="804.767" cy="1268.62" r="2"/>
<circle clip-path="url(#clip902)" style="fill:#e26f46; stroke:none; fill-opacity:0" cx="844.945" cy="1445.72" r="2"/>
<circle clip-path="url(#clip902)" style="fill:#e26f46; stroke:none; fill-opacity:0" cx="885.123" cy="1445.72" r="2"/>
<circle clip-path="url(#clip902)" style="fill:#e26f46; stroke:none; fill-opacity:0" cx="925.301" cy="1445.72" r="2"/>
<circle clip-path="url(#clip902)" style="fill:#e26f46; stroke:none; fill-opacity:0" cx="965.479" cy="1386.68" r="2"/>
<circle clip-path="url(#clip902)" style="fill:#e26f46; stroke:none; fill-opacity:0" cx="1005.66" cy="1386.68" r="2"/>
<circle clip-path="url(#clip902)" style="fill:#e26f46; stroke:none; fill-opacity:0" cx="1045.84" cy="1209.59" r="2"/>
<circle clip-path="url(#clip902)" style="fill:#e26f46; stroke:none; fill-opacity:0" cx="1086.01" cy="1445.72" r="2"/>
<circle clip-path="url(#clip902)" style="fill:#e26f46; stroke:none; fill-opacity:0" cx="1126.19" cy="1445.72" r="2"/>
<circle clip-path="url(#clip902)" style="fill:#e26f46; stroke:none; fill-opacity:0" cx="1166.37" cy="1445.72" r="2"/>
<circle clip-path="url(#clip902)" style="fill:#e26f46; stroke:none; fill-opacity:0" cx="1206.55" cy="1386.68" r="2"/>
<circle clip-path="url(#clip902)" style="fill:#e26f46; stroke:none; fill-opacity:0" cx="1246.73" cy="1327.65" r="2"/>
<circle clip-path="url(#clip902)" style="fill:#e26f46; stroke:none; fill-opacity:0" cx="1286.9" cy="1445.72" r="2"/>
<circle clip-path="url(#clip902)" style="fill:#e26f46; stroke:none; fill-opacity:0" cx="1327.08" cy="1445.72" r="2"/>
<circle clip-path="url(#clip902)" style="fill:#e26f46; stroke:none; fill-opacity:0" cx="1367.26" cy="1327.65" r="2"/>
<circle clip-path="url(#clip902)" style="fill:#e26f46; stroke:none; fill-opacity:0" cx="1407.44" cy="87.9763" r="2"/>
<circle clip-path="url(#clip902)" style="fill:#e26f46; stroke:none; fill-opacity:0" cx="1447.62" cy="1150.55" r="2"/>
<circle clip-path="url(#clip902)" style="fill:#e26f46; stroke:none; fill-opacity:0" cx="1487.79" cy="1268.62" r="2"/>
<circle clip-path="url(#clip902)" style="fill:#e26f46; stroke:none; fill-opacity:0" cx="1527.97" cy="1327.65" r="2"/>
<circle clip-path="url(#clip902)" style="fill:#e26f46; stroke:none; fill-opacity:0" cx="1568.15" cy="1386.68" r="2"/>
<circle clip-path="url(#clip902)" style="fill:#e26f46; stroke:none; fill-opacity:0" cx="1608.33" cy="1445.72" r="2"/>
<circle clip-path="url(#clip902)" style="fill:#e26f46; stroke:none; fill-opacity:0" cx="1648.51" cy="1445.72" r="2"/>
<circle clip-path="url(#clip902)" style="fill:#e26f46; stroke:none; fill-opacity:0" cx="1688.68" cy="1445.72" r="2"/>
<circle clip-path="url(#clip902)" style="fill:#e26f46; stroke:none; fill-opacity:0" cx="1728.86" cy="1445.72" r="2"/>
<circle clip-path="url(#clip902)" style="fill:#e26f46; stroke:none; fill-opacity:0" cx="1769.04" cy="1445.72" r="2"/>
<circle clip-path="url(#clip902)" style="fill:#e26f46; stroke:none; fill-opacity:0" cx="1809.22" cy="1445.72" r="2"/>
<circle clip-path="url(#clip902)" style="fill:#e26f46; stroke:none; fill-opacity:0" cx="1849.4" cy="1445.72" r="2"/>
<circle clip-path="url(#clip902)" style="fill:#e26f46; stroke:none; fill-opacity:0" cx="1889.57" cy="1445.72" r="2"/>
<circle clip-path="url(#clip902)" style="fill:#e26f46; stroke:none; fill-opacity:0" cx="1929.75" cy="1445.72" r="2"/>
<circle clip-path="url(#clip902)" style="fill:#e26f46; stroke:none; fill-opacity:0" cx="1969.93" cy="1327.65" r="2"/>
<circle clip-path="url(#clip902)" style="fill:#e26f46; stroke:none; fill-opacity:0" cx="2010.11" cy="1150.55" r="2"/>
<circle clip-path="url(#clip902)" style="fill:#e26f46; stroke:none; fill-opacity:0" cx="2050.29" cy="1091.52" r="2"/>
<circle clip-path="url(#clip902)" style="fill:#e26f46; stroke:none; fill-opacity:0" cx="2090.47" cy="1327.65" r="2"/>
<circle clip-path="url(#clip902)" style="fill:#e26f46; stroke:none; fill-opacity:0" cx="2130.64" cy="1327.65" r="2"/>
<circle clip-path="url(#clip902)" style="fill:#e26f46; stroke:none; fill-opacity:0" cx="2170.82" cy="1032.49" r="2"/>
<circle clip-path="url(#clip902)" style="fill:#e26f46; stroke:none; fill-opacity:0" cx="2211" cy="1386.68" r="2"/>
<path clip-path="url(#clip900)" d="M1825.69 250.738 L2279.02 250.738 L2279.02 95.2176 L1825.69 95.2176  Z" fill="#ffffff" fill-rule="evenodd" fill-opacity="1"/>
<polyline clip-path="url(#clip900)" style="stroke:#000000; stroke-linecap:round; stroke-linejoin:round; stroke-width:4; stroke-opacity:1; fill:none" points="1825.69,250.738 2279.02,250.738 2279.02,95.2176 1825.69,95.2176 1825.69,250.738 "/>
<path clip-path="url(#clip900)" d="M1850.26 167.794 L1997.74 167.794 L1997.74 126.322 L1850.26 126.322 L1850.26 167.794  Z" fill="#009af9" fill-rule="evenodd" fill-opacity="1"/>
<polyline clip-path="url(#clip900)" style="stroke:#000000; stroke-linecap:round; stroke-linejoin:round; stroke-width:4; stroke-opacity:1; fill:none" points="1850.26,167.794 1997.74,167.794 1997.74,126.322 1850.26,126.322 1850.26,167.794 "/>
<path clip-path="url(#clip900)" d="M2044.56 130.912 L2044.56 135.472 Q2041.9 134.199 2039.54 133.574 Q2037.17 132.949 2034.98 132.949 Q2031.16 132.949 2029.07 134.43 Q2027.01 135.912 2027.01 138.643 Q2027.01 140.935 2028.38 142.115 Q2029.77 143.273 2033.61 143.99 L2036.43 144.569 Q2041.67 145.565 2044.14 148.088 Q2046.64 150.588 2046.64 154.801 Q2046.64 159.824 2043.26 162.416 Q2039.91 165.009 2033.4 165.009 Q2030.95 165.009 2028.17 164.453 Q2025.42 163.898 2022.45 162.81 L2022.45 157.995 Q2025.3 159.592 2028.03 160.402 Q2030.76 161.213 2033.4 161.213 Q2037.41 161.213 2039.58 159.639 Q2041.76 158.064 2041.76 155.148 Q2041.76 152.602 2040.18 151.166 Q2038.63 149.731 2035.07 149.014 L2032.22 148.458 Q2026.99 147.416 2024.65 145.194 Q2022.31 142.972 2022.31 139.014 Q2022.31 134.43 2025.53 131.791 Q2028.77 129.153 2034.44 129.153 Q2036.87 129.153 2039.4 129.592 Q2041.92 130.032 2044.56 130.912 Z" fill="#000000" fill-rule="evenodd" fill-opacity="1" /><path clip-path="url(#clip900)" d="M2053.75 138.412 L2058.01 138.412 L2058.01 164.338 L2053.75 164.338 L2053.75 138.412 M2053.75 128.319 L2058.01 128.319 L2058.01 133.713 L2053.75 133.713 L2053.75 128.319 Z" fill="#000000" fill-rule="evenodd" fill-opacity="1" /><path clip-path="url(#clip900)" d="M2087.11 143.389 Q2088.7 140.518 2090.92 139.153 Q2093.15 137.787 2096.16 137.787 Q2100.21 137.787 2102.41 140.634 Q2104.6 143.458 2104.6 148.689 L2104.6 164.338 L2100.32 164.338 L2100.32 148.828 Q2100.32 145.102 2099 143.296 Q2097.68 141.49 2094.98 141.49 Q2091.67 141.49 2089.74 143.69 Q2087.82 145.889 2087.82 149.685 L2087.82 164.338 L2083.54 164.338 L2083.54 148.828 Q2083.54 145.078 2082.22 143.296 Q2080.9 141.49 2078.15 141.49 Q2074.88 141.49 2072.96 143.713 Q2071.04 145.912 2071.04 149.685 L2071.04 164.338 L2066.76 164.338 L2066.76 138.412 L2071.04 138.412 L2071.04 142.44 Q2072.5 140.055 2074.54 138.921 Q2076.57 137.787 2079.37 137.787 Q2082.2 137.787 2084.17 139.222 Q2086.16 140.657 2087.11 143.389 Z" fill="#000000" fill-rule="evenodd" fill-opacity="1" /><path clip-path="url(#clip900)" d="M2112.66 154.106 L2112.66 138.412 L2116.92 138.412 L2116.92 153.944 Q2116.92 157.625 2118.35 159.476 Q2119.79 161.305 2122.66 161.305 Q2126.11 161.305 2128.1 159.106 Q2130.11 156.907 2130.11 153.111 L2130.11 138.412 L2134.37 138.412 L2134.37 164.338 L2130.11 164.338 L2130.11 160.356 Q2128.56 162.717 2126.5 163.875 Q2124.47 165.009 2121.76 165.009 Q2117.29 165.009 2114.98 162.231 Q2112.66 159.453 2112.66 154.106 M2123.38 137.787 L2123.38 137.787 Z" fill="#000000" fill-rule="evenodd" fill-opacity="1" /><path clip-path="url(#clip900)" d="M2143.15 128.319 L2147.41 128.319 L2147.41 164.338 L2143.15 164.338 L2143.15 128.319 Z" fill="#000000" fill-rule="evenodd" fill-opacity="1" /><path clip-path="url(#clip900)" d="M2168.1 151.305 Q2162.94 151.305 2160.95 152.486 Q2158.96 153.666 2158.96 156.514 Q2158.96 158.782 2160.44 160.125 Q2161.94 161.444 2164.51 161.444 Q2168.05 161.444 2170.18 158.944 Q2172.34 156.421 2172.34 152.254 L2172.34 151.305 L2168.1 151.305 M2176.6 149.546 L2176.6 164.338 L2172.34 164.338 L2172.34 160.402 Q2170.88 162.763 2168.7 163.898 Q2166.53 165.009 2163.38 165.009 Q2159.4 165.009 2157.04 162.787 Q2154.7 160.541 2154.7 156.791 Q2154.7 152.416 2157.61 150.194 Q2160.55 147.972 2166.36 147.972 L2172.34 147.972 L2172.34 147.555 Q2172.34 144.615 2170.39 143.018 Q2168.47 141.398 2164.97 141.398 Q2162.75 141.398 2160.65 141.93 Q2158.54 142.463 2156.6 143.527 L2156.6 139.592 Q2158.93 138.69 2161.13 138.25 Q2163.33 137.787 2165.41 137.787 Q2171.04 137.787 2173.82 140.703 Q2176.6 143.62 2176.6 149.546 Z" fill="#000000" fill-rule="evenodd" fill-opacity="1" /><path clip-path="url(#clip900)" d="M2189.58 131.051 L2189.58 138.412 L2198.35 138.412 L2198.35 141.722 L2189.58 141.722 L2189.58 155.796 Q2189.58 158.967 2190.44 159.87 Q2191.32 160.773 2193.98 160.773 L2198.35 160.773 L2198.35 164.338 L2193.98 164.338 Q2189.05 164.338 2187.17 162.509 Q2185.3 160.657 2185.3 155.796 L2185.3 141.722 L2182.17 141.722 L2182.17 138.412 L2185.3 138.412 L2185.3 131.051 L2189.58 131.051 Z" fill="#000000" fill-rule="evenodd" fill-opacity="1" /><path clip-path="url(#clip900)" d="M2226.13 150.31 L2226.13 152.393 L2206.55 152.393 Q2206.83 156.791 2209.19 159.106 Q2211.57 161.398 2215.81 161.398 Q2218.26 161.398 2220.55 160.796 Q2222.87 160.194 2225.14 158.99 L2225.14 163.018 Q2222.85 163.99 2220.44 164.5 Q2218.03 165.009 2215.55 165.009 Q2209.35 165.009 2205.72 161.398 Q2202.1 157.787 2202.1 151.629 Q2202.1 145.264 2205.53 141.537 Q2208.98 137.787 2214.81 137.787 Q2220.04 137.787 2223.08 141.166 Q2226.13 144.523 2226.13 150.31 M2221.87 149.06 Q2221.83 145.565 2219.91 143.481 Q2218.01 141.398 2214.86 141.398 Q2211.29 141.398 2209.14 143.412 Q2207.01 145.426 2206.69 149.083 L2221.87 149.06 Z" fill="#000000" fill-rule="evenodd" fill-opacity="1" /><path clip-path="url(#clip900)" d="M2250.18 142.347 L2250.18 128.319 L2254.44 128.319 L2254.44 164.338 L2250.18 164.338 L2250.18 160.449 Q2248.84 162.763 2246.78 163.898 Q2244.74 165.009 2241.87 165.009 Q2237.17 165.009 2234.21 161.259 Q2231.27 157.509 2231.27 151.398 Q2231.27 145.287 2234.21 141.537 Q2237.17 137.787 2241.87 137.787 Q2244.74 137.787 2246.78 138.921 Q2248.84 140.032 2250.18 142.347 M2235.67 151.398 Q2235.67 156.097 2237.59 158.782 Q2239.53 161.444 2242.91 161.444 Q2246.29 161.444 2248.24 158.782 Q2250.18 156.097 2250.18 151.398 Q2250.18 146.699 2248.24 144.037 Q2246.29 141.352 2242.91 141.352 Q2239.53 141.352 2237.59 144.037 Q2235.67 146.699 2235.67 151.398 Z" fill="#000000" fill-rule="evenodd" fill-opacity="1" /><path clip-path="url(#clip900)" d="M1850.26 219.634 L1997.74 219.634 L1997.74 178.162 L1850.26 178.162 L1850.26 219.634  Z" fill="#e26f46" fill-rule="evenodd" fill-opacity="1"/>
<polyline clip-path="url(#clip900)" style="stroke:#000000; stroke-linecap:round; stroke-linejoin:round; stroke-width:4; stroke-opacity:1; fill:none" points="1850.26,219.634 1997.74,219.634 1997.74,178.162 1850.26,178.162 1850.26,219.634 "/>
<path clip-path="url(#clip900)" d="M2022.31 181.618 L2051.55 181.618 L2051.55 185.553 L2039.28 185.553 L2039.28 216.178 L2034.58 216.178 L2034.58 185.553 L2022.31 185.553 L2022.31 181.618 Z" fill="#000000" fill-rule="evenodd" fill-opacity="1" /><path clip-path="url(#clip900)" d="M2063.93 194.233 Q2063.22 193.817 2062.36 193.631 Q2061.53 193.423 2060.51 193.423 Q2056.9 193.423 2054.95 195.784 Q2053.03 198.122 2053.03 202.52 L2053.03 216.178 L2048.75 216.178 L2048.75 190.252 L2053.03 190.252 L2053.03 194.28 Q2054.37 191.918 2056.53 190.784 Q2058.68 189.627 2061.76 189.627 Q2062.2 189.627 2062.73 189.696 Q2063.26 189.743 2063.91 189.858 L2063.93 194.233 Z" fill="#000000" fill-rule="evenodd" fill-opacity="1" /><path clip-path="url(#clip900)" d="M2067.96 205.946 L2067.96 190.252 L2072.22 190.252 L2072.22 205.784 Q2072.22 209.465 2073.66 211.316 Q2075.09 213.145 2077.96 213.145 Q2081.41 213.145 2083.4 210.946 Q2085.42 208.747 2085.42 204.951 L2085.42 190.252 L2089.67 190.252 L2089.67 216.178 L2085.42 216.178 L2085.42 212.196 Q2083.86 214.557 2081.8 215.715 Q2079.77 216.849 2077.06 216.849 Q2072.59 216.849 2070.28 214.071 Q2067.96 211.293 2067.96 205.946 M2078.68 189.627 L2078.68 189.627 Z" fill="#000000" fill-rule="evenodd" fill-opacity="1" /><path clip-path="url(#clip900)" d="M2120.62 202.15 L2120.62 204.233 L2101.04 204.233 Q2101.32 208.631 2103.68 210.946 Q2106.06 213.238 2110.3 213.238 Q2112.75 213.238 2115.04 212.636 Q2117.36 212.034 2119.63 210.83 L2119.63 214.858 Q2117.34 215.83 2114.93 216.34 Q2112.52 216.849 2110.04 216.849 Q2103.84 216.849 2100.21 213.238 Q2096.6 209.627 2096.6 203.469 Q2096.6 197.104 2100.02 193.377 Q2103.47 189.627 2109.3 189.627 Q2114.54 189.627 2117.57 193.006 Q2120.62 196.363 2120.62 202.15 M2116.36 200.9 Q2116.32 197.405 2114.4 195.321 Q2112.5 193.238 2109.35 193.238 Q2105.79 193.238 2103.63 195.252 Q2101.5 197.266 2101.18 200.923 L2116.36 200.9 Z" fill="#000000" fill-rule="evenodd" fill-opacity="1" /></svg>
