<?xml version="1.0" encoding="utf-8"?>
<svg xmlns="http://www.w3.org/2000/svg" xmlns:xlink="http://www.w3.org/1999/xlink" width="600" height="400" viewBox="0 0 2400 1600">
<defs>
  <clipPath id="clip860">
    <rect x="0" y="0" width="2400" height="1600"/>
  </clipPath>
</defs>
<path clip-path="url(#clip860)" d="M0 1600 L2400 1600 L2400 0 L0 0  Z" fill="#ffffff" fill-rule="evenodd" fill-opacity="1"/>
<defs>
  <clipPath id="clip861">
    <rect x="480" y="0" width="1681" height="1600"/>
  </clipPath>
</defs>
<path clip-path="url(#clip860)" d="M247.084 1486.45 L2352.76 1486.45 L2352.76 123.472 L247.084 123.472  Z" fill="#ffffff" fill-rule="evenodd" fill-opacity="1"/>
<defs>
  <clipPath id="clip862">
    <rect x="247" y="123" width="2107" height="1364"/>
  </clipPath>
</defs>
<polyline clip-path="url(#clip862)" style="stroke:#000000; stroke-linecap:round; stroke-linejoin:round; stroke-width:2; stroke-opacity:0.1; fill:none" points="512.091,1486.45 512.091,123.472 "/>
<polyline clip-path="url(#clip862)" style="stroke:#000000; stroke-linecap:round; stroke-linejoin:round; stroke-width:2; stroke-opacity:0.1; fill:none" points="1114.31,1486.45 1114.31,123.472 "/>
<polyline clip-path="url(#clip862)" style="stroke:#000000; stroke-linecap:round; stroke-linejoin:round; stroke-width:2; stroke-opacity:0.1; fill:none" points="1717.35,1486.45 1717.35,123.472 "/>
<polyline clip-path="url(#clip862)" style="stroke:#000000; stroke-linecap:round; stroke-linejoin:round; stroke-width:2; stroke-opacity:0.1; fill:none" points="2319.56,1486.45 2319.56,123.472 "/>
<polyline clip-path="url(#clip860)" style="stroke:#000000; stroke-linecap:round; stroke-linejoin:round; stroke-width:4; stroke-opacity:1; fill:none" points="247.084,1486.45 2352.76,1486.45 "/>
<polyline clip-path="url(#clip860)" style="stroke:#000000; stroke-linecap:round; stroke-linejoin:round; stroke-width:4; stroke-opacity:1; fill:none" points="512.091,1486.45 512.091,1467.55 "/>
<polyline clip-path="url(#clip860)" style="stroke:#000000; stroke-linecap:round; stroke-linejoin:round; stroke-width:4; stroke-opacity:1; fill:none" points="1114.31,1486.45 1114.31,1467.55 "/>
<polyline clip-path="url(#clip860)" style="stroke:#000000; stroke-linecap:round; stroke-linejoin:round; stroke-width:4; stroke-opacity:1; fill:none" points="1717.35,1486.45 1717.35,1467.55 "/>
<polyline clip-path="url(#clip860)" style="stroke:#000000; stroke-linecap:round; stroke-linejoin:round; stroke-width:4; stroke-opacity:1; fill:none" points="2319.56,1486.45 2319.56,1467.55 "/>
<path clip-path="url(#clip860)" d="M383.886 1544.91 L400.205 1544.91 L400.205 1548.85 L378.261 1548.85 L378.261 1544.91 Q380.923 1542.16 385.506 1537.53 Q390.113 1532.88 391.293 1531.53 Q393.539 1529.01 394.418 1527.27 Q395.321 1525.51 395.321 1523.82 Q395.321 1521.07 393.377 1519.33 Q391.455 1517.6 388.353 1517.6 Q386.154 1517.6 383.701 1518.36 Q381.27 1519.13 378.492 1520.68 L378.492 1515.95 Q381.316 1514.82 383.77 1514.24 Q386.224 1513.66 388.261 1513.66 Q393.631 1513.66 396.826 1516.35 Q400.02 1519.03 400.02 1523.52 Q400.02 1525.65 399.21 1527.57 Q398.423 1529.47 396.316 1532.07 Q395.738 1532.74 392.636 1535.95 Q389.534 1539.15 383.886 1544.91 Z" fill="#000000" fill-rule="evenodd" fill-opacity="1" /><path clip-path="url(#clip860)" d="M420.02 1517.37 Q416.409 1517.37 414.58 1520.93 Q412.775 1524.47 412.775 1531.6 Q412.775 1538.71 414.58 1542.27 Q416.409 1545.82 420.02 1545.82 Q423.654 1545.82 425.46 1542.27 Q427.288 1538.71 427.288 1531.6 Q427.288 1524.47 425.46 1520.93 Q423.654 1517.37 420.02 1517.37 M420.02 1513.66 Q425.83 1513.66 428.886 1518.27 Q431.964 1522.85 431.964 1531.6 Q431.964 1540.33 428.886 1544.94 Q425.83 1549.52 420.02 1549.52 Q414.21 1549.52 411.131 1544.94 Q408.076 1540.33 408.076 1531.6 Q408.076 1522.85 411.131 1518.27 Q414.21 1513.66 420.02 1513.66 Z" fill="#000000" fill-rule="evenodd" fill-opacity="1" /><path clip-path="url(#clip860)" d="M440.992 1544.91 L448.631 1544.91 L448.631 1518.55 L440.321 1520.21 L440.321 1515.95 L448.585 1514.29 L453.261 1514.29 L453.261 1544.91 L460.899 1544.91 L460.899 1548.85 L440.992 1548.85 L440.992 1544.91 Z" fill="#000000" fill-rule="evenodd" fill-opacity="1" /><path clip-path="url(#clip860)" d="M469.163 1514.29 L491.385 1514.29 L491.385 1516.28 L478.839 1548.85 L473.955 1548.85 L485.76 1518.22 L469.163 1518.22 L469.163 1514.29 Z" fill="#000000" fill-rule="evenodd" fill-opacity="1" /><path clip-path="url(#clip860)" d="M497.751 1533.96 L510.228 1533.96 L510.228 1537.76 L497.751 1537.76 L497.751 1533.96 Z" fill="#000000" fill-rule="evenodd" fill-opacity="1" /><path clip-path="url(#clip860)" d="M527.612 1517.37 Q524.001 1517.37 522.172 1520.93 Q520.367 1524.47 520.367 1531.6 Q520.367 1538.71 522.172 1542.27 Q524.001 1545.82 527.612 1545.82 Q531.246 1545.82 533.052 1542.27 Q534.88 1538.71 534.88 1531.6 Q534.88 1524.47 533.052 1520.93 Q531.246 1517.37 527.612 1517.37 M527.612 1513.66 Q533.422 1513.66 536.478 1518.27 Q539.556 1522.85 539.556 1531.6 Q539.556 1540.33 536.478 1544.94 Q533.422 1549.52 527.612 1549.52 Q521.802 1549.52 518.723 1544.94 Q515.668 1540.33 515.668 1531.6 Q515.668 1522.85 518.723 1518.27 Q521.802 1513.66 527.612 1513.66 Z" fill="#000000" fill-rule="evenodd" fill-opacity="1" /><path clip-path="url(#clip860)" d="M548.584 1544.91 L556.223 1544.91 L556.223 1518.55 L547.913 1520.21 L547.913 1515.95 L556.177 1514.29 L560.853 1514.29 L560.853 1544.91 L568.491 1544.91 L568.491 1548.85 L548.584 1548.85 L548.584 1544.91 Z" fill="#000000" fill-rule="evenodd" fill-opacity="1" /><path clip-path="url(#clip860)" d="M575.181 1533.96 L587.658 1533.96 L587.658 1537.76 L575.181 1537.76 L575.181 1533.96 Z" fill="#000000" fill-rule="evenodd" fill-opacity="1" /><path clip-path="url(#clip860)" d="M605.042 1517.37 Q601.431 1517.37 599.602 1520.93 Q597.797 1524.47 597.797 1531.6 Q597.797 1538.71 599.602 1542.27 Q601.431 1545.82 605.042 1545.82 Q608.676 1545.82 610.482 1542.27 Q612.311 1538.71 612.311 1531.6 Q612.311 1524.47 610.482 1520.93 Q608.676 1517.37 605.042 1517.37 M605.042 1513.66 Q610.852 1513.66 613.908 1518.27 Q616.987 1522.85 616.987 1531.6 Q616.987 1540.33 613.908 1544.94 Q610.852 1549.52 605.042 1549.52 Q599.232 1549.52 596.153 1544.94 Q593.098 1540.33 593.098 1531.6 Q593.098 1522.85 596.153 1518.27 Q599.232 1513.66 605.042 1513.66 Z" fill="#000000" fill-rule="evenodd" fill-opacity="1" /><path clip-path="url(#clip860)" d="M626.014 1544.91 L633.653 1544.91 L633.653 1518.55 L625.343 1520.21 L625.343 1515.95 L633.607 1514.29 L638.283 1514.29 L638.283 1544.91 L645.922 1544.91 L645.922 1548.85 L626.014 1548.85 L626.014 1544.91 Z" fill="#000000" fill-rule="evenodd" fill-opacity="1" /><path clip-path="url(#clip860)" d="M986.1 1544.91 L1002.42 1544.91 L1002.42 1548.85 L980.476 1548.85 L980.476 1544.91 Q983.138 1542.16 987.721 1537.53 Q992.327 1532.88 993.508 1531.53 Q995.753 1529.01 996.633 1527.27 Q997.536 1525.51 997.536 1523.82 Q997.536 1521.07 995.591 1519.33 Q993.67 1517.6 990.568 1517.6 Q988.369 1517.6 985.915 1518.36 Q983.485 1519.13 980.707 1520.68 L980.707 1515.95 Q983.531 1514.82 985.985 1514.24 Q988.438 1513.66 990.475 1513.66 Q995.846 1513.66 999.04 1516.35 Q1002.23 1519.03 1002.23 1523.52 Q1002.23 1525.65 1001.42 1527.57 Q1000.64 1529.47 998.531 1532.07 Q997.952 1532.74 994.85 1535.95 Q991.749 1539.15 986.1 1544.91 Z" fill="#000000" fill-rule="evenodd" fill-opacity="1" /><path clip-path="url(#clip860)" d="M1022.23 1517.37 Q1018.62 1517.37 1016.79 1520.93 Q1014.99 1524.47 1014.99 1531.6 Q1014.99 1538.71 1016.79 1542.27 Q1018.62 1545.82 1022.23 1545.82 Q1025.87 1545.82 1027.67 1542.27 Q1029.5 1538.71 1029.5 1531.6 Q1029.5 1524.47 1027.67 1520.93 Q1025.87 1517.37 1022.23 1517.37 M1022.23 1513.66 Q1028.04 1513.66 1031.1 1518.27 Q1034.18 1522.85 1034.18 1531.6 Q1034.18 1540.33 1031.1 1544.94 Q1028.04 1549.52 1022.23 1549.52 Q1016.42 1549.52 1013.35 1544.94 Q1010.29 1540.33 1010.29 1531.6 Q1010.29 1522.85 1013.35 1518.27 Q1016.42 1513.66 1022.23 1513.66 Z" fill="#000000" fill-rule="evenodd" fill-opacity="1" /><path clip-path="url(#clip860)" d="M1043.21 1544.91 L1050.85 1544.91 L1050.85 1518.55 L1042.54 1520.21 L1042.54 1515.95 L1050.8 1514.29 L1055.48 1514.29 L1055.48 1544.91 L1063.11 1544.91 L1063.11 1548.85 L1043.21 1548.85 L1043.21 1544.91 Z" fill="#000000" fill-rule="evenodd" fill-opacity="1" /><path clip-path="url(#clip860)" d="M1072.7 1548.13 L1072.7 1543.87 Q1074.46 1544.7 1076.26 1545.14 Q1078.07 1545.58 1079.8 1545.58 Q1084.43 1545.58 1086.86 1542.48 Q1089.32 1539.36 1089.66 1533.01 Q1088.32 1535.01 1086.26 1536.07 Q1084.2 1537.13 1081.7 1537.13 Q1076.52 1537.13 1073.48 1534.01 Q1070.48 1530.86 1070.48 1525.42 Q1070.48 1520.1 1073.62 1516.88 Q1076.77 1513.66 1082 1513.66 Q1088 1513.66 1091.15 1518.27 Q1094.32 1522.85 1094.32 1531.6 Q1094.32 1539.77 1090.43 1544.66 Q1086.56 1549.52 1080.01 1549.52 Q1078.25 1549.52 1076.45 1549.17 Q1074.64 1548.82 1072.7 1548.13 M1082 1533.48 Q1085.15 1533.48 1086.98 1531.32 Q1088.83 1529.17 1088.83 1525.42 Q1088.83 1521.7 1086.98 1519.54 Q1085.15 1517.37 1082 1517.37 Q1078.85 1517.37 1077 1519.54 Q1075.17 1521.7 1075.17 1525.42 Q1075.17 1529.17 1077 1531.32 Q1078.85 1533.48 1082 1533.48 Z" fill="#000000" fill-rule="evenodd" fill-opacity="1" /><path clip-path="url(#clip860)" d="M1099.97 1533.96 L1112.44 1533.96 L1112.44 1537.76 L1099.97 1537.76 L1099.97 1533.96 Z" fill="#000000" fill-rule="evenodd" fill-opacity="1" /><path clip-path="url(#clip860)" d="M1129.83 1517.37 Q1126.22 1517.37 1124.39 1520.93 Q1122.58 1524.47 1122.58 1531.6 Q1122.58 1538.71 1124.39 1542.27 Q1126.22 1545.82 1129.83 1545.82 Q1133.46 1545.82 1135.27 1542.27 Q1137.1 1538.71 1137.1 1531.6 Q1137.1 1524.47 1135.27 1520.93 Q1133.46 1517.37 1129.83 1517.37 M1129.83 1513.66 Q1135.64 1513.66 1138.69 1518.27 Q1141.77 1522.85 1141.77 1531.6 Q1141.77 1540.33 1138.69 1544.94 Q1135.64 1549.52 1129.83 1549.52 Q1124.02 1549.52 1120.94 1544.94 Q1117.88 1540.33 1117.88 1531.6 Q1117.88 1522.85 1120.94 1518.27 Q1124.02 1513.66 1129.83 1513.66 Z" fill="#000000" fill-rule="evenodd" fill-opacity="1" /><path clip-path="url(#clip860)" d="M1150.8 1544.91 L1158.44 1544.91 L1158.44 1518.55 L1150.13 1520.21 L1150.13 1515.95 L1158.39 1514.29 L1163.07 1514.29 L1163.07 1544.91 L1170.71 1544.91 L1170.71 1548.85 L1150.8 1548.85 L1150.8 1544.91 Z" fill="#000000" fill-rule="evenodd" fill-opacity="1" /><path clip-path="url(#clip860)" d="M1177.4 1533.96 L1189.87 1533.96 L1189.87 1537.76 L1177.4 1537.76 L1177.4 1533.96 Z" fill="#000000" fill-rule="evenodd" fill-opacity="1" /><path clip-path="url(#clip860)" d="M1207.26 1517.37 Q1203.65 1517.37 1201.82 1520.93 Q1200.01 1524.47 1200.01 1531.6 Q1200.01 1538.71 1201.82 1542.27 Q1203.65 1545.82 1207.26 1545.82 Q1210.89 1545.82 1212.7 1542.27 Q1214.53 1538.71 1214.53 1531.6 Q1214.53 1524.47 1212.7 1520.93 Q1210.89 1517.37 1207.26 1517.37 M1207.26 1513.66 Q1213.07 1513.66 1216.12 1518.27 Q1219.2 1522.85 1219.2 1531.6 Q1219.2 1540.33 1216.12 1544.94 Q1213.07 1549.52 1207.26 1549.52 Q1201.45 1549.52 1198.37 1544.94 Q1195.31 1540.33 1195.31 1531.6 Q1195.31 1522.85 1198.37 1518.27 Q1201.45 1513.66 1207.26 1513.66 Z" fill="#000000" fill-rule="evenodd" fill-opacity="1" /><path clip-path="url(#clip860)" d="M1228.23 1544.91 L1235.87 1544.91 L1235.87 1518.55 L1227.56 1520.21 L1227.56 1515.95 L1235.82 1514.29 L1240.5 1514.29 L1240.5 1544.91 L1248.14 1544.91 L1248.14 1548.85 L1228.23 1548.85 L1228.23 1544.91 Z" fill="#000000" fill-rule="evenodd" fill-opacity="1" /><path clip-path="url(#clip860)" d="M1589.14 1544.91 L1605.46 1544.91 L1605.46 1548.85 L1583.52 1548.85 L1583.52 1544.91 Q1586.18 1542.16 1590.76 1537.53 Q1595.37 1532.88 1596.55 1531.53 Q1598.79 1529.01 1599.67 1527.27 Q1600.58 1525.51 1600.58 1523.82 Q1600.58 1521.07 1598.63 1519.33 Q1596.71 1517.6 1593.61 1517.6 Q1591.41 1517.6 1588.95 1518.36 Q1586.52 1519.13 1583.75 1520.68 L1583.75 1515.95 Q1586.57 1514.82 1589.02 1514.24 Q1591.48 1513.66 1593.51 1513.66 Q1598.89 1513.66 1602.08 1516.35 Q1605.27 1519.03 1605.27 1523.52 Q1605.27 1525.65 1604.46 1527.57 Q1603.68 1529.47 1601.57 1532.07 Q1600.99 1532.74 1597.89 1535.95 Q1594.79 1539.15 1589.14 1544.91 Z" fill="#000000" fill-rule="evenodd" fill-opacity="1" /><path clip-path="url(#clip860)" d="M1625.27 1517.37 Q1621.66 1517.37 1619.83 1520.93 Q1618.03 1524.47 1618.03 1531.6 Q1618.03 1538.71 1619.83 1542.27 Q1621.66 1545.82 1625.27 1545.82 Q1628.91 1545.82 1630.71 1542.27 Q1632.54 1538.71 1632.54 1531.6 Q1632.54 1524.47 1630.71 1520.93 Q1628.91 1517.37 1625.27 1517.37 M1625.27 1513.66 Q1631.08 1513.66 1634.14 1518.27 Q1637.22 1522.85 1637.22 1531.6 Q1637.22 1540.33 1634.14 1544.94 Q1631.08 1549.52 1625.27 1549.52 Q1619.46 1549.52 1616.39 1544.94 Q1613.33 1540.33 1613.33 1531.6 Q1613.33 1522.85 1616.39 1518.27 Q1619.46 1513.66 1625.27 1513.66 Z" fill="#000000" fill-rule="evenodd" fill-opacity="1" /><path clip-path="url(#clip860)" d="M1649.46 1544.91 L1665.78 1544.91 L1665.78 1548.85 L1643.84 1548.85 L1643.84 1544.91 Q1646.5 1542.16 1651.08 1537.53 Q1655.69 1532.88 1656.87 1531.53 Q1659.12 1529.01 1660 1527.27 Q1660.9 1525.51 1660.9 1523.82 Q1660.9 1521.07 1658.95 1519.33 Q1657.03 1517.6 1653.93 1517.6 Q1651.73 1517.6 1649.28 1518.36 Q1646.85 1519.13 1644.07 1520.68 L1644.07 1515.95 Q1646.89 1514.82 1649.35 1514.24 Q1651.8 1513.66 1653.84 1513.66 Q1659.21 1513.66 1662.4 1516.35 Q1665.6 1519.03 1665.6 1523.52 Q1665.6 1525.65 1664.79 1527.57 Q1664 1529.47 1661.89 1532.07 Q1661.32 1532.74 1658.21 1535.95 Q1655.11 1539.15 1649.46 1544.91 Z" fill="#000000" fill-rule="evenodd" fill-opacity="1" /><path clip-path="url(#clip860)" d="M1676.41 1544.91 L1684.05 1544.91 L1684.05 1518.55 L1675.74 1520.21 L1675.74 1515.95 L1684 1514.29 L1688.68 1514.29 L1688.68 1544.91 L1696.32 1544.91 L1696.32 1548.85 L1676.41 1548.85 L1676.41 1544.91 Z" fill="#000000" fill-rule="evenodd" fill-opacity="1" /><path clip-path="url(#clip860)" d="M1703.01 1533.96 L1715.48 1533.96 L1715.48 1537.76 L1703.01 1537.76 L1703.01 1533.96 Z" fill="#000000" fill-rule="evenodd" fill-opacity="1" /><path clip-path="url(#clip860)" d="M1732.87 1517.37 Q1729.25 1517.37 1727.43 1520.93 Q1725.62 1524.47 1725.62 1531.6 Q1725.62 1538.71 1727.43 1542.27 Q1729.25 1545.82 1732.87 1545.82 Q1736.5 1545.82 1738.31 1542.27 Q1740.13 1538.71 1740.13 1531.6 Q1740.13 1524.47 1738.31 1520.93 Q1736.5 1517.37 1732.87 1517.37 M1732.87 1513.66 Q1738.68 1513.66 1741.73 1518.27 Q1744.81 1522.85 1744.81 1531.6 Q1744.81 1540.33 1741.73 1544.94 Q1738.68 1549.52 1732.87 1549.52 Q1727.06 1549.52 1723.98 1544.94 Q1720.92 1540.33 1720.92 1531.6 Q1720.92 1522.85 1723.98 1518.27 Q1727.06 1513.66 1732.87 1513.66 Z" fill="#000000" fill-rule="evenodd" fill-opacity="1" /><path clip-path="url(#clip860)" d="M1753.84 1544.91 L1761.48 1544.91 L1761.48 1518.55 L1753.17 1520.21 L1753.17 1515.95 L1761.43 1514.29 L1766.11 1514.29 L1766.11 1544.91 L1773.75 1544.91 L1773.75 1548.85 L1753.84 1548.85 L1753.84 1544.91 Z" fill="#000000" fill-rule="evenodd" fill-opacity="1" /><path clip-path="url(#clip860)" d="M1780.44 1533.96 L1792.91 1533.96 L1792.91 1537.76 L1780.44 1537.76 L1780.44 1533.96 Z" fill="#000000" fill-rule="evenodd" fill-opacity="1" /><path clip-path="url(#clip860)" d="M1810.3 1517.37 Q1806.69 1517.37 1804.86 1520.93 Q1803.05 1524.47 1803.05 1531.6 Q1803.05 1538.71 1804.86 1542.27 Q1806.69 1545.82 1810.3 1545.82 Q1813.93 1545.82 1815.74 1542.27 Q1817.56 1538.71 1817.56 1531.6 Q1817.56 1524.47 1815.74 1520.93 Q1813.93 1517.37 1810.3 1517.37 M1810.3 1513.66 Q1816.11 1513.66 1819.16 1518.27 Q1822.24 1522.85 1822.24 1531.6 Q1822.24 1540.33 1819.16 1544.94 Q1816.11 1549.52 1810.3 1549.52 Q1804.49 1549.52 1801.41 1544.94 Q1798.35 1540.33 1798.35 1531.6 Q1798.35 1522.85 1801.41 1518.27 Q1804.49 1513.66 1810.3 1513.66 Z" fill="#000000" fill-rule="evenodd" fill-opacity="1" /><path clip-path="url(#clip860)" d="M1831.27 1544.91 L1838.91 1544.91 L1838.91 1518.55 L1830.6 1520.21 L1830.6 1515.95 L1838.86 1514.29 L1843.54 1514.29 L1843.54 1544.91 L1851.18 1544.91 L1851.18 1548.85 L1831.27 1548.85 L1831.27 1544.91 Z" fill="#000000" fill-rule="evenodd" fill-opacity="1" /><path clip-path="url(#clip860)" d="M2191.35 1544.91 L2207.67 1544.91 L2207.67 1548.85 L2185.73 1548.85 L2185.73 1544.91 Q2188.39 1542.16 2192.97 1537.53 Q2197.58 1532.88 2198.76 1531.53 Q2201.01 1529.01 2201.89 1527.27 Q2202.79 1525.51 2202.79 1523.82 Q2202.79 1521.07 2200.85 1519.33 Q2198.92 1517.6 2195.82 1517.6 Q2193.62 1517.6 2191.17 1518.36 Q2188.74 1519.13 2185.96 1520.68 L2185.96 1515.95 Q2188.79 1514.82 2191.24 1514.24 Q2193.69 1513.66 2195.73 1513.66 Q2201.1 1513.66 2204.29 1516.35 Q2207.49 1519.03 2207.49 1523.52 Q2207.49 1525.65 2206.68 1527.57 Q2205.89 1529.47 2203.79 1532.07 Q2203.21 1532.74 2200.1 1535.95 Q2197 1539.15 2191.35 1544.91 Z" fill="#000000" fill-rule="evenodd" fill-opacity="1" /><path clip-path="url(#clip860)" d="M2227.49 1517.37 Q2223.88 1517.37 2222.05 1520.93 Q2220.24 1524.47 2220.24 1531.6 Q2220.24 1538.71 2222.05 1542.27 Q2223.88 1545.82 2227.49 1545.82 Q2231.12 1545.82 2232.93 1542.27 Q2234.76 1538.71 2234.76 1531.6 Q2234.76 1524.47 2232.93 1520.93 Q2231.12 1517.37 2227.49 1517.37 M2227.49 1513.66 Q2233.3 1513.66 2236.35 1518.27 Q2239.43 1522.85 2239.43 1531.6 Q2239.43 1540.33 2236.35 1544.94 Q2233.3 1549.52 2227.49 1549.52 Q2221.68 1549.52 2218.6 1544.94 Q2215.54 1540.33 2215.54 1531.6 Q2215.54 1522.85 2218.6 1518.27 Q2221.68 1513.66 2227.49 1513.66 Z" fill="#000000" fill-rule="evenodd" fill-opacity="1" /><path clip-path="url(#clip860)" d="M2251.68 1544.91 L2268 1544.91 L2268 1548.85 L2246.05 1548.85 L2246.05 1544.91 Q2248.72 1542.16 2253.3 1537.53 Q2257.91 1532.88 2259.09 1531.53 Q2261.33 1529.01 2262.21 1527.27 Q2263.11 1525.51 2263.11 1523.82 Q2263.11 1521.07 2261.17 1519.33 Q2259.25 1517.6 2256.15 1517.6 Q2253.95 1517.6 2251.49 1518.36 Q2249.06 1519.13 2246.28 1520.68 L2246.28 1515.95 Q2249.11 1514.82 2251.56 1514.24 Q2254.02 1513.66 2256.05 1513.66 Q2261.42 1513.66 2264.62 1516.35 Q2267.81 1519.03 2267.81 1523.52 Q2267.81 1525.65 2267 1527.57 Q2266.22 1529.47 2264.11 1532.07 Q2263.53 1532.74 2260.43 1535.95 Q2257.33 1539.15 2251.68 1544.91 Z" fill="#000000" fill-rule="evenodd" fill-opacity="1" /><path clip-path="url(#clip860)" d="M2291.98 1530.21 Q2295.34 1530.93 2297.21 1533.2 Q2299.11 1535.47 2299.11 1538.8 Q2299.11 1543.92 2295.59 1546.72 Q2292.07 1549.52 2285.59 1549.52 Q2283.41 1549.52 2281.1 1549.08 Q2278.81 1548.66 2276.35 1547.81 L2276.35 1543.29 Q2278.3 1544.43 2280.61 1545.01 Q2282.93 1545.58 2285.45 1545.58 Q2289.85 1545.58 2292.14 1543.85 Q2294.46 1542.11 2294.46 1538.8 Q2294.46 1535.75 2292.3 1534.03 Q2290.17 1532.3 2286.35 1532.3 L2282.33 1532.3 L2282.33 1528.45 L2286.54 1528.45 Q2289.99 1528.45 2291.82 1527.09 Q2293.65 1525.7 2293.65 1523.11 Q2293.65 1520.45 2291.75 1519.03 Q2289.87 1517.6 2286.35 1517.6 Q2284.43 1517.6 2282.23 1518.01 Q2280.03 1518.43 2277.4 1519.31 L2277.4 1515.14 Q2280.06 1514.4 2282.37 1514.03 Q2284.71 1513.66 2286.77 1513.66 Q2292.09 1513.66 2295.2 1516.09 Q2298.3 1518.5 2298.3 1522.62 Q2298.3 1525.49 2296.65 1527.48 Q2295.01 1529.45 2291.98 1530.21 Z" fill="#000000" fill-rule="evenodd" fill-opacity="1" /><path clip-path="url(#clip860)" d="M2305.22 1533.96 L2317.7 1533.96 L2317.7 1537.76 L2305.22 1537.76 L2305.22 1533.96 Z" fill="#000000" fill-rule="evenodd" fill-opacity="1" /><path clip-path="url(#clip860)" d="M2335.08 1517.37 Q2331.47 1517.37 2329.64 1520.93 Q2327.84 1524.47 2327.84 1531.6 Q2327.84 1538.71 2329.64 1542.27 Q2331.47 1545.82 2335.08 1545.82 Q2338.71 1545.82 2340.52 1542.27 Q2342.35 1538.71 2342.35 1531.6 Q2342.35 1524.47 2340.52 1520.93 Q2338.71 1517.37 2335.08 1517.37 M2335.08 1513.66 Q2340.89 1513.66 2343.95 1518.27 Q2347.02 1522.85 2347.02 1531.6 Q2347.02 1540.33 2343.95 1544.94 Q2340.89 1549.52 2335.08 1549.52 Q2329.27 1549.52 2326.19 1544.94 Q2323.14 1540.33 2323.14 1531.6 Q2323.14 1522.85 2326.19 1518.27 Q2329.27 1513.66 2335.08 1513.66 Z" fill="#000000" fill-rule="evenodd" fill-opacity="1" /><path clip-path="url(#clip860)" d="M2356.05 1544.91 L2363.69 1544.91 L2363.69 1518.55 L2355.38 1520.21 L2355.38 1515.95 L2363.65 1514.29 L2368.32 1514.29 L2368.32 1544.91 L2375.96 1544.91 L2375.96 1548.85 L2356.05 1548.85 L2356.05 1544.91 Z" fill="#000000" fill-rule="evenodd" fill-opacity="1" /><path clip-path="url(#clip860)" d="M2382.65 1533.96 L2395.13 1533.96 L2395.13 1537.76 L2382.65 1537.76 L2382.65 1533.96 Z" fill="#000000" fill-rule="evenodd" fill-opacity="1" /><path clip-path="url(#clip860)" d="M2412.51 1517.37 Q2408.9 1517.37 2407.07 1520.93 Q2405.27 1524.47 2405.27 1531.6 Q2405.27 1538.71 2407.07 1542.27 Q2408.9 1545.82 2412.51 1545.82 Q2416.14 1545.82 2417.95 1542.27 Q2419.78 1538.71 2419.78 1531.6 Q2419.78 1524.47 2417.95 1520.93 Q2416.14 1517.37 2412.51 1517.37 M2412.51 1513.66 Q2418.32 1513.66 2421.38 1518.27 Q2424.46 1522.85 2424.46 1531.6 Q2424.46 1540.33 2421.38 1544.94 Q2418.32 1549.52 2412.51 1549.52 Q2406.7 1549.52 2403.62 1544.94 Q2400.57 1540.33 2400.57 1531.6 Q2400.57 1522.85 2403.62 1518.27 Q2406.7 1513.66 2412.51 1513.66 Z" fill="#000000" fill-rule="evenodd" fill-opacity="1" /><path clip-path="url(#clip860)" d="M2433.48 1544.91 L2441.12 1544.91 L2441.12 1518.55 L2432.81 1520.21 L2432.81 1515.95 L2441.08 1514.29 L2445.75 1514.29 L2445.75 1544.91 L2453.39 1544.91 L2453.39 1548.85 L2433.48 1548.85 L2433.48 1544.91 Z" fill="#000000" fill-rule="evenodd" fill-opacity="1" /><polyline clip-path="url(#clip862)" style="stroke:#000000; stroke-linecap:round; stroke-linejoin:round; stroke-width:2; stroke-opacity:0.1; fill:none" points="247.084,1309.68 2352.76,1309.68 "/>
<polyline clip-path="url(#clip862)" style="stroke:#000000; stroke-linecap:round; stroke-linejoin:round; stroke-width:2; stroke-opacity:0.1; fill:none" points="247.084,976.704 2352.76,976.704 "/>
<polyline clip-path="url(#clip862)" style="stroke:#000000; stroke-linecap:round; stroke-linejoin:round; stroke-width:2; stroke-opacity:0.1; fill:none" points="247.084,643.728 2352.76,643.728 "/>
<polyline clip-path="url(#clip862)" style="stroke:#000000; stroke-linecap:round; stroke-linejoin:round; stroke-width:2; stroke-opacity:0.1; fill:none" points="247.084,310.752 2352.76,310.752 "/>
<polyline clip-path="url(#clip860)" style="stroke:#000000; stroke-linecap:round; stroke-linejoin:round; stroke-width:4; stroke-opacity:1; fill:none" points="247.084,1486.45 247.084,123.472 "/>
<polyline clip-path="url(#clip860)" style="stroke:#000000; stroke-linecap:round; stroke-linejoin:round; stroke-width:4; stroke-opacity:1; fill:none" points="247.084,1309.68 265.981,1309.68 "/>
<polyline clip-path="url(#clip860)" style="stroke:#000000; stroke-linecap:round; stroke-linejoin:round; stroke-width:4; stroke-opacity:1; fill:none" points="247.084,976.704 265.981,976.704 "/>
<polyline clip-path="url(#clip860)" style="stroke:#000000; stroke-linecap:round; stroke-linejoin:round; stroke-width:4; stroke-opacity:1; fill:none" points="247.084,643.728 265.981,643.728 "/>
<polyline clip-path="url(#clip860)" style="stroke:#000000; stroke-linecap:round; stroke-linejoin:round; stroke-width:4; stroke-opacity:1; fill:none" points="247.084,310.752 265.981,310.752 "/>
<path clip-path="url(#clip860)" d="M63.5152 1295.48 Q59.9041 1295.48 58.0754 1299.04 Q56.2699 1302.59 56.2699 1309.71 Q56.2699 1316.82 58.0754 1320.39 Q59.9041 1323.93 63.5152 1323.93 Q67.1494 1323.93 68.955 1320.39 Q70.7837 1316.82 70.7837 1309.71 Q70.7837 1302.59 68.955 1299.04 Q67.1494 1295.48 63.5152 1295.48 M63.5152 1291.78 Q69.3254 1291.78 72.3809 1296.38 Q75.4596 1300.96 75.4596 1309.71 Q75.4596 1318.44 72.3809 1323.05 Q69.3254 1327.63 63.5152 1327.63 Q57.7051 1327.63 54.6264 1323.05 Q51.5708 1318.44 51.5708 1309.71 Q51.5708 1300.96 54.6264 1296.38 Q57.7051 1291.78 63.5152 1291.78 Z" fill="#000000" fill-rule="evenodd" fill-opacity="1" /><path clip-path="url(#clip860)" d="M83.6771 1321.08 L88.5614 1321.08 L88.5614 1326.96 L83.6771 1326.96 L83.6771 1321.08 Z" fill="#000000" fill-rule="evenodd" fill-opacity="1" /><path clip-path="url(#clip860)" d="M108.746 1295.48 Q105.135 1295.48 103.307 1299.04 Q101.501 1302.59 101.501 1309.71 Q101.501 1316.82 103.307 1320.39 Q105.135 1323.93 108.746 1323.93 Q112.381 1323.93 114.186 1320.39 Q116.015 1316.82 116.015 1309.71 Q116.015 1302.59 114.186 1299.04 Q112.381 1295.48 108.746 1295.48 M108.746 1291.78 Q114.557 1291.78 117.612 1296.38 Q120.691 1300.96 120.691 1309.71 Q120.691 1318.44 117.612 1323.05 Q114.557 1327.63 108.746 1327.63 Q102.936 1327.63 99.8576 1323.05 Q96.8021 1318.44 96.8021 1309.71 Q96.8021 1300.96 99.8576 1296.38 Q102.936 1291.78 108.746 1291.78 Z" fill="#000000" fill-rule="evenodd" fill-opacity="1" /><path clip-path="url(#clip860)" d="M143.075 1308.33 Q146.431 1309.04 148.306 1311.31 Q150.205 1313.58 150.205 1316.91 Q150.205 1322.03 146.686 1324.83 Q143.168 1327.63 136.686 1327.63 Q134.51 1327.63 132.195 1327.19 Q129.904 1326.78 127.45 1325.92 L127.45 1321.4 Q129.394 1322.54 131.709 1323.12 Q134.024 1323.7 136.547 1323.7 Q140.945 1323.7 143.237 1321.96 Q145.552 1320.22 145.552 1316.91 Q145.552 1313.86 143.399 1312.15 Q141.269 1310.41 137.45 1310.41 L133.422 1310.41 L133.422 1306.57 L137.635 1306.57 Q141.084 1306.57 142.913 1305.2 Q144.742 1303.81 144.742 1301.22 Q144.742 1298.56 142.843 1297.15 Q140.968 1295.71 137.45 1295.71 Q135.529 1295.71 133.33 1296.13 Q131.131 1296.54 128.492 1297.42 L128.492 1293.26 Q131.154 1292.52 133.469 1292.15 Q135.806 1291.78 137.867 1291.78 Q143.191 1291.78 146.293 1294.21 Q149.394 1296.61 149.394 1300.73 Q149.394 1303.6 147.751 1305.59 Q146.107 1307.56 143.075 1308.33 Z" fill="#000000" fill-rule="evenodd" fill-opacity="1" /><path clip-path="url(#clip860)" d="M169.07 1295.48 Q165.459 1295.48 163.63 1299.04 Q161.825 1302.59 161.825 1309.71 Q161.825 1316.82 163.63 1320.39 Q165.459 1323.93 169.07 1323.93 Q172.704 1323.93 174.51 1320.39 Q176.339 1316.82 176.339 1309.71 Q176.339 1302.59 174.51 1299.04 Q172.704 1295.48 169.07 1295.48 M169.07 1291.78 Q174.88 1291.78 177.936 1296.38 Q181.015 1300.96 181.015 1309.71 Q181.015 1318.44 177.936 1323.05 Q174.88 1327.63 169.07 1327.63 Q163.26 1327.63 160.181 1323.05 Q157.126 1318.44 157.126 1309.71 Q157.126 1300.96 160.181 1296.38 Q163.26 1291.78 169.07 1291.78 Z" fill="#000000" fill-rule="evenodd" fill-opacity="1" /><path clip-path="url(#clip860)" d="M199.232 1310.55 Q195.899 1310.55 193.977 1312.33 Q192.079 1314.11 192.079 1317.24 Q192.079 1320.36 193.977 1322.15 Q195.899 1323.93 199.232 1323.93 Q202.565 1323.93 204.487 1322.15 Q206.408 1320.34 206.408 1317.24 Q206.408 1314.11 204.487 1312.33 Q202.589 1310.55 199.232 1310.55 M194.556 1308.56 Q191.547 1307.82 189.857 1305.76 Q188.19 1303.7 188.19 1300.73 Q188.19 1296.59 191.13 1294.18 Q194.093 1291.78 199.232 1291.78 Q204.394 1291.78 207.334 1294.18 Q210.274 1296.59 210.274 1300.73 Q210.274 1303.7 208.584 1305.76 Q206.917 1307.82 203.931 1308.56 Q207.311 1309.34 209.186 1311.64 Q211.084 1313.93 211.084 1317.24 Q211.084 1322.26 208.005 1324.95 Q204.95 1327.63 199.232 1327.63 Q193.515 1327.63 190.436 1324.95 Q187.38 1322.26 187.38 1317.24 Q187.38 1313.93 189.278 1311.64 Q191.177 1309.34 194.556 1308.56 M192.843 1301.17 Q192.843 1303.86 194.51 1305.36 Q196.2 1306.87 199.232 1306.87 Q202.241 1306.87 203.931 1305.36 Q205.644 1303.86 205.644 1301.17 Q205.644 1298.49 203.931 1296.98 Q202.241 1295.48 199.232 1295.48 Q196.2 1295.48 194.51 1296.98 Q192.843 1298.49 192.843 1301.17 Z" fill="#000000" fill-rule="evenodd" fill-opacity="1" /><path clip-path="url(#clip860)" d="M63.4226 962.503 Q59.8115 962.503 57.9828 966.068 Q56.1773 969.609 56.1773 976.739 Q56.1773 983.845 57.9828 987.41 Q59.8115 990.952 63.4226 990.952 Q67.0569 990.952 68.8624 987.41 Q70.6911 983.845 70.6911 976.739 Q70.6911 969.609 68.8624 966.068 Q67.0569 962.503 63.4226 962.503 M63.4226 958.799 Q69.2328 958.799 72.2883 963.406 Q75.367 967.989 75.367 976.739 Q75.367 985.466 72.2883 990.072 Q69.2328 994.655 63.4226 994.655 Q57.6125 994.655 54.5338 990.072 Q51.4782 985.466 51.4782 976.739 Q51.4782 967.989 54.5338 963.406 Q57.6125 958.799 63.4226 958.799 Z" fill="#000000" fill-rule="evenodd" fill-opacity="1" /><path clip-path="url(#clip860)" d="M83.5845 988.104 L88.4688 988.104 L88.4688 993.984 L83.5845 993.984 L83.5845 988.104 Z" fill="#000000" fill-rule="evenodd" fill-opacity="1" /><path clip-path="url(#clip860)" d="M108.654 962.503 Q105.043 962.503 103.214 966.068 Q101.409 969.609 101.409 976.739 Q101.409 983.845 103.214 987.41 Q105.043 990.952 108.654 990.952 Q112.288 990.952 114.094 987.41 Q115.922 983.845 115.922 976.739 Q115.922 969.609 114.094 966.068 Q112.288 962.503 108.654 962.503 M108.654 958.799 Q114.464 958.799 117.52 963.406 Q120.598 967.989 120.598 976.739 Q120.598 985.466 117.52 990.072 Q114.464 994.655 108.654 994.655 Q102.844 994.655 99.765 990.072 Q96.7095 985.466 96.7095 976.739 Q96.7095 967.989 99.765 963.406 Q102.844 958.799 108.654 958.799 Z" fill="#000000" fill-rule="evenodd" fill-opacity="1" /><path clip-path="url(#clip860)" d="M142.982 975.35 Q146.339 976.067 148.214 978.336 Q150.112 980.605 150.112 983.938 Q150.112 989.054 146.593 991.854 Q143.075 994.655 136.594 994.655 Q134.418 994.655 132.103 994.216 Q129.811 993.799 127.357 992.942 L127.357 988.429 Q129.302 989.563 131.617 990.141 Q133.931 990.72 136.455 990.72 Q140.853 990.72 143.144 988.984 Q145.459 987.248 145.459 983.938 Q145.459 980.882 143.306 979.169 Q141.177 977.433 137.357 977.433 L133.33 977.433 L133.33 973.591 L137.543 973.591 Q140.992 973.591 142.82 972.225 Q144.649 970.836 144.649 968.243 Q144.649 965.581 142.751 964.169 Q140.876 962.734 137.357 962.734 Q135.436 962.734 133.237 963.151 Q131.038 963.568 128.399 964.447 L128.399 960.281 Q131.061 959.54 133.376 959.169 Q135.714 958.799 137.774 958.799 Q143.098 958.799 146.2 961.23 Q149.302 963.637 149.302 967.757 Q149.302 970.628 147.658 972.618 Q146.015 974.586 142.982 975.35 Z" fill="#000000" fill-rule="evenodd" fill-opacity="1" /><path clip-path="url(#clip860)" d="M159.788 990.049 L167.427 990.049 L167.427 963.683 L159.117 965.35 L159.117 961.091 L167.38 959.424 L172.056 959.424 L172.056 990.049 L179.695 990.049 L179.695 993.984 L159.788 993.984 L159.788 990.049 Z" fill="#000000" fill-rule="evenodd" fill-opacity="1" /><path clip-path="url(#clip860)" d="M199.139 962.503 Q195.528 962.503 193.7 966.068 Q191.894 969.609 191.894 976.739 Q191.894 983.845 193.7 987.41 Q195.528 990.952 199.139 990.952 Q202.774 990.952 204.579 987.41 Q206.408 983.845 206.408 976.739 Q206.408 969.609 204.579 966.068 Q202.774 962.503 199.139 962.503 M199.139 958.799 Q204.95 958.799 208.005 963.406 Q211.084 967.989 211.084 976.739 Q211.084 985.466 208.005 990.072 Q204.95 994.655 199.139 994.655 Q193.329 994.655 190.251 990.072 Q187.195 985.466 187.195 976.739 Q187.195 967.989 190.251 963.406 Q193.329 958.799 199.139 958.799 Z" fill="#000000" fill-rule="evenodd" fill-opacity="1" /><path clip-path="url(#clip860)" d="M65.0198 629.527 Q61.4087 629.527 59.58 633.091 Q57.7745 636.633 57.7745 643.763 Q57.7745 650.869 59.58 654.434 Q61.4087 657.976 65.0198 657.976 Q68.6541 657.976 70.4596 654.434 Q72.2883 650.869 72.2883 643.763 Q72.2883 636.633 70.4596 633.091 Q68.6541 629.527 65.0198 629.527 M65.0198 625.823 Q70.83 625.823 73.8855 630.429 Q76.9642 635.013 76.9642 643.763 Q76.9642 652.489 73.8855 657.096 Q70.83 661.679 65.0198 661.679 Q59.2097 661.679 56.131 657.096 Q53.0754 652.489 53.0754 643.763 Q53.0754 635.013 56.131 630.429 Q59.2097 625.823 65.0198 625.823 Z" fill="#000000" fill-rule="evenodd" fill-opacity="1" /><path clip-path="url(#clip860)" d="M85.1818 655.128 L90.066 655.128 L90.066 661.008 L85.1818 661.008 L85.1818 655.128 Z" fill="#000000" fill-rule="evenodd" fill-opacity="1" /><path clip-path="url(#clip860)" d="M110.251 629.527 Q106.64 629.527 104.811 633.091 Q103.006 636.633 103.006 643.763 Q103.006 650.869 104.811 654.434 Q106.64 657.976 110.251 657.976 Q113.885 657.976 115.691 654.434 Q117.52 650.869 117.52 643.763 Q117.52 636.633 115.691 633.091 Q113.885 629.527 110.251 629.527 M110.251 625.823 Q116.061 625.823 119.117 630.429 Q122.195 635.013 122.195 643.763 Q122.195 652.489 119.117 657.096 Q116.061 661.679 110.251 661.679 Q104.441 661.679 101.362 657.096 Q98.3067 652.489 98.3067 643.763 Q98.3067 635.013 101.362 630.429 Q104.441 625.823 110.251 625.823 Z" fill="#000000" fill-rule="evenodd" fill-opacity="1" /><path clip-path="url(#clip860)" d="M144.58 642.374 Q147.936 643.091 149.811 645.36 Q151.709 647.628 151.709 650.962 Q151.709 656.077 148.191 658.878 Q144.672 661.679 138.191 661.679 Q136.015 661.679 133.7 661.239 Q131.408 660.823 128.955 659.966 L128.955 655.452 Q130.899 656.587 133.214 657.165 Q135.529 657.744 138.052 657.744 Q142.45 657.744 144.742 656.008 Q147.056 654.272 147.056 650.962 Q147.056 647.906 144.904 646.193 Q142.774 644.457 138.955 644.457 L134.927 644.457 L134.927 640.615 L139.14 640.615 Q142.589 640.615 144.418 639.249 Q146.246 637.86 146.246 635.267 Q146.246 632.605 144.348 631.193 Q142.473 629.758 138.955 629.758 Q137.033 629.758 134.834 630.175 Q132.635 630.591 129.996 631.471 L129.996 627.304 Q132.658 626.564 134.973 626.193 Q137.311 625.823 139.371 625.823 Q144.695 625.823 147.797 628.253 Q150.899 630.661 150.899 634.781 Q150.899 637.652 149.255 639.642 Q147.612 641.61 144.58 642.374 Z" fill="#000000" fill-rule="evenodd" fill-opacity="1" /><path clip-path="url(#clip860)" d="M161.385 657.073 L169.024 657.073 L169.024 630.707 L160.714 632.374 L160.714 628.115 L168.978 626.448 L173.654 626.448 L173.654 657.073 L181.292 657.073 L181.292 661.008 L161.385 661.008 L161.385 657.073 Z" fill="#000000" fill-rule="evenodd" fill-opacity="1" /><path clip-path="url(#clip860)" d="M194.765 657.073 L211.084 657.073 L211.084 661.008 L189.14 661.008 L189.14 657.073 Q191.802 654.318 196.385 649.689 Q200.991 645.036 202.172 643.693 Q204.417 641.17 205.297 639.434 Q206.2 637.675 206.2 635.985 Q206.2 633.23 204.255 631.494 Q202.334 629.758 199.232 629.758 Q197.033 629.758 194.579 630.522 Q192.149 631.286 189.371 632.837 L189.371 628.115 Q192.195 626.98 194.649 626.402 Q197.102 625.823 199.139 625.823 Q204.51 625.823 207.704 628.508 Q210.899 631.193 210.899 635.684 Q210.899 637.814 210.088 639.735 Q209.301 641.633 207.195 644.226 Q206.616 644.897 203.514 648.114 Q200.413 651.309 194.765 657.073 Z" fill="#000000" fill-rule="evenodd" fill-opacity="1" /><path clip-path="url(#clip860)" d="M62.9365 296.55 Q59.3254 296.55 57.4967 300.115 Q55.6912 303.657 55.6912 310.787 Q55.6912 317.893 57.4967 321.458 Q59.3254 324.999 62.9365 324.999 Q66.5707 324.999 68.3763 321.458 Q70.205 317.893 70.205 310.787 Q70.205 303.657 68.3763 300.115 Q66.5707 296.55 62.9365 296.55 M62.9365 292.847 Q68.7467 292.847 71.8022 297.453 Q74.8809 302.037 74.8809 310.787 Q74.8809 319.513 71.8022 324.12 Q68.7467 328.703 62.9365 328.703 Q57.1264 328.703 54.0477 324.12 Q50.9921 319.513 50.9921 310.787 Q50.9921 302.037 54.0477 297.453 Q57.1264 292.847 62.9365 292.847 Z" fill="#000000" fill-rule="evenodd" fill-opacity="1" /><path clip-path="url(#clip860)" d="M83.0984 322.152 L87.9827 322.152 L87.9827 328.032 L83.0984 328.032 L83.0984 322.152 Z" fill="#000000" fill-rule="evenodd" fill-opacity="1" /><path clip-path="url(#clip860)" d="M108.168 296.55 Q104.557 296.55 102.728 300.115 Q100.922 303.657 100.922 310.787 Q100.922 317.893 102.728 321.458 Q104.557 324.999 108.168 324.999 Q111.802 324.999 113.608 321.458 Q115.436 317.893 115.436 310.787 Q115.436 303.657 113.608 300.115 Q111.802 296.55 108.168 296.55 M108.168 292.847 Q113.978 292.847 117.033 297.453 Q120.112 302.037 120.112 310.787 Q120.112 319.513 117.033 324.12 Q113.978 328.703 108.168 328.703 Q102.358 328.703 99.2789 324.12 Q96.2234 319.513 96.2234 310.787 Q96.2234 302.037 99.2789 297.453 Q102.358 292.847 108.168 292.847 Z" fill="#000000" fill-rule="evenodd" fill-opacity="1" /><path clip-path="url(#clip860)" d="M142.496 309.398 Q145.853 310.115 147.728 312.384 Q149.626 314.652 149.626 317.986 Q149.626 323.101 146.107 325.902 Q142.589 328.703 136.107 328.703 Q133.931 328.703 131.617 328.263 Q129.325 327.847 126.871 326.99 L126.871 322.476 Q128.816 323.611 131.131 324.189 Q133.445 324.768 135.969 324.768 Q140.367 324.768 142.658 323.032 Q144.973 321.296 144.973 317.986 Q144.973 314.93 142.82 313.217 Q140.691 311.481 136.871 311.481 L132.844 311.481 L132.844 307.638 L137.056 307.638 Q140.506 307.638 142.334 306.273 Q144.163 304.884 144.163 302.291 Q144.163 299.629 142.265 298.217 Q140.39 296.782 136.871 296.782 Q134.95 296.782 132.751 297.199 Q130.552 297.615 127.913 298.495 L127.913 294.328 Q130.575 293.588 132.89 293.217 Q135.228 292.847 137.288 292.847 Q142.612 292.847 145.714 295.277 Q148.816 297.685 148.816 301.805 Q148.816 304.675 147.172 306.666 Q145.529 308.634 142.496 309.398 Z" fill="#000000" fill-rule="evenodd" fill-opacity="1" /><path clip-path="url(#clip860)" d="M159.302 324.097 L166.941 324.097 L166.941 297.731 L158.63 299.398 L158.63 295.138 L166.894 293.472 L171.57 293.472 L171.57 324.097 L179.209 324.097 L179.209 328.032 L159.302 328.032 L159.302 324.097 Z" fill="#000000" fill-rule="evenodd" fill-opacity="1" /><path clip-path="url(#clip860)" d="M201.501 297.546 L189.695 315.995 L201.501 315.995 L201.501 297.546 M200.274 293.472 L206.153 293.472 L206.153 315.995 L211.084 315.995 L211.084 319.884 L206.153 319.884 L206.153 328.032 L201.501 328.032 L201.501 319.884 L185.899 319.884 L185.899 315.37 L200.274 293.472 Z" fill="#000000" fill-rule="evenodd" fill-opacity="1" /><path clip-path="url(#clip860)" d="M964.343 18.8205 L964.343 41.5461 L974.632 41.5461 Q980.344 41.5461 983.463 38.5889 Q986.582 35.6318 986.582 30.163 Q986.582 24.7348 983.463 21.7777 Q980.344 18.8205 974.632 18.8205 L964.343 18.8205 M956.16 12.096 L974.632 12.096 Q984.8 12.096 989.985 16.714 Q995.211 21.2916 995.211 30.163 Q995.211 39.1155 989.985 43.6931 Q984.8 48.2706 974.632 48.2706 L964.343 48.2706 L964.343 72.576 L956.16 72.576 L956.16 12.096 Z" fill="#000000" fill-rule="evenodd" fill-opacity="1" /><path clip-path="url(#clip860)" d="M1020.49 32.4315 Q1014.49 32.4315 1011.01 37.1306 Q1007.53 41.7891 1007.53 49.9314 Q1007.53 58.0738 1010.97 62.7728 Q1014.45 67.4314 1020.49 67.4314 Q1026.44 67.4314 1029.93 62.7323 Q1033.41 58.0333 1033.41 49.9314 Q1033.41 41.8701 1029.93 37.1711 Q1026.44 32.4315 1020.49 32.4315 M1020.49 26.1121 Q1030.21 26.1121 1035.76 32.4315 Q1041.31 38.7509 1041.31 49.9314 Q1041.31 61.0714 1035.76 67.4314 Q1030.21 73.7508 1020.49 73.7508 Q1010.73 73.7508 1005.18 67.4314 Q999.667 61.0714 999.667 49.9314 Q999.667 38.7509 1005.18 32.4315 Q1010.73 26.1121 1020.49 26.1121 Z" fill="#000000" fill-rule="evenodd" fill-opacity="1" /><path clip-path="url(#clip860)" d="M1053.67 27.2059 L1061.12 27.2059 L1061.12 72.576 L1053.67 72.576 L1053.67 27.2059 M1053.67 9.54393 L1061.12 9.54393 L1061.12 18.9825 L1053.67 18.9825 L1053.67 9.54393 Z" fill="#000000" fill-rule="evenodd" fill-opacity="1" /><path clip-path="url(#clip860)" d="M1105.64 28.5427 L1105.64 35.5912 Q1102.48 33.9709 1099.08 33.1607 Q1095.67 32.3505 1092.03 32.3505 Q1086.48 32.3505 1083.68 34.0519 Q1080.93 35.7533 1080.93 39.156 Q1080.93 41.7486 1082.91 43.2475 Q1084.9 44.7058 1090.89 46.0426 L1093.45 46.6097 Q1101.39 48.3111 1104.71 51.4303 Q1108.07 54.509 1108.07 60.0587 Q1108.07 66.3781 1103.05 70.0644 Q1098.06 73.7508 1089.31 73.7508 Q1085.67 73.7508 1081.7 73.0216 Q1077.77 72.3329 1073.39 70.9151 L1073.39 63.2184 Q1077.53 65.3654 1081.54 66.4591 Q1085.55 67.5124 1089.48 67.5124 Q1094.74 67.5124 1097.58 65.73 Q1100.41 63.9071 1100.41 60.6258 Q1100.41 57.5877 1098.35 55.9673 Q1096.32 54.3469 1089.39 52.8481 L1086.8 52.2405 Q1079.87 50.7821 1076.8 47.7845 Q1073.72 44.7463 1073.72 39.4801 Q1073.72 33.0797 1078.25 29.5959 Q1082.79 26.1121 1091.14 26.1121 Q1095.27 26.1121 1098.91 26.7198 Q1102.56 27.3274 1105.64 28.5427 Z" fill="#000000" fill-rule="evenodd" fill-opacity="1" /><path clip-path="url(#clip860)" d="M1148.86 28.5427 L1148.86 35.5912 Q1145.7 33.9709 1142.3 33.1607 Q1138.9 32.3505 1135.25 32.3505 Q1129.7 32.3505 1126.91 34.0519 Q1124.15 35.7533 1124.15 39.156 Q1124.15 41.7486 1126.14 43.2475 Q1128.12 44.7058 1134.12 46.0426 L1136.67 46.6097 Q1144.61 48.3111 1147.93 51.4303 Q1151.29 54.509 1151.29 60.0587 Q1151.29 66.3781 1146.27 70.0644 Q1141.29 73.7508 1132.54 73.7508 Q1128.89 73.7508 1124.92 73.0216 Q1120.99 72.3329 1116.62 70.9151 L1116.62 63.2184 Q1120.75 65.3654 1124.76 66.4591 Q1128.77 67.5124 1132.7 67.5124 Q1137.96 67.5124 1140.8 65.73 Q1143.64 63.9071 1143.64 60.6258 Q1143.64 57.5877 1141.57 55.9673 Q1139.54 54.3469 1132.62 52.8481 L1130.02 52.2405 Q1123.1 50.7821 1120.02 47.7845 Q1116.94 44.7463 1116.94 39.4801 Q1116.94 33.0797 1121.48 29.5959 Q1126.01 26.1121 1134.36 26.1121 Q1138.49 26.1121 1142.14 26.7198 Q1145.78 27.3274 1148.86 28.5427 Z" fill="#000000" fill-rule="evenodd" fill-opacity="1" /><path clip-path="url(#clip860)" d="M1180.74 32.4315 Q1174.75 32.4315 1171.26 37.1306 Q1167.78 41.7891 1167.78 49.9314 Q1167.78 58.0738 1171.22 62.7728 Q1174.71 67.4314 1180.74 67.4314 Q1186.7 67.4314 1190.18 62.7323 Q1193.66 58.0333 1193.66 49.9314 Q1193.66 41.8701 1190.18 37.1711 Q1186.7 32.4315 1180.74 32.4315 M1180.74 26.1121 Q1190.46 26.1121 1196.01 32.4315 Q1201.56 38.7509 1201.56 49.9314 Q1201.56 61.0714 1196.01 67.4314 Q1190.46 73.7508 1180.74 73.7508 Q1170.98 73.7508 1165.43 67.4314 Q1159.92 61.0714 1159.92 49.9314 Q1159.92 38.7509 1165.43 32.4315 Q1170.98 26.1121 1180.74 26.1121 Z" fill="#000000" fill-rule="evenodd" fill-opacity="1" /><path clip-path="url(#clip860)" d="M1251.63 45.1919 L1251.63 72.576 L1244.18 72.576 L1244.18 45.4349 Q1244.18 38.994 1241.67 35.7938 Q1239.16 32.5936 1234.13 32.5936 Q1228.1 32.5936 1224.61 36.4419 Q1221.13 40.2903 1221.13 46.9338 L1221.13 72.576 L1213.64 72.576 L1213.64 27.2059 L1221.13 27.2059 L1221.13 34.2544 Q1223.8 30.163 1227.41 28.1376 Q1231.05 26.1121 1235.79 26.1121 Q1243.61 26.1121 1247.62 30.9732 Q1251.63 35.7938 1251.63 45.1919 Z" fill="#000000" fill-rule="evenodd" fill-opacity="1" /><path clip-path="url(#clip860)" d="M1293.2 12.096 L1301.38 12.096 L1301.38 72.576 L1293.2 72.576 L1293.2 12.096 Z" fill="#000000" fill-rule="evenodd" fill-opacity="1" /><path clip-path="url(#clip860)" d="M1355.05 45.1919 L1355.05 72.576 L1347.6 72.576 L1347.6 45.4349 Q1347.6 38.994 1345.09 35.7938 Q1342.58 32.5936 1337.55 32.5936 Q1331.52 32.5936 1328.03 36.4419 Q1324.55 40.2903 1324.55 46.9338 L1324.55 72.576 L1317.06 72.576 L1317.06 27.2059 L1324.55 27.2059 L1324.55 34.2544 Q1327.22 30.163 1330.83 28.1376 Q1334.47 26.1121 1339.21 26.1121 Q1347.03 26.1121 1351.04 30.9732 Q1355.05 35.7938 1355.05 45.1919 Z" fill="#000000" fill-rule="evenodd" fill-opacity="1" /><path clip-path="url(#clip860)" d="M1377.29 14.324 L1377.29 27.2059 L1392.65 27.2059 L1392.65 32.9987 L1377.29 32.9987 L1377.29 57.6282 Q1377.29 63.1779 1378.79 64.7578 Q1380.33 66.3376 1384.99 66.3376 L1392.65 66.3376 L1392.65 72.576 L1384.99 72.576 Q1376.36 72.576 1373.08 69.3758 Q1369.8 66.1351 1369.8 57.6282 L1369.8 32.9987 L1364.33 32.9987 L1364.33 27.2059 L1369.8 27.2059 L1369.8 14.324 L1377.29 14.324 Z" fill="#000000" fill-rule="evenodd" fill-opacity="1" /><path clip-path="url(#clip860)" d="M1441.26 48.0275 L1441.26 51.6733 L1406.99 51.6733 Q1407.47 59.3701 1411.6 63.421 Q1415.78 67.4314 1423.19 67.4314 Q1427.48 67.4314 1431.49 66.3781 Q1435.54 65.3249 1439.51 63.2184 L1439.51 70.267 Q1435.5 71.9684 1431.29 72.8596 Q1427.08 73.7508 1422.74 73.7508 Q1411.89 73.7508 1405.53 67.4314 Q1399.21 61.1119 1399.21 50.3365 Q1399.21 39.1965 1405.2 32.6746 Q1411.24 26.1121 1421.45 26.1121 Q1430.6 26.1121 1435.91 32.0264 Q1441.26 37.9003 1441.26 48.0275 M1433.8 45.84 Q1433.72 39.7232 1430.36 36.0774 Q1427.04 32.4315 1421.53 32.4315 Q1415.29 32.4315 1411.52 35.9558 Q1407.8 39.4801 1407.23 45.8805 L1433.8 45.84 Z" fill="#000000" fill-rule="evenodd" fill-opacity="1" /><path clip-path="url(#clip860)" d="M1491.2 45.1919 L1491.2 72.576 L1483.75 72.576 L1483.75 45.4349 Q1483.75 38.994 1481.24 35.7938 Q1478.73 32.5936 1473.7 32.5936 Q1467.67 32.5936 1464.18 36.4419 Q1460.7 40.2903 1460.7 46.9338 L1460.7 72.576 L1453.21 72.576 L1453.21 27.2059 L1460.7 27.2059 L1460.7 34.2544 Q1463.37 30.163 1466.98 28.1376 Q1470.62 26.1121 1475.36 26.1121 Q1483.18 26.1121 1487.19 30.9732 Q1491.2 35.7938 1491.2 45.1919 Z" fill="#000000" fill-rule="evenodd" fill-opacity="1" /><path clip-path="url(#clip860)" d="M1534.99 28.5427 L1534.99 35.5912 Q1531.83 33.9709 1528.43 33.1607 Q1525.03 32.3505 1521.38 32.3505 Q1515.83 32.3505 1513.04 34.0519 Q1510.28 35.7533 1510.28 39.156 Q1510.28 41.7486 1512.27 43.2475 Q1514.25 44.7058 1520.25 46.0426 L1522.8 46.6097 Q1530.74 48.3111 1534.06 51.4303 Q1537.42 54.509 1537.42 60.0587 Q1537.42 66.3781 1532.4 70.0644 Q1527.42 73.7508 1518.67 73.7508 Q1515.02 73.7508 1511.05 73.0216 Q1507.12 72.3329 1502.75 70.9151 L1502.75 63.2184 Q1506.88 65.3654 1510.89 66.4591 Q1514.9 67.5124 1518.83 67.5124 Q1524.1 67.5124 1526.93 65.73 Q1529.77 63.9071 1529.77 60.6258 Q1529.77 57.5877 1527.7 55.9673 Q1525.68 54.3469 1518.75 52.8481 L1516.16 52.2405 Q1509.23 50.7821 1506.15 47.7845 Q1503.07 44.7463 1503.07 39.4801 Q1503.07 33.0797 1507.61 29.5959 Q1512.15 26.1121 1520.49 26.1121 Q1524.62 26.1121 1528.27 26.7198 Q1531.92 27.3274 1534.99 28.5427 Z" fill="#000000" fill-rule="evenodd" fill-opacity="1" /><path clip-path="url(#clip860)" d="M1549.29 27.2059 L1556.75 27.2059 L1556.75 72.576 L1549.29 72.576 L1549.29 27.2059 M1549.29 9.54393 L1556.75 9.54393 L1556.75 18.9825 L1549.29 18.9825 L1549.29 9.54393 Z" fill="#000000" fill-rule="evenodd" fill-opacity="1" /><path clip-path="url(#clip860)" d="M1579.72 14.324 L1579.72 27.2059 L1595.07 27.2059 L1595.07 32.9987 L1579.72 32.9987 L1579.72 57.6282 Q1579.72 63.1779 1581.21 64.7578 Q1582.75 66.3376 1587.41 66.3376 L1595.07 66.3376 L1595.07 72.576 L1587.41 72.576 Q1578.78 72.576 1575.5 69.3758 Q1572.22 66.1351 1572.22 57.6282 L1572.22 32.9987 L1566.75 32.9987 L1566.75 27.2059 L1572.22 27.2059 L1572.22 14.324 L1579.72 14.324 Z" fill="#000000" fill-rule="evenodd" fill-opacity="1" /><path clip-path="url(#clip860)" d="M1623.75 76.7889 Q1620.59 84.8907 1617.59 87.3618 Q1614.59 89.8329 1609.57 89.8329 L1603.62 89.8329 L1603.62 83.5945 L1607.99 83.5945 Q1611.07 83.5945 1612.77 82.1361 Q1614.47 80.6778 1616.54 75.2496 L1617.88 71.8468 L1599.52 27.2059 L1607.42 27.2059 L1621.6 62.6918 L1635.78 27.2059 L1643.68 27.2059 L1623.75 76.7889 Z" fill="#000000" fill-rule="evenodd" fill-opacity="1" /><polyline clip-path="url(#clip862)" style="stroke:#009af9; stroke-linecap:round; stroke-linejoin:round; stroke-width:4; stroke-opacity:1; fill:none" points="306.678,697.883 307.503,720.099 308.328,729.047 309.153,729.047 309.978,729.047 310.803,684.574 311.628,709.643 312.453,706.067 313.278,710.147 314.103,705.101 314.928,705.101 315.753,705.101 316.578,746.915 317.403,739.247 318.228,742.748 319.053,699.789 319.878,727.873 320.703,727.873 321.527,727.873 322.352,744.296 323.177,747.084 324.002,714.025 324.827,692.39 325.652,689.107 326.477,689.107 327.302,689.107 328.127,704.601 328.952,683.014 329.777,718.951 330.602,749.214 331.427,775.039 332.252,775.039 333.077,775.039 333.902,775.039 334.727,779.728 335.552,799.164 336.377,846.348 337.202,871.537 338.027,871.537 338.851,871.537 339.676,864.501 340.501,859.165 341.326,907.103 342.151,883.909 342.976,920.246 343.801,920.246 344.626,920.246 345.451,900.823 346.276,910.024 347.101,896.598 347.926,857.661 348.751,890.258 349.576,890.258 350.401,890.258 351.226,859.372 352.051,890.475 352.876,886.288 353.701,840.136 354.526,864.029 355.35,864.029 356.175,864.029 357,831.012 357.825,787.843 358.65,817.093 359.475,881.943 360.3,930.452 361.125,930.452 361.95,930.452 362.775,930.452 363.6,934.065 364.425,922.668 365.25,956.879 366.075,919.155 366.9,919.155 367.725,919.155 368.55,915.77 369.375,893.032 370.2,913.254 371.025,913.906 371.85,898.14 372.674,898.14 373.499,898.14 374.324,918.502 375.149,915.176 375.974,891.784 376.799,903.302 377.624,912.516 378.449,912.516 379.274,912.516 380.099,877.042 380.924,864.131 381.749,857.991 382.574,850.198 383.399,850.826 384.224,850.826 385.049,850.826 385.874,873.386 386.699,863.096 387.524,850.186 388.349,826.623 389.173,830.859 389.998,830.859 390.823,830.859 391.648,848.431 392.473,836.988 393.298,826.723 394.123,824.473 394.948,830.187 395.773,830.187 396.598,830.187 397.423,829.612 398.248,846.612 399.073,838.136 399.898,840.446 400.723,827.992 401.548,827.992 402.373,827.992 403.198,817.483 404.023,821.802 404.848,813.244 405.673,809.915 406.497,826.612 407.322,826.612 408.147,826.612 408.972,803.743 409.797,834.116 410.622,826.336 411.447,825.512 412.272,808.881 413.097,808.881 413.922,808.881 414.747,808.881 415.572,798.951 416.397,804.27 417.222,806.125 418.047,789.504 418.872,789.504 419.697,789.504 420.522,740.262 421.347,764.167 422.172,747.799 422.997,746.95 423.821,768.06 424.646,768.06 425.471,768.06 426.296,758.43 427.121,755.041 427.946,771.889 428.771,801.006 429.596,798.507 430.421,798.507 431.246,798.507 432.071,804.607 432.896,799.391 433.721,811.217 434.546,813.413 435.371,796.386 436.196,796.386 437.021,796.386 437.846,787.518 438.671,798.892 439.496,789.676 440.32,813.823 441.145,797.659 441.97,797.659 442.795,797.659 443.62,807.749 444.445,815.965 445.27,800.14 446.095,790.774 446.92,788.176 447.745,788.176 448.57,788.176 449.395,765.01 450.22,747.449 451.045,757.478 451.87,754.354 452.695,755.012 453.52,755.012 454.345,755.012 455.17,751.263 455.995,754.004 456.82,753.69 457.644,740.939 458.469,733.295 459.294,733.295 460.119,733.295 460.944,721.649 461.769,724.69 462.594,728.702 463.419,731.484 464.244,727.426 465.069,727.426 465.894,727.426 466.719,727.557 467.544,755.85 468.369,775.58 469.194,783.544 470.019,783.133 470.844,783.133 471.669,783.133 472.494,781.969 473.319,759.681 474.143,839.21 474.968,869.099 475.793,845.265 476.618,845.265 477.443,845.265 478.268,811.175 479.093,800.252 479.918,800.235 480.743,800.235 481.568,814.276 482.393,814.276 483.218,814.276 484.043,810.115 484.868,803.313 485.693,779.485 486.518,769.181 487.343,749.416 488.168,749.416 488.993,749.416 489.818,750.059 490.643,750.884 491.467,759.176 492.292,777.637 493.117,784.116 493.942,784.116 494.767,784.116 495.592,787.848 496.417,792.142 497.242,795.701 498.067,786.602 498.892,792.476 499.717,792.476 500.542,792.476 501.367,791.244 502.192,792.819 503.017,796.894 503.842,793.719 504.667,802.414 505.492,802.414 506.317,802.414 507.142,802.414 507.967,799.319 508.791,801.676 509.616,772.618 510.441,772.926 511.266,772.926 512.091,772.926 512.916,772.926 513.741,765.343 514.566,782.699 515.391,785.496 516.216,785.567 517.041,785.567 517.866,785.567 518.691,787.608 519.516,791.112 520.341,787.355 521.166,787.693 521.991,786.59 522.816,786.59 523.641,786.59 524.466,786.59 525.29,790.535 526.115,780.816 526.94,793.781 527.765,789.194 528.59,789.194 529.415,789.194 530.24,798.4 531.065,784.99 531.89,799.314 532.715,819.671 533.54,817.941 534.365,817.941 535.19,817.941 536.015,807.149 536.84,790.861 537.665,790.259 538.49,795.432 539.315,839.89 540.14,839.89 540.965,839.89 541.79,826.718 542.614,849.741 543.439,850.501 544.264,834.776 545.089,852.036 545.914,852.036 546.739,852.036 547.564,858.879 548.389,867.638 549.214,856.123 550.039,853.569 550.864,861.963 551.689,861.963 552.514,861.963 553.339,861.963 554.164,879.444 554.989,878.709 555.814,868.77 556.639,885.472 557.464,885.472 558.289,885.472 559.113,874.668 559.938,882.538 560.763,886.727 561.588,902.675 562.413,890.516 563.238,890.516 564.063,890.516 564.888,898.173 565.713,884.657 566.538,900.64 567.363,895.586 568.188,902.47 569.013,902.47 569.838,902.47 570.663,908.824 571.488,915.244 572.313,898.263 573.138,908.269 573.963,908.064 574.788,908.064 575.613,908.064 576.437,905.498 577.262,894.572 578.087,877.596 578.912,884.94 579.737,887.435 580.562,887.435 581.387,887.435 582.212,892.641 583.037,889.8 583.862,915.747 584.687,929.084 585.512,941.944 586.337,941.944 587.162,941.944 587.987,939.904 588.812,904.074 589.637,892.176 590.462,866.933 591.287,866.941 592.112,866.941 592.937,866.941 593.761,869.48 594.586,869.482 595.411,853.616 596.236,849.359 597.061,849.359 597.886,849.359 598.711,849.359 599.536,829.033 600.361,848.165 601.186,829.392 602.011,822.803 602.836,835.54 603.661,835.54 604.486,835.54 605.311,823.569 606.136,851.026 606.961,858.518 607.786,861.916 608.611,869.873 609.436,869.873 610.26,869.873 611.085,865.859 611.91,858.894 612.735,854.028 613.56,828.954 614.385,825.994 615.21,825.994 616.035,825.994 616.86,821.877 617.685,824.264 618.51,810.92 619.335,828.131 620.16,818.378 620.985,818.378 621.81,818.378 622.635,818.406 623.46,823.617 624.285,815.608 625.11,788.948 625.935,798.039 626.76,798.039 627.584,798.039 628.409,807.33 629.234,812.457 630.059,830.692 630.884,835.434 631.709,850.663 632.534,850.663 633.359,850.663 634.184,850.663 635.009,837.672 635.834,825.131 636.659,825.802 637.484,832.568 638.309,832.568 639.134,832.568 639.959,844.497 640.784,843.634 641.609,833.908 642.434,840.753 643.259,837.391 644.083,837.391 644.908,837.391 645.733,841.889 646.558,836.825 647.383,851.035 648.208,843.637 649.033,844.63 649.858,844.63 650.683,844.63 651.508,833.588 652.333,833.157 653.158,823.196 653.983,824.991 654.808,835.046 655.633,835.046 656.458,835.046 657.283,838.257 658.108,837.851 658.933,822.938 659.758,826.014 660.583,813.633 661.407,813.633 662.232,813.633 663.057,816.732 663.882,816.732 664.707,818.379 665.532,811.181 666.357,787.927 667.182,787.927 668.007,787.927 668.832,790.019 669.657,783.967 670.482,773.594 671.307,787.817 672.132,789.08 672.957,789.08 673.782,789.08 674.607,786.333 675.432,787.59 676.257,787.535 677.082,794.444 677.906,792.571 678.731,792.571 679.556,792.571 680.381,795.586 681.206,770.823 682.031,785.851 682.856,785.249 683.681,788.655 684.506,788.655 685.331,788.655 686.156,792.209 686.981,794.595 687.806,796.493 688.631,791.09 689.456,786.74 690.281,786.74 691.106,786.74 691.931,796.291 692.756,784.94 693.581,783.719 694.406,786.386 695.23,763.482 696.055,763.482 696.88,763.482 697.705,788.769 698.53,802.537 699.355,805.061 700.18,808.757 701.005,783.018 701.83,783.018 702.655,783.018 703.48,766.946 704.305,766.217 705.13,778.913 705.955,777.409 706.78,775.974 707.605,775.974 708.43,775.974 709.255,778.347 710.08,784.714 710.905,781.933 711.73,791.866 712.554,800.274 713.379,800.274 714.204,800.274 715.029,800.274 715.854,806.662 716.679,800.666 717.504,818.284 718.329,802.803 719.154,802.803 719.979,802.803 720.804,805.733 721.629,827.494 722.454,820.443 723.279,826.455 724.104,806.225 724.929,806.225 725.754,806.225 726.579,798.669 727.404,802.703 728.229,803.345 729.053,807.694 729.878,799.097 730.703,799.097 731.528,799.097 732.353,798.496 733.178,796.862 734.003,795.912 734.828,795.869 735.653,797.986 736.478,797.986 737.303,797.986 738.128,805.653 738.953,810.446 739.778,817.526 740.603,822.825 741.428,824.56 742.253,824.56 743.078,824.56 743.903,824.015 744.728,852.071 745.553,850.034 746.377,841.56 747.202,829.524 748.027,829.524 748.852,829.524 749.677,827.653 750.502,826.621 751.327,818.773 752.152,820.693 752.977,823.083 753.802,823.083 754.627,823.083 755.452,832.598 756.277,812.328 757.102,808.913 757.927,801.485 758.752,807.99 759.577,807.99 760.402,807.99 761.227,820.313 762.052,813.664 762.876,817.414 763.701,821.375 764.526,813.865 765.351,813.865 766.176,813.865 767.001,821.247 767.826,827.306 768.651,826.226 769.476,814.171 770.301,819.509 771.126,819.509 771.951,819.509 772.776,819.793 773.601,822.27 774.426,815.747 775.251,805.731 776.076,834.433 776.901,834.433 777.726,834.433 778.551,814.319 779.376,832.535 780.2,840.999 781.025,840.999 781.85,836.123 782.675,836.123 783.5,836.123 784.325,836.948 785.15,852.074 785.975,858.624 786.8,856.014 787.625,871.909 788.45,871.909 789.275,871.909 790.1,856.091 790.925,850.183 791.75,836.083 792.575,836.152 793.4,840.596 794.225,840.596 795.05,840.596 795.875,840.931 796.7,846.11 797.524,850.776 798.349,850.655 799.174,839.387 799.999,839.387 800.824,839.387 801.649,853.723 802.474,866.574 803.299,862.428 804.124,862.126 804.949,861.371 805.774,861.371 806.599,861.371 807.424,861.371 808.249,860.134 809.074,861.137 809.899,859.427 810.724,859.59 811.549,859.59 812.374,859.59 813.199,859.59 814.023,857.607 814.848,869.805 815.673,906.711 816.498,911.376 817.323,911.376 818.148,911.376 818.973,905.988 819.798,909.165 820.623,910.022 821.448,935.056 822.273,951.257 823.098,951.257 823.923,951.257 824.748,951.257 825.573,961.632 826.398,937.982 827.223,960.29 828.048,961.352 828.873,961.352 829.698,961.352 830.523,965.599 831.347,979.507 832.172,981.219 832.997,972.085 833.822,963.886 834.647,963.886 835.472,963.886 836.297,980.025 837.122,980.774 837.947,956.312 838.772,958.113 839.597,959.129 840.422,959.129 841.247,959.129 842.072,900.637 842.897,818.164 843.722,850.826 844.547,842.253 845.372,771.814 846.197,771.814 847.022,771.814 847.846,795.817 848.671,818.403 849.496,822.603 850.321,851.575 851.146,872.762 851.971,872.762 852.796,872.762 853.621,872.762 854.446,877.707 855.271,865.647 856.096,848.974 856.921,848.887 857.746,848.887 858.571,848.887 859.396,871.803 860.221,884.988 861.046,858.009 861.871,836.304 862.696,801.188 863.521,801.188 864.346,801.188 865.17,812.018 865.995,835.25 866.82,835.662 867.645,832.744 868.47,843.254 869.295,843.254 870.12,843.254 870.945,872.02 871.77,867.713 872.595,855.025 873.42,843.672 874.245,841.269 875.07,841.269 875.895,841.269 876.72,834.484 877.545,817.04 878.37,816.369 879.195,821.498 880.02,775.374 880.845,775.374 881.67,775.374 882.494,720.696 883.319,775.812 884.144,743.688 884.969,734.751 885.794,734.751 886.619,734.751 887.444,734.751 888.269,758.49 889.094,711.905 889.919,731.683 890.744,753.406 891.569,762.859 892.394,762.859 893.219,762.859 894.044,728.912 894.869,737.359 895.694,764.794 896.519,759.493 897.344,783.674 898.169,783.674 898.993,783.674 899.818,763.576 900.643,783.443 901.468,799.049 902.293,789.142 903.118,780.188 903.943,780.188 904.768,780.188 905.593,761.331 906.418,761.727 907.243,719.817 908.068,724.623 908.893,727.657 909.718,727.657 910.543,727.657 911.368,732.807 912.193,721.276 913.018,730.387 913.843,718.019 914.668,708.444 915.493,708.444 916.317,708.444 917.142,721.397 917.967,722.356 918.792,718.973 919.617,736.735 920.442,760.594 921.267,760.594 922.092,760.594 922.917,750.036 923.742,740.648 924.567,734.562 925.392,743.025 926.217,739.105 927.042,739.105 927.867,739.105 928.692,735.035 929.517,750.637 930.342,744.2 931.167,745.969 931.992,748.611 932.816,748.611 933.641,748.611 934.466,748.611 935.291,732.241 936.116,700.332 936.941,716.102 937.766,692.182 938.591,692.182 939.416,692.182 940.241,707.334 941.066,711.713 941.891,716.539 942.716,718.047 943.541,705.647 944.366,705.647 945.191,705.647 946.016,716.875 946.841,702.697 947.666,707.933 948.491,693.971 949.316,683.735 950.14,683.735 950.965,683.735 951.79,669.43 952.615,667.306 953.44,658.938 954.265,641.745 955.09,642.325 955.915,642.325 956.74,642.325 957.565,664.855 958.39,638.719 959.215,643.55 960.04,671.679 960.865,754.991 961.69,754.991 962.515,754.991 963.34,724.489 964.165,737.087 964.99,737.087 965.815,798.544 966.64,785.22 967.464,785.22 968.289,785.22 969.114,776.107 969.939,787.608 970.764,769.238 971.589,735.367 972.414,749.237 973.239,749.237 974.064,749.237 974.889,762.361 975.714,770.971 976.539,775.681 977.364,750.852 978.189,722.532 979.014,722.532 979.839,722.532 980.664,744.038 981.489,766.875 982.314,799.814 983.139,807.059 983.963,781.711 984.788,781.711 985.613,781.711 986.438,765.374 987.263,755.342 988.088,755.733 988.913,723.024 989.738,733.81 990.563,733.81 991.388,733.81 992.213,753.646 993.038,769.744 993.863,777.019 994.688,774.223 995.513,795.841 996.338,795.841 997.163,795.841 997.988,781.537 998.813,778.183 999.638,834.186 1000.46,860.179 1001.29,826.146 1002.11,826.146 1002.94,826.146 1003.76,861.922 1004.59,872.313 1005.41,851.532 1006.24,891.799 1007.06,866.964 1007.89,866.964 1008.71,866.964 1009.54,856.873 1010.36,858.41 1011.19,899.26 1012.01,901.374 1012.84,865.441 1013.66,865.441 1014.49,865.441 1015.31,865.441 1016.14,874.484 1016.96,856.964 1017.79,857.538 1018.61,836.686 1019.44,836.686 1020.26,836.686 1021.09,814.315 1021.91,816.24 1022.74,832.614 1023.56,847.788 1024.39,858.391 1025.21,858.391 1026.04,858.391 1026.86,883.041 1027.69,869.586 1028.51,861.378 1029.34,861.115 1030.16,888.945 1030.99,888.945 1031.81,888.945 1032.64,884.964 1033.46,891.251 1034.29,892.909 1035.11,864.688 1035.94,863.447 1036.76,863.447 1037.59,863.447 1038.41,862.935 1039.24,852.625 1040.06,835.344 1040.89,832.071 1041.71,816.262 1042.54,816.262 1043.36,816.262 1044.18,818.254 1045.01,810.76 1045.83,809.673 1046.66,755.627 1047.48,704.839 1048.31,704.839 1049.13,704.839 1049.96,732.757 1050.78,717.648 1051.61,758.376 1052.43,763.681 1053.26,758.161 1054.08,758.161 1054.91,758.161 1055.73,733.807 1056.56,738.098 1057.38,709.727 1058.21,645.688 1059.03,676.076 1059.86,676.076 1060.68,676.076 1061.51,629.186 1062.33,619.192 1063.16,642.037 1063.98,658.518 1064.81,673.812 1065.63,673.812 1066.46,673.812 1067.28,669.655 1068.11,676.334 1068.93,697.71 1069.76,738.731 1070.58,742.674 1071.41,742.674 1072.23,742.674 1073.06,722.034 1073.88,698.66 1074.71,692.343 1075.53,704.146 1076.36,719.736 1077.18,719.736 1078.01,719.736 1078.83,736.253 1079.66,698.401 1080.48,661.967 1081.31,661.967 1082.13,664.602 1082.96,664.602 1083.78,664.602 1084.61,659.251 1085.43,672.973 1086.26,663.427 1087.08,687.238 1087.91,678.681 1088.73,678.681 1089.56,678.681 1090.38,702.278 1091.21,710.058 1092.03,710.058 1092.86,650.235 1093.68,647.186 1094.51,647.186 1095.33,647.186 1096.16,599.193 1096.98,597.891 1097.81,605.274 1098.63,616.477 1099.46,612.113 1100.28,612.113 1101.11,612.113 1101.93,570.715 1102.76,516.314 1103.58,521.227 1104.41,503.938 1105.23,485.521 1106.06,485.521 1106.88,485.521 1107.71,439.651 1108.53,439.651 1109.36,393.944 1110.18,471.551 1111.01,480.307 1111.83,480.307 1112.66,480.307 1113.48,470.267 1114.31,470.267 1115.13,481.464 1115.96,483.437 1116.78,441.147 1117.61,441.147 1118.43,441.147 1119.26,513.489 1120.08,533.981 1120.91,539.36 1121.73,561.699 1122.56,554.271 1123.38,554.271 1124.21,554.271 1125.03,547.109 1125.86,532.679 1126.68,549.007 1127.51,554.531 1128.33,571.197 1129.15,571.197 1129.98,571.197 1130.8,571.197 1131.63,583.646 1132.45,546.075 1133.28,548.191 1134.1,539.942 1134.93,539.942 1135.75,539.942 1136.58,561.736 1137.4,548.431 1138.23,549.364 1139.05,580.845 1139.88,602.396 1140.7,602.396 1141.53,602.396 1142.35,608.25 1143.18,617.537 1144,618.695 1144.83,616.169 1145.65,588.391 1146.48,588.391 1147.3,588.391 1148.13,590.152 1148.95,600.625 1149.78,613.462 1150.6,617.217 1151.43,599.921 1152.25,599.921 1153.08,599.921 1153.9,599.921 1154.73,620.069 1155.55,629.254 1156.38,635.122 1157.2,634.492 1158.03,634.492 1158.85,634.492 1159.68,640.026 1160.5,643.519 1161.33,634.871 1162.15,634.436 1162.98,630.049 1163.8,630.049 1164.63,630.049 1165.45,655.234 1166.28,659.3 1167.1,657.297 1167.93,648.168 1168.75,692.44 1169.58,692.44 1170.4,692.44 1171.23,725.702 1172.05,728.864 1172.88,744.977 1173.7,719.87 1174.53,717.807 1175.35,717.807 1176.18,717.807 1177,752.664 1177.83,760.85 1178.65,768.964 1179.48,772.386 1180.3,847.314 1181.13,847.314 1181.95,847.314 1182.78,781.793 1183.6,811.72 1184.43,835.184 1185.25,797.384 1186.08,786.099 1186.9,786.099 1187.73,786.099 1188.55,779.412 1189.38,810.552 1190.2,801.178 1191.03,793.346 1191.85,759.793 1192.68,759.793 1193.5,759.793 1194.33,771.473 1195.15,790.362 1195.98,816.019 1196.8,824.967 1197.63,837.099 1198.45,837.099 1199.28,837.099 1200.1,829.954 1200.93,824.301 1201.75,855.912 1202.58,884.974 1203.4,884.974 1204.23,884.974 1205.05,884.974 1205.88,882.299 1206.7,895.805 1207.53,884.024 1208.35,874.093 1209.18,833.404 1210,833.404 1210.83,833.404 1211.65,843.906 1212.48,834.878 1213.3,812.368 1214.12,857.643 1214.95,857.528 1215.77,857.528 1216.6,857.528 1217.42,916.047 1218.25,906.256 1219.07,876.479 1219.9,864.88 1220.72,859.251 1221.55,859.251 1222.37,859.251 1223.2,900.515 1224.02,893.718 1224.85,909.307 1225.67,949.258 1226.5,993.193 1227.32,993.193 1228.15,993.193 1228.97,1019.39 1229.8,1053.93 1230.62,983.904 1231.45,961.877 1232.27,943.671 1233.1,943.671 1233.92,943.671 1234.75,943.671 1235.57,931.623 1236.4,913.769 1237.22,944.649 1238.05,889.852 1238.87,889.852 1239.7,889.852 1240.52,853.048 1241.35,831.75 1242.17,860.706 1243,868.398 1243.82,881.683 1244.65,881.683 1245.47,881.683 1246.3,909.377 1247.12,897.871 1247.95,892.668 1248.77,874.938 1249.6,859.759 1250.42,859.759 1251.25,859.759 1252.07,881.117 1252.9,879.8 1253.72,895.629 1254.55,885.173 1255.37,916.119 1256.2,916.119 1257.02,916.119 1257.85,915.154 1258.67,886.612 1259.5,853.167 1260.32,849.686 1261.15,843.154 1261.97,843.154 1262.8,843.154 1263.62,845.241 1264.45,862.522 1265.27,885.358 1266.1,885.358 1266.92,897.036 1267.75,897.036 1268.57,897.036 1269.4,892.866 1270.22,862.219 1271.05,858.66 1271.87,870.158 1272.7,855.447 1273.52,855.447 1274.35,855.447 1275.17,860.18 1276,857.802 1276.82,857.685 1277.65,834.709 1278.47,838.525 1279.3,838.525 1280.12,838.525 1280.95,830.48 1281.77,834.763 1282.6,851.234 1283.42,848.382 1284.25,846.498 1285.07,846.498 1285.9,846.498 1286.72,860.425 1287.55,868.686 1288.37,878.816 1289.2,862.683 1290.02,822.309 1290.85,822.309 1291.67,822.309 1292.5,801.554 1293.32,736.006 1294.15,760.08 1294.97,753.93 1295.8,780.652 1296.62,780.652 1297.45,780.652 1298.27,767.812 1299.09,752.381 1299.92,759.743 1300.74,740.733 1301.57,746.947 1302.39,746.947 1303.22,746.947 1304.04,759.862 1304.87,791.164 1305.69,769.539 1306.52,773.173 1307.34,751.907 1308.17,751.907 1308.99,751.907 1309.82,703.879 1310.64,720.237 1311.47,707.867 1312.29,712.863 1313.12,734.281 1313.94,734.281 1314.77,734.281 1315.59,734.281 1316.42,742.671 1317.24,726.163 1318.07,746.307 1318.89,757.508 1319.72,757.508 1320.54,757.508 1321.37,760.286 1322.19,759.993 1323.02,763.647 1323.84,773.774 1324.67,778.126 1325.49,778.126 1326.32,778.126 1327.14,759.906 1327.97,759.404 1328.79,764.362 1329.62,757.405 1330.44,754.998 1331.27,754.998 1332.09,754.998 1332.92,744.77 1333.74,758.718 1334.57,748.566 1335.39,741.254 1336.22,744.665 1337.04,744.665 1337.87,744.665 1338.69,764.586 1339.52,774.963 1340.34,760.494 1341.17,720.007 1341.99,778.695 1342.82,778.695 1343.64,778.695 1344.47,787.228 1345.29,768.639 1346.12,725.36 1346.94,751.482 1347.77,777.33 1348.59,777.33 1349.42,777.33 1350.24,779.434 1351.07,783.57 1351.89,822.435 1352.72,815.099 1353.54,836.417 1354.37,836.417 1355.19,836.417 1356.02,842.832 1356.84,849.877 1357.67,866.973 1358.49,876.95 1359.32,842.515 1360.14,842.515 1360.97,842.515 1361.79,834.372 1362.62,832.642 1363.44,813.899 1364.27,811.776 1365.09,806.736 1365.92,806.736 1366.74,806.736 1367.57,827.282 1368.39,826.314 1369.22,826.583 1370.04,825.254 1370.87,814.295 1371.69,814.295 1372.52,814.295 1373.34,814.284 1374.17,793.51 1374.99,799.722 1375.82,802.897 1376.64,822.862 1377.47,822.862 1378.29,822.862 1379.12,837.591 1379.94,832.357 1380.77,822.242 1381.59,800.8 1382.42,792.603 1383.24,792.603 1384.06,792.603 1384.89,782.555 1385.71,799.029 1386.54,811.272 1387.36,811.272 1388.19,817.212 1389.01,817.212 1389.84,817.212 1390.66,802.72 1391.49,783.149 1392.31,762.708 1393.14,773.042 1393.96,782.783 1394.79,782.783 1395.61,782.783 1396.44,810.524 1397.26,798.597 1398.09,806.547 1398.91,807.504 1399.74,810.051 1400.56,810.051 1401.39,810.051 1402.21,802.769 1403.04,823.732 1403.86,812.21 1404.69,815.105 1405.51,826.601 1406.34,826.601 1407.16,826.601 1407.99,855.636 1408.81,872.413 1409.64,872.413 1410.46,886.777 1411.29,949.449 1412.11,949.449 1412.94,949.449 1413.76,925.848 1414.59,913.645 1415.41,913.645 1416.24,884.21 1417.06,913.145 1417.89,913.145 1418.71,913.145 1419.54,921.411 1420.36,901.825 1421.19,948.545 1422.01,953.828 1422.84,939.854 1423.66,939.854 1424.49,939.854 1425.31,912.944 1426.14,939.551 1426.96,922.206 1427.79,926.672 1428.61,987.529 1429.44,987.529 1430.26,987.529 1431.09,987.529 1431.91,974.589 1432.74,978.521 1433.56,965.507 1434.39,944.93 1435.21,944.93 1436.04,944.93 1436.86,929.218 1437.69,910.822 1438.51,909.709 1439.34,885.429 1440.16,889.042 1440.99,889.042 1441.81,889.042 1442.64,855.766 1443.46,869.575 1444.29,883.373 1445.11,897.578 1445.94,905.646 1446.76,905.646 1447.59,905.646 1448.41,901.233 1449.24,910.283 1450.06,912.205 1450.89,923.838 1451.71,932.045 1452.54,932.045 1453.36,932.045 1454.19,932.045 1455.01,932.998 1455.84,942.73 1456.66,940.957 1457.49,937.568 1458.31,937.568 1459.14,937.568 1459.96,928.251 1460.79,859.638 1461.61,825.235 1462.44,851.447 1463.26,755.288 1464.09,755.288 1464.91,755.288 1465.74,722.717 1466.56,805.254 1467.39,782.114 1468.21,841.414 1469.03,766.54 1469.86,766.54 1470.68,766.54 1471.51,718.081 1472.33,586.739 1473.16,646.707 1473.98,558.447 1474.81,423.917 1475.63,423.917 1476.46,423.917 1477.28,533.798 1478.11,315.317 1478.93,417.792 1479.76,275.558 1480.58,309.075 1481.41,309.075 1482.23,309.075 1483.06,226.747 1483.88,162.047 1484.71,314.676 1485.53,343.886 1486.36,450.162 1487.18,450.162 1488.01,450.162 1488.83,384.537 1489.66,430.542 1490.48,403.181 1491.31,321.37 1492.13,357.628 1492.96,357.628 1493.78,357.628 1494.61,324.476 1495.43,446.608 1496.26,446.076 1497.08,504.208 1497.91,504.208 1498.73,504.208 1499.56,504.208 1500.38,529.52 1501.21,499.436 1502.03,551.24 1502.86,512.725 1503.68,526.951 1504.51,526.951 1505.33,526.951 1506.16,578.343 1506.98,543.811 1507.81,474.415 1508.63,509.121 1509.46,500.677 1510.28,500.677 1511.11,500.677 1511.93,531.884 1512.76,573.991 1513.58,577.554 1514.41,612.598 1515.23,593.579 1516.06,593.579 1516.88,593.579 1517.71,528.636 1518.53,538.891 1519.36,556.924 1520.18,541.122 1521.01,546.646 1521.83,546.646 1522.66,546.646 1523.48,575.381 1524.31,563.589 1525.13,525.355 1525.96,493.087 1526.78,508.345 1527.61,508.345 1528.43,508.345 1529.26,507.494 1530.08,558.966 1530.91,542.391 1531.73,562.403 1532.56,549.498 1533.38,549.498 1534.21,549.498 1535.03,549.498 1535.86,563.11 1536.68,581.655 1537.51,590.834 1538.33,601.612 1539.16,601.612 1539.98,601.612 1540.81,602.77 1541.63,613.951 1542.46,620.046 1543.28,631.304 1544.11,632.24 1544.93,632.24 1545.76,632.24 1546.58,665.757 1547.41,689.516 1548.23,673.117 1549.06,647.565 1549.88,534.447 1550.71,534.447 1551.53,534.447 1552.36,560.385 1553.18,576.238 1554,606.64 1554.83,616.934 1555.65,646.545 1556.48,646.545 1557.3,646.545 1558.13,617.1 1558.95,630.889 1559.78,633.092 1560.6,620.088 1561.43,624.911 1562.25,624.911 1563.08,624.911 1563.9,554.948 1564.73,561.069 1565.55,580.892 1566.38,599.546 1567.2,599.546 1568.03,599.546 1568.85,599.546 1569.68,595.363 1570.5,620.227 1571.33,590.099 1572.15,605.185 1572.98,593.913 1573.8,593.913 1574.63,593.913 1575.45,615.938 1576.28,591.353 1577.1,621.83 1577.93,658.077 1578.75,712.36 1579.58,712.36 1580.4,712.36 1581.23,772.697 1582.05,792.698 1582.88,878.035 1583.7,897.398 1584.53,800.993 1585.35,800.993 1586.18,800.993 1587,840.162 1587.83,778.781 1588.65,829.375 1589.48,880.308 1590.3,1006.32 1591.13,1006.32 1591.95,1006.32 1592.78,943.068 1593.6,1045.36 1594.43,1180.58 1595.25,1090.07 1596.08,1305.1 1596.9,1305.1 1597.73,1305.1 1598.55,1212.36 1599.38,1351.64 1600.2,1300.94 1601.03,1397.94 1601.85,1447.87 1602.68,1447.87 1603.5,1447.87 1604.33,1300.82 1605.15,1271.69 1605.98,1176.22 1606.8,1216.34 1607.63,1170.43 1608.45,1170.43 1609.28,1170.43 1610.1,1205.16 1610.93,1303.02 1611.75,1267.52 1612.58,1313.46 1613.4,1200.9 1614.23,1200.9 1615.05,1200.9 1615.88,1209.31 1616.7,1147.29 1617.53,1134.59 1618.35,1176.76 1619.18,1062.71 1620,1062.71 1620.83,1062.71 1621.65,1062.71 1622.48,1084.67 1623.3,1028.92 1624.13,1015.52 1624.95,1015.66 1625.78,1015.66 1626.6,1015.66 1627.43,1070.73 1628.25,1055.87 1629.08,1064.91 1629.9,1033.72 1630.73,991.417 1631.55,991.417 1632.38,991.417 1633.2,980.097 1634.03,914.13 1634.85,946.895 1635.68,953.062 1636.5,953.122 1637.33,953.122 1638.15,953.122 1638.97,966.058 1639.8,1007.26 1640.62,976.521 1641.45,957.034 1642.27,970.439 1643.1,970.439 1643.92,970.439 1644.75,991.432 1645.57,1054.22 1646.4,1006.63 1647.22,1029.43 1648.05,991.446 1648.87,991.446 1649.7,991.446 1650.52,1023.91 1651.35,1023.5 1652.17,1025.63 1653,1010.23 1653.82,985.891 1654.65,985.891 1655.47,985.891 1656.3,958.916 1657.12,934.854 1657.95,932.6 1658.77,923.568 1659.6,918.574 1660.42,918.574 1661.25,918.574 1662.07,900.542 1662.9,872.396 1663.72,820.795 1664.55,736.987 1665.37,767.843 1666.2,767.843 1667.02,767.843 1667.85,759.998 1668.67,885.384 1669.5,894.34 1670.32,918.516 1671.15,920.245 1671.97,920.245 1672.8,920.245 1673.62,926.471 1674.45,948.403 1675.27,956.373 1676.1,957.348 1676.92,932.666 1677.75,932.666 1678.57,932.666 1679.4,1001.84 1680.22,1006.2 1681.05,1039.72 1681.87,990.503 1682.7,973.569 1683.52,973.569 1684.35,973.569 1685.17,951.087 1686,952.732 1686.82,953.104 1687.65,953.104 1688.47,968.264 1689.3,968.264 1690.12,968.264 1690.95,960.714 1691.77,962.217 1692.6,962.838 1693.42,983.603 1694.25,959.643 1695.07,959.643 1695.9,959.643 1696.72,957.724 1697.55,960.961 1698.37,961.282 1699.2,930.395 1700.02,927.464 1700.85,927.464 1701.67,927.464 1702.5,913.323 1703.32,928.588 1704.15,962.624 1704.97,951.935 1705.8,973.093 1706.62,973.093 1707.45,973.093 1708.27,945.554 1709.1,943.92 1709.92,928.9 1710.75,917.481 1711.57,917.481 1712.4,917.481 1713.22,917.481 1714.05,917.715 1714.87,922.128 1715.7,906.975 1716.52,907.575 1717.35,907.575 1718.17,907.575 1719,907.575 1719.82,912.922 1720.65,902.153 1721.47,889.931 1722.3,902.239 1723.12,929.265 1723.94,929.265 1724.77,929.265 1725.59,933.723 1726.42,917.975 1727.24,925.538 1728.07,924.229 1728.89,912.893 1729.72,912.893 1730.54,912.893 1731.37,912.893 1732.19,880.998 1733.02,888.535 1733.84,894.871 1734.67,892.762 1735.49,892.762 1736.32,892.762 1737.14,875.107 1737.97,886.965 1738.79,868.696 1739.62,799.922 1740.44,876.038 1741.27,876.038 1742.09,876.038 1742.92,857.24 1743.74,933.66 1744.57,923.814 1745.39,956.512 1746.22,976.59 1747.04,976.59 1747.87,976.59 1748.69,960.497 1749.52,964.931 1750.34,970.504 1751.17,985.793 1751.99,1008.41 1752.82,1008.41 1753.64,1008.41 1754.47,1008.41 1755.29,1037.38 1756.12,1018.54 1756.94,1061.28 1757.77,1049.01 1758.59,1049.01 1759.42,1049.01 1760.24,1016.49 1761.07,973.019 1761.89,984.777 1762.72,994.468 1763.54,936.592 1764.37,936.592 1765.19,936.592 1766.02,942.019 1766.84,954.799 1767.67,966.833 1768.49,912.113 1769.32,874.607 1770.14,874.607 1770.97,874.607 1771.79,891.091 1772.62,853.553 1773.44,889.95 1774.27,911.918 1775.09,932.492 1775.92,932.492 1776.74,932.492 1777.57,936.098 1778.39,974.217 1779.22,965.33 1780.04,974.811 1780.87,938.739 1781.69,938.739 1782.52,938.739 1783.34,930.488 1784.17,976.559 1784.99,968.915 1785.82,1022.19 1786.64,1013.42 1787.47,1013.42 1788.29,1013.42 1789.12,1059.99 1789.94,1040.3 1790.77,1004.75 1791.59,972.075 1792.42,972.075 1793.24,972.075 1794.07,972.075 1794.89,956.999 1795.72,982.525 1796.54,958.974 1797.37,963.721 1798.19,958.918 1799.02,958.918 1799.84,958.918 1800.67,988.93 1801.49,965.592 1802.32,948.663 1803.14,951.255 1803.97,993.129 1804.79,993.129 1805.62,993.129 1806.44,990.578 1807.27,994.823 1808.09,970.752 1808.91,959.776 1809.74,946.585 1810.56,946.585 1811.39,946.585 1812.21,959.842 1813.04,970.97 1813.86,952.74 1814.69,947.414 1815.51,959.528 1816.34,959.528 1817.16,959.528 1817.99,932.647 1818.81,939.478 1819.64,923.411 1820.46,940.613 1821.29,954.318 1822.11,954.318 1822.94,954.318 1823.76,970.864 1824.59,959.149 1825.41,920.397 1826.24,879.498 1827.06,890.633 1827.89,890.633 1828.71,890.633 1829.54,924.919 1830.36,927.499 1831.19,914.237 1832.01,907.877 1832.84,919.376 1833.66,919.376 1834.49,919.376 1835.31,903.244 1836.14,924.099 1836.96,918.566 1837.79,910.921 1838.61,936.985 1839.44,936.985 1840.26,936.985 1841.09,936.985 1841.91,929.524 1842.74,917.64 1843.56,893.494 1844.39,876.688 1845.21,876.688 1846.04,876.688 1846.86,904.22 1847.69,903.675 1848.51,898.936 1849.34,901.538 1850.16,923.546 1850.99,923.546 1851.81,923.546 1852.64,912.415 1853.46,892.199 1854.29,887.276 1855.11,883.446 1855.94,874.847 1856.76,874.847 1857.59,874.847 1858.41,854.269 1859.24,922.676 1860.06,918.597 1860.89,951.731 1861.71,934.111 1862.54,934.111 1863.36,934.111 1864.19,915.7 1865.01,916.548 1865.84,897.649 1866.66,892.091 1867.49,888.672 1868.31,888.672 1869.14,888.672 1869.96,888.672 1870.79,903.279 1871.61,900.638 1872.44,904.519 1873.26,880.632 1874.09,880.632 1874.91,880.632 1875.74,901.226 1876.56,907.322 1877.39,908.632 1878.21,914.822 1879.04,922.389 1879.86,922.389 1880.69,922.389 1881.51,906.303 1882.34,859.739 1883.16,929.063 1883.99,954.556 1884.81,914.467 1885.64,914.467 1886.46,914.467 1887.29,946.044 1888.11,974.479 1888.94,988.536 1889.76,955.468 1890.59,971.448 1891.41,971.448 1892.24,971.448 1893.06,937.59 1893.88,923.384 1894.71,919.286 1895.53,908.025 1896.36,908.096 1897.18,908.096 1898.01,908.096 1898.83,913.831 1899.66,906.289 1900.48,934.284 1901.31,941.86 1902.13,933.546 1902.96,933.546 1903.78,933.546 1904.61,950.218 1905.43,963.611 1906.26,942.225 1907.08,894.313 1907.91,897.761 1908.73,897.761 1909.56,897.761 1910.38,916.787 1911.21,925.065 1912.03,908.656 1912.86,886.897 1913.68,877.33 1914.51,877.33 1915.33,877.33 1916.16,891.242 1916.98,890.599 1917.81,874.952 1918.63,875.26 1919.46,875.461 1920.28,875.461 1921.11,875.461 1921.93,875.461 1922.76,881.13 1923.58,855.597 1924.41,847.391 1925.23,848.571 1926.06,848.571 1926.88,848.571 1927.71,847.547 1928.53,835.219 1929.36,841.985 1930.18,837.556 1931.01,830.974 1931.83,830.974 1932.66,830.974 1933.48,813.837 1934.31,784.205 1935.13,771.109 1935.96,800.314 1936.78,818.169 1937.61,818.169 1938.43,818.169 1939.26,832.187 1940.08,826.493 1940.91,775.667 1941.73,765.683 1942.56,761.444 1943.38,761.444 1944.21,761.444 1945.03,798.75 1945.86,814.036 1946.68,811.185 1947.51,791.283 1948.33,811.492 1949.16,811.492 1949.98,811.492 1950.81,823.198 1951.63,815.57 1952.46,792.173 1953.28,799.333 1954.11,811.219 1954.93,811.219 1955.76,811.219 1956.58,828.465 1957.41,830.715 1958.23,843.874 1959.06,846.623 1959.88,853.542 1960.71,853.542 1961.53,853.542 1962.36,848.575 1963.18,864.82 1964.01,851.067 1964.83,843.849 1965.66,860.874 1966.48,860.874 1967.31,860.874 1968.13,867.243 1968.96,862.077 1969.78,866.343 1970.61,873.244 1971.43,884.969 1972.26,884.969 1973.08,884.969 1973.91,901.175 1974.73,903.3 1975.56,921.622 1976.38,881.711 1977.21,872.743 1978.03,872.743 1978.85,872.743 1979.68,888.376 1980.5,878.405 1981.33,879.139 1982.15,871.165 1982.98,876.259 1983.8,876.259 1984.63,876.259 1985.45,871.565 1986.28,856.577 1987.1,845.331 1987.93,845.331 1988.75,853.389 1989.58,853.389 1990.4,853.389 1991.23,806.559 1992.05,843.114 1992.88,788.834 1993.7,762.329 1994.53,795.76 1995.35,795.76 1996.18,795.76 1997,777.419 1997.83,804.657 1998.65,855.523 1999.48,886.962 2000.3,849.318 2001.13,849.318 2001.95,849.318 2002.78,851.646 2003.6,832.007 2004.43,801.193 2005.25,824.566 2006.08,816.927 2006.9,816.927 2007.73,816.927 2008.55,798.502 2009.38,771.912 2010.2,812.255 2011.03,833.856 2011.85,833.856 2012.68,833.856 2013.5,833.856 2014.33,830.47 2015.15,864.497 2015.98,851.716 2016.8,851.061 2017.63,847.544 2018.45,847.544 2019.28,847.544 2020.1,840.782 2020.93,846.683 2021.75,840.743 2022.58,802.629 2023.4,796.757 2024.23,796.757 2025.05,796.757 2025.88,801.439 2026.7,818.961 2027.53,832.386 2028.35,823.092 2029.18,782.413 2030,782.413 2030.83,782.413 2031.65,782.413 2032.48,780.326 2033.3,744.438 2034.13,736.333 2034.95,700.297 2035.78,700.297 2036.6,700.297 2037.43,656.715 2038.25,666.999 2039.08,643.903 2039.9,633.843 2040.73,625.391 2041.55,625.391 2042.38,625.391 2043.2,676.042 2044.03,710.367 2044.85,730.166 2045.68,761.778 2046.5,714.423 2047.33,714.423 2048.15,714.423 2048.98,732.586 2049.8,711.854 2050.63,729.428 2051.45,773.133 2052.28,770.739 2053.1,770.739 2053.93,770.739 2054.75,736.625 2055.58,713.294 2056.4,720.347 2057.23,719.417 2058.05,685.681 2058.88,685.681 2059.7,685.681 2060.53,685.681 2061.35,710.665 2062.18,688.182 2063,678.626 2063.82,682.456 2064.65,682.456 2065.47,682.456 2066.3,746.356 2067.12,723.114 2067.95,688.069 2068.77,705.357 2069.6,699.663 2070.42,699.663 2071.25,699.663 2072.07,698.08 2072.9,648.618 2073.72,628.422 2074.55,646.07 2075.37,624.208 2076.2,624.208 2077.02,624.208 2077.85,595.827 2078.67,568.688 2079.5,600.882 2080.32,635.728 2081.15,659.987 2081.97,659.987 2082.8,659.987 2083.62,669.929 2084.45,667.783 2085.27,696.711 2086.1,656.116 2086.92,679.368 2087.75,679.368 2088.57,679.368 2089.4,685.057 2090.22,690.296 2091.05,701.664 2091.87,682.45 2092.7,647.98 2093.52,647.98 2094.35,647.98 2095.17,651.498 2096,672.83 2096.82,664.476 2097.65,645.781 2098.47,641.293 2099.3,641.293 2100.12,641.293 2100.95,635.856 2101.77,597.66 2102.6,595.355 2103.42,609.759 2104.25,609.759 2105.07,609.759 2105.9,609.759 2106.72,590.403 2107.55,596.222 2108.37,622.716 2109.2,616.576 2110.02,630.07 2110.85,630.07 2111.67,630.07 2112.5,557.885 2113.32,603.78 2114.15,570.89 2114.97,548.512 2115.8,609.293 2116.62,609.293 2117.45,609.293 2118.27,520.079 2119.1,493.899 2119.92,497.349 2120.75,563.832 2121.57,481.508 2122.4,481.508 2123.22,481.508 2124.05,486.691 2124.87,440.329 2125.7,416.466 2126.52,403.449 2127.35,420.9 2128.17,420.9 2129,420.9 2129.82,482.991 2130.65,443.764 2131.47,462.672 2132.3,376.828 2133.12,340.184 2133.95,340.184 2134.77,340.184 2135.6,342.456 2136.42,373.8 2137.25,364.927 2138.07,385.435 2138.9,410.875 2139.72,410.875 2140.55,410.875 2141.37,410.875 2142.2,455.383 2143.02,480.317 2143.85,467.294 2144.67,508.372 2145.5,508.372 2146.32,508.372 2147.15,480.915 2147.97,470.078 2148.79,482.394 2149.62,487.739 2150.44,443.432 2151.27,443.432 2152.09,443.432 2152.92,422.5 2153.74,371.217 2154.57,385.958 2155.39,447.537 2156.22,378.846 2157.04,378.846 2157.87,378.846 2158.69,378.846 2159.52,405.05 2160.34,454.633 2161.17,460.256 2161.99,433.5 2162.82,433.5 2163.64,433.5 2164.47,457.841 2165.29,438.755 2166.12,383.818 2166.94,425.454 2167.77,402.168 2168.59,402.168 2169.42,402.168 2170.24,402.168 2171.07,427.048 2171.89,415.654 2172.72,395.362 2173.54,455.151 2174.37,455.151 2175.19,455.151 2176.02,489.745 2176.84,474.901 2177.67,429.829 2178.49,418.231 2179.32,452.96 2180.14,452.96 2180.97,452.96 2181.79,498.957 2182.62,503.506 2183.44,583.493 2184.27,569.759 2185.09,547.375 2185.92,547.375 2186.74,547.375 2187.57,535.143 2188.39,565.063 2189.22,510.631 2190.04,565.982 2190.87,603.025 2191.69,603.025 2192.52,603.025 2193.34,683.153 2194.17,691.516 2194.99,631.965 2195.82,668.104 2196.64,689.904 2197.47,689.904 2198.29,689.904 2199.12,700.119 2199.94,658.812 2200.77,612.125 2201.59,627.18 2202.42,607.592 2203.24,607.592 2204.07,607.592 2204.89,638.405 2205.72,624.879 2206.54,651.738 2207.37,611.952 2208.19,608.366 2209.02,608.366 2209.84,608.366 2210.67,571.433 2211.49,511.001 2212.32,517.415 2213.14,551.551 2213.97,571.774 2214.79,571.774 2215.62,571.774 2216.44,494.113 2217.27,505.109 2218.09,503.321 2218.92,480.432 2219.74,490.93 2220.57,490.93 2221.39,490.93 2222.22,490.93 2223.04,502.953 2223.87,502.82 2224.69,514.449 2225.52,548.798 2226.34,548.798 2227.17,548.798 2227.99,575.945 2228.82,566.319 2229.64,487.305 2230.47,521.433 2231.29,551.062 2232.12,551.062 2232.94,551.062 2233.76,526.866 2234.59,593.864 2235.41,567.976 2236.24,491.097 2237.06,543.927 2237.89,543.927 2238.71,543.927 2239.54,502.534 2240.36,476.264 2241.19,417.32 2242.01,518.096 2242.84,490.728 2243.66,490.728 2244.49,490.728 2245.31,521.416 2246.14,564.284 2246.96,648.241 2247.79,645.93 2248.61,584.618 2249.44,584.618 2250.26,584.618 2251.09,540.888 2251.91,490.175 2252.74,553.082 2253.56,558.239 2254.39,604.475 2255.21,604.475 2256.04,604.475 2256.86,529.367 2257.69,588.987 2258.51,594.215 2259.34,545.679 2260.16,486.594 2260.99,486.594 2261.81,486.594 2262.64,540.184 2263.46,576.836 2264.29,571.584 2265.11,587.563 2265.94,572.43 2266.76,572.43 2267.59,572.43 2268.41,597.638 2269.24,604.261 2270.06,639.753 2270.89,647.006 2271.71,698.049 2272.54,698.049 2273.36,698.049 2274.19,729.186 2275.01,720.837 2275.84,791.008 2276.66,749.756 2277.49,801.173 2278.31,801.173 2279.14,801.173 2279.96,821.781 2280.79,788.899 2281.61,747.972 2282.44,741.034 2283.26,772.646 2284.09,772.646 2284.91,772.646 2285.74,782.252 2286.56,790.315 2287.39,795.471 2288.21,795.471 2289.04,803.34 2289.86,803.34 2290.69,803.34 2291.51,796.924 2292.34,741.314 2293.16,739.655 "/>
</svg>
