<?xml version="1.0" encoding="utf-8"?>
<svg xmlns="http://www.w3.org/2000/svg" xmlns:xlink="http://www.w3.org/1999/xlink" width="600" height="400" viewBox="0 0 2400 1600">
<defs>
  <clipPath id="clip810">
    <rect x="0" y="0" width="2400" height="1600"/>
  </clipPath>
</defs>
<path clip-path="url(#clip810)" d="
M0 1600 L2400 1600 L2400 0 L0 0  Z
  " fill="#ffffff" fill-rule="evenodd" fill-opacity="1"/>
<defs>
  <clipPath id="clip811">
    <rect x="480" y="0" width="1681" height="1600"/>
  </clipPath>
</defs>
<path clip-path="url(#clip810)" d="
M142.455 1486.45 L1088.47 1486.45 L1088.47 123.472 L142.455 123.472  Z
  " fill="#ffffff" fill-rule="evenodd" fill-opacity="1"/>
<defs>
  <clipPath id="clip812">
    <rect x="142" y="123" width="947" height="1364"/>
  </clipPath>
</defs>
<polyline clip-path="url(#clip812)" style="stroke:#000000; stroke-width:2; stroke-opacity:0.1; fill:none" points="
  286.258,1486.45 286.258,123.472 
  "/>
<polyline clip-path="url(#clip812)" style="stroke:#000000; stroke-width:2; stroke-opacity:0.1; fill:none" points="
  633.539,1486.45 633.539,123.472 
  "/>
<polyline clip-path="url(#clip812)" style="stroke:#000000; stroke-width:2; stroke-opacity:0.1; fill:none" points="
  981.772,1486.45 981.772,123.472 
  "/>
<polyline clip-path="url(#clip810)" style="stroke:#000000; stroke-width:4; stroke-opacity:1; fill:none" points="
  142.455,1486.45 1088.47,1486.45 
  "/>
<polyline clip-path="url(#clip810)" style="stroke:#000000; stroke-width:4; stroke-opacity:1; fill:none" points="
  286.258,1486.45 286.258,1470.09 
  "/>
<polyline clip-path="url(#clip810)" style="stroke:#000000; stroke-width:4; stroke-opacity:1; fill:none" points="
  633.539,1486.45 633.539,1470.09 
  "/>
<polyline clip-path="url(#clip810)" style="stroke:#000000; stroke-width:4; stroke-opacity:1; fill:none" points="
  981.772,1486.45 981.772,1470.09 
  "/>
<path clip-path="url(#clip810)" d="M 0 0 M173.504 1543.18 L189.823 1543.18 L189.823 1547.12 L167.879 1547.12 L167.879 1543.18 Q170.541 1540.43 175.124 1535.8 Q179.731 1531.15 180.911 1529.81 Q183.156 1527.28 184.036 1525.55 Q184.939 1523.79 184.939 1522.1 Q184.939 1519.34 182.994 1517.61 Q181.073 1515.87 177.971 1515.87 Q175.772 1515.87 173.319 1516.63 Q170.888 1517.4 168.11 1518.95 L168.11 1514.23 Q170.934 1513.09 173.388 1512.51 Q175.842 1511.93 177.879 1511.93 Q183.249 1511.93 186.444 1514.62 Q189.638 1517.31 189.638 1521.8 Q189.638 1523.93 188.828 1525.85 Q188.041 1527.74 185.934 1530.34 Q185.356 1531.01 182.254 1534.23 Q179.152 1537.42 173.504 1543.18 Z" fill="#000000" fill-rule="evenodd" fill-opacity="1" /><path clip-path="url(#clip810)" d="M 0 0 M204.892 1515.64 Q201.281 1515.64 199.453 1519.2 Q197.647 1522.75 197.647 1529.87 Q197.647 1536.98 199.453 1540.55 Q201.281 1544.09 204.892 1544.09 Q208.527 1544.09 210.332 1540.55 Q212.161 1536.98 212.161 1529.87 Q212.161 1522.75 210.332 1519.2 Q208.527 1515.64 204.892 1515.64 M204.892 1511.93 Q210.703 1511.93 213.758 1516.54 Q216.837 1521.12 216.837 1529.87 Q216.837 1538.6 213.758 1543.21 Q210.703 1547.79 204.892 1547.79 Q199.082 1547.79 196.004 1543.21 Q192.948 1538.6 192.948 1529.87 Q192.948 1521.12 196.004 1516.54 Q199.082 1511.93 204.892 1511.93 Z" fill="#000000" fill-rule="evenodd" fill-opacity="1" /><path clip-path="url(#clip810)" d="M 0 0 M222.716 1543.18 L230.355 1543.18 L230.355 1516.82 L222.045 1518.49 L222.045 1514.23 L230.309 1512.56 L234.985 1512.56 L234.985 1543.18 L242.624 1543.18 L242.624 1547.12 L222.716 1547.12 L222.716 1543.18 Z" fill="#000000" fill-rule="evenodd" fill-opacity="1" /><path clip-path="url(#clip810)" d="M 0 0 M247.832 1546.4 L247.832 1542.14 Q249.591 1542.98 251.397 1543.42 Q253.202 1543.86 254.939 1543.86 Q259.568 1543.86 261.999 1540.75 Q264.452 1537.63 264.8 1531.29 Q263.457 1533.28 261.397 1534.34 Q259.337 1535.41 256.837 1535.41 Q251.651 1535.41 248.619 1532.28 Q245.61 1529.13 245.61 1523.69 Q245.61 1518.37 248.758 1515.15 Q251.906 1511.93 257.138 1511.93 Q263.133 1511.93 266.281 1516.54 Q269.452 1521.12 269.452 1529.87 Q269.452 1538.05 265.563 1542.93 Q261.698 1547.79 255.147 1547.79 Q253.388 1547.79 251.582 1547.44 Q249.777 1547.1 247.832 1546.4 M257.138 1531.75 Q260.286 1531.75 262.114 1529.6 Q263.966 1527.44 263.966 1523.69 Q263.966 1519.97 262.114 1517.81 Q260.286 1515.64 257.138 1515.64 Q253.989 1515.64 252.138 1517.81 Q250.309 1519.97 250.309 1523.69 Q250.309 1527.44 252.138 1529.6 Q253.989 1531.75 257.138 1531.75 Z" fill="#000000" fill-rule="evenodd" fill-opacity="1" /><path clip-path="url(#clip810)" d="M 0 0 M271.767 1532.24 L284.244 1532.24 L284.244 1536.03 L271.767 1536.03 L271.767 1532.24 Z" fill="#000000" fill-rule="evenodd" fill-opacity="1" /><path clip-path="url(#clip810)" d="M 0 0 M299.313 1515.64 Q295.702 1515.64 293.873 1519.2 Q292.068 1522.75 292.068 1529.87 Q292.068 1536.98 293.873 1540.55 Q295.702 1544.09 299.313 1544.09 Q302.948 1544.09 304.753 1540.55 Q306.582 1536.98 306.582 1529.87 Q306.582 1522.75 304.753 1519.2 Q302.948 1515.64 299.313 1515.64 M299.313 1511.93 Q305.123 1511.93 308.179 1516.54 Q311.258 1521.12 311.258 1529.87 Q311.258 1538.6 308.179 1543.21 Q305.123 1547.79 299.313 1547.79 Q293.503 1547.79 290.424 1543.21 Q287.369 1538.6 287.369 1529.87 Q287.369 1521.12 290.424 1516.54 Q293.503 1511.93 299.313 1511.93 Z" fill="#000000" fill-rule="evenodd" fill-opacity="1" /><path clip-path="url(#clip810)" d="M 0 0 M317.137 1543.18 L324.776 1543.18 L324.776 1516.82 L316.466 1518.49 L316.466 1514.23 L324.73 1512.56 L329.406 1512.56 L329.406 1543.18 L337.045 1543.18 L337.045 1547.12 L317.137 1547.12 L317.137 1543.18 Z" fill="#000000" fill-rule="evenodd" fill-opacity="1" /><path clip-path="url(#clip810)" d="M 0 0 M339.359 1532.24 L351.836 1532.24 L351.836 1536.03 L339.359 1536.03 L339.359 1532.24 Z" fill="#000000" fill-rule="evenodd" fill-opacity="1" /><path clip-path="url(#clip810)" d="M 0 0 M366.906 1515.64 Q363.294 1515.64 361.466 1519.2 Q359.66 1522.75 359.66 1529.87 Q359.66 1536.98 361.466 1540.55 Q363.294 1544.09 366.906 1544.09 Q370.54 1544.09 372.345 1540.55 Q374.174 1536.98 374.174 1529.87 Q374.174 1522.75 372.345 1519.2 Q370.54 1515.64 366.906 1515.64 M366.906 1511.93 Q372.716 1511.93 375.771 1516.54 Q378.85 1521.12 378.85 1529.87 Q378.85 1538.6 375.771 1543.21 Q372.716 1547.79 366.906 1547.79 Q361.095 1547.79 358.017 1543.21 Q354.961 1538.6 354.961 1529.87 Q354.961 1521.12 358.017 1516.54 Q361.095 1511.93 366.906 1511.93 Z" fill="#000000" fill-rule="evenodd" fill-opacity="1" /><path clip-path="url(#clip810)" d="M 0 0 M384.729 1543.18 L392.368 1543.18 L392.368 1516.82 L384.058 1518.49 L384.058 1514.23 L392.322 1512.56 L396.998 1512.56 L396.998 1543.18 L404.637 1543.18 L404.637 1547.12 L384.729 1547.12 L384.729 1543.18 Z" fill="#000000" fill-rule="evenodd" fill-opacity="1" /><path clip-path="url(#clip810)" d="M 0 0 M520.878 1543.18 L537.197 1543.18 L537.197 1547.12 L515.253 1547.12 L515.253 1543.18 Q517.915 1540.43 522.498 1535.8 Q527.104 1531.15 528.285 1529.81 Q530.53 1527.28 531.41 1525.55 Q532.313 1523.79 532.313 1522.1 Q532.313 1519.34 530.368 1517.61 Q528.447 1515.87 525.345 1515.87 Q523.146 1515.87 520.692 1516.63 Q518.262 1517.4 515.484 1518.95 L515.484 1514.23 Q518.308 1513.09 520.762 1512.51 Q523.216 1511.93 525.253 1511.93 Q530.623 1511.93 533.817 1514.62 Q537.012 1517.31 537.012 1521.8 Q537.012 1523.93 536.202 1525.85 Q535.415 1527.74 533.308 1530.34 Q532.729 1531.01 529.628 1534.23 Q526.526 1537.42 520.878 1543.18 Z" fill="#000000" fill-rule="evenodd" fill-opacity="1" /><path clip-path="url(#clip810)" d="M 0 0 M552.266 1515.64 Q548.655 1515.64 546.827 1519.2 Q545.021 1522.75 545.021 1529.87 Q545.021 1536.98 546.827 1540.55 Q548.655 1544.09 552.266 1544.09 Q555.901 1544.09 557.706 1540.55 Q559.535 1536.98 559.535 1529.87 Q559.535 1522.75 557.706 1519.2 Q555.901 1515.64 552.266 1515.64 M552.266 1511.93 Q558.077 1511.93 561.132 1516.54 Q564.211 1521.12 564.211 1529.87 Q564.211 1538.6 561.132 1543.21 Q558.077 1547.79 552.266 1547.79 Q546.456 1547.79 543.378 1543.21 Q540.322 1538.6 540.322 1529.87 Q540.322 1521.12 543.378 1516.54 Q546.456 1511.93 552.266 1511.93 Z" fill="#000000" fill-rule="evenodd" fill-opacity="1" /><path clip-path="url(#clip810)" d="M 0 0 M573.308 1543.18 L589.627 1543.18 L589.627 1547.12 L567.683 1547.12 L567.683 1543.18 Q570.345 1540.43 574.928 1535.8 Q579.535 1531.15 580.715 1529.81 Q582.961 1527.28 583.84 1525.55 Q584.743 1523.79 584.743 1522.1 Q584.743 1519.34 582.799 1517.61 Q580.877 1515.87 577.775 1515.87 Q575.576 1515.87 573.123 1516.63 Q570.692 1517.4 567.914 1518.95 L567.914 1514.23 Q570.738 1513.09 573.192 1512.51 Q575.646 1511.93 577.683 1511.93 Q583.053 1511.93 586.248 1514.62 Q589.442 1517.31 589.442 1521.8 Q589.442 1523.93 588.632 1525.85 Q587.845 1527.74 585.738 1530.34 Q585.16 1531.01 582.058 1534.23 Q578.956 1537.42 573.308 1543.18 Z" fill="#000000" fill-rule="evenodd" fill-opacity="1" /><path clip-path="url(#clip810)" d="M 0 0 M604.697 1515.64 Q601.086 1515.64 599.257 1519.2 Q597.451 1522.75 597.451 1529.87 Q597.451 1536.98 599.257 1540.55 Q601.086 1544.09 604.697 1544.09 Q608.331 1544.09 610.136 1540.55 Q611.965 1536.98 611.965 1529.87 Q611.965 1522.75 610.136 1519.2 Q608.331 1515.64 604.697 1515.64 M604.697 1511.93 Q610.507 1511.93 613.562 1516.54 Q616.641 1521.12 616.641 1529.87 Q616.641 1538.6 613.562 1543.21 Q610.507 1547.79 604.697 1547.79 Q598.886 1547.79 595.808 1543.21 Q592.752 1538.6 592.752 1529.87 Q592.752 1521.12 595.808 1516.54 Q598.886 1511.93 604.697 1511.93 Z" fill="#000000" fill-rule="evenodd" fill-opacity="1" /><path clip-path="url(#clip810)" d="M 0 0 M618.956 1532.24 L631.433 1532.24 L631.433 1536.03 L618.956 1536.03 L618.956 1532.24 Z" fill="#000000" fill-rule="evenodd" fill-opacity="1" /><path clip-path="url(#clip810)" d="M 0 0 M646.502 1515.64 Q642.891 1515.64 641.062 1519.2 Q639.257 1522.75 639.257 1529.87 Q639.257 1536.98 641.062 1540.55 Q642.891 1544.09 646.502 1544.09 Q650.136 1544.09 651.942 1540.55 Q653.77 1536.98 653.77 1529.87 Q653.77 1522.75 651.942 1519.2 Q650.136 1515.64 646.502 1515.64 M646.502 1511.93 Q652.312 1511.93 655.368 1516.54 Q658.446 1521.12 658.446 1529.87 Q658.446 1538.6 655.368 1543.21 Q652.312 1547.79 646.502 1547.79 Q640.692 1547.79 637.613 1543.21 Q634.558 1538.6 634.558 1529.87 Q634.558 1521.12 637.613 1516.54 Q640.692 1511.93 646.502 1511.93 Z" fill="#000000" fill-rule="evenodd" fill-opacity="1" /><path clip-path="url(#clip810)" d="M 0 0 M664.326 1543.18 L671.965 1543.18 L671.965 1516.82 L663.655 1518.49 L663.655 1514.23 L671.919 1512.56 L676.594 1512.56 L676.594 1543.18 L684.233 1543.18 L684.233 1547.12 L664.326 1547.12 L664.326 1543.18 Z" fill="#000000" fill-rule="evenodd" fill-opacity="1" /><path clip-path="url(#clip810)" d="M 0 0 M686.548 1532.24 L699.025 1532.24 L699.025 1536.03 L686.548 1536.03 L686.548 1532.24 Z" fill="#000000" fill-rule="evenodd" fill-opacity="1" /><path clip-path="url(#clip810)" d="M 0 0 M714.094 1515.64 Q710.483 1515.64 708.654 1519.2 Q706.849 1522.75 706.849 1529.87 Q706.849 1536.98 708.654 1540.55 Q710.483 1544.09 714.094 1544.09 Q717.728 1544.09 719.534 1540.55 Q721.363 1536.98 721.363 1529.87 Q721.363 1522.75 719.534 1519.2 Q717.728 1515.64 714.094 1515.64 M714.094 1511.93 Q719.904 1511.93 722.96 1516.54 Q726.039 1521.12 726.039 1529.87 Q726.039 1538.6 722.96 1543.21 Q719.904 1547.79 714.094 1547.79 Q708.284 1547.79 705.205 1543.21 Q702.15 1538.6 702.15 1529.87 Q702.15 1521.12 705.205 1516.54 Q708.284 1511.93 714.094 1511.93 Z" fill="#000000" fill-rule="evenodd" fill-opacity="1" /><path clip-path="url(#clip810)" d="M 0 0 M731.918 1543.18 L739.557 1543.18 L739.557 1516.82 L731.247 1518.49 L731.247 1514.23 L739.511 1512.56 L744.187 1512.56 L744.187 1543.18 L751.825 1543.18 L751.825 1547.12 L731.918 1547.12 L731.918 1543.18 Z" fill="#000000" fill-rule="evenodd" fill-opacity="1" /><path clip-path="url(#clip810)" d="M 0 0 M869.724 1543.18 L886.043 1543.18 L886.043 1547.12 L864.099 1547.12 L864.099 1543.18 Q866.761 1540.43 871.344 1535.8 Q875.951 1531.15 877.131 1529.81 Q879.377 1527.28 880.256 1525.55 Q881.159 1523.79 881.159 1522.1 Q881.159 1519.34 879.215 1517.61 Q877.293 1515.87 874.191 1515.87 Q871.992 1515.87 869.539 1516.63 Q867.108 1517.4 864.33 1518.95 L864.33 1514.23 Q867.154 1513.09 869.608 1512.51 Q872.062 1511.93 874.099 1511.93 Q879.469 1511.93 882.664 1514.62 Q885.858 1517.31 885.858 1521.8 Q885.858 1523.93 885.048 1525.85 Q884.261 1527.74 882.154 1530.34 Q881.576 1531.01 878.474 1534.23 Q875.372 1537.42 869.724 1543.18 Z" fill="#000000" fill-rule="evenodd" fill-opacity="1" /><path clip-path="url(#clip810)" d="M 0 0 M901.113 1515.64 Q897.501 1515.64 895.673 1519.2 Q893.867 1522.75 893.867 1529.87 Q893.867 1536.98 895.673 1540.55 Q897.501 1544.09 901.113 1544.09 Q904.747 1544.09 906.552 1540.55 Q908.381 1536.98 908.381 1529.87 Q908.381 1522.75 906.552 1519.2 Q904.747 1515.64 901.113 1515.64 M901.113 1511.93 Q906.923 1511.93 909.978 1516.54 Q913.057 1521.12 913.057 1529.87 Q913.057 1538.6 909.978 1543.21 Q906.923 1547.79 901.113 1547.79 Q895.302 1547.79 892.224 1543.21 Q889.168 1538.6 889.168 1529.87 Q889.168 1521.12 892.224 1516.54 Q895.302 1511.93 901.113 1511.93 Z" fill="#000000" fill-rule="evenodd" fill-opacity="1" /><path clip-path="url(#clip810)" d="M 0 0 M922.154 1543.18 L938.473 1543.18 L938.473 1547.12 L916.529 1547.12 L916.529 1543.18 Q919.191 1540.43 923.774 1535.8 Q928.381 1531.15 929.561 1529.81 Q931.807 1527.28 932.686 1525.55 Q933.589 1523.79 933.589 1522.1 Q933.589 1519.34 931.645 1517.61 Q929.723 1515.87 926.622 1515.87 Q924.423 1515.87 921.969 1516.63 Q919.538 1517.4 916.761 1518.95 L916.761 1514.23 Q919.585 1513.09 922.038 1512.51 Q924.492 1511.93 926.529 1511.93 Q931.899 1511.93 935.094 1514.62 Q938.288 1517.31 938.288 1521.8 Q938.288 1523.93 937.478 1525.85 Q936.691 1527.74 934.585 1530.34 Q934.006 1531.01 930.904 1534.23 Q927.802 1537.42 922.154 1543.18 Z" fill="#000000" fill-rule="evenodd" fill-opacity="1" /><path clip-path="url(#clip810)" d="M 0 0 M944.353 1543.18 L951.992 1543.18 L951.992 1516.82 L943.682 1518.49 L943.682 1514.23 L951.946 1512.56 L956.621 1512.56 L956.621 1543.18 L964.26 1543.18 L964.26 1547.12 L944.353 1547.12 L944.353 1543.18 Z" fill="#000000" fill-rule="evenodd" fill-opacity="1" /><path clip-path="url(#clip810)" d="M 0 0 M966.575 1532.24 L979.052 1532.24 L979.052 1536.03 L966.575 1536.03 L966.575 1532.24 Z" fill="#000000" fill-rule="evenodd" fill-opacity="1" /><path clip-path="url(#clip810)" d="M 0 0 M994.121 1515.64 Q990.51 1515.64 988.682 1519.2 Q986.876 1522.75 986.876 1529.87 Q986.876 1536.98 988.682 1540.55 Q990.51 1544.09 994.121 1544.09 Q997.756 1544.09 999.561 1540.55 Q1001.39 1536.98 1001.39 1529.87 Q1001.39 1522.75 999.561 1519.2 Q997.756 1515.64 994.121 1515.64 M994.121 1511.93 Q999.931 1511.93 1002.99 1516.54 Q1006.07 1521.12 1006.07 1529.87 Q1006.07 1538.6 1002.99 1543.21 Q999.931 1547.79 994.121 1547.79 Q988.311 1547.79 985.232 1543.21 Q982.177 1538.6 982.177 1529.87 Q982.177 1521.12 985.232 1516.54 Q988.311 1511.93 994.121 1511.93 Z" fill="#000000" fill-rule="evenodd" fill-opacity="1" /><path clip-path="url(#clip810)" d="M 0 0 M1011.95 1543.18 L1019.58 1543.18 L1019.58 1516.82 L1011.27 1518.49 L1011.27 1514.23 L1019.54 1512.56 L1024.21 1512.56 L1024.21 1543.18 L1031.85 1543.18 L1031.85 1547.12 L1011.95 1547.12 L1011.95 1543.18 Z" fill="#000000" fill-rule="evenodd" fill-opacity="1" /><path clip-path="url(#clip810)" d="M 0 0 M1034.17 1532.24 L1046.64 1532.24 L1046.64 1536.03 L1034.17 1536.03 L1034.17 1532.24 Z" fill="#000000" fill-rule="evenodd" fill-opacity="1" /><path clip-path="url(#clip810)" d="M 0 0 M1061.71 1515.64 Q1058.1 1515.64 1056.27 1519.2 Q1054.47 1522.75 1054.47 1529.87 Q1054.47 1536.98 1056.27 1540.55 Q1058.1 1544.09 1061.71 1544.09 Q1065.35 1544.09 1067.15 1540.55 Q1068.98 1536.98 1068.98 1529.87 Q1068.98 1522.75 1067.15 1519.2 Q1065.35 1515.64 1061.71 1515.64 M1061.71 1511.93 Q1067.52 1511.93 1070.58 1516.54 Q1073.66 1521.12 1073.66 1529.87 Q1073.66 1538.6 1070.58 1543.21 Q1067.52 1547.79 1061.71 1547.79 Q1055.9 1547.79 1052.82 1543.21 Q1049.77 1538.6 1049.77 1529.87 Q1049.77 1521.12 1052.82 1516.54 Q1055.9 1511.93 1061.71 1511.93 Z" fill="#000000" fill-rule="evenodd" fill-opacity="1" /><path clip-path="url(#clip810)" d="M 0 0 M1079.54 1543.18 L1087.18 1543.18 L1087.18 1516.82 L1078.87 1518.49 L1078.87 1514.23 L1087.13 1512.56 L1091.81 1512.56 L1091.81 1543.18 L1099.44 1543.18 L1099.44 1547.12 L1079.54 1547.12 L1079.54 1543.18 Z" fill="#000000" fill-rule="evenodd" fill-opacity="1" /><polyline clip-path="url(#clip812)" style="stroke:#000000; stroke-width:2; stroke-opacity:0.1; fill:none" points="
  142.455,1401.99 1088.47,1401.99 
  "/>
<polyline clip-path="url(#clip812)" style="stroke:#000000; stroke-width:2; stroke-opacity:0.1; fill:none" points="
  142.455,1179.21 1088.47,1179.21 
  "/>
<polyline clip-path="url(#clip812)" style="stroke:#000000; stroke-width:2; stroke-opacity:0.1; fill:none" points="
  142.455,956.432 1088.47,956.432 
  "/>
<polyline clip-path="url(#clip812)" style="stroke:#000000; stroke-width:2; stroke-opacity:0.1; fill:none" points="
  142.455,733.651 1088.47,733.651 
  "/>
<polyline clip-path="url(#clip812)" style="stroke:#000000; stroke-width:2; stroke-opacity:0.1; fill:none" points="
  142.455,510.871 1088.47,510.871 
  "/>
<polyline clip-path="url(#clip812)" style="stroke:#000000; stroke-width:2; stroke-opacity:0.1; fill:none" points="
  142.455,288.09 1088.47,288.09 
  "/>
<polyline clip-path="url(#clip810)" style="stroke:#000000; stroke-width:4; stroke-opacity:1; fill:none" points="
  142.455,1486.45 142.455,123.472 
  "/>
<polyline clip-path="url(#clip810)" style="stroke:#000000; stroke-width:4; stroke-opacity:1; fill:none" points="
  142.455,1401.99 153.807,1401.99 
  "/>
<polyline clip-path="url(#clip810)" style="stroke:#000000; stroke-width:4; stroke-opacity:1; fill:none" points="
  142.455,1179.21 153.807,1179.21 
  "/>
<polyline clip-path="url(#clip810)" style="stroke:#000000; stroke-width:4; stroke-opacity:1; fill:none" points="
  142.455,956.432 153.807,956.432 
  "/>
<polyline clip-path="url(#clip810)" style="stroke:#000000; stroke-width:4; stroke-opacity:1; fill:none" points="
  142.455,733.651 153.807,733.651 
  "/>
<polyline clip-path="url(#clip810)" style="stroke:#000000; stroke-width:4; stroke-opacity:1; fill:none" points="
  142.455,510.871 153.807,510.871 
  "/>
<polyline clip-path="url(#clip810)" style="stroke:#000000; stroke-width:4; stroke-opacity:1; fill:none" points="
  142.455,288.09 153.807,288.09 
  "/>
<path clip-path="url(#clip810)" d="M 0 0 M50.9921 1402.44 L80.6679 1402.44 L80.6679 1406.38 L50.9921 1406.38 L50.9921 1402.44 Z" fill="#000000" fill-rule="evenodd" fill-opacity="1" /><path clip-path="url(#clip810)" d="M 0 0 M86.5475 1415.34 L94.1863 1415.34 L94.1863 1388.97 L85.8762 1390.64 L85.8762 1386.38 L94.14 1384.71 L98.8159 1384.71 L98.8159 1415.34 L106.455 1415.34 L106.455 1419.27 L86.5475 1419.27 L86.5475 1415.34 Z" fill="#000000" fill-rule="evenodd" fill-opacity="1" /><path clip-path="url(#clip810)" d="M 0 0 M94.5104 1165.01 Q90.8993 1165.01 89.0706 1168.58 Q87.2651 1172.12 87.2651 1179.25 Q87.2651 1186.35 89.0706 1189.92 Q90.8993 1193.46 94.5104 1193.46 Q98.1447 1193.46 99.9502 1189.92 Q101.779 1186.35 101.779 1179.25 Q101.779 1172.12 99.9502 1168.58 Q98.1447 1165.01 94.5104 1165.01 M94.5104 1161.31 Q100.321 1161.31 103.376 1165.91 Q106.455 1170.5 106.455 1179.25 Q106.455 1187.97 103.376 1192.58 Q100.321 1197.16 94.5104 1197.16 Q88.7003 1197.16 85.6216 1192.58 Q82.566 1187.97 82.566 1179.25 Q82.566 1170.5 85.6216 1165.91 Q88.7003 1161.31 94.5104 1161.31 Z" fill="#000000" fill-rule="evenodd" fill-opacity="1" /><path clip-path="url(#clip810)" d="M 0 0 M86.5475 969.777 L94.1863 969.777 L94.1863 943.411 L85.8762 945.078 L85.8762 940.819 L94.14 939.152 L98.8159 939.152 L98.8159 969.777 L106.455 969.777 L106.455 973.712 L86.5475 973.712 L86.5475 969.777 Z" fill="#000000" fill-rule="evenodd" fill-opacity="1" /><path clip-path="url(#clip810)" d="M 0 0 M90.1354 746.996 L106.455 746.996 L106.455 750.931 L84.5105 750.931 L84.5105 746.996 Q87.1725 744.242 91.7558 739.612 Q96.3623 734.959 97.5428 733.617 Q99.7882 731.094 100.668 729.357 Q101.571 727.598 101.571 725.908 Q101.571 723.154 99.6261 721.418 Q97.7048 719.682 94.603 719.682 Q92.4039 719.682 89.9503 720.445 Q87.5197 721.209 84.7419 722.76 L84.7419 718.038 Q87.566 716.904 90.0197 716.325 Q92.4734 715.746 94.5104 715.746 Q99.8808 715.746 103.075 718.432 Q106.27 721.117 106.27 725.608 Q106.27 727.737 105.459 729.658 Q104.672 731.557 102.566 734.149 Q101.987 734.82 98.8854 738.038 Q95.7836 741.232 90.1354 746.996 Z" fill="#000000" fill-rule="evenodd" fill-opacity="1" /><path clip-path="url(#clip810)" d="M 0 0 M99.3252 509.517 Q102.682 510.234 104.557 512.503 Q106.455 514.771 106.455 518.105 Q106.455 523.22 102.936 526.021 Q99.4178 528.822 92.9363 528.822 Q90.7604 528.822 88.4456 528.382 Q86.154 527.966 83.7003 527.109 L83.7003 522.595 Q85.6447 523.73 87.9595 524.308 Q90.2743 524.887 92.7975 524.887 Q97.1956 524.887 99.4872 523.151 Q101.802 521.415 101.802 518.105 Q101.802 515.049 99.6493 513.336 Q97.5197 511.6 93.7002 511.6 L89.6725 511.6 L89.6725 507.757 L93.8854 507.757 Q97.3345 507.757 99.1632 506.392 Q100.992 505.003 100.992 502.41 Q100.992 499.748 99.0937 498.336 Q97.2187 496.901 93.7002 496.901 Q91.7789 496.901 89.5799 497.318 Q87.3808 497.734 84.7419 498.614 L84.7419 494.447 Q87.404 493.707 89.7188 493.336 Q92.0567 492.966 94.1169 492.966 Q99.4409 492.966 102.543 495.396 Q105.645 497.804 105.645 501.924 Q105.645 504.794 104.001 506.785 Q102.358 508.753 99.3252 509.517 Z" fill="#000000" fill-rule="evenodd" fill-opacity="1" /><path clip-path="url(#clip810)" d="M 0 0 M96.8715 274.884 L85.066 293.333 L96.8715 293.333 L96.8715 274.884 M95.6447 270.81 L101.524 270.81 L101.524 293.333 L106.455 293.333 L106.455 297.222 L101.524 297.222 L101.524 305.37 L96.8715 305.37 L96.8715 297.222 L81.2697 297.222 L81.2697 292.708 L95.6447 270.81 Z" fill="#000000" fill-rule="evenodd" fill-opacity="1" /><path clip-path="url(#clip810)" d="M 0 0 M283.064 16.7545 L283.064 25.383 Q278.933 21.5346 274.234 19.6307 Q269.575 17.7268 264.309 17.7268 Q253.938 17.7268 248.429 24.0867 Q242.92 30.4061 242.92 42.3968 Q242.92 54.3469 248.429 60.7069 Q253.938 67.0263 264.309 67.0263 Q269.575 67.0263 274.234 65.1223 Q278.933 63.2184 283.064 59.3701 L283.064 67.9175 Q278.771 70.8341 273.95 72.2924 Q269.17 73.7508 263.823 73.7508 Q250.09 73.7508 242.191 65.3654 Q234.292 56.9395 234.292 42.3968 Q234.292 27.8135 242.191 19.4281 Q250.09 11.0023 263.823 11.0023 Q269.251 11.0023 274.031 12.4606 Q278.852 13.8784 283.064 16.7545 Z" fill="#000000" fill-rule="evenodd" fill-opacity="1" /><path clip-path="url(#clip810)" d="M 0 0 M290.113 54.671 L290.113 27.2059 L297.567 27.2059 L297.567 54.3874 Q297.567 60.8284 300.078 64.0691 Q302.59 67.2693 307.613 67.2693 Q313.649 67.2693 317.133 63.421 Q320.657 59.5726 320.657 52.9291 L320.657 27.2059 L328.111 27.2059 L328.111 72.576 L320.657 72.576 L320.657 65.6084 Q317.943 69.7404 314.337 71.7658 Q310.773 73.7508 306.033 73.7508 Q298.215 73.7508 294.164 68.8897 Q290.113 64.0286 290.113 54.671 M308.869 26.1121 L308.869 26.1121 Z" fill="#000000" fill-rule="evenodd" fill-opacity="1" /><path clip-path="url(#clip810)" d="M 0 0 M371.253 35.9153 Q374.048 30.8922 377.937 28.5022 Q381.826 26.1121 387.092 26.1121 Q394.181 26.1121 398.029 31.0947 Q401.877 36.0368 401.877 45.1919 L401.877 72.576 L394.383 72.576 L394.383 45.4349 Q394.383 38.913 392.074 35.7533 Q389.765 32.5936 385.026 32.5936 Q379.233 32.5936 375.871 36.4419 Q372.508 40.2903 372.508 46.9338 L372.508 72.576 L365.014 72.576 L365.014 45.4349 Q365.014 38.8725 362.705 35.7533 Q360.396 32.5936 355.576 32.5936 Q349.864 32.5936 346.502 36.4824 Q343.139 40.3308 343.139 46.9338 L343.139 72.576 L335.645 72.576 L335.645 27.2059 L343.139 27.2059 L343.139 34.2544 Q345.691 30.082 349.256 28.0971 Q352.821 26.1121 357.723 26.1121 Q362.665 26.1121 366.108 28.6237 Q369.592 31.1352 371.253 35.9153 Z" fill="#000000" fill-rule="evenodd" fill-opacity="1" /><path clip-path="url(#clip810)" d="M 0 0 M445.02 35.9153 Q447.815 30.8922 451.704 28.5022 Q455.592 26.1121 460.859 26.1121 Q467.948 26.1121 471.796 31.0947 Q475.644 36.0368 475.644 45.1919 L475.644 72.576 L468.15 72.576 L468.15 45.4349 Q468.15 38.913 465.841 35.7533 Q463.532 32.5936 458.793 32.5936 Q453 32.5936 449.638 36.4419 Q446.275 40.2903 446.275 46.9338 L446.275 72.576 L438.781 72.576 L438.781 45.4349 Q438.781 38.8725 436.472 35.7533 Q434.163 32.5936 429.343 32.5936 Q423.631 32.5936 420.269 36.4824 Q416.906 40.3308 416.906 46.9338 L416.906 72.576 L409.412 72.576 L409.412 27.2059 L416.906 27.2059 L416.906 34.2544 Q419.458 30.082 423.023 28.0971 Q426.588 26.1121 431.49 26.1121 Q436.432 26.1121 439.875 28.6237 Q443.359 31.1352 445.02 35.9153 Z" fill="#000000" fill-rule="evenodd" fill-opacity="1" /><path clip-path="url(#clip810)" d="M 0 0 M482.693 54.671 L482.693 27.2059 L490.147 27.2059 L490.147 54.3874 Q490.147 60.8284 492.658 64.0691 Q495.17 67.2693 500.193 67.2693 Q506.229 67.2693 509.713 63.421 Q513.237 59.5726 513.237 52.9291 L513.237 27.2059 L520.691 27.2059 L520.691 72.576 L513.237 72.576 L513.237 65.6084 Q510.523 69.7404 506.917 71.7658 Q503.353 73.7508 498.613 73.7508 Q490.795 73.7508 486.744 68.8897 Q482.693 64.0286 482.693 54.671 M501.449 26.1121 L501.449 26.1121 Z" fill="#000000" fill-rule="evenodd" fill-opacity="1" /><path clip-path="url(#clip810)" d="M 0 0 M528.509 9.54393 L535.962 9.54393 L535.962 72.576 L528.509 72.576 L528.509 9.54393 Z" fill="#000000" fill-rule="evenodd" fill-opacity="1" /><path clip-path="url(#clip810)" d="M 0 0 M564.4 49.7694 Q555.366 49.7694 551.882 51.8354 Q548.399 53.9013 548.399 58.8839 Q548.399 62.8538 550.991 65.2034 Q553.624 67.5124 558.121 67.5124 Q564.319 67.5124 568.046 63.1374 Q571.813 58.7219 571.813 51.4303 L571.813 49.7694 L564.4 49.7694 M579.267 46.6907 L579.267 72.576 L571.813 72.576 L571.813 65.6895 Q569.261 69.8214 565.453 71.8063 Q561.645 73.7508 556.136 73.7508 Q549.168 73.7508 545.036 69.8619 Q540.945 65.9325 540.945 59.3701 Q540.945 51.7138 546.049 47.825 Q551.194 43.9361 561.362 43.9361 L571.813 43.9361 L571.813 43.2069 Q571.813 38.0623 568.41 35.2672 Q565.048 32.4315 558.931 32.4315 Q555.042 32.4315 551.356 33.3632 Q547.67 34.295 544.267 36.1584 L544.267 29.2718 Q548.358 27.692 552.207 26.9223 Q556.055 26.1121 559.701 26.1121 Q569.544 26.1121 574.406 31.2163 Q579.267 36.3204 579.267 46.6907 Z" fill="#000000" fill-rule="evenodd" fill-opacity="1" /><path clip-path="url(#clip810)" d="M 0 0 M594.457 14.324 L594.457 27.2059 L609.81 27.2059 L609.81 32.9987 L594.457 32.9987 L594.457 57.6282 Q594.457 63.1779 595.956 64.7578 Q597.496 66.3376 602.154 66.3376 L609.81 66.3376 L609.81 72.576 L602.154 72.576 Q593.526 72.576 590.245 69.3758 Q586.963 66.1351 586.963 57.6282 L586.963 32.9987 L581.495 32.9987 L581.495 27.2059 L586.963 27.2059 L586.963 14.324 L594.457 14.324 Z" fill="#000000" fill-rule="evenodd" fill-opacity="1" /><path clip-path="url(#clip810)" d="M 0 0 M617.629 27.2059 L625.082 27.2059 L625.082 72.576 L617.629 72.576 L617.629 27.2059 M617.629 9.54393 L625.082 9.54393 L625.082 18.9825 L617.629 18.9825 L617.629 9.54393 Z" fill="#000000" fill-rule="evenodd" fill-opacity="1" /><path clip-path="url(#clip810)" d="M 0 0 M627.553 27.2059 L635.453 27.2059 L649.631 65.2844 L663.809 27.2059 L671.708 27.2059 L654.694 72.576 L644.567 72.576 L627.553 27.2059 Z" fill="#000000" fill-rule="evenodd" fill-opacity="1" /><path clip-path="url(#clip810)" d="M 0 0 M718.334 48.0275 L718.334 51.6733 L684.063 51.6733 Q684.55 59.3701 688.682 63.421 Q692.854 67.4314 700.267 67.4314 Q704.561 67.4314 708.571 66.3781 Q712.622 65.3249 716.592 63.2184 L716.592 70.267 Q712.582 71.9684 708.369 72.8596 Q704.156 73.7508 699.822 73.7508 Q688.965 73.7508 682.605 67.4314 Q676.286 61.1119 676.286 50.3365 Q676.286 39.1965 682.281 32.6746 Q688.317 26.1121 698.525 26.1121 Q707.68 26.1121 712.987 32.0264 Q718.334 37.9003 718.334 48.0275 M710.88 45.84 Q710.799 39.7232 707.437 36.0774 Q704.115 32.4315 698.606 32.4315 Q692.368 32.4315 688.6 35.9558 Q684.874 39.4801 684.307 45.8805 L710.88 45.84 Z" fill="#000000" fill-rule="evenodd" fill-opacity="1" /><path clip-path="url(#clip810)" d="M 0 0 M781.528 44.2197 Q784.161 45.1109 786.632 48.0275 Q789.144 50.9442 791.656 56.0483 L799.96 72.576 L791.169 72.576 L783.432 57.061 Q780.434 50.9847 777.599 48.9997 Q774.804 47.0148 769.943 47.0148 L761.031 47.0148 L761.031 72.576 L752.848 72.576 L752.848 12.096 L771.32 12.096 Q781.69 12.096 786.794 16.4305 Q791.899 20.7649 791.899 29.5149 Q791.899 35.2267 789.225 38.994 Q786.592 42.7613 781.528 44.2197 M761.031 18.8205 L761.031 40.2903 L771.32 40.2903 Q777.234 40.2903 780.232 37.5762 Q783.27 34.8216 783.27 29.5149 Q783.27 24.2082 780.232 21.5346 Q777.234 18.8205 771.32 18.8205 L761.031 18.8205 Z" fill="#000000" fill-rule="evenodd" fill-opacity="1" /><path clip-path="url(#clip810)" d="M 0 0 M842.859 48.0275 L842.859 51.6733 L808.588 51.6733 Q809.074 59.3701 813.206 63.421 Q817.379 67.4314 824.792 67.4314 Q829.086 67.4314 833.096 66.3781 Q837.147 65.3249 841.117 63.2184 L841.117 70.267 Q837.107 71.9684 832.894 72.8596 Q828.681 73.7508 824.346 73.7508 Q813.49 73.7508 807.13 67.4314 Q800.811 61.1119 800.811 50.3365 Q800.811 39.1965 806.806 32.6746 Q812.842 26.1121 823.05 26.1121 Q832.205 26.1121 837.512 32.0264 Q842.859 37.9003 842.859 48.0275 M835.405 45.84 Q835.324 39.7232 831.962 36.0774 Q828.64 32.4315 823.131 32.4315 Q816.893 32.4315 813.125 35.9558 Q809.398 39.4801 808.831 45.8805 L835.405 45.84 Z" fill="#000000" fill-rule="evenodd" fill-opacity="1" /><path clip-path="url(#clip810)" d="M 0 0 M858.05 14.324 L858.05 27.2059 L873.403 27.2059 L873.403 32.9987 L858.05 32.9987 L858.05 57.6282 Q858.05 63.1779 859.549 64.7578 Q861.088 66.3376 865.747 66.3376 L873.403 66.3376 L873.403 72.576 L865.747 72.576 Q857.118 72.576 853.837 69.3758 Q850.556 66.1351 850.556 57.6282 L850.556 32.9987 L845.087 32.9987 L845.087 27.2059 L850.556 27.2059 L850.556 14.324 L858.05 14.324 Z" fill="#000000" fill-rule="evenodd" fill-opacity="1" /><path clip-path="url(#clip810)" d="M 0 0 M880.451 54.671 L880.451 27.2059 L887.905 27.2059 L887.905 54.3874 Q887.905 60.8284 890.417 64.0691 Q892.928 67.2693 897.951 67.2693 Q903.987 67.2693 907.471 63.421 Q910.995 59.5726 910.995 52.9291 L910.995 27.2059 L918.449 27.2059 L918.449 72.576 L910.995 72.576 L910.995 65.6084 Q908.281 69.7404 904.676 71.7658 Q901.111 73.7508 896.371 73.7508 Q888.553 73.7508 884.502 68.8897 Q880.451 64.0286 880.451 54.671 M899.207 26.1121 L899.207 26.1121 Z" fill="#000000" fill-rule="evenodd" fill-opacity="1" /><path clip-path="url(#clip810)" d="M 0 0 M952.557 34.1734 Q951.302 33.4443 949.803 33.1202 Q948.344 32.7556 946.562 32.7556 Q940.243 32.7556 936.84 36.8875 Q933.478 40.9789 933.478 48.6757 L933.478 72.576 L925.983 72.576 L925.983 27.2059 L933.478 27.2059 L933.478 34.2544 Q935.827 30.1225 939.595 28.1376 Q943.362 26.1121 948.75 26.1121 Q949.519 26.1121 950.451 26.2337 Q951.383 26.3147 952.517 26.5172 L952.557 34.1734 Z" fill="#000000" fill-rule="evenodd" fill-opacity="1" /><path clip-path="url(#clip810)" d="M 0 0 M996.631 45.1919 L996.631 72.576 L989.178 72.576 L989.178 45.4349 Q989.178 38.994 986.666 35.7938 Q984.154 32.5936 979.131 32.5936 Q973.096 32.5936 969.612 36.4419 Q966.128 40.2903 966.128 46.9338 L966.128 72.576 L958.634 72.576 L958.634 27.2059 L966.128 27.2059 L966.128 34.2544 Q968.802 30.163 972.407 28.1376 Q976.053 26.1121 980.792 26.1121 Q988.61 26.1121 992.621 30.9732 Q996.631 35.7938 996.631 45.1919 Z" fill="#000000" fill-rule="evenodd" fill-opacity="1" /><polyline clip-path="url(#clip812)" style="stroke:#009af9; stroke-width:4; stroke-opacity:1; fill:none" points="
  169.229,1179.21 197.772,1218.89 227.268,1260.5 255.811,1392.34 285.306,1384.11 314.801,1397.12 341.442,1371.66 370.937,1262.78 399.481,1262.11 428.976,1208.58 
  457.52,1226.47 487.015,1296.36 516.51,1362.2 545.054,1393.43 574.549,1380.19 603.093,1385.32 632.588,1430.97 662.083,1320.66 689.675,1350.7 719.17,1447.87 
  747.714,1348.72 777.209,1250.35 805.753,1224.51 835.248,1109.96 864.743,1137.7 893.286,1179.96 922.782,1199.14 951.325,1062.1 980.82,1050.37 1010.32,907.244 
  1036.96,609.495 1061.69,644.871 
  "/>
<polyline clip-path="url(#clip812)" style="stroke:#e26f46; stroke-width:4; stroke-opacity:1; fill:none" points="
  169.229,1179.21 197.772,1199.86 227.268,1212.12 255.811,1349.6 285.306,1309.96 314.801,1306.02 341.442,1194.13 370.937,1075.09 399.481,1024.19 428.976,935.028 
  457.52,940.322 487.015,972.86 516.51,1034.31 545.054,1097.84 574.549,1046.83 603.093,1099.58 632.588,1129.85 662.083,1066.05 689.675,1054.57 719.17,1149.73 
  747.714,1082.63 777.209,1080.83 805.753,1104.28 835.248,1038.57 864.743,1013.26 893.286,961.013 922.782,966.874 951.325,944.668 980.82,906.62 1010.32,868.508 
  1036.96,521.754 1061.69,493.39 
  "/>
<polyline clip-path="url(#clip812)" style="stroke:#3da44d; stroke-width:4; stroke-opacity:1; fill:none" points="
  169.229,1179.21 197.772,1191.78 227.268,1200.51 255.811,1301.95 285.306,1321.43 314.801,1338.22 341.442,1314.87 370.937,1298.53 399.481,1240.67 428.976,1134.88 
  457.52,1081.85 487.015,1098.32 516.51,1109.49 545.054,1141.91 574.549,1120.12 603.093,1162.96 632.588,1173.44 662.083,1115.01 689.675,1135.7 719.17,1199.17 
  747.714,1133.19 777.209,1112.75 805.753,1120.18 835.248,1072.18 864.743,1066.09 893.286,1083.45 922.782,1028.5 951.325,949.103 980.82,863.499 1010.32,833.499 
  1036.96,764.359 1061.69,733.26 
  "/>
<polyline clip-path="url(#clip812)" style="stroke:#c271d2; stroke-width:4; stroke-opacity:1; fill:none" points="
  169.229,1179.21 197.772,1221.33 227.268,1256.71 255.811,1381.05 285.306,1348.79 314.801,1395.81 341.442,1342.29 370.937,1332.57 399.481,1302.47 428.976,1190.17 
  457.52,1170.45 487.015,1235.66 516.51,1289.45 545.054,1277.71 574.549,1276.08 603.093,1317.36 632.588,1352.71 662.083,1278.78 689.675,1236.9 719.17,1346.65 
  747.714,1248.62 777.209,1222.64 805.753,1228.46 835.248,1132.97 864.743,1082.8 893.286,1124.45 922.782,1108.54 951.325,1004.44 980.82,964.9 1010.32,836.15 
  1036.96,818.749 1061.69,790.092 
  "/>
<polyline clip-path="url(#clip812)" style="stroke:#ac8d18; stroke-width:4; stroke-opacity:1; fill:none" points="
  169.229,1179.21 197.772,1182.21 227.268,1227.59 255.811,1325.25 285.306,1341.82 314.801,1330.85 341.442,1247.75 370.937,1184.89 399.481,1138.98 428.976,1042.5 
  457.52,1026.29 487.015,1075.64 516.51,1171.45 545.054,1202.07 574.549,1193.1 603.093,1240.07 632.588,1269.87 662.083,1158.78 689.675,1194.02 719.17,1282.17 
  747.714,1244.26 777.209,1247.75 805.753,1270.57 835.248,1193.72 864.743,1183.27 893.286,1244.7 922.782,1203.15 951.325,1102.23 980.82,1024.56 1010.32,1015.51 
  1036.96,960.999 1061.69,947.273 
  "/>
<polyline clip-path="url(#clip812)" style="stroke:#00a9ad; stroke-width:4; stroke-opacity:1; fill:none" points="
  428.976,1179.21 457.52,1218.16 487.015,1174.49 516.51,1222.49 545.054,1292.12 574.549,1266.04 603.093,1328.78 632.588,1281.24 662.083,1236.02 689.675,1214.6 
  719.17,1316.25 747.714,1208.57 777.209,1048.43 805.753,1072.4 835.248,1029.04 864.743,902.119 893.286,801.339 922.782,846.752 951.325,835.282 980.82,598.309 
  1010.32,592.65 1036.96,482.292 1061.69,162.047 
  "/>
<polyline clip-path="url(#clip812)" style="stroke:#ed5d92; stroke-width:4; stroke-opacity:1; fill:none" points="
  169.229,1179.21 197.772,1056.14 227.268,1111.61 255.811,1160.51 285.306,1170.62 314.801,1197.33 341.442,1193.91 370.937,1197.49 399.481,1197.63 428.976,1119.43 
  457.52,1142.03 487.015,1189.9 516.51,1238.05 545.054,1238.81 574.549,1208.1 603.093,1267.59 632.588,1302.32 662.083,1254.21 689.675,1264.24 719.17,1325.95 
  747.714,1282.03 777.209,1291.61 805.753,1323.65 835.248,1236.4 864.743,1218.45 893.286,1252.13 922.782,1254 951.325,1026.94 980.82,1273.51 1010.32,1092.4 
  1036.96,1131.36 1061.69,1079.04 
  "/>
<path clip-path="url(#clip810)" d="
M173.989 652.745 L423.707 652.745 L423.707 168.905 L173.989 168.905  Z
  " fill="#ffffff" fill-rule="evenodd" fill-opacity="1"/>
<polyline clip-path="url(#clip810)" style="stroke:#000000; stroke-width:4; stroke-opacity:1; fill:none" points="
  173.989,652.745 423.707,652.745 423.707,168.905 173.989,168.905 173.989,652.745 
  "/>
<polyline clip-path="url(#clip810)" style="stroke:#009af9; stroke-width:4; stroke-opacity:1; fill:none" points="
  184.5,229.385 247.567,229.385 
  "/>
<path clip-path="url(#clip810)" d="M 0 0 M273.912 216.711 L267.569 233.91 L280.278 233.91 L273.912 216.711 M271.273 212.105 L276.574 212.105 L289.745 246.665 L284.884 246.665 L281.736 237.799 L266.157 237.799 L263.009 246.665 L258.079 246.665 L271.273 212.105 Z" fill="#000000" fill-rule="evenodd" fill-opacity="1" /><path clip-path="url(#clip810)" d="M 0 0 M299.074 215.947 L299.074 242.822 L304.722 242.822 Q311.875 242.822 315.185 239.581 Q318.518 236.341 318.518 229.35 Q318.518 222.406 315.185 219.188 Q311.875 215.947 304.722 215.947 L299.074 215.947 M294.398 212.105 L304.004 212.105 Q314.051 212.105 318.75 216.294 Q323.449 220.461 323.449 229.35 Q323.449 238.285 318.726 242.475 Q314.004 246.665 304.004 246.665 L294.398 246.665 L294.398 212.105 Z" fill="#000000" fill-rule="evenodd" fill-opacity="1" /><path clip-path="url(#clip810)" d="M 0 0 M338.819 216.711 L332.476 233.91 L345.185 233.91 L338.819 216.711 M336.18 212.105 L341.481 212.105 L354.652 246.665 L349.791 246.665 L346.643 237.799 L331.064 237.799 L327.916 246.665 L322.986 246.665 L336.18 212.105 Z" fill="#000000" fill-rule="evenodd" fill-opacity="1" /><polyline clip-path="url(#clip810)" style="stroke:#e26f46; stroke-width:4; stroke-opacity:1; fill:none" points="
  184.5,289.865 247.567,289.865 
  "/>
<path clip-path="url(#clip810)" d="M 0 0 M262.755 290.64 L262.755 303.302 L270.254 303.302 Q274.028 303.302 275.833 301.751 Q277.662 300.177 277.662 296.96 Q277.662 293.719 275.833 292.191 Q274.028 290.64 270.254 290.64 L262.755 290.64 M262.755 276.427 L262.755 286.844 L269.676 286.844 Q273.102 286.844 274.768 285.571 Q276.458 284.274 276.458 281.636 Q276.458 279.02 274.768 277.724 Q273.102 276.427 269.676 276.427 L262.755 276.427 M258.079 272.585 L270.023 272.585 Q275.37 272.585 278.264 274.807 Q281.157 277.029 281.157 281.126 Q281.157 284.298 279.676 286.173 Q278.194 288.048 275.324 288.51 Q278.773 289.251 280.671 291.612 Q282.592 293.95 282.592 297.469 Q282.592 302.098 279.444 304.622 Q276.296 307.145 270.486 307.145 L258.079 307.145 L258.079 272.585 Z" fill="#000000" fill-rule="evenodd" fill-opacity="1" /><path clip-path="url(#clip810)" d="M 0 0 M287.245 272.585 L293.541 272.585 L308.865 301.497 L308.865 272.585 L313.402 272.585 L313.402 307.145 L307.106 307.145 L291.782 278.233 L291.782 307.145 L287.245 307.145 L287.245 272.585 Z" fill="#000000" fill-rule="evenodd" fill-opacity="1" /><path clip-path="url(#clip810)" d="M 0 0 M322.731 290.64 L322.731 303.302 L330.231 303.302 Q334.004 303.302 335.81 301.751 Q337.638 300.177 337.638 296.96 Q337.638 293.719 335.81 292.191 Q334.004 290.64 330.231 290.64 L322.731 290.64 M322.731 276.427 L322.731 286.844 L329.652 286.844 Q333.078 286.844 334.745 285.571 Q336.435 284.274 336.435 281.636 Q336.435 279.02 334.745 277.724 Q333.078 276.427 329.652 276.427 L322.731 276.427 M318.055 272.585 L330 272.585 Q335.347 272.585 338.24 274.807 Q341.134 277.029 341.134 281.126 Q341.134 284.298 339.652 286.173 Q338.171 288.048 335.3 288.51 Q338.749 289.251 340.648 291.612 Q342.569 293.95 342.569 297.469 Q342.569 302.098 339.421 304.622 Q336.273 307.145 330.463 307.145 L318.055 307.145 L318.055 272.585 Z" fill="#000000" fill-rule="evenodd" fill-opacity="1" /><polyline clip-path="url(#clip810)" style="stroke:#3da44d; stroke-width:4; stroke-opacity:1; fill:none" points="
  184.5,350.345 247.567,350.345 
  "/>
<path clip-path="url(#clip810)" d="M 0 0 M262.755 351.12 L262.755 363.782 L270.254 363.782 Q274.028 363.782 275.833 362.231 Q277.662 360.657 277.662 357.44 Q277.662 354.199 275.833 352.671 Q274.028 351.12 270.254 351.12 L262.755 351.12 M262.755 336.907 L262.755 347.324 L269.676 347.324 Q273.102 347.324 274.768 346.051 Q276.458 344.754 276.458 342.116 Q276.458 339.5 274.768 338.204 Q273.102 336.907 269.676 336.907 L262.755 336.907 M258.079 333.065 L270.023 333.065 Q275.37 333.065 278.264 335.287 Q281.157 337.509 281.157 341.606 Q281.157 344.778 279.676 346.653 Q278.194 348.528 275.324 348.99 Q278.773 349.731 280.671 352.092 Q282.592 354.43 282.592 357.949 Q282.592 362.578 279.444 365.102 Q276.296 367.625 270.486 367.625 L258.079 367.625 L258.079 333.065 Z" fill="#000000" fill-rule="evenodd" fill-opacity="1" /><path clip-path="url(#clip810)" d="M 0 0 M282.454 333.065 L311.689 333.065 L311.689 337 L299.421 337 L299.421 367.625 L294.722 367.625 L294.722 337 L282.454 337 L282.454 333.065 Z" fill="#000000" fill-rule="evenodd" fill-opacity="1" /><path clip-path="url(#clip810)" d="M 0 0 M339.444 335.727 L339.444 340.657 Q337.083 338.458 334.398 337.37 Q331.736 336.282 328.726 336.282 Q322.801 336.282 319.652 339.916 Q316.504 343.528 316.504 350.379 Q316.504 357.208 319.652 360.842 Q322.801 364.453 328.726 364.453 Q331.736 364.453 334.398 363.365 Q337.083 362.277 339.444 360.078 L339.444 364.963 Q336.99 366.629 334.236 367.463 Q331.504 368.296 328.449 368.296 Q320.601 368.296 316.088 363.504 Q311.574 358.69 311.574 350.379 Q311.574 342.046 316.088 337.254 Q320.601 332.44 328.449 332.44 Q331.55 332.44 334.282 333.273 Q337.037 334.083 339.444 335.727 Z" fill="#000000" fill-rule="evenodd" fill-opacity="1" /><polyline clip-path="url(#clip810)" style="stroke:#c271d2; stroke-width:4; stroke-opacity:1; fill:none" points="
  184.5,410.825 247.567,410.825 
  "/>
<path clip-path="url(#clip810)" d="M 0 0 M258.079 393.545 L279.93 393.545 L279.93 397.48 L262.755 397.48 L262.755 407.711 L279.213 407.711 L279.213 411.646 L262.755 411.646 L262.755 424.169 L280.347 424.169 L280.347 428.105 L258.079 428.105 L258.079 393.545 Z" fill="#000000" fill-rule="evenodd" fill-opacity="1" /><path clip-path="url(#clip810)" d="M 0 0 M280.208 393.545 L309.444 393.545 L309.444 397.48 L297.176 397.48 L297.176 428.105 L292.477 428.105 L292.477 397.48 L280.208 397.48 L280.208 393.545 Z" fill="#000000" fill-rule="evenodd" fill-opacity="1" /><path clip-path="url(#clip810)" d="M 0 0 M314.097 393.545 L318.773 393.545 L318.773 407.711 L335.763 407.711 L335.763 393.545 L340.439 393.545 L340.439 428.105 L335.763 428.105 L335.763 411.646 L318.773 411.646 L318.773 428.105 L314.097 428.105 L314.097 393.545 Z" fill="#000000" fill-rule="evenodd" fill-opacity="1" /><polyline clip-path="url(#clip810)" style="stroke:#ac8d18; stroke-width:4; stroke-opacity:1; fill:none" points="
  184.5,471.305 247.567,471.305 
  "/>
<path clip-path="url(#clip810)" d="M 0 0 M258.079 454.025 L262.755 454.025 L262.755 484.649 L279.583 484.649 L279.583 488.585 L258.079 488.585 L258.079 454.025 Z" fill="#000000" fill-rule="evenodd" fill-opacity="1" /><path clip-path="url(#clip810)" d="M 0 0 M272.917 454.025 L302.152 454.025 L302.152 457.96 L289.884 457.96 L289.884 488.585 L285.185 488.585 L285.185 457.96 L272.917 457.96 L272.917 454.025 Z" fill="#000000" fill-rule="evenodd" fill-opacity="1" /><path clip-path="url(#clip810)" d="M 0 0 M329.907 456.687 L329.907 461.617 Q327.546 459.418 324.861 458.33 Q322.199 457.242 319.189 457.242 Q313.264 457.242 310.115 460.876 Q306.967 464.488 306.967 471.339 Q306.967 478.168 310.115 481.802 Q313.264 485.413 319.189 485.413 Q322.199 485.413 324.861 484.325 Q327.546 483.237 329.907 481.038 L329.907 485.923 Q327.453 487.589 324.699 488.423 Q321.967 489.256 318.912 489.256 Q311.064 489.256 306.551 484.464 Q302.037 479.65 302.037 471.339 Q302.037 463.006 306.551 458.214 Q311.064 453.4 318.912 453.4 Q322.013 453.4 324.745 454.233 Q327.5 455.043 329.907 456.687 Z" fill="#000000" fill-rule="evenodd" fill-opacity="1" /><polyline clip-path="url(#clip810)" style="stroke:#00a9ad; stroke-width:4; stroke-opacity:1; fill:none" points="
  184.5,531.785 247.567,531.785 
  "/>
<path clip-path="url(#clip810)" d="M 0 0 M258.079 514.505 L287.315 514.505 L287.315 518.44 L275.046 518.44 L275.046 549.065 L270.347 549.065 L270.347 518.44 L258.079 518.44 L258.079 514.505 Z" fill="#000000" fill-rule="evenodd" fill-opacity="1" /><path clip-path="url(#clip810)" d="M 0 0 M291.967 514.505 L296.643 514.505 L296.643 528.671 L313.634 528.671 L313.634 514.505 L318.31 514.505 L318.31 549.065 L313.634 549.065 L313.634 532.606 L296.643 532.606 L296.643 549.065 L291.967 549.065 L291.967 514.505 Z" fill="#000000" fill-rule="evenodd" fill-opacity="1" /><path clip-path="url(#clip810)" d="M 0 0 M322.963 514.505 L344.814 514.505 L344.814 518.44 L327.638 518.44 L327.638 528.671 L344.097 528.671 L344.097 532.606 L327.638 532.606 L327.638 545.129 L345.231 545.129 L345.231 549.065 L322.963 549.065 L322.963 514.505 Z" fill="#000000" fill-rule="evenodd" fill-opacity="1" /><path clip-path="url(#clip810)" d="M 0 0 M345.092 514.505 L374.328 514.505 L374.328 518.44 L362.06 518.44 L362.06 549.065 L357.361 549.065 L357.361 518.44 L345.092 518.44 L345.092 514.505 Z" fill="#000000" fill-rule="evenodd" fill-opacity="1" /><path clip-path="url(#clip810)" d="M 0 0 M386.851 519.111 L380.509 536.31 L393.217 536.31 L386.851 519.111 M384.212 514.505 L389.513 514.505 L402.684 549.065 L397.823 549.065 L394.675 540.199 L379.097 540.199 L375.948 549.065 L371.018 549.065 L384.212 514.505 Z" fill="#000000" fill-rule="evenodd" fill-opacity="1" /><polyline clip-path="url(#clip810)" style="stroke:#ed5d92; stroke-width:4; stroke-opacity:1; fill:none" points="
  184.5,592.265 247.567,592.265 
  "/>
<path clip-path="url(#clip810)" d="M 0 0 M259.653 574.985 L264.676 574.985 L273.264 587.832 L281.898 574.985 L286.921 574.985 L275.81 591.582 L287.662 609.545 L282.639 609.545 L272.917 594.846 L263.125 609.545 L258.079 609.545 L270.417 591.096 L259.653 574.985 Z" fill="#000000" fill-rule="evenodd" fill-opacity="1" /><path clip-path="url(#clip810)" d="M 0 0 M308.703 593.341 Q310.208 593.85 311.62 595.517 Q313.055 597.184 314.49 600.1 L319.236 609.545 L314.213 609.545 L309.791 600.679 Q308.078 597.207 306.458 596.073 Q304.861 594.938 302.083 594.938 L296.99 594.938 L296.99 609.545 L292.315 609.545 L292.315 574.985 L302.87 574.985 Q308.796 574.985 311.713 577.461 Q314.629 579.938 314.629 584.938 Q314.629 588.202 313.101 590.355 Q311.597 592.508 308.703 593.341 M296.99 578.827 L296.99 591.096 L302.87 591.096 Q306.25 591.096 307.963 589.545 Q309.699 587.971 309.699 584.938 Q309.699 581.906 307.963 580.378 Q306.25 578.827 302.87 578.827 L296.99 578.827 Z" fill="#000000" fill-rule="evenodd" fill-opacity="1" /><path clip-path="url(#clip810)" d="M 0 0 M328.564 578.827 L328.564 591.813 L334.444 591.813 Q337.708 591.813 339.49 590.123 Q341.273 588.434 341.273 585.309 Q341.273 582.207 339.49 580.517 Q337.708 578.827 334.444 578.827 L328.564 578.827 M323.888 574.985 L334.444 574.985 Q340.254 574.985 343.217 577.624 Q346.203 580.239 346.203 585.309 Q346.203 590.424 343.217 593.04 Q340.254 595.656 334.444 595.656 L328.564 595.656 L328.564 609.545 L323.888 609.545 L323.888 574.985 Z" fill="#000000" fill-rule="evenodd" fill-opacity="1" /><path clip-path="url(#clip810)" d="
M1406.74 1486.45 L2352.76 1486.45 L2352.76 123.472 L1406.74 123.472  Z
  " fill="#ffffff" fill-rule="evenodd" fill-opacity="1"/>
<defs>
  <clipPath id="clip813">
    <rect x="1406" y="123" width="947" height="1364"/>
  </clipPath>
</defs>
<polyline clip-path="url(#clip813)" style="stroke:#000000; stroke-width:2; stroke-opacity:0.1; fill:none" points="
  1550.55,1486.45 1550.55,123.472 
  "/>
<polyline clip-path="url(#clip813)" style="stroke:#000000; stroke-width:2; stroke-opacity:0.1; fill:none" points="
  1897.83,1486.45 1897.83,123.472 
  "/>
<polyline clip-path="url(#clip813)" style="stroke:#000000; stroke-width:2; stroke-opacity:0.1; fill:none" points="
  2246.06,1486.45 2246.06,123.472 
  "/>
<polyline clip-path="url(#clip810)" style="stroke:#000000; stroke-width:4; stroke-opacity:1; fill:none" points="
  1406.74,1486.45 2352.76,1486.45 
  "/>
<polyline clip-path="url(#clip810)" style="stroke:#000000; stroke-width:4; stroke-opacity:1; fill:none" points="
  1550.55,1486.45 1550.55,1470.09 
  "/>
<polyline clip-path="url(#clip810)" style="stroke:#000000; stroke-width:4; stroke-opacity:1; fill:none" points="
  1897.83,1486.45 1897.83,1470.09 
  "/>
<polyline clip-path="url(#clip810)" style="stroke:#000000; stroke-width:4; stroke-opacity:1; fill:none" points="
  2246.06,1486.45 2246.06,1470.09 
  "/>
<path clip-path="url(#clip810)" d="M 0 0 M1437.79 1543.18 L1454.11 1543.18 L1454.11 1547.12 L1432.17 1547.12 L1432.17 1543.18 Q1434.83 1540.43 1439.41 1535.8 Q1444.02 1531.15 1445.2 1529.81 Q1447.44 1527.28 1448.32 1525.55 Q1449.23 1523.79 1449.23 1522.1 Q1449.23 1519.34 1447.28 1517.61 Q1445.36 1515.87 1442.26 1515.87 Q1440.06 1515.87 1437.61 1516.63 Q1435.18 1517.4 1432.4 1518.95 L1432.4 1514.23 Q1435.22 1513.09 1437.68 1512.51 Q1440.13 1511.93 1442.17 1511.93 Q1447.54 1511.93 1450.73 1514.62 Q1453.93 1517.31 1453.93 1521.8 Q1453.93 1523.93 1453.12 1525.85 Q1452.33 1527.74 1450.22 1530.34 Q1449.64 1531.01 1446.54 1534.23 Q1443.44 1537.42 1437.79 1543.18 Z" fill="#000000" fill-rule="evenodd" fill-opacity="1" /><path clip-path="url(#clip810)" d="M 0 0 M1469.18 1515.64 Q1465.57 1515.64 1463.74 1519.2 Q1461.94 1522.75 1461.94 1529.87 Q1461.94 1536.98 1463.74 1540.55 Q1465.57 1544.09 1469.18 1544.09 Q1472.81 1544.09 1474.62 1540.55 Q1476.45 1536.98 1476.45 1529.87 Q1476.45 1522.75 1474.62 1519.2 Q1472.81 1515.64 1469.18 1515.64 M1469.18 1511.93 Q1474.99 1511.93 1478.05 1516.54 Q1481.12 1521.12 1481.12 1529.87 Q1481.12 1538.6 1478.05 1543.21 Q1474.99 1547.79 1469.18 1547.79 Q1463.37 1547.79 1460.29 1543.21 Q1457.24 1538.6 1457.24 1529.87 Q1457.24 1521.12 1460.29 1516.54 Q1463.37 1511.93 1469.18 1511.93 Z" fill="#000000" fill-rule="evenodd" fill-opacity="1" /><path clip-path="url(#clip810)" d="M 0 0 M1487 1543.18 L1494.64 1543.18 L1494.64 1516.82 L1486.33 1518.49 L1486.33 1514.23 L1494.6 1512.56 L1499.27 1512.56 L1499.27 1543.18 L1506.91 1543.18 L1506.91 1547.12 L1487 1547.12 L1487 1543.18 Z" fill="#000000" fill-rule="evenodd" fill-opacity="1" /><path clip-path="url(#clip810)" d="M 0 0 M1512.12 1546.4 L1512.12 1542.14 Q1513.88 1542.98 1515.68 1543.42 Q1517.49 1543.86 1519.23 1543.86 Q1523.86 1543.86 1526.29 1540.75 Q1528.74 1537.63 1529.09 1531.29 Q1527.74 1533.28 1525.68 1534.34 Q1523.62 1535.41 1521.12 1535.41 Q1515.94 1535.41 1512.91 1532.28 Q1509.9 1529.13 1509.9 1523.69 Q1509.9 1518.37 1513.05 1515.15 Q1516.19 1511.93 1521.43 1511.93 Q1527.42 1511.93 1530.57 1516.54 Q1533.74 1521.12 1533.74 1529.87 Q1533.74 1538.05 1529.85 1542.93 Q1525.99 1547.79 1519.43 1547.79 Q1517.68 1547.79 1515.87 1547.44 Q1514.06 1547.1 1512.12 1546.4 M1521.43 1531.75 Q1524.57 1531.75 1526.4 1529.6 Q1528.25 1527.44 1528.25 1523.69 Q1528.25 1519.97 1526.4 1517.81 Q1524.57 1515.64 1521.43 1515.64 Q1518.28 1515.64 1516.43 1517.81 Q1514.6 1519.97 1514.6 1523.69 Q1514.6 1527.44 1516.43 1529.6 Q1518.28 1531.75 1521.43 1531.75 Z" fill="#000000" fill-rule="evenodd" fill-opacity="1" /><path clip-path="url(#clip810)" d="M 0 0 M1536.05 1532.24 L1548.53 1532.24 L1548.53 1536.03 L1536.05 1536.03 L1536.05 1532.24 Z" fill="#000000" fill-rule="evenodd" fill-opacity="1" /><path clip-path="url(#clip810)" d="M 0 0 M1563.6 1515.64 Q1559.99 1515.64 1558.16 1519.2 Q1556.36 1522.75 1556.36 1529.87 Q1556.36 1536.98 1558.16 1540.55 Q1559.99 1544.09 1563.6 1544.09 Q1567.24 1544.09 1569.04 1540.55 Q1570.87 1536.98 1570.87 1529.87 Q1570.87 1522.75 1569.04 1519.2 Q1567.24 1515.64 1563.6 1515.64 M1563.6 1511.93 Q1569.41 1511.93 1572.47 1516.54 Q1575.55 1521.12 1575.55 1529.87 Q1575.55 1538.6 1572.47 1543.21 Q1569.41 1547.79 1563.6 1547.79 Q1557.79 1547.79 1554.71 1543.21 Q1551.66 1538.6 1551.66 1529.87 Q1551.66 1521.12 1554.71 1516.54 Q1557.79 1511.93 1563.6 1511.93 Z" fill="#000000" fill-rule="evenodd" fill-opacity="1" /><path clip-path="url(#clip810)" d="M 0 0 M1581.43 1543.18 L1589.06 1543.18 L1589.06 1516.82 L1580.75 1518.49 L1580.75 1514.23 L1589.02 1512.56 L1593.69 1512.56 L1593.69 1543.18 L1601.33 1543.18 L1601.33 1547.12 L1581.43 1547.12 L1581.43 1543.18 Z" fill="#000000" fill-rule="evenodd" fill-opacity="1" /><path clip-path="url(#clip810)" d="M 0 0 M1603.65 1532.24 L1616.12 1532.24 L1616.12 1536.03 L1603.65 1536.03 L1603.65 1532.24 Z" fill="#000000" fill-rule="evenodd" fill-opacity="1" /><path clip-path="url(#clip810)" d="M 0 0 M1631.19 1515.64 Q1627.58 1515.64 1625.75 1519.2 Q1623.95 1522.75 1623.95 1529.87 Q1623.95 1536.98 1625.75 1540.55 Q1627.58 1544.09 1631.19 1544.09 Q1634.83 1544.09 1636.63 1540.55 Q1638.46 1536.98 1638.46 1529.87 Q1638.46 1522.75 1636.63 1519.2 Q1634.83 1515.64 1631.19 1515.64 M1631.19 1511.93 Q1637 1511.93 1640.06 1516.54 Q1643.14 1521.12 1643.14 1529.87 Q1643.14 1538.6 1640.06 1543.21 Q1637 1547.79 1631.19 1547.79 Q1625.38 1547.79 1622.3 1543.21 Q1619.25 1538.6 1619.25 1529.87 Q1619.25 1521.12 1622.3 1516.54 Q1625.38 1511.93 1631.19 1511.93 Z" fill="#000000" fill-rule="evenodd" fill-opacity="1" /><path clip-path="url(#clip810)" d="M 0 0 M1649.02 1543.18 L1656.66 1543.18 L1656.66 1516.82 L1648.35 1518.49 L1648.35 1514.23 L1656.61 1512.56 L1661.29 1512.56 L1661.29 1543.18 L1668.92 1543.18 L1668.92 1547.12 L1649.02 1547.12 L1649.02 1543.18 Z" fill="#000000" fill-rule="evenodd" fill-opacity="1" /><path clip-path="url(#clip810)" d="M 0 0 M1785.17 1543.18 L1801.48 1543.18 L1801.48 1547.12 L1779.54 1547.12 L1779.54 1543.18 Q1782.2 1540.43 1786.79 1535.8 Q1791.39 1531.15 1792.57 1529.81 Q1794.82 1527.28 1795.7 1525.55 Q1796.6 1523.79 1796.6 1522.1 Q1796.6 1519.34 1794.66 1517.61 Q1792.73 1515.87 1789.63 1515.87 Q1787.43 1515.87 1784.98 1516.63 Q1782.55 1517.4 1779.77 1518.95 L1779.77 1514.23 Q1782.6 1513.09 1785.05 1512.51 Q1787.5 1511.93 1789.54 1511.93 Q1794.91 1511.93 1798.11 1514.62 Q1801.3 1517.31 1801.3 1521.8 Q1801.3 1523.93 1800.49 1525.85 Q1799.7 1527.74 1797.6 1530.34 Q1797.02 1531.01 1793.92 1534.23 Q1790.81 1537.42 1785.17 1543.18 Z" fill="#000000" fill-rule="evenodd" fill-opacity="1" /><path clip-path="url(#clip810)" d="M 0 0 M1816.55 1515.64 Q1812.94 1515.64 1811.11 1519.2 Q1809.31 1522.75 1809.31 1529.87 Q1809.31 1536.98 1811.11 1540.55 Q1812.94 1544.09 1816.55 1544.09 Q1820.19 1544.09 1821.99 1540.55 Q1823.82 1536.98 1823.82 1529.87 Q1823.82 1522.75 1821.99 1519.2 Q1820.19 1515.64 1816.55 1515.64 M1816.55 1511.93 Q1822.36 1511.93 1825.42 1516.54 Q1828.5 1521.12 1828.5 1529.87 Q1828.5 1538.6 1825.42 1543.21 Q1822.36 1547.79 1816.55 1547.79 Q1810.74 1547.79 1807.67 1543.21 Q1804.61 1538.6 1804.61 1529.87 Q1804.61 1521.12 1807.67 1516.54 Q1810.74 1511.93 1816.55 1511.93 Z" fill="#000000" fill-rule="evenodd" fill-opacity="1" /><path clip-path="url(#clip810)" d="M 0 0 M1837.6 1543.18 L1853.92 1543.18 L1853.92 1547.12 L1831.97 1547.12 L1831.97 1543.18 Q1834.63 1540.43 1839.22 1535.8 Q1843.82 1531.15 1845 1529.81 Q1847.25 1527.28 1848.13 1525.55 Q1849.03 1523.79 1849.03 1522.1 Q1849.03 1519.34 1847.09 1517.61 Q1845.17 1515.87 1842.06 1515.87 Q1839.86 1515.87 1837.41 1516.63 Q1834.98 1517.4 1832.2 1518.95 L1832.2 1514.23 Q1835.03 1513.09 1837.48 1512.51 Q1839.93 1511.93 1841.97 1511.93 Q1847.34 1511.93 1850.54 1514.62 Q1853.73 1517.31 1853.73 1521.8 Q1853.73 1523.93 1852.92 1525.85 Q1852.13 1527.74 1850.03 1530.34 Q1849.45 1531.01 1846.35 1534.23 Q1843.24 1537.42 1837.6 1543.18 Z" fill="#000000" fill-rule="evenodd" fill-opacity="1" /><path clip-path="url(#clip810)" d="M 0 0 M1868.98 1515.64 Q1865.37 1515.64 1863.54 1519.2 Q1861.74 1522.75 1861.74 1529.87 Q1861.74 1536.98 1863.54 1540.55 Q1865.37 1544.09 1868.98 1544.09 Q1872.62 1544.09 1874.42 1540.55 Q1876.25 1536.98 1876.25 1529.87 Q1876.25 1522.75 1874.42 1519.2 Q1872.62 1515.64 1868.98 1515.64 M1868.98 1511.93 Q1874.79 1511.93 1877.85 1516.54 Q1880.93 1521.12 1880.93 1529.87 Q1880.93 1538.6 1877.85 1543.21 Q1874.79 1547.79 1868.98 1547.79 Q1863.17 1547.79 1860.1 1543.21 Q1857.04 1538.6 1857.04 1529.87 Q1857.04 1521.12 1860.1 1516.54 Q1863.17 1511.93 1868.98 1511.93 Z" fill="#000000" fill-rule="evenodd" fill-opacity="1" /><path clip-path="url(#clip810)" d="M 0 0 M1883.24 1532.24 L1895.72 1532.24 L1895.72 1536.03 L1883.24 1536.03 L1883.24 1532.24 Z" fill="#000000" fill-rule="evenodd" fill-opacity="1" /><path clip-path="url(#clip810)" d="M 0 0 M1910.79 1515.64 Q1907.18 1515.64 1905.35 1519.2 Q1903.54 1522.75 1903.54 1529.87 Q1903.54 1536.98 1905.35 1540.55 Q1907.18 1544.09 1910.79 1544.09 Q1914.42 1544.09 1916.23 1540.55 Q1918.06 1536.98 1918.06 1529.87 Q1918.06 1522.75 1916.23 1519.2 Q1914.42 1515.64 1910.79 1515.64 M1910.79 1511.93 Q1916.6 1511.93 1919.66 1516.54 Q1922.73 1521.12 1922.73 1529.87 Q1922.73 1538.6 1919.66 1543.21 Q1916.6 1547.79 1910.79 1547.79 Q1904.98 1547.79 1901.9 1543.21 Q1898.85 1538.6 1898.85 1529.87 Q1898.85 1521.12 1901.9 1516.54 Q1904.98 1511.93 1910.79 1511.93 Z" fill="#000000" fill-rule="evenodd" fill-opacity="1" /><path clip-path="url(#clip810)" d="M 0 0 M1928.61 1543.18 L1936.25 1543.18 L1936.25 1516.82 L1927.94 1518.49 L1927.94 1514.23 L1936.21 1512.56 L1940.88 1512.56 L1940.88 1543.18 L1948.52 1543.18 L1948.52 1547.12 L1928.61 1547.12 L1928.61 1543.18 Z" fill="#000000" fill-rule="evenodd" fill-opacity="1" /><path clip-path="url(#clip810)" d="M 0 0 M1950.84 1532.24 L1963.31 1532.24 L1963.31 1536.03 L1950.84 1536.03 L1950.84 1532.24 Z" fill="#000000" fill-rule="evenodd" fill-opacity="1" /><path clip-path="url(#clip810)" d="M 0 0 M1978.38 1515.64 Q1974.77 1515.64 1972.94 1519.2 Q1971.14 1522.75 1971.14 1529.87 Q1971.14 1536.98 1972.94 1540.55 Q1974.77 1544.09 1978.38 1544.09 Q1982.02 1544.09 1983.82 1540.55 Q1985.65 1536.98 1985.65 1529.87 Q1985.65 1522.75 1983.82 1519.2 Q1982.02 1515.64 1978.38 1515.64 M1978.38 1511.93 Q1984.19 1511.93 1987.25 1516.54 Q1990.33 1521.12 1990.33 1529.87 Q1990.33 1538.6 1987.25 1543.21 Q1984.19 1547.79 1978.38 1547.79 Q1972.57 1547.79 1969.49 1543.21 Q1966.44 1538.6 1966.44 1529.87 Q1966.44 1521.12 1969.49 1516.54 Q1972.57 1511.93 1978.38 1511.93 Z" fill="#000000" fill-rule="evenodd" fill-opacity="1" /><path clip-path="url(#clip810)" d="M 0 0 M1996.21 1543.18 L2003.84 1543.18 L2003.84 1516.82 L1995.53 1518.49 L1995.53 1514.23 L2003.8 1512.56 L2008.47 1512.56 L2008.47 1543.18 L2016.11 1543.18 L2016.11 1547.12 L1996.21 1547.12 L1996.21 1543.18 Z" fill="#000000" fill-rule="evenodd" fill-opacity="1" /><path clip-path="url(#clip810)" d="M 0 0 M2134.01 1543.18 L2150.33 1543.18 L2150.33 1547.12 L2128.39 1547.12 L2128.39 1543.18 Q2131.05 1540.43 2135.63 1535.8 Q2140.24 1531.15 2141.42 1529.81 Q2143.66 1527.28 2144.54 1525.55 Q2145.45 1523.79 2145.45 1522.1 Q2145.45 1519.34 2143.5 1517.61 Q2141.58 1515.87 2138.48 1515.87 Q2136.28 1515.87 2133.83 1516.63 Q2131.4 1517.4 2128.62 1518.95 L2128.62 1514.23 Q2131.44 1513.09 2133.9 1512.51 Q2136.35 1511.93 2138.39 1511.93 Q2143.76 1511.93 2146.95 1514.62 Q2150.15 1517.31 2150.15 1521.8 Q2150.15 1523.93 2149.34 1525.85 Q2148.55 1527.74 2146.44 1530.34 Q2145.86 1531.01 2142.76 1534.23 Q2139.66 1537.42 2134.01 1543.18 Z" fill="#000000" fill-rule="evenodd" fill-opacity="1" /><path clip-path="url(#clip810)" d="M 0 0 M2165.4 1515.64 Q2161.79 1515.64 2159.96 1519.2 Q2158.16 1522.75 2158.16 1529.87 Q2158.16 1536.98 2159.96 1540.55 Q2161.79 1544.09 2165.4 1544.09 Q2169.03 1544.09 2170.84 1540.55 Q2172.67 1536.98 2172.67 1529.87 Q2172.67 1522.75 2170.84 1519.2 Q2169.03 1515.64 2165.4 1515.64 M2165.4 1511.93 Q2171.21 1511.93 2174.27 1516.54 Q2177.34 1521.12 2177.34 1529.87 Q2177.34 1538.6 2174.27 1543.21 Q2171.21 1547.79 2165.4 1547.79 Q2159.59 1547.79 2156.51 1543.21 Q2153.46 1538.6 2153.46 1529.87 Q2153.46 1521.12 2156.51 1516.54 Q2159.59 1511.93 2165.4 1511.93 Z" fill="#000000" fill-rule="evenodd" fill-opacity="1" /><path clip-path="url(#clip810)" d="M 0 0 M2186.44 1543.18 L2202.76 1543.18 L2202.76 1547.12 L2180.82 1547.12 L2180.82 1543.18 Q2183.48 1540.43 2188.06 1535.8 Q2192.67 1531.15 2193.85 1529.81 Q2196.09 1527.28 2196.97 1525.55 Q2197.88 1523.79 2197.88 1522.1 Q2197.88 1519.34 2195.93 1517.61 Q2194.01 1515.87 2190.91 1515.87 Q2188.71 1515.87 2186.26 1516.63 Q2183.83 1517.4 2181.05 1518.95 L2181.05 1514.23 Q2183.87 1513.09 2186.33 1512.51 Q2188.78 1511.93 2190.82 1511.93 Q2196.19 1511.93 2199.38 1514.62 Q2202.58 1517.31 2202.58 1521.8 Q2202.58 1523.93 2201.77 1525.85 Q2200.98 1527.74 2198.87 1530.34 Q2198.29 1531.01 2195.19 1534.23 Q2192.09 1537.42 2186.44 1543.18 Z" fill="#000000" fill-rule="evenodd" fill-opacity="1" /><path clip-path="url(#clip810)" d="M 0 0 M2208.64 1543.18 L2216.28 1543.18 L2216.28 1516.82 L2207.97 1518.49 L2207.97 1514.23 L2216.23 1512.56 L2220.91 1512.56 L2220.91 1543.18 L2228.55 1543.18 L2228.55 1547.12 L2208.64 1547.12 L2208.64 1543.18 Z" fill="#000000" fill-rule="evenodd" fill-opacity="1" /><path clip-path="url(#clip810)" d="M 0 0 M2230.86 1532.24 L2243.34 1532.24 L2243.34 1536.03 L2230.86 1536.03 L2230.86 1532.24 Z" fill="#000000" fill-rule="evenodd" fill-opacity="1" /><path clip-path="url(#clip810)" d="M 0 0 M2258.41 1515.64 Q2254.8 1515.64 2252.97 1519.2 Q2251.16 1522.75 2251.16 1529.87 Q2251.16 1536.98 2252.97 1540.55 Q2254.8 1544.09 2258.41 1544.09 Q2262.04 1544.09 2263.85 1540.55 Q2265.68 1536.98 2265.68 1529.87 Q2265.68 1522.75 2263.85 1519.2 Q2262.04 1515.64 2258.41 1515.64 M2258.41 1511.93 Q2264.22 1511.93 2267.27 1516.54 Q2270.35 1521.12 2270.35 1529.87 Q2270.35 1538.6 2267.27 1543.21 Q2264.22 1547.79 2258.41 1547.79 Q2252.6 1547.79 2249.52 1543.21 Q2246.46 1538.6 2246.46 1529.87 Q2246.46 1521.12 2249.52 1516.54 Q2252.6 1511.93 2258.41 1511.93 Z" fill="#000000" fill-rule="evenodd" fill-opacity="1" /><path clip-path="url(#clip810)" d="M 0 0 M2276.23 1543.18 L2283.87 1543.18 L2283.87 1516.82 L2275.56 1518.49 L2275.56 1514.23 L2283.83 1512.56 L2288.5 1512.56 L2288.5 1543.18 L2296.14 1543.18 L2296.14 1547.12 L2276.23 1547.12 L2276.23 1543.18 Z" fill="#000000" fill-rule="evenodd" fill-opacity="1" /><path clip-path="url(#clip810)" d="M 0 0 M2298.46 1532.24 L2310.93 1532.24 L2310.93 1536.03 L2298.46 1536.03 L2298.46 1532.24 Z" fill="#000000" fill-rule="evenodd" fill-opacity="1" /><path clip-path="url(#clip810)" d="M 0 0 M2326 1515.64 Q2322.39 1515.64 2320.56 1519.2 Q2318.76 1522.75 2318.76 1529.87 Q2318.76 1536.98 2320.56 1540.55 Q2322.39 1544.09 2326 1544.09 Q2329.64 1544.09 2331.44 1540.55 Q2333.27 1536.98 2333.27 1529.87 Q2333.27 1522.75 2331.44 1519.2 Q2329.64 1515.64 2326 1515.64 M2326 1511.93 Q2331.81 1511.93 2334.87 1516.54 Q2337.95 1521.12 2337.95 1529.87 Q2337.95 1538.6 2334.87 1543.21 Q2331.81 1547.79 2326 1547.79 Q2320.19 1547.79 2317.11 1543.21 Q2314.06 1538.6 2314.06 1529.87 Q2314.06 1521.12 2317.11 1516.54 Q2320.19 1511.93 2326 1511.93 Z" fill="#000000" fill-rule="evenodd" fill-opacity="1" /><path clip-path="url(#clip810)" d="M 0 0 M2343.83 1543.18 L2351.46 1543.18 L2351.46 1516.82 L2343.15 1518.49 L2343.15 1514.23 L2351.42 1512.56 L2356.09 1512.56 L2356.09 1543.18 L2363.73 1543.18 L2363.73 1547.12 L2343.83 1547.12 L2343.83 1543.18 Z" fill="#000000" fill-rule="evenodd" fill-opacity="1" /><polyline clip-path="url(#clip813)" style="stroke:#000000; stroke-width:2; stroke-opacity:0.1; fill:none" points="
  1406.74,1447.9 2352.76,1447.9 
  "/>
<polyline clip-path="url(#clip813)" style="stroke:#000000; stroke-width:2; stroke-opacity:0.1; fill:none" points="
  1406.74,1165.16 2352.76,1165.16 
  "/>
<polyline clip-path="url(#clip813)" style="stroke:#000000; stroke-width:2; stroke-opacity:0.1; fill:none" points="
  1406.74,882.418 2352.76,882.418 
  "/>
<polyline clip-path="url(#clip813)" style="stroke:#000000; stroke-width:2; stroke-opacity:0.1; fill:none" points="
  1406.74,599.678 2352.76,599.678 
  "/>
<polyline clip-path="url(#clip813)" style="stroke:#000000; stroke-width:2; stroke-opacity:0.1; fill:none" points="
  1406.74,316.938 2352.76,316.938 
  "/>
<polyline clip-path="url(#clip810)" style="stroke:#000000; stroke-width:4; stroke-opacity:1; fill:none" points="
  1406.74,1486.45 1406.74,123.472 
  "/>
<polyline clip-path="url(#clip810)" style="stroke:#000000; stroke-width:4; stroke-opacity:1; fill:none" points="
  1406.74,1447.9 1418.09,1447.9 
  "/>
<polyline clip-path="url(#clip810)" style="stroke:#000000; stroke-width:4; stroke-opacity:1; fill:none" points="
  1406.74,1165.16 1418.09,1165.16 
  "/>
<polyline clip-path="url(#clip810)" style="stroke:#000000; stroke-width:4; stroke-opacity:1; fill:none" points="
  1406.74,882.418 1418.09,882.418 
  "/>
<polyline clip-path="url(#clip810)" style="stroke:#000000; stroke-width:4; stroke-opacity:1; fill:none" points="
  1406.74,599.678 1418.09,599.678 
  "/>
<polyline clip-path="url(#clip810)" style="stroke:#000000; stroke-width:4; stroke-opacity:1; fill:none" points="
  1406.74,316.938 1418.09,316.938 
  "/>
<path clip-path="url(#clip810)" d="M 0 0 M1358.8 1433.7 Q1355.19 1433.7 1353.36 1437.26 Q1351.55 1440.8 1351.55 1447.93 Q1351.55 1455.04 1353.36 1458.6 Q1355.19 1462.15 1358.8 1462.15 Q1362.43 1462.15 1364.24 1458.6 Q1366.07 1455.04 1366.07 1447.93 Q1366.07 1440.8 1364.24 1437.26 Q1362.43 1433.7 1358.8 1433.7 M1358.8 1429.99 Q1364.61 1429.99 1367.66 1434.6 Q1370.74 1439.18 1370.74 1447.93 Q1370.74 1456.66 1367.66 1461.27 Q1364.61 1465.85 1358.8 1465.85 Q1352.99 1465.85 1349.91 1461.27 Q1346.85 1456.66 1346.85 1447.93 Q1346.85 1439.18 1349.91 1434.6 Q1352.99 1429.99 1358.8 1429.99 Z" fill="#000000" fill-rule="evenodd" fill-opacity="1" /><path clip-path="url(#clip810)" d="M 0 0 M1193.74 1184.95 L1210.06 1184.95 L1210.06 1188.89 L1188.12 1188.89 L1188.12 1184.95 Q1190.78 1182.2 1195.36 1177.57 Q1199.97 1172.91 1201.15 1171.57 Q1203.39 1169.05 1204.27 1167.31 Q1205.18 1165.55 1205.18 1163.86 Q1205.18 1161.11 1203.23 1159.37 Q1201.31 1157.64 1198.21 1157.64 Q1196.01 1157.64 1193.56 1158.4 Q1191.13 1159.16 1188.35 1160.71 L1188.35 1155.99 Q1191.17 1154.86 1193.63 1154.28 Q1196.08 1153.7 1198.12 1153.7 Q1203.49 1153.7 1206.68 1156.39 Q1209.88 1159.07 1209.88 1163.56 Q1209.88 1165.69 1209.07 1167.61 Q1208.28 1169.51 1206.17 1172.1 Q1205.59 1172.77 1202.49 1175.99 Q1199.39 1179.19 1193.74 1184.95 Z" fill="#000000" fill-rule="evenodd" fill-opacity="1" /><path clip-path="url(#clip810)" d="M 0 0 M1215.13 1183.01 L1220.01 1183.01 L1220.01 1188.89 L1215.13 1188.89 L1215.13 1183.01 Z" fill="#000000" fill-rule="evenodd" fill-opacity="1" /><path clip-path="url(#clip810)" d="M 0 0 M1225.13 1154.33 L1243.49 1154.33 L1243.49 1158.26 L1229.41 1158.26 L1229.41 1166.73 Q1230.43 1166.39 1231.45 1166.22 Q1232.47 1166.04 1233.49 1166.04 Q1239.27 1166.04 1242.65 1169.21 Q1246.03 1172.38 1246.03 1177.8 Q1246.03 1183.38 1242.56 1186.48 Q1239.09 1189.56 1232.77 1189.56 Q1230.59 1189.56 1228.32 1189.19 Q1226.08 1188.82 1223.67 1188.08 L1223.67 1183.38 Q1225.75 1184.51 1227.98 1185.07 Q1230.2 1185.62 1232.68 1185.62 Q1236.68 1185.62 1239.02 1183.52 Q1241.36 1181.41 1241.36 1177.8 Q1241.36 1174.19 1239.02 1172.08 Q1236.68 1169.97 1232.68 1169.97 Q1230.8 1169.97 1228.93 1170.39 Q1227.07 1170.81 1225.13 1171.69 L1225.13 1154.33 Z" fill="#000000" fill-rule="evenodd" fill-opacity="1" /><path clip-path="url(#clip810)" d="M 0 0 M1279.27 1163.42 L1268.69 1174.05 L1279.27 1184.63 L1276.52 1187.43 L1265.89 1176.8 L1255.27 1187.43 L1252.54 1184.63 L1263.09 1174.05 L1252.54 1163.42 L1255.27 1160.62 L1265.89 1171.25 L1276.52 1160.62 L1279.27 1163.42 Z" fill="#000000" fill-rule="evenodd" fill-opacity="1" /><path clip-path="url(#clip810)" d="M 0 0 M1285.15 1184.95 L1292.79 1184.95 L1292.79 1158.59 L1284.48 1160.25 L1284.48 1155.99 L1292.75 1154.33 L1297.42 1154.33 L1297.42 1184.95 L1305.06 1184.95 L1305.06 1188.89 L1285.15 1188.89 L1285.15 1184.95 Z" fill="#000000" fill-rule="evenodd" fill-opacity="1" /><path clip-path="url(#clip810)" d="M 0 0 M1320.13 1157.4 Q1316.52 1157.4 1314.69 1160.97 Q1312.88 1164.51 1312.88 1171.64 Q1312.88 1178.75 1314.69 1182.31 Q1316.52 1185.85 1320.13 1185.85 Q1323.76 1185.85 1325.57 1182.31 Q1327.4 1178.75 1327.4 1171.64 Q1327.4 1164.51 1325.57 1160.97 Q1323.76 1157.4 1320.13 1157.4 M1320.13 1153.7 Q1325.94 1153.7 1329 1158.31 Q1332.07 1162.89 1332.07 1171.64 Q1332.07 1180.37 1329 1184.97 Q1325.94 1189.56 1320.13 1189.56 Q1314.32 1189.56 1311.24 1184.97 Q1308.19 1180.37 1308.19 1171.64 Q1308.19 1162.89 1311.24 1158.31 Q1314.32 1153.7 1320.13 1153.7 Z" fill="#000000" fill-rule="evenodd" fill-opacity="1" /><path clip-path="url(#clip810)" d="M 0 0 M1332.62 1158.28 L1338.83 1158.28 L1338.83 1136.86 L1332.07 1138.21 L1332.07 1134.75 L1338.79 1133.4 L1342.59 1133.4 L1342.59 1158.28 L1348.79 1158.28 L1348.79 1161.48 L1332.62 1161.48 L1332.62 1158.28 Z" fill="#000000" fill-rule="evenodd" fill-opacity="1" /><path clip-path="url(#clip810)" d="M 0 0 M1361.04 1135.9 Q1358.1 1135.9 1356.62 1138.79 Q1355.15 1141.67 1355.15 1147.46 Q1355.15 1153.24 1356.62 1156.13 Q1358.1 1159.01 1361.04 1159.01 Q1363.99 1159.01 1365.46 1156.13 Q1366.94 1153.24 1366.94 1147.46 Q1366.94 1141.67 1365.46 1138.79 Q1363.99 1135.9 1361.04 1135.9 M1361.04 1132.89 Q1365.76 1132.89 1368.24 1136.63 Q1370.74 1140.35 1370.74 1147.46 Q1370.74 1154.55 1368.24 1158.3 Q1365.76 1162.02 1361.04 1162.02 Q1356.32 1162.02 1353.82 1158.3 Q1351.33 1154.55 1351.33 1147.46 Q1351.33 1140.35 1353.82 1136.63 Q1356.32 1132.89 1361.04 1132.89 Z" fill="#000000" fill-rule="evenodd" fill-opacity="1" /><path clip-path="url(#clip810)" d="M 0 0 M1188.16 871.586 L1206.52 871.586 L1206.52 875.521 L1192.44 875.521 L1192.44 883.993 Q1193.46 883.646 1194.48 883.484 Q1195.5 883.299 1196.52 883.299 Q1202.31 883.299 1205.69 886.47 Q1209.07 889.641 1209.07 895.058 Q1209.07 900.637 1205.59 903.738 Q1202.12 906.817 1195.8 906.817 Q1193.63 906.817 1191.36 906.447 Q1189.11 906.076 1186.7 905.336 L1186.7 900.637 Q1188.79 901.771 1191.01 902.326 Q1193.23 902.882 1195.71 902.882 Q1199.71 902.882 1202.05 900.775 Q1204.39 898.669 1204.39 895.058 Q1204.39 891.447 1202.05 889.34 Q1199.71 887.234 1195.71 887.234 Q1193.83 887.234 1191.96 887.651 Q1190.11 888.067 1188.16 888.947 L1188.16 871.586 Z" fill="#000000" fill-rule="evenodd" fill-opacity="1" /><path clip-path="url(#clip810)" d="M 0 0 M1214.13 900.266 L1219.02 900.266 L1219.02 906.146 L1214.13 906.146 L1214.13 900.266 Z" fill="#000000" fill-rule="evenodd" fill-opacity="1" /><path clip-path="url(#clip810)" d="M 0 0 M1234.09 874.664 Q1230.48 874.664 1228.65 878.229 Q1226.84 881.771 1226.84 888.901 Q1226.84 896.007 1228.65 899.572 Q1230.48 903.113 1234.09 903.113 Q1237.72 903.113 1239.53 899.572 Q1241.36 896.007 1241.36 888.901 Q1241.36 881.771 1239.53 878.229 Q1237.72 874.664 1234.09 874.664 M1234.09 870.961 Q1239.9 870.961 1242.95 875.567 Q1246.03 880.151 1246.03 888.901 Q1246.03 897.627 1242.95 902.234 Q1239.9 906.817 1234.09 906.817 Q1228.28 906.817 1225.2 902.234 Q1222.14 897.627 1222.14 888.901 Q1222.14 880.151 1225.2 875.567 Q1228.28 870.961 1234.09 870.961 Z" fill="#000000" fill-rule="evenodd" fill-opacity="1" /><path clip-path="url(#clip810)" d="M 0 0 M1279.27 880.683 L1268.69 891.308 L1279.27 901.887 L1276.52 904.687 L1265.89 894.063 L1255.27 904.687 L1252.54 901.887 L1263.09 891.308 L1252.54 880.683 L1255.27 877.882 L1265.89 888.507 L1276.52 877.882 L1279.27 880.683 Z" fill="#000000" fill-rule="evenodd" fill-opacity="1" /><path clip-path="url(#clip810)" d="M 0 0 M1285.15 902.211 L1292.79 902.211 L1292.79 875.845 L1284.48 877.512 L1284.48 873.252 L1292.75 871.586 L1297.42 871.586 L1297.42 902.211 L1305.06 902.211 L1305.06 906.146 L1285.15 906.146 L1285.15 902.211 Z" fill="#000000" fill-rule="evenodd" fill-opacity="1" /><path clip-path="url(#clip810)" d="M 0 0 M1320.13 874.664 Q1316.52 874.664 1314.69 878.229 Q1312.88 881.771 1312.88 888.901 Q1312.88 896.007 1314.69 899.572 Q1316.52 903.113 1320.13 903.113 Q1323.76 903.113 1325.57 899.572 Q1327.4 896.007 1327.4 888.901 Q1327.4 881.771 1325.57 878.229 Q1323.76 874.664 1320.13 874.664 M1320.13 870.961 Q1325.94 870.961 1329 875.567 Q1332.07 880.151 1332.07 888.901 Q1332.07 897.627 1329 902.234 Q1325.94 906.817 1320.13 906.817 Q1314.32 906.817 1311.24 902.234 Q1308.19 897.627 1308.19 888.901 Q1308.19 880.151 1311.24 875.567 Q1314.32 870.961 1320.13 870.961 Z" fill="#000000" fill-rule="evenodd" fill-opacity="1" /><path clip-path="url(#clip810)" d="M 0 0 M1332.62 875.538 L1338.83 875.538 L1338.83 854.116 L1332.07 855.47 L1332.07 852.01 L1338.79 850.655 L1342.59 850.655 L1342.59 875.538 L1348.79 875.538 L1348.79 878.735 L1332.62 878.735 L1332.62 875.538 Z" fill="#000000" fill-rule="evenodd" fill-opacity="1" /><path clip-path="url(#clip810)" d="M 0 0 M1361.04 853.157 Q1358.1 853.157 1356.62 856.053 Q1355.15 858.931 1355.15 864.724 Q1355.15 870.498 1356.62 873.394 Q1358.1 876.272 1361.04 876.272 Q1363.99 876.272 1365.46 873.394 Q1366.94 870.498 1366.94 864.724 Q1366.94 858.931 1365.46 856.053 Q1363.99 853.157 1361.04 853.157 M1361.04 850.148 Q1365.76 850.148 1368.24 853.89 Q1370.74 857.614 1370.74 864.724 Q1370.74 871.814 1368.24 875.557 Q1365.76 879.281 1361.04 879.281 Q1356.32 879.281 1353.82 875.557 Q1351.33 871.814 1351.33 864.724 Q1351.33 857.614 1353.82 853.89 Q1356.32 850.148 1361.04 850.148 Z" fill="#000000" fill-rule="evenodd" fill-opacity="1" /><path clip-path="url(#clip810)" d="M 0 0 M1187.84 588.846 L1210.06 588.846 L1210.06 590.836 L1197.51 623.406 L1192.63 623.406 L1204.44 592.781 L1187.84 592.781 L1187.84 588.846 Z" fill="#000000" fill-rule="evenodd" fill-opacity="1" /><path clip-path="url(#clip810)" d="M 0 0 M1215.13 617.526 L1220.01 617.526 L1220.01 623.406 L1215.13 623.406 L1215.13 617.526 Z" fill="#000000" fill-rule="evenodd" fill-opacity="1" /><path clip-path="url(#clip810)" d="M 0 0 M1225.13 588.846 L1243.49 588.846 L1243.49 592.781 L1229.41 592.781 L1229.41 601.253 Q1230.43 600.906 1231.45 600.744 Q1232.47 600.559 1233.49 600.559 Q1239.27 600.559 1242.65 603.73 Q1246.03 606.901 1246.03 612.318 Q1246.03 617.896 1242.56 620.998 Q1239.09 624.077 1232.77 624.077 Q1230.59 624.077 1228.32 623.707 Q1226.08 623.336 1223.67 622.596 L1223.67 617.896 Q1225.75 619.031 1227.98 619.586 Q1230.2 620.142 1232.68 620.142 Q1236.68 620.142 1239.02 618.035 Q1241.36 615.929 1241.36 612.318 Q1241.36 608.707 1239.02 606.6 Q1236.68 604.494 1232.68 604.494 Q1230.8 604.494 1228.93 604.91 Q1227.07 605.327 1225.13 606.207 L1225.13 588.846 Z" fill="#000000" fill-rule="evenodd" fill-opacity="1" /><path clip-path="url(#clip810)" d="M 0 0 M1279.27 597.943 L1268.69 608.568 L1279.27 619.146 L1276.52 621.947 L1265.89 611.322 L1255.27 621.947 L1252.54 619.146 L1263.09 608.568 L1252.54 597.943 L1255.27 595.142 L1265.89 605.767 L1276.52 595.142 L1279.27 597.943 Z" fill="#000000" fill-rule="evenodd" fill-opacity="1" /><path clip-path="url(#clip810)" d="M 0 0 M1285.15 619.471 L1292.79 619.471 L1292.79 593.105 L1284.48 594.772 L1284.48 590.512 L1292.75 588.846 L1297.42 588.846 L1297.42 619.471 L1305.06 619.471 L1305.06 623.406 L1285.15 623.406 L1285.15 619.471 Z" fill="#000000" fill-rule="evenodd" fill-opacity="1" /><path clip-path="url(#clip810)" d="M 0 0 M1320.13 591.924 Q1316.52 591.924 1314.69 595.489 Q1312.88 599.031 1312.88 606.16 Q1312.88 613.267 1314.69 616.832 Q1316.52 620.373 1320.13 620.373 Q1323.76 620.373 1325.57 616.832 Q1327.4 613.267 1327.4 606.16 Q1327.4 599.031 1325.57 595.489 Q1323.76 591.924 1320.13 591.924 M1320.13 588.221 Q1325.94 588.221 1329 592.827 Q1332.07 597.41 1332.07 606.16 Q1332.07 614.887 1329 619.494 Q1325.94 624.077 1320.13 624.077 Q1314.32 624.077 1311.24 619.494 Q1308.19 614.887 1308.19 606.16 Q1308.19 597.41 1311.24 592.827 Q1314.32 588.221 1320.13 588.221 Z" fill="#000000" fill-rule="evenodd" fill-opacity="1" /><path clip-path="url(#clip810)" d="M 0 0 M1332.62 592.798 L1338.83 592.798 L1338.83 571.376 L1332.07 572.73 L1332.07 569.269 L1338.79 567.915 L1342.59 567.915 L1342.59 592.798 L1348.79 592.798 L1348.79 595.995 L1332.62 595.995 L1332.62 592.798 Z" fill="#000000" fill-rule="evenodd" fill-opacity="1" /><path clip-path="url(#clip810)" d="M 0 0 M1361.04 570.417 Q1358.1 570.417 1356.62 573.313 Q1355.15 576.191 1355.15 581.984 Q1355.15 587.758 1356.62 590.654 Q1358.1 593.531 1361.04 593.531 Q1363.99 593.531 1365.46 590.654 Q1366.94 587.758 1366.94 581.984 Q1366.94 576.191 1365.46 573.313 Q1363.99 570.417 1361.04 570.417 M1361.04 567.408 Q1365.76 567.408 1368.24 571.15 Q1370.74 574.874 1370.74 581.984 Q1370.74 589.074 1368.24 592.817 Q1365.76 596.541 1361.04 596.541 Q1356.32 596.541 1353.82 592.817 Q1351.33 589.074 1351.33 581.984 Q1351.33 574.874 1353.82 571.15 Q1356.32 567.408 1361.04 567.408 Z" fill="#000000" fill-rule="evenodd" fill-opacity="1" /><path clip-path="url(#clip810)" d="M 0 0 M1190.15 336.73 L1197.79 336.73 L1197.79 310.365 L1189.48 312.032 L1189.48 307.772 L1197.75 306.106 L1202.42 306.106 L1202.42 336.73 L1210.06 336.73 L1210.06 340.666 L1190.15 340.666 L1190.15 336.73 Z" fill="#000000" fill-rule="evenodd" fill-opacity="1" /><path clip-path="url(#clip810)" d="M 0 0 M1215.13 334.786 L1220.02 334.786 L1220.02 340.666 L1215.13 340.666 L1215.13 334.786 Z" fill="#000000" fill-rule="evenodd" fill-opacity="1" /><path clip-path="url(#clip810)" d="M 0 0 M1235.09 309.184 Q1231.47 309.184 1229.65 312.749 Q1227.84 316.291 1227.84 323.42 Q1227.84 330.527 1229.65 334.092 Q1231.47 337.633 1235.09 337.633 Q1238.72 337.633 1240.52 334.092 Q1242.35 330.527 1242.35 323.42 Q1242.35 316.291 1240.52 312.749 Q1238.72 309.184 1235.09 309.184 M1235.09 305.481 Q1240.9 305.481 1243.95 310.087 Q1247.03 314.67 1247.03 323.42 Q1247.03 332.147 1243.95 336.754 Q1240.9 341.337 1235.09 341.337 Q1229.27 341.337 1226.2 336.754 Q1223.14 332.147 1223.14 323.42 Q1223.14 314.67 1226.2 310.087 Q1229.27 305.481 1235.09 305.481 Z" fill="#000000" fill-rule="evenodd" fill-opacity="1" /><path clip-path="url(#clip810)" d="M 0 0 M1280.27 315.203 L1269.69 325.828 L1280.27 336.406 L1277.52 339.207 L1266.89 328.582 L1256.27 339.207 L1253.53 336.406 L1264.09 325.828 L1253.53 315.203 L1256.27 312.402 L1266.89 323.027 L1277.52 312.402 L1280.27 315.203 Z" fill="#000000" fill-rule="evenodd" fill-opacity="1" /><path clip-path="url(#clip810)" d="M 0 0 M1286.15 336.73 L1293.79 336.73 L1293.79 310.365 L1285.48 312.032 L1285.48 307.772 L1293.74 306.106 L1298.42 306.106 L1298.42 336.73 L1306.06 336.73 L1306.06 340.666 L1286.15 340.666 L1286.15 336.73 Z" fill="#000000" fill-rule="evenodd" fill-opacity="1" /><path clip-path="url(#clip810)" d="M 0 0 M1321.13 309.184 Q1317.52 309.184 1315.69 312.749 Q1313.88 316.291 1313.88 323.42 Q1313.88 330.527 1315.69 334.092 Q1317.52 337.633 1321.13 337.633 Q1324.76 337.633 1326.57 334.092 Q1328.39 330.527 1328.39 323.42 Q1328.39 316.291 1326.57 312.749 Q1324.76 309.184 1321.13 309.184 M1321.13 305.481 Q1326.94 305.481 1329.99 310.087 Q1333.07 314.67 1333.07 323.42 Q1333.07 332.147 1329.99 336.754 Q1326.94 341.337 1321.13 341.337 Q1315.32 341.337 1312.24 336.754 Q1309.18 332.147 1309.18 323.42 Q1309.18 314.67 1312.24 310.087 Q1315.32 305.481 1321.13 305.481 Z" fill="#000000" fill-rule="evenodd" fill-opacity="1" /><path clip-path="url(#clip810)" d="M 0 0 M1333.62 310.058 L1339.82 310.058 L1339.82 288.636 L1333.07 289.99 L1333.07 286.529 L1339.79 285.175 L1343.58 285.175 L1343.58 310.058 L1349.79 310.058 L1349.79 313.255 L1333.62 313.255 L1333.62 310.058 Z" fill="#000000" fill-rule="evenodd" fill-opacity="1" /><path clip-path="url(#clip810)" d="M 0 0 M1354.57 310.058 L1360.77 310.058 L1360.77 288.636 L1354.02 289.99 L1354.02 286.529 L1360.74 285.175 L1364.54 285.175 L1364.54 310.058 L1370.74 310.058 L1370.74 313.255 L1354.57 313.255 L1354.57 310.058 Z" fill="#000000" fill-rule="evenodd" fill-opacity="1" /><path clip-path="url(#clip810)" d="M 0 0 M1666.75 12.096 L1678.95 12.096 L1694.38 53.2532 L1709.89 12.096 L1722.09 12.096 L1722.09 72.576 L1714.11 72.576 L1714.11 19.4686 L1698.51 60.9499 L1690.29 60.9499 L1674.69 19.4686 L1674.69 72.576 L1666.75 72.576 L1666.75 12.096 Z" fill="#000000" fill-rule="evenodd" fill-opacity="1" /><path clip-path="url(#clip810)" d="M 0 0 M1750.53 49.7694 Q1741.49 49.7694 1738.01 51.8354 Q1734.52 53.9013 1734.52 58.8839 Q1734.52 62.8538 1737.12 65.2034 Q1739.75 67.5124 1744.25 67.5124 Q1750.44 67.5124 1754.17 63.1374 Q1757.94 58.7219 1757.94 51.4303 L1757.94 49.7694 L1750.53 49.7694 M1765.39 46.6907 L1765.39 72.576 L1757.94 72.576 L1757.94 65.6895 Q1755.39 69.8214 1751.58 71.8063 Q1747.77 73.7508 1742.26 73.7508 Q1735.29 73.7508 1731.16 69.8619 Q1727.07 65.9325 1727.07 59.3701 Q1727.07 51.7138 1732.17 47.825 Q1737.32 43.9361 1747.49 43.9361 L1757.94 43.9361 L1757.94 43.2069 Q1757.94 38.0623 1754.54 35.2672 Q1751.17 32.4315 1745.06 32.4315 Q1741.17 32.4315 1737.48 33.3632 Q1733.8 34.295 1730.39 36.1584 L1730.39 29.2718 Q1734.48 27.692 1738.33 26.9223 Q1742.18 26.1121 1745.83 26.1121 Q1755.67 26.1121 1760.53 31.2163 Q1765.39 36.3204 1765.39 46.6907 Z" fill="#000000" fill-rule="evenodd" fill-opacity="1" /><path clip-path="url(#clip810)" d="M 0 0 M1799.5 34.1734 Q1798.25 33.4443 1796.75 33.1202 Q1795.29 32.7556 1793.51 32.7556 Q1787.19 32.7556 1783.78 36.8875 Q1780.42 40.9789 1780.42 48.6757 L1780.42 72.576 L1772.93 72.576 L1772.93 27.2059 L1780.42 27.2059 L1780.42 34.2544 Q1782.77 30.1225 1786.54 28.1376 Q1790.31 26.1121 1795.69 26.1121 Q1796.46 26.1121 1797.39 26.2337 Q1798.33 26.3147 1799.46 26.5172 L1799.5 34.1734 Z" fill="#000000" fill-rule="evenodd" fill-opacity="1" /><path clip-path="url(#clip810)" d="M 0 0 M1807.04 9.54393 L1814.53 9.54393 L1814.53 46.7717 L1836.77 27.2059 L1846.29 27.2059 L1822.23 48.4326 L1847.3 72.576 L1837.58 72.576 L1814.53 50.4176 L1814.53 72.576 L1807.04 72.576 L1807.04 9.54393 Z" fill="#000000" fill-rule="evenodd" fill-opacity="1" /><path clip-path="url(#clip810)" d="M 0 0 M1890.97 48.0275 L1890.97 51.6733 L1856.7 51.6733 Q1857.19 59.3701 1861.32 63.421 Q1865.49 67.4314 1872.9 67.4314 Q1877.2 67.4314 1881.21 66.3781 Q1885.26 65.3249 1889.23 63.2184 L1889.23 70.267 Q1885.22 71.9684 1881.01 72.8596 Q1876.79 73.7508 1872.46 73.7508 Q1861.6 73.7508 1855.24 67.4314 Q1848.92 61.1119 1848.92 50.3365 Q1848.92 39.1965 1854.92 32.6746 Q1860.95 26.1121 1871.16 26.1121 Q1880.32 26.1121 1885.62 32.0264 Q1890.97 37.9003 1890.97 48.0275 M1883.52 45.84 Q1883.44 39.7232 1880.07 36.0774 Q1876.75 32.4315 1871.24 32.4315 Q1865 32.4315 1861.24 35.9558 Q1857.51 39.4801 1856.94 45.8805 L1883.52 45.84 Z" fill="#000000" fill-rule="evenodd" fill-opacity="1" /><path clip-path="url(#clip810)" d="M 0 0 M1906.16 14.324 L1906.16 27.2059 L1921.51 27.2059 L1921.51 32.9987 L1906.16 32.9987 L1906.16 57.6282 Q1906.16 63.1779 1907.66 64.7578 Q1909.2 66.3376 1913.86 66.3376 L1921.51 66.3376 L1921.51 72.576 L1913.86 72.576 Q1905.23 72.576 1901.95 69.3758 Q1898.67 66.1351 1898.67 57.6282 L1898.67 32.9987 L1893.2 32.9987 L1893.2 27.2059 L1898.67 27.2059 L1898.67 14.324 L1906.16 14.324 Z" fill="#000000" fill-rule="evenodd" fill-opacity="1" /><path clip-path="url(#clip810)" d="M 0 0 M2001.32 16.7545 L2001.32 25.383 Q1997.18 21.5346 1992.49 19.6307 Q1987.83 17.7268 1982.56 17.7268 Q1972.19 17.7268 1966.68 24.0867 Q1961.17 30.4061 1961.17 42.3968 Q1961.17 54.3469 1966.68 60.7069 Q1972.19 67.0263 1982.56 67.0263 Q1987.83 67.0263 1992.49 65.1223 Q1997.18 63.2184 2001.32 59.3701 L2001.32 67.9175 Q1997.02 70.8341 1992.2 72.2924 Q1987.42 73.7508 1982.08 73.7508 Q1968.34 73.7508 1960.44 65.3654 Q1952.54 56.9395 1952.54 42.3968 Q1952.54 27.8135 1960.44 19.4281 Q1968.34 11.0023 1982.08 11.0023 Q1987.5 11.0023 1992.28 12.4606 Q1997.1 13.8784 2001.32 16.7545 Z" fill="#000000" fill-rule="evenodd" fill-opacity="1" /><path clip-path="url(#clip810)" d="M 0 0 M2029.75 49.7694 Q2020.72 49.7694 2017.24 51.8354 Q2013.75 53.9013 2013.75 58.8839 Q2013.75 62.8538 2016.35 65.2034 Q2018.98 67.5124 2023.48 67.5124 Q2029.67 67.5124 2033.4 63.1374 Q2037.17 58.7219 2037.17 51.4303 L2037.17 49.7694 L2029.75 49.7694 M2044.62 46.6907 L2044.62 72.576 L2037.17 72.576 L2037.17 65.6895 Q2034.62 69.8214 2030.81 71.8063 Q2027 73.7508 2021.49 73.7508 Q2014.52 73.7508 2010.39 69.8619 Q2006.3 65.9325 2006.3 59.3701 Q2006.3 51.7138 2011.4 47.825 Q2016.55 43.9361 2026.72 43.9361 L2037.17 43.9361 L2037.17 43.2069 Q2037.17 38.0623 2033.76 35.2672 Q2030.4 32.4315 2024.29 32.4315 Q2020.4 32.4315 2016.71 33.3632 Q2013.02 34.295 2009.62 36.1584 L2009.62 29.2718 Q2013.71 27.692 2017.56 26.9223 Q2021.41 26.1121 2025.06 26.1121 Q2034.9 26.1121 2039.76 31.2163 Q2044.62 36.3204 2044.62 46.6907 Z" fill="#000000" fill-rule="evenodd" fill-opacity="1" /><path clip-path="url(#clip810)" d="M 0 0 M2059.65 65.7705 L2059.65 89.8329 L2052.16 89.8329 L2052.16 27.2059 L2059.65 27.2059 L2059.65 34.0924 Q2062 30.0415 2065.56 28.0971 Q2069.17 26.1121 2074.15 26.1121 Q2082.42 26.1121 2087.56 32.6746 Q2092.75 39.2371 2092.75 49.9314 Q2092.75 60.6258 2087.56 67.1883 Q2082.42 73.7508 2074.15 73.7508 Q2069.17 73.7508 2065.56 71.8063 Q2062 69.8214 2059.65 65.7705 M2085.01 49.9314 Q2085.01 41.7081 2081.61 37.0496 Q2078.24 32.3505 2072.33 32.3505 Q2066.41 32.3505 2063.01 37.0496 Q2059.65 41.7081 2059.65 49.9314 Q2059.65 58.1548 2063.01 62.8538 Q2066.41 67.5124 2072.33 67.5124 Q2078.24 67.5124 2081.61 62.8538 Q2085.01 58.1548 2085.01 49.9314 Z" fill="#000000" fill-rule="evenodd" fill-opacity="1" /><polyline clip-path="url(#clip813)" style="stroke:#009af9; stroke-width:4; stroke-opacity:1; fill:none" points="
  1433.52,1442.6 1462.06,1440.92 1491.56,1445.21 1520.1,1446.12 1549.59,1445.2 1579.09,1445.8 1605.73,1446.38 1635.23,1443.06 1663.77,1443.16 1693.26,1442.16 
  1721.81,1442.69 1751.3,1445.79 1780.8,1446.6 1809.34,1445.96 1838.84,1445.64 1867.38,1445.81 1896.88,1446.82 1926.37,1443.76 1953.96,1442.82 1983.46,1443.84 
  2012,1443.39 2041.5,1437.57 2070.04,1437.29 2099.54,1421.08 2129.03,1434.13 2157.57,1435.58 2187.07,1439.56 2215.61,1412.27 2245.11,1414.87 2274.6,1342.95 
  2301.24,1017.18 2325.98,1258.92 
  "/>
<polyline clip-path="url(#clip813)" style="stroke:#e26f46; stroke-width:4; stroke-opacity:1; fill:none" points="
  1433.52,1443.43 1462.06,1444.96 1491.56,1444.03 1520.1,1446.44 1549.59,1444.48 1579.09,1442.82 1605.73,1435.03 1635.23,1425.01 1663.77,1427.04 1693.26,1409.16 
  1721.81,1414.06 1751.3,1425.35 1780.8,1437.48 1809.34,1439.89 1838.84,1435.86 1867.38,1439.65 1896.88,1441.97 1926.37,1437.22 1953.96,1430.28 1983.46,1428.38 
  2012,1425.26 2041.5,1431.73 2070.04,1438.85 2099.54,1431.75 2129.03,1427.58 2157.57,1399.73 2187.07,1421.78 2215.61,1419.22 2245.11,1413.3 2274.6,1393.47 
  2301.24,896.084 2325.98,1180.74 
  "/>
<polyline clip-path="url(#clip813)" style="stroke:#3da44d; stroke-width:4; stroke-opacity:1; fill:none" points="
  1433.52,1336.24 1462.06,1365.41 1491.56,1402.5 1520.1,1392.58 1549.59,1381.26 1579.09,1412.62 1605.73,1410.73 1635.23,1411.36 1663.77,1380.08 1693.26,1302.92 
  1721.81,1240.5 1751.3,1232.86 1780.8,1317.57 1809.34,1343.19 1838.84,1298.33 1867.38,1320.03 1896.88,1341.54 1926.37,1268.99 1953.96,1292.72 1983.46,1173.14 
  2012,1201.41 2041.5,1160.95 2070.04,1292.38 2099.54,1254.6 2129.03,1198.73 2157.57,1237 2187.07,1199.5 2215.61,844.893 2245.11,631.655 2274.6,162.047 
  2301.24,162.42 2325.98,412.587 
  "/>
<polyline clip-path="url(#clip813)" style="stroke:#c271d2; stroke-width:4; stroke-opacity:1; fill:none" points="
  1433.52,1420.89 1462.06,1408.35 1491.56,1435.19 1520.1,1434.57 1549.59,1420.75 1579.09,1431.12 1605.73,1428.48 1635.23,1434.53 1663.77,1424.42 1693.26,1390.4 
  1721.81,1406.74 1751.3,1420.29 1780.8,1434.39 1809.34,1419.98 1838.84,1418.83 1867.38,1430.48 1896.88,1435.07 1926.37,1421.81 1953.96,1395.93 1983.46,1387.71 
  2012,1376.53 2041.5,1383.16 2070.04,1406.89 2099.54,1365.9 2129.03,1306.76 2157.57,1307.78 2187.07,1363.58 2215.61,1193.86 2245.11,1194.28 2274.6,564.61 
  2301.24,909.217 2325.98,1076.99 
  "/>
<polyline clip-path="url(#clip813)" style="stroke:#ac8d18; stroke-width:4; stroke-opacity:1; fill:none" points="
  1433.52,1444.02 1462.06,1442.85 1491.56,1445.42 1520.1,1446.16 1549.59,1445.76 1579.09,1445.3 1605.73,1441.79 1635.23,1441.31 1663.77,1437.66 1693.26,1426.82 
  1721.81,1426.75 1751.3,1436.44 1780.8,1443.05 1809.34,1441.72 1838.84,1441.4 1867.38,1442.58 1896.88,1444.09 1926.37,1435.6 1953.96,1433.53 1983.46,1435.39 
  2012,1438.71 2041.5,1439.75 2070.04,1443.53 2099.54,1438.59 2129.03,1428.21 2157.57,1438.93 2187.07,1435.89 2215.61,1398.46 2245.11,1353.84 2274.6,1355.91 
  2301.24,1349.15 2325.98,1393.64 
  "/>
<polyline clip-path="url(#clip813)" style="stroke:#00a9ad; stroke-width:4; stroke-opacity:1; fill:none" points="
  1693.26,1447.41 1721.81,1447.66 1751.3,1447.76 1780.8,1447.84 1809.34,1447.87 1838.84,1447.83 1867.38,1447.86 1896.88,1447.77 1926.37,1447.81 1953.96,1447.6 
  1983.46,1447.74 2012,1447.78 2041.5,1445.53 2070.04,1446.36 2099.54,1446.87 2129.03,1443.76 2157.57,1443.87 2187.07,1445.59 2215.61,1445.32 2245.11,1433.09 
  2274.6,1434.08 2301.24,1432.49 2325.98,1346.18 
  "/>
<polyline clip-path="url(#clip813)" style="stroke:#ed5d92; stroke-width:4; stroke-opacity:1; fill:none" points="
  1433.52,1442.08 1462.06,1418.56 1491.56,1432.01 1520.1,1432.48 1549.59,1435.69 1579.09,1441.21 1605.73,1439.87 1635.23,1442.4 1663.77,1437.75 1693.26,1422.45 
  1721.81,1427.01 1751.3,1437.72 1780.8,1442.74 1809.34,1438.76 1838.84,1435.35 1867.38,1440.52 1896.88,1443.15 1926.37,1437.32 1953.96,1429.44 1983.46,1430.43 
  2012,1436.86 2041.5,1438.68 2070.04,1442.05 2099.54,1430.27 2129.03,1414.36 2157.57,1433.55 2187.07,1434.64 2215.61,1282.94 2245.11,1344.87 2274.6,1207.08 
  2301.24,1235.94 2325.98,1337.49 
  "/>
</svg>
