<?xml version="1.0" encoding="utf-8"?>
<svg xmlns="http://www.w3.org/2000/svg" xmlns:xlink="http://www.w3.org/1999/xlink" width="600" height="400" viewBox="0 0 2400 1600">
<defs>
  <clipPath id="clip700">
    <rect x="0" y="0" width="2400" height="1600"/>
  </clipPath>
</defs>
<path clip-path="url(#clip700)" d="
M0 1600 L2400 1600 L2400 0 L0 0  Z
  " fill="#ffffff" fill-rule="evenodd" fill-opacity="1"/>
<defs>
  <clipPath id="clip701">
    <rect x="480" y="0" width="1681" height="1600"/>
  </clipPath>
</defs>
<path clip-path="url(#clip700)" d="
M186.274 1486.45 L1167.76 1486.45 L1167.76 123.472 L186.274 123.472  Z
  " fill="#ffffff" fill-rule="evenodd" fill-opacity="1"/>
<defs>
  <clipPath id="clip702">
    <rect x="186" y="123" width="982" height="1364"/>
  </clipPath>
</defs>
<polyline clip-path="url(#clip702)" style="stroke:#000000; stroke-linecap:butt; stroke-linejoin:round; stroke-width:2; stroke-opacity:0.1; fill:none" points="
  214.052,1486.45 214.052,123.472 
  "/>
<polyline clip-path="url(#clip702)" style="stroke:#000000; stroke-linecap:butt; stroke-linejoin:round; stroke-width:2; stroke-opacity:0.1; fill:none" points="
  513.341,1486.45 513.341,123.472 
  "/>
<polyline clip-path="url(#clip702)" style="stroke:#000000; stroke-linecap:butt; stroke-linejoin:round; stroke-width:2; stroke-opacity:0.1; fill:none" points="
  812.63,1486.45 812.63,123.472 
  "/>
<polyline clip-path="url(#clip702)" style="stroke:#000000; stroke-linecap:butt; stroke-linejoin:round; stroke-width:2; stroke-opacity:0.1; fill:none" points="
  1111.92,1486.45 1111.92,123.472 
  "/>
<polyline clip-path="url(#clip700)" style="stroke:#000000; stroke-linecap:butt; stroke-linejoin:round; stroke-width:4; stroke-opacity:1; fill:none" points="
  186.274,1486.45 1167.76,1486.45 
  "/>
<polyline clip-path="url(#clip700)" style="stroke:#000000; stroke-linecap:butt; stroke-linejoin:round; stroke-width:4; stroke-opacity:1; fill:none" points="
  214.052,1486.45 214.052,1467.55 
  "/>
<polyline clip-path="url(#clip700)" style="stroke:#000000; stroke-linecap:butt; stroke-linejoin:round; stroke-width:4; stroke-opacity:1; fill:none" points="
  513.341,1486.45 513.341,1467.55 
  "/>
<polyline clip-path="url(#clip700)" style="stroke:#000000; stroke-linecap:butt; stroke-linejoin:round; stroke-width:4; stroke-opacity:1; fill:none" points="
  812.63,1486.45 812.63,1467.55 
  "/>
<polyline clip-path="url(#clip700)" style="stroke:#000000; stroke-linecap:butt; stroke-linejoin:round; stroke-width:4; stroke-opacity:1; fill:none" points="
  1111.92,1486.45 1111.92,1467.55 
  "/>
<path clip-path="url(#clip700)" d="M95.1867 1514.29 L124.423 1514.29 L124.423 1518.22 L112.154 1518.22 L112.154 1548.85 L107.455 1548.85 L107.455 1518.22 L95.1867 1518.22 L95.1867 1514.29 Z" fill="#000000" fill-rule="evenodd" fill-opacity="1" /><path clip-path="url(#clip700)" d="M150.302 1533.2 L150.302 1548.85 L146.043 1548.85 L146.043 1533.34 Q146.043 1529.66 144.608 1527.83 Q143.173 1526 140.302 1526 Q136.853 1526 134.862 1528.2 Q132.872 1530.4 132.872 1534.2 L132.872 1548.85 L128.589 1548.85 L128.589 1512.83 L132.872 1512.83 L132.872 1526.95 Q134.399 1524.61 136.46 1523.45 Q138.543 1522.3 141.251 1522.3 Q145.719 1522.3 148.01 1525.07 Q150.302 1527.83 150.302 1533.2 Z" fill="#000000" fill-rule="evenodd" fill-opacity="1" /><path clip-path="url(#clip700)" d="M158.358 1538.62 L158.358 1522.92 L162.617 1522.92 L162.617 1538.45 Q162.617 1542.13 164.052 1543.99 Q165.487 1545.82 168.358 1545.82 Q171.807 1545.82 173.797 1543.62 Q175.811 1541.42 175.811 1537.62 L175.811 1522.92 L180.07 1522.92 L180.07 1548.85 L175.811 1548.85 L175.811 1544.87 Q174.26 1547.23 172.2 1548.38 Q170.163 1549.52 167.455 1549.52 Q162.987 1549.52 160.672 1546.74 Q158.358 1543.96 158.358 1538.62 M169.075 1522.3 L169.075 1522.3 Z" fill="#000000" fill-rule="evenodd" fill-opacity="1" /><path clip-path="url(#clip700)" d="M205.325 1544.91 L212.964 1544.91 L212.964 1518.55 L204.654 1520.21 L204.654 1515.95 L212.918 1514.29 L217.593 1514.29 L217.593 1544.91 L225.232 1544.91 L225.232 1548.85 L205.325 1548.85 L205.325 1544.91 Z" fill="#000000" fill-rule="evenodd" fill-opacity="1" /><path clip-path="url(#clip700)" d="M248.843 1530.21 Q252.2 1530.93 254.075 1533.2 Q255.973 1535.47 255.973 1538.8 Q255.973 1543.92 252.454 1546.72 Q248.936 1549.52 242.454 1549.52 Q240.279 1549.52 237.964 1549.08 Q235.672 1548.66 233.218 1547.81 L233.218 1543.29 Q235.163 1544.43 237.478 1545.01 Q239.792 1545.58 242.316 1545.58 Q246.714 1545.58 249.005 1543.85 Q251.32 1542.11 251.32 1538.8 Q251.32 1535.75 249.167 1534.03 Q247.038 1532.3 243.218 1532.3 L239.191 1532.3 L239.191 1528.45 L243.403 1528.45 Q246.853 1528.45 248.681 1527.09 Q250.51 1525.7 250.51 1523.11 Q250.51 1520.45 248.612 1519.03 Q246.737 1517.6 243.218 1517.6 Q241.297 1517.6 239.098 1518.01 Q236.899 1518.43 234.26 1519.31 L234.26 1515.14 Q236.922 1514.4 239.237 1514.03 Q241.575 1513.66 243.635 1513.66 Q248.959 1513.66 252.061 1516.09 Q255.163 1518.5 255.163 1522.62 Q255.163 1525.49 253.519 1527.48 Q251.876 1529.45 248.843 1530.21 Z" fill="#000000" fill-rule="evenodd" fill-opacity="1" /><path clip-path="url(#clip700)" d="M265.325 1542.97 L270.209 1542.97 L270.209 1548.85 L265.325 1548.85 L265.325 1542.97 M265.325 1524.33 L270.209 1524.33 L270.209 1530.21 L265.325 1530.21 L265.325 1524.33 Z" fill="#000000" fill-rule="evenodd" fill-opacity="1" /><path clip-path="url(#clip700)" d="M293.658 1518.36 L281.852 1536.81 L293.658 1536.81 L293.658 1518.36 M292.431 1514.29 L298.311 1514.29 L298.311 1536.81 L303.241 1536.81 L303.241 1540.7 L298.311 1540.7 L298.311 1548.85 L293.658 1548.85 L293.658 1540.7 L278.056 1540.7 L278.056 1536.19 L292.431 1514.29 Z" fill="#000000" fill-rule="evenodd" fill-opacity="1" /><path clip-path="url(#clip700)" d="M320.973 1517.37 Q317.361 1517.37 315.533 1520.93 Q313.727 1524.47 313.727 1531.6 Q313.727 1538.71 315.533 1542.27 Q317.361 1545.82 320.973 1545.82 Q324.607 1545.82 326.412 1542.27 Q328.241 1538.71 328.241 1531.6 Q328.241 1524.47 326.412 1520.93 Q324.607 1517.37 320.973 1517.37 M320.973 1513.66 Q326.783 1513.66 329.838 1518.27 Q332.917 1522.85 332.917 1531.6 Q332.917 1540.33 329.838 1544.94 Q326.783 1549.52 320.973 1549.52 Q315.162 1549.52 312.084 1544.94 Q309.028 1540.33 309.028 1531.6 Q309.028 1522.85 312.084 1518.27 Q315.162 1513.66 320.973 1513.66 Z" fill="#000000" fill-rule="evenodd" fill-opacity="1" /><path clip-path="url(#clip700)" d="M394.476 1514.29 L423.712 1514.29 L423.712 1518.22 L411.443 1518.22 L411.443 1548.85 L406.744 1548.85 L406.744 1518.22 L394.476 1518.22 L394.476 1514.29 Z" fill="#000000" fill-rule="evenodd" fill-opacity="1" /><path clip-path="url(#clip700)" d="M449.591 1533.2 L449.591 1548.85 L445.332 1548.85 L445.332 1533.34 Q445.332 1529.66 443.897 1527.83 Q442.462 1526 439.591 1526 Q436.142 1526 434.152 1528.2 Q432.161 1530.4 432.161 1534.2 L432.161 1548.85 L427.879 1548.85 L427.879 1512.83 L432.161 1512.83 L432.161 1526.95 Q433.689 1524.61 435.749 1523.45 Q437.832 1522.3 440.541 1522.3 Q445.008 1522.3 447.3 1525.07 Q449.591 1527.83 449.591 1533.2 Z" fill="#000000" fill-rule="evenodd" fill-opacity="1" /><path clip-path="url(#clip700)" d="M457.647 1538.62 L457.647 1522.92 L461.906 1522.92 L461.906 1538.45 Q461.906 1542.13 463.341 1543.99 Q464.777 1545.82 467.647 1545.82 Q471.096 1545.82 473.087 1543.62 Q475.101 1541.42 475.101 1537.62 L475.101 1522.92 L479.36 1522.92 L479.36 1548.85 L475.101 1548.85 L475.101 1544.87 Q473.55 1547.23 471.489 1548.38 Q469.452 1549.52 466.744 1549.52 Q462.277 1549.52 459.962 1546.74 Q457.647 1543.96 457.647 1538.62 M468.364 1522.3 L468.364 1522.3 Z" fill="#000000" fill-rule="evenodd" fill-opacity="1" /><path clip-path="url(#clip700)" d="M507.832 1544.91 L524.151 1544.91 L524.151 1548.85 L502.207 1548.85 L502.207 1544.91 Q504.869 1542.16 509.452 1537.53 Q514.059 1532.88 515.239 1531.53 Q517.485 1529.01 518.364 1527.27 Q519.267 1525.51 519.267 1523.82 Q519.267 1521.07 517.323 1519.33 Q515.401 1517.6 512.299 1517.6 Q510.1 1517.6 507.647 1518.36 Q505.216 1519.13 502.438 1520.68 L502.438 1515.95 Q505.262 1514.82 507.716 1514.24 Q510.17 1513.66 512.207 1513.66 Q517.577 1513.66 520.772 1516.35 Q523.966 1519.03 523.966 1523.52 Q523.966 1525.65 523.156 1527.57 Q522.369 1529.47 520.262 1532.07 Q519.684 1532.74 516.582 1535.95 Q513.48 1539.15 507.832 1544.91 Z" fill="#000000" fill-rule="evenodd" fill-opacity="1" /><path clip-path="url(#clip700)" d="M534.776 1544.91 L542.415 1544.91 L542.415 1518.55 L534.105 1520.21 L534.105 1515.95 L542.369 1514.29 L547.045 1514.29 L547.045 1544.91 L554.683 1544.91 L554.683 1548.85 L534.776 1548.85 L534.776 1544.91 Z" fill="#000000" fill-rule="evenodd" fill-opacity="1" /><path clip-path="url(#clip700)" d="M564.614 1542.97 L569.498 1542.97 L569.498 1548.85 L564.614 1548.85 L564.614 1542.97 M564.614 1524.33 L569.498 1524.33 L569.498 1530.21 L564.614 1530.21 L564.614 1524.33 Z" fill="#000000" fill-rule="evenodd" fill-opacity="1" /><path clip-path="url(#clip700)" d="M592.947 1518.36 L581.142 1536.81 L592.947 1536.81 L592.947 1518.36 M591.72 1514.29 L597.6 1514.29 L597.6 1536.81 L602.53 1536.81 L602.53 1540.7 L597.6 1540.7 L597.6 1548.85 L592.947 1548.85 L592.947 1540.7 L577.345 1540.7 L577.345 1536.19 L591.72 1514.29 Z" fill="#000000" fill-rule="evenodd" fill-opacity="1" /><path clip-path="url(#clip700)" d="M620.262 1517.37 Q616.651 1517.37 614.822 1520.93 Q613.016 1524.47 613.016 1531.6 Q613.016 1538.71 614.822 1542.27 Q616.651 1545.82 620.262 1545.82 Q623.896 1545.82 625.702 1542.27 Q627.53 1538.71 627.53 1531.6 Q627.53 1524.47 625.702 1520.93 Q623.896 1517.37 620.262 1517.37 M620.262 1513.66 Q626.072 1513.66 629.127 1518.27 Q632.206 1522.85 632.206 1531.6 Q632.206 1540.33 629.127 1544.94 Q626.072 1549.52 620.262 1549.52 Q614.452 1549.52 611.373 1544.94 Q608.317 1540.33 608.317 1531.6 Q608.317 1522.85 611.373 1518.27 Q614.452 1513.66 620.262 1513.66 Z" fill="#000000" fill-rule="evenodd" fill-opacity="1" /><path clip-path="url(#clip700)" d="M712.446 1514.29 L732.307 1514.29 L732.307 1518.22 L717.122 1518.22 L717.122 1528.41 L730.825 1528.41 L730.825 1532.34 L717.122 1532.34 L717.122 1548.85 L712.446 1548.85 L712.446 1514.29 Z" fill="#000000" fill-rule="evenodd" fill-opacity="1" /><path clip-path="url(#clip700)" d="M751.103 1526.9 Q750.385 1526.49 749.529 1526.3 Q748.696 1526.09 747.677 1526.09 Q744.066 1526.09 742.121 1528.45 Q740.2 1530.79 740.2 1535.19 L740.2 1548.85 L735.918 1548.85 L735.918 1522.92 L740.2 1522.92 L740.2 1526.95 Q741.543 1524.59 743.696 1523.45 Q745.848 1522.3 748.927 1522.3 Q749.367 1522.3 749.899 1522.37 Q750.432 1522.41 751.08 1522.53 L751.103 1526.9 Z" fill="#000000" fill-rule="evenodd" fill-opacity="1" /><path clip-path="url(#clip700)" d="M755.57 1522.92 L759.83 1522.92 L759.83 1548.85 L755.57 1548.85 L755.57 1522.92 M755.57 1512.83 L759.83 1512.83 L759.83 1518.22 L755.57 1518.22 L755.57 1512.83 Z" fill="#000000" fill-rule="evenodd" fill-opacity="1" /><path clip-path="url(#clip700)" d="M794.413 1517.37 Q790.802 1517.37 788.973 1520.93 Q787.168 1524.47 787.168 1531.6 Q787.168 1538.71 788.973 1542.27 Q790.802 1545.82 794.413 1545.82 Q798.047 1545.82 799.853 1542.27 Q801.681 1538.71 801.681 1531.6 Q801.681 1524.47 799.853 1520.93 Q798.047 1517.37 794.413 1517.37 M794.413 1513.66 Q800.223 1513.66 803.279 1518.27 Q806.357 1522.85 806.357 1531.6 Q806.357 1540.33 803.279 1544.94 Q800.223 1549.52 794.413 1549.52 Q788.603 1549.52 785.524 1544.94 Q782.468 1540.33 782.468 1531.6 Q782.468 1522.85 785.524 1518.27 Q788.603 1513.66 794.413 1513.66 Z" fill="#000000" fill-rule="evenodd" fill-opacity="1" /><path clip-path="url(#clip700)" d="M814.621 1514.29 L832.977 1514.29 L832.977 1518.22 L818.903 1518.22 L818.903 1526.7 Q819.922 1526.35 820.941 1526.19 Q821.959 1526 822.978 1526 Q828.765 1526 832.144 1529.17 Q835.524 1532.34 835.524 1537.76 Q835.524 1543.34 832.052 1546.44 Q828.579 1549.52 822.26 1549.52 Q820.084 1549.52 817.816 1549.15 Q815.57 1548.78 813.163 1548.04 L813.163 1543.34 Q815.246 1544.47 817.468 1545.03 Q819.691 1545.58 822.167 1545.58 Q826.172 1545.58 828.51 1543.48 Q830.848 1541.37 830.848 1537.76 Q830.848 1534.15 828.51 1532.04 Q826.172 1529.94 822.167 1529.94 Q820.292 1529.94 818.417 1530.35 Q816.566 1530.77 814.621 1531.65 L814.621 1514.29 Z" fill="#000000" fill-rule="evenodd" fill-opacity="1" /><path clip-path="url(#clip700)" d="M845.223 1542.97 L850.107 1542.97 L850.107 1548.85 L845.223 1548.85 L845.223 1542.97 M845.223 1524.33 L850.107 1524.33 L850.107 1530.21 L845.223 1530.21 L845.223 1524.33 Z" fill="#000000" fill-rule="evenodd" fill-opacity="1" /><path clip-path="url(#clip700)" d="M873.556 1518.36 L861.75 1536.81 L873.556 1536.81 L873.556 1518.36 M872.329 1514.29 L878.209 1514.29 L878.209 1536.81 L883.139 1536.81 L883.139 1540.7 L878.209 1540.7 L878.209 1548.85 L873.556 1548.85 L873.556 1540.7 L857.954 1540.7 L857.954 1536.19 L872.329 1514.29 Z" fill="#000000" fill-rule="evenodd" fill-opacity="1" /><path clip-path="url(#clip700)" d="M900.871 1517.37 Q897.26 1517.37 895.431 1520.93 Q893.625 1524.47 893.625 1531.6 Q893.625 1538.71 895.431 1542.27 Q897.26 1545.82 900.871 1545.82 Q904.505 1545.82 906.31 1542.27 Q908.139 1538.71 908.139 1531.6 Q908.139 1524.47 906.31 1520.93 Q904.505 1517.37 900.871 1517.37 M900.871 1513.66 Q906.681 1513.66 909.736 1518.27 Q912.815 1522.85 912.815 1531.6 Q912.815 1540.33 909.736 1544.94 Q906.681 1549.52 900.871 1549.52 Q895.06 1549.52 891.982 1544.94 Q888.926 1540.33 888.926 1531.6 Q888.926 1522.85 891.982 1518.27 Q895.06 1513.66 900.871 1513.66 Z" fill="#000000" fill-rule="evenodd" fill-opacity="1" /><path clip-path="url(#clip700)" d="M1011.74 1514.29 L1031.6 1514.29 L1031.6 1518.22 L1016.41 1518.22 L1016.41 1528.41 L1030.11 1528.41 L1030.11 1532.34 L1016.41 1532.34 L1016.41 1548.85 L1011.74 1548.85 L1011.74 1514.29 Z" fill="#000000" fill-rule="evenodd" fill-opacity="1" /><path clip-path="url(#clip700)" d="M1050.39 1526.9 Q1049.67 1526.49 1048.82 1526.3 Q1047.98 1526.09 1046.97 1526.09 Q1043.36 1526.09 1041.41 1528.45 Q1039.49 1530.79 1039.49 1535.19 L1039.49 1548.85 L1035.21 1548.85 L1035.21 1522.92 L1039.49 1522.92 L1039.49 1526.95 Q1040.83 1524.59 1042.98 1523.45 Q1045.14 1522.3 1048.22 1522.3 Q1048.66 1522.3 1049.19 1522.37 Q1049.72 1522.41 1050.37 1522.53 L1050.39 1526.9 Z" fill="#000000" fill-rule="evenodd" fill-opacity="1" /><path clip-path="url(#clip700)" d="M1054.86 1522.92 L1059.12 1522.92 L1059.12 1548.85 L1054.86 1548.85 L1054.86 1522.92 M1054.86 1512.83 L1059.12 1512.83 L1059.12 1518.22 L1054.86 1518.22 L1054.86 1512.83 Z" fill="#000000" fill-rule="evenodd" fill-opacity="1" /><path clip-path="url(#clip700)" d="M1084.51 1544.91 L1092.15 1544.91 L1092.15 1518.55 L1083.84 1520.21 L1083.84 1515.95 L1092.1 1514.29 L1096.78 1514.29 L1096.78 1544.91 L1104.42 1544.91 L1104.42 1548.85 L1084.51 1548.85 L1084.51 1544.91 Z" fill="#000000" fill-rule="evenodd" fill-opacity="1" /><path clip-path="url(#clip700)" d="M1128.03 1530.21 Q1131.39 1530.93 1133.26 1533.2 Q1135.16 1535.47 1135.16 1538.8 Q1135.16 1543.92 1131.64 1546.72 Q1128.12 1549.52 1121.64 1549.52 Q1119.47 1549.52 1117.15 1549.08 Q1114.86 1548.66 1112.41 1547.81 L1112.41 1543.29 Q1114.35 1544.43 1116.67 1545.01 Q1118.98 1545.58 1121.5 1545.58 Q1125.9 1545.58 1128.19 1543.85 Q1130.51 1542.11 1130.51 1538.8 Q1130.51 1535.75 1128.35 1534.03 Q1126.23 1532.3 1122.41 1532.3 L1118.38 1532.3 L1118.38 1528.45 L1122.59 1528.45 Q1126.04 1528.45 1127.87 1527.09 Q1129.7 1525.7 1129.7 1523.11 Q1129.7 1520.45 1127.8 1519.03 Q1125.92 1517.6 1122.41 1517.6 Q1120.48 1517.6 1118.29 1518.01 Q1116.09 1518.43 1113.45 1519.31 L1113.45 1515.14 Q1116.11 1514.4 1118.42 1514.03 Q1120.76 1513.66 1122.82 1513.66 Q1128.15 1513.66 1131.25 1516.09 Q1134.35 1518.5 1134.35 1522.62 Q1134.35 1525.49 1132.71 1527.48 Q1131.06 1529.45 1128.03 1530.21 Z" fill="#000000" fill-rule="evenodd" fill-opacity="1" /><path clip-path="url(#clip700)" d="M1144.51 1542.97 L1149.4 1542.97 L1149.4 1548.85 L1144.51 1548.85 L1144.51 1542.97 M1144.51 1524.33 L1149.4 1524.33 L1149.4 1530.21 L1144.51 1530.21 L1144.51 1524.33 Z" fill="#000000" fill-rule="evenodd" fill-opacity="1" /><path clip-path="url(#clip700)" d="M1172.85 1518.36 L1161.04 1536.81 L1172.85 1536.81 L1172.85 1518.36 M1171.62 1514.29 L1177.5 1514.29 L1177.5 1536.81 L1182.43 1536.81 L1182.43 1540.7 L1177.5 1540.7 L1177.5 1548.85 L1172.85 1548.85 L1172.85 1540.7 L1157.24 1540.7 L1157.24 1536.19 L1171.62 1514.29 Z" fill="#000000" fill-rule="evenodd" fill-opacity="1" /><path clip-path="url(#clip700)" d="M1200.16 1517.37 Q1196.55 1517.37 1194.72 1520.93 Q1192.91 1524.47 1192.91 1531.6 Q1192.91 1538.71 1194.72 1542.27 Q1196.55 1545.82 1200.16 1545.82 Q1203.79 1545.82 1205.6 1542.27 Q1207.43 1538.71 1207.43 1531.6 Q1207.43 1524.47 1205.6 1520.93 Q1203.79 1517.37 1200.16 1517.37 M1200.16 1513.66 Q1205.97 1513.66 1209.03 1518.27 Q1212.1 1522.85 1212.1 1531.6 Q1212.1 1540.33 1209.03 1544.94 Q1205.97 1549.52 1200.16 1549.52 Q1194.35 1549.52 1191.27 1544.94 Q1188.22 1540.33 1188.22 1531.6 Q1188.22 1522.85 1191.27 1518.27 Q1194.35 1513.66 1200.16 1513.66 Z" fill="#000000" fill-rule="evenodd" fill-opacity="1" /><polyline clip-path="url(#clip702)" style="stroke:#000000; stroke-linecap:butt; stroke-linejoin:round; stroke-width:2; stroke-opacity:0.1; fill:none" points="
  186.274,1349.64 1167.76,1349.64 
  "/>
<polyline clip-path="url(#clip702)" style="stroke:#000000; stroke-linecap:butt; stroke-linejoin:round; stroke-width:2; stroke-opacity:0.1; fill:none" points="
  186.274,1108.24 1167.76,1108.24 
  "/>
<polyline clip-path="url(#clip702)" style="stroke:#000000; stroke-linecap:butt; stroke-linejoin:round; stroke-width:2; stroke-opacity:0.1; fill:none" points="
  186.274,866.832 1167.76,866.832 
  "/>
<polyline clip-path="url(#clip702)" style="stroke:#000000; stroke-linecap:butt; stroke-linejoin:round; stroke-width:2; stroke-opacity:0.1; fill:none" points="
  186.274,625.429 1167.76,625.429 
  "/>
<polyline clip-path="url(#clip702)" style="stroke:#000000; stroke-linecap:butt; stroke-linejoin:round; stroke-width:2; stroke-opacity:0.1; fill:none" points="
  186.274,384.026 1167.76,384.026 
  "/>
<polyline clip-path="url(#clip702)" style="stroke:#000000; stroke-linecap:butt; stroke-linejoin:round; stroke-width:2; stroke-opacity:0.1; fill:none" points="
  186.274,142.624 1167.76,142.624 
  "/>
<polyline clip-path="url(#clip700)" style="stroke:#000000; stroke-linecap:butt; stroke-linejoin:round; stroke-width:4; stroke-opacity:1; fill:none" points="
  186.274,1486.45 186.274,123.472 
  "/>
<polyline clip-path="url(#clip700)" style="stroke:#000000; stroke-linecap:butt; stroke-linejoin:round; stroke-width:4; stroke-opacity:1; fill:none" points="
  186.274,1349.64 205.172,1349.64 
  "/>
<polyline clip-path="url(#clip700)" style="stroke:#000000; stroke-linecap:butt; stroke-linejoin:round; stroke-width:4; stroke-opacity:1; fill:none" points="
  186.274,1108.24 205.172,1108.24 
  "/>
<polyline clip-path="url(#clip700)" style="stroke:#000000; stroke-linecap:butt; stroke-linejoin:round; stroke-width:4; stroke-opacity:1; fill:none" points="
  186.274,866.832 205.172,866.832 
  "/>
<polyline clip-path="url(#clip700)" style="stroke:#000000; stroke-linecap:butt; stroke-linejoin:round; stroke-width:4; stroke-opacity:1; fill:none" points="
  186.274,625.429 205.172,625.429 
  "/>
<polyline clip-path="url(#clip700)" style="stroke:#000000; stroke-linecap:butt; stroke-linejoin:round; stroke-width:4; stroke-opacity:1; fill:none" points="
  186.274,384.026 205.172,384.026 
  "/>
<polyline clip-path="url(#clip700)" style="stroke:#000000; stroke-linecap:butt; stroke-linejoin:round; stroke-width:4; stroke-opacity:1; fill:none" points="
  186.274,142.624 205.172,142.624 
  "/>
<path clip-path="url(#clip700)" d="M63.9319 1335.44 Q60.3208 1335.44 58.4921 1339 Q56.6865 1342.54 56.6865 1349.67 Q56.6865 1356.78 58.4921 1360.34 Q60.3208 1363.89 63.9319 1363.89 Q67.5661 1363.89 69.3717 1360.34 Q71.2004 1356.78 71.2004 1349.67 Q71.2004 1342.54 69.3717 1339 Q67.5661 1335.44 63.9319 1335.44 M63.9319 1331.73 Q69.742 1331.73 72.7976 1336.34 Q75.8763 1340.92 75.8763 1349.67 Q75.8763 1358.4 72.7976 1363.01 Q69.742 1367.59 63.9319 1367.59 Q58.1217 1367.59 55.043 1363.01 Q51.9875 1358.4 51.9875 1349.67 Q51.9875 1340.92 55.043 1336.34 Q58.1217 1331.73 63.9319 1331.73 Z" fill="#000000" fill-rule="evenodd" fill-opacity="1" /><path clip-path="url(#clip700)" d="M84.0938 1361.04 L88.978 1361.04 L88.978 1366.92 L84.0938 1366.92 L84.0938 1361.04 Z" fill="#000000" fill-rule="evenodd" fill-opacity="1" /><path clip-path="url(#clip700)" d="M109.163 1335.44 Q105.552 1335.44 103.723 1339 Q101.918 1342.54 101.918 1349.67 Q101.918 1356.78 103.723 1360.34 Q105.552 1363.89 109.163 1363.89 Q112.797 1363.89 114.603 1360.34 Q116.432 1356.78 116.432 1349.67 Q116.432 1342.54 114.603 1339 Q112.797 1335.44 109.163 1335.44 M109.163 1331.73 Q114.973 1331.73 118.029 1336.34 Q121.107 1340.92 121.107 1349.67 Q121.107 1358.4 118.029 1363.01 Q114.973 1367.59 109.163 1367.59 Q103.353 1367.59 100.274 1363.01 Q97.2187 1358.4 97.2187 1349.67 Q97.2187 1340.92 100.274 1336.34 Q103.353 1331.73 109.163 1331.73 Z" fill="#000000" fill-rule="evenodd" fill-opacity="1" /><path clip-path="url(#clip700)" d="M129.371 1332.36 L147.728 1332.36 L147.728 1336.29 L133.654 1336.29 L133.654 1344.77 Q134.672 1344.42 135.691 1344.26 Q136.709 1344.07 137.728 1344.07 Q143.515 1344.07 146.894 1347.24 Q150.274 1350.41 150.274 1355.83 Q150.274 1361.41 146.802 1364.51 Q143.33 1367.59 137.01 1367.59 Q134.834 1367.59 132.566 1367.22 Q130.32 1366.85 127.913 1366.11 L127.913 1361.41 Q129.996 1362.54 132.219 1363.1 Q134.441 1363.65 136.918 1363.65 Q140.922 1363.65 143.26 1361.55 Q145.598 1359.44 145.598 1355.83 Q145.598 1352.22 143.26 1350.11 Q140.922 1348.01 136.918 1348.01 Q135.043 1348.01 133.168 1348.42 Q131.316 1348.84 129.371 1349.72 L129.371 1332.36 Z" fill="#000000" fill-rule="evenodd" fill-opacity="1" /><path clip-path="url(#clip700)" d="M62.9365 1094.03 Q59.3254 1094.03 57.4967 1097.6 Q55.6912 1101.14 55.6912 1108.27 Q55.6912 1115.38 57.4967 1118.94 Q59.3254 1122.48 62.9365 1122.48 Q66.5707 1122.48 68.3763 1118.94 Q70.205 1115.38 70.205 1108.27 Q70.205 1101.14 68.3763 1097.6 Q66.5707 1094.03 62.9365 1094.03 M62.9365 1090.33 Q68.7467 1090.33 71.8022 1094.94 Q74.8809 1099.52 74.8809 1108.27 Q74.8809 1117 71.8022 1121.6 Q68.7467 1126.19 62.9365 1126.19 Q57.1264 1126.19 54.0477 1121.6 Q50.9921 1117 50.9921 1108.27 Q50.9921 1099.52 54.0477 1094.94 Q57.1264 1090.33 62.9365 1090.33 Z" fill="#000000" fill-rule="evenodd" fill-opacity="1" /><path clip-path="url(#clip700)" d="M83.0984 1119.64 L87.9827 1119.64 L87.9827 1125.52 L83.0984 1125.52 L83.0984 1119.64 Z" fill="#000000" fill-rule="evenodd" fill-opacity="1" /><path clip-path="url(#clip700)" d="M98.978 1121.58 L106.617 1121.58 L106.617 1095.21 L98.3067 1096.88 L98.3067 1092.62 L106.571 1090.96 L111.246 1090.96 L111.246 1121.58 L118.885 1121.58 L118.885 1125.52 L98.978 1125.52 L98.978 1121.58 Z" fill="#000000" fill-rule="evenodd" fill-opacity="1" /><path clip-path="url(#clip700)" d="M138.33 1094.03 Q134.719 1094.03 132.89 1097.6 Q131.084 1101.14 131.084 1108.27 Q131.084 1115.38 132.89 1118.94 Q134.719 1122.48 138.33 1122.48 Q141.964 1122.48 143.769 1118.94 Q145.598 1115.38 145.598 1108.27 Q145.598 1101.14 143.769 1097.6 Q141.964 1094.03 138.33 1094.03 M138.33 1090.33 Q144.14 1090.33 147.195 1094.94 Q150.274 1099.52 150.274 1108.27 Q150.274 1117 147.195 1121.6 Q144.14 1126.19 138.33 1126.19 Q132.519 1126.19 129.441 1121.6 Q126.385 1117 126.385 1108.27 Q126.385 1099.52 129.441 1094.94 Q132.519 1090.33 138.33 1090.33 Z" fill="#000000" fill-rule="evenodd" fill-opacity="1" /><path clip-path="url(#clip700)" d="M63.9319 852.631 Q60.3208 852.631 58.4921 856.196 Q56.6865 859.737 56.6865 866.867 Q56.6865 873.973 58.4921 877.538 Q60.3208 881.08 63.9319 881.08 Q67.5661 881.08 69.3717 877.538 Q71.2004 873.973 71.2004 866.867 Q71.2004 859.737 69.3717 856.196 Q67.5661 852.631 63.9319 852.631 M63.9319 848.927 Q69.742 848.927 72.7976 853.534 Q75.8763 858.117 75.8763 866.867 Q75.8763 875.594 72.7976 880.2 Q69.742 884.784 63.9319 884.784 Q58.1217 884.784 55.043 880.2 Q51.9875 875.594 51.9875 866.867 Q51.9875 858.117 55.043 853.534 Q58.1217 848.927 63.9319 848.927 Z" fill="#000000" fill-rule="evenodd" fill-opacity="1" /><path clip-path="url(#clip700)" d="M84.0938 878.233 L88.978 878.233 L88.978 884.112 L84.0938 884.112 L84.0938 878.233 Z" fill="#000000" fill-rule="evenodd" fill-opacity="1" /><path clip-path="url(#clip700)" d="M99.9733 880.177 L107.612 880.177 L107.612 853.812 L99.3021 855.478 L99.3021 851.219 L107.566 849.552 L112.242 849.552 L112.242 880.177 L119.881 880.177 L119.881 884.112 L99.9733 884.112 L99.9733 880.177 Z" fill="#000000" fill-rule="evenodd" fill-opacity="1" /><path clip-path="url(#clip700)" d="M129.371 849.552 L147.728 849.552 L147.728 853.487 L133.654 853.487 L133.654 861.96 Q134.672 861.612 135.691 861.45 Q136.709 861.265 137.728 861.265 Q143.515 861.265 146.894 864.436 Q150.274 867.608 150.274 873.024 Q150.274 878.603 146.802 881.705 Q143.33 884.784 137.01 884.784 Q134.834 884.784 132.566 884.413 Q130.32 884.043 127.913 883.302 L127.913 878.603 Q129.996 879.737 132.219 880.293 Q134.441 880.848 136.918 880.848 Q140.922 880.848 143.26 878.742 Q145.598 876.635 145.598 873.024 Q145.598 869.413 143.26 867.307 Q140.922 865.2 136.918 865.2 Q135.043 865.2 133.168 865.617 Q131.316 866.034 129.371 866.913 L129.371 849.552 Z" fill="#000000" fill-rule="evenodd" fill-opacity="1" /><path clip-path="url(#clip700)" d="M62.9365 611.228 Q59.3254 611.228 57.4967 614.793 Q55.6912 618.335 55.6912 625.464 Q55.6912 632.571 57.4967 636.135 Q59.3254 639.677 62.9365 639.677 Q66.5707 639.677 68.3763 636.135 Q70.205 632.571 70.205 625.464 Q70.205 618.335 68.3763 614.793 Q66.5707 611.228 62.9365 611.228 M62.9365 607.524 Q68.7467 607.524 71.8022 612.131 Q74.8809 616.714 74.8809 625.464 Q74.8809 634.191 71.8022 638.797 Q68.7467 643.381 62.9365 643.381 Q57.1264 643.381 54.0477 638.797 Q50.9921 634.191 50.9921 625.464 Q50.9921 616.714 54.0477 612.131 Q57.1264 607.524 62.9365 607.524 Z" fill="#000000" fill-rule="evenodd" fill-opacity="1" /><path clip-path="url(#clip700)" d="M83.0984 636.83 L87.9827 636.83 L87.9827 642.709 L83.0984 642.709 L83.0984 636.83 Z" fill="#000000" fill-rule="evenodd" fill-opacity="1" /><path clip-path="url(#clip700)" d="M102.196 638.774 L118.515 638.774 L118.515 642.709 L96.5706 642.709 L96.5706 638.774 Q99.2326 636.02 103.816 631.39 Q108.422 626.737 109.603 625.395 Q111.848 622.872 112.728 621.135 Q113.631 619.376 113.631 617.686 Q113.631 614.932 111.686 613.196 Q109.765 611.46 106.663 611.46 Q104.464 611.46 102.01 612.223 Q99.5798 612.987 96.8021 614.538 L96.8021 609.816 Q99.6261 608.682 102.08 608.103 Q104.534 607.524 106.571 607.524 Q111.941 607.524 115.135 610.21 Q118.33 612.895 118.33 617.385 Q118.33 619.515 117.52 621.436 Q116.733 623.334 114.626 625.927 Q114.047 626.598 110.946 629.816 Q107.844 633.01 102.196 638.774 Z" fill="#000000" fill-rule="evenodd" fill-opacity="1" /><path clip-path="url(#clip700)" d="M138.33 611.228 Q134.719 611.228 132.89 614.793 Q131.084 618.335 131.084 625.464 Q131.084 632.571 132.89 636.135 Q134.719 639.677 138.33 639.677 Q141.964 639.677 143.769 636.135 Q145.598 632.571 145.598 625.464 Q145.598 618.335 143.769 614.793 Q141.964 611.228 138.33 611.228 M138.33 607.524 Q144.14 607.524 147.195 612.131 Q150.274 616.714 150.274 625.464 Q150.274 634.191 147.195 638.797 Q144.14 643.381 138.33 643.381 Q132.519 643.381 129.441 638.797 Q126.385 634.191 126.385 625.464 Q126.385 616.714 129.441 612.131 Q132.519 607.524 138.33 607.524 Z" fill="#000000" fill-rule="evenodd" fill-opacity="1" /><path clip-path="url(#clip700)" d="M63.9319 369.825 Q60.3208 369.825 58.4921 373.39 Q56.6865 376.932 56.6865 384.061 Q56.6865 391.168 58.4921 394.732 Q60.3208 398.274 63.9319 398.274 Q67.5661 398.274 69.3717 394.732 Q71.2004 391.168 71.2004 384.061 Q71.2004 376.932 69.3717 373.39 Q67.5661 369.825 63.9319 369.825 M63.9319 366.121 Q69.742 366.121 72.7976 370.728 Q75.8763 375.311 75.8763 384.061 Q75.8763 392.788 72.7976 397.394 Q69.742 401.978 63.9319 401.978 Q58.1217 401.978 55.043 397.394 Q51.9875 392.788 51.9875 384.061 Q51.9875 375.311 55.043 370.728 Q58.1217 366.121 63.9319 366.121 Z" fill="#000000" fill-rule="evenodd" fill-opacity="1" /><path clip-path="url(#clip700)" d="M84.0938 395.427 L88.978 395.427 L88.978 401.306 L84.0938 401.306 L84.0938 395.427 Z" fill="#000000" fill-rule="evenodd" fill-opacity="1" /><path clip-path="url(#clip700)" d="M103.191 397.371 L119.51 397.371 L119.51 401.306 L97.566 401.306 L97.566 397.371 Q100.228 394.617 104.811 389.987 Q109.418 385.334 110.598 383.992 Q112.844 381.469 113.723 379.733 Q114.626 377.973 114.626 376.283 Q114.626 373.529 112.682 371.793 Q110.76 370.057 107.658 370.057 Q105.459 370.057 103.006 370.821 Q100.575 371.584 97.7974 373.135 L97.7974 368.413 Q100.621 367.279 103.075 366.7 Q105.529 366.121 107.566 366.121 Q112.936 366.121 116.131 368.807 Q119.325 371.492 119.325 375.983 Q119.325 378.112 118.515 380.033 Q117.728 381.932 115.621 384.524 Q115.043 385.195 111.941 388.413 Q108.839 391.607 103.191 397.371 Z" fill="#000000" fill-rule="evenodd" fill-opacity="1" /><path clip-path="url(#clip700)" d="M129.371 366.746 L147.728 366.746 L147.728 370.682 L133.654 370.682 L133.654 379.154 Q134.672 378.807 135.691 378.645 Q136.709 378.459 137.728 378.459 Q143.515 378.459 146.894 381.631 Q150.274 384.802 150.274 390.219 Q150.274 395.797 146.802 398.899 Q143.33 401.978 137.01 401.978 Q134.834 401.978 132.566 401.607 Q130.32 401.237 127.913 400.496 L127.913 395.797 Q129.996 396.931 132.219 397.487 Q134.441 398.043 136.918 398.043 Q140.922 398.043 143.26 395.936 Q145.598 393.83 145.598 390.219 Q145.598 386.607 143.26 384.501 Q140.922 382.395 136.918 382.395 Q135.043 382.395 133.168 382.811 Q131.316 383.228 129.371 384.107 L129.371 366.746 Z" fill="#000000" fill-rule="evenodd" fill-opacity="1" /><path clip-path="url(#clip700)" d="M62.9365 128.422 Q59.3254 128.422 57.4967 131.987 Q55.6912 135.529 55.6912 142.658 Q55.6912 149.765 57.4967 153.33 Q59.3254 156.871 62.9365 156.871 Q66.5707 156.871 68.3763 153.33 Q70.205 149.765 70.205 142.658 Q70.205 135.529 68.3763 131.987 Q66.5707 128.422 62.9365 128.422 M62.9365 124.719 Q68.7467 124.719 71.8022 129.325 Q74.8809 133.908 74.8809 142.658 Q74.8809 151.385 71.8022 155.992 Q68.7467 160.575 62.9365 160.575 Q57.1264 160.575 54.0477 155.992 Q50.9921 151.385 50.9921 142.658 Q50.9921 133.908 54.0477 129.325 Q57.1264 124.719 62.9365 124.719 Z" fill="#000000" fill-rule="evenodd" fill-opacity="1" /><path clip-path="url(#clip700)" d="M83.0984 154.024 L87.9827 154.024 L87.9827 159.904 L83.0984 159.904 L83.0984 154.024 Z" fill="#000000" fill-rule="evenodd" fill-opacity="1" /><path clip-path="url(#clip700)" d="M112.334 141.269 Q115.691 141.987 117.566 144.255 Q119.464 146.524 119.464 149.857 Q119.464 154.973 115.945 157.774 Q112.427 160.575 105.946 160.575 Q103.77 160.575 101.455 160.135 Q99.1632 159.718 96.7095 158.862 L96.7095 154.348 Q98.6539 155.482 100.969 156.061 Q103.284 156.64 105.807 156.64 Q110.205 156.64 112.496 154.904 Q114.811 153.167 114.811 149.857 Q114.811 146.802 112.658 145.089 Q110.529 143.353 106.709 143.353 L102.682 143.353 L102.682 139.51 L106.895 139.51 Q110.344 139.51 112.172 138.144 Q114.001 136.756 114.001 134.163 Q114.001 131.501 112.103 130.089 Q110.228 128.654 106.709 128.654 Q104.788 128.654 102.589 129.07 Q100.39 129.487 97.7511 130.367 L97.7511 126.2 Q100.413 125.459 102.728 125.089 Q105.066 124.719 107.126 124.719 Q112.45 124.719 115.552 127.149 Q118.654 129.556 118.654 133.677 Q118.654 136.547 117.01 138.538 Q115.367 140.506 112.334 141.269 Z" fill="#000000" fill-rule="evenodd" fill-opacity="1" /><path clip-path="url(#clip700)" d="M138.33 128.422 Q134.719 128.422 132.89 131.987 Q131.084 135.529 131.084 142.658 Q131.084 149.765 132.89 153.33 Q134.719 156.871 138.33 156.871 Q141.964 156.871 143.769 153.33 Q145.598 149.765 145.598 142.658 Q145.598 135.529 143.769 131.987 Q141.964 128.422 138.33 128.422 M138.33 124.719 Q144.14 124.719 147.195 129.325 Q150.274 133.908 150.274 142.658 Q150.274 151.385 147.195 155.992 Q144.14 160.575 138.33 160.575 Q132.519 160.575 129.441 155.992 Q126.385 151.385 126.385 142.658 Q126.385 133.908 129.441 129.325 Q132.519 124.719 138.33 124.719 Z" fill="#000000" fill-rule="evenodd" fill-opacity="1" /><path clip-path="url(#clip700)" d="M225.203 14.0809 L225.203 22.0612 Q220.545 19.8332 216.413 18.7395 Q212.281 17.6457 208.432 17.6457 Q201.748 17.6457 198.103 20.2383 Q194.497 22.8309 194.497 27.611 Q194.497 31.6214 196.887 33.6873 Q199.318 35.7128 206.042 36.9686 L210.985 37.9813 Q220.14 39.7232 224.474 44.1387 Q228.849 48.5136 228.849 55.8863 Q228.849 64.6767 222.935 69.2137 Q217.061 73.7508 205.678 73.7508 Q201.384 73.7508 196.523 72.7785 Q191.702 71.8063 186.517 69.9024 L186.517 61.4765 Q191.5 64.2716 196.28 65.6895 Q201.06 67.1073 205.678 67.1073 Q212.686 67.1073 216.494 64.3527 Q220.302 61.598 220.302 56.4939 Q220.302 52.0379 217.547 49.5264 Q214.833 47.0148 208.594 45.759 L203.612 44.7868 Q194.457 42.9639 190.365 39.075 Q186.274 35.1862 186.274 28.2591 Q186.274 20.2383 191.905 15.6203 Q197.576 11.0023 207.501 11.0023 Q211.754 11.0023 216.17 11.7719 Q220.585 12.5416 225.203 14.0809 Z" fill="#000000" fill-rule="evenodd" fill-opacity="1" /><path clip-path="url(#clip700)" d="M240.516 54.671 L240.516 27.2059 L247.969 27.2059 L247.969 54.3874 Q247.969 60.8284 250.481 64.0691 Q252.992 67.2693 258.016 67.2693 Q264.051 67.2693 267.535 63.421 Q271.059 59.5726 271.059 52.9291 L271.059 27.2059 L278.513 27.2059 L278.513 72.576 L271.059 72.576 L271.059 65.6084 Q268.345 69.7404 264.74 71.7658 Q261.175 73.7508 256.436 73.7508 Q248.617 73.7508 244.567 68.8897 Q240.516 64.0286 240.516 54.671 M259.271 26.1121 L259.271 26.1121 Z" fill="#000000" fill-rule="evenodd" fill-opacity="1" /><path clip-path="url(#clip700)" d="M329.19 35.9153 Q331.985 30.8922 335.874 28.5022 Q339.763 26.1121 345.029 26.1121 Q352.118 26.1121 355.966 31.0947 Q359.815 36.0368 359.815 45.1919 L359.815 72.576 L352.321 72.576 L352.321 45.4349 Q352.321 38.913 350.012 35.7533 Q347.703 32.5936 342.963 32.5936 Q337.17 32.5936 333.808 36.4419 Q330.446 40.2903 330.446 46.9338 L330.446 72.576 L322.952 72.576 L322.952 45.4349 Q322.952 38.8725 320.642 35.7533 Q318.333 32.5936 313.513 32.5936 Q307.801 32.5936 304.439 36.4824 Q301.077 40.3308 301.077 46.9338 L301.077 72.576 L293.582 72.576 L293.582 27.2059 L301.077 27.2059 L301.077 34.2544 Q303.629 30.082 307.193 28.0971 Q310.758 26.1121 315.66 26.1121 Q320.602 26.1121 324.045 28.6237 Q327.529 31.1352 329.19 35.9153 Z" fill="#000000" fill-rule="evenodd" fill-opacity="1" /><path clip-path="url(#clip700)" d="M418.634 32.4315 Q412.639 32.4315 409.155 37.1306 Q405.671 41.7891 405.671 49.9314 Q405.671 58.0738 409.114 62.7728 Q412.598 67.4314 418.634 67.4314 Q424.589 67.4314 428.072 62.7323 Q431.556 58.0333 431.556 49.9314 Q431.556 41.8701 428.072 37.1711 Q424.589 32.4315 418.634 32.4315 M418.634 26.1121 Q428.356 26.1121 433.906 32.4315 Q439.456 38.7509 439.456 49.9314 Q439.456 61.0714 433.906 67.4314 Q428.356 73.7508 418.634 73.7508 Q408.871 73.7508 403.321 67.4314 Q397.812 61.0714 397.812 49.9314 Q397.812 38.7509 403.321 32.4315 Q408.871 26.1121 418.634 26.1121 Z" fill="#000000" fill-rule="evenodd" fill-opacity="1" /><path clip-path="url(#clip700)" d="M474.779 9.54393 L474.779 15.7418 L467.65 15.7418 Q463.639 15.7418 462.06 17.3622 Q460.52 18.9825 460.52 23.1955 L460.52 27.2059 L472.794 27.2059 L472.794 32.9987 L460.52 32.9987 L460.52 72.576 L453.026 72.576 L453.026 32.9987 L445.896 32.9987 L445.896 27.2059 L453.026 27.2059 L453.026 24.0462 Q453.026 16.471 456.55 13.0277 Q460.075 9.54393 467.731 9.54393 L474.779 9.54393 Z" fill="#000000" fill-rule="evenodd" fill-opacity="1" /><path clip-path="url(#clip700)" d="M543.969 14.0809 L543.969 22.0612 Q539.31 19.8332 535.178 18.7395 Q531.046 17.6457 527.198 17.6457 Q520.514 17.6457 516.868 20.2383 Q513.263 22.8309 513.263 27.611 Q513.263 31.6214 515.653 33.6873 Q518.084 35.7128 524.808 36.9686 L529.75 37.9813 Q538.905 39.7232 543.24 44.1387 Q547.615 48.5136 547.615 55.8863 Q547.615 64.6767 541.7 69.2137 Q535.827 73.7508 524.443 73.7508 Q520.15 73.7508 515.288 72.7785 Q510.468 71.8063 505.283 69.9024 L505.283 61.4765 Q510.265 64.2716 515.045 65.6895 Q519.825 67.1073 524.443 67.1073 Q531.452 67.1073 535.259 64.3527 Q539.067 61.598 539.067 56.4939 Q539.067 52.0379 536.313 49.5264 Q533.599 47.0148 527.36 45.759 L522.378 44.7868 Q513.222 42.9639 509.131 39.075 Q505.04 35.1862 505.04 28.2591 Q505.04 20.2383 510.67 15.6203 Q516.342 11.0023 526.266 11.0023 Q530.52 11.0023 534.935 11.7719 Q539.351 12.5416 543.969 14.0809 Z" fill="#000000" fill-rule="evenodd" fill-opacity="1" /><path clip-path="url(#clip700)" d="M564.507 49.9314 Q564.507 58.1548 567.869 62.8538 Q571.272 67.5124 577.186 67.5124 Q583.101 67.5124 586.503 62.8538 Q589.906 58.1548 589.906 49.9314 Q589.906 41.7081 586.503 37.0496 Q583.101 32.3505 577.186 32.3505 Q571.272 32.3505 567.869 37.0496 Q564.507 41.7081 564.507 49.9314 M589.906 65.7705 Q587.557 69.8214 583.951 71.8063 Q580.386 73.7508 575.363 73.7508 Q567.14 73.7508 561.955 67.1883 Q556.81 60.6258 556.81 49.9314 Q556.81 39.2371 561.955 32.6746 Q567.14 26.1121 575.363 26.1121 Q580.386 26.1121 583.951 28.0971 Q587.557 30.0415 589.906 34.0924 L589.906 27.2059 L597.36 27.2059 L597.36 89.8329 L589.906 89.8329 L589.906 65.7705 Z" fill="#000000" fill-rule="evenodd" fill-opacity="1" /><path clip-path="url(#clip700)" d="M611.943 54.671 L611.943 27.2059 L619.397 27.2059 L619.397 54.3874 Q619.397 60.8284 621.908 64.0691 Q624.42 67.2693 629.443 67.2693 Q635.479 67.2693 638.963 63.421 Q642.487 59.5726 642.487 52.9291 L642.487 27.2059 L649.94 27.2059 L649.94 72.576 L642.487 72.576 L642.487 65.6084 Q639.773 69.7404 636.167 71.7658 Q632.603 73.7508 627.863 73.7508 Q620.045 73.7508 615.994 68.8897 Q611.943 64.0286 611.943 54.671 M630.699 26.1121 L630.699 26.1121 Z" fill="#000000" fill-rule="evenodd" fill-opacity="1" /><path clip-path="url(#clip700)" d="M685.913 49.7694 Q676.879 49.7694 673.395 51.8354 Q669.911 53.9013 669.911 58.8839 Q669.911 62.8538 672.504 65.2034 Q675.137 67.5124 679.634 67.5124 Q685.832 67.5124 689.558 63.1374 Q693.326 58.7219 693.326 51.4303 L693.326 49.7694 L685.913 49.7694 M700.779 46.6907 L700.779 72.576 L693.326 72.576 L693.326 65.6895 Q690.774 69.8214 686.966 71.8063 Q683.158 73.7508 677.649 73.7508 Q670.681 73.7508 666.549 69.8619 Q662.458 65.9325 662.458 59.3701 Q662.458 51.7138 667.562 47.825 Q672.707 43.9361 682.874 43.9361 L693.326 43.9361 L693.326 43.2069 Q693.326 38.0623 689.923 35.2672 Q686.561 32.4315 680.444 32.4315 Q676.555 32.4315 672.869 33.3632 Q669.182 34.295 665.78 36.1584 L665.78 29.2718 Q669.871 27.692 673.719 26.9223 Q677.568 26.1121 681.213 26.1121 Q691.057 26.1121 695.918 31.2163 Q700.779 36.3204 700.779 46.6907 Z" fill="#000000" fill-rule="evenodd" fill-opacity="1" /><path clip-path="url(#clip700)" d="M742.423 34.1734 Q741.167 33.4443 739.668 33.1202 Q738.21 32.7556 736.427 32.7556 Q730.108 32.7556 726.705 36.8875 Q723.343 40.9789 723.343 48.6757 L723.343 72.576 L715.849 72.576 L715.849 27.2059 L723.343 27.2059 L723.343 34.2544 Q725.692 30.1225 729.46 28.1376 Q733.227 26.1121 738.615 26.1121 Q739.384 26.1121 740.316 26.2337 Q741.248 26.3147 742.382 26.5172 L742.423 34.1734 Z" fill="#000000" fill-rule="evenodd" fill-opacity="1" /><path clip-path="url(#clip700)" d="M787.226 48.0275 L787.226 51.6733 L752.955 51.6733 Q753.441 59.3701 757.573 63.421 Q761.745 67.4314 769.159 67.4314 Q773.453 67.4314 777.463 66.3781 Q781.514 65.3249 785.484 63.2184 L785.484 70.267 Q781.473 71.9684 777.26 72.8596 Q773.047 73.7508 768.713 73.7508 Q757.857 73.7508 751.497 67.4314 Q745.177 61.1119 745.177 50.3365 Q745.177 39.1965 751.173 32.6746 Q757.208 26.1121 767.417 26.1121 Q776.572 26.1121 781.878 32.0264 Q787.226 37.9003 787.226 48.0275 M779.772 45.84 Q779.691 39.7232 776.329 36.0774 Q773.007 32.4315 767.498 32.4315 Q761.259 32.4315 757.492 35.9558 Q753.765 39.4801 753.198 45.8805 L779.772 45.84 Z" fill="#000000" fill-rule="evenodd" fill-opacity="1" /><path clip-path="url(#clip700)" d="M828.383 28.5427 L828.383 35.5912 Q825.223 33.9709 821.82 33.1607 Q818.418 32.3505 814.772 32.3505 Q809.222 32.3505 806.427 34.0519 Q803.672 35.7533 803.672 39.156 Q803.672 41.7486 805.657 43.2475 Q807.642 44.7058 813.638 46.0426 L816.19 46.6097 Q824.129 48.3111 827.451 51.4303 Q830.813 54.509 830.813 60.0587 Q830.813 66.3781 825.79 70.0644 Q820.808 73.7508 812.058 73.7508 Q808.412 73.7508 804.442 73.0216 Q800.513 72.3329 796.138 70.9151 L796.138 63.2184 Q800.27 65.3654 804.28 66.4591 Q808.29 67.5124 812.22 67.5124 Q817.486 67.5124 820.322 65.73 Q823.157 63.9071 823.157 60.6258 Q823.157 57.5877 821.091 55.9673 Q819.066 54.3469 812.139 52.8481 L809.546 52.2405 Q802.619 50.7821 799.54 47.7845 Q796.462 44.7463 796.462 39.4801 Q796.462 33.0797 800.999 29.5959 Q805.536 26.1121 813.881 26.1121 Q818.013 26.1121 821.658 26.7198 Q825.304 27.3274 828.383 28.5427 Z" fill="#000000" fill-rule="evenodd" fill-opacity="1" /><polyline clip-path="url(#clip702)" style="stroke:#009af9; stroke-linecap:butt; stroke-linejoin:round; stroke-width:8; stroke-opacity:1; fill:none" points="
  214.052,1447.87 217.169,1405.79 220.287,1405.74 223.405,1383.69 226.522,1381.31 229.64,1381.27 232.757,1363.44 235.875,1335.66 238.993,1332.69 242.11,1329.51 
  245.228,1175.68 248.345,1175.68 251.463,1095.72 254.581,1095.43 257.698,1091.31 260.816,1079.81 263.933,1077.73 267.051,1043.53 270.169,1043.11 273.286,1033.11 
  276.404,1014.1 279.521,1021.39 282.639,1021.05 285.757,1028.36 288.874,1029.09 291.992,1028.96 295.109,1024.98 298.227,1006.4 301.344,1005.28 304.462,1006.69 
  307.58,1100.85 310.697,1093.69 313.815,1171.64 316.932,1170.19 320.05,1161.44 323.168,1116.84 326.285,1117.38 329.403,1104.44 332.52,1099.11 335.638,1116.86 
  338.756,1141.83 341.873,1143.88 344.991,1141.08 348.108,1141.45 351.226,1103.76 354.344,1090.63 357.461,1051.62 360.579,1084.9 363.696,1080.65 366.814,1064.86 
  369.932,1064.87 373.049,1071.06 376.167,1043.42 379.284,1043.2 382.402,1053.82 385.52,1097.21 388.637,1073.8 391.755,1121.42 394.872,1118.45 397.99,1111.74 
  401.108,1124.06 404.225,1120.43 407.343,1065.59 410.46,1055.66 413.578,1085 416.696,1094.38 419.813,1135.31 422.931,1131.17 426.048,1132.64 429.166,1141.84 
  432.284,1143.42 435.401,1141.62 438.519,1159.7 441.636,1159.56 444.754,1084.27 447.872,1074.02 450.989,1088.58 454.107,1086.68 457.224,1095.04 460.342,1084.63 
  463.46,1085.66 466.577,1090.4 469.695,1145.61 472.812,1139.5 475.93,1133.22 479.048,1035.24 482.165,1042.71 485.283,1046.04 488.4,986.466 491.518,978.155 
  494.636,977.59 497.753,940.365 500.871,951.943 503.988,951.848 507.106,1007.49 510.223,1021.02 513.341,1030.08 516.459,1024.33 519.576,1023.81 522.694,1034.5 
  525.811,1033.55 528.929,1025 532.047,1025.22 535.164,1029.67 538.282,1034.23 541.399,1130.83 544.517,1117.21 547.635,1040.77 550.752,1085.28 553.87,1059.04 
  556.987,1052.05 560.105,1035.93 563.223,1017.65 566.34,1015.78 569.458,1004.45 572.575,970.667 575.693,962.973 578.811,967.077 581.928,964.625 585.046,954.365 
  588.163,943.113 591.281,952.232 594.399,944.788 597.516,951.175 600.634,934.663 603.751,902.324 606.869,911.066 609.987,971.406 613.104,910.195 616.222,932.417 
  619.339,915.588 622.457,958.204 625.575,968.249 628.692,937.252 631.81,911.519 634.927,923.556 638.045,929.273 641.163,880.054 644.28,877.416 647.398,850.143 
  650.515,792.285 653.633,778.094 656.751,783.254 659.868,784.626 662.986,796.116 666.103,782.996 669.221,733.838 672.339,727.407 675.456,766.532 678.574,774.596 
  681.691,790.853 684.809,797.277 687.927,796.442 691.044,818.291 694.162,847.537 697.279,859.342 700.397,859.963 703.514,906.437 706.632,897.593 709.75,939.596 
  712.867,1025.53 715.985,1045.4 719.102,1042.91 722.22,1034.72 725.338,1013.61 728.455,1073.42 731.573,1166.78 734.69,1179.05 737.808,1197.16 740.926,1173.03 
  744.043,1169.15 747.161,1164.77 750.278,1175.48 753.396,1186.91 756.514,1192.01 759.631,1191.77 762.749,1157.38 765.866,1149.95 768.984,1153.31 772.102,1135.09 
  775.219,1134.91 778.337,1118.91 781.454,1127.99 784.572,1137.96 787.69,1175.33 790.807,1176.09 793.925,1176.46 797.042,1175.01 800.16,1185.66 803.278,1213.07 
  806.395,1225.02 809.513,1230.88 812.63,1223.62 815.748,1220.67 818.866,1222.84 821.983,1227.7 825.101,1245.87 828.218,1265.59 831.336,1245.1 834.454,1249.64 
  837.571,1172.62 840.689,1171.5 843.806,1171.78 846.924,1169.32 850.042,1159.89 853.159,1150.63 856.277,1135.4 859.394,1115.52 862.512,1128.23 865.63,1121.56 
  868.747,1042.24 871.865,1034.47 874.982,1034.94 878.1,1013.68 881.218,1012.85 884.335,1001.7 887.453,994.689 890.57,994.071 893.688,954.951 896.805,886.317 
  899.923,928.933 903.041,941.278 906.158,939.915 909.276,939.626 912.393,443.627 915.511,424.652 918.629,176.434 921.746,179.447 924.864,178.832 927.981,179.114 
  931.099,188.545 934.217,163.54 937.334,164.69 940.452,163.999 943.569,163.251 946.687,166.118 949.805,167.672 952.922,162.047 956.04,185.953 959.157,224.146 
  962.275,221.125 965.393,221.276 968.51,221.632 971.628,220.415 974.745,601.509 977.863,623.973 980.981,1060.84 984.098,1056.68 987.216,1057.53 990.333,1062.54 
  993.451,1103.15 996.569,1193.08 999.686,1195.21 1002.8,1220.93 1005.92,1225 1009.04,922.573 1012.16,934.607 1015.27,947.327 1018.39,955.057 1021.51,929.864 
  1024.63,919.138 1027.74,919.171 1030.86,919.551 1033.98,923.978 1037.1,923.735 1040.21,925.419 1043.33,924.457 1046.45,933.996 1049.57,933.1 1052.69,927.341 
  1055.8,912.827 1058.92,912.246 1062.04,911.973 1065.16,917.918 1068.27,908.528 1071.39,1213.74 1074.51,1214.91 1077.63,1182.77 1080.74,1181.25 1083.86,1222.54 
  1086.98,1221.69 1090.1,1207.23 1093.21,1206.39 1096.33,1181.45 1099.45,1177.39 1102.57,1177.3 1105.68,1178.67 1108.8,1170.95 1111.92,1179.97 1115.04,1171.68 
  1118.15,1212.01 1121.27,1212.19 1124.39,1212.5 1127.51,1200.67 1130.63,1217.1 1133.74,1215.47 1136.86,1220.5 1139.98,1250.51 
  "/>
<path clip-path="url(#clip700)" d="
M1371.27 1486.45 L2352.76 1486.45 L2352.76 123.472 L1371.27 123.472  Z
  " fill="#ffffff" fill-rule="evenodd" fill-opacity="1"/>
<defs>
  <clipPath id="clip703">
    <rect x="1371" y="123" width="982" height="1364"/>
  </clipPath>
</defs>
<polyline clip-path="url(#clip703)" style="stroke:#000000; stroke-linecap:butt; stroke-linejoin:round; stroke-width:2; stroke-opacity:0.1; fill:none" points="
  1399.05,1486.45 1399.05,123.472 
  "/>
<polyline clip-path="url(#clip703)" style="stroke:#000000; stroke-linecap:butt; stroke-linejoin:round; stroke-width:2; stroke-opacity:0.1; fill:none" points="
  1698.34,1486.45 1698.34,123.472 
  "/>
<polyline clip-path="url(#clip703)" style="stroke:#000000; stroke-linecap:butt; stroke-linejoin:round; stroke-width:2; stroke-opacity:0.1; fill:none" points="
  1997.63,1486.45 1997.63,123.472 
  "/>
<polyline clip-path="url(#clip703)" style="stroke:#000000; stroke-linecap:butt; stroke-linejoin:round; stroke-width:2; stroke-opacity:0.1; fill:none" points="
  2296.92,1486.45 2296.92,123.472 
  "/>
<polyline clip-path="url(#clip700)" style="stroke:#000000; stroke-linecap:butt; stroke-linejoin:round; stroke-width:4; stroke-opacity:1; fill:none" points="
  1371.27,1486.45 2352.76,1486.45 
  "/>
<polyline clip-path="url(#clip700)" style="stroke:#000000; stroke-linecap:butt; stroke-linejoin:round; stroke-width:4; stroke-opacity:1; fill:none" points="
  1399.05,1486.45 1399.05,1467.55 
  "/>
<polyline clip-path="url(#clip700)" style="stroke:#000000; stroke-linecap:butt; stroke-linejoin:round; stroke-width:4; stroke-opacity:1; fill:none" points="
  1698.34,1486.45 1698.34,1467.55 
  "/>
<polyline clip-path="url(#clip700)" style="stroke:#000000; stroke-linecap:butt; stroke-linejoin:round; stroke-width:4; stroke-opacity:1; fill:none" points="
  1997.63,1486.45 1997.63,1467.55 
  "/>
<polyline clip-path="url(#clip700)" style="stroke:#000000; stroke-linecap:butt; stroke-linejoin:round; stroke-width:4; stroke-opacity:1; fill:none" points="
  2296.92,1486.45 2296.92,1467.55 
  "/>
<path clip-path="url(#clip700)" d="M1280.19 1514.29 L1309.42 1514.29 L1309.42 1518.22 L1297.15 1518.22 L1297.15 1548.85 L1292.46 1548.85 L1292.46 1518.22 L1280.19 1518.22 L1280.19 1514.29 Z" fill="#000000" fill-rule="evenodd" fill-opacity="1" /><path clip-path="url(#clip700)" d="M1335.3 1533.2 L1335.3 1548.85 L1331.04 1548.85 L1331.04 1533.34 Q1331.04 1529.66 1329.61 1527.83 Q1328.17 1526 1325.3 1526 Q1321.85 1526 1319.86 1528.2 Q1317.87 1530.4 1317.87 1534.2 L1317.87 1548.85 L1313.59 1548.85 L1313.59 1512.83 L1317.87 1512.83 L1317.87 1526.95 Q1319.4 1524.61 1321.46 1523.45 Q1323.54 1522.3 1326.25 1522.3 Q1330.72 1522.3 1333.01 1525.07 Q1335.3 1527.83 1335.3 1533.2 Z" fill="#000000" fill-rule="evenodd" fill-opacity="1" /><path clip-path="url(#clip700)" d="M1343.36 1538.62 L1343.36 1522.92 L1347.62 1522.92 L1347.62 1538.45 Q1347.62 1542.13 1349.05 1543.99 Q1350.49 1545.82 1353.36 1545.82 Q1356.81 1545.82 1358.8 1543.62 Q1360.81 1541.42 1360.81 1537.62 L1360.81 1522.92 L1365.07 1522.92 L1365.07 1548.85 L1360.81 1548.85 L1360.81 1544.87 Q1359.26 1547.23 1357.2 1548.38 Q1355.16 1549.52 1352.45 1549.52 Q1347.99 1549.52 1345.67 1546.74 Q1343.36 1543.96 1343.36 1538.62 M1354.08 1522.3 L1354.08 1522.3 Z" fill="#000000" fill-rule="evenodd" fill-opacity="1" /><path clip-path="url(#clip700)" d="M1390.33 1544.91 L1397.96 1544.91 L1397.96 1518.55 L1389.65 1520.21 L1389.65 1515.95 L1397.92 1514.29 L1402.59 1514.29 L1402.59 1544.91 L1410.23 1544.91 L1410.23 1548.85 L1390.33 1548.85 L1390.33 1544.91 Z" fill="#000000" fill-rule="evenodd" fill-opacity="1" /><path clip-path="url(#clip700)" d="M1433.84 1530.21 Q1437.2 1530.93 1439.07 1533.2 Q1440.97 1535.47 1440.97 1538.8 Q1440.97 1543.92 1437.45 1546.72 Q1433.94 1549.52 1427.45 1549.52 Q1425.28 1549.52 1422.96 1549.08 Q1420.67 1548.66 1418.22 1547.81 L1418.22 1543.29 Q1420.16 1544.43 1422.48 1545.01 Q1424.79 1545.58 1427.32 1545.58 Q1431.71 1545.58 1434.01 1543.85 Q1436.32 1542.11 1436.32 1538.8 Q1436.32 1535.75 1434.17 1534.03 Q1432.04 1532.3 1428.22 1532.3 L1424.19 1532.3 L1424.19 1528.45 L1428.4 1528.45 Q1431.85 1528.45 1433.68 1527.09 Q1435.51 1525.7 1435.51 1523.11 Q1435.51 1520.45 1433.61 1519.03 Q1431.74 1517.6 1428.22 1517.6 Q1426.3 1517.6 1424.1 1518.01 Q1421.9 1518.43 1419.26 1519.31 L1419.26 1515.14 Q1421.92 1514.4 1424.24 1514.03 Q1426.57 1513.66 1428.64 1513.66 Q1433.96 1513.66 1437.06 1516.09 Q1440.16 1518.5 1440.16 1522.62 Q1440.16 1525.49 1438.52 1527.48 Q1436.88 1529.45 1433.84 1530.21 Z" fill="#000000" fill-rule="evenodd" fill-opacity="1" /><path clip-path="url(#clip700)" d="M1450.32 1542.97 L1455.21 1542.97 L1455.21 1548.85 L1450.32 1548.85 L1450.32 1542.97 M1450.32 1524.33 L1455.21 1524.33 L1455.21 1530.21 L1450.32 1530.21 L1450.32 1524.33 Z" fill="#000000" fill-rule="evenodd" fill-opacity="1" /><path clip-path="url(#clip700)" d="M1478.66 1518.36 L1466.85 1536.81 L1478.66 1536.81 L1478.66 1518.36 M1477.43 1514.29 L1483.31 1514.29 L1483.31 1536.81 L1488.24 1536.81 L1488.24 1540.7 L1483.31 1540.7 L1483.31 1548.85 L1478.66 1548.85 L1478.66 1540.7 L1463.06 1540.7 L1463.06 1536.19 L1477.43 1514.29 Z" fill="#000000" fill-rule="evenodd" fill-opacity="1" /><path clip-path="url(#clip700)" d="M1505.97 1517.37 Q1502.36 1517.37 1500.53 1520.93 Q1498.73 1524.47 1498.73 1531.6 Q1498.73 1538.71 1500.53 1542.27 Q1502.36 1545.82 1505.97 1545.82 Q1509.61 1545.82 1511.41 1542.27 Q1513.24 1538.71 1513.24 1531.6 Q1513.24 1524.47 1511.41 1520.93 Q1509.61 1517.37 1505.97 1517.37 M1505.97 1513.66 Q1511.78 1513.66 1514.84 1518.27 Q1517.92 1522.85 1517.92 1531.6 Q1517.92 1540.33 1514.84 1544.94 Q1511.78 1549.52 1505.97 1549.52 Q1500.16 1549.52 1497.08 1544.94 Q1494.03 1540.33 1494.03 1531.6 Q1494.03 1522.85 1497.08 1518.27 Q1500.16 1513.66 1505.97 1513.66 Z" fill="#000000" fill-rule="evenodd" fill-opacity="1" /><path clip-path="url(#clip700)" d="M1579.48 1514.29 L1608.71 1514.29 L1608.71 1518.22 L1596.44 1518.22 L1596.44 1548.85 L1591.74 1548.85 L1591.74 1518.22 L1579.48 1518.22 L1579.48 1514.29 Z" fill="#000000" fill-rule="evenodd" fill-opacity="1" /><path clip-path="url(#clip700)" d="M1634.59 1533.2 L1634.59 1548.85 L1630.33 1548.85 L1630.33 1533.34 Q1630.33 1529.66 1628.9 1527.83 Q1627.46 1526 1624.59 1526 Q1621.14 1526 1619.15 1528.2 Q1617.16 1530.4 1617.16 1534.2 L1617.16 1548.85 L1612.88 1548.85 L1612.88 1512.83 L1617.16 1512.83 L1617.16 1526.95 Q1618.69 1524.61 1620.75 1523.45 Q1622.83 1522.3 1625.54 1522.3 Q1630.01 1522.3 1632.3 1525.07 Q1634.59 1527.83 1634.59 1533.2 Z" fill="#000000" fill-rule="evenodd" fill-opacity="1" /><path clip-path="url(#clip700)" d="M1642.65 1538.62 L1642.65 1522.92 L1646.91 1522.92 L1646.91 1538.45 Q1646.91 1542.13 1648.34 1543.99 Q1649.78 1545.82 1652.65 1545.82 Q1656.1 1545.82 1658.09 1543.62 Q1660.1 1541.42 1660.1 1537.62 L1660.1 1522.92 L1664.36 1522.92 L1664.36 1548.85 L1660.1 1548.85 L1660.1 1544.87 Q1658.55 1547.23 1656.49 1548.38 Q1654.45 1549.52 1651.74 1549.52 Q1647.28 1549.52 1644.96 1546.74 Q1642.65 1543.96 1642.65 1538.62 M1653.36 1522.3 L1653.36 1522.3 Z" fill="#000000" fill-rule="evenodd" fill-opacity="1" /><path clip-path="url(#clip700)" d="M1692.83 1544.91 L1709.15 1544.91 L1709.15 1548.85 L1687.21 1548.85 L1687.21 1544.91 Q1689.87 1542.16 1694.45 1537.53 Q1699.06 1532.88 1700.24 1531.53 Q1702.48 1529.01 1703.36 1527.27 Q1704.27 1525.51 1704.27 1523.82 Q1704.27 1521.07 1702.32 1519.33 Q1700.4 1517.6 1697.3 1517.6 Q1695.1 1517.6 1692.65 1518.36 Q1690.22 1519.13 1687.44 1520.68 L1687.44 1515.95 Q1690.26 1514.82 1692.72 1514.24 Q1695.17 1513.66 1697.21 1513.66 Q1702.58 1513.66 1705.77 1516.35 Q1708.97 1519.03 1708.97 1523.52 Q1708.97 1525.65 1708.16 1527.57 Q1707.37 1529.47 1705.26 1532.07 Q1704.68 1532.74 1701.58 1535.95 Q1698.48 1539.15 1692.83 1544.91 Z" fill="#000000" fill-rule="evenodd" fill-opacity="1" /><path clip-path="url(#clip700)" d="M1719.78 1544.91 L1727.42 1544.91 L1727.42 1518.55 L1719.1 1520.21 L1719.1 1515.95 L1727.37 1514.29 L1732.04 1514.29 L1732.04 1544.91 L1739.68 1544.91 L1739.68 1548.85 L1719.78 1548.85 L1719.78 1544.91 Z" fill="#000000" fill-rule="evenodd" fill-opacity="1" /><path clip-path="url(#clip700)" d="M1749.61 1542.97 L1754.5 1542.97 L1754.5 1548.85 L1749.61 1548.85 L1749.61 1542.97 M1749.61 1524.33 L1754.5 1524.33 L1754.5 1530.21 L1749.61 1530.21 L1749.61 1524.33 Z" fill="#000000" fill-rule="evenodd" fill-opacity="1" /><path clip-path="url(#clip700)" d="M1777.95 1518.36 L1766.14 1536.81 L1777.95 1536.81 L1777.95 1518.36 M1776.72 1514.29 L1782.6 1514.29 L1782.6 1536.81 L1787.53 1536.81 L1787.53 1540.7 L1782.6 1540.7 L1782.6 1548.85 L1777.95 1548.85 L1777.95 1540.7 L1762.35 1540.7 L1762.35 1536.19 L1776.72 1514.29 Z" fill="#000000" fill-rule="evenodd" fill-opacity="1" /><path clip-path="url(#clip700)" d="M1805.26 1517.37 Q1801.65 1517.37 1799.82 1520.93 Q1798.02 1524.47 1798.02 1531.6 Q1798.02 1538.71 1799.82 1542.27 Q1801.65 1545.82 1805.26 1545.82 Q1808.9 1545.82 1810.7 1542.27 Q1812.53 1538.71 1812.53 1531.6 Q1812.53 1524.47 1810.7 1520.93 Q1808.9 1517.37 1805.26 1517.37 M1805.26 1513.66 Q1811.07 1513.66 1814.13 1518.27 Q1817.21 1522.85 1817.21 1531.6 Q1817.21 1540.33 1814.13 1544.94 Q1811.07 1549.52 1805.26 1549.52 Q1799.45 1549.52 1796.37 1544.94 Q1793.32 1540.33 1793.32 1531.6 Q1793.32 1522.85 1796.37 1518.27 Q1799.45 1513.66 1805.26 1513.66 Z" fill="#000000" fill-rule="evenodd" fill-opacity="1" /><path clip-path="url(#clip700)" d="M1897.45 1514.29 L1917.31 1514.29 L1917.31 1518.22 L1902.12 1518.22 L1902.12 1528.41 L1915.83 1528.41 L1915.83 1532.34 L1902.12 1532.34 L1902.12 1548.85 L1897.45 1548.85 L1897.45 1514.29 Z" fill="#000000" fill-rule="evenodd" fill-opacity="1" /><path clip-path="url(#clip700)" d="M1936.1 1526.9 Q1935.39 1526.49 1934.53 1526.3 Q1933.7 1526.09 1932.68 1526.09 Q1929.07 1526.09 1927.12 1528.45 Q1925.2 1530.79 1925.2 1535.19 L1925.2 1548.85 L1920.92 1548.85 L1920.92 1522.92 L1925.2 1522.92 L1925.2 1526.95 Q1926.54 1524.59 1928.7 1523.45 Q1930.85 1522.3 1933.93 1522.3 Q1934.37 1522.3 1934.9 1522.37 Q1935.43 1522.41 1936.08 1522.53 L1936.1 1526.9 Z" fill="#000000" fill-rule="evenodd" fill-opacity="1" /><path clip-path="url(#clip700)" d="M1940.57 1522.92 L1944.83 1522.92 L1944.83 1548.85 L1940.57 1548.85 L1940.57 1522.92 M1940.57 1512.83 L1944.83 1512.83 L1944.83 1518.22 L1940.57 1518.22 L1940.57 1512.83 Z" fill="#000000" fill-rule="evenodd" fill-opacity="1" /><path clip-path="url(#clip700)" d="M1979.41 1517.37 Q1975.8 1517.37 1973.97 1520.93 Q1972.17 1524.47 1972.17 1531.6 Q1972.17 1538.71 1973.97 1542.27 Q1975.8 1545.82 1979.41 1545.82 Q1983.05 1545.82 1984.85 1542.27 Q1986.68 1538.71 1986.68 1531.6 Q1986.68 1524.47 1984.85 1520.93 Q1983.05 1517.37 1979.41 1517.37 M1979.41 1513.66 Q1985.22 1513.66 1988.28 1518.27 Q1991.36 1522.85 1991.36 1531.6 Q1991.36 1540.33 1988.28 1544.94 Q1985.22 1549.52 1979.41 1549.52 Q1973.6 1549.52 1970.52 1544.94 Q1967.47 1540.33 1967.47 1531.6 Q1967.47 1522.85 1970.52 1518.27 Q1973.6 1513.66 1979.41 1513.66 Z" fill="#000000" fill-rule="evenodd" fill-opacity="1" /><path clip-path="url(#clip700)" d="M1999.62 1514.29 L2017.98 1514.29 L2017.98 1518.22 L2003.9 1518.22 L2003.9 1526.7 Q2004.92 1526.35 2005.94 1526.19 Q2006.96 1526 2007.98 1526 Q2013.76 1526 2017.14 1529.17 Q2020.52 1532.34 2020.52 1537.76 Q2020.52 1543.34 2017.05 1546.44 Q2013.58 1549.52 2007.26 1549.52 Q2005.08 1549.52 2002.82 1549.15 Q2000.57 1548.78 1998.16 1548.04 L1998.16 1543.34 Q2000.25 1544.47 2002.47 1545.03 Q2004.69 1545.58 2007.17 1545.58 Q2011.17 1545.58 2013.51 1543.48 Q2015.85 1541.37 2015.85 1537.76 Q2015.85 1534.15 2013.51 1532.04 Q2011.17 1529.94 2007.17 1529.94 Q2005.29 1529.94 2003.42 1530.35 Q2001.57 1530.77 1999.62 1531.65 L1999.62 1514.29 Z" fill="#000000" fill-rule="evenodd" fill-opacity="1" /><path clip-path="url(#clip700)" d="M2030.22 1542.97 L2035.11 1542.97 L2035.11 1548.85 L2030.22 1548.85 L2030.22 1542.97 M2030.22 1524.33 L2035.11 1524.33 L2035.11 1530.21 L2030.22 1530.21 L2030.22 1524.33 Z" fill="#000000" fill-rule="evenodd" fill-opacity="1" /><path clip-path="url(#clip700)" d="M2058.56 1518.36 L2046.75 1536.81 L2058.56 1536.81 L2058.56 1518.36 M2057.33 1514.29 L2063.21 1514.29 L2063.21 1536.81 L2068.14 1536.81 L2068.14 1540.7 L2063.21 1540.7 L2063.21 1548.85 L2058.56 1548.85 L2058.56 1540.7 L2042.95 1540.7 L2042.95 1536.19 L2057.33 1514.29 Z" fill="#000000" fill-rule="evenodd" fill-opacity="1" /><path clip-path="url(#clip700)" d="M2085.87 1517.37 Q2082.26 1517.37 2080.43 1520.93 Q2078.63 1524.47 2078.63 1531.6 Q2078.63 1538.71 2080.43 1542.27 Q2082.26 1545.82 2085.87 1545.82 Q2089.5 1545.82 2091.31 1542.27 Q2093.14 1538.71 2093.14 1531.6 Q2093.14 1524.47 2091.31 1520.93 Q2089.5 1517.37 2085.87 1517.37 M2085.87 1513.66 Q2091.68 1513.66 2094.74 1518.27 Q2097.82 1522.85 2097.82 1531.6 Q2097.82 1540.33 2094.74 1544.94 Q2091.68 1549.52 2085.87 1549.52 Q2080.06 1549.52 2076.98 1544.94 Q2073.93 1540.33 2073.93 1531.6 Q2073.93 1522.85 2076.98 1518.27 Q2080.06 1513.66 2085.87 1513.66 Z" fill="#000000" fill-rule="evenodd" fill-opacity="1" /><path clip-path="url(#clip700)" d="M2196.74 1514.29 L2216.6 1514.29 L2216.6 1518.22 L2201.41 1518.22 L2201.41 1528.41 L2215.11 1528.41 L2215.11 1532.34 L2201.41 1532.34 L2201.41 1548.85 L2196.74 1548.85 L2196.74 1514.29 Z" fill="#000000" fill-rule="evenodd" fill-opacity="1" /><path clip-path="url(#clip700)" d="M2235.39 1526.9 Q2234.67 1526.49 2233.82 1526.3 Q2232.98 1526.09 2231.97 1526.09 Q2228.36 1526.09 2226.41 1528.45 Q2224.49 1530.79 2224.49 1535.19 L2224.49 1548.85 L2220.21 1548.85 L2220.21 1522.92 L2224.49 1522.92 L2224.49 1526.95 Q2225.83 1524.59 2227.98 1523.45 Q2230.14 1522.3 2233.22 1522.3 Q2233.66 1522.3 2234.19 1522.37 Q2234.72 1522.41 2235.37 1522.53 L2235.39 1526.9 Z" fill="#000000" fill-rule="evenodd" fill-opacity="1" /><path clip-path="url(#clip700)" d="M2239.86 1522.92 L2244.12 1522.92 L2244.12 1548.85 L2239.86 1548.85 L2239.86 1522.92 M2239.86 1512.83 L2244.12 1512.83 L2244.12 1518.22 L2239.86 1518.22 L2239.86 1512.83 Z" fill="#000000" fill-rule="evenodd" fill-opacity="1" /><path clip-path="url(#clip700)" d="M2269.51 1544.91 L2277.15 1544.91 L2277.15 1518.55 L2268.84 1520.21 L2268.84 1515.95 L2277.11 1514.29 L2281.78 1514.29 L2281.78 1544.91 L2289.42 1544.91 L2289.42 1548.85 L2269.51 1548.85 L2269.51 1544.91 Z" fill="#000000" fill-rule="evenodd" fill-opacity="1" /><path clip-path="url(#clip700)" d="M2313.03 1530.21 Q2316.39 1530.93 2318.26 1533.2 Q2320.16 1535.47 2320.16 1538.8 Q2320.16 1543.92 2316.64 1546.72 Q2313.12 1549.52 2306.64 1549.52 Q2304.47 1549.52 2302.15 1549.08 Q2299.86 1548.66 2297.41 1547.81 L2297.41 1543.29 Q2299.35 1544.43 2301.67 1545.01 Q2303.98 1545.58 2306.5 1545.58 Q2310.9 1545.58 2313.19 1543.85 Q2315.51 1542.11 2315.51 1538.8 Q2315.51 1535.75 2313.35 1534.03 Q2311.23 1532.3 2307.41 1532.3 L2303.38 1532.3 L2303.38 1528.45 L2307.59 1528.45 Q2311.04 1528.45 2312.87 1527.09 Q2314.7 1525.7 2314.7 1523.11 Q2314.7 1520.45 2312.8 1519.03 Q2310.92 1517.6 2307.41 1517.6 Q2305.48 1517.6 2303.29 1518.01 Q2301.09 1518.43 2298.45 1519.31 L2298.45 1515.14 Q2301.11 1514.4 2303.42 1514.03 Q2305.76 1513.66 2307.82 1513.66 Q2313.15 1513.66 2316.25 1516.09 Q2319.35 1518.5 2319.35 1522.62 Q2319.35 1525.49 2317.71 1527.48 Q2316.06 1529.45 2313.03 1530.21 Z" fill="#000000" fill-rule="evenodd" fill-opacity="1" /><path clip-path="url(#clip700)" d="M2329.51 1542.97 L2334.4 1542.97 L2334.4 1548.85 L2329.51 1548.85 L2329.51 1542.97 M2329.51 1524.33 L2334.4 1524.33 L2334.4 1530.21 L2329.51 1530.21 L2329.51 1524.33 Z" fill="#000000" fill-rule="evenodd" fill-opacity="1" /><path clip-path="url(#clip700)" d="M2357.85 1518.36 L2346.04 1536.81 L2357.85 1536.81 L2357.85 1518.36 M2356.62 1514.29 L2362.5 1514.29 L2362.5 1536.81 L2367.43 1536.81 L2367.43 1540.7 L2362.5 1540.7 L2362.5 1548.85 L2357.85 1548.85 L2357.85 1540.7 L2342.24 1540.7 L2342.24 1536.19 L2356.62 1514.29 Z" fill="#000000" fill-rule="evenodd" fill-opacity="1" /><path clip-path="url(#clip700)" d="M2385.16 1517.37 Q2381.55 1517.37 2379.72 1520.93 Q2377.91 1524.47 2377.91 1531.6 Q2377.91 1538.71 2379.72 1542.27 Q2381.55 1545.82 2385.16 1545.82 Q2388.79 1545.82 2390.6 1542.27 Q2392.43 1538.71 2392.43 1531.6 Q2392.43 1524.47 2390.6 1520.93 Q2388.79 1517.37 2385.16 1517.37 M2385.16 1513.66 Q2390.97 1513.66 2394.03 1518.27 Q2397.1 1522.85 2397.1 1531.6 Q2397.1 1540.33 2394.03 1544.94 Q2390.97 1549.52 2385.16 1549.52 Q2379.35 1549.52 2376.27 1544.94 Q2373.22 1540.33 2373.22 1531.6 Q2373.22 1522.85 2376.27 1518.27 Q2379.35 1513.66 2385.16 1513.66 Z" fill="#000000" fill-rule="evenodd" fill-opacity="1" /><polyline clip-path="url(#clip703)" style="stroke:#000000; stroke-linecap:butt; stroke-linejoin:round; stroke-width:2; stroke-opacity:0.1; fill:none" points="
  1371.27,1456.11 2352.76,1456.11 
  "/>
<polyline clip-path="url(#clip703)" style="stroke:#000000; stroke-linecap:butt; stroke-linejoin:round; stroke-width:2; stroke-opacity:0.1; fill:none" points="
  1371.27,1222.06 2352.76,1222.06 
  "/>
<polyline clip-path="url(#clip703)" style="stroke:#000000; stroke-linecap:butt; stroke-linejoin:round; stroke-width:2; stroke-opacity:0.1; fill:none" points="
  1371.27,988.01 2352.76,988.01 
  "/>
<polyline clip-path="url(#clip703)" style="stroke:#000000; stroke-linecap:butt; stroke-linejoin:round; stroke-width:2; stroke-opacity:0.1; fill:none" points="
  1371.27,753.96 2352.76,753.96 
  "/>
<polyline clip-path="url(#clip703)" style="stroke:#000000; stroke-linecap:butt; stroke-linejoin:round; stroke-width:2; stroke-opacity:0.1; fill:none" points="
  1371.27,519.91 2352.76,519.91 
  "/>
<polyline clip-path="url(#clip703)" style="stroke:#000000; stroke-linecap:butt; stroke-linejoin:round; stroke-width:2; stroke-opacity:0.1; fill:none" points="
  1371.27,285.86 2352.76,285.86 
  "/>
<polyline clip-path="url(#clip700)" style="stroke:#000000; stroke-linecap:butt; stroke-linejoin:round; stroke-width:4; stroke-opacity:1; fill:none" points="
  1371.27,1486.45 1371.27,123.472 
  "/>
<polyline clip-path="url(#clip700)" style="stroke:#000000; stroke-linecap:butt; stroke-linejoin:round; stroke-width:4; stroke-opacity:1; fill:none" points="
  1371.27,1456.11 1390.17,1456.11 
  "/>
<polyline clip-path="url(#clip700)" style="stroke:#000000; stroke-linecap:butt; stroke-linejoin:round; stroke-width:4; stroke-opacity:1; fill:none" points="
  1371.27,1222.06 1390.17,1222.06 
  "/>
<polyline clip-path="url(#clip700)" style="stroke:#000000; stroke-linecap:butt; stroke-linejoin:round; stroke-width:4; stroke-opacity:1; fill:none" points="
  1371.27,988.01 1390.17,988.01 
  "/>
<polyline clip-path="url(#clip700)" style="stroke:#000000; stroke-linecap:butt; stroke-linejoin:round; stroke-width:4; stroke-opacity:1; fill:none" points="
  1371.27,753.96 1390.17,753.96 
  "/>
<polyline clip-path="url(#clip700)" style="stroke:#000000; stroke-linecap:butt; stroke-linejoin:round; stroke-width:4; stroke-opacity:1; fill:none" points="
  1371.27,519.91 1390.17,519.91 
  "/>
<polyline clip-path="url(#clip700)" style="stroke:#000000; stroke-linecap:butt; stroke-linejoin:round; stroke-width:4; stroke-opacity:1; fill:none" points="
  1371.27,285.86 1390.17,285.86 
  "/>
<path clip-path="url(#clip700)" d="M1279.09 1441.91 Q1275.48 1441.91 1273.65 1445.47 Q1271.85 1449.02 1271.85 1456.14 Q1271.85 1463.25 1273.65 1466.82 Q1275.48 1470.36 1279.09 1470.36 Q1282.73 1470.36 1284.53 1466.82 Q1286.36 1463.25 1286.36 1456.14 Q1286.36 1449.02 1284.53 1445.47 Q1282.73 1441.91 1279.09 1441.91 M1279.09 1438.2 Q1284.9 1438.2 1287.96 1442.81 Q1291.04 1447.39 1291.04 1456.14 Q1291.04 1464.87 1287.96 1469.48 Q1284.9 1474.06 1279.09 1474.06 Q1273.28 1474.06 1270.2 1469.48 Q1267.15 1464.87 1267.15 1456.14 Q1267.15 1447.39 1270.2 1442.81 Q1273.28 1438.2 1279.09 1438.2 Z" fill="#000000" fill-rule="evenodd" fill-opacity="1" /><path clip-path="url(#clip700)" d="M1299.26 1467.51 L1304.14 1467.51 L1304.14 1473.39 L1299.26 1473.39 L1299.26 1467.51 Z" fill="#000000" fill-rule="evenodd" fill-opacity="1" /><path clip-path="url(#clip700)" d="M1314.37 1438.83 L1332.73 1438.83 L1332.73 1442.77 L1318.65 1442.77 L1318.65 1451.24 Q1319.67 1450.89 1320.69 1450.73 Q1321.71 1450.54 1322.73 1450.54 Q1328.51 1450.54 1331.89 1453.71 Q1335.27 1456.89 1335.27 1462.3 Q1335.27 1467.88 1331.8 1470.98 Q1328.33 1474.06 1322.01 1474.06 Q1319.83 1474.06 1317.57 1473.69 Q1315.32 1473.32 1312.91 1472.58 L1312.91 1467.88 Q1315 1469.02 1317.22 1469.57 Q1319.44 1470.13 1321.92 1470.13 Q1325.92 1470.13 1328.26 1468.02 Q1330.6 1465.91 1330.6 1462.3 Q1330.6 1458.69 1328.26 1456.58 Q1325.92 1454.48 1321.92 1454.48 Q1320.04 1454.48 1318.17 1454.89 Q1316.32 1455.31 1314.37 1456.19 L1314.37 1438.83 Z" fill="#000000" fill-rule="evenodd" fill-opacity="1" /><path clip-path="url(#clip700)" d="M1277.94 1207.86 Q1274.33 1207.86 1272.5 1211.42 Q1270.69 1214.97 1270.69 1222.09 Q1270.69 1229.2 1272.5 1232.77 Q1274.33 1236.31 1277.94 1236.31 Q1281.57 1236.31 1283.38 1232.77 Q1285.2 1229.2 1285.2 1222.09 Q1285.2 1214.97 1283.38 1211.42 Q1281.57 1207.86 1277.94 1207.86 M1277.94 1204.16 Q1283.75 1204.16 1286.8 1208.76 Q1289.88 1213.34 1289.88 1222.09 Q1289.88 1230.82 1286.8 1235.43 Q1283.75 1240.01 1277.94 1240.01 Q1272.13 1240.01 1269.05 1235.43 Q1265.99 1230.82 1265.99 1222.09 Q1265.99 1213.34 1269.05 1208.76 Q1272.13 1204.16 1277.94 1204.16 Z" fill="#000000" fill-rule="evenodd" fill-opacity="1" /><path clip-path="url(#clip700)" d="M1298.1 1233.46 L1302.98 1233.46 L1302.98 1239.34 L1298.1 1239.34 L1298.1 1233.46 Z" fill="#000000" fill-rule="evenodd" fill-opacity="1" /><path clip-path="url(#clip700)" d="M1323.75 1220.2 Q1320.6 1220.2 1318.75 1222.35 Q1316.92 1224.5 1316.92 1228.25 Q1316.92 1231.98 1318.75 1234.15 Q1320.6 1236.31 1323.75 1236.31 Q1326.89 1236.31 1328.72 1234.15 Q1330.58 1231.98 1330.58 1228.25 Q1330.58 1224.5 1328.72 1222.35 Q1326.89 1220.2 1323.75 1220.2 M1333.03 1205.54 L1333.03 1209.8 Q1331.27 1208.97 1329.46 1208.53 Q1327.68 1208.09 1325.92 1208.09 Q1321.29 1208.09 1318.84 1211.22 Q1316.41 1214.34 1316.06 1220.66 Q1317.43 1218.65 1319.49 1217.58 Q1321.55 1216.49 1324.02 1216.49 Q1329.23 1216.49 1332.24 1219.66 Q1335.27 1222.81 1335.27 1228.25 Q1335.27 1233.58 1332.13 1236.79 Q1328.98 1240.01 1323.75 1240.01 Q1317.75 1240.01 1314.58 1235.43 Q1311.41 1230.82 1311.41 1222.09 Q1311.41 1213.9 1315.3 1209.04 Q1319.19 1204.16 1325.74 1204.16 Q1327.5 1204.16 1329.28 1204.5 Q1331.08 1204.85 1333.03 1205.54 Z" fill="#000000" fill-rule="evenodd" fill-opacity="1" /><path clip-path="url(#clip700)" d="M1279 973.809 Q1275.39 973.809 1273.56 977.374 Q1271.76 980.915 1271.76 988.045 Q1271.76 995.151 1273.56 998.716 Q1275.39 1002.26 1279 1002.26 Q1282.64 1002.26 1284.44 998.716 Q1286.27 995.151 1286.27 988.045 Q1286.27 980.915 1284.44 977.374 Q1282.64 973.809 1279 973.809 M1279 970.105 Q1284.81 970.105 1287.87 974.712 Q1290.95 979.295 1290.95 988.045 Q1290.95 996.772 1287.87 1001.38 Q1284.81 1005.96 1279 1005.96 Q1273.19 1005.96 1270.11 1001.38 Q1267.06 996.772 1267.06 988.045 Q1267.06 979.295 1270.11 974.712 Q1273.19 970.105 1279 970.105 Z" fill="#000000" fill-rule="evenodd" fill-opacity="1" /><path clip-path="url(#clip700)" d="M1299.16 999.41 L1304.05 999.41 L1304.05 1005.29 L1299.16 1005.29 L1299.16 999.41 Z" fill="#000000" fill-rule="evenodd" fill-opacity="1" /><path clip-path="url(#clip700)" d="M1313.05 970.73 L1335.27 970.73 L1335.27 972.721 L1322.73 1005.29 L1317.84 1005.29 L1329.65 974.665 L1313.05 974.665 L1313.05 970.73 Z" fill="#000000" fill-rule="evenodd" fill-opacity="1" /><path clip-path="url(#clip700)" d="M1278.19 739.759 Q1274.58 739.759 1272.75 743.324 Q1270.95 746.865 1270.95 753.995 Q1270.95 761.101 1272.75 764.666 Q1274.58 768.208 1278.19 768.208 Q1281.83 768.208 1283.63 764.666 Q1285.46 761.101 1285.46 753.995 Q1285.46 746.865 1283.63 743.324 Q1281.83 739.759 1278.19 739.759 M1278.19 736.055 Q1284 736.055 1287.06 740.662 Q1290.14 745.245 1290.14 753.995 Q1290.14 762.722 1287.06 767.328 Q1284 771.911 1278.19 771.911 Q1272.38 771.911 1269.3 767.328 Q1266.25 762.722 1266.25 753.995 Q1266.25 745.245 1269.3 740.662 Q1272.38 736.055 1278.19 736.055 Z" fill="#000000" fill-rule="evenodd" fill-opacity="1" /><path clip-path="url(#clip700)" d="M1298.35 765.36 L1303.24 765.36 L1303.24 771.24 L1298.35 771.24 L1298.35 765.36 Z" fill="#000000" fill-rule="evenodd" fill-opacity="1" /><path clip-path="url(#clip700)" d="M1323.42 754.828 Q1320.09 754.828 1318.17 756.611 Q1316.27 758.393 1316.27 761.518 Q1316.27 764.643 1318.17 766.425 Q1320.09 768.208 1323.42 768.208 Q1326.76 768.208 1328.68 766.425 Q1330.6 764.62 1330.6 761.518 Q1330.6 758.393 1328.68 756.611 Q1326.78 754.828 1323.42 754.828 M1318.75 752.837 Q1315.74 752.097 1314.05 750.036 Q1312.38 747.976 1312.38 745.013 Q1312.38 740.87 1315.32 738.462 Q1318.28 736.055 1323.42 736.055 Q1328.58 736.055 1331.52 738.462 Q1334.46 740.87 1334.46 745.013 Q1334.46 747.976 1332.77 750.036 Q1331.11 752.097 1328.12 752.837 Q1331.5 753.624 1333.38 755.916 Q1335.27 758.208 1335.27 761.518 Q1335.27 766.541 1332.2 769.226 Q1329.14 771.911 1323.42 771.911 Q1317.7 771.911 1314.63 769.226 Q1311.57 766.541 1311.57 761.518 Q1311.57 758.208 1313.47 755.916 Q1315.37 753.624 1318.75 752.837 M1317.03 745.453 Q1317.03 748.138 1318.7 749.643 Q1320.39 751.148 1323.42 751.148 Q1326.43 751.148 1328.12 749.643 Q1329.83 748.138 1329.83 745.453 Q1329.83 742.768 1328.12 741.263 Q1326.43 739.759 1323.42 739.759 Q1320.39 739.759 1318.7 741.263 Q1317.03 742.768 1317.03 745.453 Z" fill="#000000" fill-rule="evenodd" fill-opacity="1" /><path clip-path="url(#clip700)" d="M1278.28 505.709 Q1274.67 505.709 1272.84 509.274 Q1271.04 512.815 1271.04 519.945 Q1271.04 527.051 1272.84 530.616 Q1274.67 534.158 1278.28 534.158 Q1281.92 534.158 1283.72 530.616 Q1285.55 527.051 1285.55 519.945 Q1285.55 512.815 1283.72 509.274 Q1281.92 505.709 1278.28 505.709 M1278.28 502.005 Q1284.09 502.005 1287.15 506.612 Q1290.23 511.195 1290.23 519.945 Q1290.23 528.672 1287.15 533.278 Q1284.09 537.861 1278.28 537.861 Q1272.47 537.861 1269.39 533.278 Q1266.34 528.672 1266.34 519.945 Q1266.34 511.195 1269.39 506.612 Q1272.47 502.005 1278.28 502.005 Z" fill="#000000" fill-rule="evenodd" fill-opacity="1" /><path clip-path="url(#clip700)" d="M1298.45 531.311 L1303.33 531.311 L1303.33 537.19 L1298.45 537.19 L1298.45 531.311 Z" fill="#000000" fill-rule="evenodd" fill-opacity="1" /><path clip-path="url(#clip700)" d="M1313.65 536.473 L1313.65 532.213 Q1315.41 533.047 1317.22 533.486 Q1319.02 533.926 1320.76 533.926 Q1325.39 533.926 1327.82 530.824 Q1330.27 527.699 1330.62 521.357 Q1329.28 523.348 1327.22 524.412 Q1325.16 525.477 1322.66 525.477 Q1317.47 525.477 1314.44 522.352 Q1311.43 519.204 1311.43 513.764 Q1311.43 508.44 1314.58 505.223 Q1317.73 502.005 1322.96 502.005 Q1328.95 502.005 1332.1 506.612 Q1335.27 511.195 1335.27 519.945 Q1335.27 528.116 1331.39 533 Q1327.52 537.861 1320.97 537.861 Q1319.21 537.861 1317.4 537.514 Q1315.6 537.167 1313.65 536.473 M1322.96 521.82 Q1326.11 521.82 1327.94 519.667 Q1329.79 517.514 1329.79 513.764 Q1329.79 510.037 1327.94 507.885 Q1326.11 505.709 1322.96 505.709 Q1319.81 505.709 1317.96 507.885 Q1316.13 510.037 1316.13 513.764 Q1316.13 517.514 1317.96 519.667 Q1319.81 521.82 1322.96 521.82 Z" fill="#000000" fill-rule="evenodd" fill-opacity="1" /><path clip-path="url(#clip700)" d="M1268.91 299.205 L1276.55 299.205 L1276.55 272.839 L1268.24 274.506 L1268.24 270.247 L1276.5 268.58 L1281.18 268.58 L1281.18 299.205 L1288.82 299.205 L1288.82 303.14 L1268.91 303.14 L1268.91 299.205 Z" fill="#000000" fill-rule="evenodd" fill-opacity="1" /><path clip-path="url(#clip700)" d="M1298.26 297.261 L1303.14 297.261 L1303.14 303.14 L1298.26 303.14 L1298.26 297.261 Z" fill="#000000" fill-rule="evenodd" fill-opacity="1" /><path clip-path="url(#clip700)" d="M1323.33 271.659 Q1319.72 271.659 1317.89 275.224 Q1316.08 278.765 1316.08 285.895 Q1316.08 293.001 1317.89 296.566 Q1319.72 300.108 1323.33 300.108 Q1326.96 300.108 1328.77 296.566 Q1330.6 293.001 1330.6 285.895 Q1330.6 278.765 1328.77 275.224 Q1326.96 271.659 1323.33 271.659 M1323.33 267.955 Q1329.14 267.955 1332.2 272.562 Q1335.27 277.145 1335.27 285.895 Q1335.27 294.622 1332.2 299.228 Q1329.14 303.811 1323.33 303.811 Q1317.52 303.811 1314.44 299.228 Q1311.39 294.622 1311.39 285.895 Q1311.39 277.145 1314.44 272.562 Q1317.52 267.955 1323.33 267.955 Z" fill="#000000" fill-rule="evenodd" fill-opacity="1" /><path clip-path="url(#clip700)" d="M1410.2 14.0809 L1410.2 22.0612 Q1405.54 19.8332 1401.41 18.7395 Q1397.28 17.6457 1393.43 17.6457 Q1386.75 17.6457 1383.1 20.2383 Q1379.5 22.8309 1379.5 27.611 Q1379.5 31.6214 1381.89 33.6873 Q1384.32 35.7128 1391.04 36.9686 L1395.98 37.9813 Q1405.14 39.7232 1409.47 44.1387 Q1413.85 48.5136 1413.85 55.8863 Q1413.85 64.6767 1407.93 69.2137 Q1402.06 73.7508 1390.68 73.7508 Q1386.38 73.7508 1381.52 72.7785 Q1376.7 71.8063 1371.52 69.9024 L1371.52 61.4765 Q1376.5 64.2716 1381.28 65.6895 Q1386.06 67.1073 1390.68 67.1073 Q1397.69 67.1073 1401.49 64.3527 Q1405.3 61.598 1405.3 56.4939 Q1405.3 52.0379 1402.55 49.5264 Q1399.83 47.0148 1393.59 45.759 L1388.61 44.7868 Q1379.46 42.9639 1375.37 39.075 Q1371.27 35.1862 1371.27 28.2591 Q1371.27 20.2383 1376.9 15.6203 Q1382.58 11.0023 1392.5 11.0023 Q1396.75 11.0023 1401.17 11.7719 Q1405.59 12.5416 1410.2 14.0809 Z" fill="#000000" fill-rule="evenodd" fill-opacity="1" /><path clip-path="url(#clip700)" d="M1433.66 14.324 L1433.66 27.2059 L1449.01 27.2059 L1449.01 32.9987 L1433.66 32.9987 L1433.66 57.6282 Q1433.66 63.1779 1435.16 64.7578 Q1436.7 66.3376 1441.35 66.3376 L1449.01 66.3376 L1449.01 72.576 L1441.35 72.576 Q1432.73 72.576 1429.45 69.3758 Q1426.16 66.1351 1426.16 57.6282 L1426.16 32.9987 L1420.7 32.9987 L1420.7 27.2059 L1426.16 27.2059 L1426.16 14.324 L1433.66 14.324 Z" fill="#000000" fill-rule="evenodd" fill-opacity="1" /><path clip-path="url(#clip700)" d="M1479.43 49.7694 Q1470.4 49.7694 1466.92 51.8354 Q1463.43 53.9013 1463.43 58.8839 Q1463.43 62.8538 1466.02 65.2034 Q1468.66 67.5124 1473.15 67.5124 Q1479.35 67.5124 1483.08 63.1374 Q1486.85 58.7219 1486.85 51.4303 L1486.85 49.7694 L1479.43 49.7694 M1494.3 46.6907 L1494.3 72.576 L1486.85 72.576 L1486.85 65.6895 Q1484.29 69.8214 1480.49 71.8063 Q1476.68 73.7508 1471.17 73.7508 Q1464.2 73.7508 1460.07 69.8619 Q1455.98 65.9325 1455.98 59.3701 Q1455.98 51.7138 1461.08 47.825 Q1466.23 43.9361 1476.4 43.9361 L1486.85 43.9361 L1486.85 43.2069 Q1486.85 38.0623 1483.44 35.2672 Q1480.08 32.4315 1473.96 32.4315 Q1470.08 32.4315 1466.39 33.3632 Q1462.7 34.295 1459.3 36.1584 L1459.3 29.2718 Q1463.39 27.692 1467.24 26.9223 Q1471.09 26.1121 1474.73 26.1121 Q1484.58 26.1121 1489.44 31.2163 Q1494.3 36.3204 1494.3 46.6907 Z" fill="#000000" fill-rule="evenodd" fill-opacity="1" /><path clip-path="url(#clip700)" d="M1547.37 45.1919 L1547.37 72.576 L1539.91 72.576 L1539.91 45.4349 Q1539.91 38.994 1537.4 35.7938 Q1534.89 32.5936 1529.87 32.5936 Q1523.83 32.5936 1520.35 36.4419 Q1516.86 40.2903 1516.86 46.9338 L1516.86 72.576 L1509.37 72.576 L1509.37 27.2059 L1516.86 27.2059 L1516.86 34.2544 Q1519.54 30.163 1523.14 28.1376 Q1526.79 26.1121 1531.53 26.1121 Q1539.35 26.1121 1543.36 30.9732 Q1547.37 35.7938 1547.37 45.1919 Z" fill="#000000" fill-rule="evenodd" fill-opacity="1" /><path clip-path="url(#clip700)" d="M1592.09 34.0924 L1592.09 9.54393 L1599.54 9.54393 L1599.54 72.576 L1592.09 72.576 L1592.09 65.7705 Q1589.74 69.8214 1586.13 71.8063 Q1582.57 73.7508 1577.55 73.7508 Q1569.32 73.7508 1564.14 67.1883 Q1558.99 60.6258 1558.99 49.9314 Q1558.99 39.2371 1564.14 32.6746 Q1569.32 26.1121 1577.55 26.1121 Q1582.57 26.1121 1586.13 28.0971 Q1589.74 30.0415 1592.09 34.0924 M1566.69 49.9314 Q1566.69 58.1548 1570.05 62.8538 Q1573.45 67.5124 1579.37 67.5124 Q1585.28 67.5124 1588.69 62.8538 Q1592.09 58.1548 1592.09 49.9314 Q1592.09 41.7081 1588.69 37.0496 Q1585.28 32.3505 1579.37 32.3505 Q1573.45 32.3505 1570.05 37.0496 Q1566.69 41.7081 1566.69 49.9314 Z" fill="#000000" fill-rule="evenodd" fill-opacity="1" /><path clip-path="url(#clip700)" d="M1635.51 49.7694 Q1626.48 49.7694 1623 51.8354 Q1619.51 53.9013 1619.51 58.8839 Q1619.51 62.8538 1622.11 65.2034 Q1624.74 67.5124 1629.24 67.5124 Q1635.43 67.5124 1639.16 63.1374 Q1642.93 58.7219 1642.93 51.4303 L1642.93 49.7694 L1635.51 49.7694 M1650.38 46.6907 L1650.38 72.576 L1642.93 72.576 L1642.93 65.6895 Q1640.38 69.8214 1636.57 71.8063 Q1632.76 73.7508 1627.25 73.7508 Q1620.28 73.7508 1616.15 69.8619 Q1612.06 65.9325 1612.06 59.3701 Q1612.06 51.7138 1617.16 47.825 Q1622.31 43.9361 1632.48 43.9361 L1642.93 43.9361 L1642.93 43.2069 Q1642.93 38.0623 1639.52 35.2672 Q1636.16 32.4315 1630.05 32.4315 Q1626.16 32.4315 1622.47 33.3632 Q1618.78 34.295 1615.38 36.1584 L1615.38 29.2718 Q1619.47 27.692 1623.32 26.9223 Q1627.17 26.1121 1630.82 26.1121 Q1640.66 26.1121 1645.52 31.2163 Q1650.38 36.3204 1650.38 46.6907 Z" fill="#000000" fill-rule="evenodd" fill-opacity="1" /><path clip-path="url(#clip700)" d="M1692.02 34.1734 Q1690.77 33.4443 1689.27 33.1202 Q1687.81 32.7556 1686.03 32.7556 Q1679.71 32.7556 1676.31 36.8875 Q1672.94 40.9789 1672.94 48.6757 L1672.94 72.576 L1665.45 72.576 L1665.45 27.2059 L1672.94 27.2059 L1672.94 34.2544 Q1675.29 30.1225 1679.06 28.1376 Q1682.83 26.1121 1688.22 26.1121 Q1688.99 26.1121 1689.92 26.2337 Q1690.85 26.3147 1691.98 26.5172 L1692.02 34.1734 Z" fill="#000000" fill-rule="evenodd" fill-opacity="1" /><path clip-path="url(#clip700)" d="M1728.24 34.0924 L1728.24 9.54393 L1735.69 9.54393 L1735.69 72.576 L1728.24 72.576 L1728.24 65.7705 Q1725.89 69.8214 1722.28 71.8063 Q1718.72 73.7508 1713.7 73.7508 Q1705.47 73.7508 1700.29 67.1883 Q1695.14 60.6258 1695.14 49.9314 Q1695.14 39.2371 1700.29 32.6746 Q1705.47 26.1121 1713.7 26.1121 Q1718.72 26.1121 1722.28 28.0971 Q1725.89 30.0415 1728.24 34.0924 M1702.84 49.9314 Q1702.84 58.1548 1706.2 62.8538 Q1709.61 67.5124 1715.52 67.5124 Q1721.43 67.5124 1724.84 62.8538 Q1728.24 58.1548 1728.24 49.9314 Q1728.24 41.7081 1724.84 37.0496 Q1721.43 32.3505 1715.52 32.3505 Q1709.61 32.3505 1706.2 37.0496 Q1702.84 41.7081 1702.84 49.9314 Z" fill="#000000" fill-rule="evenodd" fill-opacity="1" /><path clip-path="url(#clip700)" d="M1785.92 18.8205 L1785.92 65.8515 L1795.81 65.8515 Q1808.33 65.8515 1814.12 60.1802 Q1819.95 54.509 1819.95 42.2752 Q1819.95 30.1225 1814.12 24.4918 Q1808.33 18.8205 1795.81 18.8205 L1785.92 18.8205 M1777.74 12.096 L1794.55 12.096 Q1812.13 12.096 1820.36 19.4281 Q1828.58 26.7198 1828.58 42.2752 Q1828.58 57.9117 1820.32 65.2439 Q1812.05 72.576 1794.55 72.576 L1777.74 72.576 L1777.74 12.096 Z" fill="#000000" fill-rule="evenodd" fill-opacity="1" /><path clip-path="url(#clip700)" d="M1880.11 48.0275 L1880.11 51.6733 L1845.84 51.6733 Q1846.32 59.3701 1850.46 63.421 Q1854.63 67.4314 1862.04 67.4314 Q1866.34 67.4314 1870.35 66.3781 Q1874.4 65.3249 1878.37 63.2184 L1878.37 70.267 Q1874.36 71.9684 1870.14 72.8596 Q1865.93 73.7508 1861.6 73.7508 Q1850.74 73.7508 1844.38 67.4314 Q1838.06 61.1119 1838.06 50.3365 Q1838.06 39.1965 1844.06 32.6746 Q1850.09 26.1121 1860.3 26.1121 Q1869.45 26.1121 1874.76 32.0264 Q1880.11 37.9003 1880.11 48.0275 M1872.65 45.84 Q1872.57 39.7232 1869.21 36.0774 Q1865.89 32.4315 1860.38 32.4315 Q1854.14 32.4315 1850.37 35.9558 Q1846.65 39.4801 1846.08 45.8805 L1872.65 45.84 Z" fill="#000000" fill-rule="evenodd" fill-opacity="1" /><path clip-path="url(#clip700)" d="M1886.99 27.2059 L1894.89 27.2059 L1909.07 65.2844 L1923.25 27.2059 L1931.15 27.2059 L1914.14 72.576 L1904.01 72.576 L1886.99 27.2059 Z" fill="#000000" fill-rule="evenodd" fill-opacity="1" /><path clip-path="url(#clip700)" d="M1941.44 27.2059 L1948.89 27.2059 L1948.89 72.576 L1941.44 72.576 L1941.44 27.2059 M1941.44 9.54393 L1948.89 9.54393 L1948.89 18.9825 L1941.44 18.9825 L1941.44 9.54393 Z" fill="#000000" fill-rule="evenodd" fill-opacity="1" /><path clip-path="url(#clip700)" d="M1985.11 49.7694 Q1976.07 49.7694 1972.59 51.8354 Q1969.11 53.9013 1969.11 58.8839 Q1969.11 62.8538 1971.7 65.2034 Q1974.33 67.5124 1978.83 67.5124 Q1985.03 67.5124 1988.75 63.1374 Q1992.52 58.7219 1992.52 51.4303 L1992.52 49.7694 L1985.11 49.7694 M1999.97 46.6907 L1999.97 72.576 L1992.52 72.576 L1992.52 65.6895 Q1989.97 69.8214 1986.16 71.8063 Q1982.35 73.7508 1976.84 73.7508 Q1969.88 73.7508 1965.74 69.8619 Q1961.65 65.9325 1961.65 59.3701 Q1961.65 51.7138 1966.76 47.825 Q1971.9 43.9361 1982.07 43.9361 L1992.52 43.9361 L1992.52 43.2069 Q1992.52 38.0623 1989.12 35.2672 Q1985.76 32.4315 1979.64 32.4315 Q1975.75 32.4315 1972.06 33.3632 Q1968.38 34.295 1964.97 36.1584 L1964.97 29.2718 Q1969.07 27.692 1972.91 26.9223 Q1976.76 26.1121 1980.41 26.1121 Q1990.25 26.1121 1995.11 31.2163 Q1999.97 36.3204 1999.97 46.6907 Z" fill="#000000" fill-rule="evenodd" fill-opacity="1" /><path clip-path="url(#clip700)" d="M2022.7 14.324 L2022.7 27.2059 L2038.05 27.2059 L2038.05 32.9987 L2022.7 32.9987 L2022.7 57.6282 Q2022.7 63.1779 2024.2 64.7578 Q2025.74 66.3376 2030.4 66.3376 L2038.05 66.3376 L2038.05 72.576 L2030.4 72.576 Q2021.77 72.576 2018.49 69.3758 Q2015.21 66.1351 2015.21 57.6282 L2015.21 32.9987 L2009.74 32.9987 L2009.74 27.2059 L2015.21 27.2059 L2015.21 14.324 L2022.7 14.324 Z" fill="#000000" fill-rule="evenodd" fill-opacity="1" /><path clip-path="url(#clip700)" d="M2047.86 27.2059 L2055.31 27.2059 L2055.31 72.576 L2047.86 72.576 L2047.86 27.2059 M2047.86 9.54393 L2055.31 9.54393 L2055.31 18.9825 L2047.86 18.9825 L2047.86 9.54393 Z" fill="#000000" fill-rule="evenodd" fill-opacity="1" /><path clip-path="url(#clip700)" d="M2088.49 32.4315 Q2082.49 32.4315 2079.01 37.1306 Q2075.52 41.7891 2075.52 49.9314 Q2075.52 58.0738 2078.97 62.7728 Q2082.45 67.4314 2088.49 67.4314 Q2094.44 67.4314 2097.93 62.7323 Q2101.41 58.0333 2101.41 49.9314 Q2101.41 41.8701 2097.93 37.1711 Q2094.44 32.4315 2088.49 32.4315 M2088.49 26.1121 Q2098.21 26.1121 2103.76 32.4315 Q2109.31 38.7509 2109.31 49.9314 Q2109.31 61.0714 2103.76 67.4314 Q2098.21 73.7508 2088.49 73.7508 Q2078.72 73.7508 2073.17 67.4314 Q2067.67 61.0714 2067.67 49.9314 Q2067.67 38.7509 2073.17 32.4315 Q2078.72 26.1121 2088.49 26.1121 Z" fill="#000000" fill-rule="evenodd" fill-opacity="1" /><path clip-path="url(#clip700)" d="M2159.38 45.1919 L2159.38 72.576 L2151.92 72.576 L2151.92 45.4349 Q2151.92 38.994 2149.41 35.7938 Q2146.9 32.5936 2141.88 32.5936 Q2135.84 32.5936 2132.36 36.4419 Q2128.87 40.2903 2128.87 46.9338 L2128.87 72.576 L2121.38 72.576 L2121.38 27.2059 L2128.87 27.2059 L2128.87 34.2544 Q2131.55 30.163 2135.15 28.1376 Q2138.8 26.1121 2143.54 26.1121 Q2151.36 26.1121 2155.37 30.9732 Q2159.38 35.7938 2159.38 45.1919 Z" fill="#000000" fill-rule="evenodd" fill-opacity="1" /><polyline clip-path="url(#clip703)" style="stroke:#009af9; stroke-linecap:butt; stroke-linejoin:round; stroke-width:8; stroke-opacity:1; fill:none" points="
  1399.05,982.088 1402.17,1143.36 1405.29,1256.46 1408.4,1325.44 1411.52,1345.27 1414.64,1395.26 1417.76,1419.71 1420.88,1422.25 1423.99,1416.45 1427.11,1447.87 
  1430.23,1075.43 1433.35,1108.68 1436.46,1016.6 1439.58,1046 1442.7,1060.66 1445.82,1061.8 1448.93,1083.77 1452.05,1050.39 1455.17,1071.17 1458.29,1056.58 
  1461.4,1030.69 1464.52,1040.34 1467.64,1040.11 1470.76,1049.81 1473.87,1050.9 1476.99,1050.77 1480.11,1045.34 1483.23,1020.45 1486.34,1018.69 1489.46,1020.12 
  1492.58,1164.4 1495.7,1149.51 1498.81,1265.35 1501.93,1263.19 1505.05,1248.8 1508.17,1179.97 1511.29,1182.9 1514.4,1164.14 1517.52,1160.14 1520.64,1181.52 
  1523.76,1223.2 1526.87,1227.08 1529.99,1226.58 1533.11,1227.99 1536.23,1181.12 1539.34,1172.34 1542.46,1102.02 1545.58,1170.56 1548.7,1167.39 1551.81,1158.06 
  1554.93,1144.46 1558.05,1147.54 1561.17,1092.71 1564.28,1092.16 1567.4,1100.51 1570.52,1157.31 1573.64,1128.71 1576.75,1191.66 1579.87,1182.22 1582.99,1171.34 
  1586.11,1192.56 1589.23,1192.78 1592.34,1120.58 1595.46,1114.27 1598.58,1140.45 1601.7,1147.55 1604.81,1231.71 1607.93,1219.58 1611.05,1211.21 1614.17,1223.87 
  1617.28,1231.58 1620.4,1230.18 1623.52,1263.82 1626.64,1263.49 1629.75,1132.13 1632.87,1115.31 1635.99,1143.92 1639.11,1140.21 1642.22,1148.96 1645.34,1130.72 
  1648.46,1132.24 1651.58,1140.83 1654.69,1242.65 1657.81,1257.04 1660.93,1250.65 1664.05,1124.49 1667.17,1168.18 1670.28,1160.84 1673.4,1095.67 1676.52,1074.52 
  1679.64,1072.31 1682.75,991.387 1685.87,993.933 1688.99,985.026 1692.11,1045.63 1695.22,1052.78 1698.34,1059.78 1701.46,1060.26 1704.58,1058.53 1707.69,1078.03 
  1710.81,1078.97 1713.93,1071.33 1717.05,1061.09 1720.16,1066.14 1723.28,1071 1726.4,1200.86 1729.52,1180.78 1732.63,1078.32 1735.75,1138.49 1738.87,1096.86 
  1741.99,1092.61 1745.11,1067.63 1748.22,1049.14 1751.34,1045.31 1754.46,1021.44 1757.58,971.773 1760.69,963.683 1763.81,968.448 1766.93,967.53 1770.05,962.422 
  1773.16,940.536 1776.28,949.638 1779.4,938.705 1782.52,946.198 1785.63,924.02 1788.75,884.903 1791.87,897.492 1794.99,990.573 1798.1,900.508 1801.22,921.013 
  1804.34,899.013 1807.46,961.243 1810.57,968.591 1813.69,926.953 1816.81,894.438 1819.93,912.38 1823.05,918.619 1826.16,861.282 1829.28,853.688 1832.4,817.863 
  1835.52,751.719 1838.63,732.495 1841.75,738.05 1844.87,739.968 1847.99,752.772 1851.1,749.092 1854.22,681.728 1857.34,676.208 1860.46,719.052 1863.57,727.271 
  1866.69,746.612 1869.81,755.836 1872.93,752.926 1876.04,781.42 1879.16,827.091 1882.28,832.346 1885.4,832.84 1888.51,887.526 1891.63,876.758 1894.75,931.257 
  1897.87,1060.18 1900.98,1079.61 1904.1,1084.82 1907.22,1066.4 1910.34,1029.59 1913.46,1118.69 1916.57,1257.45 1919.69,1278.42 1922.81,1331.37 1925.93,1274.79 
  1929.04,1280.6 1932.16,1265.63 1935.28,1292.9 1938.4,1322.24 1941.51,1335.84 1944.63,1335.53 1947.75,1304.4 1950.87,1296.39 1953.98,1264.9 1957.1,1254.16 
  1960.22,1251.49 1963.34,1207.37 1966.45,1234.77 1969.57,1242.8 1972.69,1288.34 1975.81,1289.18 1978.92,1288.04 1982.04,1280.41 1985.16,1288.22 1988.28,1336.6 
  1991.4,1354.93 1994.51,1365.84 1997.63,1354.66 2000.75,1351.78 2003.87,1358.08 2006.98,1360.07 2010.1,1398.66 2013.22,1444.4 2016.34,1390.37 2019.45,1398.66 
  2022.57,1270.9 2025.69,1268.92 2028.81,1268.04 2031.92,1262.23 2035.04,1246.31 2038.16,1231.75 2041.28,1210.04 2044.39,1177.41 2047.51,1202.91 2050.63,1190.08 
  2053.75,1069.54 2056.86,1059.41 2059.98,1063.85 2063.1,1043.63 2066.22,1044.85 2069.34,1033.09 2072.45,1025.2 2075.57,1026.76 2078.69,965.401 2081.81,866.94 
  2084.92,933.811 2088.04,942.189 2091.16,941.746 2094.28,936.849 2097.39,384.676 2100.51,369.904 2103.63,162.047 2106.75,178.32 2109.86,168.939 2112.98,177.927 
  2116.1,189.846 2119.22,191.188 2122.33,194.43 2125.45,220.715 2128.57,217.832 2131.69,223.701 2134.8,226.567 2137.92,235.569 2141.04,225.152 2144.16,236.124 
  2147.28,228.206 2150.39,226.114 2153.51,227.295 2156.63,227.786 2159.75,559.238 2162.86,569.241 2165.98,1098.8 2169.1,1092.27 2172.22,1091.22 2175.33,1098.79 
  2178.45,1164.22 2181.57,1300.51 2184.69,1304.08 2187.8,1354.7 2190.92,1359.54 2194.04,929.643 2197.16,933.586 2200.27,956.445 2203.39,962.895 2206.51,921.412 
  2209.63,909.284 2212.74,908.714 2215.86,908.921 2218.98,918.205 2222.1,918.101 2225.22,919.844 2228.33,917.63 2231.45,939.337 2234.57,949.428 2237.69,951.04 
  2240.8,925.773 2243.92,922.157 2247.04,922.65 2250.16,925.65 2253.27,905.457 2256.39,1335.37 2259.51,1337.36 2262.63,1286.54 2265.74,1284.59 2268.86,1364.38 
  2271.98,1349.17 2275.1,1326.71 2278.21,1325.66 2281.33,1289.3 2284.45,1277.85 2287.57,1274.46 2290.68,1276.93 2293.8,1265.4 2296.92,1283.29 2300.04,1268.41 
  2303.15,1332.46 2306.27,1333.43 2309.39,1333.44 2312.51,1314.64 2315.63,1346.29 2318.74,1345.97 2321.86,1357.79 2324.98,1400.69 
  "/>
</svg>
