<?xml version="1.0" encoding="utf-8"?>
<svg xmlns="http://www.w3.org/2000/svg" xmlns:xlink="http://www.w3.org/1999/xlink" width="600" height="400" viewBox="0 0 2400 1600">
<defs>
  <clipPath id="clip400">
    <rect x="0" y="0" width="2400" height="1600"/>
  </clipPath>
</defs>
<path clip-path="url(#clip400)" d="
M0 1600 L2400 1600 L2400 0 L0 0  Z
  " fill="#ffffff" fill-rule="evenodd" fill-opacity="1"/>
<defs>
  <clipPath id="clip401">
    <rect x="480" y="0" width="1681" height="1600"/>
  </clipPath>
</defs>
<path clip-path="url(#clip400)" d="
M340.699 1486.45 L2352.76 1486.45 L2352.76 123.472 L340.699 123.472  Z
  " fill="#ffffff" fill-rule="evenodd" fill-opacity="1"/>
<defs>
  <clipPath id="clip402">
    <rect x="340" y="123" width="2013" height="1364"/>
  </clipPath>
</defs>
<polyline clip-path="url(#clip402)" style="stroke:#000000; stroke-linecap:butt; stroke-linejoin:round; stroke-width:2; stroke-opacity:0.1; fill:none" points="
  359.554,1486.45 359.554,123.472 
  "/>
<polyline clip-path="url(#clip402)" style="stroke:#000000; stroke-linecap:butt; stroke-linejoin:round; stroke-width:2; stroke-opacity:0.1; fill:none" points="
  943.605,1486.45 943.605,123.472 
  "/>
<polyline clip-path="url(#clip402)" style="stroke:#000000; stroke-linecap:butt; stroke-linejoin:round; stroke-width:2; stroke-opacity:0.1; fill:none" points="
  1527.66,1486.45 1527.66,123.472 
  "/>
<polyline clip-path="url(#clip402)" style="stroke:#000000; stroke-linecap:butt; stroke-linejoin:round; stroke-width:2; stroke-opacity:0.1; fill:none" points="
  2105.36,1486.45 2105.36,123.472 
  "/>
<polyline clip-path="url(#clip400)" style="stroke:#000000; stroke-linecap:butt; stroke-linejoin:round; stroke-width:4; stroke-opacity:1; fill:none" points="
  340.699,1486.45 2352.76,1486.45 
  "/>
<polyline clip-path="url(#clip400)" style="stroke:#000000; stroke-linecap:butt; stroke-linejoin:round; stroke-width:4; stroke-opacity:1; fill:none" points="
  359.554,1486.45 359.554,1467.55 
  "/>
<polyline clip-path="url(#clip400)" style="stroke:#000000; stroke-linecap:butt; stroke-linejoin:round; stroke-width:4; stroke-opacity:1; fill:none" points="
  943.605,1486.45 943.605,1467.55 
  "/>
<polyline clip-path="url(#clip400)" style="stroke:#000000; stroke-linecap:butt; stroke-linejoin:round; stroke-width:4; stroke-opacity:1; fill:none" points="
  1527.66,1486.45 1527.66,1467.55 
  "/>
<polyline clip-path="url(#clip400)" style="stroke:#000000; stroke-linecap:butt; stroke-linejoin:round; stroke-width:4; stroke-opacity:1; fill:none" points="
  2105.36,1486.45 2105.36,1467.55 
  "/>
<path clip-path="url(#clip400)" d="M231.348 1544.91 L247.668 1544.91 L247.668 1548.85 L225.723 1548.85 L225.723 1544.91 Q228.385 1542.16 232.969 1537.53 Q237.575 1532.88 238.756 1531.53 Q241.001 1529.01 241.881 1527.27 Q242.783 1525.51 242.783 1523.82 Q242.783 1521.07 240.839 1519.33 Q238.918 1517.6 235.816 1517.6 Q233.617 1517.6 231.163 1518.36 Q228.733 1519.13 225.955 1520.68 L225.955 1515.95 Q228.779 1514.82 231.233 1514.24 Q233.686 1513.66 235.723 1513.66 Q241.094 1513.66 244.288 1516.35 Q247.482 1519.03 247.482 1523.52 Q247.482 1525.65 246.672 1527.57 Q245.885 1529.47 243.779 1532.07 Q243.2 1532.74 240.098 1535.95 Q236.996 1539.15 231.348 1544.91 Z" fill="#000000" fill-rule="evenodd" fill-opacity="1" /><path clip-path="url(#clip400)" d="M267.482 1517.37 Q263.871 1517.37 262.043 1520.93 Q260.237 1524.47 260.237 1531.6 Q260.237 1538.71 262.043 1542.27 Q263.871 1545.82 267.482 1545.82 Q271.117 1545.82 272.922 1542.27 Q274.751 1538.71 274.751 1531.6 Q274.751 1524.47 272.922 1520.93 Q271.117 1517.37 267.482 1517.37 M267.482 1513.66 Q273.293 1513.66 276.348 1518.27 Q279.427 1522.85 279.427 1531.6 Q279.427 1540.33 276.348 1544.94 Q273.293 1549.52 267.482 1549.52 Q261.672 1549.52 258.594 1544.94 Q255.538 1540.33 255.538 1531.6 Q255.538 1522.85 258.594 1518.27 Q261.672 1513.66 267.482 1513.66 Z" fill="#000000" fill-rule="evenodd" fill-opacity="1" /><path clip-path="url(#clip400)" d="M291.672 1544.91 L307.991 1544.91 L307.991 1548.85 L286.047 1548.85 L286.047 1544.91 Q288.709 1542.16 293.292 1537.53 Q297.899 1532.88 299.079 1531.53 Q301.325 1529.01 302.204 1527.27 Q303.107 1525.51 303.107 1523.82 Q303.107 1521.07 301.163 1519.33 Q299.241 1517.6 296.14 1517.6 Q293.941 1517.6 291.487 1518.36 Q289.056 1519.13 286.279 1520.68 L286.279 1515.95 Q289.103 1514.82 291.556 1514.24 Q294.01 1513.66 296.047 1513.66 Q301.417 1513.66 304.612 1516.35 Q307.806 1519.03 307.806 1523.52 Q307.806 1525.65 306.996 1527.57 Q306.209 1529.47 304.103 1532.07 Q303.524 1532.74 300.422 1535.95 Q297.32 1539.15 291.672 1544.91 Z" fill="#000000" fill-rule="evenodd" fill-opacity="1" /><path clip-path="url(#clip400)" d="M318.616 1544.91 L326.255 1544.91 L326.255 1518.55 L317.945 1520.21 L317.945 1515.95 L326.209 1514.29 L330.885 1514.29 L330.885 1544.91 L338.524 1544.91 L338.524 1548.85 L318.616 1548.85 L318.616 1544.91 Z" fill="#000000" fill-rule="evenodd" fill-opacity="1" /><path clip-path="url(#clip400)" d="M345.213 1533.96 L357.69 1533.96 L357.69 1537.76 L345.213 1537.76 L345.213 1533.96 Z" fill="#000000" fill-rule="evenodd" fill-opacity="1" /><path clip-path="url(#clip400)" d="M375.074 1517.37 Q371.463 1517.37 369.635 1520.93 Q367.829 1524.47 367.829 1531.6 Q367.829 1538.71 369.635 1542.27 Q371.463 1545.82 375.074 1545.82 Q378.709 1545.82 380.514 1542.27 Q382.343 1538.71 382.343 1531.6 Q382.343 1524.47 380.514 1520.93 Q378.709 1517.37 375.074 1517.37 M375.074 1513.66 Q380.885 1513.66 383.94 1518.27 Q387.019 1522.85 387.019 1531.6 Q387.019 1540.33 383.94 1544.94 Q380.885 1549.52 375.074 1549.52 Q369.264 1549.52 366.186 1544.94 Q363.13 1540.33 363.13 1531.6 Q363.13 1522.85 366.186 1518.27 Q369.264 1513.66 375.074 1513.66 Z" fill="#000000" fill-rule="evenodd" fill-opacity="1" /><path clip-path="url(#clip400)" d="M409.403 1530.21 Q412.759 1530.93 414.634 1533.2 Q416.533 1535.47 416.533 1538.8 Q416.533 1543.92 413.014 1546.72 Q409.496 1549.52 403.014 1549.52 Q400.838 1549.52 398.523 1549.08 Q396.232 1548.66 393.778 1547.81 L393.778 1543.29 Q395.722 1544.43 398.037 1545.01 Q400.352 1545.58 402.875 1545.58 Q407.273 1545.58 409.565 1543.85 Q411.88 1542.11 411.88 1538.8 Q411.88 1535.75 409.727 1534.03 Q407.597 1532.3 403.778 1532.3 L399.75 1532.3 L399.75 1528.45 L403.963 1528.45 Q407.412 1528.45 409.241 1527.09 Q411.07 1525.7 411.07 1523.11 Q411.07 1520.45 409.171 1519.03 Q407.296 1517.6 403.778 1517.6 Q401.857 1517.6 399.658 1518.01 Q397.459 1518.43 394.82 1519.31 L394.82 1515.14 Q397.482 1514.4 399.796 1514.03 Q402.134 1513.66 404.195 1513.66 Q409.519 1513.66 412.62 1516.09 Q415.722 1518.5 415.722 1522.62 Q415.722 1525.49 414.079 1527.48 Q412.435 1529.45 409.403 1530.21 Z" fill="#000000" fill-rule="evenodd" fill-opacity="1" /><path clip-path="url(#clip400)" d="M422.644 1533.96 L435.12 1533.96 L435.12 1537.76 L422.644 1537.76 L422.644 1533.96 Z" fill="#000000" fill-rule="evenodd" fill-opacity="1" /><path clip-path="url(#clip400)" d="M452.505 1517.37 Q448.893 1517.37 447.065 1520.93 Q445.259 1524.47 445.259 1531.6 Q445.259 1538.71 447.065 1542.27 Q448.893 1545.82 452.505 1545.82 Q456.139 1545.82 457.944 1542.27 Q459.773 1538.71 459.773 1531.6 Q459.773 1524.47 457.944 1520.93 Q456.139 1517.37 452.505 1517.37 M452.505 1513.66 Q458.315 1513.66 461.37 1518.27 Q464.449 1522.85 464.449 1531.6 Q464.449 1540.33 461.37 1544.94 Q458.315 1549.52 452.505 1549.52 Q446.694 1549.52 443.616 1544.94 Q440.56 1540.33 440.56 1531.6 Q440.56 1522.85 443.616 1518.27 Q446.694 1513.66 452.505 1513.66 Z" fill="#000000" fill-rule="evenodd" fill-opacity="1" /><path clip-path="url(#clip400)" d="M473.477 1544.91 L481.116 1544.91 L481.116 1518.55 L472.805 1520.21 L472.805 1515.95 L481.069 1514.29 L485.745 1514.29 L485.745 1544.91 L493.384 1544.91 L493.384 1548.85 L473.477 1548.85 L473.477 1544.91 Z" fill="#000000" fill-rule="evenodd" fill-opacity="1" /><path clip-path="url(#clip400)" d="M815.4 1544.91 L831.719 1544.91 L831.719 1548.85 L809.775 1548.85 L809.775 1544.91 Q812.437 1542.16 817.02 1537.53 Q821.627 1532.88 822.807 1531.53 Q825.052 1529.01 825.932 1527.27 Q826.835 1525.51 826.835 1523.82 Q826.835 1521.07 824.89 1519.33 Q822.969 1517.6 819.867 1517.6 Q817.668 1517.6 815.215 1518.36 Q812.784 1519.13 810.006 1520.68 L810.006 1515.95 Q812.83 1514.82 815.284 1514.24 Q817.738 1513.66 819.775 1513.66 Q825.145 1513.66 828.339 1516.35 Q831.534 1519.03 831.534 1523.52 Q831.534 1525.65 830.724 1527.57 Q829.937 1529.47 827.83 1532.07 Q827.251 1532.74 824.15 1535.95 Q821.048 1539.15 815.4 1544.91 Z" fill="#000000" fill-rule="evenodd" fill-opacity="1" /><path clip-path="url(#clip400)" d="M851.534 1517.37 Q847.923 1517.37 846.094 1520.93 Q844.288 1524.47 844.288 1531.6 Q844.288 1538.71 846.094 1542.27 Q847.923 1545.82 851.534 1545.82 Q855.168 1545.82 856.974 1542.27 Q858.802 1538.71 858.802 1531.6 Q858.802 1524.47 856.974 1520.93 Q855.168 1517.37 851.534 1517.37 M851.534 1513.66 Q857.344 1513.66 860.399 1518.27 Q863.478 1522.85 863.478 1531.6 Q863.478 1540.33 860.399 1544.94 Q857.344 1549.52 851.534 1549.52 Q845.724 1549.52 842.645 1544.94 Q839.589 1540.33 839.589 1531.6 Q839.589 1522.85 842.645 1518.27 Q845.724 1513.66 851.534 1513.66 Z" fill="#000000" fill-rule="evenodd" fill-opacity="1" /><path clip-path="url(#clip400)" d="M875.723 1544.91 L892.043 1544.91 L892.043 1548.85 L870.098 1548.85 L870.098 1544.91 Q872.76 1542.16 877.344 1537.53 Q881.95 1532.88 883.131 1531.53 Q885.376 1529.01 886.256 1527.27 Q887.159 1525.51 887.159 1523.82 Q887.159 1521.07 885.214 1519.33 Q883.293 1517.6 880.191 1517.6 Q877.992 1517.6 875.538 1518.36 Q873.108 1519.13 870.33 1520.68 L870.33 1515.95 Q873.154 1514.82 875.608 1514.24 Q878.061 1513.66 880.098 1513.66 Q885.469 1513.66 888.663 1516.35 Q891.858 1519.03 891.858 1523.52 Q891.858 1525.65 891.047 1527.57 Q890.26 1529.47 888.154 1532.07 Q887.575 1532.74 884.473 1535.95 Q881.372 1539.15 875.723 1544.91 Z" fill="#000000" fill-rule="evenodd" fill-opacity="1" /><path clip-path="url(#clip400)" d="M902.668 1544.91 L910.307 1544.91 L910.307 1518.55 L901.996 1520.21 L901.996 1515.95 L910.26 1514.29 L914.936 1514.29 L914.936 1544.91 L922.575 1544.91 L922.575 1548.85 L902.668 1548.85 L902.668 1544.91 Z" fill="#000000" fill-rule="evenodd" fill-opacity="1" /><path clip-path="url(#clip400)" d="M929.265 1533.96 L941.742 1533.96 L941.742 1537.76 L929.265 1537.76 L929.265 1533.96 Z" fill="#000000" fill-rule="evenodd" fill-opacity="1" /><path clip-path="url(#clip400)" d="M959.126 1517.37 Q955.515 1517.37 953.686 1520.93 Q951.88 1524.47 951.88 1531.6 Q951.88 1538.71 953.686 1542.27 Q955.515 1545.82 959.126 1545.82 Q962.76 1545.82 964.566 1542.27 Q966.394 1538.71 966.394 1531.6 Q966.394 1524.47 964.566 1520.93 Q962.76 1517.37 959.126 1517.37 M959.126 1513.66 Q964.936 1513.66 967.991 1518.27 Q971.07 1522.85 971.07 1531.6 Q971.07 1540.33 967.991 1544.94 Q964.936 1549.52 959.126 1549.52 Q953.316 1549.52 950.237 1544.94 Q947.181 1540.33 947.181 1531.6 Q947.181 1522.85 950.237 1518.27 Q953.316 1513.66 959.126 1513.66 Z" fill="#000000" fill-rule="evenodd" fill-opacity="1" /><path clip-path="url(#clip400)" d="M989.866 1529.7 Q986.718 1529.7 984.866 1531.86 Q983.038 1534.01 983.038 1537.76 Q983.038 1541.49 984.866 1543.66 Q986.718 1545.82 989.866 1545.82 Q993.014 1545.82 994.843 1543.66 Q996.695 1541.49 996.695 1537.76 Q996.695 1534.01 994.843 1531.86 Q993.014 1529.7 989.866 1529.7 M999.149 1515.05 L999.149 1519.31 Q997.389 1518.48 995.584 1518.04 Q993.802 1517.6 992.042 1517.6 Q987.413 1517.6 984.959 1520.72 Q982.528 1523.85 982.181 1530.17 Q983.547 1528.15 985.607 1527.09 Q987.667 1526 990.144 1526 Q995.352 1526 998.362 1529.17 Q1001.39 1532.32 1001.39 1537.76 Q1001.39 1543.08 998.246 1546.3 Q995.098 1549.52 989.866 1549.52 Q983.871 1549.52 980.7 1544.94 Q977.528 1540.33 977.528 1531.6 Q977.528 1523.41 981.417 1518.55 Q985.306 1513.66 991.857 1513.66 Q993.616 1513.66 995.399 1514.01 Q997.204 1514.36 999.149 1515.05 Z" fill="#000000" fill-rule="evenodd" fill-opacity="1" /><path clip-path="url(#clip400)" d="M1006.69 1533.96 L1019.17 1533.96 L1019.17 1537.76 L1006.69 1537.76 L1006.69 1533.96 Z" fill="#000000" fill-rule="evenodd" fill-opacity="1" /><path clip-path="url(#clip400)" d="M1036.56 1517.37 Q1032.94 1517.37 1031.12 1520.93 Q1029.31 1524.47 1029.31 1531.6 Q1029.31 1538.71 1031.12 1542.27 Q1032.94 1545.82 1036.56 1545.82 Q1040.19 1545.82 1042 1542.27 Q1043.82 1538.71 1043.82 1531.6 Q1043.82 1524.47 1042 1520.93 Q1040.19 1517.37 1036.56 1517.37 M1036.56 1513.66 Q1042.37 1513.66 1045.42 1518.27 Q1048.5 1522.85 1048.5 1531.6 Q1048.5 1540.33 1045.42 1544.94 Q1042.37 1549.52 1036.56 1549.52 Q1030.75 1549.52 1027.67 1544.94 Q1024.61 1540.33 1024.61 1531.6 Q1024.61 1522.85 1027.67 1518.27 Q1030.75 1513.66 1036.56 1513.66 Z" fill="#000000" fill-rule="evenodd" fill-opacity="1" /><path clip-path="url(#clip400)" d="M1057.53 1544.91 L1065.17 1544.91 L1065.17 1518.55 L1056.86 1520.21 L1056.86 1515.95 L1065.12 1514.29 L1069.8 1514.29 L1069.8 1544.91 L1077.44 1544.91 L1077.44 1548.85 L1057.53 1548.85 L1057.53 1544.91 Z" fill="#000000" fill-rule="evenodd" fill-opacity="1" /><path clip-path="url(#clip400)" d="M1399.45 1544.91 L1415.77 1544.91 L1415.77 1548.85 L1393.83 1548.85 L1393.83 1544.91 Q1396.49 1542.16 1401.07 1537.53 Q1405.68 1532.88 1406.86 1531.53 Q1409.1 1529.01 1409.98 1527.27 Q1410.89 1525.51 1410.89 1523.82 Q1410.89 1521.07 1408.94 1519.33 Q1407.02 1517.6 1403.92 1517.6 Q1401.72 1517.6 1399.27 1518.36 Q1396.84 1519.13 1394.06 1520.68 L1394.06 1515.95 Q1396.88 1514.82 1399.34 1514.24 Q1401.79 1513.66 1403.83 1513.66 Q1409.2 1513.66 1412.39 1516.35 Q1415.59 1519.03 1415.59 1523.52 Q1415.59 1525.65 1414.78 1527.57 Q1413.99 1529.47 1411.88 1532.07 Q1411.3 1532.74 1408.2 1535.95 Q1405.1 1539.15 1399.45 1544.91 Z" fill="#000000" fill-rule="evenodd" fill-opacity="1" /><path clip-path="url(#clip400)" d="M1435.59 1517.37 Q1431.97 1517.37 1430.15 1520.93 Q1428.34 1524.47 1428.34 1531.6 Q1428.34 1538.71 1430.15 1542.27 Q1431.97 1545.82 1435.59 1545.82 Q1439.22 1545.82 1441.02 1542.27 Q1442.85 1538.71 1442.85 1531.6 Q1442.85 1524.47 1441.02 1520.93 Q1439.22 1517.37 1435.59 1517.37 M1435.59 1513.66 Q1441.4 1513.66 1444.45 1518.27 Q1447.53 1522.85 1447.53 1531.6 Q1447.53 1540.33 1444.45 1544.94 Q1441.4 1549.52 1435.59 1549.52 Q1429.77 1549.52 1426.7 1544.94 Q1423.64 1540.33 1423.64 1531.6 Q1423.64 1522.85 1426.7 1518.27 Q1429.77 1513.66 1435.59 1513.66 Z" fill="#000000" fill-rule="evenodd" fill-opacity="1" /><path clip-path="url(#clip400)" d="M1459.77 1544.91 L1476.09 1544.91 L1476.09 1548.85 L1454.15 1548.85 L1454.15 1544.91 Q1456.81 1542.16 1461.4 1537.53 Q1466 1532.88 1467.18 1531.53 Q1469.43 1529.01 1470.31 1527.27 Q1471.21 1525.51 1471.21 1523.82 Q1471.21 1521.07 1469.27 1519.33 Q1467.34 1517.6 1464.24 1517.6 Q1462.04 1517.6 1459.59 1518.36 Q1457.16 1519.13 1454.38 1520.68 L1454.38 1515.95 Q1457.21 1514.82 1459.66 1514.24 Q1462.11 1513.66 1464.15 1513.66 Q1469.52 1513.66 1472.71 1516.35 Q1475.91 1519.03 1475.91 1523.52 Q1475.91 1525.65 1475.1 1527.57 Q1474.31 1529.47 1472.21 1532.07 Q1471.63 1532.74 1468.52 1535.95 Q1465.42 1539.15 1459.77 1544.91 Z" fill="#000000" fill-rule="evenodd" fill-opacity="1" /><path clip-path="url(#clip400)" d="M1486.72 1544.91 L1494.36 1544.91 L1494.36 1518.55 L1486.05 1520.21 L1486.05 1515.95 L1494.31 1514.29 L1498.99 1514.29 L1498.99 1544.91 L1506.63 1544.91 L1506.63 1548.85 L1486.72 1548.85 L1486.72 1544.91 Z" fill="#000000" fill-rule="evenodd" fill-opacity="1" /><path clip-path="url(#clip400)" d="M1513.32 1533.96 L1525.79 1533.96 L1525.79 1537.76 L1513.32 1537.76 L1513.32 1533.96 Z" fill="#000000" fill-rule="evenodd" fill-opacity="1" /><path clip-path="url(#clip400)" d="M1543.18 1517.37 Q1539.57 1517.37 1537.74 1520.93 Q1535.93 1524.47 1535.93 1531.6 Q1535.93 1538.71 1537.74 1542.27 Q1539.57 1545.82 1543.18 1545.82 Q1546.81 1545.82 1548.62 1542.27 Q1550.45 1538.71 1550.45 1531.6 Q1550.45 1524.47 1548.62 1520.93 Q1546.81 1517.37 1543.18 1517.37 M1543.18 1513.66 Q1548.99 1513.66 1552.04 1518.27 Q1555.12 1522.85 1555.12 1531.6 Q1555.12 1540.33 1552.04 1544.94 Q1548.99 1549.52 1543.18 1549.52 Q1537.37 1549.52 1534.29 1544.94 Q1531.23 1540.33 1531.23 1531.6 Q1531.23 1522.85 1534.29 1518.27 Q1537.37 1513.66 1543.18 1513.66 Z" fill="#000000" fill-rule="evenodd" fill-opacity="1" /><path clip-path="url(#clip400)" d="M1563.48 1548.13 L1563.48 1543.87 Q1565.24 1544.7 1567.04 1545.14 Q1568.85 1545.58 1570.58 1545.58 Q1575.21 1545.58 1577.64 1542.48 Q1580.1 1539.36 1580.45 1533.01 Q1579.1 1535.01 1577.04 1536.07 Q1574.98 1537.13 1572.48 1537.13 Q1567.3 1537.13 1564.26 1534.01 Q1561.26 1530.86 1561.26 1525.42 Q1561.26 1520.1 1564.4 1516.88 Q1567.55 1513.66 1572.78 1513.66 Q1578.78 1513.66 1581.93 1518.27 Q1585.1 1522.85 1585.1 1531.6 Q1585.1 1539.77 1581.21 1544.66 Q1577.34 1549.52 1570.79 1549.52 Q1569.03 1549.52 1567.23 1549.17 Q1565.42 1548.82 1563.48 1548.13 M1572.78 1533.48 Q1575.93 1533.48 1577.76 1531.32 Q1579.61 1529.17 1579.61 1525.42 Q1579.61 1521.7 1577.76 1519.54 Q1575.93 1517.37 1572.78 1517.37 Q1569.64 1517.37 1567.78 1519.54 Q1565.95 1521.7 1565.95 1525.42 Q1565.95 1529.17 1567.78 1531.32 Q1569.64 1533.48 1572.78 1533.48 Z" fill="#000000" fill-rule="evenodd" fill-opacity="1" /><path clip-path="url(#clip400)" d="M1590.75 1533.96 L1603.22 1533.96 L1603.22 1537.76 L1590.75 1537.76 L1590.75 1533.96 Z" fill="#000000" fill-rule="evenodd" fill-opacity="1" /><path clip-path="url(#clip400)" d="M1620.61 1517.37 Q1617 1517.37 1615.17 1520.93 Q1613.36 1524.47 1613.36 1531.6 Q1613.36 1538.71 1615.17 1542.27 Q1617 1545.82 1620.61 1545.82 Q1624.24 1545.82 1626.05 1542.27 Q1627.88 1538.71 1627.88 1531.6 Q1627.88 1524.47 1626.05 1520.93 Q1624.24 1517.37 1620.61 1517.37 M1620.61 1513.66 Q1626.42 1513.66 1629.47 1518.27 Q1632.55 1522.85 1632.55 1531.6 Q1632.55 1540.33 1629.47 1544.94 Q1626.42 1549.52 1620.61 1549.52 Q1614.8 1549.52 1611.72 1544.94 Q1608.66 1540.33 1608.66 1531.6 Q1608.66 1522.85 1611.72 1518.27 Q1614.8 1513.66 1620.61 1513.66 Z" fill="#000000" fill-rule="evenodd" fill-opacity="1" /><path clip-path="url(#clip400)" d="M1641.58 1544.91 L1649.22 1544.91 L1649.22 1518.55 L1640.91 1520.21 L1640.91 1515.95 L1649.17 1514.29 L1653.85 1514.29 L1653.85 1544.91 L1661.49 1544.91 L1661.49 1548.85 L1641.58 1548.85 L1641.58 1544.91 Z" fill="#000000" fill-rule="evenodd" fill-opacity="1" /><path clip-path="url(#clip400)" d="M1977.15 1544.91 L1993.47 1544.91 L1993.47 1548.85 L1971.53 1548.85 L1971.53 1544.91 Q1974.19 1542.16 1978.77 1537.53 Q1983.38 1532.88 1984.56 1531.53 Q1986.81 1529.01 1987.69 1527.27 Q1988.59 1525.51 1988.59 1523.82 Q1988.59 1521.07 1986.64 1519.33 Q1984.72 1517.6 1981.62 1517.6 Q1979.42 1517.6 1976.97 1518.36 Q1974.54 1519.13 1971.76 1520.68 L1971.76 1515.95 Q1974.58 1514.82 1977.04 1514.24 Q1979.49 1513.66 1981.53 1513.66 Q1986.9 1513.66 1990.09 1516.35 Q1993.29 1519.03 1993.29 1523.52 Q1993.29 1525.65 1992.48 1527.57 Q1991.69 1529.47 1989.58 1532.07 Q1989.01 1532.74 1985.9 1535.95 Q1982.8 1539.15 1977.15 1544.91 Z" fill="#000000" fill-rule="evenodd" fill-opacity="1" /><path clip-path="url(#clip400)" d="M2013.29 1517.37 Q2009.68 1517.37 2007.85 1520.93 Q2006.04 1524.47 2006.04 1531.6 Q2006.04 1538.71 2007.85 1542.27 Q2009.68 1545.82 2013.29 1545.82 Q2016.92 1545.82 2018.73 1542.27 Q2020.56 1538.71 2020.56 1531.6 Q2020.56 1524.47 2018.73 1520.93 Q2016.92 1517.37 2013.29 1517.37 M2013.29 1513.66 Q2019.1 1513.66 2022.15 1518.27 Q2025.23 1522.85 2025.23 1531.6 Q2025.23 1540.33 2022.15 1544.94 Q2019.1 1549.52 2013.29 1549.52 Q2007.48 1549.52 2004.4 1544.94 Q2001.34 1540.33 2001.34 1531.6 Q2001.34 1522.85 2004.4 1518.27 Q2007.48 1513.66 2013.29 1513.66 Z" fill="#000000" fill-rule="evenodd" fill-opacity="1" /><path clip-path="url(#clip400)" d="M2037.48 1544.91 L2053.8 1544.91 L2053.8 1548.85 L2031.85 1548.85 L2031.85 1544.91 Q2034.51 1542.16 2039.1 1537.53 Q2043.7 1532.88 2044.89 1531.53 Q2047.13 1529.01 2048.01 1527.27 Q2048.91 1525.51 2048.91 1523.82 Q2048.91 1521.07 2046.97 1519.33 Q2045.05 1517.6 2041.95 1517.6 Q2039.75 1517.6 2037.29 1518.36 Q2034.86 1519.13 2032.08 1520.68 L2032.08 1515.95 Q2034.91 1514.82 2037.36 1514.24 Q2039.82 1513.66 2041.85 1513.66 Q2047.22 1513.66 2050.42 1516.35 Q2053.61 1519.03 2053.61 1523.52 Q2053.61 1525.65 2052.8 1527.57 Q2052.01 1529.47 2049.91 1532.07 Q2049.33 1532.74 2046.23 1535.95 Q2043.13 1539.15 2037.48 1544.91 Z" fill="#000000" fill-rule="evenodd" fill-opacity="1" /><path clip-path="url(#clip400)" d="M2064.42 1544.91 L2072.06 1544.91 L2072.06 1518.55 L2063.75 1520.21 L2063.75 1515.95 L2072.01 1514.29 L2076.69 1514.29 L2076.69 1544.91 L2084.33 1544.91 L2084.33 1548.85 L2064.42 1548.85 L2064.42 1544.91 Z" fill="#000000" fill-rule="evenodd" fill-opacity="1" /><path clip-path="url(#clip400)" d="M2091.02 1533.96 L2103.5 1533.96 L2103.5 1537.76 L2091.02 1537.76 L2091.02 1533.96 Z" fill="#000000" fill-rule="evenodd" fill-opacity="1" /><path clip-path="url(#clip400)" d="M2111.69 1544.91 L2119.33 1544.91 L2119.33 1518.55 L2111.02 1520.21 L2111.02 1515.95 L2119.28 1514.29 L2123.96 1514.29 L2123.96 1544.91 L2131.6 1544.91 L2131.6 1548.85 L2111.69 1548.85 L2111.69 1544.91 Z" fill="#000000" fill-rule="evenodd" fill-opacity="1" /><path clip-path="url(#clip400)" d="M2145.07 1544.91 L2161.39 1544.91 L2161.39 1548.85 L2139.44 1548.85 L2139.44 1544.91 Q2142.11 1542.16 2146.69 1537.53 Q2151.3 1532.88 2152.48 1531.53 Q2154.72 1529.01 2155.6 1527.27 Q2156.5 1525.51 2156.5 1523.82 Q2156.5 1521.07 2154.56 1519.33 Q2152.64 1517.6 2149.54 1517.6 Q2147.34 1517.6 2144.88 1518.36 Q2142.45 1519.13 2139.68 1520.68 L2139.68 1515.95 Q2142.5 1514.82 2144.95 1514.24 Q2147.41 1513.66 2149.44 1513.66 Q2154.82 1513.66 2158.01 1516.35 Q2161.2 1519.03 2161.2 1523.52 Q2161.2 1525.65 2160.39 1527.57 Q2159.61 1529.47 2157.5 1532.07 Q2156.92 1532.74 2153.82 1535.95 Q2150.72 1539.15 2145.07 1544.91 Z" fill="#000000" fill-rule="evenodd" fill-opacity="1" /><path clip-path="url(#clip400)" d="M2168.45 1533.96 L2180.93 1533.96 L2180.93 1537.76 L2168.45 1537.76 L2168.45 1533.96 Z" fill="#000000" fill-rule="evenodd" fill-opacity="1" /><path clip-path="url(#clip400)" d="M2198.31 1517.37 Q2194.7 1517.37 2192.87 1520.93 Q2191.06 1524.47 2191.06 1531.6 Q2191.06 1538.71 2192.87 1542.27 Q2194.7 1545.82 2198.31 1545.82 Q2201.94 1545.82 2203.75 1542.27 Q2205.58 1538.71 2205.58 1531.6 Q2205.58 1524.47 2203.75 1520.93 Q2201.94 1517.37 2198.31 1517.37 M2198.31 1513.66 Q2204.12 1513.66 2207.18 1518.27 Q2210.25 1522.85 2210.25 1531.6 Q2210.25 1540.33 2207.18 1544.94 Q2204.12 1549.52 2198.31 1549.52 Q2192.5 1549.52 2189.42 1544.94 Q2186.37 1540.33 2186.37 1531.6 Q2186.37 1522.85 2189.42 1518.27 Q2192.5 1513.66 2198.31 1513.66 Z" fill="#000000" fill-rule="evenodd" fill-opacity="1" /><path clip-path="url(#clip400)" d="M2219.28 1544.91 L2226.92 1544.91 L2226.92 1518.55 L2218.61 1520.21 L2218.61 1515.95 L2226.87 1514.29 L2231.55 1514.29 L2231.55 1544.91 L2239.19 1544.91 L2239.19 1548.85 L2219.28 1548.85 L2219.28 1544.91 Z" fill="#000000" fill-rule="evenodd" fill-opacity="1" /><polyline clip-path="url(#clip402)" style="stroke:#000000; stroke-linecap:butt; stroke-linejoin:round; stroke-width:2; stroke-opacity:0.1; fill:none" points="
  340.699,1440.93 2352.76,1440.93 
  "/>
<polyline clip-path="url(#clip402)" style="stroke:#000000; stroke-linecap:butt; stroke-linejoin:round; stroke-width:2; stroke-opacity:0.1; fill:none" points="
  340.699,1100.39 2352.76,1100.39 
  "/>
<polyline clip-path="url(#clip402)" style="stroke:#000000; stroke-linecap:butt; stroke-linejoin:round; stroke-width:2; stroke-opacity:0.1; fill:none" points="
  340.699,759.856 2352.76,759.856 
  "/>
<polyline clip-path="url(#clip402)" style="stroke:#000000; stroke-linecap:butt; stroke-linejoin:round; stroke-width:2; stroke-opacity:0.1; fill:none" points="
  340.699,419.318 2352.76,419.318 
  "/>
<polyline clip-path="url(#clip400)" style="stroke:#000000; stroke-linecap:butt; stroke-linejoin:round; stroke-width:4; stroke-opacity:1; fill:none" points="
  340.699,1486.45 340.699,123.472 
  "/>
<polyline clip-path="url(#clip400)" style="stroke:#000000; stroke-linecap:butt; stroke-linejoin:round; stroke-width:4; stroke-opacity:1; fill:none" points="
  340.699,1440.93 359.597,1440.93 
  "/>
<polyline clip-path="url(#clip400)" style="stroke:#000000; stroke-linecap:butt; stroke-linejoin:round; stroke-width:4; stroke-opacity:1; fill:none" points="
  340.699,1100.39 359.597,1100.39 
  "/>
<polyline clip-path="url(#clip400)" style="stroke:#000000; stroke-linecap:butt; stroke-linejoin:round; stroke-width:4; stroke-opacity:1; fill:none" points="
  340.699,759.856 359.597,759.856 
  "/>
<polyline clip-path="url(#clip400)" style="stroke:#000000; stroke-linecap:butt; stroke-linejoin:round; stroke-width:4; stroke-opacity:1; fill:none" points="
  340.699,419.318 359.597,419.318 
  "/>
<path clip-path="url(#clip400)" d="M131.181 1446.03 Q134.538 1446.74 136.413 1449.01 Q138.311 1451.28 138.311 1454.61 Q138.311 1459.73 134.792 1462.53 Q131.274 1465.33 124.793 1465.33 Q122.617 1465.33 120.302 1464.89 Q118.01 1464.47 115.556 1463.62 L115.556 1459.1 Q117.501 1460.24 119.816 1460.82 Q122.13 1461.4 124.654 1461.4 Q129.052 1461.4 131.343 1459.66 Q133.658 1457.92 133.658 1454.61 Q133.658 1451.56 131.505 1449.84 Q129.376 1448.11 125.556 1448.11 L121.529 1448.11 L121.529 1444.27 L125.742 1444.27 Q129.191 1444.27 131.019 1442.9 Q132.848 1441.51 132.848 1438.92 Q132.848 1436.26 130.95 1434.84 Q129.075 1433.41 125.556 1433.41 Q123.635 1433.41 121.436 1433.83 Q119.237 1434.24 116.598 1435.12 L116.598 1430.96 Q119.26 1430.21 121.575 1429.84 Q123.913 1429.47 125.973 1429.47 Q131.297 1429.47 134.399 1431.9 Q137.501 1434.31 137.501 1438.43 Q137.501 1441.3 135.857 1443.29 Q134.214 1445.26 131.181 1446.03 Z" fill="#000000" fill-rule="evenodd" fill-opacity="1" /><path clip-path="url(#clip400)" d="M147.177 1458.78 L152.061 1458.78 L152.061 1464.66 L147.177 1464.66 L147.177 1458.78 Z" fill="#000000" fill-rule="evenodd" fill-opacity="1" /><path clip-path="url(#clip400)" d="M172.246 1433.18 Q168.635 1433.18 166.806 1436.74 Q165.001 1440.28 165.001 1447.41 Q165.001 1454.52 166.806 1458.09 Q168.635 1461.63 172.246 1461.63 Q175.88 1461.63 177.686 1458.09 Q179.514 1454.52 179.514 1447.41 Q179.514 1440.28 177.686 1436.74 Q175.88 1433.18 172.246 1433.18 M172.246 1429.47 Q178.056 1429.47 181.112 1434.08 Q184.19 1438.66 184.19 1447.41 Q184.19 1456.14 181.112 1460.75 Q178.056 1465.33 172.246 1465.33 Q166.436 1465.33 163.357 1460.75 Q160.302 1456.14 160.302 1447.41 Q160.302 1438.66 163.357 1434.08 Q166.436 1429.47 172.246 1429.47 Z" fill="#000000" fill-rule="evenodd" fill-opacity="1" /><path clip-path="url(#clip400)" d="M220.579 1439.2 L210 1449.82 L220.579 1460.4 L217.824 1463.2 L207.199 1452.58 L196.575 1463.2 L193.843 1460.4 L204.399 1449.82 L193.843 1439.2 L196.575 1436.4 L207.199 1447.02 L217.824 1436.4 L220.579 1439.2 Z" fill="#000000" fill-rule="evenodd" fill-opacity="1" /><path clip-path="url(#clip400)" d="M232.94 1460.72 L240.579 1460.72 L240.579 1434.36 L232.269 1436.03 L232.269 1431.77 L240.533 1430.1 L245.209 1430.1 L245.209 1460.72 L252.847 1460.72 L252.847 1464.66 L232.94 1464.66 L232.94 1460.72 Z" fill="#000000" fill-rule="evenodd" fill-opacity="1" /><path clip-path="url(#clip400)" d="M272.292 1433.18 Q268.681 1433.18 266.852 1436.74 Q265.046 1440.28 265.046 1447.41 Q265.046 1454.52 266.852 1458.09 Q268.681 1461.63 272.292 1461.63 Q275.926 1461.63 277.732 1458.09 Q279.56 1454.52 279.56 1447.41 Q279.56 1440.28 277.732 1436.74 Q275.926 1433.18 272.292 1433.18 M272.292 1429.47 Q278.102 1429.47 281.157 1434.08 Q284.236 1438.66 284.236 1447.41 Q284.236 1456.14 281.157 1460.75 Q278.102 1465.33 272.292 1465.33 Q266.482 1465.33 263.403 1460.75 Q260.347 1456.14 260.347 1447.41 Q260.347 1438.66 263.403 1434.08 Q266.482 1429.47 272.292 1429.47 Z" fill="#000000" fill-rule="evenodd" fill-opacity="1" /><path clip-path="url(#clip400)" d="M296.913 1412.48 L287.321 1427.47 L296.913 1427.47 L296.913 1412.48 M295.916 1409.17 L300.693 1409.17 L300.693 1427.47 L304.699 1427.47 L304.699 1430.63 L300.693 1430.63 L300.693 1437.25 L296.913 1437.25 L296.913 1430.63 L284.236 1430.63 L284.236 1426.96 L295.916 1409.17 Z" fill="#000000" fill-rule="evenodd" fill-opacity="1" /><path clip-path="url(#clip400)" d="M129.862 1093.64 L118.056 1112.08 L129.862 1112.08 L129.862 1093.64 M128.635 1089.56 L134.515 1089.56 L134.515 1112.08 L139.445 1112.08 L139.445 1115.97 L134.515 1115.97 L134.515 1124.12 L129.862 1124.12 L129.862 1115.97 L114.26 1115.97 L114.26 1111.46 L128.635 1089.56 Z" fill="#000000" fill-rule="evenodd" fill-opacity="1" /><path clip-path="url(#clip400)" d="M147.177 1118.24 L152.061 1118.24 L152.061 1124.12 L147.177 1124.12 L147.177 1118.24 Z" fill="#000000" fill-rule="evenodd" fill-opacity="1" /><path clip-path="url(#clip400)" d="M172.246 1092.64 Q168.635 1092.64 166.806 1096.2 Q165.001 1099.75 165.001 1106.88 Q165.001 1113.98 166.806 1117.55 Q168.635 1121.09 172.246 1121.09 Q175.88 1121.09 177.686 1117.55 Q179.514 1113.98 179.514 1106.88 Q179.514 1099.75 177.686 1096.2 Q175.88 1092.64 172.246 1092.64 M172.246 1088.94 Q178.056 1088.94 181.112 1093.54 Q184.19 1098.13 184.19 1106.88 Q184.19 1115.6 181.112 1120.21 Q178.056 1124.79 172.246 1124.79 Q166.436 1124.79 163.357 1120.21 Q160.302 1115.6 160.302 1106.88 Q160.302 1098.13 163.357 1093.54 Q166.436 1088.94 172.246 1088.94 Z" fill="#000000" fill-rule="evenodd" fill-opacity="1" /><path clip-path="url(#clip400)" d="M220.579 1098.66 L210 1109.28 L220.579 1119.86 L217.824 1122.66 L207.199 1112.04 L196.575 1122.66 L193.843 1119.86 L204.399 1109.28 L193.843 1098.66 L196.575 1095.86 L207.199 1106.48 L217.824 1095.86 L220.579 1098.66 Z" fill="#000000" fill-rule="evenodd" fill-opacity="1" /><path clip-path="url(#clip400)" d="M232.94 1120.19 L240.579 1120.19 L240.579 1093.82 L232.269 1095.49 L232.269 1091.23 L240.533 1089.56 L245.209 1089.56 L245.209 1120.19 L252.847 1120.19 L252.847 1124.12 L232.94 1124.12 L232.94 1120.19 Z" fill="#000000" fill-rule="evenodd" fill-opacity="1" /><path clip-path="url(#clip400)" d="M272.292 1092.64 Q268.681 1092.64 266.852 1096.2 Q265.046 1099.75 265.046 1106.88 Q265.046 1113.98 266.852 1117.55 Q268.681 1121.09 272.292 1121.09 Q275.926 1121.09 277.732 1117.55 Q279.56 1113.98 279.56 1106.88 Q279.56 1099.75 277.732 1096.2 Q275.926 1092.64 272.292 1092.64 M272.292 1088.94 Q278.102 1088.94 281.157 1093.54 Q284.236 1098.13 284.236 1106.88 Q284.236 1115.6 281.157 1120.21 Q278.102 1124.79 272.292 1124.79 Q266.482 1124.79 263.403 1120.21 Q260.347 1115.6 260.347 1106.88 Q260.347 1098.13 263.403 1093.54 Q266.482 1088.94 272.292 1088.94 Z" fill="#000000" fill-rule="evenodd" fill-opacity="1" /><path clip-path="url(#clip400)" d="M296.913 1071.94 L287.321 1086.93 L296.913 1086.93 L296.913 1071.94 M295.916 1068.63 L300.693 1068.63 L300.693 1086.93 L304.699 1086.93 L304.699 1090.09 L300.693 1090.09 L300.693 1096.71 L296.913 1096.71 L296.913 1090.09 L284.236 1090.09 L284.236 1086.42 L295.916 1068.63 Z" fill="#000000" fill-rule="evenodd" fill-opacity="1" /><path clip-path="url(#clip400)" d="M117.061 749.023 L135.417 749.023 L135.417 752.959 L121.343 752.959 L121.343 761.431 Q122.362 761.083 123.38 760.921 Q124.399 760.736 125.418 760.736 Q131.205 760.736 134.584 763.908 Q137.964 767.079 137.964 772.495 Q137.964 778.074 134.492 781.176 Q131.019 784.255 124.7 784.255 Q122.524 784.255 120.255 783.884 Q118.01 783.514 115.603 782.773 L115.603 778.074 Q117.686 779.208 119.908 779.764 Q122.13 780.319 124.607 780.319 Q128.612 780.319 130.95 778.213 Q133.288 776.107 133.288 772.495 Q133.288 768.884 130.95 766.778 Q128.612 764.671 124.607 764.671 Q122.732 764.671 120.857 765.088 Q119.006 765.505 117.061 766.384 L117.061 749.023 Z" fill="#000000" fill-rule="evenodd" fill-opacity="1" /><path clip-path="url(#clip400)" d="M147.177 777.704 L152.061 777.704 L152.061 783.583 L147.177 783.583 L147.177 777.704 Z" fill="#000000" fill-rule="evenodd" fill-opacity="1" /><path clip-path="url(#clip400)" d="M172.246 752.102 Q168.635 752.102 166.806 755.667 Q165.001 759.208 165.001 766.338 Q165.001 773.445 166.806 777.009 Q168.635 780.551 172.246 780.551 Q175.88 780.551 177.686 777.009 Q179.514 773.445 179.514 766.338 Q179.514 759.208 177.686 755.667 Q175.88 752.102 172.246 752.102 M172.246 748.398 Q178.056 748.398 181.112 753.005 Q184.19 757.588 184.19 766.338 Q184.19 775.065 181.112 779.671 Q178.056 784.255 172.246 784.255 Q166.436 784.255 163.357 779.671 Q160.302 775.065 160.302 766.338 Q160.302 757.588 163.357 753.005 Q166.436 748.398 172.246 748.398 Z" fill="#000000" fill-rule="evenodd" fill-opacity="1" /><path clip-path="url(#clip400)" d="M220.579 758.121 L210 768.745 L220.579 779.324 L217.824 782.125 L207.199 771.5 L196.575 782.125 L193.843 779.324 L204.399 768.745 L193.843 758.121 L196.575 755.32 L207.199 765.945 L217.824 755.32 L220.579 758.121 Z" fill="#000000" fill-rule="evenodd" fill-opacity="1" /><path clip-path="url(#clip400)" d="M232.94 779.648 L240.579 779.648 L240.579 753.283 L232.269 754.949 L232.269 750.69 L240.533 749.023 L245.209 749.023 L245.209 779.648 L252.847 779.648 L252.847 783.583 L232.94 783.583 L232.94 779.648 Z" fill="#000000" fill-rule="evenodd" fill-opacity="1" /><path clip-path="url(#clip400)" d="M272.292 752.102 Q268.681 752.102 266.852 755.667 Q265.046 759.208 265.046 766.338 Q265.046 773.445 266.852 777.009 Q268.681 780.551 272.292 780.551 Q275.926 780.551 277.732 777.009 Q279.56 773.445 279.56 766.338 Q279.56 759.208 277.732 755.667 Q275.926 752.102 272.292 752.102 M272.292 748.398 Q278.102 748.398 281.157 753.005 Q284.236 757.588 284.236 766.338 Q284.236 775.065 281.157 779.671 Q278.102 784.255 272.292 784.255 Q266.482 784.255 263.403 779.671 Q260.347 775.065 260.347 766.338 Q260.347 757.588 263.403 753.005 Q266.482 748.398 272.292 748.398 Z" fill="#000000" fill-rule="evenodd" fill-opacity="1" /><path clip-path="url(#clip400)" d="M296.913 731.403 L287.321 746.393 L296.913 746.393 L296.913 731.403 M295.916 728.093 L300.693 728.093 L300.693 746.393 L304.699 746.393 L304.699 749.553 L300.693 749.553 L300.693 756.173 L296.913 756.173 L296.913 749.553 L284.236 749.553 L284.236 745.885 L295.916 728.093 Z" fill="#000000" fill-rule="evenodd" fill-opacity="1" /><path clip-path="url(#clip400)" d="M127.593 423.902 Q124.445 423.902 122.593 426.055 Q120.765 428.208 120.765 431.958 Q120.765 435.684 122.593 437.86 Q124.445 440.013 127.593 440.013 Q130.742 440.013 132.57 437.86 Q134.422 435.684 134.422 431.958 Q134.422 428.208 132.57 426.055 Q130.742 423.902 127.593 423.902 M136.876 409.249 L136.876 413.509 Q135.117 412.675 133.311 412.235 Q131.529 411.796 129.769 411.796 Q125.14 411.796 122.686 414.921 Q120.255 418.046 119.908 424.365 Q121.274 422.351 123.334 421.286 Q125.394 420.198 127.871 420.198 Q133.08 420.198 136.089 423.37 Q139.121 426.518 139.121 431.958 Q139.121 437.282 135.973 440.499 Q132.825 443.717 127.593 443.717 Q121.598 443.717 118.427 439.133 Q115.256 434.527 115.256 425.8 Q115.256 417.606 119.144 412.745 Q123.033 407.86 129.584 407.86 Q131.343 407.86 133.126 408.208 Q134.931 408.555 136.876 409.249 Z" fill="#000000" fill-rule="evenodd" fill-opacity="1" /><path clip-path="url(#clip400)" d="M147.177 437.166 L152.061 437.166 L152.061 443.045 L147.177 443.045 L147.177 437.166 Z" fill="#000000" fill-rule="evenodd" fill-opacity="1" /><path clip-path="url(#clip400)" d="M172.246 411.564 Q168.635 411.564 166.806 415.129 Q165.001 418.671 165.001 425.8 Q165.001 432.907 166.806 436.471 Q168.635 440.013 172.246 440.013 Q175.88 440.013 177.686 436.471 Q179.514 432.907 179.514 425.8 Q179.514 418.671 177.686 415.129 Q175.88 411.564 172.246 411.564 M172.246 407.86 Q178.056 407.86 181.112 412.467 Q184.19 417.05 184.19 425.8 Q184.19 434.527 181.112 439.133 Q178.056 443.717 172.246 443.717 Q166.436 443.717 163.357 439.133 Q160.302 434.527 160.302 425.8 Q160.302 417.05 163.357 412.467 Q166.436 407.86 172.246 407.86 Z" fill="#000000" fill-rule="evenodd" fill-opacity="1" /><path clip-path="url(#clip400)" d="M220.579 417.583 L210 428.208 L220.579 438.786 L217.824 441.587 L207.199 430.962 L196.575 441.587 L193.843 438.786 L204.399 428.208 L193.843 417.583 L196.575 414.782 L207.199 425.407 L217.824 414.782 L220.579 417.583 Z" fill="#000000" fill-rule="evenodd" fill-opacity="1" /><path clip-path="url(#clip400)" d="M232.94 439.11 L240.579 439.11 L240.579 412.745 L232.269 414.411 L232.269 410.152 L240.533 408.485 L245.209 408.485 L245.209 439.11 L252.847 439.11 L252.847 443.045 L232.94 443.045 L232.94 439.11 Z" fill="#000000" fill-rule="evenodd" fill-opacity="1" /><path clip-path="url(#clip400)" d="M272.292 411.564 Q268.681 411.564 266.852 415.129 Q265.046 418.671 265.046 425.8 Q265.046 432.907 266.852 436.471 Q268.681 440.013 272.292 440.013 Q275.926 440.013 277.732 436.471 Q279.56 432.907 279.56 425.8 Q279.56 418.671 277.732 415.129 Q275.926 411.564 272.292 411.564 M272.292 407.86 Q278.102 407.86 281.157 412.467 Q284.236 417.05 284.236 425.8 Q284.236 434.527 281.157 439.133 Q278.102 443.717 272.292 443.717 Q266.482 443.717 263.403 439.133 Q260.347 434.527 260.347 425.8 Q260.347 417.05 263.403 412.467 Q266.482 407.86 272.292 407.86 Z" fill="#000000" fill-rule="evenodd" fill-opacity="1" /><path clip-path="url(#clip400)" d="M296.913 390.865 L287.321 405.855 L296.913 405.855 L296.913 390.865 M295.916 387.555 L300.693 387.555 L300.693 405.855 L304.699 405.855 L304.699 409.015 L300.693 409.015 L300.693 415.635 L296.913 415.635 L296.913 409.015 L284.236 409.015 L284.236 405.347 L295.916 387.555 Z" fill="#000000" fill-rule="evenodd" fill-opacity="1" /><path clip-path="url(#clip400)" d="M21.7677 873.105 L39.6235 873.105 L39.6235 865.02 Q39.6235 860.533 37.3 858.082 Q34.9765 855.631 30.6797 855.631 Q26.4147 855.631 24.0912 858.082 Q21.7677 860.533 21.7677 865.02 L21.7677 873.105 M16.4842 879.534 L16.4842 865.02 Q16.4842 857.031 20.1126 852.957 Q23.7092 848.852 30.6797 848.852 Q37.7138 848.852 41.3104 852.957 Q44.907 857.031 44.907 865.02 L44.907 873.105 L64.0042 873.105 L64.0042 879.534 L16.4842 879.534 Z" fill="#000000" fill-rule="evenodd" fill-opacity="1" /><path clip-path="url(#clip400)" d="M33.8307 820.97 Q33.2578 821.956 33.0032 823.134 Q32.7167 824.28 32.7167 825.68 Q32.7167 830.646 35.9632 833.319 Q39.1779 835.961 45.2253 835.961 L64.0042 835.961 L64.0042 841.849 L28.3562 841.849 L28.3562 835.961 L33.8944 835.961 Q30.6479 834.115 29.0883 831.155 Q27.4968 828.195 27.4968 823.962 Q27.4968 823.357 27.5923 822.625 Q27.656 821.893 27.8151 821.002 L33.8307 820.97 Z" fill="#000000" fill-rule="evenodd" fill-opacity="1" /><path clip-path="url(#clip400)" d="M28.3562 814.827 L28.3562 808.97 L64.0042 808.97 L64.0042 814.827 L28.3562 814.827 M14.479 814.827 L14.479 808.97 L21.895 808.97 L21.895 814.827 L14.479 814.827 Z" fill="#000000" fill-rule="evenodd" fill-opacity="1" /><path clip-path="url(#clip400)" d="M29.7248 771.063 L35.1993 771.063 Q33.8307 773.545 33.1623 776.06 Q32.4621 778.542 32.4621 781.089 Q32.4621 786.786 36.0905 789.937 Q39.6872 793.088 46.212 793.088 Q52.7369 793.088 56.3653 789.937 Q59.9619 786.786 59.9619 781.089 Q59.9619 778.542 59.2935 776.06 Q58.5933 773.545 57.2247 771.063 L62.6355 771.063 Q63.7814 773.513 64.3543 776.155 Q64.9272 778.765 64.9272 781.725 Q64.9272 789.778 59.8664 794.52 Q54.8057 799.263 46.212 799.263 Q37.491 799.263 32.4939 794.488 Q27.4968 789.682 27.4968 781.343 Q27.4968 778.638 28.0697 776.06 Q28.6108 773.482 29.7248 771.063 Z" fill="#000000" fill-rule="evenodd" fill-opacity="1" /><path clip-path="url(#clip400)" d="M44.7161 730.386 L47.5806 730.386 L47.5806 757.313 Q53.6281 756.931 56.8109 753.684 Q59.9619 750.406 59.9619 744.581 Q59.9619 741.207 59.1344 738.056 Q58.3069 734.874 56.6518 731.754 L62.1899 731.754 Q63.5267 734.905 64.227 738.216 Q64.9272 741.526 64.9272 744.931 Q64.9272 753.461 59.9619 758.459 Q54.9967 763.424 46.5303 763.424 Q37.7774 763.424 32.6531 758.713 Q27.4968 753.971 27.4968 745.95 Q27.4968 738.757 32.1438 734.587 Q36.7589 730.386 44.7161 730.386 M42.9973 736.242 Q38.1912 736.306 35.3266 738.948 Q32.4621 741.558 32.4621 745.886 Q32.4621 750.788 35.2312 753.748 Q38.0002 756.676 43.0292 757.122 L42.9973 736.242 Z" fill="#000000" fill-rule="evenodd" fill-opacity="1" /><path clip-path="url(#clip400)" d="M348.882 43.6931 L348.882 65.8515 L362.007 65.8515 Q368.61 65.8515 371.769 63.1374 Q374.97 60.3828 374.97 54.752 Q374.97 49.0808 371.769 46.4072 Q368.61 43.6931 362.007 43.6931 L348.882 43.6931 M348.882 18.8205 L348.882 37.0496 L360.994 37.0496 Q366.989 37.0496 369.906 34.8216 Q372.863 32.5531 372.863 27.935 Q372.863 23.3575 369.906 21.089 Q366.989 18.8205 360.994 18.8205 L348.882 18.8205 M340.699 12.096 L361.602 12.096 Q370.959 12.096 376.023 15.9849 Q381.086 19.8737 381.086 27.0438 Q381.086 32.5936 378.494 35.8748 Q375.901 39.156 370.878 39.9662 Q376.914 41.2625 380.236 45.3944 Q383.598 49.4858 383.598 55.6432 Q383.598 63.745 378.089 68.1605 Q372.58 72.576 362.412 72.576 L340.699 72.576 L340.699 12.096 Z" fill="#000000" fill-rule="evenodd" fill-opacity="1" /><path clip-path="url(#clip400)" d="M397.29 27.2059 L404.744 27.2059 L404.744 72.576 L397.29 72.576 L397.29 27.2059 M397.29 9.54393 L404.744 9.54393 L404.744 18.9825 L397.29 18.9825 L397.29 9.54393 Z" fill="#000000" fill-rule="evenodd" fill-opacity="1" /><path clip-path="url(#clip400)" d="M427.712 14.324 L427.712 27.2059 L443.065 27.2059 L443.065 32.9987 L427.712 32.9987 L427.712 57.6282 Q427.712 63.1779 429.211 64.7578 Q430.751 66.3376 435.409 66.3376 L443.065 66.3376 L443.065 72.576 L435.409 72.576 Q426.781 72.576 423.499 69.3758 Q420.218 66.1351 420.218 57.6282 L420.218 32.9987 L414.749 32.9987 L414.749 27.2059 L420.218 27.2059 L420.218 14.324 L427.712 14.324 Z" fill="#000000" fill-rule="evenodd" fill-opacity="1" /><path clip-path="url(#clip400)" d="M485.519 28.9478 L485.519 35.9153 Q482.359 34.1734 479.159 33.3227 Q475.999 32.4315 472.758 32.4315 Q465.507 32.4315 461.497 37.0496 Q457.487 41.6271 457.487 49.9314 Q457.487 58.2358 461.497 62.8538 Q465.507 67.4314 472.758 67.4314 Q475.999 67.4314 479.159 66.5807 Q482.359 65.6895 485.519 63.9476 L485.519 70.8341 Q482.4 72.2924 479.037 73.0216 Q475.716 73.7508 471.948 73.7508 Q461.699 73.7508 455.664 67.3098 Q449.628 60.8689 449.628 49.9314 Q449.628 38.832 455.704 32.472 Q461.821 26.1121 472.434 26.1121 Q475.878 26.1121 479.159 26.8413 Q482.44 27.5299 485.519 28.9478 Z" fill="#000000" fill-rule="evenodd" fill-opacity="1" /><path clip-path="url(#clip400)" d="M516.063 32.4315 Q510.067 32.4315 506.583 37.1306 Q503.1 41.7891 503.1 49.9314 Q503.1 58.0738 506.543 62.7728 Q510.027 67.4314 516.063 67.4314 Q522.017 67.4314 525.501 62.7323 Q528.985 58.0333 528.985 49.9314 Q528.985 41.8701 525.501 37.1711 Q522.017 32.4315 516.063 32.4315 M516.063 26.1121 Q525.785 26.1121 531.335 32.4315 Q536.884 38.7509 536.884 49.9314 Q536.884 61.0714 531.335 67.4314 Q525.785 73.7508 516.063 73.7508 Q506.3 73.7508 500.75 67.4314 Q495.241 61.0714 495.241 49.9314 Q495.241 38.7509 500.75 32.4315 Q506.3 26.1121 516.063 26.1121 Z" fill="#000000" fill-rule="evenodd" fill-opacity="1" /><path clip-path="url(#clip400)" d="M549.24 27.2059 L556.693 27.2059 L556.693 72.576 L549.24 72.576 L549.24 27.2059 M549.24 9.54393 L556.693 9.54393 L556.693 18.9825 L549.24 18.9825 L549.24 9.54393 Z" fill="#000000" fill-rule="evenodd" fill-opacity="1" /><path clip-path="url(#clip400)" d="M610.003 45.1919 L610.003 72.576 L602.549 72.576 L602.549 45.4349 Q602.549 38.994 600.038 35.7938 Q597.526 32.5936 592.503 32.5936 Q586.467 32.5936 582.984 36.4419 Q579.5 40.2903 579.5 46.9338 L579.5 72.576 L572.006 72.576 L572.006 27.2059 L579.5 27.2059 L579.5 34.2544 Q582.173 30.163 585.779 28.1376 Q589.424 26.1121 594.164 26.1121 Q601.982 26.1121 605.993 30.9732 Q610.003 35.7938 610.003 45.1919 Z" fill="#000000" fill-rule="evenodd" fill-opacity="1" /><path clip-path="url(#clip400)" d="M659.748 18.8205 L659.748 41.5461 L670.037 41.5461 Q675.749 41.5461 678.868 38.5889 Q681.988 35.6318 681.988 30.163 Q681.988 24.7348 678.868 21.7777 Q675.749 18.8205 670.037 18.8205 L659.748 18.8205 M651.565 12.096 L670.037 12.096 Q680.205 12.096 685.39 16.714 Q690.616 21.2916 690.616 30.163 Q690.616 39.1155 685.39 43.6931 Q680.205 48.2706 670.037 48.2706 L659.748 48.2706 L659.748 72.576 L651.565 72.576 L651.565 12.096 Z" fill="#000000" fill-rule="evenodd" fill-opacity="1" /><path clip-path="url(#clip400)" d="M726.102 34.1734 Q724.846 33.4443 723.347 33.1202 Q721.889 32.7556 720.107 32.7556 Q713.787 32.7556 710.384 36.8875 Q707.022 40.9789 707.022 48.6757 L707.022 72.576 L699.528 72.576 L699.528 27.2059 L707.022 27.2059 L707.022 34.2544 Q709.372 30.1225 713.139 28.1376 Q716.906 26.1121 722.294 26.1121 Q723.064 26.1121 723.996 26.2337 Q724.927 26.3147 726.061 26.5172 L726.102 34.1734 Z" fill="#000000" fill-rule="evenodd" fill-opacity="1" /><path clip-path="url(#clip400)" d="M733.92 27.2059 L741.374 27.2059 L741.374 72.576 L733.92 72.576 L733.92 27.2059 M733.92 9.54393 L741.374 9.54393 L741.374 18.9825 L733.92 18.9825 L733.92 9.54393 Z" fill="#000000" fill-rule="evenodd" fill-opacity="1" /><path clip-path="url(#clip400)" d="M789.62 28.9478 L789.62 35.9153 Q786.46 34.1734 783.26 33.3227 Q780.101 32.4315 776.86 32.4315 Q769.609 32.4315 765.598 37.0496 Q761.588 41.6271 761.588 49.9314 Q761.588 58.2358 765.598 62.8538 Q769.609 67.4314 776.86 67.4314 Q780.101 67.4314 783.26 66.5807 Q786.46 65.6895 789.62 63.9476 L789.62 70.8341 Q786.501 72.2924 783.139 73.0216 Q779.817 73.7508 776.05 73.7508 Q765.801 73.7508 759.765 67.3098 Q753.729 60.8689 753.729 49.9314 Q753.729 38.832 759.806 32.472 Q765.922 26.1121 776.536 26.1121 Q779.979 26.1121 783.26 26.8413 Q786.541 27.5299 789.62 28.9478 Z" fill="#000000" fill-rule="evenodd" fill-opacity="1" /><path clip-path="url(#clip400)" d="M841.391 48.0275 L841.391 51.6733 L807.12 51.6733 Q807.606 59.3701 811.738 63.421 Q815.911 67.4314 823.324 67.4314 Q827.618 67.4314 831.628 66.3781 Q835.679 65.3249 839.649 63.2184 L839.649 70.267 Q835.638 71.9684 831.425 72.8596 Q827.213 73.7508 822.878 73.7508 Q812.022 73.7508 805.662 67.4314 Q799.342 61.1119 799.342 50.3365 Q799.342 39.1965 805.338 32.6746 Q811.374 26.1121 821.582 26.1121 Q830.737 26.1121 836.044 32.0264 Q841.391 37.9003 841.391 48.0275 M833.937 45.84 Q833.856 39.7232 830.494 36.0774 Q827.172 32.4315 821.663 32.4315 Q815.424 32.4315 811.657 35.9558 Q807.93 39.4801 807.363 45.8805 L833.937 45.84 Z" fill="#000000" fill-rule="evenodd" fill-opacity="1" /><polyline clip-path="url(#clip402)" style="stroke:#009af9; stroke-linecap:butt; stroke-linejoin:round; stroke-width:8; stroke-opacity:1; fill:none" points="
  397.644,726.53 403.992,677.608 410.341,592.434 416.689,559.255 423.037,493.709 429.386,513.786 435.734,379.185 442.083,454.301 448.431,567.923 454.779,523.961 
  461.128,455.907 467.476,499.516 473.825,486.075 480.173,483.451 486.521,509.107 492.87,619.892 499.218,611.874 505.566,682.344 511.915,714.734 518.263,587.12 
  524.612,560.419 530.96,563.065 537.308,500.588 543.657,460.643 550.005,460.182 556.354,462.686 562.702,454.017 569.05,518.267 575.399,480.072 581.747,449.182 
  588.095,486.745 594.444,557.04 600.792,484.596 607.141,484.269 613.489,426.857 619.837,419.82 626.186,424.773 632.534,297.125 638.883,318.117 645.231,309.357 
  651.579,370.714 657.928,417.313 664.276,546.188 670.624,565.857 676.973,538.53 683.321,630.422 689.67,701.91 696.018,719.425 702.366,756.82 708.715,789.789 
  715.063,621.815 721.412,587.216 727.76,593.195 734.108,637.943 740.457,494.278 746.805,492.217 753.153,534.243 759.502,514.235 765.85,649.456 772.199,503.918 
  778.547,540.527 784.895,508.525 791.244,454.8 797.592,476.781 803.941,560.082 810.289,529.884 816.637,776.925 822.986,770.409 829.334,763.483 835.682,869.662 
  842.031,880.72 848.379,978.464 854.728,1003.1 861.076,1211.69 867.424,1079.17 873.773,1190.95 880.121,1186.32 886.47,1278.88 892.818,1138.58 899.166,1156.18 
  905.515,1124.46 911.863,1149.54 918.211,1247.49 924.56,1283.34 930.908,1247.87 937.257,1193.04 943.605,1213.28 949.953,1182.88 956.302,1125.98 962.65,1207.44 
  968.999,1252.29 975.347,1243.4 981.695,1319.16 988.044,1325.08 994.392,1188.8 1000.74,1212.97 1007.09,1191.03 1013.44,1251.68 1019.79,1133.93 1026.13,1082.02 
  1032.48,1094.86 1038.83,1156.55 1045.18,1165.26 1051.53,1242 1057.88,1254.15 1064.22,1250.71 1070.57,1386.11 1076.92,1354.49 1083.27,1315.33 1089.62,1282.43 
  1095.97,1386.63 1102.31,1363.45 1108.66,1280.56 1115.01,1287.92 1121.36,1239.87 1127.71,1268.62 1134.06,1321.19 1140.4,1311.36 1146.75,1281.49 1153.1,1260.99 
  1159.45,1315.01 1165.8,1297.03 1172.15,1308.85 1178.5,1342.99 1184.84,1310.7 1191.19,1321.22 1197.54,1295.89 1203.89,1335.67 1210.24,1347.82 1216.59,1345.02 
  1222.93,1377.3 1229.28,1393.66 1235.63,1388.7 1241.98,1380.03 1248.33,1412.26 1254.68,1447.87 1261.02,1368.22 1267.37,1363.03 1273.72,1316.73 1280.07,1295.08 
  1286.42,1256.08 1292.77,1193.61 1299.11,1118.43 1305.46,1099.2 1311.81,1099.05 1318.16,1024.18 1324.51,1049.48 1330.86,1104.98 1337.2,1129.35 1343.55,1161.98 
  1349.9,1109.85 1356.25,1070.13 1362.6,1002.67 1368.95,942.475 1375.3,969.997 1381.64,886.349 1387.99,909.84 1394.34,911.276 1400.69,949.803 1407.04,833.629 
  1413.39,858.283 1419.73,861.524 1426.08,899.393 1432.43,941.309 1438.78,940.069 1445.13,869.99 1451.48,782.25 1457.82,798.438 1464.17,784.217 1470.52,776.661 
  1476.87,838.777 1483.22,794.341 1489.57,867.075 1495.91,791.268 1502.26,795.853 1508.61,800.632 1514.96,862.231 1521.31,858.186 1527.66,799.363 1534,784.396 
  1540.35,759.004 1546.7,761.798 1553.05,698.928 1559.4,667.951 1565.75,865.61 1572.1,894.015 1578.44,882.449 1584.79,935.183 1591.14,924.273 1597.49,895.246 
  1603.84,931.905 1610.19,857.685 1616.53,822.919 1622.88,836.369 1629.23,851.682 1635.58,817.251 1641.93,853.302 1648.28,997.791 1654.62,1075.89 1660.97,978.648 
  1667.32,933.612 1673.67,1003.38 1680.02,1008.26 1686.37,992.17 1692.71,1026.44 1699.06,1065.45 1705.41,1048.56 1711.76,970.157 1718.11,822.319 1724.46,839.62 
  1730.8,819.995 1737.15,785.548 1743.5,708.98 1749.85,578.026 1756.2,630.526 1762.55,624.873 1768.89,590.871 1775.24,600.125 1781.59,504.88 1787.94,555.359 
  1794.29,508.971 1800.64,509.237 1806.99,361.583 1813.33,389.438 1819.68,367.314 1826.03,349.766 1832.38,272.78 1838.73,214.091 1845.08,344.263 1851.42,395.901 
  1857.77,375.048 1864.12,390.22 1870.47,314.312 1876.82,407.821 1883.17,471.915 1889.51,399.17 1895.86,341.787 1902.21,354.874 1908.56,373.56 1914.91,386.982 
  1921.26,308.081 1927.6,319.356 1933.95,370.127 1940.3,385.055 1946.65,366.899 1953,306.629 1959.35,162.047 1965.69,182.826 1972.04,252.039 1978.39,255.601 
  1984.74,278.066 1991.09,269.481 1997.44,231.851 2003.79,295.887 2010.13,415.641 2016.48,407.348 2022.83,524.953 2029.18,483.265 2035.53,427.465 2041.88,464.568 
  2048.22,545.97 2054.57,502.176 2060.92,515.94 2067.27,453.805 2073.62,631.893 2079.97,597.792 2086.31,510.678 2092.66,492.94 2099.01,521.889 2105.36,513.766 
  2111.71,537.775 2118.06,635.967 2124.4,785.698 2130.75,777.42 2137.1,741.822 2143.45,738.556 2149.8,742.159 2156.15,842.66 2162.49,856.196 2168.84,780.024 
  2175.19,756.803 2181.54,871.284 2187.89,815.451 2194.24,797.833 2200.59,840.42 2206.93,890.401 2213.28,866.803 2219.63,872.669 2225.98,864.535 2232.33,796.814 
  2238.68,807.238 2245.02,731.176 2251.37,730.863 2257.72,745.27 2264.07,732.552 2270.42,735.413 2276.77,843.523 2283.11,880.023 2289.46,857.86 2295.81,830.853 
  
  "/>
</svg>
