<?xml version="1.0" encoding="utf-8"?>
<svg xmlns="http://www.w3.org/2000/svg" xmlns:xlink="http://www.w3.org/1999/xlink" width="600" height="400" viewBox="0 0 2400 1600">
<defs>
  <clipPath id="clip600">
    <rect x="0" y="0" width="2400" height="1600"/>
  </clipPath>
</defs>
<path clip-path="url(#clip600)" d="
M0 1600 L2400 1600 L2400 0 L0 0  Z
  " fill="#ffffff" fill-rule="evenodd" fill-opacity="1"/>
<defs>
  <clipPath id="clip601">
    <rect x="480" y="0" width="1681" height="1600"/>
  </clipPath>
</defs>
<path clip-path="url(#clip600)" d="
M257.204 1486.45 L2352.76 1486.45 L2352.76 123.472 L257.204 123.472  Z
  " fill="#ffffff" fill-rule="evenodd" fill-opacity="1"/>
<defs>
  <clipPath id="clip602">
    <rect x="257" y="123" width="2097" height="1364"/>
  </clipPath>
</defs>
<polyline clip-path="url(#clip602)" style="stroke:#000000; stroke-linecap:butt; stroke-linejoin:round; stroke-width:2; stroke-opacity:0.1; fill:none" points="
  276.841,1486.45 276.841,123.472 
  "/>
<polyline clip-path="url(#clip602)" style="stroke:#000000; stroke-linecap:butt; stroke-linejoin:round; stroke-width:2; stroke-opacity:0.1; fill:none" points="
  885.129,1486.45 885.129,123.472 
  "/>
<polyline clip-path="url(#clip602)" style="stroke:#000000; stroke-linecap:butt; stroke-linejoin:round; stroke-width:2; stroke-opacity:0.1; fill:none" points="
  1493.42,1486.45 1493.42,123.472 
  "/>
<polyline clip-path="url(#clip602)" style="stroke:#000000; stroke-linecap:butt; stroke-linejoin:round; stroke-width:2; stroke-opacity:0.1; fill:none" points="
  2095.09,1486.45 2095.09,123.472 
  "/>
<polyline clip-path="url(#clip600)" style="stroke:#000000; stroke-linecap:butt; stroke-linejoin:round; stroke-width:4; stroke-opacity:1; fill:none" points="
  257.204,1486.45 2352.76,1486.45 
  "/>
<polyline clip-path="url(#clip600)" style="stroke:#000000; stroke-linecap:butt; stroke-linejoin:round; stroke-width:4; stroke-opacity:1; fill:none" points="
  276.841,1486.45 276.841,1467.55 
  "/>
<polyline clip-path="url(#clip600)" style="stroke:#000000; stroke-linecap:butt; stroke-linejoin:round; stroke-width:4; stroke-opacity:1; fill:none" points="
  885.129,1486.45 885.129,1467.55 
  "/>
<polyline clip-path="url(#clip600)" style="stroke:#000000; stroke-linecap:butt; stroke-linejoin:round; stroke-width:4; stroke-opacity:1; fill:none" points="
  1493.42,1486.45 1493.42,1467.55 
  "/>
<polyline clip-path="url(#clip600)" style="stroke:#000000; stroke-linecap:butt; stroke-linejoin:round; stroke-width:4; stroke-opacity:1; fill:none" points="
  2095.09,1486.45 2095.09,1467.55 
  "/>
<path clip-path="url(#clip600)" d="M148.636 1544.91 L164.955 1544.91 L164.955 1548.85 L143.011 1548.85 L143.011 1544.91 Q145.673 1542.16 150.256 1537.53 Q154.863 1532.88 156.043 1531.53 Q158.289 1529.01 159.168 1527.27 Q160.071 1525.51 160.071 1523.82 Q160.071 1521.07 158.127 1519.33 Q156.205 1517.6 153.103 1517.6 Q150.904 1517.6 148.451 1518.36 Q146.02 1519.13 143.242 1520.68 L143.242 1515.95 Q146.066 1514.82 148.52 1514.24 Q150.974 1513.66 153.011 1513.66 Q158.381 1513.66 161.576 1516.35 Q164.77 1519.03 164.77 1523.52 Q164.77 1525.65 163.96 1527.57 Q163.173 1529.47 161.066 1532.07 Q160.488 1532.74 157.386 1535.95 Q154.284 1539.15 148.636 1544.91 Z" fill="#000000" fill-rule="evenodd" fill-opacity="1" /><path clip-path="url(#clip600)" d="M184.77 1517.37 Q181.159 1517.37 179.33 1520.93 Q177.525 1524.47 177.525 1531.6 Q177.525 1538.71 179.33 1542.27 Q181.159 1545.82 184.77 1545.82 Q188.404 1545.82 190.21 1542.27 Q192.038 1538.71 192.038 1531.6 Q192.038 1524.47 190.21 1520.93 Q188.404 1517.37 184.77 1517.37 M184.77 1513.66 Q190.58 1513.66 193.636 1518.27 Q196.714 1522.85 196.714 1531.6 Q196.714 1540.33 193.636 1544.94 Q190.58 1549.52 184.77 1549.52 Q178.96 1549.52 175.881 1544.94 Q172.826 1540.33 172.826 1531.6 Q172.826 1522.85 175.881 1518.27 Q178.96 1513.66 184.77 1513.66 Z" fill="#000000" fill-rule="evenodd" fill-opacity="1" /><path clip-path="url(#clip600)" d="M208.96 1544.91 L225.279 1544.91 L225.279 1548.85 L203.335 1548.85 L203.335 1544.91 Q205.997 1542.16 210.58 1537.53 Q215.186 1532.88 216.367 1531.53 Q218.612 1529.01 219.492 1527.27 Q220.395 1525.51 220.395 1523.82 Q220.395 1521.07 218.45 1519.33 Q216.529 1517.6 213.427 1517.6 Q211.228 1517.6 208.774 1518.36 Q206.344 1519.13 203.566 1520.68 L203.566 1515.95 Q206.39 1514.82 208.844 1514.24 Q211.298 1513.66 213.335 1513.66 Q218.705 1513.66 221.899 1516.35 Q225.094 1519.03 225.094 1523.52 Q225.094 1525.65 224.284 1527.57 Q223.497 1529.47 221.39 1532.07 Q220.811 1532.74 217.71 1535.95 Q214.608 1539.15 208.96 1544.91 Z" fill="#000000" fill-rule="evenodd" fill-opacity="1" /><path clip-path="url(#clip600)" d="M235.904 1544.91 L243.543 1544.91 L243.543 1518.55 L235.233 1520.21 L235.233 1515.95 L243.496 1514.29 L248.172 1514.29 L248.172 1544.91 L255.811 1544.91 L255.811 1548.85 L235.904 1548.85 L235.904 1544.91 Z" fill="#000000" fill-rule="evenodd" fill-opacity="1" /><path clip-path="url(#clip600)" d="M262.501 1533.96 L274.978 1533.96 L274.978 1537.76 L262.501 1537.76 L262.501 1533.96 Z" fill="#000000" fill-rule="evenodd" fill-opacity="1" /><path clip-path="url(#clip600)" d="M292.362 1517.37 Q288.751 1517.37 286.922 1520.93 Q285.117 1524.47 285.117 1531.6 Q285.117 1538.71 286.922 1542.27 Q288.751 1545.82 292.362 1545.82 Q295.996 1545.82 297.802 1542.27 Q299.63 1538.71 299.63 1531.6 Q299.63 1524.47 297.802 1520.93 Q295.996 1517.37 292.362 1517.37 M292.362 1513.66 Q298.172 1513.66 301.228 1518.27 Q304.306 1522.85 304.306 1531.6 Q304.306 1540.33 301.228 1544.94 Q298.172 1549.52 292.362 1549.52 Q286.552 1549.52 283.473 1544.94 Q280.418 1540.33 280.418 1531.6 Q280.418 1522.85 283.473 1518.27 Q286.552 1513.66 292.362 1513.66 Z" fill="#000000" fill-rule="evenodd" fill-opacity="1" /><path clip-path="url(#clip600)" d="M326.69 1530.21 Q330.047 1530.93 331.922 1533.2 Q333.82 1535.47 333.82 1538.8 Q333.82 1543.92 330.302 1546.72 Q326.783 1549.52 320.302 1549.52 Q318.126 1549.52 315.811 1549.08 Q313.519 1548.66 311.066 1547.81 L311.066 1543.29 Q313.01 1544.43 315.325 1545.01 Q317.64 1545.58 320.163 1545.58 Q324.561 1545.58 326.852 1543.85 Q329.167 1542.11 329.167 1538.8 Q329.167 1535.75 327.014 1534.03 Q324.885 1532.3 321.065 1532.3 L317.038 1532.3 L317.038 1528.45 L321.251 1528.45 Q324.7 1528.45 326.528 1527.09 Q328.357 1525.7 328.357 1523.11 Q328.357 1520.45 326.459 1519.03 Q324.584 1517.6 321.065 1517.6 Q319.144 1517.6 316.945 1518.01 Q314.746 1518.43 312.107 1519.31 L312.107 1515.14 Q314.769 1514.4 317.084 1514.03 Q319.422 1513.66 321.482 1513.66 Q326.806 1513.66 329.908 1516.09 Q333.01 1518.5 333.01 1522.62 Q333.01 1525.49 331.366 1527.48 Q329.723 1529.45 326.69 1530.21 Z" fill="#000000" fill-rule="evenodd" fill-opacity="1" /><path clip-path="url(#clip600)" d="M339.931 1533.96 L352.408 1533.96 L352.408 1537.76 L339.931 1537.76 L339.931 1533.96 Z" fill="#000000" fill-rule="evenodd" fill-opacity="1" /><path clip-path="url(#clip600)" d="M369.792 1517.37 Q366.181 1517.37 364.352 1520.93 Q362.547 1524.47 362.547 1531.6 Q362.547 1538.71 364.352 1542.27 Q366.181 1545.82 369.792 1545.82 Q373.426 1545.82 375.232 1542.27 Q377.061 1538.71 377.061 1531.6 Q377.061 1524.47 375.232 1520.93 Q373.426 1517.37 369.792 1517.37 M369.792 1513.66 Q375.602 1513.66 378.658 1518.27 Q381.736 1522.85 381.736 1531.6 Q381.736 1540.33 378.658 1544.94 Q375.602 1549.52 369.792 1549.52 Q363.982 1549.52 360.903 1544.94 Q357.848 1540.33 357.848 1531.6 Q357.848 1522.85 360.903 1518.27 Q363.982 1513.66 369.792 1513.66 Z" fill="#000000" fill-rule="evenodd" fill-opacity="1" /><path clip-path="url(#clip600)" d="M390.764 1544.91 L398.403 1544.91 L398.403 1518.55 L390.093 1520.21 L390.093 1515.95 L398.357 1514.29 L403.033 1514.29 L403.033 1544.91 L410.671 1544.91 L410.671 1548.85 L390.764 1548.85 L390.764 1544.91 Z" fill="#000000" fill-rule="evenodd" fill-opacity="1" /><path clip-path="url(#clip600)" d="M756.924 1544.91 L773.243 1544.91 L773.243 1548.85 L751.299 1548.85 L751.299 1544.91 Q753.961 1542.16 758.544 1537.53 Q763.151 1532.88 764.331 1531.53 Q766.576 1529.01 767.456 1527.27 Q768.359 1525.51 768.359 1523.82 Q768.359 1521.07 766.414 1519.33 Q764.493 1517.6 761.391 1517.6 Q759.192 1517.6 756.739 1518.36 Q754.308 1519.13 751.53 1520.68 L751.53 1515.95 Q754.354 1514.82 756.808 1514.24 Q759.262 1513.66 761.299 1513.66 Q766.669 1513.66 769.863 1516.35 Q773.058 1519.03 773.058 1523.52 Q773.058 1525.65 772.248 1527.57 Q771.461 1529.47 769.354 1532.07 Q768.776 1532.74 765.674 1535.95 Q762.572 1539.15 756.924 1544.91 Z" fill="#000000" fill-rule="evenodd" fill-opacity="1" /><path clip-path="url(#clip600)" d="M793.058 1517.37 Q789.447 1517.37 787.618 1520.93 Q785.812 1524.47 785.812 1531.6 Q785.812 1538.71 787.618 1542.27 Q789.447 1545.82 793.058 1545.82 Q796.692 1545.82 798.498 1542.27 Q800.326 1538.71 800.326 1531.6 Q800.326 1524.47 798.498 1520.93 Q796.692 1517.37 793.058 1517.37 M793.058 1513.66 Q798.868 1513.66 801.923 1518.27 Q805.002 1522.85 805.002 1531.6 Q805.002 1540.33 801.923 1544.94 Q798.868 1549.52 793.058 1549.52 Q787.248 1549.52 784.169 1544.94 Q781.113 1540.33 781.113 1531.6 Q781.113 1522.85 784.169 1518.27 Q787.248 1513.66 793.058 1513.66 Z" fill="#000000" fill-rule="evenodd" fill-opacity="1" /><path clip-path="url(#clip600)" d="M817.247 1544.91 L833.567 1544.91 L833.567 1548.85 L811.623 1548.85 L811.623 1544.91 Q814.285 1542.16 818.868 1537.53 Q823.474 1532.88 824.655 1531.53 Q826.9 1529.01 827.78 1527.27 Q828.683 1525.51 828.683 1523.82 Q828.683 1521.07 826.738 1519.33 Q824.817 1517.6 821.715 1517.6 Q819.516 1517.6 817.062 1518.36 Q814.632 1519.13 811.854 1520.68 L811.854 1515.95 Q814.678 1514.82 817.132 1514.24 Q819.585 1513.66 821.622 1513.66 Q826.993 1513.66 830.187 1516.35 Q833.382 1519.03 833.382 1523.52 Q833.382 1525.65 832.571 1527.57 Q831.784 1529.47 829.678 1532.07 Q829.099 1532.74 825.997 1535.95 Q822.896 1539.15 817.247 1544.91 Z" fill="#000000" fill-rule="evenodd" fill-opacity="1" /><path clip-path="url(#clip600)" d="M844.192 1544.91 L851.831 1544.91 L851.831 1518.55 L843.52 1520.21 L843.52 1515.95 L851.784 1514.29 L856.46 1514.29 L856.46 1544.91 L864.099 1544.91 L864.099 1548.85 L844.192 1548.85 L844.192 1544.91 Z" fill="#000000" fill-rule="evenodd" fill-opacity="1" /><path clip-path="url(#clip600)" d="M870.789 1533.96 L883.266 1533.96 L883.266 1537.76 L870.789 1537.76 L870.789 1533.96 Z" fill="#000000" fill-rule="evenodd" fill-opacity="1" /><path clip-path="url(#clip600)" d="M900.65 1517.37 Q897.039 1517.37 895.21 1520.93 Q893.404 1524.47 893.404 1531.6 Q893.404 1538.71 895.21 1542.27 Q897.039 1545.82 900.65 1545.82 Q904.284 1545.82 906.09 1542.27 Q907.918 1538.71 907.918 1531.6 Q907.918 1524.47 906.09 1520.93 Q904.284 1517.37 900.65 1517.37 M900.65 1513.66 Q906.46 1513.66 909.516 1518.27 Q912.594 1522.85 912.594 1531.6 Q912.594 1540.33 909.516 1544.94 Q906.46 1549.52 900.65 1549.52 Q894.84 1549.52 891.761 1544.94 Q888.705 1540.33 888.705 1531.6 Q888.705 1522.85 891.761 1518.27 Q894.84 1513.66 900.65 1513.66 Z" fill="#000000" fill-rule="evenodd" fill-opacity="1" /><path clip-path="url(#clip600)" d="M931.39 1529.7 Q928.242 1529.7 926.39 1531.86 Q924.562 1534.01 924.562 1537.76 Q924.562 1541.49 926.39 1543.66 Q928.242 1545.82 931.39 1545.82 Q934.539 1545.82 936.367 1543.66 Q938.219 1541.49 938.219 1537.76 Q938.219 1534.01 936.367 1531.86 Q934.539 1529.7 931.39 1529.7 M940.673 1515.05 L940.673 1519.31 Q938.914 1518.48 937.108 1518.04 Q935.326 1517.6 933.566 1517.6 Q928.937 1517.6 926.483 1520.72 Q924.052 1523.85 923.705 1530.17 Q925.071 1528.15 927.131 1527.09 Q929.191 1526 931.668 1526 Q936.876 1526 939.886 1529.17 Q942.918 1532.32 942.918 1537.76 Q942.918 1543.08 939.77 1546.3 Q936.622 1549.52 931.39 1549.52 Q925.395 1549.52 922.224 1544.94 Q919.052 1540.33 919.052 1531.6 Q919.052 1523.41 922.941 1518.55 Q926.83 1513.66 933.381 1513.66 Q935.14 1513.66 936.923 1514.01 Q938.728 1514.36 940.673 1515.05 Z" fill="#000000" fill-rule="evenodd" fill-opacity="1" /><path clip-path="url(#clip600)" d="M948.219 1533.96 L960.696 1533.96 L960.696 1537.76 L948.219 1537.76 L948.219 1533.96 Z" fill="#000000" fill-rule="evenodd" fill-opacity="1" /><path clip-path="url(#clip600)" d="M978.08 1517.37 Q974.469 1517.37 972.64 1520.93 Q970.835 1524.47 970.835 1531.6 Q970.835 1538.71 972.64 1542.27 Q974.469 1545.82 978.08 1545.82 Q981.714 1545.82 983.52 1542.27 Q985.348 1538.71 985.348 1531.6 Q985.348 1524.47 983.52 1520.93 Q981.714 1517.37 978.08 1517.37 M978.08 1513.66 Q983.89 1513.66 986.946 1518.27 Q990.024 1522.85 990.024 1531.6 Q990.024 1540.33 986.946 1544.94 Q983.89 1549.52 978.08 1549.52 Q972.27 1549.52 969.191 1544.94 Q966.136 1540.33 966.136 1531.6 Q966.136 1522.85 969.191 1518.27 Q972.27 1513.66 978.08 1513.66 Z" fill="#000000" fill-rule="evenodd" fill-opacity="1" /><path clip-path="url(#clip600)" d="M999.052 1544.91 L1006.69 1544.91 L1006.69 1518.55 L998.381 1520.21 L998.381 1515.95 L1006.64 1514.29 L1011.32 1514.29 L1011.32 1544.91 L1018.96 1544.91 L1018.96 1548.85 L999.052 1548.85 L999.052 1544.91 Z" fill="#000000" fill-rule="evenodd" fill-opacity="1" /><path clip-path="url(#clip600)" d="M1365.21 1544.91 L1381.53 1544.91 L1381.53 1548.85 L1359.59 1548.85 L1359.59 1544.91 Q1362.25 1542.16 1366.83 1537.53 Q1371.44 1532.88 1372.62 1531.53 Q1374.86 1529.01 1375.74 1527.27 Q1376.65 1525.51 1376.65 1523.82 Q1376.65 1521.07 1374.7 1519.33 Q1372.78 1517.6 1369.68 1517.6 Q1367.48 1517.6 1365.03 1518.36 Q1362.6 1519.13 1359.82 1520.68 L1359.82 1515.95 Q1362.64 1514.82 1365.1 1514.24 Q1367.55 1513.66 1369.59 1513.66 Q1374.96 1513.66 1378.15 1516.35 Q1381.35 1519.03 1381.35 1523.52 Q1381.35 1525.65 1380.54 1527.57 Q1379.75 1529.47 1377.64 1532.07 Q1377.06 1532.74 1373.96 1535.95 Q1370.86 1539.15 1365.21 1544.91 Z" fill="#000000" fill-rule="evenodd" fill-opacity="1" /><path clip-path="url(#clip600)" d="M1401.35 1517.37 Q1397.73 1517.37 1395.91 1520.93 Q1394.1 1524.47 1394.1 1531.6 Q1394.1 1538.71 1395.91 1542.27 Q1397.73 1545.82 1401.35 1545.82 Q1404.98 1545.82 1406.79 1542.27 Q1408.61 1538.71 1408.61 1531.6 Q1408.61 1524.47 1406.79 1520.93 Q1404.98 1517.37 1401.35 1517.37 M1401.35 1513.66 Q1407.16 1513.66 1410.21 1518.27 Q1413.29 1522.85 1413.29 1531.6 Q1413.29 1540.33 1410.21 1544.94 Q1407.16 1549.52 1401.35 1549.52 Q1395.54 1549.52 1392.46 1544.94 Q1389.4 1540.33 1389.4 1531.6 Q1389.4 1522.85 1392.46 1518.27 Q1395.54 1513.66 1401.35 1513.66 Z" fill="#000000" fill-rule="evenodd" fill-opacity="1" /><path clip-path="url(#clip600)" d="M1425.54 1544.91 L1441.85 1544.91 L1441.85 1548.85 L1419.91 1548.85 L1419.91 1544.91 Q1422.57 1542.16 1427.16 1537.53 Q1431.76 1532.88 1432.94 1531.53 Q1435.19 1529.01 1436.07 1527.27 Q1436.97 1525.51 1436.97 1523.82 Q1436.97 1521.07 1435.03 1519.33 Q1433.1 1517.6 1430 1517.6 Q1427.8 1517.6 1425.35 1518.36 Q1422.92 1519.13 1420.14 1520.68 L1420.14 1515.95 Q1422.97 1514.82 1425.42 1514.24 Q1427.87 1513.66 1429.91 1513.66 Q1435.28 1513.66 1438.48 1516.35 Q1441.67 1519.03 1441.67 1523.52 Q1441.67 1525.65 1440.86 1527.57 Q1440.07 1529.47 1437.97 1532.07 Q1437.39 1532.74 1434.29 1535.95 Q1431.18 1539.15 1425.54 1544.91 Z" fill="#000000" fill-rule="evenodd" fill-opacity="1" /><path clip-path="url(#clip600)" d="M1452.48 1544.91 L1460.12 1544.91 L1460.12 1518.55 L1451.81 1520.21 L1451.81 1515.95 L1460.07 1514.29 L1464.75 1514.29 L1464.75 1544.91 L1472.39 1544.91 L1472.39 1548.85 L1452.48 1548.85 L1452.48 1544.91 Z" fill="#000000" fill-rule="evenodd" fill-opacity="1" /><path clip-path="url(#clip600)" d="M1479.08 1533.96 L1491.55 1533.96 L1491.55 1537.76 L1479.08 1537.76 L1479.08 1533.96 Z" fill="#000000" fill-rule="evenodd" fill-opacity="1" /><path clip-path="url(#clip600)" d="M1508.94 1517.37 Q1505.33 1517.37 1503.5 1520.93 Q1501.69 1524.47 1501.69 1531.6 Q1501.69 1538.71 1503.5 1542.27 Q1505.33 1545.82 1508.94 1545.82 Q1512.57 1545.82 1514.38 1542.27 Q1516.21 1538.71 1516.21 1531.6 Q1516.21 1524.47 1514.38 1520.93 Q1512.57 1517.37 1508.94 1517.37 M1508.94 1513.66 Q1514.75 1513.66 1517.8 1518.27 Q1520.88 1522.85 1520.88 1531.6 Q1520.88 1540.33 1517.8 1544.94 Q1514.75 1549.52 1508.94 1549.52 Q1503.13 1549.52 1500.05 1544.94 Q1496.99 1540.33 1496.99 1531.6 Q1496.99 1522.85 1500.05 1518.27 Q1503.13 1513.66 1508.94 1513.66 Z" fill="#000000" fill-rule="evenodd" fill-opacity="1" /><path clip-path="url(#clip600)" d="M1529.24 1548.13 L1529.24 1543.87 Q1531 1544.7 1532.8 1545.14 Q1534.61 1545.58 1536.34 1545.58 Q1540.97 1545.58 1543.41 1542.48 Q1545.86 1539.36 1546.21 1533.01 Q1544.86 1535.01 1542.8 1536.07 Q1540.74 1537.13 1538.24 1537.13 Q1533.06 1537.13 1530.03 1534.01 Q1527.02 1530.86 1527.02 1525.42 Q1527.02 1520.1 1530.16 1516.88 Q1533.31 1513.66 1538.54 1513.66 Q1544.54 1513.66 1547.69 1518.27 Q1550.86 1522.85 1550.86 1531.6 Q1550.86 1539.77 1546.97 1544.66 Q1543.1 1549.52 1536.55 1549.52 Q1534.79 1549.52 1532.99 1549.17 Q1531.18 1548.82 1529.24 1548.13 M1538.54 1533.48 Q1541.69 1533.48 1543.52 1531.32 Q1545.37 1529.17 1545.37 1525.42 Q1545.37 1521.7 1543.52 1519.54 Q1541.69 1517.37 1538.54 1517.37 Q1535.4 1517.37 1533.54 1519.54 Q1531.72 1521.7 1531.72 1525.42 Q1531.72 1529.17 1533.54 1531.32 Q1535.4 1533.48 1538.54 1533.48 Z" fill="#000000" fill-rule="evenodd" fill-opacity="1" /><path clip-path="url(#clip600)" d="M1556.51 1533.96 L1568.98 1533.96 L1568.98 1537.76 L1556.51 1537.76 L1556.51 1533.96 Z" fill="#000000" fill-rule="evenodd" fill-opacity="1" /><path clip-path="url(#clip600)" d="M1586.37 1517.37 Q1582.76 1517.37 1580.93 1520.93 Q1579.12 1524.47 1579.12 1531.6 Q1579.12 1538.71 1580.93 1542.27 Q1582.76 1545.82 1586.37 1545.82 Q1590 1545.82 1591.81 1542.27 Q1593.64 1538.71 1593.64 1531.6 Q1593.64 1524.47 1591.81 1520.93 Q1590 1517.37 1586.37 1517.37 M1586.37 1513.66 Q1592.18 1513.66 1595.23 1518.27 Q1598.31 1522.85 1598.31 1531.6 Q1598.31 1540.33 1595.23 1544.94 Q1592.18 1549.52 1586.37 1549.52 Q1580.56 1549.52 1577.48 1544.94 Q1574.42 1540.33 1574.42 1531.6 Q1574.42 1522.85 1577.48 1518.27 Q1580.56 1513.66 1586.37 1513.66 Z" fill="#000000" fill-rule="evenodd" fill-opacity="1" /><path clip-path="url(#clip600)" d="M1607.34 1544.91 L1614.98 1544.91 L1614.98 1518.55 L1606.67 1520.21 L1606.67 1515.95 L1614.93 1514.29 L1619.61 1514.29 L1619.61 1544.91 L1627.25 1544.91 L1627.25 1548.85 L1607.34 1548.85 L1607.34 1544.91 Z" fill="#000000" fill-rule="evenodd" fill-opacity="1" /><path clip-path="url(#clip600)" d="M1966.89 1544.91 L1983.21 1544.91 L1983.21 1548.85 L1961.26 1548.85 L1961.26 1544.91 Q1963.92 1542.16 1968.51 1537.53 Q1973.11 1532.88 1974.3 1531.53 Q1976.54 1529.01 1977.42 1527.27 Q1978.32 1525.51 1978.32 1523.82 Q1978.32 1521.07 1976.38 1519.33 Q1974.46 1517.6 1971.36 1517.6 Q1969.16 1517.6 1966.7 1518.36 Q1964.27 1519.13 1961.49 1520.68 L1961.49 1515.95 Q1964.32 1514.82 1966.77 1514.24 Q1969.23 1513.66 1971.26 1513.66 Q1976.63 1513.66 1979.83 1516.35 Q1983.02 1519.03 1983.02 1523.52 Q1983.02 1525.65 1982.21 1527.57 Q1981.42 1529.47 1979.32 1532.07 Q1978.74 1532.74 1975.64 1535.95 Q1972.54 1539.15 1966.89 1544.91 Z" fill="#000000" fill-rule="evenodd" fill-opacity="1" /><path clip-path="url(#clip600)" d="M2003.02 1517.37 Q1999.41 1517.37 1997.58 1520.93 Q1995.78 1524.47 1995.78 1531.6 Q1995.78 1538.71 1997.58 1542.27 Q1999.41 1545.82 2003.02 1545.82 Q2006.66 1545.82 2008.46 1542.27 Q2010.29 1538.71 2010.29 1531.6 Q2010.29 1524.47 2008.46 1520.93 Q2006.66 1517.37 2003.02 1517.37 M2003.02 1513.66 Q2008.83 1513.66 2011.89 1518.27 Q2014.97 1522.85 2014.97 1531.6 Q2014.97 1540.33 2011.89 1544.94 Q2008.83 1549.52 2003.02 1549.52 Q1997.21 1549.52 1994.13 1544.94 Q1991.08 1540.33 1991.08 1531.6 Q1991.08 1522.85 1994.13 1518.27 Q1997.21 1513.66 2003.02 1513.66 Z" fill="#000000" fill-rule="evenodd" fill-opacity="1" /><path clip-path="url(#clip600)" d="M2027.21 1544.91 L2043.53 1544.91 L2043.53 1548.85 L2021.59 1548.85 L2021.59 1544.91 Q2024.25 1542.16 2028.83 1537.53 Q2033.44 1532.88 2034.62 1531.53 Q2036.86 1529.01 2037.74 1527.27 Q2038.65 1525.51 2038.65 1523.82 Q2038.65 1521.07 2036.7 1519.33 Q2034.78 1517.6 2031.68 1517.6 Q2029.48 1517.6 2027.03 1518.36 Q2024.6 1519.13 2021.82 1520.68 L2021.82 1515.95 Q2024.64 1514.82 2027.1 1514.24 Q2029.55 1513.66 2031.59 1513.66 Q2036.96 1513.66 2040.15 1516.35 Q2043.35 1519.03 2043.35 1523.52 Q2043.35 1525.65 2042.54 1527.57 Q2041.75 1529.47 2039.64 1532.07 Q2039.06 1532.74 2035.96 1535.95 Q2032.86 1539.15 2027.21 1544.91 Z" fill="#000000" fill-rule="evenodd" fill-opacity="1" /><path clip-path="url(#clip600)" d="M2054.16 1544.91 L2061.79 1544.91 L2061.79 1518.55 L2053.48 1520.21 L2053.48 1515.95 L2061.75 1514.29 L2066.42 1514.29 L2066.42 1544.91 L2074.06 1544.91 L2074.06 1548.85 L2054.16 1548.85 L2054.16 1544.91 Z" fill="#000000" fill-rule="evenodd" fill-opacity="1" /><path clip-path="url(#clip600)" d="M2080.75 1533.96 L2093.23 1533.96 L2093.23 1537.76 L2080.75 1537.76 L2080.75 1533.96 Z" fill="#000000" fill-rule="evenodd" fill-opacity="1" /><path clip-path="url(#clip600)" d="M2101.42 1544.91 L2109.06 1544.91 L2109.06 1518.55 L2100.75 1520.21 L2100.75 1515.95 L2109.02 1514.29 L2113.69 1514.29 L2113.69 1544.91 L2121.33 1544.91 L2121.33 1548.85 L2101.42 1548.85 L2101.42 1544.91 Z" fill="#000000" fill-rule="evenodd" fill-opacity="1" /><path clip-path="url(#clip600)" d="M2134.8 1544.91 L2151.12 1544.91 L2151.12 1548.85 L2129.18 1548.85 L2129.18 1544.91 Q2131.84 1542.16 2136.42 1537.53 Q2141.03 1532.88 2142.21 1531.53 Q2144.46 1529.01 2145.34 1527.27 Q2146.24 1525.51 2146.24 1523.82 Q2146.24 1521.07 2144.29 1519.33 Q2142.37 1517.6 2139.27 1517.6 Q2137.07 1517.6 2134.62 1518.36 Q2132.19 1519.13 2129.41 1520.68 L2129.41 1515.95 Q2132.23 1514.82 2134.69 1514.24 Q2137.14 1513.66 2139.18 1513.66 Q2144.55 1513.66 2147.74 1516.35 Q2150.94 1519.03 2150.94 1523.52 Q2150.94 1525.65 2150.13 1527.57 Q2149.34 1529.47 2147.23 1532.07 Q2146.66 1532.74 2143.55 1535.95 Q2140.45 1539.15 2134.8 1544.91 Z" fill="#000000" fill-rule="evenodd" fill-opacity="1" /><path clip-path="url(#clip600)" d="M2158.18 1533.96 L2170.66 1533.96 L2170.66 1537.76 L2158.18 1537.76 L2158.18 1533.96 Z" fill="#000000" fill-rule="evenodd" fill-opacity="1" /><path clip-path="url(#clip600)" d="M2188.04 1517.37 Q2184.43 1517.37 2182.6 1520.93 Q2180.8 1524.47 2180.8 1531.6 Q2180.8 1538.71 2182.6 1542.27 Q2184.43 1545.82 2188.04 1545.82 Q2191.68 1545.82 2193.48 1542.27 Q2195.31 1538.71 2195.31 1531.6 Q2195.31 1524.47 2193.48 1520.93 Q2191.68 1517.37 2188.04 1517.37 M2188.04 1513.66 Q2193.85 1513.66 2196.91 1518.27 Q2199.99 1522.85 2199.99 1531.6 Q2199.99 1540.33 2196.91 1544.94 Q2193.85 1549.52 2188.04 1549.52 Q2182.23 1549.52 2179.16 1544.94 Q2176.1 1540.33 2176.1 1531.6 Q2176.1 1522.85 2179.16 1518.27 Q2182.23 1513.66 2188.04 1513.66 Z" fill="#000000" fill-rule="evenodd" fill-opacity="1" /><path clip-path="url(#clip600)" d="M2209.02 1544.91 L2216.65 1544.91 L2216.65 1518.55 L2208.34 1520.21 L2208.34 1515.95 L2216.61 1514.29 L2221.28 1514.29 L2221.28 1544.91 L2228.92 1544.91 L2228.92 1548.85 L2209.02 1548.85 L2209.02 1544.91 Z" fill="#000000" fill-rule="evenodd" fill-opacity="1" /><polyline clip-path="url(#clip602)" style="stroke:#000000; stroke-linecap:butt; stroke-linejoin:round; stroke-width:2; stroke-opacity:0.1; fill:none" points="
  257.204,1274.27 2352.76,1274.27 
  "/>
<polyline clip-path="url(#clip602)" style="stroke:#000000; stroke-linecap:butt; stroke-linejoin:round; stroke-width:2; stroke-opacity:0.1; fill:none" points="
  257.204,1026.54 2352.76,1026.54 
  "/>
<polyline clip-path="url(#clip602)" style="stroke:#000000; stroke-linecap:butt; stroke-linejoin:round; stroke-width:2; stroke-opacity:0.1; fill:none" points="
  257.204,778.803 2352.76,778.803 
  "/>
<polyline clip-path="url(#clip602)" style="stroke:#000000; stroke-linecap:butt; stroke-linejoin:round; stroke-width:2; stroke-opacity:0.1; fill:none" points="
  257.204,531.07 2352.76,531.07 
  "/>
<polyline clip-path="url(#clip602)" style="stroke:#000000; stroke-linecap:butt; stroke-linejoin:round; stroke-width:2; stroke-opacity:0.1; fill:none" points="
  257.204,283.338 2352.76,283.338 
  "/>
<polyline clip-path="url(#clip600)" style="stroke:#000000; stroke-linecap:butt; stroke-linejoin:round; stroke-width:4; stroke-opacity:1; fill:none" points="
  257.204,1486.45 257.204,123.472 
  "/>
<polyline clip-path="url(#clip600)" style="stroke:#000000; stroke-linecap:butt; stroke-linejoin:round; stroke-width:4; stroke-opacity:1; fill:none" points="
  257.204,1274.27 276.102,1274.27 
  "/>
<polyline clip-path="url(#clip600)" style="stroke:#000000; stroke-linecap:butt; stroke-linejoin:round; stroke-width:4; stroke-opacity:1; fill:none" points="
  257.204,1026.54 276.102,1026.54 
  "/>
<polyline clip-path="url(#clip600)" style="stroke:#000000; stroke-linecap:butt; stroke-linejoin:round; stroke-width:4; stroke-opacity:1; fill:none" points="
  257.204,778.803 276.102,778.803 
  "/>
<polyline clip-path="url(#clip600)" style="stroke:#000000; stroke-linecap:butt; stroke-linejoin:round; stroke-width:4; stroke-opacity:1; fill:none" points="
  257.204,531.07 276.102,531.07 
  "/>
<polyline clip-path="url(#clip600)" style="stroke:#000000; stroke-linecap:butt; stroke-linejoin:round; stroke-width:4; stroke-opacity:1; fill:none" points="
  257.204,283.338 276.102,283.338 
  "/>
<path clip-path="url(#clip600)" d="M114.26 1274.72 L143.936 1274.72 L143.936 1278.65 L114.26 1278.65 L114.26 1274.72 Z" fill="#000000" fill-rule="evenodd" fill-opacity="1" /><path clip-path="url(#clip600)" d="M154.075 1256.99 L172.431 1256.99 L172.431 1260.92 L158.357 1260.92 L158.357 1269.4 Q159.376 1269.05 160.394 1268.89 Q161.413 1268.7 162.431 1268.7 Q168.218 1268.7 171.598 1271.87 Q174.977 1275.04 174.977 1280.46 Q174.977 1286.04 171.505 1289.14 Q168.033 1292.22 161.714 1292.22 Q159.538 1292.22 157.269 1291.85 Q155.024 1291.48 152.616 1290.74 L152.616 1286.04 Q154.7 1287.17 156.922 1287.73 Q159.144 1288.28 161.621 1288.28 Q165.626 1288.28 167.964 1286.18 Q170.302 1284.07 170.302 1280.46 Q170.302 1276.85 167.964 1274.74 Q165.626 1272.64 161.621 1272.64 Q159.746 1272.64 157.871 1273.05 Q156.019 1273.47 154.075 1274.35 L154.075 1256.99 Z" fill="#000000" fill-rule="evenodd" fill-opacity="1" /><path clip-path="url(#clip600)" d="M184.19 1285.67 L189.075 1285.67 L189.075 1291.55 L184.19 1291.55 L184.19 1285.67 Z" fill="#000000" fill-rule="evenodd" fill-opacity="1" /><path clip-path="url(#clip600)" d="M209.26 1260.07 Q205.649 1260.07 203.82 1263.63 Q202.014 1267.17 202.014 1274.3 Q202.014 1281.41 203.82 1284.97 Q205.649 1288.52 209.26 1288.52 Q212.894 1288.52 214.699 1284.97 Q216.528 1281.41 216.528 1274.3 Q216.528 1267.17 214.699 1263.63 Q212.894 1260.07 209.26 1260.07 M209.26 1256.36 Q215.07 1256.36 218.125 1260.97 Q221.204 1265.55 221.204 1274.3 Q221.204 1283.03 218.125 1287.64 Q215.07 1292.22 209.26 1292.22 Q203.449 1292.22 200.371 1287.64 Q197.315 1283.03 197.315 1274.3 Q197.315 1265.55 200.371 1260.97 Q203.449 1256.36 209.26 1256.36 Z" fill="#000000" fill-rule="evenodd" fill-opacity="1" /><path clip-path="url(#clip600)" d="M115.256 1026.99 L144.931 1026.99 L144.931 1030.92 L115.256 1030.92 L115.256 1026.99 Z" fill="#000000" fill-rule="evenodd" fill-opacity="1" /><path clip-path="url(#clip600)" d="M167.871 1013.33 L156.065 1031.78 L167.871 1031.78 L167.871 1013.33 M166.644 1009.26 L172.524 1009.26 L172.524 1031.78 L177.454 1031.78 L177.454 1035.67 L172.524 1035.67 L172.524 1043.82 L167.871 1043.82 L167.871 1035.67 L152.269 1035.67 L152.269 1031.15 L166.644 1009.26 Z" fill="#000000" fill-rule="evenodd" fill-opacity="1" /><path clip-path="url(#clip600)" d="M185.186 1037.94 L190.07 1037.94 L190.07 1043.82 L185.186 1043.82 L185.186 1037.94 Z" fill="#000000" fill-rule="evenodd" fill-opacity="1" /><path clip-path="url(#clip600)" d="M200.301 1009.26 L218.658 1009.26 L218.658 1013.19 L204.584 1013.19 L204.584 1021.66 Q205.602 1021.32 206.621 1021.15 Q207.639 1020.97 208.658 1020.97 Q214.445 1020.97 217.824 1024.14 Q221.204 1027.31 221.204 1032.73 Q221.204 1038.31 217.732 1041.41 Q214.26 1044.49 207.94 1044.49 Q205.764 1044.49 203.496 1044.12 Q201.25 1043.75 198.843 1043.01 L198.843 1038.31 Q200.926 1039.44 203.149 1040 Q205.371 1040.55 207.848 1040.55 Q211.852 1040.55 214.19 1038.44 Q216.528 1036.34 216.528 1032.73 Q216.528 1029.12 214.19 1027.01 Q211.852 1024.9 207.848 1024.9 Q205.973 1024.9 204.098 1025.32 Q202.246 1025.74 200.301 1026.62 L200.301 1009.26 Z" fill="#000000" fill-rule="evenodd" fill-opacity="1" /><path clip-path="url(#clip600)" d="M114.26 779.254 L143.936 779.254 L143.936 783.189 L114.26 783.189 L114.26 779.254 Z" fill="#000000" fill-rule="evenodd" fill-opacity="1" /><path clip-path="url(#clip600)" d="M166.876 765.597 L155.07 784.046 L166.876 784.046 L166.876 765.597 M165.649 761.523 L171.528 761.523 L171.528 784.046 L176.459 784.046 L176.459 787.935 L171.528 787.935 L171.528 796.083 L166.876 796.083 L166.876 787.935 L151.274 787.935 L151.274 783.421 L165.649 761.523 Z" fill="#000000" fill-rule="evenodd" fill-opacity="1" /><path clip-path="url(#clip600)" d="M184.19 790.203 L189.075 790.203 L189.075 796.083 L184.19 796.083 L184.19 790.203 Z" fill="#000000" fill-rule="evenodd" fill-opacity="1" /><path clip-path="url(#clip600)" d="M209.26 764.602 Q205.649 764.602 203.82 768.166 Q202.014 771.708 202.014 778.838 Q202.014 785.944 203.82 789.509 Q205.649 793.051 209.26 793.051 Q212.894 793.051 214.699 789.509 Q216.528 785.944 216.528 778.838 Q216.528 771.708 214.699 768.166 Q212.894 764.602 209.26 764.602 M209.26 760.898 Q215.07 760.898 218.125 765.504 Q221.204 770.088 221.204 778.838 Q221.204 787.564 218.125 792.171 Q215.07 796.754 209.26 796.754 Q203.449 796.754 200.371 792.171 Q197.315 787.564 197.315 778.838 Q197.315 770.088 200.371 765.504 Q203.449 760.898 209.26 760.898 Z" fill="#000000" fill-rule="evenodd" fill-opacity="1" /><path clip-path="url(#clip600)" d="M115.256 531.522 L144.931 531.522 L144.931 535.457 L115.256 535.457 L115.256 531.522 Z" fill="#000000" fill-rule="evenodd" fill-opacity="1" /><path clip-path="url(#clip600)" d="M169.19 529.716 Q172.547 530.434 174.422 532.702 Q176.32 534.971 176.32 538.304 Q176.32 543.42 172.802 546.221 Q169.283 549.022 162.802 549.022 Q160.626 549.022 158.311 548.582 Q156.019 548.165 153.566 547.309 L153.566 542.795 Q155.51 543.929 157.825 544.508 Q160.14 545.087 162.663 545.087 Q167.061 545.087 169.352 543.35 Q171.667 541.614 171.667 538.304 Q171.667 535.249 169.514 533.536 Q167.385 531.8 163.565 531.8 L159.538 531.8 L159.538 527.957 L163.751 527.957 Q167.2 527.957 169.028 526.591 Q170.857 525.202 170.857 522.61 Q170.857 519.948 168.959 518.536 Q167.084 517.101 163.565 517.101 Q161.644 517.101 159.445 517.517 Q157.246 517.934 154.607 518.814 L154.607 514.647 Q157.269 513.906 159.584 513.536 Q161.922 513.165 163.982 513.165 Q169.306 513.165 172.408 515.596 Q175.51 518.003 175.51 522.124 Q175.51 524.994 173.866 526.985 Q172.223 528.952 169.19 529.716 Z" fill="#000000" fill-rule="evenodd" fill-opacity="1" /><path clip-path="url(#clip600)" d="M185.186 542.471 L190.07 542.471 L190.07 548.35 L185.186 548.35 L185.186 542.471 Z" fill="#000000" fill-rule="evenodd" fill-opacity="1" /><path clip-path="url(#clip600)" d="M200.301 513.79 L218.658 513.79 L218.658 517.726 L204.584 517.726 L204.584 526.198 Q205.602 525.851 206.621 525.689 Q207.639 525.503 208.658 525.503 Q214.445 525.503 217.824 528.675 Q221.204 531.846 221.204 537.263 Q221.204 542.841 217.732 545.943 Q214.26 549.022 207.94 549.022 Q205.764 549.022 203.496 548.651 Q201.25 548.281 198.843 547.54 L198.843 542.841 Q200.926 543.975 203.149 544.531 Q205.371 545.087 207.848 545.087 Q211.852 545.087 214.19 542.98 Q216.528 540.874 216.528 537.263 Q216.528 533.651 214.19 531.545 Q211.852 529.439 207.848 529.439 Q205.973 529.439 204.098 529.855 Q202.246 530.272 200.301 531.151 L200.301 513.79 Z" fill="#000000" fill-rule="evenodd" fill-opacity="1" /><path clip-path="url(#clip600)" d="M114.26 283.789 L143.936 283.789 L143.936 287.725 L114.26 287.725 L114.26 283.789 Z" fill="#000000" fill-rule="evenodd" fill-opacity="1" /><path clip-path="url(#clip600)" d="M168.195 281.984 Q171.552 282.701 173.427 284.97 Q175.325 287.238 175.325 290.572 Q175.325 295.688 171.806 298.488 Q168.288 301.289 161.806 301.289 Q159.63 301.289 157.315 300.85 Q155.024 300.433 152.57 299.576 L152.57 295.063 Q154.515 296.197 156.829 296.775 Q159.144 297.354 161.667 297.354 Q166.065 297.354 168.357 295.618 Q170.672 293.882 170.672 290.572 Q170.672 287.516 168.519 285.803 Q166.39 284.067 162.57 284.067 L158.542 284.067 L158.542 280.225 L162.755 280.225 Q166.204 280.225 168.033 278.859 Q169.862 277.47 169.862 274.877 Q169.862 272.215 167.964 270.803 Q166.089 269.368 162.57 269.368 Q160.649 269.368 158.45 269.785 Q156.251 270.202 153.612 271.081 L153.612 266.915 Q156.274 266.174 158.589 265.803 Q160.927 265.433 162.987 265.433 Q168.311 265.433 171.413 267.864 Q174.514 270.271 174.514 274.391 Q174.514 277.262 172.871 279.252 Q171.227 281.22 168.195 281.984 Z" fill="#000000" fill-rule="evenodd" fill-opacity="1" /><path clip-path="url(#clip600)" d="M184.19 294.738 L189.075 294.738 L189.075 300.618 L184.19 300.618 L184.19 294.738 Z" fill="#000000" fill-rule="evenodd" fill-opacity="1" /><path clip-path="url(#clip600)" d="M209.26 269.137 Q205.649 269.137 203.82 272.702 Q202.014 276.243 202.014 283.373 Q202.014 290.479 203.82 294.044 Q205.649 297.586 209.26 297.586 Q212.894 297.586 214.699 294.044 Q216.528 290.479 216.528 283.373 Q216.528 276.243 214.699 272.702 Q212.894 269.137 209.26 269.137 M209.26 265.433 Q215.07 265.433 218.125 270.039 Q221.204 274.623 221.204 283.373 Q221.204 292.1 218.125 296.706 Q215.07 301.289 209.26 301.289 Q203.449 301.289 200.371 296.706 Q197.315 292.1 197.315 283.373 Q197.315 274.623 200.371 270.039 Q203.449 265.433 209.26 265.433 Z" fill="#000000" fill-rule="evenodd" fill-opacity="1" /><path clip-path="url(#clip600)" d="M16.4842 1010.11 L16.4842 1003.68 L58.5933 1003.68 L58.5933 980.542 L64.0042 980.542 L64.0042 1010.11 L16.4842 1010.11 Z" fill="#000000" fill-rule="evenodd" fill-opacity="1" /><path clip-path="url(#clip600)" d="M32.4621 961.381 Q32.4621 966.092 36.1542 968.829 Q39.8145 971.566 46.212 971.566 Q52.6095 971.566 56.3017 968.861 Q59.9619 966.124 59.9619 961.381 Q59.9619 956.703 56.2698 953.965 Q52.5777 951.228 46.212 951.228 Q39.8781 951.228 36.186 953.965 Q32.4621 956.703 32.4621 961.381 M27.4968 961.381 Q27.4968 953.742 32.4621 949.382 Q37.4273 945.021 46.212 945.021 Q54.9649 945.021 59.9619 949.382 Q64.9272 953.742 64.9272 961.381 Q64.9272 969.052 59.9619 973.413 Q54.9649 977.741 46.212 977.741 Q37.4273 977.741 32.4621 973.413 Q27.4968 969.052 27.4968 961.381 Z" fill="#000000" fill-rule="evenodd" fill-opacity="1" /><path clip-path="url(#clip600)" d="M45.7664 911.856 Q39.4007 911.856 35.8996 914.498 Q32.3984 917.108 32.3984 921.85 Q32.3984 926.561 35.8996 929.203 Q39.4007 931.813 45.7664 931.813 Q52.1003 931.813 55.6014 929.203 Q59.1026 926.561 59.1026 921.85 Q59.1026 917.108 55.6014 914.498 Q52.1003 911.856 45.7664 911.856 M59.58 906 Q68.683 906 73.1071 910.042 Q77.5631 914.084 77.5631 922.423 Q77.5631 925.511 77.0857 928.248 Q76.6401 930.985 75.6852 933.563 L69.9879 933.563 Q71.3884 930.985 72.0568 928.471 Q72.7252 925.956 72.7252 923.346 Q72.7252 917.585 69.7015 914.721 Q66.7096 911.856 60.6303 911.856 L57.7339 911.856 Q60.885 913.67 62.4446 916.503 Q64.0042 919.336 64.0042 923.283 Q64.0042 929.839 59.0071 933.85 Q54.01 937.86 45.7664 937.86 Q37.491 937.86 32.4939 933.85 Q27.4968 929.839 27.4968 923.283 Q27.4968 919.336 29.0564 916.503 Q30.616 913.67 33.7671 911.856 L28.3562 911.856 L28.3562 906 L59.58 906 Z" fill="#000000" fill-rule="evenodd" fill-opacity="1" /><path clip-path="url(#clip600)" d="M64.0042 860.708 L16.4842 878.85 L16.4842 872.134 L56.4926 857.079 L16.4842 841.992 L16.4842 835.309 L64.0042 853.419 L64.0042 860.708 Z" fill="#000000" fill-rule="evenodd" fill-opacity="1" /><path clip-path="url(#clip600)" d="M32.4621 819.872 Q32.4621 824.582 36.1542 827.32 Q39.8145 830.057 46.212 830.057 Q52.6095 830.057 56.3017 827.351 Q59.9619 824.614 59.9619 819.872 Q59.9619 815.193 56.2698 812.456 Q52.5777 809.718 46.212 809.718 Q39.8781 809.718 36.186 812.456 Q32.4621 815.193 32.4621 819.872 M27.4968 819.872 Q27.4968 812.233 32.4621 807.872 Q37.4273 803.512 46.212 803.512 Q54.9649 803.512 59.9619 807.872 Q64.9272 812.233 64.9272 819.872 Q64.9272 827.542 59.9619 831.903 Q54.9649 836.232 46.212 836.232 Q37.4273 836.232 32.4621 831.903 Q27.4968 827.542 27.4968 819.872 Z" fill="#000000" fill-rule="evenodd" fill-opacity="1" /><path clip-path="url(#clip600)" d="M14.479 793.804 L14.479 787.948 L64.0042 787.948 L64.0042 793.804 L14.479 793.804 Z" fill="#000000" fill-rule="evenodd" fill-opacity="1" /><path clip-path="url(#clip600)" d="M46.0847 759.493 Q46.0847 766.591 47.7079 769.328 Q49.3312 772.065 53.2461 772.065 Q56.3653 772.065 58.2114 770.028 Q60.0256 767.959 60.0256 764.426 Q60.0256 759.557 56.5881 756.628 Q53.1188 753.668 47.3897 753.668 L46.0847 753.668 L46.0847 759.493 M43.6657 747.812 L64.0042 747.812 L64.0042 753.668 L58.5933 753.668 Q61.8398 755.674 63.3994 758.665 Q64.9272 761.657 64.9272 765.986 Q64.9272 771.46 61.8716 774.707 Q58.7843 777.922 53.6281 777.922 Q47.6125 777.922 44.5569 773.911 Q41.5014 769.869 41.5014 761.88 L41.5014 753.668 L40.9285 753.668 Q36.8862 753.668 34.6901 756.342 Q32.4621 758.984 32.4621 763.79 Q32.4621 766.845 33.1941 769.742 Q33.9262 772.638 35.3903 775.312 L29.9795 775.312 Q28.7381 772.097 28.1334 769.073 Q27.4968 766.05 27.4968 763.185 Q27.4968 755.451 31.5072 751.631 Q35.5176 747.812 43.6657 747.812 Z" fill="#000000" fill-rule="evenodd" fill-opacity="1" /><path clip-path="url(#clip600)" d="M18.2347 729.956 L28.3562 729.956 L28.3562 717.893 L32.9077 717.893 L32.9077 729.956 L52.2594 729.956 Q56.6199 729.956 57.8613 728.778 Q59.1026 727.569 59.1026 723.909 L59.1026 717.893 L64.0042 717.893 L64.0042 723.909 Q64.0042 730.688 61.4897 733.266 Q58.9434 735.844 52.2594 735.844 L32.9077 735.844 L32.9077 740.141 L28.3562 740.141 L28.3562 735.844 L18.2347 735.844 L18.2347 729.956 Z" fill="#000000" fill-rule="evenodd" fill-opacity="1" /><path clip-path="url(#clip600)" d="M28.3562 710.191 L28.3562 704.334 L64.0042 704.334 L64.0042 710.191 L28.3562 710.191 M14.479 710.191 L14.479 704.334 L21.895 704.334 L21.895 710.191 L14.479 710.191 Z" fill="#000000" fill-rule="evenodd" fill-opacity="1" /><path clip-path="url(#clip600)" d="M14.479 692.08 L14.479 686.224 L64.0042 686.224 L64.0042 692.08 L14.479 692.08 Z" fill="#000000" fill-rule="evenodd" fill-opacity="1" /><path clip-path="url(#clip600)" d="M28.3562 673.97 L28.3562 668.113 L64.0042 668.113 L64.0042 673.97 L28.3562 673.97 M14.479 673.97 L14.479 668.113 L21.895 668.113 L21.895 673.97 L14.479 673.97 Z" fill="#000000" fill-rule="evenodd" fill-opacity="1" /><path clip-path="url(#clip600)" d="M18.2347 650.066 L28.3562 650.066 L28.3562 638.003 L32.9077 638.003 L32.9077 650.066 L52.2594 650.066 Q56.6199 650.066 57.8613 648.889 Q59.1026 647.679 59.1026 644.019 L59.1026 638.003 L64.0042 638.003 L64.0042 644.019 Q64.0042 650.798 61.4897 653.377 Q58.9434 655.955 52.2594 655.955 L32.9077 655.955 L32.9077 660.252 L28.3562 660.252 L28.3562 655.955 L18.2347 655.955 L18.2347 650.066 Z" fill="#000000" fill-rule="evenodd" fill-opacity="1" /><path clip-path="url(#clip600)" d="M67.3143 615.469 Q73.68 617.951 75.6216 620.307 Q77.5631 622.662 77.5631 626.609 L77.5631 631.288 L72.6615 631.288 L72.6615 627.85 Q72.6615 625.431 71.5157 624.094 Q70.3699 622.758 66.1048 621.134 L63.4312 620.084 L28.3562 634.502 L28.3562 628.296 L56.238 617.156 L28.3562 606.016 L28.3562 599.809 L67.3143 615.469 Z" fill="#000000" fill-rule="evenodd" fill-opacity="1" /><path clip-path="url(#clip600)" d="M257.204 12.096 L265.387 12.096 L265.387 65.6895 L294.837 65.6895 L294.837 72.576 L257.204 72.576 L257.204 12.096 Z" fill="#000000" fill-rule="evenodd" fill-opacity="1" /><path clip-path="url(#clip600)" d="M319.223 32.4315 Q313.228 32.4315 309.744 37.1306 Q306.26 41.7891 306.26 49.9314 Q306.26 58.0738 309.704 62.7728 Q313.188 67.4314 319.223 67.4314 Q325.178 67.4314 328.662 62.7323 Q332.146 58.0333 332.146 49.9314 Q332.146 41.8701 328.662 37.1711 Q325.178 32.4315 319.223 32.4315 M319.223 26.1121 Q328.946 26.1121 334.495 32.4315 Q340.045 38.7509 340.045 49.9314 Q340.045 61.0714 334.495 67.4314 Q328.946 73.7508 319.223 73.7508 Q309.461 73.7508 303.911 67.4314 Q298.402 61.0714 298.402 49.9314 Q298.402 38.7509 303.911 32.4315 Q309.461 26.1121 319.223 26.1121 Z" fill="#000000" fill-rule="evenodd" fill-opacity="1" /><path clip-path="url(#clip600)" d="M382.255 49.3643 Q382.255 41.2625 378.893 36.8065 Q375.571 32.3505 369.536 32.3505 Q363.54 32.3505 360.178 36.8065 Q356.856 41.2625 356.856 49.3643 Q356.856 57.4256 360.178 61.8816 Q363.54 66.3376 369.536 66.3376 Q375.571 66.3376 378.893 61.8816 Q382.255 57.4256 382.255 49.3643 M389.709 66.9452 Q389.709 78.5308 384.564 84.1616 Q379.42 89.8329 368.806 89.8329 Q364.877 89.8329 361.393 89.2252 Q357.91 88.6581 354.628 87.4428 L354.628 80.1917 Q357.91 81.9741 361.11 82.8248 Q364.31 83.6755 367.632 83.6755 Q374.964 83.6755 378.61 79.8271 Q382.255 76.0193 382.255 68.282 L382.255 64.5957 Q379.946 68.6061 376.341 70.5911 Q372.736 72.576 367.713 72.576 Q359.368 72.576 354.264 66.2161 Q349.16 59.8562 349.16 49.3643 Q349.16 38.832 354.264 32.472 Q359.368 26.1121 367.713 26.1121 Q372.736 26.1121 376.341 28.0971 Q379.946 30.082 382.255 34.0924 L382.255 27.2059 L389.709 27.2059 L389.709 66.9452 Z" fill="#000000" fill-rule="evenodd" fill-opacity="1" /><path clip-path="url(#clip600)" d="M447.353 72.576 L424.263 12.096 L432.811 12.096 L451.972 63.0159 L471.173 12.096 L479.68 12.096 L456.63 72.576 L447.353 72.576 Z" fill="#000000" fill-rule="evenodd" fill-opacity="1" /><path clip-path="url(#clip600)" d="M499.327 32.4315 Q493.331 32.4315 489.847 37.1306 Q486.364 41.7891 486.364 49.9314 Q486.364 58.0738 489.807 62.7728 Q493.291 67.4314 499.327 67.4314 Q505.281 67.4314 508.765 62.7323 Q512.249 58.0333 512.249 49.9314 Q512.249 41.8701 508.765 37.1711 Q505.281 32.4315 499.327 32.4315 M499.327 26.1121 Q509.049 26.1121 514.598 32.4315 Q520.148 38.7509 520.148 49.9314 Q520.148 61.0714 514.598 67.4314 Q509.049 73.7508 499.327 73.7508 Q489.564 73.7508 484.014 67.4314 Q478.505 61.0714 478.505 49.9314 Q478.505 38.7509 484.014 32.4315 Q489.564 26.1121 499.327 26.1121 Z" fill="#000000" fill-rule="evenodd" fill-opacity="1" /><path clip-path="url(#clip600)" d="M532.503 9.54393 L539.957 9.54393 L539.957 72.576 L532.503 72.576 L532.503 9.54393 Z" fill="#000000" fill-rule="evenodd" fill-opacity="1" /><path clip-path="url(#clip600)" d="M576.172 49.7694 Q567.139 49.7694 563.655 51.8354 Q560.171 53.9013 560.171 58.8839 Q560.171 62.8538 562.764 65.2034 Q565.397 67.5124 569.893 67.5124 Q576.091 67.5124 579.818 63.1374 Q583.585 58.7219 583.585 51.4303 L583.585 49.7694 L576.172 49.7694 M591.039 46.6907 L591.039 72.576 L583.585 72.576 L583.585 65.6895 Q581.033 69.8214 577.225 71.8063 Q573.418 73.7508 567.908 73.7508 Q560.941 73.7508 556.809 69.8619 Q552.717 65.9325 552.717 59.3701 Q552.717 51.7138 557.822 47.825 Q562.966 43.9361 573.134 43.9361 L583.585 43.9361 L583.585 43.2069 Q583.585 38.0623 580.183 35.2672 Q576.82 32.4315 570.704 32.4315 Q566.815 32.4315 563.128 33.3632 Q559.442 34.295 556.039 36.1584 L556.039 29.2718 Q560.131 27.692 563.979 26.9223 Q567.827 26.1121 571.473 26.1121 Q581.317 26.1121 586.178 31.2163 Q591.039 36.3204 591.039 46.6907 Z" fill="#000000" fill-rule="evenodd" fill-opacity="1" /><path clip-path="url(#clip600)" d="M613.765 14.324 L613.765 27.2059 L629.118 27.2059 L629.118 32.9987 L613.765 32.9987 L613.765 57.6282 Q613.765 63.1779 615.263 64.7578 Q616.803 66.3376 621.461 66.3376 L629.118 66.3376 L629.118 72.576 L621.461 72.576 Q612.833 72.576 609.552 69.3758 Q606.27 66.1351 606.27 57.6282 L606.27 32.9987 L600.802 32.9987 L600.802 27.2059 L606.27 27.2059 L606.27 14.324 L613.765 14.324 Z" fill="#000000" fill-rule="evenodd" fill-opacity="1" /><path clip-path="url(#clip600)" d="M638.921 27.2059 L646.374 27.2059 L646.374 72.576 L638.921 72.576 L638.921 27.2059 M638.921 9.54393 L646.374 9.54393 L646.374 18.9825 L638.921 18.9825 L638.921 9.54393 Z" fill="#000000" fill-rule="evenodd" fill-opacity="1" /><path clip-path="url(#clip600)" d="M661.97 9.54393 L669.424 9.54393 L669.424 72.576 L661.97 72.576 L661.97 9.54393 Z" fill="#000000" fill-rule="evenodd" fill-opacity="1" /><path clip-path="url(#clip600)" d="M685.02 27.2059 L692.474 27.2059 L692.474 72.576 L685.02 72.576 L685.02 27.2059 M685.02 9.54393 L692.474 9.54393 L692.474 18.9825 L685.02 18.9825 L685.02 9.54393 Z" fill="#000000" fill-rule="evenodd" fill-opacity="1" /><path clip-path="url(#clip600)" d="M715.442 14.324 L715.442 27.2059 L730.795 27.2059 L730.795 32.9987 L715.442 32.9987 L715.442 57.6282 Q715.442 63.1779 716.941 64.7578 Q718.48 66.3376 723.139 66.3376 L730.795 66.3376 L730.795 72.576 L723.139 72.576 Q714.511 72.576 711.229 69.3758 Q707.948 66.1351 707.948 57.6282 L707.948 32.9987 L702.479 32.9987 L702.479 27.2059 L707.948 27.2059 L707.948 14.324 L715.442 14.324 Z" fill="#000000" fill-rule="evenodd" fill-opacity="1" /><path clip-path="url(#clip600)" d="M759.476 76.7889 Q756.316 84.8907 753.318 87.3618 Q750.321 89.8329 745.297 89.8329 L739.343 89.8329 L739.343 83.5945 L743.718 83.5945 Q746.796 83.5945 748.498 82.1361 Q750.199 80.6778 752.265 75.2496 L753.602 71.8468 L735.251 27.2059 L743.15 27.2059 L757.329 62.6918 L771.507 27.2059 L779.406 27.2059 L759.476 76.7889 Z" fill="#000000" fill-rule="evenodd" fill-opacity="1" /><polyline clip-path="url(#clip602)" style="stroke:#009af9; stroke-linecap:butt; stroke-linejoin:round; stroke-width:8; stroke-opacity:1; fill:none" points="
  514.867,503.898 521.479,496.003 528.091,502.119 534.702,504.247 541.314,506.913 547.926,508.019 554.538,548.72 561.15,527.8 567.761,563.746 574.373,567.686 
  580.985,568.173 587.597,567.887 594.209,525.862 600.821,525.165 607.432,524.37 614.044,533.728 620.656,520.065 627.268,532.365 633.88,531.162 640.492,583.119 
  647.103,493.38 653.715,490.379 660.327,499.359 666.939,499.59 673.551,454.316 680.162,454.302 686.774,451.581 693.386,457.742 699.998,428.034 706.61,393.676 
  713.222,393.669 719.833,399.303 726.445,402.867 733.057,402.153 739.669,397.378 746.281,395.818 752.893,315.032 759.504,333.332 766.116,332.731 772.728,320.719 
  779.34,322.175 785.952,311.386 792.564,323.245 799.175,252.034 805.787,217.807 812.399,207.735 819.011,209.203 825.623,199.124 832.234,164.964 838.846,165.176 
  845.458,187.392 852.07,189.351 858.682,179.979 865.294,179.652 871.905,194.319 878.517,186.568 885.129,186.677 891.741,184.672 898.353,185.812 904.965,198.963 
  911.576,197.892 918.188,199.129 924.8,198.561 931.412,198.26 938.024,162.047 944.635,163.86 951.247,197.322 957.859,194.199 964.471,170.562 971.083,173.557 
  977.695,173.521 984.306,177.486 990.918,177.831 997.53,226.494 1004.14,257.476 1010.75,278.725 1017.37,237.857 1023.98,249.634 1030.59,288.224 1037.2,284.87 
  1043.81,262.569 1050.42,260.589 1057.04,259.635 1063.65,262.258 1070.26,259.964 1076.87,264.734 1083.48,259.598 1090.1,261.502 1096.71,265.872 1103.32,276.407 
  1109.93,273.87 1116.54,273.158 1123.15,286.569 1129.77,283.55 1136.38,330.186 1142.99,331.1 1149.6,330.243 1156.21,334.912 1162.83,378.158 1169.44,388.078 
  1176.05,385.582 1182.66,393.269 1189.27,392.605 1195.88,408.889 1202.5,405.268 1209.11,400.873 1215.72,444.908 1222.33,450.317 1228.94,446.981 1235.56,450.023 
  1242.17,510.105 1248.78,494.725 1255.39,510.04 1262,510.267 1268.61,521.397 1275.23,507.976 1281.84,526.367 1288.45,507.394 1295.06,506.636 1301.67,501.609 
  1308.29,512.352 1314.9,508.534 1321.51,497.313 1328.12,501.772 1334.73,498.426 1341.35,485.207 1347.96,481.393 1354.57,496.275 1361.18,489.745 1367.79,461.008 
  1374.4,468.067 1381.02,472.286 1387.63,462.905 1394.24,452.359 1400.85,463.861 1407.46,473.647 1414.08,490.491 1420.69,486.73 1427.3,492.755 1433.91,492.554 
  1440.52,477.852 1447.13,488.452 1453.75,486.963 1460.36,475.097 1466.97,474.753 1473.58,491.748 1480.19,481.638 1486.81,497.583 1493.42,495.4 1500.03,504.228 
  1506.64,512.139 1513.25,515.598 1519.86,522.538 1526.48,532.299 1533.09,426.311 1539.7,442.149 1546.31,443.336 1552.92,435.866 1559.54,439.614 1566.15,475.551 
  1572.76,473.289 1579.37,456.708 1585.98,458.027 1592.59,463.267 1599.21,462.335 1605.82,473.27 1612.43,491.844 1619.04,433.193 1625.65,419.34 1632.27,389.865 
  1638.88,390.359 1645.49,385.234 1652.1,394.045 1658.71,406.726 1665.32,404.714 1671.94,402 1678.55,406.427 1685.16,388.712 1691.77,350.688 1698.38,350.682 
  1705,351.08 1711.61,348.979 1718.22,345.938 1724.83,325.485 1731.44,387.181 1738.05,389.921 1744.67,389.063 1751.28,397.02 1757.89,387.338 1764.5,382.219 
  1771.11,385.75 1777.73,393.934 1784.34,372.837 1790.95,371.88 1797.56,373.438 1804.17,374.226 1810.78,375.662 1817.4,438.602 1824.01,434.178 1830.62,444.91 
  1837.23,447.355 1843.84,468.243 1850.46,465.988 1857.07,443.943 1863.68,439.845 1870.29,446.316 1876.9,444.993 1883.51,454.222 1890.13,506.155 1896.74,507.332 
  1903.35,500.519 1909.96,500.151 1916.57,503.928 1923.19,544.053 1929.8,554.212 1936.41,548.653 1943.02,517.428 1949.63,516.421 1956.24,522.376 1962.86,530.638 
  1969.47,532.313 1976.08,532.458 1982.69,581.163 1989.3,572.986 1995.92,540.129 2002.53,540.717 2009.14,524.527 2015.75,527.181 2022.36,549.307 2028.97,551.892 
  2035.59,537.79 2042.2,532.103 2048.81,546.287 2055.42,553.223 2062.03,487.107 2068.65,495.525 2075.26,484.074 2081.87,483.145 2088.48,482.281 2095.09,482.094 
  2101.7,494.141 2108.32,476.345 2114.93,435.205 2121.54,434.275 2128.15,430.959 2134.76,438.395 2141.38,475.575 2147.99,457.782 2154.6,460.485 2161.21,439.635 
  2167.82,436.436 2174.43,415.475 2181.05,408.162 2187.66,408.07 2194.27,420.041 2200.88,417.815 2207.49,430.677 2214.11,435.62 2220.72,442.702 2227.33,428.494 
  2233.94,436.704 2240.55,425.997 2247.17,425.945 2253.78,433.919 2260.39,489.38 2267,492.785 2273.61,483.92 2280.22,483.863 2286.84,481.049 2293.45,477.896 
  
  "/>
<polyline clip-path="url(#clip602)" style="stroke:#e26f46; stroke-linecap:butt; stroke-linejoin:round; stroke-width:8; stroke-opacity:1; fill:none" points="
  607.432,1239.02 614.044,1253.94 620.656,1235.31 627.268,1233.41 647.103,1233.46 653.715,1235.5 660.327,1236.29 666.939,1233.38 673.551,1268.19 693.386,1278.37 
  699.998,1271.68 706.61,1290.2 713.222,1295.29 719.833,1292.75 739.669,1301.16 746.281,1279.45 752.893,1198.35 759.504,1183.56 766.116,1170.12 785.952,1191.03 
  792.564,1179.94 799.175,1178.83 805.787,1167.97 812.399,1173.56 832.234,1162.04 838.846,1161.86 845.458,1163.47 852.07,1176.42 858.682,1177.33 885.129,1180.64 
  891.741,1188.57 898.353,1197.16 904.965,1199.98 924.8,1214.41 931.412,1214.83 938.024,1214.37 944.635,1211.81 951.247,1216.8 971.083,1223.91 977.695,1223.41 
  984.306,1224.57 990.918,1224.47 997.53,1192.11 1017.37,1172.33 1023.98,1181.9 1030.59,1193.48 1037.2,1270.59 1043.81,1291.03 1063.65,1334.87 1070.26,1337.73 
  1076.87,1362.09 1083.48,1361.95 1090.1,1374.95 1116.54,1373.4 1123.15,1394.84 1129.77,1372.87 1136.38,1349.08 1156.21,1347.97 1162.83,1342.46 1169.44,1343.58 
  1176.05,1338.33 1182.66,1324.83 1202.5,1289.09 1209.11,1254.1 1215.72,1245.23 1222.33,1246.09 1228.94,1234.58 1248.78,1234.38 1255.39,1229.33 1262,1230.32 
  1268.61,1236.54 1275.23,1230.8 1295.06,1288.2 1301.67,1312.43 1308.29,1307.09 1314.9,1303.24 1321.51,1307.53 1341.35,1307.73 1347.96,1307.88 1354.57,1307.61 
  1361.18,1307.01 1367.79,1310.91 1387.63,1320.01 1394.24,1309.22 1400.85,1283.29 1407.46,1298.31 1414.08,1308.15 1433.91,1296.17 1440.52,1299.83 1447.13,1299.61 
  1453.75,1293.86 1460.36,1298.26 1480.19,1361.59 1486.81,1403.28 1493.42,1417.39 1500.03,1416.56 1506.64,1445.03 1533.09,1438.58 1539.7,1447.87 1546.31,1438.7 
  1552.92,1418.01 1572.76,1426.33 1579.37,1416.61 1585.98,1415.5 1592.59,1424.15 1599.21,1380.02 1619.04,1312.84 1625.65,1312.82 1632.27,1291.51 1638.88,1264.11 
  1645.49,1265.27 1665.32,1264.67 1671.94,1203.89 1678.55,1207.62 1685.16,1203.6 1691.77,1183.31 1711.61,1173.95 1718.22,1169.72 1724.83,1167.27 1731.44,1157.55 
  1738.05,1160.62 1757.89,1167.33 1764.5,1171.12 1771.11,1168.16 1777.73,1132.9 1784.34,1127.25 1804.17,1126.03 1810.78,1120.72 1817.4,1119.35 1824.01,1120.83 
  1830.62,1127.8 1850.46,1125.87 1857.07,1129.85 1863.68,1133.3 1870.29,1125.38 1876.9,1146.56 1896.74,1188.08 1903.35,1188.71 1909.96,1194.43 1916.57,1207.91 
  1923.19,1207.5 1943.02,1210.58 1949.63,1292.37 1956.24,1271.45 1962.86,1314.21 1969.47,1328.18 1989.3,1391.65 1995.92,1409.16 2002.53,1401.98 2009.14,1414.22 
  2015.75,1414.31 2035.59,1437.12 2042.2,1445.7 2048.81,1446.11 2062.03,1333.79 2081.87,1315.54 2088.48,1235.94 2095.09,1223.81 2101.7,1193.28 2108.32,1183.49 
  2128.15,1166.8 2134.76,1125.31 2141.38,1125.01 2147.99,1121.88 2154.6,1122.29 2174.43,1113.23 2181.05,1108.24 2187.66,1088.43 2194.27,1083.81 2200.88,1069.2 
  2220.72,1062.61 2227.33,1037.31 2233.94,1030.66 2240.55,1033.08 2267,1020.78 2273.61,1023.65 2280.22,1023.64 2286.84,1023.63 
  "/>
<path clip-path="url(#clip600)" d="
M1965.48 324.425 L2282.9 324.425 L2282.9 168.905 L1965.48 168.905  Z
  " fill="#ffffff" fill-rule="evenodd" fill-opacity="1"/>
<polyline clip-path="url(#clip600)" style="stroke:#000000; stroke-linecap:butt; stroke-linejoin:round; stroke-width:4; stroke-opacity:1; fill:none" points="
  1965.48,324.425 2282.9,324.425 2282.9,168.905 1965.48,168.905 1965.48,324.425 
  "/>
<polyline clip-path="url(#clip600)" style="stroke:#009af9; stroke-linecap:butt; stroke-linejoin:round; stroke-width:4; stroke-opacity:1; fill:none" points="
  1988.77,220.745 2128.47,220.745 
  "/>
<path clip-path="url(#clip600)" d="M2156.43 221.52 L2156.43 234.182 L2163.93 234.182 Q2167.7 234.182 2169.51 232.631 Q2171.34 231.057 2171.34 227.84 Q2171.34 224.599 2169.51 223.071 Q2167.7 221.52 2163.93 221.52 L2156.43 221.52 M2156.43 207.307 L2156.43 217.724 L2163.35 217.724 Q2166.78 217.724 2168.44 216.451 Q2170.13 215.154 2170.13 212.516 Q2170.13 209.9 2168.44 208.604 Q2166.78 207.307 2163.35 207.307 L2156.43 207.307 M2151.75 203.465 L2163.7 203.465 Q2169.05 203.465 2171.94 205.687 Q2174.83 207.909 2174.83 212.006 Q2174.83 215.178 2173.35 217.053 Q2171.87 218.928 2169 219.39 Q2172.45 220.131 2174.35 222.492 Q2176.27 224.83 2176.27 228.349 Q2176.27 232.978 2173.12 235.502 Q2169.97 238.025 2164.16 238.025 L2151.75 238.025 L2151.75 203.465 Z" fill="#000000" fill-rule="evenodd" fill-opacity="1" /><path clip-path="url(#clip600)" d="M2179.48 203.465 L2208.72 203.465 L2208.72 207.4 L2196.45 207.4 L2196.45 238.025 L2191.75 238.025 L2191.75 207.4 L2179.48 207.4 L2179.48 203.465 Z" fill="#000000" fill-rule="evenodd" fill-opacity="1" /><path clip-path="url(#clip600)" d="M2236.34 206.127 L2236.34 211.057 Q2233.98 208.858 2231.29 207.77 Q2228.63 206.682 2225.62 206.682 Q2219.69 206.682 2216.54 210.316 Q2213.4 213.928 2213.4 220.779 Q2213.4 227.608 2216.54 231.242 Q2219.69 234.853 2225.62 234.853 Q2228.63 234.853 2231.29 233.765 Q2233.98 232.677 2236.34 230.478 L2236.34 235.363 Q2233.88 237.029 2231.13 237.863 Q2228.4 238.696 2225.34 238.696 Q2217.49 238.696 2212.98 233.904 Q2208.47 229.09 2208.47 220.779 Q2208.47 212.446 2212.98 207.654 Q2217.49 202.84 2225.34 202.84 Q2228.44 202.84 2231.17 203.673 Q2233.93 204.483 2236.34 206.127 Z" fill="#000000" fill-rule="evenodd" fill-opacity="1" /><polyline clip-path="url(#clip600)" style="stroke:#e26f46; stroke-linecap:butt; stroke-linejoin:round; stroke-width:4; stroke-opacity:1; fill:none" points="
  1988.77,272.585 2128.47,272.585 
  "/>
<path clip-path="url(#clip600)" d="M2174 256.439 L2174 260.999 Q2171.34 259.726 2168.98 259.101 Q2166.61 258.476 2164.42 258.476 Q2160.6 258.476 2158.51 259.957 Q2156.45 261.439 2156.45 264.17 Q2156.45 266.462 2157.82 267.643 Q2159.21 268.8 2163.05 269.518 L2165.87 270.096 Q2171.11 271.092 2173.58 273.615 Q2176.08 276.115 2176.08 280.328 Q2176.08 285.351 2172.7 287.943 Q2169.35 290.536 2162.84 290.536 Q2160.39 290.536 2157.61 289.98 Q2154.86 289.425 2151.89 288.337 L2151.89 283.522 Q2154.74 285.119 2157.47 285.929 Q2160.2 286.74 2162.84 286.74 Q2166.85 286.74 2169.02 285.166 Q2171.2 283.592 2171.2 280.675 Q2171.2 278.129 2169.62 276.693 Q2168.07 275.258 2164.51 274.541 L2161.66 273.985 Q2156.43 272.943 2154.09 270.721 Q2151.75 268.499 2151.75 264.541 Q2151.75 259.957 2154.97 257.319 Q2158.21 254.68 2163.88 254.68 Q2166.31 254.68 2168.84 255.119 Q2171.36 255.559 2174 256.439 Z" fill="#000000" fill-rule="evenodd" fill-opacity="1" /><path clip-path="url(#clip600)" d="M2188.05 259.147 L2188.05 272.133 L2193.93 272.133 Q2197.19 272.133 2198.98 270.443 Q2200.76 268.754 2200.76 265.629 Q2200.76 262.527 2198.98 260.837 Q2197.19 259.147 2193.93 259.147 L2188.05 259.147 M2183.37 255.305 L2193.93 255.305 Q2199.74 255.305 2202.7 257.944 Q2205.69 260.559 2205.69 265.629 Q2205.69 270.744 2202.7 273.36 Q2199.74 275.976 2193.93 275.976 L2188.05 275.976 L2188.05 289.865 L2183.37 289.865 L2183.37 255.305 Z" fill="#000000" fill-rule="evenodd" fill-opacity="1" /><path clip-path="url(#clip600)" d="M2206.17 255.305 L2211.2 255.305 L2220.78 269.518 L2230.29 255.305 L2235.32 255.305 L2223.1 273.406 L2223.1 289.865 L2218.4 289.865 L2218.4 273.406 L2206.17 255.305 Z" fill="#000000" fill-rule="evenodd" fill-opacity="1" /></svg>
