<?xml version="1.0" encoding="utf-8"?>
<svg xmlns="http://www.w3.org/2000/svg" xmlns:xlink="http://www.w3.org/1999/xlink" width="600" height="400" viewBox="0 0 2400 1600">
<defs>
  <clipPath id="clip550">
    <rect x="0" y="0" width="2400" height="1600"/>
  </clipPath>
</defs>
<path clip-path="url(#clip550)" d="
M0 1600 L2400 1600 L2400 0 L0 0  Z
  " fill="#ffffff" fill-rule="evenodd" fill-opacity="1"/>
<defs>
  <clipPath id="clip551">
    <rect x="480" y="0" width="1681" height="1600"/>
  </clipPath>
</defs>
<path clip-path="url(#clip550)" d="
M250.028 1486.45 L2352.76 1486.45 L2352.76 123.472 L250.028 123.472  Z
  " fill="#ffffff" fill-rule="evenodd" fill-opacity="1"/>
<defs>
  <clipPath id="clip552">
    <rect x="250" y="123" width="2104" height="1364"/>
  </clipPath>
</defs>
<polyline clip-path="url(#clip552)" style="stroke:#000000; stroke-linecap:butt; stroke-linejoin:round; stroke-width:2; stroke-opacity:0.1; fill:none" points="
  269.733,1486.45 269.733,123.472 
  "/>
<polyline clip-path="url(#clip552)" style="stroke:#000000; stroke-linecap:butt; stroke-linejoin:round; stroke-width:2; stroke-opacity:0.1; fill:none" points="
  880.103,1486.45 880.103,123.472 
  "/>
<polyline clip-path="url(#clip552)" style="stroke:#000000; stroke-linecap:butt; stroke-linejoin:round; stroke-width:2; stroke-opacity:0.1; fill:none" points="
  1490.47,1486.45 1490.47,123.472 
  "/>
<polyline clip-path="url(#clip552)" style="stroke:#000000; stroke-linecap:butt; stroke-linejoin:round; stroke-width:2; stroke-opacity:0.1; fill:none" points="
  2094.21,1486.45 2094.21,123.472 
  "/>
<polyline clip-path="url(#clip550)" style="stroke:#000000; stroke-linecap:butt; stroke-linejoin:round; stroke-width:4; stroke-opacity:1; fill:none" points="
  250.028,1486.45 2352.76,1486.45 
  "/>
<polyline clip-path="url(#clip550)" style="stroke:#000000; stroke-linecap:butt; stroke-linejoin:round; stroke-width:4; stroke-opacity:1; fill:none" points="
  269.733,1486.45 269.733,1467.55 
  "/>
<polyline clip-path="url(#clip550)" style="stroke:#000000; stroke-linecap:butt; stroke-linejoin:round; stroke-width:4; stroke-opacity:1; fill:none" points="
  880.103,1486.45 880.103,1467.55 
  "/>
<polyline clip-path="url(#clip550)" style="stroke:#000000; stroke-linecap:butt; stroke-linejoin:round; stroke-width:4; stroke-opacity:1; fill:none" points="
  1490.47,1486.45 1490.47,1467.55 
  "/>
<polyline clip-path="url(#clip550)" style="stroke:#000000; stroke-linecap:butt; stroke-linejoin:round; stroke-width:4; stroke-opacity:1; fill:none" points="
  2094.21,1486.45 2094.21,1467.55 
  "/>
<path clip-path="url(#clip550)" d="M141.527 1544.91 L157.847 1544.91 L157.847 1548.85 L135.902 1548.85 L135.902 1544.91 Q138.564 1542.16 143.148 1537.53 Q147.754 1532.88 148.935 1531.53 Q151.18 1529.01 152.06 1527.27 Q152.962 1525.51 152.962 1523.82 Q152.962 1521.07 151.018 1519.33 Q149.097 1517.6 145.995 1517.6 Q143.796 1517.6 141.342 1518.36 Q138.911 1519.13 136.134 1520.68 L136.134 1515.95 Q138.958 1514.82 141.411 1514.24 Q143.865 1513.66 145.902 1513.66 Q151.272 1513.66 154.467 1516.35 Q157.661 1519.03 157.661 1523.52 Q157.661 1525.65 156.851 1527.57 Q156.064 1529.47 153.958 1532.07 Q153.379 1532.74 150.277 1535.95 Q147.175 1539.15 141.527 1544.91 Z" fill="#000000" fill-rule="evenodd" fill-opacity="1" /><path clip-path="url(#clip550)" d="M177.661 1517.37 Q174.05 1517.37 172.221 1520.93 Q170.416 1524.47 170.416 1531.6 Q170.416 1538.71 172.221 1542.27 Q174.05 1545.82 177.661 1545.82 Q181.295 1545.82 183.101 1542.27 Q184.93 1538.71 184.93 1531.6 Q184.93 1524.47 183.101 1520.93 Q181.295 1517.37 177.661 1517.37 M177.661 1513.66 Q183.471 1513.66 186.527 1518.27 Q189.606 1522.85 189.606 1531.6 Q189.606 1540.33 186.527 1544.94 Q183.471 1549.52 177.661 1549.52 Q171.851 1549.52 168.772 1544.94 Q165.717 1540.33 165.717 1531.6 Q165.717 1522.85 168.772 1518.27 Q171.851 1513.66 177.661 1513.66 Z" fill="#000000" fill-rule="evenodd" fill-opacity="1" /><path clip-path="url(#clip550)" d="M201.851 1544.91 L218.17 1544.91 L218.17 1548.85 L196.226 1548.85 L196.226 1544.91 Q198.888 1542.16 203.471 1537.53 Q208.078 1532.88 209.258 1531.53 Q211.504 1529.01 212.383 1527.27 Q213.286 1525.51 213.286 1523.82 Q213.286 1521.07 211.342 1519.33 Q209.42 1517.6 206.318 1517.6 Q204.119 1517.6 201.666 1518.36 Q199.235 1519.13 196.457 1520.68 L196.457 1515.95 Q199.281 1514.82 201.735 1514.24 Q204.189 1513.66 206.226 1513.66 Q211.596 1513.66 214.791 1516.35 Q217.985 1519.03 217.985 1523.52 Q217.985 1525.65 217.175 1527.57 Q216.388 1529.47 214.281 1532.07 Q213.703 1532.74 210.601 1535.95 Q207.499 1539.15 201.851 1544.91 Z" fill="#000000" fill-rule="evenodd" fill-opacity="1" /><path clip-path="url(#clip550)" d="M228.795 1544.91 L236.434 1544.91 L236.434 1518.55 L228.124 1520.21 L228.124 1515.95 L236.388 1514.29 L241.064 1514.29 L241.064 1544.91 L248.703 1544.91 L248.703 1548.85 L228.795 1548.85 L228.795 1544.91 Z" fill="#000000" fill-rule="evenodd" fill-opacity="1" /><path clip-path="url(#clip550)" d="M255.392 1533.96 L267.869 1533.96 L267.869 1537.76 L255.392 1537.76 L255.392 1533.96 Z" fill="#000000" fill-rule="evenodd" fill-opacity="1" /><path clip-path="url(#clip550)" d="M285.253 1517.37 Q281.642 1517.37 279.813 1520.93 Q278.008 1524.47 278.008 1531.6 Q278.008 1538.71 279.813 1542.27 Q281.642 1545.82 285.253 1545.82 Q288.887 1545.82 290.693 1542.27 Q292.522 1538.71 292.522 1531.6 Q292.522 1524.47 290.693 1520.93 Q288.887 1517.37 285.253 1517.37 M285.253 1513.66 Q291.063 1513.66 294.119 1518.27 Q297.198 1522.85 297.198 1531.6 Q297.198 1540.33 294.119 1544.94 Q291.063 1549.52 285.253 1549.52 Q279.443 1549.52 276.364 1544.94 Q273.309 1540.33 273.309 1531.6 Q273.309 1522.85 276.364 1518.27 Q279.443 1513.66 285.253 1513.66 Z" fill="#000000" fill-rule="evenodd" fill-opacity="1" /><path clip-path="url(#clip550)" d="M319.582 1530.21 Q322.938 1530.93 324.813 1533.2 Q326.711 1535.47 326.711 1538.8 Q326.711 1543.92 323.193 1546.72 Q319.674 1549.52 313.193 1549.52 Q311.017 1549.52 308.702 1549.08 Q306.411 1548.66 303.957 1547.81 L303.957 1543.29 Q305.901 1544.43 308.216 1545.01 Q310.531 1545.58 313.054 1545.58 Q317.452 1545.58 319.744 1543.85 Q322.059 1542.11 322.059 1538.8 Q322.059 1535.75 319.906 1534.03 Q317.776 1532.3 313.957 1532.3 L309.929 1532.3 L309.929 1528.45 L314.142 1528.45 Q317.591 1528.45 319.42 1527.09 Q321.248 1525.7 321.248 1523.11 Q321.248 1520.45 319.35 1519.03 Q317.475 1517.6 313.957 1517.6 Q312.036 1517.6 309.836 1518.01 Q307.637 1518.43 304.999 1519.31 L304.999 1515.14 Q307.661 1514.4 309.975 1514.03 Q312.313 1513.66 314.373 1513.66 Q319.698 1513.66 322.799 1516.09 Q325.901 1518.5 325.901 1522.62 Q325.901 1525.49 324.258 1527.48 Q322.614 1529.45 319.582 1530.21 Z" fill="#000000" fill-rule="evenodd" fill-opacity="1" /><path clip-path="url(#clip550)" d="M332.822 1533.96 L345.299 1533.96 L345.299 1537.76 L332.822 1537.76 L332.822 1533.96 Z" fill="#000000" fill-rule="evenodd" fill-opacity="1" /><path clip-path="url(#clip550)" d="M362.683 1517.37 Q359.072 1517.37 357.244 1520.93 Q355.438 1524.47 355.438 1531.6 Q355.438 1538.71 357.244 1542.27 Q359.072 1545.82 362.683 1545.82 Q366.318 1545.82 368.123 1542.27 Q369.952 1538.71 369.952 1531.6 Q369.952 1524.47 368.123 1520.93 Q366.318 1517.37 362.683 1517.37 M362.683 1513.66 Q368.494 1513.66 371.549 1518.27 Q374.628 1522.85 374.628 1531.6 Q374.628 1540.33 371.549 1544.94 Q368.494 1549.52 362.683 1549.52 Q356.873 1549.52 353.795 1544.94 Q350.739 1540.33 350.739 1531.6 Q350.739 1522.85 353.795 1518.27 Q356.873 1513.66 362.683 1513.66 Z" fill="#000000" fill-rule="evenodd" fill-opacity="1" /><path clip-path="url(#clip550)" d="M383.656 1544.91 L391.294 1544.91 L391.294 1518.55 L382.984 1520.21 L382.984 1515.95 L391.248 1514.29 L395.924 1514.29 L395.924 1544.91 L403.563 1544.91 L403.563 1548.85 L383.656 1548.85 L383.656 1544.91 Z" fill="#000000" fill-rule="evenodd" fill-opacity="1" /><path clip-path="url(#clip550)" d="M751.898 1544.91 L768.217 1544.91 L768.217 1548.85 L746.273 1548.85 L746.273 1544.91 Q748.935 1542.16 753.518 1537.53 Q758.125 1532.88 759.305 1531.53 Q761.551 1529.01 762.43 1527.27 Q763.333 1525.51 763.333 1523.82 Q763.333 1521.07 761.389 1519.33 Q759.467 1517.6 756.366 1517.6 Q754.167 1517.6 751.713 1518.36 Q749.282 1519.13 746.505 1520.68 L746.505 1515.95 Q749.329 1514.82 751.782 1514.24 Q754.236 1513.66 756.273 1513.66 Q761.643 1513.66 764.838 1516.35 Q768.032 1519.03 768.032 1523.52 Q768.032 1525.65 767.222 1527.57 Q766.435 1529.47 764.329 1532.07 Q763.75 1532.74 760.648 1535.95 Q757.546 1539.15 751.898 1544.91 Z" fill="#000000" fill-rule="evenodd" fill-opacity="1" /><path clip-path="url(#clip550)" d="M788.032 1517.37 Q784.421 1517.37 782.592 1520.93 Q780.787 1524.47 780.787 1531.6 Q780.787 1538.71 782.592 1542.27 Q784.421 1545.82 788.032 1545.82 Q791.666 1545.82 793.472 1542.27 Q795.301 1538.71 795.301 1531.6 Q795.301 1524.47 793.472 1520.93 Q791.666 1517.37 788.032 1517.37 M788.032 1513.66 Q793.842 1513.66 796.898 1518.27 Q799.977 1522.85 799.977 1531.6 Q799.977 1540.33 796.898 1544.94 Q793.842 1549.52 788.032 1549.52 Q782.222 1549.52 779.143 1544.94 Q776.088 1540.33 776.088 1531.6 Q776.088 1522.85 779.143 1518.27 Q782.222 1513.66 788.032 1513.66 Z" fill="#000000" fill-rule="evenodd" fill-opacity="1" /><path clip-path="url(#clip550)" d="M812.222 1544.91 L828.541 1544.91 L828.541 1548.85 L806.597 1548.85 L806.597 1544.91 Q809.259 1542.16 813.842 1537.53 Q818.449 1532.88 819.629 1531.53 Q821.875 1529.01 822.754 1527.27 Q823.657 1525.51 823.657 1523.82 Q823.657 1521.07 821.713 1519.33 Q819.791 1517.6 816.689 1517.6 Q814.49 1517.6 812.037 1518.36 Q809.606 1519.13 806.828 1520.68 L806.828 1515.95 Q809.652 1514.82 812.106 1514.24 Q814.56 1513.66 816.597 1513.66 Q821.967 1513.66 825.162 1516.35 Q828.356 1519.03 828.356 1523.52 Q828.356 1525.65 827.546 1527.57 Q826.759 1529.47 824.652 1532.07 Q824.074 1532.74 820.972 1535.95 Q817.87 1539.15 812.222 1544.91 Z" fill="#000000" fill-rule="evenodd" fill-opacity="1" /><path clip-path="url(#clip550)" d="M839.166 1544.91 L846.805 1544.91 L846.805 1518.55 L838.495 1520.21 L838.495 1515.95 L846.759 1514.29 L851.435 1514.29 L851.435 1544.91 L859.073 1544.91 L859.073 1548.85 L839.166 1548.85 L839.166 1544.91 Z" fill="#000000" fill-rule="evenodd" fill-opacity="1" /><path clip-path="url(#clip550)" d="M865.763 1533.96 L878.24 1533.96 L878.24 1537.76 L865.763 1537.76 L865.763 1533.96 Z" fill="#000000" fill-rule="evenodd" fill-opacity="1" /><path clip-path="url(#clip550)" d="M895.624 1517.37 Q892.013 1517.37 890.184 1520.93 Q888.379 1524.47 888.379 1531.6 Q888.379 1538.71 890.184 1542.27 Q892.013 1545.82 895.624 1545.82 Q899.258 1545.82 901.064 1542.27 Q902.893 1538.71 902.893 1531.6 Q902.893 1524.47 901.064 1520.93 Q899.258 1517.37 895.624 1517.37 M895.624 1513.66 Q901.434 1513.66 904.49 1518.27 Q907.569 1522.85 907.569 1531.6 Q907.569 1540.33 904.49 1544.94 Q901.434 1549.52 895.624 1549.52 Q889.814 1549.52 886.735 1544.94 Q883.68 1540.33 883.68 1531.6 Q883.68 1522.85 886.735 1518.27 Q889.814 1513.66 895.624 1513.66 Z" fill="#000000" fill-rule="evenodd" fill-opacity="1" /><path clip-path="url(#clip550)" d="M926.365 1529.7 Q923.217 1529.7 921.365 1531.86 Q919.536 1534.01 919.536 1537.76 Q919.536 1541.49 921.365 1543.66 Q923.217 1545.82 926.365 1545.82 Q929.513 1545.82 931.342 1543.66 Q933.193 1541.49 933.193 1537.76 Q933.193 1534.01 931.342 1531.86 Q929.513 1529.7 926.365 1529.7 M935.647 1515.05 L935.647 1519.31 Q933.888 1518.48 932.082 1518.04 Q930.3 1517.6 928.541 1517.6 Q923.911 1517.6 921.457 1520.72 Q919.027 1523.85 918.68 1530.17 Q920.045 1528.15 922.106 1527.09 Q924.166 1526 926.643 1526 Q931.851 1526 934.86 1529.17 Q937.892 1532.32 937.892 1537.76 Q937.892 1543.08 934.744 1546.3 Q931.596 1549.52 926.365 1549.52 Q920.369 1549.52 917.198 1544.94 Q914.027 1540.33 914.027 1531.6 Q914.027 1523.41 917.916 1518.55 Q921.805 1513.66 928.355 1513.66 Q930.115 1513.66 931.897 1514.01 Q933.703 1514.36 935.647 1515.05 Z" fill="#000000" fill-rule="evenodd" fill-opacity="1" /><path clip-path="url(#clip550)" d="M943.193 1533.96 L955.67 1533.96 L955.67 1537.76 L943.193 1537.76 L943.193 1533.96 Z" fill="#000000" fill-rule="evenodd" fill-opacity="1" /><path clip-path="url(#clip550)" d="M973.054 1517.37 Q969.443 1517.37 967.615 1520.93 Q965.809 1524.47 965.809 1531.6 Q965.809 1538.71 967.615 1542.27 Q969.443 1545.82 973.054 1545.82 Q976.689 1545.82 978.494 1542.27 Q980.323 1538.71 980.323 1531.6 Q980.323 1524.47 978.494 1520.93 Q976.689 1517.37 973.054 1517.37 M973.054 1513.66 Q978.864 1513.66 981.92 1518.27 Q984.999 1522.85 984.999 1531.6 Q984.999 1540.33 981.92 1544.94 Q978.864 1549.52 973.054 1549.52 Q967.244 1549.52 964.165 1544.94 Q961.11 1540.33 961.11 1531.6 Q961.11 1522.85 964.165 1518.27 Q967.244 1513.66 973.054 1513.66 Z" fill="#000000" fill-rule="evenodd" fill-opacity="1" /><path clip-path="url(#clip550)" d="M994.026 1544.91 L1001.67 1544.91 L1001.67 1518.55 L993.355 1520.21 L993.355 1515.95 L1001.62 1514.29 L1006.29 1514.29 L1006.29 1544.91 L1013.93 1544.91 L1013.93 1548.85 L994.026 1548.85 L994.026 1544.91 Z" fill="#000000" fill-rule="evenodd" fill-opacity="1" /><path clip-path="url(#clip550)" d="M1362.27 1544.91 L1378.59 1544.91 L1378.59 1548.85 L1356.64 1548.85 L1356.64 1544.91 Q1359.31 1542.16 1363.89 1537.53 Q1368.5 1532.88 1369.68 1531.53 Q1371.92 1529.01 1372.8 1527.27 Q1373.7 1525.51 1373.7 1523.82 Q1373.7 1521.07 1371.76 1519.33 Q1369.84 1517.6 1366.74 1517.6 Q1364.54 1517.6 1362.08 1518.36 Q1359.65 1519.13 1356.88 1520.68 L1356.88 1515.95 Q1359.7 1514.82 1362.15 1514.24 Q1364.61 1513.66 1366.64 1513.66 Q1372.01 1513.66 1375.21 1516.35 Q1378.4 1519.03 1378.4 1523.52 Q1378.4 1525.65 1377.59 1527.57 Q1376.81 1529.47 1374.7 1532.07 Q1374.12 1532.74 1371.02 1535.95 Q1367.92 1539.15 1362.27 1544.91 Z" fill="#000000" fill-rule="evenodd" fill-opacity="1" /><path clip-path="url(#clip550)" d="M1398.4 1517.37 Q1394.79 1517.37 1392.96 1520.93 Q1391.16 1524.47 1391.16 1531.6 Q1391.16 1538.71 1392.96 1542.27 Q1394.79 1545.82 1398.4 1545.82 Q1402.04 1545.82 1403.84 1542.27 Q1405.67 1538.71 1405.67 1531.6 Q1405.67 1524.47 1403.84 1520.93 Q1402.04 1517.37 1398.4 1517.37 M1398.4 1513.66 Q1404.21 1513.66 1407.27 1518.27 Q1410.35 1522.85 1410.35 1531.6 Q1410.35 1540.33 1407.27 1544.94 Q1404.21 1549.52 1398.4 1549.52 Q1392.59 1549.52 1389.51 1544.94 Q1386.46 1540.33 1386.46 1531.6 Q1386.46 1522.85 1389.51 1518.27 Q1392.59 1513.66 1398.4 1513.66 Z" fill="#000000" fill-rule="evenodd" fill-opacity="1" /><path clip-path="url(#clip550)" d="M1422.59 1544.91 L1438.91 1544.91 L1438.91 1548.85 L1416.97 1548.85 L1416.97 1544.91 Q1419.63 1542.16 1424.21 1537.53 Q1428.82 1532.88 1430 1531.53 Q1432.25 1529.01 1433.13 1527.27 Q1434.03 1525.51 1434.03 1523.82 Q1434.03 1521.07 1432.08 1519.33 Q1430.16 1517.6 1427.06 1517.6 Q1424.86 1517.6 1422.41 1518.36 Q1419.98 1519.13 1417.2 1520.68 L1417.2 1515.95 Q1420.02 1514.82 1422.48 1514.24 Q1424.93 1513.66 1426.97 1513.66 Q1432.34 1513.66 1435.53 1516.35 Q1438.73 1519.03 1438.73 1523.52 Q1438.73 1525.65 1437.92 1527.57 Q1437.13 1529.47 1435.02 1532.07 Q1434.44 1532.74 1431.34 1535.95 Q1428.24 1539.15 1422.59 1544.91 Z" fill="#000000" fill-rule="evenodd" fill-opacity="1" /><path clip-path="url(#clip550)" d="M1449.54 1544.91 L1457.18 1544.91 L1457.18 1518.55 L1448.87 1520.21 L1448.87 1515.95 L1457.13 1514.29 L1461.81 1514.29 L1461.81 1544.91 L1469.44 1544.91 L1469.44 1548.85 L1449.54 1548.85 L1449.54 1544.91 Z" fill="#000000" fill-rule="evenodd" fill-opacity="1" /><path clip-path="url(#clip550)" d="M1476.13 1533.96 L1488.61 1533.96 L1488.61 1537.76 L1476.13 1537.76 L1476.13 1533.96 Z" fill="#000000" fill-rule="evenodd" fill-opacity="1" /><path clip-path="url(#clip550)" d="M1506 1517.37 Q1502.38 1517.37 1500.56 1520.93 Q1498.75 1524.47 1498.75 1531.6 Q1498.75 1538.71 1500.56 1542.27 Q1502.38 1545.82 1506 1545.82 Q1509.63 1545.82 1511.43 1542.27 Q1513.26 1538.71 1513.26 1531.6 Q1513.26 1524.47 1511.43 1520.93 Q1509.63 1517.37 1506 1517.37 M1506 1513.66 Q1511.81 1513.66 1514.86 1518.27 Q1517.94 1522.85 1517.94 1531.6 Q1517.94 1540.33 1514.86 1544.94 Q1511.81 1549.52 1506 1549.52 Q1500.18 1549.52 1497.11 1544.94 Q1494.05 1540.33 1494.05 1531.6 Q1494.05 1522.85 1497.11 1518.27 Q1500.18 1513.66 1506 1513.66 Z" fill="#000000" fill-rule="evenodd" fill-opacity="1" /><path clip-path="url(#clip550)" d="M1526.3 1548.13 L1526.3 1543.87 Q1528.06 1544.7 1529.86 1545.14 Q1531.67 1545.58 1533.4 1545.58 Q1538.03 1545.58 1540.46 1542.48 Q1542.92 1539.36 1543.26 1533.01 Q1541.92 1535.01 1539.86 1536.07 Q1537.8 1537.13 1535.3 1537.13 Q1530.12 1537.13 1527.08 1534.01 Q1524.07 1530.86 1524.07 1525.42 Q1524.07 1520.1 1527.22 1516.88 Q1530.37 1513.66 1535.6 1513.66 Q1541.6 1513.66 1544.74 1518.27 Q1547.92 1522.85 1547.92 1531.6 Q1547.92 1539.77 1544.03 1544.66 Q1540.16 1549.52 1533.61 1549.52 Q1531.85 1549.52 1530.05 1549.17 Q1528.24 1548.82 1526.3 1548.13 M1535.6 1533.48 Q1538.75 1533.48 1540.58 1531.32 Q1542.43 1529.17 1542.43 1525.42 Q1542.43 1521.7 1540.58 1519.54 Q1538.75 1517.37 1535.6 1517.37 Q1532.45 1517.37 1530.6 1519.54 Q1528.77 1521.7 1528.77 1525.42 Q1528.77 1529.17 1530.6 1531.32 Q1532.45 1533.48 1535.6 1533.48 Z" fill="#000000" fill-rule="evenodd" fill-opacity="1" /><path clip-path="url(#clip550)" d="M1553.56 1533.96 L1566.04 1533.96 L1566.04 1537.76 L1553.56 1537.76 L1553.56 1533.96 Z" fill="#000000" fill-rule="evenodd" fill-opacity="1" /><path clip-path="url(#clip550)" d="M1583.43 1517.37 Q1579.81 1517.37 1577.99 1520.93 Q1576.18 1524.47 1576.18 1531.6 Q1576.18 1538.71 1577.99 1542.27 Q1579.81 1545.82 1583.43 1545.82 Q1587.06 1545.82 1588.86 1542.27 Q1590.69 1538.71 1590.69 1531.6 Q1590.69 1524.47 1588.86 1520.93 Q1587.06 1517.37 1583.43 1517.37 M1583.43 1513.66 Q1589.24 1513.66 1592.29 1518.27 Q1595.37 1522.85 1595.37 1531.6 Q1595.37 1540.33 1592.29 1544.94 Q1589.24 1549.52 1583.43 1549.52 Q1577.62 1549.52 1574.54 1544.94 Q1571.48 1540.33 1571.48 1531.6 Q1571.48 1522.85 1574.54 1518.27 Q1577.62 1513.66 1583.43 1513.66 Z" fill="#000000" fill-rule="evenodd" fill-opacity="1" /><path clip-path="url(#clip550)" d="M1604.4 1544.91 L1612.04 1544.91 L1612.04 1518.55 L1603.73 1520.21 L1603.73 1515.95 L1611.99 1514.29 L1616.67 1514.29 L1616.67 1544.91 L1624.3 1544.91 L1624.3 1548.85 L1604.4 1548.85 L1604.4 1544.91 Z" fill="#000000" fill-rule="evenodd" fill-opacity="1" /><path clip-path="url(#clip550)" d="M1966.01 1544.91 L1982.32 1544.91 L1982.32 1548.85 L1960.38 1548.85 L1960.38 1544.91 Q1963.04 1542.16 1967.63 1537.53 Q1972.23 1532.88 1973.41 1531.53 Q1975.66 1529.01 1976.54 1527.27 Q1977.44 1525.51 1977.44 1523.82 Q1977.44 1521.07 1975.5 1519.33 Q1973.57 1517.6 1970.47 1517.6 Q1968.27 1517.6 1965.82 1518.36 Q1963.39 1519.13 1960.61 1520.68 L1960.61 1515.95 Q1963.44 1514.82 1965.89 1514.24 Q1968.34 1513.66 1970.38 1513.66 Q1975.75 1513.66 1978.95 1516.35 Q1982.14 1519.03 1982.14 1523.52 Q1982.14 1525.65 1981.33 1527.57 Q1980.54 1529.47 1978.44 1532.07 Q1977.86 1532.74 1974.76 1535.95 Q1971.65 1539.15 1966.01 1544.91 Z" fill="#000000" fill-rule="evenodd" fill-opacity="1" /><path clip-path="url(#clip550)" d="M2002.14 1517.37 Q1998.53 1517.37 1996.7 1520.93 Q1994.89 1524.47 1994.89 1531.6 Q1994.89 1538.71 1996.7 1542.27 Q1998.53 1545.82 2002.14 1545.82 Q2005.77 1545.82 2007.58 1542.27 Q2009.41 1538.71 2009.41 1531.6 Q2009.41 1524.47 2007.58 1520.93 Q2005.77 1517.37 2002.14 1517.37 M2002.14 1513.66 Q2007.95 1513.66 2011.01 1518.27 Q2014.08 1522.85 2014.08 1531.6 Q2014.08 1540.33 2011.01 1544.94 Q2007.95 1549.52 2002.14 1549.52 Q1996.33 1549.52 1993.25 1544.94 Q1990.2 1540.33 1990.2 1531.6 Q1990.2 1522.85 1993.25 1518.27 Q1996.33 1513.66 2002.14 1513.66 Z" fill="#000000" fill-rule="evenodd" fill-opacity="1" /><path clip-path="url(#clip550)" d="M2026.33 1544.91 L2042.65 1544.91 L2042.65 1548.85 L2020.7 1548.85 L2020.7 1544.91 Q2023.37 1542.16 2027.95 1537.53 Q2032.56 1532.88 2033.74 1531.53 Q2035.98 1529.01 2036.86 1527.27 Q2037.76 1525.51 2037.76 1523.82 Q2037.76 1521.07 2035.82 1519.33 Q2033.9 1517.6 2030.8 1517.6 Q2028.6 1517.6 2026.14 1518.36 Q2023.71 1519.13 2020.94 1520.68 L2020.94 1515.95 Q2023.76 1514.82 2026.21 1514.24 Q2028.67 1513.66 2030.7 1513.66 Q2036.07 1513.66 2039.27 1516.35 Q2042.46 1519.03 2042.46 1523.52 Q2042.46 1525.65 2041.65 1527.57 Q2040.87 1529.47 2038.76 1532.07 Q2038.18 1532.74 2035.08 1535.95 Q2031.98 1539.15 2026.33 1544.91 Z" fill="#000000" fill-rule="evenodd" fill-opacity="1" /><path clip-path="url(#clip550)" d="M2053.27 1544.91 L2060.91 1544.91 L2060.91 1518.55 L2052.6 1520.21 L2052.6 1515.95 L2060.87 1514.29 L2065.54 1514.29 L2065.54 1544.91 L2073.18 1544.91 L2073.18 1548.85 L2053.27 1548.85 L2053.27 1544.91 Z" fill="#000000" fill-rule="evenodd" fill-opacity="1" /><path clip-path="url(#clip550)" d="M2079.87 1533.96 L2092.35 1533.96 L2092.35 1537.76 L2079.87 1537.76 L2079.87 1533.96 Z" fill="#000000" fill-rule="evenodd" fill-opacity="1" /><path clip-path="url(#clip550)" d="M2100.54 1544.91 L2108.18 1544.91 L2108.18 1518.55 L2099.87 1520.21 L2099.87 1515.95 L2108.13 1514.29 L2112.81 1514.29 L2112.81 1544.91 L2120.45 1544.91 L2120.45 1548.85 L2100.54 1548.85 L2100.54 1544.91 Z" fill="#000000" fill-rule="evenodd" fill-opacity="1" /><path clip-path="url(#clip550)" d="M2133.92 1544.91 L2150.24 1544.91 L2150.24 1548.85 L2128.3 1548.85 L2128.3 1544.91 Q2130.96 1542.16 2135.54 1537.53 Q2140.15 1532.88 2141.33 1531.53 Q2143.57 1529.01 2144.45 1527.27 Q2145.36 1525.51 2145.36 1523.82 Q2145.36 1521.07 2143.41 1519.33 Q2141.49 1517.6 2138.39 1517.6 Q2136.19 1517.6 2133.74 1518.36 Q2131.31 1519.13 2128.53 1520.68 L2128.53 1515.95 Q2131.35 1514.82 2133.81 1514.24 Q2136.26 1513.66 2138.3 1513.66 Q2143.67 1513.66 2146.86 1516.35 Q2150.06 1519.03 2150.06 1523.52 Q2150.06 1525.65 2149.25 1527.57 Q2148.46 1529.47 2146.35 1532.07 Q2145.77 1532.74 2142.67 1535.95 Q2139.57 1539.15 2133.92 1544.91 Z" fill="#000000" fill-rule="evenodd" fill-opacity="1" /><path clip-path="url(#clip550)" d="M2157.3 1533.96 L2169.78 1533.96 L2169.78 1537.76 L2157.3 1537.76 L2157.3 1533.96 Z" fill="#000000" fill-rule="evenodd" fill-opacity="1" /><path clip-path="url(#clip550)" d="M2187.16 1517.37 Q2183.55 1517.37 2181.72 1520.93 Q2179.92 1524.47 2179.92 1531.6 Q2179.92 1538.71 2181.72 1542.27 Q2183.55 1545.82 2187.16 1545.82 Q2190.8 1545.82 2192.6 1542.27 Q2194.43 1538.71 2194.43 1531.6 Q2194.43 1524.47 2192.6 1520.93 Q2190.8 1517.37 2187.16 1517.37 M2187.16 1513.66 Q2192.97 1513.66 2196.03 1518.27 Q2199.11 1522.85 2199.11 1531.6 Q2199.11 1540.33 2196.03 1544.94 Q2192.97 1549.52 2187.16 1549.52 Q2181.35 1549.52 2178.27 1544.94 Q2175.22 1540.33 2175.22 1531.6 Q2175.22 1522.85 2178.27 1518.27 Q2181.35 1513.66 2187.16 1513.66 Z" fill="#000000" fill-rule="evenodd" fill-opacity="1" /><path clip-path="url(#clip550)" d="M2208.13 1544.91 L2215.77 1544.91 L2215.77 1518.55 L2207.46 1520.21 L2207.46 1515.95 L2215.73 1514.29 L2220.4 1514.29 L2220.4 1544.91 L2228.04 1544.91 L2228.04 1548.85 L2208.13 1548.85 L2208.13 1544.91 Z" fill="#000000" fill-rule="evenodd" fill-opacity="1" /><polyline clip-path="url(#clip552)" style="stroke:#000000; stroke-linecap:butt; stroke-linejoin:round; stroke-width:2; stroke-opacity:0.1; fill:none" points="
  250.028,1447.87 2352.76,1447.87 
  "/>
<polyline clip-path="url(#clip552)" style="stroke:#000000; stroke-linecap:butt; stroke-linejoin:round; stroke-width:2; stroke-opacity:0.1; fill:none" points="
  250.028,1245.69 2352.76,1245.69 
  "/>
<polyline clip-path="url(#clip552)" style="stroke:#000000; stroke-linecap:butt; stroke-linejoin:round; stroke-width:2; stroke-opacity:0.1; fill:none" points="
  250.028,1043.5 2352.76,1043.5 
  "/>
<polyline clip-path="url(#clip552)" style="stroke:#000000; stroke-linecap:butt; stroke-linejoin:round; stroke-width:2; stroke-opacity:0.1; fill:none" points="
  250.028,841.318 2352.76,841.318 
  "/>
<polyline clip-path="url(#clip552)" style="stroke:#000000; stroke-linecap:butt; stroke-linejoin:round; stroke-width:2; stroke-opacity:0.1; fill:none" points="
  250.028,639.132 2352.76,639.132 
  "/>
<polyline clip-path="url(#clip552)" style="stroke:#000000; stroke-linecap:butt; stroke-linejoin:round; stroke-width:2; stroke-opacity:0.1; fill:none" points="
  250.028,436.947 2352.76,436.947 
  "/>
<polyline clip-path="url(#clip552)" style="stroke:#000000; stroke-linecap:butt; stroke-linejoin:round; stroke-width:2; stroke-opacity:0.1; fill:none" points="
  250.028,234.762 2352.76,234.762 
  "/>
<polyline clip-path="url(#clip550)" style="stroke:#000000; stroke-linecap:butt; stroke-linejoin:round; stroke-width:4; stroke-opacity:1; fill:none" points="
  250.028,1486.45 250.028,123.472 
  "/>
<polyline clip-path="url(#clip550)" style="stroke:#000000; stroke-linecap:butt; stroke-linejoin:round; stroke-width:4; stroke-opacity:1; fill:none" points="
  250.028,1447.87 268.926,1447.87 
  "/>
<polyline clip-path="url(#clip550)" style="stroke:#000000; stroke-linecap:butt; stroke-linejoin:round; stroke-width:4; stroke-opacity:1; fill:none" points="
  250.028,1245.69 268.926,1245.69 
  "/>
<polyline clip-path="url(#clip550)" style="stroke:#000000; stroke-linecap:butt; stroke-linejoin:round; stroke-width:4; stroke-opacity:1; fill:none" points="
  250.028,1043.5 268.926,1043.5 
  "/>
<polyline clip-path="url(#clip550)" style="stroke:#000000; stroke-linecap:butt; stroke-linejoin:round; stroke-width:4; stroke-opacity:1; fill:none" points="
  250.028,841.318 268.926,841.318 
  "/>
<polyline clip-path="url(#clip550)" style="stroke:#000000; stroke-linecap:butt; stroke-linejoin:round; stroke-width:4; stroke-opacity:1; fill:none" points="
  250.028,639.132 268.926,639.132 
  "/>
<polyline clip-path="url(#clip550)" style="stroke:#000000; stroke-linecap:butt; stroke-linejoin:round; stroke-width:4; stroke-opacity:1; fill:none" points="
  250.028,436.947 268.926,436.947 
  "/>
<polyline clip-path="url(#clip550)" style="stroke:#000000; stroke-linecap:butt; stroke-linejoin:round; stroke-width:4; stroke-opacity:1; fill:none" points="
  250.028,234.762 268.926,234.762 
  "/>
<path clip-path="url(#clip550)" d="M126.691 1433.67 Q123.08 1433.67 121.251 1437.24 Q119.445 1440.78 119.445 1447.91 Q119.445 1455.01 121.251 1458.58 Q123.08 1462.12 126.691 1462.12 Q130.325 1462.12 132.13 1458.58 Q133.959 1455.01 133.959 1447.91 Q133.959 1440.78 132.13 1437.24 Q130.325 1433.67 126.691 1433.67 M126.691 1429.97 Q132.501 1429.97 135.556 1434.57 Q138.635 1439.16 138.635 1447.91 Q138.635 1456.63 135.556 1461.24 Q132.501 1465.82 126.691 1465.82 Q120.88 1465.82 117.802 1461.24 Q114.746 1456.63 114.746 1447.91 Q114.746 1439.16 117.802 1434.57 Q120.88 1429.97 126.691 1429.97 Z" fill="#000000" fill-rule="evenodd" fill-opacity="1" /><path clip-path="url(#clip550)" d="M146.853 1459.27 L151.737 1459.27 L151.737 1465.15 L146.853 1465.15 L146.853 1459.27 Z" fill="#000000" fill-rule="evenodd" fill-opacity="1" /><path clip-path="url(#clip550)" d="M171.922 1433.67 Q168.311 1433.67 166.482 1437.24 Q164.677 1440.78 164.677 1447.91 Q164.677 1455.01 166.482 1458.58 Q168.311 1462.12 171.922 1462.12 Q175.556 1462.12 177.362 1458.58 Q179.19 1455.01 179.19 1447.91 Q179.19 1440.78 177.362 1437.24 Q175.556 1433.67 171.922 1433.67 M171.922 1429.97 Q177.732 1429.97 180.788 1434.57 Q183.866 1439.16 183.866 1447.91 Q183.866 1456.63 180.788 1461.24 Q177.732 1465.82 171.922 1465.82 Q166.112 1465.82 163.033 1461.24 Q159.978 1456.63 159.978 1447.91 Q159.978 1439.16 163.033 1434.57 Q166.112 1429.97 171.922 1429.97 Z" fill="#000000" fill-rule="evenodd" fill-opacity="1" /><path clip-path="url(#clip550)" d="M202.084 1433.67 Q198.473 1433.67 196.644 1437.24 Q194.838 1440.78 194.838 1447.91 Q194.838 1455.01 196.644 1458.58 Q198.473 1462.12 202.084 1462.12 Q205.718 1462.12 207.524 1458.58 Q209.352 1455.01 209.352 1447.91 Q209.352 1440.78 207.524 1437.24 Q205.718 1433.67 202.084 1433.67 M202.084 1429.97 Q207.894 1429.97 210.949 1434.57 Q214.028 1439.16 214.028 1447.91 Q214.028 1456.63 210.949 1461.24 Q207.894 1465.82 202.084 1465.82 Q196.274 1465.82 193.195 1461.24 Q190.139 1456.63 190.139 1447.91 Q190.139 1439.16 193.195 1434.57 Q196.274 1429.97 202.084 1429.97 Z" fill="#000000" fill-rule="evenodd" fill-opacity="1" /><path clip-path="url(#clip550)" d="M127.917 1231.49 Q124.306 1231.49 122.478 1235.05 Q120.672 1238.59 120.672 1245.72 Q120.672 1252.83 122.478 1256.39 Q124.306 1259.94 127.917 1259.94 Q131.552 1259.94 133.357 1256.39 Q135.186 1252.83 135.186 1245.72 Q135.186 1238.59 133.357 1235.05 Q131.552 1231.49 127.917 1231.49 M127.917 1227.78 Q133.728 1227.78 136.783 1232.39 Q139.862 1236.97 139.862 1245.72 Q139.862 1254.45 136.783 1259.06 Q133.728 1263.64 127.917 1263.64 Q122.107 1263.64 119.029 1259.06 Q115.973 1254.45 115.973 1245.72 Q115.973 1236.97 119.029 1232.39 Q122.107 1227.78 127.917 1227.78 Z" fill="#000000" fill-rule="evenodd" fill-opacity="1" /><path clip-path="url(#clip550)" d="M148.079 1257.09 L152.964 1257.09 L152.964 1262.97 L148.079 1262.97 L148.079 1257.09 Z" fill="#000000" fill-rule="evenodd" fill-opacity="1" /><path clip-path="url(#clip550)" d="M173.149 1231.49 Q169.538 1231.49 167.709 1235.05 Q165.903 1238.59 165.903 1245.72 Q165.903 1252.83 167.709 1256.39 Q169.538 1259.94 173.149 1259.94 Q176.783 1259.94 178.589 1256.39 Q180.417 1252.83 180.417 1245.72 Q180.417 1238.59 178.589 1235.05 Q176.783 1231.49 173.149 1231.49 M173.149 1227.78 Q178.959 1227.78 182.014 1232.39 Q185.093 1236.97 185.093 1245.72 Q185.093 1254.45 182.014 1259.06 Q178.959 1263.64 173.149 1263.64 Q167.339 1263.64 164.26 1259.06 Q161.204 1254.45 161.204 1245.72 Q161.204 1236.97 164.26 1232.39 Q167.339 1227.78 173.149 1227.78 Z" fill="#000000" fill-rule="evenodd" fill-opacity="1" /><path clip-path="url(#clip550)" d="M194.121 1259.03 L201.76 1259.03 L201.76 1232.67 L193.45 1234.33 L193.45 1230.07 L201.713 1228.41 L206.389 1228.41 L206.389 1259.03 L214.028 1259.03 L214.028 1262.97 L194.121 1262.97 L194.121 1259.03 Z" fill="#000000" fill-rule="evenodd" fill-opacity="1" /><path clip-path="url(#clip550)" d="M128.288 1029.3 Q124.677 1029.3 122.848 1032.87 Q121.043 1036.41 121.043 1043.54 Q121.043 1050.64 122.848 1054.21 Q124.677 1057.75 128.288 1057.75 Q131.922 1057.75 133.728 1054.21 Q135.556 1050.64 135.556 1043.54 Q135.556 1036.41 133.728 1032.87 Q131.922 1029.3 128.288 1029.3 M128.288 1025.6 Q134.098 1025.6 137.154 1030.2 Q140.232 1034.79 140.232 1043.54 Q140.232 1052.26 137.154 1056.87 Q134.098 1061.45 128.288 1061.45 Q122.478 1061.45 119.399 1056.87 Q116.343 1052.26 116.343 1043.54 Q116.343 1034.79 119.399 1030.2 Q122.478 1025.6 128.288 1025.6 Z" fill="#000000" fill-rule="evenodd" fill-opacity="1" /><path clip-path="url(#clip550)" d="M148.45 1054.9 L153.334 1054.9 L153.334 1060.78 L148.45 1060.78 L148.45 1054.9 Z" fill="#000000" fill-rule="evenodd" fill-opacity="1" /><path clip-path="url(#clip550)" d="M173.519 1029.3 Q169.908 1029.3 168.079 1032.87 Q166.274 1036.41 166.274 1043.54 Q166.274 1050.64 168.079 1054.21 Q169.908 1057.75 173.519 1057.75 Q177.153 1057.75 178.959 1054.21 Q180.788 1050.64 180.788 1043.54 Q180.788 1036.41 178.959 1032.87 Q177.153 1029.3 173.519 1029.3 M173.519 1025.6 Q179.329 1025.6 182.385 1030.2 Q185.463 1034.79 185.463 1043.54 Q185.463 1052.26 182.385 1056.87 Q179.329 1061.45 173.519 1061.45 Q167.709 1061.45 164.63 1056.87 Q161.575 1052.26 161.575 1043.54 Q161.575 1034.79 164.63 1030.2 Q167.709 1025.6 173.519 1025.6 Z" fill="#000000" fill-rule="evenodd" fill-opacity="1" /><path clip-path="url(#clip550)" d="M197.709 1056.85 L214.028 1056.85 L214.028 1060.78 L192.084 1060.78 L192.084 1056.85 Q194.746 1054.09 199.329 1049.46 Q203.936 1044.81 205.116 1043.47 Q207.362 1040.94 208.241 1039.21 Q209.144 1037.45 209.144 1035.76 Q209.144 1033.01 207.199 1031.27 Q205.278 1029.53 202.176 1029.53 Q199.977 1029.53 197.524 1030.3 Q195.093 1031.06 192.315 1032.61 L192.315 1027.89 Q195.139 1026.76 197.593 1026.18 Q200.047 1025.6 202.084 1025.6 Q207.454 1025.6 210.649 1028.28 Q213.843 1030.97 213.843 1035.46 Q213.843 1037.59 213.033 1039.51 Q212.246 1041.41 210.139 1044 Q209.561 1044.67 206.459 1047.89 Q203.357 1051.08 197.709 1056.85 Z" fill="#000000" fill-rule="evenodd" fill-opacity="1" /><path clip-path="url(#clip550)" d="M127.339 827.116 Q123.728 827.116 121.899 830.681 Q120.093 834.223 120.093 841.352 Q120.093 848.459 121.899 852.024 Q123.728 855.565 127.339 855.565 Q130.973 855.565 132.779 852.024 Q134.607 848.459 134.607 841.352 Q134.607 834.223 132.779 830.681 Q130.973 827.116 127.339 827.116 M127.339 823.413 Q133.149 823.413 136.204 828.019 Q139.283 832.602 139.283 841.352 Q139.283 850.079 136.204 854.686 Q133.149 859.269 127.339 859.269 Q121.529 859.269 118.45 854.686 Q115.394 850.079 115.394 841.352 Q115.394 832.602 118.45 828.019 Q121.529 823.413 127.339 823.413 Z" fill="#000000" fill-rule="evenodd" fill-opacity="1" /><path clip-path="url(#clip550)" d="M147.501 852.718 L152.385 852.718 L152.385 858.598 L147.501 858.598 L147.501 852.718 Z" fill="#000000" fill-rule="evenodd" fill-opacity="1" /><path clip-path="url(#clip550)" d="M172.57 827.116 Q168.959 827.116 167.13 830.681 Q165.325 834.223 165.325 841.352 Q165.325 848.459 167.13 852.024 Q168.959 855.565 172.57 855.565 Q176.204 855.565 178.01 852.024 Q179.839 848.459 179.839 841.352 Q179.839 834.223 178.01 830.681 Q176.204 827.116 172.57 827.116 M172.57 823.413 Q178.38 823.413 181.436 828.019 Q184.514 832.602 184.514 841.352 Q184.514 850.079 181.436 854.686 Q178.38 859.269 172.57 859.269 Q166.76 859.269 163.681 854.686 Q160.626 850.079 160.626 841.352 Q160.626 832.602 163.681 828.019 Q166.76 823.413 172.57 823.413 Z" fill="#000000" fill-rule="evenodd" fill-opacity="1" /><path clip-path="url(#clip550)" d="M206.899 839.963 Q210.255 840.681 212.13 842.95 Q214.028 845.218 214.028 848.551 Q214.028 853.667 210.51 856.468 Q206.991 859.269 200.51 859.269 Q198.334 859.269 196.019 858.829 Q193.727 858.412 191.274 857.556 L191.274 853.042 Q193.218 854.176 195.533 854.755 Q197.848 855.334 200.371 855.334 Q204.769 855.334 207.061 853.598 Q209.375 851.862 209.375 848.551 Q209.375 845.496 207.223 843.783 Q205.093 842.047 201.274 842.047 L197.246 842.047 L197.246 838.204 L201.459 838.204 Q204.908 838.204 206.737 836.838 Q208.565 835.45 208.565 832.857 Q208.565 830.195 206.667 828.783 Q204.792 827.348 201.274 827.348 Q199.352 827.348 197.153 827.764 Q194.954 828.181 192.315 829.061 L192.315 824.894 Q194.977 824.153 197.292 823.783 Q199.63 823.413 201.69 823.413 Q207.014 823.413 210.116 825.843 Q213.218 828.251 213.218 832.371 Q213.218 835.241 211.574 837.232 Q209.931 839.2 206.899 839.963 Z" fill="#000000" fill-rule="evenodd" fill-opacity="1" /><path clip-path="url(#clip550)" d="M126.205 624.931 Q122.593 624.931 120.765 628.496 Q118.959 632.038 118.959 639.167 Q118.959 646.274 120.765 649.838 Q122.593 653.38 126.205 653.38 Q129.839 653.38 131.644 649.838 Q133.473 646.274 133.473 639.167 Q133.473 632.038 131.644 628.496 Q129.839 624.931 126.205 624.931 M126.205 621.227 Q132.015 621.227 135.07 625.834 Q138.149 630.417 138.149 639.167 Q138.149 647.894 135.07 652.5 Q132.015 657.084 126.205 657.084 Q120.394 657.084 117.316 652.5 Q114.26 647.894 114.26 639.167 Q114.26 630.417 117.316 625.834 Q120.394 621.227 126.205 621.227 Z" fill="#000000" fill-rule="evenodd" fill-opacity="1" /><path clip-path="url(#clip550)" d="M146.366 650.533 L151.251 650.533 L151.251 656.412 L146.366 656.412 L146.366 650.533 Z" fill="#000000" fill-rule="evenodd" fill-opacity="1" /><path clip-path="url(#clip550)" d="M171.436 624.931 Q167.825 624.931 165.996 628.496 Q164.19 632.038 164.19 639.167 Q164.19 646.274 165.996 649.838 Q167.825 653.38 171.436 653.38 Q175.07 653.38 176.876 649.838 Q178.704 646.274 178.704 639.167 Q178.704 632.038 176.876 628.496 Q175.07 624.931 171.436 624.931 M171.436 621.227 Q177.246 621.227 180.301 625.834 Q183.38 630.417 183.38 639.167 Q183.38 647.894 180.301 652.5 Q177.246 657.084 171.436 657.084 Q165.626 657.084 162.547 652.5 Q159.491 647.894 159.491 639.167 Q159.491 630.417 162.547 625.834 Q165.626 621.227 171.436 621.227 Z" fill="#000000" fill-rule="evenodd" fill-opacity="1" /><path clip-path="url(#clip550)" d="M204.445 625.927 L192.639 644.376 L204.445 644.376 L204.445 625.927 M203.218 621.852 L209.098 621.852 L209.098 644.376 L214.028 644.376 L214.028 648.264 L209.098 648.264 L209.098 656.412 L204.445 656.412 L204.445 648.264 L188.843 648.264 L188.843 643.751 L203.218 621.852 Z" fill="#000000" fill-rule="evenodd" fill-opacity="1" /><path clip-path="url(#clip550)" d="M127.686 422.746 Q124.075 422.746 122.246 426.311 Q120.441 429.852 120.441 436.982 Q120.441 444.089 122.246 447.653 Q124.075 451.195 127.686 451.195 Q131.32 451.195 133.126 447.653 Q134.954 444.089 134.954 436.982 Q134.954 429.852 133.126 426.311 Q131.32 422.746 127.686 422.746 M127.686 419.042 Q133.496 419.042 136.552 423.649 Q139.63 428.232 139.63 436.982 Q139.63 445.709 136.552 450.315 Q133.496 454.899 127.686 454.899 Q121.876 454.899 118.797 450.315 Q115.742 445.709 115.742 436.982 Q115.742 428.232 118.797 423.649 Q121.876 419.042 127.686 419.042 Z" fill="#000000" fill-rule="evenodd" fill-opacity="1" /><path clip-path="url(#clip550)" d="M147.848 448.348 L152.732 448.348 L152.732 454.227 L147.848 454.227 L147.848 448.348 Z" fill="#000000" fill-rule="evenodd" fill-opacity="1" /><path clip-path="url(#clip550)" d="M172.917 422.746 Q169.306 422.746 167.477 426.311 Q165.672 429.852 165.672 436.982 Q165.672 444.089 167.477 447.653 Q169.306 451.195 172.917 451.195 Q176.551 451.195 178.357 447.653 Q180.186 444.089 180.186 436.982 Q180.186 429.852 178.357 426.311 Q176.551 422.746 172.917 422.746 M172.917 419.042 Q178.727 419.042 181.783 423.649 Q184.862 428.232 184.862 436.982 Q184.862 445.709 181.783 450.315 Q178.727 454.899 172.917 454.899 Q167.107 454.899 164.028 450.315 Q160.973 445.709 160.973 436.982 Q160.973 428.232 164.028 423.649 Q167.107 419.042 172.917 419.042 Z" fill="#000000" fill-rule="evenodd" fill-opacity="1" /><path clip-path="url(#clip550)" d="M193.125 419.667 L211.482 419.667 L211.482 423.603 L197.408 423.603 L197.408 432.075 Q198.426 431.727 199.445 431.565 Q200.463 431.38 201.482 431.38 Q207.269 431.38 210.649 434.552 Q214.028 437.723 214.028 443.139 Q214.028 448.718 210.556 451.82 Q207.084 454.899 200.764 454.899 Q198.588 454.899 196.32 454.528 Q194.075 454.158 191.667 453.417 L191.667 448.718 Q193.75 449.852 195.973 450.408 Q198.195 450.963 200.672 450.963 Q204.676 450.963 207.014 448.857 Q209.352 446.751 209.352 443.139 Q209.352 439.528 207.014 437.422 Q204.676 435.315 200.672 435.315 Q198.797 435.315 196.922 435.732 Q195.07 436.149 193.125 437.028 L193.125 419.667 Z" fill="#000000" fill-rule="evenodd" fill-opacity="1" /><path clip-path="url(#clip550)" d="M126.529 220.561 Q122.918 220.561 121.089 224.126 Q119.283 227.667 119.283 234.797 Q119.283 241.903 121.089 245.468 Q122.918 249.01 126.529 249.01 Q130.163 249.01 131.968 245.468 Q133.797 241.903 133.797 234.797 Q133.797 227.667 131.968 224.126 Q130.163 220.561 126.529 220.561 M126.529 216.857 Q132.339 216.857 135.394 221.464 Q138.473 226.047 138.473 234.797 Q138.473 243.524 135.394 248.13 Q132.339 252.713 126.529 252.713 Q120.718 252.713 117.64 248.13 Q114.584 243.524 114.584 234.797 Q114.584 226.047 117.64 221.464 Q120.718 216.857 126.529 216.857 Z" fill="#000000" fill-rule="evenodd" fill-opacity="1" /><path clip-path="url(#clip550)" d="M146.691 246.163 L151.575 246.163 L151.575 252.042 L146.691 252.042 L146.691 246.163 Z" fill="#000000" fill-rule="evenodd" fill-opacity="1" /><path clip-path="url(#clip550)" d="M171.76 220.561 Q168.149 220.561 166.32 224.126 Q164.515 227.667 164.515 234.797 Q164.515 241.903 166.32 245.468 Q168.149 249.01 171.76 249.01 Q175.394 249.01 177.2 245.468 Q179.028 241.903 179.028 234.797 Q179.028 227.667 177.2 224.126 Q175.394 220.561 171.76 220.561 M171.76 216.857 Q177.57 216.857 180.626 221.464 Q183.704 226.047 183.704 234.797 Q183.704 243.524 180.626 248.13 Q177.57 252.713 171.76 252.713 Q165.95 252.713 162.871 248.13 Q159.815 243.524 159.815 234.797 Q159.815 226.047 162.871 221.464 Q165.95 216.857 171.76 216.857 Z" fill="#000000" fill-rule="evenodd" fill-opacity="1" /><path clip-path="url(#clip550)" d="M202.5 232.899 Q199.352 232.899 197.5 235.052 Q195.672 237.204 195.672 240.954 Q195.672 244.681 197.5 246.857 Q199.352 249.01 202.5 249.01 Q205.649 249.01 207.477 246.857 Q209.329 244.681 209.329 240.954 Q209.329 237.204 207.477 235.052 Q205.649 232.899 202.5 232.899 M211.783 218.246 L211.783 222.505 Q210.024 221.672 208.218 221.232 Q206.436 220.792 204.676 220.792 Q200.047 220.792 197.593 223.917 Q195.163 227.042 194.815 233.362 Q196.181 231.348 198.241 230.283 Q200.301 229.195 202.778 229.195 Q207.987 229.195 210.996 232.366 Q214.028 235.515 214.028 240.954 Q214.028 246.278 210.88 249.496 Q207.732 252.713 202.5 252.713 Q196.505 252.713 193.334 248.13 Q190.163 243.524 190.163 234.797 Q190.163 226.603 194.051 221.741 Q197.94 216.857 204.491 216.857 Q206.25 216.857 208.033 217.204 Q209.838 217.552 211.783 218.246 Z" fill="#000000" fill-rule="evenodd" fill-opacity="1" /><path clip-path="url(#clip550)" d="M64.0042 926.338 L16.4842 944.48 L16.4842 937.765 L56.4926 922.71 L16.4842 907.623 L16.4842 900.939 L64.0042 919.049 L64.0042 926.338 Z" fill="#000000" fill-rule="evenodd" fill-opacity="1" /><path clip-path="url(#clip550)" d="M32.4621 885.502 Q32.4621 890.213 36.1542 892.95 Q39.8145 895.687 46.212 895.687 Q52.6095 895.687 56.3017 892.982 Q59.9619 890.245 59.9619 885.502 Q59.9619 880.823 56.2698 878.086 Q52.5777 875.349 46.212 875.349 Q39.8781 875.349 36.186 878.086 Q32.4621 880.823 32.4621 885.502 M27.4968 885.502 Q27.4968 877.863 32.4621 873.503 Q37.4273 869.142 46.212 869.142 Q54.9649 869.142 59.9619 873.503 Q64.9272 877.863 64.9272 885.502 Q64.9272 893.173 59.9619 897.533 Q54.9649 901.862 46.212 901.862 Q37.4273 901.862 32.4621 897.533 Q27.4968 893.173 27.4968 885.502 Z" fill="#000000" fill-rule="evenodd" fill-opacity="1" /><path clip-path="url(#clip550)" d="M14.479 859.435 L14.479 853.578 L64.0042 853.578 L64.0042 859.435 L14.479 859.435 Z" fill="#000000" fill-rule="evenodd" fill-opacity="1" /><path clip-path="url(#clip550)" d="M46.0847 825.123 Q46.0847 832.221 47.7079 834.958 Q49.3312 837.696 53.2461 837.696 Q56.3653 837.696 58.2114 835.659 Q60.0256 833.59 60.0256 830.057 Q60.0256 825.187 56.5881 822.259 Q53.1188 819.299 47.3897 819.299 L46.0847 819.299 L46.0847 825.123 M43.6657 813.442 L64.0042 813.442 L64.0042 819.299 L58.5933 819.299 Q61.8398 821.304 63.3994 824.296 Q64.9272 827.288 64.9272 831.616 Q64.9272 837.091 61.8716 840.337 Q58.7843 843.552 53.6281 843.552 Q47.6125 843.552 44.5569 839.542 Q41.5014 835.499 41.5014 827.511 L41.5014 819.299 L40.9285 819.299 Q36.8862 819.299 34.6901 821.972 Q32.4621 824.614 32.4621 829.42 Q32.4621 832.476 33.1941 835.372 Q33.9262 838.269 35.3903 840.942 L29.9795 840.942 Q28.7381 837.727 28.1334 834.704 Q27.4968 831.68 27.4968 828.815 Q27.4968 821.081 31.5072 817.262 Q35.5176 813.442 43.6657 813.442 Z" fill="#000000" fill-rule="evenodd" fill-opacity="1" /><path clip-path="url(#clip550)" d="M18.2347 795.586 L28.3562 795.586 L28.3562 783.523 L32.9077 783.523 L32.9077 795.586 L52.2594 795.586 Q56.6199 795.586 57.8613 794.409 Q59.1026 793.199 59.1026 789.539 L59.1026 783.523 L64.0042 783.523 L64.0042 789.539 Q64.0042 796.319 61.4897 798.897 Q58.9434 801.475 52.2594 801.475 L32.9077 801.475 L32.9077 805.772 L28.3562 805.772 L28.3562 801.475 L18.2347 801.475 L18.2347 795.586 Z" fill="#000000" fill-rule="evenodd" fill-opacity="1" /><path clip-path="url(#clip550)" d="M28.3562 775.821 L28.3562 769.965 L64.0042 769.965 L64.0042 775.821 L28.3562 775.821 M14.479 775.821 L14.479 769.965 L21.895 769.965 L21.895 775.821 L14.479 775.821 Z" fill="#000000" fill-rule="evenodd" fill-opacity="1" /><path clip-path="url(#clip550)" d="M14.479 757.711 L14.479 751.854 L64.0042 751.854 L64.0042 757.711 L14.479 757.711 Z" fill="#000000" fill-rule="evenodd" fill-opacity="1" /><path clip-path="url(#clip550)" d="M28.3562 739.6 L28.3562 733.744 L64.0042 733.744 L64.0042 739.6 L28.3562 739.6 M14.479 739.6 L14.479 733.744 L21.895 733.744 L21.895 739.6 L14.479 739.6 Z" fill="#000000" fill-rule="evenodd" fill-opacity="1" /><path clip-path="url(#clip550)" d="M18.2347 715.697 L28.3562 715.697 L28.3562 703.634 L32.9077 703.634 L32.9077 715.697 L52.2594 715.697 Q56.6199 715.697 57.8613 714.519 Q59.1026 713.31 59.1026 709.649 L59.1026 703.634 L64.0042 703.634 L64.0042 709.649 Q64.0042 716.429 61.4897 719.007 Q58.9434 721.585 52.2594 721.585 L32.9077 721.585 L32.9077 725.882 L28.3562 725.882 L28.3562 721.585 L18.2347 721.585 L18.2347 715.697 Z" fill="#000000" fill-rule="evenodd" fill-opacity="1" /><path clip-path="url(#clip550)" d="M67.3143 681.099 Q73.68 683.582 75.6216 685.937 Q77.5631 688.293 77.5631 692.239 L77.5631 696.918 L72.6615 696.918 L72.6615 693.481 Q72.6615 691.062 71.5157 689.725 Q70.3699 688.388 66.1048 686.765 L63.4312 685.714 L28.3562 700.133 L28.3562 693.926 L56.238 682.786 L28.3562 671.646 L28.3562 665.44 L67.3143 681.099 Z" fill="#000000" fill-rule="evenodd" fill-opacity="1" /><path clip-path="url(#clip550)" d="M273.118 72.576 L250.028 12.096 L258.576 12.096 L277.736 63.0159 L296.938 12.096 L305.445 12.096 L282.395 72.576 L273.118 72.576 Z" fill="#000000" fill-rule="evenodd" fill-opacity="1" /><path clip-path="url(#clip550)" d="M325.091 32.4315 Q319.096 32.4315 315.612 37.1306 Q312.129 41.7891 312.129 49.9314 Q312.129 58.0738 315.572 62.7728 Q319.056 67.4314 325.091 67.4314 Q331.046 67.4314 334.53 62.7323 Q338.014 58.0333 338.014 49.9314 Q338.014 41.8701 334.53 37.1711 Q331.046 32.4315 325.091 32.4315 M325.091 26.1121 Q334.814 26.1121 340.363 32.4315 Q345.913 38.7509 345.913 49.9314 Q345.913 61.0714 340.363 67.4314 Q334.814 73.7508 325.091 73.7508 Q315.329 73.7508 309.779 67.4314 Q304.27 61.0714 304.27 49.9314 Q304.27 38.7509 309.779 32.4315 Q315.329 26.1121 325.091 26.1121 Z" fill="#000000" fill-rule="evenodd" fill-opacity="1" /><path clip-path="url(#clip550)" d="M358.268 9.54393 L365.722 9.54393 L365.722 72.576 L358.268 72.576 L358.268 9.54393 Z" fill="#000000" fill-rule="evenodd" fill-opacity="1" /><path clip-path="url(#clip550)" d="M401.937 49.7694 Q392.904 49.7694 389.42 51.8354 Q385.936 53.9013 385.936 58.8839 Q385.936 62.8538 388.529 65.2034 Q391.162 67.5124 395.658 67.5124 Q401.856 67.5124 405.583 63.1374 Q409.35 58.7219 409.35 51.4303 L409.35 49.7694 L401.937 49.7694 M416.804 46.6907 L416.804 72.576 L409.35 72.576 L409.35 65.6895 Q406.798 69.8214 402.99 71.8063 Q399.182 73.7508 393.673 73.7508 Q386.706 73.7508 382.574 69.8619 Q378.482 65.9325 378.482 59.3701 Q378.482 51.7138 383.586 47.825 Q388.731 43.9361 398.899 43.9361 L409.35 43.9361 L409.35 43.2069 Q409.35 38.0623 405.947 35.2672 Q402.585 32.4315 396.468 32.4315 Q392.579 32.4315 388.893 33.3632 Q385.207 34.295 381.804 36.1584 L381.804 29.2718 Q385.895 27.692 389.744 26.9223 Q393.592 26.1121 397.238 26.1121 Q407.082 26.1121 411.943 31.2163 Q416.804 36.3204 416.804 46.6907 Z" fill="#000000" fill-rule="evenodd" fill-opacity="1" /><path clip-path="url(#clip550)" d="M439.529 14.324 L439.529 27.2059 L454.882 27.2059 L454.882 32.9987 L439.529 32.9987 L439.529 57.6282 Q439.529 63.1779 441.028 64.7578 Q442.568 66.3376 447.226 66.3376 L454.882 66.3376 L454.882 72.576 L447.226 72.576 Q438.598 72.576 435.317 69.3758 Q432.035 66.1351 432.035 57.6282 L432.035 32.9987 L426.567 32.9987 L426.567 27.2059 L432.035 27.2059 L432.035 14.324 L439.529 14.324 Z" fill="#000000" fill-rule="evenodd" fill-opacity="1" /><path clip-path="url(#clip550)" d="M464.686 27.2059 L472.139 27.2059 L472.139 72.576 L464.686 72.576 L464.686 27.2059 M464.686 9.54393 L472.139 9.54393 L472.139 18.9825 L464.686 18.9825 L464.686 9.54393 Z" fill="#000000" fill-rule="evenodd" fill-opacity="1" /><path clip-path="url(#clip550)" d="M487.735 9.54393 L495.189 9.54393 L495.189 72.576 L487.735 72.576 L487.735 9.54393 Z" fill="#000000" fill-rule="evenodd" fill-opacity="1" /><path clip-path="url(#clip550)" d="M510.785 27.2059 L518.239 27.2059 L518.239 72.576 L510.785 72.576 L510.785 27.2059 M510.785 9.54393 L518.239 9.54393 L518.239 18.9825 L510.785 18.9825 L510.785 9.54393 Z" fill="#000000" fill-rule="evenodd" fill-opacity="1" /><path clip-path="url(#clip550)" d="M541.207 14.324 L541.207 27.2059 L556.56 27.2059 L556.56 32.9987 L541.207 32.9987 L541.207 57.6282 Q541.207 63.1779 542.706 64.7578 Q544.245 66.3376 548.904 66.3376 L556.56 66.3376 L556.56 72.576 L548.904 72.576 Q540.275 72.576 536.994 69.3758 Q533.713 66.1351 533.713 57.6282 L533.713 32.9987 L528.244 32.9987 L528.244 27.2059 L533.713 27.2059 L533.713 14.324 L541.207 14.324 Z" fill="#000000" fill-rule="evenodd" fill-opacity="1" /><path clip-path="url(#clip550)" d="M585.24 76.7889 Q582.081 84.8907 579.083 87.3618 Q576.085 89.8329 571.062 89.8329 L565.107 89.8329 L565.107 83.5945 L569.482 83.5945 Q572.561 83.5945 574.263 82.1361 Q575.964 80.6778 578.03 75.2496 L579.367 71.8468 L561.016 27.2059 L568.915 27.2059 L583.093 62.6918 L597.272 27.2059 L605.171 27.2059 L585.24 76.7889 Z" fill="#000000" fill-rule="evenodd" fill-opacity="1" /><polyline clip-path="url(#clip552)" style="stroke:#009af9; stroke-linecap:butt; stroke-linejoin:round; stroke-width:8; stroke-opacity:1; fill:none" points="
  508.573,802.907 515.208,792.548 521.842,800.588 528.477,803.363 535.111,806.821 541.746,808.25 548.38,858.694 555.015,833.283 561.649,876.293 568.283,880.82 
  574.918,881.378 581.552,881.05 588.187,830.875 594.821,830.006 601.456,829.014 608.09,840.593 614.725,823.614 621.359,838.92 627.994,837.439 634.628,898.211 
  641.263,789.069 647.897,785.067 654.532,796.973 661.166,797.275 667.8,735.025 674.435,735.005 681.069,731.08 687.704,739.937 694.338,696.191 700.973,642.216 
  707.607,642.205 714.242,651.314 720.876,657.023 727.511,655.882 734.145,648.214 740.78,645.692 747.414,503.628 754.049,537.868 760.683,536.763 767.317,514.404 
  773.952,517.144 780.586,496.655 787.221,519.15 793.855,375.601 800.49,298.909 807.124,275.314 813.759,278.783 820.393,254.756 827.028,169.594 833.662,170.143 
  840.297,226.168 846.931,230.989 853.566,207.753 860.2,206.933 866.834,243.13 873.469,224.134 880.103,224.403 886.738,219.443 893.372,222.265 900.007,254.37 
  906.641,251.786 913.276,254.768 919.91,253.401 926.545,252.675 933.179,162.047 939.814,166.743 946.448,250.409 953.083,242.839 959.717,183.956 966.351,191.573 
  972.986,191.483 979.62,201.497 986.255,202.363 992.889,318.879 999.524,387.314 1006.16,431.836 1012.79,344.477 1019.43,370.395 1026.06,451.13 1032.7,444.36 
  1039.33,398.16 1045.97,393.957 1052.6,391.926 1059.23,397.5 1065.87,392.625 1072.5,402.736 1079.14,391.846 1085.77,395.896 1092.41,405.134 1099.04,427.072 
  1105.68,421.832 1112.31,420.356 1118.94,447.795 1125.58,441.684 1132.21,532.071 1138.85,533.76 1145.48,532.176 1152.12,540.765 1158.75,616.583 1165.39,633.061 
  1172.02,628.947 1178.65,641.553 1185.29,640.472 1191.92,666.578 1198.56,660.847 1205.19,653.835 1211.83,721.36 1218.46,729.249 1225.1,724.394 1231.73,728.821 
  1238.36,810.937 1245,790.855 1251.63,810.853 1258.27,811.145 1264.9,825.29 1271.54,808.195 1278.17,831.503 1284.81,807.443 1291.44,806.463 1298.07,799.921 
  1304.71,813.819 1311.34,808.914 1317.98,794.279 1324.61,800.134 1331.25,795.745 1337.88,778.112 1344.52,772.937 1351.15,792.908 1357.78,784.219 1364.42,744.588 
  1371.05,754.538 1377.69,760.417 1384.32,747.277 1390.96,732.204 1397.59,748.627 1404.23,762.302 1410.86,785.217 1417.5,780.167 1424.13,788.238 1430.76,787.971 
  1437.4,768.096 1444.03,782.484 1450.67,780.481 1457.3,764.306 1463.94,763.831 1470.57,786.897 1477.21,773.27 1483.84,794.635 1490.47,791.751 1497.11,803.337 
  1503.74,813.547 1510.38,817.96 1517.01,826.722 1523.65,838.839 1530.28,693.573 1536.92,717.304 1543.55,719.051 1550.18,707.98 1556.82,713.556 1563.45,764.932 
  1570.09,761.806 1576.72,738.458 1583.36,740.344 1589.99,747.787 1596.63,746.469 1603.26,761.781 1609.89,787.025 1616.53,703.977 1623.16,682.885 1629.8,635.995 
  1636.43,636.805 1643.07,628.371 1649.7,642.816 1656.34,663.159 1662.97,659.966 1669.6,655.638 1676.24,662.685 1682.87,634.104 1689.51,569.192 1696.14,569.182 
  1702.78,569.888 1709.41,566.157 1716.05,560.729 1722.68,523.34 1729.32,631.585 1735.95,636.086 1742.58,634.68 1749.22,647.635 1755.85,631.844 1762.49,623.368 
  1769.12,629.225 1775.76,642.635 1782.39,607.608 1789.03,605.983 1795.66,608.627 1802.29,609.961 1808.93,612.386 1815.56,712.054 1822.2,705.454 1828.83,721.364 
  1835.47,724.94 1842.1,754.783 1848.74,751.621 1855.37,719.943 1862,713.898 1868.64,723.422 1875.27,721.484 1881.91,734.89 1888.54,805.84 1895.18,807.362 
  1901.81,798.494 1908.45,798.011 1915.08,802.947 1921.71,853.117 1928.35,865.188 1934.98,858.613 1941.62,820.282 1948.25,819.005 1954.89,826.519 1961.52,836.794 
  1968.16,838.856 1974.79,839.035 1981.42,896.037 1988.06,886.854 1994.69,848.388 2001.33,849.099 2007.96,829.21 2014.6,832.515 2021.23,859.391 2027.87,862.453 
  2034.5,845.551 2041.14,838.597 2047.77,855.793 2054.4,864.023 2061.04,780.675 2067.67,791.916 2074.31,776.579 2080.94,775.319 2087.58,774.145 2094.21,773.891 
  2100.85,790.081 2107.48,766.025 2114.11,706.992 2120.75,705.6 2127.38,700.616 2134.02,711.747 2140.65,764.964 2147.29,739.995 2153.92,743.846 2160.56,713.586 
  2167.19,708.83 2173.82,676.894 2180.46,665.431 2187.09,665.285 2193.73,683.966 2200.36,680.527 2207,700.19 2213.63,707.612 2220.27,718.118 2226.9,696.889 
  2233.53,709.23 2240.17,693.095 2246.8,693.015 2253.44,705.067 2260.07,783.729 2266.71,788.278 2273.34,776.37 2279.98,776.294 2286.61,772.468 2293.24,768.156 
  
  "/>
<polyline clip-path="url(#clip552)" style="stroke:#e26f46; stroke-linecap:butt; stroke-linejoin:round; stroke-width:8; stroke-opacity:1; fill:none" points="
  601.456,1301.6 608.09,1305.94 614.725,1300.5 621.359,1299.93 641.263,1299.95 647.897,1300.55 654.532,1300.79 661.166,1299.92 667.8,1309.96 687.704,1312.77 
  694.338,1310.93 700.973,1315.95 707.607,1317.3 714.242,1316.63 734.145,1318.84 740.78,1313.06 747.414,1289.08 754.049,1284.27 760.683,1279.77 780.586,1286.72 
  787.221,1283.07 793.855,1282.7 800.49,1279.04 807.124,1280.94 827.028,1277.01 833.662,1276.95 840.297,1277.5 846.931,1281.9 853.566,1282.2 880.103,1283.3 
  886.738,1285.92 893.372,1288.7 900.007,1289.6 919.91,1294.15 926.545,1294.28 933.179,1294.14 939.814,1293.34 946.448,1294.89 966.351,1297.07 972.986,1296.92 
  979.62,1297.27 986.255,1297.24 992.889,1287.07 1012.79,1280.52 1019.43,1283.72 1026.06,1287.52 1032.7,1310.63 1039.33,1316.17 1059.23,1327.33 1065.87,1328.02 
  1072.5,1333.77 1079.14,1333.74 1085.77,1336.69 1112.31,1336.34 1118.94,1341.07 1125.58,1336.23 1132.21,1330.73 1152.12,1330.47 1158.75,1329.16 1165.39,1329.43 
  1172.02,1328.17 1178.65,1324.86 1198.56,1315.66 1205.19,1305.98 1211.83,1303.42 1218.46,1303.67 1225.1,1300.28 1245,1300.22 1251.63,1298.71 1258.27,1299.01 
  1264.9,1300.86 1271.54,1299.15 1291.44,1315.42 1298.07,1321.74 1304.71,1320.37 1311.34,1319.38 1317.98,1320.49 1337.88,1320.54 1344.52,1320.58 1351.15,1320.51 
  1357.78,1320.35 1364.42,1321.35 1384.32,1323.66 1390.96,1320.92 1397.59,1314.1 1404.23,1318.1 1410.86,1320.65 1430.76,1317.53 1437.4,1318.49 1444.03,1318.44 
  1450.67,1316.92 1457.3,1318.08 1477.21,1333.65 1483.84,1342.87 1490.47,1345.82 1497.11,1345.65 1503.74,1351.36 1530.28,1350.09 1536.92,1351.91 1543.55,1350.12 
  1550.18,1345.95 1570.09,1347.65 1576.72,1345.66 1583.36,1345.43 1589.99,1347.2 1596.63,1337.83 1616.53,1321.84 1623.16,1321.84 1629.8,1316.3 1636.43,1308.82 
  1643.07,1309.15 1662.97,1308.98 1669.6,1290.85 1676.24,1292.03 1682.87,1290.76 1689.51,1284.19 1709.41,1281.07 1716.05,1279.64 1722.68,1278.81 1729.32,1275.46 
  1735.95,1276.52 1755.85,1278.82 1762.49,1280.11 1769.12,1279.11 1775.76,1266.66 1782.39,1264.58 1802.29,1264.13 1808.93,1262.15 1815.56,1261.63 1822.2,1262.19 
  1828.83,1264.79 1848.74,1264.07 1855.37,1265.54 1862,1266.8 1868.64,1263.89 1875.27,1271.59 1895.18,1285.76 1901.81,1285.97 1908.45,1287.82 1915.08,1292.12 
  1921.71,1291.99 1941.62,1292.96 1948.25,1316.53 1954.89,1310.86 1961.52,1322.19 1968.16,1325.69 1988.06,1340.38 1994.69,1344.11 2001.33,1342.6 2007.96,1345.16 
  2014.6,1345.18 2034.5,1349.81 2041.14,1351.49 2047.77,1351.57 2061.04,1327.06 2080.94,1322.53 2087.58,1300.69 2094.21,1297.04 2100.85,1287.45 2107.48,1284.25 
  2127.38,1278.64 2134.02,1263.86 2140.65,1263.75 2147.29,1262.59 2153.92,1262.74 2173.82,1259.32 2180.46,1257.41 2187.09,1249.64 2193.73,1247.78 2200.36,1241.8 
  2220.27,1239.04 2226.9,1228.1 2233.53,1225.13 2240.17,1226.21 2266.71,1220.64 2273.34,1221.95 2279.98,1221.95 2286.61,1221.95 
  "/>
<path clip-path="url(#clip550)" d="
M1964.45 324.425 L2282.66 324.425 L2282.66 168.905 L1964.45 168.905  Z
  " fill="#ffffff" fill-rule="evenodd" fill-opacity="1"/>
<polyline clip-path="url(#clip550)" style="stroke:#000000; stroke-linecap:butt; stroke-linejoin:round; stroke-width:4; stroke-opacity:1; fill:none" points="
  1964.45,324.425 2282.66,324.425 2282.66,168.905 1964.45,168.905 1964.45,324.425 
  "/>
<polyline clip-path="url(#clip550)" style="stroke:#009af9; stroke-linecap:butt; stroke-linejoin:round; stroke-width:4; stroke-opacity:1; fill:none" points="
  1987.81,220.745 2127.99,220.745 
  "/>
<path clip-path="url(#clip550)" d="M2156.03 221.52 L2156.03 234.182 L2163.53 234.182 Q2167.3 234.182 2169.11 232.631 Q2170.94 231.057 2170.94 227.84 Q2170.94 224.599 2169.11 223.071 Q2167.3 221.52 2163.53 221.52 L2156.03 221.52 M2156.03 207.307 L2156.03 217.724 L2162.95 217.724 Q2166.38 217.724 2168.04 216.451 Q2169.73 215.154 2169.73 212.516 Q2169.73 209.9 2168.04 208.604 Q2166.38 207.307 2162.95 207.307 L2156.03 207.307 M2151.35 203.465 L2163.3 203.465 Q2168.65 203.465 2171.54 205.687 Q2174.43 207.909 2174.43 212.006 Q2174.43 215.178 2172.95 217.053 Q2171.47 218.928 2168.6 219.39 Q2172.05 220.131 2173.95 222.492 Q2175.87 224.83 2175.87 228.349 Q2175.87 232.978 2172.72 235.502 Q2169.57 238.025 2163.76 238.025 L2151.35 238.025 L2151.35 203.465 Z" fill="#000000" fill-rule="evenodd" fill-opacity="1" /><path clip-path="url(#clip550)" d="M2179.09 203.465 L2208.32 203.465 L2208.32 207.4 L2196.05 207.4 L2196.05 238.025 L2191.35 238.025 L2191.35 207.4 L2179.09 207.4 L2179.09 203.465 Z" fill="#000000" fill-rule="evenodd" fill-opacity="1" /><path clip-path="url(#clip550)" d="M2235.94 206.127 L2235.94 211.057 Q2233.58 208.858 2230.89 207.77 Q2228.23 206.682 2225.22 206.682 Q2219.29 206.682 2216.15 210.316 Q2213 213.928 2213 220.779 Q2213 227.608 2216.15 231.242 Q2219.29 234.853 2225.22 234.853 Q2228.23 234.853 2230.89 233.765 Q2233.58 232.677 2235.94 230.478 L2235.94 235.363 Q2233.48 237.029 2230.73 237.863 Q2228 238.696 2224.94 238.696 Q2217.1 238.696 2212.58 233.904 Q2208.07 229.09 2208.07 220.779 Q2208.07 212.446 2212.58 207.654 Q2217.1 202.84 2224.94 202.84 Q2228.04 202.84 2230.78 203.673 Q2233.53 204.483 2235.94 206.127 Z" fill="#000000" fill-rule="evenodd" fill-opacity="1" /><polyline clip-path="url(#clip550)" style="stroke:#e26f46; stroke-linecap:butt; stroke-linejoin:round; stroke-width:4; stroke-opacity:1; fill:none" points="
  1987.81,272.585 2127.99,272.585 
  "/>
<path clip-path="url(#clip550)" d="M2173.6 256.439 L2173.6 260.999 Q2170.94 259.726 2168.58 259.101 Q2166.22 258.476 2164.02 258.476 Q2160.2 258.476 2158.11 259.957 Q2156.05 261.439 2156.05 264.17 Q2156.05 266.462 2157.42 267.643 Q2158.81 268.8 2162.65 269.518 L2165.48 270.096 Q2170.71 271.092 2173.18 273.615 Q2175.68 276.115 2175.68 280.328 Q2175.68 285.351 2172.3 287.943 Q2168.95 290.536 2162.44 290.536 Q2159.99 290.536 2157.21 289.98 Q2154.46 289.425 2151.49 288.337 L2151.49 283.522 Q2154.34 285.119 2157.07 285.929 Q2159.8 286.74 2162.44 286.74 Q2166.45 286.74 2168.62 285.166 Q2170.8 283.592 2170.8 280.675 Q2170.8 278.129 2169.23 276.693 Q2167.67 275.258 2164.11 274.541 L2161.26 273.985 Q2156.03 272.943 2153.69 270.721 Q2151.35 268.499 2151.35 264.541 Q2151.35 259.957 2154.57 257.319 Q2157.81 254.68 2163.48 254.68 Q2165.91 254.68 2168.44 255.119 Q2170.96 255.559 2173.6 256.439 Z" fill="#000000" fill-rule="evenodd" fill-opacity="1" /><path clip-path="url(#clip550)" d="M2187.65 259.147 L2187.65 272.133 L2193.53 272.133 Q2196.79 272.133 2198.58 270.443 Q2200.36 268.754 2200.36 265.629 Q2200.36 262.527 2198.58 260.837 Q2196.79 259.147 2193.53 259.147 L2187.65 259.147 M2182.98 255.305 L2193.53 255.305 Q2199.34 255.305 2202.3 257.944 Q2205.29 260.559 2205.29 265.629 Q2205.29 270.744 2202.3 273.36 Q2199.34 275.976 2193.53 275.976 L2187.65 275.976 L2187.65 289.865 L2182.98 289.865 L2182.98 255.305 Z" fill="#000000" fill-rule="evenodd" fill-opacity="1" /><path clip-path="url(#clip550)" d="M2205.78 255.305 L2210.8 255.305 L2220.38 269.518 L2229.9 255.305 L2234.92 255.305 L2222.7 273.406 L2222.7 289.865 L2218 289.865 L2218 273.406 L2205.78 255.305 Z" fill="#000000" fill-rule="evenodd" fill-opacity="1" /></svg>
