<?xml version="1.0" encoding="utf-8"?>
<svg xmlns="http://www.w3.org/2000/svg" xmlns:xlink="http://www.w3.org/1999/xlink" width="600" height="400" viewBox="0 0 2400 1600">
<defs>
  <clipPath id="clip500">
    <rect x="0" y="0" width="2400" height="1600"/>
  </clipPath>
</defs>
<path clip-path="url(#clip500)" d="
M0 1600 L2400 1600 L2400 0 L0 0  Z
  " fill="#ffffff" fill-rule="evenodd" fill-opacity="1"/>
<defs>
  <clipPath id="clip501">
    <rect x="480" y="0" width="1681" height="1600"/>
  </clipPath>
</defs>
<path clip-path="url(#clip500)" d="
M186.76 1486.45 L2352.76 1486.45 L2352.76 123.472 L186.76 123.472  Z
  " fill="#ffffff" fill-rule="evenodd" fill-opacity="1"/>
<defs>
  <clipPath id="clip502">
    <rect x="186" y="123" width="2167" height="1364"/>
  </clipPath>
</defs>
<polyline clip-path="url(#clip502)" style="stroke:#000000; stroke-linecap:butt; stroke-linejoin:round; stroke-width:2; stroke-opacity:0.1; fill:none" points="
  207.057,1486.45 207.057,123.472 
  "/>
<polyline clip-path="url(#clip502)" style="stroke:#000000; stroke-linecap:butt; stroke-linejoin:round; stroke-width:2; stroke-opacity:0.1; fill:none" points="
  835.793,1486.45 835.793,123.472 
  "/>
<polyline clip-path="url(#clip502)" style="stroke:#000000; stroke-linecap:butt; stroke-linejoin:round; stroke-width:2; stroke-opacity:0.1; fill:none" points="
  1464.53,1486.45 1464.53,123.472 
  "/>
<polyline clip-path="url(#clip502)" style="stroke:#000000; stroke-linecap:butt; stroke-linejoin:round; stroke-width:2; stroke-opacity:0.1; fill:none" points="
  2086.43,1486.45 2086.43,123.472 
  "/>
<polyline clip-path="url(#clip500)" style="stroke:#000000; stroke-linecap:butt; stroke-linejoin:round; stroke-width:4; stroke-opacity:1; fill:none" points="
  186.76,1486.45 2352.76,1486.45 
  "/>
<polyline clip-path="url(#clip500)" style="stroke:#000000; stroke-linecap:butt; stroke-linejoin:round; stroke-width:4; stroke-opacity:1; fill:none" points="
  207.057,1486.45 207.057,1467.55 
  "/>
<polyline clip-path="url(#clip500)" style="stroke:#000000; stroke-linecap:butt; stroke-linejoin:round; stroke-width:4; stroke-opacity:1; fill:none" points="
  835.793,1486.45 835.793,1467.55 
  "/>
<polyline clip-path="url(#clip500)" style="stroke:#000000; stroke-linecap:butt; stroke-linejoin:round; stroke-width:4; stroke-opacity:1; fill:none" points="
  1464.53,1486.45 1464.53,1467.55 
  "/>
<polyline clip-path="url(#clip500)" style="stroke:#000000; stroke-linecap:butt; stroke-linejoin:round; stroke-width:4; stroke-opacity:1; fill:none" points="
  2086.43,1486.45 2086.43,1467.55 
  "/>
<path clip-path="url(#clip500)" d="M78.852 1544.91 L95.1714 1544.91 L95.1714 1548.85 L73.227 1548.85 L73.227 1544.91 Q75.8891 1542.16 80.4724 1537.53 Q85.0788 1532.88 86.2594 1531.53 Q88.5047 1529.01 89.3844 1527.27 Q90.2871 1525.51 90.2871 1523.82 Q90.2871 1521.07 88.3427 1519.33 Q86.4214 1517.6 83.3196 1517.6 Q81.1205 1517.6 78.6668 1518.36 Q76.2363 1519.13 73.4585 1520.68 L73.4585 1515.95 Q76.2826 1514.82 78.7363 1514.24 Q81.19 1513.66 83.227 1513.66 Q88.5973 1513.66 91.7918 1516.35 Q94.9862 1519.03 94.9862 1523.52 Q94.9862 1525.65 94.176 1527.57 Q93.389 1529.47 91.2825 1532.07 Q90.7038 1532.74 87.602 1535.95 Q84.5001 1539.15 78.852 1544.91 Z" fill="#000000" fill-rule="evenodd" fill-opacity="1" /><path clip-path="url(#clip500)" d="M114.986 1517.37 Q111.375 1517.37 109.546 1520.93 Q107.741 1524.47 107.741 1531.6 Q107.741 1538.71 109.546 1542.27 Q111.375 1545.82 114.986 1545.82 Q118.62 1545.82 120.426 1542.27 Q122.255 1538.71 122.255 1531.6 Q122.255 1524.47 120.426 1520.93 Q118.62 1517.37 114.986 1517.37 M114.986 1513.66 Q120.796 1513.66 123.852 1518.27 Q126.93 1522.85 126.93 1531.6 Q126.93 1540.33 123.852 1544.94 Q120.796 1549.52 114.986 1549.52 Q109.176 1549.52 106.097 1544.94 Q103.042 1540.33 103.042 1531.6 Q103.042 1522.85 106.097 1518.27 Q109.176 1513.66 114.986 1513.66 Z" fill="#000000" fill-rule="evenodd" fill-opacity="1" /><path clip-path="url(#clip500)" d="M139.176 1544.91 L155.495 1544.91 L155.495 1548.85 L133.551 1548.85 L133.551 1544.91 Q136.213 1542.16 140.796 1537.53 Q145.403 1532.88 146.583 1531.53 Q148.828 1529.01 149.708 1527.27 Q150.611 1525.51 150.611 1523.82 Q150.611 1521.07 148.666 1519.33 Q146.745 1517.6 143.643 1517.6 Q141.444 1517.6 138.991 1518.36 Q136.56 1519.13 133.782 1520.68 L133.782 1515.95 Q136.606 1514.82 139.06 1514.24 Q141.514 1513.66 143.551 1513.66 Q148.921 1513.66 152.116 1516.35 Q155.31 1519.03 155.31 1523.52 Q155.31 1525.65 154.5 1527.57 Q153.713 1529.47 151.606 1532.07 Q151.028 1532.74 147.926 1535.95 Q144.824 1539.15 139.176 1544.91 Z" fill="#000000" fill-rule="evenodd" fill-opacity="1" /><path clip-path="url(#clip500)" d="M166.12 1544.91 L173.759 1544.91 L173.759 1518.55 L165.449 1520.21 L165.449 1515.95 L173.713 1514.29 L178.389 1514.29 L178.389 1544.91 L186.027 1544.91 L186.027 1548.85 L166.12 1548.85 L166.12 1544.91 Z" fill="#000000" fill-rule="evenodd" fill-opacity="1" /><path clip-path="url(#clip500)" d="M192.717 1533.96 L205.194 1533.96 L205.194 1537.76 L192.717 1537.76 L192.717 1533.96 Z" fill="#000000" fill-rule="evenodd" fill-opacity="1" /><path clip-path="url(#clip500)" d="M222.578 1517.37 Q218.967 1517.37 217.138 1520.93 Q215.333 1524.47 215.333 1531.6 Q215.333 1538.71 217.138 1542.27 Q218.967 1545.82 222.578 1545.82 Q226.212 1545.82 228.018 1542.27 Q229.847 1538.71 229.847 1531.6 Q229.847 1524.47 228.018 1520.93 Q226.212 1517.37 222.578 1517.37 M222.578 1513.66 Q228.388 1513.66 231.444 1518.27 Q234.522 1522.85 234.522 1531.6 Q234.522 1540.33 231.444 1544.94 Q228.388 1549.52 222.578 1549.52 Q216.768 1549.52 213.689 1544.94 Q210.634 1540.33 210.634 1531.6 Q210.634 1522.85 213.689 1518.27 Q216.768 1513.66 222.578 1513.66 Z" fill="#000000" fill-rule="evenodd" fill-opacity="1" /><path clip-path="url(#clip500)" d="M256.907 1530.21 Q260.263 1530.93 262.138 1533.2 Q264.036 1535.47 264.036 1538.8 Q264.036 1543.92 260.518 1546.72 Q256.999 1549.52 250.518 1549.52 Q248.342 1549.52 246.027 1549.08 Q243.735 1548.66 241.282 1547.81 L241.282 1543.29 Q243.226 1544.43 245.541 1545.01 Q247.856 1545.58 250.379 1545.58 Q254.777 1545.58 257.069 1543.85 Q259.383 1542.11 259.383 1538.8 Q259.383 1535.75 257.231 1534.03 Q255.101 1532.3 251.282 1532.3 L247.254 1532.3 L247.254 1528.45 L251.467 1528.45 Q254.916 1528.45 256.745 1527.09 Q258.573 1525.7 258.573 1523.11 Q258.573 1520.45 256.675 1519.03 Q254.8 1517.6 251.282 1517.6 Q249.36 1517.6 247.161 1518.01 Q244.962 1518.43 242.323 1519.31 L242.323 1515.14 Q244.985 1514.4 247.3 1514.03 Q249.638 1513.66 251.698 1513.66 Q257.022 1513.66 260.124 1516.09 Q263.226 1518.5 263.226 1522.62 Q263.226 1525.49 261.583 1527.48 Q259.939 1529.45 256.907 1530.21 Z" fill="#000000" fill-rule="evenodd" fill-opacity="1" /><path clip-path="url(#clip500)" d="M270.147 1533.96 L282.624 1533.96 L282.624 1537.76 L270.147 1537.76 L270.147 1533.96 Z" fill="#000000" fill-rule="evenodd" fill-opacity="1" /><path clip-path="url(#clip500)" d="M300.008 1517.37 Q296.397 1517.37 294.568 1520.93 Q292.763 1524.47 292.763 1531.6 Q292.763 1538.71 294.568 1542.27 Q296.397 1545.82 300.008 1545.82 Q303.642 1545.82 305.448 1542.27 Q307.277 1538.71 307.277 1531.6 Q307.277 1524.47 305.448 1520.93 Q303.642 1517.37 300.008 1517.37 M300.008 1513.66 Q305.818 1513.66 308.874 1518.27 Q311.953 1522.85 311.953 1531.6 Q311.953 1540.33 308.874 1544.94 Q305.818 1549.52 300.008 1549.52 Q294.198 1549.52 291.119 1544.94 Q288.064 1540.33 288.064 1531.6 Q288.064 1522.85 291.119 1518.27 Q294.198 1513.66 300.008 1513.66 Z" fill="#000000" fill-rule="evenodd" fill-opacity="1" /><path clip-path="url(#clip500)" d="M320.98 1544.91 L328.619 1544.91 L328.619 1518.55 L320.309 1520.21 L320.309 1515.95 L328.573 1514.29 L333.249 1514.29 L333.249 1544.91 L340.888 1544.91 L340.888 1548.85 L320.98 1548.85 L320.98 1544.91 Z" fill="#000000" fill-rule="evenodd" fill-opacity="1" /><path clip-path="url(#clip500)" d="M707.588 1544.91 L723.907 1544.91 L723.907 1548.85 L701.963 1548.85 L701.963 1544.91 Q704.625 1542.16 709.208 1537.53 Q713.815 1532.88 714.995 1531.53 Q717.241 1529.01 718.12 1527.27 Q719.023 1525.51 719.023 1523.82 Q719.023 1521.07 717.079 1519.33 Q715.158 1517.6 712.056 1517.6 Q709.857 1517.6 707.403 1518.36 Q704.972 1519.13 702.195 1520.68 L702.195 1515.95 Q705.019 1514.82 707.472 1514.24 Q709.926 1513.66 711.963 1513.66 Q717.333 1513.66 720.528 1516.35 Q723.722 1519.03 723.722 1523.52 Q723.722 1525.65 722.912 1527.57 Q722.125 1529.47 720.019 1532.07 Q719.44 1532.74 716.338 1535.95 Q713.236 1539.15 707.588 1544.91 Z" fill="#000000" fill-rule="evenodd" fill-opacity="1" /><path clip-path="url(#clip500)" d="M743.722 1517.37 Q740.111 1517.37 738.282 1520.93 Q736.477 1524.47 736.477 1531.6 Q736.477 1538.71 738.282 1542.27 Q740.111 1545.82 743.722 1545.82 Q747.356 1545.82 749.162 1542.27 Q750.991 1538.71 750.991 1531.6 Q750.991 1524.47 749.162 1520.93 Q747.356 1517.37 743.722 1517.37 M743.722 1513.66 Q749.532 1513.66 752.588 1518.27 Q755.667 1522.85 755.667 1531.6 Q755.667 1540.33 752.588 1544.94 Q749.532 1549.52 743.722 1549.52 Q737.912 1549.52 734.833 1544.94 Q731.778 1540.33 731.778 1531.6 Q731.778 1522.85 734.833 1518.27 Q737.912 1513.66 743.722 1513.66 Z" fill="#000000" fill-rule="evenodd" fill-opacity="1" /><path clip-path="url(#clip500)" d="M767.912 1544.91 L784.231 1544.91 L784.231 1548.85 L762.287 1548.85 L762.287 1544.91 Q764.949 1542.16 769.532 1537.53 Q774.139 1532.88 775.319 1531.53 Q777.565 1529.01 778.444 1527.27 Q779.347 1525.51 779.347 1523.82 Q779.347 1521.07 777.403 1519.33 Q775.481 1517.6 772.379 1517.6 Q770.18 1517.6 767.727 1518.36 Q765.296 1519.13 762.518 1520.68 L762.518 1515.95 Q765.342 1514.82 767.796 1514.24 Q770.25 1513.66 772.287 1513.66 Q777.657 1513.66 780.852 1516.35 Q784.046 1519.03 784.046 1523.52 Q784.046 1525.65 783.236 1527.57 Q782.449 1529.47 780.342 1532.07 Q779.764 1532.74 776.662 1535.95 Q773.56 1539.15 767.912 1544.91 Z" fill="#000000" fill-rule="evenodd" fill-opacity="1" /><path clip-path="url(#clip500)" d="M794.856 1544.91 L802.495 1544.91 L802.495 1518.55 L794.185 1520.21 L794.185 1515.95 L802.449 1514.29 L807.125 1514.29 L807.125 1544.91 L814.763 1544.91 L814.763 1548.85 L794.856 1548.85 L794.856 1544.91 Z" fill="#000000" fill-rule="evenodd" fill-opacity="1" /><path clip-path="url(#clip500)" d="M821.453 1533.96 L833.93 1533.96 L833.93 1537.76 L821.453 1537.76 L821.453 1533.96 Z" fill="#000000" fill-rule="evenodd" fill-opacity="1" /><path clip-path="url(#clip500)" d="M851.314 1517.37 Q847.703 1517.37 845.874 1520.93 Q844.069 1524.47 844.069 1531.6 Q844.069 1538.71 845.874 1542.27 Q847.703 1545.82 851.314 1545.82 Q854.948 1545.82 856.754 1542.27 Q858.583 1538.71 858.583 1531.6 Q858.583 1524.47 856.754 1520.93 Q854.948 1517.37 851.314 1517.37 M851.314 1513.66 Q857.124 1513.66 860.18 1518.27 Q863.259 1522.85 863.259 1531.6 Q863.259 1540.33 860.18 1544.94 Q857.124 1549.52 851.314 1549.52 Q845.504 1549.52 842.425 1544.94 Q839.37 1540.33 839.37 1531.6 Q839.37 1522.85 842.425 1518.27 Q845.504 1513.66 851.314 1513.66 Z" fill="#000000" fill-rule="evenodd" fill-opacity="1" /><path clip-path="url(#clip500)" d="M882.055 1529.7 Q878.907 1529.7 877.055 1531.86 Q875.226 1534.01 875.226 1537.76 Q875.226 1541.49 877.055 1543.66 Q878.907 1545.82 882.055 1545.82 Q885.203 1545.82 887.032 1543.66 Q888.883 1541.49 888.883 1537.76 Q888.883 1534.01 887.032 1531.86 Q885.203 1529.7 882.055 1529.7 M891.337 1515.05 L891.337 1519.31 Q889.578 1518.48 887.772 1518.04 Q885.99 1517.6 884.231 1517.6 Q879.601 1517.6 877.147 1520.72 Q874.717 1523.85 874.37 1530.17 Q875.735 1528.15 877.796 1527.09 Q879.856 1526 882.333 1526 Q887.541 1526 890.55 1529.17 Q893.582 1532.32 893.582 1537.76 Q893.582 1543.08 890.434 1546.3 Q887.286 1549.52 882.055 1549.52 Q876.059 1549.52 872.888 1544.94 Q869.717 1540.33 869.717 1531.6 Q869.717 1523.41 873.606 1518.55 Q877.495 1513.66 884.045 1513.66 Q885.805 1513.66 887.587 1514.01 Q889.393 1514.36 891.337 1515.05 Z" fill="#000000" fill-rule="evenodd" fill-opacity="1" /><path clip-path="url(#clip500)" d="M898.883 1533.96 L911.36 1533.96 L911.36 1537.76 L898.883 1537.76 L898.883 1533.96 Z" fill="#000000" fill-rule="evenodd" fill-opacity="1" /><path clip-path="url(#clip500)" d="M928.744 1517.37 Q925.133 1517.37 923.305 1520.93 Q921.499 1524.47 921.499 1531.6 Q921.499 1538.71 923.305 1542.27 Q925.133 1545.82 928.744 1545.82 Q932.379 1545.82 934.184 1542.27 Q936.013 1538.71 936.013 1531.6 Q936.013 1524.47 934.184 1520.93 Q932.379 1517.37 928.744 1517.37 M928.744 1513.66 Q934.554 1513.66 937.61 1518.27 Q940.689 1522.85 940.689 1531.6 Q940.689 1540.33 937.61 1544.94 Q934.554 1549.52 928.744 1549.52 Q922.934 1549.52 919.855 1544.94 Q916.8 1540.33 916.8 1531.6 Q916.8 1522.85 919.855 1518.27 Q922.934 1513.66 928.744 1513.66 Z" fill="#000000" fill-rule="evenodd" fill-opacity="1" /><path clip-path="url(#clip500)" d="M949.716 1544.91 L957.355 1544.91 L957.355 1518.55 L949.045 1520.21 L949.045 1515.95 L957.309 1514.29 L961.985 1514.29 L961.985 1544.91 L969.624 1544.91 L969.624 1548.85 L949.716 1548.85 L949.716 1544.91 Z" fill="#000000" fill-rule="evenodd" fill-opacity="1" /><path clip-path="url(#clip500)" d="M1336.32 1544.91 L1352.64 1544.91 L1352.64 1548.85 L1330.7 1548.85 L1330.7 1544.91 Q1333.36 1542.16 1337.94 1537.53 Q1342.55 1532.88 1343.73 1531.53 Q1345.98 1529.01 1346.86 1527.27 Q1347.76 1525.51 1347.76 1523.82 Q1347.76 1521.07 1345.81 1519.33 Q1343.89 1517.6 1340.79 1517.6 Q1338.59 1517.6 1336.14 1518.36 Q1333.71 1519.13 1330.93 1520.68 L1330.93 1515.95 Q1333.75 1514.82 1336.21 1514.24 Q1338.66 1513.66 1340.7 1513.66 Q1346.07 1513.66 1349.26 1516.35 Q1352.46 1519.03 1352.46 1523.52 Q1352.46 1525.65 1351.65 1527.57 Q1350.86 1529.47 1348.75 1532.07 Q1348.18 1532.74 1345.07 1535.95 Q1341.97 1539.15 1336.32 1544.91 Z" fill="#000000" fill-rule="evenodd" fill-opacity="1" /><path clip-path="url(#clip500)" d="M1372.46 1517.37 Q1368.85 1517.37 1367.02 1520.93 Q1365.21 1524.47 1365.21 1531.6 Q1365.21 1538.71 1367.02 1542.27 Q1368.85 1545.82 1372.46 1545.82 Q1376.09 1545.82 1377.9 1542.27 Q1379.73 1538.71 1379.73 1531.6 Q1379.73 1524.47 1377.9 1520.93 Q1376.09 1517.37 1372.46 1517.37 M1372.46 1513.66 Q1378.27 1513.66 1381.32 1518.27 Q1384.4 1522.85 1384.4 1531.6 Q1384.4 1540.33 1381.32 1544.94 Q1378.27 1549.52 1372.46 1549.52 Q1366.65 1549.52 1363.57 1544.94 Q1360.51 1540.33 1360.51 1531.6 Q1360.51 1522.85 1363.57 1518.27 Q1366.65 1513.66 1372.46 1513.66 Z" fill="#000000" fill-rule="evenodd" fill-opacity="1" /><path clip-path="url(#clip500)" d="M1396.65 1544.91 L1412.97 1544.91 L1412.97 1548.85 L1391.02 1548.85 L1391.02 1544.91 Q1393.68 1542.16 1398.27 1537.53 Q1402.87 1532.88 1404.06 1531.53 Q1406.3 1529.01 1407.18 1527.27 Q1408.08 1525.51 1408.08 1523.82 Q1408.08 1521.07 1406.14 1519.33 Q1404.22 1517.6 1401.12 1517.6 Q1398.92 1517.6 1396.46 1518.36 Q1394.03 1519.13 1391.25 1520.68 L1391.25 1515.95 Q1394.08 1514.82 1396.53 1514.24 Q1398.99 1513.66 1401.02 1513.66 Q1406.39 1513.66 1409.59 1516.35 Q1412.78 1519.03 1412.78 1523.52 Q1412.78 1525.65 1411.97 1527.57 Q1411.18 1529.47 1409.08 1532.07 Q1408.5 1532.74 1405.4 1535.95 Q1402.3 1539.15 1396.65 1544.91 Z" fill="#000000" fill-rule="evenodd" fill-opacity="1" /><path clip-path="url(#clip500)" d="M1423.59 1544.91 L1431.23 1544.91 L1431.23 1518.55 L1422.92 1520.21 L1422.92 1515.95 L1431.18 1514.29 L1435.86 1514.29 L1435.86 1544.91 L1443.5 1544.91 L1443.5 1548.85 L1423.59 1548.85 L1423.59 1544.91 Z" fill="#000000" fill-rule="evenodd" fill-opacity="1" /><path clip-path="url(#clip500)" d="M1450.19 1533.96 L1462.67 1533.96 L1462.67 1537.76 L1450.19 1537.76 L1450.19 1533.96 Z" fill="#000000" fill-rule="evenodd" fill-opacity="1" /><path clip-path="url(#clip500)" d="M1480.05 1517.37 Q1476.44 1517.37 1474.61 1520.93 Q1472.8 1524.47 1472.8 1531.6 Q1472.8 1538.71 1474.61 1542.27 Q1476.44 1545.82 1480.05 1545.82 Q1483.68 1545.82 1485.49 1542.27 Q1487.32 1538.71 1487.32 1531.6 Q1487.32 1524.47 1485.49 1520.93 Q1483.68 1517.37 1480.05 1517.37 M1480.05 1513.66 Q1485.86 1513.66 1488.92 1518.27 Q1491.99 1522.85 1491.99 1531.6 Q1491.99 1540.33 1488.92 1544.94 Q1485.86 1549.52 1480.05 1549.52 Q1474.24 1549.52 1471.16 1544.94 Q1468.11 1540.33 1468.11 1531.6 Q1468.11 1522.85 1471.16 1518.27 Q1474.24 1513.66 1480.05 1513.66 Z" fill="#000000" fill-rule="evenodd" fill-opacity="1" /><path clip-path="url(#clip500)" d="M1500.35 1548.13 L1500.35 1543.87 Q1502.11 1544.7 1503.92 1545.14 Q1505.72 1545.58 1507.46 1545.58 Q1512.09 1545.58 1514.52 1542.48 Q1516.97 1539.36 1517.32 1533.01 Q1515.98 1535.01 1513.92 1536.07 Q1511.86 1537.13 1509.36 1537.13 Q1504.17 1537.13 1501.14 1534.01 Q1498.13 1530.86 1498.13 1525.42 Q1498.13 1520.1 1501.28 1516.88 Q1504.43 1513.66 1509.66 1513.66 Q1515.65 1513.66 1518.8 1518.27 Q1521.97 1522.85 1521.97 1531.6 Q1521.97 1539.77 1518.08 1544.66 Q1514.22 1549.52 1507.67 1549.52 Q1505.91 1549.52 1504.1 1549.17 Q1502.3 1548.82 1500.35 1548.13 M1509.66 1533.48 Q1512.8 1533.48 1514.63 1531.32 Q1516.49 1529.17 1516.49 1525.42 Q1516.49 1521.7 1514.63 1519.54 Q1512.8 1517.37 1509.66 1517.37 Q1506.51 1517.37 1504.66 1519.54 Q1502.83 1521.7 1502.83 1525.42 Q1502.83 1529.17 1504.66 1531.32 Q1506.51 1533.48 1509.66 1533.48 Z" fill="#000000" fill-rule="evenodd" fill-opacity="1" /><path clip-path="url(#clip500)" d="M1527.62 1533.96 L1540.1 1533.96 L1540.1 1537.76 L1527.62 1537.76 L1527.62 1533.96 Z" fill="#000000" fill-rule="evenodd" fill-opacity="1" /><path clip-path="url(#clip500)" d="M1557.48 1517.37 Q1553.87 1517.37 1552.04 1520.93 Q1550.24 1524.47 1550.24 1531.6 Q1550.24 1538.71 1552.04 1542.27 Q1553.87 1545.82 1557.48 1545.82 Q1561.11 1545.82 1562.92 1542.27 Q1564.75 1538.71 1564.75 1531.6 Q1564.75 1524.47 1562.92 1520.93 Q1561.11 1517.37 1557.48 1517.37 M1557.48 1513.66 Q1563.29 1513.66 1566.35 1518.27 Q1569.42 1522.85 1569.42 1531.6 Q1569.42 1540.33 1566.35 1544.94 Q1563.29 1549.52 1557.48 1549.52 Q1551.67 1549.52 1548.59 1544.94 Q1545.54 1540.33 1545.54 1531.6 Q1545.54 1522.85 1548.59 1518.27 Q1551.67 1513.66 1557.48 1513.66 Z" fill="#000000" fill-rule="evenodd" fill-opacity="1" /><path clip-path="url(#clip500)" d="M1578.45 1544.91 L1586.09 1544.91 L1586.09 1518.55 L1577.78 1520.21 L1577.78 1515.95 L1586.05 1514.29 L1590.72 1514.29 L1590.72 1544.91 L1598.36 1544.91 L1598.36 1548.85 L1578.45 1548.85 L1578.45 1544.91 Z" fill="#000000" fill-rule="evenodd" fill-opacity="1" /><path clip-path="url(#clip500)" d="M1958.23 1544.91 L1974.55 1544.91 L1974.55 1548.85 L1952.6 1548.85 L1952.6 1544.91 Q1955.26 1542.16 1959.85 1537.53 Q1964.45 1532.88 1965.63 1531.53 Q1967.88 1529.01 1968.76 1527.27 Q1969.66 1525.51 1969.66 1523.82 Q1969.66 1521.07 1967.72 1519.33 Q1965.8 1517.6 1962.69 1517.6 Q1960.49 1517.6 1958.04 1518.36 Q1955.61 1519.13 1952.83 1520.68 L1952.83 1515.95 Q1955.66 1514.82 1958.11 1514.24 Q1960.56 1513.66 1962.6 1513.66 Q1967.97 1513.66 1971.17 1516.35 Q1974.36 1519.03 1974.36 1523.52 Q1974.36 1525.65 1973.55 1527.57 Q1972.76 1529.47 1970.66 1532.07 Q1970.08 1532.74 1966.98 1535.95 Q1963.87 1539.15 1958.23 1544.91 Z" fill="#000000" fill-rule="evenodd" fill-opacity="1" /><path clip-path="url(#clip500)" d="M1994.36 1517.37 Q1990.75 1517.37 1988.92 1520.93 Q1987.11 1524.47 1987.11 1531.6 Q1987.11 1538.71 1988.92 1542.27 Q1990.75 1545.82 1994.36 1545.82 Q1997.99 1545.82 1999.8 1542.27 Q2001.63 1538.71 2001.63 1531.6 Q2001.63 1524.47 1999.8 1520.93 Q1997.99 1517.37 1994.36 1517.37 M1994.36 1513.66 Q2000.17 1513.66 2003.23 1518.27 Q2006.3 1522.85 2006.3 1531.6 Q2006.3 1540.33 2003.23 1544.94 Q2000.17 1549.52 1994.36 1549.52 Q1988.55 1549.52 1985.47 1544.94 Q1982.42 1540.33 1982.42 1531.6 Q1982.42 1522.85 1985.47 1518.27 Q1988.55 1513.66 1994.36 1513.66 Z" fill="#000000" fill-rule="evenodd" fill-opacity="1" /><path clip-path="url(#clip500)" d="M2018.55 1544.91 L2034.87 1544.91 L2034.87 1548.85 L2012.92 1548.85 L2012.92 1544.91 Q2015.59 1542.16 2020.17 1537.53 Q2024.78 1532.88 2025.96 1531.53 Q2028.2 1529.01 2029.08 1527.27 Q2029.99 1525.51 2029.99 1523.82 Q2029.99 1521.07 2028.04 1519.33 Q2026.12 1517.6 2023.02 1517.6 Q2020.82 1517.6 2018.36 1518.36 Q2015.93 1519.13 2013.16 1520.68 L2013.16 1515.95 Q2015.98 1514.82 2018.43 1514.24 Q2020.89 1513.66 2022.92 1513.66 Q2028.3 1513.66 2031.49 1516.35 Q2034.68 1519.03 2034.68 1523.52 Q2034.68 1525.65 2033.87 1527.57 Q2033.09 1529.47 2030.98 1532.07 Q2030.4 1532.74 2027.3 1535.95 Q2024.2 1539.15 2018.55 1544.91 Z" fill="#000000" fill-rule="evenodd" fill-opacity="1" /><path clip-path="url(#clip500)" d="M2045.49 1544.91 L2053.13 1544.91 L2053.13 1518.55 L2044.82 1520.21 L2044.82 1515.95 L2053.09 1514.29 L2057.76 1514.29 L2057.76 1544.91 L2065.4 1544.91 L2065.4 1548.85 L2045.49 1548.85 L2045.49 1544.91 Z" fill="#000000" fill-rule="evenodd" fill-opacity="1" /><path clip-path="url(#clip500)" d="M2072.09 1533.96 L2084.57 1533.96 L2084.57 1537.76 L2072.09 1537.76 L2072.09 1533.96 Z" fill="#000000" fill-rule="evenodd" fill-opacity="1" /><path clip-path="url(#clip500)" d="M2092.76 1544.91 L2100.4 1544.91 L2100.4 1518.55 L2092.09 1520.21 L2092.09 1515.95 L2100.36 1514.29 L2105.03 1514.29 L2105.03 1544.91 L2112.67 1544.91 L2112.67 1548.85 L2092.76 1548.85 L2092.76 1544.91 Z" fill="#000000" fill-rule="evenodd" fill-opacity="1" /><path clip-path="url(#clip500)" d="M2126.14 1544.91 L2142.46 1544.91 L2142.46 1548.85 L2120.52 1548.85 L2120.52 1544.91 Q2123.18 1542.16 2127.76 1537.53 Q2132.37 1532.88 2133.55 1531.53 Q2135.79 1529.01 2136.67 1527.27 Q2137.58 1525.51 2137.58 1523.82 Q2137.58 1521.07 2135.63 1519.33 Q2133.71 1517.6 2130.61 1517.6 Q2128.41 1517.6 2125.96 1518.36 Q2123.53 1519.13 2120.75 1520.68 L2120.75 1515.95 Q2123.57 1514.82 2126.03 1514.24 Q2128.48 1513.66 2130.52 1513.66 Q2135.89 1513.66 2139.08 1516.35 Q2142.28 1519.03 2142.28 1523.52 Q2142.28 1525.65 2141.47 1527.57 Q2140.68 1529.47 2138.57 1532.07 Q2137.99 1532.74 2134.89 1535.95 Q2131.79 1539.15 2126.14 1544.91 Z" fill="#000000" fill-rule="evenodd" fill-opacity="1" /><path clip-path="url(#clip500)" d="M2149.52 1533.96 L2162 1533.96 L2162 1537.76 L2149.52 1537.76 L2149.52 1533.96 Z" fill="#000000" fill-rule="evenodd" fill-opacity="1" /><path clip-path="url(#clip500)" d="M2179.38 1517.37 Q2175.77 1517.37 2173.94 1520.93 Q2172.14 1524.47 2172.14 1531.6 Q2172.14 1538.71 2173.94 1542.27 Q2175.77 1545.82 2179.38 1545.82 Q2183.02 1545.82 2184.82 1542.27 Q2186.65 1538.71 2186.65 1531.6 Q2186.65 1524.47 2184.82 1520.93 Q2183.02 1517.37 2179.38 1517.37 M2179.38 1513.66 Q2185.19 1513.66 2188.25 1518.27 Q2191.33 1522.85 2191.33 1531.6 Q2191.33 1540.33 2188.25 1544.94 Q2185.19 1549.52 2179.38 1549.52 Q2173.57 1549.52 2170.49 1544.94 Q2167.44 1540.33 2167.44 1531.6 Q2167.44 1522.85 2170.49 1518.27 Q2173.57 1513.66 2179.38 1513.66 Z" fill="#000000" fill-rule="evenodd" fill-opacity="1" /><path clip-path="url(#clip500)" d="M2200.35 1544.91 L2207.99 1544.91 L2207.99 1518.55 L2199.68 1520.21 L2199.68 1515.95 L2207.95 1514.29 L2212.62 1514.29 L2212.62 1544.91 L2220.26 1544.91 L2220.26 1548.85 L2200.35 1548.85 L2200.35 1544.91 Z" fill="#000000" fill-rule="evenodd" fill-opacity="1" /><polyline clip-path="url(#clip502)" style="stroke:#000000; stroke-linecap:butt; stroke-linejoin:round; stroke-width:2; stroke-opacity:0.1; fill:none" points="
  186.76,1447.87 2352.76,1447.87 
  "/>
<polyline clip-path="url(#clip502)" style="stroke:#000000; stroke-linecap:butt; stroke-linejoin:round; stroke-width:2; stroke-opacity:0.1; fill:none" points="
  186.76,1245.69 2352.76,1245.69 
  "/>
<polyline clip-path="url(#clip502)" style="stroke:#000000; stroke-linecap:butt; stroke-linejoin:round; stroke-width:2; stroke-opacity:0.1; fill:none" points="
  186.76,1043.5 2352.76,1043.5 
  "/>
<polyline clip-path="url(#clip502)" style="stroke:#000000; stroke-linecap:butt; stroke-linejoin:round; stroke-width:2; stroke-opacity:0.1; fill:none" points="
  186.76,841.318 2352.76,841.318 
  "/>
<polyline clip-path="url(#clip502)" style="stroke:#000000; stroke-linecap:butt; stroke-linejoin:round; stroke-width:2; stroke-opacity:0.1; fill:none" points="
  186.76,639.132 2352.76,639.132 
  "/>
<polyline clip-path="url(#clip502)" style="stroke:#000000; stroke-linecap:butt; stroke-linejoin:round; stroke-width:2; stroke-opacity:0.1; fill:none" points="
  186.76,436.947 2352.76,436.947 
  "/>
<polyline clip-path="url(#clip502)" style="stroke:#000000; stroke-linecap:butt; stroke-linejoin:round; stroke-width:2; stroke-opacity:0.1; fill:none" points="
  186.76,234.762 2352.76,234.762 
  "/>
<polyline clip-path="url(#clip500)" style="stroke:#000000; stroke-linecap:butt; stroke-linejoin:round; stroke-width:4; stroke-opacity:1; fill:none" points="
  186.76,1486.45 186.76,123.472 
  "/>
<polyline clip-path="url(#clip500)" style="stroke:#000000; stroke-linecap:butt; stroke-linejoin:round; stroke-width:4; stroke-opacity:1; fill:none" points="
  186.76,1447.87 205.658,1447.87 
  "/>
<polyline clip-path="url(#clip500)" style="stroke:#000000; stroke-linecap:butt; stroke-linejoin:round; stroke-width:4; stroke-opacity:1; fill:none" points="
  186.76,1245.69 205.658,1245.69 
  "/>
<polyline clip-path="url(#clip500)" style="stroke:#000000; stroke-linecap:butt; stroke-linejoin:round; stroke-width:4; stroke-opacity:1; fill:none" points="
  186.76,1043.5 205.658,1043.5 
  "/>
<polyline clip-path="url(#clip500)" style="stroke:#000000; stroke-linecap:butt; stroke-linejoin:round; stroke-width:4; stroke-opacity:1; fill:none" points="
  186.76,841.318 205.658,841.318 
  "/>
<polyline clip-path="url(#clip500)" style="stroke:#000000; stroke-linecap:butt; stroke-linejoin:round; stroke-width:4; stroke-opacity:1; fill:none" points="
  186.76,639.132 205.658,639.132 
  "/>
<polyline clip-path="url(#clip500)" style="stroke:#000000; stroke-linecap:butt; stroke-linejoin:round; stroke-width:4; stroke-opacity:1; fill:none" points="
  186.76,436.947 205.658,436.947 
  "/>
<polyline clip-path="url(#clip500)" style="stroke:#000000; stroke-linecap:butt; stroke-linejoin:round; stroke-width:4; stroke-opacity:1; fill:none" points="
  186.76,234.762 205.658,234.762 
  "/>
<path clip-path="url(#clip500)" d="M63.4226 1433.67 Q59.8115 1433.67 57.9828 1437.24 Q56.1773 1440.78 56.1773 1447.91 Q56.1773 1455.01 57.9828 1458.58 Q59.8115 1462.12 63.4226 1462.12 Q67.0569 1462.12 68.8624 1458.58 Q70.6911 1455.01 70.6911 1447.91 Q70.6911 1440.78 68.8624 1437.24 Q67.0569 1433.67 63.4226 1433.67 M63.4226 1429.97 Q69.2328 1429.97 72.2883 1434.57 Q75.367 1439.16 75.367 1447.91 Q75.367 1456.63 72.2883 1461.24 Q69.2328 1465.82 63.4226 1465.82 Q57.6125 1465.82 54.5338 1461.24 Q51.4782 1456.63 51.4782 1447.91 Q51.4782 1439.16 54.5338 1434.57 Q57.6125 1429.97 63.4226 1429.97 Z" fill="#000000" fill-rule="evenodd" fill-opacity="1" /><path clip-path="url(#clip500)" d="M83.5845 1459.27 L88.4688 1459.27 L88.4688 1465.15 L83.5845 1465.15 L83.5845 1459.27 Z" fill="#000000" fill-rule="evenodd" fill-opacity="1" /><path clip-path="url(#clip500)" d="M108.654 1433.67 Q105.043 1433.67 103.214 1437.24 Q101.409 1440.78 101.409 1447.91 Q101.409 1455.01 103.214 1458.58 Q105.043 1462.12 108.654 1462.12 Q112.288 1462.12 114.094 1458.58 Q115.922 1455.01 115.922 1447.91 Q115.922 1440.78 114.094 1437.24 Q112.288 1433.67 108.654 1433.67 M108.654 1429.97 Q114.464 1429.97 117.52 1434.57 Q120.598 1439.16 120.598 1447.91 Q120.598 1456.63 117.52 1461.24 Q114.464 1465.82 108.654 1465.82 Q102.844 1465.82 99.765 1461.24 Q96.7095 1456.63 96.7095 1447.91 Q96.7095 1439.16 99.765 1434.57 Q102.844 1429.97 108.654 1429.97 Z" fill="#000000" fill-rule="evenodd" fill-opacity="1" /><path clip-path="url(#clip500)" d="M138.816 1433.67 Q135.205 1433.67 133.376 1437.24 Q131.57 1440.78 131.57 1447.91 Q131.57 1455.01 133.376 1458.58 Q135.205 1462.12 138.816 1462.12 Q142.45 1462.12 144.256 1458.58 Q146.084 1455.01 146.084 1447.91 Q146.084 1440.78 144.256 1437.24 Q142.45 1433.67 138.816 1433.67 M138.816 1429.97 Q144.626 1429.97 147.681 1434.57 Q150.76 1439.16 150.76 1447.91 Q150.76 1456.63 147.681 1461.24 Q144.626 1465.82 138.816 1465.82 Q133.006 1465.82 129.927 1461.24 Q126.871 1456.63 126.871 1447.91 Q126.871 1439.16 129.927 1434.57 Q133.006 1429.97 138.816 1429.97 Z" fill="#000000" fill-rule="evenodd" fill-opacity="1" /><path clip-path="url(#clip500)" d="M64.6495 1231.49 Q61.0384 1231.49 59.2097 1235.05 Q57.4041 1238.59 57.4041 1245.72 Q57.4041 1252.83 59.2097 1256.39 Q61.0384 1259.94 64.6495 1259.94 Q68.2837 1259.94 70.0892 1256.39 Q71.9179 1252.83 71.9179 1245.72 Q71.9179 1238.59 70.0892 1235.05 Q68.2837 1231.49 64.6495 1231.49 M64.6495 1227.78 Q70.4596 1227.78 73.5152 1232.39 Q76.5938 1236.97 76.5938 1245.72 Q76.5938 1254.45 73.5152 1259.06 Q70.4596 1263.64 64.6495 1263.64 Q58.8393 1263.64 55.7606 1259.06 Q52.7051 1254.45 52.7051 1245.72 Q52.7051 1236.97 55.7606 1232.39 Q58.8393 1227.78 64.6495 1227.78 Z" fill="#000000" fill-rule="evenodd" fill-opacity="1" /><path clip-path="url(#clip500)" d="M84.8114 1257.09 L89.6956 1257.09 L89.6956 1262.97 L84.8114 1262.97 L84.8114 1257.09 Z" fill="#000000" fill-rule="evenodd" fill-opacity="1" /><path clip-path="url(#clip500)" d="M109.881 1231.49 Q106.27 1231.49 104.441 1235.05 Q102.635 1238.59 102.635 1245.72 Q102.635 1252.83 104.441 1256.39 Q106.27 1259.94 109.881 1259.94 Q113.515 1259.94 115.32 1256.39 Q117.149 1252.83 117.149 1245.72 Q117.149 1238.59 115.32 1235.05 Q113.515 1231.49 109.881 1231.49 M109.881 1227.78 Q115.691 1227.78 118.746 1232.39 Q121.825 1236.97 121.825 1245.72 Q121.825 1254.45 118.746 1259.06 Q115.691 1263.64 109.881 1263.64 Q104.071 1263.64 100.992 1259.06 Q97.9363 1254.45 97.9363 1245.72 Q97.9363 1236.97 100.992 1232.39 Q104.071 1227.78 109.881 1227.78 Z" fill="#000000" fill-rule="evenodd" fill-opacity="1" /><path clip-path="url(#clip500)" d="M130.853 1259.03 L138.492 1259.03 L138.492 1232.67 L130.182 1234.33 L130.182 1230.07 L138.445 1228.41 L143.121 1228.41 L143.121 1259.03 L150.76 1259.03 L150.76 1262.97 L130.853 1262.97 L130.853 1259.03 Z" fill="#000000" fill-rule="evenodd" fill-opacity="1" /><path clip-path="url(#clip500)" d="M65.0198 1029.3 Q61.4087 1029.3 59.58 1032.87 Q57.7745 1036.41 57.7745 1043.54 Q57.7745 1050.64 59.58 1054.21 Q61.4087 1057.75 65.0198 1057.75 Q68.6541 1057.75 70.4596 1054.21 Q72.2883 1050.64 72.2883 1043.54 Q72.2883 1036.41 70.4596 1032.87 Q68.6541 1029.3 65.0198 1029.3 M65.0198 1025.6 Q70.83 1025.6 73.8855 1030.2 Q76.9642 1034.79 76.9642 1043.54 Q76.9642 1052.26 73.8855 1056.87 Q70.83 1061.45 65.0198 1061.45 Q59.2097 1061.45 56.131 1056.87 Q53.0754 1052.26 53.0754 1043.54 Q53.0754 1034.79 56.131 1030.2 Q59.2097 1025.6 65.0198 1025.6 Z" fill="#000000" fill-rule="evenodd" fill-opacity="1" /><path clip-path="url(#clip500)" d="M85.1818 1054.9 L90.066 1054.9 L90.066 1060.78 L85.1818 1060.78 L85.1818 1054.9 Z" fill="#000000" fill-rule="evenodd" fill-opacity="1" /><path clip-path="url(#clip500)" d="M110.251 1029.3 Q106.64 1029.3 104.811 1032.87 Q103.006 1036.41 103.006 1043.54 Q103.006 1050.64 104.811 1054.21 Q106.64 1057.75 110.251 1057.75 Q113.885 1057.75 115.691 1054.21 Q117.52 1050.64 117.52 1043.54 Q117.52 1036.41 115.691 1032.87 Q113.885 1029.3 110.251 1029.3 M110.251 1025.6 Q116.061 1025.6 119.117 1030.2 Q122.195 1034.79 122.195 1043.54 Q122.195 1052.26 119.117 1056.87 Q116.061 1061.45 110.251 1061.45 Q104.441 1061.45 101.362 1056.87 Q98.3067 1052.26 98.3067 1043.54 Q98.3067 1034.79 101.362 1030.2 Q104.441 1025.6 110.251 1025.6 Z" fill="#000000" fill-rule="evenodd" fill-opacity="1" /><path clip-path="url(#clip500)" d="M134.441 1056.85 L150.76 1056.85 L150.76 1060.78 L128.816 1060.78 L128.816 1056.85 Q131.478 1054.09 136.061 1049.46 Q140.668 1044.81 141.848 1043.47 Q144.093 1040.94 144.973 1039.21 Q145.876 1037.45 145.876 1035.76 Q145.876 1033.01 143.931 1031.27 Q142.01 1029.53 138.908 1029.53 Q136.709 1029.53 134.256 1030.3 Q131.825 1031.06 129.047 1032.61 L129.047 1027.89 Q131.871 1026.76 134.325 1026.18 Q136.779 1025.6 138.816 1025.6 Q144.186 1025.6 147.38 1028.28 Q150.575 1030.97 150.575 1035.46 Q150.575 1037.59 149.765 1039.51 Q148.978 1041.41 146.871 1044 Q146.293 1044.67 143.191 1047.89 Q140.089 1051.08 134.441 1056.85 Z" fill="#000000" fill-rule="evenodd" fill-opacity="1" /><path clip-path="url(#clip500)" d="M64.0708 827.116 Q60.4597 827.116 58.631 830.681 Q56.8254 834.223 56.8254 841.352 Q56.8254 848.459 58.631 852.024 Q60.4597 855.565 64.0708 855.565 Q67.705 855.565 69.5105 852.024 Q71.3392 848.459 71.3392 841.352 Q71.3392 834.223 69.5105 830.681 Q67.705 827.116 64.0708 827.116 M64.0708 823.413 Q69.8809 823.413 72.9365 828.019 Q76.0151 832.602 76.0151 841.352 Q76.0151 850.079 72.9365 854.686 Q69.8809 859.269 64.0708 859.269 Q58.2606 859.269 55.1819 854.686 Q52.1264 850.079 52.1264 841.352 Q52.1264 832.602 55.1819 828.019 Q58.2606 823.413 64.0708 823.413 Z" fill="#000000" fill-rule="evenodd" fill-opacity="1" /><path clip-path="url(#clip500)" d="M84.2327 852.718 L89.1169 852.718 L89.1169 858.598 L84.2327 858.598 L84.2327 852.718 Z" fill="#000000" fill-rule="evenodd" fill-opacity="1" /><path clip-path="url(#clip500)" d="M109.302 827.116 Q105.691 827.116 103.862 830.681 Q102.057 834.223 102.057 841.352 Q102.057 848.459 103.862 852.024 Q105.691 855.565 109.302 855.565 Q112.936 855.565 114.742 852.024 Q116.57 848.459 116.57 841.352 Q116.57 834.223 114.742 830.681 Q112.936 827.116 109.302 827.116 M109.302 823.413 Q115.112 823.413 118.168 828.019 Q121.246 832.602 121.246 841.352 Q121.246 850.079 118.168 854.686 Q115.112 859.269 109.302 859.269 Q103.492 859.269 100.413 854.686 Q97.3576 850.079 97.3576 841.352 Q97.3576 832.602 100.413 828.019 Q103.492 823.413 109.302 823.413 Z" fill="#000000" fill-rule="evenodd" fill-opacity="1" /><path clip-path="url(#clip500)" d="M143.631 839.963 Q146.987 840.681 148.862 842.95 Q150.76 845.218 150.76 848.551 Q150.76 853.667 147.242 856.468 Q143.723 859.269 137.242 859.269 Q135.066 859.269 132.751 858.829 Q130.459 858.412 128.006 857.556 L128.006 853.042 Q129.95 854.176 132.265 854.755 Q134.58 855.334 137.103 855.334 Q141.501 855.334 143.793 853.598 Q146.107 851.862 146.107 848.551 Q146.107 845.496 143.955 843.783 Q141.825 842.047 138.006 842.047 L133.978 842.047 L133.978 838.204 L138.191 838.204 Q141.64 838.204 143.468 836.838 Q145.297 835.45 145.297 832.857 Q145.297 830.195 143.399 828.783 Q141.524 827.348 138.006 827.348 Q136.084 827.348 133.885 827.764 Q131.686 828.181 129.047 829.061 L129.047 824.894 Q131.709 824.153 134.024 823.783 Q136.362 823.413 138.422 823.413 Q143.746 823.413 146.848 825.843 Q149.95 828.251 149.95 832.371 Q149.95 835.241 148.306 837.232 Q146.663 839.2 143.631 839.963 Z" fill="#000000" fill-rule="evenodd" fill-opacity="1" /><path clip-path="url(#clip500)" d="M62.9365 624.931 Q59.3254 624.931 57.4967 628.496 Q55.6912 632.038 55.6912 639.167 Q55.6912 646.274 57.4967 649.838 Q59.3254 653.38 62.9365 653.38 Q66.5707 653.38 68.3763 649.838 Q70.205 646.274 70.205 639.167 Q70.205 632.038 68.3763 628.496 Q66.5707 624.931 62.9365 624.931 M62.9365 621.227 Q68.7467 621.227 71.8022 625.834 Q74.8809 630.417 74.8809 639.167 Q74.8809 647.894 71.8022 652.5 Q68.7467 657.084 62.9365 657.084 Q57.1264 657.084 54.0477 652.5 Q50.9921 647.894 50.9921 639.167 Q50.9921 630.417 54.0477 625.834 Q57.1264 621.227 62.9365 621.227 Z" fill="#000000" fill-rule="evenodd" fill-opacity="1" /><path clip-path="url(#clip500)" d="M83.0984 650.533 L87.9827 650.533 L87.9827 656.412 L83.0984 656.412 L83.0984 650.533 Z" fill="#000000" fill-rule="evenodd" fill-opacity="1" /><path clip-path="url(#clip500)" d="M108.168 624.931 Q104.557 624.931 102.728 628.496 Q100.922 632.038 100.922 639.167 Q100.922 646.274 102.728 649.838 Q104.557 653.38 108.168 653.38 Q111.802 653.38 113.608 649.838 Q115.436 646.274 115.436 639.167 Q115.436 632.038 113.608 628.496 Q111.802 624.931 108.168 624.931 M108.168 621.227 Q113.978 621.227 117.033 625.834 Q120.112 630.417 120.112 639.167 Q120.112 647.894 117.033 652.5 Q113.978 657.084 108.168 657.084 Q102.358 657.084 99.2789 652.5 Q96.2234 647.894 96.2234 639.167 Q96.2234 630.417 99.2789 625.834 Q102.358 621.227 108.168 621.227 Z" fill="#000000" fill-rule="evenodd" fill-opacity="1" /><path clip-path="url(#clip500)" d="M141.177 625.927 L129.371 644.376 L141.177 644.376 L141.177 625.927 M139.95 621.852 L145.83 621.852 L145.83 644.376 L150.76 644.376 L150.76 648.264 L145.83 648.264 L145.83 656.412 L141.177 656.412 L141.177 648.264 L125.575 648.264 L125.575 643.751 L139.95 621.852 Z" fill="#000000" fill-rule="evenodd" fill-opacity="1" /><path clip-path="url(#clip500)" d="M64.418 422.746 Q60.8069 422.746 58.9782 426.311 Q57.1726 429.852 57.1726 436.982 Q57.1726 444.089 58.9782 447.653 Q60.8069 451.195 64.418 451.195 Q68.0522 451.195 69.8578 447.653 Q71.6865 444.089 71.6865 436.982 Q71.6865 429.852 69.8578 426.311 Q68.0522 422.746 64.418 422.746 M64.418 419.042 Q70.2281 419.042 73.2837 423.649 Q76.3624 428.232 76.3624 436.982 Q76.3624 445.709 73.2837 450.315 Q70.2281 454.899 64.418 454.899 Q58.6078 454.899 55.5291 450.315 Q52.4736 445.709 52.4736 436.982 Q52.4736 428.232 55.5291 423.649 Q58.6078 419.042 64.418 419.042 Z" fill="#000000" fill-rule="evenodd" fill-opacity="1" /><path clip-path="url(#clip500)" d="M84.5799 448.348 L89.4641 448.348 L89.4641 454.227 L84.5799 454.227 L84.5799 448.348 Z" fill="#000000" fill-rule="evenodd" fill-opacity="1" /><path clip-path="url(#clip500)" d="M109.649 422.746 Q106.038 422.746 104.209 426.311 Q102.404 429.852 102.404 436.982 Q102.404 444.089 104.209 447.653 Q106.038 451.195 109.649 451.195 Q113.283 451.195 115.089 447.653 Q116.918 444.089 116.918 436.982 Q116.918 429.852 115.089 426.311 Q113.283 422.746 109.649 422.746 M109.649 419.042 Q115.459 419.042 118.515 423.649 Q121.594 428.232 121.594 436.982 Q121.594 445.709 118.515 450.315 Q115.459 454.899 109.649 454.899 Q103.839 454.899 100.76 450.315 Q97.7048 445.709 97.7048 436.982 Q97.7048 428.232 100.76 423.649 Q103.839 419.042 109.649 419.042 Z" fill="#000000" fill-rule="evenodd" fill-opacity="1" /><path clip-path="url(#clip500)" d="M129.857 419.667 L148.214 419.667 L148.214 423.603 L134.14 423.603 L134.14 432.075 Q135.158 431.727 136.177 431.565 Q137.195 431.38 138.214 431.38 Q144.001 431.38 147.38 434.552 Q150.76 437.723 150.76 443.139 Q150.76 448.718 147.288 451.82 Q143.816 454.899 137.496 454.899 Q135.32 454.899 133.052 454.528 Q130.807 454.158 128.399 453.417 L128.399 448.718 Q130.482 449.852 132.705 450.408 Q134.927 450.963 137.404 450.963 Q141.408 450.963 143.746 448.857 Q146.084 446.751 146.084 443.139 Q146.084 439.528 143.746 437.422 Q141.408 435.315 137.404 435.315 Q135.529 435.315 133.654 435.732 Q131.802 436.149 129.857 437.028 L129.857 419.667 Z" fill="#000000" fill-rule="evenodd" fill-opacity="1" /><path clip-path="url(#clip500)" d="M63.2606 220.561 Q59.6495 220.561 57.8208 224.126 Q56.0152 227.667 56.0152 234.797 Q56.0152 241.903 57.8208 245.468 Q59.6495 249.01 63.2606 249.01 Q66.8948 249.01 68.7004 245.468 Q70.5291 241.903 70.5291 234.797 Q70.5291 227.667 68.7004 224.126 Q66.8948 220.561 63.2606 220.561 M63.2606 216.857 Q69.0707 216.857 72.1263 221.464 Q75.205 226.047 75.205 234.797 Q75.205 243.524 72.1263 248.13 Q69.0707 252.713 63.2606 252.713 Q57.4504 252.713 54.3717 248.13 Q51.3162 243.524 51.3162 234.797 Q51.3162 226.047 54.3717 221.464 Q57.4504 216.857 63.2606 216.857 Z" fill="#000000" fill-rule="evenodd" fill-opacity="1" /><path clip-path="url(#clip500)" d="M83.4225 246.163 L88.3067 246.163 L88.3067 252.042 L83.4225 252.042 L83.4225 246.163 Z" fill="#000000" fill-rule="evenodd" fill-opacity="1" /><path clip-path="url(#clip500)" d="M108.492 220.561 Q104.881 220.561 103.052 224.126 Q101.246 227.667 101.246 234.797 Q101.246 241.903 103.052 245.468 Q104.881 249.01 108.492 249.01 Q112.126 249.01 113.932 245.468 Q115.76 241.903 115.76 234.797 Q115.76 227.667 113.932 224.126 Q112.126 220.561 108.492 220.561 M108.492 216.857 Q114.302 216.857 117.358 221.464 Q120.436 226.047 120.436 234.797 Q120.436 243.524 117.358 248.13 Q114.302 252.713 108.492 252.713 Q102.682 252.713 99.603 248.13 Q96.5474 243.524 96.5474 234.797 Q96.5474 226.047 99.603 221.464 Q102.682 216.857 108.492 216.857 Z" fill="#000000" fill-rule="evenodd" fill-opacity="1" /><path clip-path="url(#clip500)" d="M139.232 232.899 Q136.084 232.899 134.232 235.052 Q132.404 237.204 132.404 240.954 Q132.404 244.681 134.232 246.857 Q136.084 249.01 139.232 249.01 Q142.381 249.01 144.209 246.857 Q146.061 244.681 146.061 240.954 Q146.061 237.204 144.209 235.052 Q142.381 232.899 139.232 232.899 M148.515 218.246 L148.515 222.505 Q146.756 221.672 144.95 221.232 Q143.168 220.792 141.408 220.792 Q136.779 220.792 134.325 223.917 Q131.894 227.042 131.547 233.362 Q132.913 231.348 134.973 230.283 Q137.033 229.195 139.51 229.195 Q144.718 229.195 147.728 232.366 Q150.76 235.515 150.76 240.954 Q150.76 246.278 147.612 249.496 Q144.464 252.713 139.232 252.713 Q133.237 252.713 130.066 248.13 Q126.894 243.524 126.894 234.797 Q126.894 226.603 130.783 221.741 Q134.672 216.857 141.223 216.857 Q142.982 216.857 144.765 217.204 Q146.57 217.552 148.515 218.246 Z" fill="#000000" fill-rule="evenodd" fill-opacity="1" /><path clip-path="url(#clip500)" d="M194.943 43.6931 L194.943 65.8515 L208.068 65.8515 Q214.671 65.8515 217.831 63.1374 Q221.031 60.3828 221.031 54.752 Q221.031 49.0808 217.831 46.4072 Q214.671 43.6931 208.068 43.6931 L194.943 43.6931 M194.943 18.8205 L194.943 37.0496 L207.055 37.0496 Q213.05 37.0496 215.967 34.8216 Q218.924 32.5531 218.924 27.935 Q218.924 23.3575 215.967 21.089 Q213.05 18.8205 207.055 18.8205 L194.943 18.8205 M186.76 12.096 L207.663 12.096 Q217.02 12.096 222.084 15.9849 Q227.148 19.8737 227.148 27.0438 Q227.148 32.5936 224.555 35.8748 Q221.962 39.156 216.939 39.9662 Q222.975 41.2625 226.297 45.3944 Q229.659 49.4858 229.659 55.6432 Q229.659 63.745 224.15 68.1605 Q218.641 72.576 208.473 72.576 L186.76 72.576 L186.76 12.096 Z" fill="#000000" fill-rule="evenodd" fill-opacity="1" /><path clip-path="url(#clip500)" d="M243.351 27.2059 L250.805 27.2059 L250.805 72.576 L243.351 72.576 L243.351 27.2059 M243.351 9.54393 L250.805 9.54393 L250.805 18.9825 L243.351 18.9825 L243.351 9.54393 Z" fill="#000000" fill-rule="evenodd" fill-opacity="1" /><path clip-path="url(#clip500)" d="M273.774 14.324 L273.774 27.2059 L289.126 27.2059 L289.126 32.9987 L273.774 32.9987 L273.774 57.6282 Q273.774 63.1779 275.272 64.7578 Q276.812 66.3376 281.47 66.3376 L289.126 66.3376 L289.126 72.576 L281.47 72.576 Q272.842 72.576 269.561 69.3758 Q266.279 66.1351 266.279 57.6282 L266.279 32.9987 L260.811 32.9987 L260.811 27.2059 L266.279 27.2059 L266.279 14.324 L273.774 14.324 Z" fill="#000000" fill-rule="evenodd" fill-opacity="1" /><path clip-path="url(#clip500)" d="M331.58 28.9478 L331.58 35.9153 Q328.42 34.1734 325.22 33.3227 Q322.06 32.4315 318.82 32.4315 Q311.568 32.4315 307.558 37.0496 Q303.548 41.6271 303.548 49.9314 Q303.548 58.2358 307.558 62.8538 Q311.568 67.4314 318.82 67.4314 Q322.06 67.4314 325.22 66.5807 Q328.42 65.6895 331.58 63.9476 L331.58 70.8341 Q328.461 72.2924 325.098 73.0216 Q321.777 73.7508 318.009 73.7508 Q307.761 73.7508 301.725 67.3098 Q295.689 60.8689 295.689 49.9314 Q295.689 38.832 301.765 32.472 Q307.882 26.1121 318.496 26.1121 Q321.939 26.1121 325.22 26.8413 Q328.501 27.5299 331.58 28.9478 Z" fill="#000000" fill-rule="evenodd" fill-opacity="1" /><path clip-path="url(#clip500)" d="M362.124 32.4315 Q356.128 32.4315 352.645 37.1306 Q349.161 41.7891 349.161 49.9314 Q349.161 58.0738 352.604 62.7728 Q356.088 67.4314 362.124 67.4314 Q368.079 67.4314 371.562 62.7323 Q375.046 58.0333 375.046 49.9314 Q375.046 41.8701 371.562 37.1711 Q368.079 32.4315 362.124 32.4315 M362.124 26.1121 Q371.846 26.1121 377.396 32.4315 Q382.945 38.7509 382.945 49.9314 Q382.945 61.0714 377.396 67.4314 Q371.846 73.7508 362.124 73.7508 Q352.361 73.7508 346.811 67.4314 Q341.302 61.0714 341.302 49.9314 Q341.302 38.7509 346.811 32.4315 Q352.361 26.1121 362.124 26.1121 Z" fill="#000000" fill-rule="evenodd" fill-opacity="1" /><path clip-path="url(#clip500)" d="M395.301 27.2059 L402.754 27.2059 L402.754 72.576 L395.301 72.576 L395.301 27.2059 M395.301 9.54393 L402.754 9.54393 L402.754 18.9825 L395.301 18.9825 L395.301 9.54393 Z" fill="#000000" fill-rule="evenodd" fill-opacity="1" /><path clip-path="url(#clip500)" d="M456.064 45.1919 L456.064 72.576 L448.611 72.576 L448.611 45.4349 Q448.611 38.994 446.099 35.7938 Q443.587 32.5936 438.564 32.5936 Q432.528 32.5936 429.045 36.4419 Q425.561 40.2903 425.561 46.9338 L425.561 72.576 L418.067 72.576 L418.067 27.2059 L425.561 27.2059 L425.561 34.2544 Q428.235 30.163 431.84 28.1376 Q435.486 26.1121 440.225 26.1121 Q448.043 26.1121 452.054 30.9732 Q456.064 35.7938 456.064 45.1919 Z" fill="#000000" fill-rule="evenodd" fill-opacity="1" /><path clip-path="url(#clip500)" d="M513.222 72.576 L490.132 12.096 L498.68 12.096 L517.841 63.0159 L537.042 12.096 L545.549 12.096 L522.499 72.576 L513.222 72.576 Z" fill="#000000" fill-rule="evenodd" fill-opacity="1" /><path clip-path="url(#clip500)" d="M565.196 32.4315 Q559.2 32.4315 555.716 37.1306 Q552.233 41.7891 552.233 49.9314 Q552.233 58.0738 555.676 62.7728 Q559.16 67.4314 565.196 67.4314 Q571.15 67.4314 574.634 62.7323 Q578.118 58.0333 578.118 49.9314 Q578.118 41.8701 574.634 37.1711 Q571.15 32.4315 565.196 32.4315 M565.196 26.1121 Q574.918 26.1121 580.467 32.4315 Q586.017 38.7509 586.017 49.9314 Q586.017 61.0714 580.467 67.4314 Q574.918 73.7508 565.196 73.7508 Q555.433 73.7508 549.883 67.4314 Q544.374 61.0714 544.374 49.9314 Q544.374 38.7509 549.883 32.4315 Q555.433 26.1121 565.196 26.1121 Z" fill="#000000" fill-rule="evenodd" fill-opacity="1" /><path clip-path="url(#clip500)" d="M598.372 9.54393 L605.826 9.54393 L605.826 72.576 L598.372 72.576 L598.372 9.54393 Z" fill="#000000" fill-rule="evenodd" fill-opacity="1" /><path clip-path="url(#clip500)" d="M642.041 49.7694 Q633.008 49.7694 629.524 51.8354 Q626.04 53.9013 626.04 58.8839 Q626.04 62.8538 628.633 65.2034 Q631.266 67.5124 635.762 67.5124 Q641.96 67.5124 645.687 63.1374 Q649.454 58.7219 649.454 51.4303 L649.454 49.7694 L642.041 49.7694 M656.908 46.6907 L656.908 72.576 L649.454 72.576 L649.454 65.6895 Q646.902 69.8214 643.094 71.8063 Q639.287 73.7508 633.777 73.7508 Q626.81 73.7508 622.678 69.8619 Q618.586 65.9325 618.586 59.3701 Q618.586 51.7138 623.691 47.825 Q628.835 43.9361 639.003 43.9361 L649.454 43.9361 L649.454 43.2069 Q649.454 38.0623 646.052 35.2672 Q642.689 32.4315 636.573 32.4315 Q632.684 32.4315 628.997 33.3632 Q625.311 34.295 621.908 36.1584 L621.908 29.2718 Q626 27.692 629.848 26.9223 Q633.696 26.1121 637.342 26.1121 Q647.186 26.1121 652.047 31.2163 Q656.908 36.3204 656.908 46.6907 Z" fill="#000000" fill-rule="evenodd" fill-opacity="1" /><path clip-path="url(#clip500)" d="M679.634 14.324 L679.634 27.2059 L694.987 27.2059 L694.987 32.9987 L679.634 32.9987 L679.634 57.6282 Q679.634 63.1779 681.132 64.7578 Q682.672 66.3376 687.33 66.3376 L694.987 66.3376 L694.987 72.576 L687.33 72.576 Q678.702 72.576 675.421 69.3758 Q672.139 66.1351 672.139 57.6282 L672.139 32.9987 L666.671 32.9987 L666.671 27.2059 L672.139 27.2059 L672.139 14.324 L679.634 14.324 Z" fill="#000000" fill-rule="evenodd" fill-opacity="1" /><path clip-path="url(#clip500)" d="M704.79 27.2059 L712.243 27.2059 L712.243 72.576 L704.79 72.576 L704.79 27.2059 M704.79 9.54393 L712.243 9.54393 L712.243 18.9825 L704.79 18.9825 L704.79 9.54393 Z" fill="#000000" fill-rule="evenodd" fill-opacity="1" /><path clip-path="url(#clip500)" d="M727.839 9.54393 L735.293 9.54393 L735.293 72.576 L727.839 72.576 L727.839 9.54393 Z" fill="#000000" fill-rule="evenodd" fill-opacity="1" /><path clip-path="url(#clip500)" d="M750.889 27.2059 L758.343 27.2059 L758.343 72.576 L750.889 72.576 L750.889 27.2059 M750.889 9.54393 L758.343 9.54393 L758.343 18.9825 L750.889 18.9825 L750.889 9.54393 Z" fill="#000000" fill-rule="evenodd" fill-opacity="1" /><path clip-path="url(#clip500)" d="M781.311 14.324 L781.311 27.2059 L796.664 27.2059 L796.664 32.9987 L781.311 32.9987 L781.311 57.6282 Q781.311 63.1779 782.81 64.7578 Q784.35 66.3376 789.008 66.3376 L796.664 66.3376 L796.664 72.576 L789.008 72.576 Q780.38 72.576 777.098 69.3758 Q773.817 66.1351 773.817 57.6282 L773.817 32.9987 L768.348 32.9987 L768.348 27.2059 L773.817 27.2059 L773.817 14.324 L781.311 14.324 Z" fill="#000000" fill-rule="evenodd" fill-opacity="1" /><path clip-path="url(#clip500)" d="M825.345 76.7889 Q822.185 84.8907 819.187 87.3618 Q816.19 89.8329 811.166 89.8329 L805.212 89.8329 L805.212 83.5945 L809.587 83.5945 Q812.665 83.5945 814.367 82.1361 Q816.068 80.6778 818.134 75.2496 L819.471 71.8468 L801.12 27.2059 L809.02 27.2059 L823.198 62.6918 L837.376 27.2059 L845.275 27.2059 L825.345 76.7889 Z" fill="#000000" fill-rule="evenodd" fill-opacity="1" /><polyline clip-path="url(#clip502)" style="stroke:#009af9; stroke-linecap:butt; stroke-linejoin:round; stroke-width:8; stroke-opacity:1; fill:none" points="
  453.085,802.907 459.919,792.548 466.753,800.588 473.587,803.363 480.421,806.821 487.255,808.25 494.089,858.694 500.923,833.283 507.757,876.293 514.591,880.82 
  521.425,881.378 528.259,881.05 535.094,830.875 541.928,830.006 548.762,829.014 555.596,840.593 562.43,823.614 569.264,838.92 576.098,837.439 582.932,898.211 
  589.766,789.069 596.6,785.067 603.434,796.973 610.269,797.275 617.103,735.025 623.937,735.005 630.771,731.08 637.605,739.937 644.439,696.191 651.273,642.216 
  658.107,642.205 664.941,651.314 671.775,657.023 678.609,655.882 685.443,648.214 692.278,645.692 699.112,503.628 705.946,537.868 712.78,536.763 719.614,514.404 
  726.448,517.144 733.282,496.655 740.116,519.15 746.95,375.601 753.784,298.909 760.618,275.314 767.453,278.783 774.287,254.756 781.121,169.594 787.955,170.143 
  794.789,226.168 801.623,230.989 808.457,207.753 815.291,206.933 822.125,243.13 828.959,224.134 835.793,224.403 842.628,219.443 849.462,222.265 856.296,254.37 
  863.13,251.786 869.964,254.768 876.798,253.401 883.632,252.675 890.466,162.047 897.3,166.743 904.134,250.409 910.968,242.839 917.802,183.956 924.637,191.573 
  931.471,191.483 938.305,201.497 945.139,202.363 951.973,318.879 958.807,387.314 965.641,431.836 972.475,344.477 979.309,370.395 986.143,451.13 992.977,444.36 
  999.812,398.16 1006.65,393.957 1013.48,391.926 1020.31,397.5 1027.15,392.625 1033.98,402.736 1040.82,391.846 1047.65,395.896 1054.48,405.134 1061.32,427.072 
  1068.15,421.832 1074.99,420.356 1081.82,447.795 1088.65,441.684 1095.49,532.071 1102.32,533.76 1109.16,532.176 1115.99,540.765 1122.83,616.583 1129.66,633.061 
  1136.49,628.947 1143.33,641.553 1150.16,640.472 1157,666.578 1163.83,660.847 1170.66,653.835 1177.5,721.36 1184.33,729.249 1191.17,724.394 1198,728.821 
  1204.83,810.937 1211.67,790.855 1218.5,810.853 1225.34,811.145 1232.17,825.29 1239,808.195 1245.84,831.503 1252.67,807.443 1259.51,806.463 1266.34,799.921 
  1273.18,813.819 1280.01,808.914 1286.84,794.279 1293.68,800.134 1300.51,795.745 1307.35,778.112 1314.18,772.937 1321.01,792.908 1327.85,784.219 1334.68,744.588 
  1341.52,754.538 1348.35,760.417 1355.18,747.277 1362.02,732.204 1368.85,748.627 1375.69,762.302 1382.52,785.217 1389.35,780.167 1396.19,788.238 1403.02,787.971 
  1409.86,768.096 1416.69,782.484 1423.52,780.481 1430.36,764.306 1437.19,763.831 1444.03,786.897 1450.86,773.27 1457.7,794.635 1464.53,791.751 1471.36,803.337 
  1478.2,813.547 1485.03,817.96 1491.87,826.722 1498.7,838.839 1505.53,693.573 1512.37,717.304 1519.2,719.051 1526.04,707.98 1532.87,713.556 1539.7,764.932 
  1546.54,761.806 1553.37,738.458 1560.21,740.344 1567.04,747.787 1573.87,746.469 1580.71,761.781 1587.54,787.025 1594.38,703.977 1601.21,682.885 1608.05,635.995 
  1614.88,636.805 1621.71,628.371 1628.55,642.816 1635.38,663.159 1642.22,659.966 1649.05,655.638 1655.88,662.685 1662.72,634.104 1669.55,569.192 1676.39,569.182 
  1683.22,569.888 1690.05,566.157 1696.89,560.729 1703.72,523.34 1710.56,631.585 1717.39,636.086 1724.22,634.68 1731.06,647.635 1737.89,631.844 1744.73,623.368 
  1751.56,629.225 1758.4,642.635 1765.23,607.608 1772.06,605.983 1778.9,608.627 1785.73,609.961 1792.57,612.386 1799.4,712.054 1806.23,705.454 1813.07,721.364 
  1819.9,724.94 1826.74,754.783 1833.57,751.621 1840.4,719.943 1847.24,713.898 1854.07,723.422 1860.91,721.484 1867.74,734.89 1874.57,805.84 1881.41,807.362 
  1888.24,798.494 1895.08,798.011 1901.91,802.947 1908.75,853.117 1915.58,865.188 1922.41,858.613 1929.25,820.282 1936.08,819.005 1942.92,826.519 1949.75,836.794 
  1956.58,838.856 1963.42,839.035 1970.25,896.037 1977.09,886.854 1983.92,848.388 1990.75,849.099 1997.59,829.21 2004.42,832.515 2011.26,859.391 2018.09,862.453 
  2024.92,845.551 2031.76,838.597 2038.59,855.793 2045.43,864.023 2052.26,780.675 2059.1,791.916 2065.93,776.579 2072.76,775.319 2079.6,774.145 2086.43,773.891 
  2093.27,790.081 2100.1,766.025 2106.93,706.992 2113.77,705.6 2120.6,700.616 2127.44,711.747 2134.27,764.964 2141.1,739.995 2147.94,743.846 2154.77,713.586 
  2161.61,708.83 2168.44,676.894 2175.27,665.431 2182.11,665.285 2188.94,683.966 2195.78,680.527 2202.61,700.19 2209.45,707.612 2216.28,718.118 2223.11,696.889 
  2229.95,709.23 2236.78,693.095 2243.62,693.015 2250.45,705.067 2257.28,783.729 2264.12,788.278 2270.95,776.37 2277.79,776.294 2284.62,772.468 2291.45,768.156 
  
  "/>
</svg>
