<?xml version="1.0" encoding="utf-8"?>
<svg xmlns="http://www.w3.org/2000/svg" xmlns:xlink="http://www.w3.org/1999/xlink" width="600" height="400" viewBox="0 0 2400 1600">
<defs>
  <clipPath id="clip750">
    <rect x="0" y="0" width="2400" height="1600"/>
  </clipPath>
</defs>
<path clip-path="url(#clip750)" d="
M0 1600 L2400 1600 L2400 0 L0 0  Z
  " fill="#ffffff" fill-rule="evenodd" fill-opacity="1"/>
<defs>
  <clipPath id="clip751">
    <rect x="480" y="0" width="1681" height="1600"/>
  </clipPath>
</defs>
<path clip-path="url(#clip750)" d="
M249.542 1486.45 L2352.76 1486.45 L2352.76 47.2441 L249.542 47.2441  Z
  " fill="#ffffff" fill-rule="evenodd" fill-opacity="1"/>
<defs>
  <clipPath id="clip752">
    <rect x="249" y="47" width="2104" height="1440"/>
  </clipPath>
</defs>
<polyline clip-path="url(#clip752)" style="stroke:#000000; stroke-linecap:butt; stroke-linejoin:round; stroke-width:2; stroke-opacity:0.1; fill:none" points="
  309.067,1486.45 309.067,47.2441 
  "/>
<polyline clip-path="url(#clip752)" style="stroke:#000000; stroke-linecap:butt; stroke-linejoin:round; stroke-width:2; stroke-opacity:0.1; fill:none" points="
  651.656,1486.45 651.656,47.2441 
  "/>
<polyline clip-path="url(#clip752)" style="stroke:#000000; stroke-linecap:butt; stroke-linejoin:round; stroke-width:2; stroke-opacity:0.1; fill:none" points="
  994.246,1486.45 994.246,47.2441 
  "/>
<polyline clip-path="url(#clip752)" style="stroke:#000000; stroke-linecap:butt; stroke-linejoin:round; stroke-width:2; stroke-opacity:0.1; fill:none" points="
  1336.84,1486.45 1336.84,47.2441 
  "/>
<polyline clip-path="url(#clip752)" style="stroke:#000000; stroke-linecap:butt; stroke-linejoin:round; stroke-width:2; stroke-opacity:0.1; fill:none" points="
  1679.42,1486.45 1679.42,47.2441 
  "/>
<polyline clip-path="url(#clip752)" style="stroke:#000000; stroke-linecap:butt; stroke-linejoin:round; stroke-width:2; stroke-opacity:0.1; fill:none" points="
  2022.01,1486.45 2022.01,47.2441 
  "/>
<polyline clip-path="url(#clip750)" style="stroke:#000000; stroke-linecap:butt; stroke-linejoin:round; stroke-width:4; stroke-opacity:1; fill:none" points="
  249.542,1486.45 2352.76,1486.45 
  "/>
<polyline clip-path="url(#clip750)" style="stroke:#000000; stroke-linecap:butt; stroke-linejoin:round; stroke-width:4; stroke-opacity:1; fill:none" points="
  309.067,1486.45 309.067,1467.55 
  "/>
<polyline clip-path="url(#clip750)" style="stroke:#000000; stroke-linecap:butt; stroke-linejoin:round; stroke-width:4; stroke-opacity:1; fill:none" points="
  651.656,1486.45 651.656,1467.55 
  "/>
<polyline clip-path="url(#clip750)" style="stroke:#000000; stroke-linecap:butt; stroke-linejoin:round; stroke-width:4; stroke-opacity:1; fill:none" points="
  994.246,1486.45 994.246,1467.55 
  "/>
<polyline clip-path="url(#clip750)" style="stroke:#000000; stroke-linecap:butt; stroke-linejoin:round; stroke-width:4; stroke-opacity:1; fill:none" points="
  1336.84,1486.45 1336.84,1467.55 
  "/>
<polyline clip-path="url(#clip750)" style="stroke:#000000; stroke-linecap:butt; stroke-linejoin:round; stroke-width:4; stroke-opacity:1; fill:none" points="
  1679.42,1486.45 1679.42,1467.55 
  "/>
<polyline clip-path="url(#clip750)" style="stroke:#000000; stroke-linecap:butt; stroke-linejoin:round; stroke-width:4; stroke-opacity:1; fill:none" points="
  2022.01,1486.45 2022.01,1467.55 
  "/>
<path clip-path="url(#clip750)" d="M190.7 1514.29 L219.935 1514.29 L219.935 1518.22 L207.667 1518.22 L207.667 1548.85 L202.968 1548.85 L202.968 1518.22 L190.7 1518.22 L190.7 1514.29 Z" fill="#000000" fill-rule="evenodd" fill-opacity="1" /><path clip-path="url(#clip750)" d="M245.815 1533.2 L245.815 1548.85 L241.556 1548.85 L241.556 1533.34 Q241.556 1529.66 240.121 1527.83 Q238.685 1526 235.815 1526 Q232.366 1526 230.375 1528.2 Q228.385 1530.4 228.385 1534.2 L228.385 1548.85 L224.102 1548.85 L224.102 1512.83 L228.385 1512.83 L228.385 1526.95 Q229.912 1524.61 231.972 1523.45 Q234.056 1522.3 236.764 1522.3 Q241.232 1522.3 243.523 1525.07 Q245.815 1527.83 245.815 1533.2 Z" fill="#000000" fill-rule="evenodd" fill-opacity="1" /><path clip-path="url(#clip750)" d="M253.87 1538.62 L253.87 1522.92 L258.13 1522.92 L258.13 1538.45 Q258.13 1542.13 259.565 1543.99 Q261 1545.82 263.87 1545.82 Q267.319 1545.82 269.31 1543.62 Q271.324 1541.42 271.324 1537.62 L271.324 1522.92 L275.583 1522.92 L275.583 1548.85 L271.324 1548.85 L271.324 1544.87 Q269.773 1547.23 267.713 1548.38 Q265.676 1549.52 262.968 1549.52 Q258.5 1549.52 256.185 1546.74 Q253.87 1543.96 253.87 1538.62 M264.588 1522.3 L264.588 1522.3 Z" fill="#000000" fill-rule="evenodd" fill-opacity="1" /><path clip-path="url(#clip750)" d="M300.838 1544.91 L308.477 1544.91 L308.477 1518.55 L300.167 1520.21 L300.167 1515.95 L308.43 1514.29 L313.106 1514.29 L313.106 1544.91 L320.745 1544.91 L320.745 1548.85 L300.838 1548.85 L300.838 1544.91 Z" fill="#000000" fill-rule="evenodd" fill-opacity="1" /><path clip-path="url(#clip750)" d="M330.236 1514.29 L348.592 1514.29 L348.592 1518.22 L334.518 1518.22 L334.518 1526.7 Q335.537 1526.35 336.555 1526.19 Q337.574 1526 338.592 1526 Q344.379 1526 347.759 1529.17 Q351.138 1532.34 351.138 1537.76 Q351.138 1543.34 347.666 1546.44 Q344.194 1549.52 337.875 1549.52 Q335.699 1549.52 333.43 1549.15 Q331.185 1548.78 328.777 1548.04 L328.777 1543.34 Q330.861 1544.47 333.083 1545.03 Q335.305 1545.58 337.782 1545.58 Q341.787 1545.58 344.125 1543.48 Q346.463 1541.37 346.463 1537.76 Q346.463 1534.15 344.125 1532.04 Q341.787 1529.94 337.782 1529.94 Q335.907 1529.94 334.032 1530.35 Q332.18 1530.77 330.236 1531.65 L330.236 1514.29 Z" fill="#000000" fill-rule="evenodd" fill-opacity="1" /><path clip-path="url(#clip750)" d="M360.838 1542.97 L365.722 1542.97 L365.722 1548.85 L360.838 1548.85 L360.838 1542.97 M360.838 1524.33 L365.722 1524.33 L365.722 1530.21 L360.838 1530.21 L360.838 1524.33 Z" fill="#000000" fill-rule="evenodd" fill-opacity="1" /><path clip-path="url(#clip750)" d="M377.134 1544.91 L384.773 1544.91 L384.773 1518.55 L376.462 1520.21 L376.462 1515.95 L384.726 1514.29 L389.402 1514.29 L389.402 1544.91 L397.041 1544.91 L397.041 1548.85 L377.134 1548.85 L377.134 1544.91 Z" fill="#000000" fill-rule="evenodd" fill-opacity="1" /><path clip-path="url(#clip750)" d="M406.532 1514.29 L424.888 1514.29 L424.888 1518.22 L410.814 1518.22 L410.814 1526.7 Q411.833 1526.35 412.851 1526.19 Q413.87 1526 414.888 1526 Q420.675 1526 424.055 1529.17 Q427.434 1532.34 427.434 1537.76 Q427.434 1543.34 423.962 1546.44 Q420.49 1549.52 414.171 1549.52 Q411.995 1549.52 409.726 1549.15 Q407.481 1548.78 405.073 1548.04 L405.073 1543.34 Q407.157 1544.47 409.379 1545.03 Q411.601 1545.58 414.078 1545.58 Q418.083 1545.58 420.421 1543.48 Q422.758 1541.37 422.758 1537.76 Q422.758 1534.15 420.421 1532.04 Q418.083 1529.94 414.078 1529.94 Q412.203 1529.94 410.328 1530.35 Q408.476 1530.77 406.532 1531.65 L406.532 1514.29 Z" fill="#000000" fill-rule="evenodd" fill-opacity="1" /><path clip-path="url(#clip750)" d="M533.289 1514.29 L562.525 1514.29 L562.525 1518.22 L550.257 1518.22 L550.257 1548.85 L545.557 1548.85 L545.557 1518.22 L533.289 1518.22 L533.289 1514.29 Z" fill="#000000" fill-rule="evenodd" fill-opacity="1" /><path clip-path="url(#clip750)" d="M588.404 1533.2 L588.404 1548.85 L584.145 1548.85 L584.145 1533.34 Q584.145 1529.66 582.71 1527.83 Q581.275 1526 578.405 1526 Q574.955 1526 572.965 1528.2 Q570.974 1530.4 570.974 1534.2 L570.974 1548.85 L566.692 1548.85 L566.692 1512.83 L570.974 1512.83 L570.974 1526.95 Q572.502 1524.61 574.562 1523.45 Q576.645 1522.3 579.354 1522.3 Q583.821 1522.3 586.113 1525.07 Q588.404 1527.83 588.404 1533.2 Z" fill="#000000" fill-rule="evenodd" fill-opacity="1" /><path clip-path="url(#clip750)" d="M596.46 1538.62 L596.46 1522.92 L600.719 1522.92 L600.719 1538.45 Q600.719 1542.13 602.154 1543.99 Q603.59 1545.82 606.46 1545.82 Q609.909 1545.82 611.9 1543.62 Q613.914 1541.42 613.914 1537.62 L613.914 1522.92 L618.173 1522.92 L618.173 1548.85 L613.914 1548.85 L613.914 1544.87 Q612.363 1547.23 610.302 1548.38 Q608.265 1549.52 605.557 1549.52 Q601.09 1549.52 598.775 1546.74 Q596.46 1543.96 596.46 1538.62 M607.177 1522.3 L607.177 1522.3 Z" fill="#000000" fill-rule="evenodd" fill-opacity="1" /><path clip-path="url(#clip750)" d="M643.427 1544.91 L651.066 1544.91 L651.066 1518.55 L642.756 1520.21 L642.756 1515.95 L651.02 1514.29 L655.696 1514.29 L655.696 1544.91 L663.335 1544.91 L663.335 1548.85 L643.427 1548.85 L643.427 1544.91 Z" fill="#000000" fill-rule="evenodd" fill-opacity="1" /><path clip-path="url(#clip750)" d="M672.918 1548.13 L672.918 1543.87 Q674.677 1544.7 676.483 1545.14 Q678.288 1545.58 680.024 1545.58 Q684.654 1545.58 687.084 1542.48 Q689.538 1539.36 689.885 1533.01 Q688.543 1535.01 686.483 1536.07 Q684.422 1537.13 681.922 1537.13 Q676.737 1537.13 673.705 1534.01 Q670.696 1530.86 670.696 1525.42 Q670.696 1520.1 673.844 1516.88 Q676.992 1513.66 682.223 1513.66 Q688.219 1513.66 691.367 1518.27 Q694.538 1522.85 694.538 1531.6 Q694.538 1539.77 690.649 1544.66 Q686.784 1549.52 680.233 1549.52 Q678.473 1549.52 676.668 1549.17 Q674.862 1548.82 672.918 1548.13 M682.223 1533.48 Q685.372 1533.48 687.2 1531.32 Q689.052 1529.17 689.052 1525.42 Q689.052 1521.7 687.2 1519.54 Q685.372 1517.37 682.223 1517.37 Q679.075 1517.37 677.223 1519.54 Q675.395 1521.7 675.395 1525.42 Q675.395 1529.17 677.223 1531.32 Q679.075 1533.48 682.223 1533.48 Z" fill="#000000" fill-rule="evenodd" fill-opacity="1" /><path clip-path="url(#clip750)" d="M703.427 1542.97 L708.311 1542.97 L708.311 1548.85 L703.427 1548.85 L703.427 1542.97 M703.427 1524.33 L708.311 1524.33 L708.311 1530.21 L703.427 1530.21 L703.427 1524.33 Z" fill="#000000" fill-rule="evenodd" fill-opacity="1" /><path clip-path="url(#clip750)" d="M719.723 1544.91 L727.362 1544.91 L727.362 1518.55 L719.052 1520.21 L719.052 1515.95 L727.316 1514.29 L731.992 1514.29 L731.992 1544.91 L739.63 1544.91 L739.63 1548.85 L719.723 1548.85 L719.723 1544.91 Z" fill="#000000" fill-rule="evenodd" fill-opacity="1" /><path clip-path="url(#clip750)" d="M749.121 1514.29 L767.478 1514.29 L767.478 1518.22 L753.404 1518.22 L753.404 1526.7 Q754.422 1526.35 755.441 1526.19 Q756.459 1526 757.478 1526 Q763.265 1526 766.644 1529.17 Q770.024 1532.34 770.024 1537.76 Q770.024 1543.34 766.552 1546.44 Q763.079 1549.52 756.76 1549.52 Q754.584 1549.52 752.316 1549.15 Q750.07 1548.78 747.663 1548.04 L747.663 1543.34 Q749.746 1544.47 751.968 1545.03 Q754.191 1545.58 756.667 1545.58 Q760.672 1545.58 763.01 1543.48 Q765.348 1541.37 765.348 1537.76 Q765.348 1534.15 763.01 1532.04 Q760.672 1529.94 756.667 1529.94 Q754.792 1529.94 752.917 1530.35 Q751.066 1530.77 749.121 1531.65 L749.121 1514.29 Z" fill="#000000" fill-rule="evenodd" fill-opacity="1" /><path clip-path="url(#clip750)" d="M875.878 1514.29 L905.114 1514.29 L905.114 1518.22 L892.846 1518.22 L892.846 1548.85 L888.147 1548.85 L888.147 1518.22 L875.878 1518.22 L875.878 1514.29 Z" fill="#000000" fill-rule="evenodd" fill-opacity="1" /><path clip-path="url(#clip750)" d="M930.994 1533.2 L930.994 1548.85 L926.735 1548.85 L926.735 1533.34 Q926.735 1529.66 925.3 1527.83 Q923.864 1526 920.994 1526 Q917.545 1526 915.554 1528.2 Q913.563 1530.4 913.563 1534.2 L913.563 1548.85 L909.281 1548.85 L909.281 1512.83 L913.563 1512.83 L913.563 1526.95 Q915.091 1524.61 917.151 1523.45 Q919.235 1522.3 921.943 1522.3 Q926.411 1522.3 928.702 1525.07 Q930.994 1527.83 930.994 1533.2 Z" fill="#000000" fill-rule="evenodd" fill-opacity="1" /><path clip-path="url(#clip750)" d="M939.049 1538.62 L939.049 1522.92 L943.309 1522.92 L943.309 1538.45 Q943.309 1542.13 944.744 1543.99 Q946.179 1545.82 949.049 1545.82 Q952.498 1545.82 954.489 1543.62 Q956.503 1541.42 956.503 1537.62 L956.503 1522.92 L960.762 1522.92 L960.762 1548.85 L956.503 1548.85 L956.503 1544.87 Q954.952 1547.23 952.892 1548.38 Q950.855 1549.52 948.147 1549.52 Q943.679 1549.52 941.364 1546.74 Q939.049 1543.96 939.049 1538.62 M949.767 1522.3 L949.767 1522.3 Z" fill="#000000" fill-rule="evenodd" fill-opacity="1" /><path clip-path="url(#clip750)" d="M989.234 1544.91 L1005.55 1544.91 L1005.55 1548.85 L983.609 1548.85 L983.609 1544.91 Q986.271 1542.16 990.855 1537.53 Q995.461 1532.88 996.642 1531.53 Q998.887 1529.01 999.767 1527.27 Q1000.67 1525.51 1000.67 1523.82 Q1000.67 1521.07 998.725 1519.33 Q996.804 1517.6 993.702 1517.6 Q991.503 1517.6 989.049 1518.36 Q986.619 1519.13 983.841 1520.68 L983.841 1515.95 Q986.665 1514.82 989.119 1514.24 Q991.572 1513.66 993.609 1513.66 Q998.98 1513.66 1002.17 1516.35 Q1005.37 1519.03 1005.37 1523.52 Q1005.37 1525.65 1004.56 1527.57 Q1003.77 1529.47 1001.66 1532.07 Q1001.09 1532.74 997.984 1535.95 Q994.882 1539.15 989.234 1544.91 Z" fill="#000000" fill-rule="evenodd" fill-opacity="1" /><path clip-path="url(#clip750)" d="M1029.54 1530.21 Q1032.89 1530.93 1034.77 1533.2 Q1036.66 1535.47 1036.66 1538.8 Q1036.66 1543.92 1033.15 1546.72 Q1029.63 1549.52 1023.15 1549.52 Q1020.97 1549.52 1018.66 1549.08 Q1016.36 1548.66 1013.91 1547.81 L1013.91 1543.29 Q1015.85 1544.43 1018.17 1545.01 Q1020.48 1545.58 1023.01 1545.58 Q1027.41 1545.58 1029.7 1543.85 Q1032.01 1542.11 1032.01 1538.8 Q1032.01 1535.75 1029.86 1534.03 Q1027.73 1532.3 1023.91 1532.3 L1019.88 1532.3 L1019.88 1528.45 L1024.1 1528.45 Q1027.54 1528.45 1029.37 1527.09 Q1031.2 1525.7 1031.2 1523.11 Q1031.2 1520.45 1029.3 1519.03 Q1027.43 1517.6 1023.91 1517.6 Q1021.99 1517.6 1019.79 1518.01 Q1017.59 1518.43 1014.95 1519.31 L1014.95 1515.14 Q1017.61 1514.4 1019.93 1514.03 Q1022.27 1513.66 1024.33 1513.66 Q1029.65 1513.66 1032.75 1516.09 Q1035.85 1518.5 1035.85 1522.62 Q1035.85 1525.49 1034.21 1527.48 Q1032.57 1529.45 1029.54 1530.21 Z" fill="#000000" fill-rule="evenodd" fill-opacity="1" /><path clip-path="url(#clip750)" d="M1046.02 1542.97 L1050.9 1542.97 L1050.9 1548.85 L1046.02 1548.85 L1046.02 1542.97 M1046.02 1524.33 L1050.9 1524.33 L1050.9 1530.21 L1046.02 1530.21 L1046.02 1524.33 Z" fill="#000000" fill-rule="evenodd" fill-opacity="1" /><path clip-path="url(#clip750)" d="M1062.31 1544.91 L1069.95 1544.91 L1069.95 1518.55 L1061.64 1520.21 L1061.64 1515.95 L1069.91 1514.29 L1074.58 1514.29 L1074.58 1544.91 L1082.22 1544.91 L1082.22 1548.85 L1062.31 1548.85 L1062.31 1544.91 Z" fill="#000000" fill-rule="evenodd" fill-opacity="1" /><path clip-path="url(#clip750)" d="M1091.71 1514.29 L1110.07 1514.29 L1110.07 1518.22 L1095.99 1518.22 L1095.99 1526.7 Q1097.01 1526.35 1098.03 1526.19 Q1099.05 1526 1100.07 1526 Q1105.85 1526 1109.23 1529.17 Q1112.61 1532.34 1112.61 1537.76 Q1112.61 1543.34 1109.14 1546.44 Q1105.67 1549.52 1099.35 1549.52 Q1097.17 1549.52 1094.91 1549.15 Q1092.66 1548.78 1090.25 1548.04 L1090.25 1543.34 Q1092.34 1544.47 1094.56 1545.03 Q1096.78 1545.58 1099.26 1545.58 Q1103.26 1545.58 1105.6 1543.48 Q1107.94 1541.37 1107.94 1537.76 Q1107.94 1534.15 1105.6 1532.04 Q1103.26 1529.94 1099.26 1529.94 Q1097.38 1529.94 1095.51 1530.35 Q1093.66 1530.77 1091.71 1531.65 L1091.71 1514.29 Z" fill="#000000" fill-rule="evenodd" fill-opacity="1" /><path clip-path="url(#clip750)" d="M1237.15 1514.29 L1257.01 1514.29 L1257.01 1518.22 L1241.82 1518.22 L1241.82 1528.41 L1255.53 1528.41 L1255.53 1532.34 L1241.82 1532.34 L1241.82 1548.85 L1237.15 1548.85 L1237.15 1514.29 Z" fill="#000000" fill-rule="evenodd" fill-opacity="1" /><path clip-path="url(#clip750)" d="M1275.81 1526.9 Q1275.09 1526.49 1274.23 1526.3 Q1273.4 1526.09 1272.38 1526.09 Q1268.77 1526.09 1266.82 1528.45 Q1264.9 1530.79 1264.9 1535.19 L1264.9 1548.85 L1260.62 1548.85 L1260.62 1522.92 L1264.9 1522.92 L1264.9 1526.95 Q1266.25 1524.59 1268.4 1523.45 Q1270.55 1522.3 1273.63 1522.3 Q1274.07 1522.3 1274.6 1522.37 Q1275.13 1522.41 1275.78 1522.53 L1275.81 1526.9 Z" fill="#000000" fill-rule="evenodd" fill-opacity="1" /><path clip-path="url(#clip750)" d="M1280.27 1522.92 L1284.53 1522.92 L1284.53 1548.85 L1280.27 1548.85 L1280.27 1522.92 M1280.27 1512.83 L1284.53 1512.83 L1284.53 1518.22 L1280.27 1518.22 L1280.27 1512.83 Z" fill="#000000" fill-rule="evenodd" fill-opacity="1" /><path clip-path="url(#clip750)" d="M1319.12 1517.37 Q1315.5 1517.37 1313.68 1520.93 Q1311.87 1524.47 1311.87 1531.6 Q1311.87 1538.71 1313.68 1542.27 Q1315.5 1545.82 1319.12 1545.82 Q1322.75 1545.82 1324.56 1542.27 Q1326.38 1538.71 1326.38 1531.6 Q1326.38 1524.47 1324.56 1520.93 Q1322.75 1517.37 1319.12 1517.37 M1319.12 1513.66 Q1324.93 1513.66 1327.98 1518.27 Q1331.06 1522.85 1331.06 1531.6 Q1331.06 1540.33 1327.98 1544.94 Q1324.93 1549.52 1319.12 1549.52 Q1313.31 1549.52 1310.23 1544.94 Q1307.17 1540.33 1307.17 1531.6 Q1307.17 1522.85 1310.23 1518.27 Q1313.31 1513.66 1319.12 1513.66 Z" fill="#000000" fill-rule="evenodd" fill-opacity="1" /><path clip-path="url(#clip750)" d="M1353.44 1530.21 Q1356.8 1530.93 1358.68 1533.2 Q1360.57 1535.47 1360.57 1538.8 Q1360.57 1543.92 1357.06 1546.72 Q1353.54 1549.52 1347.06 1549.52 Q1344.88 1549.52 1342.56 1549.08 Q1340.27 1548.66 1337.82 1547.81 L1337.82 1543.29 Q1339.76 1544.43 1342.08 1545.01 Q1344.39 1545.58 1346.92 1545.58 Q1351.31 1545.58 1353.61 1543.85 Q1355.92 1542.11 1355.92 1538.8 Q1355.92 1535.75 1353.77 1534.03 Q1351.64 1532.3 1347.82 1532.3 L1343.79 1532.3 L1343.79 1528.45 L1348 1528.45 Q1351.45 1528.45 1353.28 1527.09 Q1355.11 1525.7 1355.11 1523.11 Q1355.11 1520.45 1353.21 1519.03 Q1351.34 1517.6 1347.82 1517.6 Q1345.9 1517.6 1343.7 1518.01 Q1341.5 1518.43 1338.86 1519.31 L1338.86 1515.14 Q1341.52 1514.4 1343.84 1514.03 Q1346.18 1513.66 1348.24 1513.66 Q1353.56 1513.66 1356.66 1516.09 Q1359.76 1518.5 1359.76 1522.62 Q1359.76 1525.49 1358.12 1527.48 Q1356.48 1529.45 1353.44 1530.21 Z" fill="#000000" fill-rule="evenodd" fill-opacity="1" /><path clip-path="url(#clip750)" d="M1369.93 1542.97 L1374.81 1542.97 L1374.81 1548.85 L1369.93 1548.85 L1369.93 1542.97 M1369.93 1524.33 L1374.81 1524.33 L1374.81 1530.21 L1369.93 1530.21 L1369.93 1524.33 Z" fill="#000000" fill-rule="evenodd" fill-opacity="1" /><path clip-path="url(#clip750)" d="M1386.22 1544.91 L1393.86 1544.91 L1393.86 1518.55 L1385.55 1520.21 L1385.55 1515.95 L1393.81 1514.29 L1398.49 1514.29 L1398.49 1544.91 L1406.13 1544.91 L1406.13 1548.85 L1386.22 1548.85 L1386.22 1544.91 Z" fill="#000000" fill-rule="evenodd" fill-opacity="1" /><path clip-path="url(#clip750)" d="M1415.62 1514.29 L1433.98 1514.29 L1433.98 1518.22 L1419.9 1518.22 L1419.9 1526.7 Q1420.92 1526.35 1421.94 1526.19 Q1422.96 1526 1423.98 1526 Q1429.76 1526 1433.14 1529.17 Q1436.52 1532.34 1436.52 1537.76 Q1436.52 1543.34 1433.05 1546.44 Q1429.58 1549.52 1423.26 1549.52 Q1421.08 1549.52 1418.81 1549.15 Q1416.57 1548.78 1414.16 1548.04 L1414.16 1543.34 Q1416.24 1544.47 1418.47 1545.03 Q1420.69 1545.58 1423.17 1545.58 Q1427.17 1545.58 1429.51 1543.48 Q1431.85 1541.37 1431.85 1537.76 Q1431.85 1534.15 1429.51 1532.04 Q1427.17 1529.94 1423.17 1529.94 Q1421.29 1529.94 1419.42 1530.35 Q1417.56 1530.77 1415.62 1531.65 L1415.62 1514.29 Z" fill="#000000" fill-rule="evenodd" fill-opacity="1" /><path clip-path="url(#clip750)" d="M1579.74 1514.29 L1599.6 1514.29 L1599.6 1518.22 L1584.41 1518.22 L1584.41 1528.41 L1598.12 1528.41 L1598.12 1532.34 L1584.41 1532.34 L1584.41 1548.85 L1579.74 1548.85 L1579.74 1514.29 Z" fill="#000000" fill-rule="evenodd" fill-opacity="1" /><path clip-path="url(#clip750)" d="M1618.4 1526.9 Q1617.68 1526.49 1616.82 1526.3 Q1615.99 1526.09 1614.97 1526.09 Q1611.36 1526.09 1609.41 1528.45 Q1607.49 1530.79 1607.49 1535.19 L1607.49 1548.85 L1603.21 1548.85 L1603.21 1522.92 L1607.49 1522.92 L1607.49 1526.95 Q1608.83 1524.59 1610.99 1523.45 Q1613.14 1522.3 1616.22 1522.3 Q1616.66 1522.3 1617.19 1522.37 Q1617.72 1522.41 1618.37 1522.53 L1618.4 1526.9 Z" fill="#000000" fill-rule="evenodd" fill-opacity="1" /><path clip-path="url(#clip750)" d="M1622.86 1522.92 L1627.12 1522.92 L1627.12 1548.85 L1622.86 1548.85 L1622.86 1522.92 M1622.86 1512.83 L1627.12 1512.83 L1627.12 1518.22 L1622.86 1518.22 L1622.86 1512.83 Z" fill="#000000" fill-rule="evenodd" fill-opacity="1" /><path clip-path="url(#clip750)" d="M1661.71 1517.37 Q1658.09 1517.37 1656.27 1520.93 Q1654.46 1524.47 1654.46 1531.6 Q1654.46 1538.71 1656.27 1542.27 Q1658.09 1545.82 1661.71 1545.82 Q1665.34 1545.82 1667.14 1542.27 Q1668.97 1538.71 1668.97 1531.6 Q1668.97 1524.47 1667.14 1520.93 Q1665.34 1517.37 1661.71 1517.37 M1661.71 1513.66 Q1667.52 1513.66 1670.57 1518.27 Q1673.65 1522.85 1673.65 1531.6 Q1673.65 1540.33 1670.57 1544.94 Q1667.52 1549.52 1661.71 1549.52 Q1655.89 1549.52 1652.82 1544.94 Q1649.76 1540.33 1649.76 1531.6 Q1649.76 1522.85 1652.82 1518.27 Q1655.89 1513.66 1661.71 1513.66 Z" fill="#000000" fill-rule="evenodd" fill-opacity="1" /><path clip-path="url(#clip750)" d="M1680.69 1514.29 L1702.91 1514.29 L1702.91 1516.28 L1690.36 1548.85 L1685.48 1548.85 L1697.28 1518.22 L1680.69 1518.22 L1680.69 1514.29 Z" fill="#000000" fill-rule="evenodd" fill-opacity="1" /><path clip-path="url(#clip750)" d="M1712.51 1542.97 L1717.4 1542.97 L1717.4 1548.85 L1712.51 1548.85 L1712.51 1542.97 M1712.51 1524.33 L1717.4 1524.33 L1717.4 1530.21 L1712.51 1530.21 L1712.51 1524.33 Z" fill="#000000" fill-rule="evenodd" fill-opacity="1" /><path clip-path="url(#clip750)" d="M1728.81 1544.91 L1736.45 1544.91 L1736.45 1518.55 L1728.14 1520.21 L1728.14 1515.95 L1736.4 1514.29 L1741.08 1514.29 L1741.08 1544.91 L1748.72 1544.91 L1748.72 1548.85 L1728.81 1548.85 L1728.81 1544.91 Z" fill="#000000" fill-rule="evenodd" fill-opacity="1" /><path clip-path="url(#clip750)" d="M1758.21 1514.29 L1776.57 1514.29 L1776.57 1518.22 L1762.49 1518.22 L1762.49 1526.7 Q1763.51 1526.35 1764.53 1526.19 Q1765.55 1526 1766.57 1526 Q1772.35 1526 1775.73 1529.17 Q1779.11 1532.34 1779.11 1537.76 Q1779.11 1543.34 1775.64 1546.44 Q1772.17 1549.52 1765.85 1549.52 Q1763.67 1549.52 1761.4 1549.15 Q1759.16 1548.78 1756.75 1548.04 L1756.75 1543.34 Q1758.83 1544.47 1761.06 1545.03 Q1763.28 1545.58 1765.76 1545.58 Q1769.76 1545.58 1772.1 1543.48 Q1774.44 1541.37 1774.44 1537.76 Q1774.44 1534.15 1772.1 1532.04 Q1769.76 1529.94 1765.76 1529.94 Q1763.88 1529.94 1762.01 1530.35 Q1760.15 1530.77 1758.21 1531.65 L1758.21 1514.29 Z" fill="#000000" fill-rule="evenodd" fill-opacity="1" /><path clip-path="url(#clip750)" d="M1922.33 1514.29 L1942.19 1514.29 L1942.19 1518.22 L1927 1518.22 L1927 1528.41 L1940.71 1528.41 L1940.71 1532.34 L1927 1532.34 L1927 1548.85 L1922.33 1548.85 L1922.33 1514.29 Z" fill="#000000" fill-rule="evenodd" fill-opacity="1" /><path clip-path="url(#clip750)" d="M1960.98 1526.9 Q1960.27 1526.49 1959.41 1526.3 Q1958.58 1526.09 1957.56 1526.09 Q1953.95 1526.09 1952 1528.45 Q1950.08 1530.79 1950.08 1535.19 L1950.08 1548.85 L1945.8 1548.85 L1945.8 1522.92 L1950.08 1522.92 L1950.08 1526.95 Q1951.42 1524.59 1953.58 1523.45 Q1955.73 1522.3 1958.81 1522.3 Q1959.25 1522.3 1959.78 1522.37 Q1960.31 1522.41 1960.96 1522.53 L1960.98 1526.9 Z" fill="#000000" fill-rule="evenodd" fill-opacity="1" /><path clip-path="url(#clip750)" d="M1965.45 1522.92 L1969.71 1522.92 L1969.71 1548.85 L1965.45 1548.85 L1965.45 1522.92 M1965.45 1512.83 L1969.71 1512.83 L1969.71 1518.22 L1965.45 1518.22 L1965.45 1512.83 Z" fill="#000000" fill-rule="evenodd" fill-opacity="1" /><path clip-path="url(#clip750)" d="M1995.1 1544.91 L2002.74 1544.91 L2002.74 1518.55 L1994.43 1520.21 L1994.43 1515.95 L2002.7 1514.29 L2007.37 1514.29 L2007.37 1544.91 L2015.01 1544.91 L2015.01 1548.85 L1995.1 1548.85 L1995.1 1544.91 Z" fill="#000000" fill-rule="evenodd" fill-opacity="1" /><path clip-path="url(#clip750)" d="M2025.27 1544.91 L2032.91 1544.91 L2032.91 1518.55 L2024.6 1520.21 L2024.6 1515.95 L2032.86 1514.29 L2037.54 1514.29 L2037.54 1544.91 L2045.17 1544.91 L2045.17 1548.85 L2025.27 1548.85 L2025.27 1544.91 Z" fill="#000000" fill-rule="evenodd" fill-opacity="1" /><path clip-path="url(#clip750)" d="M2055.1 1542.97 L2059.99 1542.97 L2059.99 1548.85 L2055.1 1548.85 L2055.1 1542.97 M2055.1 1524.33 L2059.99 1524.33 L2059.99 1530.21 L2055.1 1530.21 L2055.1 1524.33 Z" fill="#000000" fill-rule="evenodd" fill-opacity="1" /><path clip-path="url(#clip750)" d="M2071.4 1544.91 L2079.04 1544.91 L2079.04 1518.55 L2070.73 1520.21 L2070.73 1515.95 L2078.99 1514.29 L2083.67 1514.29 L2083.67 1544.91 L2091.31 1544.91 L2091.31 1548.85 L2071.4 1548.85 L2071.4 1544.91 Z" fill="#000000" fill-rule="evenodd" fill-opacity="1" /><path clip-path="url(#clip750)" d="M2100.8 1514.29 L2119.16 1514.29 L2119.16 1518.22 L2105.08 1518.22 L2105.08 1526.7 Q2106.1 1526.35 2107.12 1526.19 Q2108.14 1526 2109.16 1526 Q2114.94 1526 2118.32 1529.17 Q2121.7 1532.34 2121.7 1537.76 Q2121.7 1543.34 2118.23 1546.44 Q2114.76 1549.52 2108.44 1549.52 Q2106.26 1549.52 2103.99 1549.15 Q2101.75 1548.78 2099.34 1548.04 L2099.34 1543.34 Q2101.42 1544.47 2103.65 1545.03 Q2105.87 1545.58 2108.34 1545.58 Q2112.35 1545.58 2114.69 1543.48 Q2117.03 1541.37 2117.03 1537.76 Q2117.03 1534.15 2114.69 1532.04 Q2112.35 1529.94 2108.34 1529.94 Q2106.47 1529.94 2104.59 1530.35 Q2102.74 1530.77 2100.8 1531.65 L2100.8 1514.29 Z" fill="#000000" fill-rule="evenodd" fill-opacity="1" /><polyline clip-path="url(#clip752)" style="stroke:#000000; stroke-linecap:butt; stroke-linejoin:round; stroke-width:2; stroke-opacity:0.1; fill:none" points="
  249.542,1379.63 2352.76,1379.63 
  "/>
<polyline clip-path="url(#clip752)" style="stroke:#000000; stroke-linecap:butt; stroke-linejoin:round; stroke-width:2; stroke-opacity:0.1; fill:none" points="
  249.542,1182.55 2352.76,1182.55 
  "/>
<polyline clip-path="url(#clip752)" style="stroke:#000000; stroke-linecap:butt; stroke-linejoin:round; stroke-width:2; stroke-opacity:0.1; fill:none" points="
  249.542,985.483 2352.76,985.483 
  "/>
<polyline clip-path="url(#clip752)" style="stroke:#000000; stroke-linecap:butt; stroke-linejoin:round; stroke-width:2; stroke-opacity:0.1; fill:none" points="
  249.542,788.412 2352.76,788.412 
  "/>
<polyline clip-path="url(#clip752)" style="stroke:#000000; stroke-linecap:butt; stroke-linejoin:round; stroke-width:2; stroke-opacity:0.1; fill:none" points="
  249.542,591.34 2352.76,591.34 
  "/>
<polyline clip-path="url(#clip752)" style="stroke:#000000; stroke-linecap:butt; stroke-linejoin:round; stroke-width:2; stroke-opacity:0.1; fill:none" points="
  249.542,394.269 2352.76,394.269 
  "/>
<polyline clip-path="url(#clip752)" style="stroke:#000000; stroke-linecap:butt; stroke-linejoin:round; stroke-width:2; stroke-opacity:0.1; fill:none" points="
  249.542,197.197 2352.76,197.197 
  "/>
<polyline clip-path="url(#clip750)" style="stroke:#000000; stroke-linecap:butt; stroke-linejoin:round; stroke-width:4; stroke-opacity:1; fill:none" points="
  249.542,1486.45 249.542,47.2441 
  "/>
<polyline clip-path="url(#clip750)" style="stroke:#000000; stroke-linecap:butt; stroke-linejoin:round; stroke-width:4; stroke-opacity:1; fill:none" points="
  249.542,1379.63 268.44,1379.63 
  "/>
<polyline clip-path="url(#clip750)" style="stroke:#000000; stroke-linecap:butt; stroke-linejoin:round; stroke-width:4; stroke-opacity:1; fill:none" points="
  249.542,1182.55 268.44,1182.55 
  "/>
<polyline clip-path="url(#clip750)" style="stroke:#000000; stroke-linecap:butt; stroke-linejoin:round; stroke-width:4; stroke-opacity:1; fill:none" points="
  249.542,985.483 268.44,985.483 
  "/>
<polyline clip-path="url(#clip750)" style="stroke:#000000; stroke-linecap:butt; stroke-linejoin:round; stroke-width:4; stroke-opacity:1; fill:none" points="
  249.542,788.412 268.44,788.412 
  "/>
<polyline clip-path="url(#clip750)" style="stroke:#000000; stroke-linecap:butt; stroke-linejoin:round; stroke-width:4; stroke-opacity:1; fill:none" points="
  249.542,591.34 268.44,591.34 
  "/>
<polyline clip-path="url(#clip750)" style="stroke:#000000; stroke-linecap:butt; stroke-linejoin:round; stroke-width:4; stroke-opacity:1; fill:none" points="
  249.542,394.269 268.44,394.269 
  "/>
<polyline clip-path="url(#clip750)" style="stroke:#000000; stroke-linecap:butt; stroke-linejoin:round; stroke-width:4; stroke-opacity:1; fill:none" points="
  249.542,197.197 268.44,197.197 
  "/>
<path clip-path="url(#clip750)" d="M127.2 1365.43 Q123.589 1365.43 121.76 1368.99 Q119.955 1372.53 119.955 1379.66 Q119.955 1386.77 121.76 1390.33 Q123.589 1393.87 127.2 1393.87 Q130.834 1393.87 132.64 1390.33 Q134.468 1386.77 134.468 1379.66 Q134.468 1372.53 132.64 1368.99 Q130.834 1365.43 127.2 1365.43 M127.2 1361.72 Q133.01 1361.72 136.066 1366.33 Q139.144 1370.91 139.144 1379.66 Q139.144 1388.39 136.066 1392.99 Q133.01 1397.58 127.2 1397.58 Q121.39 1397.58 118.311 1392.99 Q115.256 1388.39 115.256 1379.66 Q115.256 1370.91 118.311 1366.33 Q121.39 1361.72 127.2 1361.72 Z" fill="#000000" fill-rule="evenodd" fill-opacity="1" /><path clip-path="url(#clip750)" d="M147.362 1391.03 L152.246 1391.03 L152.246 1396.91 L147.362 1396.91 L147.362 1391.03 Z" fill="#000000" fill-rule="evenodd" fill-opacity="1" /><path clip-path="url(#clip750)" d="M172.431 1365.43 Q168.82 1365.43 166.991 1368.99 Q165.186 1372.53 165.186 1379.66 Q165.186 1386.77 166.991 1390.33 Q168.82 1393.87 172.431 1393.87 Q176.065 1393.87 177.871 1390.33 Q179.7 1386.77 179.7 1379.66 Q179.7 1372.53 177.871 1368.99 Q176.065 1365.43 172.431 1365.43 M172.431 1361.72 Q178.241 1361.72 181.297 1366.33 Q184.376 1370.91 184.376 1379.66 Q184.376 1388.39 181.297 1392.99 Q178.241 1397.58 172.431 1397.58 Q166.621 1397.58 163.542 1392.99 Q160.487 1388.39 160.487 1379.66 Q160.487 1370.91 163.542 1366.33 Q166.621 1361.72 172.431 1361.72 Z" fill="#000000" fill-rule="evenodd" fill-opacity="1" /><path clip-path="url(#clip750)" d="M192.639 1362.35 L210.996 1362.35 L210.996 1366.28 L196.922 1366.28 L196.922 1374.75 Q197.94 1374.41 198.959 1374.24 Q199.977 1374.06 200.996 1374.06 Q206.783 1374.06 210.162 1377.23 Q213.542 1380.4 213.542 1385.82 Q213.542 1391.4 210.07 1394.5 Q206.598 1397.58 200.278 1397.58 Q198.102 1397.58 195.834 1397.21 Q193.588 1396.84 191.181 1396.1 L191.181 1391.4 Q193.264 1392.53 195.487 1393.09 Q197.709 1393.64 200.186 1393.64 Q204.19 1393.64 206.528 1391.54 Q208.866 1389.43 208.866 1385.82 Q208.866 1382.21 206.528 1380.1 Q204.19 1377.99 200.186 1377.99 Q198.311 1377.99 196.436 1378.41 Q194.584 1378.83 192.639 1379.71 L192.639 1362.35 Z" fill="#000000" fill-rule="evenodd" fill-opacity="1" /><path clip-path="url(#clip750)" d="M126.205 1168.35 Q122.593 1168.35 120.765 1171.92 Q118.959 1175.46 118.959 1182.59 Q118.959 1189.7 120.765 1193.26 Q122.593 1196.8 126.205 1196.8 Q129.839 1196.8 131.644 1193.26 Q133.473 1189.7 133.473 1182.59 Q133.473 1175.46 131.644 1171.92 Q129.839 1168.35 126.205 1168.35 M126.205 1164.65 Q132.015 1164.65 135.07 1169.26 Q138.149 1173.84 138.149 1182.59 Q138.149 1191.32 135.07 1195.92 Q132.015 1200.51 126.205 1200.51 Q120.394 1200.51 117.316 1195.92 Q114.26 1191.32 114.26 1182.59 Q114.26 1173.84 117.316 1169.26 Q120.394 1164.65 126.205 1164.65 Z" fill="#000000" fill-rule="evenodd" fill-opacity="1" /><path clip-path="url(#clip750)" d="M146.366 1193.96 L151.251 1193.96 L151.251 1199.83 L146.366 1199.83 L146.366 1193.96 Z" fill="#000000" fill-rule="evenodd" fill-opacity="1" /><path clip-path="url(#clip750)" d="M162.246 1195.9 L169.885 1195.9 L169.885 1169.53 L161.575 1171.2 L161.575 1166.94 L169.839 1165.27 L174.514 1165.27 L174.514 1195.9 L182.153 1195.9 L182.153 1199.83 L162.246 1199.83 L162.246 1195.9 Z" fill="#000000" fill-rule="evenodd" fill-opacity="1" /><path clip-path="url(#clip750)" d="M201.598 1168.35 Q197.987 1168.35 196.158 1171.92 Q194.352 1175.46 194.352 1182.59 Q194.352 1189.7 196.158 1193.26 Q197.987 1196.8 201.598 1196.8 Q205.232 1196.8 207.037 1193.26 Q208.866 1189.7 208.866 1182.59 Q208.866 1175.46 207.037 1171.92 Q205.232 1168.35 201.598 1168.35 M201.598 1164.65 Q207.408 1164.65 210.463 1169.26 Q213.542 1173.84 213.542 1182.59 Q213.542 1191.32 210.463 1195.92 Q207.408 1200.51 201.598 1200.51 Q195.787 1200.51 192.709 1195.92 Q189.653 1191.32 189.653 1182.59 Q189.653 1173.84 192.709 1169.26 Q195.787 1164.65 201.598 1164.65 Z" fill="#000000" fill-rule="evenodd" fill-opacity="1" /><path clip-path="url(#clip750)" d="M127.2 971.282 Q123.589 971.282 121.76 974.847 Q119.955 978.388 119.955 985.518 Q119.955 992.625 121.76 996.189 Q123.589 999.731 127.2 999.731 Q130.834 999.731 132.64 996.189 Q134.468 992.625 134.468 985.518 Q134.468 978.388 132.64 974.847 Q130.834 971.282 127.2 971.282 M127.2 967.578 Q133.01 967.578 136.066 972.185 Q139.144 976.768 139.144 985.518 Q139.144 994.245 136.066 998.851 Q133.01 1003.43 127.2 1003.43 Q121.39 1003.43 118.311 998.851 Q115.256 994.245 115.256 985.518 Q115.256 976.768 118.311 972.185 Q121.39 967.578 127.2 967.578 Z" fill="#000000" fill-rule="evenodd" fill-opacity="1" /><path clip-path="url(#clip750)" d="M147.362 996.884 L152.246 996.884 L152.246 1002.76 L147.362 1002.76 L147.362 996.884 Z" fill="#000000" fill-rule="evenodd" fill-opacity="1" /><path clip-path="url(#clip750)" d="M163.241 998.828 L170.88 998.828 L170.88 972.463 L162.57 974.129 L162.57 969.87 L170.834 968.203 L175.51 968.203 L175.51 998.828 L183.149 998.828 L183.149 1002.76 L163.241 1002.76 L163.241 998.828 Z" fill="#000000" fill-rule="evenodd" fill-opacity="1" /><path clip-path="url(#clip750)" d="M192.639 968.203 L210.996 968.203 L210.996 972.139 L196.922 972.139 L196.922 980.611 Q197.94 980.263 198.959 980.101 Q199.977 979.916 200.996 979.916 Q206.783 979.916 210.162 983.088 Q213.542 986.259 213.542 991.675 Q213.542 997.254 210.07 1000.36 Q206.598 1003.43 200.278 1003.43 Q198.102 1003.43 195.834 1003.06 Q193.588 1002.69 191.181 1001.95 L191.181 997.254 Q193.264 998.388 195.487 998.944 Q197.709 999.499 200.186 999.499 Q204.19 999.499 206.528 997.393 Q208.866 995.287 208.866 991.675 Q208.866 988.064 206.528 985.958 Q204.19 983.851 200.186 983.851 Q198.311 983.851 196.436 984.268 Q194.584 984.685 192.639 985.564 L192.639 968.203 Z" fill="#000000" fill-rule="evenodd" fill-opacity="1" /><path clip-path="url(#clip750)" d="M126.205 774.21 Q122.593 774.21 120.765 777.775 Q118.959 781.317 118.959 788.446 Q118.959 795.553 120.765 799.118 Q122.593 802.659 126.205 802.659 Q129.839 802.659 131.644 799.118 Q133.473 795.553 133.473 788.446 Q133.473 781.317 131.644 777.775 Q129.839 774.21 126.205 774.21 M126.205 770.507 Q132.015 770.507 135.07 775.113 Q138.149 779.697 138.149 788.446 Q138.149 797.173 135.07 801.78 Q132.015 806.363 126.205 806.363 Q120.394 806.363 117.316 801.78 Q114.26 797.173 114.26 788.446 Q114.26 779.697 117.316 775.113 Q120.394 770.507 126.205 770.507 Z" fill="#000000" fill-rule="evenodd" fill-opacity="1" /><path clip-path="url(#clip750)" d="M146.366 799.812 L151.251 799.812 L151.251 805.692 L146.366 805.692 L146.366 799.812 Z" fill="#000000" fill-rule="evenodd" fill-opacity="1" /><path clip-path="url(#clip750)" d="M165.464 801.757 L181.783 801.757 L181.783 805.692 L159.839 805.692 L159.839 801.757 Q162.501 799.002 167.084 794.372 Q171.69 789.72 172.871 788.377 Q175.116 785.854 175.996 784.118 Q176.899 782.359 176.899 780.669 Q176.899 777.914 174.954 776.178 Q173.033 774.442 169.931 774.442 Q167.732 774.442 165.278 775.206 Q162.848 775.97 160.07 777.521 L160.07 772.798 Q162.894 771.664 165.348 771.085 Q167.802 770.507 169.839 770.507 Q175.209 770.507 178.403 773.192 Q181.598 775.877 181.598 780.368 Q181.598 782.497 180.788 784.419 Q180.001 786.317 177.894 788.909 Q177.315 789.581 174.214 792.798 Q171.112 795.993 165.464 801.757 Z" fill="#000000" fill-rule="evenodd" fill-opacity="1" /><path clip-path="url(#clip750)" d="M201.598 774.21 Q197.987 774.21 196.158 777.775 Q194.352 781.317 194.352 788.446 Q194.352 795.553 196.158 799.118 Q197.987 802.659 201.598 802.659 Q205.232 802.659 207.037 799.118 Q208.866 795.553 208.866 788.446 Q208.866 781.317 207.037 777.775 Q205.232 774.21 201.598 774.21 M201.598 770.507 Q207.408 770.507 210.463 775.113 Q213.542 779.697 213.542 788.446 Q213.542 797.173 210.463 801.78 Q207.408 806.363 201.598 806.363 Q195.787 806.363 192.709 801.78 Q189.653 797.173 189.653 788.446 Q189.653 779.697 192.709 775.113 Q195.787 770.507 201.598 770.507 Z" fill="#000000" fill-rule="evenodd" fill-opacity="1" /><path clip-path="url(#clip750)" d="M127.2 577.139 Q123.589 577.139 121.76 580.704 Q119.955 584.245 119.955 591.375 Q119.955 598.481 121.76 602.046 Q123.589 605.588 127.2 605.588 Q130.834 605.588 132.64 602.046 Q134.468 598.481 134.468 591.375 Q134.468 584.245 132.64 580.704 Q130.834 577.139 127.2 577.139 M127.2 573.435 Q133.01 573.435 136.066 578.042 Q139.144 582.625 139.144 591.375 Q139.144 600.102 136.066 604.708 Q133.01 609.291 127.2 609.291 Q121.39 609.291 118.311 604.708 Q115.256 600.102 115.256 591.375 Q115.256 582.625 118.311 578.042 Q121.39 573.435 127.2 573.435 Z" fill="#000000" fill-rule="evenodd" fill-opacity="1" /><path clip-path="url(#clip750)" d="M147.362 602.741 L152.246 602.741 L152.246 608.62 L147.362 608.62 L147.362 602.741 Z" fill="#000000" fill-rule="evenodd" fill-opacity="1" /><path clip-path="url(#clip750)" d="M166.459 604.685 L182.778 604.685 L182.778 608.62 L160.834 608.62 L160.834 604.685 Q163.496 601.93 168.079 597.301 Q172.686 592.648 173.866 591.305 Q176.112 588.782 176.991 587.046 Q177.894 585.287 177.894 583.597 Q177.894 580.843 175.95 579.106 Q174.028 577.37 170.927 577.37 Q168.727 577.37 166.274 578.134 Q163.843 578.898 161.065 580.449 L161.065 575.727 Q163.89 574.593 166.343 574.014 Q168.797 573.435 170.834 573.435 Q176.204 573.435 179.399 576.12 Q182.593 578.806 182.593 583.296 Q182.593 585.426 181.783 587.347 Q180.996 589.245 178.889 591.838 Q178.311 592.509 175.209 595.727 Q172.107 598.921 166.459 604.685 Z" fill="#000000" fill-rule="evenodd" fill-opacity="1" /><path clip-path="url(#clip750)" d="M192.639 574.06 L210.996 574.06 L210.996 577.995 L196.922 577.995 L196.922 586.468 Q197.94 586.12 198.959 585.958 Q199.977 585.773 200.996 585.773 Q206.783 585.773 210.162 588.944 Q213.542 592.116 213.542 597.532 Q213.542 603.111 210.07 606.213 Q206.598 609.291 200.278 609.291 Q198.102 609.291 195.834 608.921 Q193.588 608.551 191.181 607.81 L191.181 603.111 Q193.264 604.245 195.487 604.801 Q197.709 605.356 200.186 605.356 Q204.19 605.356 206.528 603.25 Q208.866 601.143 208.866 597.532 Q208.866 593.921 206.528 591.815 Q204.19 589.708 200.186 589.708 Q198.311 589.708 196.436 590.125 Q194.584 590.542 192.639 591.421 L192.639 574.06 Z" fill="#000000" fill-rule="evenodd" fill-opacity="1" /><path clip-path="url(#clip750)" d="M126.205 380.067 Q122.593 380.067 120.765 383.632 Q118.959 387.174 118.959 394.303 Q118.959 401.41 120.765 404.975 Q122.593 408.516 126.205 408.516 Q129.839 408.516 131.644 404.975 Q133.473 401.41 133.473 394.303 Q133.473 387.174 131.644 383.632 Q129.839 380.067 126.205 380.067 M126.205 376.364 Q132.015 376.364 135.07 380.97 Q138.149 385.553 138.149 394.303 Q138.149 403.03 135.07 407.637 Q132.015 412.22 126.205 412.22 Q120.394 412.22 117.316 407.637 Q114.26 403.03 114.26 394.303 Q114.26 385.553 117.316 380.97 Q120.394 376.364 126.205 376.364 Z" fill="#000000" fill-rule="evenodd" fill-opacity="1" /><path clip-path="url(#clip750)" d="M146.366 405.669 L151.251 405.669 L151.251 411.549 L146.366 411.549 L146.366 405.669 Z" fill="#000000" fill-rule="evenodd" fill-opacity="1" /><path clip-path="url(#clip750)" d="M175.602 392.914 Q178.959 393.632 180.834 395.901 Q182.732 398.169 182.732 401.502 Q182.732 406.618 179.214 409.419 Q175.695 412.22 169.214 412.22 Q167.038 412.22 164.723 411.78 Q162.431 411.363 159.978 410.507 L159.978 405.993 Q161.922 407.127 164.237 407.706 Q166.552 408.285 169.075 408.285 Q173.473 408.285 175.764 406.549 Q178.079 404.812 178.079 401.502 Q178.079 398.447 175.926 396.734 Q173.797 394.998 169.977 394.998 L165.95 394.998 L165.95 391.155 L170.163 391.155 Q173.612 391.155 175.44 389.789 Q177.269 388.401 177.269 385.808 Q177.269 383.146 175.371 381.734 Q173.496 380.299 169.977 380.299 Q168.056 380.299 165.857 380.715 Q163.658 381.132 161.019 382.012 L161.019 377.845 Q163.681 377.104 165.996 376.734 Q168.334 376.364 170.394 376.364 Q175.718 376.364 178.82 378.794 Q181.922 381.202 181.922 385.322 Q181.922 388.192 180.278 390.183 Q178.635 392.151 175.602 392.914 Z" fill="#000000" fill-rule="evenodd" fill-opacity="1" /><path clip-path="url(#clip750)" d="M201.598 380.067 Q197.987 380.067 196.158 383.632 Q194.352 387.174 194.352 394.303 Q194.352 401.41 196.158 404.975 Q197.987 408.516 201.598 408.516 Q205.232 408.516 207.037 404.975 Q208.866 401.41 208.866 394.303 Q208.866 387.174 207.037 383.632 Q205.232 380.067 201.598 380.067 M201.598 376.364 Q207.408 376.364 210.463 380.97 Q213.542 385.553 213.542 394.303 Q213.542 403.03 210.463 407.637 Q207.408 412.22 201.598 412.22 Q195.787 412.22 192.709 407.637 Q189.653 403.03 189.653 394.303 Q189.653 385.553 192.709 380.97 Q195.787 376.364 201.598 376.364 Z" fill="#000000" fill-rule="evenodd" fill-opacity="1" /><path clip-path="url(#clip750)" d="M127.2 182.996 Q123.589 182.996 121.76 186.56 Q119.955 190.102 119.955 197.232 Q119.955 204.338 121.76 207.903 Q123.589 211.445 127.2 211.445 Q130.834 211.445 132.64 207.903 Q134.468 204.338 134.468 197.232 Q134.468 190.102 132.64 186.56 Q130.834 182.996 127.2 182.996 M127.2 179.292 Q133.01 179.292 136.066 183.898 Q139.144 188.482 139.144 197.232 Q139.144 205.959 136.066 210.565 Q133.01 215.148 127.2 215.148 Q121.39 215.148 118.311 210.565 Q115.256 205.959 115.256 197.232 Q115.256 188.482 118.311 183.898 Q121.39 179.292 127.2 179.292 Z" fill="#000000" fill-rule="evenodd" fill-opacity="1" /><path clip-path="url(#clip750)" d="M147.362 208.597 L152.246 208.597 L152.246 214.477 L147.362 214.477 L147.362 208.597 Z" fill="#000000" fill-rule="evenodd" fill-opacity="1" /><path clip-path="url(#clip750)" d="M176.598 195.843 Q179.954 196.56 181.829 198.829 Q183.727 201.097 183.727 204.431 Q183.727 209.546 180.209 212.347 Q176.69 215.148 170.209 215.148 Q168.033 215.148 165.718 214.708 Q163.427 214.292 160.973 213.435 L160.973 208.921 Q162.917 210.056 165.232 210.634 Q167.547 211.213 170.07 211.213 Q174.468 211.213 176.76 209.477 Q179.075 207.741 179.075 204.431 Q179.075 201.375 176.922 199.662 Q174.792 197.926 170.973 197.926 L166.945 197.926 L166.945 194.084 L171.158 194.084 Q174.607 194.084 176.436 192.718 Q178.264 191.329 178.264 188.736 Q178.264 186.074 176.366 184.662 Q174.491 183.227 170.973 183.227 Q169.052 183.227 166.852 183.644 Q164.653 184.06 162.015 184.94 L162.015 180.773 Q164.677 180.033 166.991 179.662 Q169.329 179.292 171.389 179.292 Q176.714 179.292 179.815 181.723 Q182.917 184.13 182.917 188.25 Q182.917 191.121 181.274 193.111 Q179.63 195.079 176.598 195.843 Z" fill="#000000" fill-rule="evenodd" fill-opacity="1" /><path clip-path="url(#clip750)" d="M192.639 179.917 L210.996 179.917 L210.996 183.852 L196.922 183.852 L196.922 192.324 Q197.94 191.977 198.959 191.815 Q199.977 191.63 200.996 191.63 Q206.783 191.63 210.162 194.801 Q213.542 197.972 213.542 203.389 Q213.542 208.968 210.07 212.07 Q206.598 215.148 200.278 215.148 Q198.102 215.148 195.834 214.778 Q193.588 214.408 191.181 213.667 L191.181 208.968 Q193.264 210.102 195.487 210.658 Q197.709 211.213 200.186 211.213 Q204.19 211.213 206.528 209.107 Q208.866 207 208.866 203.389 Q208.866 199.778 206.528 197.672 Q204.19 195.565 200.186 195.565 Q198.311 195.565 196.436 195.982 Q194.584 196.398 192.639 197.278 L192.639 179.917 Z" fill="#000000" fill-rule="evenodd" fill-opacity="1" /><path clip-path="url(#clip750)" d="M41.7242 1028.29 Q42.4244 1026.22 44.7161 1024.28 Q47.0077 1022.3 51.0181 1020.33 L64.0042 1013.8 L64.0042 1020.71 L51.8138 1026.79 Q47.0395 1029.14 45.48 1031.37 Q43.9204 1033.57 43.9204 1037.39 L43.9204 1044.39 L64.0042 1044.39 L64.0042 1050.82 L16.4842 1050.82 L16.4842 1036.31 Q16.4842 1028.16 19.8898 1024.15 Q23.2955 1020.14 30.1704 1020.14 Q34.6582 1020.14 37.6183 1022.24 Q40.5784 1024.31 41.7242 1028.29 M21.7677 1044.39 L38.6368 1044.39 L38.6368 1036.31 Q38.6368 1031.66 36.5043 1029.3 Q34.34 1026.92 30.1704 1026.92 Q26.0009 1026.92 23.9002 1029.3 Q21.7677 1031.66 21.7677 1036.31 L21.7677 1044.39 Z" fill="#000000" fill-rule="evenodd" fill-opacity="1" /><path clip-path="url(#clip750)" d="M44.7161 978.219 L47.5806 978.219 L47.5806 1005.15 Q53.6281 1004.76 56.8109 1001.52 Q59.9619 998.239 59.9619 992.415 Q59.9619 989.041 59.1344 985.89 Q58.3069 982.707 56.6518 979.588 L62.1899 979.588 Q63.5267 982.739 64.227 986.049 Q64.9272 989.359 64.9272 992.765 Q64.9272 1001.29 59.9619 1006.29 Q54.9967 1011.26 46.5303 1011.26 Q37.7774 1011.26 32.6531 1006.55 Q27.4968 1001.8 27.4968 993.783 Q27.4968 986.59 32.1438 982.421 Q36.7589 978.219 44.7161 978.219 M42.9973 984.076 Q38.1912 984.139 35.3266 986.781 Q32.4621 989.391 32.4621 993.72 Q32.4621 998.621 35.2312 1001.58 Q38.0002 1004.51 43.0292 1004.96 L42.9973 984.076 Z" fill="#000000" fill-rule="evenodd" fill-opacity="1" /><path clip-path="url(#clip750)" d="M46.0847 952.406 Q46.0847 959.504 47.7079 962.241 Q49.3312 964.979 53.2461 964.979 Q56.3653 964.979 58.2114 962.942 Q60.0256 960.873 60.0256 957.34 Q60.0256 952.47 56.5881 949.542 Q53.1188 946.582 47.3897 946.582 L46.0847 946.582 L46.0847 952.406 M43.6657 940.725 L64.0042 940.725 L64.0042 946.582 L58.5933 946.582 Q61.8398 948.587 63.3994 951.579 Q64.9272 954.571 64.9272 958.899 Q64.9272 964.374 61.8716 967.62 Q58.7843 970.835 53.6281 970.835 Q47.6125 970.835 44.5569 966.825 Q41.5014 962.782 41.5014 954.793 L41.5014 946.582 L40.9285 946.582 Q36.8862 946.582 34.6901 949.255 Q32.4621 951.897 32.4621 956.703 Q32.4621 959.759 33.1941 962.655 Q33.9262 965.552 35.3903 968.225 L29.9795 968.225 Q28.7381 965.01 28.1334 961.987 Q27.4968 958.963 27.4968 956.098 Q27.4968 948.364 31.5072 944.545 Q35.5176 940.725 43.6657 940.725 Z" fill="#000000" fill-rule="evenodd" fill-opacity="1" /><path clip-path="url(#clip750)" d="M14.479 928.662 L14.479 922.806 L64.0042 922.806 L64.0042 928.662 L14.479 928.662 Z" fill="#000000" fill-rule="evenodd" fill-opacity="1" /><path clip-path="url(#clip750)" d="M28.3562 910.552 L28.3562 904.695 L64.0042 904.695 L64.0042 910.552 L28.3562 910.552 M14.479 910.552 L14.479 904.695 L21.895 904.695 L21.895 910.552 L14.479 910.552 Z" fill="#000000" fill-rule="evenodd" fill-opacity="1" /><path clip-path="url(#clip750)" d="M29.4065 869.716 L34.9447 869.716 Q33.6716 872.198 33.035 874.872 Q32.3984 877.546 32.3984 880.41 Q32.3984 884.771 33.7352 886.967 Q35.072 889.131 37.7456 889.131 Q39.7826 889.131 40.9603 887.572 Q42.1061 886.012 43.1565 881.301 L43.6021 879.296 Q44.9389 873.058 47.3897 870.448 Q49.8086 867.806 54.1691 867.806 Q59.1344 867.806 62.0308 871.753 Q64.9272 875.668 64.9272 882.543 Q64.9272 885.407 64.3543 888.526 Q63.8132 891.614 62.6992 895.051 L56.6518 895.051 Q58.3387 891.805 59.198 888.654 Q60.0256 885.503 60.0256 882.415 Q60.0256 878.278 58.6251 876.05 Q57.1929 873.822 54.6147 873.822 Q52.2276 873.822 50.9545 875.445 Q49.6813 877.036 48.5037 882.479 L48.0262 884.516 Q46.8804 889.959 44.5251 892.378 Q42.138 894.797 38.0002 894.797 Q32.9713 894.797 30.2341 891.232 Q27.4968 887.667 27.4968 881.11 Q27.4968 877.864 27.9743 874.999 Q28.4517 872.135 29.4065 869.716 Z" fill="#000000" fill-rule="evenodd" fill-opacity="1" /><path clip-path="url(#clip750)" d="M44.7161 827.989 L47.5806 827.989 L47.5806 854.916 Q53.6281 854.534 56.8109 851.287 Q59.9619 848.009 59.9619 842.184 Q59.9619 838.81 59.1344 835.659 Q58.3069 832.476 56.6518 829.357 L62.1899 829.357 Q63.5267 832.508 64.227 835.818 Q64.9272 839.129 64.9272 842.534 Q64.9272 851.064 59.9619 856.061 Q54.9967 861.027 46.5303 861.027 Q37.7774 861.027 32.6531 856.316 Q27.4968 851.574 27.4968 843.553 Q27.4968 836.36 32.1438 832.19 Q36.7589 827.989 44.7161 827.989 M42.9973 833.845 Q38.1912 833.909 35.3266 836.55 Q32.4621 839.16 32.4621 843.489 Q32.4621 848.391 35.2312 851.351 Q38.0002 854.279 43.0292 854.725 L42.9973 833.845 Z" fill="#000000" fill-rule="evenodd" fill-opacity="1" /><path clip-path="url(#clip750)" d="M33.7671 794.919 L14.479 794.919 L14.479 789.062 L64.0042 789.062 L64.0042 794.919 L58.657 794.919 Q61.8398 796.765 63.3994 799.598 Q64.9272 802.398 64.9272 806.345 Q64.9272 812.806 59.771 816.88 Q54.6147 820.923 46.212 820.923 Q37.8093 820.923 32.6531 816.88 Q27.4968 812.806 27.4968 806.345 Q27.4968 802.398 29.0564 799.598 Q30.5842 796.765 33.7671 794.919 M46.212 814.875 Q52.6732 814.875 56.3653 812.233 Q60.0256 809.56 60.0256 804.913 Q60.0256 800.266 56.3653 797.592 Q52.6732 794.919 46.212 794.919 Q39.7508 794.919 36.0905 797.592 Q32.3984 800.266 32.3984 804.913 Q32.3984 809.56 36.0905 812.233 Q39.7508 814.875 46.212 814.875 Z" fill="#000000" fill-rule="evenodd" fill-opacity="1" /><path clip-path="url(#clip750)" d="M64.0042 743.77 L16.4842 761.913 L16.4842 755.197 L56.4926 740.142 L16.4842 725.055 L16.4842 718.371 L64.0042 736.482 L64.0042 743.77 Z" fill="#000000" fill-rule="evenodd" fill-opacity="1" /><path clip-path="url(#clip750)" d="M32.4621 702.934 Q32.4621 707.645 36.1542 710.382 Q39.8145 713.119 46.212 713.119 Q52.6095 713.119 56.3017 710.414 Q59.9619 707.677 59.9619 702.934 Q59.9619 698.255 56.2698 695.518 Q52.5777 692.781 46.212 692.781 Q39.8781 692.781 36.186 695.518 Q32.4621 698.255 32.4621 702.934 M27.4968 702.934 Q27.4968 695.295 32.4621 690.935 Q37.4273 686.574 46.212 686.574 Q54.9649 686.574 59.9619 690.935 Q64.9272 695.295 64.9272 702.934 Q64.9272 710.605 59.9619 714.965 Q54.9649 719.294 46.212 719.294 Q37.4273 719.294 32.4621 714.965 Q27.4968 710.605 27.4968 702.934 Z" fill="#000000" fill-rule="evenodd" fill-opacity="1" /><path clip-path="url(#clip750)" d="M14.479 676.867 L14.479 671.01 L64.0042 671.01 L64.0042 676.867 L14.479 676.867 Z" fill="#000000" fill-rule="evenodd" fill-opacity="1" /><path clip-path="url(#clip750)" d="M46.0847 642.556 Q46.0847 649.653 47.7079 652.391 Q49.3312 655.128 53.2461 655.128 Q56.3653 655.128 58.2114 653.091 Q60.0256 651.022 60.0256 647.489 Q60.0256 642.619 56.5881 639.691 Q53.1188 636.731 47.3897 636.731 L46.0847 636.731 L46.0847 642.556 M43.6657 630.874 L64.0042 630.874 L64.0042 636.731 L58.5933 636.731 Q61.8398 638.736 63.3994 641.728 Q64.9272 644.72 64.9272 649.049 Q64.9272 654.523 61.8716 657.77 Q58.7843 660.984 53.6281 660.984 Q47.6125 660.984 44.5569 656.974 Q41.5014 652.932 41.5014 644.943 L41.5014 636.731 L40.9285 636.731 Q36.8862 636.731 34.6901 639.405 Q32.4621 642.046 32.4621 646.852 Q32.4621 649.908 33.1941 652.804 Q33.9262 655.701 35.3903 658.374 L29.9795 658.374 Q28.7381 655.16 28.1334 652.136 Q27.4968 649.112 27.4968 646.248 Q27.4968 638.513 31.5072 634.694 Q35.5176 630.874 43.6657 630.874 Z" fill="#000000" fill-rule="evenodd" fill-opacity="1" /><path clip-path="url(#clip750)" d="M18.2347 613.019 L28.3562 613.019 L28.3562 600.956 L32.9077 600.956 L32.9077 613.019 L52.2594 613.019 Q56.6199 613.019 57.8613 611.841 Q59.1026 610.632 59.1026 606.971 L59.1026 600.956 L64.0042 600.956 L64.0042 606.971 Q64.0042 613.751 61.4897 616.329 Q58.9434 618.907 52.2594 618.907 L32.9077 618.907 L32.9077 623.204 L28.3562 623.204 L28.3562 618.907 L18.2347 618.907 L18.2347 613.019 Z" fill="#000000" fill-rule="evenodd" fill-opacity="1" /><path clip-path="url(#clip750)" d="M28.3562 593.253 L28.3562 587.397 L64.0042 587.397 L64.0042 593.253 L28.3562 593.253 M14.479 593.253 L14.479 587.397 L21.895 587.397 L21.895 593.253 L14.479 593.253 Z" fill="#000000" fill-rule="evenodd" fill-opacity="1" /><path clip-path="url(#clip750)" d="M14.479 575.143 L14.479 569.286 L64.0042 569.286 L64.0042 575.143 L14.479 575.143 Z" fill="#000000" fill-rule="evenodd" fill-opacity="1" /><path clip-path="url(#clip750)" d="M28.3562 557.032 L28.3562 551.176 L64.0042 551.176 L64.0042 557.032 L28.3562 557.032 M14.479 557.032 L14.479 551.176 L21.895 551.176 L21.895 557.032 L14.479 557.032 Z" fill="#000000" fill-rule="evenodd" fill-opacity="1" /><path clip-path="url(#clip750)" d="M18.2347 533.129 L28.3562 533.129 L28.3562 521.066 L32.9077 521.066 L32.9077 533.129 L52.2594 533.129 Q56.6199 533.129 57.8613 531.951 Q59.1026 530.742 59.1026 527.082 L59.1026 521.066 L64.0042 521.066 L64.0042 527.082 Q64.0042 533.861 61.4897 536.439 Q58.9434 539.017 52.2594 539.017 L32.9077 539.017 L32.9077 543.314 L28.3562 543.314 L28.3562 539.017 L18.2347 539.017 L18.2347 533.129 Z" fill="#000000" fill-rule="evenodd" fill-opacity="1" /><path clip-path="url(#clip750)" d="M67.3143 498.531 Q73.68 501.014 75.6216 503.369 Q77.5631 505.725 77.5631 509.671 L77.5631 514.35 L72.6615 514.35 L72.6615 510.913 Q72.6615 508.494 71.5157 507.157 Q70.3699 505.82 66.1048 504.197 L63.4312 503.147 L28.3562 517.565 L28.3562 511.358 L56.238 500.218 L28.3562 489.078 L28.3562 482.872 L67.3143 498.531 Z" fill="#000000" fill-rule="evenodd" fill-opacity="1" /><polyline clip-path="url(#clip752)" style="stroke:#009af9; stroke-linecap:butt; stroke-linejoin:round; stroke-width:8; stroke-opacity:1; fill:none" points="
  309.067,1121.23 316.204,1105.7 323.342,1111.66 330.479,1111.38 337.616,1117.35 344.753,1117.94 351.891,1117.84 359.028,1114.59 366.165,1099.42 373.302,1098.5 
  380.44,1099.66 387.577,1176.52 394.714,1170.68 401.852,1234.32 408.989,1233.13 416.126,1225.99 423.263,1189.58 430.401,1190.02 437.538,1179.46 444.675,1175.1 
  451.813,1189.6 458.95,1209.98 466.087,1211.65 473.224,1209.37 480.362,1209.67 487.499,1178.9 494.636,1168.18 501.774,1136.34 508.911,1163.5 516.048,1160.03 
  523.185,1147.15 530.323,1147.15 537.46,1152.2 544.597,1129.64 551.734,1129.46 558.872,1138.14 566.009,1173.56 573.146,1154.45 580.284,1193.32 587.421,1190.89 
  594.558,1185.41 601.695,1195.47 608.833,1192.51 615.97,1147.74 623.107,1139.64 630.245,1163.59 637.382,1171.25 644.519,1204.66 651.656,1201.28 658.794,1202.48 
  665.931,1209.99 673.068,1211.28 680.206,1209.81 687.343,1224.57 694.48,1224.46 701.617,1162.99 708.755,1154.62 715.892,1166.51 723.029,1164.96 730.167,1171.78 
  737.304,1163.28 744.441,1164.13 751.578,1167.99 758.716,1213.07 765.853,1208.08 772.99,1202.95 780.127,1122.96 787.265,1129.06 794.402,1131.78 801.539,1083.15 
  808.677,1076.36 815.814,1075.9 822.951,1045.51 830.088,1054.96 837.226,1054.89 844.363,1100.31 851.5,1111.36 858.638,1118.76 865.775,1114.05 872.912,1113.63 
  880.049,1122.36 887.187,1121.58 894.324,1114.6 901.461,1114.79 908.599,1118.42 915.736,1122.14 922.873,1201 930.01,1189.88 937.148,1127.48 944.285,1163.82 
  951.422,1142.4 958.559,1136.69 965.697,1123.53 972.834,1108.61 979.971,1107.08 987.109,1097.83 994.246,1070.25 1001.38,1063.97 1008.52,1067.32 1015.66,1065.32 
  1022.8,1056.94 1029.93,1047.76 1037.07,1055.2 1044.21,1049.12 1051.34,1054.34 1058.48,1040.86 1065.62,1014.46 1072.76,1021.59 1079.89,1070.85 1087.03,1020.88 
  1094.17,1039.02 1101.31,1025.29 1108.44,1060.08 1115.58,1068.28 1122.72,1042.97 1129.85,1021.96 1136.99,1031.79 1144.13,1036.46 1151.27,996.277 1158.4,994.123 
  1165.54,971.859 1172.68,924.626 1179.82,913.041 1186.95,917.254 1194.09,918.373 1201.23,927.754 1208.36,917.043 1215.5,876.912 1222.64,871.662 1229.78,903.602 
  1236.91,910.185 1244.05,923.457 1251.19,928.701 1258.33,928.019 1265.46,945.856 1272.6,969.731 1279.74,979.368 1286.87,979.875 1294.01,1017.81 1301.15,1010.6 
  1308.29,1044.88 1315.42,1115.04 1322.56,1131.26 1329.7,1129.22 1336.84,1122.54 1343.97,1105.31 1351.11,1154.13 1358.25,1230.35 1365.38,1240.37 1372.52,1255.15 
  1379.66,1235.45 1386.8,1232.29 1393.93,1228.71 1401.07,1237.45 1408.21,1246.78 1415.35,1250.94 1422.48,1250.75 1429.62,1222.67 1436.76,1216.61 1443.89,1219.35 
  1451.03,1204.48 1458.17,1204.33 1465.31,1191.27 1472.44,1198.68 1479.58,1206.82 1486.72,1237.33 1493.86,1237.95 1500.99,1238.25 1508.13,1237.06 1515.27,1245.76 
  1522.4,1268.14 1529.54,1277.89 1536.68,1282.67 1543.82,1276.75 1550.95,1274.34 1558.09,1276.11 1565.23,1280.09 1572.37,1294.91 1579.5,1311.02 1586.64,1294.29 
  1593.78,1297.99 1600.91,1235.12 1608.05,1234.2 1615.19,1234.43 1622.33,1232.42 1629.46,1224.73 1636.6,1217.16 1643.74,1204.73 1650.88,1188.5 1658.01,1198.88 
  1665.15,1193.43 1672.29,1128.68 1679.42,1122.33 1686.56,1122.72 1693.7,1105.37 1700.84,1104.68 1707.97,1095.58 1715.11,1089.86 1722.25,1089.36 1729.39,1057.42 
  1736.52,1001.39 1743.66,1036.18 1750.8,1046.26 1757.93,1045.14 1765.07,1044.91 1772.21,639.996 1779.35,624.505 1786.48,421.87 1793.62,424.329 1800.76,423.828 
  1807.9,424.058 1815.03,431.757 1822.17,411.344 1829.31,412.282 1836.45,411.718 1843.58,411.108 1850.72,413.448 1857.86,414.717 1864.99,410.125 1872.13,429.641 
  1879.27,460.82 1886.41,458.354 1893.54,458.477 1900.68,458.768 1907.82,457.774 1914.96,768.884 1922.09,787.223 1929.23,1143.87 1936.37,1140.47 1943.5,1141.16 
  1950.64,1145.25 1957.78,1178.41 1964.92,1251.82 1972.05,1253.56 1979.19,1274.56 1986.33,1277.88 1993.47,1030.99 2000.6,1040.81 2007.74,1051.2 2014.88,1057.51 
  2022.01,1036.94 2029.15,1028.18 2036.29,1028.21 2043.43,1028.52 2050.56,1032.14 2057.7,1031.94 2064.84,1033.31 2071.98,1032.53 2079.11,1040.31 2086.25,1039.58 
  2093.39,1034.88 2100.52,1023.03 2107.66,1022.56 2114.8,1022.33 2121.94,1027.19 2129.07,1019.52 2136.21,1268.68 2143.35,1269.64 2150.49,1243.4 2157.62,1242.16 
  2164.76,1275.87 2171.9,1275.17 2179.03,1263.37 2186.17,1262.68 2193.31,1242.32 2200.45,1239.01 2207.58,1238.94 2214.72,1240.06 2221.86,1233.75 2229,1241.12 
  2236.13,1234.35 2243.27,1267.27 2250.41,1267.42 2257.54,1267.67 2264.68,1258.01 2271.82,1271.43 2278.96,1270.1 2286.09,1274.2 2293.23,1298.7 
  "/>
<polyline clip-path="url(#clip752)" style="stroke:#e26f46; stroke-linecap:butt; stroke-linejoin:round; stroke-width:8; stroke-opacity:1; fill:none" points="
  309.067,1057.79 316.204,1064.62 323.342,1075.48 330.479,1075.84 337.616,1081.62 344.753,1079.74 351.891,1079.51 359.028,1089.03 366.165,1068.07 373.302,1059.87 
  380.44,1057.71 387.577,1136.59 394.714,1122.56 401.852,1193.04 408.989,1193.12 416.126,1159.48 423.263,1101.16 430.401,1101.58 437.538,1121.68 444.675,1124.06 
  451.813,1131.16 458.95,1121.97 466.087,1118.35 473.224,1120.88 480.362,1113.78 487.499,1110.28 494.636,1100.28 501.774,1061.9 508.911,1088.09 516.048,1097.14 
  523.185,1102.2 530.323,1107 537.46,1132.86 544.597,1108.05 551.734,1107.63 558.872,1138.61 566.009,1203.74 573.146,1175.84 580.284,1166.73 587.421,1155.14 
  594.558,1139.44 601.695,1150.04 608.833,1151.55 615.97,1120.28 623.107,1116.14 630.245,1123.24 637.382,1133.18 644.519,1183.52 651.656,1184.5 658.794,1185.98 
  665.931,1179.59 673.068,1182.05 680.206,1180.7 687.343,1210.84 694.48,1205.34 701.617,1172.22 708.755,1173.7 715.892,1184.89 723.029,1195.74 730.167,1209.64 
  737.304,1211.28 744.441,1209.72 751.578,1202.36 758.716,1245.06 765.853,1259.42 772.99,1209.37 780.127,1112.87 787.265,1101.01 794.402,1084.13 801.539,1051.07 
  808.677,1014.26 815.814,1012.45 822.951,983.927 830.088,978.928 837.226,978.342 844.363,1000.11 851.5,1008.11 858.638,1020.49 865.775,1015.02 872.912,1014.02 
  880.049,1025.98 887.187,1026.55 894.324,1020.58 901.461,1018.73 908.599,985.57 915.736,1013.07 922.873,1084.09 930.01,1075.25 937.148,1045.06 944.285,1041.27 
  951.422,1060.56 958.559,1052.87 965.697,1054.36 972.834,1048.94 979.971,1052.55 987.109,1034.95 994.246,1024.04 1001.38,1024.81 1008.52,1025.61 1015.66,1025.85 
  1022.8,1017.19 1029.93,971.716 1037.07,973.243 1044.21,969.256 1051.34,1002.77 1058.48,976.698 1065.62,957.534 1072.76,971.122 1079.89,1011.93 1087.03,1007.93 
  1094.17,1026.9 1101.31,1021.84 1108.44,1034.64 1115.58,1045.34 1122.72,1037.35 1129.85,1042.61 1136.99,1039.18 1144.13,1038.74 1151.27,1009.97 1158.4,995.274 
  1165.54,989.757 1172.68,923.255 1179.82,929.53 1186.95,923.097 1194.09,919.111 1201.23,943.355 1208.36,928.012 1215.5,884.643 1222.64,881.981 1229.78,879.991 
  1236.91,876.281 1244.05,883.323 1251.19,897.092 1258.33,885.491 1265.46,892.166 1272.6,902.293 1279.74,907.943 1286.87,906.875 1294.01,932.133 1301.15,935.887 
  1308.29,946.029 1315.42,1064.1 1322.56,1068.29 1329.7,1078.28 1336.84,1053.6 1343.97,1035.6 1351.11,1078.44 1358.25,1137.04 1365.38,1141.21 1372.52,1180.19 
  1379.66,1185.52 1386.8,1192.5 1393.93,1194.3 1401.07,1213.16 1408.21,1214.25 1415.35,1209.93 1422.48,1195.69 1429.62,1171.4 1436.76,1172.63 1443.89,1181.13 
  1451.03,1185 1458.17,1185.86 1465.31,1184.12 1472.44,1190.36 1479.58,1231.78 1486.72,1263.04 1493.86,1262.9 1500.99,1270.69 1508.13,1270.47 1515.27,1262.32 
  1522.4,1271.99 1529.54,1273 1536.68,1270.83 1543.82,1273.88 1550.95,1268.82 1558.09,1272.17 1565.23,1285.31 1572.37,1277.16 1579.5,1282.28 1586.64,1281.49 
  1593.78,1286.4 1600.91,1235.15 1608.05,1229.21 1615.19,1228.75 1622.33,1228.24 1629.46,1220.95 1636.6,1210.51 1643.74,1198.67 1650.88,1181.14 1658.01,1180.13 
  1665.15,1176.97 1672.29,1114.74 1679.42,1112.58 1686.56,1111.28 1693.7,1098.29 1700.84,1091.13 1707.97,1083.16 1715.11,988.525 1722.25,979.024 1729.39,952.969 
  1736.52,877.317 1743.66,897.261 1750.8,900.599 1757.93,883.681 1765.07,884.978 1772.21,269.804 1779.35,261.917 1786.48,194.58 1793.62,199.528 1800.76,206.451 
  1807.9,197.743 1815.03,214.347 1822.17,215.609 1829.31,216.101 1836.45,217.11 1843.58,219.868 1850.72,211.475 1857.86,257.884 1864.99,258.561 1872.13,266.786 
  1879.27,305.29 1886.41,306.203 1893.54,304.846 1900.68,314.061 1907.82,312.104 1914.96,975.2 1922.09,982.51 1929.23,1177.32 1936.37,1164.69 1943.5,1162.99 
  1950.64,1196.06 1957.78,1190.06 1964.92,1190.06 1972.05,1188.74 1979.19,1187.55 1986.33,1187.65 1993.47,1053.46 2000.6,1033.35 2007.74,1040.16 2014.88,1041.57 
  2022.01,1027.88 2029.15,1029.51 2036.29,1031.64 2043.43,1032.23 2050.56,1036.36 2057.7,1034.91 2064.84,1054.77 2071.98,1052.99 2079.11,1062.68 2086.25,1063.03 
  2093.39,1063.27 2100.52,1066.34 2107.66,1063.94 2114.8,1064.8 2121.94,1072.4 2129.07,1064.81 2136.21,1255.23 2143.35,1293.95 2150.49,1267.67 2157.62,1293.5 
  2164.76,1313.29 2171.9,1310.67 2179.03,1311.42 2186.17,1309.22 2193.31,1290.63 2200.45,1293.24 2207.58,1291.78 2214.72,1295.05 2221.86,1264.22 2229,1263.18 
  2236.13,1249.02 2243.27,1264.04 2250.41,1267.39 2257.54,1262.19 2264.68,1265.84 2271.82,1280.24 2278.96,1283.73 2286.09,1284.16 2293.23,1310.35 
  "/>
<polyline clip-path="url(#clip752)" style="stroke:#3da44d; stroke-linecap:butt; stroke-linejoin:round; stroke-width:8; stroke-opacity:1; fill:none" points="
  316.204,1293.4 323.342,1293.4 330.479,1293.4 337.616,1303.7 344.753,1349.49 351.891,1349.49 359.028,1337.21 366.165,1337.21 373.302,1349.46 380.44,1349.46 
  387.577,1362.44 394.714,1376.26 401.852,1362.44 408.989,1362.44 423.263,1349.46 430.401,1362.47 437.538,1362.47 444.675,1376.33 451.813,1391.22 458.95,1391.22 
  466.087,1407.41 480.362,1407.41 487.499,1407.45 494.636,1391.32 501.774,1391.32 508.911,1376.49 516.048,1376.52 523.185,1376.52 530.323,1376.52 537.46,1376.52 
  544.597,1376.52 551.734,1376.52 566.009,1376.55 573.146,1391.43 587.421,1391.46 594.558,1376.62 601.695,1376.62 608.833,1376.62 615.97,1362.83 623.107,1349.89 
  630.245,1337.64 637.382,1337.64 644.519,1337.67 651.656,1349.94 658.794,1349.94 665.931,1349.94 673.068,1349.94 680.206,1337.67 687.343,1337.67 694.48,1325.99 
  701.617,1314.83 708.755,1304.11 715.892,1304.08 723.029,1304.08 730.167,1314.78 737.304,1314.76 751.578,1304.04 765.853,1293.72 772.99,1293.67 787.265,1303.94 
  794.402,1303.89 801.539,1293.58 808.677,1303.85 815.814,1303.85 822.951,1303.85 830.088,1303.82 837.226,1303.8 844.363,1303.78 851.5,1293.47 858.638,1293.45 
  865.775,1293.42 872.912,1303.73 880.049,1314.44 887.187,1314.44 894.324,1314.44 901.461,1325.6 908.599,1325.6 915.736,1325.6 922.873,1337.29 930.01,1337.29 
  937.148,1349.57 944.285,1362.56 951.422,1362.56 958.559,1362.56 965.697,1349.57 972.834,1349.57 979.971,1362.56 994.246,1362.56 1001.38,1362.56 1008.52,1376.39 
  1015.66,1391.25 1022.8,1391.25 1029.93,1391.25 1037.07,1391.25 1044.21,1376.39 1051.34,1362.56 1058.48,1362.56 1065.62,1376.39 1072.76,1376.39 1079.89,1362.56 
  1087.03,1349.57 1094.17,1349.57 1101.31,1337.29 1108.44,1337.29 1115.58,1349.57 1122.72,1362.56 1129.85,1349.57 1136.99,1349.57 1151.27,1362.56 1158.4,1362.56 
  1165.54,1349.57 1172.68,1349.57 1179.82,1337.29 1186.95,1337.29 1194.09,1349.57 1208.36,1362.56 1215.5,1376.39 1222.64,1362.56 1229.78,1349.57 1236.91,1349.57 
  1244.05,1349.57 1251.19,1337.29 1258.33,1349.57 1265.46,1337.29 1272.6,1337.29 1279.74,1337.29 1286.87,1349.57 1294.01,1362.56 1301.15,1362.56 1308.29,1362.56 
  1315.42,1376.39 1322.56,1376.39 1329.7,1391.25 1343.97,1391.25 1351.11,1376.39 1358.25,1376.39 1365.38,1362.56 1372.52,1376.39 1379.66,1391.25 1386.8,1391.29 
  1393.93,1391.32 1401.07,1407.49 1429.62,1391.36 1436.76,1391.39 1443.89,1391.39 1451.03,1376.55 1472.44,1362.74 1479.58,1362.74 1493.86,1362.74 1500.99,1362.74 
  1515.27,1362.74 1522.4,1362.74 1536.68,1362.74 1543.82,1362.74 1550.95,1376.59 1558.09,1376.59 1565.23,1376.62 1572.37,1376.62 1579.5,1376.62 1600.91,1391.46 
  1615.19,1391.46 1629.46,1376.62 1636.6,1391.46 1650.88,1407.6 1658.01,1407.6 1665.15,1425.45 1679.42,1445.72 1686.56,1425.45 1693.7,1425.45 1700.84,1407.6 
  1707.97,1407.6 1715.11,1407.6 1722.25,1407.6 1729.39,1391.46 1736.52,1376.62 1743.66,1376.62 1750.8,1391.46 1757.93,1391.46 1765.07,1391.46 1772.21,1376.62 
  1779.35,1376.62 1793.62,1376.62 1800.76,1325.94 1807.9,1314.81 1815.03,1314.81 1822.17,1304.11 1829.31,1304.11 1836.45,1314.81 1843.58,1314.81 1850.72,1325.96 
  1857.86,1314.78 1864.99,1314.78 1872.13,1304.06 1879.27,1314.76 1886.41,1325.91 1893.54,1325.91 1900.68,1325.91 1907.82,1314.73 1914.96,1304.01 1922.09,1314.71 
  1929.23,1325.86 1936.37,1337.53 1943.5,1391.36 1950.64,1407.45 1957.78,1407.45 1964.92,1425.28 1972.05,1425.28 1979.19,1425.28 1986.33,1425.28 1993.47,1407.45 
  2000.6,1407.49 2007.74,1407.49 2014.88,1425.37 2022.01,1407.49 2029.15,1391.32 2036.29,1391.32 2043.43,1376.46 2050.56,1391.32 2057.7,1391.32 2064.84,1376.49 
  2071.98,1376.49 2079.11,1376.49 2086.25,1376.49 2093.39,1362.68 2100.52,1349.72 2107.66,1337.45 2114.8,1337.45 2121.94,1325.78 2129.07,1314.63 2136.21,1325.78 
  2143.35,1325.76 2150.49,1314.58 2157.62,1314.58 2164.76,1325.76 2171.9,1337.45 2179.03,1325.76 2186.17,1325.76 2193.31,1325.76 2200.45,1337.45 2207.58,1349.72 
  2214.72,1349.72 2221.86,1337.42 2229,1325.73 2236.13,1325.71 2243.27,1325.65 2250.41,1337.31 2257.54,1337.31 2264.68,1337.26 2271.82,1349.52 2278.96,1337.21 
  2286.09,1337.18 2293.23,1349.46 
  "/>
<polyline clip-path="url(#clip752)" style="stroke:#c271d2; stroke-linecap:butt; stroke-linejoin:round; stroke-width:8; stroke-opacity:1; fill:none" points="
  309.067,633.491 316.204,613.369 323.342,612.432 330.479,592.51 337.616,612.314 344.753,592.394 351.891,612.314 359.028,612.314 366.165,553.155 373.302,534.144 
  380.44,553.042 387.577,552.93 394.714,552.93 401.852,553.042 408.989,572.295 416.126,572.41 423.263,653.189 430.401,653.189 437.538,717.89 444.675,740.523 
  451.813,763.787 458.95,787.736 466.087,865.194 473.224,893.016 480.362,865.194 487.499,893.016 494.636,787.88 501.774,763.788 508.911,866.647 516.048,894.866 
  523.185,894.866 530.323,895.035 537.46,895.035 544.597,814.088 551.734,788.903 558.872,788.757 566.009,764.357 573.146,740.806 580.284,764.217 587.421,740.67 
  594.558,717.635 601.695,717.635 608.833,651.967 615.97,631.333 623.107,631.572 630.245,611.49 637.382,695.328 644.519,695.456 651.656,673.951 658.794,673.951 
  665.931,673.951 673.068,695.713 680.206,695.97 687.343,789.326 694.48,789.76 701.617,790.05 708.755,815.273 715.892,841.204 723.029,815.273 730.167,815.273 
  737.304,815.574 744.441,790.632 751.578,869.053 758.716,896.865 765.853,896.699 772.99,896.366 780.127,789.614 787.265,788.885 794.402,788.156 801.539,763.488 
  808.677,763.488 815.814,671.772 822.951,693.223 830.088,671.394 837.226,671.017 844.363,670.765 851.5,670.765 858.638,649.465 865.775,649.341 872.912,649.217 
  880.049,670.259 887.187,691.801 894.324,713.881 901.461,691.543 908.599,691.285 915.736,626.582 922.873,626.092 930.01,647.107 937.148,585.634 944.285,526.858 
  951.422,453.474 958.559,507.212 965.697,507.212 972.834,525.626 979.971,544.368 987.109,488.038 994.246,488.038 1001.38,506.122 1008.52,505.905 1015.66,505.687 
  1022.8,487.397 1029.93,417.32 1037.07,400.503 1044.21,417.22 1051.34,417.12 1058.48,469.41 1065.62,543.013 1072.76,543.013 1079.89,602.033 1087.03,665.774 
  1094.17,757.971 1101.31,688.393 1108.44,666.295 1115.58,644.847 1122.72,564.277 1129.85,645.851 1136.99,625.229 1144.13,625.229 1151.27,625.595 1158.4,625.96 
  1165.54,646.972 1172.68,713.333 1179.82,713.732 1186.95,691.656 1194.09,692.173 1201.23,692.559 1208.36,670.999 1215.5,670.999 1222.64,671.252 1229.78,609.554 
  1236.91,589.691 1244.05,673.557 1251.19,695.837 1258.33,718.559 1265.46,790.205 1272.6,790.205 1279.74,790.205 1286.87,765.904 1294.01,765.904 1301.15,766.044 
  1308.29,742.582 1315.42,742.582 1322.56,742.582 1329.7,742.582 1336.84,742.447 1343.97,675.856 1351.11,697.535 1358.25,697.535 1365.38,719.763 1372.52,790.638 
  1379.66,790.783 1386.8,790.783 1393.93,790.783 1401.07,790.783 1408.21,790.783 1415.35,766.464 1422.48,790.783 1429.62,790.928 1436.76,816.029 1443.89,816.029 
  1451.03,841.832 1458.17,767.165 1465.31,698.825 1472.44,698.825 1479.58,698.825 1486.72,767.165 1493.86,767.165 1500.99,767.165 1508.13,767.165 1515.27,767.025 
  1522.4,791.217 1529.54,766.885 1536.68,676.359 1543.82,676.359 1550.95,698.181 1558.09,698.31 1565.23,698.31 1572.37,698.181 1579.5,698.181 1586.64,698.051 
  1593.78,698.051 1600.91,766.325 1608.05,840.907 1615.19,840.907 1622.33,840.907 1629.46,840.907 1636.6,840.907 1643.74,815.284 1650.88,790.495 1658.01,815.432 
  1665.15,815.432 1672.29,815.582 1679.42,925.172 1686.56,896.034 1693.7,896.034 1700.84,924.997 1707.97,924.997 1715.11,924.821 1722.25,895.36 1729.39,813.773 
  1736.52,788.744 1743.66,788.6 1750.8,813.475 1757.93,839.188 1765.07,838.878 1772.21,516.015 1779.35,498.186 1786.48,366.692 1793.62,367.057 1800.76,367.057 
  1807.9,351.663 1815.03,234.532 1822.17,179.328 1829.31,139.666 1836.45,87.9763 1843.58,87.9763 1850.72,87.9763 1857.86,88.4292 1864.99,101.684 1872.13,155.777 
  1879.27,156.093 1886.41,169.822 1893.54,169.822 1900.68,156.41 1907.82,170.223 1914.96,410.974 1922.09,411.069 1929.23,567.044 1936.37,566.827 1943.5,548.225 
  1950.64,548.012 1957.78,728.815 1964.92,798.642 1972.05,875.542 1979.19,961.989 1986.33,932.055 1993.47,932.055 2000.6,961.989 2007.74,961.989 2014.88,961.989 
  2022.01,993.647 2029.15,993.647 2036.29,993.647 2043.43,1027.13 2050.56,902.794 2057.7,875.067 2064.84,797.355 2071.98,773.119 2079.11,797.07 2086.25,821.779 
  2093.39,821.484 2100.52,726.196 2107.66,748.655 2114.8,748.256 2121.94,747.859 2129.07,747.592 2136.21,724.902 2143.35,724.902 2150.49,724.902 2157.62,702.801 
  2164.76,681.245 2171.9,681.245 2179.03,681.245 2186.17,660.196 2193.31,747.325 2200.45,747.19 2207.58,819.439 2214.72,819.587 2221.86,794.805 2229,794.805 
  2236.13,794.948 2243.27,899.848 2250.41,899.848 2257.54,899.848 2264.68,928.634 2271.82,928.462 2278.96,958.58 2286.09,928.289 2293.23,899.352 
  "/>
<path clip-path="url(#clip750)" d="
M319.649 354.418 L796.949 354.418 L796.949 95.2176 L319.649 95.2176  Z
  " fill="#ffffff" fill-rule="evenodd" fill-opacity="1"/>
<polyline clip-path="url(#clip750)" style="stroke:#000000; stroke-linecap:butt; stroke-linejoin:round; stroke-width:4; stroke-opacity:1; fill:none" points="
  319.649,354.418 796.949,354.418 796.949,95.2176 319.649,95.2176 319.649,354.418 
  "/>
<polyline clip-path="url(#clip750)" style="stroke:#009af9; stroke-linecap:butt; stroke-linejoin:round; stroke-width:4; stroke-opacity:1; fill:none" points="
  343.018,147.058 483.232,147.058 
  "/>
<path clip-path="url(#clip750)" d="M511.277 147.833 L511.277 160.495 L518.777 160.495 Q522.55 160.495 524.356 158.944 Q526.185 157.37 526.185 154.152 Q526.185 150.912 524.356 149.384 Q522.55 147.833 518.777 147.833 L511.277 147.833 M511.277 133.62 L511.277 144.037 L518.199 144.037 Q521.625 144.037 523.291 142.764 Q524.981 141.467 524.981 138.828 Q524.981 136.213 523.291 134.916 Q521.625 133.62 518.199 133.62 L511.277 133.62 M506.602 129.778 L518.546 129.778 Q523.893 129.778 526.787 132 Q529.68 134.222 529.68 138.319 Q529.68 141.49 528.199 143.365 Q526.717 145.24 523.847 145.703 Q527.296 146.444 529.194 148.805 Q531.115 151.143 531.115 154.662 Q531.115 159.291 527.967 161.814 Q524.819 164.338 519.009 164.338 L506.602 164.338 L506.602 129.778 Z" fill="#000000" fill-rule="evenodd" fill-opacity="1" /><path clip-path="url(#clip750)" d="M534.333 129.778 L563.569 129.778 L563.569 133.713 L551.3 133.713 L551.3 164.338 L546.601 164.338 L546.601 133.713 L534.333 133.713 L534.333 129.778 Z" fill="#000000" fill-rule="evenodd" fill-opacity="1" /><path clip-path="url(#clip750)" d="M591.184 132.44 L591.184 137.37 Q588.823 135.171 586.138 134.083 Q583.476 132.995 580.467 132.995 Q574.541 132.995 571.393 136.629 Q568.245 140.24 568.245 147.092 Q568.245 153.921 571.393 157.555 Q574.541 161.166 580.467 161.166 Q583.476 161.166 586.138 160.078 Q588.823 158.99 591.184 156.791 L591.184 161.676 Q588.731 163.342 585.976 164.176 Q583.245 165.009 580.189 165.009 Q572.342 165.009 567.828 160.217 Q563.314 155.402 563.314 147.092 Q563.314 138.759 567.828 133.967 Q572.342 129.153 580.189 129.153 Q583.291 129.153 586.022 129.986 Q588.777 130.796 591.184 132.44 Z" fill="#000000" fill-rule="evenodd" fill-opacity="1" /><path clip-path="url(#clip750)" d="M596.069 149.453 L608.545 149.453 L608.545 153.25 L596.069 153.25 L596.069 149.453 Z" fill="#000000" fill-rule="evenodd" fill-opacity="1" /><path clip-path="url(#clip750)" d="M614.981 129.778 L619.68 129.778 L619.68 150.773 Q619.68 156.328 621.693 158.782 Q623.707 161.213 628.221 161.213 Q632.712 161.213 634.726 158.782 Q636.74 156.328 636.74 150.773 L636.74 129.778 L641.439 129.778 L641.439 151.352 Q641.439 158.111 638.082 161.56 Q634.749 165.009 628.221 165.009 Q621.67 165.009 618.314 161.56 Q614.981 158.111 614.981 151.352 L614.981 129.778 Z" fill="#000000" fill-rule="evenodd" fill-opacity="1" /><path clip-path="url(#clip750)" d="M670.929 130.912 L670.929 135.472 Q668.267 134.199 665.906 133.574 Q663.545 132.949 661.346 132.949 Q657.527 132.949 655.443 134.43 Q653.383 135.912 653.383 138.643 Q653.383 140.935 654.749 142.115 Q656.138 143.273 659.98 143.99 L662.804 144.569 Q668.036 145.565 670.513 148.088 Q673.013 150.588 673.013 154.801 Q673.013 159.824 669.633 162.416 Q666.277 165.009 659.772 165.009 Q657.318 165.009 654.541 164.453 Q651.786 163.898 648.823 162.81 L648.823 157.995 Q651.67 159.592 654.402 160.402 Q657.133 161.213 659.772 161.213 Q663.777 161.213 665.953 159.639 Q668.128 158.064 668.128 155.148 Q668.128 152.602 666.554 151.166 Q665.003 149.731 661.439 149.014 L658.591 148.458 Q653.36 147.416 651.022 145.194 Q648.684 142.972 648.684 139.014 Q648.684 134.43 651.902 131.791 Q655.142 129.153 660.814 129.153 Q663.244 129.153 665.767 129.592 Q668.29 130.032 670.929 130.912 Z" fill="#000000" fill-rule="evenodd" fill-opacity="1" /><path clip-path="url(#clip750)" d="M684.98 133.62 L684.98 160.495 L690.628 160.495 Q697.781 160.495 701.091 157.254 Q704.425 154.014 704.425 147.023 Q704.425 140.078 701.091 136.861 Q697.781 133.62 690.628 133.62 L684.98 133.62 M680.304 129.778 L689.911 129.778 Q699.957 129.778 704.656 133.967 Q709.355 138.134 709.355 147.023 Q709.355 155.958 704.633 160.148 Q699.911 164.338 689.911 164.338 L680.304 164.338 L680.304 129.778 Z" fill="#000000" fill-rule="evenodd" fill-opacity="1" /><polyline clip-path="url(#clip750)" style="stroke:#e26f46; stroke-linecap:butt; stroke-linejoin:round; stroke-width:4; stroke-opacity:1; fill:none" points="
  343.018,198.898 483.232,198.898 
  "/>
<path clip-path="url(#clip750)" d="M506.602 181.618 L528.453 181.618 L528.453 185.553 L511.277 185.553 L511.277 195.784 L527.736 195.784 L527.736 199.719 L511.277 199.719 L511.277 212.242 L528.87 212.242 L528.87 216.178 L506.602 216.178 L506.602 181.618 Z" fill="#000000" fill-rule="evenodd" fill-opacity="1" /><path clip-path="url(#clip750)" d="M531.763 181.618 L560.999 181.618 L560.999 185.553 L548.731 185.553 L548.731 216.178 L544.032 216.178 L544.032 185.553 L531.763 185.553 L531.763 181.618 Z" fill="#000000" fill-rule="evenodd" fill-opacity="1" /><path clip-path="url(#clip750)" d="M565.513 181.618 L570.189 181.618 L570.189 195.784 L587.18 195.784 L587.18 181.618 L591.856 181.618 L591.856 216.178 L587.18 216.178 L587.18 199.719 L570.189 199.719 L570.189 216.178 L565.513 216.178 L565.513 181.618 Z" fill="#000000" fill-rule="evenodd" fill-opacity="1" /><path clip-path="url(#clip750)" d="M598.823 201.293 L611.3 201.293 L611.3 205.09 L598.823 205.09 L598.823 201.293 Z" fill="#000000" fill-rule="evenodd" fill-opacity="1" /><path clip-path="url(#clip750)" d="M617.735 181.618 L622.434 181.618 L622.434 202.613 Q622.434 208.168 624.448 210.622 Q626.462 213.053 630.976 213.053 Q635.467 213.053 637.48 210.622 Q639.494 208.168 639.494 202.613 L639.494 181.618 L644.193 181.618 L644.193 203.192 Q644.193 209.951 640.837 213.4 Q637.504 216.849 630.976 216.849 Q624.425 216.849 621.068 213.4 Q617.735 209.951 617.735 203.192 L617.735 181.618 Z" fill="#000000" fill-rule="evenodd" fill-opacity="1" /><path clip-path="url(#clip750)" d="M673.684 182.752 L673.684 187.312 Q671.022 186.039 668.661 185.414 Q666.3 184.789 664.101 184.789 Q660.281 184.789 658.198 186.27 Q656.138 187.752 656.138 190.483 Q656.138 192.775 657.503 193.955 Q658.892 195.113 662.735 195.83 L665.559 196.409 Q670.79 197.405 673.267 199.928 Q675.767 202.428 675.767 206.641 Q675.767 211.664 672.388 214.256 Q669.031 216.849 662.527 216.849 Q660.073 216.849 657.295 216.293 Q654.541 215.738 651.578 214.65 L651.578 209.835 Q654.425 211.432 657.156 212.242 Q659.888 213.053 662.527 213.053 Q666.531 213.053 668.707 211.479 Q670.883 209.904 670.883 206.988 Q670.883 204.442 669.309 203.006 Q667.758 201.571 664.193 200.854 L661.346 200.298 Q656.115 199.256 653.777 197.034 Q651.439 194.812 651.439 190.854 Q651.439 186.27 654.656 183.631 Q657.897 180.993 663.568 180.993 Q665.999 180.993 668.522 181.432 Q671.045 181.872 673.684 182.752 Z" fill="#000000" fill-rule="evenodd" fill-opacity="1" /><path clip-path="url(#clip750)" d="M687.735 185.46 L687.735 212.335 L693.383 212.335 Q700.536 212.335 703.846 209.094 Q707.179 205.854 707.179 198.863 Q707.179 191.918 703.846 188.701 Q700.536 185.46 693.383 185.46 L687.735 185.46 M683.059 181.618 L692.665 181.618 Q702.712 181.618 707.411 185.807 Q712.11 189.974 712.11 198.863 Q712.11 207.798 707.387 211.988 Q702.665 216.178 692.665 216.178 L683.059 216.178 L683.059 181.618 Z" fill="#000000" fill-rule="evenodd" fill-opacity="1" /><polyline clip-path="url(#clip750)" style="stroke:#3da44d; stroke-linecap:butt; stroke-linejoin:round; stroke-width:4; stroke-opacity:1; fill:none" points="
  343.018,250.738 483.232,250.738 
  "/>
<path clip-path="url(#clip750)" d="M506.602 233.458 L511.301 233.458 L511.301 254.453 Q511.301 260.008 513.314 262.462 Q515.328 264.893 519.842 264.893 Q524.333 264.893 526.347 262.462 Q528.361 260.008 528.361 254.453 L528.361 233.458 L533.06 233.458 L533.06 255.032 Q533.06 261.791 529.703 265.24 Q526.37 268.689 519.842 268.689 Q513.291 268.689 509.935 265.24 Q506.602 261.791 506.602 255.032 L506.602 233.458 Z" fill="#000000" fill-rule="evenodd" fill-opacity="1" /><path clip-path="url(#clip750)" d="M562.55 234.592 L562.55 239.152 Q559.888 237.879 557.527 237.254 Q555.166 236.629 552.967 236.629 Q549.148 236.629 547.064 238.11 Q545.004 239.592 545.004 242.323 Q545.004 244.615 546.37 245.795 Q547.759 246.953 551.601 247.67 L554.425 248.249 Q559.657 249.245 562.134 251.768 Q564.634 254.268 564.634 258.481 Q564.634 263.504 561.254 266.096 Q557.898 268.689 551.393 268.689 Q548.939 268.689 546.161 268.133 Q543.407 267.578 540.444 266.49 L540.444 261.675 Q543.291 263.272 546.023 264.082 Q548.754 264.893 551.393 264.893 Q555.398 264.893 557.573 263.319 Q559.749 261.744 559.749 258.828 Q559.749 256.282 558.175 254.846 Q556.624 253.411 553.06 252.694 L550.212 252.138 Q544.981 251.096 542.643 248.874 Q540.305 246.652 540.305 242.694 Q540.305 238.11 543.523 235.471 Q546.763 232.833 552.435 232.833 Q554.865 232.833 557.388 233.272 Q559.911 233.712 562.55 234.592 Z" fill="#000000" fill-rule="evenodd" fill-opacity="1" /><path clip-path="url(#clip750)" d="M576.601 237.3 L576.601 264.175 L582.249 264.175 Q589.402 264.175 592.712 260.934 Q596.045 257.694 596.045 250.703 Q596.045 243.758 592.712 240.541 Q589.402 237.3 582.249 237.3 L576.601 237.3 M571.925 233.458 L581.532 233.458 Q591.578 233.458 596.277 237.647 Q600.976 241.814 600.976 250.703 Q600.976 259.638 596.254 263.828 Q591.532 268.018 581.532 268.018 L571.925 268.018 L571.925 233.458 Z" fill="#000000" fill-rule="evenodd" fill-opacity="1" /><path clip-path="url(#clip750)" d="M634.309 236.12 L634.309 241.05 Q631.948 238.851 629.263 237.763 Q626.601 236.675 623.592 236.675 Q617.666 236.675 614.518 240.309 Q611.369 243.92 611.369 250.772 Q611.369 257.601 614.518 261.235 Q617.666 264.846 623.592 264.846 Q626.601 264.846 629.263 263.758 Q631.948 262.67 634.309 260.471 L634.309 265.356 Q631.855 267.022 629.101 267.856 Q626.369 268.689 623.314 268.689 Q615.467 268.689 610.953 263.897 Q606.439 259.082 606.439 250.772 Q606.439 242.439 610.953 237.647 Q615.467 232.833 623.314 232.833 Q626.416 232.833 629.147 233.666 Q631.902 234.476 634.309 236.12 Z" fill="#000000" fill-rule="evenodd" fill-opacity="1" /><path clip-path="url(#clip750)" d="M639.193 253.133 L651.67 253.133 L651.67 256.93 L639.193 256.93 L639.193 253.133 Z" fill="#000000" fill-rule="evenodd" fill-opacity="1" /><path clip-path="url(#clip750)" d="M658.638 233.458 L680.489 233.458 L680.489 237.393 L663.314 237.393 L663.314 247.624 L679.772 247.624 L679.772 251.559 L663.314 251.559 L663.314 264.082 L680.906 264.082 L680.906 268.018 L658.638 268.018 L658.638 233.458 Z" fill="#000000" fill-rule="evenodd" fill-opacity="1" /><path clip-path="url(#clip750)" d="M688.059 233.458 L692.758 233.458 L692.758 254.453 Q692.758 260.008 694.772 262.462 Q696.786 264.893 701.3 264.893 Q705.79 264.893 707.804 262.462 Q709.818 260.008 709.818 254.453 L709.818 233.458 L714.517 233.458 L714.517 255.032 Q714.517 261.791 711.161 265.24 Q707.827 268.689 701.3 268.689 Q694.749 268.689 691.392 265.24 Q688.059 261.791 688.059 255.032 L688.059 233.458 Z" fill="#000000" fill-rule="evenodd" fill-opacity="1" /><path clip-path="url(#clip750)" d="M739.679 251.814 Q741.184 252.323 742.596 253.99 Q744.031 255.657 745.466 258.573 L750.211 268.018 L745.188 268.018 L740.767 259.152 Q739.054 255.68 737.434 254.545 Q735.836 253.411 733.059 253.411 L727.966 253.411 L727.966 268.018 L723.29 268.018 L723.29 233.458 L733.846 233.458 Q739.772 233.458 742.688 235.934 Q745.605 238.411 745.605 243.411 Q745.605 246.675 744.077 248.828 Q742.572 250.981 739.679 251.814 M727.966 237.3 L727.966 249.569 L733.846 249.569 Q737.225 249.569 738.938 248.018 Q740.674 246.444 740.674 243.411 Q740.674 240.379 738.938 238.851 Q737.225 237.3 733.846 237.3 L727.966 237.3 Z" fill="#000000" fill-rule="evenodd" fill-opacity="1" /><polyline clip-path="url(#clip750)" style="stroke:#c271d2; stroke-linecap:butt; stroke-linejoin:round; stroke-width:4; stroke-opacity:1; fill:none" points="
  343.018,302.578 483.232,302.578 
  "/>
<path clip-path="url(#clip750)" d="M528.847 286.432 L528.847 290.992 Q526.185 289.719 523.824 289.094 Q521.463 288.469 519.263 288.469 Q515.444 288.469 513.361 289.95 Q511.301 291.432 511.301 294.163 Q511.301 296.455 512.666 297.635 Q514.055 298.793 517.898 299.51 L520.722 300.089 Q525.953 301.085 528.43 303.608 Q530.93 306.108 530.93 310.321 Q530.93 315.344 527.55 317.936 Q524.194 320.529 517.689 320.529 Q515.236 320.529 512.458 319.973 Q509.703 319.418 506.74 318.33 L506.74 313.515 Q509.588 315.112 512.319 315.922 Q515.051 316.733 517.689 316.733 Q521.694 316.733 523.87 315.159 Q526.046 313.584 526.046 310.668 Q526.046 308.122 524.472 306.686 Q522.921 305.251 519.356 304.534 L516.509 303.978 Q511.277 302.936 508.939 300.714 Q506.602 298.492 506.602 294.534 Q506.602 289.95 509.819 287.311 Q513.06 284.673 518.731 284.673 Q521.162 284.673 523.685 285.112 Q526.208 285.552 528.847 286.432 Z" fill="#000000" fill-rule="evenodd" fill-opacity="1" /><path clip-path="url(#clip750)" d="M538.222 285.298 L542.898 285.298 L542.898 299.464 L559.888 299.464 L559.888 285.298 L564.564 285.298 L564.564 319.858 L559.888 319.858 L559.888 303.399 L542.898 303.399 L542.898 319.858 L538.222 319.858 L538.222 285.298 Z" fill="#000000" fill-rule="evenodd" fill-opacity="1" /><path clip-path="url(#clip750)" d="M573.87 285.298 L578.546 285.298 L578.546 319.858 L573.87 319.858 L573.87 285.298 Z" fill="#000000" fill-rule="evenodd" fill-opacity="1" /><path clip-path="url(#clip750)" d="M592.527 303.353 L592.527 316.015 L600.027 316.015 Q603.8 316.015 605.606 314.464 Q607.434 312.89 607.434 309.672 Q607.434 306.432 605.606 304.904 Q603.8 303.353 600.027 303.353 L592.527 303.353 M592.527 289.14 L592.527 299.557 L599.448 299.557 Q602.874 299.557 604.541 298.284 Q606.231 296.987 606.231 294.348 Q606.231 291.733 604.541 290.436 Q602.874 289.14 599.448 289.14 L592.527 289.14 M587.851 285.298 L599.795 285.298 Q605.143 285.298 608.036 287.52 Q610.93 289.742 610.93 293.839 Q610.93 297.01 609.448 298.885 Q607.967 300.76 605.096 301.223 Q608.545 301.964 610.444 304.325 Q612.365 306.663 612.365 310.182 Q612.365 314.811 609.217 317.334 Q606.069 319.858 600.258 319.858 L587.851 319.858 L587.851 285.298 Z" fill="#000000" fill-rule="evenodd" fill-opacity="1" /><path clip-path="url(#clip750)" d="M618.036 304.973 L630.513 304.973 L630.513 308.77 L618.036 308.77 L618.036 304.973 Z" fill="#000000" fill-rule="evenodd" fill-opacity="1" /><path clip-path="url(#clip750)" d="M636.948 285.298 L641.647 285.298 L641.647 306.293 Q641.647 311.848 643.661 314.302 Q645.675 316.733 650.189 316.733 Q654.679 316.733 656.693 314.302 Q658.707 311.848 658.707 306.293 L658.707 285.298 L663.406 285.298 L663.406 306.872 Q663.406 313.631 660.05 317.08 Q656.716 320.529 650.189 320.529 Q643.638 320.529 640.281 317.08 Q636.948 313.631 636.948 306.872 L636.948 285.298 Z" fill="#000000" fill-rule="evenodd" fill-opacity="1" /><path clip-path="url(#clip750)" d="M692.897 286.432 L692.897 290.992 Q690.235 289.719 687.874 289.094 Q685.513 288.469 683.314 288.469 Q679.494 288.469 677.411 289.95 Q675.351 291.432 675.351 294.163 Q675.351 296.455 676.716 297.635 Q678.105 298.793 681.948 299.51 L684.772 300.089 Q690.003 301.085 692.48 303.608 Q694.98 306.108 694.98 310.321 Q694.98 315.344 691.601 317.936 Q688.244 320.529 681.739 320.529 Q679.286 320.529 676.508 319.973 Q673.753 319.418 670.79 318.33 L670.79 313.515 Q673.638 315.112 676.369 315.922 Q679.101 316.733 681.739 316.733 Q685.744 316.733 687.92 315.159 Q690.096 313.584 690.096 310.668 Q690.096 308.122 688.522 306.686 Q686.971 305.251 683.406 304.534 L680.559 303.978 Q675.327 302.936 672.99 300.714 Q670.652 298.492 670.652 294.534 Q670.652 289.95 673.869 287.311 Q677.11 284.673 682.781 284.673 Q685.212 284.673 687.735 285.112 Q690.258 285.552 692.897 286.432 Z" fill="#000000" fill-rule="evenodd" fill-opacity="1" /><path clip-path="url(#clip750)" d="M706.948 289.14 L706.948 316.015 L712.596 316.015 Q719.749 316.015 723.059 312.774 Q726.392 309.534 726.392 302.543 Q726.392 295.598 723.059 292.381 Q719.749 289.14 712.596 289.14 L706.948 289.14 M702.272 285.298 L711.878 285.298 Q721.924 285.298 726.623 289.487 Q731.323 293.654 731.323 302.543 Q731.323 311.478 726.6 315.668 Q721.878 319.858 711.878 319.858 L702.272 319.858 L702.272 285.298 Z" fill="#000000" fill-rule="evenodd" fill-opacity="1" /></svg>
