<?xml version="1.0" encoding="utf-8"?>
<svg xmlns="http://www.w3.org/2000/svg" xmlns:xlink="http://www.w3.org/1999/xlink" width="275" height="250" viewBox="0 0 1100 1000">
<defs>
  <clipPath id="clip870">
    <rect x="0" y="0" width="1100" height="1000"/>
  </clipPath>
</defs>
<path clip-path="url(#clip870)" d="
M0 1000 L1100 1000 L1100 0 L0 0  Z
  " fill="#ffffff" fill-rule="evenodd" fill-opacity="1"/>
<defs>
  <clipPath id="clip871">
    <rect x="220" y="10" width="771" height="771"/>
  </clipPath>
</defs>
<path clip-path="url(#clip870)" d="
M254.308 799.333 L1052.76 799.333 L1052.76 47.2441 L254.308 47.2441  Z
  " fill="#ffffff" fill-rule="evenodd" fill-opacity="1"/>
<defs>
  <clipPath id="clip872">
    <rect x="254" y="47" width="799" height="753"/>
  </clipPath>
</defs>
<polyline clip-path="url(#clip872)" style="stroke:#000000; stroke-linecap:butt; stroke-linejoin:round; stroke-width:2; stroke-opacity:0.1; fill:none" points="
  395.84,799.333 395.84,47.2441 
  "/>
<polyline clip-path="url(#clip872)" style="stroke:#000000; stroke-linecap:butt; stroke-linejoin:round; stroke-width:2; stroke-opacity:0.1; fill:none" points="
  554.42,799.333 554.42,47.2441 
  "/>
<polyline clip-path="url(#clip872)" style="stroke:#000000; stroke-linecap:butt; stroke-linejoin:round; stroke-width:2; stroke-opacity:0.1; fill:none" points="
  712.999,799.333 712.999,47.2441 
  "/>
<polyline clip-path="url(#clip872)" style="stroke:#000000; stroke-linecap:butt; stroke-linejoin:round; stroke-width:2; stroke-opacity:0.1; fill:none" points="
  871.579,799.333 871.579,47.2441 
  "/>
<polyline clip-path="url(#clip872)" style="stroke:#000000; stroke-linecap:butt; stroke-linejoin:round; stroke-width:2; stroke-opacity:0.1; fill:none" points="
  1030.16,799.333 1030.16,47.2441 
  "/>
<polyline clip-path="url(#clip870)" style="stroke:#000000; stroke-linecap:butt; stroke-linejoin:round; stroke-width:4; stroke-opacity:1; fill:none" points="
  254.308,799.333 1052.76,799.333 
  "/>
<polyline clip-path="url(#clip870)" style="stroke:#000000; stroke-linecap:butt; stroke-linejoin:round; stroke-width:4; stroke-opacity:1; fill:none" points="
  254.308,47.2441 1052.76,47.2441 
  "/>
<polyline clip-path="url(#clip870)" style="stroke:#000000; stroke-linecap:butt; stroke-linejoin:round; stroke-width:4; stroke-opacity:1; fill:none" points="
  395.84,799.333 395.84,780.435 
  "/>
<polyline clip-path="url(#clip870)" style="stroke:#000000; stroke-linecap:butt; stroke-linejoin:round; stroke-width:4; stroke-opacity:1; fill:none" points="
  554.42,799.333 554.42,780.435 
  "/>
<polyline clip-path="url(#clip870)" style="stroke:#000000; stroke-linecap:butt; stroke-linejoin:round; stroke-width:4; stroke-opacity:1; fill:none" points="
  712.999,799.333 712.999,780.435 
  "/>
<polyline clip-path="url(#clip870)" style="stroke:#000000; stroke-linecap:butt; stroke-linejoin:round; stroke-width:4; stroke-opacity:1; fill:none" points="
  871.579,799.333 871.579,780.435 
  "/>
<polyline clip-path="url(#clip870)" style="stroke:#000000; stroke-linecap:butt; stroke-linejoin:round; stroke-width:4; stroke-opacity:1; fill:none" points="
  1030.16,799.333 1030.16,780.435 
  "/>
<path clip-path="url(#clip870)" d="M374.614 847.397 L390.933 847.397 L390.933 851.333 L368.989 851.333 L368.989 847.397 Q371.651 844.643 376.234 840.013 Q380.84 835.36 382.021 834.018 Q384.266 831.495 385.146 829.759 Q386.049 827.999 386.049 826.31 Q386.049 823.555 384.104 821.819 Q382.183 820.083 379.081 820.083 Q376.882 820.083 374.428 820.847 Q371.998 821.611 369.22 823.161 L369.22 818.439 Q372.044 817.305 374.498 816.726 Q376.952 816.148 378.989 816.148 Q384.359 816.148 387.553 818.833 Q390.748 821.518 390.748 826.009 Q390.748 828.138 389.938 830.06 Q389.151 831.958 387.044 834.55 Q386.465 835.222 383.364 838.439 Q380.262 841.634 374.614 847.397 Z" fill="#000000" fill-rule="evenodd" fill-opacity="1" /><path clip-path="url(#clip870)" d="M410.748 819.851 Q407.137 819.851 405.308 823.416 Q403.502 826.958 403.502 834.087 Q403.502 841.194 405.308 844.759 Q407.137 848.3 410.748 848.3 Q414.382 848.3 416.187 844.759 Q418.016 841.194 418.016 834.087 Q418.016 826.958 416.187 823.416 Q414.382 819.851 410.748 819.851 M410.748 816.148 Q416.558 816.148 419.613 820.754 Q422.692 825.337 422.692 834.087 Q422.692 842.814 419.613 847.421 Q416.558 852.004 410.748 852.004 Q404.938 852.004 401.859 847.421 Q398.803 842.814 398.803 834.087 Q398.803 825.337 401.859 820.754 Q404.938 816.148 410.748 816.148 Z" fill="#000000" fill-rule="evenodd" fill-opacity="1" /><path clip-path="url(#clip870)" d="M542.591 820.847 L530.786 839.296 L542.591 839.296 L542.591 820.847 M541.364 816.773 L547.244 816.773 L547.244 839.296 L552.174 839.296 L552.174 843.184 L547.244 843.184 L547.244 851.333 L542.591 851.333 L542.591 843.184 L526.989 843.184 L526.989 838.671 L541.364 816.773 Z" fill="#000000" fill-rule="evenodd" fill-opacity="1" /><path clip-path="url(#clip870)" d="M569.906 819.851 Q566.295 819.851 564.466 823.416 Q562.661 826.958 562.661 834.087 Q562.661 841.194 564.466 844.759 Q566.295 848.3 569.906 848.3 Q573.54 848.3 575.346 844.759 Q577.174 841.194 577.174 834.087 Q577.174 826.958 575.346 823.416 Q573.54 819.851 569.906 819.851 M569.906 816.148 Q575.716 816.148 578.772 820.754 Q581.85 825.337 581.85 834.087 Q581.85 842.814 578.772 847.421 Q575.716 852.004 569.906 852.004 Q564.096 852.004 561.017 847.421 Q557.961 842.814 557.961 834.087 Q557.961 825.337 561.017 820.754 Q564.096 816.148 569.906 816.148 Z" fill="#000000" fill-rule="evenodd" fill-opacity="1" /><path clip-path="url(#clip870)" d="M698.405 832.189 Q695.256 832.189 693.405 834.342 Q691.576 836.495 691.576 840.245 Q691.576 843.971 693.405 846.147 Q695.256 848.3 698.405 848.3 Q701.553 848.3 703.381 846.147 Q705.233 843.971 705.233 840.245 Q705.233 836.495 703.381 834.342 Q701.553 832.189 698.405 832.189 M707.687 817.536 L707.687 821.796 Q705.928 820.962 704.122 820.523 Q702.34 820.083 700.58 820.083 Q695.951 820.083 693.497 823.208 Q691.067 826.333 690.719 832.652 Q692.085 830.638 694.145 829.573 Q696.205 828.485 698.682 828.485 Q703.891 828.485 706.9 831.657 Q709.932 834.805 709.932 840.245 Q709.932 845.569 706.784 848.786 Q703.636 852.004 698.405 852.004 Q692.409 852.004 689.238 847.421 Q686.067 842.814 686.067 834.087 Q686.067 825.893 689.955 821.032 Q693.844 816.148 700.395 816.148 Q702.154 816.148 703.937 816.495 Q705.742 816.842 707.687 817.536 Z" fill="#000000" fill-rule="evenodd" fill-opacity="1" /><path clip-path="url(#clip870)" d="M727.988 819.851 Q724.377 819.851 722.548 823.416 Q720.742 826.958 720.742 834.087 Q720.742 841.194 722.548 844.759 Q724.377 848.3 727.988 848.3 Q731.622 848.3 733.427 844.759 Q735.256 841.194 735.256 834.087 Q735.256 826.958 733.427 823.416 Q731.622 819.851 727.988 819.851 M727.988 816.148 Q733.798 816.148 736.853 820.754 Q739.932 825.337 739.932 834.087 Q739.932 842.814 736.853 847.421 Q733.798 852.004 727.988 852.004 Q722.178 852.004 719.099 847.421 Q716.043 842.814 716.043 834.087 Q716.043 825.337 719.099 820.754 Q722.178 816.148 727.988 816.148 Z" fill="#000000" fill-rule="evenodd" fill-opacity="1" /><path clip-path="url(#clip870)" d="M856.452 834.921 Q853.118 834.921 851.197 836.703 Q849.299 838.485 849.299 841.61 Q849.299 844.735 851.197 846.518 Q853.118 848.3 856.452 848.3 Q859.785 848.3 861.706 846.518 Q863.627 844.712 863.627 841.61 Q863.627 838.485 861.706 836.703 Q859.808 834.921 856.452 834.921 M851.776 832.93 Q848.766 832.189 847.077 830.129 Q845.41 828.069 845.41 825.106 Q845.41 820.962 848.35 818.555 Q851.313 816.148 856.452 816.148 Q861.614 816.148 864.553 818.555 Q867.493 820.962 867.493 825.106 Q867.493 828.069 865.803 830.129 Q864.137 832.189 861.151 832.93 Q864.53 833.717 866.405 836.009 Q868.303 838.3 868.303 841.61 Q868.303 846.634 865.225 849.319 Q862.169 852.004 856.452 852.004 Q850.734 852.004 847.655 849.319 Q844.6 846.634 844.6 841.61 Q844.6 838.3 846.498 836.009 Q848.396 833.717 851.776 832.93 M850.063 825.546 Q850.063 828.231 851.729 829.735 Q853.419 831.24 856.452 831.24 Q859.461 831.24 861.151 829.735 Q862.864 828.231 862.864 825.546 Q862.864 822.861 861.151 821.356 Q859.461 819.851 856.452 819.851 Q853.419 819.851 851.729 821.356 Q850.063 822.861 850.063 825.546 Z" fill="#000000" fill-rule="evenodd" fill-opacity="1" /><path clip-path="url(#clip870)" d="M886.613 819.851 Q883.002 819.851 881.174 823.416 Q879.368 826.958 879.368 834.087 Q879.368 841.194 881.174 844.759 Q883.002 848.3 886.613 848.3 Q890.248 848.3 892.053 844.759 Q893.882 841.194 893.882 834.087 Q893.882 826.958 892.053 823.416 Q890.248 819.851 886.613 819.851 M886.613 816.148 Q892.424 816.148 895.479 820.754 Q898.558 825.337 898.558 834.087 Q898.558 842.814 895.479 847.421 Q892.424 852.004 886.613 852.004 Q880.803 852.004 877.725 847.421 Q874.669 842.814 874.669 834.087 Q874.669 825.337 877.725 820.754 Q880.803 816.148 886.613 816.148 Z" fill="#000000" fill-rule="evenodd" fill-opacity="1" /><path clip-path="url(#clip870)" d="M989.765 847.397 L997.404 847.397 L997.404 821.032 L989.094 822.698 L989.094 818.439 L997.358 816.773 L1002.03 816.773 L1002.03 847.397 L1009.67 847.397 L1009.67 851.333 L989.765 851.333 L989.765 847.397 Z" fill="#000000" fill-rule="evenodd" fill-opacity="1" /><path clip-path="url(#clip870)" d="M1029.12 819.851 Q1025.51 819.851 1023.68 823.416 Q1021.87 826.958 1021.87 834.087 Q1021.87 841.194 1023.68 844.759 Q1025.51 848.3 1029.12 848.3 Q1032.75 848.3 1034.56 844.759 Q1036.39 841.194 1036.39 834.087 Q1036.39 826.958 1034.56 823.416 Q1032.75 819.851 1029.12 819.851 M1029.12 816.148 Q1034.93 816.148 1037.98 820.754 Q1041.06 825.337 1041.06 834.087 Q1041.06 842.814 1037.98 847.421 Q1034.93 852.004 1029.12 852.004 Q1023.31 852.004 1020.23 847.421 Q1017.17 842.814 1017.17 834.087 Q1017.17 825.337 1020.23 820.754 Q1023.31 816.148 1029.12 816.148 Z" fill="#000000" fill-rule="evenodd" fill-opacity="1" /><path clip-path="url(#clip870)" d="M1059.28 819.851 Q1055.67 819.851 1053.84 823.416 Q1052.03 826.958 1052.03 834.087 Q1052.03 841.194 1053.84 844.759 Q1055.67 848.3 1059.28 848.3 Q1062.91 848.3 1064.72 844.759 Q1066.55 841.194 1066.55 834.087 Q1066.55 826.958 1064.72 823.416 Q1062.91 819.851 1059.28 819.851 M1059.28 816.148 Q1065.09 816.148 1068.14 820.754 Q1071.22 825.337 1071.22 834.087 Q1071.22 842.814 1068.14 847.421 Q1065.09 852.004 1059.28 852.004 Q1053.47 852.004 1050.39 847.421 Q1047.33 842.814 1047.33 834.087 Q1047.33 825.337 1050.39 820.754 Q1053.47 816.148 1059.28 816.148 Z" fill="#000000" fill-rule="evenodd" fill-opacity="1" /><path clip-path="url(#clip870)" d="M634.674 877.177 L641.103 877.177 L641.103 897.26 L662.428 877.177 L670.704 877.177 L647.119 899.329 L672.39 924.697 L663.924 924.697 L641.103 901.812 L641.103 924.697 L634.674 924.697 L634.674 877.177 Z" fill="#000000" fill-rule="evenodd" fill-opacity="1" /><polyline clip-path="url(#clip872)" style="stroke:#000000; stroke-linecap:butt; stroke-linejoin:round; stroke-width:2; stroke-opacity:0.1; fill:none" points="
  254.308,793.443 1052.76,793.443 
  "/>
<polyline clip-path="url(#clip872)" style="stroke:#000000; stroke-linecap:butt; stroke-linejoin:round; stroke-width:2; stroke-opacity:0.1; fill:none" points="
  254.308,680.032 1052.76,680.032 
  "/>
<polyline clip-path="url(#clip872)" style="stroke:#000000; stroke-linecap:butt; stroke-linejoin:round; stroke-width:2; stroke-opacity:0.1; fill:none" points="
  254.308,566.62 1052.76,566.62 
  "/>
<polyline clip-path="url(#clip872)" style="stroke:#000000; stroke-linecap:butt; stroke-linejoin:round; stroke-width:2; stroke-opacity:0.1; fill:none" points="
  254.308,453.209 1052.76,453.209 
  "/>
<polyline clip-path="url(#clip872)" style="stroke:#000000; stroke-linecap:butt; stroke-linejoin:round; stroke-width:2; stroke-opacity:0.1; fill:none" points="
  254.308,339.798 1052.76,339.798 
  "/>
<polyline clip-path="url(#clip872)" style="stroke:#000000; stroke-linecap:butt; stroke-linejoin:round; stroke-width:2; stroke-opacity:0.1; fill:none" points="
  254.308,226.386 1052.76,226.386 
  "/>
<polyline clip-path="url(#clip872)" style="stroke:#000000; stroke-linecap:butt; stroke-linejoin:round; stroke-width:2; stroke-opacity:0.1; fill:none" points="
  254.308,112.975 1052.76,112.975 
  "/>
<polyline clip-path="url(#clip870)" style="stroke:#000000; stroke-linecap:butt; stroke-linejoin:round; stroke-width:4; stroke-opacity:1; fill:none" points="
  254.308,799.333 254.308,47.2441 
  "/>
<polyline clip-path="url(#clip870)" style="stroke:#000000; stroke-linecap:butt; stroke-linejoin:round; stroke-width:4; stroke-opacity:1; fill:none" points="
  1052.76,799.333 1052.76,47.2441 
  "/>
<polyline clip-path="url(#clip870)" style="stroke:#000000; stroke-linecap:butt; stroke-linejoin:round; stroke-width:4; stroke-opacity:1; fill:none" points="
  254.308,793.443 273.206,793.443 
  "/>
<polyline clip-path="url(#clip870)" style="stroke:#000000; stroke-linecap:butt; stroke-linejoin:round; stroke-width:4; stroke-opacity:1; fill:none" points="
  254.308,680.032 273.206,680.032 
  "/>
<polyline clip-path="url(#clip870)" style="stroke:#000000; stroke-linecap:butt; stroke-linejoin:round; stroke-width:4; stroke-opacity:1; fill:none" points="
  254.308,566.62 273.206,566.62 
  "/>
<polyline clip-path="url(#clip870)" style="stroke:#000000; stroke-linecap:butt; stroke-linejoin:round; stroke-width:4; stroke-opacity:1; fill:none" points="
  254.308,453.209 273.206,453.209 
  "/>
<polyline clip-path="url(#clip870)" style="stroke:#000000; stroke-linecap:butt; stroke-linejoin:round; stroke-width:4; stroke-opacity:1; fill:none" points="
  254.308,339.798 273.206,339.798 
  "/>
<polyline clip-path="url(#clip870)" style="stroke:#000000; stroke-linecap:butt; stroke-linejoin:round; stroke-width:4; stroke-opacity:1; fill:none" points="
  254.308,226.386 273.206,226.386 
  "/>
<polyline clip-path="url(#clip870)" style="stroke:#000000; stroke-linecap:butt; stroke-linejoin:round; stroke-width:4; stroke-opacity:1; fill:none" points="
  254.308,112.975 273.206,112.975 
  "/>
<path clip-path="url(#clip870)" d="M152.068 779.242 Q148.457 779.242 146.628 782.806 Q144.823 786.348 144.823 793.478 Q144.823 800.584 146.628 804.149 Q148.457 807.691 152.068 807.691 Q155.702 807.691 157.508 804.149 Q159.336 800.584 159.336 793.478 Q159.336 786.348 157.508 782.806 Q155.702 779.242 152.068 779.242 M152.068 775.538 Q157.878 775.538 160.934 780.144 Q164.012 784.728 164.012 793.478 Q164.012 802.204 160.934 806.811 Q157.878 811.394 152.068 811.394 Q146.258 811.394 143.179 806.811 Q140.123 802.204 140.123 793.478 Q140.123 784.728 143.179 780.144 Q146.258 775.538 152.068 775.538 Z" fill="#000000" fill-rule="evenodd" fill-opacity="1" /><path clip-path="url(#clip870)" d="M172.23 804.843 L177.114 804.843 L177.114 810.723 L172.23 810.723 L172.23 804.843 Z" fill="#000000" fill-rule="evenodd" fill-opacity="1" /><path clip-path="url(#clip870)" d="M197.299 794.311 Q193.966 794.311 192.044 796.093 Q190.146 797.876 190.146 801.001 Q190.146 804.126 192.044 805.908 Q193.966 807.691 197.299 807.691 Q200.632 807.691 202.554 805.908 Q204.475 804.103 204.475 801.001 Q204.475 797.876 202.554 796.093 Q200.656 794.311 197.299 794.311 M192.623 792.32 Q189.614 791.579 187.924 789.519 Q186.257 787.459 186.257 784.496 Q186.257 780.353 189.197 777.945 Q192.16 775.538 197.299 775.538 Q202.461 775.538 205.401 777.945 Q208.341 780.353 208.341 784.496 Q208.341 787.459 206.651 789.519 Q204.984 791.579 201.998 792.32 Q205.378 793.107 207.253 795.399 Q209.151 797.691 209.151 801.001 Q209.151 806.024 206.072 808.709 Q203.017 811.394 197.299 811.394 Q191.582 811.394 188.503 808.709 Q185.447 806.024 185.447 801.001 Q185.447 797.691 187.345 795.399 Q189.244 793.107 192.623 792.32 M190.91 784.936 Q190.91 787.621 192.577 789.126 Q194.267 790.63 197.299 790.63 Q200.308 790.63 201.998 789.126 Q203.711 787.621 203.711 784.936 Q203.711 782.251 201.998 780.746 Q200.308 779.242 197.299 779.242 Q194.267 779.242 192.577 780.746 Q190.91 782.251 190.91 784.936 Z" fill="#000000" fill-rule="evenodd" fill-opacity="1" /><path clip-path="url(#clip870)" d="M221.489 806.788 L237.808 806.788 L237.808 810.723 L215.864 810.723 L215.864 806.788 Q218.526 804.033 223.109 799.404 Q227.716 794.751 228.896 793.408 Q231.142 790.885 232.021 789.149 Q232.924 787.39 232.924 785.7 Q232.924 782.945 230.979 781.209 Q229.058 779.473 225.956 779.473 Q223.757 779.473 221.304 780.237 Q218.873 781.001 216.095 782.552 L216.095 777.83 Q218.919 776.695 221.373 776.117 Q223.827 775.538 225.864 775.538 Q231.234 775.538 234.429 778.223 Q237.623 780.908 237.623 785.399 Q237.623 787.529 236.813 789.45 Q236.026 791.348 233.919 793.941 Q233.341 794.612 230.239 797.829 Q227.137 801.024 221.489 806.788 Z" fill="#000000" fill-rule="evenodd" fill-opacity="1" /><path clip-path="url(#clip870)" d="M151.119 665.83 Q147.508 665.83 145.679 669.395 Q143.873 672.937 143.873 680.066 Q143.873 687.173 145.679 690.738 Q147.508 694.279 151.119 694.279 Q154.753 694.279 156.559 690.738 Q158.387 687.173 158.387 680.066 Q158.387 672.937 156.559 669.395 Q154.753 665.83 151.119 665.83 M151.119 662.127 Q156.929 662.127 159.984 666.733 Q163.063 671.316 163.063 680.066 Q163.063 688.793 159.984 693.4 Q156.929 697.983 151.119 697.983 Q145.309 697.983 142.23 693.4 Q139.174 688.793 139.174 680.066 Q139.174 671.316 142.23 666.733 Q145.309 662.127 151.119 662.127 Z" fill="#000000" fill-rule="evenodd" fill-opacity="1" /><path clip-path="url(#clip870)" d="M171.281 691.432 L176.165 691.432 L176.165 697.312 L171.281 697.312 L171.281 691.432 Z" fill="#000000" fill-rule="evenodd" fill-opacity="1" /><path clip-path="url(#clip870)" d="M196.35 680.9 Q193.017 680.9 191.095 682.682 Q189.197 684.464 189.197 687.589 Q189.197 690.714 191.095 692.497 Q193.017 694.279 196.35 694.279 Q199.683 694.279 201.605 692.497 Q203.526 690.691 203.526 687.589 Q203.526 684.464 201.605 682.682 Q199.706 680.9 196.35 680.9 M191.674 678.909 Q188.665 678.168 186.975 676.108 Q185.308 674.048 185.308 671.085 Q185.308 666.941 188.248 664.534 Q191.211 662.127 196.35 662.127 Q201.512 662.127 204.452 664.534 Q207.392 666.941 207.392 671.085 Q207.392 674.048 205.702 676.108 Q204.035 678.168 201.049 678.909 Q204.429 679.696 206.304 681.988 Q208.202 684.279 208.202 687.589 Q208.202 692.613 205.123 695.298 Q202.068 697.983 196.35 697.983 Q190.632 697.983 187.554 695.298 Q184.498 692.613 184.498 687.589 Q184.498 684.279 186.396 681.988 Q188.295 679.696 191.674 678.909 M189.961 671.525 Q189.961 674.21 191.628 675.715 Q193.318 677.219 196.35 677.219 Q199.359 677.219 201.049 675.715 Q202.762 674.21 202.762 671.525 Q202.762 668.84 201.049 667.335 Q199.359 665.83 196.35 665.83 Q193.318 665.83 191.628 667.335 Q189.961 668.84 189.961 671.525 Z" fill="#000000" fill-rule="evenodd" fill-opacity="1" /><path clip-path="url(#clip870)" d="M230.679 678.677 Q234.035 679.395 235.91 681.664 Q237.808 683.932 237.808 687.265 Q237.808 692.381 234.29 695.182 Q230.771 697.983 224.29 697.983 Q222.114 697.983 219.799 697.543 Q217.507 697.126 215.054 696.27 L215.054 691.756 Q216.998 692.89 219.313 693.469 Q221.628 694.048 224.151 694.048 Q228.549 694.048 230.841 692.312 Q233.155 690.576 233.155 687.265 Q233.155 684.21 231.003 682.497 Q228.873 680.761 225.054 680.761 L221.026 680.761 L221.026 676.918 L225.239 676.918 Q228.688 676.918 230.517 675.552 Q232.345 674.164 232.345 671.571 Q232.345 668.909 230.447 667.497 Q228.572 666.062 225.054 666.062 Q223.132 666.062 220.933 666.478 Q218.734 666.895 216.095 667.775 L216.095 663.608 Q218.757 662.867 221.072 662.497 Q223.41 662.127 225.47 662.127 Q230.794 662.127 233.896 664.557 Q236.998 666.965 236.998 671.085 Q236.998 673.955 235.354 675.946 Q233.711 677.914 230.679 678.677 Z" fill="#000000" fill-rule="evenodd" fill-opacity="1" /><path clip-path="url(#clip870)" d="M149.985 552.419 Q146.373 552.419 144.545 555.984 Q142.739 559.525 142.739 566.655 Q142.739 573.761 144.545 577.326 Q146.373 580.868 149.985 580.868 Q153.619 580.868 155.424 577.326 Q157.253 573.761 157.253 566.655 Q157.253 559.525 155.424 555.984 Q153.619 552.419 149.985 552.419 M149.985 548.715 Q155.795 548.715 158.85 553.322 Q161.929 557.905 161.929 566.655 Q161.929 575.382 158.85 579.988 Q155.795 584.572 149.985 584.572 Q144.174 584.572 141.096 579.988 Q138.04 575.382 138.04 566.655 Q138.04 557.905 141.096 553.322 Q144.174 548.715 149.985 548.715 Z" fill="#000000" fill-rule="evenodd" fill-opacity="1" /><path clip-path="url(#clip870)" d="M170.146 578.021 L175.031 578.021 L175.031 583.9 L170.146 583.9 L170.146 578.021 Z" fill="#000000" fill-rule="evenodd" fill-opacity="1" /><path clip-path="url(#clip870)" d="M195.216 567.488 Q191.882 567.488 189.961 569.271 Q188.063 571.053 188.063 574.178 Q188.063 577.303 189.961 579.086 Q191.882 580.868 195.216 580.868 Q198.549 580.868 200.47 579.086 Q202.392 577.28 202.392 574.178 Q202.392 571.053 200.47 569.271 Q198.572 567.488 195.216 567.488 M190.54 565.498 Q187.531 564.757 185.841 562.697 Q184.174 560.637 184.174 557.674 Q184.174 553.53 187.114 551.123 Q190.077 548.715 195.216 548.715 Q200.378 548.715 203.318 551.123 Q206.257 553.53 206.257 557.674 Q206.257 560.637 204.568 562.697 Q202.901 564.757 199.915 565.498 Q203.294 566.285 205.169 568.576 Q207.068 570.868 207.068 574.178 Q207.068 579.201 203.989 581.886 Q200.933 584.572 195.216 584.572 Q189.498 584.572 186.42 581.886 Q183.364 579.201 183.364 574.178 Q183.364 570.868 185.262 568.576 Q187.16 566.285 190.54 565.498 M188.827 558.113 Q188.827 560.799 190.494 562.303 Q192.183 563.808 195.216 563.808 Q198.225 563.808 199.915 562.303 Q201.628 560.799 201.628 558.113 Q201.628 555.428 199.915 553.924 Q198.225 552.419 195.216 552.419 Q192.183 552.419 190.494 553.924 Q188.827 555.428 188.827 558.113 Z" fill="#000000" fill-rule="evenodd" fill-opacity="1" /><path clip-path="url(#clip870)" d="M228.225 553.414 L216.419 571.863 L228.225 571.863 L228.225 553.414 M226.998 549.34 L232.878 549.34 L232.878 571.863 L237.808 571.863 L237.808 575.752 L232.878 575.752 L232.878 583.9 L228.225 583.9 L228.225 575.752 L212.623 575.752 L212.623 571.238 L226.998 549.34 Z" fill="#000000" fill-rule="evenodd" fill-opacity="1" /><path clip-path="url(#clip870)" d="M151.466 439.008 Q147.855 439.008 146.026 442.572 Q144.221 446.114 144.221 453.244 Q144.221 460.35 146.026 463.915 Q147.855 467.457 151.466 467.457 Q155.1 467.457 156.906 463.915 Q158.734 460.35 158.734 453.244 Q158.734 446.114 156.906 442.572 Q155.1 439.008 151.466 439.008 M151.466 435.304 Q157.276 435.304 160.332 439.91 Q163.41 444.494 163.41 453.244 Q163.41 461.971 160.332 466.577 Q157.276 471.16 151.466 471.16 Q145.656 471.16 142.577 466.577 Q139.522 461.971 139.522 453.244 Q139.522 444.494 142.577 439.91 Q145.656 435.304 151.466 435.304 Z" fill="#000000" fill-rule="evenodd" fill-opacity="1" /><path clip-path="url(#clip870)" d="M171.628 464.609 L176.512 464.609 L176.512 470.489 L171.628 470.489 L171.628 464.609 Z" fill="#000000" fill-rule="evenodd" fill-opacity="1" /><path clip-path="url(#clip870)" d="M196.697 454.077 Q193.364 454.077 191.443 455.859 Q189.545 457.642 189.545 460.767 Q189.545 463.892 191.443 465.674 Q193.364 467.457 196.697 467.457 Q200.031 467.457 201.952 465.674 Q203.873 463.869 203.873 460.767 Q203.873 457.642 201.952 455.859 Q200.054 454.077 196.697 454.077 M192.021 452.086 Q189.012 451.346 187.322 449.285 Q185.656 447.225 185.656 444.262 Q185.656 440.119 188.595 437.711 Q191.558 435.304 196.697 435.304 Q201.859 435.304 204.799 437.711 Q207.739 440.119 207.739 444.262 Q207.739 447.225 206.049 449.285 Q204.382 451.346 201.396 452.086 Q204.776 452.873 206.651 455.165 Q208.549 457.457 208.549 460.767 Q208.549 465.79 205.47 468.475 Q202.415 471.16 196.697 471.16 Q190.98 471.16 187.901 468.475 Q184.845 465.79 184.845 460.767 Q184.845 457.457 186.744 455.165 Q188.642 452.873 192.021 452.086 M190.308 444.702 Q190.308 447.387 191.975 448.892 Q193.665 450.397 196.697 450.397 Q199.706 450.397 201.396 448.892 Q203.109 447.387 203.109 444.702 Q203.109 442.017 201.396 440.512 Q199.706 439.008 196.697 439.008 Q193.665 439.008 191.975 440.512 Q190.308 442.017 190.308 444.702 Z" fill="#000000" fill-rule="evenodd" fill-opacity="1" /><path clip-path="url(#clip870)" d="M216.905 435.929 L235.262 435.929 L235.262 439.864 L221.188 439.864 L221.188 448.336 Q222.206 447.989 223.225 447.827 Q224.243 447.642 225.262 447.642 Q231.049 447.642 234.429 450.813 Q237.808 453.984 237.808 459.401 Q237.808 464.98 234.336 468.082 Q230.864 471.16 224.544 471.16 Q222.368 471.16 220.1 470.79 Q217.855 470.42 215.447 469.679 L215.447 464.98 Q217.53 466.114 219.753 466.67 Q221.975 467.225 224.452 467.225 Q228.456 467.225 230.794 465.119 Q233.132 463.012 233.132 459.401 Q233.132 455.79 230.794 453.684 Q228.456 451.577 224.452 451.577 Q222.577 451.577 220.702 451.994 Q218.85 452.41 216.905 453.29 L216.905 435.929 Z" fill="#000000" fill-rule="evenodd" fill-opacity="1" /><path clip-path="url(#clip870)" d="M150.309 325.596 Q146.698 325.596 144.869 329.161 Q143.063 332.703 143.063 339.832 Q143.063 346.939 144.869 350.504 Q146.698 354.045 150.309 354.045 Q153.943 354.045 155.748 350.504 Q157.577 346.939 157.577 339.832 Q157.577 332.703 155.748 329.161 Q153.943 325.596 150.309 325.596 M150.309 321.893 Q156.119 321.893 159.174 326.499 Q162.253 331.082 162.253 339.832 Q162.253 348.559 159.174 353.166 Q156.119 357.749 150.309 357.749 Q144.498 357.749 141.42 353.166 Q138.364 348.559 138.364 339.832 Q138.364 331.082 141.42 326.499 Q144.498 321.893 150.309 321.893 Z" fill="#000000" fill-rule="evenodd" fill-opacity="1" /><path clip-path="url(#clip870)" d="M170.471 351.198 L175.355 351.198 L175.355 357.078 L170.471 357.078 L170.471 351.198 Z" fill="#000000" fill-rule="evenodd" fill-opacity="1" /><path clip-path="url(#clip870)" d="M195.54 340.666 Q192.207 340.666 190.285 342.448 Q188.387 344.231 188.387 347.356 Q188.387 350.481 190.285 352.263 Q192.207 354.045 195.54 354.045 Q198.873 354.045 200.794 352.263 Q202.716 350.457 202.716 347.356 Q202.716 344.231 200.794 342.448 Q198.896 340.666 195.54 340.666 M190.864 338.675 Q187.855 337.934 186.165 335.874 Q184.498 333.814 184.498 330.851 Q184.498 326.708 187.438 324.3 Q190.401 321.893 195.54 321.893 Q200.702 321.893 203.642 324.3 Q206.581 326.708 206.581 330.851 Q206.581 333.814 204.892 335.874 Q203.225 337.934 200.239 338.675 Q203.619 339.462 205.493 341.754 Q207.392 344.045 207.392 347.356 Q207.392 352.379 204.313 355.064 Q201.257 357.749 195.54 357.749 Q189.822 357.749 186.744 355.064 Q183.688 352.379 183.688 347.356 Q183.688 344.045 185.586 341.754 Q187.484 339.462 190.864 338.675 M189.151 331.291 Q189.151 333.976 190.818 335.481 Q192.507 336.985 195.54 336.985 Q198.549 336.985 200.239 335.481 Q201.952 333.976 201.952 331.291 Q201.952 328.606 200.239 327.101 Q198.549 325.596 195.54 325.596 Q192.507 325.596 190.818 327.101 Q189.151 328.606 189.151 331.291 Z" fill="#000000" fill-rule="evenodd" fill-opacity="1" /><path clip-path="url(#clip870)" d="M226.28 337.934 Q223.132 337.934 221.28 340.087 Q219.452 342.24 219.452 345.99 Q219.452 349.717 221.28 351.893 Q223.132 354.045 226.28 354.045 Q229.429 354.045 231.257 351.893 Q233.109 349.717 233.109 345.99 Q233.109 342.24 231.257 340.087 Q229.429 337.934 226.28 337.934 M235.563 323.282 L235.563 327.541 Q233.804 326.708 231.998 326.268 Q230.216 325.828 228.456 325.828 Q223.827 325.828 221.373 328.953 Q218.943 332.078 218.595 338.397 Q219.961 336.383 222.021 335.319 Q224.081 334.231 226.558 334.231 Q231.767 334.231 234.776 337.402 Q237.808 340.55 237.808 345.99 Q237.808 351.314 234.66 354.531 Q231.512 357.749 226.28 357.749 Q220.285 357.749 217.114 353.166 Q213.943 348.559 213.943 339.832 Q213.943 331.638 217.831 326.777 Q221.72 321.893 228.271 321.893 Q230.03 321.893 231.813 322.24 Q233.618 322.587 235.563 323.282 Z" fill="#000000" fill-rule="evenodd" fill-opacity="1" /><path clip-path="url(#clip870)" d="M151.373 212.185 Q147.762 212.185 145.934 215.75 Q144.128 219.292 144.128 226.421 Q144.128 233.528 145.934 237.092 Q147.762 240.634 151.373 240.634 Q155.008 240.634 156.813 237.092 Q158.642 233.528 158.642 226.421 Q158.642 219.292 156.813 215.75 Q155.008 212.185 151.373 212.185 M151.373 208.481 Q157.184 208.481 160.239 213.088 Q163.318 217.671 163.318 226.421 Q163.318 235.148 160.239 239.754 Q157.184 244.338 151.373 244.338 Q145.563 244.338 142.485 239.754 Q139.429 235.148 139.429 226.421 Q139.429 217.671 142.485 213.088 Q145.563 208.481 151.373 208.481 Z" fill="#000000" fill-rule="evenodd" fill-opacity="1" /><path clip-path="url(#clip870)" d="M171.535 237.787 L176.42 237.787 L176.42 243.666 L171.535 243.666 L171.535 237.787 Z" fill="#000000" fill-rule="evenodd" fill-opacity="1" /><path clip-path="url(#clip870)" d="M196.605 227.254 Q193.271 227.254 191.35 229.037 Q189.452 230.819 189.452 233.944 Q189.452 237.069 191.35 238.852 Q193.271 240.634 196.605 240.634 Q199.938 240.634 201.859 238.852 Q203.781 237.046 203.781 233.944 Q203.781 230.819 201.859 229.037 Q199.961 227.254 196.605 227.254 M191.929 225.264 Q188.92 224.523 187.23 222.463 Q185.563 220.403 185.563 217.44 Q185.563 213.296 188.503 210.889 Q191.466 208.481 196.605 208.481 Q201.767 208.481 204.706 210.889 Q207.646 213.296 207.646 217.44 Q207.646 220.403 205.956 222.463 Q204.29 224.523 201.304 225.264 Q204.683 226.051 206.558 228.342 Q208.456 230.634 208.456 233.944 Q208.456 238.967 205.378 241.653 Q202.322 244.338 196.605 244.338 Q190.887 244.338 187.808 241.653 Q184.753 238.967 184.753 233.944 Q184.753 230.634 186.651 228.342 Q188.549 226.051 191.929 225.264 M190.216 217.88 Q190.216 220.565 191.882 222.069 Q193.572 223.574 196.605 223.574 Q199.614 223.574 201.304 222.069 Q203.017 220.565 203.017 217.88 Q203.017 215.194 201.304 213.69 Q199.614 212.185 196.605 212.185 Q193.572 212.185 191.882 213.69 Q190.216 215.194 190.216 217.88 Z" fill="#000000" fill-rule="evenodd" fill-opacity="1" /><path clip-path="url(#clip870)" d="M215.586 209.106 L237.808 209.106 L237.808 211.097 L225.262 243.666 L220.378 243.666 L232.183 213.042 L215.586 213.042 L215.586 209.106 Z" fill="#000000" fill-rule="evenodd" fill-opacity="1" /><path clip-path="url(#clip870)" d="M150.563 98.7738 Q146.952 98.7738 145.123 102.339 Q143.318 105.88 143.318 113.01 Q143.318 120.116 145.123 123.681 Q146.952 127.223 150.563 127.223 Q154.197 127.223 156.003 123.681 Q157.832 120.116 157.832 113.01 Q157.832 105.88 156.003 102.339 Q154.197 98.7738 150.563 98.7738 M150.563 95.0701 Q156.373 95.0701 159.429 99.6766 Q162.508 104.26 162.508 113.01 Q162.508 121.737 159.429 126.343 Q156.373 130.926 150.563 130.926 Q144.753 130.926 141.674 126.343 Q138.619 121.737 138.619 113.01 Q138.619 104.26 141.674 99.6766 Q144.753 95.0701 150.563 95.0701 Z" fill="#000000" fill-rule="evenodd" fill-opacity="1" /><path clip-path="url(#clip870)" d="M170.725 124.376 L175.609 124.376 L175.609 130.255 L170.725 130.255 L170.725 124.376 Z" fill="#000000" fill-rule="evenodd" fill-opacity="1" /><path clip-path="url(#clip870)" d="M195.794 113.843 Q192.461 113.843 190.54 115.626 Q188.642 117.408 188.642 120.533 Q188.642 123.658 190.54 125.44 Q192.461 127.223 195.794 127.223 Q199.128 127.223 201.049 125.44 Q202.97 123.635 202.97 120.533 Q202.97 117.408 201.049 115.626 Q199.151 113.843 195.794 113.843 M191.119 111.852 Q188.109 111.112 186.42 109.052 Q184.753 106.991 184.753 104.028 Q184.753 99.8849 187.693 97.4775 Q190.656 95.0701 195.794 95.0701 Q200.956 95.0701 203.896 97.4775 Q206.836 99.8849 206.836 104.028 Q206.836 106.991 205.146 109.052 Q203.48 111.112 200.494 111.852 Q203.873 112.639 205.748 114.931 Q207.646 117.223 207.646 120.533 Q207.646 125.556 204.568 128.241 Q201.512 130.926 195.794 130.926 Q190.077 130.926 186.998 128.241 Q183.943 125.556 183.943 120.533 Q183.943 117.223 185.841 114.931 Q187.739 112.639 191.119 111.852 M189.406 104.468 Q189.406 107.153 191.072 108.658 Q192.762 110.163 195.794 110.163 Q198.804 110.163 200.494 108.658 Q202.206 107.153 202.206 104.468 Q202.206 101.783 200.494 100.278 Q198.804 98.7738 195.794 98.7738 Q192.762 98.7738 191.072 100.278 Q189.406 101.783 189.406 104.468 Z" fill="#000000" fill-rule="evenodd" fill-opacity="1" /><path clip-path="url(#clip870)" d="M225.956 113.843 Q222.623 113.843 220.702 115.626 Q218.804 117.408 218.804 120.533 Q218.804 123.658 220.702 125.44 Q222.623 127.223 225.956 127.223 Q229.29 127.223 231.211 125.44 Q233.132 123.635 233.132 120.533 Q233.132 117.408 231.211 115.626 Q229.313 113.843 225.956 113.843 M221.28 111.852 Q218.271 111.112 216.581 109.052 Q214.915 106.991 214.915 104.028 Q214.915 99.8849 217.855 97.4775 Q220.817 95.0701 225.956 95.0701 Q231.118 95.0701 234.058 97.4775 Q236.998 99.8849 236.998 104.028 Q236.998 106.991 235.308 109.052 Q233.641 111.112 230.655 111.852 Q234.035 112.639 235.91 114.931 Q237.808 117.223 237.808 120.533 Q237.808 125.556 234.729 128.241 Q231.674 130.926 225.956 130.926 Q220.239 130.926 217.16 128.241 Q214.105 125.556 214.105 120.533 Q214.105 117.223 216.003 114.931 Q217.901 112.639 221.28 111.852 M219.567 104.468 Q219.567 107.153 221.234 108.658 Q222.924 110.163 225.956 110.163 Q228.966 110.163 230.655 108.658 Q232.368 107.153 232.368 104.468 Q232.368 101.783 230.655 100.278 Q228.966 98.7738 225.956 98.7738 Q222.924 98.7738 221.234 100.278 Q219.567 101.783 219.567 104.468 Z" fill="#000000" fill-rule="evenodd" fill-opacity="1" /><path clip-path="url(#clip870)" d="M66.098 669.339 L89.7466 678.06 L89.7466 660.586 L66.098 669.339 M59.7642 672.967 L59.7642 665.679 L107.284 647.568 L107.284 654.252 L95.0938 658.581 L95.0938 680.001 L107.284 684.33 L107.284 691.11 L59.7642 672.967 Z" fill="#000000" fill-rule="evenodd" fill-opacity="1" /><path clip-path="url(#clip870)" d="M77.1107 620.227 Q76.5378 621.214 76.2832 622.392 Q75.9967 623.538 75.9967 624.938 Q75.9967 629.903 79.2432 632.577 Q82.4579 635.219 88.5053 635.219 L107.284 635.219 L107.284 641.107 L71.6362 641.107 L71.6362 635.219 L77.1744 635.219 Q73.9279 633.373 72.3683 630.413 Q70.7768 627.452 70.7768 623.219 Q70.7768 622.615 70.8723 621.882 Q70.936 621.15 71.0951 620.259 L77.1107 620.227 Z" fill="#000000" fill-rule="evenodd" fill-opacity="1" /><path clip-path="url(#clip870)" d="M87.9961 585.025 L90.8606 585.025 L90.8606 611.952 Q96.9081 611.57 100.091 608.324 Q103.242 605.045 103.242 599.221 Q103.242 595.847 102.414 592.696 Q101.587 589.513 99.9318 586.394 L105.47 586.394 Q106.807 589.545 107.507 592.855 Q108.207 596.165 108.207 599.571 Q108.207 608.101 103.242 613.098 Q98.2767 618.063 89.8103 618.063 Q81.0574 618.063 75.9331 613.352 Q70.7768 608.61 70.7768 600.589 Q70.7768 593.396 75.4238 589.226 Q80.0389 585.025 87.9961 585.025 M86.2773 590.881 Q81.4712 590.945 78.6066 593.587 Q75.7421 596.197 75.7421 600.526 Q75.7421 605.427 78.5112 608.387 Q81.2802 611.315 86.3092 611.761 L86.2773 590.881 Z" fill="#000000" fill-rule="evenodd" fill-opacity="1" /><path clip-path="url(#clip870)" d="M89.3647 559.212 Q89.3647 566.31 90.9879 569.047 Q92.6112 571.784 96.5261 571.784 Q99.6453 571.784 101.491 569.747 Q103.306 567.678 103.306 564.146 Q103.306 559.276 99.8681 556.348 Q96.3988 553.387 90.6697 553.387 L89.3647 553.387 L89.3647 559.212 M86.9457 547.531 L107.284 547.531 L107.284 553.387 L101.873 553.387 Q105.12 555.393 106.679 558.385 Q108.207 561.376 108.207 565.705 Q108.207 571.18 105.152 574.426 Q102.064 577.641 96.9081 577.641 Q90.8925 577.641 87.8369 573.63 Q84.7814 569.588 84.7814 561.599 L84.7814 553.387 L84.2085 553.387 Q80.1662 553.387 77.9701 556.061 Q75.7421 558.703 75.7421 563.509 Q75.7421 566.564 76.4741 569.461 Q77.2062 572.357 78.6703 575.031 L73.2595 575.031 Q72.0181 571.816 71.4134 568.792 Q70.7768 565.769 70.7768 562.904 Q70.7768 555.17 74.7872 551.35 Q78.7976 547.531 86.9457 547.531 Z" fill="#000000" fill-rule="evenodd" fill-opacity="1" /><path clip-path="url(#clip870)" d="M59.7642 535.945 L59.7642 529.484 L88.6326 529.484 Q96.2715 529.484 99.6453 526.715 Q102.987 523.946 102.987 517.74 Q102.987 511.565 99.6453 508.796 Q96.2715 506.027 88.6326 506.027 L59.7642 506.027 L59.7642 499.565 L89.4284 499.565 Q98.7223 499.565 103.465 504.181 Q108.207 508.764 108.207 517.74 Q108.207 526.747 103.465 531.362 Q98.7223 535.945 89.4284 535.945 L59.7642 535.945 Z" fill="#000000" fill-rule="evenodd" fill-opacity="1" /><path clip-path="url(#clip870)" d="M85.7681 458.125 L107.284 458.125 L107.284 463.981 L85.959 463.981 Q80.8983 463.981 78.3838 465.954 Q75.8694 467.928 75.8694 471.875 Q75.8694 476.617 78.8931 479.354 Q81.9168 482.092 87.1367 482.092 L107.284 482.092 L107.284 487.98 L71.6362 487.98 L71.6362 482.092 L77.1744 482.092 Q73.9597 479.991 72.3683 477.158 Q70.7768 474.294 70.7768 470.57 Q70.7768 464.427 74.5963 461.276 Q78.3838 458.125 85.7681 458.125 Z" fill="#000000" fill-rule="evenodd" fill-opacity="1" /><path clip-path="url(#clip870)" d="M77.0471 422.986 L57.759 422.986 L57.759 417.13 L107.284 417.13 L107.284 422.986 L101.937 422.986 Q105.12 424.832 106.679 427.665 Q108.207 430.466 108.207 434.412 Q108.207 440.874 103.051 444.948 Q97.8947 448.99 89.492 448.99 Q81.0893 448.99 75.9331 444.948 Q70.7768 440.874 70.7768 434.412 Q70.7768 430.466 72.3364 427.665 Q73.8642 424.832 77.0471 422.986 M89.492 442.942 Q95.9532 442.942 99.6453 440.301 Q103.306 437.627 103.306 432.98 Q103.306 428.333 99.6453 425.66 Q95.9532 422.986 89.492 422.986 Q83.0308 422.986 79.3705 425.66 Q75.6784 428.333 75.6784 432.98 Q75.6784 437.627 79.3705 440.301 Q83.0308 442.942 89.492 442.942 Z" fill="#000000" fill-rule="evenodd" fill-opacity="1" /><path clip-path="url(#clip870)" d="M87.9961 374.575 L90.8606 374.575 L90.8606 401.502 Q96.9081 401.12 100.091 397.873 Q103.242 394.595 103.242 388.77 Q103.242 385.396 102.414 382.245 Q101.587 379.063 99.9318 375.943 L105.47 375.943 Q106.807 379.094 107.507 382.405 Q108.207 385.715 108.207 389.12 Q108.207 397.65 103.242 402.648 Q98.2767 407.613 89.8103 407.613 Q81.0574 407.613 75.9331 402.902 Q70.7768 398.16 70.7768 390.139 Q70.7768 382.946 75.4238 378.776 Q80.0389 374.575 87.9961 374.575 M86.2773 380.431 Q81.4712 380.495 78.6066 383.137 Q75.7421 385.747 75.7421 390.075 Q75.7421 394.977 78.5112 397.937 Q81.2802 400.865 86.3092 401.311 L86.2773 380.431 Z" fill="#000000" fill-rule="evenodd" fill-opacity="1" /><path clip-path="url(#clip870)" d="M77.1107 344.306 Q76.5378 345.293 76.2832 346.47 Q75.9967 347.616 75.9967 349.016 Q75.9967 353.982 79.2432 356.655 Q82.4579 359.297 88.5053 359.297 L107.284 359.297 L107.284 365.185 L71.6362 365.185 L71.6362 359.297 L77.1744 359.297 Q73.9279 357.451 72.3683 354.491 Q70.7768 351.531 70.7768 347.298 Q70.7768 346.693 70.8723 345.961 Q70.936 345.229 71.0951 344.338 L77.1107 344.306 Z" fill="#000000" fill-rule="evenodd" fill-opacity="1" /><path clip-path="url(#clip870)" d="M63.4244 302.324 L70.2039 302.324 Q67.1802 305.571 65.6843 309.263 Q64.1883 312.923 64.1883 317.061 Q64.1883 325.209 69.1854 329.537 Q74.1507 333.866 83.5719 333.866 Q92.9613 333.866 97.9584 329.537 Q102.924 325.209 102.924 317.061 Q102.924 312.923 101.428 309.263 Q99.9318 305.571 96.9081 302.324 L103.624 302.324 Q105.916 305.698 107.061 309.485 Q108.207 313.241 108.207 317.443 Q108.207 328.232 101.619 334.439 Q94.9983 340.646 83.5719 340.646 Q72.1136 340.646 65.5251 334.439 Q58.9048 328.232 58.9048 317.443 Q58.9048 313.178 60.0506 309.422 Q61.1646 305.634 63.4244 302.324 Z" fill="#000000" fill-rule="evenodd" fill-opacity="1" /><path clip-path="url(#clip870)" d="M93.2159 293.253 L71.6362 293.253 L71.6362 287.396 L92.9931 287.396 Q98.0539 287.396 100.6 285.423 Q103.115 283.45 103.115 279.503 Q103.115 274.76 100.091 272.023 Q97.0672 269.254 91.8473 269.254 L71.6362 269.254 L71.6362 263.398 L107.284 263.398 L107.284 269.254 L101.81 269.254 Q105.056 271.387 106.648 274.219 Q108.207 277.02 108.207 280.744 Q108.207 286.887 104.388 290.07 Q100.568 293.253 93.2159 293.253 M70.7768 278.516 L70.7768 278.516 Z" fill="#000000" fill-rule="evenodd" fill-opacity="1" /><path clip-path="url(#clip870)" d="M77.1107 230.678 Q76.5378 231.665 76.2832 232.842 Q75.9967 233.988 75.9967 235.389 Q75.9967 240.354 79.2432 243.027 Q82.4579 245.669 88.5053 245.669 L107.284 245.669 L107.284 251.557 L71.6362 251.557 L71.6362 245.669 L77.1744 245.669 Q73.9279 243.823 72.3683 240.863 Q70.7768 237.903 70.7768 233.67 Q70.7768 233.065 70.8723 232.333 Q70.936 231.601 71.0951 230.71 L77.1107 230.678 Z" fill="#000000" fill-rule="evenodd" fill-opacity="1" /><path clip-path="url(#clip870)" d="M71.6362 228.736 L71.6362 222.53 L101.555 211.39 L71.6362 200.25 L71.6362 194.043 L107.284 207.411 L107.284 215.368 L71.6362 228.736 Z" fill="#000000" fill-rule="evenodd" fill-opacity="1" /><path clip-path="url(#clip870)" d="M87.9961 155.467 L90.8606 155.467 L90.8606 182.394 Q96.9081 182.012 100.091 178.766 Q103.242 175.487 103.242 169.663 Q103.242 166.289 102.414 163.138 Q101.587 159.955 99.9318 156.836 L105.47 156.836 Q106.807 159.987 107.507 163.297 Q108.207 166.607 108.207 170.013 Q108.207 178.543 103.242 183.54 Q98.2767 188.505 89.8103 188.505 Q81.0574 188.505 75.9331 183.795 Q70.7768 179.052 70.7768 171.031 Q70.7768 163.838 75.4238 159.669 Q80.0389 155.467 87.9961 155.467 M86.2773 161.324 Q81.4712 161.387 78.6066 164.029 Q75.7421 166.639 75.7421 170.968 Q75.7421 175.869 78.5112 178.829 Q81.2802 181.758 86.3092 182.203 L86.2773 161.324 Z" fill="#000000" fill-rule="evenodd" fill-opacity="1" /><circle clip-path="url(#clip872)" cx="728.857" cy="634.953" r="14" fill="#009af9" fill-rule="evenodd" fill-opacity="1" stroke="#000000" stroke-opacity="1" stroke-width="2"/>
<circle clip-path="url(#clip872)" cx="712.999" cy="666.806" r="14" fill="#009af9" fill-rule="evenodd" fill-opacity="1" stroke="#000000" stroke-opacity="1" stroke-width="2"/>
<circle clip-path="url(#clip872)" cx="601.994" cy="564.409" r="14" fill="#009af9" fill-rule="evenodd" fill-opacity="1" stroke="#000000" stroke-opacity="1" stroke-width="2"/>
<circle clip-path="url(#clip872)" cx="990.513" cy="767.776" r="14" fill="#009af9" fill-rule="evenodd" fill-opacity="1" stroke="#000000" stroke-opacity="1" stroke-width="2"/>
<circle clip-path="url(#clip872)" cx="911.224" cy="763.229" r="14" fill="#009af9" fill-rule="evenodd" fill-opacity="1" stroke="#000000" stroke-opacity="1" stroke-width="2"/>
<circle clip-path="url(#clip872)" cx="332.409" cy="190.087" r="14" fill="#009af9" fill-rule="evenodd" fill-opacity="1" stroke="#000000" stroke-opacity="1" stroke-width="2"/>
<circle clip-path="url(#clip872)" cx="483.059" cy="432.118" r="14" fill="#009af9" fill-rule="evenodd" fill-opacity="1" stroke="#000000" stroke-opacity="1" stroke-width="2"/>
<circle clip-path="url(#clip872)" cx="387.911" cy="279.123" r="14" fill="#009af9" fill-rule="evenodd" fill-opacity="1" stroke="#000000" stroke-opacity="1" stroke-width="2"/>
<circle clip-path="url(#clip872)" cx="498.917" cy="446.998" r="14" fill="#009af9" fill-rule="evenodd" fill-opacity="1" stroke="#000000" stroke-opacity="1" stroke-width="2"/>
<circle clip-path="url(#clip872)" cx="300.693" cy="120.141" r="14" fill="#009af9" fill-rule="evenodd" fill-opacity="1" stroke="#000000" stroke-opacity="1" stroke-width="2"/>
<circle clip-path="url(#clip872)" cx="792.289" cy="709.589" r="14" fill="#009af9" fill-rule="evenodd" fill-opacity="1" stroke="#000000" stroke-opacity="1" stroke-width="2"/>
<circle clip-path="url(#clip872)" cx="546.491" cy="552.678" r="14" fill="#009af9" fill-rule="evenodd" fill-opacity="1" stroke="#000000" stroke-opacity="1" stroke-width="2"/>
<circle clip-path="url(#clip872)" cx="324.48" cy="191.007" r="14" fill="#009af9" fill-rule="evenodd" fill-opacity="1" stroke="#000000" stroke-opacity="1" stroke-width="2"/>
<circle clip-path="url(#clip872)" cx="974.656" cy="776.19" r="14" fill="#009af9" fill-rule="evenodd" fill-opacity="1" stroke="#000000" stroke-opacity="1" stroke-width="2"/>
<circle clip-path="url(#clip872)" cx="364.124" cy="198.223" r="14" fill="#009af9" fill-rule="evenodd" fill-opacity="1" stroke="#000000" stroke-opacity="1" stroke-width="2"/>
<circle clip-path="url(#clip872)" cx="681.283" cy="624.756" r="14" fill="#009af9" fill-rule="evenodd" fill-opacity="1" stroke="#000000" stroke-opacity="1" stroke-width="2"/>
<circle clip-path="url(#clip872)" cx="950.869" cy="738.641" r="14" fill="#009af9" fill-rule="evenodd" fill-opacity="1" stroke="#000000" stroke-opacity="1" stroke-width="2"/>
<circle clip-path="url(#clip872)" cx="879.508" cy="759.63" r="14" fill="#009af9" fill-rule="evenodd" fill-opacity="1" stroke="#000000" stroke-opacity="1" stroke-width="2"/>
<circle clip-path="url(#clip872)" cx="435.485" cy="357.217" r="14" fill="#009af9" fill-rule="evenodd" fill-opacity="1" stroke="#000000" stroke-opacity="1" stroke-width="2"/>
<circle clip-path="url(#clip872)" cx="625.781" cy="559.001" r="14" fill="#009af9" fill-rule="evenodd" fill-opacity="1" stroke="#000000" stroke-opacity="1" stroke-width="2"/>
<circle clip-path="url(#clip872)" cx="609.923" cy="561.608" r="14" fill="#009af9" fill-rule="evenodd" fill-opacity="1" stroke="#000000" stroke-opacity="1" stroke-width="2"/>
<circle clip-path="url(#clip872)" cx="506.846" cy="466.834" r="14" fill="#009af9" fill-rule="evenodd" fill-opacity="1" stroke="#000000" stroke-opacity="1" stroke-width="2"/>
<circle clip-path="url(#clip872)" cx="340.338" cy="156.187" r="14" fill="#009af9" fill-rule="evenodd" fill-opacity="1" stroke="#000000" stroke-opacity="1" stroke-width="2"/>
<circle clip-path="url(#clip872)" cx="839.863" cy="718.879" r="14" fill="#009af9" fill-rule="evenodd" fill-opacity="1" stroke="#000000" stroke-opacity="1" stroke-width="2"/>
<circle clip-path="url(#clip872)" cx="824.005" cy="733.39" r="14" fill="#009af9" fill-rule="evenodd" fill-opacity="1" stroke="#000000" stroke-opacity="1" stroke-width="2"/>
<circle clip-path="url(#clip872)" cx="490.988" cy="447.704" r="14" fill="#009af9" fill-rule="evenodd" fill-opacity="1" stroke="#000000" stroke-opacity="1" stroke-width="2"/>
<circle clip-path="url(#clip872)" cx="927.082" cy="739.124" r="14" fill="#009af9" fill-rule="evenodd" fill-opacity="1" stroke="#000000" stroke-opacity="1" stroke-width="2"/>
<circle clip-path="url(#clip872)" cx="982.584" cy="777.018" r="14" fill="#009af9" fill-rule="evenodd" fill-opacity="1" stroke="#000000" stroke-opacity="1" stroke-width="2"/>
<circle clip-path="url(#clip872)" cx="720.928" cy="683.14" r="14" fill="#009af9" fill-rule="evenodd" fill-opacity="1" stroke="#000000" stroke-opacity="1" stroke-width="2"/>
<circle clip-path="url(#clip872)" cx="570.278" cy="568.039" r="14" fill="#009af9" fill-rule="evenodd" fill-opacity="1" stroke="#000000" stroke-opacity="1" stroke-width="2"/>
<circle clip-path="url(#clip872)" cx="372.053" cy="221.922" r="14" fill="#009af9" fill-rule="evenodd" fill-opacity="1" stroke="#000000" stroke-opacity="1" stroke-width="2"/>
<circle clip-path="url(#clip872)" cx="1022.23" cy="773.101" r="14" fill="#009af9" fill-rule="evenodd" fill-opacity="1" stroke="#000000" stroke-opacity="1" stroke-width="2"/>
<circle clip-path="url(#clip872)" cx="966.727" cy="767.89" r="14" fill="#009af9" fill-rule="evenodd" fill-opacity="1" stroke="#000000" stroke-opacity="1" stroke-width="2"/>
<circle clip-path="url(#clip872)" cx="855.721" cy="735.204" r="14" fill="#009af9" fill-rule="evenodd" fill-opacity="1" stroke="#000000" stroke-opacity="1" stroke-width="2"/>
<circle clip-path="url(#clip872)" cx="379.982" cy="241.895" r="14" fill="#009af9" fill-rule="evenodd" fill-opacity="1" stroke="#000000" stroke-opacity="1" stroke-width="2"/>
<circle clip-path="url(#clip872)" cx="958.798" cy="755.667" r="14" fill="#009af9" fill-rule="evenodd" fill-opacity="1" stroke="#000000" stroke-opacity="1" stroke-width="2"/>
<circle clip-path="url(#clip872)" cx="530.633" cy="465.296" r="14" fill="#009af9" fill-rule="evenodd" fill-opacity="1" stroke="#000000" stroke-opacity="1" stroke-width="2"/>
<circle clip-path="url(#clip872)" cx="705.07" cy="676.564" r="14" fill="#009af9" fill-rule="evenodd" fill-opacity="1" stroke="#000000" stroke-opacity="1" stroke-width="2"/>
<circle clip-path="url(#clip872)" cx="586.136" cy="588.459" r="14" fill="#009af9" fill-rule="evenodd" fill-opacity="1" stroke="#000000" stroke-opacity="1" stroke-width="2"/>
<circle clip-path="url(#clip872)" cx="816.076" cy="708.382" r="14" fill="#009af9" fill-rule="evenodd" fill-opacity="1" stroke="#000000" stroke-opacity="1" stroke-width="2"/>
<circle clip-path="url(#clip872)" cx="594.065" cy="578.935" r="14" fill="#009af9" fill-rule="evenodd" fill-opacity="1" stroke="#000000" stroke-opacity="1" stroke-width="2"/>
<circle clip-path="url(#clip872)" cx="538.562" cy="511.596" r="14" fill="#009af9" fill-rule="evenodd" fill-opacity="1" stroke="#000000" stroke-opacity="1" stroke-width="2"/>
<circle clip-path="url(#clip872)" cx="689.212" cy="658.941" r="14" fill="#009af9" fill-rule="evenodd" fill-opacity="1" stroke="#000000" stroke-opacity="1" stroke-width="2"/>
<circle clip-path="url(#clip872)" cx="475.13" cy="427.519" r="14" fill="#009af9" fill-rule="evenodd" fill-opacity="1" stroke="#000000" stroke-opacity="1" stroke-width="2"/>
<circle clip-path="url(#clip872)" cx="919.153" cy="749.106" r="14" fill="#009af9" fill-rule="evenodd" fill-opacity="1" stroke="#000000" stroke-opacity="1" stroke-width="2"/>
<circle clip-path="url(#clip872)" cx="467.201" cy="418.172" r="14" fill="#009af9" fill-rule="evenodd" fill-opacity="1" stroke="#000000" stroke-opacity="1" stroke-width="2"/>
<circle clip-path="url(#clip872)" cx="348.266" cy="177.835" r="14" fill="#009af9" fill-rule="evenodd" fill-opacity="1" stroke="#000000" stroke-opacity="1" stroke-width="2"/>
<circle clip-path="url(#clip872)" cx="800.218" cy="695.64" r="14" fill="#009af9" fill-rule="evenodd" fill-opacity="1" stroke="#000000" stroke-opacity="1" stroke-width="2"/>
<circle clip-path="url(#clip872)" cx="665.425" cy="605.804" r="14" fill="#009af9" fill-rule="evenodd" fill-opacity="1" stroke="#000000" stroke-opacity="1" stroke-width="2"/>
<circle clip-path="url(#clip872)" cx="808.147" cy="706.623" r="14" fill="#009af9" fill-rule="evenodd" fill-opacity="1" stroke="#000000" stroke-opacity="1" stroke-width="2"/>
<circle clip-path="url(#clip872)" cx="308.622" cy="68.5296" r="14" fill="#009af9" fill-rule="evenodd" fill-opacity="1" stroke="#000000" stroke-opacity="1" stroke-width="2"/>
<circle clip-path="url(#clip872)" cx="641.639" cy="570.783" r="14" fill="#009af9" fill-rule="evenodd" fill-opacity="1" stroke="#000000" stroke-opacity="1" stroke-width="2"/>
<circle clip-path="url(#clip872)" cx="514.775" cy="462.661" r="14" fill="#009af9" fill-rule="evenodd" fill-opacity="1" stroke="#000000" stroke-opacity="1" stroke-width="2"/>
<circle clip-path="url(#clip872)" cx="903.295" cy="765.72" r="14" fill="#009af9" fill-rule="evenodd" fill-opacity="1" stroke="#000000" stroke-opacity="1" stroke-width="2"/>
<circle clip-path="url(#clip872)" cx="419.627" cy="292.04" r="14" fill="#009af9" fill-rule="evenodd" fill-opacity="1" stroke="#000000" stroke-opacity="1" stroke-width="2"/>
<circle clip-path="url(#clip872)" cx="411.698" cy="334.277" r="14" fill="#009af9" fill-rule="evenodd" fill-opacity="1" stroke="#000000" stroke-opacity="1" stroke-width="2"/>
<circle clip-path="url(#clip872)" cx="403.769" cy="322.002" r="14" fill="#009af9" fill-rule="evenodd" fill-opacity="1" stroke="#000000" stroke-opacity="1" stroke-width="2"/>
<circle clip-path="url(#clip872)" cx="617.852" cy="560.231" r="14" fill="#009af9" fill-rule="evenodd" fill-opacity="1" stroke="#000000" stroke-opacity="1" stroke-width="2"/>
<circle clip-path="url(#clip872)" cx="657.497" cy="576.745" r="14" fill="#009af9" fill-rule="evenodd" fill-opacity="1" stroke="#000000" stroke-opacity="1" stroke-width="2"/>
<circle clip-path="url(#clip872)" cx="554.42" cy="543.153" r="14" fill="#009af9" fill-rule="evenodd" fill-opacity="1" stroke="#000000" stroke-opacity="1" stroke-width="2"/>
<circle clip-path="url(#clip872)" cx="292.764" cy="126.472" r="14" fill="#009af9" fill-rule="evenodd" fill-opacity="1" stroke="#000000" stroke-opacity="1" stroke-width="2"/>
<circle clip-path="url(#clip872)" cx="395.84" cy="296.881" r="14" fill="#009af9" fill-rule="evenodd" fill-opacity="1" stroke="#000000" stroke-opacity="1" stroke-width="2"/>
<circle clip-path="url(#clip872)" cx="562.349" cy="530.872" r="14" fill="#009af9" fill-rule="evenodd" fill-opacity="1" stroke="#000000" stroke-opacity="1" stroke-width="2"/>
<circle clip-path="url(#clip872)" cx="784.36" cy="698.149" r="14" fill="#009af9" fill-rule="evenodd" fill-opacity="1" stroke="#000000" stroke-opacity="1" stroke-width="2"/>
<circle clip-path="url(#clip872)" cx="935.011" cy="742.355" r="14" fill="#009af9" fill-rule="evenodd" fill-opacity="1" stroke="#000000" stroke-opacity="1" stroke-width="2"/>
<circle clip-path="url(#clip872)" cx="443.414" cy="376.704" r="14" fill="#009af9" fill-rule="evenodd" fill-opacity="1" stroke="#000000" stroke-opacity="1" stroke-width="2"/>
<circle clip-path="url(#clip872)" cx="895.366" cy="747.436" r="14" fill="#009af9" fill-rule="evenodd" fill-opacity="1" stroke="#000000" stroke-opacity="1" stroke-width="2"/>
<circle clip-path="url(#clip872)" cx="752.644" cy="655.697" r="14" fill="#009af9" fill-rule="evenodd" fill-opacity="1" stroke="#000000" stroke-opacity="1" stroke-width="2"/>
<circle clip-path="url(#clip872)" cx="284.835" cy="189.948" r="14" fill="#009af9" fill-rule="evenodd" fill-opacity="1" stroke="#000000" stroke-opacity="1" stroke-width="2"/>
<circle clip-path="url(#clip872)" cx="776.431" cy="687.796" r="14" fill="#009af9" fill-rule="evenodd" fill-opacity="1" stroke="#000000" stroke-opacity="1" stroke-width="2"/>
<circle clip-path="url(#clip872)" cx="633.71" cy="565.078" r="14" fill="#009af9" fill-rule="evenodd" fill-opacity="1" stroke="#000000" stroke-opacity="1" stroke-width="2"/>
<circle clip-path="url(#clip872)" cx="356.195" cy="174.769" r="14" fill="#009af9" fill-rule="evenodd" fill-opacity="1" stroke="#000000" stroke-opacity="1" stroke-width="2"/>
<circle clip-path="url(#clip872)" cx="1006.37" cy="778.047" r="14" fill="#009af9" fill-rule="evenodd" fill-opacity="1" stroke="#000000" stroke-opacity="1" stroke-width="2"/>
<circle clip-path="url(#clip872)" cx="522.704" cy="479.702" r="14" fill="#009af9" fill-rule="evenodd" fill-opacity="1" stroke="#000000" stroke-opacity="1" stroke-width="2"/>
<circle clip-path="url(#clip872)" cx="427.556" cy="318.229" r="14" fill="#009af9" fill-rule="evenodd" fill-opacity="1" stroke="#000000" stroke-opacity="1" stroke-width="2"/>
<circle clip-path="url(#clip872)" cx="1030.16" cy="776.217" r="14" fill="#009af9" fill-rule="evenodd" fill-opacity="1" stroke="#000000" stroke-opacity="1" stroke-width="2"/>
<circle clip-path="url(#clip872)" cx="276.906" cy="131.265" r="14" fill="#009af9" fill-rule="evenodd" fill-opacity="1" stroke="#000000" stroke-opacity="1" stroke-width="2"/>
<circle clip-path="url(#clip872)" cx="744.715" cy="640.875" r="14" fill="#009af9" fill-rule="evenodd" fill-opacity="1" stroke="#000000" stroke-opacity="1" stroke-width="2"/>
<circle clip-path="url(#clip872)" cx="847.792" cy="724.989" r="14" fill="#009af9" fill-rule="evenodd" fill-opacity="1" stroke="#000000" stroke-opacity="1" stroke-width="2"/>
<circle clip-path="url(#clip872)" cx="451.343" cy="399.723" r="14" fill="#009af9" fill-rule="evenodd" fill-opacity="1" stroke="#000000" stroke-opacity="1" stroke-width="2"/>
<circle clip-path="url(#clip872)" cx="697.141" cy="655.971" r="14" fill="#009af9" fill-rule="evenodd" fill-opacity="1" stroke="#000000" stroke-opacity="1" stroke-width="2"/>
<circle clip-path="url(#clip872)" cx="760.573" cy="655.224" r="14" fill="#009af9" fill-rule="evenodd" fill-opacity="1" stroke="#000000" stroke-opacity="1" stroke-width="2"/>
<circle clip-path="url(#clip872)" cx="831.934" cy="726.398" r="14" fill="#009af9" fill-rule="evenodd" fill-opacity="1" stroke="#000000" stroke-opacity="1" stroke-width="2"/>
<circle clip-path="url(#clip872)" cx="736.786" cy="644.143" r="14" fill="#009af9" fill-rule="evenodd" fill-opacity="1" stroke="#000000" stroke-opacity="1" stroke-width="2"/>
<circle clip-path="url(#clip872)" cx="459.272" cy="384.917" r="14" fill="#009af9" fill-rule="evenodd" fill-opacity="1" stroke="#000000" stroke-opacity="1" stroke-width="2"/>
<circle clip-path="url(#clip872)" cx="887.437" cy="773.472" r="14" fill="#009af9" fill-rule="evenodd" fill-opacity="1" stroke="#000000" stroke-opacity="1" stroke-width="2"/>
<circle clip-path="url(#clip872)" cx="649.568" cy="554.595" r="14" fill="#009af9" fill-rule="evenodd" fill-opacity="1" stroke="#000000" stroke-opacity="1" stroke-width="2"/>
<circle clip-path="url(#clip872)" cx="863.65" cy="744.183" r="14" fill="#009af9" fill-rule="evenodd" fill-opacity="1" stroke="#000000" stroke-opacity="1" stroke-width="2"/>
<circle clip-path="url(#clip872)" cx="578.207" cy="585.179" r="14" fill="#009af9" fill-rule="evenodd" fill-opacity="1" stroke="#000000" stroke-opacity="1" stroke-width="2"/>
<circle clip-path="url(#clip872)" cx="316.551" cy="144.66" r="14" fill="#009af9" fill-rule="evenodd" fill-opacity="1" stroke="#000000" stroke-opacity="1" stroke-width="2"/>
<circle clip-path="url(#clip872)" cx="768.502" cy="678.641" r="14" fill="#009af9" fill-rule="evenodd" fill-opacity="1" stroke="#000000" stroke-opacity="1" stroke-width="2"/>
<circle clip-path="url(#clip872)" cx="942.94" cy="746.388" r="14" fill="#009af9" fill-rule="evenodd" fill-opacity="1" stroke="#000000" stroke-opacity="1" stroke-width="2"/>
<circle clip-path="url(#clip872)" cx="998.442" cy="774.08" r="14" fill="#009af9" fill-rule="evenodd" fill-opacity="1" stroke="#000000" stroke-opacity="1" stroke-width="2"/>
<circle clip-path="url(#clip872)" cx="871.579" cy="756.867" r="14" fill="#009af9" fill-rule="evenodd" fill-opacity="1" stroke="#000000" stroke-opacity="1" stroke-width="2"/>
<circle clip-path="url(#clip872)" cx="673.354" cy="633.052" r="14" fill="#009af9" fill-rule="evenodd" fill-opacity="1" stroke="#000000" stroke-opacity="1" stroke-width="2"/>
<circle clip-path="url(#clip872)" cx="1014.3" cy="768.216" r="14" fill="#009af9" fill-rule="evenodd" fill-opacity="1" stroke="#000000" stroke-opacity="1" stroke-width="2"/>
</svg>
