<?xml version="1.0" encoding="utf-8"?>
<svg xmlns="http://www.w3.org/2000/svg" xmlns:xlink="http://www.w3.org/1999/xlink" width="600" height="400" viewBox="0 0 2400 1600">
<defs>
  <clipPath id="clip630">
    <rect x="0" y="0" width="2400" height="1600"/>
  </clipPath>
</defs>
<path clip-path="url(#clip630)" d="
M0 1600 L2400 1600 L2400 0 L0 0  Z
  " fill="#ffffff" fill-rule="evenodd" fill-opacity="1"/>
<defs>
  <clipPath id="clip631">
    <rect x="480" y="0" width="1681" height="1600"/>
  </clipPath>
</defs>
<path clip-path="url(#clip630)" d="
M199.283 1486.45 L2352.76 1486.45 L2352.76 123.472 L199.283 123.472  Z
  " fill="#ffffff" fill-rule="evenodd" fill-opacity="1"/>
<defs>
  <clipPath id="clip632">
    <rect x="199" y="123" width="2154" height="1364"/>
  </clipPath>
</defs>
<polyline clip-path="url(#clip632)" style="stroke:#000000; stroke-linecap:butt; stroke-linejoin:round; stroke-width:2; stroke-opacity:0.1; fill:none" points="
  252.759,1486.45 252.759,123.472 
  "/>
<polyline clip-path="url(#clip632)" style="stroke:#000000; stroke-linecap:butt; stroke-linejoin:round; stroke-width:2; stroke-opacity:0.1; fill:none" points="
  577.604,1486.45 577.604,123.472 
  "/>
<polyline clip-path="url(#clip632)" style="stroke:#000000; stroke-linecap:butt; stroke-linejoin:round; stroke-width:2; stroke-opacity:0.1; fill:none" points="
  902.448,1486.45 902.448,123.472 
  "/>
<polyline clip-path="url(#clip632)" style="stroke:#000000; stroke-linecap:butt; stroke-linejoin:round; stroke-width:2; stroke-opacity:0.1; fill:none" points="
  1227.29,1486.45 1227.29,123.472 
  "/>
<polyline clip-path="url(#clip632)" style="stroke:#000000; stroke-linecap:butt; stroke-linejoin:round; stroke-width:2; stroke-opacity:0.1; fill:none" points="
  1552.14,1486.45 1552.14,123.472 
  "/>
<polyline clip-path="url(#clip632)" style="stroke:#000000; stroke-linecap:butt; stroke-linejoin:round; stroke-width:2; stroke-opacity:0.1; fill:none" points="
  1876.98,1486.45 1876.98,123.472 
  "/>
<polyline clip-path="url(#clip632)" style="stroke:#000000; stroke-linecap:butt; stroke-linejoin:round; stroke-width:2; stroke-opacity:0.1; fill:none" points="
  2201.83,1486.45 2201.83,123.472 
  "/>
<polyline clip-path="url(#clip630)" style="stroke:#000000; stroke-linecap:butt; stroke-linejoin:round; stroke-width:4; stroke-opacity:1; fill:none" points="
  199.283,1486.45 2352.76,1486.45 
  "/>
<polyline clip-path="url(#clip630)" style="stroke:#000000; stroke-linecap:butt; stroke-linejoin:round; stroke-width:4; stroke-opacity:1; fill:none" points="
  252.759,1486.45 252.759,1467.55 
  "/>
<polyline clip-path="url(#clip630)" style="stroke:#000000; stroke-linecap:butt; stroke-linejoin:round; stroke-width:4; stroke-opacity:1; fill:none" points="
  577.604,1486.45 577.604,1467.55 
  "/>
<polyline clip-path="url(#clip630)" style="stroke:#000000; stroke-linecap:butt; stroke-linejoin:round; stroke-width:4; stroke-opacity:1; fill:none" points="
  902.448,1486.45 902.448,1467.55 
  "/>
<polyline clip-path="url(#clip630)" style="stroke:#000000; stroke-linecap:butt; stroke-linejoin:round; stroke-width:4; stroke-opacity:1; fill:none" points="
  1227.29,1486.45 1227.29,1467.55 
  "/>
<polyline clip-path="url(#clip630)" style="stroke:#000000; stroke-linecap:butt; stroke-linejoin:round; stroke-width:4; stroke-opacity:1; fill:none" points="
  1552.14,1486.45 1552.14,1467.55 
  "/>
<polyline clip-path="url(#clip630)" style="stroke:#000000; stroke-linecap:butt; stroke-linejoin:round; stroke-width:4; stroke-opacity:1; fill:none" points="
  1876.98,1486.45 1876.98,1467.55 
  "/>
<polyline clip-path="url(#clip630)" style="stroke:#000000; stroke-linecap:butt; stroke-linejoin:round; stroke-width:4; stroke-opacity:1; fill:none" points="
  2201.83,1486.45 2201.83,1467.55 
  "/>
<path clip-path="url(#clip630)" d="M252.759 1517.37 Q249.148 1517.37 247.319 1520.93 Q245.514 1524.47 245.514 1531.6 Q245.514 1538.71 247.319 1542.27 Q249.148 1545.82 252.759 1545.82 Q256.393 1545.82 258.199 1542.27 Q260.028 1538.71 260.028 1531.6 Q260.028 1524.47 258.199 1520.93 Q256.393 1517.37 252.759 1517.37 M252.759 1513.66 Q258.569 1513.66 261.625 1518.27 Q264.703 1522.85 264.703 1531.6 Q264.703 1540.33 261.625 1544.94 Q258.569 1549.52 252.759 1549.52 Q246.949 1549.52 243.87 1544.94 Q240.815 1540.33 240.815 1531.6 Q240.815 1522.85 243.87 1518.27 Q246.949 1513.66 252.759 1513.66 Z" fill="#000000" fill-rule="evenodd" fill-opacity="1" /><path clip-path="url(#clip630)" d="M552.291 1544.91 L559.93 1544.91 L559.93 1518.55 L551.62 1520.21 L551.62 1515.95 L559.884 1514.29 L564.56 1514.29 L564.56 1544.91 L572.199 1544.91 L572.199 1548.85 L552.291 1548.85 L552.291 1544.91 Z" fill="#000000" fill-rule="evenodd" fill-opacity="1" /><path clip-path="url(#clip630)" d="M591.643 1517.37 Q588.032 1517.37 586.203 1520.93 Q584.398 1524.47 584.398 1531.6 Q584.398 1538.71 586.203 1542.27 Q588.032 1545.82 591.643 1545.82 Q595.277 1545.82 597.083 1542.27 Q598.911 1538.71 598.911 1531.6 Q598.911 1524.47 597.083 1520.93 Q595.277 1517.37 591.643 1517.37 M591.643 1513.66 Q597.453 1513.66 600.509 1518.27 Q603.587 1522.85 603.587 1531.6 Q603.587 1540.33 600.509 1544.94 Q597.453 1549.52 591.643 1549.52 Q585.833 1549.52 582.754 1544.94 Q579.699 1540.33 579.699 1531.6 Q579.699 1522.85 582.754 1518.27 Q585.833 1513.66 591.643 1513.66 Z" fill="#000000" fill-rule="evenodd" fill-opacity="1" /><path clip-path="url(#clip630)" d="M881.222 1544.91 L897.541 1544.91 L897.541 1548.85 L875.597 1548.85 L875.597 1544.91 Q878.259 1542.16 882.842 1537.53 Q887.448 1532.88 888.629 1531.53 Q890.874 1529.01 891.754 1527.27 Q892.657 1525.51 892.657 1523.82 Q892.657 1521.07 890.712 1519.33 Q888.791 1517.6 885.689 1517.6 Q883.49 1517.6 881.036 1518.36 Q878.606 1519.13 875.828 1520.68 L875.828 1515.95 Q878.652 1514.82 881.106 1514.24 Q883.559 1513.66 885.597 1513.66 Q890.967 1513.66 894.161 1516.35 Q897.356 1519.03 897.356 1523.52 Q897.356 1525.65 896.546 1527.57 Q895.758 1529.47 893.652 1532.07 Q893.073 1532.74 889.971 1535.95 Q886.87 1539.15 881.222 1544.91 Z" fill="#000000" fill-rule="evenodd" fill-opacity="1" /><path clip-path="url(#clip630)" d="M917.356 1517.37 Q913.745 1517.37 911.916 1520.93 Q910.11 1524.47 910.11 1531.6 Q910.11 1538.71 911.916 1542.27 Q913.745 1545.82 917.356 1545.82 Q920.99 1545.82 922.795 1542.27 Q924.624 1538.71 924.624 1531.6 Q924.624 1524.47 922.795 1520.93 Q920.99 1517.37 917.356 1517.37 M917.356 1513.66 Q923.166 1513.66 926.221 1518.27 Q929.3 1522.85 929.3 1531.6 Q929.3 1540.33 926.221 1544.94 Q923.166 1549.52 917.356 1549.52 Q911.545 1549.52 908.467 1544.94 Q905.411 1540.33 905.411 1531.6 Q905.411 1522.85 908.467 1518.27 Q911.545 1513.66 917.356 1513.66 Z" fill="#000000" fill-rule="evenodd" fill-opacity="1" /><path clip-path="url(#clip630)" d="M1216.14 1530.21 Q1219.49 1530.93 1221.37 1533.2 Q1223.27 1535.47 1223.27 1538.8 Q1223.27 1543.92 1219.75 1546.72 Q1216.23 1549.52 1209.75 1549.52 Q1207.57 1549.52 1205.26 1549.08 Q1202.96 1548.66 1200.51 1547.81 L1200.51 1543.29 Q1202.46 1544.43 1204.77 1545.01 Q1207.08 1545.58 1209.61 1545.58 Q1214.01 1545.58 1216.3 1543.85 Q1218.61 1542.11 1218.61 1538.8 Q1218.61 1535.75 1216.46 1534.03 Q1214.33 1532.3 1210.51 1532.3 L1206.48 1532.3 L1206.48 1528.45 L1210.7 1528.45 Q1214.14 1528.45 1215.97 1527.09 Q1217.8 1525.7 1217.8 1523.11 Q1217.8 1520.45 1215.9 1519.03 Q1214.03 1517.6 1210.51 1517.6 Q1208.59 1517.6 1206.39 1518.01 Q1204.19 1518.43 1201.55 1519.31 L1201.55 1515.14 Q1204.21 1514.4 1206.53 1514.03 Q1208.87 1513.66 1210.93 1513.66 Q1216.25 1513.66 1219.35 1516.09 Q1222.45 1518.5 1222.45 1522.62 Q1222.45 1525.49 1220.81 1527.48 Q1219.17 1529.45 1216.14 1530.21 Z" fill="#000000" fill-rule="evenodd" fill-opacity="1" /><path clip-path="url(#clip630)" d="M1242.13 1517.37 Q1238.52 1517.37 1236.69 1520.93 Q1234.89 1524.47 1234.89 1531.6 Q1234.89 1538.71 1236.69 1542.27 Q1238.52 1545.82 1242.13 1545.82 Q1245.76 1545.82 1247.57 1542.27 Q1249.4 1538.71 1249.4 1531.6 Q1249.4 1524.47 1247.57 1520.93 Q1245.76 1517.37 1242.13 1517.37 M1242.13 1513.66 Q1247.94 1513.66 1251 1518.27 Q1254.08 1522.85 1254.08 1531.6 Q1254.08 1540.33 1251 1544.94 Q1247.94 1549.52 1242.13 1549.52 Q1236.32 1549.52 1233.24 1544.94 Q1230.19 1540.33 1230.19 1531.6 Q1230.19 1522.85 1233.24 1518.27 Q1236.32 1513.66 1242.13 1513.66 Z" fill="#000000" fill-rule="evenodd" fill-opacity="1" /><path clip-path="url(#clip630)" d="M1540.31 1518.36 L1528.5 1536.81 L1540.31 1536.81 L1540.31 1518.36 M1539.08 1514.29 L1544.96 1514.29 L1544.96 1536.81 L1549.89 1536.81 L1549.89 1540.7 L1544.96 1540.7 L1544.96 1548.85 L1540.31 1548.85 L1540.31 1540.7 L1524.71 1540.7 L1524.71 1536.19 L1539.08 1514.29 Z" fill="#000000" fill-rule="evenodd" fill-opacity="1" /><path clip-path="url(#clip630)" d="M1567.62 1517.37 Q1564.01 1517.37 1562.18 1520.93 Q1560.38 1524.47 1560.38 1531.6 Q1560.38 1538.71 1562.18 1542.27 Q1564.01 1545.82 1567.62 1545.82 Q1571.26 1545.82 1573.06 1542.27 Q1574.89 1538.71 1574.89 1531.6 Q1574.89 1524.47 1573.06 1520.93 Q1571.26 1517.37 1567.62 1517.37 M1567.62 1513.66 Q1573.43 1513.66 1576.49 1518.27 Q1579.57 1522.85 1579.57 1531.6 Q1579.57 1540.33 1576.49 1544.94 Q1573.43 1549.52 1567.62 1549.52 Q1561.81 1549.52 1558.73 1544.94 Q1555.68 1540.33 1555.68 1531.6 Q1555.68 1522.85 1558.73 1518.27 Q1561.81 1513.66 1567.62 1513.66 Z" fill="#000000" fill-rule="evenodd" fill-opacity="1" /><path clip-path="url(#clip630)" d="M1851.68 1514.29 L1870.04 1514.29 L1870.04 1518.22 L1855.96 1518.22 L1855.96 1526.7 Q1856.98 1526.35 1858 1526.19 Q1859.02 1526 1860.04 1526 Q1865.82 1526 1869.2 1529.17 Q1872.58 1532.34 1872.58 1537.76 Q1872.58 1543.34 1869.11 1546.44 Q1865.64 1549.52 1859.32 1549.52 Q1857.14 1549.52 1854.88 1549.15 Q1852.63 1548.78 1850.22 1548.04 L1850.22 1543.34 Q1852.31 1544.47 1854.53 1545.03 Q1856.75 1545.58 1859.23 1545.58 Q1863.23 1545.58 1865.57 1543.48 Q1867.91 1541.37 1867.91 1537.76 Q1867.91 1534.15 1865.57 1532.04 Q1863.23 1529.94 1859.23 1529.94 Q1857.35 1529.94 1855.48 1530.35 Q1853.63 1530.77 1851.68 1531.65 L1851.68 1514.29 Z" fill="#000000" fill-rule="evenodd" fill-opacity="1" /><path clip-path="url(#clip630)" d="M1891.8 1517.37 Q1888.19 1517.37 1886.36 1520.93 Q1884.55 1524.47 1884.55 1531.6 Q1884.55 1538.71 1886.36 1542.27 Q1888.19 1545.82 1891.8 1545.82 Q1895.43 1545.82 1897.24 1542.27 Q1899.07 1538.71 1899.07 1531.6 Q1899.07 1524.47 1897.24 1520.93 Q1895.43 1517.37 1891.8 1517.37 M1891.8 1513.66 Q1897.61 1513.66 1900.66 1518.27 Q1903.74 1522.85 1903.74 1531.6 Q1903.74 1540.33 1900.66 1544.94 Q1897.61 1549.52 1891.8 1549.52 Q1885.99 1549.52 1882.91 1544.94 Q1879.85 1540.33 1879.85 1531.6 Q1879.85 1522.85 1882.91 1518.27 Q1885.99 1513.66 1891.8 1513.66 Z" fill="#000000" fill-rule="evenodd" fill-opacity="1" /><path clip-path="url(#clip630)" d="M2187.23 1529.7 Q2184.08 1529.7 2182.23 1531.86 Q2180.4 1534.01 2180.4 1537.76 Q2180.4 1541.49 2182.23 1543.66 Q2184.08 1545.82 2187.23 1545.82 Q2190.38 1545.82 2192.21 1543.66 Q2194.06 1541.49 2194.06 1537.76 Q2194.06 1534.01 2192.21 1531.86 Q2190.38 1529.7 2187.23 1529.7 M2196.51 1515.05 L2196.51 1519.31 Q2194.75 1518.48 2192.95 1518.04 Q2191.17 1517.6 2189.41 1517.6 Q2184.78 1517.6 2182.32 1520.72 Q2179.89 1523.85 2179.55 1530.17 Q2180.91 1528.15 2182.97 1527.09 Q2185.03 1526 2187.51 1526 Q2192.72 1526 2195.73 1529.17 Q2198.76 1532.32 2198.76 1537.76 Q2198.76 1543.08 2195.61 1546.3 Q2192.46 1549.52 2187.23 1549.52 Q2181.24 1549.52 2178.07 1544.94 Q2174.89 1540.33 2174.89 1531.6 Q2174.89 1523.41 2178.78 1518.55 Q2182.67 1513.66 2189.22 1513.66 Q2190.98 1513.66 2192.76 1514.01 Q2194.57 1514.36 2196.51 1515.05 Z" fill="#000000" fill-rule="evenodd" fill-opacity="1" /><path clip-path="url(#clip630)" d="M2216.81 1517.37 Q2213.2 1517.37 2211.38 1520.93 Q2209.57 1524.47 2209.57 1531.6 Q2209.57 1538.71 2211.38 1542.27 Q2213.2 1545.82 2216.81 1545.82 Q2220.45 1545.82 2222.25 1542.27 Q2224.08 1538.71 2224.08 1531.6 Q2224.08 1524.47 2222.25 1520.93 Q2220.45 1517.37 2216.81 1517.37 M2216.81 1513.66 Q2222.63 1513.66 2225.68 1518.27 Q2228.76 1522.85 2228.76 1531.6 Q2228.76 1540.33 2225.68 1544.94 Q2222.63 1549.52 2216.81 1549.52 Q2211 1549.52 2207.93 1544.94 Q2204.87 1540.33 2204.87 1531.6 Q2204.87 1522.85 2207.93 1518.27 Q2211 1513.66 2216.81 1513.66 Z" fill="#000000" fill-rule="evenodd" fill-opacity="1" /><polyline clip-path="url(#clip632)" style="stroke:#000000; stroke-linecap:butt; stroke-linejoin:round; stroke-width:2; stroke-opacity:0.1; fill:none" points="
  199.283,1447.87 2352.76,1447.87 
  "/>
<polyline clip-path="url(#clip632)" style="stroke:#000000; stroke-linecap:butt; stroke-linejoin:round; stroke-width:2; stroke-opacity:0.1; fill:none" points="
  199.283,1018.12 2352.76,1018.12 
  "/>
<polyline clip-path="url(#clip632)" style="stroke:#000000; stroke-linecap:butt; stroke-linejoin:round; stroke-width:2; stroke-opacity:0.1; fill:none" points="
  199.283,588.364 2352.76,588.364 
  "/>
<polyline clip-path="url(#clip632)" style="stroke:#000000; stroke-linecap:butt; stroke-linejoin:round; stroke-width:2; stroke-opacity:0.1; fill:none" points="
  199.283,158.609 2352.76,158.609 
  "/>
<polyline clip-path="url(#clip630)" style="stroke:#000000; stroke-linecap:butt; stroke-linejoin:round; stroke-width:4; stroke-opacity:1; fill:none" points="
  199.283,1486.45 199.283,123.472 
  "/>
<polyline clip-path="url(#clip630)" style="stroke:#000000; stroke-linecap:butt; stroke-linejoin:round; stroke-width:4; stroke-opacity:1; fill:none" points="
  199.283,1447.87 218.181,1447.87 
  "/>
<polyline clip-path="url(#clip630)" style="stroke:#000000; stroke-linecap:butt; stroke-linejoin:round; stroke-width:4; stroke-opacity:1; fill:none" points="
  199.283,1018.12 218.181,1018.12 
  "/>
<polyline clip-path="url(#clip630)" style="stroke:#000000; stroke-linecap:butt; stroke-linejoin:round; stroke-width:4; stroke-opacity:1; fill:none" points="
  199.283,588.364 218.181,588.364 
  "/>
<polyline clip-path="url(#clip630)" style="stroke:#000000; stroke-linecap:butt; stroke-linejoin:round; stroke-width:4; stroke-opacity:1; fill:none" points="
  199.283,158.609 218.181,158.609 
  "/>
<path clip-path="url(#clip630)" d="M151.339 1433.67 Q147.728 1433.67 145.899 1437.24 Q144.093 1440.78 144.093 1447.91 Q144.093 1455.01 145.899 1458.58 Q147.728 1462.12 151.339 1462.12 Q154.973 1462.12 156.779 1458.58 Q158.607 1455.01 158.607 1447.91 Q158.607 1440.78 156.779 1437.24 Q154.973 1433.67 151.339 1433.67 M151.339 1429.97 Q157.149 1429.97 160.205 1434.57 Q163.283 1439.16 163.283 1447.91 Q163.283 1456.63 160.205 1461.24 Q157.149 1465.82 151.339 1465.82 Q145.529 1465.82 142.45 1461.24 Q139.394 1456.63 139.394 1447.91 Q139.394 1439.16 142.45 1434.57 Q145.529 1429.97 151.339 1429.97 Z" fill="#000000" fill-rule="evenodd" fill-opacity="1" /><path clip-path="url(#clip630)" d="M81.0614 1000.84 L99.4178 1000.84 L99.4178 1004.77 L85.3438 1004.77 L85.3438 1013.25 Q86.3623 1012.9 87.3808 1012.74 Q88.3993 1012.55 89.4178 1012.55 Q95.2049 1012.55 98.5845 1015.72 Q101.964 1018.89 101.964 1024.31 Q101.964 1029.89 98.4919 1032.99 Q95.0197 1036.07 88.7003 1036.07 Q86.5243 1036.07 84.2558 1035.7 Q82.0105 1035.33 79.6031 1034.59 L79.6031 1029.89 Q81.6864 1031.02 83.9086 1031.58 Q86.1308 1032.13 88.6077 1032.13 Q92.6123 1032.13 94.9502 1030.03 Q97.2882 1027.92 97.2882 1024.31 Q97.2882 1020.7 94.9502 1018.59 Q92.6123 1016.49 88.6077 1016.49 Q86.7327 1016.49 84.8577 1016.9 Q83.0058 1017.32 81.0614 1018.2 L81.0614 1000.84 Z" fill="#000000" fill-rule="evenodd" fill-opacity="1" /><path clip-path="url(#clip630)" d="M121.177 1003.92 Q117.566 1003.92 115.737 1007.48 Q113.932 1011.02 113.932 1018.15 Q113.932 1025.26 115.737 1028.82 Q117.566 1032.37 121.177 1032.37 Q124.811 1032.37 126.617 1028.82 Q128.445 1025.26 128.445 1018.15 Q128.445 1011.02 126.617 1007.48 Q124.811 1003.92 121.177 1003.92 M121.177 1000.21 Q126.987 1000.21 130.043 1004.82 Q133.121 1009.4 133.121 1018.15 Q133.121 1026.88 130.043 1031.49 Q126.987 1036.07 121.177 1036.07 Q115.367 1036.07 112.288 1031.49 Q109.233 1026.88 109.233 1018.15 Q109.233 1009.4 112.288 1004.82 Q115.367 1000.21 121.177 1000.21 Z" fill="#000000" fill-rule="evenodd" fill-opacity="1" /><path clip-path="url(#clip630)" d="M151.339 1003.92 Q147.728 1003.92 145.899 1007.48 Q144.093 1011.02 144.093 1018.15 Q144.093 1025.26 145.899 1028.82 Q147.728 1032.37 151.339 1032.37 Q154.973 1032.37 156.779 1028.82 Q158.607 1025.26 158.607 1018.15 Q158.607 1011.02 156.779 1007.48 Q154.973 1003.92 151.339 1003.92 M151.339 1000.21 Q157.149 1000.21 160.205 1004.82 Q163.283 1009.4 163.283 1018.15 Q163.283 1026.88 160.205 1031.49 Q157.149 1036.07 151.339 1036.07 Q145.529 1036.07 142.45 1031.49 Q139.394 1026.88 139.394 1018.15 Q139.394 1009.4 142.45 1004.82 Q145.529 1000.21 151.339 1000.21 Z" fill="#000000" fill-rule="evenodd" fill-opacity="1" /><path clip-path="url(#clip630)" d="M51.6634 601.708 L59.3023 601.708 L59.3023 575.343 L50.9921 577.01 L50.9921 572.75 L59.256 571.084 L63.9319 571.084 L63.9319 601.708 L71.5707 601.708 L71.5707 605.644 L51.6634 605.644 L51.6634 601.708 Z" fill="#000000" fill-rule="evenodd" fill-opacity="1" /><path clip-path="url(#clip630)" d="M91.0151 574.162 Q87.404 574.162 85.5753 577.727 Q83.7697 581.269 83.7697 588.398 Q83.7697 595.505 85.5753 599.07 Q87.404 602.611 91.0151 602.611 Q94.6493 602.611 96.4548 599.07 Q98.2835 595.505 98.2835 588.398 Q98.2835 581.269 96.4548 577.727 Q94.6493 574.162 91.0151 574.162 M91.0151 570.459 Q96.8252 570.459 99.8808 575.065 Q102.959 579.648 102.959 588.398 Q102.959 597.125 99.8808 601.732 Q96.8252 606.315 91.0151 606.315 Q85.2049 606.315 82.1262 601.732 Q79.0707 597.125 79.0707 588.398 Q79.0707 579.648 82.1262 575.065 Q85.2049 570.459 91.0151 570.459 Z" fill="#000000" fill-rule="evenodd" fill-opacity="1" /><path clip-path="url(#clip630)" d="M121.177 574.162 Q117.566 574.162 115.737 577.727 Q113.932 581.269 113.932 588.398 Q113.932 595.505 115.737 599.07 Q117.566 602.611 121.177 602.611 Q124.811 602.611 126.617 599.07 Q128.445 595.505 128.445 588.398 Q128.445 581.269 126.617 577.727 Q124.811 574.162 121.177 574.162 M121.177 570.459 Q126.987 570.459 130.043 575.065 Q133.121 579.648 133.121 588.398 Q133.121 597.125 130.043 601.732 Q126.987 606.315 121.177 606.315 Q115.367 606.315 112.288 601.732 Q109.233 597.125 109.233 588.398 Q109.233 579.648 112.288 575.065 Q115.367 570.459 121.177 570.459 Z" fill="#000000" fill-rule="evenodd" fill-opacity="1" /><path clip-path="url(#clip630)" d="M151.339 574.162 Q147.728 574.162 145.899 577.727 Q144.093 581.269 144.093 588.398 Q144.093 595.505 145.899 599.07 Q147.728 602.611 151.339 602.611 Q154.973 602.611 156.779 599.07 Q158.607 595.505 158.607 588.398 Q158.607 581.269 156.779 577.727 Q154.973 574.162 151.339 574.162 M151.339 570.459 Q157.149 570.459 160.205 575.065 Q163.283 579.648 163.283 588.398 Q163.283 597.125 160.205 601.732 Q157.149 606.315 151.339 606.315 Q145.529 606.315 142.45 601.732 Q139.394 597.125 139.394 588.398 Q139.394 579.648 142.45 575.065 Q145.529 570.459 151.339 570.459 Z" fill="#000000" fill-rule="evenodd" fill-opacity="1" /><path clip-path="url(#clip630)" d="M51.6634 171.954 L59.3023 171.954 L59.3023 145.588 L50.9921 147.255 L50.9921 142.996 L59.256 141.329 L63.9319 141.329 L63.9319 171.954 L71.5707 171.954 L71.5707 175.889 L51.6634 175.889 L51.6634 171.954 Z" fill="#000000" fill-rule="evenodd" fill-opacity="1" /><path clip-path="url(#clip630)" d="M81.0614 141.329 L99.4178 141.329 L99.4178 145.264 L85.3438 145.264 L85.3438 153.736 Q86.3623 153.389 87.3808 153.227 Q88.3993 153.042 89.4178 153.042 Q95.2049 153.042 98.5845 156.213 Q101.964 159.384 101.964 164.801 Q101.964 170.38 98.4919 173.481 Q95.0197 176.56 88.7003 176.56 Q86.5243 176.56 84.2558 176.19 Q82.0105 175.819 79.6031 175.079 L79.6031 170.38 Q81.6864 171.514 83.9086 172.069 Q86.1308 172.625 88.6077 172.625 Q92.6123 172.625 94.9502 170.519 Q97.2882 168.412 97.2882 164.801 Q97.2882 161.19 94.9502 159.083 Q92.6123 156.977 88.6077 156.977 Q86.7327 156.977 84.8577 157.394 Q83.0058 157.81 81.0614 158.69 L81.0614 141.329 Z" fill="#000000" fill-rule="evenodd" fill-opacity="1" /><path clip-path="url(#clip630)" d="M121.177 144.408 Q117.566 144.408 115.737 147.972 Q113.932 151.514 113.932 158.644 Q113.932 165.75 115.737 169.315 Q117.566 172.856 121.177 172.856 Q124.811 172.856 126.617 169.315 Q128.445 165.75 128.445 158.644 Q128.445 151.514 126.617 147.972 Q124.811 144.408 121.177 144.408 M121.177 140.704 Q126.987 140.704 130.043 145.31 Q133.121 149.894 133.121 158.644 Q133.121 167.37 130.043 171.977 Q126.987 176.56 121.177 176.56 Q115.367 176.56 112.288 171.977 Q109.233 167.37 109.233 158.644 Q109.233 149.894 112.288 145.31 Q115.367 140.704 121.177 140.704 Z" fill="#000000" fill-rule="evenodd" fill-opacity="1" /><path clip-path="url(#clip630)" d="M151.339 144.408 Q147.728 144.408 145.899 147.972 Q144.093 151.514 144.093 158.644 Q144.093 165.75 145.899 169.315 Q147.728 172.856 151.339 172.856 Q154.973 172.856 156.779 169.315 Q158.607 165.75 158.607 158.644 Q158.607 151.514 156.779 147.972 Q154.973 144.408 151.339 144.408 M151.339 140.704 Q157.149 140.704 160.205 145.31 Q163.283 149.894 163.283 158.644 Q163.283 167.37 160.205 171.977 Q157.149 176.56 151.339 176.56 Q145.529 176.56 142.45 171.977 Q139.394 167.37 139.394 158.644 Q139.394 149.894 142.45 145.31 Q145.529 140.704 151.339 140.704 Z" fill="#000000" fill-rule="evenodd" fill-opacity="1" /><path clip-path="url(#clip630)" d="M1041.86 12.096 L1050.04 12.096 L1050.04 65.6895 L1079.49 65.6895 L1079.49 72.576 L1041.86 72.576 L1041.86 12.096 Z" fill="#000000" fill-rule="evenodd" fill-opacity="1" /><path clip-path="url(#clip630)" d="M1103.88 32.4315 Q1097.88 32.4315 1094.4 37.1306 Q1090.91 41.7891 1090.91 49.9314 Q1090.91 58.0738 1094.36 62.7728 Q1097.84 67.4314 1103.88 67.4314 Q1109.83 67.4314 1113.31 62.7323 Q1116.8 58.0333 1116.8 49.9314 Q1116.8 41.8701 1113.31 37.1711 Q1109.83 32.4315 1103.88 32.4315 M1103.88 26.1121 Q1113.6 26.1121 1119.15 32.4315 Q1124.7 38.7509 1124.7 49.9314 Q1124.7 61.0714 1119.15 67.4314 Q1113.6 73.7508 1103.88 73.7508 Q1094.11 73.7508 1088.56 67.4314 Q1083.05 61.0714 1083.05 49.9314 Q1083.05 38.7509 1088.56 32.4315 Q1094.11 26.1121 1103.88 26.1121 Z" fill="#000000" fill-rule="evenodd" fill-opacity="1" /><path clip-path="url(#clip630)" d="M1157.67 49.7694 Q1148.64 49.7694 1145.16 51.8354 Q1141.67 53.9013 1141.67 58.8839 Q1141.67 62.8538 1144.26 65.2034 Q1146.9 67.5124 1151.39 67.5124 Q1157.59 67.5124 1161.32 63.1374 Q1165.09 58.7219 1165.09 51.4303 L1165.09 49.7694 L1157.67 49.7694 M1172.54 46.6907 L1172.54 72.576 L1165.09 72.576 L1165.09 65.6895 Q1162.53 69.8214 1158.73 71.8063 Q1154.92 73.7508 1149.41 73.7508 Q1142.44 73.7508 1138.31 69.8619 Q1134.22 65.9325 1134.22 59.3701 Q1134.22 51.7138 1139.32 47.825 Q1144.47 43.9361 1154.63 43.9361 L1165.09 43.9361 L1165.09 43.2069 Q1165.09 38.0623 1161.68 35.2672 Q1158.32 32.4315 1152.2 32.4315 Q1148.31 32.4315 1144.63 33.3632 Q1140.94 34.295 1137.54 36.1584 L1137.54 29.2718 Q1141.63 27.692 1145.48 26.9223 Q1149.33 26.1121 1152.97 26.1121 Q1162.82 26.1121 1167.68 31.2163 Q1172.54 36.3204 1172.54 46.6907 Z" fill="#000000" fill-rule="evenodd" fill-opacity="1" /><path clip-path="url(#clip630)" d="M1225.61 45.1919 L1225.61 72.576 L1218.15 72.576 L1218.15 45.4349 Q1218.15 38.994 1215.64 35.7938 Q1213.13 32.5936 1208.11 32.5936 Q1202.07 32.5936 1198.59 36.4419 Q1195.1 40.2903 1195.1 46.9338 L1195.1 72.576 L1187.61 72.576 L1187.61 27.2059 L1195.1 27.2059 L1195.1 34.2544 Q1197.78 30.163 1201.38 28.1376 Q1205.03 26.1121 1209.77 26.1121 Q1217.59 26.1121 1221.6 30.9732 Q1225.61 35.7938 1225.61 45.1919 Z" fill="#000000" fill-rule="evenodd" fill-opacity="1" /><path clip-path="url(#clip630)" d="M1275.35 18.8205 L1275.35 41.5461 L1285.64 41.5461 Q1291.35 41.5461 1294.47 38.5889 Q1297.59 35.6318 1297.59 30.163 Q1297.59 24.7348 1294.47 21.7777 Q1291.35 18.8205 1285.64 18.8205 L1275.35 18.8205 M1267.17 12.096 L1285.64 12.096 Q1295.81 12.096 1300.99 16.714 Q1306.22 21.2916 1306.22 30.163 Q1306.22 39.1155 1300.99 43.6931 Q1295.81 48.2706 1285.64 48.2706 L1275.35 48.2706 L1275.35 72.576 L1267.17 72.576 L1267.17 12.096 Z" fill="#000000" fill-rule="evenodd" fill-opacity="1" /><path clip-path="url(#clip630)" d="M1352.72 48.0275 L1352.72 51.6733 L1318.45 51.6733 Q1318.94 59.3701 1323.07 63.421 Q1327.24 67.4314 1334.66 67.4314 Q1338.95 67.4314 1342.96 66.3781 Q1347.01 65.3249 1350.98 63.2184 L1350.98 70.267 Q1346.97 71.9684 1342.76 72.8596 Q1338.55 73.7508 1334.21 73.7508 Q1323.35 73.7508 1316.99 67.4314 Q1310.68 61.1119 1310.68 50.3365 Q1310.68 39.1965 1316.67 32.6746 Q1322.71 26.1121 1332.91 26.1121 Q1342.07 26.1121 1347.38 32.0264 Q1352.72 37.9003 1352.72 48.0275 M1345.27 45.84 Q1345.19 39.7232 1341.83 36.0774 Q1338.5 32.4315 1333 32.4315 Q1326.76 32.4315 1322.99 35.9558 Q1319.26 39.4801 1318.7 45.8805 L1345.27 45.84 Z" fill="#000000" fill-rule="evenodd" fill-opacity="1" /><path clip-path="url(#clip630)" d="M1391.25 34.1734 Q1389.99 33.4443 1388.49 33.1202 Q1387.03 32.7556 1385.25 32.7556 Q1378.93 32.7556 1375.53 36.8875 Q1372.17 40.9789 1372.17 48.6757 L1372.17 72.576 L1364.67 72.576 L1364.67 27.2059 L1372.17 27.2059 L1372.17 34.2544 Q1374.52 30.1225 1378.28 28.1376 Q1382.05 26.1121 1387.44 26.1121 Q1388.21 26.1121 1389.14 26.2337 Q1390.07 26.3147 1391.21 26.5172 L1391.25 34.1734 Z" fill="#000000" fill-rule="evenodd" fill-opacity="1" /><path clip-path="url(#clip630)" d="M1399.07 27.2059 L1406.52 27.2059 L1406.52 72.576 L1399.07 72.576 L1399.07 27.2059 M1399.07 9.54393 L1406.52 9.54393 L1406.52 18.9825 L1399.07 18.9825 L1399.07 9.54393 Z" fill="#000000" fill-rule="evenodd" fill-opacity="1" /><path clip-path="url(#clip630)" d="M1439.7 32.4315 Q1433.7 32.4315 1430.22 37.1306 Q1426.73 41.7891 1426.73 49.9314 Q1426.73 58.0738 1430.18 62.7728 Q1433.66 67.4314 1439.7 67.4314 Q1445.65 67.4314 1449.13 62.7323 Q1452.62 58.0333 1452.62 49.9314 Q1452.62 41.8701 1449.13 37.1711 Q1445.65 32.4315 1439.7 32.4315 M1439.7 26.1121 Q1449.42 26.1121 1454.97 32.4315 Q1460.52 38.7509 1460.52 49.9314 Q1460.52 61.0714 1454.97 67.4314 Q1449.42 73.7508 1439.7 73.7508 Q1429.93 73.7508 1424.38 67.4314 Q1418.87 61.0714 1418.87 49.9314 Q1418.87 38.7509 1424.38 32.4315 Q1429.93 26.1121 1439.7 26.1121 Z" fill="#000000" fill-rule="evenodd" fill-opacity="1" /><path clip-path="url(#clip630)" d="M1502.73 34.0924 L1502.73 9.54393 L1510.18 9.54393 L1510.18 72.576 L1502.73 72.576 L1502.73 65.7705 Q1500.38 69.8214 1496.77 71.8063 Q1493.21 73.7508 1488.19 73.7508 Q1479.96 73.7508 1474.78 67.1883 Q1469.63 60.6258 1469.63 49.9314 Q1469.63 39.2371 1474.78 32.6746 Q1479.96 26.1121 1488.19 26.1121 Q1493.21 26.1121 1496.77 28.0971 Q1500.38 30.0415 1502.73 34.0924 M1477.33 49.9314 Q1477.33 58.1548 1480.69 62.8538 Q1484.09 67.5124 1490.01 67.5124 Q1495.92 67.5124 1499.33 62.8538 Q1502.73 58.1548 1502.73 49.9314 Q1502.73 41.7081 1499.33 37.0496 Q1495.92 32.3505 1490.01 32.3505 Q1484.09 32.3505 1480.69 37.0496 Q1477.33 41.7081 1477.33 49.9314 Z" fill="#000000" fill-rule="evenodd" fill-opacity="1" /><path clip-path="url(#clip632)" d="
M317.728 1446.15 L317.728 1447.87 L350.212 1447.87 L350.212 1446.15 L317.728 1446.15 L317.728 1446.15  Z
  " fill="#009af9" fill-rule="evenodd" fill-opacity="1"/>
<polyline clip-path="url(#clip632)" style="stroke:#000000; stroke-linecap:butt; stroke-linejoin:round; stroke-width:4; stroke-opacity:1; fill:none" points="
  317.728,1446.15 317.728,1447.87 350.212,1447.87 350.212,1446.15 317.728,1446.15 
  "/>
<path clip-path="url(#clip632)" d="
M350.212 1447.01 L350.212 1447.87 L382.697 1447.87 L382.697 1447.01 L350.212 1447.01 L350.212 1447.01  Z
  " fill="#009af9" fill-rule="evenodd" fill-opacity="1"/>
<polyline clip-path="url(#clip632)" style="stroke:#000000; stroke-linecap:butt; stroke-linejoin:round; stroke-width:4; stroke-opacity:1; fill:none" points="
  350.212,1447.01 350.212,1447.87 382.697,1447.87 382.697,1447.01 350.212,1447.01 
  "/>
<path clip-path="url(#clip632)" d="
M382.697 1446.15 L382.697 1447.87 L415.181 1447.87 L415.181 1446.15 L382.697 1446.15 L382.697 1446.15  Z
  " fill="#009af9" fill-rule="evenodd" fill-opacity="1"/>
<polyline clip-path="url(#clip632)" style="stroke:#000000; stroke-linecap:butt; stroke-linejoin:round; stroke-width:4; stroke-opacity:1; fill:none" points="
  382.697,1446.15 382.697,1447.87 415.181,1447.87 415.181,1446.15 382.697,1446.15 
  "/>
<path clip-path="url(#clip632)" d="
M415.181 1447.87 L415.181 1447.87 L447.666 1447.87 L447.666 1447.87 L415.181 1447.87 L415.181 1447.87  Z
  " fill="#009af9" fill-rule="evenodd" fill-opacity="1"/>
<polyline clip-path="url(#clip632)" style="stroke:#000000; stroke-linecap:butt; stroke-linejoin:round; stroke-width:4; stroke-opacity:1; fill:none" points="
  415.181,1447.87 415.181,1447.87 447.666,1447.87 415.181,1447.87 
  "/>
<path clip-path="url(#clip632)" d="
M447.666 1416.93 L447.666 1447.87 L480.15 1447.87 L480.15 1416.93 L447.666 1416.93 L447.666 1416.93  Z
  " fill="#009af9" fill-rule="evenodd" fill-opacity="1"/>
<polyline clip-path="url(#clip632)" style="stroke:#000000; stroke-linecap:butt; stroke-linejoin:round; stroke-width:4; stroke-opacity:1; fill:none" points="
  447.666,1416.93 447.666,1447.87 480.15,1447.87 480.15,1416.93 447.666,1416.93 
  "/>
<path clip-path="url(#clip632)" d="
M480.15 1447.01 L480.15 1447.87 L512.635 1447.87 L512.635 1447.01 L480.15 1447.01 L480.15 1447.01  Z
  " fill="#009af9" fill-rule="evenodd" fill-opacity="1"/>
<polyline clip-path="url(#clip632)" style="stroke:#000000; stroke-linecap:butt; stroke-linejoin:round; stroke-width:4; stroke-opacity:1; fill:none" points="
  480.15,1447.01 480.15,1447.87 512.635,1447.87 512.635,1447.01 480.15,1447.01 
  "/>
<path clip-path="url(#clip632)" d="
M512.635 1445.29 L512.635 1447.87 L545.119 1447.87 L545.119 1445.29 L512.635 1445.29 L512.635 1445.29  Z
  " fill="#009af9" fill-rule="evenodd" fill-opacity="1"/>
<polyline clip-path="url(#clip632)" style="stroke:#000000; stroke-linecap:butt; stroke-linejoin:round; stroke-width:4; stroke-opacity:1; fill:none" points="
  512.635,1445.29 512.635,1447.87 545.119,1447.87 545.119,1445.29 512.635,1445.29 
  "/>
<path clip-path="url(#clip632)" d="
M545.119 1403.18 L545.119 1447.87 L577.604 1447.87 L577.604 1403.18 L545.119 1403.18 L545.119 1403.18  Z
  " fill="#009af9" fill-rule="evenodd" fill-opacity="1"/>
<polyline clip-path="url(#clip632)" style="stroke:#000000; stroke-linecap:butt; stroke-linejoin:round; stroke-width:4; stroke-opacity:1; fill:none" points="
  545.119,1403.18 545.119,1447.87 577.604,1447.87 577.604,1403.18 545.119,1403.18 
  "/>
<path clip-path="url(#clip632)" d="
M577.604 1441.86 L577.604 1447.87 L610.088 1447.87 L610.088 1441.86 L577.604 1441.86 L577.604 1441.86  Z
  " fill="#009af9" fill-rule="evenodd" fill-opacity="1"/>
<polyline clip-path="url(#clip632)" style="stroke:#000000; stroke-linecap:butt; stroke-linejoin:round; stroke-width:4; stroke-opacity:1; fill:none" points="
  577.604,1441.86 577.604,1447.87 610.088,1447.87 610.088,1441.86 577.604,1441.86 
  "/>
<path clip-path="url(#clip632)" d="
M610.088 1447.87 L610.088 1447.87 L642.573 1447.87 L642.573 1447.87 L610.088 1447.87 L610.088 1447.87  Z
  " fill="#009af9" fill-rule="evenodd" fill-opacity="1"/>
<polyline clip-path="url(#clip632)" style="stroke:#000000; stroke-linecap:butt; stroke-linejoin:round; stroke-width:4; stroke-opacity:1; fill:none" points="
  610.088,1447.87 610.088,1447.87 642.573,1447.87 610.088,1447.87 
  "/>
<path clip-path="url(#clip632)" d="
M642.573 162.047 L642.573 1447.87 L675.057 1447.87 L675.057 162.047 L642.573 162.047 L642.573 162.047  Z
  " fill="#009af9" fill-rule="evenodd" fill-opacity="1"/>
<polyline clip-path="url(#clip632)" style="stroke:#000000; stroke-linecap:butt; stroke-linejoin:round; stroke-width:4; stroke-opacity:1; fill:none" points="
  642.573,162.047 642.573,1447.87 675.057,1447.87 675.057,162.047 642.573,162.047 
  "/>
<path clip-path="url(#clip632)" d="
M675.057 1446.15 L675.057 1447.87 L707.542 1447.87 L707.542 1446.15 L675.057 1446.15 L675.057 1446.15  Z
  " fill="#009af9" fill-rule="evenodd" fill-opacity="1"/>
<polyline clip-path="url(#clip632)" style="stroke:#000000; stroke-linecap:butt; stroke-linejoin:round; stroke-width:4; stroke-opacity:1; fill:none" points="
  675.057,1446.15 675.057,1447.87 707.542,1447.87 707.542,1446.15 675.057,1446.15 
  "/>
<path clip-path="url(#clip632)" d="
M707.542 1419.51 L707.542 1447.87 L740.026 1447.87 L740.026 1419.51 L707.542 1419.51 L707.542 1419.51  Z
  " fill="#009af9" fill-rule="evenodd" fill-opacity="1"/>
<polyline clip-path="url(#clip632)" style="stroke:#000000; stroke-linecap:butt; stroke-linejoin:round; stroke-width:4; stroke-opacity:1; fill:none" points="
  707.542,1419.51 707.542,1447.87 740.026,1447.87 740.026,1419.51 707.542,1419.51 
  "/>
<path clip-path="url(#clip632)" d="
M740.026 1403.18 L740.026 1447.87 L772.51 1447.87 L772.51 1403.18 L740.026 1403.18 L740.026 1403.18  Z
  " fill="#009af9" fill-rule="evenodd" fill-opacity="1"/>
<polyline clip-path="url(#clip632)" style="stroke:#000000; stroke-linecap:butt; stroke-linejoin:round; stroke-width:4; stroke-opacity:1; fill:none" points="
  740.026,1403.18 740.026,1447.87 772.51,1447.87 772.51,1403.18 740.026,1403.18 
  "/>
<path clip-path="url(#clip632)" d="
M772.51 1447.01 L772.51 1447.87 L804.995 1447.87 L804.995 1447.01 L772.51 1447.01 L772.51 1447.01  Z
  " fill="#009af9" fill-rule="evenodd" fill-opacity="1"/>
<polyline clip-path="url(#clip632)" style="stroke:#000000; stroke-linecap:butt; stroke-linejoin:round; stroke-width:4; stroke-opacity:1; fill:none" points="
  772.51,1447.01 772.51,1447.87 804.995,1447.87 804.995,1447.01 772.51,1447.01 
  "/>
<path clip-path="url(#clip632)" d="
M804.995 1446.15 L804.995 1447.87 L837.479 1447.87 L837.479 1446.15 L804.995 1446.15 L804.995 1446.15  Z
  " fill="#009af9" fill-rule="evenodd" fill-opacity="1"/>
<polyline clip-path="url(#clip632)" style="stroke:#000000; stroke-linecap:butt; stroke-linejoin:round; stroke-width:4; stroke-opacity:1; fill:none" points="
  804.995,1446.15 804.995,1447.87 837.479,1447.87 837.479,1446.15 804.995,1446.15 
  "/>
<path clip-path="url(#clip632)" d="
M837.479 968.267 L837.479 1447.87 L869.964 1447.87 L869.964 968.267 L837.479 968.267 L837.479 968.267  Z
  " fill="#009af9" fill-rule="evenodd" fill-opacity="1"/>
<polyline clip-path="url(#clip632)" style="stroke:#000000; stroke-linecap:butt; stroke-linejoin:round; stroke-width:4; stroke-opacity:1; fill:none" points="
  837.479,968.267 837.479,1447.87 869.964,1447.87 869.964,968.267 837.479,968.267 
  "/>
<path clip-path="url(#clip632)" d="
M869.964 1447.87 L869.964 1447.87 L902.448 1447.87 L902.448 1447.87 L869.964 1447.87 L869.964 1447.87  Z
  " fill="#009af9" fill-rule="evenodd" fill-opacity="1"/>
<polyline clip-path="url(#clip632)" style="stroke:#000000; stroke-linecap:butt; stroke-linejoin:round; stroke-width:4; stroke-opacity:1; fill:none" points="
  869.964,1447.87 869.964,1447.87 902.448,1447.87 869.964,1447.87 
  "/>
<path clip-path="url(#clip632)" d="
M902.448 1445.29 L902.448 1447.87 L934.933 1447.87 L934.933 1445.29 L902.448 1445.29 L902.448 1445.29  Z
  " fill="#009af9" fill-rule="evenodd" fill-opacity="1"/>
<polyline clip-path="url(#clip632)" style="stroke:#000000; stroke-linecap:butt; stroke-linejoin:round; stroke-width:4; stroke-opacity:1; fill:none" points="
  902.448,1445.29 902.448,1447.87 934.933,1447.87 934.933,1445.29 902.448,1445.29 
  "/>
<path clip-path="url(#clip632)" d="
M934.933 1447.87 L934.933 1447.87 L967.417 1447.87 L967.417 1447.87 L934.933 1447.87 L934.933 1447.87  Z
  " fill="#009af9" fill-rule="evenodd" fill-opacity="1"/>
<polyline clip-path="url(#clip632)" style="stroke:#000000; stroke-linecap:butt; stroke-linejoin:round; stroke-width:4; stroke-opacity:1; fill:none" points="
  934.933,1447.87 934.933,1447.87 967.417,1447.87 934.933,1447.87 
  "/>
<path clip-path="url(#clip632)" d="
M967.417 1447.87 L967.417 1447.87 L999.902 1447.87 L999.902 1447.87 L967.417 1447.87 L967.417 1447.87  Z
  " fill="#009af9" fill-rule="evenodd" fill-opacity="1"/>
<polyline clip-path="url(#clip632)" style="stroke:#000000; stroke-linecap:butt; stroke-linejoin:round; stroke-width:4; stroke-opacity:1; fill:none" points="
  967.417,1447.87 967.417,1447.87 999.902,1447.87 967.417,1447.87 
  "/>
<path clip-path="url(#clip632)" d="
M999.902 1447.87 L999.902 1447.87 L1032.39 1447.87 L1032.39 1447.87 L999.902 1447.87 L999.902 1447.87  Z
  " fill="#009af9" fill-rule="evenodd" fill-opacity="1"/>
<polyline clip-path="url(#clip632)" style="stroke:#000000; stroke-linecap:butt; stroke-linejoin:round; stroke-width:4; stroke-opacity:1; fill:none" points="
  999.902,1447.87 999.902,1447.87 1032.39,1447.87 999.902,1447.87 
  "/>
<path clip-path="url(#clip632)" d="
M1032.39 1397.16 L1032.39 1447.87 L1064.87 1447.87 L1064.87 1397.16 L1032.39 1397.16 L1032.39 1397.16  Z
  " fill="#009af9" fill-rule="evenodd" fill-opacity="1"/>
<polyline clip-path="url(#clip632)" style="stroke:#000000; stroke-linecap:butt; stroke-linejoin:round; stroke-width:4; stroke-opacity:1; fill:none" points="
  1032.39,1397.16 1032.39,1447.87 1064.87,1447.87 1064.87,1397.16 1032.39,1397.16 
  "/>
<path clip-path="url(#clip632)" d="
M1064.87 1447.87 L1064.87 1447.87 L1097.36 1447.87 L1097.36 1447.87 L1064.87 1447.87 L1064.87 1447.87  Z
  " fill="#009af9" fill-rule="evenodd" fill-opacity="1"/>
<polyline clip-path="url(#clip632)" style="stroke:#000000; stroke-linecap:butt; stroke-linejoin:round; stroke-width:4; stroke-opacity:1; fill:none" points="
  1064.87,1447.87 1064.87,1447.87 1097.36,1447.87 1064.87,1447.87 
  "/>
<path clip-path="url(#clip632)" d="
M1097.36 1447.87 L1097.36 1447.87 L1129.84 1447.87 L1129.84 1447.87 L1097.36 1447.87 L1097.36 1447.87  Z
  " fill="#009af9" fill-rule="evenodd" fill-opacity="1"/>
<polyline clip-path="url(#clip632)" style="stroke:#000000; stroke-linecap:butt; stroke-linejoin:round; stroke-width:4; stroke-opacity:1; fill:none" points="
  1097.36,1447.87 1097.36,1447.87 1129.84,1447.87 1097.36,1447.87 
  "/>
<path clip-path="url(#clip632)" d="
M1129.84 1447.87 L1129.84 1447.87 L1162.32 1447.87 L1162.32 1447.87 L1129.84 1447.87 L1129.84 1447.87  Z
  " fill="#009af9" fill-rule="evenodd" fill-opacity="1"/>
<polyline clip-path="url(#clip632)" style="stroke:#000000; stroke-linecap:butt; stroke-linejoin:round; stroke-width:4; stroke-opacity:1; fill:none" points="
  1129.84,1447.87 1129.84,1447.87 1162.32,1447.87 1129.84,1447.87 
  "/>
<path clip-path="url(#clip632)" d="
M1162.32 1447.87 L1162.32 1447.87 L1194.81 1447.87 L1194.81 1447.87 L1162.32 1447.87 L1162.32 1447.87  Z
  " fill="#009af9" fill-rule="evenodd" fill-opacity="1"/>
<polyline clip-path="url(#clip632)" style="stroke:#000000; stroke-linecap:butt; stroke-linejoin:round; stroke-width:4; stroke-opacity:1; fill:none" points="
  1162.32,1447.87 1162.32,1447.87 1194.81,1447.87 1162.32,1447.87 
  "/>
<path clip-path="url(#clip632)" d="
M1194.81 1447.87 L1194.81 1447.87 L1227.29 1447.87 L1227.29 1447.87 L1194.81 1447.87 L1194.81 1447.87  Z
  " fill="#009af9" fill-rule="evenodd" fill-opacity="1"/>
<polyline clip-path="url(#clip632)" style="stroke:#000000; stroke-linecap:butt; stroke-linejoin:round; stroke-width:4; stroke-opacity:1; fill:none" points="
  1194.81,1447.87 1194.81,1447.87 1227.29,1447.87 1194.81,1447.87 
  "/>
<path clip-path="url(#clip632)" d="
M1227.29 1446.15 L1227.29 1447.87 L1259.78 1447.87 L1259.78 1446.15 L1227.29 1446.15 L1227.29 1446.15  Z
  " fill="#009af9" fill-rule="evenodd" fill-opacity="1"/>
<polyline clip-path="url(#clip632)" style="stroke:#000000; stroke-linecap:butt; stroke-linejoin:round; stroke-width:4; stroke-opacity:1; fill:none" points="
  1227.29,1446.15 1227.29,1447.87 1259.78,1447.87 1259.78,1446.15 1227.29,1446.15 
  "/>
<path clip-path="url(#clip632)" d="
M1259.78 1447.87 L1259.78 1447.87 L1292.26 1447.87 L1292.26 1447.87 L1259.78 1447.87 L1259.78 1447.87  Z
  " fill="#009af9" fill-rule="evenodd" fill-opacity="1"/>
<polyline clip-path="url(#clip632)" style="stroke:#000000; stroke-linecap:butt; stroke-linejoin:round; stroke-width:4; stroke-opacity:1; fill:none" points="
  1259.78,1447.87 1259.78,1447.87 1292.26,1447.87 1259.78,1447.87 
  "/>
<path clip-path="url(#clip632)" d="
M1292.26 1447.87 L1292.26 1447.87 L1324.75 1447.87 L1324.75 1447.87 L1292.26 1447.87 L1292.26 1447.87  Z
  " fill="#009af9" fill-rule="evenodd" fill-opacity="1"/>
<polyline clip-path="url(#clip632)" style="stroke:#000000; stroke-linecap:butt; stroke-linejoin:round; stroke-width:4; stroke-opacity:1; fill:none" points="
  1292.26,1447.87 1292.26,1447.87 1324.75,1447.87 1292.26,1447.87 
  "/>
<path clip-path="url(#clip632)" d="
M1324.75 1447.87 L1324.75 1447.87 L1357.23 1447.87 L1357.23 1447.87 L1324.75 1447.87 L1324.75 1447.87  Z
  " fill="#009af9" fill-rule="evenodd" fill-opacity="1"/>
<polyline clip-path="url(#clip632)" style="stroke:#000000; stroke-linecap:butt; stroke-linejoin:round; stroke-width:4; stroke-opacity:1; fill:none" points="
  1324.75,1447.87 1324.75,1447.87 1357.23,1447.87 1324.75,1447.87 
  "/>
<path clip-path="url(#clip632)" d="
M1357.23 1447.87 L1357.23 1447.87 L1389.72 1447.87 L1389.72 1447.87 L1357.23 1447.87 L1357.23 1447.87  Z
  " fill="#009af9" fill-rule="evenodd" fill-opacity="1"/>
<polyline clip-path="url(#clip632)" style="stroke:#000000; stroke-linecap:butt; stroke-linejoin:round; stroke-width:4; stroke-opacity:1; fill:none" points="
  1357.23,1447.87 1357.23,1447.87 1389.72,1447.87 1357.23,1447.87 
  "/>
<path clip-path="url(#clip632)" d="
M1389.72 1447.87 L1389.72 1447.87 L1422.2 1447.87 L1422.2 1447.87 L1389.72 1447.87 L1389.72 1447.87  Z
  " fill="#009af9" fill-rule="evenodd" fill-opacity="1"/>
<polyline clip-path="url(#clip632)" style="stroke:#000000; stroke-linecap:butt; stroke-linejoin:round; stroke-width:4; stroke-opacity:1; fill:none" points="
  1389.72,1447.87 1389.72,1447.87 1422.2,1447.87 1389.72,1447.87 
  "/>
<path clip-path="url(#clip632)" d="
M1422.2 1437.56 L1422.2 1447.87 L1454.68 1447.87 L1454.68 1437.56 L1422.2 1437.56 L1422.2 1437.56  Z
  " fill="#009af9" fill-rule="evenodd" fill-opacity="1"/>
<polyline clip-path="url(#clip632)" style="stroke:#000000; stroke-linecap:butt; stroke-linejoin:round; stroke-width:4; stroke-opacity:1; fill:none" points="
  1422.2,1437.56 1422.2,1447.87 1454.68,1447.87 1454.68,1437.56 1422.2,1437.56 
  "/>
<path clip-path="url(#clip632)" d="
M1454.68 1447.87 L1454.68 1447.87 L1487.17 1447.87 L1487.17 1447.87 L1454.68 1447.87 L1454.68 1447.87  Z
  " fill="#009af9" fill-rule="evenodd" fill-opacity="1"/>
<polyline clip-path="url(#clip632)" style="stroke:#000000; stroke-linecap:butt; stroke-linejoin:round; stroke-width:4; stroke-opacity:1; fill:none" points="
  1454.68,1447.87 1454.68,1447.87 1487.17,1447.87 1454.68,1447.87 
  "/>
<path clip-path="url(#clip632)" d="
M1487.17 1447.87 L1487.17 1447.87 L1519.65 1447.87 L1519.65 1447.87 L1487.17 1447.87 L1487.17 1447.87  Z
  " fill="#009af9" fill-rule="evenodd" fill-opacity="1"/>
<polyline clip-path="url(#clip632)" style="stroke:#000000; stroke-linecap:butt; stroke-linejoin:round; stroke-width:4; stroke-opacity:1; fill:none" points="
  1487.17,1447.87 1487.17,1447.87 1519.65,1447.87 1487.17,1447.87 
  "/>
<path clip-path="url(#clip632)" d="
M1519.65 1447.87 L1519.65 1447.87 L1552.14 1447.87 L1552.14 1447.87 L1519.65 1447.87 L1519.65 1447.87  Z
  " fill="#009af9" fill-rule="evenodd" fill-opacity="1"/>
<polyline clip-path="url(#clip632)" style="stroke:#000000; stroke-linecap:butt; stroke-linejoin:round; stroke-width:4; stroke-opacity:1; fill:none" points="
  1519.65,1447.87 1519.65,1447.87 1552.14,1447.87 1519.65,1447.87 
  "/>
<path clip-path="url(#clip632)" d="
M1552.14 1447.87 L1552.14 1447.87 L1584.62 1447.87 L1584.62 1447.87 L1552.14 1447.87 L1552.14 1447.87  Z
  " fill="#009af9" fill-rule="evenodd" fill-opacity="1"/>
<polyline clip-path="url(#clip632)" style="stroke:#000000; stroke-linecap:butt; stroke-linejoin:round; stroke-width:4; stroke-opacity:1; fill:none" points="
  1552.14,1447.87 1552.14,1447.87 1584.62,1447.87 1552.14,1447.87 
  "/>
<path clip-path="url(#clip632)" d="
M1584.62 1447.87 L1584.62 1447.87 L1617.11 1447.87 L1617.11 1447.87 L1584.62 1447.87 L1584.62 1447.87  Z
  " fill="#009af9" fill-rule="evenodd" fill-opacity="1"/>
<polyline clip-path="url(#clip632)" style="stroke:#000000; stroke-linecap:butt; stroke-linejoin:round; stroke-width:4; stroke-opacity:1; fill:none" points="
  1584.62,1447.87 1584.62,1447.87 1617.11,1447.87 1584.62,1447.87 
  "/>
<path clip-path="url(#clip632)" d="
M1617.11 1447.87 L1617.11 1447.87 L1649.59 1447.87 L1649.59 1447.87 L1617.11 1447.87 L1617.11 1447.87  Z
  " fill="#009af9" fill-rule="evenodd" fill-opacity="1"/>
<polyline clip-path="url(#clip632)" style="stroke:#000000; stroke-linecap:butt; stroke-linejoin:round; stroke-width:4; stroke-opacity:1; fill:none" points="
  1617.11,1447.87 1617.11,1447.87 1649.59,1447.87 1617.11,1447.87 
  "/>
<path clip-path="url(#clip632)" d="
M1649.59 1447.87 L1649.59 1447.87 L1682.08 1447.87 L1682.08 1447.87 L1649.59 1447.87 L1649.59 1447.87  Z
  " fill="#009af9" fill-rule="evenodd" fill-opacity="1"/>
<polyline clip-path="url(#clip632)" style="stroke:#000000; stroke-linecap:butt; stroke-linejoin:round; stroke-width:4; stroke-opacity:1; fill:none" points="
  1649.59,1447.87 1649.59,1447.87 1682.08,1447.87 1649.59,1447.87 
  "/>
<path clip-path="url(#clip632)" d="
M1682.08 1447.87 L1682.08 1447.87 L1714.56 1447.87 L1714.56 1447.87 L1682.08 1447.87 L1682.08 1447.87  Z
  " fill="#009af9" fill-rule="evenodd" fill-opacity="1"/>
<polyline clip-path="url(#clip632)" style="stroke:#000000; stroke-linecap:butt; stroke-linejoin:round; stroke-width:4; stroke-opacity:1; fill:none" points="
  1682.08,1447.87 1682.08,1447.87 1714.56,1447.87 1682.08,1447.87 
  "/>
<path clip-path="url(#clip632)" d="
M1714.56 1447.87 L1714.56 1447.87 L1747.04 1447.87 L1747.04 1447.87 L1714.56 1447.87 L1714.56 1447.87  Z
  " fill="#009af9" fill-rule="evenodd" fill-opacity="1"/>
<polyline clip-path="url(#clip632)" style="stroke:#000000; stroke-linecap:butt; stroke-linejoin:round; stroke-width:4; stroke-opacity:1; fill:none" points="
  1714.56,1447.87 1714.56,1447.87 1747.04,1447.87 1714.56,1447.87 
  "/>
<path clip-path="url(#clip632)" d="
M1747.04 1447.87 L1747.04 1447.87 L1779.53 1447.87 L1779.53 1447.87 L1747.04 1447.87 L1747.04 1447.87  Z
  " fill="#009af9" fill-rule="evenodd" fill-opacity="1"/>
<polyline clip-path="url(#clip632)" style="stroke:#000000; stroke-linecap:butt; stroke-linejoin:round; stroke-width:4; stroke-opacity:1; fill:none" points="
  1747.04,1447.87 1747.04,1447.87 1779.53,1447.87 1747.04,1447.87 
  "/>
<path clip-path="url(#clip632)" d="
M1779.53 1447.87 L1779.53 1447.87 L1812.01 1447.87 L1812.01 1447.87 L1779.53 1447.87 L1779.53 1447.87  Z
  " fill="#009af9" fill-rule="evenodd" fill-opacity="1"/>
<polyline clip-path="url(#clip632)" style="stroke:#000000; stroke-linecap:butt; stroke-linejoin:round; stroke-width:4; stroke-opacity:1; fill:none" points="
  1779.53,1447.87 1779.53,1447.87 1812.01,1447.87 1779.53,1447.87 
  "/>
<path clip-path="url(#clip632)" d="
M1812.01 1447.87 L1812.01 1447.87 L1844.5 1447.87 L1844.5 1447.87 L1812.01 1447.87 L1812.01 1447.87  Z
  " fill="#009af9" fill-rule="evenodd" fill-opacity="1"/>
<polyline clip-path="url(#clip632)" style="stroke:#000000; stroke-linecap:butt; stroke-linejoin:round; stroke-width:4; stroke-opacity:1; fill:none" points="
  1812.01,1447.87 1812.01,1447.87 1844.5,1447.87 1812.01,1447.87 
  "/>
<path clip-path="url(#clip632)" d="
M1844.5 1447.87 L1844.5 1447.87 L1876.98 1447.87 L1876.98 1447.87 L1844.5 1447.87 L1844.5 1447.87  Z
  " fill="#009af9" fill-rule="evenodd" fill-opacity="1"/>
<polyline clip-path="url(#clip632)" style="stroke:#000000; stroke-linecap:butt; stroke-linejoin:round; stroke-width:4; stroke-opacity:1; fill:none" points="
  1844.5,1447.87 1844.5,1447.87 1876.98,1447.87 1844.5,1447.87 
  "/>
<path clip-path="url(#clip632)" d="
M1876.98 1447.87 L1876.98 1447.87 L1909.47 1447.87 L1909.47 1447.87 L1876.98 1447.87 L1876.98 1447.87  Z
  " fill="#009af9" fill-rule="evenodd" fill-opacity="1"/>
<polyline clip-path="url(#clip632)" style="stroke:#000000; stroke-linecap:butt; stroke-linejoin:round; stroke-width:4; stroke-opacity:1; fill:none" points="
  1876.98,1447.87 1876.98,1447.87 1909.47,1447.87 1876.98,1447.87 
  "/>
<path clip-path="url(#clip632)" d="
M1909.47 1447.87 L1909.47 1447.87 L1941.95 1447.87 L1941.95 1447.87 L1909.47 1447.87 L1909.47 1447.87  Z
  " fill="#009af9" fill-rule="evenodd" fill-opacity="1"/>
<polyline clip-path="url(#clip632)" style="stroke:#000000; stroke-linecap:butt; stroke-linejoin:round; stroke-width:4; stroke-opacity:1; fill:none" points="
  1909.47,1447.87 1909.47,1447.87 1941.95,1447.87 1909.47,1447.87 
  "/>
<path clip-path="url(#clip632)" d="
M1941.95 1447.87 L1941.95 1447.87 L1974.44 1447.87 L1974.44 1447.87 L1941.95 1447.87 L1941.95 1447.87  Z
  " fill="#009af9" fill-rule="evenodd" fill-opacity="1"/>
<polyline clip-path="url(#clip632)" style="stroke:#000000; stroke-linecap:butt; stroke-linejoin:round; stroke-width:4; stroke-opacity:1; fill:none" points="
  1941.95,1447.87 1941.95,1447.87 1974.44,1447.87 1941.95,1447.87 
  "/>
<path clip-path="url(#clip632)" d="
M1974.44 1447.87 L1974.44 1447.87 L2006.92 1447.87 L2006.92 1447.87 L1974.44 1447.87 L1974.44 1447.87  Z
  " fill="#009af9" fill-rule="evenodd" fill-opacity="1"/>
<polyline clip-path="url(#clip632)" style="stroke:#000000; stroke-linecap:butt; stroke-linejoin:round; stroke-width:4; stroke-opacity:1; fill:none" points="
  1974.44,1447.87 1974.44,1447.87 2006.92,1447.87 1974.44,1447.87 
  "/>
<path clip-path="url(#clip632)" d="
M2006.92 1447.87 L2006.92 1447.87 L2039.4 1447.87 L2039.4 1447.87 L2006.92 1447.87 L2006.92 1447.87  Z
  " fill="#009af9" fill-rule="evenodd" fill-opacity="1"/>
<polyline clip-path="url(#clip632)" style="stroke:#000000; stroke-linecap:butt; stroke-linejoin:round; stroke-width:4; stroke-opacity:1; fill:none" points="
  2006.92,1447.87 2006.92,1447.87 2039.4,1447.87 2006.92,1447.87 
  "/>
<path clip-path="url(#clip632)" d="
M2039.4 1447.87 L2039.4 1447.87 L2071.89 1447.87 L2071.89 1447.87 L2039.4 1447.87 L2039.4 1447.87  Z
  " fill="#009af9" fill-rule="evenodd" fill-opacity="1"/>
<polyline clip-path="url(#clip632)" style="stroke:#000000; stroke-linecap:butt; stroke-linejoin:round; stroke-width:4; stroke-opacity:1; fill:none" points="
  2039.4,1447.87 2039.4,1447.87 2071.89,1447.87 2039.4,1447.87 
  "/>
<path clip-path="url(#clip632)" d="
M2071.89 1447.87 L2071.89 1447.87 L2104.37 1447.87 L2104.37 1447.87 L2071.89 1447.87 L2071.89 1447.87  Z
  " fill="#009af9" fill-rule="evenodd" fill-opacity="1"/>
<polyline clip-path="url(#clip632)" style="stroke:#000000; stroke-linecap:butt; stroke-linejoin:round; stroke-width:4; stroke-opacity:1; fill:none" points="
  2071.89,1447.87 2071.89,1447.87 2104.37,1447.87 2071.89,1447.87 
  "/>
<path clip-path="url(#clip632)" d="
M2104.37 1447.87 L2104.37 1447.87 L2136.86 1447.87 L2136.86 1447.87 L2104.37 1447.87 L2104.37 1447.87  Z
  " fill="#009af9" fill-rule="evenodd" fill-opacity="1"/>
<polyline clip-path="url(#clip632)" style="stroke:#000000; stroke-linecap:butt; stroke-linejoin:round; stroke-width:4; stroke-opacity:1; fill:none" points="
  2104.37,1447.87 2104.37,1447.87 2136.86,1447.87 2104.37,1447.87 
  "/>
<path clip-path="url(#clip632)" d="
M2136.86 1447.87 L2136.86 1447.87 L2169.34 1447.87 L2169.34 1447.87 L2136.86 1447.87 L2136.86 1447.87  Z
  " fill="#009af9" fill-rule="evenodd" fill-opacity="1"/>
<polyline clip-path="url(#clip632)" style="stroke:#000000; stroke-linecap:butt; stroke-linejoin:round; stroke-width:4; stroke-opacity:1; fill:none" points="
  2136.86,1447.87 2136.86,1447.87 2169.34,1447.87 2136.86,1447.87 
  "/>
<path clip-path="url(#clip632)" d="
M2169.34 1447.87 L2169.34 1447.87 L2201.83 1447.87 L2201.83 1447.87 L2169.34 1447.87 L2169.34 1447.87  Z
  " fill="#009af9" fill-rule="evenodd" fill-opacity="1"/>
<polyline clip-path="url(#clip632)" style="stroke:#000000; stroke-linecap:butt; stroke-linejoin:round; stroke-width:4; stroke-opacity:1; fill:none" points="
  2169.34,1447.87 2169.34,1447.87 2201.83,1447.87 2169.34,1447.87 
  "/>
<path clip-path="url(#clip632)" d="
M2201.83 1445.29 L2201.83 1447.87 L2234.31 1447.87 L2234.31 1445.29 L2201.83 1445.29 L2201.83 1445.29  Z
  " fill="#009af9" fill-rule="evenodd" fill-opacity="1"/>
<polyline clip-path="url(#clip632)" style="stroke:#000000; stroke-linecap:butt; stroke-linejoin:round; stroke-width:4; stroke-opacity:1; fill:none" points="
  2201.83,1445.29 2201.83,1447.87 2234.31,1447.87 2234.31,1445.29 2201.83,1445.29 
  "/>
<circle clip-path="url(#clip632)" style="fill:#009af9; stroke:none; fill-opacity:0" cx="333.97" cy="1446.15" r="2"/>
<circle clip-path="url(#clip632)" style="fill:#009af9; stroke:none; fill-opacity:0" cx="366.455" cy="1447.01" r="2"/>
<circle clip-path="url(#clip632)" style="fill:#009af9; stroke:none; fill-opacity:0" cx="398.939" cy="1446.15" r="2"/>
<circle clip-path="url(#clip632)" style="fill:#009af9; stroke:none; fill-opacity:0" cx="431.424" cy="1447.87" r="2"/>
<circle clip-path="url(#clip632)" style="fill:#009af9; stroke:none; fill-opacity:0" cx="463.908" cy="1416.93" r="2"/>
<circle clip-path="url(#clip632)" style="fill:#009af9; stroke:none; fill-opacity:0" cx="496.393" cy="1447.01" r="2"/>
<circle clip-path="url(#clip632)" style="fill:#009af9; stroke:none; fill-opacity:0" cx="528.877" cy="1445.29" r="2"/>
<circle clip-path="url(#clip632)" style="fill:#009af9; stroke:none; fill-opacity:0" cx="561.361" cy="1403.18" r="2"/>
<circle clip-path="url(#clip632)" style="fill:#009af9; stroke:none; fill-opacity:0" cx="593.846" cy="1441.86" r="2"/>
<circle clip-path="url(#clip632)" style="fill:#009af9; stroke:none; fill-opacity:0" cx="626.33" cy="1447.87" r="2"/>
<circle clip-path="url(#clip632)" style="fill:#009af9; stroke:none; fill-opacity:0" cx="658.815" cy="162.047" r="2"/>
<circle clip-path="url(#clip632)" style="fill:#009af9; stroke:none; fill-opacity:0" cx="691.299" cy="1446.15" r="2"/>
<circle clip-path="url(#clip632)" style="fill:#009af9; stroke:none; fill-opacity:0" cx="723.784" cy="1419.51" r="2"/>
<circle clip-path="url(#clip632)" style="fill:#009af9; stroke:none; fill-opacity:0" cx="756.268" cy="1403.18" r="2"/>
<circle clip-path="url(#clip632)" style="fill:#009af9; stroke:none; fill-opacity:0" cx="788.753" cy="1447.01" r="2"/>
<circle clip-path="url(#clip632)" style="fill:#009af9; stroke:none; fill-opacity:0" cx="821.237" cy="1446.15" r="2"/>
<circle clip-path="url(#clip632)" style="fill:#009af9; stroke:none; fill-opacity:0" cx="853.722" cy="968.267" r="2"/>
<circle clip-path="url(#clip632)" style="fill:#009af9; stroke:none; fill-opacity:0" cx="886.206" cy="1447.87" r="2"/>
<circle clip-path="url(#clip632)" style="fill:#009af9; stroke:none; fill-opacity:0" cx="918.691" cy="1445.29" r="2"/>
<circle clip-path="url(#clip632)" style="fill:#009af9; stroke:none; fill-opacity:0" cx="951.175" cy="1447.87" r="2"/>
<circle clip-path="url(#clip632)" style="fill:#009af9; stroke:none; fill-opacity:0" cx="983.659" cy="1447.87" r="2"/>
<circle clip-path="url(#clip632)" style="fill:#009af9; stroke:none; fill-opacity:0" cx="1016.14" cy="1447.87" r="2"/>
<circle clip-path="url(#clip632)" style="fill:#009af9; stroke:none; fill-opacity:0" cx="1048.63" cy="1397.16" r="2"/>
<circle clip-path="url(#clip632)" style="fill:#009af9; stroke:none; fill-opacity:0" cx="1081.11" cy="1447.87" r="2"/>
<circle clip-path="url(#clip632)" style="fill:#009af9; stroke:none; fill-opacity:0" cx="1113.6" cy="1447.87" r="2"/>
<circle clip-path="url(#clip632)" style="fill:#009af9; stroke:none; fill-opacity:0" cx="1146.08" cy="1447.87" r="2"/>
<circle clip-path="url(#clip632)" style="fill:#009af9; stroke:none; fill-opacity:0" cx="1178.57" cy="1447.87" r="2"/>
<circle clip-path="url(#clip632)" style="fill:#009af9; stroke:none; fill-opacity:0" cx="1211.05" cy="1447.87" r="2"/>
<circle clip-path="url(#clip632)" style="fill:#009af9; stroke:none; fill-opacity:0" cx="1243.54" cy="1446.15" r="2"/>
<circle clip-path="url(#clip632)" style="fill:#009af9; stroke:none; fill-opacity:0" cx="1276.02" cy="1447.87" r="2"/>
<circle clip-path="url(#clip632)" style="fill:#009af9; stroke:none; fill-opacity:0" cx="1308.5" cy="1447.87" r="2"/>
<circle clip-path="url(#clip632)" style="fill:#009af9; stroke:none; fill-opacity:0" cx="1340.99" cy="1447.87" r="2"/>
<circle clip-path="url(#clip632)" style="fill:#009af9; stroke:none; fill-opacity:0" cx="1373.47" cy="1447.87" r="2"/>
<circle clip-path="url(#clip632)" style="fill:#009af9; stroke:none; fill-opacity:0" cx="1405.96" cy="1447.87" r="2"/>
<circle clip-path="url(#clip632)" style="fill:#009af9; stroke:none; fill-opacity:0" cx="1438.44" cy="1437.56" r="2"/>
<circle clip-path="url(#clip632)" style="fill:#009af9; stroke:none; fill-opacity:0" cx="1470.93" cy="1447.87" r="2"/>
<circle clip-path="url(#clip632)" style="fill:#009af9; stroke:none; fill-opacity:0" cx="1503.41" cy="1447.87" r="2"/>
<circle clip-path="url(#clip632)" style="fill:#009af9; stroke:none; fill-opacity:0" cx="1535.9" cy="1447.87" r="2"/>
<circle clip-path="url(#clip632)" style="fill:#009af9; stroke:none; fill-opacity:0" cx="1568.38" cy="1447.87" r="2"/>
<circle clip-path="url(#clip632)" style="fill:#009af9; stroke:none; fill-opacity:0" cx="1600.86" cy="1447.87" r="2"/>
<circle clip-path="url(#clip632)" style="fill:#009af9; stroke:none; fill-opacity:0" cx="1633.35" cy="1447.87" r="2"/>
<circle clip-path="url(#clip632)" style="fill:#009af9; stroke:none; fill-opacity:0" cx="1665.83" cy="1447.87" r="2"/>
<circle clip-path="url(#clip632)" style="fill:#009af9; stroke:none; fill-opacity:0" cx="1698.32" cy="1447.87" r="2"/>
<circle clip-path="url(#clip632)" style="fill:#009af9; stroke:none; fill-opacity:0" cx="1730.8" cy="1447.87" r="2"/>
<circle clip-path="url(#clip632)" style="fill:#009af9; stroke:none; fill-opacity:0" cx="1763.29" cy="1447.87" r="2"/>
<circle clip-path="url(#clip632)" style="fill:#009af9; stroke:none; fill-opacity:0" cx="1795.77" cy="1447.87" r="2"/>
<circle clip-path="url(#clip632)" style="fill:#009af9; stroke:none; fill-opacity:0" cx="1828.26" cy="1447.87" r="2"/>
<circle clip-path="url(#clip632)" style="fill:#009af9; stroke:none; fill-opacity:0" cx="1860.74" cy="1447.87" r="2"/>
<circle clip-path="url(#clip632)" style="fill:#009af9; stroke:none; fill-opacity:0" cx="1893.22" cy="1447.87" r="2"/>
<circle clip-path="url(#clip632)" style="fill:#009af9; stroke:none; fill-opacity:0" cx="1925.71" cy="1447.87" r="2"/>
<circle clip-path="url(#clip632)" style="fill:#009af9; stroke:none; fill-opacity:0" cx="1958.19" cy="1447.87" r="2"/>
<circle clip-path="url(#clip632)" style="fill:#009af9; stroke:none; fill-opacity:0" cx="1990.68" cy="1447.87" r="2"/>
<circle clip-path="url(#clip632)" style="fill:#009af9; stroke:none; fill-opacity:0" cx="2023.16" cy="1447.87" r="2"/>
<circle clip-path="url(#clip632)" style="fill:#009af9; stroke:none; fill-opacity:0" cx="2055.65" cy="1447.87" r="2"/>
<circle clip-path="url(#clip632)" style="fill:#009af9; stroke:none; fill-opacity:0" cx="2088.13" cy="1447.87" r="2"/>
<circle clip-path="url(#clip632)" style="fill:#009af9; stroke:none; fill-opacity:0" cx="2120.62" cy="1447.87" r="2"/>
<circle clip-path="url(#clip632)" style="fill:#009af9; stroke:none; fill-opacity:0" cx="2153.1" cy="1447.87" r="2"/>
<circle clip-path="url(#clip632)" style="fill:#009af9; stroke:none; fill-opacity:0" cx="2185.58" cy="1447.87" r="2"/>
<circle clip-path="url(#clip632)" style="fill:#009af9; stroke:none; fill-opacity:0" cx="2218.07" cy="1445.29" r="2"/>
</svg>
