<?xml version="1.0" encoding="utf-8"?>
<svg xmlns="http://www.w3.org/2000/svg" xmlns:xlink="http://www.w3.org/1999/xlink" width="600" height="400" viewBox="0 0 2400 1600">
<defs>
  <clipPath id="clip990">
    <rect x="0" y="0" width="2400" height="1600"/>
  </clipPath>
</defs>
<path clip-path="url(#clip990)" d="
M0 1600 L2400 1600 L2400 0 L0 0  Z
  " fill="#ffffff" fill-rule="evenodd" fill-opacity="1"/>
<defs>
  <clipPath id="clip991">
    <rect x="480" y="0" width="1681" height="1600"/>
  </clipPath>
</defs>
<path clip-path="url(#clip990)" d="
M205.121 1423.18 L2352.76 1423.18 L2352.76 47.2441 L205.121 47.2441  Z
  " fill="#ffffff" fill-rule="evenodd" fill-opacity="1"/>
<defs>
  <clipPath id="clip992">
    <rect x="205" y="47" width="2149" height="1377"/>
  </clipPath>
</defs>
<polyline clip-path="url(#clip992)" style="stroke:#000000; stroke-linecap:butt; stroke-linejoin:round; stroke-width:2; stroke-opacity:0.1; fill:none" points="
  603.582,1423.18 603.582,47.2441 
  "/>
<polyline clip-path="url(#clip992)" style="stroke:#000000; stroke-linecap:butt; stroke-linejoin:round; stroke-width:2; stroke-opacity:0.1; fill:none" points="
  1053.82,1423.18 1053.82,47.2441 
  "/>
<polyline clip-path="url(#clip992)" style="stroke:#000000; stroke-linecap:butt; stroke-linejoin:round; stroke-width:2; stroke-opacity:0.1; fill:none" points="
  1504.06,1423.18 1504.06,47.2441 
  "/>
<polyline clip-path="url(#clip992)" style="stroke:#000000; stroke-linecap:butt; stroke-linejoin:round; stroke-width:2; stroke-opacity:0.1; fill:none" points="
  1954.3,1423.18 1954.3,47.2441 
  "/>
<polyline clip-path="url(#clip990)" style="stroke:#000000; stroke-linecap:butt; stroke-linejoin:round; stroke-width:4; stroke-opacity:1; fill:none" points="
  205.121,1423.18 2352.76,1423.18 
  "/>
<polyline clip-path="url(#clip990)" style="stroke:#000000; stroke-linecap:butt; stroke-linejoin:round; stroke-width:4; stroke-opacity:1; fill:none" points="
  603.582,1423.18 603.582,1404.28 
  "/>
<polyline clip-path="url(#clip990)" style="stroke:#000000; stroke-linecap:butt; stroke-linejoin:round; stroke-width:4; stroke-opacity:1; fill:none" points="
  1053.82,1423.18 1053.82,1404.28 
  "/>
<polyline clip-path="url(#clip990)" style="stroke:#000000; stroke-linecap:butt; stroke-linejoin:round; stroke-width:4; stroke-opacity:1; fill:none" points="
  1504.06,1423.18 1504.06,1404.28 
  "/>
<polyline clip-path="url(#clip990)" style="stroke:#000000; stroke-linecap:butt; stroke-linejoin:round; stroke-width:4; stroke-opacity:1; fill:none" points="
  1954.3,1423.18 1954.3,1404.28 
  "/>
<path clip-path="url(#clip990)" d="M581.765 1454.1 Q578.153 1454.1 576.325 1457.66 Q574.519 1461.2 574.519 1468.33 Q574.519 1475.44 576.325 1479.01 Q578.153 1482.55 581.765 1482.55 Q585.399 1482.55 587.204 1479.01 Q589.033 1475.44 589.033 1468.33 Q589.033 1461.2 587.204 1457.66 Q585.399 1454.1 581.765 1454.1 M581.765 1450.39 Q587.575 1450.39 590.63 1455 Q593.709 1459.58 593.709 1468.33 Q593.709 1477.06 590.63 1481.67 Q587.575 1486.25 581.765 1486.25 Q575.954 1486.25 572.876 1481.67 Q569.82 1477.06 569.82 1468.33 Q569.82 1459.58 572.876 1455 Q575.954 1450.39 581.765 1450.39 Z" fill="#000000" fill-rule="evenodd" fill-opacity="1" /><path clip-path="url(#clip990)" d="M601.926 1479.7 L606.811 1479.7 L606.811 1485.58 L601.926 1485.58 L601.926 1479.7 Z" fill="#000000" fill-rule="evenodd" fill-opacity="1" /><path clip-path="url(#clip990)" d="M621.024 1481.64 L637.343 1481.64 L637.343 1485.58 L615.399 1485.58 L615.399 1481.64 Q618.061 1478.89 622.644 1474.26 Q627.25 1469.61 628.431 1468.27 Q630.676 1465.74 631.556 1464.01 Q632.459 1462.25 632.459 1460.56 Q632.459 1457.8 630.514 1456.07 Q628.593 1454.33 625.491 1454.33 Q623.292 1454.33 620.838 1455.09 Q618.408 1455.86 615.63 1457.41 L615.63 1452.69 Q618.454 1451.55 620.908 1450.97 Q623.362 1450.39 625.399 1450.39 Q630.769 1450.39 633.963 1453.08 Q637.158 1455.77 637.158 1460.26 Q637.158 1462.39 636.348 1464.31 Q635.561 1466.2 633.454 1468.8 Q632.875 1469.47 629.774 1472.69 Q626.672 1475.88 621.024 1481.64 Z" fill="#000000" fill-rule="evenodd" fill-opacity="1" /><path clip-path="url(#clip990)" d="M1030.96 1454.1 Q1027.35 1454.1 1025.52 1457.66 Q1023.72 1461.2 1023.72 1468.33 Q1023.72 1475.44 1025.52 1479.01 Q1027.35 1482.55 1030.96 1482.55 Q1034.6 1482.55 1036.4 1479.01 Q1038.23 1475.44 1038.23 1468.33 Q1038.23 1461.2 1036.4 1457.66 Q1034.6 1454.1 1030.96 1454.1 M1030.96 1450.39 Q1036.77 1450.39 1039.83 1455 Q1042.91 1459.58 1042.91 1468.33 Q1042.91 1477.06 1039.83 1481.67 Q1036.77 1486.25 1030.96 1486.25 Q1025.15 1486.25 1022.07 1481.67 Q1019.02 1477.06 1019.02 1468.33 Q1019.02 1459.58 1022.07 1455 Q1025.15 1450.39 1030.96 1450.39 Z" fill="#000000" fill-rule="evenodd" fill-opacity="1" /><path clip-path="url(#clip990)" d="M1051.12 1479.7 L1056.01 1479.7 L1056.01 1485.58 L1051.12 1485.58 L1051.12 1479.7 Z" fill="#000000" fill-rule="evenodd" fill-opacity="1" /><path clip-path="url(#clip990)" d="M1079.04 1455.09 L1067.23 1473.54 L1079.04 1473.54 L1079.04 1455.09 M1077.81 1451.02 L1083.69 1451.02 L1083.69 1473.54 L1088.62 1473.54 L1088.62 1477.43 L1083.69 1477.43 L1083.69 1485.58 L1079.04 1485.58 L1079.04 1477.43 L1063.44 1477.43 L1063.44 1472.92 L1077.81 1451.02 Z" fill="#000000" fill-rule="evenodd" fill-opacity="1" /><path clip-path="url(#clip990)" d="M1481.36 1454.1 Q1477.75 1454.1 1475.92 1457.66 Q1474.12 1461.2 1474.12 1468.33 Q1474.12 1475.44 1475.92 1479.01 Q1477.75 1482.55 1481.36 1482.55 Q1485 1482.55 1486.8 1479.01 Q1488.63 1475.44 1488.63 1468.33 Q1488.63 1461.2 1486.8 1457.66 Q1485 1454.1 1481.36 1454.1 M1481.36 1450.39 Q1487.17 1450.39 1490.23 1455 Q1493.31 1459.58 1493.31 1468.33 Q1493.31 1477.06 1490.23 1481.67 Q1487.17 1486.25 1481.36 1486.25 Q1475.55 1486.25 1472.47 1481.67 Q1469.42 1477.06 1469.42 1468.33 Q1469.42 1459.58 1472.47 1455 Q1475.55 1450.39 1481.36 1450.39 Z" fill="#000000" fill-rule="evenodd" fill-opacity="1" /><path clip-path="url(#clip990)" d="M1501.52 1479.7 L1506.41 1479.7 L1506.41 1485.58 L1501.52 1485.58 L1501.52 1479.7 Z" fill="#000000" fill-rule="evenodd" fill-opacity="1" /><path clip-path="url(#clip990)" d="M1527.17 1466.44 Q1524.02 1466.44 1522.17 1468.59 Q1520.34 1470.74 1520.34 1474.49 Q1520.34 1478.22 1522.17 1480.39 Q1524.02 1482.55 1527.17 1482.55 Q1530.32 1482.55 1532.15 1480.39 Q1534 1478.22 1534 1474.49 Q1534 1470.74 1532.15 1468.59 Q1530.32 1466.44 1527.17 1466.44 M1536.45 1451.78 L1536.45 1456.04 Q1534.69 1455.21 1532.89 1454.77 Q1531.11 1454.33 1529.35 1454.33 Q1524.72 1454.33 1522.26 1457.45 Q1519.83 1460.58 1519.49 1466.9 Q1520.85 1464.89 1522.91 1463.82 Q1524.97 1462.73 1527.45 1462.73 Q1532.66 1462.73 1535.67 1465.9 Q1538.7 1469.05 1538.7 1474.49 Q1538.7 1479.82 1535.55 1483.03 Q1532.4 1486.25 1527.17 1486.25 Q1521.18 1486.25 1518 1481.67 Q1514.83 1477.06 1514.83 1468.33 Q1514.83 1460.14 1518.72 1455.28 Q1522.61 1450.39 1529.16 1450.39 Q1530.92 1450.39 1532.7 1450.74 Q1534.51 1451.09 1536.45 1451.78 Z" fill="#000000" fill-rule="evenodd" fill-opacity="1" /><path clip-path="url(#clip990)" d="M1931.73 1454.1 Q1928.11 1454.1 1926.29 1457.66 Q1924.48 1461.2 1924.48 1468.33 Q1924.48 1475.44 1926.29 1479.01 Q1928.11 1482.55 1931.73 1482.55 Q1935.36 1482.55 1937.17 1479.01 Q1938.99 1475.44 1938.99 1468.33 Q1938.99 1461.2 1937.17 1457.66 Q1935.36 1454.1 1931.73 1454.1 M1931.73 1450.39 Q1937.54 1450.39 1940.59 1455 Q1943.67 1459.58 1943.67 1468.33 Q1943.67 1477.06 1940.59 1481.67 Q1937.54 1486.25 1931.73 1486.25 Q1925.92 1486.25 1922.84 1481.67 Q1919.78 1477.06 1919.78 1468.33 Q1919.78 1459.58 1922.84 1455 Q1925.92 1450.39 1931.73 1450.39 Z" fill="#000000" fill-rule="evenodd" fill-opacity="1" /><path clip-path="url(#clip990)" d="M1951.89 1479.7 L1956.77 1479.7 L1956.77 1485.58 L1951.89 1485.58 L1951.89 1479.7 Z" fill="#000000" fill-rule="evenodd" fill-opacity="1" /><path clip-path="url(#clip990)" d="M1976.96 1469.17 Q1973.62 1469.17 1971.7 1470.95 Q1969.8 1472.73 1969.8 1475.86 Q1969.8 1478.98 1971.7 1480.77 Q1973.62 1482.55 1976.96 1482.55 Q1980.29 1482.55 1982.21 1480.77 Q1984.13 1478.96 1984.13 1475.86 Q1984.13 1472.73 1982.21 1470.95 Q1980.31 1469.17 1976.96 1469.17 M1972.28 1467.18 Q1969.27 1466.44 1967.58 1464.38 Q1965.92 1462.32 1965.92 1459.35 Q1965.92 1455.21 1968.86 1452.8 Q1971.82 1450.39 1976.96 1450.39 Q1982.12 1450.39 1985.06 1452.8 Q1988 1455.21 1988 1459.35 Q1988 1462.32 1986.31 1464.38 Q1984.64 1466.44 1981.66 1467.18 Q1985.04 1467.96 1986.91 1470.26 Q1988.81 1472.55 1988.81 1475.86 Q1988.81 1480.88 1985.73 1483.57 Q1982.67 1486.25 1976.96 1486.25 Q1971.24 1486.25 1968.16 1483.57 Q1965.11 1480.88 1965.11 1475.86 Q1965.11 1472.55 1967 1470.26 Q1968.9 1467.96 1972.28 1467.18 M1970.57 1459.79 Q1970.57 1462.48 1972.24 1463.98 Q1973.92 1465.49 1976.96 1465.49 Q1979.97 1465.49 1981.66 1463.98 Q1983.37 1462.48 1983.37 1459.79 Q1983.37 1457.11 1981.66 1455.6 Q1979.97 1454.1 1976.96 1454.1 Q1973.92 1454.1 1972.24 1455.6 Q1970.57 1457.11 1970.57 1459.79 Z" fill="#000000" fill-rule="evenodd" fill-opacity="1" /><path clip-path="url(#clip990)" d="M936.543 1520.52 L976.742 1520.52 L976.742 1525.93 L959.873 1525.93 L959.873 1568.04 L953.412 1568.04 L953.412 1525.93 L936.543 1525.93 L936.543 1520.52 Z" fill="#000000" fill-rule="evenodd" fill-opacity="1" /><path clip-path="url(#clip990)" d="M1012.33 1546.53 L1012.33 1568.04 L1006.47 1568.04 L1006.47 1546.72 Q1006.47 1541.66 1004.5 1539.14 Q1002.52 1536.63 998.577 1536.63 Q993.834 1536.63 991.097 1539.65 Q988.36 1542.68 988.36 1547.9 L988.36 1568.04 L982.472 1568.04 L982.472 1518.52 L988.36 1518.52 L988.36 1537.93 Q990.461 1534.72 993.293 1533.13 Q996.158 1531.54 999.882 1531.54 Q1006.02 1531.54 1009.18 1535.36 Q1012.33 1539.14 1012.33 1546.53 Z" fill="#000000" fill-rule="evenodd" fill-opacity="1" /><path clip-path="url(#clip990)" d="M1044.66 1537.87 Q1043.68 1537.3 1042.5 1537.04 Q1041.35 1536.76 1039.95 1536.76 Q1034.99 1536.76 1032.32 1540 Q1029.67 1543.22 1029.67 1549.27 L1029.67 1568.04 L1023.79 1568.04 L1023.79 1532.4 L1029.67 1532.4 L1029.67 1537.93 Q1031.52 1534.69 1034.48 1533.13 Q1037.44 1531.54 1041.67 1531.54 Q1042.28 1531.54 1043.01 1531.63 Q1043.74 1531.7 1044.63 1531.85 L1044.66 1537.87 Z" fill="#000000" fill-rule="evenodd" fill-opacity="1" /><path clip-path="url(#clip990)" d="M1079.87 1548.76 L1079.87 1551.62 L1052.94 1551.62 Q1053.32 1557.67 1056.57 1560.85 Q1059.85 1564 1065.67 1564 Q1069.05 1564 1072.2 1563.17 Q1075.38 1562.35 1078.5 1560.69 L1078.5 1566.23 Q1075.35 1567.57 1072.04 1568.27 Q1068.73 1568.97 1065.32 1568.97 Q1056.79 1568.97 1051.79 1564 Q1046.83 1559.04 1046.83 1550.57 Q1046.83 1541.82 1051.54 1536.69 Q1056.28 1531.54 1064.3 1531.54 Q1071.5 1531.54 1075.67 1536.18 Q1079.87 1540.8 1079.87 1548.76 M1074.01 1547.04 Q1073.95 1542.23 1071.31 1539.37 Q1068.7 1536.5 1064.37 1536.5 Q1059.46 1536.5 1056.5 1539.27 Q1053.58 1542.04 1053.13 1547.07 L1074.01 1547.04 Z" fill="#000000" fill-rule="evenodd" fill-opacity="1" /><path clip-path="url(#clip990)" d="M1112.2 1533.45 L1112.2 1538.98 Q1109.72 1537.71 1107.05 1537.07 Q1104.37 1536.44 1101.51 1536.44 Q1097.15 1536.44 1094.95 1537.77 Q1092.79 1539.11 1092.79 1541.79 Q1092.79 1543.82 1094.35 1545 Q1095.91 1546.15 1100.62 1547.2 L1102.62 1547.64 Q1108.86 1548.98 1111.47 1551.43 Q1114.11 1553.85 1114.11 1558.21 Q1114.11 1563.17 1110.17 1566.07 Q1106.25 1568.97 1099.38 1568.97 Q1096.51 1568.97 1093.39 1568.39 Q1090.31 1567.85 1086.87 1566.74 L1086.87 1560.69 Q1090.12 1562.38 1093.27 1563.24 Q1096.42 1564.07 1099.51 1564.07 Q1103.64 1564.07 1105.87 1562.66 Q1108.1 1561.23 1108.1 1558.65 Q1108.1 1556.27 1106.48 1554.99 Q1104.88 1553.72 1099.44 1552.54 L1097.4 1552.07 Q1091.96 1550.92 1089.54 1548.56 Q1087.12 1546.18 1087.12 1542.04 Q1087.12 1537.01 1090.69 1534.27 Q1094.25 1531.54 1100.81 1531.54 Q1104.06 1531.54 1106.92 1532.01 Q1109.79 1532.49 1112.2 1533.45 Z" fill="#000000" fill-rule="evenodd" fill-opacity="1" /><path clip-path="url(#clip990)" d="M1153.07 1546.53 L1153.07 1568.04 L1147.22 1568.04 L1147.22 1546.72 Q1147.22 1541.66 1145.24 1539.14 Q1143.27 1536.63 1139.32 1536.63 Q1134.58 1536.63 1131.84 1539.65 Q1129.11 1542.68 1129.11 1547.9 L1129.11 1568.04 L1123.22 1568.04 L1123.22 1518.52 L1129.11 1518.52 L1129.11 1537.93 Q1131.21 1534.72 1134.04 1533.13 Q1136.9 1531.54 1140.63 1531.54 Q1146.77 1531.54 1149.92 1535.36 Q1153.07 1539.14 1153.07 1546.53 Z" fill="#000000" fill-rule="evenodd" fill-opacity="1" /><path clip-path="url(#clip990)" d="M1178.57 1536.5 Q1173.86 1536.5 1171.12 1540.19 Q1168.38 1543.85 1168.38 1550.25 Q1168.38 1556.65 1171.09 1560.34 Q1173.82 1564 1178.57 1564 Q1183.25 1564 1185.98 1560.31 Q1188.72 1556.62 1188.72 1550.25 Q1188.72 1543.92 1185.98 1540.23 Q1183.25 1536.5 1178.57 1536.5 M1178.57 1531.54 Q1186.21 1531.54 1190.57 1536.5 Q1194.93 1541.47 1194.93 1550.25 Q1194.93 1559 1190.57 1564 Q1186.21 1568.97 1178.57 1568.97 Q1170.9 1568.97 1166.54 1564 Q1162.21 1559 1162.21 1550.25 Q1162.21 1541.47 1166.54 1536.5 Q1170.9 1531.54 1178.57 1531.54 Z" fill="#000000" fill-rule="evenodd" fill-opacity="1" /><path clip-path="url(#clip990)" d="M1204.63 1518.52 L1210.49 1518.52 L1210.49 1568.04 L1204.63 1568.04 L1204.63 1518.52 Z" fill="#000000" fill-rule="evenodd" fill-opacity="1" /><path clip-path="url(#clip990)" d="M1246.2 1537.81 L1246.2 1518.52 L1252.06 1518.52 L1252.06 1568.04 L1246.2 1568.04 L1246.2 1562.7 Q1244.36 1565.88 1241.52 1567.44 Q1238.72 1568.97 1234.78 1568.97 Q1228.32 1568.97 1224.24 1563.81 Q1220.2 1558.65 1220.2 1550.25 Q1220.2 1541.85 1224.24 1536.69 Q1228.32 1531.54 1234.78 1531.54 Q1238.72 1531.54 1241.52 1533.1 Q1244.36 1534.62 1246.2 1537.81 M1226.25 1550.25 Q1226.25 1556.71 1228.89 1560.4 Q1231.56 1564.07 1236.21 1564.07 Q1240.86 1564.07 1243.53 1560.4 Q1246.2 1556.71 1246.2 1550.25 Q1246.2 1543.79 1243.53 1540.13 Q1240.86 1536.44 1236.21 1536.44 Q1231.56 1536.44 1228.89 1540.13 Q1226.25 1543.79 1226.25 1550.25 Z" fill="#000000" fill-rule="evenodd" fill-opacity="1" /><path clip-path="url(#clip990)" d="M1291.53 1525.81 L1291.53 1543.66 L1299.61 1543.66 Q1304.1 1543.66 1306.55 1541.34 Q1309 1539.02 1309 1534.72 Q1309 1530.45 1306.55 1528.13 Q1304.1 1525.81 1299.61 1525.81 L1291.53 1525.81 M1285.1 1520.52 L1299.61 1520.52 Q1307.6 1520.52 1311.67 1524.15 Q1315.78 1527.75 1315.78 1534.72 Q1315.78 1541.75 1311.67 1545.35 Q1307.6 1548.95 1299.61 1548.95 L1291.53 1548.95 L1291.53 1568.04 L1285.1 1568.04 L1285.1 1520.52 Z" fill="#000000" fill-rule="evenodd" fill-opacity="1" /><path clip-path="url(#clip990)" d="M1343.66 1537.87 Q1342.68 1537.3 1341.5 1537.04 Q1340.35 1536.76 1338.95 1536.76 Q1333.99 1536.76 1331.31 1540 Q1328.67 1543.22 1328.67 1549.27 L1328.67 1568.04 L1322.78 1568.04 L1322.78 1532.4 L1328.67 1532.4 L1328.67 1537.93 Q1330.52 1534.69 1333.48 1533.13 Q1336.44 1531.54 1340.67 1531.54 Q1341.27 1531.54 1342.01 1531.63 Q1342.74 1531.7 1343.63 1531.85 L1343.66 1537.87 Z" fill="#000000" fill-rule="evenodd" fill-opacity="1" /><path clip-path="url(#clip990)" d="M1362.19 1536.5 Q1357.48 1536.5 1354.74 1540.19 Q1352 1543.85 1352 1550.25 Q1352 1556.65 1354.71 1560.34 Q1357.44 1564 1362.19 1564 Q1366.86 1564 1369.6 1560.31 Q1372.34 1556.62 1372.34 1550.25 Q1372.34 1543.92 1369.6 1540.23 Q1366.86 1536.5 1362.19 1536.5 M1362.19 1531.54 Q1369.82 1531.54 1374.19 1536.5 Q1378.55 1541.47 1378.55 1550.25 Q1378.55 1559 1374.19 1564 Q1369.82 1568.97 1362.19 1568.97 Q1354.52 1568.97 1350.15 1564 Q1345.83 1559 1345.83 1550.25 Q1345.83 1541.47 1350.15 1536.5 Q1354.52 1531.54 1362.19 1531.54 Z" fill="#000000" fill-rule="evenodd" fill-opacity="1" /><path clip-path="url(#clip990)" d="M1413.84 1550.25 Q1413.84 1543.79 1411.17 1540.13 Q1408.53 1536.44 1403.88 1536.44 Q1399.23 1536.44 1396.56 1540.13 Q1393.92 1543.79 1393.92 1550.25 Q1393.92 1556.71 1396.56 1560.4 Q1399.23 1564.07 1403.88 1564.07 Q1408.53 1564.07 1411.17 1560.4 Q1413.84 1556.71 1413.84 1550.25 M1393.92 1537.81 Q1395.77 1534.62 1398.57 1533.1 Q1401.4 1531.54 1405.31 1531.54 Q1411.81 1531.54 1415.85 1536.69 Q1419.92 1541.85 1419.92 1550.25 Q1419.92 1558.65 1415.85 1563.81 Q1411.81 1568.97 1405.31 1568.97 Q1401.4 1568.97 1398.57 1567.44 Q1395.77 1565.88 1393.92 1562.7 L1393.92 1568.04 L1388.03 1568.04 L1388.03 1518.52 L1393.92 1518.52 L1393.92 1537.81 Z" fill="#000000" fill-rule="evenodd" fill-opacity="1" /><path clip-path="url(#clip990)" d="M1445.83 1550.12 Q1438.73 1550.12 1436 1551.75 Q1433.26 1553.37 1433.26 1557.29 Q1433.26 1560.4 1435.3 1562.25 Q1437.36 1564.07 1440.9 1564.07 Q1445.77 1564.07 1448.7 1560.63 Q1451.66 1557.16 1451.66 1551.43 L1451.66 1550.12 L1445.83 1550.12 M1457.51 1547.71 L1457.51 1568.04 L1451.66 1568.04 L1451.66 1562.63 Q1449.65 1565.88 1446.66 1567.44 Q1443.67 1568.97 1439.34 1568.97 Q1433.86 1568.97 1430.62 1565.91 Q1427.4 1562.82 1427.4 1557.67 Q1427.4 1551.65 1431.41 1548.6 Q1435.46 1545.54 1443.44 1545.54 L1451.66 1545.54 L1451.66 1544.97 Q1451.66 1540.93 1448.98 1538.73 Q1446.34 1536.5 1441.53 1536.5 Q1438.48 1536.5 1435.58 1537.23 Q1432.69 1537.97 1430.01 1539.43 L1430.01 1534.02 Q1433.23 1532.78 1436.25 1532.17 Q1439.27 1531.54 1442.14 1531.54 Q1449.87 1531.54 1453.69 1535.55 Q1457.51 1539.56 1457.51 1547.71 Z" fill="#000000" fill-rule="evenodd" fill-opacity="1" /><path clip-path="url(#clip990)" d="M1495.17 1550.25 Q1495.17 1543.79 1492.49 1540.13 Q1489.85 1536.44 1485.2 1536.44 Q1480.56 1536.44 1477.88 1540.13 Q1475.24 1543.79 1475.24 1550.25 Q1475.24 1556.71 1477.88 1560.4 Q1480.56 1564.07 1485.2 1564.07 Q1489.85 1564.07 1492.49 1560.4 Q1495.17 1556.71 1495.17 1550.25 M1475.24 1537.81 Q1477.09 1534.62 1479.89 1533.1 Q1482.72 1531.54 1486.64 1531.54 Q1493.13 1531.54 1497.17 1536.69 Q1501.24 1541.85 1501.24 1550.25 Q1501.24 1558.65 1497.17 1563.81 Q1493.13 1568.97 1486.64 1568.97 Q1482.72 1568.97 1479.89 1567.44 Q1477.09 1565.88 1475.24 1562.7 L1475.24 1568.04 L1469.35 1568.04 L1469.35 1518.52 L1475.24 1518.52 L1475.24 1537.81 Z" fill="#000000" fill-rule="evenodd" fill-opacity="1" /><path clip-path="url(#clip990)" d="M1510.95 1532.4 L1516.81 1532.4 L1516.81 1568.04 L1510.95 1568.04 L1510.95 1532.4 M1510.95 1518.52 L1516.81 1518.52 L1516.81 1525.93 L1510.95 1525.93 L1510.95 1518.52 Z" fill="#000000" fill-rule="evenodd" fill-opacity="1" /><path clip-path="url(#clip990)" d="M1529.06 1518.52 L1534.92 1518.52 L1534.92 1568.04 L1529.06 1568.04 L1529.06 1518.52 Z" fill="#000000" fill-rule="evenodd" fill-opacity="1" /><path clip-path="url(#clip990)" d="M1547.17 1532.4 L1553.03 1532.4 L1553.03 1568.04 L1547.17 1568.04 L1547.17 1532.4 M1547.17 1518.52 L1553.03 1518.52 L1553.03 1525.93 L1547.17 1525.93 L1547.17 1518.52 Z" fill="#000000" fill-rule="evenodd" fill-opacity="1" /><path clip-path="url(#clip990)" d="M1571.08 1522.27 L1571.08 1532.4 L1583.14 1532.4 L1583.14 1536.95 L1571.08 1536.95 L1571.08 1556.3 Q1571.08 1560.66 1572.25 1561.9 Q1573.46 1563.14 1577.12 1563.14 L1583.14 1563.14 L1583.14 1568.04 L1577.12 1568.04 Q1570.34 1568.04 1567.77 1565.53 Q1565.19 1562.98 1565.19 1556.3 L1565.19 1536.95 L1560.89 1536.95 L1560.89 1532.4 L1565.19 1532.4 L1565.19 1522.27 L1571.08 1522.27 Z" fill="#000000" fill-rule="evenodd" fill-opacity="1" /><path clip-path="url(#clip990)" d="M1605.67 1571.35 Q1603.19 1577.72 1600.84 1579.66 Q1598.48 1581.6 1594.53 1581.6 L1589.86 1581.6 L1589.86 1576.7 L1593.29 1576.7 Q1595.71 1576.7 1597.05 1575.56 Q1598.39 1574.41 1600.01 1570.14 L1601.06 1567.47 L1586.64 1532.4 L1592.85 1532.4 L1603.99 1560.28 L1615.13 1532.4 L1621.33 1532.4 L1605.67 1571.35 Z" fill="#000000" fill-rule="evenodd" fill-opacity="1" /><polyline clip-path="url(#clip992)" style="stroke:#000000; stroke-linecap:butt; stroke-linejoin:round; stroke-width:2; stroke-opacity:0.1; fill:none" points="
  205.121,1321.26 2352.76,1321.26 
  "/>
<polyline clip-path="url(#clip992)" style="stroke:#000000; stroke-linecap:butt; stroke-linejoin:round; stroke-width:2; stroke-opacity:0.1; fill:none" points="
  205.121,1093.02 2352.76,1093.02 
  "/>
<polyline clip-path="url(#clip992)" style="stroke:#000000; stroke-linecap:butt; stroke-linejoin:round; stroke-width:2; stroke-opacity:0.1; fill:none" points="
  205.121,864.766 2352.76,864.766 
  "/>
<polyline clip-path="url(#clip992)" style="stroke:#000000; stroke-linecap:butt; stroke-linejoin:round; stroke-width:2; stroke-opacity:0.1; fill:none" points="
  205.121,636.517 2352.76,636.517 
  "/>
<polyline clip-path="url(#clip992)" style="stroke:#000000; stroke-linecap:butt; stroke-linejoin:round; stroke-width:2; stroke-opacity:0.1; fill:none" points="
  205.121,408.268 2352.76,408.268 
  "/>
<polyline clip-path="url(#clip992)" style="stroke:#000000; stroke-linecap:butt; stroke-linejoin:round; stroke-width:2; stroke-opacity:0.1; fill:none" points="
  205.121,180.019 2352.76,180.019 
  "/>
<polyline clip-path="url(#clip990)" style="stroke:#000000; stroke-linecap:butt; stroke-linejoin:round; stroke-width:4; stroke-opacity:1; fill:none" points="
  205.121,1423.18 205.121,47.2441 
  "/>
<polyline clip-path="url(#clip990)" style="stroke:#000000; stroke-linecap:butt; stroke-linejoin:round; stroke-width:4; stroke-opacity:1; fill:none" points="
  205.121,1321.26 224.019,1321.26 
  "/>
<polyline clip-path="url(#clip990)" style="stroke:#000000; stroke-linecap:butt; stroke-linejoin:round; stroke-width:4; stroke-opacity:1; fill:none" points="
  205.121,1093.02 224.019,1093.02 
  "/>
<polyline clip-path="url(#clip990)" style="stroke:#000000; stroke-linecap:butt; stroke-linejoin:round; stroke-width:4; stroke-opacity:1; fill:none" points="
  205.121,864.766 224.019,864.766 
  "/>
<polyline clip-path="url(#clip990)" style="stroke:#000000; stroke-linecap:butt; stroke-linejoin:round; stroke-width:4; stroke-opacity:1; fill:none" points="
  205.121,636.517 224.019,636.517 
  "/>
<polyline clip-path="url(#clip990)" style="stroke:#000000; stroke-linecap:butt; stroke-linejoin:round; stroke-width:4; stroke-opacity:1; fill:none" points="
  205.121,408.268 224.019,408.268 
  "/>
<polyline clip-path="url(#clip990)" style="stroke:#000000; stroke-linecap:butt; stroke-linejoin:round; stroke-width:4; stroke-opacity:1; fill:none" points="
  205.121,180.019 224.019,180.019 
  "/>
<path clip-path="url(#clip990)" d="M118.82 1334.61 L126.459 1334.61 L126.459 1308.24 L118.149 1309.91 L118.149 1305.65 L126.413 1303.98 L131.089 1303.98 L131.089 1334.61 L138.728 1334.61 L138.728 1338.54 L118.82 1338.54 L118.82 1334.61 Z" fill="#000000" fill-rule="evenodd" fill-opacity="1" /><path clip-path="url(#clip990)" d="M148.218 1303.98 L166.575 1303.98 L166.575 1307.92 L152.501 1307.92 L152.501 1316.39 Q153.519 1316.04 154.538 1315.88 Q155.556 1315.7 156.575 1315.7 Q162.362 1315.7 165.741 1318.87 Q169.121 1322.04 169.121 1327.46 Q169.121 1333.04 165.649 1336.14 Q162.177 1339.22 155.857 1339.22 Q153.681 1339.22 151.413 1338.85 Q149.167 1338.47 146.76 1337.73 L146.76 1333.04 Q148.843 1334.17 151.066 1334.72 Q153.288 1335.28 155.765 1335.28 Q159.769 1335.28 162.107 1333.17 Q164.445 1331.07 164.445 1327.46 Q164.445 1323.85 162.107 1321.74 Q159.769 1319.63 155.765 1319.63 Q153.89 1319.63 152.015 1320.05 Q150.163 1320.47 148.218 1321.35 L148.218 1303.98 Z" fill="#000000" fill-rule="evenodd" fill-opacity="1" /><path clip-path="url(#clip990)" d="M121.043 1106.36 L137.362 1106.36 L137.362 1110.3 L115.418 1110.3 L115.418 1106.36 Q118.08 1103.61 122.663 1098.98 Q127.269 1094.32 128.45 1092.98 Q130.695 1090.46 131.575 1088.72 Q132.478 1086.96 132.478 1085.27 Q132.478 1082.52 130.533 1080.78 Q128.612 1079.05 125.51 1079.05 Q123.311 1079.05 120.857 1079.81 Q118.427 1080.57 115.649 1082.12 L115.649 1077.4 Q118.473 1076.27 120.927 1075.69 Q123.38 1075.11 125.418 1075.11 Q130.788 1075.11 133.982 1077.8 Q137.177 1080.48 137.177 1084.97 Q137.177 1087.1 136.367 1089.02 Q135.579 1090.92 133.473 1093.51 Q132.894 1094.18 129.792 1097.4 Q126.691 1100.6 121.043 1106.36 Z" fill="#000000" fill-rule="evenodd" fill-opacity="1" /><path clip-path="url(#clip990)" d="M157.177 1078.81 Q153.566 1078.81 151.737 1082.38 Q149.931 1085.92 149.931 1093.05 Q149.931 1100.16 151.737 1103.72 Q153.566 1107.26 157.177 1107.26 Q160.811 1107.26 162.616 1103.72 Q164.445 1100.16 164.445 1093.05 Q164.445 1085.92 162.616 1082.38 Q160.811 1078.81 157.177 1078.81 M157.177 1075.11 Q162.987 1075.11 166.042 1079.72 Q169.121 1084.3 169.121 1093.05 Q169.121 1101.78 166.042 1106.38 Q162.987 1110.97 157.177 1110.97 Q151.366 1110.97 148.288 1106.38 Q145.232 1101.78 145.232 1093.05 Q145.232 1084.3 148.288 1079.72 Q151.366 1075.11 157.177 1075.11 Z" fill="#000000" fill-rule="evenodd" fill-opacity="1" /><path clip-path="url(#clip990)" d="M122.038 878.111 L138.357 878.111 L138.357 882.046 L116.413 882.046 L116.413 878.111 Q119.075 875.356 123.658 870.727 Q128.265 866.074 129.445 864.731 Q131.691 862.208 132.57 860.472 Q133.473 858.713 133.473 857.023 Q133.473 854.269 131.529 852.532 Q129.607 850.796 126.505 850.796 Q124.306 850.796 121.853 851.56 Q119.422 852.324 116.644 853.875 L116.644 849.153 Q119.468 848.019 121.922 847.44 Q124.376 846.861 126.413 846.861 Q131.783 846.861 134.978 849.546 Q138.172 852.231 138.172 856.722 Q138.172 858.852 137.362 860.773 Q136.575 862.671 134.468 865.264 Q133.89 865.935 130.788 869.153 Q127.686 872.347 122.038 878.111 Z" fill="#000000" fill-rule="evenodd" fill-opacity="1" /><path clip-path="url(#clip990)" d="M148.218 847.486 L166.575 847.486 L166.575 851.421 L152.501 851.421 L152.501 859.893 Q153.519 859.546 154.538 859.384 Q155.556 859.199 156.575 859.199 Q162.362 859.199 165.741 862.37 Q169.121 865.542 169.121 870.958 Q169.121 876.537 165.649 879.639 Q162.177 882.717 155.857 882.717 Q153.681 882.717 151.413 882.347 Q149.167 881.977 146.76 881.236 L146.76 876.537 Q148.843 877.671 151.066 878.227 Q153.288 878.782 155.765 878.782 Q159.769 878.782 162.107 876.676 Q164.445 874.569 164.445 870.958 Q164.445 867.347 162.107 865.241 Q159.769 863.134 155.765 863.134 Q153.89 863.134 152.015 863.551 Q150.163 863.968 148.218 864.847 L148.218 847.486 Z" fill="#000000" fill-rule="evenodd" fill-opacity="1" /><path clip-path="url(#clip990)" d="M131.181 635.163 Q134.538 635.88 136.413 638.149 Q138.311 640.418 138.311 643.751 Q138.311 648.867 134.792 651.667 Q131.274 654.468 124.793 654.468 Q122.617 654.468 120.302 654.029 Q118.01 653.612 115.556 652.755 L115.556 648.242 Q117.501 649.376 119.816 649.954 Q122.13 650.533 124.654 650.533 Q129.052 650.533 131.343 648.797 Q133.658 647.061 133.658 643.751 Q133.658 640.695 131.505 638.982 Q129.376 637.246 125.556 637.246 L121.529 637.246 L121.529 633.404 L125.742 633.404 Q129.191 633.404 131.019 632.038 Q132.848 630.649 132.848 628.056 Q132.848 625.394 130.95 623.982 Q129.075 622.547 125.556 622.547 Q123.635 622.547 121.436 622.964 Q119.237 623.381 116.598 624.26 L116.598 620.094 Q119.26 619.353 121.575 618.982 Q123.913 618.612 125.973 618.612 Q131.297 618.612 134.399 621.043 Q137.501 623.45 137.501 627.57 Q137.501 630.441 135.857 632.431 Q134.214 634.399 131.181 635.163 Z" fill="#000000" fill-rule="evenodd" fill-opacity="1" /><path clip-path="url(#clip990)" d="M157.177 622.316 Q153.566 622.316 151.737 625.881 Q149.931 629.422 149.931 636.552 Q149.931 643.658 151.737 647.223 Q153.566 650.765 157.177 650.765 Q160.811 650.765 162.616 647.223 Q164.445 643.658 164.445 636.552 Q164.445 629.422 162.616 625.881 Q160.811 622.316 157.177 622.316 M157.177 618.612 Q162.987 618.612 166.042 623.219 Q169.121 627.802 169.121 636.552 Q169.121 645.279 166.042 649.885 Q162.987 654.468 157.177 654.468 Q151.366 654.468 148.288 649.885 Q145.232 645.279 145.232 636.552 Q145.232 627.802 148.288 623.219 Q151.366 618.612 157.177 618.612 Z" fill="#000000" fill-rule="evenodd" fill-opacity="1" /><path clip-path="url(#clip990)" d="M132.177 406.914 Q135.533 407.631 137.408 409.9 Q139.306 412.168 139.306 415.502 Q139.306 420.617 135.788 423.418 Q132.269 426.219 125.788 426.219 Q123.612 426.219 121.297 425.779 Q119.006 425.363 116.552 424.506 L116.552 419.992 Q118.496 421.127 120.811 421.705 Q123.126 422.284 125.649 422.284 Q130.047 422.284 132.339 420.548 Q134.654 418.812 134.654 415.502 Q134.654 412.446 132.501 410.733 Q130.371 408.997 126.552 408.997 L122.524 408.997 L122.524 405.155 L126.737 405.155 Q130.186 405.155 132.015 403.789 Q133.843 402.4 133.843 399.807 Q133.843 397.145 131.945 395.733 Q130.07 394.298 126.552 394.298 Q124.63 394.298 122.431 394.715 Q120.232 395.131 117.593 396.011 L117.593 391.844 Q120.255 391.104 122.57 390.733 Q124.908 390.363 126.968 390.363 Q132.292 390.363 135.394 392.794 Q138.496 395.201 138.496 399.321 Q138.496 402.192 136.853 404.182 Q135.209 406.15 132.177 406.914 Z" fill="#000000" fill-rule="evenodd" fill-opacity="1" /><path clip-path="url(#clip990)" d="M148.218 390.988 L166.575 390.988 L166.575 394.923 L152.501 394.923 L152.501 403.395 Q153.519 403.048 154.538 402.886 Q155.556 402.701 156.575 402.701 Q162.362 402.701 165.741 405.872 Q169.121 409.043 169.121 414.46 Q169.121 420.039 165.649 423.141 Q162.177 426.219 155.857 426.219 Q153.681 426.219 151.413 425.849 Q149.167 425.479 146.76 424.738 L146.76 420.039 Q148.843 421.173 151.066 421.729 Q153.288 422.284 155.765 422.284 Q159.769 422.284 162.107 420.178 Q164.445 418.071 164.445 414.46 Q164.445 410.849 162.107 408.743 Q159.769 406.636 155.765 406.636 Q153.89 406.636 152.015 407.053 Q150.163 407.469 148.218 408.349 L148.218 390.988 Z" fill="#000000" fill-rule="evenodd" fill-opacity="1" /><path clip-path="url(#clip990)" d="M129.862 166.813 L118.056 185.262 L129.862 185.262 L129.862 166.813 M128.635 162.739 L134.515 162.739 L134.515 185.262 L139.445 185.262 L139.445 189.151 L134.515 189.151 L134.515 197.299 L129.862 197.299 L129.862 189.151 L114.26 189.151 L114.26 184.637 L128.635 162.739 Z" fill="#000000" fill-rule="evenodd" fill-opacity="1" /><path clip-path="url(#clip990)" d="M157.177 165.818 Q153.566 165.818 151.737 169.382 Q149.931 172.924 149.931 180.054 Q149.931 187.16 151.737 190.725 Q153.566 194.266 157.177 194.266 Q160.811 194.266 162.616 190.725 Q164.445 187.16 164.445 180.054 Q164.445 172.924 162.616 169.382 Q160.811 165.818 157.177 165.818 M157.177 162.114 Q162.987 162.114 166.042 166.72 Q169.121 171.304 169.121 180.054 Q169.121 188.78 166.042 193.387 Q162.987 197.97 157.177 197.97 Q151.366 197.97 148.288 193.387 Q145.232 188.78 145.232 180.054 Q145.232 171.304 148.288 166.72 Q151.366 162.114 157.177 162.114 Z" fill="#000000" fill-rule="evenodd" fill-opacity="1" /><path clip-path="url(#clip990)" d="M21.7677 809.818 L39.6235 809.818 L39.6235 801.734 Q39.6235 797.246 37.3 794.795 Q34.9765 792.344 30.6797 792.344 Q26.4147 792.344 24.0912 794.795 Q21.7677 797.246 21.7677 801.734 L21.7677 809.818 M16.4842 816.247 L16.4842 801.734 Q16.4842 793.745 20.1126 789.671 Q23.7092 785.565 30.6797 785.565 Q37.7138 785.565 41.3104 789.671 Q44.907 793.745 44.907 801.734 L44.907 809.818 L64.0042 809.818 L64.0042 816.247 L16.4842 816.247 Z" fill="#000000" fill-rule="evenodd" fill-opacity="1" /><path clip-path="url(#clip990)" d="M33.8307 757.683 Q33.2578 758.67 33.0032 759.847 Q32.7167 760.993 32.7167 762.394 Q32.7167 767.359 35.9632 770.032 Q39.1779 772.674 45.2253 772.674 L64.0042 772.674 L64.0042 778.562 L28.3562 778.562 L28.3562 772.674 L33.8944 772.674 Q30.6479 770.828 29.0883 767.868 Q27.4968 764.908 27.4968 760.675 Q27.4968 760.07 27.5923 759.338 Q27.656 758.606 27.8151 757.715 L33.8307 757.683 Z" fill="#000000" fill-rule="evenodd" fill-opacity="1" /><path clip-path="url(#clip990)" d="M32.4621 739.159 Q32.4621 743.869 36.1542 746.607 Q39.8145 749.344 46.212 749.344 Q52.6095 749.344 56.3017 746.638 Q59.9619 743.901 59.9619 739.159 Q59.9619 734.48 56.2698 731.743 Q52.5777 729.005 46.212 729.005 Q39.8781 729.005 36.186 731.743 Q32.4621 734.48 32.4621 739.159 M27.4968 739.159 Q27.4968 731.52 32.4621 727.159 Q37.4273 722.799 46.212 722.799 Q54.9649 722.799 59.9619 727.159 Q64.9272 731.52 64.9272 739.159 Q64.9272 746.829 59.9619 751.19 Q54.9649 755.519 46.212 755.519 Q37.4273 755.519 32.4621 751.19 Q27.4968 746.829 27.4968 739.159 Z" fill="#000000" fill-rule="evenodd" fill-opacity="1" /><path clip-path="url(#clip990)" d="M14.479 695.044 L19.3487 695.044 L19.3487 700.646 Q19.3487 703.797 20.6219 705.039 Q21.895 706.248 25.2052 706.248 L28.3562 706.248 L28.3562 696.604 L32.9077 696.604 L32.9077 706.248 L64.0042 706.248 L64.0042 712.136 L32.9077 712.136 L32.9077 717.738 L28.3562 717.738 L28.3562 712.136 L25.8736 712.136 Q19.9216 712.136 17.2162 709.367 Q14.479 706.598 14.479 700.583 L14.479 695.044 Z" fill="#000000" fill-rule="evenodd" fill-opacity="1" /><path clip-path="url(#clip990)" d="M28.3562 690.143 L28.3562 684.286 L64.0042 684.286 L64.0042 690.143 L28.3562 690.143 M14.479 690.143 L14.479 684.286 L21.895 684.286 L21.895 690.143 L14.479 690.143 Z" fill="#000000" fill-rule="evenodd" fill-opacity="1" /><path clip-path="url(#clip990)" d="M18.2347 666.24 L28.3562 666.24 L28.3562 654.177 L32.9077 654.177 L32.9077 666.24 L52.2594 666.24 Q56.6199 666.24 57.8613 665.062 Q59.1026 663.852 59.1026 660.192 L59.1026 654.177 L64.0042 654.177 L64.0042 660.192 Q64.0042 666.972 61.4897 669.55 Q58.9434 672.128 52.2594 672.128 L32.9077 672.128 L32.9077 676.425 L28.3562 676.425 L28.3562 672.128 L18.2347 672.128 L18.2347 666.24 Z" fill="#000000" fill-rule="evenodd" fill-opacity="1" /><polyline clip-path="url(#clip992)" style="stroke:#009af9; stroke-linecap:butt; stroke-linejoin:round; stroke-width:4; stroke-opacity:1; fill:none" points="
  265.903,174.062 378.463,94.1744 491.022,100.794 603.582,86.1857 716.141,118.141 828.701,190.724 941.26,227.015 1053.82,272.665 1166.38,267.644 1278.94,308.272 
  1391.5,445.221 1504.06,490.871 1616.62,487.219 1729.18,624.169 1841.74,800.377 1954.3,887.112 2066.85,1019.04 2179.41,1155.99 2291.97,1384.24 
  "/>
</svg>
