<?xml version="1.0" encoding="utf-8"?>
<svg xmlns="http://www.w3.org/2000/svg" xmlns:xlink="http://www.w3.org/1999/xlink" width="600" height="400" viewBox="0 0 2400 1600">
<defs>
  <clipPath id="clip950">
    <rect x="0" y="0" width="2400" height="1600"/>
  </clipPath>
</defs>
<path clip-path="url(#clip950)" d="
M0 1600 L2400 1600 L2400 0 L0 0  Z
  " fill="#ffffff" fill-rule="evenodd" fill-opacity="1"/>
<defs>
  <clipPath id="clip951">
    <rect x="480" y="0" width="1681" height="1600"/>
  </clipPath>
</defs>
<path clip-path="url(#clip950)" d="
M249.542 1423.18 L2352.76 1423.18 L2352.76 47.2441 L249.542 47.2441  Z
  " fill="#ffffff" fill-rule="evenodd" fill-opacity="1"/>
<defs>
  <clipPath id="clip952">
    <rect x="249" y="47" width="2104" height="1377"/>
  </clipPath>
</defs>
<polyline clip-path="url(#clip952)" style="stroke:#000000; stroke-linecap:butt; stroke-linejoin:round; stroke-width:2; stroke-opacity:0.1; fill:none" points="
  436.507,1423.18 436.507,47.2441 
  "/>
<polyline clip-path="url(#clip952)" style="stroke:#000000; stroke-linecap:butt; stroke-linejoin:round; stroke-width:2; stroke-opacity:0.1; fill:none" points="
  815.639,1423.18 815.639,47.2441 
  "/>
<polyline clip-path="url(#clip952)" style="stroke:#000000; stroke-linecap:butt; stroke-linejoin:round; stroke-width:2; stroke-opacity:0.1; fill:none" points="
  1194.77,1423.18 1194.77,47.2441 
  "/>
<polyline clip-path="url(#clip952)" style="stroke:#000000; stroke-linecap:butt; stroke-linejoin:round; stroke-width:2; stroke-opacity:0.1; fill:none" points="
  1573.91,1423.18 1573.91,47.2441 
  "/>
<polyline clip-path="url(#clip952)" style="stroke:#000000; stroke-linecap:butt; stroke-linejoin:round; stroke-width:2; stroke-opacity:0.1; fill:none" points="
  1953.04,1423.18 1953.04,47.2441 
  "/>
<polyline clip-path="url(#clip952)" style="stroke:#000000; stroke-linecap:butt; stroke-linejoin:round; stroke-width:2; stroke-opacity:0.1; fill:none" points="
  2332.17,1423.18 2332.17,47.2441 
  "/>
<polyline clip-path="url(#clip950)" style="stroke:#000000; stroke-linecap:butt; stroke-linejoin:round; stroke-width:4; stroke-opacity:1; fill:none" points="
  249.542,1423.18 2352.76,1423.18 
  "/>
<polyline clip-path="url(#clip950)" style="stroke:#000000; stroke-linecap:butt; stroke-linejoin:round; stroke-width:4; stroke-opacity:1; fill:none" points="
  436.507,1423.18 436.507,1404.28 
  "/>
<polyline clip-path="url(#clip950)" style="stroke:#000000; stroke-linecap:butt; stroke-linejoin:round; stroke-width:4; stroke-opacity:1; fill:none" points="
  815.639,1423.18 815.639,1404.28 
  "/>
<polyline clip-path="url(#clip950)" style="stroke:#000000; stroke-linecap:butt; stroke-linejoin:round; stroke-width:4; stroke-opacity:1; fill:none" points="
  1194.77,1423.18 1194.77,1404.28 
  "/>
<polyline clip-path="url(#clip950)" style="stroke:#000000; stroke-linecap:butt; stroke-linejoin:round; stroke-width:4; stroke-opacity:1; fill:none" points="
  1573.91,1423.18 1573.91,1404.28 
  "/>
<polyline clip-path="url(#clip950)" style="stroke:#000000; stroke-linecap:butt; stroke-linejoin:round; stroke-width:4; stroke-opacity:1; fill:none" points="
  1953.04,1423.18 1953.04,1404.28 
  "/>
<polyline clip-path="url(#clip950)" style="stroke:#000000; stroke-linecap:butt; stroke-linejoin:round; stroke-width:4; stroke-opacity:1; fill:none" points="
  2332.17,1423.18 2332.17,1404.28 
  "/>
<path clip-path="url(#clip950)" d="M398.81 1454.1 Q395.199 1454.1 393.37 1457.66 Q391.565 1461.2 391.565 1468.33 Q391.565 1475.44 393.37 1479.01 Q395.199 1482.55 398.81 1482.55 Q402.444 1482.55 404.25 1479.01 Q406.079 1475.44 406.079 1468.33 Q406.079 1461.2 404.25 1457.66 Q402.444 1454.1 398.81 1454.1 M398.81 1450.39 Q404.62 1450.39 407.676 1455 Q410.754 1459.58 410.754 1468.33 Q410.754 1477.06 407.676 1481.67 Q404.62 1486.25 398.81 1486.25 Q393 1486.25 389.921 1481.67 Q386.866 1477.06 386.866 1468.33 Q386.866 1459.58 389.921 1455 Q393 1450.39 398.81 1450.39 Z" fill="#000000" fill-rule="evenodd" fill-opacity="1" /><path clip-path="url(#clip950)" d="M418.972 1479.7 L423.856 1479.7 L423.856 1485.58 L418.972 1485.58 L418.972 1479.7 Z" fill="#000000" fill-rule="evenodd" fill-opacity="1" /><path clip-path="url(#clip950)" d="M444.041 1469.17 Q440.708 1469.17 438.787 1470.95 Q436.889 1472.73 436.889 1475.86 Q436.889 1478.98 438.787 1480.77 Q440.708 1482.55 444.041 1482.55 Q447.375 1482.55 449.296 1480.77 Q451.217 1478.96 451.217 1475.86 Q451.217 1472.73 449.296 1470.95 Q447.398 1469.17 444.041 1469.17 M439.365 1467.18 Q436.356 1466.44 434.666 1464.38 Q433 1462.32 433 1459.35 Q433 1455.21 435.939 1452.8 Q438.902 1450.39 444.041 1450.39 Q449.203 1450.39 452.143 1452.8 Q455.083 1455.21 455.083 1459.35 Q455.083 1462.32 453.393 1464.38 Q451.726 1466.44 448.74 1467.18 Q452.12 1467.96 453.995 1470.26 Q455.893 1472.55 455.893 1475.86 Q455.893 1480.88 452.814 1483.57 Q449.759 1486.25 444.041 1486.25 Q438.324 1486.25 435.245 1483.57 Q432.189 1480.88 432.189 1475.86 Q432.189 1472.55 434.088 1470.26 Q435.986 1467.96 439.365 1467.18 M437.652 1459.79 Q437.652 1462.48 439.319 1463.98 Q441.009 1465.49 444.041 1465.49 Q447.051 1465.49 448.74 1463.98 Q450.453 1462.48 450.453 1459.79 Q450.453 1457.11 448.74 1455.6 Q447.051 1454.1 444.041 1454.1 Q441.009 1454.1 439.319 1455.6 Q437.652 1457.11 437.652 1459.79 Z" fill="#000000" fill-rule="evenodd" fill-opacity="1" /><path clip-path="url(#clip950)" d="M474.203 1454.1 Q470.592 1454.1 468.763 1457.66 Q466.958 1461.2 466.958 1468.33 Q466.958 1475.44 468.763 1479.01 Q470.592 1482.55 474.203 1482.55 Q477.837 1482.55 479.643 1479.01 Q481.472 1475.44 481.472 1468.33 Q481.472 1461.2 479.643 1457.66 Q477.837 1454.1 474.203 1454.1 M474.203 1450.39 Q480.013 1450.39 483.069 1455 Q486.148 1459.58 486.148 1468.33 Q486.148 1477.06 483.069 1481.67 Q480.013 1486.25 474.203 1486.25 Q468.393 1486.25 465.314 1481.67 Q462.259 1477.06 462.259 1468.33 Q462.259 1459.58 465.314 1455 Q468.393 1450.39 474.203 1450.39 Z" fill="#000000" fill-rule="evenodd" fill-opacity="1" /><path clip-path="url(#clip950)" d="M778.556 1454.1 Q774.945 1454.1 773.117 1457.66 Q771.311 1461.2 771.311 1468.33 Q771.311 1475.44 773.117 1479.01 Q774.945 1482.55 778.556 1482.55 Q782.191 1482.55 783.996 1479.01 Q785.825 1475.44 785.825 1468.33 Q785.825 1461.2 783.996 1457.66 Q782.191 1454.1 778.556 1454.1 M778.556 1450.39 Q784.367 1450.39 787.422 1455 Q790.501 1459.58 790.501 1468.33 Q790.501 1477.06 787.422 1481.67 Q784.367 1486.25 778.556 1486.25 Q772.746 1486.25 769.668 1481.67 Q766.612 1477.06 766.612 1468.33 Q766.612 1459.58 769.668 1455 Q772.746 1450.39 778.556 1450.39 Z" fill="#000000" fill-rule="evenodd" fill-opacity="1" /><path clip-path="url(#clip950)" d="M798.718 1479.7 L803.603 1479.7 L803.603 1485.58 L798.718 1485.58 L798.718 1479.7 Z" fill="#000000" fill-rule="evenodd" fill-opacity="1" /><path clip-path="url(#clip950)" d="M823.788 1469.17 Q820.454 1469.17 818.533 1470.95 Q816.635 1472.73 816.635 1475.86 Q816.635 1478.98 818.533 1480.77 Q820.454 1482.55 823.788 1482.55 Q827.121 1482.55 829.042 1480.77 Q830.963 1478.96 830.963 1475.86 Q830.963 1472.73 829.042 1470.95 Q827.144 1469.17 823.788 1469.17 M819.112 1467.18 Q816.102 1466.44 814.413 1464.38 Q812.746 1462.32 812.746 1459.35 Q812.746 1455.21 815.686 1452.8 Q818.649 1450.39 823.788 1450.39 Q828.95 1450.39 831.889 1452.8 Q834.829 1455.21 834.829 1459.35 Q834.829 1462.32 833.139 1464.38 Q831.473 1466.44 828.487 1467.18 Q831.866 1467.96 833.741 1470.26 Q835.639 1472.55 835.639 1475.86 Q835.639 1480.88 832.561 1483.57 Q829.505 1486.25 823.788 1486.25 Q818.07 1486.25 814.991 1483.57 Q811.936 1480.88 811.936 1475.86 Q811.936 1472.55 813.834 1470.26 Q815.732 1467.96 819.112 1467.18 M817.399 1459.79 Q817.399 1462.48 819.065 1463.98 Q820.755 1465.49 823.788 1465.49 Q826.797 1465.49 828.487 1463.98 Q830.2 1462.48 830.2 1459.79 Q830.2 1457.11 828.487 1455.6 Q826.797 1454.1 823.788 1454.1 Q820.755 1454.1 819.065 1455.6 Q817.399 1457.11 817.399 1459.79 Z" fill="#000000" fill-rule="evenodd" fill-opacity="1" /><path clip-path="url(#clip950)" d="M844.76 1481.64 L852.399 1481.64 L852.399 1455.28 L844.088 1456.95 L844.088 1452.69 L852.352 1451.02 L857.028 1451.02 L857.028 1481.64 L864.667 1481.64 L864.667 1485.58 L844.76 1485.58 L844.76 1481.64 Z" fill="#000000" fill-rule="evenodd" fill-opacity="1" /><path clip-path="url(#clip950)" d="M1157.87 1454.1 Q1154.26 1454.1 1152.43 1457.66 Q1150.63 1461.2 1150.63 1468.33 Q1150.63 1475.44 1152.43 1479.01 Q1154.26 1482.55 1157.87 1482.55 Q1161.51 1482.55 1163.31 1479.01 Q1165.14 1475.44 1165.14 1468.33 Q1165.14 1461.2 1163.31 1457.66 Q1161.51 1454.1 1157.87 1454.1 M1157.87 1450.39 Q1163.68 1450.39 1166.74 1455 Q1169.82 1459.58 1169.82 1468.33 Q1169.82 1477.06 1166.74 1481.67 Q1163.68 1486.25 1157.87 1486.25 Q1152.06 1486.25 1148.99 1481.67 Q1145.93 1477.06 1145.93 1468.33 Q1145.93 1459.58 1148.99 1455 Q1152.06 1450.39 1157.87 1450.39 Z" fill="#000000" fill-rule="evenodd" fill-opacity="1" /><path clip-path="url(#clip950)" d="M1178.04 1479.7 L1182.92 1479.7 L1182.92 1485.58 L1178.04 1485.58 L1178.04 1479.7 Z" fill="#000000" fill-rule="evenodd" fill-opacity="1" /><path clip-path="url(#clip950)" d="M1203.11 1469.17 Q1199.77 1469.17 1197.85 1470.95 Q1195.95 1472.73 1195.95 1475.86 Q1195.95 1478.98 1197.85 1480.77 Q1199.77 1482.55 1203.11 1482.55 Q1206.44 1482.55 1208.36 1480.77 Q1210.28 1478.96 1210.28 1475.86 Q1210.28 1472.73 1208.36 1470.95 Q1206.46 1469.17 1203.11 1469.17 M1198.43 1467.18 Q1195.42 1466.44 1193.73 1464.38 Q1192.06 1462.32 1192.06 1459.35 Q1192.06 1455.21 1195 1452.8 Q1197.97 1450.39 1203.11 1450.39 Q1208.27 1450.39 1211.21 1452.8 Q1214.15 1455.21 1214.15 1459.35 Q1214.15 1462.32 1212.46 1464.38 Q1210.79 1466.44 1207.8 1467.18 Q1211.18 1467.96 1213.06 1470.26 Q1214.96 1472.55 1214.96 1475.86 Q1214.96 1480.88 1211.88 1483.57 Q1208.82 1486.25 1203.11 1486.25 Q1197.39 1486.25 1194.31 1483.57 Q1191.25 1480.88 1191.25 1475.86 Q1191.25 1472.55 1193.15 1470.26 Q1195.05 1467.96 1198.43 1467.18 M1196.72 1459.79 Q1196.72 1462.48 1198.38 1463.98 Q1200.07 1465.49 1203.11 1465.49 Q1206.11 1465.49 1207.8 1463.98 Q1209.52 1462.48 1209.52 1459.79 Q1209.52 1457.11 1207.8 1455.6 Q1206.11 1454.1 1203.11 1454.1 Q1200.07 1454.1 1198.38 1455.6 Q1196.72 1457.11 1196.72 1459.79 Z" fill="#000000" fill-rule="evenodd" fill-opacity="1" /><path clip-path="url(#clip950)" d="M1227.3 1481.64 L1243.61 1481.64 L1243.61 1485.58 L1221.67 1485.58 L1221.67 1481.64 Q1224.33 1478.89 1228.92 1474.26 Q1233.52 1469.61 1234.7 1468.27 Q1236.95 1465.74 1237.83 1464.01 Q1238.73 1462.25 1238.73 1460.56 Q1238.73 1457.8 1236.79 1456.07 Q1234.86 1454.33 1231.76 1454.33 Q1229.56 1454.33 1227.11 1455.09 Q1224.68 1455.86 1221.9 1457.41 L1221.9 1452.69 Q1224.73 1451.55 1227.18 1450.97 Q1229.63 1450.39 1231.67 1450.39 Q1237.04 1450.39 1240.24 1453.08 Q1243.43 1455.77 1243.43 1460.26 Q1243.43 1462.39 1242.62 1464.31 Q1241.83 1466.2 1239.73 1468.8 Q1239.15 1469.47 1236.05 1472.69 Q1232.94 1475.88 1227.3 1481.64 Z" fill="#000000" fill-rule="evenodd" fill-opacity="1" /><path clip-path="url(#clip950)" d="M1536.53 1454.1 Q1532.92 1454.1 1531.09 1457.66 Q1529.29 1461.2 1529.29 1468.33 Q1529.29 1475.44 1531.09 1479.01 Q1532.92 1482.55 1536.53 1482.55 Q1540.17 1482.55 1541.97 1479.01 Q1543.8 1475.44 1543.8 1468.33 Q1543.8 1461.2 1541.97 1457.66 Q1540.17 1454.1 1536.53 1454.1 M1536.53 1450.39 Q1542.34 1450.39 1545.4 1455 Q1548.48 1459.58 1548.48 1468.33 Q1548.48 1477.06 1545.4 1481.67 Q1542.34 1486.25 1536.53 1486.25 Q1530.72 1486.25 1527.64 1481.67 Q1524.59 1477.06 1524.59 1468.33 Q1524.59 1459.58 1527.64 1455 Q1530.72 1450.39 1536.53 1450.39 Z" fill="#000000" fill-rule="evenodd" fill-opacity="1" /><path clip-path="url(#clip950)" d="M1556.69 1479.7 L1561.58 1479.7 L1561.58 1485.58 L1556.69 1485.58 L1556.69 1479.7 Z" fill="#000000" fill-rule="evenodd" fill-opacity="1" /><path clip-path="url(#clip950)" d="M1581.76 1469.17 Q1578.43 1469.17 1576.51 1470.95 Q1574.61 1472.73 1574.61 1475.86 Q1574.61 1478.98 1576.51 1480.77 Q1578.43 1482.55 1581.76 1482.55 Q1585.1 1482.55 1587.02 1480.77 Q1588.94 1478.96 1588.94 1475.86 Q1588.94 1472.73 1587.02 1470.95 Q1585.12 1469.17 1581.76 1469.17 M1577.09 1467.18 Q1574.08 1466.44 1572.39 1464.38 Q1570.72 1462.32 1570.72 1459.35 Q1570.72 1455.21 1573.66 1452.8 Q1576.63 1450.39 1581.76 1450.39 Q1586.93 1450.39 1589.87 1452.8 Q1592.81 1455.21 1592.81 1459.35 Q1592.81 1462.32 1591.12 1464.38 Q1589.45 1466.44 1586.46 1467.18 Q1589.84 1467.96 1591.72 1470.26 Q1593.62 1472.55 1593.62 1475.86 Q1593.62 1480.88 1590.54 1483.57 Q1587.48 1486.25 1581.76 1486.25 Q1576.05 1486.25 1572.97 1483.57 Q1569.91 1480.88 1569.91 1475.86 Q1569.91 1472.55 1571.81 1470.26 Q1573.71 1467.96 1577.09 1467.18 M1575.38 1459.79 Q1575.38 1462.48 1577.04 1463.98 Q1578.73 1465.49 1581.76 1465.49 Q1584.77 1465.49 1586.46 1463.98 Q1588.18 1462.48 1588.18 1459.79 Q1588.18 1457.11 1586.46 1455.6 Q1584.77 1454.1 1581.76 1454.1 Q1578.73 1454.1 1577.04 1455.6 Q1575.38 1457.11 1575.38 1459.79 Z" fill="#000000" fill-rule="evenodd" fill-opacity="1" /><path clip-path="url(#clip950)" d="M1616.09 1466.95 Q1619.45 1467.66 1621.32 1469.93 Q1623.22 1472.2 1623.22 1475.53 Q1623.22 1480.65 1619.7 1483.45 Q1616.19 1486.25 1609.7 1486.25 Q1607.53 1486.25 1605.21 1485.81 Q1602.92 1485.39 1600.47 1484.54 L1600.47 1480.02 Q1602.41 1481.16 1604.73 1481.74 Q1607.04 1482.32 1609.56 1482.32 Q1613.96 1482.32 1616.25 1480.58 Q1618.57 1478.84 1618.57 1475.53 Q1618.57 1472.48 1616.42 1470.77 Q1614.29 1469.03 1610.47 1469.03 L1606.44 1469.03 L1606.44 1465.19 L1610.65 1465.19 Q1614.1 1465.19 1615.93 1463.82 Q1617.76 1462.43 1617.76 1459.84 Q1617.76 1457.18 1615.86 1455.77 Q1613.99 1454.33 1610.47 1454.33 Q1608.55 1454.33 1606.35 1454.75 Q1604.15 1455.16 1601.51 1456.04 L1601.51 1451.88 Q1604.17 1451.14 1606.49 1450.77 Q1608.82 1450.39 1610.88 1450.39 Q1616.21 1450.39 1619.31 1452.83 Q1622.41 1455.23 1622.41 1459.35 Q1622.41 1462.22 1620.77 1464.21 Q1619.12 1466.18 1616.09 1466.95 Z" fill="#000000" fill-rule="evenodd" fill-opacity="1" /><path clip-path="url(#clip950)" d="M1915.1 1454.1 Q1911.49 1454.1 1909.66 1457.66 Q1907.85 1461.2 1907.85 1468.33 Q1907.85 1475.44 1909.66 1479.01 Q1911.49 1482.55 1915.1 1482.55 Q1918.73 1482.55 1920.54 1479.01 Q1922.37 1475.44 1922.37 1468.33 Q1922.37 1461.2 1920.54 1457.66 Q1918.73 1454.1 1915.1 1454.1 M1915.1 1450.39 Q1920.91 1450.39 1923.96 1455 Q1927.04 1459.58 1927.04 1468.33 Q1927.04 1477.06 1923.96 1481.67 Q1920.91 1486.25 1915.1 1486.25 Q1909.29 1486.25 1906.21 1481.67 Q1903.15 1477.06 1903.15 1468.33 Q1903.15 1459.58 1906.21 1455 Q1909.29 1450.39 1915.1 1450.39 Z" fill="#000000" fill-rule="evenodd" fill-opacity="1" /><path clip-path="url(#clip950)" d="M1935.26 1479.7 L1940.14 1479.7 L1940.14 1485.58 L1935.26 1485.58 L1935.26 1479.7 Z" fill="#000000" fill-rule="evenodd" fill-opacity="1" /><path clip-path="url(#clip950)" d="M1960.33 1469.17 Q1957 1469.17 1955.08 1470.95 Q1953.18 1472.73 1953.18 1475.86 Q1953.18 1478.98 1955.08 1480.77 Q1957 1482.55 1960.33 1482.55 Q1963.66 1482.55 1965.58 1480.77 Q1967.51 1478.96 1967.51 1475.86 Q1967.51 1472.73 1965.58 1470.95 Q1963.69 1469.17 1960.33 1469.17 M1955.65 1467.18 Q1952.64 1466.44 1950.95 1464.38 Q1949.29 1462.32 1949.29 1459.35 Q1949.29 1455.21 1952.23 1452.8 Q1955.19 1450.39 1960.33 1450.39 Q1965.49 1450.39 1968.43 1452.8 Q1971.37 1455.21 1971.37 1459.35 Q1971.37 1462.32 1969.68 1464.38 Q1968.01 1466.44 1965.03 1467.18 Q1968.41 1467.96 1970.28 1470.26 Q1972.18 1472.55 1972.18 1475.86 Q1972.18 1480.88 1969.1 1483.57 Q1966.05 1486.25 1960.33 1486.25 Q1954.61 1486.25 1951.53 1483.57 Q1948.48 1480.88 1948.48 1475.86 Q1948.48 1472.55 1950.38 1470.26 Q1952.27 1467.96 1955.65 1467.18 M1953.94 1459.79 Q1953.94 1462.48 1955.61 1463.98 Q1957.3 1465.49 1960.33 1465.49 Q1963.34 1465.49 1965.03 1463.98 Q1966.74 1462.48 1966.74 1459.79 Q1966.74 1457.11 1965.03 1455.6 Q1963.34 1454.1 1960.33 1454.1 Q1957.3 1454.1 1955.61 1455.6 Q1953.94 1457.11 1953.94 1459.79 Z" fill="#000000" fill-rule="evenodd" fill-opacity="1" /><path clip-path="url(#clip950)" d="M1993.34 1455.09 L1981.53 1473.54 L1993.34 1473.54 L1993.34 1455.09 M1992.11 1451.02 L1997.99 1451.02 L1997.99 1473.54 L2002.92 1473.54 L2002.92 1477.43 L1997.99 1477.43 L1997.99 1485.58 L1993.34 1485.58 L1993.34 1477.43 L1977.74 1477.43 L1977.74 1472.92 L1992.11 1451.02 Z" fill="#000000" fill-rule="evenodd" fill-opacity="1" /><path clip-path="url(#clip950)" d="M2294.97 1454.1 Q2291.36 1454.1 2289.53 1457.66 Q2287.73 1461.2 2287.73 1468.33 Q2287.73 1475.44 2289.53 1479.01 Q2291.36 1482.55 2294.97 1482.55 Q2298.61 1482.55 2300.41 1479.01 Q2302.24 1475.44 2302.24 1468.33 Q2302.24 1461.2 2300.41 1457.66 Q2298.61 1454.1 2294.97 1454.1 M2294.97 1450.39 Q2300.78 1450.39 2303.84 1455 Q2306.92 1459.58 2306.92 1468.33 Q2306.92 1477.06 2303.84 1481.67 Q2300.78 1486.25 2294.97 1486.25 Q2289.16 1486.25 2286.08 1481.67 Q2283.03 1477.06 2283.03 1468.33 Q2283.03 1459.58 2286.08 1455 Q2289.16 1450.39 2294.97 1450.39 Z" fill="#000000" fill-rule="evenodd" fill-opacity="1" /><path clip-path="url(#clip950)" d="M2315.13 1479.7 L2320.02 1479.7 L2320.02 1485.58 L2315.13 1485.58 L2315.13 1479.7 Z" fill="#000000" fill-rule="evenodd" fill-opacity="1" /><path clip-path="url(#clip950)" d="M2340.2 1469.17 Q2336.87 1469.17 2334.95 1470.95 Q2333.05 1472.73 2333.05 1475.86 Q2333.05 1478.98 2334.95 1480.77 Q2336.87 1482.55 2340.2 1482.55 Q2343.54 1482.55 2345.46 1480.77 Q2347.38 1478.96 2347.38 1475.86 Q2347.38 1472.73 2345.46 1470.95 Q2343.56 1469.17 2340.2 1469.17 M2335.53 1467.18 Q2332.52 1466.44 2330.83 1464.38 Q2329.16 1462.32 2329.16 1459.35 Q2329.16 1455.21 2332.1 1452.8 Q2335.06 1450.39 2340.2 1450.39 Q2345.37 1450.39 2348.31 1452.8 Q2351.25 1455.21 2351.25 1459.35 Q2351.25 1462.32 2349.56 1464.38 Q2347.89 1466.44 2344.9 1467.18 Q2348.28 1467.96 2350.16 1470.26 Q2352.06 1472.55 2352.06 1475.86 Q2352.06 1480.88 2348.98 1483.57 Q2345.92 1486.25 2340.2 1486.25 Q2334.49 1486.25 2331.41 1483.57 Q2328.35 1480.88 2328.35 1475.86 Q2328.35 1472.55 2330.25 1470.26 Q2332.15 1467.96 2335.53 1467.18 M2333.81 1459.79 Q2333.81 1462.48 2335.48 1463.98 Q2337.17 1465.49 2340.2 1465.49 Q2343.21 1465.49 2344.9 1463.98 Q2346.62 1462.48 2346.62 1459.79 Q2346.62 1457.11 2344.9 1455.6 Q2343.21 1454.1 2340.2 1454.1 Q2337.17 1454.1 2335.48 1455.6 Q2333.81 1457.11 2333.81 1459.79 Z" fill="#000000" fill-rule="evenodd" fill-opacity="1" /><path clip-path="url(#clip950)" d="M2360.41 1451.02 L2378.77 1451.02 L2378.77 1454.96 L2364.69 1454.96 L2364.69 1463.43 Q2365.71 1463.08 2366.73 1462.92 Q2367.75 1462.73 2368.77 1462.73 Q2374.56 1462.73 2377.93 1465.9 Q2381.31 1469.08 2381.31 1474.49 Q2381.31 1480.07 2377.84 1483.17 Q2374.37 1486.25 2368.05 1486.25 Q2365.87 1486.25 2363.61 1485.88 Q2361.36 1485.51 2358.95 1484.77 L2358.95 1480.07 Q2361.04 1481.2 2363.26 1481.76 Q2365.48 1482.32 2367.96 1482.32 Q2371.96 1482.32 2374.3 1480.21 Q2376.64 1478.1 2376.64 1474.49 Q2376.64 1470.88 2374.3 1468.77 Q2371.96 1466.67 2367.96 1466.67 Q2366.08 1466.67 2364.21 1467.08 Q2362.36 1467.5 2360.41 1468.38 L2360.41 1451.02 Z" fill="#000000" fill-rule="evenodd" fill-opacity="1" /><path clip-path="url(#clip950)" d="M1256.03 1526.86 L1247.31 1550.51 L1264.78 1550.51 L1256.03 1526.86 M1252.4 1520.52 L1259.69 1520.52 L1277.8 1568.04 L1271.12 1568.04 L1266.79 1555.85 L1245.37 1555.85 L1241.04 1568.04 L1234.26 1568.04 L1252.4 1520.52 Z" fill="#000000" fill-rule="evenodd" fill-opacity="1" /><path clip-path="url(#clip950)" d="M1284.01 1520.52 L1290.47 1520.52 L1290.47 1549.39 Q1290.47 1557.03 1293.24 1560.4 Q1296.01 1563.75 1302.22 1563.75 Q1308.39 1563.75 1311.16 1560.4 Q1313.93 1557.03 1313.93 1549.39 L1313.93 1520.52 L1320.39 1520.52 L1320.39 1550.19 Q1320.39 1559.48 1315.77 1564.22 Q1311.19 1568.97 1302.22 1568.97 Q1293.21 1568.97 1288.59 1564.22 Q1284.01 1559.48 1284.01 1550.19 L1284.01 1520.52 Z" fill="#000000" fill-rule="evenodd" fill-opacity="1" /><path clip-path="url(#clip950)" d="M1368.04 1524.18 L1368.04 1530.96 Q1364.79 1527.94 1361.1 1526.44 Q1357.44 1524.95 1353.3 1524.95 Q1345.15 1524.95 1340.82 1529.95 Q1336.49 1534.91 1336.49 1544.33 Q1336.49 1553.72 1340.82 1558.72 Q1345.15 1563.68 1353.3 1563.68 Q1357.44 1563.68 1361.1 1562.19 Q1364.79 1560.69 1368.04 1557.67 L1368.04 1564.38 Q1364.66 1566.68 1360.88 1567.82 Q1357.12 1568.97 1352.92 1568.97 Q1342.13 1568.97 1335.92 1562.38 Q1329.72 1555.76 1329.72 1544.33 Q1329.72 1532.87 1335.92 1526.28 Q1342.13 1519.66 1352.92 1519.66 Q1357.18 1519.66 1360.94 1520.81 Q1364.73 1521.92 1368.04 1524.18 Z" fill="#000000" fill-rule="evenodd" fill-opacity="1" /><polyline clip-path="url(#clip952)" style="stroke:#000000; stroke-linecap:butt; stroke-linejoin:round; stroke-width:2; stroke-opacity:0.1; fill:none" points="
  249.542,1234.64 2352.76,1234.64 
  "/>
<polyline clip-path="url(#clip952)" style="stroke:#000000; stroke-linecap:butt; stroke-linejoin:round; stroke-width:2; stroke-opacity:0.1; fill:none" points="
  249.542,1028.4 2352.76,1028.4 
  "/>
<polyline clip-path="url(#clip952)" style="stroke:#000000; stroke-linecap:butt; stroke-linejoin:round; stroke-width:2; stroke-opacity:0.1; fill:none" points="
  249.542,822.163 2352.76,822.163 
  "/>
<polyline clip-path="url(#clip952)" style="stroke:#000000; stroke-linecap:butt; stroke-linejoin:round; stroke-width:2; stroke-opacity:0.1; fill:none" points="
  249.542,615.927 2352.76,615.927 
  "/>
<polyline clip-path="url(#clip952)" style="stroke:#000000; stroke-linecap:butt; stroke-linejoin:round; stroke-width:2; stroke-opacity:0.1; fill:none" points="
  249.542,409.691 2352.76,409.691 
  "/>
<polyline clip-path="url(#clip952)" style="stroke:#000000; stroke-linecap:butt; stroke-linejoin:round; stroke-width:2; stroke-opacity:0.1; fill:none" points="
  249.542,203.455 2352.76,203.455 
  "/>
<polyline clip-path="url(#clip950)" style="stroke:#000000; stroke-linecap:butt; stroke-linejoin:round; stroke-width:4; stroke-opacity:1; fill:none" points="
  249.542,1423.18 249.542,47.2441 
  "/>
<polyline clip-path="url(#clip950)" style="stroke:#000000; stroke-linecap:butt; stroke-linejoin:round; stroke-width:4; stroke-opacity:1; fill:none" points="
  249.542,1234.64 268.44,1234.64 
  "/>
<polyline clip-path="url(#clip950)" style="stroke:#000000; stroke-linecap:butt; stroke-linejoin:round; stroke-width:4; stroke-opacity:1; fill:none" points="
  249.542,1028.4 268.44,1028.4 
  "/>
<polyline clip-path="url(#clip950)" style="stroke:#000000; stroke-linecap:butt; stroke-linejoin:round; stroke-width:4; stroke-opacity:1; fill:none" points="
  249.542,822.163 268.44,822.163 
  "/>
<polyline clip-path="url(#clip950)" style="stroke:#000000; stroke-linecap:butt; stroke-linejoin:round; stroke-width:4; stroke-opacity:1; fill:none" points="
  249.542,615.927 268.44,615.927 
  "/>
<polyline clip-path="url(#clip950)" style="stroke:#000000; stroke-linecap:butt; stroke-linejoin:round; stroke-width:4; stroke-opacity:1; fill:none" points="
  249.542,409.691 268.44,409.691 
  "/>
<polyline clip-path="url(#clip950)" style="stroke:#000000; stroke-linecap:butt; stroke-linejoin:round; stroke-width:4; stroke-opacity:1; fill:none" points="
  249.542,203.455 268.44,203.455 
  "/>
<path clip-path="url(#clip950)" d="M126.205 1220.43 Q122.593 1220.43 120.765 1224 Q118.959 1227.54 118.959 1234.67 Q118.959 1241.78 120.765 1245.34 Q122.593 1248.88 126.205 1248.88 Q129.839 1248.88 131.644 1245.34 Q133.473 1241.78 133.473 1234.67 Q133.473 1227.54 131.644 1224 Q129.839 1220.43 126.205 1220.43 M126.205 1216.73 Q132.015 1216.73 135.07 1221.34 Q138.149 1225.92 138.149 1234.67 Q138.149 1243.4 135.07 1248 Q132.015 1252.59 126.205 1252.59 Q120.394 1252.59 117.316 1248 Q114.26 1243.4 114.26 1234.67 Q114.26 1225.92 117.316 1221.34 Q120.394 1216.73 126.205 1216.73 Z" fill="#000000" fill-rule="evenodd" fill-opacity="1" /><path clip-path="url(#clip950)" d="M146.366 1246.04 L151.251 1246.04 L151.251 1251.92 L146.366 1251.92 L146.366 1246.04 Z" fill="#000000" fill-rule="evenodd" fill-opacity="1" /><path clip-path="url(#clip950)" d="M174.283 1221.43 L162.477 1239.88 L174.283 1239.88 L174.283 1221.43 M173.056 1217.36 L178.936 1217.36 L178.936 1239.88 L183.866 1239.88 L183.866 1243.77 L178.936 1243.77 L178.936 1251.92 L174.283 1251.92 L174.283 1243.77 L158.681 1243.77 L158.681 1239.25 L173.056 1217.36 Z" fill="#000000" fill-rule="evenodd" fill-opacity="1" /><path clip-path="url(#clip950)" d="M201.598 1220.43 Q197.987 1220.43 196.158 1224 Q194.352 1227.54 194.352 1234.67 Q194.352 1241.78 196.158 1245.34 Q197.987 1248.88 201.598 1248.88 Q205.232 1248.88 207.037 1245.34 Q208.866 1241.78 208.866 1234.67 Q208.866 1227.54 207.037 1224 Q205.232 1220.43 201.598 1220.43 M201.598 1216.73 Q207.408 1216.73 210.463 1221.34 Q213.542 1225.92 213.542 1234.67 Q213.542 1243.4 210.463 1248 Q207.408 1252.59 201.598 1252.59 Q195.787 1252.59 192.709 1248 Q189.653 1243.4 189.653 1234.67 Q189.653 1225.92 192.709 1221.34 Q195.787 1216.73 201.598 1216.73 Z" fill="#000000" fill-rule="evenodd" fill-opacity="1" /><path clip-path="url(#clip950)" d="M127.2 1014.2 Q123.589 1014.2 121.76 1017.76 Q119.955 1021.3 119.955 1028.43 Q119.955 1035.54 121.76 1039.11 Q123.589 1042.65 127.2 1042.65 Q130.834 1042.65 132.64 1039.11 Q134.468 1035.54 134.468 1028.43 Q134.468 1021.3 132.64 1017.76 Q130.834 1014.2 127.2 1014.2 M127.2 1010.49 Q133.01 1010.49 136.066 1015.1 Q139.144 1019.68 139.144 1028.43 Q139.144 1037.16 136.066 1041.77 Q133.01 1046.35 127.2 1046.35 Q121.39 1046.35 118.311 1041.77 Q115.256 1037.16 115.256 1028.43 Q115.256 1019.68 118.311 1015.1 Q121.39 1010.49 127.2 1010.49 Z" fill="#000000" fill-rule="evenodd" fill-opacity="1" /><path clip-path="url(#clip950)" d="M147.362 1039.8 L152.246 1039.8 L152.246 1045.68 L147.362 1045.68 L147.362 1039.8 Z" fill="#000000" fill-rule="evenodd" fill-opacity="1" /><path clip-path="url(#clip950)" d="M175.278 1015.19 L163.473 1033.64 L175.278 1033.64 L175.278 1015.19 M174.052 1011.12 L179.931 1011.12 L179.931 1033.64 L184.862 1033.64 L184.862 1037.53 L179.931 1037.53 L179.931 1045.68 L175.278 1045.68 L175.278 1037.53 L159.677 1037.53 L159.677 1033.02 L174.052 1011.12 Z" fill="#000000" fill-rule="evenodd" fill-opacity="1" /><path clip-path="url(#clip950)" d="M192.639 1011.12 L210.996 1011.12 L210.996 1015.05 L196.922 1015.05 L196.922 1023.53 Q197.94 1023.18 198.959 1023.02 Q199.977 1022.83 200.996 1022.83 Q206.783 1022.83 210.162 1026 Q213.542 1029.17 213.542 1034.59 Q213.542 1040.17 210.07 1043.27 Q206.598 1046.35 200.278 1046.35 Q198.102 1046.35 195.834 1045.98 Q193.588 1045.61 191.181 1044.87 L191.181 1040.17 Q193.264 1041.3 195.487 1041.86 Q197.709 1042.42 200.186 1042.42 Q204.19 1042.42 206.528 1040.31 Q208.866 1038.2 208.866 1034.59 Q208.866 1030.98 206.528 1028.87 Q204.19 1026.77 200.186 1026.77 Q198.311 1026.77 196.436 1027.18 Q194.584 1027.6 192.639 1028.48 L192.639 1011.12 Z" fill="#000000" fill-rule="evenodd" fill-opacity="1" /><path clip-path="url(#clip950)" d="M126.205 807.962 Q122.593 807.962 120.765 811.527 Q118.959 815.068 118.959 822.198 Q118.959 829.304 120.765 832.869 Q122.593 836.411 126.205 836.411 Q129.839 836.411 131.644 832.869 Q133.473 829.304 133.473 822.198 Q133.473 815.068 131.644 811.527 Q129.839 807.962 126.205 807.962 M126.205 804.258 Q132.015 804.258 135.07 808.865 Q138.149 813.448 138.149 822.198 Q138.149 830.925 135.07 835.531 Q132.015 840.114 126.205 840.114 Q120.394 840.114 117.316 835.531 Q114.26 830.925 114.26 822.198 Q114.26 813.448 117.316 808.865 Q120.394 804.258 126.205 804.258 Z" fill="#000000" fill-rule="evenodd" fill-opacity="1" /><path clip-path="url(#clip950)" d="M146.366 833.564 L151.251 833.564 L151.251 839.443 L146.366 839.443 L146.366 833.564 Z" fill="#000000" fill-rule="evenodd" fill-opacity="1" /><path clip-path="url(#clip950)" d="M161.482 804.883 L179.839 804.883 L179.839 808.818 L165.765 808.818 L165.765 817.291 Q166.783 816.943 167.802 816.781 Q168.82 816.596 169.839 816.596 Q175.626 816.596 179.005 819.767 Q182.385 822.939 182.385 828.355 Q182.385 833.934 178.913 837.036 Q175.44 840.114 169.121 840.114 Q166.945 840.114 164.677 839.744 Q162.431 839.374 160.024 838.633 L160.024 833.934 Q162.107 835.068 164.329 835.624 Q166.552 836.179 169.028 836.179 Q173.033 836.179 175.371 834.073 Q177.709 831.966 177.709 828.355 Q177.709 824.744 175.371 822.638 Q173.033 820.531 169.028 820.531 Q167.153 820.531 165.278 820.948 Q163.427 821.365 161.482 822.244 L161.482 804.883 Z" fill="#000000" fill-rule="evenodd" fill-opacity="1" /><path clip-path="url(#clip950)" d="M201.598 807.962 Q197.987 807.962 196.158 811.527 Q194.352 815.068 194.352 822.198 Q194.352 829.304 196.158 832.869 Q197.987 836.411 201.598 836.411 Q205.232 836.411 207.037 832.869 Q208.866 829.304 208.866 822.198 Q208.866 815.068 207.037 811.527 Q205.232 807.962 201.598 807.962 M201.598 804.258 Q207.408 804.258 210.463 808.865 Q213.542 813.448 213.542 822.198 Q213.542 830.925 210.463 835.531 Q207.408 840.114 201.598 840.114 Q195.787 840.114 192.709 835.531 Q189.653 830.925 189.653 822.198 Q189.653 813.448 192.709 808.865 Q195.787 804.258 201.598 804.258 Z" fill="#000000" fill-rule="evenodd" fill-opacity="1" /><path clip-path="url(#clip950)" d="M127.2 601.726 Q123.589 601.726 121.76 605.291 Q119.955 608.832 119.955 615.962 Q119.955 623.068 121.76 626.633 Q123.589 630.175 127.2 630.175 Q130.834 630.175 132.64 626.633 Q134.468 623.068 134.468 615.962 Q134.468 608.832 132.64 605.291 Q130.834 601.726 127.2 601.726 M127.2 598.022 Q133.01 598.022 136.066 602.629 Q139.144 607.212 139.144 615.962 Q139.144 624.689 136.066 629.295 Q133.01 633.878 127.2 633.878 Q121.39 633.878 118.311 629.295 Q115.256 624.689 115.256 615.962 Q115.256 607.212 118.311 602.629 Q121.39 598.022 127.2 598.022 Z" fill="#000000" fill-rule="evenodd" fill-opacity="1" /><path clip-path="url(#clip950)" d="M147.362 627.327 L152.246 627.327 L152.246 633.207 L147.362 633.207 L147.362 627.327 Z" fill="#000000" fill-rule="evenodd" fill-opacity="1" /><path clip-path="url(#clip950)" d="M162.477 598.647 L180.834 598.647 L180.834 602.582 L166.76 602.582 L166.76 611.054 Q167.778 610.707 168.797 610.545 Q169.815 610.36 170.834 610.36 Q176.621 610.36 180.001 613.531 Q183.38 616.703 183.38 622.119 Q183.38 627.698 179.908 630.8 Q176.436 633.878 170.116 633.878 Q167.94 633.878 165.672 633.508 Q163.427 633.138 161.019 632.397 L161.019 627.698 Q163.102 628.832 165.325 629.388 Q167.547 629.943 170.024 629.943 Q174.028 629.943 176.366 627.837 Q178.704 625.73 178.704 622.119 Q178.704 618.508 176.366 616.402 Q174.028 614.295 170.024 614.295 Q168.149 614.295 166.274 614.712 Q164.422 615.128 162.477 616.008 L162.477 598.647 Z" fill="#000000" fill-rule="evenodd" fill-opacity="1" /><path clip-path="url(#clip950)" d="M192.639 598.647 L210.996 598.647 L210.996 602.582 L196.922 602.582 L196.922 611.054 Q197.94 610.707 198.959 610.545 Q199.977 610.36 200.996 610.36 Q206.783 610.36 210.162 613.531 Q213.542 616.703 213.542 622.119 Q213.542 627.698 210.07 630.8 Q206.598 633.878 200.278 633.878 Q198.102 633.878 195.834 633.508 Q193.588 633.138 191.181 632.397 L191.181 627.698 Q193.264 628.832 195.487 629.388 Q197.709 629.943 200.186 629.943 Q204.19 629.943 206.528 627.837 Q208.866 625.73 208.866 622.119 Q208.866 618.508 206.528 616.402 Q204.19 614.295 200.186 614.295 Q198.311 614.295 196.436 614.712 Q194.584 615.128 192.639 616.008 L192.639 598.647 Z" fill="#000000" fill-rule="evenodd" fill-opacity="1" /><path clip-path="url(#clip950)" d="M126.205 395.49 Q122.593 395.49 120.765 399.054 Q118.959 402.596 118.959 409.726 Q118.959 416.832 120.765 420.397 Q122.593 423.939 126.205 423.939 Q129.839 423.939 131.644 420.397 Q133.473 416.832 133.473 409.726 Q133.473 402.596 131.644 399.054 Q129.839 395.49 126.205 395.49 M126.205 391.786 Q132.015 391.786 135.07 396.392 Q138.149 400.976 138.149 409.726 Q138.149 418.453 135.07 423.059 Q132.015 427.642 126.205 427.642 Q120.394 427.642 117.316 423.059 Q114.26 418.453 114.26 409.726 Q114.26 400.976 117.316 396.392 Q120.394 391.786 126.205 391.786 Z" fill="#000000" fill-rule="evenodd" fill-opacity="1" /><path clip-path="url(#clip950)" d="M146.366 421.091 L151.251 421.091 L151.251 426.971 L146.366 426.971 L146.366 421.091 Z" fill="#000000" fill-rule="evenodd" fill-opacity="1" /><path clip-path="url(#clip950)" d="M172.014 407.828 Q168.866 407.828 167.015 409.98 Q165.186 412.133 165.186 415.883 Q165.186 419.61 167.015 421.786 Q168.866 423.939 172.014 423.939 Q175.163 423.939 176.991 421.786 Q178.843 419.61 178.843 415.883 Q178.843 412.133 176.991 409.98 Q175.163 407.828 172.014 407.828 M181.297 393.175 L181.297 397.434 Q179.538 396.601 177.732 396.161 Q175.95 395.721 174.19 395.721 Q169.561 395.721 167.107 398.846 Q164.677 401.971 164.329 408.291 Q165.695 406.277 167.755 405.212 Q169.815 404.124 172.292 404.124 Q177.501 404.124 180.51 407.295 Q183.542 410.443 183.542 415.883 Q183.542 421.207 180.394 424.425 Q177.246 427.642 172.014 427.642 Q166.019 427.642 162.848 423.059 Q159.677 418.453 159.677 409.726 Q159.677 401.531 163.565 396.67 Q167.454 391.786 174.005 391.786 Q175.764 391.786 177.547 392.133 Q179.352 392.48 181.297 393.175 Z" fill="#000000" fill-rule="evenodd" fill-opacity="1" /><path clip-path="url(#clip950)" d="M201.598 395.49 Q197.987 395.49 196.158 399.054 Q194.352 402.596 194.352 409.726 Q194.352 416.832 196.158 420.397 Q197.987 423.939 201.598 423.939 Q205.232 423.939 207.037 420.397 Q208.866 416.832 208.866 409.726 Q208.866 402.596 207.037 399.054 Q205.232 395.49 201.598 395.49 M201.598 391.786 Q207.408 391.786 210.463 396.392 Q213.542 400.976 213.542 409.726 Q213.542 418.453 210.463 423.059 Q207.408 427.642 201.598 427.642 Q195.787 427.642 192.709 423.059 Q189.653 418.453 189.653 409.726 Q189.653 400.976 192.709 396.392 Q195.787 391.786 201.598 391.786 Z" fill="#000000" fill-rule="evenodd" fill-opacity="1" /><path clip-path="url(#clip950)" d="M127.2 189.254 Q123.589 189.254 121.76 192.818 Q119.955 196.36 119.955 203.49 Q119.955 210.596 121.76 214.161 Q123.589 217.703 127.2 217.703 Q130.834 217.703 132.64 214.161 Q134.468 210.596 134.468 203.49 Q134.468 196.36 132.64 192.818 Q130.834 189.254 127.2 189.254 M127.2 185.55 Q133.01 185.55 136.066 190.156 Q139.144 194.74 139.144 203.49 Q139.144 212.216 136.066 216.823 Q133.01 221.406 127.2 221.406 Q121.39 221.406 118.311 216.823 Q115.256 212.216 115.256 203.49 Q115.256 194.74 118.311 190.156 Q121.39 185.55 127.2 185.55 Z" fill="#000000" fill-rule="evenodd" fill-opacity="1" /><path clip-path="url(#clip950)" d="M147.362 214.855 L152.246 214.855 L152.246 220.735 L147.362 220.735 L147.362 214.855 Z" fill="#000000" fill-rule="evenodd" fill-opacity="1" /><path clip-path="url(#clip950)" d="M173.01 201.591 Q169.862 201.591 168.01 203.744 Q166.181 205.897 166.181 209.647 Q166.181 213.374 168.01 215.55 Q169.862 217.703 173.01 217.703 Q176.158 217.703 177.987 215.55 Q179.839 213.374 179.839 209.647 Q179.839 205.897 177.987 203.744 Q176.158 201.591 173.01 201.591 M182.292 186.939 L182.292 191.198 Q180.533 190.365 178.727 189.925 Q176.945 189.485 175.186 189.485 Q170.556 189.485 168.102 192.61 Q165.672 195.735 165.325 202.054 Q166.69 200.041 168.751 198.976 Q170.811 197.888 173.288 197.888 Q178.496 197.888 181.505 201.059 Q184.538 204.207 184.538 209.647 Q184.538 214.971 181.389 218.189 Q178.241 221.406 173.01 221.406 Q167.015 221.406 163.843 216.823 Q160.672 212.216 160.672 203.49 Q160.672 195.295 164.561 190.434 Q168.45 185.55 175.001 185.55 Q176.76 185.55 178.542 185.897 Q180.348 186.244 182.292 186.939 Z" fill="#000000" fill-rule="evenodd" fill-opacity="1" /><path clip-path="url(#clip950)" d="M192.639 186.175 L210.996 186.175 L210.996 190.11 L196.922 190.11 L196.922 198.582 Q197.94 198.235 198.959 198.073 Q199.977 197.888 200.996 197.888 Q206.783 197.888 210.162 201.059 Q213.542 204.23 213.542 209.647 Q213.542 215.226 210.07 218.328 Q206.598 221.406 200.278 221.406 Q198.102 221.406 195.834 221.036 Q193.588 220.665 191.181 219.925 L191.181 215.226 Q193.264 216.36 195.487 216.915 Q197.709 217.471 200.186 217.471 Q204.19 217.471 206.528 215.365 Q208.866 213.258 208.866 209.647 Q208.866 206.036 206.528 203.929 Q204.19 201.823 200.186 201.823 Q198.311 201.823 196.436 202.24 Q194.584 202.656 192.639 203.536 L192.639 186.175 Z" fill="#000000" fill-rule="evenodd" fill-opacity="1" /><path clip-path="url(#clip950)" d="M16.4842 831.175 L16.4842 824.746 L36.568 824.746 L16.4842 803.421 L16.4842 795.145 L38.6368 818.73 L64.0042 793.458 L64.0042 801.925 L41.1194 824.746 L64.0042 824.746 L64.0042 831.175 L16.4842 831.175 Z" fill="#000000" fill-rule="evenodd" fill-opacity="1" /><path clip-path="url(#clip950)" d="M46.0847 773.629 Q46.0847 780.727 47.7079 783.464 Q49.3312 786.201 53.2461 786.201 Q56.3653 786.201 58.2114 784.164 Q60.0256 782.095 60.0256 778.562 Q60.0256 773.693 56.5881 770.764 Q53.1188 767.804 47.3897 767.804 L46.0847 767.804 L46.0847 773.629 M43.6657 761.948 L64.0042 761.948 L64.0042 767.804 L58.5933 767.804 Q61.8398 769.81 63.3994 772.801 Q64.9272 775.793 64.9272 780.122 Q64.9272 785.597 61.8716 788.843 Q58.7843 792.058 53.6281 792.058 Q47.6125 792.058 44.5569 788.047 Q41.5014 784.005 41.5014 776.016 L41.5014 767.804 L40.9285 767.804 Q36.8862 767.804 34.6901 770.478 Q32.4621 773.12 32.4621 777.926 Q32.4621 780.981 33.1941 783.878 Q33.9262 786.774 35.3903 789.448 L29.9795 789.448 Q28.7381 786.233 28.1334 783.209 Q27.4968 780.186 27.4968 777.321 Q27.4968 769.587 31.5072 765.767 Q35.5176 761.948 43.6657 761.948 Z" fill="#000000" fill-rule="evenodd" fill-opacity="1" /><path clip-path="url(#clip950)" d="M58.657 744.219 L77.5631 744.219 L77.5631 750.108 L28.3562 750.108 L28.3562 744.219 L33.7671 744.219 Q30.5842 742.373 29.0564 739.572 Q27.4968 736.74 27.4968 732.825 Q27.4968 726.332 32.6531 722.29 Q37.8093 718.216 46.212 718.216 Q54.6147 718.216 59.771 722.29 Q64.9272 726.332 64.9272 732.825 Q64.9272 736.74 63.3994 739.572 Q61.8398 742.373 58.657 744.219 M46.212 724.295 Q39.7508 724.295 36.0905 726.968 Q32.3984 729.61 32.3984 734.257 Q32.3984 738.904 36.0905 741.578 Q39.7508 744.219 46.212 744.219 Q52.6732 744.219 56.3653 741.578 Q60.0256 738.904 60.0256 734.257 Q60.0256 729.61 56.3653 726.968 Q52.6732 724.295 46.212 724.295 Z" fill="#000000" fill-rule="evenodd" fill-opacity="1" /><path clip-path="url(#clip950)" d="M58.657 702.842 L77.5631 702.842 L77.5631 708.731 L28.3562 708.731 L28.3562 702.842 L33.7671 702.842 Q30.5842 700.996 29.0564 698.195 Q27.4968 695.363 27.4968 691.448 Q27.4968 684.955 32.6531 680.912 Q37.8093 676.838 46.212 676.838 Q54.6147 676.838 59.771 680.912 Q64.9272 684.955 64.9272 691.448 Q64.9272 695.363 63.3994 698.195 Q61.8398 700.996 58.657 702.842 M46.212 682.918 Q39.7508 682.918 36.0905 685.591 Q32.3984 688.233 32.3984 692.88 Q32.3984 697.527 36.0905 700.201 Q39.7508 702.842 46.212 702.842 Q52.6732 702.842 56.3653 700.201 Q60.0256 697.527 60.0256 692.88 Q60.0256 688.233 56.3653 685.591 Q52.6732 682.918 46.212 682.918 Z" fill="#000000" fill-rule="evenodd" fill-opacity="1" /><path clip-path="url(#clip950)" d="M46.0847 650.93 Q46.0847 658.028 47.7079 660.765 Q49.3312 663.502 53.2461 663.502 Q56.3653 663.502 58.2114 661.465 Q60.0256 659.396 60.0256 655.863 Q60.0256 650.994 56.5881 648.065 Q53.1188 645.105 47.3897 645.105 L46.0847 645.105 L46.0847 650.93 M43.6657 639.249 L64.0042 639.249 L64.0042 645.105 L58.5933 645.105 Q61.8398 647.111 63.3994 650.102 Q64.9272 653.094 64.9272 657.423 Q64.9272 662.898 61.8716 666.144 Q58.7843 669.359 53.6281 669.359 Q47.6125 669.359 44.5569 665.348 Q41.5014 661.306 41.5014 653.317 L41.5014 645.105 L40.9285 645.105 Q36.8862 645.105 34.6901 647.779 Q32.4621 650.421 32.4621 655.227 Q32.4621 658.282 33.1941 661.179 Q33.9262 664.075 35.3903 666.749 L29.9795 666.749 Q28.7381 663.534 28.1334 660.51 Q27.4968 657.487 27.4968 654.622 Q27.4968 646.888 31.5072 643.068 Q35.5176 639.249 43.6657 639.249 Z" fill="#000000" fill-rule="evenodd" fill-opacity="1" /><circle clip-path="url(#clip952)" cx="1034.76" cy="1079.65" r="14" fill="#009af9" fill-rule="evenodd" fill-opacity="1" stroke="#000000" stroke-opacity="1" stroke-width="3.2"/>
<path clip-path="url(#clip950)" d="M988.411 1034.72 L993.087 1034.72 L993.087 1049.33 L1008.6 1034.72 L1014.61 1034.72 L997.462 1050.83 L1015.84 1069.28 L1009.68 1069.28 L993.087 1052.64 L993.087 1069.28 L988.411 1069.28 L988.411 1034.72 Z" fill="#000000" fill-rule="evenodd" fill-opacity="1" /><path clip-path="url(#clip950)" d="M1019.5 1034.72 L1025.79 1034.72 L1041.12 1063.63 L1041.12 1034.72 L1045.66 1034.72 L1045.66 1069.28 L1039.36 1069.28 L1024.04 1040.37 L1024.04 1069.28 L1019.5 1069.28 L1019.5 1034.72 Z" fill="#000000" fill-rule="evenodd" fill-opacity="1" /><path clip-path="url(#clip950)" d="M1054.96 1034.72 L1061.26 1034.72 L1076.58 1063.63 L1076.58 1034.72 L1081.12 1034.72 L1081.12 1069.28 L1074.82 1069.28 L1059.5 1040.37 L1059.5 1069.28 L1054.96 1069.28 L1054.96 1034.72 Z" fill="#000000" fill-rule="evenodd" fill-opacity="1" /><circle clip-path="url(#clip952)" cx="1185.21" cy="1056.38" r="14" fill="#e26f46" fill-rule="evenodd" fill-opacity="1" stroke="#000000" stroke-opacity="1" stroke-width="3.2"/>
<path clip-path="url(#clip950)" d="M1060.6 1011.45 L1065.27 1011.45 L1065.27 1026.06 L1080.78 1011.45 L1086.8 1011.45 L1069.65 1027.56 L1088.03 1046.01 L1081.87 1046.01 L1065.27 1029.37 L1065.27 1046.01 L1060.6 1046.01 L1060.6 1011.45 Z" fill="#000000" fill-rule="evenodd" fill-opacity="1" /><path clip-path="url(#clip950)" d="M1091.68 1011.45 L1097.98 1011.45 L1113.31 1040.36 L1113.31 1011.45 L1117.84 1011.45 L1117.84 1046.01 L1111.55 1046.01 L1096.22 1017.1 L1096.22 1046.01 L1091.68 1046.01 L1091.68 1011.45 Z" fill="#000000" fill-rule="evenodd" fill-opacity="1" /><path clip-path="url(#clip950)" d="M1127.15 1011.45 L1133.44 1011.45 L1148.77 1040.36 L1148.77 1011.45 L1153.3 1011.45 L1153.3 1046.01 L1147.01 1046.01 L1131.68 1017.1 L1131.68 1046.01 L1127.15 1046.01 L1127.15 1011.45 Z" fill="#000000" fill-rule="evenodd" fill-opacity="1" /><path clip-path="url(#clip950)" d="M1172.89 1011.45 L1202.12 1011.45 L1202.12 1015.39 L1189.86 1015.39 L1189.86 1046.01 L1185.16 1046.01 L1185.16 1015.39 L1172.89 1015.39 L1172.89 1011.45 Z" fill="#000000" fill-rule="evenodd" fill-opacity="1" /><path clip-path="url(#clip950)" d="M1198.81 1035.78 L1198.81 1020.08 L1203.07 1020.08 L1203.07 1035.62 Q1203.07 1039.3 1204.51 1041.15 Q1205.94 1042.98 1208.81 1042.98 Q1212.26 1042.98 1214.25 1040.78 Q1216.27 1038.58 1216.27 1034.78 L1216.27 1020.08 L1220.53 1020.08 L1220.53 1046.01 L1216.27 1046.01 L1216.27 1042.03 Q1214.72 1044.39 1212.66 1045.55 Q1210.62 1046.68 1207.91 1046.68 Q1203.44 1046.68 1201.13 1043.9 Q1198.81 1041.13 1198.81 1035.78 M1209.53 1019.46 L1209.53 1019.46 Z" fill="#000000" fill-rule="evenodd" fill-opacity="1" /><path clip-path="url(#clip950)" d="M1250.85 1030.36 L1250.85 1046.01 L1246.59 1046.01 L1246.59 1030.5 Q1246.59 1026.82 1245.16 1024.99 Q1243.72 1023.16 1240.85 1023.16 Q1237.4 1023.16 1235.41 1025.36 Q1233.42 1027.56 1233.42 1031.36 L1233.42 1046.01 L1229.14 1046.01 L1229.14 1020.08 L1233.42 1020.08 L1233.42 1024.11 Q1234.95 1021.77 1237.01 1020.62 Q1239.09 1019.46 1241.8 1019.46 Q1246.27 1019.46 1248.56 1022.24 Q1250.85 1024.99 1250.85 1030.36 Z" fill="#000000" fill-rule="evenodd" fill-opacity="1" /><path clip-path="url(#clip950)" d="M1281.52 1031.98 L1281.52 1034.07 L1261.94 1034.07 Q1262.22 1038.46 1264.58 1040.78 Q1266.96 1043.07 1271.2 1043.07 Q1273.65 1043.07 1275.94 1042.47 Q1278.26 1041.87 1280.53 1040.66 L1280.53 1044.69 Q1278.23 1045.66 1275.83 1046.17 Q1273.42 1046.68 1270.94 1046.68 Q1264.74 1046.68 1261.11 1043.07 Q1257.49 1039.46 1257.49 1033.3 Q1257.49 1026.94 1260.92 1023.21 Q1264.37 1019.46 1270.2 1019.46 Q1275.43 1019.46 1278.47 1022.84 Q1281.52 1026.2 1281.52 1031.98 M1277.26 1030.73 Q1277.22 1027.24 1275.29 1025.15 Q1273.4 1023.07 1270.25 1023.07 Q1266.68 1023.07 1264.53 1025.08 Q1262.4 1027.1 1262.08 1030.76 L1277.26 1030.73 Z" fill="#000000" fill-rule="evenodd" fill-opacity="1" /><path clip-path="url(#clip950)" d="M1305.57 1024.02 L1305.57 1009.99 L1309.83 1009.99 L1309.83 1046.01 L1305.57 1046.01 L1305.57 1042.12 Q1304.23 1044.44 1302.17 1045.57 Q1300.13 1046.68 1297.26 1046.68 Q1292.56 1046.68 1289.6 1042.93 Q1286.66 1039.18 1286.66 1033.07 Q1286.66 1026.96 1289.6 1023.21 Q1292.56 1019.46 1297.26 1019.46 Q1300.13 1019.46 1302.17 1020.59 Q1304.23 1021.7 1305.57 1024.02 M1291.06 1033.07 Q1291.06 1037.77 1292.98 1040.45 Q1294.92 1043.12 1298.3 1043.12 Q1301.68 1043.12 1303.63 1040.45 Q1305.57 1037.77 1305.57 1033.07 Q1305.57 1028.37 1303.63 1025.71 Q1301.68 1023.02 1298.3 1023.02 Q1294.92 1023.02 1292.98 1025.71 Q1291.06 1028.37 1291.06 1033.07 Z" fill="#000000" fill-rule="evenodd" fill-opacity="1" /><circle clip-path="url(#clip952)" cx="1473.72" cy="995.291" r="14" fill="#3da44d" fill-rule="evenodd" fill-opacity="1" stroke="#000000" stroke-opacity="1" stroke-width="3.2"/>
<path clip-path="url(#clip950)" d="M1444.71 950.363 L1449.38 950.363 L1449.38 980.987 L1466.21 980.987 L1466.21 984.923 L1444.71 984.923 L1444.71 950.363 Z" fill="#000000" fill-rule="evenodd" fill-opacity="1" /><path clip-path="url(#clip950)" d="M1471.12 950.363 L1478.09 950.363 L1486.91 973.881 L1495.77 950.363 L1502.74 950.363 L1502.74 984.923 L1498.18 984.923 L1498.18 954.575 L1489.27 978.279 L1484.57 978.279 L1475.66 954.575 L1475.66 984.923 L1471.12 984.923 L1471.12 950.363 Z" fill="#000000" fill-rule="evenodd" fill-opacity="1" /><circle clip-path="url(#clip952)" cx="309.067" cy="1384.24" r="14" fill="#c271d2" fill-rule="evenodd" fill-opacity="1" stroke="#000000" stroke-opacity="1" stroke-width="3.2"/>
<path clip-path="url(#clip950)" d="M201.799 1339.31 L206.475 1339.31 L206.475 1369.94 L223.304 1369.94 L223.304 1373.87 L201.799 1373.87 L201.799 1339.31 Z" fill="#000000" fill-rule="evenodd" fill-opacity="1" /><path clip-path="url(#clip950)" d="M228.211 1339.31 L235.178 1339.31 L243.998 1362.83 L252.864 1339.31 L259.831 1339.31 L259.831 1373.87 L255.271 1373.87 L255.271 1343.52 L246.359 1367.23 L241.66 1367.23 L232.748 1343.52 L232.748 1373.87 L228.211 1373.87 L228.211 1339.31 Z" fill="#000000" fill-rule="evenodd" fill-opacity="1" /><path clip-path="url(#clip950)" d="M279.391 1339.31 L308.627 1339.31 L308.627 1343.25 L296.359 1343.25 L296.359 1373.87 L291.66 1373.87 L291.66 1343.25 L279.391 1343.25 L279.391 1339.31 Z" fill="#000000" fill-rule="evenodd" fill-opacity="1" /><path clip-path="url(#clip950)" d="M305.317 1363.64 L305.317 1347.94 L309.576 1347.94 L309.576 1363.48 Q309.576 1367.16 311.011 1369.01 Q312.447 1370.84 315.317 1370.84 Q318.766 1370.84 320.757 1368.64 Q322.771 1366.44 322.771 1362.64 L322.771 1347.94 L327.03 1347.94 L327.03 1373.87 L322.771 1373.87 L322.771 1369.89 Q321.22 1372.25 319.159 1373.41 Q317.122 1374.54 314.414 1374.54 Q309.947 1374.54 307.632 1371.76 Q305.317 1368.99 305.317 1363.64 M316.035 1347.32 L316.035 1347.32 Z" fill="#000000" fill-rule="evenodd" fill-opacity="1" /><path clip-path="url(#clip950)" d="M357.354 1358.22 L357.354 1373.87 L353.094 1373.87 L353.094 1358.36 Q353.094 1354.68 351.659 1352.85 Q350.224 1351.02 347.354 1351.02 Q343.905 1351.02 341.914 1353.22 Q339.923 1355.42 339.923 1359.22 L339.923 1373.87 L335.641 1373.87 L335.641 1347.94 L339.923 1347.94 L339.923 1351.97 Q341.451 1349.63 343.511 1348.48 Q345.595 1347.32 348.303 1347.32 Q352.77 1347.32 355.062 1350.1 Q357.354 1352.85 357.354 1358.22 Z" fill="#000000" fill-rule="evenodd" fill-opacity="1" /><path clip-path="url(#clip950)" d="M388.025 1359.84 L388.025 1361.93 L368.442 1361.93 Q368.719 1366.32 371.081 1368.64 Q373.465 1370.93 377.701 1370.93 Q380.155 1370.93 382.446 1370.33 Q384.761 1369.73 387.029 1368.52 L387.029 1372.55 Q384.738 1373.52 382.33 1374.03 Q379.923 1374.54 377.446 1374.54 Q371.243 1374.54 367.608 1370.93 Q363.997 1367.32 363.997 1361.16 Q363.997 1354.8 367.423 1351.07 Q370.872 1347.32 376.705 1347.32 Q381.937 1347.32 384.969 1350.7 Q388.025 1354.06 388.025 1359.84 M383.766 1358.59 Q383.719 1355.1 381.798 1353.01 Q379.9 1350.93 376.752 1350.93 Q373.187 1350.93 371.034 1352.94 Q368.905 1354.96 368.581 1358.62 L383.766 1358.59 Z" fill="#000000" fill-rule="evenodd" fill-opacity="1" /><path clip-path="url(#clip950)" d="M412.076 1351.88 L412.076 1337.85 L416.335 1337.85 L416.335 1373.87 L412.076 1373.87 L412.076 1369.98 Q410.733 1372.3 408.673 1373.43 Q406.636 1374.54 403.766 1374.54 Q399.066 1374.54 396.104 1370.79 Q393.164 1367.04 393.164 1360.93 Q393.164 1354.82 396.104 1351.07 Q399.066 1347.32 403.766 1347.32 Q406.636 1347.32 408.673 1348.45 Q410.733 1349.56 412.076 1351.88 M397.562 1360.93 Q397.562 1365.63 399.483 1368.31 Q401.428 1370.98 404.807 1370.98 Q408.187 1370.98 410.131 1368.31 Q412.076 1365.63 412.076 1360.93 Q412.076 1356.23 410.131 1353.57 Q408.187 1350.88 404.807 1350.88 Q401.428 1350.88 399.483 1353.57 Q397.562 1356.23 397.562 1360.93 Z" fill="#000000" fill-rule="evenodd" fill-opacity="1" /><circle clip-path="url(#clip952)" cx="1535.67" cy="736.229" r="14" fill="#ac8d18" fill-rule="evenodd" fill-opacity="1" stroke="#000000" stroke-opacity="1" stroke-width="3.2"/>
<path clip-path="url(#clip950)" d="M1525.66 709.657 Q1527.17 710.166 1528.58 711.833 Q1530.01 713.5 1531.45 716.416 L1536.19 725.861 L1531.17 725.861 L1526.75 716.995 Q1525.04 713.523 1523.42 712.389 Q1521.82 711.254 1519.04 711.254 L1513.95 711.254 L1513.95 725.861 L1509.27 725.861 L1509.27 691.301 L1519.83 691.301 Q1525.75 691.301 1528.67 693.778 Q1531.59 696.254 1531.59 701.254 Q1531.59 704.518 1530.06 706.671 Q1528.56 708.824 1525.66 709.657 M1513.95 695.143 L1513.95 707.412 L1519.83 707.412 Q1523.21 707.412 1524.92 705.861 Q1526.66 704.287 1526.66 701.254 Q1526.66 698.222 1524.92 696.694 Q1523.21 695.143 1519.83 695.143 L1513.95 695.143 Z" fill="#000000" fill-rule="evenodd" fill-opacity="1" /><path clip-path="url(#clip950)" d="M1542.21 691.301 L1562.07 691.301 L1562.07 695.236 L1546.89 695.236 L1546.89 705.421 L1560.59 705.421 L1560.59 709.356 L1546.89 709.356 L1546.89 725.861 L1542.21 725.861 L1542.21 691.301 Z" fill="#000000" fill-rule="evenodd" fill-opacity="1" /><circle clip-path="url(#clip952)" cx="1781.7" cy="299.231" r="14" fill="#00a9ad" fill-rule="evenodd" fill-opacity="1" stroke="#000000" stroke-opacity="1" stroke-width="3.2"/>
<path clip-path="url(#clip950)" d="M1713.25 255.437 L1713.25 259.997 Q1710.59 258.724 1708.23 258.099 Q1705.87 257.474 1703.67 257.474 Q1699.85 257.474 1697.77 258.956 Q1695.71 260.437 1695.71 263.169 Q1695.71 265.46 1697.07 266.641 Q1698.46 267.798 1702.3 268.516 L1705.13 269.095 Q1710.36 270.09 1712.84 272.613 Q1715.34 275.113 1715.34 279.326 Q1715.34 284.349 1711.96 286.942 Q1708.6 289.534 1702.1 289.534 Q1699.64 289.534 1696.87 288.979 Q1694.11 288.423 1691.15 287.335 L1691.15 282.52 Q1693.99 284.118 1696.73 284.928 Q1699.46 285.738 1702.1 285.738 Q1706.1 285.738 1708.28 284.164 Q1710.45 282.59 1710.45 279.673 Q1710.45 277.127 1708.88 275.692 Q1707.33 274.257 1703.76 273.539 L1700.92 272.983 Q1695.68 271.942 1693.35 269.72 Q1691.01 267.497 1691.01 263.539 Q1691.01 258.956 1694.23 256.317 Q1697.47 253.678 1703.14 253.678 Q1705.57 253.678 1708.09 254.118 Q1710.62 254.558 1713.25 255.437 Z" fill="#000000" fill-rule="evenodd" fill-opacity="1" /><path clip-path="url(#clip950)" d="M1726.66 255.576 L1726.66 262.937 L1735.43 262.937 L1735.43 266.247 L1726.66 266.247 L1726.66 280.321 Q1726.66 283.493 1727.51 284.395 Q1728.39 285.298 1731.05 285.298 L1735.43 285.298 L1735.43 288.863 L1731.05 288.863 Q1726.12 288.863 1724.25 287.034 Q1722.37 285.182 1722.37 280.321 L1722.37 266.247 L1719.25 266.247 L1719.25 262.937 L1722.37 262.937 L1722.37 255.576 L1726.66 255.576 Z" fill="#000000" fill-rule="evenodd" fill-opacity="1" /><path clip-path="url(#clip950)" d="M1752.81 275.831 Q1747.65 275.831 1745.66 277.011 Q1743.67 278.192 1743.67 281.039 Q1743.67 283.307 1745.15 284.65 Q1746.66 285.97 1749.23 285.97 Q1752.77 285.97 1754.9 283.47 Q1757.05 280.946 1757.05 276.78 L1757.05 275.831 L1752.81 275.831 M1761.31 274.071 L1761.31 288.863 L1757.05 288.863 L1757.05 284.928 Q1755.59 287.289 1753.42 288.423 Q1751.24 289.534 1748.09 289.534 Q1744.11 289.534 1741.75 287.312 Q1739.41 285.067 1739.41 281.317 Q1739.41 276.942 1742.33 274.72 Q1745.27 272.497 1751.08 272.497 L1757.05 272.497 L1757.05 272.081 Q1757.05 269.141 1755.11 267.544 Q1753.18 265.923 1749.69 265.923 Q1747.47 265.923 1745.36 266.456 Q1743.25 266.988 1741.31 268.053 L1741.31 264.118 Q1743.65 263.215 1745.85 262.775 Q1748.05 262.312 1750.13 262.312 Q1755.75 262.312 1758.53 265.229 Q1761.31 268.146 1761.31 274.071 Z" fill="#000000" fill-rule="evenodd" fill-opacity="1" /><path clip-path="url(#clip950)" d="M1788.74 263.933 L1788.74 267.914 Q1786.93 266.919 1785.11 266.433 Q1783.3 265.923 1781.45 265.923 Q1777.3 265.923 1775.01 268.562 Q1772.72 271.178 1772.72 275.923 Q1772.72 280.669 1775.01 283.307 Q1777.3 285.923 1781.45 285.923 Q1783.3 285.923 1785.11 285.437 Q1786.93 284.928 1788.74 283.932 L1788.74 287.868 Q1786.96 288.701 1785.04 289.118 Q1783.14 289.534 1780.99 289.534 Q1775.13 289.534 1771.68 285.854 Q1768.23 282.173 1768.23 275.923 Q1768.23 269.581 1771.7 265.946 Q1775.2 262.312 1781.26 262.312 Q1783.23 262.312 1785.11 262.729 Q1786.98 263.122 1788.74 263.933 Z" fill="#000000" fill-rule="evenodd" fill-opacity="1" /><path clip-path="url(#clip950)" d="M1795.99 252.845 L1800.27 252.845 L1800.27 274.118 L1812.98 262.937 L1818.42 262.937 L1804.67 275.067 L1818.99 288.863 L1813.44 288.863 L1800.27 276.201 L1800.27 288.863 L1795.99 288.863 L1795.99 252.845 Z" fill="#000000" fill-rule="evenodd" fill-opacity="1" /><path clip-path="url(#clip950)" d="M1844.09 274.835 L1844.09 276.919 L1824.5 276.919 Q1824.78 281.317 1827.14 283.632 Q1829.53 285.923 1833.76 285.923 Q1836.22 285.923 1838.51 285.321 Q1840.82 284.72 1843.09 283.516 L1843.09 287.544 Q1840.8 288.516 1838.39 289.025 Q1835.98 289.534 1833.51 289.534 Q1827.3 289.534 1823.67 285.923 Q1820.06 282.312 1820.06 276.155 Q1820.06 269.789 1823.48 266.062 Q1826.93 262.312 1832.77 262.312 Q1838 262.312 1841.03 265.692 Q1844.09 269.048 1844.09 274.835 M1839.83 273.585 Q1839.78 270.09 1837.86 268.007 Q1835.96 265.923 1832.81 265.923 Q1829.25 265.923 1827.1 267.937 Q1824.97 269.951 1824.64 273.608 L1839.83 273.585 Z" fill="#000000" fill-rule="evenodd" fill-opacity="1" /><path clip-path="url(#clip950)" d="M1868.14 266.872 L1868.14 252.845 L1872.4 252.845 L1872.4 288.863 L1868.14 288.863 L1868.14 284.974 Q1866.79 287.289 1864.73 288.423 Q1862.7 289.534 1859.83 289.534 Q1855.13 289.534 1852.17 285.784 Q1849.23 282.034 1849.23 275.923 Q1849.23 269.812 1852.17 266.062 Q1855.13 262.312 1859.83 262.312 Q1862.7 262.312 1864.73 263.446 Q1866.79 264.558 1868.14 266.872 M1853.62 275.923 Q1853.62 280.622 1855.54 283.307 Q1857.49 285.97 1860.87 285.97 Q1864.25 285.97 1866.19 283.307 Q1868.14 280.622 1868.14 275.923 Q1868.14 271.224 1866.19 268.562 Q1864.25 265.877 1860.87 265.877 Q1857.49 265.877 1855.54 268.562 Q1853.62 271.224 1853.62 275.923 Z" fill="#000000" fill-rule="evenodd" fill-opacity="1" /><circle clip-path="url(#clip952)" cx="2293.23" cy="86.1857" r="14" fill="#ed5d92" fill-rule="evenodd" fill-opacity="1" stroke="#000000" stroke-opacity="1" stroke-width="3.2"/>
<path clip-path="url(#clip950)" d="M2194.56 41.2577 L2199.59 41.2577 L2208.17 54.1048 L2216.81 41.2577 L2221.83 41.2577 L2210.72 57.8548 L2222.57 75.8177 L2217.55 75.8177 L2207.83 61.1187 L2198.03 75.8177 L2192.99 75.8177 L2205.33 57.3687 L2194.56 41.2577 Z" fill="#000000" fill-rule="evenodd" fill-opacity="1" /><path clip-path="url(#clip950)" d="M2252.27 70.8871 L2252.27 61.6048 L2244.63 61.6048 L2244.63 57.7622 L2256.9 57.7622 L2256.9 72.6001 Q2254.19 74.5214 2250.93 75.5167 Q2247.66 76.489 2243.96 76.489 Q2235.86 76.489 2231.28 71.7668 Q2226.72 67.0214 2226.72 58.5724 Q2226.72 50.1002 2231.28 45.378 Q2235.86 40.6327 2243.96 40.6327 Q2247.34 40.6327 2250.37 41.466 Q2253.43 42.2993 2256 43.9197 L2256 48.8965 Q2253.4 46.6975 2250.49 45.5864 Q2247.57 44.4752 2244.35 44.4752 Q2238.01 44.4752 2234.82 48.0169 Q2231.65 51.5585 2231.65 58.5724 Q2231.65 65.5631 2234.82 69.1047 Q2238.01 72.6464 2244.35 72.6464 Q2246.83 72.6464 2248.78 72.2297 Q2250.72 71.7899 2252.27 70.8871 Z" fill="#000000" fill-rule="evenodd" fill-opacity="1" /><path clip-path="url(#clip950)" d="M2270.12 59.3131 L2270.12 71.9751 L2277.62 71.9751 Q2281.39 71.9751 2283.2 70.4242 Q2285.03 68.8501 2285.03 65.6325 Q2285.03 62.3918 2283.2 60.864 Q2281.39 59.3131 2277.62 59.3131 L2270.12 59.3131 M2270.12 45.1002 L2270.12 55.5169 L2277.04 55.5169 Q2280.46 55.5169 2282.13 54.2437 Q2283.82 52.9474 2283.82 50.3085 Q2283.82 47.6928 2282.13 46.3965 Q2280.46 45.1002 2277.04 45.1002 L2270.12 45.1002 M2265.44 41.2577 L2277.39 41.2577 Q2282.73 41.2577 2285.63 43.4799 Q2288.52 45.7021 2288.52 49.7993 Q2288.52 52.9706 2287.04 54.8456 Q2285.56 56.7206 2282.69 57.1835 Q2286.14 57.9242 2288.03 60.2853 Q2289.96 62.6233 2289.96 66.1418 Q2289.96 70.7714 2286.81 73.2945 Q2283.66 75.8177 2277.85 75.8177 L2265.44 75.8177 L2265.44 41.2577 Z" fill="#000000" fill-rule="evenodd" fill-opacity="1" /><path clip-path="url(#clip950)" d="M2307.83 52.878 Q2304.4 52.878 2302.41 55.5632 Q2300.42 58.2252 2300.42 62.8779 Q2300.42 67.5307 2302.39 70.2159 Q2304.38 72.8779 2307.83 72.8779 Q2311.23 72.8779 2313.22 70.1927 Q2315.21 67.5075 2315.21 62.8779 Q2315.21 58.2715 2313.22 55.5863 Q2311.23 52.878 2307.83 52.878 M2307.83 49.2669 Q2313.38 49.2669 2316.55 52.878 Q2319.72 56.4891 2319.72 62.8779 Q2319.72 69.2436 2316.55 72.8779 Q2313.38 76.489 2307.83 76.489 Q2302.25 76.489 2299.08 72.8779 Q2295.93 69.2436 2295.93 62.8779 Q2295.93 56.4891 2299.08 52.878 Q2302.25 49.2669 2307.83 49.2669 Z" fill="#000000" fill-rule="evenodd" fill-opacity="1" /><path clip-path="url(#clip950)" d="M2336.83 52.878 Q2333.4 52.878 2331.41 55.5632 Q2329.42 58.2252 2329.42 62.8779 Q2329.42 67.5307 2331.39 70.2159 Q2333.38 72.8779 2336.83 72.8779 Q2340.23 72.8779 2342.22 70.1927 Q2344.21 67.5075 2344.21 62.8779 Q2344.21 58.2715 2342.22 55.5863 Q2340.23 52.878 2336.83 52.878 M2336.83 49.2669 Q2342.39 49.2669 2345.56 52.878 Q2348.73 56.4891 2348.73 62.8779 Q2348.73 69.2436 2345.56 72.8779 Q2342.39 76.489 2336.83 76.489 Q2331.25 76.489 2328.08 72.8779 Q2324.93 69.2436 2324.93 62.8779 Q2324.93 56.4891 2328.08 52.878 Q2331.25 49.2669 2336.83 49.2669 Z" fill="#000000" fill-rule="evenodd" fill-opacity="1" /><path clip-path="url(#clip950)" d="M2372.32 50.6558 L2372.32 54.6835 Q2370.51 53.7576 2368.57 53.2946 Q2366.62 52.8317 2364.54 52.8317 Q2361.37 52.8317 2359.77 53.8039 Q2358.2 54.7761 2358.2 56.7206 Q2358.2 58.202 2359.33 59.0585 Q2360.46 59.8918 2363.89 60.6557 L2365.35 60.9798 Q2369.89 61.952 2371.78 63.7344 Q2373.71 65.4937 2373.71 68.6649 Q2373.71 72.276 2370.83 74.3825 Q2367.99 76.489 2362.99 76.489 Q2360.9 76.489 2358.64 76.0723 Q2356.39 75.6788 2353.89 74.8686 L2353.89 70.4705 Q2356.25 71.6973 2358.54 72.3223 Q2360.83 72.9242 2363.08 72.9242 Q2366.09 72.9242 2367.71 71.9057 Q2369.33 70.864 2369.33 68.989 Q2369.33 67.2529 2368.15 66.327 Q2366.99 65.4011 2363.03 64.5446 L2361.55 64.1974 Q2357.59 63.364 2355.83 61.6511 Q2354.08 59.915 2354.08 56.9057 Q2354.08 53.2483 2356.67 51.2576 Q2359.26 49.2669 2364.03 49.2669 Q2366.39 49.2669 2368.47 49.6141 Q2370.56 49.9613 2372.32 50.6558 Z" fill="#000000" fill-rule="evenodd" fill-opacity="1" /><path clip-path="url(#clip950)" d="M2384.7 42.5308 L2384.7 49.8919 L2393.47 49.8919 L2393.47 53.2021 L2384.7 53.2021 L2384.7 67.2761 Q2384.7 70.4473 2385.56 71.3501 Q2386.44 72.2529 2389.1 72.2529 L2393.47 72.2529 L2393.47 75.8177 L2389.1 75.8177 Q2384.17 75.8177 2382.29 73.989 Q2380.42 72.1371 2380.42 67.2761 L2380.42 53.2021 L2377.29 53.2021 L2377.29 49.8919 L2380.42 49.8919 L2380.42 42.5308 L2384.7 42.5308 Z" fill="#000000" fill-rule="evenodd" fill-opacity="1" /><circle clip-path="url(#clip952)" cx="2206.5" cy="182.178" r="14" fill="#c68125" fill-rule="evenodd" fill-opacity="1" stroke="#000000" stroke-opacity="1" stroke-width="3.2"/>
<path clip-path="url(#clip950)" d="M2031.33 137.25 L2036.35 137.25 L2044.94 150.097 L2053.57 137.25 L2058.6 137.25 L2047.49 153.847 L2059.34 171.81 L2054.32 171.81 L2044.59 157.111 L2034.8 171.81 L2029.76 171.81 L2042.09 153.361 L2031.33 137.25 Z" fill="#000000" fill-rule="evenodd" fill-opacity="1" /><path clip-path="url(#clip950)" d="M2089.04 166.879 L2089.04 157.597 L2081.4 157.597 L2081.4 153.755 L2093.67 153.755 L2093.67 168.592 Q2090.96 170.514 2087.69 171.509 Q2084.43 172.481 2080.73 172.481 Q2072.63 172.481 2068.04 167.759 Q2063.48 163.014 2063.48 154.565 Q2063.48 146.093 2068.04 141.37 Q2072.63 136.625 2080.73 136.625 Q2084.11 136.625 2087.14 137.458 Q2090.19 138.292 2092.76 139.912 L2092.76 144.889 Q2090.17 142.69 2087.25 141.579 Q2084.34 140.468 2081.12 140.468 Q2074.78 140.468 2071.58 144.009 Q2068.41 147.551 2068.41 154.565 Q2068.41 161.555 2071.58 165.097 Q2074.78 168.639 2081.12 168.639 Q2083.6 168.639 2085.54 168.222 Q2087.49 167.782 2089.04 166.879 Z" fill="#000000" fill-rule="evenodd" fill-opacity="1" /><path clip-path="url(#clip950)" d="M2106.88 155.305 L2106.88 167.967 L2114.38 167.967 Q2118.16 167.967 2119.96 166.417 Q2121.79 164.842 2121.79 161.625 Q2121.79 158.384 2119.96 156.856 Q2118.16 155.305 2114.38 155.305 L2106.88 155.305 M2106.88 141.093 L2106.88 151.509 L2113.81 151.509 Q2117.23 151.509 2118.9 150.236 Q2120.59 148.94 2120.59 146.301 Q2120.59 143.685 2118.9 142.389 Q2117.23 141.093 2113.81 141.093 L2106.88 141.093 M2102.21 137.25 L2114.15 137.25 Q2119.5 137.25 2122.39 139.472 Q2125.29 141.694 2125.29 145.792 Q2125.29 148.963 2123.81 150.838 Q2122.32 152.713 2119.45 153.176 Q2122.9 153.917 2124.8 156.278 Q2126.72 158.616 2126.72 162.134 Q2126.72 166.764 2123.57 169.287 Q2120.43 171.81 2114.62 171.81 L2102.21 171.81 L2102.21 137.25 Z" fill="#000000" fill-rule="evenodd" fill-opacity="1" /><path clip-path="url(#clip950)" d="M2144.59 148.87 Q2141.17 148.87 2139.18 151.555 Q2137.19 154.218 2137.19 158.87 Q2137.19 163.523 2139.15 166.208 Q2141.14 168.87 2144.59 168.87 Q2148 168.87 2149.99 166.185 Q2151.98 163.5 2151.98 158.87 Q2151.98 154.264 2149.99 151.579 Q2148 148.87 2144.59 148.87 M2144.59 145.259 Q2150.15 145.259 2153.32 148.87 Q2156.49 152.481 2156.49 158.87 Q2156.49 165.236 2153.32 168.87 Q2150.15 172.481 2144.59 172.481 Q2139.01 172.481 2135.84 168.87 Q2132.69 165.236 2132.69 158.87 Q2132.69 152.481 2135.84 148.87 Q2139.01 145.259 2144.59 145.259 Z" fill="#000000" fill-rule="evenodd" fill-opacity="1" /><path clip-path="url(#clip950)" d="M2173.6 148.87 Q2170.17 148.87 2168.18 151.555 Q2166.19 154.218 2166.19 158.87 Q2166.19 163.523 2168.16 166.208 Q2170.15 168.87 2173.6 168.87 Q2177 168.87 2178.99 166.185 Q2180.98 163.5 2180.98 158.87 Q2180.98 154.264 2178.99 151.579 Q2177 148.87 2173.6 148.87 M2173.6 145.259 Q2179.15 145.259 2182.32 148.87 Q2185.49 152.481 2185.49 158.87 Q2185.49 165.236 2182.32 168.87 Q2179.15 172.481 2173.6 172.481 Q2168.02 172.481 2164.85 168.87 Q2161.7 165.236 2161.7 158.87 Q2161.7 152.481 2164.85 148.87 Q2168.02 145.259 2173.6 145.259 Z" fill="#000000" fill-rule="evenodd" fill-opacity="1" /><path clip-path="url(#clip950)" d="M2209.08 146.648 L2209.08 150.676 Q2207.28 149.75 2205.33 149.287 Q2203.39 148.824 2201.31 148.824 Q2198.13 148.824 2196.54 149.796 Q2194.96 150.768 2194.96 152.713 Q2194.96 154.194 2196.1 155.051 Q2197.23 155.884 2200.66 156.648 L2202.12 156.972 Q2206.65 157.944 2208.55 159.727 Q2210.47 161.486 2210.47 164.657 Q2210.47 168.268 2207.6 170.375 Q2204.75 172.481 2199.75 172.481 Q2197.67 172.481 2195.4 172.065 Q2193.16 171.671 2190.66 170.861 L2190.66 166.463 Q2193.02 167.69 2195.31 168.315 Q2197.6 168.917 2199.85 168.917 Q2202.86 168.917 2204.48 167.898 Q2206.1 166.856 2206.1 164.981 Q2206.1 163.245 2204.92 162.319 Q2203.76 161.393 2199.8 160.537 L2198.32 160.19 Q2194.36 159.356 2192.6 157.643 Q2190.84 155.907 2190.84 152.898 Q2190.84 149.241 2193.43 147.25 Q2196.03 145.259 2200.8 145.259 Q2203.16 145.259 2205.24 145.606 Q2207.32 145.954 2209.08 146.648 Z" fill="#000000" fill-rule="evenodd" fill-opacity="1" /><path clip-path="url(#clip950)" d="M2221.47 138.523 L2221.47 145.884 L2230.24 145.884 L2230.24 149.194 L2221.47 149.194 L2221.47 163.268 Q2221.47 166.44 2222.32 167.342 Q2223.2 168.245 2225.87 168.245 L2230.24 168.245 L2230.24 171.81 L2225.87 171.81 Q2220.93 171.81 2219.06 169.981 Q2217.18 168.129 2217.18 163.268 L2217.18 149.194 L2214.06 149.194 L2214.06 145.884 L2217.18 145.884 L2217.18 138.523 L2221.47 138.523 Z" fill="#000000" fill-rule="evenodd" fill-opacity="1" /><path clip-path="url(#clip950)" d="M2246.3 137.25 L2275.54 137.25 L2275.54 141.185 L2263.27 141.185 L2263.27 171.81 L2258.57 171.81 L2258.57 141.185 L2246.3 141.185 L2246.3 137.25 Z" fill="#000000" fill-rule="evenodd" fill-opacity="1" /><path clip-path="url(#clip950)" d="M2272.23 161.579 L2272.23 145.884 L2276.49 145.884 L2276.49 161.417 Q2276.49 165.097 2277.93 166.949 Q2279.36 168.778 2282.23 168.778 Q2285.68 168.778 2287.67 166.579 Q2289.68 164.379 2289.68 160.583 L2289.68 145.884 L2293.94 145.884 L2293.94 171.81 L2289.68 171.81 L2289.68 167.829 Q2288.13 170.19 2286.07 171.347 Q2284.04 172.481 2281.33 172.481 Q2276.86 172.481 2274.55 169.704 Q2272.23 166.926 2272.23 161.579 M2282.95 145.259 L2282.95 145.259 Z" fill="#000000" fill-rule="evenodd" fill-opacity="1" /><path clip-path="url(#clip950)" d="M2324.27 156.162 L2324.27 171.81 L2320.01 171.81 L2320.01 156.301 Q2320.01 152.62 2318.57 150.792 Q2317.14 148.963 2314.27 148.963 Q2310.82 148.963 2308.83 151.162 Q2306.84 153.361 2306.84 157.157 L2306.84 171.81 L2302.55 171.81 L2302.55 145.884 L2306.84 145.884 L2306.84 149.912 Q2308.36 147.574 2310.42 146.417 Q2312.51 145.259 2315.22 145.259 Q2319.68 145.259 2321.98 148.037 Q2324.27 150.792 2324.27 156.162 Z" fill="#000000" fill-rule="evenodd" fill-opacity="1" /><path clip-path="url(#clip950)" d="M2354.94 157.782 L2354.94 159.866 L2335.36 159.866 Q2335.63 164.264 2337.99 166.579 Q2340.38 168.87 2344.61 168.87 Q2347.07 168.87 2349.36 168.268 Q2351.67 167.667 2353.94 166.463 L2353.94 170.491 Q2351.65 171.463 2349.24 171.972 Q2346.84 172.481 2344.36 172.481 Q2338.16 172.481 2334.52 168.87 Q2330.91 165.259 2330.91 159.102 Q2330.91 152.736 2334.34 149.009 Q2337.79 145.259 2343.62 145.259 Q2348.85 145.259 2351.88 148.639 Q2354.94 151.995 2354.94 157.782 M2350.68 156.532 Q2350.63 153.037 2348.71 150.954 Q2346.81 148.87 2343.67 148.87 Q2340.1 148.87 2337.95 150.884 Q2335.82 152.898 2335.49 156.555 L2350.68 156.532 Z" fill="#000000" fill-rule="evenodd" fill-opacity="1" /><path clip-path="url(#clip950)" d="M2378.99 149.819 L2378.99 135.792 L2383.25 135.792 L2383.25 171.81 L2378.99 171.81 L2378.99 167.921 Q2377.65 170.236 2375.59 171.37 Q2373.55 172.481 2370.68 172.481 Q2365.98 172.481 2363.02 168.731 Q2360.08 164.981 2360.08 158.87 Q2360.08 152.759 2363.02 149.009 Q2365.98 145.259 2370.68 145.259 Q2373.55 145.259 2375.59 146.393 Q2377.65 147.505 2378.99 149.819 M2364.48 158.87 Q2364.48 163.569 2366.4 166.254 Q2368.34 168.917 2371.72 168.917 Q2375.1 168.917 2377.04 166.254 Q2378.99 163.569 2378.99 158.87 Q2378.99 154.171 2377.04 151.509 Q2375.1 148.824 2371.72 148.824 Q2368.34 148.824 2366.4 151.509 Q2364.48 154.171 2364.48 158.87 Z" fill="#000000" fill-rule="evenodd" fill-opacity="1" /></svg>
