<?xml version="1.0" encoding="utf-8"?>
<svg xmlns="http://www.w3.org/2000/svg" xmlns:xlink="http://www.w3.org/1999/xlink" width="600" height="400" viewBox="0 0 2400 1600">
<defs>
  <clipPath id="clip660">
    <rect x="0" y="0" width="2400" height="1600"/>
  </clipPath>
</defs>
<path clip-path="url(#clip660)" d="
M0 1600 L2400 1600 L2400 0 L0 0  Z
  " fill="#ffffff" fill-rule="evenodd" fill-opacity="1"/>
<defs>
  <clipPath id="clip661">
    <rect x="480" y="0" width="1681" height="1600"/>
  </clipPath>
</defs>
<path clip-path="url(#clip660)" d="
M212.459 1423.18 L2352.76 1423.18 L2352.76 47.2441 L212.459 47.2441  Z
  " fill="#ffffff" fill-rule="evenodd" fill-opacity="1"/>
<defs>
  <clipPath id="clip662">
    <rect x="212" y="47" width="2141" height="1377"/>
  </clipPath>
</defs>
<polyline clip-path="url(#clip662)" style="stroke:#000000; stroke-linecap:butt; stroke-linejoin:round; stroke-width:2; stroke-opacity:0.1; fill:none" points="
  273.033,1423.18 273.033,47.2441 
  "/>
<polyline clip-path="url(#clip662)" style="stroke:#000000; stroke-linecap:butt; stroke-linejoin:round; stroke-width:2; stroke-opacity:0.1; fill:none" points="
  866.691,1423.18 866.691,47.2441 
  "/>
<polyline clip-path="url(#clip662)" style="stroke:#000000; stroke-linecap:butt; stroke-linejoin:round; stroke-width:2; stroke-opacity:0.1; fill:none" points="
  1460.35,1423.18 1460.35,47.2441 
  "/>
<polyline clip-path="url(#clip662)" style="stroke:#000000; stroke-linecap:butt; stroke-linejoin:round; stroke-width:2; stroke-opacity:0.1; fill:none" points="
  2054.01,1423.18 2054.01,47.2441 
  "/>
<polyline clip-path="url(#clip660)" style="stroke:#000000; stroke-linecap:butt; stroke-linejoin:round; stroke-width:4; stroke-opacity:1; fill:none" points="
  212.459,1423.18 2352.76,1423.18 
  "/>
<polyline clip-path="url(#clip660)" style="stroke:#000000; stroke-linecap:butt; stroke-linejoin:round; stroke-width:4; stroke-opacity:1; fill:none" points="
  273.033,1423.18 273.033,1406.67 
  "/>
<polyline clip-path="url(#clip660)" style="stroke:#000000; stroke-linecap:butt; stroke-linejoin:round; stroke-width:4; stroke-opacity:1; fill:none" points="
  866.691,1423.18 866.691,1406.67 
  "/>
<polyline clip-path="url(#clip660)" style="stroke:#000000; stroke-linecap:butt; stroke-linejoin:round; stroke-width:4; stroke-opacity:1; fill:none" points="
  1460.35,1423.18 1460.35,1406.67 
  "/>
<polyline clip-path="url(#clip660)" style="stroke:#000000; stroke-linecap:butt; stroke-linejoin:round; stroke-width:4; stroke-opacity:1; fill:none" points="
  2054.01,1423.18 2054.01,1406.67 
  "/>
<path clip-path="url(#clip660)" d="M273.033 1452.37 Q269.422 1452.37 267.594 1455.94 Q265.788 1459.48 265.788 1466.61 Q265.788 1473.71 267.594 1477.28 Q269.422 1480.82 273.033 1480.82 Q276.668 1480.82 278.473 1477.28 Q280.302 1473.71 280.302 1466.61 Q280.302 1459.48 278.473 1455.94 Q276.668 1452.37 273.033 1452.37 M273.033 1448.67 Q278.843 1448.67 281.899 1453.27 Q284.978 1457.86 284.978 1466.61 Q284.978 1475.33 281.899 1479.94 Q278.843 1484.52 273.033 1484.52 Q267.223 1484.52 264.145 1479.94 Q261.089 1475.33 261.089 1466.61 Q261.089 1457.86 264.145 1453.27 Q267.223 1448.67 273.033 1448.67 Z" fill="#000000" fill-rule="evenodd" fill-opacity="1" /><path clip-path="url(#clip660)" d="M857.073 1479.92 L864.712 1479.92 L864.712 1453.55 L856.402 1455.22 L856.402 1450.96 L864.666 1449.29 L869.342 1449.29 L869.342 1479.92 L876.981 1479.92 L876.981 1483.85 L857.073 1483.85 L857.073 1479.92 Z" fill="#000000" fill-rule="evenodd" fill-opacity="1" /><path clip-path="url(#clip660)" d="M1455 1479.92 L1471.32 1479.92 L1471.32 1483.85 L1449.38 1483.85 L1449.38 1479.92 Q1452.04 1477.16 1456.62 1472.53 Q1461.23 1467.88 1462.41 1466.54 Q1464.65 1464.01 1465.53 1462.28 Q1466.44 1460.52 1466.44 1458.83 Q1466.44 1456.07 1464.49 1454.34 Q1462.57 1452.6 1459.47 1452.6 Q1457.27 1452.6 1454.82 1453.37 Q1452.39 1454.13 1449.61 1455.68 L1449.61 1450.96 Q1452.43 1449.82 1454.89 1449.25 Q1457.34 1448.67 1459.38 1448.67 Q1464.75 1448.67 1467.94 1451.35 Q1471.14 1454.04 1471.14 1458.53 Q1471.14 1460.66 1470.33 1462.58 Q1469.54 1464.48 1467.43 1467.07 Q1466.85 1467.74 1463.75 1470.96 Q1460.65 1474.15 1455 1479.92 Z" fill="#000000" fill-rule="evenodd" fill-opacity="1" /><path clip-path="url(#clip660)" d="M2058.26 1465.22 Q2061.61 1465.94 2063.49 1468.2 Q2065.38 1470.47 2065.38 1473.81 Q2065.38 1478.92 2061.87 1481.72 Q2058.35 1484.52 2051.87 1484.52 Q2049.69 1484.52 2047.38 1484.08 Q2045.08 1483.67 2042.63 1482.81 L2042.63 1478.3 Q2044.57 1479.43 2046.89 1480.01 Q2049.2 1480.59 2051.73 1480.59 Q2056.13 1480.59 2058.42 1478.85 Q2060.73 1477.12 2060.73 1473.81 Q2060.73 1470.75 2058.58 1469.04 Q2056.45 1467.3 2052.63 1467.3 L2048.6 1467.3 L2048.6 1463.46 L2052.82 1463.46 Q2056.26 1463.46 2058.09 1462.09 Q2059.92 1460.7 2059.92 1458.11 Q2059.92 1455.45 2058.02 1454.04 Q2056.15 1452.6 2052.63 1452.6 Q2050.71 1452.6 2048.51 1453.02 Q2046.31 1453.44 2043.67 1454.31 L2043.67 1450.15 Q2046.33 1449.41 2048.65 1449.04 Q2050.99 1448.67 2053.05 1448.67 Q2058.37 1448.67 2061.47 1451.1 Q2064.57 1453.5 2064.57 1457.63 Q2064.57 1460.5 2062.93 1462.49 Q2061.29 1464.45 2058.26 1465.22 Z" fill="#000000" fill-rule="evenodd" fill-opacity="1" /><path clip-path="url(#clip660)" d="M1154.55 1518.52 L1160.4 1518.52 L1160.4 1568.04 L1154.55 1568.04 L1154.55 1518.52 Z" fill="#000000" fill-rule="evenodd" fill-opacity="1" /><path clip-path="url(#clip660)" d="M1186.47 1536.5 Q1181.76 1536.5 1179.02 1540.19 Q1176.28 1543.85 1176.28 1550.25 Q1176.28 1556.65 1178.99 1560.34 Q1181.73 1564 1186.47 1564 Q1191.15 1564 1193.89 1560.31 Q1196.62 1556.62 1196.62 1550.25 Q1196.62 1543.92 1193.89 1540.23 Q1191.15 1536.5 1186.47 1536.5 M1186.47 1531.54 Q1194.11 1531.54 1198.47 1536.5 Q1202.83 1541.47 1202.83 1550.25 Q1202.83 1559 1198.47 1564 Q1194.11 1568.97 1186.47 1568.97 Q1178.8 1568.97 1174.44 1564 Q1170.11 1559 1170.11 1550.25 Q1170.11 1541.47 1174.44 1536.5 Q1178.8 1531.54 1186.47 1531.54 Z" fill="#000000" fill-rule="evenodd" fill-opacity="1" /><path clip-path="url(#clip660)" d="M1235.99 1549.81 Q1235.99 1543.44 1233.35 1539.94 Q1230.74 1536.44 1226 1536.44 Q1221.29 1536.44 1218.65 1539.94 Q1216.04 1543.44 1216.04 1549.81 Q1216.04 1556.14 1218.65 1559.64 Q1221.29 1563.14 1226 1563.14 Q1230.74 1563.14 1233.35 1559.64 Q1235.99 1556.14 1235.99 1549.81 M1241.85 1563.62 Q1241.85 1572.72 1237.81 1577.15 Q1233.77 1581.6 1225.43 1581.6 Q1222.34 1581.6 1219.6 1581.13 Q1216.87 1580.68 1214.29 1579.72 L1214.29 1574.03 Q1216.87 1575.43 1219.38 1576.1 Q1221.89 1576.76 1224.5 1576.76 Q1230.27 1576.76 1233.13 1573.74 Q1235.99 1570.75 1235.99 1564.67 L1235.99 1561.77 Q1234.18 1564.92 1231.35 1566.48 Q1228.51 1568.04 1224.57 1568.04 Q1218.01 1568.04 1214 1563.05 Q1209.99 1558.05 1209.99 1549.81 Q1209.99 1541.53 1214 1536.53 Q1218.01 1531.54 1224.57 1531.54 Q1228.51 1531.54 1231.35 1533.1 Q1234.18 1534.66 1235.99 1537.81 L1235.99 1532.4 L1241.85 1532.4 L1241.85 1563.62 Z" fill="#000000" fill-rule="evenodd" fill-opacity="1" /><path clip-path="url(#clip660)" d="M1267.98 1518.58 Q1263.72 1525.9 1261.65 1533.06 Q1259.58 1540.23 1259.58 1547.58 Q1259.58 1554.93 1261.65 1562.16 Q1263.75 1569.35 1267.98 1576.64 L1262.89 1576.64 Q1258.12 1569.16 1255.73 1561.93 Q1253.37 1554.71 1253.37 1547.58 Q1253.37 1540.48 1255.73 1533.29 Q1258.08 1526.09 1262.89 1518.58 L1267.98 1518.58 Z" fill="#000000" fill-rule="evenodd" fill-opacity="1" /><path clip-path="url(#clip660)" d="M1279.6 1520.52 L1286.03 1520.52 L1286.03 1562.63 L1309.17 1562.63 L1309.17 1568.04 L1279.6 1568.04 L1279.6 1520.52 Z" fill="#000000" fill-rule="evenodd" fill-opacity="1" /><path clip-path="url(#clip660)" d="M1331.86 1550.12 Q1324.76 1550.12 1322.03 1551.75 Q1319.29 1553.37 1319.29 1557.29 Q1319.29 1560.4 1321.33 1562.25 Q1323.4 1564.07 1326.93 1564.07 Q1331.8 1564.07 1334.73 1560.63 Q1337.69 1557.16 1337.69 1551.43 L1337.69 1550.12 L1331.86 1550.12 M1343.54 1547.71 L1343.54 1568.04 L1337.69 1568.04 L1337.69 1562.63 Q1335.68 1565.88 1332.69 1567.44 Q1329.7 1568.97 1325.37 1568.97 Q1319.89 1568.97 1316.65 1565.91 Q1313.43 1562.82 1313.43 1557.67 Q1313.43 1551.65 1317.44 1548.6 Q1321.49 1545.54 1329.47 1545.54 L1337.69 1545.54 L1337.69 1544.97 Q1337.69 1540.93 1335.01 1538.73 Q1332.37 1536.5 1327.57 1536.5 Q1324.51 1536.5 1321.61 1537.23 Q1318.72 1537.97 1316.04 1539.43 L1316.04 1534.02 Q1319.26 1532.78 1322.28 1532.17 Q1325.31 1531.54 1328.17 1531.54 Q1335.9 1531.54 1339.72 1535.55 Q1343.54 1539.56 1343.54 1547.71 Z" fill="#000000" fill-rule="evenodd" fill-opacity="1" /><path clip-path="url(#clip660)" d="M1379.06 1549.81 Q1379.06 1543.44 1376.42 1539.94 Q1373.81 1536.44 1369.07 1536.44 Q1364.36 1536.44 1361.72 1539.94 Q1359.11 1543.44 1359.11 1549.81 Q1359.11 1556.14 1361.72 1559.64 Q1364.36 1563.14 1369.07 1563.14 Q1373.81 1563.14 1376.42 1559.64 Q1379.06 1556.14 1379.06 1549.81 M1384.92 1563.62 Q1384.92 1572.72 1380.88 1577.15 Q1376.84 1581.6 1368.5 1581.6 Q1365.41 1581.6 1362.67 1581.13 Q1359.93 1580.68 1357.36 1579.72 L1357.36 1574.03 Q1359.93 1575.43 1362.45 1576.1 Q1364.96 1576.76 1367.57 1576.76 Q1373.33 1576.76 1376.2 1573.74 Q1379.06 1570.75 1379.06 1564.67 L1379.06 1561.77 Q1377.25 1564.92 1374.42 1566.48 Q1371.58 1568.04 1367.64 1568.04 Q1361.08 1568.04 1357.07 1563.05 Q1353.06 1558.05 1353.06 1549.81 Q1353.06 1541.53 1357.07 1536.53 Q1361.08 1531.54 1367.64 1531.54 Q1371.58 1531.54 1374.42 1533.1 Q1377.25 1534.66 1379.06 1537.81 L1379.06 1532.4 L1384.92 1532.4 L1384.92 1563.62 Z" fill="#000000" fill-rule="evenodd" fill-opacity="1" /><path clip-path="url(#clip660)" d="M1396.06 1518.58 L1401.15 1518.58 Q1405.93 1526.09 1408.28 1533.29 Q1410.67 1540.48 1410.67 1547.58 Q1410.67 1554.71 1408.28 1561.93 Q1405.93 1569.16 1401.15 1576.64 L1396.06 1576.64 Q1400.29 1569.35 1402.36 1562.16 Q1404.46 1554.93 1404.46 1547.58 Q1404.46 1540.23 1402.36 1533.06 Q1400.29 1525.9 1396.06 1518.58 Z" fill="#000000" fill-rule="evenodd" fill-opacity="1" /><polyline clip-path="url(#clip662)" style="stroke:#000000; stroke-linecap:butt; stroke-linejoin:round; stroke-width:2; stroke-opacity:0.1; fill:none" points="
  212.459,1240.34 2352.76,1240.34 
  "/>
<polyline clip-path="url(#clip662)" style="stroke:#000000; stroke-linecap:butt; stroke-linejoin:round; stroke-width:2; stroke-opacity:0.1; fill:none" points="
  212.459,1009.51 2352.76,1009.51 
  "/>
<polyline clip-path="url(#clip662)" style="stroke:#000000; stroke-linecap:butt; stroke-linejoin:round; stroke-width:2; stroke-opacity:0.1; fill:none" points="
  212.459,778.679 2352.76,778.679 
  "/>
<polyline clip-path="url(#clip662)" style="stroke:#000000; stroke-linecap:butt; stroke-linejoin:round; stroke-width:2; stroke-opacity:0.1; fill:none" points="
  212.459,547.848 2352.76,547.848 
  "/>
<polyline clip-path="url(#clip662)" style="stroke:#000000; stroke-linecap:butt; stroke-linejoin:round; stroke-width:2; stroke-opacity:0.1; fill:none" points="
  212.459,317.017 2352.76,317.017 
  "/>
<polyline clip-path="url(#clip662)" style="stroke:#000000; stroke-linecap:butt; stroke-linejoin:round; stroke-width:2; stroke-opacity:0.1; fill:none" points="
  212.459,86.1857 2352.76,86.1857 
  "/>
<polyline clip-path="url(#clip660)" style="stroke:#000000; stroke-linecap:butt; stroke-linejoin:round; stroke-width:4; stroke-opacity:1; fill:none" points="
  212.459,1423.18 212.459,47.2441 
  "/>
<polyline clip-path="url(#clip660)" style="stroke:#000000; stroke-linecap:butt; stroke-linejoin:round; stroke-width:4; stroke-opacity:1; fill:none" points="
  212.459,1240.34 238.142,1240.34 
  "/>
<polyline clip-path="url(#clip660)" style="stroke:#000000; stroke-linecap:butt; stroke-linejoin:round; stroke-width:4; stroke-opacity:1; fill:none" points="
  212.459,1009.51 238.142,1009.51 
  "/>
<polyline clip-path="url(#clip660)" style="stroke:#000000; stroke-linecap:butt; stroke-linejoin:round; stroke-width:4; stroke-opacity:1; fill:none" points="
  212.459,778.679 238.142,778.679 
  "/>
<polyline clip-path="url(#clip660)" style="stroke:#000000; stroke-linecap:butt; stroke-linejoin:round; stroke-width:4; stroke-opacity:1; fill:none" points="
  212.459,547.848 238.142,547.848 
  "/>
<polyline clip-path="url(#clip660)" style="stroke:#000000; stroke-linecap:butt; stroke-linejoin:round; stroke-width:4; stroke-opacity:1; fill:none" points="
  212.459,317.017 238.142,317.017 
  "/>
<polyline clip-path="url(#clip660)" style="stroke:#000000; stroke-linecap:butt; stroke-linejoin:round; stroke-width:4; stroke-opacity:1; fill:none" points="
  212.459,86.1857 238.142,86.1857 
  "/>
<path clip-path="url(#clip660)" d="M115.742 1240.79 L145.417 1240.79 L145.417 1244.73 L115.742 1244.73 L115.742 1240.79 Z" fill="#000000" fill-rule="evenodd" fill-opacity="1" /><path clip-path="url(#clip660)" d="M155.556 1223.06 L173.913 1223.06 L173.913 1227 L159.839 1227 L159.839 1235.47 Q160.857 1235.12 161.876 1234.96 Q162.894 1234.77 163.913 1234.77 Q169.7 1234.77 173.079 1237.94 Q176.459 1241.12 176.459 1246.53 Q176.459 1252.11 172.987 1255.21 Q169.514 1258.29 163.195 1258.29 Q161.019 1258.29 158.751 1257.92 Q156.505 1257.55 154.098 1256.81 L154.098 1252.11 Q156.181 1253.25 158.403 1253.8 Q160.626 1254.36 163.102 1254.36 Q167.107 1254.36 169.445 1252.25 Q171.783 1250.14 171.783 1246.53 Q171.783 1242.92 169.445 1240.82 Q167.107 1238.71 163.102 1238.71 Q161.227 1238.71 159.353 1239.13 Q157.501 1239.54 155.556 1240.42 L155.556 1223.06 Z" fill="#000000" fill-rule="evenodd" fill-opacity="1" /><path clip-path="url(#clip660)" d="M114.26 1009.96 L143.936 1009.96 L143.936 1013.9 L114.26 1013.9 L114.26 1009.96 Z" fill="#000000" fill-rule="evenodd" fill-opacity="1" /><path clip-path="url(#clip660)" d="M166.876 996.304 L155.07 1014.75 L166.876 1014.75 L166.876 996.304 M165.649 992.23 L171.528 992.23 L171.528 1014.75 L176.459 1014.75 L176.459 1018.64 L171.528 1018.64 L171.528 1026.79 L166.876 1026.79 L166.876 1018.64 L151.274 1018.64 L151.274 1014.13 L165.649 992.23 Z" fill="#000000" fill-rule="evenodd" fill-opacity="1" /><path clip-path="url(#clip660)" d="M115.394 779.13 L145.07 779.13 L145.07 783.065 L115.394 783.065 L115.394 779.13 Z" fill="#000000" fill-rule="evenodd" fill-opacity="1" /><path clip-path="url(#clip660)" d="M169.329 777.325 Q172.686 778.042 174.561 780.311 Q176.459 782.579 176.459 785.912 Q176.459 791.028 172.94 793.829 Q169.422 796.63 162.94 796.63 Q160.765 796.63 158.45 796.19 Q156.158 795.774 153.704 794.917 L153.704 790.403 Q155.649 791.537 157.964 792.116 Q160.278 792.695 162.802 792.695 Q167.2 792.695 169.491 790.959 Q171.806 789.223 171.806 785.912 Q171.806 782.857 169.653 781.144 Q167.524 779.408 163.704 779.408 L159.677 779.408 L159.677 775.565 L163.89 775.565 Q167.339 775.565 169.167 774.2 Q170.996 772.811 170.996 770.218 Q170.996 767.556 169.098 766.144 Q167.223 764.709 163.704 764.709 Q161.783 764.709 159.584 765.126 Q157.385 765.542 154.746 766.422 L154.746 762.255 Q157.408 761.514 159.723 761.144 Q162.061 760.774 164.121 760.774 Q169.445 760.774 172.547 763.204 Q175.649 765.612 175.649 769.732 Q175.649 772.602 174.005 774.593 Q172.362 776.561 169.329 777.325 Z" fill="#000000" fill-rule="evenodd" fill-opacity="1" /><path clip-path="url(#clip660)" d="M116.343 548.299 L146.019 548.299 L146.019 552.234 L116.343 552.234 L116.343 548.299 Z" fill="#000000" fill-rule="evenodd" fill-opacity="1" /><path clip-path="url(#clip660)" d="M160.14 561.193 L176.459 561.193 L176.459 565.128 L154.515 565.128 L154.515 561.193 Q157.177 558.438 161.76 553.808 Q166.366 549.156 167.547 547.813 Q169.792 545.29 170.672 543.554 Q171.575 541.794 171.575 540.105 Q171.575 537.35 169.63 535.614 Q167.709 533.878 164.607 533.878 Q162.408 533.878 159.954 534.642 Q157.524 535.406 154.746 536.957 L154.746 532.234 Q157.57 531.1 160.024 530.521 Q162.477 529.943 164.515 529.943 Q169.885 529.943 173.079 532.628 Q176.274 535.313 176.274 539.804 Q176.274 541.933 175.464 543.855 Q174.677 545.753 172.57 548.345 Q171.991 549.017 168.889 552.234 Q165.788 555.429 160.14 561.193 Z" fill="#000000" fill-rule="evenodd" fill-opacity="1" /><path clip-path="url(#clip660)" d="M115.973 317.468 L145.649 317.468 L145.649 321.403 L115.973 321.403 L115.973 317.468 Z" fill="#000000" fill-rule="evenodd" fill-opacity="1" /><path clip-path="url(#clip660)" d="M156.552 330.362 L164.19 330.362 L164.19 303.996 L155.88 305.663 L155.88 301.403 L164.144 299.737 L168.82 299.737 L168.82 330.362 L176.459 330.362 L176.459 334.297 L156.552 334.297 L156.552 330.362 Z" fill="#000000" fill-rule="evenodd" fill-opacity="1" /><path clip-path="url(#clip660)" d="M164.515 71.9844 Q160.903 71.9844 159.075 75.5492 Q157.269 79.0908 157.269 86.2204 Q157.269 93.3268 159.075 96.8916 Q160.903 100.433 164.515 100.433 Q168.149 100.433 169.954 96.8916 Q171.783 93.3268 171.783 86.2204 Q171.783 79.0908 169.954 75.5492 Q168.149 71.9844 164.515 71.9844 M164.515 68.2807 Q170.325 68.2807 173.38 72.8871 Q176.459 77.4704 176.459 86.2204 Q176.459 94.9472 173.38 99.5537 Q170.325 104.137 164.515 104.137 Q158.704 104.137 155.626 99.5537 Q152.57 94.9472 152.57 86.2204 Q152.57 77.4704 155.626 72.8871 Q158.704 68.2807 164.515 68.2807 Z" fill="#000000" fill-rule="evenodd" fill-opacity="1" /><path clip-path="url(#clip660)" d="M14.479 984.175 L14.479 978.318 L64.0042 978.318 L64.0042 984.175 L14.479 984.175 Z" fill="#000000" fill-rule="evenodd" fill-opacity="1" /><path clip-path="url(#clip660)" d="M32.4621 952.251 Q32.4621 956.961 36.1542 959.699 Q39.8145 962.436 46.212 962.436 Q52.6095 962.436 56.3017 959.73 Q59.9619 956.993 59.9619 952.251 Q59.9619 947.572 56.2698 944.835 Q52.5777 942.097 46.212 942.097 Q39.8781 942.097 36.186 944.835 Q32.4621 947.572 32.4621 952.251 M27.4968 952.251 Q27.4968 944.612 32.4621 940.251 Q37.4273 935.891 46.212 935.891 Q54.9649 935.891 59.9619 940.251 Q64.9272 944.612 64.9272 952.251 Q64.9272 959.921 59.9619 964.282 Q54.9649 968.611 46.212 968.611 Q37.4273 968.611 32.4621 964.282 Q27.4968 959.921 27.4968 952.251 Z" fill="#000000" fill-rule="evenodd" fill-opacity="1" /><path clip-path="url(#clip660)" d="M45.7664 902.726 Q39.4007 902.726 35.8996 905.367 Q32.3984 907.977 32.3984 912.72 Q32.3984 917.43 35.8996 920.072 Q39.4007 922.682 45.7664 922.682 Q52.1003 922.682 55.6014 920.072 Q59.1026 917.43 59.1026 912.72 Q59.1026 907.977 55.6014 905.367 Q52.1003 902.726 45.7664 902.726 M59.58 896.869 Q68.683 896.869 73.1071 900.911 Q77.5631 904.954 77.5631 913.293 Q77.5631 916.38 77.0857 919.117 Q76.6401 921.854 75.6852 924.433 L69.9879 924.433 Q71.3884 921.854 72.0568 919.34 Q72.7252 916.826 72.7252 914.216 Q72.7252 908.455 69.7015 905.59 Q66.7096 902.726 60.6303 902.726 L57.7339 902.726 Q60.885 904.54 62.4446 907.373 Q64.0042 910.205 64.0042 914.152 Q64.0042 920.709 59.0071 924.719 Q54.01 928.729 45.7664 928.729 Q37.491 928.729 32.4939 924.719 Q27.4968 920.709 27.4968 914.152 Q27.4968 910.205 29.0564 907.373 Q30.616 904.54 33.7671 902.726 L28.3562 902.726 L28.3562 896.869 L59.58 896.869 Z" fill="#000000" fill-rule="evenodd" fill-opacity="1" /><path clip-path="url(#clip660)" d="M14.5426 870.738 Q21.8632 875.003 29.0246 877.072 Q36.186 879.141 43.5384 879.141 Q50.8908 879.141 58.1159 877.072 Q65.3091 874.971 72.5979 870.738 L72.5979 875.83 Q65.1182 880.605 57.8931 882.992 Q50.668 885.347 43.5384 885.347 Q36.4406 885.347 29.2474 882.992 Q22.0542 880.637 14.5426 875.83 L14.5426 870.738 Z" fill="#000000" fill-rule="evenodd" fill-opacity="1" /><path clip-path="url(#clip660)" d="M20.1444 823.536 L26.9239 823.536 Q23.9002 826.783 22.4043 830.475 Q20.9083 834.135 20.9083 838.273 Q20.9083 846.421 25.9054 850.75 Q30.8707 855.078 40.2919 855.078 Q49.6813 855.078 54.6784 850.75 Q59.6436 846.421 59.6436 838.273 Q59.6436 834.135 58.1477 830.475 Q56.6518 826.783 53.6281 823.536 L60.3439 823.536 Q62.6355 826.91 63.7814 830.698 Q64.9272 834.453 64.9272 838.655 Q64.9272 849.445 58.3387 855.651 Q51.7183 861.858 40.2919 861.858 Q28.8336 861.858 22.2451 855.651 Q15.6248 849.445 15.6248 838.655 Q15.6248 834.39 16.7706 830.634 Q17.8846 826.846 20.1444 823.536 Z" fill="#000000" fill-rule="evenodd" fill-opacity="1" /><path clip-path="url(#clip660)" d="M32.4621 800.047 Q32.4621 804.757 36.1542 807.495 Q39.8145 810.232 46.212 810.232 Q52.6095 810.232 56.3017 807.526 Q59.9619 804.789 59.9619 800.047 Q59.9619 795.368 56.2698 792.631 Q52.5777 789.893 46.212 789.893 Q39.8781 789.893 36.186 792.631 Q32.4621 795.368 32.4621 800.047 M27.4968 800.047 Q27.4968 792.408 32.4621 788.047 Q37.4273 783.687 46.212 783.687 Q54.9649 783.687 59.9619 788.047 Q64.9272 792.408 64.9272 800.047 Q64.9272 807.717 59.9619 812.078 Q54.9649 816.407 46.212 816.407 Q37.4273 816.407 32.4621 812.078 Q27.4968 807.717 27.4968 800.047 Z" fill="#000000" fill-rule="evenodd" fill-opacity="1" /><path clip-path="url(#clip660)" d="M33.8307 753.322 Q33.2578 754.309 33.0032 755.487 Q32.7167 756.633 32.7167 758.033 Q32.7167 762.998 35.9632 765.672 Q39.1779 768.314 45.2253 768.314 L64.0042 768.314 L64.0042 774.202 L28.3562 774.202 L28.3562 768.314 L33.8944 768.314 Q30.6479 766.468 29.0883 763.508 Q27.4968 760.547 27.4968 756.314 Q27.4968 755.71 27.5923 754.977 Q27.656 754.245 27.8151 753.354 L33.8307 753.322 Z" fill="#000000" fill-rule="evenodd" fill-opacity="1" /><path clip-path="url(#clip660)" d="M33.8307 727.669 Q33.2578 728.655 33.0032 729.833 Q32.7167 730.979 32.7167 732.379 Q32.7167 737.344 35.9632 740.018 Q39.1779 742.66 45.2253 742.66 L64.0042 742.66 L64.0042 748.548 L28.3562 748.548 L28.3562 742.66 L33.8944 742.66 Q30.6479 740.814 29.0883 737.854 Q27.4968 734.894 27.4968 730.66 Q27.4968 730.056 27.5923 729.324 Q27.656 728.592 27.8151 727.7 L33.8307 727.669 Z" fill="#000000" fill-rule="evenodd" fill-opacity="1" /><path clip-path="url(#clip660)" d="M44.7161 692.466 L47.5806 692.466 L47.5806 719.393 Q53.6281 719.011 56.8109 715.765 Q59.9619 712.486 59.9619 706.662 Q59.9619 703.288 59.1344 700.137 Q58.3069 696.954 56.6518 693.835 L62.1899 693.835 Q63.5267 696.986 64.227 700.296 Q64.9272 703.606 64.9272 707.012 Q64.9272 715.542 59.9619 720.539 Q54.9967 725.504 46.5303 725.504 Q37.7774 725.504 32.6531 720.794 Q27.4968 716.051 27.4968 708.03 Q27.4968 700.837 32.1438 696.668 Q36.7589 692.466 44.7161 692.466 M42.9973 698.323 Q38.1912 698.386 35.3266 701.028 Q32.4621 703.638 32.4621 707.967 Q32.4621 712.868 35.2312 715.828 Q38.0002 718.757 43.0292 719.202 L42.9973 698.323 Z" fill="#000000" fill-rule="evenodd" fill-opacity="1" /><path clip-path="url(#clip660)" d="M14.479 682.854 L14.479 676.998 L64.0042 676.998 L64.0042 682.854 L14.479 682.854 Z" fill="#000000" fill-rule="evenodd" fill-opacity="1" /><path clip-path="url(#clip660)" d="M46.0847 648.543 Q46.0847 655.641 47.7079 658.378 Q49.3312 661.115 53.2461 661.115 Q56.3653 661.115 58.2114 659.078 Q60.0256 657.009 60.0256 653.476 Q60.0256 648.607 56.5881 645.678 Q53.1188 642.718 47.3897 642.718 L46.0847 642.718 L46.0847 648.543 M43.6657 636.862 L64.0042 636.862 L64.0042 642.718 L58.5933 642.718 Q61.8398 644.723 63.3994 647.715 Q64.9272 650.707 64.9272 655.036 Q64.9272 660.51 61.8716 663.757 Q58.7843 666.972 53.6281 666.972 Q47.6125 666.972 44.5569 662.961 Q41.5014 658.919 41.5014 650.93 L41.5014 642.718 L40.9285 642.718 Q36.8862 642.718 34.6901 645.392 Q32.4621 648.034 32.4621 652.84 Q32.4621 655.895 33.1941 658.792 Q33.9262 661.688 35.3903 664.362 L29.9795 664.362 Q28.7381 661.147 28.1334 658.123 Q27.4968 655.1 27.4968 652.235 Q27.4968 644.501 31.5072 640.681 Q35.5176 636.862 43.6657 636.862 Z" fill="#000000" fill-rule="evenodd" fill-opacity="1" /><path clip-path="url(#clip660)" d="M18.2347 619.006 L28.3562 619.006 L28.3562 606.943 L32.9077 606.943 L32.9077 619.006 L52.2594 619.006 Q56.6199 619.006 57.8613 617.828 Q59.1026 616.619 59.1026 612.959 L59.1026 606.943 L64.0042 606.943 L64.0042 612.959 Q64.0042 619.738 61.4897 622.316 Q58.9434 624.894 52.2594 624.894 L32.9077 624.894 L32.9077 629.191 L28.3562 629.191 L28.3562 624.894 L18.2347 624.894 L18.2347 619.006 Z" fill="#000000" fill-rule="evenodd" fill-opacity="1" /><path clip-path="url(#clip660)" d="M28.3562 599.24 L28.3562 593.384 L64.0042 593.384 L64.0042 599.24 L28.3562 599.24 M14.479 599.24 L14.479 593.384 L21.895 593.384 L21.895 599.24 L14.479 599.24 Z" fill="#000000" fill-rule="evenodd" fill-opacity="1" /><path clip-path="url(#clip660)" d="M32.4621 567.316 Q32.4621 572.027 36.1542 574.764 Q39.8145 577.502 46.212 577.502 Q52.6095 577.502 56.3017 574.796 Q59.9619 572.059 59.9619 567.316 Q59.9619 562.638 56.2698 559.9 Q52.5777 557.163 46.212 557.163 Q39.8781 557.163 36.186 559.9 Q32.4621 562.638 32.4621 567.316 M27.4968 567.316 Q27.4968 559.678 32.4621 555.317 Q37.4273 550.957 46.212 550.957 Q54.9649 550.957 59.9619 555.317 Q64.9272 559.678 64.9272 567.316 Q64.9272 574.987 59.9619 579.348 Q54.9649 583.676 46.212 583.676 Q37.4273 583.676 32.4621 579.348 Q27.4968 574.987 27.4968 567.316 Z" fill="#000000" fill-rule="evenodd" fill-opacity="1" /><path clip-path="url(#clip660)" d="M42.4881 511.617 L64.0042 511.617 L64.0042 517.473 L42.679 517.473 Q37.6183 517.473 35.1038 519.446 Q32.5894 521.42 32.5894 525.366 Q32.5894 530.109 35.6131 532.846 Q38.6368 535.583 43.8567 535.583 L64.0042 535.583 L64.0042 541.472 L28.3562 541.472 L28.3562 535.583 L33.8944 535.583 Q30.6797 533.483 29.0883 530.65 Q27.4968 527.785 27.4968 524.061 Q27.4968 517.919 31.3163 514.768 Q35.1038 511.617 42.4881 511.617 Z" fill="#000000" fill-rule="evenodd" fill-opacity="1" /><path clip-path="url(#clip660)" d="M14.5426 500.858 L14.5426 495.766 Q22.0542 490.992 29.2474 488.636 Q36.4406 486.249 43.5384 486.249 Q50.668 486.249 57.8931 488.636 Q65.1182 490.992 72.5979 495.766 L72.5979 500.858 Q65.3091 496.625 58.1159 494.556 Q50.8908 492.456 43.5384 492.456 Q36.186 492.456 29.0246 494.556 Q21.8632 496.625 14.5426 500.858 Z" fill="#000000" fill-rule="evenodd" fill-opacity="1" /><circle clip-path="url(#clip662)" cx="273.033" cy="86.1857" r="14" fill="#009af9" fill-rule="evenodd" fill-opacity="1" stroke="#000000" stroke-opacity="1" stroke-width="3.2"/>
<circle clip-path="url(#clip662)" cx="684.526" cy="725.018" r="14" fill="#009af9" fill-rule="evenodd" fill-opacity="1" stroke="#000000" stroke-opacity="1" stroke-width="3.2"/>
<circle clip-path="url(#clip662)" cx="925.233" cy="889.388" r="14" fill="#009af9" fill-rule="evenodd" fill-opacity="1" stroke="#000000" stroke-opacity="1" stroke-width="3.2"/>
<circle clip-path="url(#clip662)" cx="1096.02" cy="1103.29" r="14" fill="#009af9" fill-rule="evenodd" fill-opacity="1" stroke="#000000" stroke-opacity="1" stroke-width="3.2"/>
<circle clip-path="url(#clip662)" cx="1228.49" cy="1077.38" r="14" fill="#009af9" fill-rule="evenodd" fill-opacity="1" stroke="#000000" stroke-opacity="1" stroke-width="3.2"/>
<circle clip-path="url(#clip662)" cx="1336.73" cy="580.345" r="14" fill="#009af9" fill-rule="evenodd" fill-opacity="1" stroke="#000000" stroke-opacity="1" stroke-width="3.2"/>
<circle clip-path="url(#clip662)" cx="1428.24" cy="686.235" r="14" fill="#009af9" fill-rule="evenodd" fill-opacity="1" stroke="#000000" stroke-opacity="1" stroke-width="3.2"/>
<circle clip-path="url(#clip662)" cx="1507.51" cy="752.812" r="14" fill="#009af9" fill-rule="evenodd" fill-opacity="1" stroke="#000000" stroke-opacity="1" stroke-width="3.2"/>
<circle clip-path="url(#clip662)" cx="1577.43" cy="1195.25" r="14" fill="#009af9" fill-rule="evenodd" fill-opacity="1" stroke="#000000" stroke-opacity="1" stroke-width="3.2"/>
<circle clip-path="url(#clip662)" cx="1696.56" cy="718.54" r="14" fill="#009af9" fill-rule="evenodd" fill-opacity="1" stroke="#000000" stroke-opacity="1" stroke-width="3.2"/>
<circle clip-path="url(#clip662)" cx="1795.74" cy="708.409" r="14" fill="#009af9" fill-rule="evenodd" fill-opacity="1" stroke="#000000" stroke-opacity="1" stroke-width="3.2"/>
<circle clip-path="url(#clip662)" cx="1919" cy="1005.26" r="14" fill="#009af9" fill-rule="evenodd" fill-opacity="1" stroke="#000000" stroke-opacity="1" stroke-width="3.2"/>
<circle clip-path="url(#clip662)" cx="1954.99" cy="1013.75" r="14" fill="#009af9" fill-rule="evenodd" fill-opacity="1" stroke="#000000" stroke-opacity="1" stroke-width="3.2"/>
<circle clip-path="url(#clip662)" cx="1988.93" cy="795.994" r="14" fill="#009af9" fill-rule="evenodd" fill-opacity="1" stroke="#000000" stroke-opacity="1" stroke-width="3.2"/>
<circle clip-path="url(#clip662)" cx="2021.02" cy="933.602" r="14" fill="#009af9" fill-rule="evenodd" fill-opacity="1" stroke="#000000" stroke-opacity="1" stroke-width="3.2"/>
<circle clip-path="url(#clip662)" cx="2108.06" cy="671.92" r="14" fill="#009af9" fill-rule="evenodd" fill-opacity="1" stroke="#000000" stroke-opacity="1" stroke-width="3.2"/>
<circle clip-path="url(#clip662)" cx="2134.44" cy="802.307" r="14" fill="#009af9" fill-rule="evenodd" fill-opacity="1" stroke="#000000" stroke-opacity="1" stroke-width="3.2"/>
<circle clip-path="url(#clip662)" cx="2251.22" cy="685.024" r="14" fill="#009af9" fill-rule="evenodd" fill-opacity="1" stroke="#000000" stroke-opacity="1" stroke-width="3.2"/>
<polyline clip-path="url(#clip662)" style="stroke:#e26f46; stroke-linecap:butt; stroke-linejoin:round; stroke-width:4; stroke-opacity:1; fill:none" points="
  273.033,599.136 684.526,664.336 925.233,702.475 1096.02,729.535 1228.49,750.525 1336.73,767.674 1428.24,782.174 1507.51,794.735 1577.43,805.814 1639.98,815.724 
  1696.56,824.689 1748.22,832.874 1795.74,840.403 1839.73,847.374 1880.69,853.863 1919,859.934 1954.99,865.637 1988.93,871.013 2021.02,876.099 2051.47,880.924 
  2080.44,885.513 2108.06,889.889 2134.44,894.07 2159.71,898.073 2183.94,901.913 2207.23,905.602 2229.63,909.152 2251.22,912.573 2272.06,915.874 2292.18,919.063 
  
  "/>
<polyline clip-path="url(#clip662)" style="stroke:#3da44d; stroke-linecap:butt; stroke-linejoin:round; stroke-width:4; stroke-opacity:1; fill:none" points="
  273.033,599.136 684.526,759.136 925.233,852.73 1096.02,919.136 1228.49,970.645 1336.73,1012.73 1428.24,1048.31 1507.51,1079.14 1577.43,1106.32 1639.98,1130.64 
  1696.56,1152.65 1748.22,1172.73 1795.74,1191.21 1839.73,1208.31 1880.69,1224.24 1919,1239.14 1954.99,1253.13 1988.93,1266.32 2021.02,1278.8 2051.47,1290.64 
  2080.44,1301.91 2108.06,1312.64 2134.44,1322.91 2159.71,1332.73 2183.94,1342.15 2207.23,1351.21 2229.63,1359.92 2251.22,1368.31 2272.06,1376.41 2292.18,1384.24 
  
  "/>
<path clip-path="url(#clip660)" d="
M1496.17 274.549 L2281.41 274.549 L2281.41 93.1086 L1496.17 93.1086  Z
  " fill="#ffffff" fill-rule="evenodd" fill-opacity="1"/>
<polyline clip-path="url(#clip660)" style="stroke:#000000; stroke-linecap:butt; stroke-linejoin:round; stroke-width:4; stroke-opacity:1; fill:none" points="
  1496.17,274.549 2281.41,274.549 2281.41,93.1086 1496.17,93.1086 1496.17,274.549 
  "/>
<polyline clip-path="url(#clip660)" style="stroke:#e26f46; stroke-linecap:butt; stroke-linejoin:round; stroke-width:4; stroke-opacity:1; fill:none" points="
  1519.96,153.589 1662.64,153.589 
  "/>
<path clip-path="url(#clip660)" d="M1691.1 140.151 L1691.1 153.137 L1696.98 153.137 Q1700.24 153.137 1702.02 151.447 Q1703.81 149.758 1703.81 146.633 Q1703.81 143.531 1702.02 141.841 Q1700.24 140.151 1696.98 140.151 L1691.1 140.151 M1686.42 136.309 L1696.98 136.309 Q1702.79 136.309 1705.75 138.947 Q1708.74 141.563 1708.74 146.633 Q1708.74 151.748 1705.75 154.364 Q1702.79 156.98 1696.98 156.98 L1691.1 156.98 L1691.1 170.869 L1686.42 170.869 L1686.42 136.309 Z" fill="#000000" fill-rule="evenodd" fill-opacity="1" /><path clip-path="url(#clip660)" d="M1723.18 147.929 Q1719.76 147.929 1717.77 150.614 Q1715.77 153.276 1715.77 157.929 Q1715.77 162.582 1717.74 165.267 Q1719.73 167.929 1723.18 167.929 Q1726.58 167.929 1728.58 165.244 Q1730.57 162.558 1730.57 157.929 Q1730.57 153.322 1728.58 150.637 Q1726.58 147.929 1723.18 147.929 M1723.18 144.318 Q1728.74 144.318 1731.91 147.929 Q1735.08 151.54 1735.08 157.929 Q1735.08 164.295 1731.91 167.929 Q1728.74 171.54 1723.18 171.54 Q1717.6 171.54 1714.43 167.929 Q1711.28 164.295 1711.28 157.929 Q1711.28 151.54 1714.43 147.929 Q1717.6 144.318 1723.18 144.318 Z" fill="#000000" fill-rule="evenodd" fill-opacity="1" /><path clip-path="url(#clip660)" d="M1739.66 144.943 L1743.92 144.943 L1749.25 165.174 L1754.55 144.943 L1759.57 144.943 L1764.89 165.174 L1770.2 144.943 L1774.45 144.943 L1767.67 170.869 L1762.65 170.869 L1757.07 149.619 L1751.47 170.869 L1746.45 170.869 L1739.66 144.943 Z" fill="#000000" fill-rule="evenodd" fill-opacity="1" /><path clip-path="url(#clip660)" d="M1803.09 156.841 L1803.09 158.924 L1783.51 158.924 Q1783.78 163.322 1786.14 165.637 Q1788.53 167.929 1792.76 167.929 Q1795.22 167.929 1797.51 167.327 Q1799.83 166.725 1802.09 165.521 L1802.09 169.549 Q1799.8 170.521 1797.39 171.031 Q1794.99 171.54 1792.51 171.54 Q1786.31 171.54 1782.67 167.929 Q1779.06 164.318 1779.06 158.16 Q1779.06 151.795 1782.49 148.068 Q1785.94 144.318 1791.77 144.318 Q1797 144.318 1800.03 147.697 Q1803.09 151.054 1803.09 156.841 M1798.83 155.591 Q1798.78 152.096 1796.86 150.012 Q1794.96 147.929 1791.82 147.929 Q1788.25 147.929 1786.1 149.943 Q1783.97 151.957 1783.64 155.614 L1798.83 155.591 Z" fill="#000000" fill-rule="evenodd" fill-opacity="1" /><path clip-path="url(#clip660)" d="M1825.1 148.924 Q1824.39 148.508 1823.53 148.322 Q1822.7 148.114 1821.68 148.114 Q1818.07 148.114 1816.12 150.475 Q1814.2 152.813 1814.2 157.211 L1814.2 170.869 L1809.92 170.869 L1809.92 144.943 L1814.2 144.943 L1814.2 148.971 Q1815.54 146.609 1817.7 145.475 Q1819.85 144.318 1822.93 144.318 Q1823.37 144.318 1823.9 144.387 Q1824.43 144.434 1825.08 144.549 L1825.1 148.924 Z" fill="#000000" fill-rule="evenodd" fill-opacity="1" /><path clip-path="url(#clip660)" d="M1844.82 136.309 L1849.5 136.309 L1849.5 166.933 L1866.33 166.933 L1866.33 170.869 L1844.82 170.869 L1844.82 136.309 Z" fill="#000000" fill-rule="evenodd" fill-opacity="1" /><path clip-path="url(#clip660)" d="M1882.83 157.836 Q1877.67 157.836 1875.68 159.017 Q1873.69 160.197 1873.69 163.045 Q1873.69 165.313 1875.17 166.656 Q1876.68 167.975 1879.25 167.975 Q1882.79 167.975 1884.92 165.475 Q1887.07 162.952 1887.07 158.785 L1887.07 157.836 L1882.83 157.836 M1891.33 156.077 L1891.33 170.869 L1887.07 170.869 L1887.07 166.933 Q1885.61 169.295 1883.44 170.429 Q1881.26 171.54 1878.11 171.54 Q1874.13 171.54 1871.77 169.318 Q1869.43 167.072 1869.43 163.322 Q1869.43 158.947 1872.35 156.725 Q1875.29 154.503 1881.1 154.503 L1887.07 154.503 L1887.07 154.086 Q1887.07 151.147 1885.13 149.549 Q1883.2 147.929 1879.71 147.929 Q1877.49 147.929 1875.38 148.461 Q1873.27 148.994 1871.33 150.059 L1871.33 146.123 Q1873.67 145.221 1875.87 144.781 Q1878.07 144.318 1880.15 144.318 Q1885.77 144.318 1888.55 147.234 Q1891.33 150.151 1891.33 156.077 Z" fill="#000000" fill-rule="evenodd" fill-opacity="1" /><path clip-path="url(#clip660)" d="M1897.63 144.943 L1901.88 144.943 L1907.21 165.174 L1912.51 144.943 L1917.53 144.943 L1922.86 165.174 L1928.16 144.943 L1932.42 144.943 L1925.63 170.869 L1920.61 170.869 L1915.03 149.619 L1909.43 170.869 L1904.41 170.869 L1897.63 144.943 Z" fill="#000000" fill-rule="evenodd" fill-opacity="1" /><polyline clip-path="url(#clip660)" style="stroke:#3da44d; stroke-linecap:butt; stroke-linejoin:round; stroke-width:4; stroke-opacity:1; fill:none" points="
  1519.96,214.069 1662.64,214.069 
  "/>
<path clip-path="url(#clip660)" d="M1691.1 200.631 L1691.1 213.617 L1696.98 213.617 Q1700.24 213.617 1702.02 211.927 Q1703.81 210.238 1703.81 207.113 Q1703.81 204.011 1702.02 202.321 Q1700.24 200.631 1696.98 200.631 L1691.1 200.631 M1686.42 196.789 L1696.98 196.789 Q1702.79 196.789 1705.75 199.427 Q1708.74 202.043 1708.74 207.113 Q1708.74 212.228 1705.75 214.844 Q1702.79 217.46 1696.98 217.46 L1691.1 217.46 L1691.1 231.349 L1686.42 231.349 L1686.42 196.789 Z" fill="#000000" fill-rule="evenodd" fill-opacity="1" /><path clip-path="url(#clip660)" d="M1723.18 208.409 Q1719.76 208.409 1717.77 211.094 Q1715.77 213.756 1715.77 218.409 Q1715.77 223.062 1717.74 225.747 Q1719.73 228.409 1723.18 228.409 Q1726.58 228.409 1728.58 225.724 Q1730.57 223.038 1730.57 218.409 Q1730.57 213.802 1728.58 211.117 Q1726.58 208.409 1723.18 208.409 M1723.18 204.798 Q1728.74 204.798 1731.91 208.409 Q1735.08 212.02 1735.08 218.409 Q1735.08 224.775 1731.91 228.409 Q1728.74 232.02 1723.18 232.02 Q1717.6 232.02 1714.43 228.409 Q1711.28 224.775 1711.28 218.409 Q1711.28 212.02 1714.43 208.409 Q1717.6 204.798 1723.18 204.798 Z" fill="#000000" fill-rule="evenodd" fill-opacity="1" /><path clip-path="url(#clip660)" d="M1739.66 205.423 L1743.92 205.423 L1749.25 225.654 L1754.55 205.423 L1759.57 205.423 L1764.89 225.654 L1770.2 205.423 L1774.45 205.423 L1767.67 231.349 L1762.65 231.349 L1757.07 210.099 L1751.47 231.349 L1746.45 231.349 L1739.66 205.423 Z" fill="#000000" fill-rule="evenodd" fill-opacity="1" /><path clip-path="url(#clip660)" d="M1803.09 217.321 L1803.09 219.404 L1783.51 219.404 Q1783.78 223.802 1786.14 226.117 Q1788.53 228.409 1792.76 228.409 Q1795.22 228.409 1797.51 227.807 Q1799.83 227.205 1802.09 226.001 L1802.09 230.029 Q1799.8 231.001 1797.39 231.511 Q1794.99 232.02 1792.51 232.02 Q1786.31 232.02 1782.67 228.409 Q1779.06 224.798 1779.06 218.64 Q1779.06 212.275 1782.49 208.548 Q1785.94 204.798 1791.77 204.798 Q1797 204.798 1800.03 208.177 Q1803.09 211.534 1803.09 217.321 M1798.83 216.071 Q1798.78 212.576 1796.86 210.492 Q1794.96 208.409 1791.82 208.409 Q1788.25 208.409 1786.1 210.423 Q1783.97 212.437 1783.64 216.094 L1798.83 216.071 Z" fill="#000000" fill-rule="evenodd" fill-opacity="1" /><path clip-path="url(#clip660)" d="M1825.1 209.404 Q1824.39 208.988 1823.53 208.802 Q1822.7 208.594 1821.68 208.594 Q1818.07 208.594 1816.12 210.955 Q1814.2 213.293 1814.2 217.691 L1814.2 231.349 L1809.92 231.349 L1809.92 205.423 L1814.2 205.423 L1814.2 209.451 Q1815.54 207.089 1817.7 205.955 Q1819.85 204.798 1822.93 204.798 Q1823.37 204.798 1823.9 204.867 Q1824.43 204.914 1825.08 205.029 L1825.1 209.404 Z" fill="#000000" fill-rule="evenodd" fill-opacity="1" /><path clip-path="url(#clip660)" d="M1844.82 196.789 L1849.5 196.789 L1849.5 227.413 L1866.33 227.413 L1866.33 231.349 L1844.82 231.349 L1844.82 196.789 Z" fill="#000000" fill-rule="evenodd" fill-opacity="1" /><path clip-path="url(#clip660)" d="M1882.83 218.316 Q1877.67 218.316 1875.68 219.497 Q1873.69 220.677 1873.69 223.525 Q1873.69 225.793 1875.17 227.136 Q1876.68 228.455 1879.25 228.455 Q1882.79 228.455 1884.92 225.955 Q1887.07 223.432 1887.07 219.265 L1887.07 218.316 L1882.83 218.316 M1891.33 216.557 L1891.33 231.349 L1887.07 231.349 L1887.07 227.413 Q1885.61 229.775 1883.44 230.909 Q1881.26 232.02 1878.11 232.02 Q1874.13 232.02 1871.77 229.798 Q1869.43 227.552 1869.43 223.802 Q1869.43 219.427 1872.35 217.205 Q1875.29 214.983 1881.1 214.983 L1887.07 214.983 L1887.07 214.566 Q1887.07 211.627 1885.13 210.029 Q1883.2 208.409 1879.71 208.409 Q1877.49 208.409 1875.38 208.941 Q1873.27 209.474 1871.33 210.539 L1871.33 206.603 Q1873.67 205.701 1875.87 205.261 Q1878.07 204.798 1880.15 204.798 Q1885.77 204.798 1888.55 207.714 Q1891.33 210.631 1891.33 216.557 Z" fill="#000000" fill-rule="evenodd" fill-opacity="1" /><path clip-path="url(#clip660)" d="M1897.63 205.423 L1901.88 205.423 L1907.21 225.654 L1912.51 205.423 L1917.53 205.423 L1922.86 225.654 L1928.16 205.423 L1932.42 205.423 L1925.63 231.349 L1920.61 231.349 L1915.03 210.099 L1909.43 231.349 L1904.41 231.349 L1897.63 205.423 Z" fill="#000000" fill-rule="evenodd" fill-opacity="1" /><path clip-path="url(#clip660)" d="M1964.18 195.377 Q1961.07 200.701 1959.57 205.909 Q1958.06 211.117 1958.06 216.464 Q1958.06 221.812 1959.57 227.066 Q1961.1 232.298 1964.18 237.599 L1960.47 237.599 Q1957 232.159 1955.26 226.904 Q1953.55 221.65 1953.55 216.464 Q1953.55 211.302 1955.26 206.071 Q1956.98 200.84 1960.47 195.377 L1964.18 195.377 Z" fill="#000000" fill-rule="evenodd" fill-opacity="1" /><path clip-path="url(#clip660)" d="M1993.99 215.701 L1993.99 231.349 L1989.73 231.349 L1989.73 215.839 Q1989.73 212.159 1988.3 210.33 Q1986.86 208.502 1983.99 208.502 Q1980.54 208.502 1978.55 210.701 Q1976.56 212.9 1976.56 216.696 L1976.56 231.349 L1972.28 231.349 L1972.28 205.423 L1976.56 205.423 L1976.56 209.451 Q1978.09 207.113 1980.15 205.955 Q1982.23 204.798 1984.94 204.798 Q1989.41 204.798 1991.7 207.576 Q1993.99 210.33 1993.99 215.701 Z" fill="#000000" fill-rule="evenodd" fill-opacity="1" /><path clip-path="url(#clip660)" d="M2012.53 208.409 Q2009.11 208.409 2007.12 211.094 Q2005.12 213.756 2005.12 218.409 Q2005.12 223.062 2007.09 225.747 Q2009.08 228.409 2012.53 228.409 Q2015.94 228.409 2017.93 225.724 Q2019.92 223.038 2019.92 218.409 Q2019.92 213.802 2017.93 211.117 Q2015.94 208.409 2012.53 208.409 M2012.53 204.798 Q2018.09 204.798 2021.26 208.409 Q2024.43 212.02 2024.43 218.409 Q2024.43 224.775 2021.26 228.409 Q2018.09 232.02 2012.53 232.02 Q2006.95 232.02 2003.78 228.409 Q2000.63 224.775 2000.63 218.409 Q2000.63 212.02 2003.78 208.409 Q2006.95 204.798 2012.53 204.798 Z" fill="#000000" fill-rule="evenodd" fill-opacity="1" /><path clip-path="url(#clip660)" d="M2056.61 208.409 Q2053.18 208.409 2051.19 211.094 Q2049.2 213.756 2049.2 218.409 Q2049.2 223.062 2051.17 225.747 Q2053.16 228.409 2056.61 228.409 Q2060.01 228.409 2062 225.724 Q2063.99 223.038 2063.99 218.409 Q2063.99 213.802 2062 211.117 Q2060.01 208.409 2056.61 208.409 M2056.61 204.798 Q2062.16 204.798 2065.33 208.409 Q2068.5 212.02 2068.5 218.409 Q2068.5 224.775 2065.33 228.409 Q2062.16 232.02 2056.61 232.02 Q2051.03 232.02 2047.86 228.409 Q2044.71 224.775 2044.71 218.409 Q2044.71 212.02 2047.86 208.409 Q2051.03 204.798 2056.61 204.798 Z" fill="#000000" fill-rule="evenodd" fill-opacity="1" /><path clip-path="url(#clip660)" d="M2075.12 221.117 L2075.12 205.423 L2079.38 205.423 L2079.38 220.955 Q2079.38 224.636 2080.82 226.488 Q2082.25 228.316 2085.12 228.316 Q2088.57 228.316 2090.56 226.117 Q2092.58 223.918 2092.58 220.122 L2092.58 205.423 L2096.84 205.423 L2096.84 231.349 L2092.58 231.349 L2092.58 227.367 Q2091.03 229.728 2088.97 230.886 Q2086.93 232.02 2084.22 232.02 Q2079.75 232.02 2077.44 229.242 Q2075.12 226.464 2075.12 221.117 M2085.84 204.798 L2085.84 204.798 Z" fill="#000000" fill-rule="evenodd" fill-opacity="1" /><path clip-path="url(#clip660)" d="M2109.82 198.062 L2109.82 205.423 L2118.6 205.423 L2118.6 208.733 L2109.82 208.733 L2109.82 222.807 Q2109.82 225.978 2110.68 226.881 Q2111.56 227.784 2114.22 227.784 L2118.6 227.784 L2118.6 231.349 L2114.22 231.349 Q2109.29 231.349 2107.42 229.52 Q2105.54 227.668 2105.54 222.807 L2105.54 208.733 L2102.42 208.733 L2102.42 205.423 L2105.54 205.423 L2105.54 198.062 L2109.82 198.062 Z" fill="#000000" fill-rule="evenodd" fill-opacity="1" /><path clip-path="url(#clip660)" d="M2124.2 195.33 L2128.46 195.33 L2128.46 231.349 L2124.2 231.349 L2124.2 195.33 Z" fill="#000000" fill-rule="evenodd" fill-opacity="1" /><path clip-path="url(#clip660)" d="M2137.37 205.423 L2141.63 205.423 L2141.63 231.349 L2137.37 231.349 L2137.37 205.423 M2137.37 195.33 L2141.63 195.33 L2141.63 200.724 L2137.37 200.724 L2137.37 195.33 Z" fill="#000000" fill-rule="evenodd" fill-opacity="1" /><path clip-path="url(#clip660)" d="M2172.72 217.321 L2172.72 219.404 L2153.13 219.404 Q2153.41 223.802 2155.77 226.117 Q2158.16 228.409 2162.39 228.409 Q2164.85 228.409 2167.14 227.807 Q2169.45 227.205 2171.72 226.001 L2171.72 230.029 Q2169.43 231.001 2167.02 231.511 Q2164.61 232.02 2162.14 232.02 Q2155.93 232.02 2152.3 228.409 Q2148.69 224.798 2148.69 218.64 Q2148.69 212.275 2152.11 208.548 Q2155.56 204.798 2161.4 204.798 Q2166.63 204.798 2169.66 208.177 Q2172.72 211.534 2172.72 217.321 M2168.46 216.071 Q2168.41 212.576 2166.49 210.492 Q2164.59 208.409 2161.44 208.409 Q2157.88 208.409 2155.73 210.423 Q2153.6 212.437 2153.27 216.094 L2168.46 216.071 Z" fill="#000000" fill-rule="evenodd" fill-opacity="1" /><path clip-path="url(#clip660)" d="M2194.73 209.404 Q2194.01 208.988 2193.16 208.802 Q2192.32 208.594 2191.3 208.594 Q2187.69 208.594 2185.75 210.955 Q2183.83 213.293 2183.83 217.691 L2183.83 231.349 L2179.55 231.349 L2179.55 205.423 L2183.83 205.423 L2183.83 209.451 Q2185.17 207.089 2187.32 205.955 Q2189.48 204.798 2192.55 204.798 Q2192.99 204.798 2193.53 204.867 Q2194.06 204.914 2194.71 205.029 L2194.73 209.404 Z" fill="#000000" fill-rule="evenodd" fill-opacity="1" /><path clip-path="url(#clip660)" d="M2215.73 206.187 L2215.73 210.214 Q2213.92 209.289 2211.98 208.826 Q2210.03 208.363 2207.95 208.363 Q2204.78 208.363 2203.18 209.335 Q2201.61 210.307 2201.61 212.251 Q2201.61 213.733 2202.74 214.589 Q2203.87 215.423 2207.3 216.187 L2208.76 216.511 Q2213.3 217.483 2215.19 219.265 Q2217.11 221.025 2217.11 224.196 Q2217.11 227.807 2214.24 229.913 Q2211.4 232.02 2206.4 232.02 Q2204.31 232.02 2202.05 231.603 Q2199.8 231.21 2197.3 230.4 L2197.3 226.001 Q2199.66 227.228 2201.95 227.853 Q2204.24 228.455 2206.49 228.455 Q2209.5 228.455 2211.12 227.437 Q2212.74 226.395 2212.74 224.52 Q2212.74 222.784 2211.56 221.858 Q2210.4 220.932 2206.44 220.076 L2204.96 219.728 Q2201 218.895 2199.24 217.182 Q2197.48 215.446 2197.48 212.437 Q2197.48 208.779 2200.08 206.789 Q2202.67 204.798 2207.44 204.798 Q2209.8 204.798 2211.88 205.145 Q2213.97 205.492 2215.73 206.187 Z" fill="#000000" fill-rule="evenodd" fill-opacity="1" /><path clip-path="url(#clip660)" d="M2223.23 195.377 L2226.93 195.377 Q2230.4 200.84 2232.11 206.071 Q2233.85 211.302 2233.85 216.464 Q2233.85 221.65 2232.11 226.904 Q2230.4 232.159 2226.93 237.599 L2223.23 237.599 Q2226.3 232.298 2227.81 227.066 Q2229.34 221.812 2229.34 216.464 Q2229.34 211.117 2227.81 205.909 Q2226.3 200.701 2223.23 195.377 Z" fill="#000000" fill-rule="evenodd" fill-opacity="1" /></svg>
