<?xml version="1.0" encoding="utf-8"?>
<svg xmlns="http://www.w3.org/2000/svg" xmlns:xlink="http://www.w3.org/1999/xlink" width="600" height="400" viewBox="0 0 2400 1600">
<defs>
  <clipPath id="clip620">
    <rect x="0" y="0" width="2400" height="1600"/>
  </clipPath>
</defs>
<path clip-path="url(#clip620)" d="
M0 1600 L2400 1600 L2400 0 L0 0  Z
  " fill="#ffffff" fill-rule="evenodd" fill-opacity="1"/>
<defs>
  <clipPath id="clip621">
    <rect x="480" y="0" width="1681" height="1600"/>
  </clipPath>
</defs>
<path clip-path="url(#clip620)" d="
M212.459 1423.18 L2352.76 1423.18 L2352.76 47.2441 L212.459 47.2441  Z
  " fill="#ffffff" fill-rule="evenodd" fill-opacity="1"/>
<defs>
  <clipPath id="clip622">
    <rect x="212" y="47" width="2141" height="1377"/>
  </clipPath>
</defs>
<polyline clip-path="url(#clip622)" style="stroke:#000000; stroke-linecap:butt; stroke-linejoin:round; stroke-width:2; stroke-opacity:0.1; fill:none" points="
  273.033,1423.18 273.033,47.2441 
  "/>
<polyline clip-path="url(#clip622)" style="stroke:#000000; stroke-linecap:butt; stroke-linejoin:round; stroke-width:2; stroke-opacity:0.1; fill:none" points="
  866.691,1423.18 866.691,47.2441 
  "/>
<polyline clip-path="url(#clip622)" style="stroke:#000000; stroke-linecap:butt; stroke-linejoin:round; stroke-width:2; stroke-opacity:0.1; fill:none" points="
  1460.35,1423.18 1460.35,47.2441 
  "/>
<polyline clip-path="url(#clip622)" style="stroke:#000000; stroke-linecap:butt; stroke-linejoin:round; stroke-width:2; stroke-opacity:0.1; fill:none" points="
  2054.01,1423.18 2054.01,47.2441 
  "/>
<polyline clip-path="url(#clip620)" style="stroke:#000000; stroke-linecap:butt; stroke-linejoin:round; stroke-width:4; stroke-opacity:1; fill:none" points="
  212.459,1423.18 2352.76,1423.18 
  "/>
<polyline clip-path="url(#clip620)" style="stroke:#000000; stroke-linecap:butt; stroke-linejoin:round; stroke-width:4; stroke-opacity:1; fill:none" points="
  273.033,1423.18 273.033,1406.67 
  "/>
<polyline clip-path="url(#clip620)" style="stroke:#000000; stroke-linecap:butt; stroke-linejoin:round; stroke-width:4; stroke-opacity:1; fill:none" points="
  866.691,1423.18 866.691,1406.67 
  "/>
<polyline clip-path="url(#clip620)" style="stroke:#000000; stroke-linecap:butt; stroke-linejoin:round; stroke-width:4; stroke-opacity:1; fill:none" points="
  1460.35,1423.18 1460.35,1406.67 
  "/>
<polyline clip-path="url(#clip620)" style="stroke:#000000; stroke-linecap:butt; stroke-linejoin:round; stroke-width:4; stroke-opacity:1; fill:none" points="
  2054.01,1423.18 2054.01,1406.67 
  "/>
<path clip-path="url(#clip620)" d="M273.033 1452.37 Q269.422 1452.37 267.594 1455.94 Q265.788 1459.48 265.788 1466.61 Q265.788 1473.71 267.594 1477.28 Q269.422 1480.82 273.033 1480.82 Q276.668 1480.82 278.473 1477.28 Q280.302 1473.71 280.302 1466.61 Q280.302 1459.48 278.473 1455.94 Q276.668 1452.37 273.033 1452.37 M273.033 1448.67 Q278.843 1448.67 281.899 1453.27 Q284.978 1457.86 284.978 1466.61 Q284.978 1475.33 281.899 1479.94 Q278.843 1484.52 273.033 1484.52 Q267.223 1484.52 264.145 1479.94 Q261.089 1475.33 261.089 1466.61 Q261.089 1457.86 264.145 1453.27 Q267.223 1448.67 273.033 1448.67 Z" fill="#000000" fill-rule="evenodd" fill-opacity="1" /><path clip-path="url(#clip620)" d="M857.073 1479.92 L864.712 1479.92 L864.712 1453.55 L856.402 1455.22 L856.402 1450.96 L864.666 1449.29 L869.342 1449.29 L869.342 1479.92 L876.981 1479.92 L876.981 1483.85 L857.073 1483.85 L857.073 1479.92 Z" fill="#000000" fill-rule="evenodd" fill-opacity="1" /><path clip-path="url(#clip620)" d="M1455 1479.92 L1471.32 1479.92 L1471.32 1483.85 L1449.38 1483.85 L1449.38 1479.92 Q1452.04 1477.16 1456.62 1472.53 Q1461.23 1467.88 1462.41 1466.54 Q1464.65 1464.01 1465.53 1462.28 Q1466.44 1460.52 1466.44 1458.83 Q1466.44 1456.07 1464.49 1454.34 Q1462.57 1452.6 1459.47 1452.6 Q1457.27 1452.6 1454.82 1453.37 Q1452.39 1454.13 1449.61 1455.68 L1449.61 1450.96 Q1452.43 1449.82 1454.89 1449.25 Q1457.34 1448.67 1459.38 1448.67 Q1464.75 1448.67 1467.94 1451.35 Q1471.14 1454.04 1471.14 1458.53 Q1471.14 1460.66 1470.33 1462.58 Q1469.54 1464.48 1467.43 1467.07 Q1466.85 1467.74 1463.75 1470.96 Q1460.65 1474.15 1455 1479.92 Z" fill="#000000" fill-rule="evenodd" fill-opacity="1" /><path clip-path="url(#clip620)" d="M2058.26 1465.22 Q2061.61 1465.94 2063.49 1468.2 Q2065.38 1470.47 2065.38 1473.81 Q2065.38 1478.92 2061.87 1481.72 Q2058.35 1484.52 2051.87 1484.52 Q2049.69 1484.52 2047.38 1484.08 Q2045.08 1483.67 2042.63 1482.81 L2042.63 1478.3 Q2044.57 1479.43 2046.89 1480.01 Q2049.2 1480.59 2051.73 1480.59 Q2056.13 1480.59 2058.42 1478.85 Q2060.73 1477.12 2060.73 1473.81 Q2060.73 1470.75 2058.58 1469.04 Q2056.45 1467.3 2052.63 1467.3 L2048.6 1467.3 L2048.6 1463.46 L2052.82 1463.46 Q2056.26 1463.46 2058.09 1462.09 Q2059.92 1460.7 2059.92 1458.11 Q2059.92 1455.45 2058.02 1454.04 Q2056.15 1452.6 2052.63 1452.6 Q2050.71 1452.6 2048.51 1453.02 Q2046.31 1453.44 2043.67 1454.31 L2043.67 1450.15 Q2046.33 1449.41 2048.65 1449.04 Q2050.99 1448.67 2053.05 1448.67 Q2058.37 1448.67 2061.47 1451.1 Q2064.57 1453.5 2064.57 1457.63 Q2064.57 1460.5 2062.93 1462.49 Q2061.29 1464.45 2058.26 1465.22 Z" fill="#000000" fill-rule="evenodd" fill-opacity="1" /><path clip-path="url(#clip620)" d="M1154.55 1518.52 L1160.4 1518.52 L1160.4 1568.04 L1154.55 1568.04 L1154.55 1518.52 Z" fill="#000000" fill-rule="evenodd" fill-opacity="1" /><path clip-path="url(#clip620)" d="M1186.47 1536.5 Q1181.76 1536.5 1179.02 1540.19 Q1176.28 1543.85 1176.28 1550.25 Q1176.28 1556.65 1178.99 1560.34 Q1181.73 1564 1186.47 1564 Q1191.15 1564 1193.89 1560.31 Q1196.62 1556.62 1196.62 1550.25 Q1196.62 1543.92 1193.89 1540.23 Q1191.15 1536.5 1186.47 1536.5 M1186.47 1531.54 Q1194.11 1531.54 1198.47 1536.5 Q1202.83 1541.47 1202.83 1550.25 Q1202.83 1559 1198.47 1564 Q1194.11 1568.97 1186.47 1568.97 Q1178.8 1568.97 1174.44 1564 Q1170.11 1559 1170.11 1550.25 Q1170.11 1541.47 1174.44 1536.5 Q1178.8 1531.54 1186.47 1531.54 Z" fill="#000000" fill-rule="evenodd" fill-opacity="1" /><path clip-path="url(#clip620)" d="M1235.99 1549.81 Q1235.99 1543.44 1233.35 1539.94 Q1230.74 1536.44 1226 1536.44 Q1221.29 1536.44 1218.65 1539.94 Q1216.04 1543.44 1216.04 1549.81 Q1216.04 1556.14 1218.65 1559.64 Q1221.29 1563.14 1226 1563.14 Q1230.74 1563.14 1233.35 1559.64 Q1235.99 1556.14 1235.99 1549.81 M1241.85 1563.62 Q1241.85 1572.72 1237.81 1577.15 Q1233.77 1581.6 1225.43 1581.6 Q1222.34 1581.6 1219.6 1581.13 Q1216.87 1580.68 1214.29 1579.72 L1214.29 1574.03 Q1216.87 1575.43 1219.38 1576.1 Q1221.89 1576.76 1224.5 1576.76 Q1230.27 1576.76 1233.13 1573.74 Q1235.99 1570.75 1235.99 1564.67 L1235.99 1561.77 Q1234.18 1564.92 1231.35 1566.48 Q1228.51 1568.04 1224.57 1568.04 Q1218.01 1568.04 1214 1563.05 Q1209.99 1558.05 1209.99 1549.81 Q1209.99 1541.53 1214 1536.53 Q1218.01 1531.54 1224.57 1531.54 Q1228.51 1531.54 1231.35 1533.1 Q1234.18 1534.66 1235.99 1537.81 L1235.99 1532.4 L1241.85 1532.4 L1241.85 1563.62 Z" fill="#000000" fill-rule="evenodd" fill-opacity="1" /><path clip-path="url(#clip620)" d="M1267.98 1518.58 Q1263.72 1525.9 1261.65 1533.06 Q1259.58 1540.23 1259.58 1547.58 Q1259.58 1554.93 1261.65 1562.16 Q1263.75 1569.35 1267.98 1576.64 L1262.89 1576.64 Q1258.12 1569.16 1255.73 1561.93 Q1253.37 1554.71 1253.37 1547.58 Q1253.37 1540.48 1255.73 1533.29 Q1258.08 1526.09 1262.89 1518.58 L1267.98 1518.58 Z" fill="#000000" fill-rule="evenodd" fill-opacity="1" /><path clip-path="url(#clip620)" d="M1279.6 1520.52 L1286.03 1520.52 L1286.03 1562.63 L1309.17 1562.63 L1309.17 1568.04 L1279.6 1568.04 L1279.6 1520.52 Z" fill="#000000" fill-rule="evenodd" fill-opacity="1" /><path clip-path="url(#clip620)" d="M1331.86 1550.12 Q1324.76 1550.12 1322.03 1551.75 Q1319.29 1553.37 1319.29 1557.29 Q1319.29 1560.4 1321.33 1562.25 Q1323.4 1564.07 1326.93 1564.07 Q1331.8 1564.07 1334.73 1560.63 Q1337.69 1557.16 1337.69 1551.43 L1337.69 1550.12 L1331.86 1550.12 M1343.54 1547.71 L1343.54 1568.04 L1337.69 1568.04 L1337.69 1562.63 Q1335.68 1565.88 1332.69 1567.44 Q1329.7 1568.97 1325.37 1568.97 Q1319.89 1568.97 1316.65 1565.91 Q1313.43 1562.82 1313.43 1557.67 Q1313.43 1551.65 1317.44 1548.6 Q1321.49 1545.54 1329.47 1545.54 L1337.69 1545.54 L1337.69 1544.97 Q1337.69 1540.93 1335.01 1538.73 Q1332.37 1536.5 1327.57 1536.5 Q1324.51 1536.5 1321.61 1537.23 Q1318.72 1537.97 1316.04 1539.43 L1316.04 1534.02 Q1319.26 1532.78 1322.28 1532.17 Q1325.31 1531.54 1328.17 1531.54 Q1335.9 1531.54 1339.72 1535.55 Q1343.54 1539.56 1343.54 1547.71 Z" fill="#000000" fill-rule="evenodd" fill-opacity="1" /><path clip-path="url(#clip620)" d="M1379.06 1549.81 Q1379.06 1543.44 1376.42 1539.94 Q1373.81 1536.44 1369.07 1536.44 Q1364.36 1536.44 1361.72 1539.94 Q1359.11 1543.44 1359.11 1549.81 Q1359.11 1556.14 1361.72 1559.64 Q1364.36 1563.14 1369.07 1563.14 Q1373.81 1563.14 1376.42 1559.64 Q1379.06 1556.14 1379.06 1549.81 M1384.92 1563.62 Q1384.92 1572.72 1380.88 1577.15 Q1376.84 1581.6 1368.5 1581.6 Q1365.41 1581.6 1362.67 1581.13 Q1359.93 1580.68 1357.36 1579.72 L1357.36 1574.03 Q1359.93 1575.43 1362.45 1576.1 Q1364.96 1576.76 1367.57 1576.76 Q1373.33 1576.76 1376.2 1573.74 Q1379.06 1570.75 1379.06 1564.67 L1379.06 1561.77 Q1377.25 1564.92 1374.42 1566.48 Q1371.58 1568.04 1367.64 1568.04 Q1361.08 1568.04 1357.07 1563.05 Q1353.06 1558.05 1353.06 1549.81 Q1353.06 1541.53 1357.07 1536.53 Q1361.08 1531.54 1367.64 1531.54 Q1371.58 1531.54 1374.42 1533.1 Q1377.25 1534.66 1379.06 1537.81 L1379.06 1532.4 L1384.92 1532.4 L1384.92 1563.62 Z" fill="#000000" fill-rule="evenodd" fill-opacity="1" /><path clip-path="url(#clip620)" d="M1396.06 1518.58 L1401.15 1518.58 Q1405.93 1526.09 1408.28 1533.29 Q1410.67 1540.48 1410.67 1547.58 Q1410.67 1554.71 1408.28 1561.93 Q1405.93 1569.16 1401.15 1576.64 L1396.06 1576.64 Q1400.29 1569.35 1402.36 1562.16 Q1404.46 1554.93 1404.46 1547.58 Q1404.46 1540.23 1402.36 1533.06 Q1400.29 1525.9 1396.06 1518.58 Z" fill="#000000" fill-rule="evenodd" fill-opacity="1" /><polyline clip-path="url(#clip622)" style="stroke:#000000; stroke-linecap:butt; stroke-linejoin:round; stroke-width:2; stroke-opacity:0.1; fill:none" points="
  212.459,1166.84 2352.76,1166.84 
  "/>
<polyline clip-path="url(#clip622)" style="stroke:#000000; stroke-linecap:butt; stroke-linejoin:round; stroke-width:2; stroke-opacity:0.1; fill:none" points="
  212.459,896.679 2352.76,896.679 
  "/>
<polyline clip-path="url(#clip622)" style="stroke:#000000; stroke-linecap:butt; stroke-linejoin:round; stroke-width:2; stroke-opacity:0.1; fill:none" points="
  212.459,626.515 2352.76,626.515 
  "/>
<polyline clip-path="url(#clip622)" style="stroke:#000000; stroke-linecap:butt; stroke-linejoin:round; stroke-width:2; stroke-opacity:0.1; fill:none" points="
  212.459,356.35 2352.76,356.35 
  "/>
<polyline clip-path="url(#clip622)" style="stroke:#000000; stroke-linecap:butt; stroke-linejoin:round; stroke-width:2; stroke-opacity:0.1; fill:none" points="
  212.459,86.1857 2352.76,86.1857 
  "/>
<polyline clip-path="url(#clip620)" style="stroke:#000000; stroke-linecap:butt; stroke-linejoin:round; stroke-width:4; stroke-opacity:1; fill:none" points="
  212.459,1423.18 212.459,47.2441 
  "/>
<polyline clip-path="url(#clip620)" style="stroke:#000000; stroke-linecap:butt; stroke-linejoin:round; stroke-width:4; stroke-opacity:1; fill:none" points="
  212.459,1166.84 238.142,1166.84 
  "/>
<polyline clip-path="url(#clip620)" style="stroke:#000000; stroke-linecap:butt; stroke-linejoin:round; stroke-width:4; stroke-opacity:1; fill:none" points="
  212.459,896.679 238.142,896.679 
  "/>
<polyline clip-path="url(#clip620)" style="stroke:#000000; stroke-linecap:butt; stroke-linejoin:round; stroke-width:4; stroke-opacity:1; fill:none" points="
  212.459,626.515 238.142,626.515 
  "/>
<polyline clip-path="url(#clip620)" style="stroke:#000000; stroke-linecap:butt; stroke-linejoin:round; stroke-width:4; stroke-opacity:1; fill:none" points="
  212.459,356.35 238.142,356.35 
  "/>
<polyline clip-path="url(#clip620)" style="stroke:#000000; stroke-linecap:butt; stroke-linejoin:round; stroke-width:4; stroke-opacity:1; fill:none" points="
  212.459,86.1857 238.142,86.1857 
  "/>
<path clip-path="url(#clip620)" d="M114.26 1167.29 L143.936 1167.29 L143.936 1171.23 L114.26 1171.23 L114.26 1167.29 Z" fill="#000000" fill-rule="evenodd" fill-opacity="1" /><path clip-path="url(#clip620)" d="M166.876 1153.64 L155.07 1172.09 L166.876 1172.09 L166.876 1153.64 M165.649 1149.56 L171.528 1149.56 L171.528 1172.09 L176.459 1172.09 L176.459 1175.98 L171.528 1175.98 L171.528 1184.12 L166.876 1184.12 L166.876 1175.98 L151.274 1175.98 L151.274 1171.46 L165.649 1149.56 Z" fill="#000000" fill-rule="evenodd" fill-opacity="1" /><path clip-path="url(#clip620)" d="M115.394 897.13 L145.07 897.13 L145.07 901.066 L115.394 901.066 L115.394 897.13 Z" fill="#000000" fill-rule="evenodd" fill-opacity="1" /><path clip-path="url(#clip620)" d="M169.329 895.325 Q172.686 896.042 174.561 898.311 Q176.459 900.58 176.459 903.913 Q176.459 909.029 172.94 911.829 Q169.422 914.63 162.94 914.63 Q160.765 914.63 158.45 914.191 Q156.158 913.774 153.704 912.917 L153.704 908.404 Q155.649 909.538 157.964 910.116 Q160.278 910.695 162.802 910.695 Q167.2 910.695 169.491 908.959 Q171.806 907.223 171.806 903.913 Q171.806 900.857 169.653 899.144 Q167.524 897.408 163.704 897.408 L159.677 897.408 L159.677 893.566 L163.89 893.566 Q167.339 893.566 169.167 892.2 Q170.996 890.811 170.996 888.218 Q170.996 885.556 169.098 884.144 Q167.223 882.709 163.704 882.709 Q161.783 882.709 159.584 883.126 Q157.385 883.543 154.746 884.422 L154.746 880.256 Q157.408 879.515 159.723 879.144 Q162.061 878.774 164.121 878.774 Q169.445 878.774 172.547 881.205 Q175.649 883.612 175.649 887.732 Q175.649 890.603 174.005 892.593 Q172.362 894.561 169.329 895.325 Z" fill="#000000" fill-rule="evenodd" fill-opacity="1" /><path clip-path="url(#clip620)" d="M116.343 626.966 L146.019 626.966 L146.019 630.901 L116.343 630.901 L116.343 626.966 Z" fill="#000000" fill-rule="evenodd" fill-opacity="1" /><path clip-path="url(#clip620)" d="M160.14 639.859 L176.459 639.859 L176.459 643.795 L154.515 643.795 L154.515 639.859 Q157.177 637.105 161.76 632.475 Q166.366 627.822 167.547 626.48 Q169.792 623.957 170.672 622.221 Q171.575 620.461 171.575 618.772 Q171.575 616.017 169.63 614.281 Q167.709 612.545 164.607 612.545 Q162.408 612.545 159.954 613.309 Q157.524 614.073 154.746 615.623 L154.746 610.901 Q157.57 609.767 160.024 609.188 Q162.477 608.61 164.515 608.61 Q169.885 608.61 173.079 611.295 Q176.274 613.98 176.274 618.471 Q176.274 620.6 175.464 622.522 Q174.677 624.42 172.57 627.012 Q171.991 627.684 168.889 630.901 Q165.788 634.096 160.14 639.859 Z" fill="#000000" fill-rule="evenodd" fill-opacity="1" /><path clip-path="url(#clip620)" d="M115.973 356.802 L145.649 356.802 L145.649 360.737 L115.973 360.737 L115.973 356.802 Z" fill="#000000" fill-rule="evenodd" fill-opacity="1" /><path clip-path="url(#clip620)" d="M156.552 369.695 L164.19 369.695 L164.19 343.329 L155.88 344.996 L155.88 340.737 L164.144 339.07 L168.82 339.07 L168.82 369.695 L176.459 369.695 L176.459 373.63 L156.552 373.63 L156.552 369.695 Z" fill="#000000" fill-rule="evenodd" fill-opacity="1" /><path clip-path="url(#clip620)" d="M164.515 71.9844 Q160.903 71.9844 159.075 75.5492 Q157.269 79.0908 157.269 86.2204 Q157.269 93.3268 159.075 96.8916 Q160.903 100.433 164.515 100.433 Q168.149 100.433 169.954 96.8916 Q171.783 93.3268 171.783 86.2204 Q171.783 79.0908 169.954 75.5492 Q168.149 71.9844 164.515 71.9844 M164.515 68.2807 Q170.325 68.2807 173.38 72.8871 Q176.459 77.4704 176.459 86.2204 Q176.459 94.9472 173.38 99.5537 Q170.325 104.137 164.515 104.137 Q158.704 104.137 155.626 99.5537 Q152.57 94.9472 152.57 86.2204 Q152.57 77.4704 155.626 72.8871 Q158.704 68.2807 164.515 68.2807 Z" fill="#000000" fill-rule="evenodd" fill-opacity="1" /><path clip-path="url(#clip620)" d="M14.479 984.175 L14.479 978.318 L64.0042 978.318 L64.0042 984.175 L14.479 984.175 Z" fill="#000000" fill-rule="evenodd" fill-opacity="1" /><path clip-path="url(#clip620)" d="M32.4621 952.251 Q32.4621 956.961 36.1542 959.699 Q39.8145 962.436 46.212 962.436 Q52.6095 962.436 56.3017 959.73 Q59.9619 956.993 59.9619 952.251 Q59.9619 947.572 56.2698 944.835 Q52.5777 942.097 46.212 942.097 Q39.8781 942.097 36.186 944.835 Q32.4621 947.572 32.4621 952.251 M27.4968 952.251 Q27.4968 944.612 32.4621 940.251 Q37.4273 935.891 46.212 935.891 Q54.9649 935.891 59.9619 940.251 Q64.9272 944.612 64.9272 952.251 Q64.9272 959.921 59.9619 964.282 Q54.9649 968.611 46.212 968.611 Q37.4273 968.611 32.4621 964.282 Q27.4968 959.921 27.4968 952.251 Z" fill="#000000" fill-rule="evenodd" fill-opacity="1" /><path clip-path="url(#clip620)" d="M45.7664 902.726 Q39.4007 902.726 35.8996 905.367 Q32.3984 907.977 32.3984 912.72 Q32.3984 917.43 35.8996 920.072 Q39.4007 922.682 45.7664 922.682 Q52.1003 922.682 55.6014 920.072 Q59.1026 917.43 59.1026 912.72 Q59.1026 907.977 55.6014 905.367 Q52.1003 902.726 45.7664 902.726 M59.58 896.869 Q68.683 896.869 73.1071 900.911 Q77.5631 904.954 77.5631 913.293 Q77.5631 916.38 77.0857 919.117 Q76.6401 921.854 75.6852 924.433 L69.9879 924.433 Q71.3884 921.854 72.0568 919.34 Q72.7252 916.826 72.7252 914.216 Q72.7252 908.455 69.7015 905.59 Q66.7096 902.726 60.6303 902.726 L57.7339 902.726 Q60.885 904.54 62.4446 907.373 Q64.0042 910.205 64.0042 914.152 Q64.0042 920.709 59.0071 924.719 Q54.01 928.729 45.7664 928.729 Q37.491 928.729 32.4939 924.719 Q27.4968 920.709 27.4968 914.152 Q27.4968 910.205 29.0564 907.373 Q30.616 904.54 33.7671 902.726 L28.3562 902.726 L28.3562 896.869 L59.58 896.869 Z" fill="#000000" fill-rule="evenodd" fill-opacity="1" /><path clip-path="url(#clip620)" d="M14.5426 870.738 Q21.8632 875.003 29.0246 877.072 Q36.186 879.141 43.5384 879.141 Q50.8908 879.141 58.1159 877.072 Q65.3091 874.971 72.5979 870.738 L72.5979 875.83 Q65.1182 880.605 57.8931 882.992 Q50.668 885.347 43.5384 885.347 Q36.4406 885.347 29.2474 882.992 Q22.0542 880.637 14.5426 875.83 L14.5426 870.738 Z" fill="#000000" fill-rule="evenodd" fill-opacity="1" /><path clip-path="url(#clip620)" d="M20.1444 823.536 L26.9239 823.536 Q23.9002 826.783 22.4043 830.475 Q20.9083 834.135 20.9083 838.273 Q20.9083 846.421 25.9054 850.75 Q30.8707 855.078 40.2919 855.078 Q49.6813 855.078 54.6784 850.75 Q59.6436 846.421 59.6436 838.273 Q59.6436 834.135 58.1477 830.475 Q56.6518 826.783 53.6281 823.536 L60.3439 823.536 Q62.6355 826.91 63.7814 830.698 Q64.9272 834.453 64.9272 838.655 Q64.9272 849.445 58.3387 855.651 Q51.7183 861.858 40.2919 861.858 Q28.8336 861.858 22.2451 855.651 Q15.6248 849.445 15.6248 838.655 Q15.6248 834.39 16.7706 830.634 Q17.8846 826.846 20.1444 823.536 Z" fill="#000000" fill-rule="evenodd" fill-opacity="1" /><path clip-path="url(#clip620)" d="M32.4621 800.047 Q32.4621 804.757 36.1542 807.495 Q39.8145 810.232 46.212 810.232 Q52.6095 810.232 56.3017 807.526 Q59.9619 804.789 59.9619 800.047 Q59.9619 795.368 56.2698 792.631 Q52.5777 789.893 46.212 789.893 Q39.8781 789.893 36.186 792.631 Q32.4621 795.368 32.4621 800.047 M27.4968 800.047 Q27.4968 792.408 32.4621 788.047 Q37.4273 783.687 46.212 783.687 Q54.9649 783.687 59.9619 788.047 Q64.9272 792.408 64.9272 800.047 Q64.9272 807.717 59.9619 812.078 Q54.9649 816.407 46.212 816.407 Q37.4273 816.407 32.4621 812.078 Q27.4968 807.717 27.4968 800.047 Z" fill="#000000" fill-rule="evenodd" fill-opacity="1" /><path clip-path="url(#clip620)" d="M33.8307 753.322 Q33.2578 754.309 33.0032 755.487 Q32.7167 756.633 32.7167 758.033 Q32.7167 762.998 35.9632 765.672 Q39.1779 768.314 45.2253 768.314 L64.0042 768.314 L64.0042 774.202 L28.3562 774.202 L28.3562 768.314 L33.8944 768.314 Q30.6479 766.468 29.0883 763.508 Q27.4968 760.547 27.4968 756.314 Q27.4968 755.71 27.5923 754.977 Q27.656 754.245 27.8151 753.354 L33.8307 753.322 Z" fill="#000000" fill-rule="evenodd" fill-opacity="1" /><path clip-path="url(#clip620)" d="M33.8307 727.669 Q33.2578 728.655 33.0032 729.833 Q32.7167 730.979 32.7167 732.379 Q32.7167 737.344 35.9632 740.018 Q39.1779 742.66 45.2253 742.66 L64.0042 742.66 L64.0042 748.548 L28.3562 748.548 L28.3562 742.66 L33.8944 742.66 Q30.6479 740.814 29.0883 737.854 Q27.4968 734.894 27.4968 730.66 Q27.4968 730.056 27.5923 729.324 Q27.656 728.592 27.8151 727.7 L33.8307 727.669 Z" fill="#000000" fill-rule="evenodd" fill-opacity="1" /><path clip-path="url(#clip620)" d="M44.7161 692.466 L47.5806 692.466 L47.5806 719.393 Q53.6281 719.011 56.8109 715.765 Q59.9619 712.486 59.9619 706.662 Q59.9619 703.288 59.1344 700.137 Q58.3069 696.954 56.6518 693.835 L62.1899 693.835 Q63.5267 696.986 64.227 700.296 Q64.9272 703.606 64.9272 707.012 Q64.9272 715.542 59.9619 720.539 Q54.9967 725.504 46.5303 725.504 Q37.7774 725.504 32.6531 720.794 Q27.4968 716.051 27.4968 708.03 Q27.4968 700.837 32.1438 696.668 Q36.7589 692.466 44.7161 692.466 M42.9973 698.323 Q38.1912 698.386 35.3266 701.028 Q32.4621 703.638 32.4621 707.967 Q32.4621 712.868 35.2312 715.828 Q38.0002 718.757 43.0292 719.202 L42.9973 698.323 Z" fill="#000000" fill-rule="evenodd" fill-opacity="1" /><path clip-path="url(#clip620)" d="M14.479 682.854 L14.479 676.998 L64.0042 676.998 L64.0042 682.854 L14.479 682.854 Z" fill="#000000" fill-rule="evenodd" fill-opacity="1" /><path clip-path="url(#clip620)" d="M46.0847 648.543 Q46.0847 655.641 47.7079 658.378 Q49.3312 661.115 53.2461 661.115 Q56.3653 661.115 58.2114 659.078 Q60.0256 657.009 60.0256 653.476 Q60.0256 648.607 56.5881 645.678 Q53.1188 642.718 47.3897 642.718 L46.0847 642.718 L46.0847 648.543 M43.6657 636.862 L64.0042 636.862 L64.0042 642.718 L58.5933 642.718 Q61.8398 644.723 63.3994 647.715 Q64.9272 650.707 64.9272 655.036 Q64.9272 660.51 61.8716 663.757 Q58.7843 666.972 53.6281 666.972 Q47.6125 666.972 44.5569 662.961 Q41.5014 658.919 41.5014 650.93 L41.5014 642.718 L40.9285 642.718 Q36.8862 642.718 34.6901 645.392 Q32.4621 648.034 32.4621 652.84 Q32.4621 655.895 33.1941 658.792 Q33.9262 661.688 35.3903 664.362 L29.9795 664.362 Q28.7381 661.147 28.1334 658.123 Q27.4968 655.1 27.4968 652.235 Q27.4968 644.501 31.5072 640.681 Q35.5176 636.862 43.6657 636.862 Z" fill="#000000" fill-rule="evenodd" fill-opacity="1" /><path clip-path="url(#clip620)" d="M18.2347 619.006 L28.3562 619.006 L28.3562 606.943 L32.9077 606.943 L32.9077 619.006 L52.2594 619.006 Q56.6199 619.006 57.8613 617.828 Q59.1026 616.619 59.1026 612.959 L59.1026 606.943 L64.0042 606.943 L64.0042 612.959 Q64.0042 619.738 61.4897 622.316 Q58.9434 624.894 52.2594 624.894 L32.9077 624.894 L32.9077 629.191 L28.3562 629.191 L28.3562 624.894 L18.2347 624.894 L18.2347 619.006 Z" fill="#000000" fill-rule="evenodd" fill-opacity="1" /><path clip-path="url(#clip620)" d="M28.3562 599.24 L28.3562 593.384 L64.0042 593.384 L64.0042 599.24 L28.3562 599.24 M14.479 599.24 L14.479 593.384 L21.895 593.384 L21.895 599.24 L14.479 599.24 Z" fill="#000000" fill-rule="evenodd" fill-opacity="1" /><path clip-path="url(#clip620)" d="M32.4621 567.316 Q32.4621 572.027 36.1542 574.764 Q39.8145 577.502 46.212 577.502 Q52.6095 577.502 56.3017 574.796 Q59.9619 572.059 59.9619 567.316 Q59.9619 562.638 56.2698 559.9 Q52.5777 557.163 46.212 557.163 Q39.8781 557.163 36.186 559.9 Q32.4621 562.638 32.4621 567.316 M27.4968 567.316 Q27.4968 559.678 32.4621 555.317 Q37.4273 550.957 46.212 550.957 Q54.9649 550.957 59.9619 555.317 Q64.9272 559.678 64.9272 567.316 Q64.9272 574.987 59.9619 579.348 Q54.9649 583.676 46.212 583.676 Q37.4273 583.676 32.4621 579.348 Q27.4968 574.987 27.4968 567.316 Z" fill="#000000" fill-rule="evenodd" fill-opacity="1" /><path clip-path="url(#clip620)" d="M42.4881 511.617 L64.0042 511.617 L64.0042 517.473 L42.679 517.473 Q37.6183 517.473 35.1038 519.446 Q32.5894 521.42 32.5894 525.366 Q32.5894 530.109 35.6131 532.846 Q38.6368 535.583 43.8567 535.583 L64.0042 535.583 L64.0042 541.472 L28.3562 541.472 L28.3562 535.583 L33.8944 535.583 Q30.6797 533.483 29.0883 530.65 Q27.4968 527.785 27.4968 524.061 Q27.4968 517.919 31.3163 514.768 Q35.1038 511.617 42.4881 511.617 Z" fill="#000000" fill-rule="evenodd" fill-opacity="1" /><path clip-path="url(#clip620)" d="M14.5426 500.858 L14.5426 495.766 Q22.0542 490.992 29.2474 488.636 Q36.4406 486.249 43.5384 486.249 Q50.668 486.249 57.8931 488.636 Q65.1182 490.992 72.5979 495.766 L72.5979 500.858 Q65.3091 496.625 58.1159 494.556 Q50.8908 492.456 43.5384 492.456 Q36.186 492.456 29.0246 494.556 Q21.8632 496.625 14.5426 500.858 Z" fill="#000000" fill-rule="evenodd" fill-opacity="1" /><circle clip-path="url(#clip622)" cx="273.033" cy="86.1857" r="14" fill="#009af9" fill-rule="evenodd" fill-opacity="1" stroke="#000000" stroke-opacity="1" stroke-width="3.2"/>
<circle clip-path="url(#clip622)" cx="684.526" cy="833.875" r="14" fill="#009af9" fill-rule="evenodd" fill-opacity="1" stroke="#000000" stroke-opacity="1" stroke-width="3.2"/>
<circle clip-path="url(#clip622)" cx="925.233" cy="1026.25" r="14" fill="#009af9" fill-rule="evenodd" fill-opacity="1" stroke="#000000" stroke-opacity="1" stroke-width="3.2"/>
<circle clip-path="url(#clip622)" cx="1096.02" cy="1276.6" r="14" fill="#009af9" fill-rule="evenodd" fill-opacity="1" stroke="#000000" stroke-opacity="1" stroke-width="3.2"/>
<circle clip-path="url(#clip622)" cx="1228.49" cy="1246.28" r="14" fill="#009af9" fill-rule="evenodd" fill-opacity="1" stroke="#000000" stroke-opacity="1" stroke-width="3.2"/>
<circle clip-path="url(#clip622)" cx="1336.73" cy="664.55" r="14" fill="#009af9" fill-rule="evenodd" fill-opacity="1" stroke="#000000" stroke-opacity="1" stroke-width="3.2"/>
<circle clip-path="url(#clip622)" cx="1428.24" cy="788.483" r="14" fill="#009af9" fill-rule="evenodd" fill-opacity="1" stroke="#000000" stroke-opacity="1" stroke-width="3.2"/>
<circle clip-path="url(#clip622)" cx="1507.51" cy="866.405" r="14" fill="#009af9" fill-rule="evenodd" fill-opacity="1" stroke="#000000" stroke-opacity="1" stroke-width="3.2"/>
<circle clip-path="url(#clip622)" cx="1577.43" cy="1384.24" r="14" fill="#009af9" fill-rule="evenodd" fill-opacity="1" stroke="#000000" stroke-opacity="1" stroke-width="3.2"/>
<circle clip-path="url(#clip622)" cx="1696.56" cy="826.292" r="14" fill="#009af9" fill-rule="evenodd" fill-opacity="1" stroke="#000000" stroke-opacity="1" stroke-width="3.2"/>
<circle clip-path="url(#clip622)" cx="1795.74" cy="814.435" r="14" fill="#009af9" fill-rule="evenodd" fill-opacity="1" stroke="#000000" stroke-opacity="1" stroke-width="3.2"/>
<circle clip-path="url(#clip622)" cx="1919" cy="1161.87" r="14" fill="#009af9" fill-rule="evenodd" fill-opacity="1" stroke="#000000" stroke-opacity="1" stroke-width="3.2"/>
<circle clip-path="url(#clip622)" cx="1954.99" cy="1171.81" r="14" fill="#009af9" fill-rule="evenodd" fill-opacity="1" stroke="#000000" stroke-opacity="1" stroke-width="3.2"/>
<circle clip-path="url(#clip622)" cx="1988.93" cy="916.945" r="14" fill="#009af9" fill-rule="evenodd" fill-opacity="1" stroke="#000000" stroke-opacity="1" stroke-width="3.2"/>
<circle clip-path="url(#clip622)" cx="2021.02" cy="1078" r="14" fill="#009af9" fill-rule="evenodd" fill-opacity="1" stroke="#000000" stroke-opacity="1" stroke-width="3.2"/>
<circle clip-path="url(#clip622)" cx="2108.06" cy="771.729" r="14" fill="#009af9" fill-rule="evenodd" fill-opacity="1" stroke="#000000" stroke-opacity="1" stroke-width="3.2"/>
<circle clip-path="url(#clip622)" cx="2134.44" cy="924.334" r="14" fill="#009af9" fill-rule="evenodd" fill-opacity="1" stroke="#000000" stroke-opacity="1" stroke-width="3.2"/>
<circle clip-path="url(#clip622)" cx="2251.22" cy="787.065" r="14" fill="#009af9" fill-rule="evenodd" fill-opacity="1" stroke="#000000" stroke-opacity="1" stroke-width="3.2"/>
<polyline clip-path="url(#clip622)" style="stroke:#e26f46; stroke-linecap:butt; stroke-linejoin:round; stroke-width:4; stroke-opacity:1; fill:none" points="
  273.033,686.543 684.526,762.852 925.233,807.49 1096.02,839.162 1228.49,863.728 1336.73,883.8 1428.24,900.77 1507.51,915.471 1577.43,928.438 1639.98,940.037 
  1696.56,950.53 1748.22,960.109 1795.74,968.921 1839.73,977.08 1880.69,984.675 1919,991.78 1954.99,998.455 1988.93,1004.75 2021.02,1010.7 2051.47,1016.35 
  2080.44,1021.72 2108.06,1026.84 2134.44,1031.73 2159.71,1036.42 2183.94,1040.91 2207.23,1045.23 2229.63,1049.39 2251.22,1053.39 2272.06,1057.25 2292.18,1060.98 
  
  "/>
<path clip-path="url(#clip620)" d="
M1797.61 214.069 L2281.41 214.069 L2281.41 93.1086 L1797.61 93.1086  Z
  " fill="#ffffff" fill-rule="evenodd" fill-opacity="1"/>
<polyline clip-path="url(#clip620)" style="stroke:#000000; stroke-linecap:butt; stroke-linejoin:round; stroke-width:4; stroke-opacity:1; fill:none" points="
  1797.61,214.069 2281.41,214.069 2281.41,93.1086 1797.61,93.1086 1797.61,214.069 
  "/>
<polyline clip-path="url(#clip620)" style="stroke:#e26f46; stroke-linecap:butt; stroke-linejoin:round; stroke-width:4; stroke-opacity:1; fill:none" points="
  1821.39,153.589 1964.08,153.589 
  "/>
<path clip-path="url(#clip620)" d="M1992.53 140.151 L1992.53 153.137 L1998.41 153.137 Q2001.68 153.137 2003.46 151.447 Q2005.24 149.758 2005.24 146.633 Q2005.24 143.531 2003.46 141.841 Q2001.68 140.151 1998.41 140.151 L1992.53 140.151 M1987.86 136.309 L1998.41 136.309 Q2004.22 136.309 2007.19 138.947 Q2010.17 141.563 2010.17 146.633 Q2010.17 151.748 2007.19 154.364 Q2004.22 156.98 1998.41 156.98 L1992.53 156.98 L1992.53 170.869 L1987.86 170.869 L1987.86 136.309 Z" fill="#000000" fill-rule="evenodd" fill-opacity="1" /><path clip-path="url(#clip620)" d="M2024.62 147.929 Q2021.19 147.929 2019.2 150.614 Q2017.21 153.276 2017.21 157.929 Q2017.21 162.582 2019.18 165.267 Q2021.17 167.929 2024.62 167.929 Q2028.02 167.929 2030.01 165.244 Q2032 162.558 2032 157.929 Q2032 153.322 2030.01 150.637 Q2028.02 147.929 2024.62 147.929 M2024.62 144.318 Q2030.17 144.318 2033.34 147.929 Q2036.51 151.54 2036.51 157.929 Q2036.51 164.295 2033.34 167.929 Q2030.17 171.54 2024.62 171.54 Q2019.04 171.54 2015.87 167.929 Q2012.72 164.295 2012.72 157.929 Q2012.72 151.54 2015.87 147.929 Q2019.04 144.318 2024.62 144.318 Z" fill="#000000" fill-rule="evenodd" fill-opacity="1" /><path clip-path="url(#clip620)" d="M2041.1 144.943 L2045.36 144.943 L2050.68 165.174 L2055.98 144.943 L2061 144.943 L2066.33 165.174 L2071.63 144.943 L2075.89 144.943 L2069.11 170.869 L2064.08 170.869 L2058.5 149.619 L2052.9 170.869 L2047.88 170.869 L2041.1 144.943 Z" fill="#000000" fill-rule="evenodd" fill-opacity="1" /><path clip-path="url(#clip620)" d="M2104.52 156.841 L2104.52 158.924 L2084.94 158.924 Q2085.22 163.322 2087.58 165.637 Q2089.96 167.929 2094.2 167.929 Q2096.65 167.929 2098.94 167.327 Q2101.26 166.725 2103.53 165.521 L2103.53 169.549 Q2101.24 170.521 2098.83 171.031 Q2096.42 171.54 2093.94 171.54 Q2087.74 171.54 2084.11 167.929 Q2080.49 164.318 2080.49 158.16 Q2080.49 151.795 2083.92 148.068 Q2087.37 144.318 2093.2 144.318 Q2098.43 144.318 2101.47 147.697 Q2104.52 151.054 2104.52 156.841 M2100.26 155.591 Q2100.22 152.096 2098.3 150.012 Q2096.4 147.929 2093.25 147.929 Q2089.68 147.929 2087.53 149.943 Q2085.4 151.957 2085.08 155.614 L2100.26 155.591 Z" fill="#000000" fill-rule="evenodd" fill-opacity="1" /><path clip-path="url(#clip620)" d="M2126.54 148.924 Q2125.82 148.508 2124.96 148.322 Q2124.13 148.114 2123.11 148.114 Q2119.5 148.114 2117.55 150.475 Q2115.63 152.813 2115.63 157.211 L2115.63 170.869 L2111.35 170.869 L2111.35 144.943 L2115.63 144.943 L2115.63 148.971 Q2116.98 146.609 2119.13 145.475 Q2121.28 144.318 2124.36 144.318 Q2124.8 144.318 2125.33 144.387 Q2125.86 144.434 2126.51 144.549 L2126.54 148.924 Z" fill="#000000" fill-rule="evenodd" fill-opacity="1" /><path clip-path="url(#clip620)" d="M2146.26 136.309 L2150.93 136.309 L2150.93 166.933 L2167.76 166.933 L2167.76 170.869 L2146.26 170.869 L2146.26 136.309 Z" fill="#000000" fill-rule="evenodd" fill-opacity="1" /><path clip-path="url(#clip620)" d="M2184.27 157.836 Q2179.11 157.836 2177.11 159.017 Q2175.12 160.197 2175.12 163.045 Q2175.12 165.313 2176.61 166.656 Q2178.11 167.975 2180.68 167.975 Q2184.22 167.975 2186.35 165.475 Q2188.5 162.952 2188.5 158.785 L2188.5 157.836 L2184.27 157.836 M2192.76 156.077 L2192.76 170.869 L2188.5 170.869 L2188.5 166.933 Q2187.05 169.295 2184.87 170.429 Q2182.69 171.54 2179.55 171.54 Q2175.56 171.54 2173.2 169.318 Q2170.86 167.072 2170.86 163.322 Q2170.86 158.947 2173.78 156.725 Q2176.72 154.503 2182.53 154.503 L2188.5 154.503 L2188.5 154.086 Q2188.5 151.147 2186.56 149.549 Q2184.64 147.929 2181.14 147.929 Q2178.92 147.929 2176.81 148.461 Q2174.71 148.994 2172.76 150.059 L2172.76 146.123 Q2175.1 145.221 2177.3 144.781 Q2179.5 144.318 2181.58 144.318 Q2187.21 144.318 2189.99 147.234 Q2192.76 150.151 2192.76 156.077 Z" fill="#000000" fill-rule="evenodd" fill-opacity="1" /><path clip-path="url(#clip620)" d="M2199.06 144.943 L2203.32 144.943 L2208.64 165.174 L2213.94 144.943 L2218.97 144.943 L2224.29 165.174 L2229.59 144.943 L2233.85 144.943 L2227.07 170.869 L2222.05 170.869 L2216.47 149.619 L2210.86 170.869 L2205.84 170.869 L2199.06 144.943 Z" fill="#000000" fill-rule="evenodd" fill-opacity="1" /></svg>
