<?xml version="1.0" encoding="utf-8"?>
<svg xmlns="http://www.w3.org/2000/svg" xmlns:xlink="http://www.w3.org/1999/xlink" width="600" height="400" viewBox="0 0 2400 1600">
<defs>
  <clipPath id="clip540">
    <rect x="0" y="0" width="2400" height="1600"/>
  </clipPath>
</defs>
<path clip-path="url(#clip540)" d="
M0 1600 L2400 1600 L2400 0 L0 0  Z
  " fill="#ffffff" fill-rule="evenodd" fill-opacity="1"/>
<defs>
  <clipPath id="clip541">
    <rect x="480" y="0" width="1681" height="1600"/>
  </clipPath>
</defs>
<path clip-path="url(#clip540)" d="
M224.098 1486.45 L2352.76 1486.45 L2352.76 47.2441 L224.098 47.2441  Z
  " fill="#ffffff" fill-rule="evenodd" fill-opacity="1"/>
<defs>
  <clipPath id="clip542">
    <rect x="224" y="47" width="2130" height="1440"/>
  </clipPath>
</defs>
<polyline clip-path="url(#clip542)" style="stroke:#000000; stroke-linecap:butt; stroke-linejoin:round; stroke-width:2; stroke-opacity:0.1; fill:none" points="
  518.091,1486.45 518.091,47.2441 
  "/>
<polyline clip-path="url(#clip542)" style="stroke:#000000; stroke-linecap:butt; stroke-linejoin:round; stroke-width:2; stroke-opacity:0.1; fill:none" points="
  1015.9,1486.45 1015.9,47.2441 
  "/>
<polyline clip-path="url(#clip542)" style="stroke:#000000; stroke-linecap:butt; stroke-linejoin:round; stroke-width:2; stroke-opacity:0.1; fill:none" points="
  1513.71,1486.45 1513.71,47.2441 
  "/>
<polyline clip-path="url(#clip542)" style="stroke:#000000; stroke-linecap:butt; stroke-linejoin:round; stroke-width:2; stroke-opacity:0.1; fill:none" points="
  2011.52,1486.45 2011.52,47.2441 
  "/>
<polyline clip-path="url(#clip540)" style="stroke:#000000; stroke-linecap:butt; stroke-linejoin:round; stroke-width:4; stroke-opacity:1; fill:none" points="
  224.098,1486.45 2352.76,1486.45 
  "/>
<polyline clip-path="url(#clip540)" style="stroke:#000000; stroke-linecap:butt; stroke-linejoin:round; stroke-width:4; stroke-opacity:1; fill:none" points="
  518.091,1486.45 518.091,1469.18 
  "/>
<polyline clip-path="url(#clip540)" style="stroke:#000000; stroke-linecap:butt; stroke-linejoin:round; stroke-width:4; stroke-opacity:1; fill:none" points="
  1015.9,1486.45 1015.9,1469.18 
  "/>
<polyline clip-path="url(#clip540)" style="stroke:#000000; stroke-linecap:butt; stroke-linejoin:round; stroke-width:4; stroke-opacity:1; fill:none" points="
  1513.71,1486.45 1513.71,1469.18 
  "/>
<polyline clip-path="url(#clip540)" style="stroke:#000000; stroke-linecap:butt; stroke-linejoin:round; stroke-width:4; stroke-opacity:1; fill:none" points="
  2011.52,1486.45 2011.52,1469.18 
  "/>
<path clip-path="url(#clip540)" d="M487.281 1530.29 L516.957 1530.29 L516.957 1534.23 L487.281 1534.23 L487.281 1530.29 Z" fill="#000000" fill-rule="evenodd" fill-opacity="1" /><path clip-path="url(#clip540)" d="M537.049 1530.71 Q533.716 1530.71 531.795 1532.49 Q529.897 1534.27 529.897 1537.4 Q529.897 1540.52 531.795 1542.31 Q533.716 1544.09 537.049 1544.09 Q540.383 1544.09 542.304 1542.31 Q544.225 1540.5 544.225 1537.4 Q544.225 1534.27 542.304 1532.49 Q540.406 1530.71 537.049 1530.71 M532.374 1528.72 Q529.364 1527.98 527.675 1525.92 Q526.008 1523.86 526.008 1520.89 Q526.008 1516.75 528.948 1514.34 Q531.911 1511.93 537.049 1511.93 Q542.211 1511.93 545.151 1514.34 Q548.091 1516.75 548.091 1520.89 Q548.091 1523.86 546.401 1525.92 Q544.735 1527.98 541.749 1528.72 Q545.128 1529.5 547.003 1531.8 Q548.901 1534.09 548.901 1537.4 Q548.901 1542.42 545.823 1545.11 Q542.767 1547.79 537.049 1547.79 Q531.332 1547.79 528.253 1545.11 Q525.198 1542.42 525.198 1537.4 Q525.198 1534.09 527.096 1531.8 Q528.994 1529.5 532.374 1528.72 M530.661 1521.33 Q530.661 1524.02 532.327 1525.52 Q534.017 1527.03 537.049 1527.03 Q540.059 1527.03 541.749 1525.52 Q543.461 1524.02 543.461 1521.33 Q543.461 1518.65 541.749 1517.14 Q540.059 1515.64 537.049 1515.64 Q534.017 1515.64 532.327 1517.14 Q530.661 1518.65 530.661 1521.33 Z" fill="#000000" fill-rule="evenodd" fill-opacity="1" /><path clip-path="url(#clip540)" d="M984.964 1530.29 L1014.64 1530.29 L1014.64 1534.23 L984.964 1534.23 L984.964 1530.29 Z" fill="#000000" fill-rule="evenodd" fill-opacity="1" /><path clip-path="url(#clip540)" d="M1035.31 1527.98 Q1032.16 1527.98 1030.31 1530.13 Q1028.48 1532.28 1028.48 1536.03 Q1028.48 1539.76 1030.31 1541.93 Q1032.16 1544.09 1035.31 1544.09 Q1038.46 1544.09 1040.29 1541.93 Q1042.14 1539.76 1042.14 1536.03 Q1042.14 1532.28 1040.29 1530.13 Q1038.46 1527.98 1035.31 1527.98 M1044.59 1513.32 L1044.59 1517.58 Q1042.83 1516.75 1041.03 1516.31 Q1039.25 1515.87 1037.49 1515.87 Q1032.86 1515.87 1030.4 1519 Q1027.97 1522.12 1027.63 1528.44 Q1028.99 1526.43 1031.05 1525.36 Q1033.11 1524.27 1035.59 1524.27 Q1040.8 1524.27 1043.81 1527.44 Q1046.84 1530.59 1046.84 1536.03 Q1046.84 1541.36 1043.69 1544.57 Q1040.54 1547.79 1035.31 1547.79 Q1029.32 1547.79 1026.14 1543.21 Q1022.97 1538.6 1022.97 1529.87 Q1022.97 1521.68 1026.86 1516.82 Q1030.75 1511.93 1037.3 1511.93 Q1039.06 1511.93 1040.84 1512.28 Q1042.65 1512.63 1044.59 1513.32 Z" fill="#000000" fill-rule="evenodd" fill-opacity="1" /><path clip-path="url(#clip540)" d="M1482.61 1530.29 L1512.29 1530.29 L1512.29 1534.23 L1482.61 1534.23 L1482.61 1530.29 Z" fill="#000000" fill-rule="evenodd" fill-opacity="1" /><path clip-path="url(#clip540)" d="M1535.23 1516.63 L1523.42 1535.08 L1535.23 1535.08 L1535.23 1516.63 M1534 1512.56 L1539.88 1512.56 L1539.88 1535.08 L1544.81 1535.08 L1544.81 1538.97 L1539.88 1538.97 L1539.88 1547.12 L1535.23 1547.12 L1535.23 1538.97 L1519.63 1538.97 L1519.63 1534.46 L1534 1512.56 Z" fill="#000000" fill-rule="evenodd" fill-opacity="1" /><path clip-path="url(#clip540)" d="M1981.46 1530.29 L2011.14 1530.29 L2011.14 1534.23 L1981.46 1534.23 L1981.46 1530.29 Z" fill="#000000" fill-rule="evenodd" fill-opacity="1" /><path clip-path="url(#clip540)" d="M2025.26 1543.18 L2041.58 1543.18 L2041.58 1547.12 L2019.63 1547.12 L2019.63 1543.18 Q2022.3 1540.43 2026.88 1535.8 Q2031.49 1531.15 2032.67 1529.81 Q2034.91 1527.28 2035.79 1525.55 Q2036.69 1523.79 2036.69 1522.1 Q2036.69 1519.34 2034.75 1517.61 Q2032.83 1515.87 2029.73 1515.87 Q2027.53 1515.87 2025.07 1516.63 Q2022.64 1517.4 2019.87 1518.95 L2019.87 1514.23 Q2022.69 1513.09 2025.14 1512.51 Q2027.6 1511.93 2029.63 1511.93 Q2035 1511.93 2038.2 1514.62 Q2041.39 1517.31 2041.39 1521.8 Q2041.39 1523.93 2040.58 1525.85 Q2039.8 1527.74 2037.69 1530.34 Q2037.11 1531.01 2034.01 1534.23 Q2030.91 1537.42 2025.26 1543.18 Z" fill="#000000" fill-rule="evenodd" fill-opacity="1" /><polyline clip-path="url(#clip542)" style="stroke:#000000; stroke-linecap:butt; stroke-linejoin:round; stroke-width:2; stroke-opacity:0.1; fill:none" points="
  224.098,1384.59 2352.76,1384.59 
  "/>
<polyline clip-path="url(#clip542)" style="stroke:#000000; stroke-linecap:butt; stroke-linejoin:round; stroke-width:2; stroke-opacity:0.1; fill:none" points="
  224.098,1025.47 2352.76,1025.47 
  "/>
<polyline clip-path="url(#clip542)" style="stroke:#000000; stroke-linecap:butt; stroke-linejoin:round; stroke-width:2; stroke-opacity:0.1; fill:none" points="
  224.098,666.358 2352.76,666.358 
  "/>
<polyline clip-path="url(#clip542)" style="stroke:#000000; stroke-linecap:butt; stroke-linejoin:round; stroke-width:2; stroke-opacity:0.1; fill:none" points="
  224.098,307.243 2352.76,307.243 
  "/>
<polyline clip-path="url(#clip540)" style="stroke:#000000; stroke-linecap:butt; stroke-linejoin:round; stroke-width:4; stroke-opacity:1; fill:none" points="
  224.098,1486.45 224.098,47.2441 
  "/>
<polyline clip-path="url(#clip540)" style="stroke:#000000; stroke-linecap:butt; stroke-linejoin:round; stroke-width:4; stroke-opacity:1; fill:none" points="
  224.098,1384.59 249.642,1384.59 
  "/>
<polyline clip-path="url(#clip540)" style="stroke:#000000; stroke-linecap:butt; stroke-linejoin:round; stroke-width:4; stroke-opacity:1; fill:none" points="
  224.098,1025.47 249.642,1025.47 
  "/>
<polyline clip-path="url(#clip540)" style="stroke:#000000; stroke-linecap:butt; stroke-linejoin:round; stroke-width:4; stroke-opacity:1; fill:none" points="
  224.098,666.358 249.642,666.358 
  "/>
<polyline clip-path="url(#clip540)" style="stroke:#000000; stroke-linecap:butt; stroke-linejoin:round; stroke-width:4; stroke-opacity:1; fill:none" points="
  224.098,307.243 249.642,307.243 
  "/>
<path clip-path="url(#clip540)" d="M51.9875 1385.04 L81.6633 1385.04 L81.6633 1388.97 L51.9875 1388.97 L51.9875 1385.04 Z" fill="#000000" fill-rule="evenodd" fill-opacity="1" /><path clip-path="url(#clip540)" d="M92.566 1397.93 L100.205 1397.93 L100.205 1371.57 L91.8947 1373.23 L91.8947 1368.97 L100.159 1367.31 L104.834 1367.31 L104.834 1397.93 L112.473 1397.93 L112.473 1401.87 L92.566 1401.87 L92.566 1397.93 Z" fill="#000000" fill-rule="evenodd" fill-opacity="1" /><path clip-path="url(#clip540)" d="M122.728 1397.93 L130.367 1397.93 L130.367 1371.57 L122.057 1373.23 L122.057 1368.97 L130.32 1367.31 L134.996 1367.31 L134.996 1397.93 L142.635 1397.93 L142.635 1401.87 L122.728 1401.87 L122.728 1397.93 Z" fill="#000000" fill-rule="evenodd" fill-opacity="1" /><path clip-path="url(#clip540)" d="M152.08 1395.99 L156.964 1395.99 L156.964 1401.87 L152.08 1401.87 L152.08 1395.99 Z" fill="#000000" fill-rule="evenodd" fill-opacity="1" /><path clip-path="url(#clip540)" d="M167.195 1367.31 L185.552 1367.31 L185.552 1371.24 L171.478 1371.24 L171.478 1379.72 Q172.496 1379.37 173.515 1379.21 Q174.533 1379.02 175.552 1379.02 Q181.339 1379.02 184.718 1382.19 Q188.098 1385.36 188.098 1390.78 Q188.098 1396.36 184.626 1399.46 Q181.153 1402.54 174.834 1402.54 Q172.658 1402.54 170.39 1402.17 Q168.144 1401.8 165.737 1401.06 L165.737 1396.36 Q167.82 1397.49 170.042 1398.05 Q172.265 1398.6 174.741 1398.6 Q178.746 1398.6 181.084 1396.5 Q183.422 1394.39 183.422 1390.78 Q183.422 1387.17 181.084 1385.06 Q178.746 1382.96 174.741 1382.96 Q172.866 1382.96 170.991 1383.37 Q169.14 1383.79 167.195 1384.67 L167.195 1367.31 Z" fill="#000000" fill-rule="evenodd" fill-opacity="1" /><path clip-path="url(#clip540)" d="M50.9921 1025.92 L80.6679 1025.92 L80.6679 1029.86 L50.9921 1029.86 L50.9921 1025.92 Z" fill="#000000" fill-rule="evenodd" fill-opacity="1" /><path clip-path="url(#clip540)" d="M91.5706 1038.82 L99.2095 1038.82 L99.2095 1012.45 L90.8993 1014.12 L90.8993 1009.86 L99.1632 1008.19 L103.839 1008.19 L103.839 1038.82 L111.478 1038.82 L111.478 1042.75 L91.5706 1042.75 L91.5706 1038.82 Z" fill="#000000" fill-rule="evenodd" fill-opacity="1" /><path clip-path="url(#clip540)" d="M121.732 1038.82 L129.371 1038.82 L129.371 1012.45 L121.061 1014.12 L121.061 1009.86 L129.325 1008.19 L134.001 1008.19 L134.001 1038.82 L141.64 1038.82 L141.64 1042.75 L121.732 1042.75 L121.732 1038.82 Z" fill="#000000" fill-rule="evenodd" fill-opacity="1" /><path clip-path="url(#clip540)" d="M151.084 1036.87 L155.968 1036.87 L155.968 1042.75 L151.084 1042.75 L151.084 1036.87 Z" fill="#000000" fill-rule="evenodd" fill-opacity="1" /><path clip-path="url(#clip540)" d="M176.153 1011.27 Q172.542 1011.27 170.714 1014.84 Q168.908 1018.38 168.908 1025.51 Q168.908 1032.61 170.714 1036.18 Q172.542 1039.72 176.153 1039.72 Q179.788 1039.72 181.593 1036.18 Q183.422 1032.61 183.422 1025.51 Q183.422 1018.38 181.593 1014.84 Q179.788 1011.27 176.153 1011.27 M176.153 1007.57 Q181.964 1007.57 185.019 1012.17 Q188.098 1016.76 188.098 1025.51 Q188.098 1034.23 185.019 1038.84 Q181.964 1043.42 176.153 1043.42 Q170.343 1043.42 167.265 1038.84 Q164.209 1034.23 164.209 1025.51 Q164.209 1016.76 167.265 1012.17 Q170.343 1007.57 176.153 1007.57 Z" fill="#000000" fill-rule="evenodd" fill-opacity="1" /><path clip-path="url(#clip540)" d="M51.9875 666.809 L81.6633 666.809 L81.6633 670.744 L51.9875 670.744 L51.9875 666.809 Z" fill="#000000" fill-rule="evenodd" fill-opacity="1" /><path clip-path="url(#clip540)" d="M92.566 679.703 L100.205 679.703 L100.205 653.337 L91.8947 655.004 L91.8947 650.744 L100.159 649.078 L104.834 649.078 L104.834 679.703 L112.473 679.703 L112.473 683.638 L92.566 683.638 L92.566 679.703 Z" fill="#000000" fill-rule="evenodd" fill-opacity="1" /><path clip-path="url(#clip540)" d="M131.918 652.156 Q128.307 652.156 126.478 655.721 Q124.672 659.263 124.672 666.392 Q124.672 673.499 126.478 677.064 Q128.307 680.605 131.918 680.605 Q135.552 680.605 137.357 677.064 Q139.186 673.499 139.186 666.392 Q139.186 659.263 137.357 655.721 Q135.552 652.156 131.918 652.156 M131.918 648.453 Q137.728 648.453 140.783 653.059 Q143.862 657.642 143.862 666.392 Q143.862 675.119 140.783 679.726 Q137.728 684.309 131.918 684.309 Q126.107 684.309 123.029 679.726 Q119.973 675.119 119.973 666.392 Q119.973 657.642 123.029 653.059 Q126.107 648.453 131.918 648.453 Z" fill="#000000" fill-rule="evenodd" fill-opacity="1" /><path clip-path="url(#clip540)" d="M152.08 677.758 L156.964 677.758 L156.964 683.638 L152.08 683.638 L152.08 677.758 Z" fill="#000000" fill-rule="evenodd" fill-opacity="1" /><path clip-path="url(#clip540)" d="M167.195 649.078 L185.552 649.078 L185.552 653.013 L171.478 653.013 L171.478 661.485 Q172.496 661.138 173.515 660.976 Q174.533 660.791 175.552 660.791 Q181.339 660.791 184.718 663.962 Q188.098 667.133 188.098 672.55 Q188.098 678.128 184.626 681.23 Q181.153 684.309 174.834 684.309 Q172.658 684.309 170.39 683.939 Q168.144 683.568 165.737 682.828 L165.737 678.128 Q167.82 679.263 170.042 679.818 Q172.265 680.374 174.741 680.374 Q178.746 680.374 181.084 678.267 Q183.422 676.161 183.422 672.55 Q183.422 668.939 181.084 666.832 Q178.746 664.726 174.741 664.726 Q172.866 664.726 170.991 665.142 Q169.14 665.559 167.195 666.439 L167.195 649.078 Z" fill="#000000" fill-rule="evenodd" fill-opacity="1" /><path clip-path="url(#clip540)" d="M50.9921 307.694 L80.6679 307.694 L80.6679 311.629 L50.9921 311.629 L50.9921 307.694 Z" fill="#000000" fill-rule="evenodd" fill-opacity="1" /><path clip-path="url(#clip540)" d="M91.5706 320.587 L99.2095 320.587 L99.2095 294.222 L90.8993 295.888 L90.8993 291.629 L99.1632 289.963 L103.839 289.963 L103.839 320.587 L111.478 320.587 L111.478 324.523 L91.5706 324.523 L91.5706 320.587 Z" fill="#000000" fill-rule="evenodd" fill-opacity="1" /><path clip-path="url(#clip540)" d="M130.922 293.041 Q127.311 293.041 125.482 296.606 Q123.677 300.148 123.677 307.277 Q123.677 314.384 125.482 317.948 Q127.311 321.49 130.922 321.49 Q134.556 321.49 136.362 317.948 Q138.191 314.384 138.191 307.277 Q138.191 300.148 136.362 296.606 Q134.556 293.041 130.922 293.041 M130.922 289.338 Q136.732 289.338 139.788 293.944 Q142.867 298.527 142.867 307.277 Q142.867 316.004 139.788 320.61 Q136.732 325.194 130.922 325.194 Q125.112 325.194 122.033 320.61 Q118.978 316.004 118.978 307.277 Q118.978 298.527 122.033 293.944 Q125.112 289.338 130.922 289.338 Z" fill="#000000" fill-rule="evenodd" fill-opacity="1" /><path clip-path="url(#clip540)" d="M151.084 318.643 L155.968 318.643 L155.968 324.523 L151.084 324.523 L151.084 318.643 Z" fill="#000000" fill-rule="evenodd" fill-opacity="1" /><path clip-path="url(#clip540)" d="M176.153 293.041 Q172.542 293.041 170.714 296.606 Q168.908 300.148 168.908 307.277 Q168.908 314.384 170.714 317.948 Q172.542 321.49 176.153 321.49 Q179.788 321.49 181.593 317.948 Q183.422 314.384 183.422 307.277 Q183.422 300.148 181.593 296.606 Q179.788 293.041 176.153 293.041 M176.153 289.338 Q181.964 289.338 185.019 293.944 Q188.098 298.527 188.098 307.277 Q188.098 316.004 185.019 320.61 Q181.964 325.194 176.153 325.194 Q170.343 325.194 167.265 320.61 Q164.209 316.004 164.209 307.277 Q164.209 298.527 167.265 293.944 Q170.343 289.338 176.153 289.338 Z" fill="#000000" fill-rule="evenodd" fill-opacity="1" /><circle clip-path="url(#clip542)" cx="284.343" cy="623.336" r="14" fill="#009af9" fill-rule="evenodd" fill-opacity="1" stroke="#000000" stroke-opacity="1" stroke-width="3.2"/>
<circle clip-path="url(#clip542)" cx="1111.93" cy="746.155" r="14" fill="#009af9" fill-rule="evenodd" fill-opacity="1" stroke="#000000" stroke-opacity="1" stroke-width="3.2"/>
<circle clip-path="url(#clip542)" cx="1507.3" cy="798.92" r="14" fill="#009af9" fill-rule="evenodd" fill-opacity="1" stroke="#000000" stroke-opacity="1" stroke-width="3.2"/>
<circle clip-path="url(#clip542)" cx="2292.51" cy="517.325" r="14" fill="#009af9" fill-rule="evenodd" fill-opacity="1" stroke="#000000" stroke-opacity="1" stroke-width="3.2"/>
<circle clip-path="url(#clip542)" cx="730.587" cy="775.886" r="14" fill="#009af9" fill-rule="evenodd" fill-opacity="1" stroke="#000000" stroke-opacity="1" stroke-width="3.2"/>
<circle clip-path="url(#clip542)" cx="600.936" cy="669.578" r="14" fill="#009af9" fill-rule="evenodd" fill-opacity="1" stroke="#000000" stroke-opacity="1" stroke-width="3.2"/>
<circle clip-path="url(#clip542)" cx="975.273" cy="793.669" r="14" fill="#009af9" fill-rule="evenodd" fill-opacity="1" stroke="#000000" stroke-opacity="1" stroke-width="3.2"/>
<circle clip-path="url(#clip542)" cx="1278.87" cy="1209.56" r="14" fill="#009af9" fill-rule="evenodd" fill-opacity="1" stroke="#000000" stroke-opacity="1" stroke-width="3.2"/>
<circle clip-path="url(#clip542)" cx="1766.83" cy="409.146" r="14" fill="#009af9" fill-rule="evenodd" fill-opacity="1" stroke="#000000" stroke-opacity="1" stroke-width="3.2"/>
<circle clip-path="url(#clip542)" cx="850.522" cy="315.639" r="14" fill="#009af9" fill-rule="evenodd" fill-opacity="1" stroke="#000000" stroke-opacity="1" stroke-width="3.2"/>
<circle clip-path="url(#clip542)" cx="593.399" cy="371.559" r="14" fill="#e26f46" fill-rule="evenodd" fill-opacity="1" stroke="#000000" stroke-opacity="1" stroke-width="3.2"/>
<circle clip-path="url(#clip542)" cx="1127.61" cy="1339.36" r="14" fill="#e26f46" fill-rule="evenodd" fill-opacity="1" stroke="#000000" stroke-opacity="1" stroke-width="3.2"/>
<circle clip-path="url(#clip542)" cx="714.477" cy="837.04" r="14" fill="#e26f46" fill-rule="evenodd" fill-opacity="1" stroke="#000000" stroke-opacity="1" stroke-width="3.2"/>
<circle clip-path="url(#clip542)" cx="2276.04" cy="87.9763" r="14" fill="#e26f46" fill-rule="evenodd" fill-opacity="1" stroke="#000000" stroke-opacity="1" stroke-width="3.2"/>
<circle clip-path="url(#clip542)" cx="381.813" cy="647.23" r="14" fill="#e26f46" fill-rule="evenodd" fill-opacity="1" stroke="#000000" stroke-opacity="1" stroke-width="3.2"/>
<circle clip-path="url(#clip542)" cx="860.197" cy="628.037" r="14" fill="#e26f46" fill-rule="evenodd" fill-opacity="1" stroke="#000000" stroke-opacity="1" stroke-width="3.2"/>
<circle clip-path="url(#clip542)" cx="1016.87" cy="752.338" r="14" fill="#e26f46" fill-rule="evenodd" fill-opacity="1" stroke="#000000" stroke-opacity="1" stroke-width="3.2"/>
<circle clip-path="url(#clip542)" cx="1489.25" cy="875.604" r="14" fill="#e26f46" fill-rule="evenodd" fill-opacity="1" stroke="#000000" stroke-opacity="1" stroke-width="3.2"/>
<circle clip-path="url(#clip542)" cx="1756.61" cy="832.801" r="14" fill="#e26f46" fill-rule="evenodd" fill-opacity="1" stroke="#000000" stroke-opacity="1" stroke-width="3.2"/>
<circle clip-path="url(#clip542)" cx="1267.94" cy="1445.72" r="14" fill="#e26f46" fill-rule="evenodd" fill-opacity="1" stroke="#000000" stroke-opacity="1" stroke-width="3.2"/>
<path clip-path="url(#clip540)" d="
M1962.81 276.658 L2281.8 276.658 L2281.8 95.2176 L1962.81 95.2176  Z
  " fill="#ffffff" fill-rule="evenodd" fill-opacity="1"/>
<polyline clip-path="url(#clip540)" style="stroke:#000000; stroke-linecap:butt; stroke-linejoin:round; stroke-width:4; stroke-opacity:1; fill:none" points="
  1962.81,276.658 2281.8,276.658 2281.8,95.2176 1962.81,95.2176 1962.81,276.658 
  "/>
<circle clip-path="url(#clip540)" cx="2057.41" cy="155.698" r="23" fill="#009af9" fill-rule="evenodd" fill-opacity="1" stroke="#000000" stroke-opacity="1" stroke-width="5.12"/>
<path clip-path="url(#clip540)" d="M2170.79 160.038 Q2170.79 155.339 2168.85 152.677 Q2166.93 149.992 2163.55 149.992 Q2160.17 149.992 2158.22 152.677 Q2156.3 155.339 2156.3 160.038 Q2156.3 164.737 2158.22 167.422 Q2160.17 170.084 2163.55 170.084 Q2166.93 170.084 2168.85 167.422 Q2170.79 164.737 2170.79 160.038 M2156.3 150.987 Q2157.65 148.672 2159.68 147.561 Q2161.74 146.427 2164.59 146.427 Q2169.31 146.427 2172.25 150.177 Q2175.22 153.927 2175.22 160.038 Q2175.22 166.149 2172.25 169.899 Q2169.31 173.649 2164.59 173.649 Q2161.74 173.649 2159.68 172.538 Q2157.65 171.403 2156.3 169.089 L2156.3 172.978 L2152.02 172.978 L2152.02 136.959 L2156.3 136.959 L2156.3 150.987 Z" fill="#000000" fill-rule="evenodd" fill-opacity="1" /><path clip-path="url(#clip540)" d="M2181.84 162.746 L2181.84 147.052 L2186.09 147.052 L2186.09 162.584 Q2186.09 166.265 2187.53 168.116 Q2188.96 169.945 2191.84 169.945 Q2195.28 169.945 2197.28 167.746 Q2199.29 165.547 2199.29 161.751 L2199.29 147.052 L2203.55 147.052 L2203.55 172.978 L2199.29 172.978 L2199.29 168.996 Q2197.74 171.357 2195.68 172.515 Q2193.64 173.649 2190.93 173.649 Q2186.46 173.649 2184.15 170.871 Q2181.84 168.093 2181.84 162.746 M2192.55 146.427 L2192.55 146.427 Z" fill="#000000" fill-rule="evenodd" fill-opacity="1" /><path clip-path="url(#clip540)" d="M2223.11 175.385 Q2221.3 180.015 2219.59 181.427 Q2217.88 182.839 2215.01 182.839 L2211.6 182.839 L2211.6 179.274 L2214.1 179.274 Q2215.86 179.274 2216.84 178.44 Q2217.81 177.607 2218.99 174.505 L2219.75 172.561 L2209.27 147.052 L2213.78 147.052 L2221.88 167.329 L2229.98 147.052 L2234.5 147.052 L2223.11 175.385 Z" fill="#000000" fill-rule="evenodd" fill-opacity="1" /><circle clip-path="url(#clip540)" cx="2057.41" cy="216.178" r="23" fill="#e26f46" fill-rule="evenodd" fill-opacity="1" stroke="#000000" stroke-opacity="1" stroke-width="5.12"/>
<path clip-path="url(#clip540)" d="M2170.45 208.296 L2170.45 212.323 Q2168.64 211.397 2166.7 210.935 Q2164.75 210.472 2162.67 210.472 Q2159.5 210.472 2157.9 211.444 Q2156.33 212.416 2156.33 214.36 Q2156.33 215.842 2157.46 216.698 Q2158.59 217.532 2162.02 218.296 L2163.48 218.62 Q2168.02 219.592 2169.91 221.374 Q2171.84 223.134 2171.84 226.305 Q2171.84 229.916 2168.97 232.022 Q2166.12 234.129 2161.12 234.129 Q2159.03 234.129 2156.77 233.712 Q2154.52 233.319 2152.02 232.508 L2152.02 228.11 Q2154.38 229.337 2156.67 229.962 Q2158.97 230.564 2161.21 230.564 Q2164.22 230.564 2165.84 229.546 Q2167.46 228.504 2167.46 226.629 Q2167.46 224.893 2166.28 223.967 Q2165.12 223.041 2161.16 222.184 L2159.68 221.837 Q2155.72 221.004 2153.97 219.291 Q2152.21 217.555 2152.21 214.546 Q2152.21 210.888 2154.8 208.898 Q2157.39 206.907 2162.16 206.907 Q2164.52 206.907 2166.6 207.254 Q2168.69 207.601 2170.45 208.296 Z" fill="#000000" fill-rule="evenodd" fill-opacity="1" /><path clip-path="url(#clip540)" d="M2200.79 219.43 L2200.79 221.513 L2181.21 221.513 Q2181.49 225.911 2183.85 228.226 Q2186.23 230.518 2190.47 230.518 Q2192.92 230.518 2195.21 229.916 Q2197.53 229.314 2199.8 228.11 L2199.8 232.138 Q2197.51 233.11 2195.1 233.62 Q2192.69 234.129 2190.21 234.129 Q2184.01 234.129 2180.38 230.518 Q2176.77 226.907 2176.77 220.749 Q2176.77 214.384 2180.19 210.657 Q2183.64 206.907 2189.47 206.907 Q2194.71 206.907 2197.74 210.286 Q2200.79 213.643 2200.79 219.43 M2196.53 218.18 Q2196.49 214.685 2194.57 212.601 Q2192.67 210.518 2189.52 210.518 Q2185.96 210.518 2183.8 212.532 Q2181.67 214.546 2181.35 218.203 L2196.53 218.18 Z" fill="#000000" fill-rule="evenodd" fill-opacity="1" /><path clip-path="url(#clip540)" d="M2207.78 197.439 L2212.04 197.439 L2212.04 233.458 L2207.78 233.458 L2207.78 197.439 Z" fill="#000000" fill-rule="evenodd" fill-opacity="1" /><path clip-path="url(#clip540)" d="M2220.96 197.439 L2225.21 197.439 L2225.21 233.458 L2220.96 233.458 L2220.96 197.439 Z" fill="#000000" fill-rule="evenodd" fill-opacity="1" /></svg>
