<?xml version="1.0" encoding="utf-8"?>
<svg xmlns="http://www.w3.org/2000/svg" xmlns:xlink="http://www.w3.org/1999/xlink" width="600" height="400" viewBox="0 0 2400 1600">
<defs>
  <clipPath id="clip580">
    <rect x="0" y="0" width="2400" height="1600"/>
  </clipPath>
</defs>
<path clip-path="url(#clip580)" d="
M0 1600 L2400 1600 L2400 0 L0 0  Z
  " fill="#ffffff" fill-rule="evenodd" fill-opacity="1"/>
<defs>
  <clipPath id="clip581">
    <rect x="480" y="0" width="1681" height="1600"/>
  </clipPath>
</defs>
<path clip-path="url(#clip580)" d="
M249.542 1423.18 L1171.3 1423.18 L1171.3 47.2441 L249.542 47.2441  Z
  " fill="#ffffff" fill-rule="evenodd" fill-opacity="1"/>
<defs>
  <clipPath id="clip582">
    <rect x="249" y="47" width="923" height="1377"/>
  </clipPath>
</defs>
<polyline clip-path="url(#clip582)" style="stroke:#000000; stroke-linecap:butt; stroke-linejoin:round; stroke-width:2; stroke-opacity:0.1; fill:none" points="
  399.855,1423.18 399.855,47.2441 
  "/>
<polyline clip-path="url(#clip582)" style="stroke:#000000; stroke-linecap:butt; stroke-linejoin:round; stroke-width:2; stroke-opacity:0.1; fill:none" points="
  555.138,1423.18 555.138,47.2441 
  "/>
<polyline clip-path="url(#clip582)" style="stroke:#000000; stroke-linecap:butt; stroke-linejoin:round; stroke-width:2; stroke-opacity:0.1; fill:none" points="
  710.42,1423.18 710.42,47.2441 
  "/>
<polyline clip-path="url(#clip582)" style="stroke:#000000; stroke-linecap:butt; stroke-linejoin:round; stroke-width:2; stroke-opacity:0.1; fill:none" points="
  865.702,1423.18 865.702,47.2441 
  "/>
<polyline clip-path="url(#clip582)" style="stroke:#000000; stroke-linecap:butt; stroke-linejoin:round; stroke-width:2; stroke-opacity:0.1; fill:none" points="
  1020.98,1423.18 1020.98,47.2441 
  "/>
<polyline clip-path="url(#clip580)" style="stroke:#000000; stroke-linecap:butt; stroke-linejoin:round; stroke-width:4; stroke-opacity:1; fill:none" points="
  249.542,1423.18 1171.3,1423.18 
  "/>
<polyline clip-path="url(#clip580)" style="stroke:#000000; stroke-linecap:butt; stroke-linejoin:round; stroke-width:4; stroke-opacity:1; fill:none" points="
  399.855,1423.18 399.855,1406.67 
  "/>
<polyline clip-path="url(#clip580)" style="stroke:#000000; stroke-linecap:butt; stroke-linejoin:round; stroke-width:4; stroke-opacity:1; fill:none" points="
  555.138,1423.18 555.138,1406.67 
  "/>
<polyline clip-path="url(#clip580)" style="stroke:#000000; stroke-linecap:butt; stroke-linejoin:round; stroke-width:4; stroke-opacity:1; fill:none" points="
  710.42,1423.18 710.42,1406.67 
  "/>
<polyline clip-path="url(#clip580)" style="stroke:#000000; stroke-linecap:butt; stroke-linejoin:round; stroke-width:4; stroke-opacity:1; fill:none" points="
  865.702,1423.18 865.702,1406.67 
  "/>
<polyline clip-path="url(#clip580)" style="stroke:#000000; stroke-linecap:butt; stroke-linejoin:round; stroke-width:4; stroke-opacity:1; fill:none" points="
  1020.98,1423.18 1020.98,1406.67 
  "/>
<path clip-path="url(#clip580)" d="M390.133 1449.29 L408.489 1449.29 L408.489 1453.23 L394.415 1453.23 L394.415 1461.7 Q395.434 1461.35 396.452 1461.19 Q397.471 1461 398.49 1461 Q404.277 1461 407.656 1464.18 Q411.036 1467.35 411.036 1472.76 Q411.036 1478.34 407.564 1481.44 Q404.091 1484.52 397.772 1484.52 Q395.596 1484.52 393.328 1484.15 Q391.082 1483.78 388.675 1483.04 L388.675 1478.34 Q390.758 1479.48 392.98 1480.03 Q395.202 1480.59 397.679 1480.59 Q401.684 1480.59 404.022 1478.48 Q406.36 1476.38 406.36 1472.76 Q406.36 1469.15 404.022 1467.05 Q401.684 1464.94 397.679 1464.94 Q395.804 1464.94 393.929 1465.36 Q392.078 1465.77 390.133 1466.65 L390.133 1449.29 Z" fill="#000000" fill-rule="evenodd" fill-opacity="1" /><path clip-path="url(#clip580)" d="M529.825 1479.92 L537.464 1479.92 L537.464 1453.55 L529.154 1455.22 L529.154 1450.96 L537.418 1449.29 L542.094 1449.29 L542.094 1479.92 L549.732 1479.92 L549.732 1483.85 L529.825 1483.85 L529.825 1479.92 Z" fill="#000000" fill-rule="evenodd" fill-opacity="1" /><path clip-path="url(#clip580)" d="M569.177 1452.37 Q565.566 1452.37 563.737 1455.94 Q561.931 1459.48 561.931 1466.61 Q561.931 1473.71 563.737 1477.28 Q565.566 1480.82 569.177 1480.82 Q572.811 1480.82 574.617 1477.28 Q576.445 1473.71 576.445 1466.61 Q576.445 1459.48 574.617 1455.94 Q572.811 1452.37 569.177 1452.37 M569.177 1448.67 Q574.987 1448.67 578.042 1453.27 Q581.121 1457.86 581.121 1466.61 Q581.121 1475.33 578.042 1479.94 Q574.987 1484.52 569.177 1484.52 Q563.367 1484.52 560.288 1479.94 Q557.232 1475.33 557.232 1466.61 Q557.232 1457.86 560.288 1453.27 Q563.367 1448.67 569.177 1448.67 Z" fill="#000000" fill-rule="evenodd" fill-opacity="1" /><path clip-path="url(#clip580)" d="M685.605 1479.92 L693.244 1479.92 L693.244 1453.55 L684.934 1455.22 L684.934 1450.96 L693.198 1449.29 L697.874 1449.29 L697.874 1479.92 L705.512 1479.92 L705.512 1483.85 L685.605 1483.85 L685.605 1479.92 Z" fill="#000000" fill-rule="evenodd" fill-opacity="1" /><path clip-path="url(#clip580)" d="M715.003 1449.29 L733.359 1449.29 L733.359 1453.23 L719.285 1453.23 L719.285 1461.7 Q720.304 1461.35 721.322 1461.19 Q722.341 1461 723.359 1461 Q729.147 1461 732.526 1464.18 Q735.906 1467.35 735.906 1472.76 Q735.906 1478.34 732.434 1481.44 Q728.961 1484.52 722.642 1484.52 Q720.466 1484.52 718.197 1484.15 Q715.952 1483.78 713.545 1483.04 L713.545 1478.34 Q715.628 1479.48 717.85 1480.03 Q720.072 1480.59 722.549 1480.59 Q726.554 1480.59 728.892 1478.48 Q731.23 1476.38 731.23 1472.76 Q731.23 1469.15 728.892 1467.05 Q726.554 1464.94 722.549 1464.94 Q720.674 1464.94 718.799 1465.36 Q716.947 1465.77 715.003 1466.65 L715.003 1449.29 Z" fill="#000000" fill-rule="evenodd" fill-opacity="1" /><path clip-path="url(#clip580)" d="M844.475 1479.92 L860.795 1479.92 L860.795 1483.85 L838.85 1483.85 L838.85 1479.92 Q841.512 1477.16 846.096 1472.53 Q850.702 1467.88 851.883 1466.54 Q854.128 1464.01 855.008 1462.28 Q855.91 1460.52 855.91 1458.83 Q855.91 1456.07 853.966 1454.34 Q852.045 1452.6 848.943 1452.6 Q846.744 1452.6 844.29 1453.37 Q841.86 1454.13 839.082 1455.68 L839.082 1450.96 Q841.906 1449.82 844.36 1449.25 Q846.813 1448.67 848.85 1448.67 Q854.221 1448.67 857.415 1451.35 Q860.609 1454.04 860.609 1458.53 Q860.609 1460.66 859.799 1462.58 Q859.012 1464.48 856.906 1467.07 Q856.327 1467.74 853.225 1470.96 Q850.123 1474.15 844.475 1479.92 Z" fill="#000000" fill-rule="evenodd" fill-opacity="1" /><path clip-path="url(#clip580)" d="M880.609 1452.37 Q876.998 1452.37 875.17 1455.94 Q873.364 1459.48 873.364 1466.61 Q873.364 1473.71 875.17 1477.28 Q876.998 1480.82 880.609 1480.82 Q884.244 1480.82 886.049 1477.28 Q887.878 1473.71 887.878 1466.61 Q887.878 1459.48 886.049 1455.94 Q884.244 1452.37 880.609 1452.37 M880.609 1448.67 Q886.419 1448.67 889.475 1453.27 Q892.554 1457.86 892.554 1466.61 Q892.554 1475.33 889.475 1479.94 Q886.419 1484.52 880.609 1484.52 Q874.799 1484.52 871.72 1479.94 Q868.665 1475.33 868.665 1466.61 Q868.665 1457.86 871.72 1453.27 Q874.799 1448.67 880.609 1448.67 Z" fill="#000000" fill-rule="evenodd" fill-opacity="1" /><path clip-path="url(#clip580)" d="M1000.26 1479.92 L1016.57 1479.92 L1016.57 1483.85 L994.63 1483.85 L994.63 1479.92 Q997.292 1477.16 1001.88 1472.53 Q1006.48 1467.88 1007.66 1466.54 Q1009.91 1464.01 1010.79 1462.28 Q1011.69 1460.52 1011.69 1458.83 Q1011.69 1456.07 1009.75 1454.34 Q1007.82 1452.6 1004.72 1452.6 Q1002.52 1452.6 1000.07 1453.37 Q997.639 1454.13 994.862 1455.68 L994.862 1450.96 Q997.686 1449.82 1000.14 1449.25 Q1002.59 1448.67 1004.63 1448.67 Q1010 1448.67 1013.19 1451.35 Q1016.39 1454.04 1016.39 1458.53 Q1016.39 1460.66 1015.58 1462.58 Q1014.79 1464.48 1012.69 1467.07 Q1012.11 1467.74 1009.01 1470.96 Q1005.9 1474.15 1000.26 1479.92 Z" fill="#000000" fill-rule="evenodd" fill-opacity="1" /><path clip-path="url(#clip580)" d="M1026.44 1449.29 L1044.79 1449.29 L1044.79 1453.23 L1030.72 1453.23 L1030.72 1461.7 Q1031.74 1461.35 1032.76 1461.19 Q1033.77 1461 1034.79 1461 Q1040.58 1461 1043.96 1464.18 Q1047.34 1467.35 1047.34 1472.76 Q1047.34 1478.34 1043.87 1481.44 Q1040.39 1484.52 1034.07 1484.52 Q1031.9 1484.52 1029.63 1484.15 Q1027.38 1483.78 1024.98 1483.04 L1024.98 1478.34 Q1027.06 1479.48 1029.28 1480.03 Q1031.51 1480.59 1033.98 1480.59 Q1037.99 1480.59 1040.32 1478.48 Q1042.66 1476.38 1042.66 1472.76 Q1042.66 1469.15 1040.32 1467.05 Q1037.99 1464.94 1033.98 1464.94 Q1032.11 1464.94 1030.23 1465.36 Q1028.38 1465.77 1026.44 1466.65 L1026.44 1449.29 Z" fill="#000000" fill-rule="evenodd" fill-opacity="1" /><path clip-path="url(#clip580)" d="M657.759 1520.52 L664.189 1520.52 L664.189 1562.63 L687.328 1562.63 L687.328 1568.04 L657.759 1568.04 L657.759 1520.52 Z" fill="#000000" fill-rule="evenodd" fill-opacity="1" /><path clip-path="url(#clip580)" d="M710.022 1550.12 Q702.924 1550.12 700.187 1551.75 Q697.45 1553.37 697.45 1557.29 Q697.45 1560.4 699.487 1562.25 Q701.556 1564.07 705.088 1564.07 Q709.958 1564.07 712.886 1560.63 Q715.847 1557.16 715.847 1551.43 L715.847 1550.12 L710.022 1550.12 M721.703 1547.71 L721.703 1568.04 L715.847 1568.04 L715.847 1562.63 Q713.841 1565.88 710.849 1567.44 Q707.858 1568.97 703.529 1568.97 Q698.054 1568.97 694.808 1565.91 Q691.593 1562.82 691.593 1557.67 Q691.593 1551.65 695.604 1548.6 Q699.646 1545.54 707.635 1545.54 L715.847 1545.54 L715.847 1544.97 Q715.847 1540.93 713.173 1538.73 Q710.531 1536.5 705.725 1536.5 Q702.67 1536.5 699.773 1537.23 Q696.877 1537.97 694.203 1539.43 L694.203 1534.02 Q697.418 1532.78 700.442 1532.17 Q703.465 1531.54 706.33 1531.54 Q714.064 1531.54 717.884 1535.55 Q721.703 1539.56 721.703 1547.71 Z" fill="#000000" fill-rule="evenodd" fill-opacity="1" /><path clip-path="url(#clip580)" d="M757.224 1549.81 Q757.224 1543.44 754.582 1539.94 Q751.972 1536.44 747.229 1536.44 Q742.519 1536.44 739.877 1539.94 Q737.267 1543.44 737.267 1549.81 Q737.267 1556.14 739.877 1559.64 Q742.519 1563.14 747.229 1563.14 Q751.972 1563.14 754.582 1559.64 Q757.224 1556.14 757.224 1549.81 M763.08 1563.62 Q763.08 1572.72 759.038 1577.15 Q754.996 1581.6 746.657 1581.6 Q743.569 1581.6 740.832 1581.13 Q738.095 1580.68 735.517 1579.72 L735.517 1574.03 Q738.095 1575.43 740.609 1576.1 Q743.124 1576.76 745.734 1576.76 Q751.494 1576.76 754.359 1573.74 Q757.224 1570.75 757.224 1564.67 L757.224 1561.77 Q755.409 1564.92 752.577 1566.48 Q749.744 1568.04 745.797 1568.04 Q739.24 1568.04 735.23 1563.05 Q731.22 1558.05 731.22 1549.81 Q731.22 1541.53 735.23 1536.53 Q739.24 1531.54 745.797 1531.54 Q749.744 1531.54 752.577 1533.1 Q755.409 1534.66 757.224 1537.81 L757.224 1532.4 L763.08 1532.4 L763.08 1563.62 Z" fill="#000000" fill-rule="evenodd" fill-opacity="1" /><polyline clip-path="url(#clip582)" style="stroke:#000000; stroke-linecap:butt; stroke-linejoin:round; stroke-width:2; stroke-opacity:0.1; fill:none" points="
  249.542,1304.9 1171.3,1304.9 
  "/>
<polyline clip-path="url(#clip582)" style="stroke:#000000; stroke-linecap:butt; stroke-linejoin:round; stroke-width:2; stroke-opacity:0.1; fill:none" points="
  249.542,1000.22 1171.3,1000.22 
  "/>
<polyline clip-path="url(#clip582)" style="stroke:#000000; stroke-linecap:butt; stroke-linejoin:round; stroke-width:2; stroke-opacity:0.1; fill:none" points="
  249.542,695.542 1171.3,695.542 
  "/>
<polyline clip-path="url(#clip582)" style="stroke:#000000; stroke-linecap:butt; stroke-linejoin:round; stroke-width:2; stroke-opacity:0.1; fill:none" points="
  249.542,390.864 1171.3,390.864 
  "/>
<polyline clip-path="url(#clip582)" style="stroke:#000000; stroke-linecap:butt; stroke-linejoin:round; stroke-width:2; stroke-opacity:0.1; fill:none" points="
  249.542,86.1857 1171.3,86.1857 
  "/>
<polyline clip-path="url(#clip580)" style="stroke:#000000; stroke-linecap:butt; stroke-linejoin:round; stroke-width:4; stroke-opacity:1; fill:none" points="
  249.542,1423.18 249.542,47.2441 
  "/>
<polyline clip-path="url(#clip580)" style="stroke:#000000; stroke-linecap:butt; stroke-linejoin:round; stroke-width:4; stroke-opacity:1; fill:none" points="
  249.542,1304.9 260.603,1304.9 
  "/>
<polyline clip-path="url(#clip580)" style="stroke:#000000; stroke-linecap:butt; stroke-linejoin:round; stroke-width:4; stroke-opacity:1; fill:none" points="
  249.542,1000.22 260.603,1000.22 
  "/>
<polyline clip-path="url(#clip580)" style="stroke:#000000; stroke-linecap:butt; stroke-linejoin:round; stroke-width:4; stroke-opacity:1; fill:none" points="
  249.542,695.542 260.603,695.542 
  "/>
<polyline clip-path="url(#clip580)" style="stroke:#000000; stroke-linecap:butt; stroke-linejoin:round; stroke-width:4; stroke-opacity:1; fill:none" points="
  249.542,390.864 260.603,390.864 
  "/>
<polyline clip-path="url(#clip580)" style="stroke:#000000; stroke-linecap:butt; stroke-linejoin:round; stroke-width:4; stroke-opacity:1; fill:none" points="
  249.542,86.1857 260.603,86.1857 
  "/>
<path clip-path="url(#clip580)" d="M126.205 1290.7 Q122.593 1290.7 120.765 1294.26 Q118.959 1297.8 118.959 1304.93 Q118.959 1312.04 120.765 1315.6 Q122.593 1319.15 126.205 1319.15 Q129.839 1319.15 131.644 1315.6 Q133.473 1312.04 133.473 1304.93 Q133.473 1297.8 131.644 1294.26 Q129.839 1290.7 126.205 1290.7 M126.205 1286.99 Q132.015 1286.99 135.07 1291.6 Q138.149 1296.18 138.149 1304.93 Q138.149 1313.66 135.07 1318.27 Q132.015 1322.85 126.205 1322.85 Q120.394 1322.85 117.316 1318.27 Q114.26 1313.66 114.26 1304.93 Q114.26 1296.18 117.316 1291.6 Q120.394 1286.99 126.205 1286.99 Z" fill="#000000" fill-rule="evenodd" fill-opacity="1" /><path clip-path="url(#clip580)" d="M146.366 1316.3 L151.251 1316.3 L151.251 1322.18 L146.366 1322.18 L146.366 1316.3 Z" fill="#000000" fill-rule="evenodd" fill-opacity="1" /><path clip-path="url(#clip580)" d="M171.436 1290.7 Q167.825 1290.7 165.996 1294.26 Q164.19 1297.8 164.19 1304.93 Q164.19 1312.04 165.996 1315.6 Q167.825 1319.15 171.436 1319.15 Q175.07 1319.15 176.876 1315.6 Q178.704 1312.04 178.704 1304.93 Q178.704 1297.8 176.876 1294.26 Q175.07 1290.7 171.436 1290.7 M171.436 1286.99 Q177.246 1286.99 180.301 1291.6 Q183.38 1296.18 183.38 1304.93 Q183.38 1313.66 180.301 1318.27 Q177.246 1322.85 171.436 1322.85 Q165.626 1322.85 162.547 1318.27 Q159.491 1313.66 159.491 1304.93 Q159.491 1296.18 162.547 1291.6 Q165.626 1286.99 171.436 1286.99 Z" fill="#000000" fill-rule="evenodd" fill-opacity="1" /><path clip-path="url(#clip580)" d="M201.598 1290.7 Q197.987 1290.7 196.158 1294.26 Q194.352 1297.8 194.352 1304.93 Q194.352 1312.04 196.158 1315.6 Q197.987 1319.15 201.598 1319.15 Q205.232 1319.15 207.037 1315.6 Q208.866 1312.04 208.866 1304.93 Q208.866 1297.8 207.037 1294.26 Q205.232 1290.7 201.598 1290.7 M201.598 1286.99 Q207.408 1286.99 210.463 1291.6 Q213.542 1296.18 213.542 1304.93 Q213.542 1313.66 210.463 1318.27 Q207.408 1322.85 201.598 1322.85 Q195.787 1322.85 192.709 1318.27 Q189.653 1313.66 189.653 1304.93 Q189.653 1296.18 192.709 1291.6 Q195.787 1286.99 201.598 1286.99 Z" fill="#000000" fill-rule="evenodd" fill-opacity="1" /><path clip-path="url(#clip580)" d="M127.2 986.018 Q123.589 986.018 121.76 989.583 Q119.955 993.125 119.955 1000.25 Q119.955 1007.36 121.76 1010.93 Q123.589 1014.47 127.2 1014.47 Q130.834 1014.47 132.64 1010.93 Q134.468 1007.36 134.468 1000.25 Q134.468 993.125 132.64 989.583 Q130.834 986.018 127.2 986.018 M127.2 982.315 Q133.01 982.315 136.066 986.921 Q139.144 991.504 139.144 1000.25 Q139.144 1008.98 136.066 1013.59 Q133.01 1018.17 127.2 1018.17 Q121.39 1018.17 118.311 1013.59 Q115.256 1008.98 115.256 1000.25 Q115.256 991.504 118.311 986.921 Q121.39 982.315 127.2 982.315 Z" fill="#000000" fill-rule="evenodd" fill-opacity="1" /><path clip-path="url(#clip580)" d="M147.362 1011.62 L152.246 1011.62 L152.246 1017.5 L147.362 1017.5 L147.362 1011.62 Z" fill="#000000" fill-rule="evenodd" fill-opacity="1" /><path clip-path="url(#clip580)" d="M166.459 1013.56 L182.778 1013.56 L182.778 1017.5 L160.834 1017.5 L160.834 1013.56 Q163.496 1010.81 168.079 1006.18 Q172.686 1001.53 173.866 1000.18 Q176.112 997.662 176.991 995.926 Q177.894 994.166 177.894 992.476 Q177.894 989.722 175.95 987.986 Q174.028 986.25 170.927 986.25 Q168.727 986.25 166.274 987.014 Q163.843 987.777 161.065 989.328 L161.065 984.606 Q163.89 983.472 166.343 982.893 Q168.797 982.315 170.834 982.315 Q176.204 982.315 179.399 985 Q182.593 987.685 182.593 992.176 Q182.593 994.305 181.783 996.226 Q180.996 998.125 178.889 1000.72 Q178.311 1001.39 175.209 1004.61 Q172.107 1007.8 166.459 1013.56 Z" fill="#000000" fill-rule="evenodd" fill-opacity="1" /><path clip-path="url(#clip580)" d="M192.639 982.94 L210.996 982.94 L210.996 986.875 L196.922 986.875 L196.922 995.347 Q197.94 995 198.959 994.838 Q199.977 994.652 200.996 994.652 Q206.783 994.652 210.162 997.824 Q213.542 1000.99 213.542 1006.41 Q213.542 1011.99 210.07 1015.09 Q206.598 1018.17 200.278 1018.17 Q198.102 1018.17 195.834 1017.8 Q193.588 1017.43 191.181 1016.69 L191.181 1011.99 Q193.264 1013.12 195.487 1013.68 Q197.709 1014.24 200.186 1014.24 Q204.19 1014.24 206.528 1012.13 Q208.866 1010.02 208.866 1006.41 Q208.866 1002.8 206.528 1000.69 Q204.19 998.588 200.186 998.588 Q198.311 998.588 196.436 999.004 Q194.584 999.421 192.639 1000.3 L192.639 982.94 Z" fill="#000000" fill-rule="evenodd" fill-opacity="1" /><path clip-path="url(#clip580)" d="M126.205 681.34 Q122.593 681.34 120.765 684.905 Q118.959 688.447 118.959 695.576 Q118.959 702.683 120.765 706.248 Q122.593 709.789 126.205 709.789 Q129.839 709.789 131.644 706.248 Q133.473 702.683 133.473 695.576 Q133.473 688.447 131.644 684.905 Q129.839 681.34 126.205 681.34 M126.205 677.637 Q132.015 677.637 135.07 682.243 Q138.149 686.826 138.149 695.576 Q138.149 704.303 135.07 708.91 Q132.015 713.493 126.205 713.493 Q120.394 713.493 117.316 708.91 Q114.26 704.303 114.26 695.576 Q114.26 686.826 117.316 682.243 Q120.394 677.637 126.205 677.637 Z" fill="#000000" fill-rule="evenodd" fill-opacity="1" /><path clip-path="url(#clip580)" d="M146.366 706.942 L151.251 706.942 L151.251 712.822 L146.366 712.822 L146.366 706.942 Z" fill="#000000" fill-rule="evenodd" fill-opacity="1" /><path clip-path="url(#clip580)" d="M161.482 678.262 L179.839 678.262 L179.839 682.197 L165.765 682.197 L165.765 690.669 Q166.783 690.322 167.802 690.16 Q168.82 689.974 169.839 689.974 Q175.626 689.974 179.005 693.146 Q182.385 696.317 182.385 701.734 Q182.385 707.312 178.913 710.414 Q175.44 713.493 169.121 713.493 Q166.945 713.493 164.677 713.122 Q162.431 712.752 160.024 712.011 L160.024 707.312 Q162.107 708.447 164.329 709.002 Q166.552 709.558 169.028 709.558 Q173.033 709.558 175.371 707.451 Q177.709 705.345 177.709 701.734 Q177.709 698.123 175.371 696.016 Q173.033 693.91 169.028 693.91 Q167.153 693.91 165.278 694.326 Q163.427 694.743 161.482 695.623 L161.482 678.262 Z" fill="#000000" fill-rule="evenodd" fill-opacity="1" /><path clip-path="url(#clip580)" d="M201.598 681.34 Q197.987 681.34 196.158 684.905 Q194.352 688.447 194.352 695.576 Q194.352 702.683 196.158 706.248 Q197.987 709.789 201.598 709.789 Q205.232 709.789 207.037 706.248 Q208.866 702.683 208.866 695.576 Q208.866 688.447 207.037 684.905 Q205.232 681.34 201.598 681.34 M201.598 677.637 Q207.408 677.637 210.463 682.243 Q213.542 686.826 213.542 695.576 Q213.542 704.303 210.463 708.91 Q207.408 713.493 201.598 713.493 Q195.787 713.493 192.709 708.91 Q189.653 704.303 189.653 695.576 Q189.653 686.826 192.709 682.243 Q195.787 677.637 201.598 677.637 Z" fill="#000000" fill-rule="evenodd" fill-opacity="1" /><path clip-path="url(#clip580)" d="M127.2 376.662 Q123.589 376.662 121.76 380.227 Q119.955 383.769 119.955 390.898 Q119.955 398.005 121.76 401.57 Q123.589 405.111 127.2 405.111 Q130.834 405.111 132.64 401.57 Q134.468 398.005 134.468 390.898 Q134.468 383.769 132.64 380.227 Q130.834 376.662 127.2 376.662 M127.2 372.959 Q133.01 372.959 136.066 377.565 Q139.144 382.148 139.144 390.898 Q139.144 399.625 136.066 404.232 Q133.01 408.815 127.2 408.815 Q121.39 408.815 118.311 404.232 Q115.256 399.625 115.256 390.898 Q115.256 382.148 118.311 377.565 Q121.39 372.959 127.2 372.959 Z" fill="#000000" fill-rule="evenodd" fill-opacity="1" /><path clip-path="url(#clip580)" d="M147.362 402.264 L152.246 402.264 L152.246 408.144 L147.362 408.144 L147.362 402.264 Z" fill="#000000" fill-rule="evenodd" fill-opacity="1" /><path clip-path="url(#clip580)" d="M161.251 373.584 L183.473 373.584 L183.473 375.574 L170.927 408.144 L166.042 408.144 L177.848 377.519 L161.251 377.519 L161.251 373.584 Z" fill="#000000" fill-rule="evenodd" fill-opacity="1" /><path clip-path="url(#clip580)" d="M192.639 373.584 L210.996 373.584 L210.996 377.519 L196.922 377.519 L196.922 385.991 Q197.94 385.644 198.959 385.482 Q199.977 385.297 200.996 385.297 Q206.783 385.297 210.162 388.468 Q213.542 391.639 213.542 397.056 Q213.542 402.634 210.07 405.736 Q206.598 408.815 200.278 408.815 Q198.102 408.815 195.834 408.445 Q193.588 408.074 191.181 407.333 L191.181 402.634 Q193.264 403.769 195.487 404.324 Q197.709 404.88 200.186 404.88 Q204.19 404.88 206.528 402.773 Q208.866 400.667 208.866 397.056 Q208.866 393.445 206.528 391.338 Q204.19 389.232 200.186 389.232 Q198.311 389.232 196.436 389.648 Q194.584 390.065 192.639 390.945 L192.639 373.584 Z" fill="#000000" fill-rule="evenodd" fill-opacity="1" /><path clip-path="url(#clip580)" d="M117.015 99.5305 L124.654 99.5305 L124.654 73.1649 L116.343 74.8316 L116.343 70.5723 L124.607 68.9057 L129.283 68.9057 L129.283 99.5305 L136.922 99.5305 L136.922 103.466 L117.015 103.466 L117.015 99.5305 Z" fill="#000000" fill-rule="evenodd" fill-opacity="1" /><path clip-path="url(#clip580)" d="M146.366 97.5861 L151.251 97.5861 L151.251 103.466 L146.366 103.466 L146.366 97.5861 Z" fill="#000000" fill-rule="evenodd" fill-opacity="1" /><path clip-path="url(#clip580)" d="M171.436 71.9844 Q167.825 71.9844 165.996 75.5492 Q164.19 79.0908 164.19 86.2204 Q164.19 93.3268 165.996 96.8916 Q167.825 100.433 171.436 100.433 Q175.07 100.433 176.876 96.8916 Q178.704 93.3268 178.704 86.2204 Q178.704 79.0908 176.876 75.5492 Q175.07 71.9844 171.436 71.9844 M171.436 68.2807 Q177.246 68.2807 180.301 72.8871 Q183.38 77.4704 183.38 86.2204 Q183.38 94.9472 180.301 99.5537 Q177.246 104.137 171.436 104.137 Q165.626 104.137 162.547 99.5537 Q159.491 94.9472 159.491 86.2204 Q159.491 77.4704 162.547 72.8871 Q165.626 68.2807 171.436 68.2807 Z" fill="#000000" fill-rule="evenodd" fill-opacity="1" /><path clip-path="url(#clip580)" d="M201.598 71.9844 Q197.987 71.9844 196.158 75.5492 Q194.352 79.0908 194.352 86.2204 Q194.352 93.3268 196.158 96.8916 Q197.987 100.433 201.598 100.433 Q205.232 100.433 207.037 96.8916 Q208.866 93.3268 208.866 86.2204 Q208.866 79.0908 207.037 75.5492 Q205.232 71.9844 201.598 71.9844 M201.598 68.2807 Q207.408 68.2807 210.463 72.8871 Q213.542 77.4704 213.542 86.2204 Q213.542 94.9472 210.463 99.5537 Q207.408 104.137 201.598 104.137 Q195.787 104.137 192.709 99.5537 Q189.653 94.9472 189.653 86.2204 Q189.653 77.4704 192.709 72.8871 Q195.787 68.2807 201.598 68.2807 Z" fill="#000000" fill-rule="evenodd" fill-opacity="1" /><path clip-path="url(#clip580)" d="M20.1444 872.011 L26.9239 872.011 Q23.9002 875.258 22.4043 878.95 Q20.9083 882.61 20.9083 886.748 Q20.9083 894.896 25.9054 899.224 Q30.8707 903.553 40.2919 903.553 Q49.6813 903.553 54.6784 899.224 Q59.6436 894.896 59.6436 886.748 Q59.6436 882.61 58.1477 878.95 Q56.6518 875.258 53.6281 872.011 L60.3439 872.011 Q62.6355 875.385 63.7814 879.172 Q64.9272 882.928 64.9272 887.13 Q64.9272 897.919 58.3387 904.126 Q51.7183 910.333 40.2919 910.333 Q28.8336 910.333 22.2451 904.126 Q15.6248 897.919 15.6248 887.13 Q15.6248 882.865 16.7706 879.109 Q17.8846 875.321 20.1444 872.011 Z" fill="#000000" fill-rule="evenodd" fill-opacity="1" /><path clip-path="url(#clip580)" d="M32.4621 848.522 Q32.4621 853.232 36.1542 855.969 Q39.8145 858.707 46.212 858.707 Q52.6095 858.707 56.3017 856.001 Q59.9619 853.264 59.9619 848.522 Q59.9619 843.843 56.2698 841.105 Q52.5777 838.368 46.212 838.368 Q39.8781 838.368 36.186 841.105 Q32.4621 843.843 32.4621 848.522 M27.4968 848.522 Q27.4968 840.883 32.4621 836.522 Q37.4273 832.162 46.212 832.162 Q54.9649 832.162 59.9619 836.522 Q64.9272 840.883 64.9272 848.522 Q64.9272 856.192 59.9619 860.553 Q54.9649 864.881 46.212 864.881 Q37.4273 864.881 32.4621 860.553 Q27.4968 856.192 27.4968 848.522 Z" fill="#000000" fill-rule="evenodd" fill-opacity="1" /><path clip-path="url(#clip580)" d="M33.8307 801.797 Q33.2578 802.784 33.0032 803.962 Q32.7167 805.107 32.7167 806.508 Q32.7167 811.473 35.9632 814.147 Q39.1779 816.788 45.2253 816.788 L64.0042 816.788 L64.0042 822.677 L28.3562 822.677 L28.3562 816.788 L33.8944 816.788 Q30.6479 814.942 29.0883 811.982 Q27.4968 809.022 27.4968 804.789 Q27.4968 804.184 27.5923 803.452 Q27.656 802.72 27.8151 801.829 L33.8307 801.797 Z" fill="#000000" fill-rule="evenodd" fill-opacity="1" /><path clip-path="url(#clip580)" d="M33.8307 776.143 Q33.2578 777.13 33.0032 778.308 Q32.7167 779.454 32.7167 780.854 Q32.7167 785.819 35.9632 788.493 Q39.1779 791.135 45.2253 791.135 L64.0042 791.135 L64.0042 797.023 L28.3562 797.023 L28.3562 791.135 L33.8944 791.135 Q30.6479 789.289 29.0883 786.329 Q27.4968 783.369 27.4968 779.135 Q27.4968 778.531 27.5923 777.799 Q27.656 777.066 27.8151 776.175 L33.8307 776.143 Z" fill="#000000" fill-rule="evenodd" fill-opacity="1" /><path clip-path="url(#clip580)" d="M44.7161 740.941 L47.5806 740.941 L47.5806 767.868 Q53.6281 767.486 56.8109 764.24 Q59.9619 760.961 59.9619 755.137 Q59.9619 751.763 59.1344 748.612 Q58.3069 745.429 56.6518 742.31 L62.1899 742.31 Q63.5267 745.461 64.227 748.771 Q64.9272 752.081 64.9272 755.487 Q64.9272 764.017 59.9619 769.014 Q54.9967 773.979 46.5303 773.979 Q37.7774 773.979 32.6531 769.268 Q27.4968 764.526 27.4968 756.505 Q27.4968 749.312 32.1438 745.142 Q36.7589 740.941 44.7161 740.941 M42.9973 746.798 Q38.1912 746.861 35.3266 749.503 Q32.4621 752.113 32.4621 756.442 Q32.4621 761.343 35.2312 764.303 Q38.0002 767.231 43.0292 767.677 L42.9973 746.798 Z" fill="#000000" fill-rule="evenodd" fill-opacity="1" /><path clip-path="url(#clip580)" d="M14.479 731.329 L14.479 725.472 L64.0042 725.472 L64.0042 731.329 L14.479 731.329 Z" fill="#000000" fill-rule="evenodd" fill-opacity="1" /><path clip-path="url(#clip580)" d="M46.0847 697.018 Q46.0847 704.115 47.7079 706.853 Q49.3312 709.59 53.2461 709.59 Q56.3653 709.59 58.2114 707.553 Q60.0256 705.484 60.0256 701.951 Q60.0256 697.081 56.5881 694.153 Q53.1188 691.193 47.3897 691.193 L46.0847 691.193 L46.0847 697.018 M43.6657 685.337 L64.0042 685.337 L64.0042 691.193 L58.5933 691.193 Q61.8398 693.198 63.3994 696.19 Q64.9272 699.182 64.9272 703.511 Q64.9272 708.985 61.8716 712.232 Q58.7843 715.446 53.6281 715.446 Q47.6125 715.446 44.5569 711.436 Q41.5014 707.394 41.5014 699.405 L41.5014 691.193 L40.9285 691.193 Q36.8862 691.193 34.6901 693.867 Q32.4621 696.508 32.4621 701.315 Q32.4621 704.37 33.1941 707.267 Q33.9262 710.163 35.3903 712.837 L29.9795 712.837 Q28.7381 709.622 28.1334 706.598 Q27.4968 703.574 27.4968 700.71 Q27.4968 692.976 31.5072 689.156 Q35.5176 685.337 43.6657 685.337 Z" fill="#000000" fill-rule="evenodd" fill-opacity="1" /><path clip-path="url(#clip580)" d="M18.2347 667.481 L28.3562 667.481 L28.3562 655.418 L32.9077 655.418 L32.9077 667.481 L52.2594 667.481 Q56.6199 667.481 57.8613 666.303 Q59.1026 665.094 59.1026 661.433 L59.1026 655.418 L64.0042 655.418 L64.0042 661.433 Q64.0042 668.213 61.4897 670.791 Q58.9434 673.369 52.2594 673.369 L32.9077 673.369 L32.9077 677.666 L28.3562 677.666 L28.3562 673.369 L18.2347 673.369 L18.2347 667.481 Z" fill="#000000" fill-rule="evenodd" fill-opacity="1" /><path clip-path="url(#clip580)" d="M28.3562 647.715 L28.3562 641.859 L64.0042 641.859 L64.0042 647.715 L28.3562 647.715 M14.479 647.715 L14.479 641.859 L21.895 641.859 L21.895 647.715 L14.479 647.715 Z" fill="#000000" fill-rule="evenodd" fill-opacity="1" /><path clip-path="url(#clip580)" d="M32.4621 615.791 Q32.4621 620.502 36.1542 623.239 Q39.8145 625.976 46.212 625.976 Q52.6095 625.976 56.3017 623.271 Q59.9619 620.534 59.9619 615.791 Q59.9619 611.113 56.2698 608.375 Q52.5777 605.638 46.212 605.638 Q39.8781 605.638 36.186 608.375 Q32.4621 611.113 32.4621 615.791 M27.4968 615.791 Q27.4968 608.152 32.4621 603.792 Q37.4273 599.431 46.212 599.431 Q54.9649 599.431 59.9619 603.792 Q64.9272 608.152 64.9272 615.791 Q64.9272 623.462 59.9619 627.822 Q54.9649 632.151 46.212 632.151 Q37.4273 632.151 32.4621 627.822 Q27.4968 623.462 27.4968 615.791 Z" fill="#000000" fill-rule="evenodd" fill-opacity="1" /><path clip-path="url(#clip580)" d="M42.4881 560.091 L64.0042 560.091 L64.0042 565.948 L42.679 565.948 Q37.6183 565.948 35.1038 567.921 Q32.5894 569.895 32.5894 573.841 Q32.5894 578.584 35.6131 581.321 Q38.6368 584.058 43.8567 584.058 L64.0042 584.058 L64.0042 589.947 L28.3562 589.947 L28.3562 584.058 L33.8944 584.058 Q30.6797 581.958 29.0883 579.125 Q27.4968 576.26 27.4968 572.536 Q27.4968 566.393 31.3163 563.242 Q35.1038 560.091 42.4881 560.091 Z" fill="#000000" fill-rule="evenodd" fill-opacity="1" /><circle clip-path="url(#clip582)" cx="275.629" cy="86.1857" r="14" fill="#009af9" fill-rule="evenodd" fill-opacity="1" stroke="#000000" stroke-opacity="1" stroke-width="3.2"/>
<circle clip-path="url(#clip582)" cx="306.686" cy="1228.34" r="14" fill="#009af9" fill-rule="evenodd" fill-opacity="1" stroke="#000000" stroke-opacity="1" stroke-width="3.2"/>
<circle clip-path="url(#clip582)" cx="337.742" cy="1267.34" r="14" fill="#009af9" fill-rule="evenodd" fill-opacity="1" stroke="#000000" stroke-opacity="1" stroke-width="3.2"/>
<circle clip-path="url(#clip582)" cx="368.799" cy="1290.03" r="14" fill="#009af9" fill-rule="evenodd" fill-opacity="1" stroke="#000000" stroke-opacity="1" stroke-width="3.2"/>
<circle clip-path="url(#clip582)" cx="399.855" cy="1288.26" r="14" fill="#009af9" fill-rule="evenodd" fill-opacity="1" stroke="#000000" stroke-opacity="1" stroke-width="3.2"/>
<circle clip-path="url(#clip582)" cx="430.912" cy="1161.62" r="14" fill="#009af9" fill-rule="evenodd" fill-opacity="1" stroke="#000000" stroke-opacity="1" stroke-width="3.2"/>
<circle clip-path="url(#clip582)" cx="461.968" cy="1214.34" r="14" fill="#009af9" fill-rule="evenodd" fill-opacity="1" stroke="#000000" stroke-opacity="1" stroke-width="3.2"/>
<circle clip-path="url(#clip582)" cx="493.025" cy="1237.03" r="14" fill="#009af9" fill-rule="evenodd" fill-opacity="1" stroke="#000000" stroke-opacity="1" stroke-width="3.2"/>
<circle clip-path="url(#clip582)" cx="524.081" cy="1294.91" r="14" fill="#009af9" fill-rule="evenodd" fill-opacity="1" stroke="#000000" stroke-opacity="1" stroke-width="3.2"/>
<circle clip-path="url(#clip582)" cx="555.138" cy="1350.22" r="14" fill="#009af9" fill-rule="evenodd" fill-opacity="1" stroke="#000000" stroke-opacity="1" stroke-width="3.2"/>
<circle clip-path="url(#clip582)" cx="586.194" cy="1226.16" r="14" fill="#009af9" fill-rule="evenodd" fill-opacity="1" stroke="#000000" stroke-opacity="1" stroke-width="3.2"/>
<circle clip-path="url(#clip582)" cx="617.25" cy="1314.07" r="14" fill="#009af9" fill-rule="evenodd" fill-opacity="1" stroke="#000000" stroke-opacity="1" stroke-width="3.2"/>
<circle clip-path="url(#clip582)" cx="648.307" cy="1222.63" r="14" fill="#009af9" fill-rule="evenodd" fill-opacity="1" stroke="#000000" stroke-opacity="1" stroke-width="3.2"/>
<circle clip-path="url(#clip582)" cx="679.363" cy="1337.59" r="14" fill="#009af9" fill-rule="evenodd" fill-opacity="1" stroke="#000000" stroke-opacity="1" stroke-width="3.2"/>
<circle clip-path="url(#clip582)" cx="710.42" cy="1313.95" r="14" fill="#009af9" fill-rule="evenodd" fill-opacity="1" stroke="#000000" stroke-opacity="1" stroke-width="3.2"/>
<circle clip-path="url(#clip582)" cx="741.476" cy="1282.16" r="14" fill="#009af9" fill-rule="evenodd" fill-opacity="1" stroke="#000000" stroke-opacity="1" stroke-width="3.2"/>
<circle clip-path="url(#clip582)" cx="772.533" cy="1282.98" r="14" fill="#009af9" fill-rule="evenodd" fill-opacity="1" stroke="#000000" stroke-opacity="1" stroke-width="3.2"/>
<circle clip-path="url(#clip582)" cx="803.589" cy="1248.61" r="14" fill="#009af9" fill-rule="evenodd" fill-opacity="1" stroke="#000000" stroke-opacity="1" stroke-width="3.2"/>
<circle clip-path="url(#clip582)" cx="834.646" cy="1273.88" r="14" fill="#009af9" fill-rule="evenodd" fill-opacity="1" stroke="#000000" stroke-opacity="1" stroke-width="3.2"/>
<circle clip-path="url(#clip582)" cx="865.702" cy="1307.32" r="14" fill="#009af9" fill-rule="evenodd" fill-opacity="1" stroke="#000000" stroke-opacity="1" stroke-width="3.2"/>
<circle clip-path="url(#clip582)" cx="896.758" cy="1330.01" r="14" fill="#009af9" fill-rule="evenodd" fill-opacity="1" stroke="#000000" stroke-opacity="1" stroke-width="3.2"/>
<circle clip-path="url(#clip582)" cx="927.815" cy="1208.54" r="14" fill="#009af9" fill-rule="evenodd" fill-opacity="1" stroke="#000000" stroke-opacity="1" stroke-width="3.2"/>
<circle clip-path="url(#clip582)" cx="958.871" cy="1250.13" r="14" fill="#009af9" fill-rule="evenodd" fill-opacity="1" stroke="#000000" stroke-opacity="1" stroke-width="3.2"/>
<circle clip-path="url(#clip582)" cx="989.928" cy="1324.32" r="14" fill="#009af9" fill-rule="evenodd" fill-opacity="1" stroke="#000000" stroke-opacity="1" stroke-width="3.2"/>
<circle clip-path="url(#clip582)" cx="1020.98" cy="1352.57" r="14" fill="#009af9" fill-rule="evenodd" fill-opacity="1" stroke="#000000" stroke-opacity="1" stroke-width="3.2"/>
<circle clip-path="url(#clip582)" cx="1052.04" cy="1358.96" r="14" fill="#009af9" fill-rule="evenodd" fill-opacity="1" stroke="#000000" stroke-opacity="1" stroke-width="3.2"/>
<circle clip-path="url(#clip582)" cx="1083.1" cy="1384.24" r="14" fill="#009af9" fill-rule="evenodd" fill-opacity="1" stroke="#000000" stroke-opacity="1" stroke-width="3.2"/>
<circle clip-path="url(#clip582)" cx="1114.15" cy="1213.86" r="14" fill="#009af9" fill-rule="evenodd" fill-opacity="1" stroke="#000000" stroke-opacity="1" stroke-width="3.2"/>
<circle clip-path="url(#clip582)" cx="1145.21" cy="1323.64" r="14" fill="#009af9" fill-rule="evenodd" fill-opacity="1" stroke="#000000" stroke-opacity="1" stroke-width="3.2"/>
<path clip-path="url(#clip580)" d="
M1431 1423.18 L2352.76 1423.18 L2352.76 47.2441 L1431 47.2441  Z
  " fill="#ffffff" fill-rule="evenodd" fill-opacity="1"/>
<defs>
  <clipPath id="clip583">
    <rect x="1431" y="47" width="923" height="1377"/>
  </clipPath>
</defs>
<polyline clip-path="url(#clip583)" style="stroke:#000000; stroke-linecap:butt; stroke-linejoin:round; stroke-width:2; stroke-opacity:0.1; fill:none" points="
  1457.09,1423.18 1457.09,47.2441 
  "/>
<polyline clip-path="url(#clip583)" style="stroke:#000000; stroke-linecap:butt; stroke-linejoin:round; stroke-width:2; stroke-opacity:0.1; fill:none" points="
  1718.05,1423.18 1718.05,47.2441 
  "/>
<polyline clip-path="url(#clip583)" style="stroke:#000000; stroke-linecap:butt; stroke-linejoin:round; stroke-width:2; stroke-opacity:0.1; fill:none" points="
  1979.01,1423.18 1979.01,47.2441 
  "/>
<polyline clip-path="url(#clip583)" style="stroke:#000000; stroke-linecap:butt; stroke-linejoin:round; stroke-width:2; stroke-opacity:0.1; fill:none" points="
  2239.98,1423.18 2239.98,47.2441 
  "/>
<polyline clip-path="url(#clip580)" style="stroke:#000000; stroke-linecap:butt; stroke-linejoin:round; stroke-width:4; stroke-opacity:1; fill:none" points="
  1431,1423.18 2352.76,1423.18 
  "/>
<polyline clip-path="url(#clip580)" style="stroke:#000000; stroke-linecap:butt; stroke-linejoin:round; stroke-width:4; stroke-opacity:1; fill:none" points="
  1457.09,1423.18 1457.09,1406.67 
  "/>
<polyline clip-path="url(#clip580)" style="stroke:#000000; stroke-linecap:butt; stroke-linejoin:round; stroke-width:4; stroke-opacity:1; fill:none" points="
  1718.05,1423.18 1718.05,1406.67 
  "/>
<polyline clip-path="url(#clip580)" style="stroke:#000000; stroke-linecap:butt; stroke-linejoin:round; stroke-width:4; stroke-opacity:1; fill:none" points="
  1979.01,1423.18 1979.01,1406.67 
  "/>
<polyline clip-path="url(#clip580)" style="stroke:#000000; stroke-linecap:butt; stroke-linejoin:round; stroke-width:4; stroke-opacity:1; fill:none" points="
  2239.98,1423.18 2239.98,1406.67 
  "/>
<path clip-path="url(#clip580)" d="M1457.09 1452.37 Q1453.48 1452.37 1451.65 1455.94 Q1449.84 1459.48 1449.84 1466.61 Q1449.84 1473.71 1451.65 1477.28 Q1453.48 1480.82 1457.09 1480.82 Q1460.72 1480.82 1462.53 1477.28 Q1464.36 1473.71 1464.36 1466.61 Q1464.36 1459.48 1462.53 1455.94 Q1460.72 1452.37 1457.09 1452.37 M1457.09 1448.67 Q1462.9 1448.67 1465.95 1453.27 Q1469.03 1457.86 1469.03 1466.61 Q1469.03 1475.33 1465.95 1479.94 Q1462.9 1484.52 1457.09 1484.52 Q1451.28 1484.52 1448.2 1479.94 Q1445.14 1475.33 1445.14 1466.61 Q1445.14 1457.86 1448.2 1453.27 Q1451.28 1448.67 1457.09 1448.67 Z" fill="#000000" fill-rule="evenodd" fill-opacity="1" /><path clip-path="url(#clip580)" d="M1708.43 1479.92 L1716.07 1479.92 L1716.07 1453.55 L1707.76 1455.22 L1707.76 1450.96 L1716.02 1449.29 L1720.7 1449.29 L1720.7 1479.92 L1728.34 1479.92 L1728.34 1483.85 L1708.43 1483.85 L1708.43 1479.92 Z" fill="#000000" fill-rule="evenodd" fill-opacity="1" /><path clip-path="url(#clip580)" d="M1973.67 1479.92 L1989.99 1479.92 L1989.99 1483.85 L1968.04 1483.85 L1968.04 1479.92 Q1970.7 1477.16 1975.29 1472.53 Q1979.89 1467.88 1981.07 1466.54 Q1983.32 1464.01 1984.2 1462.28 Q1985.1 1460.52 1985.1 1458.83 Q1985.1 1456.07 1983.16 1454.34 Q1981.24 1452.6 1978.13 1452.6 Q1975.93 1452.6 1973.48 1453.37 Q1971.05 1454.13 1968.27 1455.68 L1968.27 1450.96 Q1971.1 1449.82 1973.55 1449.25 Q1976 1448.67 1978.04 1448.67 Q1983.41 1448.67 1986.61 1451.35 Q1989.8 1454.04 1989.8 1458.53 Q1989.8 1460.66 1988.99 1462.58 Q1988.2 1464.48 1986.1 1467.07 Q1985.52 1467.74 1982.42 1470.96 Q1979.31 1474.15 1973.67 1479.92 Z" fill="#000000" fill-rule="evenodd" fill-opacity="1" /><path clip-path="url(#clip580)" d="M2244.22 1465.22 Q2247.58 1465.94 2249.45 1468.2 Q2251.35 1470.47 2251.35 1473.81 Q2251.35 1478.92 2247.83 1481.72 Q2244.32 1484.52 2237.83 1484.52 Q2235.66 1484.52 2233.34 1484.08 Q2231.05 1483.67 2228.6 1482.81 L2228.6 1478.3 Q2230.54 1479.43 2232.86 1480.01 Q2235.17 1480.59 2237.7 1480.59 Q2242.09 1480.59 2244.39 1478.85 Q2246.7 1477.12 2246.7 1473.81 Q2246.7 1470.75 2244.55 1469.04 Q2242.42 1467.3 2238.6 1467.3 L2234.57 1467.3 L2234.57 1463.46 L2238.78 1463.46 Q2242.23 1463.46 2244.06 1462.09 Q2245.89 1460.7 2245.89 1458.11 Q2245.89 1455.45 2243.99 1454.04 Q2242.12 1452.6 2238.6 1452.6 Q2236.68 1452.6 2234.48 1453.02 Q2232.28 1453.44 2229.64 1454.31 L2229.64 1450.15 Q2232.3 1449.41 2234.62 1449.04 Q2236.95 1448.67 2239.01 1448.67 Q2244.34 1448.67 2247.44 1451.1 Q2250.54 1453.5 2250.54 1457.63 Q2250.54 1460.5 2248.9 1462.49 Q2247.26 1464.45 2244.22 1465.22 Z" fill="#000000" fill-rule="evenodd" fill-opacity="1" /><path clip-path="url(#clip580)" d="M1763.82 1518.52 L1769.67 1518.52 L1769.67 1568.04 L1763.82 1568.04 L1763.82 1518.52 Z" fill="#000000" fill-rule="evenodd" fill-opacity="1" /><path clip-path="url(#clip580)" d="M1795.74 1536.5 Q1791.03 1536.5 1788.29 1540.19 Q1785.55 1543.85 1785.55 1550.25 Q1785.55 1556.65 1788.26 1560.34 Q1791 1564 1795.74 1564 Q1800.42 1564 1803.16 1560.31 Q1805.89 1556.62 1805.89 1550.25 Q1805.89 1543.92 1803.16 1540.23 Q1800.42 1536.5 1795.74 1536.5 M1795.74 1531.54 Q1803.38 1531.54 1807.74 1536.5 Q1812.1 1541.47 1812.1 1550.25 Q1812.1 1559 1807.74 1564 Q1803.38 1568.97 1795.74 1568.97 Q1788.07 1568.97 1783.71 1564 Q1779.38 1559 1779.38 1550.25 Q1779.38 1541.47 1783.71 1536.5 Q1788.07 1531.54 1795.74 1531.54 Z" fill="#000000" fill-rule="evenodd" fill-opacity="1" /><path clip-path="url(#clip580)" d="M1845.27 1549.81 Q1845.27 1543.44 1842.62 1539.94 Q1840.01 1536.44 1835.27 1536.44 Q1830.56 1536.44 1827.92 1539.94 Q1825.31 1543.44 1825.31 1549.81 Q1825.31 1556.14 1827.92 1559.64 Q1830.56 1563.14 1835.27 1563.14 Q1840.01 1563.14 1842.62 1559.64 Q1845.27 1556.14 1845.27 1549.81 M1851.12 1563.62 Q1851.12 1572.72 1847.08 1577.15 Q1843.04 1581.6 1834.7 1581.6 Q1831.61 1581.6 1828.87 1581.13 Q1826.14 1580.68 1823.56 1579.72 L1823.56 1574.03 Q1826.14 1575.43 1828.65 1576.1 Q1831.17 1576.76 1833.78 1576.76 Q1839.54 1576.76 1842.4 1573.74 Q1845.27 1570.75 1845.27 1564.67 L1845.27 1561.77 Q1843.45 1564.92 1840.62 1566.48 Q1837.79 1568.04 1833.84 1568.04 Q1827.28 1568.04 1823.27 1563.05 Q1819.26 1558.05 1819.26 1549.81 Q1819.26 1541.53 1823.27 1536.53 Q1827.28 1531.54 1833.84 1531.54 Q1837.79 1531.54 1840.62 1533.1 Q1843.45 1534.66 1845.27 1537.81 L1845.27 1532.4 L1851.12 1532.4 L1851.12 1563.62 Z" fill="#000000" fill-rule="evenodd" fill-opacity="1" /><path clip-path="url(#clip580)" d="M1877.25 1518.58 Q1872.99 1525.9 1870.92 1533.06 Q1868.85 1540.23 1868.85 1547.58 Q1868.85 1554.93 1870.92 1562.16 Q1873.02 1569.35 1877.25 1576.64 L1872.16 1576.64 Q1867.39 1569.16 1865 1561.93 Q1862.64 1554.71 1862.64 1547.58 Q1862.64 1540.48 1865 1533.29 Q1867.35 1526.09 1872.16 1518.58 L1877.25 1518.58 Z" fill="#000000" fill-rule="evenodd" fill-opacity="1" /><path clip-path="url(#clip580)" d="M1888.87 1520.52 L1895.3 1520.52 L1895.3 1562.63 L1918.44 1562.63 L1918.44 1568.04 L1888.87 1568.04 L1888.87 1520.52 Z" fill="#000000" fill-rule="evenodd" fill-opacity="1" /><path clip-path="url(#clip580)" d="M1941.13 1550.12 Q1934.04 1550.12 1931.3 1551.75 Q1928.56 1553.37 1928.56 1557.29 Q1928.56 1560.4 1930.6 1562.25 Q1932.67 1564.07 1936.2 1564.07 Q1941.07 1564.07 1944 1560.63 Q1946.96 1557.16 1946.96 1551.43 L1946.96 1550.12 L1941.13 1550.12 M1952.81 1547.71 L1952.81 1568.04 L1946.96 1568.04 L1946.96 1562.63 Q1944.95 1565.88 1941.96 1567.44 Q1938.97 1568.97 1934.64 1568.97 Q1929.17 1568.97 1925.92 1565.91 Q1922.7 1562.82 1922.7 1557.67 Q1922.7 1551.65 1926.71 1548.6 Q1930.76 1545.54 1938.75 1545.54 L1946.96 1545.54 L1946.96 1544.97 Q1946.96 1540.93 1944.28 1538.73 Q1941.64 1536.5 1936.84 1536.5 Q1933.78 1536.5 1930.88 1537.23 Q1927.99 1537.97 1925.31 1539.43 L1925.31 1534.02 Q1928.53 1532.78 1931.55 1532.17 Q1934.58 1531.54 1937.44 1531.54 Q1945.18 1531.54 1948.99 1535.55 Q1952.81 1539.56 1952.81 1547.71 Z" fill="#000000" fill-rule="evenodd" fill-opacity="1" /><path clip-path="url(#clip580)" d="M1988.33 1549.81 Q1988.33 1543.44 1985.69 1539.94 Q1983.08 1536.44 1978.34 1536.44 Q1973.63 1536.44 1970.99 1539.94 Q1968.38 1543.44 1968.38 1549.81 Q1968.38 1556.14 1970.99 1559.64 Q1973.63 1563.14 1978.34 1563.14 Q1983.08 1563.14 1985.69 1559.64 Q1988.33 1556.14 1988.33 1549.81 M1994.19 1563.62 Q1994.19 1572.72 1990.15 1577.15 Q1986.11 1581.6 1977.77 1581.6 Q1974.68 1581.6 1971.94 1581.13 Q1969.21 1580.68 1966.63 1579.72 L1966.63 1574.03 Q1969.21 1575.43 1971.72 1576.1 Q1974.23 1576.76 1976.84 1576.76 Q1982.61 1576.76 1985.47 1573.74 Q1988.33 1570.75 1988.33 1564.67 L1988.33 1561.77 Q1986.52 1564.92 1983.69 1566.48 Q1980.85 1568.04 1976.91 1568.04 Q1970.35 1568.04 1966.34 1563.05 Q1962.33 1558.05 1962.33 1549.81 Q1962.33 1541.53 1966.34 1536.53 Q1970.35 1531.54 1976.91 1531.54 Q1980.85 1531.54 1983.69 1533.1 Q1986.52 1534.66 1988.33 1537.81 L1988.33 1532.4 L1994.19 1532.4 L1994.19 1563.62 Z" fill="#000000" fill-rule="evenodd" fill-opacity="1" /><path clip-path="url(#clip580)" d="M2005.33 1518.58 L2010.42 1518.58 Q2015.2 1526.09 2017.55 1533.29 Q2019.94 1540.48 2019.94 1547.58 Q2019.94 1554.71 2017.55 1561.93 Q2015.2 1569.16 2010.42 1576.64 L2005.33 1576.64 Q2009.56 1569.35 2011.63 1562.16 Q2013.73 1554.93 2013.73 1547.58 Q2013.73 1540.23 2011.63 1533.06 Q2009.56 1525.9 2005.33 1518.58 Z" fill="#000000" fill-rule="evenodd" fill-opacity="1" /><polyline clip-path="url(#clip583)" style="stroke:#000000; stroke-linecap:butt; stroke-linejoin:round; stroke-width:2; stroke-opacity:0.1; fill:none" points="
  1431,1166.84 2352.76,1166.84 
  "/>
<polyline clip-path="url(#clip583)" style="stroke:#000000; stroke-linecap:butt; stroke-linejoin:round; stroke-width:2; stroke-opacity:0.1; fill:none" points="
  1431,896.679 2352.76,896.679 
  "/>
<polyline clip-path="url(#clip583)" style="stroke:#000000; stroke-linecap:butt; stroke-linejoin:round; stroke-width:2; stroke-opacity:0.1; fill:none" points="
  1431,626.515 2352.76,626.515 
  "/>
<polyline clip-path="url(#clip583)" style="stroke:#000000; stroke-linecap:butt; stroke-linejoin:round; stroke-width:2; stroke-opacity:0.1; fill:none" points="
  1431,356.35 2352.76,356.35 
  "/>
<polyline clip-path="url(#clip583)" style="stroke:#000000; stroke-linecap:butt; stroke-linejoin:round; stroke-width:2; stroke-opacity:0.1; fill:none" points="
  1431,86.1857 2352.76,86.1857 
  "/>
<polyline clip-path="url(#clip580)" style="stroke:#000000; stroke-linecap:butt; stroke-linejoin:round; stroke-width:4; stroke-opacity:1; fill:none" points="
  1431,1423.18 1431,47.2441 
  "/>
<polyline clip-path="url(#clip580)" style="stroke:#000000; stroke-linecap:butt; stroke-linejoin:round; stroke-width:4; stroke-opacity:1; fill:none" points="
  1431,1166.84 1442.06,1166.84 
  "/>
<polyline clip-path="url(#clip580)" style="stroke:#000000; stroke-linecap:butt; stroke-linejoin:round; stroke-width:4; stroke-opacity:1; fill:none" points="
  1431,896.679 1442.06,896.679 
  "/>
<polyline clip-path="url(#clip580)" style="stroke:#000000; stroke-linecap:butt; stroke-linejoin:round; stroke-width:4; stroke-opacity:1; fill:none" points="
  1431,626.515 1442.06,626.515 
  "/>
<polyline clip-path="url(#clip580)" style="stroke:#000000; stroke-linecap:butt; stroke-linejoin:round; stroke-width:4; stroke-opacity:1; fill:none" points="
  1431,356.35 1442.06,356.35 
  "/>
<polyline clip-path="url(#clip580)" style="stroke:#000000; stroke-linecap:butt; stroke-linejoin:round; stroke-width:4; stroke-opacity:1; fill:none" points="
  1431,86.1857 1442.06,86.1857 
  "/>
<path clip-path="url(#clip580)" d="M1332.8 1167.29 L1362.48 1167.29 L1362.48 1171.23 L1332.8 1171.23 L1332.8 1167.29 Z" fill="#000000" fill-rule="evenodd" fill-opacity="1" /><path clip-path="url(#clip580)" d="M1385.42 1153.64 L1373.61 1172.09 L1385.42 1172.09 L1385.42 1153.64 M1384.19 1149.56 L1390.07 1149.56 L1390.07 1172.09 L1395 1172.09 L1395 1175.98 L1390.07 1175.98 L1390.07 1184.12 L1385.42 1184.12 L1385.42 1175.98 L1369.82 1175.98 L1369.82 1171.46 L1384.19 1149.56 Z" fill="#000000" fill-rule="evenodd" fill-opacity="1" /><path clip-path="url(#clip580)" d="M1333.94 897.13 L1363.61 897.13 L1363.61 901.066 L1333.94 901.066 L1333.94 897.13 Z" fill="#000000" fill-rule="evenodd" fill-opacity="1" /><path clip-path="url(#clip580)" d="M1387.87 895.325 Q1391.23 896.042 1393.1 898.311 Q1395 900.58 1395 903.913 Q1395 909.029 1391.48 911.829 Q1387.96 914.63 1381.48 914.63 Q1379.31 914.63 1376.99 914.191 Q1374.7 913.774 1372.25 912.917 L1372.25 908.404 Q1374.19 909.538 1376.51 910.116 Q1378.82 910.695 1381.34 910.695 Q1385.74 910.695 1388.03 908.959 Q1390.35 907.223 1390.35 903.913 Q1390.35 900.857 1388.19 899.144 Q1386.07 897.408 1382.25 897.408 L1378.22 897.408 L1378.22 893.566 L1382.43 893.566 Q1385.88 893.566 1387.71 892.2 Q1389.54 890.811 1389.54 888.218 Q1389.54 885.556 1387.64 884.144 Q1385.76 882.709 1382.25 882.709 Q1380.32 882.709 1378.13 883.126 Q1375.93 883.543 1373.29 884.422 L1373.29 880.256 Q1375.95 879.515 1378.26 879.144 Q1380.6 878.774 1382.66 878.774 Q1387.99 878.774 1391.09 881.205 Q1394.19 883.612 1394.19 887.732 Q1394.19 890.603 1392.55 892.593 Q1390.9 894.561 1387.87 895.325 Z" fill="#000000" fill-rule="evenodd" fill-opacity="1" /><path clip-path="url(#clip580)" d="M1334.89 626.966 L1364.56 626.966 L1364.56 630.901 L1334.89 630.901 L1334.89 626.966 Z" fill="#000000" fill-rule="evenodd" fill-opacity="1" /><path clip-path="url(#clip580)" d="M1378.68 639.859 L1395 639.859 L1395 643.795 L1373.06 643.795 L1373.06 639.859 Q1375.72 637.105 1380.3 632.475 Q1384.91 627.822 1386.09 626.48 Q1388.33 623.957 1389.21 622.221 Q1390.12 620.461 1390.12 618.772 Q1390.12 616.017 1388.17 614.281 Q1386.25 612.545 1383.15 612.545 Q1380.95 612.545 1378.5 613.309 Q1376.07 614.073 1373.29 615.623 L1373.29 610.901 Q1376.11 609.767 1378.57 609.188 Q1381.02 608.61 1383.06 608.61 Q1388.43 608.61 1391.62 611.295 Q1394.82 613.98 1394.82 618.471 Q1394.82 620.6 1394.01 622.522 Q1393.22 624.42 1391.11 627.012 Q1390.53 627.684 1387.43 630.901 Q1384.33 634.096 1378.68 639.859 Z" fill="#000000" fill-rule="evenodd" fill-opacity="1" /><path clip-path="url(#clip580)" d="M1334.51 356.802 L1364.19 356.802 L1364.19 360.737 L1334.51 360.737 L1334.51 356.802 Z" fill="#000000" fill-rule="evenodd" fill-opacity="1" /><path clip-path="url(#clip580)" d="M1375.09 369.695 L1382.73 369.695 L1382.73 343.329 L1374.42 344.996 L1374.42 340.737 L1382.69 339.07 L1387.36 339.07 L1387.36 369.695 L1395 369.695 L1395 373.63 L1375.09 373.63 L1375.09 369.695 Z" fill="#000000" fill-rule="evenodd" fill-opacity="1" /><path clip-path="url(#clip580)" d="M1383.06 71.9844 Q1379.44 71.9844 1377.62 75.5492 Q1375.81 79.0908 1375.81 86.2204 Q1375.81 93.3268 1377.62 96.8916 Q1379.44 100.433 1383.06 100.433 Q1386.69 100.433 1388.5 96.8916 Q1390.32 93.3268 1390.32 86.2204 Q1390.32 79.0908 1388.5 75.5492 Q1386.69 71.9844 1383.06 71.9844 M1383.06 68.2807 Q1388.87 68.2807 1391.92 72.8871 Q1395 77.4704 1395 86.2204 Q1395 94.9472 1391.92 99.5537 Q1388.87 104.137 1383.06 104.137 Q1377.25 104.137 1374.17 99.5537 Q1371.11 94.9472 1371.11 86.2204 Q1371.11 77.4704 1374.17 72.8871 Q1377.25 68.2807 1383.06 68.2807 Z" fill="#000000" fill-rule="evenodd" fill-opacity="1" /><path clip-path="url(#clip580)" d="M1233.02 984.175 L1233.02 978.318 L1282.55 978.318 L1282.55 984.175 L1233.02 984.175 Z" fill="#000000" fill-rule="evenodd" fill-opacity="1" /><path clip-path="url(#clip580)" d="M1251 952.251 Q1251 956.961 1254.7 959.699 Q1258.36 962.436 1264.75 962.436 Q1271.15 962.436 1274.84 959.73 Q1278.5 956.993 1278.5 952.251 Q1278.5 947.572 1274.81 944.835 Q1271.12 942.097 1264.75 942.097 Q1258.42 942.097 1254.73 944.835 Q1251 947.572 1251 952.251 M1246.04 952.251 Q1246.04 944.612 1251 940.251 Q1255.97 935.891 1264.75 935.891 Q1273.51 935.891 1278.5 940.251 Q1283.47 944.612 1283.47 952.251 Q1283.47 959.921 1278.5 964.282 Q1273.51 968.611 1264.75 968.611 Q1255.97 968.611 1251 964.282 Q1246.04 959.921 1246.04 952.251 Z" fill="#000000" fill-rule="evenodd" fill-opacity="1" /><path clip-path="url(#clip580)" d="M1264.31 902.726 Q1257.94 902.726 1254.44 905.367 Q1250.94 907.977 1250.94 912.72 Q1250.94 917.43 1254.44 920.072 Q1257.94 922.682 1264.31 922.682 Q1270.64 922.682 1274.14 920.072 Q1277.64 917.43 1277.64 912.72 Q1277.64 907.977 1274.14 905.367 Q1270.64 902.726 1264.31 902.726 M1278.12 896.869 Q1287.22 896.869 1291.65 900.911 Q1296.1 904.954 1296.1 913.293 Q1296.1 916.38 1295.63 919.117 Q1295.18 921.854 1294.23 924.433 L1288.53 924.433 Q1289.93 921.854 1290.6 919.34 Q1291.27 916.826 1291.27 914.216 Q1291.27 908.455 1288.24 905.59 Q1285.25 902.726 1279.17 902.726 L1276.28 902.726 Q1279.43 904.54 1280.99 907.373 Q1282.55 910.205 1282.55 914.152 Q1282.55 920.709 1277.55 924.719 Q1272.55 928.729 1264.31 928.729 Q1256.03 928.729 1251.04 924.719 Q1246.04 920.709 1246.04 914.152 Q1246.04 910.205 1247.6 907.373 Q1249.16 904.54 1252.31 902.726 L1246.9 902.726 L1246.9 896.869 L1278.12 896.869 Z" fill="#000000" fill-rule="evenodd" fill-opacity="1" /><path clip-path="url(#clip580)" d="M1233.08 870.738 Q1240.4 875.003 1247.57 877.072 Q1254.73 879.141 1262.08 879.141 Q1269.43 879.141 1276.66 877.072 Q1283.85 874.971 1291.14 870.738 L1291.14 875.83 Q1283.66 880.605 1276.43 882.992 Q1269.21 885.347 1262.08 885.347 Q1254.98 885.347 1247.79 882.992 Q1240.6 880.637 1233.08 875.83 L1233.08 870.738 Z" fill="#000000" fill-rule="evenodd" fill-opacity="1" /><path clip-path="url(#clip580)" d="M1238.69 823.536 L1245.47 823.536 Q1242.44 826.783 1240.95 830.475 Q1239.45 834.135 1239.45 838.273 Q1239.45 846.421 1244.45 850.75 Q1249.41 855.078 1258.83 855.078 Q1268.22 855.078 1273.22 850.75 Q1278.19 846.421 1278.19 838.273 Q1278.19 834.135 1276.69 830.475 Q1275.19 826.783 1272.17 823.536 L1278.89 823.536 Q1281.18 826.91 1282.32 830.698 Q1283.47 834.453 1283.47 838.655 Q1283.47 849.445 1276.88 855.651 Q1270.26 861.858 1258.83 861.858 Q1247.38 861.858 1240.79 855.651 Q1234.17 849.445 1234.17 838.655 Q1234.17 834.39 1235.31 830.634 Q1236.43 826.846 1238.69 823.536 Z" fill="#000000" fill-rule="evenodd" fill-opacity="1" /><path clip-path="url(#clip580)" d="M1251 800.047 Q1251 804.757 1254.7 807.495 Q1258.36 810.232 1264.75 810.232 Q1271.15 810.232 1274.84 807.526 Q1278.5 804.789 1278.5 800.047 Q1278.5 795.368 1274.81 792.631 Q1271.12 789.893 1264.75 789.893 Q1258.42 789.893 1254.73 792.631 Q1251 795.368 1251 800.047 M1246.04 800.047 Q1246.04 792.408 1251 788.047 Q1255.97 783.687 1264.75 783.687 Q1273.51 783.687 1278.5 788.047 Q1283.47 792.408 1283.47 800.047 Q1283.47 807.717 1278.5 812.078 Q1273.51 816.407 1264.75 816.407 Q1255.97 816.407 1251 812.078 Q1246.04 807.717 1246.04 800.047 Z" fill="#000000" fill-rule="evenodd" fill-opacity="1" /><path clip-path="url(#clip580)" d="M1252.37 753.322 Q1251.8 754.309 1251.54 755.487 Q1251.26 756.633 1251.26 758.033 Q1251.26 762.998 1254.5 765.672 Q1257.72 768.314 1263.77 768.314 L1282.55 768.314 L1282.55 774.202 L1246.9 774.202 L1246.9 768.314 L1252.44 768.314 Q1249.19 766.468 1247.63 763.508 Q1246.04 760.547 1246.04 756.314 Q1246.04 755.71 1246.13 754.977 Q1246.2 754.245 1246.36 753.354 L1252.37 753.322 Z" fill="#000000" fill-rule="evenodd" fill-opacity="1" /><path clip-path="url(#clip580)" d="M1252.37 727.669 Q1251.8 728.655 1251.54 729.833 Q1251.26 730.979 1251.26 732.379 Q1251.26 737.344 1254.5 740.018 Q1257.72 742.66 1263.77 742.66 L1282.55 742.66 L1282.55 748.548 L1246.9 748.548 L1246.9 742.66 L1252.44 742.66 Q1249.19 740.814 1247.63 737.854 Q1246.04 734.894 1246.04 730.66 Q1246.04 730.056 1246.13 729.324 Q1246.2 728.592 1246.36 727.7 L1252.37 727.669 Z" fill="#000000" fill-rule="evenodd" fill-opacity="1" /><path clip-path="url(#clip580)" d="M1263.26 692.466 L1266.12 692.466 L1266.12 719.393 Q1272.17 719.011 1275.35 715.765 Q1278.5 712.486 1278.5 706.662 Q1278.5 703.288 1277.68 700.137 Q1276.85 696.954 1275.19 693.835 L1280.73 693.835 Q1282.07 696.986 1282.77 700.296 Q1283.47 703.606 1283.47 707.012 Q1283.47 715.542 1278.5 720.539 Q1273.54 725.504 1265.07 725.504 Q1256.32 725.504 1251.19 720.794 Q1246.04 716.051 1246.04 708.03 Q1246.04 700.837 1250.69 696.668 Q1255.3 692.466 1263.26 692.466 M1261.54 698.323 Q1256.73 698.386 1253.87 701.028 Q1251 703.638 1251 707.967 Q1251 712.868 1253.77 715.828 Q1256.54 718.757 1261.57 719.202 L1261.54 698.323 Z" fill="#000000" fill-rule="evenodd" fill-opacity="1" /><path clip-path="url(#clip580)" d="M1233.02 682.854 L1233.02 676.998 L1282.55 676.998 L1282.55 682.854 L1233.02 682.854 Z" fill="#000000" fill-rule="evenodd" fill-opacity="1" /><path clip-path="url(#clip580)" d="M1264.63 648.543 Q1264.63 655.641 1266.25 658.378 Q1267.87 661.115 1271.79 661.115 Q1274.91 661.115 1276.75 659.078 Q1278.57 657.009 1278.57 653.476 Q1278.57 648.607 1275.13 645.678 Q1271.66 642.718 1265.93 642.718 L1264.63 642.718 L1264.63 648.543 M1262.21 636.862 L1282.55 636.862 L1282.55 642.718 L1277.13 642.718 Q1280.38 644.723 1281.94 647.715 Q1283.47 650.707 1283.47 655.036 Q1283.47 660.51 1280.41 663.757 Q1277.33 666.972 1272.17 666.972 Q1266.15 666.972 1263.1 662.961 Q1260.04 658.919 1260.04 650.93 L1260.04 642.718 L1259.47 642.718 Q1255.43 642.718 1253.23 645.392 Q1251 648.034 1251 652.84 Q1251 655.895 1251.74 658.792 Q1252.47 661.688 1253.93 664.362 L1248.52 664.362 Q1247.28 661.147 1246.67 658.123 Q1246.04 655.1 1246.04 652.235 Q1246.04 644.501 1250.05 640.681 Q1254.06 636.862 1262.21 636.862 Z" fill="#000000" fill-rule="evenodd" fill-opacity="1" /><path clip-path="url(#clip580)" d="M1236.78 619.006 L1246.9 619.006 L1246.9 606.943 L1251.45 606.943 L1251.45 619.006 L1270.8 619.006 Q1275.16 619.006 1276.4 617.828 Q1277.64 616.619 1277.64 612.959 L1277.64 606.943 L1282.55 606.943 L1282.55 612.959 Q1282.55 619.738 1280.03 622.316 Q1277.48 624.894 1270.8 624.894 L1251.45 624.894 L1251.45 629.191 L1246.9 629.191 L1246.9 624.894 L1236.78 624.894 L1236.78 619.006 Z" fill="#000000" fill-rule="evenodd" fill-opacity="1" /><path clip-path="url(#clip580)" d="M1246.9 599.24 L1246.9 593.384 L1282.55 593.384 L1282.55 599.24 L1246.9 599.24 M1233.02 599.24 L1233.02 593.384 L1240.44 593.384 L1240.44 599.24 L1233.02 599.24 Z" fill="#000000" fill-rule="evenodd" fill-opacity="1" /><path clip-path="url(#clip580)" d="M1251 567.316 Q1251 572.027 1254.7 574.764 Q1258.36 577.502 1264.75 577.502 Q1271.15 577.502 1274.84 574.796 Q1278.5 572.059 1278.5 567.316 Q1278.5 562.638 1274.81 559.9 Q1271.12 557.163 1264.75 557.163 Q1258.42 557.163 1254.73 559.9 Q1251 562.638 1251 567.316 M1246.04 567.316 Q1246.04 559.678 1251 555.317 Q1255.97 550.957 1264.75 550.957 Q1273.51 550.957 1278.5 555.317 Q1283.47 559.678 1283.47 567.316 Q1283.47 574.987 1278.5 579.348 Q1273.51 583.676 1264.75 583.676 Q1255.97 583.676 1251 579.348 Q1246.04 574.987 1246.04 567.316 Z" fill="#000000" fill-rule="evenodd" fill-opacity="1" /><path clip-path="url(#clip580)" d="M1261.03 511.617 L1282.55 511.617 L1282.55 517.473 L1261.22 517.473 Q1256.16 517.473 1253.65 519.446 Q1251.13 521.42 1251.13 525.366 Q1251.13 530.109 1254.15 532.846 Q1257.18 535.583 1262.4 535.583 L1282.55 535.583 L1282.55 541.472 L1246.9 541.472 L1246.9 535.583 L1252.44 535.583 Q1249.22 533.483 1247.63 530.65 Q1246.04 527.785 1246.04 524.061 Q1246.04 517.919 1249.86 514.768 Q1253.65 511.617 1261.03 511.617 Z" fill="#000000" fill-rule="evenodd" fill-opacity="1" /><path clip-path="url(#clip580)" d="M1233.08 500.858 L1233.08 495.766 Q1240.6 490.992 1247.79 488.636 Q1254.98 486.249 1262.08 486.249 Q1269.21 486.249 1276.43 488.636 Q1283.66 490.992 1291.14 495.766 L1291.14 500.858 Q1283.85 496.625 1276.66 494.556 Q1269.43 492.456 1262.08 492.456 Q1254.73 492.456 1247.57 494.556 Q1240.4 496.625 1233.08 500.858 Z" fill="#000000" fill-rule="evenodd" fill-opacity="1" /><circle clip-path="url(#clip583)" cx="1457.09" cy="86.1857" r="14" fill="#009af9" fill-rule="evenodd" fill-opacity="1" stroke="#000000" stroke-opacity="1" stroke-width="3.2"/>
<circle clip-path="url(#clip583)" cx="1637.97" cy="833.875" r="14" fill="#009af9" fill-rule="evenodd" fill-opacity="1" stroke="#000000" stroke-opacity="1" stroke-width="3.2"/>
<circle clip-path="url(#clip583)" cx="1743.78" cy="1026.25" r="14" fill="#009af9" fill-rule="evenodd" fill-opacity="1" stroke="#000000" stroke-opacity="1" stroke-width="3.2"/>
<circle clip-path="url(#clip583)" cx="1818.86" cy="1276.6" r="14" fill="#009af9" fill-rule="evenodd" fill-opacity="1" stroke="#000000" stroke-opacity="1" stroke-width="3.2"/>
<circle clip-path="url(#clip583)" cx="1877.09" cy="1246.28" r="14" fill="#009af9" fill-rule="evenodd" fill-opacity="1" stroke="#000000" stroke-opacity="1" stroke-width="3.2"/>
<circle clip-path="url(#clip583)" cx="1924.67" cy="664.55" r="14" fill="#009af9" fill-rule="evenodd" fill-opacity="1" stroke="#000000" stroke-opacity="1" stroke-width="3.2"/>
<circle clip-path="url(#clip583)" cx="1964.9" cy="788.483" r="14" fill="#009af9" fill-rule="evenodd" fill-opacity="1" stroke="#000000" stroke-opacity="1" stroke-width="3.2"/>
<circle clip-path="url(#clip583)" cx="1999.74" cy="866.405" r="14" fill="#009af9" fill-rule="evenodd" fill-opacity="1" stroke="#000000" stroke-opacity="1" stroke-width="3.2"/>
<circle clip-path="url(#clip583)" cx="2030.48" cy="1384.24" r="14" fill="#009af9" fill-rule="evenodd" fill-opacity="1" stroke="#000000" stroke-opacity="1" stroke-width="3.2"/>
<circle clip-path="url(#clip583)" cx="2082.85" cy="826.292" r="14" fill="#009af9" fill-rule="evenodd" fill-opacity="1" stroke="#000000" stroke-opacity="1" stroke-width="3.2"/>
<circle clip-path="url(#clip583)" cx="2126.44" cy="814.435" r="14" fill="#009af9" fill-rule="evenodd" fill-opacity="1" stroke="#000000" stroke-opacity="1" stroke-width="3.2"/>
<circle clip-path="url(#clip583)" cx="2180.63" cy="1161.87" r="14" fill="#009af9" fill-rule="evenodd" fill-opacity="1" stroke="#000000" stroke-opacity="1" stroke-width="3.2"/>
<circle clip-path="url(#clip583)" cx="2196.45" cy="1171.81" r="14" fill="#009af9" fill-rule="evenodd" fill-opacity="1" stroke="#000000" stroke-opacity="1" stroke-width="3.2"/>
<circle clip-path="url(#clip583)" cx="2211.37" cy="916.945" r="14" fill="#009af9" fill-rule="evenodd" fill-opacity="1" stroke="#000000" stroke-opacity="1" stroke-width="3.2"/>
<circle clip-path="url(#clip583)" cx="2225.48" cy="1078" r="14" fill="#009af9" fill-rule="evenodd" fill-opacity="1" stroke="#000000" stroke-opacity="1" stroke-width="3.2"/>
<circle clip-path="url(#clip583)" cx="2263.73" cy="771.729" r="14" fill="#009af9" fill-rule="evenodd" fill-opacity="1" stroke="#000000" stroke-opacity="1" stroke-width="3.2"/>
<circle clip-path="url(#clip583)" cx="2275.33" cy="924.334" r="14" fill="#009af9" fill-rule="evenodd" fill-opacity="1" stroke="#000000" stroke-opacity="1" stroke-width="3.2"/>
<circle clip-path="url(#clip583)" cx="2326.67" cy="787.065" r="14" fill="#009af9" fill-rule="evenodd" fill-opacity="1" stroke="#000000" stroke-opacity="1" stroke-width="3.2"/>
</svg>
