<?xml version="1.0" encoding="utf-8"?>
<svg xmlns="http://www.w3.org/2000/svg" xmlns:xlink="http://www.w3.org/1999/xlink" width="600" height="400" viewBox="0 0 2400 1600">
<defs>
  <clipPath id="clip380">
    <rect x="0" y="0" width="2400" height="1600"/>
  </clipPath>
</defs>
<path clip-path="url(#clip380)" d="
M0 1600 L2400 1600 L2400 0 L0 0  Z
  " fill="#ffffff" fill-rule="evenodd" fill-opacity="1"/>
<defs>
  <clipPath id="clip381">
    <rect x="480" y="0" width="1681" height="1600"/>
  </clipPath>
</defs>
<path clip-path="url(#clip380)" d="
M175.445 1423.18 L2352.76 1423.18 L2352.76 47.2441 L175.445 47.2441  Z
  " fill="#ffffff" fill-rule="evenodd" fill-opacity="1"/>
<defs>
  <clipPath id="clip382">
    <rect x="175" y="47" width="2178" height="1377"/>
  </clipPath>
</defs>
<polyline clip-path="url(#clip382)" style="stroke:#000000; stroke-linecap:butt; stroke-linejoin:round; stroke-width:2; stroke-opacity:0.1; fill:none" points="
  229.11,1423.18 229.11,47.2441 
  "/>
<polyline clip-path="url(#clip382)" style="stroke:#000000; stroke-linecap:butt; stroke-linejoin:round; stroke-width:2; stroke-opacity:0.1; fill:none" points="
  751.388,1423.18 751.388,47.2441 
  "/>
<polyline clip-path="url(#clip382)" style="stroke:#000000; stroke-linecap:butt; stroke-linejoin:round; stroke-width:2; stroke-opacity:0.1; fill:none" points="
  1273.67,1423.18 1273.67,47.2441 
  "/>
<polyline clip-path="url(#clip382)" style="stroke:#000000; stroke-linecap:butt; stroke-linejoin:round; stroke-width:2; stroke-opacity:0.1; fill:none" points="
  1795.95,1423.18 1795.95,47.2441 
  "/>
<polyline clip-path="url(#clip382)" style="stroke:#000000; stroke-linecap:butt; stroke-linejoin:round; stroke-width:2; stroke-opacity:0.1; fill:none" points="
  2318.22,1423.18 2318.22,47.2441 
  "/>
<polyline clip-path="url(#clip380)" style="stroke:#000000; stroke-linecap:butt; stroke-linejoin:round; stroke-width:4; stroke-opacity:1; fill:none" points="
  175.445,1423.18 2352.76,1423.18 
  "/>
<polyline clip-path="url(#clip380)" style="stroke:#000000; stroke-linecap:butt; stroke-linejoin:round; stroke-width:4; stroke-opacity:1; fill:none" points="
  229.11,1423.18 229.11,1406.67 
  "/>
<polyline clip-path="url(#clip380)" style="stroke:#000000; stroke-linecap:butt; stroke-linejoin:round; stroke-width:4; stroke-opacity:1; fill:none" points="
  751.388,1423.18 751.388,1406.67 
  "/>
<polyline clip-path="url(#clip380)" style="stroke:#000000; stroke-linecap:butt; stroke-linejoin:round; stroke-width:4; stroke-opacity:1; fill:none" points="
  1273.67,1423.18 1273.67,1406.67 
  "/>
<polyline clip-path="url(#clip380)" style="stroke:#000000; stroke-linecap:butt; stroke-linejoin:round; stroke-width:4; stroke-opacity:1; fill:none" points="
  1795.95,1423.18 1795.95,1406.67 
  "/>
<polyline clip-path="url(#clip380)" style="stroke:#000000; stroke-linecap:butt; stroke-linejoin:round; stroke-width:4; stroke-opacity:1; fill:none" points="
  2318.22,1423.18 2318.22,1406.67 
  "/>
<path clip-path="url(#clip380)" d="M229.11 1452.37 Q225.498 1452.37 223.67 1455.94 Q221.864 1459.48 221.864 1466.61 Q221.864 1473.71 223.67 1477.28 Q225.498 1480.82 229.11 1480.82 Q232.744 1480.82 234.549 1477.28 Q236.378 1473.71 236.378 1466.61 Q236.378 1459.48 234.549 1455.94 Q232.744 1452.37 229.11 1452.37 M229.11 1448.67 Q234.92 1448.67 237.975 1453.27 Q241.054 1457.86 241.054 1466.61 Q241.054 1475.33 237.975 1479.94 Q234.92 1484.52 229.11 1484.52 Q223.299 1484.52 220.221 1479.94 Q217.165 1475.33 217.165 1466.61 Q217.165 1457.86 220.221 1453.27 Q223.299 1448.67 229.11 1448.67 Z" fill="#000000" fill-rule="evenodd" fill-opacity="1" /><path clip-path="url(#clip380)" d="M741.666 1449.29 L760.022 1449.29 L760.022 1453.23 L745.948 1453.23 L745.948 1461.7 Q746.967 1461.35 747.985 1461.19 Q749.004 1461 750.022 1461 Q755.809 1461 759.189 1464.18 Q762.569 1467.35 762.569 1472.76 Q762.569 1478.34 759.097 1481.44 Q755.624 1484.52 749.305 1484.52 Q747.129 1484.52 744.86 1484.15 Q742.615 1483.78 740.208 1483.04 L740.208 1478.34 Q742.291 1479.48 744.513 1480.03 Q746.735 1480.59 749.212 1480.59 Q753.217 1480.59 755.555 1478.48 Q757.893 1476.38 757.893 1472.76 Q757.893 1469.15 755.555 1467.05 Q753.217 1464.94 749.212 1464.94 Q747.337 1464.94 745.462 1465.36 Q743.61 1465.77 741.666 1466.65 L741.666 1449.29 Z" fill="#000000" fill-rule="evenodd" fill-opacity="1" /><path clip-path="url(#clip380)" d="M1248.35 1479.92 L1255.99 1479.92 L1255.99 1453.55 L1247.68 1455.22 L1247.68 1450.96 L1255.95 1449.29 L1260.62 1449.29 L1260.62 1479.92 L1268.26 1479.92 L1268.26 1483.85 L1248.35 1483.85 L1248.35 1479.92 Z" fill="#000000" fill-rule="evenodd" fill-opacity="1" /><path clip-path="url(#clip380)" d="M1287.71 1452.37 Q1284.1 1452.37 1282.27 1455.94 Q1280.46 1459.48 1280.46 1466.61 Q1280.46 1473.71 1282.27 1477.28 Q1284.1 1480.82 1287.71 1480.82 Q1291.34 1480.82 1293.15 1477.28 Q1294.97 1473.71 1294.97 1466.61 Q1294.97 1459.48 1293.15 1455.94 Q1291.34 1452.37 1287.71 1452.37 M1287.71 1448.67 Q1293.52 1448.67 1296.57 1453.27 Q1299.65 1457.86 1299.65 1466.61 Q1299.65 1475.33 1296.57 1479.94 Q1293.52 1484.52 1287.71 1484.52 Q1281.9 1484.52 1278.82 1479.94 Q1275.76 1475.33 1275.76 1466.61 Q1275.76 1457.86 1278.82 1453.27 Q1281.9 1448.67 1287.71 1448.67 Z" fill="#000000" fill-rule="evenodd" fill-opacity="1" /><path clip-path="url(#clip380)" d="M1771.13 1479.92 L1778.77 1479.92 L1778.77 1453.55 L1770.46 1455.22 L1770.46 1450.96 L1778.72 1449.29 L1783.4 1449.29 L1783.4 1479.92 L1791.04 1479.92 L1791.04 1483.85 L1771.13 1483.85 L1771.13 1479.92 Z" fill="#000000" fill-rule="evenodd" fill-opacity="1" /><path clip-path="url(#clip380)" d="M1800.53 1449.29 L1818.89 1449.29 L1818.89 1453.23 L1804.81 1453.23 L1804.81 1461.7 Q1805.83 1461.35 1806.85 1461.19 Q1807.87 1461 1808.89 1461 Q1814.67 1461 1818.05 1464.18 Q1821.43 1467.35 1821.43 1472.76 Q1821.43 1478.34 1817.96 1481.44 Q1814.49 1484.52 1808.17 1484.52 Q1805.99 1484.52 1803.72 1484.15 Q1801.48 1483.78 1799.07 1483.04 L1799.07 1478.34 Q1801.15 1479.48 1803.38 1480.03 Q1805.6 1480.59 1808.08 1480.59 Q1812.08 1480.59 1814.42 1478.48 Q1816.76 1476.38 1816.76 1472.76 Q1816.76 1469.15 1814.42 1467.05 Q1812.08 1464.94 1808.08 1464.94 Q1806.2 1464.94 1804.33 1465.36 Q1802.47 1465.77 1800.53 1466.65 L1800.53 1449.29 Z" fill="#000000" fill-rule="evenodd" fill-opacity="1" /><path clip-path="url(#clip380)" d="M2297 1479.92 L2313.32 1479.92 L2313.32 1483.85 L2291.37 1483.85 L2291.37 1479.92 Q2294.03 1477.16 2298.62 1472.53 Q2303.22 1467.88 2304.4 1466.54 Q2306.65 1464.01 2307.53 1462.28 Q2308.43 1460.52 2308.43 1458.83 Q2308.43 1456.07 2306.49 1454.34 Q2304.57 1452.6 2301.46 1452.6 Q2299.27 1452.6 2296.81 1453.37 Q2294.38 1454.13 2291.6 1455.68 L2291.6 1450.96 Q2294.43 1449.82 2296.88 1449.25 Q2299.34 1448.67 2301.37 1448.67 Q2306.74 1448.67 2309.94 1451.35 Q2313.13 1454.04 2313.13 1458.53 Q2313.13 1460.66 2312.32 1462.58 Q2311.53 1464.48 2309.43 1467.07 Q2308.85 1467.74 2305.75 1470.96 Q2302.65 1474.15 2297 1479.92 Z" fill="#000000" fill-rule="evenodd" fill-opacity="1" /><path clip-path="url(#clip380)" d="M2333.13 1452.37 Q2329.52 1452.37 2327.69 1455.94 Q2325.89 1459.48 2325.89 1466.61 Q2325.89 1473.71 2327.69 1477.28 Q2329.52 1480.82 2333.13 1480.82 Q2336.77 1480.82 2338.57 1477.28 Q2340.4 1473.71 2340.4 1466.61 Q2340.4 1459.48 2338.57 1455.94 Q2336.77 1452.37 2333.13 1452.37 M2333.13 1448.67 Q2338.94 1448.67 2342 1453.27 Q2345.08 1457.86 2345.08 1466.61 Q2345.08 1475.33 2342 1479.94 Q2338.94 1484.52 2333.13 1484.52 Q2327.32 1484.52 2324.24 1479.94 Q2321.19 1475.33 2321.19 1466.61 Q2321.19 1457.86 2324.24 1453.27 Q2327.32 1448.67 2333.13 1448.67 Z" fill="#000000" fill-rule="evenodd" fill-opacity="1" /><path clip-path="url(#clip380)" d="M957.083 1520.52 L965.74 1520.52 L986.81 1560.28 L986.81 1520.52 L993.049 1520.52 L993.049 1568.04 L984.391 1568.04 L963.321 1528.29 L963.321 1568.04 L957.083 1568.04 L957.083 1520.52 Z" fill="#000000" fill-rule="evenodd" fill-opacity="1" /><path clip-path="url(#clip380)" d="M1004.98 1553.98 L1004.98 1532.4 L1010.84 1532.4 L1010.84 1553.75 Q1010.84 1558.81 1012.81 1561.36 Q1014.79 1563.87 1018.73 1563.87 Q1023.48 1563.87 1026.21 1560.85 Q1028.98 1557.83 1028.98 1552.61 L1028.98 1532.4 L1034.84 1532.4 L1034.84 1568.04 L1028.98 1568.04 L1028.98 1562.57 Q1026.85 1565.82 1024.02 1567.41 Q1021.22 1568.97 1017.49 1568.97 Q1011.35 1568.97 1008.17 1565.15 Q1004.98 1561.33 1004.98 1553.98 M1019.72 1531.54 L1019.72 1531.54 Z" fill="#000000" fill-rule="evenodd" fill-opacity="1" /><path clip-path="url(#clip380)" d="M1074.66 1539.24 Q1076.85 1535.29 1079.91 1533.41 Q1082.96 1531.54 1087.1 1531.54 Q1092.67 1531.54 1095.7 1535.45 Q1098.72 1539.33 1098.72 1546.53 L1098.72 1568.04 L1092.83 1568.04 L1092.83 1546.72 Q1092.83 1541.59 1091.02 1539.11 Q1089.2 1536.63 1085.48 1536.63 Q1080.93 1536.63 1078.29 1539.65 Q1075.64 1542.68 1075.64 1547.9 L1075.64 1568.04 L1069.76 1568.04 L1069.76 1546.72 Q1069.76 1541.56 1067.94 1539.11 Q1066.13 1536.63 1062.34 1536.63 Q1057.85 1536.63 1055.21 1539.68 Q1052.57 1542.71 1052.57 1547.9 L1052.57 1568.04 L1046.68 1568.04 L1046.68 1532.4 L1052.57 1532.4 L1052.57 1537.93 Q1054.57 1534.66 1057.37 1533.1 Q1060.18 1531.54 1064.03 1531.54 Q1067.91 1531.54 1070.61 1533.51 Q1073.35 1535.48 1074.66 1539.24 Z" fill="#000000" fill-rule="evenodd" fill-opacity="1" /><path clip-path="url(#clip380)" d="M1135.99 1550.25 Q1135.99 1543.79 1133.32 1540.13 Q1130.68 1536.44 1126.03 1536.44 Q1121.38 1536.44 1118.71 1540.13 Q1116.07 1543.79 1116.07 1550.25 Q1116.07 1556.71 1118.71 1560.4 Q1121.38 1564.07 1126.03 1564.07 Q1130.68 1564.07 1133.32 1560.4 Q1135.99 1556.71 1135.99 1550.25 M1116.07 1537.81 Q1117.91 1534.62 1120.71 1533.1 Q1123.55 1531.54 1127.46 1531.54 Q1133.95 1531.54 1138 1536.69 Q1142.07 1541.85 1142.07 1550.25 Q1142.07 1558.65 1138 1563.81 Q1133.95 1568.97 1127.46 1568.97 Q1123.55 1568.97 1120.71 1567.44 Q1117.91 1565.88 1116.07 1562.7 L1116.07 1568.04 L1110.18 1568.04 L1110.18 1518.52 L1116.07 1518.52 L1116.07 1537.81 Z" fill="#000000" fill-rule="evenodd" fill-opacity="1" /><path clip-path="url(#clip380)" d="M1182.27 1548.76 L1182.27 1551.62 L1155.34 1551.62 Q1155.72 1557.67 1158.97 1560.85 Q1162.25 1564 1168.07 1564 Q1171.45 1564 1174.6 1563.17 Q1177.78 1562.35 1180.9 1560.69 L1180.9 1566.23 Q1177.75 1567.57 1174.44 1568.27 Q1171.13 1568.97 1167.72 1568.97 Q1159.19 1568.97 1154.2 1564 Q1149.23 1559.04 1149.23 1550.57 Q1149.23 1541.82 1153.94 1536.69 Q1158.68 1531.54 1166.71 1531.54 Q1173.9 1531.54 1178.07 1536.18 Q1182.27 1540.8 1182.27 1548.76 M1176.41 1547.04 Q1176.35 1542.23 1173.71 1539.37 Q1171.1 1536.5 1166.77 1536.5 Q1161.87 1536.5 1158.91 1539.27 Q1155.98 1542.04 1155.53 1547.07 L1176.41 1547.04 Z" fill="#000000" fill-rule="evenodd" fill-opacity="1" /><path clip-path="url(#clip380)" d="M1212.54 1537.87 Q1211.55 1537.3 1210.37 1537.04 Q1209.23 1536.76 1207.83 1536.76 Q1202.86 1536.76 1200.19 1540 Q1197.55 1543.22 1197.55 1549.27 L1197.55 1568.04 L1191.66 1568.04 L1191.66 1532.4 L1197.55 1532.4 L1197.55 1537.93 Q1199.39 1534.69 1202.35 1533.13 Q1205.31 1531.54 1209.55 1531.54 Q1210.15 1531.54 1210.88 1531.63 Q1211.62 1531.7 1212.51 1531.85 L1212.54 1537.87 Z" fill="#000000" fill-rule="evenodd" fill-opacity="1" /><path clip-path="url(#clip380)" d="M1253.22 1536.5 Q1248.5 1536.5 1245.77 1540.19 Q1243.03 1543.85 1243.03 1550.25 Q1243.03 1556.65 1245.74 1560.34 Q1248.47 1564 1253.22 1564 Q1257.89 1564 1260.63 1560.31 Q1263.37 1556.62 1263.37 1550.25 Q1263.37 1543.92 1260.63 1540.23 Q1257.89 1536.5 1253.22 1536.5 M1253.22 1531.54 Q1260.85 1531.54 1265.21 1536.5 Q1269.58 1541.47 1269.58 1550.25 Q1269.58 1559 1265.21 1564 Q1260.85 1568.97 1253.22 1568.97 Q1245.54 1568.97 1241.18 1564 Q1236.86 1559 1236.86 1550.25 Q1236.86 1541.47 1241.18 1536.5 Q1245.54 1531.54 1253.22 1531.54 Z" fill="#000000" fill-rule="evenodd" fill-opacity="1" /><path clip-path="url(#clip380)" d="M1297.33 1518.52 L1297.33 1523.39 L1291.73 1523.39 Q1288.58 1523.39 1287.34 1524.66 Q1286.13 1525.93 1286.13 1529.24 L1286.13 1532.4 L1295.77 1532.4 L1295.77 1536.95 L1286.13 1536.95 L1286.13 1568.04 L1280.24 1568.04 L1280.24 1536.95 L1274.64 1536.95 L1274.64 1532.4 L1280.24 1532.4 L1280.24 1529.91 Q1280.24 1523.96 1283.01 1521.26 Q1285.78 1518.52 1291.79 1518.52 L1297.33 1518.52 Z" fill="#000000" fill-rule="evenodd" fill-opacity="1" /><path clip-path="url(#clip380)" d="M1329.64 1545.35 L1329.64 1562.76 L1339.95 1562.76 Q1345.14 1562.76 1347.62 1560.63 Q1350.13 1558.46 1350.13 1554.04 Q1350.13 1549.58 1347.62 1547.48 Q1345.14 1545.35 1339.95 1545.35 L1329.64 1545.35 M1329.64 1525.81 L1329.64 1540.13 L1339.15 1540.13 Q1343.86 1540.13 1346.15 1538.38 Q1348.48 1536.6 1348.48 1532.97 Q1348.48 1529.37 1346.15 1527.59 Q1343.86 1525.81 1339.15 1525.81 L1329.64 1525.81 M1323.21 1520.52 L1339.63 1520.52 Q1346.98 1520.52 1350.96 1523.58 Q1354.94 1526.63 1354.94 1532.27 Q1354.94 1536.63 1352.9 1539.21 Q1350.87 1541.79 1346.92 1542.42 Q1351.66 1543.44 1354.27 1546.69 Q1356.91 1549.9 1356.91 1554.74 Q1356.91 1561.11 1352.58 1564.57 Q1348.26 1568.04 1340.27 1568.04 L1323.21 1568.04 L1323.21 1520.52 Z" fill="#000000" fill-rule="evenodd" fill-opacity="1" /><path clip-path="url(#clip380)" d="M1367.67 1532.4 L1373.53 1532.4 L1373.53 1568.04 L1367.67 1568.04 L1367.67 1532.4 M1367.67 1518.52 L1373.53 1518.52 L1373.53 1525.93 L1367.67 1525.93 L1367.67 1518.52 Z" fill="#000000" fill-rule="evenodd" fill-opacity="1" /><path clip-path="url(#clip380)" d="M1391.57 1522.27 L1391.57 1532.4 L1403.64 1532.4 L1403.64 1536.95 L1391.57 1536.95 L1391.57 1556.3 Q1391.57 1560.66 1392.75 1561.9 Q1393.96 1563.14 1397.62 1563.14 L1403.64 1563.14 L1403.64 1568.04 L1397.62 1568.04 Q1390.84 1568.04 1388.26 1565.53 Q1385.69 1562.98 1385.69 1556.3 L1385.69 1536.95 L1381.39 1536.95 L1381.39 1532.4 L1385.69 1532.4 L1385.69 1522.27 L1391.57 1522.27 Z" fill="#000000" fill-rule="evenodd" fill-opacity="1" /><path clip-path="url(#clip380)" d="M1436.99 1533.76 L1436.99 1539.24 Q1434.51 1537.87 1432 1537.2 Q1429.51 1536.5 1426.97 1536.5 Q1421.27 1536.5 1418.12 1540.13 Q1414.97 1543.73 1414.97 1550.25 Q1414.97 1556.78 1418.12 1560.4 Q1421.27 1564 1426.97 1564 Q1429.51 1564 1432 1563.33 Q1434.51 1562.63 1436.99 1561.26 L1436.99 1566.68 Q1434.54 1567.82 1431.9 1568.39 Q1429.29 1568.97 1426.33 1568.97 Q1418.28 1568.97 1413.54 1563.91 Q1408.79 1558.85 1408.79 1550.25 Q1408.79 1541.53 1413.57 1536.53 Q1418.37 1531.54 1426.71 1531.54 Q1429.42 1531.54 1432 1532.11 Q1434.57 1532.65 1436.99 1533.76 Z" fill="#000000" fill-rule="evenodd" fill-opacity="1" /><path clip-path="url(#clip380)" d="M1460.99 1536.5 Q1456.28 1536.5 1453.54 1540.19 Q1450.81 1543.85 1450.81 1550.25 Q1450.81 1556.65 1453.51 1560.34 Q1456.25 1564 1460.99 1564 Q1465.67 1564 1468.41 1560.31 Q1471.15 1556.62 1471.15 1550.25 Q1471.15 1543.92 1468.41 1540.23 Q1465.67 1536.5 1460.99 1536.5 M1460.99 1531.54 Q1468.63 1531.54 1472.99 1536.5 Q1477.35 1541.47 1477.35 1550.25 Q1477.35 1559 1472.99 1564 Q1468.63 1568.97 1460.99 1568.97 Q1453.32 1568.97 1448.96 1564 Q1444.63 1559 1444.63 1550.25 Q1444.63 1541.47 1448.96 1536.5 Q1453.32 1531.54 1460.99 1531.54 Z" fill="#000000" fill-rule="evenodd" fill-opacity="1" /><path clip-path="url(#clip380)" d="M1487.06 1532.4 L1492.92 1532.4 L1492.92 1568.04 L1487.06 1568.04 L1487.06 1532.4 M1487.06 1518.52 L1492.92 1518.52 L1492.92 1525.93 L1487.06 1525.93 L1487.06 1518.52 Z" fill="#000000" fill-rule="evenodd" fill-opacity="1" /><path clip-path="url(#clip380)" d="M1534.8 1546.53 L1534.8 1568.04 L1528.95 1568.04 L1528.95 1546.72 Q1528.95 1541.66 1526.97 1539.14 Q1525 1536.63 1521.05 1536.63 Q1516.31 1536.63 1513.57 1539.65 Q1510.84 1542.68 1510.84 1547.9 L1510.84 1568.04 L1504.95 1568.04 L1504.95 1532.4 L1510.84 1532.4 L1510.84 1537.93 Q1512.94 1534.72 1515.77 1533.13 Q1518.63 1531.54 1522.36 1531.54 Q1528.5 1531.54 1531.65 1535.36 Q1534.8 1539.14 1534.8 1546.53 Z" fill="#000000" fill-rule="evenodd" fill-opacity="1" /><path clip-path="url(#clip380)" d="M1569.21 1533.45 L1569.21 1538.98 Q1566.73 1537.71 1564.05 1537.07 Q1561.38 1536.44 1558.51 1536.44 Q1554.15 1536.44 1551.96 1537.77 Q1549.79 1539.11 1549.79 1541.79 Q1549.79 1543.82 1551.35 1545 Q1552.91 1546.15 1557.62 1547.2 L1559.63 1547.64 Q1565.87 1548.98 1568.48 1551.43 Q1571.12 1553.85 1571.12 1558.21 Q1571.12 1563.17 1567.17 1566.07 Q1563.26 1568.97 1556.38 1568.97 Q1553.52 1568.97 1550.4 1568.39 Q1547.31 1567.85 1543.87 1566.74 L1543.87 1560.69 Q1547.12 1562.38 1550.27 1563.24 Q1553.42 1564.07 1556.51 1564.07 Q1560.65 1564.07 1562.87 1562.66 Q1565.1 1561.23 1565.1 1558.65 Q1565.1 1556.27 1563.48 1554.99 Q1561.89 1553.72 1556.45 1552.54 L1554.41 1552.07 Q1548.97 1550.92 1546.55 1548.56 Q1544.13 1546.18 1544.13 1542.04 Q1544.13 1537.01 1547.69 1534.27 Q1551.26 1531.54 1557.81 1531.54 Q1561.06 1531.54 1563.93 1532.01 Q1566.79 1532.49 1569.21 1533.45 Z" fill="#000000" fill-rule="evenodd" fill-opacity="1" /><polyline clip-path="url(#clip382)" style="stroke:#000000; stroke-linecap:butt; stroke-linejoin:round; stroke-width:2; stroke-opacity:0.1; fill:none" points="
  175.445,1384.24 2352.76,1384.24 
  "/>
<polyline clip-path="url(#clip382)" style="stroke:#000000; stroke-linecap:butt; stroke-linejoin:round; stroke-width:2; stroke-opacity:0.1; fill:none" points="
  175.445,1069.38 2352.76,1069.38 
  "/>
<polyline clip-path="url(#clip382)" style="stroke:#000000; stroke-linecap:butt; stroke-linejoin:round; stroke-width:2; stroke-opacity:0.1; fill:none" points="
  175.445,754.519 2352.76,754.519 
  "/>
<polyline clip-path="url(#clip382)" style="stroke:#000000; stroke-linecap:butt; stroke-linejoin:round; stroke-width:2; stroke-opacity:0.1; fill:none" points="
  175.445,439.659 2352.76,439.659 
  "/>
<polyline clip-path="url(#clip382)" style="stroke:#000000; stroke-linecap:butt; stroke-linejoin:round; stroke-width:2; stroke-opacity:0.1; fill:none" points="
  175.445,124.8 2352.76,124.8 
  "/>
<polyline clip-path="url(#clip380)" style="stroke:#000000; stroke-linecap:butt; stroke-linejoin:round; stroke-width:4; stroke-opacity:1; fill:none" points="
  175.445,1423.18 175.445,47.2441 
  "/>
<polyline clip-path="url(#clip380)" style="stroke:#000000; stroke-linecap:butt; stroke-linejoin:round; stroke-width:4; stroke-opacity:1; fill:none" points="
  175.445,1384.24 201.573,1384.24 
  "/>
<polyline clip-path="url(#clip380)" style="stroke:#000000; stroke-linecap:butt; stroke-linejoin:round; stroke-width:4; stroke-opacity:1; fill:none" points="
  175.445,1069.38 201.573,1069.38 
  "/>
<polyline clip-path="url(#clip380)" style="stroke:#000000; stroke-linecap:butt; stroke-linejoin:round; stroke-width:4; stroke-opacity:1; fill:none" points="
  175.445,754.519 201.573,754.519 
  "/>
<polyline clip-path="url(#clip380)" style="stroke:#000000; stroke-linecap:butt; stroke-linejoin:round; stroke-width:4; stroke-opacity:1; fill:none" points="
  175.445,439.659 201.573,439.659 
  "/>
<polyline clip-path="url(#clip380)" style="stroke:#000000; stroke-linecap:butt; stroke-linejoin:round; stroke-width:4; stroke-opacity:1; fill:none" points="
  175.445,124.8 201.573,124.8 
  "/>
<path clip-path="url(#clip380)" d="M127.501 1370.04 Q123.89 1370.04 122.061 1373.6 Q120.255 1377.14 120.255 1384.27 Q120.255 1391.38 122.061 1394.94 Q123.89 1398.49 127.501 1398.49 Q131.135 1398.49 132.941 1394.94 Q134.769 1391.38 134.769 1384.27 Q134.769 1377.14 132.941 1373.6 Q131.135 1370.04 127.501 1370.04 M127.501 1366.33 Q133.311 1366.33 136.367 1370.94 Q139.445 1375.52 139.445 1384.27 Q139.445 1393 136.367 1397.61 Q133.311 1402.19 127.501 1402.19 Q121.691 1402.19 118.612 1397.61 Q115.556 1393 115.556 1384.27 Q115.556 1375.52 118.612 1370.94 Q121.691 1366.33 127.501 1366.33 Z" fill="#000000" fill-rule="evenodd" fill-opacity="1" /><path clip-path="url(#clip380)" d="M123.126 1082.72 L139.445 1082.72 L139.445 1086.66 L117.501 1086.66 L117.501 1082.72 Q120.163 1079.97 124.746 1075.34 Q129.353 1070.69 130.533 1069.34 Q132.779 1066.82 133.658 1065.08 Q134.561 1063.33 134.561 1061.64 Q134.561 1058.88 132.617 1057.14 Q130.695 1055.41 127.593 1055.41 Q125.394 1055.41 122.941 1056.17 Q120.51 1056.94 117.732 1058.49 L117.732 1053.77 Q120.556 1052.63 123.01 1052.05 Q125.464 1051.47 127.501 1051.47 Q132.871 1051.47 136.066 1054.16 Q139.26 1056.84 139.26 1061.33 Q139.26 1063.46 138.45 1065.39 Q137.663 1067.28 135.556 1069.88 Q134.978 1070.55 131.876 1073.77 Q128.774 1076.96 123.126 1082.72 Z" fill="#000000" fill-rule="evenodd" fill-opacity="1" /><path clip-path="url(#clip380)" d="M129.862 741.313 L118.056 759.762 L129.862 759.762 L129.862 741.313 M128.635 737.239 L134.515 737.239 L134.515 759.762 L139.445 759.762 L139.445 763.651 L134.515 763.651 L134.515 771.799 L129.862 771.799 L129.862 763.651 L114.26 763.651 L114.26 759.137 L128.635 737.239 Z" fill="#000000" fill-rule="evenodd" fill-opacity="1" /><path clip-path="url(#clip380)" d="M127.917 437.796 Q124.769 437.796 122.918 439.949 Q121.089 442.102 121.089 445.852 Q121.089 449.578 122.918 451.754 Q124.769 453.907 127.917 453.907 Q131.066 453.907 132.894 451.754 Q134.746 449.578 134.746 445.852 Q134.746 442.102 132.894 439.949 Q131.066 437.796 127.917 437.796 M137.2 423.143 L137.2 427.403 Q135.441 426.569 133.635 426.129 Q131.853 425.69 130.093 425.69 Q125.464 425.69 123.01 428.815 Q120.58 431.94 120.232 438.259 Q121.598 436.245 123.658 435.18 Q125.718 434.092 128.195 434.092 Q133.404 434.092 136.413 437.264 Q139.445 440.412 139.445 445.852 Q139.445 451.176 136.297 454.393 Q133.149 457.611 127.917 457.611 Q121.922 457.611 118.751 453.027 Q115.58 448.421 115.58 439.694 Q115.58 431.5 119.468 426.639 Q123.357 421.755 129.908 421.755 Q131.667 421.755 133.45 422.102 Q135.255 422.449 137.2 423.143 Z" fill="#000000" fill-rule="evenodd" fill-opacity="1" /><path clip-path="url(#clip380)" d="M127.593 125.668 Q124.26 125.668 122.339 127.45 Q120.441 129.233 120.441 132.358 Q120.441 135.483 122.339 137.265 Q124.26 139.048 127.593 139.048 Q130.927 139.048 132.848 137.265 Q134.769 135.46 134.769 132.358 Q134.769 129.233 132.848 127.45 Q130.95 125.668 127.593 125.668 M122.918 123.677 Q119.908 122.936 118.218 120.876 Q116.552 118.816 116.552 115.853 Q116.552 111.71 119.492 109.302 Q122.455 106.895 127.593 106.895 Q132.755 106.895 135.695 109.302 Q138.635 111.71 138.635 115.853 Q138.635 118.816 136.945 120.876 Q135.279 122.936 132.292 123.677 Q135.672 124.464 137.547 126.756 Q139.445 129.048 139.445 132.358 Q139.445 137.381 136.367 140.066 Q133.311 142.751 127.593 142.751 Q121.876 142.751 118.797 140.066 Q115.742 137.381 115.742 132.358 Q115.742 129.048 117.64 126.756 Q119.538 124.464 122.918 123.677 M121.205 116.293 Q121.205 118.978 122.871 120.483 Q124.561 121.987 127.593 121.987 Q130.603 121.987 132.292 120.483 Q134.005 118.978 134.005 116.293 Q134.005 113.608 132.292 112.103 Q130.603 110.599 127.593 110.599 Q124.561 110.599 122.871 112.103 Q121.205 113.608 121.205 116.293 Z" fill="#000000" fill-rule="evenodd" fill-opacity="1" /><path clip-path="url(#clip380)" d="M20.1444 858.866 L26.9239 858.866 Q23.9002 862.112 22.4043 865.804 Q20.9083 869.465 20.9083 873.602 Q20.9083 881.751 25.9054 886.079 Q30.8707 890.408 40.2919 890.408 Q49.6813 890.408 54.6784 886.079 Q59.6436 881.751 59.6436 873.602 Q59.6436 869.465 58.1477 865.804 Q56.6518 862.112 53.6281 858.866 L60.3439 858.866 Q62.6355 862.24 63.7814 866.027 Q64.9272 869.783 64.9272 873.984 Q64.9272 884.774 58.3387 890.981 Q51.7183 897.187 40.2919 897.187 Q28.8336 897.187 22.2451 890.981 Q15.6248 884.774 15.6248 873.984 Q15.6248 869.719 16.7706 865.964 Q17.8846 862.176 20.1444 858.866 Z" fill="#000000" fill-rule="evenodd" fill-opacity="1" /><path clip-path="url(#clip380)" d="M32.4621 835.376 Q32.4621 840.087 36.1542 842.824 Q39.8145 845.561 46.212 845.561 Q52.6095 845.561 56.3017 842.856 Q59.9619 840.119 59.9619 835.376 Q59.9619 830.698 56.2698 827.96 Q52.5777 825.223 46.212 825.223 Q39.8781 825.223 36.186 827.96 Q32.4621 830.698 32.4621 835.376 M27.4968 835.376 Q27.4968 827.738 32.4621 823.377 Q37.4273 819.016 46.212 819.016 Q54.9649 819.016 59.9619 823.377 Q64.9272 827.738 64.9272 835.376 Q64.9272 843.047 59.9619 847.408 Q54.9649 851.736 46.212 851.736 Q37.4273 851.736 32.4621 847.408 Q27.4968 843.047 27.4968 835.376 Z" fill="#000000" fill-rule="evenodd" fill-opacity="1" /><path clip-path="url(#clip380)" d="M29.4065 786.583 L34.9447 786.583 Q33.6716 789.066 33.035 791.739 Q32.3984 794.413 32.3984 797.278 Q32.3984 801.638 33.7352 803.834 Q35.072 805.999 37.7456 805.999 Q39.7826 805.999 40.9603 804.439 Q42.1061 802.879 43.1565 798.169 L43.6021 796.164 Q44.9389 789.925 47.3897 787.315 Q49.8086 784.674 54.1691 784.674 Q59.1344 784.674 62.0308 788.62 Q64.9272 792.535 64.9272 799.41 Q64.9272 802.275 64.3543 805.394 Q63.8132 808.481 62.6992 811.919 L56.6518 811.919 Q58.3387 808.672 59.198 805.521 Q60.0256 802.37 60.0256 799.283 Q60.0256 795.145 58.6251 792.917 Q57.1929 790.689 54.6147 790.689 Q52.2276 790.689 50.9545 792.312 Q49.6813 793.904 48.5037 799.346 L48.0262 801.383 Q46.8804 806.826 44.5251 809.245 Q42.138 811.664 38.0002 811.664 Q32.9713 811.664 30.2341 808.099 Q27.4968 804.535 27.4968 797.978 Q27.4968 794.731 27.9743 791.867 Q28.4517 789.002 29.4065 786.583 Z" fill="#000000" fill-rule="evenodd" fill-opacity="1" /><path clip-path="url(#clip380)" d="M18.2347 769.555 L28.3562 769.555 L28.3562 757.492 L32.9077 757.492 L32.9077 769.555 L52.2594 769.555 Q56.6199 769.555 57.8613 768.377 Q59.1026 767.168 59.1026 763.508 L59.1026 757.492 L64.0042 757.492 L64.0042 763.508 Q64.0042 770.287 61.4897 772.865 Q58.9434 775.443 52.2594 775.443 L32.9077 775.443 L32.9077 779.74 L28.3562 779.74 L28.3562 775.443 L18.2347 775.443 L18.2347 769.555 Z" fill="#000000" fill-rule="evenodd" fill-opacity="1" /><path clip-path="url(#clip380)" d="M14.5426 715.001 Q21.8632 719.266 29.0246 721.335 Q36.186 723.404 43.5384 723.404 Q50.8908 723.404 58.1159 721.335 Q65.3091 719.234 72.5979 715.001 L72.5979 720.093 Q65.1182 724.868 57.8931 727.255 Q50.668 729.61 43.5384 729.61 Q36.4406 729.61 29.2474 727.255 Q22.0542 724.9 14.5426 720.093 L14.5426 715.001 Z" fill="#000000" fill-rule="evenodd" fill-opacity="1" /><path clip-path="url(#clip380)" d="M46.212 678.048 Q39.7508 678.048 36.0905 680.722 Q32.3984 683.363 32.3984 688.01 Q32.3984 692.657 36.0905 695.331 Q39.7508 697.973 46.212 697.973 Q52.6732 697.973 56.3653 695.331 Q60.0256 692.657 60.0256 688.01 Q60.0256 683.363 56.3653 680.722 Q52.6732 678.048 46.212 678.048 M33.7671 697.973 Q30.5842 696.127 29.0564 693.326 Q27.4968 690.493 27.4968 686.578 Q27.4968 680.085 32.6531 676.043 Q37.8093 671.969 46.212 671.969 Q54.6147 671.969 59.771 676.043 Q64.9272 680.085 64.9272 686.578 Q64.9272 690.493 63.3994 693.326 Q61.8398 696.127 58.657 697.973 L64.0042 697.973 L64.0042 703.861 L14.479 703.861 L14.479 697.973 L33.7671 697.973 Z" fill="#000000" fill-rule="evenodd" fill-opacity="1" /><path clip-path="url(#clip380)" d="M58.657 656.595 L77.5631 656.595 L77.5631 662.484 L28.3562 662.484 L28.3562 656.595 L33.7671 656.595 Q30.5842 654.749 29.0564 651.949 Q27.4968 649.116 27.4968 645.201 Q27.4968 638.708 32.6531 634.666 Q37.8093 630.592 46.212 630.592 Q54.6147 630.592 59.771 634.666 Q64.9272 638.708 64.9272 645.201 Q64.9272 649.116 63.3994 651.949 Q61.8398 654.749 58.657 656.595 M46.212 636.671 Q39.7508 636.671 36.0905 639.344 Q32.3984 641.986 32.3984 646.633 Q32.3984 651.28 36.0905 653.954 Q39.7508 656.595 46.212 656.595 Q52.6732 656.595 56.3653 653.954 Q60.0256 651.28 60.0256 646.633 Q60.0256 641.986 56.3653 639.344 Q52.6732 636.671 46.212 636.671 Z" fill="#000000" fill-rule="evenodd" fill-opacity="1" /><path clip-path="url(#clip380)" d="M29.4065 598.158 L34.9447 598.158 Q33.6716 600.641 33.035 603.315 Q32.3984 605.988 32.3984 608.853 Q32.3984 613.213 33.7352 615.409 Q35.072 617.574 37.7456 617.574 Q39.7826 617.574 40.9603 616.014 Q42.1061 614.455 43.1565 609.744 L43.6021 607.739 Q44.9389 601.5 47.3897 598.89 Q49.8086 596.249 54.1691 596.249 Q59.1344 596.249 62.0308 600.195 Q64.9272 604.11 64.9272 610.985 Q64.9272 613.85 64.3543 616.969 Q63.8132 620.056 62.6992 623.494 L56.6518 623.494 Q58.3387 620.247 59.198 617.096 Q60.0256 613.945 60.0256 610.858 Q60.0256 606.72 58.6251 604.492 Q57.1929 602.264 54.6147 602.264 Q52.2276 602.264 50.9545 603.887 Q49.6813 605.479 48.5037 610.922 L48.0262 612.959 Q46.8804 618.401 44.5251 620.82 Q42.138 623.239 38.0002 623.239 Q32.9713 623.239 30.2341 619.674 Q27.4968 616.11 27.4968 609.553 Q27.4968 606.306 27.9743 603.442 Q28.4517 600.577 29.4065 598.158 Z" fill="#000000" fill-rule="evenodd" fill-opacity="1" /><path clip-path="url(#clip380)" d="M14.5426 587.846 L14.5426 582.753 Q22.0542 577.979 29.2474 575.624 Q36.4406 573.237 43.5384 573.237 Q50.668 573.237 57.8931 575.624 Q65.1182 577.979 72.5979 582.753 L72.5979 587.846 Q65.3091 583.613 58.1159 581.544 Q50.8908 579.443 43.5384 579.443 Q36.186 579.443 29.0246 581.544 Q21.8632 583.613 14.5426 587.846 Z" fill="#000000" fill-rule="evenodd" fill-opacity="1" /><polyline clip-path="url(#clip382)" style="stroke:#009af9; stroke-linecap:butt; stroke-linejoin:round; stroke-width:4; stroke-opacity:1; fill:none" points="
  265.769,1384.24 268.078,1384.21 272.694,1382.75 314.536,1353.54 320.208,1327.11 377.554,1171.48 387.999,1152.24 393.559,1142.98 393.807,1142.56 487.086,1033.22 
  501.468,1022.91 558.919,978.239 561.486,976.152 575.866,964.561 726.596,836.763 740.976,828.406 746.198,824.737 760.582,811.814 812.81,769.935 856.216,737.647 
  860.394,734.302 903.916,698.993 904.96,698.201 919.343,687.283 989.667,636.079 993.565,633.158 993.753,633.006 1022.12,604.504 1029.46,597.181 1037.53,588.925 
  1065.52,561.364 1066.09,560.818 1075.08,551.866 1120.05,509.637 1138.84,490.98 1144.48,485.203 1216.38,416.714 1255.94,376.483 1256.13,376.297 1397.38,250.554 
  1403.12,245.785 1422.68,229.553 1436.57,217.982 1508.48,160.209 1545.04,132.861 1547.91,130.73 1553.91,126.311 1588.79,99.798 1589.17,99.5071 1606.82,86.1857 
  
  "/>
<polyline clip-path="url(#clip382)" style="stroke:#e26f46; stroke-linecap:butt; stroke-linejoin:round; stroke-width:4; stroke-opacity:1; fill:none" points="
  237.067,1384.24 453.884,1360.4 455.929,1360.39 470.308,1358.79 723.421,1345.18 938.685,1308.1 938.779,1308.09 945.36,1307.19 950.583,1306.35 956.03,1304.91 
  959.741,1303.93 961.959,1303.35 976.339,1299.18 1033.79,1283.74 1039.43,1282.32 1147.86,1248.05 1205.2,1231.39 1219.58,1227.49 1332.5,1188.29 1338.24,1186.5 
  1340.88,1185.68 1520.54,1131.64 1638.25,1103.53 1716.59,1083.95 1717.11,1083.81 1731.11,1079.86 1764.11,1070.39 1771.3,1068.24 1781.75,1064.96 1929.17,1020.77 
  1972.57,1009.17 1982.51,1006.39 1997.19,1002.09 2025.55,993.33 2026.08,993.166 2031.82,991.303 2041.07,988.262 2042.52,987.755 2057.64,982.049 2072.02,976.631 
  2072.52,976.421 2073.13,976.166 2077.83,974.129 2116.57,957.711 2135.36,949.903 2135.88,949.683 2141.52,947.167 2193.75,924.223 2265.65,892.038 2291.13,880.927 
  
  "/>
<path clip-path="url(#clip380)" d="
M1954.18 274.549 L2280.18 274.549 L2280.18 93.1086 L1954.18 93.1086  Z
  " fill="#ffffff" fill-rule="evenodd" fill-opacity="1"/>
<polyline clip-path="url(#clip380)" style="stroke:#000000; stroke-linecap:butt; stroke-linejoin:round; stroke-width:4; stroke-opacity:1; fill:none" points="
  1954.18,274.549 2280.18,274.549 2280.18,93.1086 1954.18,93.1086 1954.18,274.549 
  "/>
<polyline clip-path="url(#clip380)" style="stroke:#009af9; stroke-linecap:butt; stroke-linejoin:round; stroke-width:4; stroke-opacity:1; fill:none" points="
  1978.37,153.589 2123.53,153.589 
  "/>
<path clip-path="url(#clip380)" d="M2163.55 140.915 L2157.21 158.114 L2169.92 158.114 L2163.55 140.915 M2160.91 136.309 L2166.22 136.309 L2179.39 170.869 L2174.53 170.869 L2171.38 162.003 L2155.8 162.003 L2152.65 170.869 L2147.72 170.869 L2160.91 136.309 Z" fill="#000000" fill-rule="evenodd" fill-opacity="1" /><path clip-path="url(#clip380)" d="M2200.78 145.707 L2200.78 149.734 Q2198.97 148.809 2197.03 148.346 Q2195.08 147.883 2193 147.883 Q2189.83 147.883 2188.23 148.855 Q2186.66 149.827 2186.66 151.771 Q2186.66 153.253 2187.79 154.109 Q2188.92 154.943 2192.35 155.707 L2193.81 156.031 Q2198.35 157.003 2200.24 158.785 Q2202.16 160.545 2202.16 163.716 Q2202.16 167.327 2199.29 169.433 Q2196.45 171.54 2191.45 171.54 Q2189.36 171.54 2187.1 171.123 Q2184.85 170.73 2182.35 169.92 L2182.35 165.521 Q2184.71 166.748 2187 167.373 Q2189.29 167.975 2191.54 167.975 Q2194.55 167.975 2196.17 166.957 Q2197.79 165.915 2197.79 164.04 Q2197.79 162.304 2196.61 161.378 Q2195.45 160.452 2191.49 159.596 L2190.01 159.248 Q2186.05 158.415 2184.29 156.702 Q2182.54 154.966 2182.54 151.957 Q2182.54 148.299 2185.13 146.309 Q2187.72 144.318 2192.49 144.318 Q2194.85 144.318 2196.93 144.665 Q2199.02 145.012 2200.78 145.707 Z" fill="#000000" fill-rule="evenodd" fill-opacity="1" /><path clip-path="url(#clip380)" d="M2208.79 134.85 L2213.07 134.85 L2213.07 156.123 L2225.78 144.943 L2231.22 144.943 L2217.47 157.072 L2231.79 170.869 L2226.24 170.869 L2213.07 158.207 L2213.07 170.869 L2208.79 170.869 L2208.79 134.85 Z" fill="#000000" fill-rule="evenodd" fill-opacity="1" /><polyline clip-path="url(#clip380)" style="stroke:#e26f46; stroke-linecap:butt; stroke-linejoin:round; stroke-width:4; stroke-opacity:1; fill:none" points="
  1978.37,214.069 2123.53,214.069 
  "/>
<path clip-path="url(#clip380)" d="M2152.4 214.844 L2152.4 227.506 L2159.9 227.506 Q2163.67 227.506 2165.48 225.955 Q2167.3 224.381 2167.3 221.163 Q2167.3 217.923 2165.48 216.395 Q2163.67 214.844 2159.9 214.844 L2152.4 214.844 M2152.4 200.631 L2152.4 211.048 L2159.32 211.048 Q2162.74 211.048 2164.41 209.775 Q2166.1 208.478 2166.1 205.839 Q2166.1 203.224 2164.41 201.927 Q2162.74 200.631 2159.32 200.631 L2152.4 200.631 M2147.72 196.789 L2159.66 196.789 Q2165.01 196.789 2167.91 199.011 Q2170.8 201.233 2170.8 205.33 Q2170.8 208.502 2169.32 210.377 Q2167.84 212.251 2164.97 212.714 Q2168.41 213.455 2170.31 215.816 Q2172.23 218.154 2172.23 221.673 Q2172.23 226.302 2169.09 228.825 Q2165.94 231.349 2160.13 231.349 L2147.72 231.349 L2147.72 196.789 Z" fill="#000000" fill-rule="evenodd" fill-opacity="1" /><path clip-path="url(#clip380)" d="M2180.06 205.423 L2184.32 205.423 L2184.32 231.349 L2180.06 231.349 L2180.06 205.423 M2180.06 195.33 L2184.32 195.33 L2184.32 200.724 L2180.06 200.724 L2180.06 195.33 Z" fill="#000000" fill-rule="evenodd" fill-opacity="1" /><path clip-path="url(#clip380)" d="M2210.29 209.358 L2210.29 195.33 L2214.55 195.33 L2214.55 231.349 L2210.29 231.349 L2210.29 227.46 Q2208.95 229.775 2206.89 230.909 Q2204.85 232.02 2201.98 232.02 Q2197.28 232.02 2194.32 228.27 Q2191.38 224.52 2191.38 218.409 Q2191.38 212.298 2194.32 208.548 Q2197.28 204.798 2201.98 204.798 Q2204.85 204.798 2206.89 205.932 Q2208.95 207.043 2210.29 209.358 M2195.78 218.409 Q2195.78 223.108 2197.7 225.793 Q2199.64 228.455 2203.02 228.455 Q2206.4 228.455 2208.35 225.793 Q2210.29 223.108 2210.29 218.409 Q2210.29 213.71 2208.35 211.048 Q2206.4 208.363 2203.02 208.363 Q2199.64 208.363 2197.7 211.048 Q2195.78 213.71 2195.78 218.409 Z" fill="#000000" fill-rule="evenodd" fill-opacity="1" /></svg>
