<?xml version="1.0" encoding="utf-8"?>
<svg xmlns="http://www.w3.org/2000/svg" xmlns:xlink="http://www.w3.org/1999/xlink" width="600" height="400" viewBox="0 0 2400 1600">
<defs>
  <clipPath id="clip420">
    <rect x="0" y="0" width="2400" height="1600"/>
  </clipPath>
</defs>
<path clip-path="url(#clip420)" d="
M0 1600 L2400 1600 L2400 0 L0 0  Z
  " fill="#ffffff" fill-rule="evenodd" fill-opacity="1"/>
<defs>
  <clipPath id="clip421">
    <rect x="480" y="0" width="1681" height="1600"/>
  </clipPath>
</defs>
<path clip-path="url(#clip420)" d="
M235.283 1423.18 L2352.76 1423.18 L2352.76 47.2441 L235.283 47.2441  Z
  " fill="#ffffff" fill-rule="evenodd" fill-opacity="1"/>
<defs>
  <clipPath id="clip422">
    <rect x="235" y="47" width="2118" height="1377"/>
  </clipPath>
</defs>
<polyline clip-path="url(#clip422)" style="stroke:#000000; stroke-linecap:butt; stroke-linejoin:round; stroke-width:2; stroke-opacity:0.1; fill:none" points="
  287.472,1423.18 287.472,47.2441 
  "/>
<polyline clip-path="url(#clip422)" style="stroke:#000000; stroke-linecap:butt; stroke-linejoin:round; stroke-width:2; stroke-opacity:0.1; fill:none" points="
  846.567,1423.18 846.567,47.2441 
  "/>
<polyline clip-path="url(#clip422)" style="stroke:#000000; stroke-linecap:butt; stroke-linejoin:round; stroke-width:2; stroke-opacity:0.1; fill:none" points="
  1405.66,1423.18 1405.66,47.2441 
  "/>
<polyline clip-path="url(#clip422)" style="stroke:#000000; stroke-linecap:butt; stroke-linejoin:round; stroke-width:2; stroke-opacity:0.1; fill:none" points="
  1964.76,1423.18 1964.76,47.2441 
  "/>
<polyline clip-path="url(#clip420)" style="stroke:#000000; stroke-linecap:butt; stroke-linejoin:round; stroke-width:4; stroke-opacity:1; fill:none" points="
  235.283,1423.18 2352.76,1423.18 
  "/>
<polyline clip-path="url(#clip420)" style="stroke:#000000; stroke-linecap:butt; stroke-linejoin:round; stroke-width:4; stroke-opacity:1; fill:none" points="
  287.472,1423.18 287.472,1406.67 
  "/>
<polyline clip-path="url(#clip420)" style="stroke:#000000; stroke-linecap:butt; stroke-linejoin:round; stroke-width:4; stroke-opacity:1; fill:none" points="
  846.567,1423.18 846.567,1406.67 
  "/>
<polyline clip-path="url(#clip420)" style="stroke:#000000; stroke-linecap:butt; stroke-linejoin:round; stroke-width:4; stroke-opacity:1; fill:none" points="
  1405.66,1423.18 1405.66,1406.67 
  "/>
<polyline clip-path="url(#clip420)" style="stroke:#000000; stroke-linecap:butt; stroke-linejoin:round; stroke-width:4; stroke-opacity:1; fill:none" points="
  1964.76,1423.18 1964.76,1406.67 
  "/>
<path clip-path="url(#clip420)" d="M264.857 1452.37 Q261.246 1452.37 259.417 1455.94 Q257.611 1459.48 257.611 1466.61 Q257.611 1473.71 259.417 1477.28 Q261.246 1480.82 264.857 1480.82 Q268.491 1480.82 270.297 1477.28 Q272.125 1473.71 272.125 1466.61 Q272.125 1459.48 270.297 1455.94 Q268.491 1452.37 264.857 1452.37 M264.857 1448.67 Q270.667 1448.67 273.722 1453.27 Q276.801 1457.86 276.801 1466.61 Q276.801 1475.33 273.722 1479.94 Q270.667 1484.52 264.857 1484.52 Q259.047 1484.52 255.968 1479.94 Q252.912 1475.33 252.912 1466.61 Q252.912 1457.86 255.968 1453.27 Q259.047 1448.67 264.857 1448.67 Z" fill="#000000" fill-rule="evenodd" fill-opacity="1" /><path clip-path="url(#clip420)" d="M285.019 1477.97 L289.903 1477.97 L289.903 1483.85 L285.019 1483.85 L285.019 1477.97 Z" fill="#000000" fill-rule="evenodd" fill-opacity="1" /><path clip-path="url(#clip420)" d="M310.088 1452.37 Q306.477 1452.37 304.648 1455.94 Q302.843 1459.48 302.843 1466.61 Q302.843 1473.71 304.648 1477.28 Q306.477 1480.82 310.088 1480.82 Q313.722 1480.82 315.528 1477.28 Q317.357 1473.71 317.357 1466.61 Q317.357 1459.48 315.528 1455.94 Q313.722 1452.37 310.088 1452.37 M310.088 1448.67 Q315.898 1448.67 318.954 1453.27 Q322.032 1457.86 322.032 1466.61 Q322.032 1475.33 318.954 1479.94 Q315.898 1484.52 310.088 1484.52 Q304.278 1484.52 301.199 1479.94 Q298.144 1475.33 298.144 1466.61 Q298.144 1457.86 301.199 1453.27 Q304.278 1448.67 310.088 1448.67 Z" fill="#000000" fill-rule="evenodd" fill-opacity="1" /><path clip-path="url(#clip420)" d="M824.75 1452.37 Q821.139 1452.37 819.31 1455.94 Q817.505 1459.48 817.505 1466.61 Q817.505 1473.71 819.31 1477.28 Q821.139 1480.82 824.75 1480.82 Q828.384 1480.82 830.19 1477.28 Q832.019 1473.71 832.019 1466.61 Q832.019 1459.48 830.19 1455.94 Q828.384 1452.37 824.75 1452.37 M824.75 1448.67 Q830.56 1448.67 833.616 1453.27 Q836.695 1457.86 836.695 1466.61 Q836.695 1475.33 833.616 1479.94 Q830.56 1484.52 824.75 1484.52 Q818.94 1484.52 815.861 1479.94 Q812.806 1475.33 812.806 1466.61 Q812.806 1457.86 815.861 1453.27 Q818.94 1448.67 824.75 1448.67 Z" fill="#000000" fill-rule="evenodd" fill-opacity="1" /><path clip-path="url(#clip420)" d="M844.912 1477.97 L849.796 1477.97 L849.796 1483.85 L844.912 1483.85 L844.912 1477.97 Z" fill="#000000" fill-rule="evenodd" fill-opacity="1" /><path clip-path="url(#clip420)" d="M864.009 1479.92 L880.329 1479.92 L880.329 1483.85 L858.384 1483.85 L858.384 1479.92 Q861.046 1477.16 865.63 1472.53 Q870.236 1467.88 871.417 1466.54 Q873.662 1464.01 874.542 1462.28 Q875.444 1460.52 875.444 1458.83 Q875.444 1456.07 873.5 1454.34 Q871.579 1452.6 868.477 1452.6 Q866.278 1452.6 863.824 1453.37 Q861.394 1454.13 858.616 1455.68 L858.616 1450.96 Q861.44 1449.82 863.894 1449.25 Q866.347 1448.67 868.384 1448.67 Q873.755 1448.67 876.949 1451.35 Q880.143 1454.04 880.143 1458.53 Q880.143 1460.66 879.333 1462.58 Q878.546 1464.48 876.44 1467.07 Q875.861 1467.74 872.759 1470.96 Q869.657 1474.15 864.009 1479.92 Z" fill="#000000" fill-rule="evenodd" fill-opacity="1" /><path clip-path="url(#clip420)" d="M1382.8 1452.37 Q1379.19 1452.37 1377.36 1455.94 Q1375.56 1459.48 1375.56 1466.61 Q1375.56 1473.71 1377.36 1477.28 Q1379.19 1480.82 1382.8 1480.82 Q1386.44 1480.82 1388.24 1477.28 Q1390.07 1473.71 1390.07 1466.61 Q1390.07 1459.48 1388.24 1455.94 Q1386.44 1452.37 1382.8 1452.37 M1382.8 1448.67 Q1388.61 1448.67 1391.67 1453.27 Q1394.75 1457.86 1394.75 1466.61 Q1394.75 1475.33 1391.67 1479.94 Q1388.61 1484.52 1382.8 1484.52 Q1376.99 1484.52 1373.91 1479.94 Q1370.86 1475.33 1370.86 1466.61 Q1370.86 1457.86 1373.91 1453.27 Q1376.99 1448.67 1382.8 1448.67 Z" fill="#000000" fill-rule="evenodd" fill-opacity="1" /><path clip-path="url(#clip420)" d="M1402.97 1477.97 L1407.85 1477.97 L1407.85 1483.85 L1402.97 1483.85 L1402.97 1477.97 Z" fill="#000000" fill-rule="evenodd" fill-opacity="1" /><path clip-path="url(#clip420)" d="M1430.88 1453.37 L1419.08 1471.81 L1430.88 1471.81 L1430.88 1453.37 M1429.65 1449.29 L1435.53 1449.29 L1435.53 1471.81 L1440.47 1471.81 L1440.47 1475.7 L1435.53 1475.7 L1435.53 1483.85 L1430.88 1483.85 L1430.88 1475.7 L1415.28 1475.7 L1415.28 1471.19 L1429.65 1449.29 Z" fill="#000000" fill-rule="evenodd" fill-opacity="1" /><path clip-path="url(#clip420)" d="M1942.06 1452.37 Q1938.45 1452.37 1936.62 1455.94 Q1934.81 1459.48 1934.81 1466.61 Q1934.81 1473.71 1936.62 1477.28 Q1938.45 1480.82 1942.06 1480.82 Q1945.69 1480.82 1947.5 1477.28 Q1949.33 1473.71 1949.33 1466.61 Q1949.33 1459.48 1947.5 1455.94 Q1945.69 1452.37 1942.06 1452.37 M1942.06 1448.67 Q1947.87 1448.67 1950.93 1453.27 Q1954 1457.86 1954 1466.61 Q1954 1475.33 1950.93 1479.94 Q1947.87 1484.52 1942.06 1484.52 Q1936.25 1484.52 1933.17 1479.94 Q1930.12 1475.33 1930.12 1466.61 Q1930.12 1457.86 1933.17 1453.27 Q1936.25 1448.67 1942.06 1448.67 Z" fill="#000000" fill-rule="evenodd" fill-opacity="1" /><path clip-path="url(#clip420)" d="M1962.22 1477.97 L1967.11 1477.97 L1967.11 1483.85 L1962.22 1483.85 L1962.22 1477.97 Z" fill="#000000" fill-rule="evenodd" fill-opacity="1" /><path clip-path="url(#clip420)" d="M1987.87 1464.71 Q1984.72 1464.71 1982.87 1466.86 Q1981.04 1469.01 1981.04 1472.76 Q1981.04 1476.49 1982.87 1478.67 Q1984.72 1480.82 1987.87 1480.82 Q1991.02 1480.82 1992.85 1478.67 Q1994.7 1476.49 1994.7 1472.76 Q1994.7 1469.01 1992.85 1466.86 Q1991.02 1464.71 1987.87 1464.71 M1997.15 1450.06 L1997.15 1454.31 Q1995.39 1453.48 1993.59 1453.04 Q1991.81 1452.6 1990.05 1452.6 Q1985.42 1452.6 1982.96 1455.73 Q1980.53 1458.85 1980.18 1465.17 Q1981.55 1463.16 1983.61 1462.09 Q1985.67 1461 1988.15 1461 Q1993.36 1461 1996.37 1464.18 Q1999.4 1467.32 1999.4 1472.76 Q1999.4 1478.09 1996.25 1481.31 Q1993.1 1484.52 1987.87 1484.52 Q1981.87 1484.52 1978.7 1479.94 Q1975.53 1475.33 1975.53 1466.61 Q1975.53 1458.41 1979.42 1453.55 Q1983.31 1448.67 1989.86 1448.67 Q1991.62 1448.67 1993.4 1449.01 Q1995.21 1449.36 1997.15 1450.06 Z" fill="#000000" fill-rule="evenodd" fill-opacity="1" /><path clip-path="url(#clip420)" d="M1028.24 1520.52 L1037.82 1520.52 L1049.94 1552.86 L1062.13 1520.52 L1071.71 1520.52 L1071.71 1568.04 L1065.44 1568.04 L1065.44 1526.32 L1053.19 1558.91 L1046.73 1558.91 L1034.47 1526.32 L1034.47 1568.04 L1028.24 1568.04 L1028.24 1520.52 Z" fill="#000000" fill-rule="evenodd" fill-opacity="1" /><path clip-path="url(#clip420)" d="M1084.22 1532.4 L1090.08 1532.4 L1090.08 1568.04 L1084.22 1568.04 L1084.22 1532.4 M1084.22 1518.52 L1090.08 1518.52 L1090.08 1525.93 L1084.22 1525.93 L1084.22 1518.52 Z" fill="#000000" fill-rule="evenodd" fill-opacity="1" /><path clip-path="url(#clip420)" d="M1102.33 1518.52 L1108.19 1518.52 L1108.19 1568.04 L1102.33 1568.04 L1102.33 1518.52 Z" fill="#000000" fill-rule="evenodd" fill-opacity="1" /><path clip-path="url(#clip420)" d="M1120.44 1518.52 L1126.3 1518.52 L1126.3 1568.04 L1120.44 1568.04 L1120.44 1518.52 Z" fill="#000000" fill-rule="evenodd" fill-opacity="1" /><path clip-path="url(#clip420)" d="M1138.55 1532.4 L1144.41 1532.4 L1144.41 1568.04 L1138.55 1568.04 L1138.55 1532.4 M1138.55 1518.52 L1144.41 1518.52 L1144.41 1525.93 L1138.55 1525.93 L1138.55 1518.52 Z" fill="#000000" fill-rule="evenodd" fill-opacity="1" /><path clip-path="url(#clip420)" d="M1170.48 1536.5 Q1165.77 1536.5 1163.03 1540.19 Q1160.29 1543.85 1160.29 1550.25 Q1160.29 1556.65 1163 1560.34 Q1165.73 1564 1170.48 1564 Q1175.16 1564 1177.89 1560.31 Q1180.63 1556.62 1180.63 1550.25 Q1180.63 1543.92 1177.89 1540.23 Q1175.16 1536.5 1170.48 1536.5 M1170.48 1531.54 Q1178.12 1531.54 1182.48 1536.5 Q1186.84 1541.47 1186.84 1550.25 Q1186.84 1559 1182.48 1564 Q1178.12 1568.97 1170.48 1568.97 Q1162.81 1568.97 1158.45 1564 Q1154.12 1559 1154.12 1550.25 Q1154.12 1541.47 1158.45 1536.5 Q1162.81 1531.54 1170.48 1531.54 Z" fill="#000000" fill-rule="evenodd" fill-opacity="1" /><path clip-path="url(#clip420)" d="M1226.18 1546.53 L1226.18 1568.04 L1220.32 1568.04 L1220.32 1546.72 Q1220.32 1541.66 1218.35 1539.14 Q1216.37 1536.63 1212.43 1536.63 Q1207.68 1536.63 1204.95 1539.65 Q1202.21 1542.68 1202.21 1547.9 L1202.21 1568.04 L1196.32 1568.04 L1196.32 1532.4 L1202.21 1532.4 L1202.21 1537.93 Q1204.31 1534.72 1207.14 1533.13 Q1210.01 1531.54 1213.73 1531.54 Q1219.87 1531.54 1223.03 1535.36 Q1226.18 1539.14 1226.18 1546.53 Z" fill="#000000" fill-rule="evenodd" fill-opacity="1" /><path clip-path="url(#clip420)" d="M1272.39 1536.5 Q1267.68 1536.5 1264.94 1540.19 Q1262.21 1543.85 1262.21 1550.25 Q1262.21 1556.65 1264.91 1560.34 Q1267.65 1564 1272.39 1564 Q1277.07 1564 1279.81 1560.31 Q1282.55 1556.62 1282.55 1550.25 Q1282.55 1543.92 1279.81 1540.23 Q1277.07 1536.5 1272.39 1536.5 M1272.39 1531.54 Q1280.03 1531.54 1284.39 1536.5 Q1288.75 1541.47 1288.75 1550.25 Q1288.75 1559 1284.39 1564 Q1280.03 1568.97 1272.39 1568.97 Q1264.72 1568.97 1260.36 1564 Q1256.03 1559 1256.03 1550.25 Q1256.03 1541.47 1260.36 1536.5 Q1264.72 1531.54 1272.39 1531.54 Z" fill="#000000" fill-rule="evenodd" fill-opacity="1" /><path clip-path="url(#clip420)" d="M1316.51 1518.52 L1316.51 1523.39 L1310.9 1523.39 Q1307.75 1523.39 1306.51 1524.66 Q1305.3 1525.93 1305.3 1529.24 L1305.3 1532.4 L1314.95 1532.4 L1314.95 1536.95 L1305.3 1536.95 L1305.3 1568.04 L1299.41 1568.04 L1299.41 1536.95 L1293.81 1536.95 L1293.81 1532.4 L1299.41 1532.4 L1299.41 1529.91 Q1299.41 1523.96 1302.18 1521.26 Q1304.95 1518.52 1310.97 1518.52 L1316.51 1518.52 Z" fill="#000000" fill-rule="evenodd" fill-opacity="1" /><path clip-path="url(#clip420)" d="M1348.81 1525.81 L1348.81 1562.76 L1356.58 1562.76 Q1366.41 1562.76 1370.96 1558.3 Q1375.55 1553.85 1375.55 1544.24 Q1375.55 1534.69 1370.96 1530.26 Q1366.41 1525.81 1356.58 1525.81 L1348.81 1525.81 M1342.38 1520.52 L1355.59 1520.52 Q1369.41 1520.52 1375.87 1526.28 Q1382.33 1532.01 1382.33 1544.24 Q1382.33 1556.52 1375.83 1562.28 Q1369.34 1568.04 1355.59 1568.04 L1342.38 1568.04 L1342.38 1520.52 Z" fill="#000000" fill-rule="evenodd" fill-opacity="1" /><path clip-path="url(#clip420)" d="M1406.14 1536.5 Q1401.42 1536.5 1398.69 1540.19 Q1395.95 1543.85 1395.95 1550.25 Q1395.95 1556.65 1398.66 1560.34 Q1401.39 1564 1406.14 1564 Q1410.81 1564 1413.55 1560.31 Q1416.29 1556.62 1416.29 1550.25 Q1416.29 1543.92 1413.55 1540.23 Q1410.81 1536.5 1406.14 1536.5 M1406.14 1531.54 Q1413.77 1531.54 1418.13 1536.5 Q1422.5 1541.47 1422.5 1550.25 Q1422.5 1559 1418.13 1564 Q1413.77 1568.97 1406.14 1568.97 Q1398.46 1568.97 1394.1 1564 Q1389.78 1559 1389.78 1550.25 Q1389.78 1541.47 1394.1 1536.5 Q1398.46 1531.54 1406.14 1531.54 Z" fill="#000000" fill-rule="evenodd" fill-opacity="1" /><path clip-path="url(#clip420)" d="M1432.2 1518.52 L1438.06 1518.52 L1438.06 1568.04 L1432.2 1568.04 L1432.2 1518.52 Z" fill="#000000" fill-rule="evenodd" fill-opacity="1" /><path clip-path="url(#clip420)" d="M1450.31 1518.52 L1456.17 1518.52 L1456.17 1568.04 L1450.31 1568.04 L1450.31 1518.52 Z" fill="#000000" fill-rule="evenodd" fill-opacity="1" /><path clip-path="url(#clip420)" d="M1484.62 1550.12 Q1477.53 1550.12 1474.79 1551.75 Q1472.05 1553.37 1472.05 1557.29 Q1472.05 1560.4 1474.09 1562.25 Q1476.16 1564.07 1479.69 1564.07 Q1484.56 1564.07 1487.49 1560.63 Q1490.45 1557.16 1490.45 1551.43 L1490.45 1550.12 L1484.62 1550.12 M1496.31 1547.71 L1496.31 1568.04 L1490.45 1568.04 L1490.45 1562.63 Q1488.44 1565.88 1485.45 1567.44 Q1482.46 1568.97 1478.13 1568.97 Q1472.66 1568.97 1469.41 1565.91 Q1466.2 1562.82 1466.2 1557.67 Q1466.2 1551.65 1470.21 1548.6 Q1474.25 1545.54 1482.24 1545.54 L1490.45 1545.54 L1490.45 1544.97 Q1490.45 1540.93 1487.78 1538.73 Q1485.13 1536.5 1480.33 1536.5 Q1477.27 1536.5 1474.38 1537.23 Q1471.48 1537.97 1468.81 1539.43 L1468.81 1534.02 Q1472.02 1532.78 1475.04 1532.17 Q1478.07 1531.54 1480.93 1531.54 Q1488.67 1531.54 1492.49 1535.55 Q1496.31 1539.56 1496.31 1547.71 Z" fill="#000000" fill-rule="evenodd" fill-opacity="1" /><path clip-path="url(#clip420)" d="M1529.03 1537.87 Q1528.04 1537.3 1526.86 1537.04 Q1525.72 1536.76 1524.31 1536.76 Q1519.35 1536.76 1516.68 1540 Q1514.03 1543.22 1514.03 1549.27 L1514.03 1568.04 L1508.15 1568.04 L1508.15 1532.4 L1514.03 1532.4 L1514.03 1537.93 Q1515.88 1534.69 1518.84 1533.13 Q1521.8 1531.54 1526.03 1531.54 Q1526.64 1531.54 1527.37 1531.63 Q1528.1 1531.7 1528.99 1531.85 L1529.03 1537.87 Z" fill="#000000" fill-rule="evenodd" fill-opacity="1" /><path clip-path="url(#clip420)" d="M1557.89 1533.45 L1557.89 1538.98 Q1555.41 1537.71 1552.74 1537.07 Q1550.06 1536.44 1547.2 1536.44 Q1542.84 1536.44 1540.64 1537.77 Q1538.48 1539.11 1538.48 1541.79 Q1538.48 1543.82 1540.04 1545 Q1541.6 1546.15 1546.31 1547.2 L1548.31 1547.64 Q1554.55 1548.98 1557.16 1551.43 Q1559.8 1553.85 1559.8 1558.21 Q1559.8 1563.17 1555.86 1566.07 Q1551.94 1568.97 1545.07 1568.97 Q1542.2 1568.97 1539.08 1568.39 Q1536 1567.85 1532.56 1566.74 L1532.56 1560.69 Q1535.8 1562.38 1538.96 1563.24 Q1542.11 1564.07 1545.19 1564.07 Q1549.33 1564.07 1551.56 1562.66 Q1553.79 1561.23 1553.79 1558.65 Q1553.79 1556.27 1552.16 1554.99 Q1550.57 1553.72 1545.13 1552.54 L1543.09 1552.07 Q1537.65 1550.92 1535.23 1548.56 Q1532.81 1546.18 1532.81 1542.04 Q1532.81 1537.01 1536.38 1534.27 Q1539.94 1531.54 1546.5 1531.54 Q1549.75 1531.54 1552.61 1532.01 Q1555.47 1532.49 1557.89 1533.45 Z" fill="#000000" fill-rule="evenodd" fill-opacity="1" /><polyline clip-path="url(#clip422)" style="stroke:#000000; stroke-linecap:butt; stroke-linejoin:round; stroke-width:2; stroke-opacity:0.1; fill:none" points="
  235.283,1384.24 2352.76,1384.24 
  "/>
<polyline clip-path="url(#clip422)" style="stroke:#000000; stroke-linecap:butt; stroke-linejoin:round; stroke-width:2; stroke-opacity:0.1; fill:none" points="
  235.283,1055.77 2352.76,1055.77 
  "/>
<polyline clip-path="url(#clip422)" style="stroke:#000000; stroke-linecap:butt; stroke-linejoin:round; stroke-width:2; stroke-opacity:0.1; fill:none" points="
  235.283,727.31 2352.76,727.31 
  "/>
<polyline clip-path="url(#clip422)" style="stroke:#000000; stroke-linecap:butt; stroke-linejoin:round; stroke-width:2; stroke-opacity:0.1; fill:none" points="
  235.283,398.846 2352.76,398.846 
  "/>
<polyline clip-path="url(#clip422)" style="stroke:#000000; stroke-linecap:butt; stroke-linejoin:round; stroke-width:2; stroke-opacity:0.1; fill:none" points="
  235.283,70.3821 2352.76,70.3821 
  "/>
<polyline clip-path="url(#clip420)" style="stroke:#000000; stroke-linecap:butt; stroke-linejoin:round; stroke-width:4; stroke-opacity:1; fill:none" points="
  235.283,1423.18 235.283,47.2441 
  "/>
<polyline clip-path="url(#clip420)" style="stroke:#000000; stroke-linecap:butt; stroke-linejoin:round; stroke-width:4; stroke-opacity:1; fill:none" points="
  235.283,1384.24 260.693,1384.24 
  "/>
<polyline clip-path="url(#clip420)" style="stroke:#000000; stroke-linecap:butt; stroke-linejoin:round; stroke-width:4; stroke-opacity:1; fill:none" points="
  235.283,1055.77 260.693,1055.77 
  "/>
<polyline clip-path="url(#clip420)" style="stroke:#000000; stroke-linecap:butt; stroke-linejoin:round; stroke-width:4; stroke-opacity:1; fill:none" points="
  235.283,727.31 260.693,727.31 
  "/>
<polyline clip-path="url(#clip420)" style="stroke:#000000; stroke-linecap:butt; stroke-linejoin:round; stroke-width:4; stroke-opacity:1; fill:none" points="
  235.283,398.846 260.693,398.846 
  "/>
<polyline clip-path="url(#clip420)" style="stroke:#000000; stroke-linecap:butt; stroke-linejoin:round; stroke-width:4; stroke-opacity:1; fill:none" points="
  235.283,70.3821 260.693,70.3821 
  "/>
<path clip-path="url(#clip420)" d="M187.338 1370.04 Q183.727 1370.04 181.899 1373.6 Q180.093 1377.14 180.093 1384.27 Q180.093 1391.38 181.899 1394.94 Q183.727 1398.49 187.338 1398.49 Q190.973 1398.49 192.778 1394.94 Q194.607 1391.38 194.607 1384.27 Q194.607 1377.14 192.778 1373.6 Q190.973 1370.04 187.338 1370.04 M187.338 1366.33 Q193.149 1366.33 196.204 1370.94 Q199.283 1375.52 199.283 1384.27 Q199.283 1393 196.204 1397.61 Q193.149 1402.19 187.338 1402.19 Q181.528 1402.19 178.45 1397.61 Q175.394 1393 175.394 1384.27 Q175.394 1375.52 178.45 1370.94 Q181.528 1366.33 187.338 1366.33 Z" fill="#000000" fill-rule="evenodd" fill-opacity="1" /><path clip-path="url(#clip420)" d="M117.825 1069.12 L125.464 1069.12 L125.464 1042.75 L117.154 1044.42 L117.154 1040.16 L125.418 1038.49 L130.093 1038.49 L130.093 1069.12 L137.732 1069.12 L137.732 1073.05 L117.825 1073.05 L117.825 1069.12 Z" fill="#000000" fill-rule="evenodd" fill-opacity="1" /><path clip-path="url(#clip420)" d="M157.177 1041.57 Q153.566 1041.57 151.737 1045.14 Q149.931 1048.68 149.931 1055.81 Q149.931 1062.92 151.737 1066.48 Q153.566 1070.02 157.177 1070.02 Q160.811 1070.02 162.616 1066.48 Q164.445 1062.92 164.445 1055.81 Q164.445 1048.68 162.616 1045.14 Q160.811 1041.57 157.177 1041.57 M157.177 1037.87 Q162.987 1037.87 166.042 1042.48 Q169.121 1047.06 169.121 1055.81 Q169.121 1064.54 166.042 1069.14 Q162.987 1073.73 157.177 1073.73 Q151.366 1073.73 148.288 1069.14 Q145.232 1064.54 145.232 1055.81 Q145.232 1047.06 148.288 1042.48 Q151.366 1037.87 157.177 1037.87 Z" fill="#000000" fill-rule="evenodd" fill-opacity="1" /><path clip-path="url(#clip420)" d="M187.338 1041.57 Q183.727 1041.57 181.899 1045.14 Q180.093 1048.68 180.093 1055.81 Q180.093 1062.92 181.899 1066.48 Q183.727 1070.02 187.338 1070.02 Q190.973 1070.02 192.778 1066.48 Q194.607 1062.92 194.607 1055.81 Q194.607 1048.68 192.778 1045.14 Q190.973 1041.57 187.338 1041.57 M187.338 1037.87 Q193.149 1037.87 196.204 1042.48 Q199.283 1047.06 199.283 1055.81 Q199.283 1064.54 196.204 1069.14 Q193.149 1073.73 187.338 1073.73 Q181.528 1073.73 178.45 1069.14 Q175.394 1064.54 175.394 1055.81 Q175.394 1047.06 178.45 1042.48 Q181.528 1037.87 187.338 1037.87 Z" fill="#000000" fill-rule="evenodd" fill-opacity="1" /><path clip-path="url(#clip420)" d="M121.043 740.655 L137.362 740.655 L137.362 744.59 L115.418 744.59 L115.418 740.655 Q118.08 737.9 122.663 733.271 Q127.269 728.618 128.45 727.275 Q130.695 724.752 131.575 723.016 Q132.478 721.257 132.478 719.567 Q132.478 716.813 130.533 715.076 Q128.612 713.34 125.51 713.34 Q123.311 713.34 120.857 714.104 Q118.427 714.868 115.649 716.419 L115.649 711.697 Q118.473 710.563 120.927 709.984 Q123.38 709.405 125.418 709.405 Q130.788 709.405 133.982 712.09 Q137.177 714.776 137.177 719.266 Q137.177 721.396 136.367 723.317 Q135.579 725.215 133.473 727.808 Q132.894 728.479 129.792 731.697 Q126.691 734.891 121.043 740.655 Z" fill="#000000" fill-rule="evenodd" fill-opacity="1" /><path clip-path="url(#clip420)" d="M157.177 713.109 Q153.566 713.109 151.737 716.674 Q149.931 720.215 149.931 727.345 Q149.931 734.451 151.737 738.016 Q153.566 741.558 157.177 741.558 Q160.811 741.558 162.616 738.016 Q164.445 734.451 164.445 727.345 Q164.445 720.215 162.616 716.674 Q160.811 713.109 157.177 713.109 M157.177 709.405 Q162.987 709.405 166.042 714.012 Q169.121 718.595 169.121 727.345 Q169.121 736.072 166.042 740.678 Q162.987 745.261 157.177 745.261 Q151.366 745.261 148.288 740.678 Q145.232 736.072 145.232 727.345 Q145.232 718.595 148.288 714.012 Q151.366 709.405 157.177 709.405 Z" fill="#000000" fill-rule="evenodd" fill-opacity="1" /><path clip-path="url(#clip420)" d="M187.338 713.109 Q183.727 713.109 181.899 716.674 Q180.093 720.215 180.093 727.345 Q180.093 734.451 181.899 738.016 Q183.727 741.558 187.338 741.558 Q190.973 741.558 192.778 738.016 Q194.607 734.451 194.607 727.345 Q194.607 720.215 192.778 716.674 Q190.973 713.109 187.338 713.109 M187.338 709.405 Q193.149 709.405 196.204 714.012 Q199.283 718.595 199.283 727.345 Q199.283 736.072 196.204 740.678 Q193.149 745.261 187.338 745.261 Q181.528 745.261 178.45 740.678 Q175.394 736.072 175.394 727.345 Q175.394 718.595 178.45 714.012 Q181.528 709.405 187.338 709.405 Z" fill="#000000" fill-rule="evenodd" fill-opacity="1" /><path clip-path="url(#clip420)" d="M131.181 397.492 Q134.538 398.21 136.413 400.478 Q138.311 402.747 138.311 406.08 Q138.311 411.196 134.792 413.997 Q131.274 416.797 124.793 416.797 Q122.617 416.797 120.302 416.358 Q118.01 415.941 115.556 415.084 L115.556 410.571 Q117.501 411.705 119.816 412.284 Q122.13 412.862 124.654 412.862 Q129.052 412.862 131.343 411.126 Q133.658 409.39 133.658 406.08 Q133.658 403.024 131.505 401.311 Q129.376 399.575 125.556 399.575 L121.529 399.575 L121.529 395.733 L125.742 395.733 Q129.191 395.733 131.019 394.367 Q132.848 392.978 132.848 390.386 Q132.848 387.724 130.95 386.311 Q129.075 384.876 125.556 384.876 Q123.635 384.876 121.436 385.293 Q119.237 385.71 116.598 386.589 L116.598 382.423 Q119.26 381.682 121.575 381.312 Q123.913 380.941 125.973 380.941 Q131.297 380.941 134.399 383.372 Q137.501 385.779 137.501 389.899 Q137.501 392.77 135.857 394.761 Q134.214 396.728 131.181 397.492 Z" fill="#000000" fill-rule="evenodd" fill-opacity="1" /><path clip-path="url(#clip420)" d="M157.177 384.645 Q153.566 384.645 151.737 388.21 Q149.931 391.751 149.931 398.881 Q149.931 405.987 151.737 409.552 Q153.566 413.094 157.177 413.094 Q160.811 413.094 162.616 409.552 Q164.445 405.987 164.445 398.881 Q164.445 391.751 162.616 388.21 Q160.811 384.645 157.177 384.645 M157.177 380.941 Q162.987 380.941 166.042 385.548 Q169.121 390.131 169.121 398.881 Q169.121 407.608 166.042 412.214 Q162.987 416.797 157.177 416.797 Q151.366 416.797 148.288 412.214 Q145.232 407.608 145.232 398.881 Q145.232 390.131 148.288 385.548 Q151.366 380.941 157.177 380.941 Z" fill="#000000" fill-rule="evenodd" fill-opacity="1" /><path clip-path="url(#clip420)" d="M187.338 384.645 Q183.727 384.645 181.899 388.21 Q180.093 391.751 180.093 398.881 Q180.093 405.987 181.899 409.552 Q183.727 413.094 187.338 413.094 Q190.973 413.094 192.778 409.552 Q194.607 405.987 194.607 398.881 Q194.607 391.751 192.778 388.21 Q190.973 384.645 187.338 384.645 M187.338 380.941 Q193.149 380.941 196.204 385.548 Q199.283 390.131 199.283 398.881 Q199.283 407.608 196.204 412.214 Q193.149 416.797 187.338 416.797 Q181.528 416.797 178.45 412.214 Q175.394 407.608 175.394 398.881 Q175.394 390.131 178.45 385.548 Q181.528 380.941 187.338 380.941 Z" fill="#000000" fill-rule="evenodd" fill-opacity="1" /><path clip-path="url(#clip420)" d="M129.862 57.1762 L118.056 75.6251 L129.862 75.6251 L129.862 57.1762 M128.635 53.1021 L134.515 53.1021 L134.515 75.6251 L139.445 75.6251 L139.445 79.514 L134.515 79.514 L134.515 87.6621 L129.862 87.6621 L129.862 79.514 L114.26 79.514 L114.26 75.0001 L128.635 53.1021 Z" fill="#000000" fill-rule="evenodd" fill-opacity="1" /><path clip-path="url(#clip420)" d="M157.177 56.1808 Q153.566 56.1808 151.737 59.7456 Q149.931 63.2872 149.931 70.4168 Q149.931 77.5233 151.737 81.0881 Q153.566 84.6297 157.177 84.6297 Q160.811 84.6297 162.616 81.0881 Q164.445 77.5233 164.445 70.4168 Q164.445 63.2872 162.616 59.7456 Q160.811 56.1808 157.177 56.1808 M157.177 52.4771 Q162.987 52.4771 166.042 57.0836 Q169.121 61.6669 169.121 70.4168 Q169.121 79.1436 166.042 83.7501 Q162.987 88.3334 157.177 88.3334 Q151.366 88.3334 148.288 83.7501 Q145.232 79.1436 145.232 70.4168 Q145.232 61.6669 148.288 57.0836 Q151.366 52.4771 157.177 52.4771 Z" fill="#000000" fill-rule="evenodd" fill-opacity="1" /><path clip-path="url(#clip420)" d="M187.338 56.1808 Q183.727 56.1808 181.899 59.7456 Q180.093 63.2872 180.093 70.4168 Q180.093 77.5233 181.899 81.0881 Q183.727 84.6297 187.338 84.6297 Q190.973 84.6297 192.778 81.0881 Q194.607 77.5233 194.607 70.4168 Q194.607 63.2872 192.778 59.7456 Q190.973 56.1808 187.338 56.1808 M187.338 52.4771 Q193.149 52.4771 196.204 57.0836 Q199.283 61.6669 199.283 70.4168 Q199.283 79.1436 196.204 83.7501 Q193.149 88.3334 187.338 88.3334 Q181.528 88.3334 178.45 83.7501 Q175.394 79.1436 175.394 70.4168 Q175.394 61.6669 178.45 57.0836 Q181.528 52.4771 187.338 52.4771 Z" fill="#000000" fill-rule="evenodd" fill-opacity="1" /><path clip-path="url(#clip420)" d="M20.1444 909.601 L26.9239 909.601 Q23.9002 912.847 22.4043 916.539 Q20.9083 920.199 20.9083 924.337 Q20.9083 932.485 25.9054 936.814 Q30.8707 941.143 40.2919 941.143 Q49.6813 941.143 54.6784 936.814 Q59.6436 932.485 59.6436 924.337 Q59.6436 920.199 58.1477 916.539 Q56.6518 912.847 53.6281 909.601 L60.3439 909.601 Q62.6355 912.974 63.7814 916.762 Q64.9272 920.518 64.9272 924.719 Q64.9272 935.509 58.3387 941.715 Q51.7183 947.922 40.2919 947.922 Q28.8336 947.922 22.2451 941.715 Q15.6248 935.509 15.6248 924.719 Q15.6248 920.454 16.7706 916.698 Q17.8846 912.911 20.1444 909.601 Z" fill="#000000" fill-rule="evenodd" fill-opacity="1" /><path clip-path="url(#clip420)" d="M32.4621 886.111 Q32.4621 890.822 36.1542 893.559 Q39.8145 896.296 46.212 896.296 Q52.6095 896.296 56.3017 893.591 Q59.9619 890.853 59.9619 886.111 Q59.9619 881.432 56.2698 878.695 Q52.5777 875.958 46.212 875.958 Q39.8781 875.958 36.186 878.695 Q32.4621 881.432 32.4621 886.111 M27.4968 886.111 Q27.4968 878.472 32.4621 874.112 Q37.4273 869.751 46.212 869.751 Q54.9649 869.751 59.9619 874.112 Q64.9272 878.472 64.9272 886.111 Q64.9272 893.782 59.9619 898.142 Q54.9649 902.471 46.212 902.471 Q37.4273 902.471 32.4621 898.142 Q27.4968 893.782 27.4968 886.111 Z" fill="#000000" fill-rule="evenodd" fill-opacity="1" /><path clip-path="url(#clip420)" d="M29.4065 837.318 L34.9447 837.318 Q33.6716 839.801 33.035 842.474 Q32.3984 845.148 32.3984 848.012 Q32.3984 852.373 33.7352 854.569 Q35.072 856.733 37.7456 856.733 Q39.7826 856.733 40.9603 855.174 Q42.1061 853.614 43.1565 848.903 L43.6021 846.898 Q44.9389 840.66 47.3897 838.05 Q49.8086 835.408 54.1691 835.408 Q59.1344 835.408 62.0308 839.355 Q64.9272 843.27 64.9272 850.145 Q64.9272 853.009 64.3543 856.129 Q63.8132 859.216 62.6992 862.653 L56.6518 862.653 Q58.3387 859.407 59.198 856.256 Q60.0256 853.105 60.0256 850.017 Q60.0256 845.88 58.6251 843.652 Q57.1929 841.424 54.6147 841.424 Q52.2276 841.424 50.9545 843.047 Q49.6813 844.638 48.5037 850.081 L48.0262 852.118 Q46.8804 857.561 44.5251 859.98 Q42.138 862.399 38.0002 862.399 Q32.9713 862.399 30.2341 858.834 Q27.4968 855.269 27.4968 848.713 Q27.4968 845.466 27.9743 842.601 Q28.4517 839.737 29.4065 837.318 Z" fill="#000000" fill-rule="evenodd" fill-opacity="1" /><path clip-path="url(#clip420)" d="M18.2347 820.29 L28.3562 820.29 L28.3562 808.227 L32.9077 808.227 L32.9077 820.29 L52.2594 820.29 Q56.6199 820.29 57.8613 819.112 Q59.1026 817.902 59.1026 814.242 L59.1026 808.227 L64.0042 808.227 L64.0042 814.242 Q64.0042 821.022 61.4897 823.6 Q58.9434 826.178 52.2594 826.178 L32.9077 826.178 L32.9077 830.475 L28.3562 830.475 L28.3562 826.178 L18.2347 826.178 L18.2347 820.29 Z" fill="#000000" fill-rule="evenodd" fill-opacity="1" /><path clip-path="url(#clip420)" d="M14.5426 765.736 Q21.8632 770.001 29.0246 772.069 Q36.186 774.138 43.5384 774.138 Q50.8908 774.138 58.1159 772.069 Q65.3091 769.969 72.5979 765.736 L72.5979 770.828 Q65.1182 775.602 57.8931 777.99 Q50.668 780.345 43.5384 780.345 Q36.4406 780.345 29.2474 777.99 Q22.0542 775.634 14.5426 770.828 L14.5426 765.736 Z" fill="#000000" fill-rule="evenodd" fill-opacity="1" /><path clip-path="url(#clip420)" d="M33.7671 730.915 L14.479 730.915 L14.479 725.059 L64.0042 725.059 L64.0042 730.915 L58.657 730.915 Q61.8398 732.761 63.3994 735.594 Q64.9272 738.395 64.9272 742.342 Q64.9272 748.803 59.771 752.877 Q54.6147 756.919 46.212 756.919 Q37.8093 756.919 32.6531 752.877 Q27.4968 748.803 27.4968 742.342 Q27.4968 738.395 29.0564 735.594 Q30.5842 732.761 33.7671 730.915 M46.212 750.872 Q52.6732 750.872 56.3653 748.23 Q60.0256 745.556 60.0256 740.909 Q60.0256 736.262 56.3653 733.589 Q52.6732 730.915 46.212 730.915 Q39.7508 730.915 36.0905 733.589 Q32.3984 736.262 32.3984 740.909 Q32.3984 745.556 36.0905 748.23 Q39.7508 750.872 46.212 750.872 Z" fill="#000000" fill-rule="evenodd" fill-opacity="1" /><path clip-path="url(#clip420)" d="M32.4621 699.182 Q32.4621 703.893 36.1542 706.63 Q39.8145 709.367 46.212 709.367 Q52.6095 709.367 56.3017 706.662 Q59.9619 703.925 59.9619 699.182 Q59.9619 694.503 56.2698 691.766 Q52.5777 689.029 46.212 689.029 Q39.8781 689.029 36.186 691.766 Q32.4621 694.503 32.4621 699.182 M27.4968 699.182 Q27.4968 691.543 32.4621 687.183 Q37.4273 682.822 46.212 682.822 Q54.9649 682.822 59.9619 687.183 Q64.9272 691.543 64.9272 699.182 Q64.9272 706.853 59.9619 711.213 Q54.9649 715.542 46.212 715.542 Q37.4273 715.542 32.4621 711.213 Q27.4968 706.853 27.4968 699.182 Z" fill="#000000" fill-rule="evenodd" fill-opacity="1" /><path clip-path="url(#clip420)" d="M14.479 673.115 L14.479 667.258 L64.0042 667.258 L64.0042 673.115 L14.479 673.115 Z" fill="#000000" fill-rule="evenodd" fill-opacity="1" /><path clip-path="url(#clip420)" d="M14.479 655.004 L14.479 649.148 L64.0042 649.148 L64.0042 655.004 L14.479 655.004 Z" fill="#000000" fill-rule="evenodd" fill-opacity="1" /><path clip-path="url(#clip420)" d="M46.0847 620.693 Q46.0847 627.791 47.7079 630.528 Q49.3312 633.265 53.2461 633.265 Q56.3653 633.265 58.2114 631.228 Q60.0256 629.159 60.0256 625.626 Q60.0256 620.757 56.5881 617.828 Q53.1188 614.868 47.3897 614.868 L46.0847 614.868 L46.0847 620.693 M43.6657 609.012 L64.0042 609.012 L64.0042 614.868 L58.5933 614.868 Q61.8398 616.873 63.3994 619.865 Q64.9272 622.857 64.9272 627.186 Q64.9272 632.66 61.8716 635.907 Q58.7843 639.122 53.6281 639.122 Q47.6125 639.122 44.5569 635.111 Q41.5014 631.069 41.5014 623.08 L41.5014 614.868 L40.9285 614.868 Q36.8862 614.868 34.6901 617.542 Q32.4621 620.184 32.4621 624.99 Q32.4621 628.045 33.1941 630.942 Q33.9262 633.838 35.3903 636.512 L29.9795 636.512 Q28.7381 633.297 28.1334 630.273 Q27.4968 627.25 27.4968 624.385 Q27.4968 616.651 31.5072 612.831 Q35.5176 609.012 43.6657 609.012 Z" fill="#000000" fill-rule="evenodd" fill-opacity="1" /><path clip-path="url(#clip420)" d="M33.8307 576.292 Q33.2578 577.279 33.0032 578.456 Q32.7167 579.602 32.7167 581.003 Q32.7167 585.968 35.9632 588.642 Q39.1779 591.283 45.2253 591.283 L64.0042 591.283 L64.0042 597.172 L28.3562 597.172 L28.3562 591.283 L33.8944 591.283 Q30.6479 589.437 29.0883 586.477 Q27.4968 583.517 27.4968 579.284 Q27.4968 578.679 27.5923 577.947 Q27.656 577.215 27.8151 576.324 L33.8307 576.292 Z" fill="#000000" fill-rule="evenodd" fill-opacity="1" /><path clip-path="url(#clip420)" d="M29.4065 547.424 L34.9447 547.424 Q33.6716 549.906 33.035 552.58 Q32.3984 555.253 32.3984 558.118 Q32.3984 562.479 33.7352 564.675 Q35.072 566.839 37.7456 566.839 Q39.7826 566.839 40.9603 565.279 Q42.1061 563.72 43.1565 559.009 L43.6021 557.004 Q44.9389 550.766 47.3897 548.156 Q49.8086 545.514 54.1691 545.514 Q59.1344 545.514 62.0308 549.461 Q64.9272 553.376 64.9272 560.251 Q64.9272 563.115 64.3543 566.234 Q63.8132 569.322 62.6992 572.759 L56.6518 572.759 Q58.3387 569.513 59.198 566.362 Q60.0256 563.211 60.0256 560.123 Q60.0256 555.985 58.6251 553.758 Q57.1929 551.53 54.6147 551.53 Q52.2276 551.53 50.9545 553.153 Q49.6813 554.744 48.5037 560.187 L48.0262 562.224 Q46.8804 567.667 44.5251 570.086 Q42.138 572.505 38.0002 572.505 Q32.9713 572.505 30.2341 568.94 Q27.4968 565.375 27.4968 558.818 Q27.4968 555.572 27.9743 552.707 Q28.4517 549.843 29.4065 547.424 Z" fill="#000000" fill-rule="evenodd" fill-opacity="1" /><path clip-path="url(#clip420)" d="M14.5426 537.111 L14.5426 532.019 Q22.0542 527.244 29.2474 524.889 Q36.4406 522.502 43.5384 522.502 Q50.668 522.502 57.8931 524.889 Q65.1182 527.244 72.5979 532.019 L72.5979 537.111 Q65.3091 532.878 58.1159 530.809 Q50.8908 528.708 43.5384 528.708 Q36.186 528.708 29.0246 530.809 Q21.8632 532.878 14.5426 537.111 Z" fill="#000000" fill-rule="evenodd" fill-opacity="1" /><polyline clip-path="url(#clip422)" style="stroke:#009af9; stroke-linecap:butt; stroke-linejoin:round; stroke-width:4; stroke-opacity:1; fill:none" points="
  323.125,1384.24 325.37,1384.24 329.859,1384.19 370.551,1382.33 376.067,1380.46 431.837,1361.31 441.996,1357.48 447.402,1355.44 447.644,1355.35 538.359,1318.51 
  552.346,1312.81 608.218,1287.05 610.714,1285.79 624.7,1278.61 771.287,1186.55 785.271,1177.73 790.35,1174.24 804.339,1163.42 855.131,1123.97 897.344,1089.92 
  901.408,1086.43 943.733,1048.6 944.749,1047.69 958.736,1035.06 1027.13,971.22 1030.92,967.483 1031.1,967.296 1058.68,935.425 1065.82,927.016 1073.67,917.56 
  1100.9,884.667 1101.45,883.996 1110.19,873.127 1153.92,818.652 1172.2,794.403 1177.68,786.908 1247.61,690.91 1286.09,633.138 1286.27,632.862 1423.63,422.898 
  1429.22,414.107 1448.24,383.884 1461.75,362.103 1531.68,247.579 1567.24,188.976 1570.03,184.327 1575.86,174.622 1609.79,116.601 1610.16,115.959 1627.32,86.1857 
  
  "/>
<polyline clip-path="url(#clip422)" style="stroke:#e26f46; stroke-linecap:butt; stroke-linejoin:round; stroke-width:4; stroke-opacity:1; fill:none" points="
  295.211,1384.24 506.069,1380.35 508.058,1380.31 522.042,1379.78 768.199,1370.22 977.547,1345.03 977.639,1345.01 984.039,1344.18 989.118,1343.45 994.416,1342.38 
  998.025,1341.65 1000.18,1341.21 1014.17,1338.1 1070.04,1325.54 1075.52,1324.3 1180.97,1293.42 1236.74,1275.95 1250.72,1271.55 1360.54,1227.31 1366.13,1225.05 
  1368.69,1224.01 1543.41,1147.46 1657.88,1097.13 1734.07,1060.02 1734.58,1059.76 1748.19,1052.4 1780.29,1034.56 1787.28,1030.51 1797.44,1024.42 1940.81,935.726 
  1983.02,909.597 1992.68,903.348 2006.96,893.806 2034.55,874.519 2035.05,874.156 2040.64,870.088 2049.64,863.449 2051.04,862.366 2065.75,850.442 2079.74,838.996 
  2080.23,838.566 2080.81,838.046 2085.39,833.92 2123.06,799.896 2141.33,783.276 2141.84,782.806 2147.33,777.534 2198.12,728.247 2268.04,656.665 2292.83,630.928 
  
  "/>
<path clip-path="url(#clip420)" d="
M1962.83 274.549 L2282.17 274.549 L2282.17 93.1086 L1962.83 93.1086  Z
  " fill="#ffffff" fill-rule="evenodd" fill-opacity="1"/>
<polyline clip-path="url(#clip420)" style="stroke:#000000; stroke-linecap:butt; stroke-linejoin:round; stroke-width:4; stroke-opacity:1; fill:none" points="
  1962.83,274.549 2282.17,274.549 2282.17,93.1086 1962.83,93.1086 1962.83,274.549 
  "/>
<polyline clip-path="url(#clip420)" style="stroke:#009af9; stroke-linecap:butt; stroke-linejoin:round; stroke-width:4; stroke-opacity:1; fill:none" points="
  1986.35,153.589 2127.52,153.589 
  "/>
<path clip-path="url(#clip420)" d="M2166.88 140.915 L2160.54 158.114 L2173.24 158.114 L2166.88 140.915 M2164.24 136.309 L2169.54 136.309 L2182.71 170.869 L2177.85 170.869 L2174.7 162.003 L2159.12 162.003 L2155.98 170.869 L2151.04 170.869 L2164.24 136.309 Z" fill="#000000" fill-rule="evenodd" fill-opacity="1" /><path clip-path="url(#clip420)" d="M2204.1 145.707 L2204.1 149.734 Q2202.29 148.809 2200.35 148.346 Q2198.41 147.883 2196.32 147.883 Q2193.15 147.883 2191.55 148.855 Q2189.98 149.827 2189.98 151.771 Q2189.98 153.253 2191.11 154.109 Q2192.25 154.943 2195.67 155.707 L2197.13 156.031 Q2201.67 157.003 2203.57 158.785 Q2205.49 160.545 2205.49 163.716 Q2205.49 167.327 2202.62 169.433 Q2199.77 171.54 2194.77 171.54 Q2192.69 171.54 2190.42 171.123 Q2188.17 170.73 2185.67 169.92 L2185.67 165.521 Q2188.04 166.748 2190.33 167.373 Q2192.62 167.975 2194.86 167.975 Q2197.87 167.975 2199.49 166.957 Q2201.11 165.915 2201.11 164.04 Q2201.11 162.304 2199.93 161.378 Q2198.78 160.452 2194.82 159.596 L2193.34 159.248 Q2189.38 158.415 2187.62 156.702 Q2185.86 154.966 2185.86 151.957 Q2185.86 148.299 2188.45 146.309 Q2191.04 144.318 2195.81 144.318 Q2198.17 144.318 2200.26 144.665 Q2202.34 145.012 2204.1 145.707 Z" fill="#000000" fill-rule="evenodd" fill-opacity="1" /><path clip-path="url(#clip420)" d="M2212.11 134.85 L2216.39 134.85 L2216.39 156.123 L2229.1 144.943 L2234.54 144.943 L2220.79 157.072 L2235.12 170.869 L2229.56 170.869 L2216.39 158.207 L2216.39 170.869 L2212.11 170.869 L2212.11 134.85 Z" fill="#000000" fill-rule="evenodd" fill-opacity="1" /><polyline clip-path="url(#clip420)" style="stroke:#e26f46; stroke-linecap:butt; stroke-linejoin:round; stroke-width:4; stroke-opacity:1; fill:none" points="
  1986.35,214.069 2127.52,214.069 
  "/>
<path clip-path="url(#clip420)" d="M2155.72 214.844 L2155.72 227.506 L2163.22 227.506 Q2166.99 227.506 2168.8 225.955 Q2170.63 224.381 2170.63 221.163 Q2170.63 217.923 2168.8 216.395 Q2166.99 214.844 2163.22 214.844 L2155.72 214.844 M2155.72 200.631 L2155.72 211.048 L2162.64 211.048 Q2166.07 211.048 2167.73 209.775 Q2169.42 208.478 2169.42 205.839 Q2169.42 203.224 2167.73 201.927 Q2166.07 200.631 2162.64 200.631 L2155.72 200.631 M2151.04 196.789 L2162.99 196.789 Q2168.34 196.789 2171.23 199.011 Q2174.12 201.233 2174.12 205.33 Q2174.12 208.502 2172.64 210.377 Q2171.16 212.251 2168.29 212.714 Q2171.74 213.455 2173.64 215.816 Q2175.56 218.154 2175.56 221.673 Q2175.56 226.302 2172.41 228.825 Q2169.26 231.349 2163.45 231.349 L2151.04 231.349 L2151.04 196.789 Z" fill="#000000" fill-rule="evenodd" fill-opacity="1" /><path clip-path="url(#clip420)" d="M2183.38 205.423 L2187.64 205.423 L2187.64 231.349 L2183.38 231.349 L2183.38 205.423 M2183.38 195.33 L2187.64 195.33 L2187.64 200.724 L2183.38 200.724 L2183.38 195.33 Z" fill="#000000" fill-rule="evenodd" fill-opacity="1" /><path clip-path="url(#clip420)" d="M2213.61 209.358 L2213.61 195.33 L2217.87 195.33 L2217.87 231.349 L2213.61 231.349 L2213.61 227.46 Q2212.27 229.775 2210.21 230.909 Q2208.17 232.02 2205.3 232.02 Q2200.6 232.02 2197.64 228.27 Q2194.7 224.52 2194.7 218.409 Q2194.7 212.298 2197.64 208.548 Q2200.6 204.798 2205.3 204.798 Q2208.17 204.798 2210.21 205.932 Q2212.27 207.043 2213.61 209.358 M2199.1 218.409 Q2199.1 223.108 2201.02 225.793 Q2202.97 228.455 2206.35 228.455 Q2209.73 228.455 2211.67 225.793 Q2213.61 223.108 2213.61 218.409 Q2213.61 213.71 2211.67 211.048 Q2209.73 208.363 2206.35 208.363 Q2202.97 208.363 2201.02 211.048 Q2199.1 213.71 2199.1 218.409 Z" fill="#000000" fill-rule="evenodd" fill-opacity="1" /></svg>
