<?xml version="1.0" encoding="utf-8"?>
<svg xmlns="http://www.w3.org/2000/svg" xmlns:xlink="http://www.w3.org/1999/xlink" width="600" height="400" viewBox="0 0 2400 1600">
<defs>
  <clipPath id="clip850">
    <rect x="0" y="0" width="2400" height="1600"/>
  </clipPath>
</defs>
<path clip-path="url(#clip850)" d="
M0 1600 L2400 1600 L2400 0 L0 0  Z
  " fill="#ffffff" fill-rule="evenodd" fill-opacity="1"/>
<defs>
  <clipPath id="clip851">
    <rect x="480" y="0" width="1681" height="1600"/>
  </clipPath>
</defs>
<path clip-path="url(#clip850)" d="
M199.704 1423.18 L2352.76 1423.18 L2352.76 47.2441 L199.704 47.2441  Z
  " fill="#ffffff" fill-rule="evenodd" fill-opacity="1"/>
<defs>
  <clipPath id="clip852">
    <rect x="199" y="47" width="2154" height="1377"/>
  </clipPath>
</defs>
<polyline clip-path="url(#clip852)" style="stroke:#000000; stroke-width:2; stroke-opacity:0.1; fill:none" points="
  260.64,1423.18 260.64,47.2441 
  "/>
<polyline clip-path="url(#clip852)" style="stroke:#000000; stroke-width:2; stroke-opacity:0.1; fill:none" points="
  628.194,1423.18 628.194,47.2441 
  "/>
<polyline clip-path="url(#clip852)" style="stroke:#000000; stroke-width:2; stroke-opacity:0.1; fill:none" points="
  995.749,1423.18 995.749,47.2441 
  "/>
<polyline clip-path="url(#clip852)" style="stroke:#000000; stroke-width:2; stroke-opacity:0.1; fill:none" points="
  1363.3,1423.18 1363.3,47.2441 
  "/>
<polyline clip-path="url(#clip852)" style="stroke:#000000; stroke-width:2; stroke-opacity:0.1; fill:none" points="
  1730.86,1423.18 1730.86,47.2441 
  "/>
<polyline clip-path="url(#clip852)" style="stroke:#000000; stroke-width:2; stroke-opacity:0.1; fill:none" points="
  2098.41,1423.18 2098.41,47.2441 
  "/>
<polyline clip-path="url(#clip850)" style="stroke:#000000; stroke-width:4; stroke-opacity:1; fill:none" points="
  199.704,1423.18 2352.76,1423.18 
  "/>
<polyline clip-path="url(#clip850)" style="stroke:#000000; stroke-width:4; stroke-opacity:1; fill:none" points="
  260.64,1423.18 260.64,1406.67 
  "/>
<polyline clip-path="url(#clip850)" style="stroke:#000000; stroke-width:4; stroke-opacity:1; fill:none" points="
  628.194,1423.18 628.194,1406.67 
  "/>
<polyline clip-path="url(#clip850)" style="stroke:#000000; stroke-width:4; stroke-opacity:1; fill:none" points="
  995.749,1423.18 995.749,1406.67 
  "/>
<polyline clip-path="url(#clip850)" style="stroke:#000000; stroke-width:4; stroke-opacity:1; fill:none" points="
  1363.3,1423.18 1363.3,1406.67 
  "/>
<polyline clip-path="url(#clip850)" style="stroke:#000000; stroke-width:4; stroke-opacity:1; fill:none" points="
  1730.86,1423.18 1730.86,1406.67 
  "/>
<polyline clip-path="url(#clip850)" style="stroke:#000000; stroke-width:4; stroke-opacity:1; fill:none" points="
  2098.41,1423.18 2098.41,1406.67 
  "/>
<path clip-path="url(#clip850)" d="M 0 0 M242.156 1452.37 Q238.545 1452.37 236.716 1455.94 Q234.911 1459.48 234.911 1466.61 Q234.911 1473.71 236.716 1477.28 Q238.545 1480.82 242.156 1480.82 Q245.79 1480.82 247.596 1477.28 Q249.425 1473.71 249.425 1466.61 Q249.425 1459.48 247.596 1455.94 Q245.79 1452.37 242.156 1452.37 M242.156 1448.67 Q247.966 1448.67 251.022 1453.27 Q254.1 1457.86 254.1 1466.61 Q254.1 1475.33 251.022 1479.94 Q247.966 1484.52 242.156 1484.52 Q236.346 1484.52 233.267 1479.94 Q230.212 1475.33 230.212 1466.61 Q230.212 1457.86 233.267 1453.27 Q236.346 1448.67 242.156 1448.67 Z" fill="#000000" fill-rule="evenodd" fill-opacity="1" /><path clip-path="url(#clip850)" d="M 0 0 M259.17 1477.97 L264.054 1477.97 L264.054 1483.85 L259.17 1483.85 L259.17 1477.97 Z" fill="#000000" fill-rule="evenodd" fill-opacity="1" /><path clip-path="url(#clip850)" d="M 0 0 M279.123 1452.37 Q275.512 1452.37 273.684 1455.94 Q271.878 1459.48 271.878 1466.61 Q271.878 1473.71 273.684 1477.28 Q275.512 1480.82 279.123 1480.82 Q282.758 1480.82 284.563 1477.28 Q286.392 1473.71 286.392 1466.61 Q286.392 1459.48 284.563 1455.94 Q282.758 1452.37 279.123 1452.37 M279.123 1448.67 Q284.934 1448.67 287.989 1453.27 Q291.068 1457.86 291.068 1466.61 Q291.068 1475.33 287.989 1479.94 Q284.934 1484.52 279.123 1484.52 Q273.313 1484.52 270.235 1479.94 Q267.179 1475.33 267.179 1466.61 Q267.179 1457.86 270.235 1453.27 Q273.313 1448.67 279.123 1448.67 Z" fill="#000000" fill-rule="evenodd" fill-opacity="1" /><path clip-path="url(#clip850)" d="M 0 0 M604.861 1479.92 L621.18 1479.92 L621.18 1483.85 L599.236 1483.85 L599.236 1479.92 Q601.898 1477.16 606.481 1472.53 Q611.088 1467.88 612.268 1466.54 Q614.514 1464.01 615.393 1462.28 Q616.296 1460.52 616.296 1458.83 Q616.296 1456.07 614.352 1454.34 Q612.43 1452.6 609.329 1452.6 Q607.129 1452.6 604.676 1453.37 Q602.245 1454.13 599.467 1455.68 L599.467 1450.96 Q602.292 1449.82 604.745 1449.25 Q607.199 1448.67 609.236 1448.67 Q614.606 1448.67 617.801 1451.35 Q620.995 1454.04 620.995 1458.53 Q620.995 1460.66 620.185 1462.58 Q619.398 1464.48 617.291 1467.07 Q616.713 1467.74 613.611 1470.96 Q610.509 1474.15 604.861 1479.92 Z" fill="#000000" fill-rule="evenodd" fill-opacity="1" /><path clip-path="url(#clip850)" d="M 0 0 M626.25 1477.97 L631.134 1477.97 L631.134 1483.85 L626.25 1483.85 L626.25 1477.97 Z" fill="#000000" fill-rule="evenodd" fill-opacity="1" /><path clip-path="url(#clip850)" d="M 0 0 M636.25 1449.29 L654.606 1449.29 L654.606 1453.23 L640.532 1453.23 L640.532 1461.7 Q641.551 1461.35 642.569 1461.19 Q643.588 1461 644.606 1461 Q650.393 1461 653.773 1464.18 Q657.152 1467.35 657.152 1472.76 Q657.152 1478.34 653.68 1481.44 Q650.208 1484.52 643.889 1484.52 Q641.713 1484.52 639.444 1484.15 Q637.199 1483.78 634.791 1483.04 L634.791 1478.34 Q636.875 1479.48 639.097 1480.03 Q641.319 1480.59 643.796 1480.59 Q647.801 1480.59 650.138 1478.48 Q652.476 1476.38 652.476 1472.76 Q652.476 1469.15 650.138 1467.05 Q647.801 1464.94 643.796 1464.94 Q641.921 1464.94 640.046 1465.36 Q638.194 1465.77 636.25 1466.65 L636.25 1449.29 Z" fill="#000000" fill-rule="evenodd" fill-opacity="1" /><path clip-path="url(#clip850)" d="M 0 0 M967.543 1449.29 L985.899 1449.29 L985.899 1453.23 L971.825 1453.23 L971.825 1461.7 Q972.844 1461.35 973.862 1461.19 Q974.881 1461 975.899 1461 Q981.686 1461 985.066 1464.18 Q988.445 1467.35 988.445 1472.76 Q988.445 1478.34 984.973 1481.44 Q981.501 1484.52 975.182 1484.52 Q973.006 1484.52 970.737 1484.15 Q968.492 1483.78 966.084 1483.04 L966.084 1478.34 Q968.168 1479.48 970.39 1480.03 Q972.612 1480.59 975.089 1480.59 Q979.094 1480.59 981.432 1478.48 Q983.769 1476.38 983.769 1472.76 Q983.769 1469.15 981.432 1467.05 Q979.094 1464.94 975.089 1464.94 Q973.214 1464.94 971.339 1465.36 Q969.487 1465.77 967.543 1466.65 L967.543 1449.29 Z" fill="#000000" fill-rule="evenodd" fill-opacity="1" /><path clip-path="url(#clip850)" d="M 0 0 M993.515 1477.97 L998.399 1477.97 L998.399 1483.85 L993.515 1483.85 L993.515 1477.97 Z" fill="#000000" fill-rule="evenodd" fill-opacity="1" /><path clip-path="url(#clip850)" d="M 0 0 M1013.47 1452.37 Q1009.86 1452.37 1008.03 1455.94 Q1006.22 1459.48 1006.22 1466.61 Q1006.22 1473.71 1008.03 1477.28 Q1009.86 1480.82 1013.47 1480.82 Q1017.1 1480.82 1018.91 1477.28 Q1020.74 1473.71 1020.74 1466.61 Q1020.74 1459.48 1018.91 1455.94 Q1017.1 1452.37 1013.47 1452.37 M1013.47 1448.67 Q1019.28 1448.67 1022.33 1453.27 Q1025.41 1457.86 1025.41 1466.61 Q1025.41 1475.33 1022.33 1479.94 Q1019.28 1484.52 1013.47 1484.52 Q1007.66 1484.52 1004.58 1479.94 Q1001.52 1475.33 1001.52 1466.61 Q1001.52 1457.86 1004.58 1453.27 Q1007.66 1448.67 1013.47 1448.67 Z" fill="#000000" fill-rule="evenodd" fill-opacity="1" /><path clip-path="url(#clip850)" d="M 0 0 M1334.21 1449.29 L1356.43 1449.29 L1356.43 1451.28 L1343.88 1483.85 L1339 1483.85 L1350.8 1453.23 L1334.21 1453.23 L1334.21 1449.29 Z" fill="#000000" fill-rule="evenodd" fill-opacity="1" /><path clip-path="url(#clip850)" d="M 0 0 M1361.5 1477.97 L1366.38 1477.97 L1366.38 1483.85 L1361.5 1483.85 L1361.5 1477.97 Z" fill="#000000" fill-rule="evenodd" fill-opacity="1" /><path clip-path="url(#clip850)" d="M 0 0 M1371.5 1449.29 L1389.85 1449.29 L1389.85 1453.23 L1375.78 1453.23 L1375.78 1461.7 Q1376.8 1461.35 1377.82 1461.19 Q1378.84 1461 1379.85 1461 Q1385.64 1461 1389.02 1464.18 Q1392.4 1467.35 1392.4 1472.76 Q1392.4 1478.34 1388.93 1481.44 Q1385.46 1484.52 1379.14 1484.52 Q1376.96 1484.52 1374.69 1484.15 Q1372.45 1483.78 1370.04 1483.04 L1370.04 1478.34 Q1372.12 1479.48 1374.34 1480.03 Q1376.57 1480.59 1379.04 1480.59 Q1383.05 1480.59 1385.39 1478.48 Q1387.72 1476.38 1387.72 1472.76 Q1387.72 1469.15 1385.39 1467.05 Q1383.05 1464.94 1379.04 1464.94 Q1377.17 1464.94 1375.29 1465.36 Q1373.44 1465.77 1371.5 1466.65 L1371.5 1449.29 Z" fill="#000000" fill-rule="evenodd" fill-opacity="1" /><path clip-path="url(#clip850)" d="M 0 0 M1689.25 1479.92 L1696.89 1479.92 L1696.89 1453.55 L1688.58 1455.22 L1688.58 1450.96 L1696.84 1449.29 L1701.52 1449.29 L1701.52 1479.92 L1709.16 1479.92 L1709.16 1483.85 L1689.25 1483.85 L1689.25 1479.92 Z" fill="#000000" fill-rule="evenodd" fill-opacity="1" /><path clip-path="url(#clip850)" d="M 0 0 M1724.23 1452.37 Q1720.61 1452.37 1718.79 1455.94 Q1716.98 1459.48 1716.98 1466.61 Q1716.98 1473.71 1718.79 1477.28 Q1720.61 1480.82 1724.23 1480.82 Q1727.86 1480.82 1729.67 1477.28 Q1731.49 1473.71 1731.49 1466.61 Q1731.49 1459.48 1729.67 1455.94 Q1727.86 1452.37 1724.23 1452.37 M1724.23 1448.67 Q1730.04 1448.67 1733.09 1453.27 Q1736.17 1457.86 1736.17 1466.61 Q1736.17 1475.33 1733.09 1479.94 Q1730.04 1484.52 1724.23 1484.52 Q1718.42 1484.52 1715.34 1479.94 Q1712.28 1475.33 1712.28 1466.61 Q1712.28 1457.86 1715.34 1453.27 Q1718.42 1448.67 1724.23 1448.67 Z" fill="#000000" fill-rule="evenodd" fill-opacity="1" /><path clip-path="url(#clip850)" d="M 0 0 M1741.24 1477.97 L1746.12 1477.97 L1746.12 1483.85 L1741.24 1483.85 L1741.24 1477.97 Z" fill="#000000" fill-rule="evenodd" fill-opacity="1" /><path clip-path="url(#clip850)" d="M 0 0 M1761.19 1452.37 Q1757.58 1452.37 1755.75 1455.94 Q1753.95 1459.48 1753.95 1466.61 Q1753.95 1473.71 1755.75 1477.28 Q1757.58 1480.82 1761.19 1480.82 Q1764.83 1480.82 1766.63 1477.28 Q1768.46 1473.71 1768.46 1466.61 Q1768.46 1459.48 1766.63 1455.94 Q1764.83 1452.37 1761.19 1452.37 M1761.19 1448.67 Q1767 1448.67 1770.06 1453.27 Q1773.14 1457.86 1773.14 1466.61 Q1773.14 1475.33 1770.06 1479.94 Q1767 1484.52 1761.19 1484.52 Q1755.38 1484.52 1752.3 1479.94 Q1749.25 1475.33 1749.25 1466.61 Q1749.25 1457.86 1752.3 1453.27 Q1755.38 1448.67 1761.19 1448.67 Z" fill="#000000" fill-rule="evenodd" fill-opacity="1" /><path clip-path="url(#clip850)" d="M 0 0 M2058.1 1479.92 L2065.74 1479.92 L2065.74 1453.55 L2057.43 1455.22 L2057.43 1450.96 L2065.69 1449.29 L2070.37 1449.29 L2070.37 1479.92 L2078.01 1479.92 L2078.01 1483.85 L2058.1 1483.85 L2058.1 1479.92 Z" fill="#000000" fill-rule="evenodd" fill-opacity="1" /><path clip-path="url(#clip850)" d="M 0 0 M2087.1 1479.92 L2103.42 1479.92 L2103.42 1483.85 L2081.48 1483.85 L2081.48 1479.92 Q2084.14 1477.16 2088.72 1472.53 Q2093.33 1467.88 2094.51 1466.54 Q2096.76 1464.01 2097.64 1462.28 Q2098.54 1460.52 2098.54 1458.83 Q2098.54 1456.07 2096.59 1454.34 Q2094.67 1452.6 2091.57 1452.6 Q2089.37 1452.6 2086.92 1453.37 Q2084.49 1454.13 2081.71 1455.68 L2081.71 1450.96 Q2084.53 1449.82 2086.99 1449.25 Q2089.44 1448.67 2091.48 1448.67 Q2096.85 1448.67 2100.04 1451.35 Q2103.24 1454.04 2103.24 1458.53 Q2103.24 1460.66 2102.43 1462.58 Q2101.64 1464.48 2099.53 1467.07 Q2098.96 1467.74 2095.85 1470.96 Q2092.75 1474.15 2087.1 1479.92 Z" fill="#000000" fill-rule="evenodd" fill-opacity="1" /><path clip-path="url(#clip850)" d="M 0 0 M2108.49 1477.97 L2113.38 1477.97 L2113.38 1483.85 L2108.49 1483.85 L2108.49 1477.97 Z" fill="#000000" fill-rule="evenodd" fill-opacity="1" /><path clip-path="url(#clip850)" d="M 0 0 M2118.49 1449.29 L2136.85 1449.29 L2136.85 1453.23 L2122.78 1453.23 L2122.78 1461.7 Q2123.79 1461.35 2124.81 1461.19 Q2125.83 1461 2126.85 1461 Q2132.64 1461 2136.02 1464.18 Q2139.4 1467.35 2139.4 1472.76 Q2139.4 1478.34 2135.92 1481.44 Q2132.45 1484.52 2126.13 1484.52 Q2123.96 1484.52 2121.69 1484.15 Q2119.44 1483.78 2117.03 1483.04 L2117.03 1478.34 Q2119.12 1479.48 2121.34 1480.03 Q2123.56 1480.59 2126.04 1480.59 Q2130.04 1480.59 2132.38 1478.48 Q2134.72 1476.38 2134.72 1472.76 Q2134.72 1469.15 2132.38 1467.05 Q2130.04 1464.94 2126.04 1464.94 Q2124.16 1464.94 2122.29 1465.36 Q2120.44 1465.77 2118.49 1466.65 L2118.49 1449.29 Z" fill="#000000" fill-rule="evenodd" fill-opacity="1" /><path clip-path="url(#clip850)" d="M 0 0 M870.639 1518.52 L876.496 1518.52 L876.496 1568.04 L870.639 1568.04 L870.639 1518.52 Z" fill="#000000" fill-rule="evenodd" fill-opacity="1" /><path clip-path="url(#clip850)" d="M 0 0 M896.452 1536.5 Q891.741 1536.5 889.004 1540.19 Q886.267 1543.85 886.267 1550.25 Q886.267 1556.65 888.972 1560.34 Q891.71 1564 896.452 1564 Q901.131 1564 903.868 1560.31 Q906.605 1556.62 906.605 1550.25 Q906.605 1543.92 903.868 1540.23 Q901.131 1536.5 896.452 1536.5 M896.452 1531.54 Q904.091 1531.54 908.451 1536.5 Q912.812 1541.47 912.812 1550.25 Q912.812 1559 908.451 1564 Q904.091 1568.97 896.452 1568.97 Q888.781 1568.97 884.421 1564 Q880.092 1559 880.092 1550.25 Q880.092 1541.47 884.421 1536.5 Q888.781 1531.54 896.452 1531.54 Z" fill="#000000" fill-rule="evenodd" fill-opacity="1" /><path clip-path="url(#clip850)" d="M 0 0 M942.412 1549.81 Q942.412 1543.44 939.771 1539.94 Q937.161 1536.44 932.418 1536.44 Q927.708 1536.44 925.066 1539.94 Q922.456 1543.44 922.456 1549.81 Q922.456 1556.14 925.066 1559.64 Q927.708 1563.14 932.418 1563.14 Q937.161 1563.14 939.771 1559.64 Q942.412 1556.14 942.412 1549.81 M948.269 1563.62 Q948.269 1572.72 944.227 1577.15 Q940.184 1581.6 931.845 1581.6 Q928.758 1581.6 926.021 1581.13 Q923.284 1580.68 920.705 1579.72 L920.705 1574.03 Q923.284 1575.43 925.798 1576.1 Q928.312 1576.76 930.922 1576.76 Q936.683 1576.76 939.548 1573.74 Q942.412 1570.75 942.412 1564.67 L942.412 1561.77 Q940.598 1564.92 937.765 1566.48 Q934.933 1568.04 930.986 1568.04 Q924.429 1568.04 920.419 1563.05 Q916.409 1558.05 916.409 1549.81 Q916.409 1541.53 920.419 1536.53 Q924.429 1531.54 930.986 1531.54 Q934.933 1531.54 937.765 1533.1 Q940.598 1534.66 942.412 1537.81 L942.412 1532.4 L948.269 1532.4 L948.269 1563.62 Z" fill="#000000" fill-rule="evenodd" fill-opacity="1" /><path clip-path="url(#clip850)" d="M 0 0 M968.48 1518.58 Q964.215 1525.9 962.146 1533.06 Q960.077 1540.23 960.077 1547.58 Q960.077 1554.93 962.146 1562.16 Q964.247 1569.35 968.48 1576.64 L963.387 1576.64 Q958.613 1569.16 956.226 1561.93 Q953.871 1554.71 953.871 1547.58 Q953.871 1540.48 956.226 1533.29 Q958.581 1526.09 963.387 1518.58 L968.48 1518.58 Z" fill="#000000" fill-rule="evenodd" fill-opacity="1" /><path clip-path="url(#clip850)" d="M 0 0 M974.878 1520.52 L983.535 1520.52 L1004.61 1560.28 L1004.61 1520.52 L1010.84 1520.52 L1010.84 1568.04 L1002.19 1568.04 L981.116 1528.29 L981.116 1568.04 L974.878 1568.04 L974.878 1520.52 Z" fill="#000000" fill-rule="evenodd" fill-opacity="1" /><path clip-path="url(#clip850)" d="M 0 0 M1016.38 1553.98 L1016.38 1532.4 L1022.24 1532.4 L1022.24 1553.75 Q1022.24 1558.81 1024.21 1561.36 Q1026.19 1563.87 1030.13 1563.87 Q1034.87 1563.87 1037.61 1560.85 Q1040.38 1557.83 1040.38 1552.61 L1040.38 1532.4 L1046.24 1532.4 L1046.24 1568.04 L1040.38 1568.04 L1040.38 1562.57 Q1038.25 1565.82 1035.42 1567.41 Q1032.61 1568.97 1028.89 1568.97 Q1022.75 1568.97 1019.56 1565.15 Q1016.38 1561.33 1016.38 1553.98 M1031.12 1531.54 L1031.12 1531.54 Z" fill="#000000" fill-rule="evenodd" fill-opacity="1" /><path clip-path="url(#clip850)" d="M 0 0 M1080.13 1539.24 Q1082.33 1535.29 1085.39 1533.41 Q1088.44 1531.54 1092.58 1531.54 Q1098.15 1531.54 1101.17 1535.45 Q1104.2 1539.33 1104.2 1546.53 L1104.2 1568.04 L1098.31 1568.04 L1098.31 1546.72 Q1098.31 1541.59 1096.49 1539.11 Q1094.68 1536.63 1090.96 1536.63 Q1086.4 1536.63 1083.76 1539.65 Q1081.12 1542.68 1081.12 1547.9 L1081.12 1568.04 L1075.23 1568.04 L1075.23 1546.72 Q1075.23 1541.56 1073.42 1539.11 Q1071.6 1536.63 1067.82 1536.63 Q1063.33 1536.63 1060.69 1539.68 Q1058.05 1542.71 1058.05 1547.9 L1058.05 1568.04 L1052.16 1568.04 L1052.16 1532.4 L1058.05 1532.4 L1058.05 1537.93 Q1060.05 1534.66 1062.85 1533.1 Q1065.65 1531.54 1069.5 1531.54 Q1073.39 1531.54 1076.09 1533.51 Q1078.83 1535.48 1080.13 1539.24 Z" fill="#000000" fill-rule="evenodd" fill-opacity="1" /><path clip-path="url(#clip850)" d="M 0 0 M1135.93 1550.25 Q1135.93 1543.79 1133.26 1540.13 Q1130.61 1536.44 1125.97 1536.44 Q1121.32 1536.44 1118.65 1540.13 Q1116.01 1543.79 1116.01 1550.25 Q1116.01 1556.71 1118.65 1560.4 Q1121.32 1564.07 1125.97 1564.07 Q1130.61 1564.07 1133.26 1560.4 Q1135.93 1556.71 1135.93 1550.25 M1116.01 1537.81 Q1117.85 1534.62 1120.65 1533.1 Q1123.48 1531.54 1127.4 1531.54 Q1133.89 1531.54 1137.94 1536.69 Q1142.01 1541.85 1142.01 1550.25 Q1142.01 1558.65 1137.94 1563.81 Q1133.89 1568.97 1127.4 1568.97 Q1123.48 1568.97 1120.65 1567.44 Q1117.85 1565.88 1116.01 1562.7 L1116.01 1568.04 L1110.12 1568.04 L1110.12 1518.52 L1116.01 1518.52 L1116.01 1537.81 Z" fill="#000000" fill-rule="evenodd" fill-opacity="1" /><path clip-path="url(#clip850)" d="M 0 0 M1178.64 1548.76 L1178.64 1551.62 L1151.72 1551.62 Q1152.1 1557.67 1155.35 1560.85 Q1158.62 1564 1164.45 1564 Q1167.82 1564 1170.97 1563.17 Q1174.16 1562.35 1177.28 1560.69 L1177.28 1566.23 Q1174.12 1567.57 1170.81 1568.27 Q1167.5 1568.97 1164.1 1568.97 Q1155.57 1568.97 1150.57 1564 Q1145.61 1559.04 1145.61 1550.57 Q1145.61 1541.82 1150.32 1536.69 Q1155.06 1531.54 1163.08 1531.54 Q1170.27 1531.54 1174.44 1536.18 Q1178.64 1540.8 1178.64 1548.76 M1172.79 1547.04 Q1172.72 1542.23 1170.08 1539.37 Q1167.47 1536.5 1163.14 1536.5 Q1158.24 1536.5 1155.28 1539.27 Q1152.35 1542.04 1151.91 1547.07 L1172.79 1547.04 Z" fill="#000000" fill-rule="evenodd" fill-opacity="1" /><path clip-path="url(#clip850)" d="M 0 0 M1205.44 1537.87 Q1204.46 1537.3 1203.28 1537.04 Q1202.13 1536.76 1200.73 1536.76 Q1195.77 1536.76 1193.09 1540 Q1190.45 1543.22 1190.45 1549.27 L1190.45 1568.04 L1184.56 1568.04 L1184.56 1532.4 L1190.45 1532.4 L1190.45 1537.93 Q1192.3 1534.69 1195.26 1533.13 Q1198.22 1531.54 1202.45 1531.54 Q1203.06 1531.54 1203.79 1531.63 Q1204.52 1531.7 1205.41 1531.85 L1205.44 1537.87 Z" fill="#000000" fill-rule="evenodd" fill-opacity="1" /><path clip-path="url(#clip850)" d="M 0 0 M1246.12 1536.5 Q1241.41 1536.5 1238.67 1540.19 Q1235.94 1543.85 1235.94 1550.25 Q1235.94 1556.65 1238.64 1560.34 Q1241.38 1564 1246.12 1564 Q1250.8 1564 1253.54 1560.31 Q1256.27 1556.62 1256.27 1550.25 Q1256.27 1543.92 1253.54 1540.23 Q1250.8 1536.5 1246.12 1536.5 M1246.12 1531.54 Q1253.76 1531.54 1258.12 1536.5 Q1262.48 1541.47 1262.48 1550.25 Q1262.48 1559 1258.12 1564 Q1253.76 1568.97 1246.12 1568.97 Q1238.45 1568.97 1234.09 1564 Q1229.76 1559 1229.76 1550.25 Q1229.76 1541.47 1234.09 1536.5 Q1238.45 1531.54 1246.12 1531.54 Z" fill="#000000" fill-rule="evenodd" fill-opacity="1" /><path clip-path="url(#clip850)" d="M 0 0 M1286.67 1518.52 L1286.67 1523.39 L1281.07 1523.39 Q1277.92 1523.39 1276.68 1524.66 Q1275.47 1525.93 1275.47 1529.24 L1275.47 1532.4 L1285.11 1532.4 L1285.11 1536.95 L1275.47 1536.95 L1275.47 1568.04 L1269.58 1568.04 L1269.58 1536.95 L1263.98 1536.95 L1263.98 1532.4 L1269.58 1532.4 L1269.58 1529.91 Q1269.58 1523.96 1272.35 1521.26 Q1275.12 1518.52 1281.13 1518.52 L1286.67 1518.52 Z" fill="#000000" fill-rule="evenodd" fill-opacity="1" /><path clip-path="url(#clip850)" d="M 0 0 M1313.79 1520.52 L1320.22 1520.52 L1320.22 1568.04 L1313.79 1568.04 L1313.79 1520.52 Z" fill="#000000" fill-rule="evenodd" fill-opacity="1" /><path clip-path="url(#clip850)" d="M 0 0 M1333.04 1525.81 L1333.04 1562.76 L1340.81 1562.76 Q1350.65 1562.76 1355.2 1558.3 Q1359.78 1553.85 1359.78 1544.24 Q1359.78 1534.69 1355.2 1530.26 Q1350.65 1525.81 1340.81 1525.81 L1333.04 1525.81 M1326.61 1520.52 L1339.82 1520.52 Q1353.64 1520.52 1360.1 1526.28 Q1366.56 1532.01 1366.56 1544.24 Q1366.56 1556.52 1360.07 1562.28 Q1353.57 1568.04 1339.82 1568.04 L1326.61 1568.04 L1326.61 1520.52 Z" fill="#000000" fill-rule="evenodd" fill-opacity="1" /><path clip-path="url(#clip850)" d="M 0 0 M1395.43 1533.45 L1395.43 1538.98 Q1392.95 1537.71 1390.27 1537.07 Q1387.6 1536.44 1384.73 1536.44 Q1380.37 1536.44 1378.18 1537.77 Q1376.01 1539.11 1376.01 1541.79 Q1376.01 1543.82 1377.57 1545 Q1379.13 1546.15 1383.84 1547.2 L1385.85 1547.64 Q1392.09 1548.98 1394.7 1551.43 Q1397.34 1553.85 1397.34 1558.21 Q1397.34 1563.17 1393.39 1566.07 Q1389.48 1568.97 1382.6 1568.97 Q1379.74 1568.97 1376.62 1568.39 Q1373.53 1567.85 1370.09 1566.74 L1370.09 1560.69 Q1373.34 1562.38 1376.49 1563.24 Q1379.64 1564.07 1382.73 1564.07 Q1386.87 1564.07 1389.09 1562.66 Q1391.32 1561.23 1391.32 1558.65 Q1391.32 1556.27 1389.7 1554.99 Q1388.11 1553.72 1382.66 1552.54 L1380.63 1552.07 Q1375.19 1550.92 1372.77 1548.56 Q1370.35 1546.18 1370.35 1542.04 Q1370.35 1537.01 1373.91 1534.27 Q1377.48 1531.54 1384.03 1531.54 Q1387.28 1531.54 1390.14 1532.01 Q1393.01 1532.49 1395.43 1533.45 Z" fill="#000000" fill-rule="evenodd" fill-opacity="1" /><path clip-path="url(#clip850)" d="M 0 0 M1446.93 1533.45 L1446.93 1538.98 Q1444.44 1537.71 1441.77 1537.07 Q1439.1 1536.44 1436.23 1536.44 Q1431.87 1536.44 1429.68 1537.77 Q1427.51 1539.11 1427.51 1541.79 Q1427.51 1543.82 1429.07 1545 Q1430.63 1546.15 1435.34 1547.2 L1437.35 1547.64 Q1443.58 1548.98 1446.19 1551.43 Q1448.84 1553.85 1448.84 1558.21 Q1448.84 1563.17 1444.89 1566.07 Q1440.97 1568.97 1434.1 1568.97 Q1431.24 1568.97 1428.12 1568.39 Q1425.03 1567.85 1421.59 1566.74 L1421.59 1560.69 Q1424.84 1562.38 1427.99 1563.24 Q1431.14 1564.07 1434.23 1564.07 Q1438.36 1564.07 1440.59 1562.66 Q1442.82 1561.23 1442.82 1558.65 Q1442.82 1556.27 1441.2 1554.99 Q1439.61 1553.72 1434.16 1552.54 L1432.13 1552.07 Q1426.68 1550.92 1424.26 1548.56 Q1421.85 1546.18 1421.85 1542.04 Q1421.85 1537.01 1425.41 1534.27 Q1428.98 1531.54 1435.53 1531.54 Q1438.78 1531.54 1441.64 1532.01 Q1444.51 1532.49 1446.93 1533.45 Z" fill="#000000" fill-rule="evenodd" fill-opacity="1" /><path clip-path="url(#clip850)" d="M 0 0 M1485.47 1548.76 L1485.47 1551.62 L1458.54 1551.62 Q1458.93 1557.67 1462.17 1560.85 Q1465.45 1564 1471.28 1564 Q1474.65 1564 1477.8 1563.17 Q1480.98 1562.35 1484.1 1560.69 L1484.1 1566.23 Q1480.95 1567.57 1477.64 1568.27 Q1474.33 1568.97 1470.93 1568.97 Q1462.4 1568.97 1457.4 1564 Q1452.43 1559.04 1452.43 1550.57 Q1452.43 1541.82 1457.14 1536.69 Q1461.89 1531.54 1469.91 1531.54 Q1477.1 1531.54 1481.27 1536.18 Q1485.47 1540.8 1485.47 1548.76 M1479.61 1547.04 Q1479.55 1542.23 1476.91 1539.37 Q1474.3 1536.5 1469.97 1536.5 Q1465.07 1536.5 1462.11 1539.27 Q1459.18 1542.04 1458.73 1547.07 L1479.61 1547.04 Z" fill="#000000" fill-rule="evenodd" fill-opacity="1" /><path clip-path="url(#clip850)" d="M 0 0 M1491.61 1518.52 L1497.47 1518.52 L1497.47 1568.04 L1491.61 1568.04 L1491.61 1518.52 Z" fill="#000000" fill-rule="evenodd" fill-opacity="1" /><path clip-path="url(#clip850)" d="M 0 0 M1534.1 1548.76 L1534.1 1551.62 L1507.18 1551.62 Q1507.56 1557.67 1510.81 1560.85 Q1514.08 1564 1519.91 1564 Q1523.28 1564 1526.43 1563.17 Q1529.62 1562.35 1532.74 1560.69 L1532.74 1566.23 Q1529.59 1567.57 1526.28 1568.27 Q1522.96 1568.97 1519.56 1568.97 Q1511.03 1568.97 1506.03 1564 Q1501.07 1559.04 1501.07 1550.57 Q1501.07 1541.82 1505.78 1536.69 Q1510.52 1531.54 1518.54 1531.54 Q1525.73 1531.54 1529.9 1536.18 Q1534.1 1540.8 1534.1 1548.76 M1528.25 1547.04 Q1528.18 1542.23 1525.54 1539.37 Q1522.93 1536.5 1518.6 1536.5 Q1513.7 1536.5 1510.74 1539.27 Q1507.81 1542.04 1507.37 1547.07 L1528.25 1547.04 Z" fill="#000000" fill-rule="evenodd" fill-opacity="1" /><path clip-path="url(#clip850)" d="M 0 0 M1565.9 1533.76 L1565.9 1539.24 Q1563.42 1537.87 1560.9 1537.2 Q1558.42 1536.5 1555.88 1536.5 Q1550.18 1536.5 1547.03 1540.13 Q1543.88 1543.73 1543.88 1550.25 Q1543.88 1556.78 1547.03 1560.4 Q1550.18 1564 1555.88 1564 Q1558.42 1564 1560.9 1563.33 Q1563.42 1562.63 1565.9 1561.26 L1565.9 1566.68 Q1563.45 1567.82 1560.81 1568.39 Q1558.2 1568.97 1555.24 1568.97 Q1547.19 1568.97 1542.44 1563.91 Q1537.7 1558.85 1537.7 1550.25 Q1537.7 1541.53 1542.48 1536.53 Q1547.28 1531.54 1555.62 1531.54 Q1558.33 1531.54 1560.9 1532.11 Q1563.48 1532.65 1565.9 1533.76 Z" fill="#000000" fill-rule="evenodd" fill-opacity="1" /><path clip-path="url(#clip850)" d="M 0 0 M1577.84 1522.27 L1577.84 1532.4 L1589.9 1532.4 L1589.9 1536.95 L1577.84 1536.95 L1577.84 1556.3 Q1577.84 1560.66 1579.01 1561.9 Q1580.22 1563.14 1583.88 1563.14 L1589.9 1563.14 L1589.9 1568.04 L1583.88 1568.04 Q1577.11 1568.04 1574.53 1565.53 Q1571.95 1562.98 1571.95 1556.3 L1571.95 1536.95 L1567.65 1536.95 L1567.65 1532.4 L1571.95 1532.4 L1571.95 1522.27 L1577.84 1522.27 Z" fill="#000000" fill-rule="evenodd" fill-opacity="1" /><path clip-path="url(#clip850)" d="M 0 0 M1626.53 1548.76 L1626.53 1551.62 L1599.61 1551.62 Q1599.99 1557.67 1603.24 1560.85 Q1606.51 1564 1612.34 1564 Q1615.71 1564 1618.86 1563.17 Q1622.05 1562.35 1625.17 1560.69 L1625.17 1566.23 Q1622.02 1567.57 1618.71 1568.27 Q1615.39 1568.97 1611.99 1568.97 Q1603.46 1568.97 1598.46 1564 Q1593.5 1559.04 1593.5 1550.57 Q1593.5 1541.82 1598.21 1536.69 Q1602.95 1531.54 1610.97 1531.54 Q1618.16 1531.54 1622.33 1536.18 Q1626.53 1540.8 1626.53 1548.76 M1620.68 1547.04 Q1620.61 1542.23 1617.97 1539.37 Q1615.36 1536.5 1611.03 1536.5 Q1606.13 1536.5 1603.17 1539.27 Q1600.24 1542.04 1599.8 1547.07 L1620.68 1547.04 Z" fill="#000000" fill-rule="evenodd" fill-opacity="1" /><path clip-path="url(#clip850)" d="M 0 0 M1656.14 1537.81 L1656.14 1518.52 L1661.99 1518.52 L1661.99 1568.04 L1656.14 1568.04 L1656.14 1562.7 Q1654.29 1565.88 1651.46 1567.44 Q1648.66 1568.97 1644.71 1568.97 Q1638.25 1568.97 1634.17 1563.81 Q1630.13 1558.65 1630.13 1550.25 Q1630.13 1541.85 1634.17 1536.69 Q1638.25 1531.54 1644.71 1531.54 Q1648.66 1531.54 1651.46 1533.1 Q1654.29 1534.62 1656.14 1537.81 M1636.18 1550.25 Q1636.18 1556.71 1638.82 1560.4 Q1641.49 1564.07 1646.14 1564.07 Q1650.79 1564.07 1653.46 1560.4 Q1656.14 1556.71 1656.14 1550.25 Q1656.14 1543.79 1653.46 1540.13 Q1650.79 1536.44 1646.14 1536.44 Q1641.49 1536.44 1638.82 1540.13 Q1636.18 1543.79 1636.18 1550.25 Z" fill="#000000" fill-rule="evenodd" fill-opacity="1" /><path clip-path="url(#clip850)" d="M 0 0 M1667.21 1518.58 L1672.3 1518.58 Q1677.08 1526.09 1679.43 1533.29 Q1681.82 1540.48 1681.82 1547.58 Q1681.82 1554.71 1679.43 1561.93 Q1677.08 1569.16 1672.3 1576.64 L1667.21 1576.64 Q1671.45 1569.35 1673.51 1562.16 Q1675.61 1554.93 1675.61 1547.58 Q1675.61 1540.23 1673.51 1533.06 Q1671.45 1525.9 1667.21 1518.58 Z" fill="#000000" fill-rule="evenodd" fill-opacity="1" /><polyline clip-path="url(#clip852)" style="stroke:#000000; stroke-width:2; stroke-opacity:0.1; fill:none" points="
  199.704,1398.11 2352.76,1398.11 
  "/>
<polyline clip-path="url(#clip852)" style="stroke:#000000; stroke-width:2; stroke-opacity:0.1; fill:none" points="
  199.704,1203.72 2352.76,1203.72 
  "/>
<polyline clip-path="url(#clip852)" style="stroke:#000000; stroke-width:2; stroke-opacity:0.1; fill:none" points="
  199.704,1009.33 2352.76,1009.33 
  "/>
<polyline clip-path="url(#clip852)" style="stroke:#000000; stroke-width:2; stroke-opacity:0.1; fill:none" points="
  199.704,814.935 2352.76,814.935 
  "/>
<polyline clip-path="url(#clip852)" style="stroke:#000000; stroke-width:2; stroke-opacity:0.1; fill:none" points="
  199.704,620.542 2352.76,620.542 
  "/>
<polyline clip-path="url(#clip852)" style="stroke:#000000; stroke-width:2; stroke-opacity:0.1; fill:none" points="
  199.704,426.149 2352.76,426.149 
  "/>
<polyline clip-path="url(#clip852)" style="stroke:#000000; stroke-width:2; stroke-opacity:0.1; fill:none" points="
  199.704,231.756 2352.76,231.756 
  "/>
<polyline clip-path="url(#clip850)" style="stroke:#000000; stroke-width:4; stroke-opacity:1; fill:none" points="
  199.704,1423.18 199.704,47.2441 
  "/>
<polyline clip-path="url(#clip850)" style="stroke:#000000; stroke-width:4; stroke-opacity:1; fill:none" points="
  199.704,1398.11 225.541,1398.11 
  "/>
<polyline clip-path="url(#clip850)" style="stroke:#000000; stroke-width:4; stroke-opacity:1; fill:none" points="
  199.704,1203.72 225.541,1203.72 
  "/>
<polyline clip-path="url(#clip850)" style="stroke:#000000; stroke-width:4; stroke-opacity:1; fill:none" points="
  199.704,1009.33 225.541,1009.33 
  "/>
<polyline clip-path="url(#clip850)" style="stroke:#000000; stroke-width:4; stroke-opacity:1; fill:none" points="
  199.704,814.935 225.541,814.935 
  "/>
<polyline clip-path="url(#clip850)" style="stroke:#000000; stroke-width:4; stroke-opacity:1; fill:none" points="
  199.704,620.542 225.541,620.542 
  "/>
<polyline clip-path="url(#clip850)" style="stroke:#000000; stroke-width:4; stroke-opacity:1; fill:none" points="
  199.704,426.149 225.541,426.149 
  "/>
<polyline clip-path="url(#clip850)" style="stroke:#000000; stroke-width:4; stroke-opacity:1; fill:none" points="
  199.704,231.756 225.541,231.756 
  "/>
<path clip-path="url(#clip850)" d="M 0 0 M116.297 1411.46 L123.936 1411.46 L123.936 1385.09 L115.626 1386.76 L115.626 1382.5 L123.89 1380.83 L128.566 1380.83 L128.566 1411.46 L136.204 1411.46 L136.204 1415.39 L116.297 1415.39 L116.297 1411.46 Z" fill="#000000" fill-rule="evenodd" fill-opacity="1" /><path clip-path="url(#clip850)" d="M 0 0 M154.121 1384.91 L142.316 1403.36 L154.121 1403.36 L154.121 1384.91 M152.894 1380.83 L158.774 1380.83 L158.774 1403.36 L163.704 1403.36 L163.704 1407.25 L158.774 1407.25 L158.774 1415.39 L154.121 1415.39 L154.121 1407.25 L138.519 1407.25 L138.519 1402.73 L152.894 1380.83 Z" fill="#000000" fill-rule="evenodd" fill-opacity="1" /><path clip-path="url(#clip850)" d="M 0 0 M116.621 1217.07 L124.26 1217.07 L124.26 1190.7 L115.95 1192.37 L115.95 1188.11 L124.214 1186.44 L128.89 1186.44 L128.89 1217.07 L136.529 1217.07 L136.529 1221 L116.621 1221 L116.621 1217.07 Z" fill="#000000" fill-rule="evenodd" fill-opacity="1" /><path clip-path="url(#clip850)" d="M 0 0 M152.177 1201.86 Q149.028 1201.86 147.177 1204.01 Q145.348 1206.16 145.348 1209.91 Q145.348 1213.64 147.177 1215.82 Q149.028 1217.97 152.177 1217.97 Q155.325 1217.97 157.153 1215.82 Q159.005 1213.64 159.005 1209.91 Q159.005 1206.16 157.153 1204.01 Q155.325 1201.86 152.177 1201.86 M161.459 1187.21 L161.459 1191.46 Q159.7 1190.63 157.894 1190.19 Q156.112 1189.75 154.353 1189.75 Q149.723 1189.75 147.269 1192.88 Q144.839 1196 144.491 1202.32 Q145.857 1200.31 147.917 1199.24 Q149.978 1198.15 152.454 1198.15 Q157.663 1198.15 160.672 1201.33 Q163.704 1204.47 163.704 1209.91 Q163.704 1215.24 160.556 1218.46 Q157.408 1221.67 152.177 1221.67 Q146.181 1221.67 143.01 1217.09 Q139.839 1212.48 139.839 1203.76 Q139.839 1195.56 143.728 1190.7 Q147.616 1185.82 154.167 1185.82 Q155.927 1185.82 157.709 1186.16 Q159.515 1186.51 161.459 1187.21 Z" fill="#000000" fill-rule="evenodd" fill-opacity="1" /><path clip-path="url(#clip850)" d="M 0 0 M116.876 1022.67 L124.515 1022.67 L124.515 996.308 L116.205 997.974 L116.205 993.715 L124.468 992.048 L129.144 992.048 L129.144 1022.67 L136.783 1022.67 L136.783 1026.61 L116.876 1026.61 L116.876 1022.67 Z" fill="#000000" fill-rule="evenodd" fill-opacity="1" /><path clip-path="url(#clip850)" d="M 0 0 M151.853 1010.2 Q148.519 1010.2 146.598 1011.98 Q144.7 1013.76 144.7 1016.89 Q144.7 1020.01 146.598 1021.79 Q148.519 1023.58 151.853 1023.58 Q155.186 1023.58 157.107 1021.79 Q159.028 1019.99 159.028 1016.89 Q159.028 1013.76 157.107 1011.98 Q155.209 1010.2 151.853 1010.2 M147.177 1008.21 Q144.167 1007.47 142.478 1005.4 Q140.811 1003.34 140.811 1000.38 Q140.811 996.238 143.751 993.831 Q146.714 991.423 151.853 991.423 Q157.015 991.423 159.954 993.831 Q162.894 996.238 162.894 1000.38 Q162.894 1003.34 161.204 1005.4 Q159.538 1007.47 156.552 1008.21 Q159.931 1008.99 161.806 1011.28 Q163.704 1013.58 163.704 1016.89 Q163.704 1021.91 160.626 1024.59 Q157.57 1027.28 151.853 1027.28 Q146.135 1027.28 143.056 1024.59 Q140.001 1021.91 140.001 1016.89 Q140.001 1013.58 141.899 1011.28 Q143.797 1008.99 147.177 1008.21 M145.464 1000.82 Q145.464 1003.51 147.13 1005.01 Q148.82 1006.52 151.853 1006.52 Q154.862 1006.52 156.552 1005.01 Q158.265 1003.51 158.265 1000.82 Q158.265 998.136 156.552 996.632 Q154.862 995.127 151.853 995.127 Q148.82 995.127 147.13 996.632 Q145.464 998.136 145.464 1000.82 Z" fill="#000000" fill-rule="evenodd" fill-opacity="1" /><path clip-path="url(#clip850)" d="M 0 0 M120.371 828.28 L136.691 828.28 L136.691 832.215 L114.746 832.215 L114.746 828.28 Q117.408 825.526 121.992 820.896 Q126.598 816.243 127.779 814.901 Q130.024 812.378 130.904 810.641 Q131.806 808.882 131.806 807.192 Q131.806 804.438 129.862 802.702 Q127.941 800.966 124.839 800.966 Q122.64 800.966 120.186 801.729 Q117.756 802.493 114.978 804.044 L114.978 799.322 Q117.802 798.188 120.255 797.609 Q122.709 797.03 124.746 797.03 Q130.117 797.03 133.311 799.716 Q136.505 802.401 136.505 806.891 Q136.505 809.021 135.695 810.942 Q134.908 812.841 132.802 815.433 Q132.223 816.104 129.121 819.322 Q126.019 822.516 120.371 828.28 Z" fill="#000000" fill-rule="evenodd" fill-opacity="1" /><path clip-path="url(#clip850)" d="M 0 0 M151.76 800.734 Q148.149 800.734 146.32 804.299 Q144.515 807.841 144.515 814.97 Q144.515 822.077 146.32 825.641 Q148.149 829.183 151.76 829.183 Q155.394 829.183 157.2 825.641 Q159.028 822.077 159.028 814.97 Q159.028 807.841 157.2 804.299 Q155.394 800.734 151.76 800.734 M151.76 797.03 Q157.57 797.03 160.626 801.637 Q163.704 806.22 163.704 814.97 Q163.704 823.697 160.626 828.303 Q157.57 832.887 151.76 832.887 Q145.95 832.887 142.871 828.303 Q139.816 823.697 139.816 814.97 Q139.816 806.22 142.871 801.637 Q145.95 797.03 151.76 797.03 Z" fill="#000000" fill-rule="evenodd" fill-opacity="1" /><path clip-path="url(#clip850)" d="M 0 0 M121.968 633.887 L138.288 633.887 L138.288 637.822 L116.343 637.822 L116.343 633.887 Q119.006 631.133 123.589 626.503 Q128.195 621.85 129.376 620.508 Q131.621 617.985 132.501 616.248 Q133.404 614.489 133.404 612.799 Q133.404 610.045 131.459 608.309 Q129.538 606.573 126.436 606.573 Q124.237 606.573 121.783 607.336 Q119.353 608.1 116.575 609.651 L116.575 604.929 Q119.399 603.795 121.853 603.216 Q124.306 602.637 126.343 602.637 Q131.714 602.637 134.908 605.323 Q138.103 608.008 138.103 612.498 Q138.103 614.628 137.292 616.549 Q136.505 618.448 134.399 621.04 Q133.82 621.711 130.718 624.929 Q127.617 628.123 121.968 633.887 Z" fill="#000000" fill-rule="evenodd" fill-opacity="1" /><path clip-path="url(#clip850)" d="M 0 0 M147.385 633.887 L163.704 633.887 L163.704 637.822 L141.76 637.822 L141.76 633.887 Q144.422 631.133 149.005 626.503 Q153.612 621.85 154.792 620.508 Q157.038 617.985 157.917 616.248 Q158.82 614.489 158.82 612.799 Q158.82 610.045 156.876 608.309 Q154.954 606.573 151.853 606.573 Q149.653 606.573 147.2 607.336 Q144.769 608.1 141.991 609.651 L141.991 604.929 Q144.816 603.795 147.269 603.216 Q149.723 602.637 151.76 602.637 Q157.13 602.637 160.325 605.323 Q163.519 608.008 163.519 612.498 Q163.519 614.628 162.709 616.549 Q161.922 618.448 159.815 621.04 Q159.237 621.711 156.135 624.929 Q153.033 628.123 147.385 633.887 Z" fill="#000000" fill-rule="evenodd" fill-opacity="1" /><path clip-path="url(#clip850)" d="M 0 0 M119.885 439.494 L136.204 439.494 L136.204 443.429 L114.26 443.429 L114.26 439.494 Q116.922 436.74 121.505 432.11 Q126.112 427.457 127.292 426.115 Q129.538 423.592 130.417 421.855 Q131.32 420.096 131.32 418.406 Q131.32 415.652 129.376 413.916 Q127.455 412.18 124.353 412.18 Q122.154 412.18 119.7 412.943 Q117.269 413.707 114.492 415.258 L114.492 410.536 Q117.316 409.402 119.769 408.823 Q122.223 408.244 124.26 408.244 Q129.63 408.244 132.825 410.93 Q136.019 413.615 136.019 418.105 Q136.019 420.235 135.209 422.156 Q134.422 424.055 132.316 426.647 Q131.737 427.318 128.635 430.536 Q125.533 433.73 119.885 439.494 Z" fill="#000000" fill-rule="evenodd" fill-opacity="1" /><path clip-path="url(#clip850)" d="M 0 0 M154.121 412.943 L142.316 431.392 L154.121 431.392 L154.121 412.943 M152.894 408.869 L158.774 408.869 L158.774 431.392 L163.704 431.392 L163.704 435.281 L158.774 435.281 L158.774 443.429 L154.121 443.429 L154.121 435.281 L138.519 435.281 L138.519 430.767 L152.894 408.869 Z" fill="#000000" fill-rule="evenodd" fill-opacity="1" /><path clip-path="url(#clip850)" d="M 0 0 M120.209 245.101 L136.529 245.101 L136.529 249.036 L114.584 249.036 L114.584 245.101 Q117.246 242.347 121.83 237.717 Q126.436 233.064 127.617 231.722 Q129.862 229.199 130.742 227.462 Q131.644 225.703 131.644 224.013 Q131.644 221.259 129.7 219.523 Q127.779 217.787 124.677 217.787 Q122.478 217.787 120.024 218.55 Q117.593 219.314 114.816 220.865 L114.816 216.143 Q117.64 215.009 120.093 214.43 Q122.547 213.851 124.584 213.851 Q129.955 213.851 133.149 216.537 Q136.343 219.222 136.343 223.712 Q136.343 225.842 135.533 227.763 Q134.746 229.662 132.64 232.254 Q132.061 232.925 128.959 236.143 Q125.857 239.337 120.209 245.101 Z" fill="#000000" fill-rule="evenodd" fill-opacity="1" /><path clip-path="url(#clip850)" d="M 0 0 M152.177 229.893 Q149.028 229.893 147.177 232.046 Q145.348 234.199 145.348 237.949 Q145.348 241.675 147.177 243.851 Q149.028 246.004 152.177 246.004 Q155.325 246.004 157.153 243.851 Q159.005 241.675 159.005 237.949 Q159.005 234.199 157.153 232.046 Q155.325 229.893 152.177 229.893 M161.459 215.24 L161.459 219.5 Q159.7 218.666 157.894 218.226 Q156.112 217.787 154.353 217.787 Q149.723 217.787 147.269 220.912 Q144.839 224.037 144.491 230.356 Q145.857 228.342 147.917 227.277 Q149.978 226.189 152.454 226.189 Q157.663 226.189 160.672 229.361 Q163.704 232.509 163.704 237.949 Q163.704 243.273 160.556 246.49 Q157.408 249.708 152.177 249.708 Q146.181 249.708 143.01 245.124 Q139.839 240.518 139.839 231.791 Q139.839 223.597 143.728 218.736 Q147.616 213.851 154.167 213.851 Q155.927 213.851 157.709 214.199 Q159.515 214.546 161.459 215.24 Z" fill="#000000" fill-rule="evenodd" fill-opacity="1" /><path clip-path="url(#clip850)" d="M 0 0 M14.479 866.346 L14.479 860.489 L64.0042 860.489 L64.0042 866.346 L14.479 866.346 Z" fill="#000000" fill-rule="evenodd" fill-opacity="1" /><path clip-path="url(#clip850)" d="M 0 0 M32.4621 840.533 Q32.4621 845.243 36.1542 847.98 Q39.8145 850.718 46.212 850.718 Q52.6095 850.718 56.3017 848.012 Q59.9619 845.275 59.9619 840.533 Q59.9619 835.854 56.2698 833.117 Q52.5777 830.379 46.212 830.379 Q39.8781 830.379 36.186 833.117 Q32.4621 835.854 32.4621 840.533 M27.4968 840.533 Q27.4968 832.894 32.4621 828.533 Q37.4273 824.173 46.212 824.173 Q54.9649 824.173 59.9619 828.533 Q64.9272 832.894 64.9272 840.533 Q64.9272 848.203 59.9619 852.564 Q54.9649 856.892 46.212 856.892 Q37.4273 856.892 32.4621 852.564 Q27.4968 848.203 27.4968 840.533 Z" fill="#000000" fill-rule="evenodd" fill-opacity="1" /><path clip-path="url(#clip850)" d="M 0 0 M45.7664 794.572 Q39.4007 794.572 35.8996 797.214 Q32.3984 799.824 32.3984 804.566 Q32.3984 809.277 35.8996 811.919 Q39.4007 814.529 45.7664 814.529 Q52.1003 814.529 55.6014 811.919 Q59.1026 809.277 59.1026 804.566 Q59.1026 799.824 55.6014 797.214 Q52.1003 794.572 45.7664 794.572 M59.58 788.716 Q68.683 788.716 73.1071 792.758 Q77.5631 796.8 77.5631 805.139 Q77.5631 808.227 77.0857 810.964 Q76.6401 813.701 75.6852 816.279 L69.9879 816.279 Q71.3884 813.701 72.0568 811.187 Q72.7252 808.672 72.7252 806.062 Q72.7252 800.301 69.7015 797.437 Q66.7096 794.572 60.6303 794.572 L57.7339 794.572 Q60.885 796.386 62.4446 799.219 Q64.0042 802.052 64.0042 805.999 Q64.0042 812.555 59.0071 816.566 Q54.01 820.576 45.7664 820.576 Q37.491 820.576 32.4939 816.566 Q27.4968 812.555 27.4968 805.999 Q27.4968 802.052 29.0564 799.219 Q30.616 796.386 33.7671 794.572 L28.3562 794.572 L28.3562 788.716 L59.58 788.716 Z" fill="#000000" fill-rule="evenodd" fill-opacity="1" /><path clip-path="url(#clip850)" d="M 0 0 M14.5426 768.505 Q21.8632 772.77 29.0246 774.838 Q36.186 776.907 43.5384 776.907 Q50.8908 776.907 58.1159 774.838 Q65.3091 772.738 72.5979 768.505 L72.5979 773.597 Q65.1182 778.371 57.8931 780.759 Q50.668 783.114 43.5384 783.114 Q36.4406 783.114 29.2474 780.759 Q22.0542 778.403 14.5426 773.597 L14.5426 768.505 Z" fill="#000000" fill-rule="evenodd" fill-opacity="1" /><path clip-path="url(#clip850)" d="M 0 0 M16.4842 768.696 L16.4842 728.496 L21.895 728.496 L21.895 745.365 L64.0042 745.365 L64.0042 751.826 L21.895 751.826 L21.895 768.696 L16.4842 768.696 Z" fill="#000000" fill-rule="evenodd" fill-opacity="1" /><path clip-path="url(#clip850)" d="M 0 0 M28.3562 724.358 L28.3562 718.502 L64.0042 718.502 L64.0042 724.358 L28.3562 724.358 M14.479 724.358 L14.479 718.502 L21.895 718.502 L21.895 724.358 L14.479 724.358 Z" fill="#000000" fill-rule="evenodd" fill-opacity="1" /><path clip-path="url(#clip850)" d="M 0 0 M35.1993 684.605 Q31.2526 682.408 29.3747 679.353 Q27.4968 676.297 27.4968 672.16 Q27.4968 666.59 31.4117 663.566 Q35.2948 660.542 42.4881 660.542 L64.0042 660.542 L64.0042 666.431 L42.679 666.431 Q37.5546 666.431 35.072 668.245 Q32.5894 670.059 32.5894 673.783 Q32.5894 678.334 35.6131 680.976 Q38.6368 683.618 43.8567 683.618 L64.0042 683.618 L64.0042 689.506 L42.679 689.506 Q37.5228 689.506 35.072 691.32 Q32.5894 693.135 32.5894 696.922 Q32.5894 701.41 35.6449 704.052 Q38.6686 706.694 43.8567 706.694 L64.0042 706.694 L64.0042 712.582 L28.3562 712.582 L28.3562 706.694 L33.8944 706.694 Q30.616 704.688 29.0564 701.887 Q27.4968 699.087 27.4968 695.235 Q27.4968 691.352 29.4702 688.647 Q31.4436 685.91 35.1993 684.605 Z" fill="#000000" fill-rule="evenodd" fill-opacity="1" /><path clip-path="url(#clip850)" d="M 0 0 M44.7161 623.908 L47.5806 623.908 L47.5806 650.835 Q53.6281 650.453 56.8109 647.206 Q59.9619 643.928 59.9619 638.103 Q59.9619 634.729 59.1344 631.578 Q58.3069 628.395 56.6518 625.276 L62.1899 625.276 Q63.5267 628.427 64.227 631.737 Q64.9272 635.048 64.9272 638.453 Q64.9272 646.983 59.9619 651.98 Q54.9967 656.946 46.5303 656.946 Q37.7774 656.946 32.6531 652.235 Q27.4968 647.493 27.4968 639.472 Q27.4968 632.278 32.1438 628.109 Q36.7589 623.908 44.7161 623.908 M42.9973 629.764 Q38.1912 629.828 35.3266 632.469 Q32.4621 635.079 32.4621 639.408 Q32.4621 644.31 35.2312 647.27 Q38.0002 650.198 43.0292 650.644 L42.9973 629.764 Z" fill="#000000" fill-rule="evenodd" fill-opacity="1" /><path clip-path="url(#clip850)" d="M 0 0 M14.5426 618.688 L14.5426 613.595 Q22.0542 608.821 29.2474 606.466 Q36.4406 604.078 43.5384 604.078 Q50.668 604.078 57.8931 606.466 Q65.1182 608.821 72.5979 613.595 L72.5979 618.688 Q65.3091 614.455 58.1159 612.386 Q50.8908 610.285 43.5384 610.285 Q36.186 610.285 29.0246 612.386 Q21.8632 614.455 14.5426 618.688 Z" fill="#000000" fill-rule="evenodd" fill-opacity="1" /><polyline clip-path="url(#clip852)" style="stroke:#009af9; stroke-width:4; stroke-opacity:1; fill:none" points="
  260.64,1378.2 599.17,1384.24 937.7,1380.71 1276.23,1370.15 1614.76,1341.15 1953.29,1174.59 2291.82,993.002 
  "/>
<polyline clip-path="url(#clip852)" style="stroke:#e26f46; stroke-width:4; stroke-opacity:1; fill:none" points="
  260.64,1233.48 599.17,1134.61 937.7,893.957 1276.23,737.282 1614.76,509.091 1953.29,274.532 2291.82,86.1857 
  "/>
<path clip-path="url(#clip850)" d="
M271.473 274.549 L627.598 274.549 L627.598 93.1086 L271.473 93.1086  Z
  " fill="#ffffff" fill-rule="evenodd" fill-opacity="1"/>
<polyline clip-path="url(#clip850)" style="stroke:#000000; stroke-width:4; stroke-opacity:1; fill:none" points="
  271.473,274.549 627.598,274.549 627.598,93.1086 271.473,93.1086 271.473,274.549 
  "/>
<polyline clip-path="url(#clip850)" style="stroke:#009af9; stroke-width:4; stroke-opacity:1; fill:none" points="
  295.396,153.589 438.932,153.589 
  "/>
<path clip-path="url(#clip850)" d="M 0 0 M478.874 139.48 Q473.781 139.48 470.772 143.276 Q467.786 147.072 467.786 153.623 Q467.786 160.151 470.772 163.947 Q473.781 167.744 478.874 167.744 Q483.966 167.744 486.929 163.947 Q489.915 160.151 489.915 153.623 Q489.915 147.072 486.929 143.276 Q483.966 139.48 478.874 139.48 M485.424 170.244 L491.582 176.98 L485.934 176.98 L480.818 171.447 Q480.054 171.494 479.637 171.517 Q479.244 171.54 478.874 171.54 Q471.582 171.54 467.207 166.679 Q462.855 161.795 462.855 153.623 Q462.855 145.429 467.207 140.568 Q471.582 135.684 478.874 135.684 Q486.142 135.684 490.494 140.568 Q494.846 145.429 494.846 153.623 Q494.846 159.642 492.415 163.924 Q490.008 168.207 485.424 170.244 Z" fill="#000000" fill-rule="evenodd" fill-opacity="1" /><path clip-path="url(#clip850)" d="M 0 0 M498.873 160.637 L498.873 144.943 L503.133 144.943 L503.133 160.475 Q503.133 164.156 504.568 166.008 Q506.003 167.836 508.873 167.836 Q512.322 167.836 514.313 165.637 Q516.327 163.438 516.327 159.642 L516.327 144.943 L520.586 144.943 L520.586 170.869 L516.327 170.869 L516.327 166.887 Q514.776 169.248 512.716 170.406 Q510.679 171.54 507.971 171.54 Q503.503 171.54 501.188 168.762 Q498.873 165.984 498.873 160.637 M509.591 144.318 L509.591 144.318 Z" fill="#000000" fill-rule="evenodd" fill-opacity="1" /><path clip-path="url(#clip850)" d="M 0 0 M525.054 144.943 L529.313 144.943 L529.313 170.869 L525.054 170.869 L525.054 144.943 M525.054 134.85 L529.313 134.85 L529.313 140.244 L525.054 140.244 L525.054 134.85 Z" fill="#000000" fill-rule="evenodd" fill-opacity="1" /><path clip-path="url(#clip850)" d="M 0 0 M552.438 145.938 L552.438 149.92 Q550.632 148.924 548.804 148.438 Q546.998 147.929 545.146 147.929 Q541.003 147.929 538.711 150.568 Q536.42 153.184 536.42 157.929 Q536.42 162.674 538.711 165.313 Q541.003 167.929 545.146 167.929 Q546.998 167.929 548.804 167.443 Q550.632 166.933 552.438 165.938 L552.438 169.873 Q550.656 170.707 548.734 171.123 Q546.836 171.54 544.683 171.54 Q538.827 171.54 535.378 167.859 Q531.929 164.179 531.929 157.929 Q531.929 151.586 535.401 147.952 Q538.896 144.318 544.961 144.318 Q546.929 144.318 548.804 144.735 Q550.679 145.128 552.438 145.938 Z" fill="#000000" fill-rule="evenodd" fill-opacity="1" /><path clip-path="url(#clip850)" d="M 0 0 M556.743 134.85 L561.026 134.85 L561.026 156.123 L573.734 144.943 L579.174 144.943 L565.424 157.072 L579.753 170.869 L574.197 170.869 L561.026 158.207 L561.026 170.869 L556.743 170.869 L556.743 134.85 Z" fill="#000000" fill-rule="evenodd" fill-opacity="1" /><polyline clip-path="url(#clip850)" style="stroke:#e26f46; stroke-width:4; stroke-opacity:1; fill:none" points="
  295.396,214.069 438.932,214.069 
  "/>
<path clip-path="url(#clip850)" d="M 0 0 M485.1 197.923 L485.1 202.483 Q482.438 201.21 480.077 200.585 Q477.716 199.96 475.517 199.96 Q471.698 199.96 469.614 201.441 Q467.554 202.923 467.554 205.654 Q467.554 207.946 468.92 209.127 Q470.309 210.284 474.151 211.002 L476.975 211.58 Q482.207 212.576 484.684 215.099 Q487.184 217.599 487.184 221.812 Q487.184 226.835 483.804 229.427 Q480.448 232.02 473.943 232.02 Q471.489 232.02 468.712 231.464 Q465.957 230.909 462.994 229.821 L462.994 225.006 Q465.841 226.603 468.573 227.413 Q471.304 228.224 473.943 228.224 Q477.948 228.224 480.124 226.65 Q482.299 225.076 482.299 222.159 Q482.299 219.613 480.725 218.177 Q479.174 216.742 475.61 216.025 L472.762 215.469 Q467.531 214.427 465.193 212.205 Q462.855 209.983 462.855 206.025 Q462.855 201.441 466.073 198.802 Q469.313 196.164 474.985 196.164 Q477.415 196.164 479.938 196.603 Q482.461 197.043 485.1 197.923 Z" fill="#000000" fill-rule="evenodd" fill-opacity="1" /><path clip-path="url(#clip850)" d="M 0 0 M491.651 195.33 L495.91 195.33 L495.91 231.349 L491.651 231.349 L491.651 195.33 Z" fill="#000000" fill-rule="evenodd" fill-opacity="1" /><path clip-path="url(#clip850)" d="M 0 0 M510.424 208.409 Q506.998 208.409 505.008 211.094 Q503.017 213.756 503.017 218.409 Q503.017 223.062 504.984 225.747 Q506.975 228.409 510.424 228.409 Q513.827 228.409 515.818 225.724 Q517.808 223.038 517.808 218.409 Q517.808 213.802 515.818 211.117 Q513.827 208.409 510.424 208.409 M510.424 204.798 Q515.98 204.798 519.151 208.409 Q522.322 212.02 522.322 218.409 Q522.322 224.775 519.151 228.409 Q515.98 232.02 510.424 232.02 Q504.846 232.02 501.674 228.409 Q498.526 224.775 498.526 218.409 Q498.526 212.02 501.674 208.409 Q504.846 204.798 510.424 204.798 Z" fill="#000000" fill-rule="evenodd" fill-opacity="1" /><path clip-path="url(#clip850)" d="M 0 0 M524.313 205.423 L528.572 205.423 L533.896 225.654 L539.197 205.423 L544.22 205.423 L549.544 225.654 L554.845 205.423 L559.105 205.423 L552.322 231.349 L547.299 231.349 L541.72 210.099 L536.119 231.349 L531.095 231.349 L524.313 205.423 Z" fill="#000000" fill-rule="evenodd" fill-opacity="1" /></svg>
