<?xml version="1.0" encoding="UTF-8"?>
<svg xmlns="http://www.w3.org/2000/svg"
     xmlns:xlink="http://www.w3.org/1999/xlink"
     xmlns:gadfly="http://www.gadflyjl.org/ns"
     version="1.2"
     width="127mm" height="76.2mm" viewBox="0 0 127 76.2"
     stroke="none"
     fill="#000000"
     stroke-width="0.3"
     font-size="3.88"
>
<g class="plotroot xscalable yscalable" id="img-47b78173-1">
  <g class="guide xlabels" font-size="2.82" font-family="'PT Sans Caption','Helvetica Neue','Helvetica',sans-serif" fill="#6C606B" id="img-47b78173-2">
    <text x="13.02" y="67.53" text-anchor="middle" dy="0.6em">0</text>
    <text x="29.84" y="67.53" text-anchor="middle" dy="0.6em">1</text>
    <text x="46.66" y="67.53" text-anchor="middle" dy="0.6em">2</text>
    <text x="63.49" y="67.53" text-anchor="middle" dy="0.6em">3</text>
    <text x="80.31" y="67.53" text-anchor="middle" dy="0.6em">4</text>
    <text x="97.13" y="67.53" text-anchor="middle" dy="0.6em">5</text>
  </g>
  <g class="guide colorkey" id="img-47b78173-3">
    <g fill="#4C404B" font-size="2.82" font-family="'PT Sans','Helvetica Neue','Helvetica',sans-serif" id="img-47b78173-4">
      <text x="102.94" y="33.95" dy="0.35em">10</text>
      <text x="102.94" y="37.58" dy="0.35em">1000</text>
      <text x="102.94" y="41.2" dy="0.35em">pdf</text>
    </g>
    <g stroke="#000000" stroke-opacity="0.000" id="img-47b78173-5">
      <rect x="100.13" y="33.04" width="1.81" height="1.81" fill="#FF0000"/>
      <rect x="100.13" y="36.67" width="1.81" height="1.81" fill="#008000"/>
      <rect x="100.13" y="40.3" width="1.81" height="1.81" fill="#ADD8E6"/>
    </g>
    <g fill="#362A35" font-size="3.88" font-family="'PT Sans','Helvetica Neue','Helvetica',sans-serif" stroke="#000000" stroke-opacity="0.000" id="img-47b78173-6">
      <text x="100.13" y="30.13">Num Samples</text>
    </g>
  </g>
<g clip-path="url(#img-47b78173-7)">
  <g id="img-47b78173-8">
    <g pointer-events="visible" opacity="1" fill="#000000" fill-opacity="0.000" stroke="#000000" stroke-opacity="0.000" class="guide background" id="img-47b78173-9">
      <rect x="11.02" y="5" width="88.11" height="61.53"/>
    </g>
    <g class="guide ygridlines xfixed" stroke-dasharray="0.5,0.5" stroke-width="0" stroke="#D0D0E0" id="img-47b78173-10">
      <path fill="none" d="M11.02,64.53 L 99.13 64.53"/>
      <path fill="none" d="M11.02,35.76 L 99.13 35.76"/>
      <path fill="none" d="M11.02,7 L 99.13 7"/>
    </g>
    <g class="guide xgridlines yfixed" stroke-dasharray="0.5,0.5" stroke-width="0" stroke="#D0D0E0" id="img-47b78173-11">
      <path fill="none" d="M13.02,5 L 13.02 66.53"/>
      <path fill="none" d="M29.84,5 L 29.84 66.53"/>
      <path fill="none" d="M46.66,5 L 46.66 66.53"/>
      <path fill="none" d="M63.49,5 L 63.49 66.53"/>
      <path fill="none" d="M80.31,5 L 80.31 66.53"/>
      <path fill="none" d="M97.13,5 L 97.13 66.53"/>
    </g>
    <g class="plotpanel" id="img-47b78173-12">
      <g stroke-width="0.3" fill="#000000" fill-opacity="0.000" class="geometry" stroke-dasharray="none" stroke="#008000" id="img-47b78173-13">
        <path fill="none" d="M1.68,64.52 L 2.16 64.52 2.63 64.52 3.1 64.51 3.58 64.5 4.05 64.48 4.52 64.45 5 64.4 5.47 64.31 5.95 64.18 6.42 63.98 6.89 63.68 7.37 63.27 7.84 62.69 8.31 61.91 8.79 60.89 9.26 59.59 9.73 57.98 10.21 56.04 10.68 53.78 11.16 51.22 11.63 48.39 12.1 45.37 12.58 42.24 13.05 39.09 13.52 36.03 14 33.15 14.47 30.55 14.94 28.27 15.42 26.37 15.89 24.87 16.37 23.76 16.84 23.01 17.31 22.59 17.79 22.45 18.26 22.56 18.73 22.87 19.21 23.34 19.68 23.95 20.15 24.67 20.63 25.49 21.1 26.38 21.57 27.33 22.05 28.32 22.52 29.33 23 30.35 23.47 31.36 23.94 32.36 24.42 33.35 24.89 34.31 25.36 35.25 25.84 36.16 26.31 37.06 26.78 37.92 27.26 38.76 27.73 39.55 28.21 40.3 28.68 40.99 29.15 41.64 29.63 42.24 30.1 42.8 30.57 43.35 31.05 43.89 31.52 44.44 31.99 45.03 32.47 45.65 32.94 46.32 33.42 47.03 33.89 47.78 34.36 48.56 34.84 49.33 35.31 50.1 35.78 50.83 36.26 51.52 36.73 52.15 37.2 52.72 37.68 53.21 38.15 53.64 38.62 54 39.1 54.29 39.57 54.53 40.05 54.73 40.52 54.89 40.99 55.01 41.47 55.12 41.94 55.2 42.41 55.29 42.89 55.37 43.36 55.47 43.83 55.58 44.31 55.7 44.78 55.85 45.26 56.03 45.73 56.22 46.2 56.43 46.68 56.66 47.15 56.89 47.62 57.12 48.1 57.34 48.57 57.56 49.04 57.76 49.52 57.95 49.99 58.12 50.47 58.29 50.94 58.44 51.41 58.6 51.89 58.75 52.36 58.91 52.83 59.07 53.31 59.25 53.78 59.43 54.25 59.61 54.73 59.81 55.2 60.01 55.67 60.2 56.15 60.39 56.62 60.57 57.1 60.74 57.57 60.89 58.04 61.03 58.52 61.15 58.99 61.26 59.46 61.35 59.94 61.43 60.41 61.5 60.88 61.57 61.36 61.64 61.83 61.71 62.31 61.78 62.78 61.86 63.25 61.94 63.73 62.02 64.2 62.09 64.67 62.15 65.15 62.2 65.62 62.23 66.09 62.24 66.57 62.23 67.04 62.2 67.52 62.16 67.99 62.12 68.46 62.07 68.94 62.03 69.41 61.99 69.88 61.97 70.36 61.97 70.83 61.99 71.3 62.03 71.78 62.08 72.25 62.14 72.73 62.22 73.2 62.3 73.67 62.38 74.15 62.45 74.62 62.52 75.09 62.59 75.57 62.64 76.04 62.7 76.51 62.75 76.99 62.8 77.46 62.85 77.93 62.9 78.41 62.97 78.88 63.04 79.36 63.11 79.83 63.2 80.3 63.28 80.78 63.37 81.25 63.46 81.72 63.54 82.2 63.62 82.67 63.7 83.14 63.77 83.62 63.84 84.09 63.9 84.57 63.95 85.04 64 85.51 64.05 85.99 64.09 86.46 64.13 86.93 64.16 87.41 64.19 87.88 64.22 88.35 64.25 88.83 64.27 89.3 64.29 89.78 64.3 90.25 64.32 90.72 64.33 91.2 64.33 91.67 64.34 92.14 64.34 92.62 64.34 93.09 64.35 93.56 64.35 94.04 64.35 94.51 64.35 94.98 64.36 95.46 64.36 95.93 64.36 96.41 64.36 96.88 64.36 97.35 64.36 97.83 64.36 98.3 64.37 98.77 64.37 99.25 64.38 99.72 64.39 100.19 64.4 100.67 64.41 101.14 64.42 101.62 64.43 102.09 64.44 102.56 64.45 103.04 64.45 103.51 64.45 103.98 64.44 104.46 64.43 104.93 64.42 105.4 64.4 105.88 64.38 106.35 64.36 106.83 64.34 107.3 64.32 107.77 64.3 108.25 64.29 108.72 64.28 109.19 64.28 109.67 64.28 110.14 64.29 110.61 64.3 111.09 64.32 111.56 64.34 112.03 64.36 112.51 64.38 112.98 64.4 113.46 64.43 113.93 64.45 114.4 64.46 114.88 64.48 115.35 64.49 115.82 64.5 116.3 64.5 116.77 64.51 117.24 64.51 117.72 64.51 118.19 64.51 118.67 64.5 119.14 64.5 119.61 64.49 120.09 64.48 120.56 64.47 121.03 64.45 121.51 64.44 121.98 64.43 122.45 64.41 122.93 64.4 123.4 64.4 123.88 64.39 124.35 64.39 124.82 64.39 125.3 64.39 125.77 64.4 126.24 64.4 126.72 64.41 127.19 64.41 127.66 64.42 128.14 64.42 128.61 64.42 129.08 64.41 129.56 64.41 130.03 64.4 130.51 64.39 130.98 64.39 131.45 64.39 131.93 64.39 132.4 64.39 132.87 64.4 133.35 64.41 133.82 64.42 134.29 64.43 134.77 64.44 135.24 64.46 135.72 64.47 136.19 64.48 136.66 64.49 137.14 64.5 137.61 64.51 138.08 64.51 138.56 64.52 139.03 64.52 139.5 64.52 139.98 64.52 140.45 64.53 140.93 64.53 141.4 64.53 141.87 64.53 142.35 64.53 142.82 64.53 143.29 64.53"/>
      </g>
      <g stroke-width="0.3" fill="#000000" fill-opacity="0.000" class="geometry" stroke-dasharray="none" stroke="#FF0000" id="img-47b78173-14">
        <path fill="none" d="M-3.35,64.52 L -3.12 64.52 -2.89 64.52 -2.66 64.52 -2.43 64.52 -2.2 64.52 -1.97 64.52 -1.74 64.51 -1.51 64.51 -1.28 64.51 -1.05 64.51 -0.82 64.5 -0.59 64.5 -0.36 64.49 -0.14 64.49 0.09 64.48 0.32 64.47 0.55 64.47 0.78 64.46 1.01 64.44 1.24 64.43 1.47 64.42 1.7 64.4 1.93 64.38 2.16 64.36 2.39 64.33 2.62 64.3 2.85 64.27 3.08 64.23 3.31 64.19 3.54 64.15 3.77 64.1 4 64.04 4.23 63.98 4.46 63.91 4.68 63.83 4.91 63.74 5.14 63.65 5.37 63.54 5.6 63.43 5.83 63.3 6.06 63.16 6.29 63.01 6.52 62.85 6.75 62.67 6.98 62.48 7.21 62.27 7.44 62.04 7.67 61.8 7.9 61.54 8.13 61.26 8.36 60.96 8.59 60.64 8.82 60.3 9.05 59.94 9.28 59.56 9.51 59.15 9.73 58.72 9.96 58.27 10.19 57.8 10.42 57.31 10.65 56.79 10.88 56.25 11.11 55.68 11.34 55.1 11.57 54.49 11.8 53.86 12.03 53.21 12.26 52.55 12.49 51.86 12.72 51.16 12.95 50.44 13.18 49.71 13.41 48.96 13.64 48.21 13.87 47.44 14.1 46.67 14.33 45.89 14.56 45.1 14.78 44.32 15.01 43.53 15.24 42.74 15.47 41.96 15.7 41.19 15.93 40.42 16.16 39.66 16.39 38.92 16.62 38.18 16.85 37.47 17.08 36.77 17.31 36.09 17.54 35.43 17.77 34.79 18 34.18 18.23 33.59 18.46 33.03 18.69 32.5 18.92 31.99 19.15 31.51 19.38 31.07 19.6 30.65 19.83 30.26 20.06 29.91 20.29 29.58 20.52 29.29 20.75 29.02 20.98 28.78 21.21 28.57 21.44 28.39 21.67 28.24 21.9 28.11 22.13 28 22.36 27.92 22.59 27.86 22.82 27.82 23.05 27.8 23.28 27.8 23.51 27.81 23.74 27.84 23.97 27.88 24.2 27.93 24.43 27.99 24.65 28.05 24.88 28.13 25.11 28.21 25.34 28.29 25.57 28.37 25.8 28.46 26.03 28.55 26.26 28.64 26.49 28.73 26.72 28.82 26.95 28.9 27.18 28.99 27.41 29.07 27.64 29.16 27.87 29.24 28.1 29.32 28.33 29.41 28.56 29.49 28.79 29.58 29.02 29.67 29.25 29.77 29.47 29.87 29.7 29.98 29.93 30.1 30.16 30.23 30.39 30.37 30.62 30.52 30.85 30.68 31.08 30.86 31.31 31.06 31.54 31.27 31.77 31.5 32 31.75 32.23 32.02 32.46 32.31 32.69 32.62 32.92 32.95 33.15 33.3 33.38 33.68 33.61 34.07 33.84 34.49 34.07 34.92 34.3 35.38 34.52 35.85 34.75 36.35 34.98 36.85 35.21 37.38 35.44 37.91 35.67 38.46 35.9 39.02 36.13 39.59 36.36 40.16 36.59 40.74 36.82 41.32 37.05 41.9 37.28 42.48 37.51 43.06 37.74 43.63 37.97 44.2 38.2 44.75 38.43 45.3 38.66 45.84 38.89 46.36 39.12 46.87 39.35 47.36 39.57 47.83 39.8 48.29 40.03 48.73 40.26 49.15 40.49 49.56 40.72 49.94 40.95 50.31 41.18 50.66 41.41 50.99 41.64 51.3 41.87 51.6 42.1 51.88 42.33 52.15 42.56 52.4 42.79 52.64 43.02 52.87 43.25 53.08 43.48 53.29 43.71 53.49 43.94 53.69 44.17 53.88 44.39 54.06 44.62 54.24 44.85 54.42 45.08 54.6 45.31 54.78 45.54 54.97 45.77 55.15 46 55.34 46.23 55.53 46.46 55.72 46.69 55.92 46.92 56.13 47.15 56.33 47.38 56.55 47.61 56.76 47.84 56.99 48.07 57.21 48.3 57.44 48.53 57.67 48.76 57.91 48.99 58.15 49.22 58.39 49.44 58.63 49.67 58.87 49.9 59.12 50.13 59.36 50.36 59.6 50.59 59.83 50.82 60.07 51.05 60.3 51.28 60.53 51.51 60.75 51.74 60.97 51.97 61.18 52.2 61.38 52.43 61.58 52.66 61.77 52.89 61.96 53.12 62.13 53.35 62.3 53.58 62.46 53.81 62.62 54.04 62.76 54.27 62.9 54.49 63.03 54.72 63.16 54.95 63.27 55.18 63.38 55.41 63.48 55.64 63.57 55.87 63.66 56.1 63.74 56.33 63.82 56.56 63.89 56.79 63.95 57.02 64.01 57.25 64.06 57.48 64.11 57.71 64.16 57.94 64.2 58.17 64.23 58.4 64.27 58.63 64.3 58.86 64.32 59.09 64.35 59.31 64.37 59.54 64.39 59.77 64.41 60 64.42 60.23 64.43 60.46 64.45 60.69 64.46 60.92 64.47 61.15 64.47 61.38 64.48 61.61 64.49 61.84 64.49 62.07 64.5 62.3 64.5 62.53 64.51 62.76 64.51 62.99 64.51 63.22 64.51 63.45 64.52 63.68 64.52 63.91 64.52 64.14 64.52 64.36 64.52 64.59 64.52 64.82 64.52 65.05 64.52 65.28 64.52"/>
      </g>
      <g stroke-width="0.3" fill="#000000" fill-opacity="0.000" class="geometry" stroke-dasharray="none" stroke="#00BFFF" id="img-47b78173-15">
        <path fill="none" d="M13.02,7 L 16.45 17.62 19.89 26.28 23.32 33.34 26.75 39.1 30.19 43.79 33.62 47.62 37.05 50.74 40.48 53.29 43.92 55.36 47.35 57.05 50.78 58.43 54.22 59.56 57.65 60.47 61.08 61.22 64.52 61.83 67.95 62.33 71.38 62.74 74.81 63.07 78.25 63.34 81.68 63.56 85.11 63.73 88.55 63.88 91.98 64 95.41 64.1 98.85 64.18 102.28 64.24 105.71 64.29 109.14 64.34 112.58 64.37 116.01 64.4 119.44 64.42 122.88 64.44 126.31 64.46 129.74 64.47 133.18 64.48 136.61 64.49 140.04 64.5 143.48 64.5 146.91 64.51 150.34 64.51 153.77 64.51 157.21 64.52 160.64 64.52 164.07 64.52 167.51 64.52 170.94 64.52 174.37 64.52 177.81 64.52 181.24 64.52"/>
      </g>
    </g>
  </g>
</g>
  <g class="guide ylabels" font-size="2.82" font-family="'PT Sans Caption','Helvetica Neue','Helvetica',sans-serif" fill="#6C606B" id="img-47b78173-16">
    <text x="10.02" y="64.53" text-anchor="end" dy="0.35em">0.0</text>
    <text x="10.02" y="35.76" text-anchor="end" dy="0.35em">0.5</text>
    <text x="10.02" y="7" text-anchor="end" dy="0.35em">1.0</text>
  </g>
</g>
<defs>
  <clipPath id="img-47b78173-7">
  <path d="M11.02,5 L 99.13 5 99.13 66.53 11.02 66.53" />
</clipPath>
</defs>
</svg>
