<?xml version="1.0" encoding="UTF-8"?>
<svg xmlns="http://www.w3.org/2000/svg"
     xmlns:xlink="http://www.w3.org/1999/xlink"
     xmlns:gadfly="http://www.gadflyjl.org/ns"
     version="1.2"
     width="127mm" height="76.2mm" viewBox="0 0 127 76.2"
     stroke="none"
     fill="#000000"
     stroke-width="0.3"
     font-size="3.88"
>
<g class="plotroot xscalable yscalable" id="img-e65d1579-1">
  <g font-size="3.88" font-family="'PT Sans','Helvetica Neue','Helvetica',sans-serif" fill="#564A55" stroke="#000000" stroke-opacity="0.000" id="img-e65d1579-2">
    <text x="68.94" y="64.59" text-anchor="middle" dy="0.6em">a</text>
  </g>
  <g class="guide xlabels" font-size="2.82" font-family="'PT Sans Caption','Helvetica Neue','Helvetica',sans-serif" fill="#6C606B" id="img-e65d1579-3">
    <text x="17.89" y="57.91" text-anchor="middle" dy="0.6em">1.0</text>
    <text x="68.94" y="57.91" text-anchor="middle" dy="0.6em">1.5</text>
    <text x="120" y="57.91" text-anchor="middle" dy="0.6em">2.0</text>
  </g>
<g clip-path="url(#img-e65d1579-4)">
  <g id="img-e65d1579-5">
    <g pointer-events="visible" opacity="1" fill="#000000" fill-opacity="0.000" stroke="#000000" stroke-opacity="0.000" class="guide background" id="img-e65d1579-6">
      <rect x="15.89" y="5" width="106.11" height="51.91"/>
    </g>
    <g class="guide ygridlines xfixed" stroke-dasharray="0.5,0.5" stroke-width="0.2" stroke="#D0D0E0" id="img-e65d1579-7">
      <path fill="none" d="M15.89,54.91 L 122 54.91"/>
      <path fill="none" d="M15.89,42.94 L 122 42.94"/>
      <path fill="none" d="M15.89,30.96 L 122 30.96"/>
      <path fill="none" d="M15.89,18.98 L 122 18.98"/>
      <path fill="none" d="M15.89,7 L 122 7"/>
    </g>
    <g class="guide xgridlines yfixed" stroke-dasharray="0.5,0.5" stroke-width="0.2" stroke="#D0D0E0" id="img-e65d1579-8">
      <path fill="none" d="M17.89,5 L 17.89 56.91"/>
      <path fill="none" d="M68.94,5 L 68.94 56.91"/>
      <path fill="none" d="M120,5 L 120 56.91"/>
    </g>
    <g class="plotpanel" id="img-e65d1579-9">
      <g stroke-width="0.3" fill="#000000" fill-opacity="0.000" stroke-dasharray="none" id="img-e65d1579-10">
        <g stroke="#00BFFF" class="geometry color_RGBA{Float32}(0.0f0,0.74736935f0,1.0f0,1.0f0)" id="img-e65d1579-11">
          <path fill="none" d="M17.89,28.02 L 120 37.09"/>
          <path fill="none" d="M17.89,21.31 L 120 25.88"/>
          <path fill="none" d="M17.89,35.28 L 120 24.56"/>
          <path fill="none" d="M17.89,24.9 L 120 41.41"/>
          <path fill="none" d="M17.89,32.47 L 120 28.23"/>
          <path fill="none" d="M17.89,30.98 L 120 35.79"/>
          <path fill="none" d="M17.89,36.39 L 120 28.63"/>
          <path fill="none" d="M17.89,25.89 L 120 33.98"/>
          <path fill="none" d="M17.89,38.17 L 120 31.02"/>
          <path fill="none" d="M17.89,30.3 L 120 35.71"/>
          <path fill="none" d="M17.89,29.82 L 120 17.67"/>
          <path fill="none" d="M17.89,27.56 L 120 20.01"/>
          <path fill="none" d="M17.89,27.49 L 120 36.23"/>
          <path fill="none" d="M17.89,35.19 L 120 38.77"/>
          <path fill="none" d="M17.89,35.99 L 120 31.32"/>
          <path fill="none" d="M17.89,26.09 L 120 23.08"/>
          <path fill="none" d="M17.89,41.74 L 120 31.04"/>
          <path fill="none" d="M17.89,29.22 L 120 22.73"/>
          <path fill="none" d="M17.89,26.43 L 120 31.79"/>
          <path fill="none" d="M17.89,36.48 L 120 21.4"/>
          <path fill="none" d="M17.89,32.97 L 120 29.46"/>
          <path fill="none" d="M17.89,24.72 L 120 20.5"/>
          <path fill="none" d="M17.89,19.99 L 120 30.43"/>
          <path fill="none" d="M17.89,30.22 L 120 37.37"/>
          <path fill="none" d="M17.89,31.1 L 120 33.25"/>
          <path fill="none" d="M17.89,15.53 L 120 34.31"/>
          <path fill="none" d="M17.89,26.9 L 120 22.1"/>
          <path fill="none" d="M17.89,38.68 L 120 33.48"/>
          <path fill="none" d="M17.89,38.78 L 120 35.24"/>
          <path fill="none" d="M17.89,30.08 L 120 26.81"/>
          <path fill="none" d="M17.89,18.03 L 120 19.24"/>
          <path fill="none" d="M17.89,25.91 L 120 30.74"/>
          <path fill="none" d="M17.89,34.73 L 120 35.22"/>
          <path fill="none" d="M17.89,27.42 L 120 40.38"/>
          <path fill="none" d="M17.89,28.85 L 120 34.89"/>
          <path fill="none" d="M17.89,30.5 L 120 28.01"/>
          <path fill="none" d="M17.89,27.23 L 120 26.78"/>
          <path fill="none" d="M17.89,38.76 L 120 32.03"/>
          <path fill="none" d="M17.89,23.59 L 120 43.5"/>
          <path fill="none" d="M17.89,36.53 L 120 26.54"/>
          <path fill="none" d="M17.89,40.55 L 120 39.44"/>
          <path fill="none" d="M17.89,33.61 L 120 32.27"/>
          <path fill="none" d="M17.89,23.7 L 120 23.13"/>
          <path fill="none" d="M17.89,30.62 L 120 29.88"/>
          <path fill="none" d="M17.89,23.29 L 120 37.68"/>
          <path fill="none" d="M17.89,35.46 L 120 29.63"/>
          <path fill="none" d="M17.89,26.22 L 120 31.95"/>
          <path fill="none" d="M17.89,33.15 L 120 34.86"/>
          <path fill="none" d="M17.89,31.85 L 120 26.72"/>
          <path fill="none" d="M17.89,32.77 L 120 38.32"/>
          <path fill="none" d="M17.89,26.71 L 120 37.39"/>
          <path fill="none" d="M17.89,29.22 L 120 32.74"/>
          <path fill="none" d="M17.89,25.97 L 120 38.5"/>
          <path fill="none" d="M17.89,37.33 L 120 30.76"/>
          <path fill="none" d="M17.89,44.65 L 120 27.96"/>
          <path fill="none" d="M17.89,32.99 L 120 36.37"/>
          <path fill="none" d="M17.89,28.43 L 120 39.5"/>
          <path fill="none" d="M17.89,44.74 L 120 34.82"/>
          <path fill="none" d="M17.89,21.73 L 120 22.67"/>
          <path fill="none" d="M17.89,30.66 L 120 18.46"/>
          <path fill="none" d="M17.89,36.32 L 120 30.14"/>
          <path fill="none" d="M17.89,19.05 L 120 38.77"/>
          <path fill="none" d="M17.89,33.32 L 120 42.25"/>
          <path fill="none" d="M17.89,37.97 L 120 28.3"/>
          <path fill="none" d="M17.89,36.38 L 120 34.19"/>
          <path fill="none" d="M17.89,33.77 L 120 31.68"/>
          <path fill="none" d="M17.89,39.01 L 120 27.77"/>
          <path fill="none" d="M17.89,38.76 L 120 32.74"/>
          <path fill="none" d="M17.89,31.89 L 120 29.91"/>
          <path fill="none" d="M17.89,21.26 L 120 26.75"/>
          <path fill="none" d="M17.89,27.9 L 120 28.38"/>
          <path fill="none" d="M17.89,31.07 L 120 23.87"/>
          <path fill="none" d="M17.89,37.78 L 120 24.23"/>
          <path fill="none" d="M17.89,27.59 L 120 29.14"/>
          <path fill="none" d="M17.89,40.42 L 120 30.28"/>
          <path fill="none" d="M17.89,35.1 L 120 39.49"/>
          <path fill="none" d="M17.89,31.7 L 120 30.52"/>
          <path fill="none" d="M17.89,31.15 L 120 31.62"/>
          <path fill="none" d="M17.89,30.64 L 120 31.14"/>
          <path fill="none" d="M17.89,27.44 L 120 37.22"/>
          <path fill="none" d="M17.89,34.03 L 120 37.23"/>
          <path fill="none" d="M17.89,32.6 L 120 27.25"/>
          <path fill="none" d="M17.89,25.93 L 120 32.31"/>
          <path fill="none" d="M17.89,29.4 L 120 23.61"/>
          <path fill="none" d="M17.89,39.48 L 120 42.8"/>
          <path fill="none" d="M17.89,25.01 L 120 25.41"/>
          <path fill="none" d="M17.89,19.98 L 120 30.41"/>
          <path fill="none" d="M17.89,22.93 L 120 33.23"/>
          <path fill="none" d="M17.89,27.26 L 120 26.38"/>
          <path fill="none" d="M17.89,28.7 L 120 28.66"/>
          <path fill="none" d="M17.89,23.2 L 120 36.4"/>
          <path fill="none" d="M17.89,31.06 L 120 36.23"/>
          <path fill="none" d="M17.89,38.68 L 120 24.22"/>
          <path fill="none" d="M17.89,34.37 L 120 22.37"/>
          <path fill="none" d="M17.89,26.26 L 120 28.53"/>
          <path fill="none" d="M17.89,32.61 L 120 28.65"/>
          <path fill="none" d="M17.89,16.65 L 120 31.26"/>
          <path fill="none" d="M17.89,25.06 L 120 24.68"/>
          <path fill="none" d="M17.89,28.47 L 120 30.91"/>
          <path fill="none" d="M17.89,30.71 L 120 33.06"/>
          <path fill="none" d="M17.89,36.37 L 120 31.78"/>
          <path fill="none" d="M17.89,20.39 L 120 33.54"/>
          <path fill="none" d="M17.89,34.28 L 120 36.96"/>
          <path fill="none" d="M17.89,28.5 L 120 38.8"/>
          <path fill="none" d="M17.89,29.75 L 120 25.79"/>
          <path fill="none" d="M17.89,25.79 L 120 35.13"/>
          <path fill="none" d="M17.89,28.77 L 120 31.42"/>
          <path fill="none" d="M17.89,35.84 L 120 33.24"/>
          <path fill="none" d="M17.89,29.32 L 120 42"/>
          <path fill="none" d="M17.89,18.42 L 120 27.33"/>
          <path fill="none" d="M17.89,29.81 L 120 33.01"/>
          <path fill="none" d="M17.89,28.9 L 120 36.89"/>
          <path fill="none" d="M17.89,28.09 L 120 29.64"/>
          <path fill="none" d="M17.89,31.08 L 120 36.1"/>
          <path fill="none" d="M17.89,36.16 L 120 26.98"/>
          <path fill="none" d="M17.89,38.96 L 120 48.63"/>
          <path fill="none" d="M17.89,27.9 L 120 26.3"/>
          <path fill="none" d="M17.89,39.48 L 120 34.53"/>
          <path fill="none" d="M17.89,38.32 L 120 34.42"/>
          <path fill="none" d="M17.89,37.15 L 120 23.26"/>
          <path fill="none" d="M17.89,25.46 L 120 17.39"/>
          <path fill="none" d="M17.89,35.82 L 120 24.75"/>
          <path fill="none" d="M17.89,30.08 L 120 40.32"/>
          <path fill="none" d="M17.89,28.63 L 120 30.7"/>
          <path fill="none" d="M17.89,29.39 L 120 32.59"/>
          <path fill="none" d="M17.89,32.95 L 120 34.95"/>
          <path fill="none" d="M17.89,31.82 L 120 34.9"/>
          <path fill="none" d="M17.89,36.09 L 120 32.61"/>
          <path fill="none" d="M17.89,40.6 L 120 41.94"/>
          <path fill="none" d="M17.89,28.61 L 120 31.21"/>
          <path fill="none" d="M17.89,38.88 L 120 33.63"/>
          <path fill="none" d="M17.89,27.06 L 120 23.81"/>
          <path fill="none" d="M17.89,29.21 L 120 24.03"/>
          <path fill="none" d="M17.89,29.59 L 120 31.34"/>
          <path fill="none" d="M17.89,40.09 L 120 34.27"/>
          <path fill="none" d="M17.89,28.63 L 120 44.64"/>
          <path fill="none" d="M17.89,44.93 L 120 31.47"/>
          <path fill="none" d="M17.89,24.6 L 120 34.71"/>
          <path fill="none" d="M17.89,25.35 L 120 32.15"/>
          <path fill="none" d="M17.89,23.64 L 120 22.96"/>
          <path fill="none" d="M17.89,35.26 L 120 20.85"/>
          <path fill="none" d="M17.89,23.79 L 120 40.23"/>
          <path fill="none" d="M17.89,33.19 L 120 33.79"/>
          <path fill="none" d="M17.89,34.16 L 120 22.91"/>
          <path fill="none" d="M17.89,12.77 L 120 26.07"/>
          <path fill="none" d="M17.89,24.82 L 120 29.39"/>
          <path fill="none" d="M17.89,21.49 L 120 36.89"/>
          <path fill="none" d="M17.89,33.25 L 120 39.14"/>
          <path fill="none" d="M17.89,35.7 L 120 30.01"/>
          <path fill="none" d="M17.89,28.29 L 120 31.61"/>
          <path fill="none" d="M17.89,28.35 L 120 33.82"/>
          <path fill="none" d="M17.89,29.32 L 120 27.69"/>
          <path fill="none" d="M17.89,39.31 L 120 32.02"/>
          <path fill="none" d="M17.89,27.03 L 120 28.95"/>
          <path fill="none" d="M17.89,22.18 L 120 28.96"/>
          <path fill="none" d="M17.89,25.81 L 120 23.26"/>
          <path fill="none" d="M17.89,23.61 L 120 23.14"/>
          <path fill="none" d="M17.89,33.51 L 120 39.13"/>
          <path fill="none" d="M17.89,40.78 L 120 38.27"/>
          <path fill="none" d="M17.89,40.14 L 120 35.1"/>
          <path fill="none" d="M17.89,29.69 L 120 37.23"/>
          <path fill="none" d="M17.89,20.84 L 120 25.54"/>
          <path fill="none" d="M17.89,33.94 L 120 29.87"/>
          <path fill="none" d="M17.89,29.32 L 120 36.37"/>
          <path fill="none" d="M17.89,35.26 L 120 33.75"/>
          <path fill="none" d="M17.89,29.64 L 120 36.95"/>
          <path fill="none" d="M17.89,31.61 L 120 27.72"/>
          <path fill="none" d="M17.89,23.17 L 120 34.69"/>
          <path fill="none" d="M17.89,33 L 120 31.83"/>
          <path fill="none" d="M17.89,25.71 L 120 18.72"/>
          <path fill="none" d="M17.89,30.11 L 120 27.55"/>
          <path fill="none" d="M17.89,28.26 L 120 32.75"/>
          <path fill="none" d="M17.89,19.5 L 120 26.15"/>
          <path fill="none" d="M17.89,40.01 L 120 35.97"/>
          <path fill="none" d="M17.89,26.82 L 120 28.89"/>
          <path fill="none" d="M17.89,29.11 L 120 38.26"/>
          <path fill="none" d="M17.89,30.85 L 120 31.7"/>
          <path fill="none" d="M17.89,40.48 L 120 37.25"/>
          <path fill="none" d="M17.89,31.58 L 120 40.09"/>
          <path fill="none" d="M17.89,40.05 L 120 32.09"/>
          <path fill="none" d="M17.89,34.52 L 120 32.25"/>
          <path fill="none" d="M17.89,27.16 L 120 19.42"/>
          <path fill="none" d="M17.89,35.22 L 120 25.57"/>
          <path fill="none" d="M17.89,32.62 L 120 31.29"/>
          <path fill="none" d="M17.89,37.35 L 120 46.53"/>
          <path fill="none" d="M17.89,48.23 L 120 40.4"/>
          <path fill="none" d="M17.89,36.26 L 120 27.44"/>
          <path fill="none" d="M17.89,31.32 L 120 28.39"/>
          <path fill="none" d="M17.89,40.56 L 120 29.36"/>
          <path fill="none" d="M17.89,29.33 L 120 27.62"/>
          <path fill="none" d="M17.89,29.49 L 120 24.06"/>
          <path fill="none" d="M17.89,25.93 L 120 24.26"/>
          <path fill="none" d="M17.89,22.5 L 120 21.71"/>
          <path fill="none" d="M17.89,30.72 L 120 31.2"/>
          <path fill="none" d="M17.89,40.41 L 120 32.14"/>
          <path fill="none" d="M17.89,27.25 L 120 38.55"/>
          <path fill="none" d="M17.89,40.51 L 120 30.69"/>
          <path fill="none" d="M17.89,30.48 L 120 20.33"/>
          <path fill="none" d="M17.89,38.55 L 120 25.86"/>
          <path fill="none" d="M17.89,32.63 L 120 29.13"/>
        </g>
      </g>
      <g class="geometry" id="img-e65d1579-12">
        <g class="color_RGBA{Float32}(0.0f0,0.74736935f0,1.0f0,1.0f0)" stroke="#FFFFFF" stroke-width="0.3" fill="#00BFFF" id="img-e65d1579-13">
          <use xlink:href="#img-e65d1579-14" x="17.89" y="28.02"/>
          <use xlink:href="#img-e65d1579-14" x="17.89" y="21.31"/>
          <use xlink:href="#img-e65d1579-14" x="17.89" y="35.28"/>
          <use xlink:href="#img-e65d1579-14" x="17.89" y="24.9"/>
          <use xlink:href="#img-e65d1579-14" x="17.89" y="32.47"/>
          <use xlink:href="#img-e65d1579-14" x="17.89" y="30.98"/>
          <use xlink:href="#img-e65d1579-14" x="17.89" y="36.39"/>
          <use xlink:href="#img-e65d1579-14" x="17.89" y="25.89"/>
          <use xlink:href="#img-e65d1579-14" x="17.89" y="38.17"/>
          <use xlink:href="#img-e65d1579-14" x="17.89" y="30.3"/>
          <use xlink:href="#img-e65d1579-14" x="17.89" y="29.82"/>
          <use xlink:href="#img-e65d1579-14" x="17.89" y="27.56"/>
          <use xlink:href="#img-e65d1579-14" x="17.89" y="27.49"/>
          <use xlink:href="#img-e65d1579-14" x="17.89" y="35.19"/>
          <use xlink:href="#img-e65d1579-14" x="17.89" y="35.99"/>
          <use xlink:href="#img-e65d1579-14" x="17.89" y="26.09"/>
          <use xlink:href="#img-e65d1579-14" x="17.89" y="41.74"/>
          <use xlink:href="#img-e65d1579-14" x="17.89" y="29.22"/>
          <use xlink:href="#img-e65d1579-14" x="17.89" y="26.43"/>
          <use xlink:href="#img-e65d1579-14" x="17.89" y="36.48"/>
          <use xlink:href="#img-e65d1579-14" x="17.89" y="32.97"/>
          <use xlink:href="#img-e65d1579-14" x="17.89" y="24.72"/>
          <use xlink:href="#img-e65d1579-14" x="17.89" y="19.99"/>
          <use xlink:href="#img-e65d1579-14" x="17.89" y="30.22"/>
          <use xlink:href="#img-e65d1579-14" x="17.89" y="31.1"/>
          <use xlink:href="#img-e65d1579-14" x="17.89" y="15.53"/>
          <use xlink:href="#img-e65d1579-14" x="17.89" y="26.9"/>
          <use xlink:href="#img-e65d1579-14" x="17.89" y="38.68"/>
          <use xlink:href="#img-e65d1579-14" x="17.89" y="38.78"/>
          <use xlink:href="#img-e65d1579-14" x="17.89" y="30.08"/>
          <use xlink:href="#img-e65d1579-14" x="17.89" y="18.03"/>
          <use xlink:href="#img-e65d1579-14" x="17.89" y="25.91"/>
          <use xlink:href="#img-e65d1579-14" x="17.89" y="34.73"/>
          <use xlink:href="#img-e65d1579-14" x="17.89" y="27.42"/>
          <use xlink:href="#img-e65d1579-14" x="17.89" y="28.85"/>
          <use xlink:href="#img-e65d1579-14" x="17.89" y="30.5"/>
          <use xlink:href="#img-e65d1579-14" x="17.89" y="27.23"/>
          <use xlink:href="#img-e65d1579-14" x="17.89" y="38.76"/>
          <use xlink:href="#img-e65d1579-14" x="17.89" y="23.59"/>
          <use xlink:href="#img-e65d1579-14" x="17.89" y="36.53"/>
          <use xlink:href="#img-e65d1579-14" x="17.89" y="40.55"/>
          <use xlink:href="#img-e65d1579-14" x="17.89" y="33.61"/>
          <use xlink:href="#img-e65d1579-14" x="17.89" y="23.7"/>
          <use xlink:href="#img-e65d1579-14" x="17.89" y="30.62"/>
          <use xlink:href="#img-e65d1579-14" x="17.89" y="23.29"/>
          <use xlink:href="#img-e65d1579-14" x="17.89" y="35.46"/>
          <use xlink:href="#img-e65d1579-14" x="17.89" y="26.22"/>
          <use xlink:href="#img-e65d1579-14" x="17.89" y="33.15"/>
          <use xlink:href="#img-e65d1579-14" x="17.89" y="31.85"/>
          <use xlink:href="#img-e65d1579-14" x="17.89" y="32.77"/>
          <use xlink:href="#img-e65d1579-14" x="17.89" y="26.71"/>
          <use xlink:href="#img-e65d1579-14" x="17.89" y="29.22"/>
          <use xlink:href="#img-e65d1579-14" x="17.89" y="25.97"/>
          <use xlink:href="#img-e65d1579-14" x="17.89" y="37.33"/>
          <use xlink:href="#img-e65d1579-14" x="17.89" y="44.65"/>
          <use xlink:href="#img-e65d1579-14" x="17.89" y="32.99"/>
          <use xlink:href="#img-e65d1579-14" x="17.89" y="28.43"/>
          <use xlink:href="#img-e65d1579-14" x="17.89" y="44.74"/>
          <use xlink:href="#img-e65d1579-14" x="17.89" y="21.73"/>
          <use xlink:href="#img-e65d1579-14" x="17.89" y="30.66"/>
          <use xlink:href="#img-e65d1579-14" x="17.89" y="36.32"/>
          <use xlink:href="#img-e65d1579-14" x="17.89" y="19.05"/>
          <use xlink:href="#img-e65d1579-14" x="17.89" y="33.32"/>
          <use xlink:href="#img-e65d1579-14" x="17.89" y="37.97"/>
          <use xlink:href="#img-e65d1579-14" x="17.89" y="36.38"/>
          <use xlink:href="#img-e65d1579-14" x="17.89" y="33.77"/>
          <use xlink:href="#img-e65d1579-14" x="17.89" y="39.01"/>
          <use xlink:href="#img-e65d1579-14" x="17.89" y="38.76"/>
          <use xlink:href="#img-e65d1579-14" x="17.89" y="31.89"/>
          <use xlink:href="#img-e65d1579-14" x="17.89" y="21.26"/>
          <use xlink:href="#img-e65d1579-14" x="17.89" y="27.9"/>
          <use xlink:href="#img-e65d1579-14" x="17.89" y="31.07"/>
          <use xlink:href="#img-e65d1579-14" x="17.89" y="37.78"/>
          <use xlink:href="#img-e65d1579-14" x="17.89" y="27.59"/>
          <use xlink:href="#img-e65d1579-14" x="17.89" y="40.42"/>
          <use xlink:href="#img-e65d1579-14" x="17.89" y="35.1"/>
          <use xlink:href="#img-e65d1579-14" x="17.89" y="31.7"/>
          <use xlink:href="#img-e65d1579-14" x="17.89" y="31.15"/>
          <use xlink:href="#img-e65d1579-14" x="17.89" y="30.64"/>
          <use xlink:href="#img-e65d1579-14" x="17.89" y="27.44"/>
          <use xlink:href="#img-e65d1579-14" x="17.89" y="34.03"/>
          <use xlink:href="#img-e65d1579-14" x="17.89" y="32.6"/>
          <use xlink:href="#img-e65d1579-14" x="17.89" y="25.93"/>
          <use xlink:href="#img-e65d1579-14" x="17.89" y="29.4"/>
          <use xlink:href="#img-e65d1579-14" x="17.89" y="39.48"/>
          <use xlink:href="#img-e65d1579-14" x="17.89" y="25.01"/>
          <use xlink:href="#img-e65d1579-14" x="17.89" y="19.98"/>
          <use xlink:href="#img-e65d1579-14" x="17.89" y="22.93"/>
          <use xlink:href="#img-e65d1579-14" x="17.89" y="27.26"/>
          <use xlink:href="#img-e65d1579-14" x="17.89" y="28.7"/>
          <use xlink:href="#img-e65d1579-14" x="17.89" y="23.2"/>
          <use xlink:href="#img-e65d1579-14" x="17.89" y="31.06"/>
          <use xlink:href="#img-e65d1579-14" x="17.89" y="38.68"/>
          <use xlink:href="#img-e65d1579-14" x="17.89" y="34.37"/>
          <use xlink:href="#img-e65d1579-14" x="17.89" y="26.26"/>
          <use xlink:href="#img-e65d1579-14" x="17.89" y="32.61"/>
          <use xlink:href="#img-e65d1579-14" x="17.89" y="16.65"/>
          <use xlink:href="#img-e65d1579-14" x="17.89" y="25.06"/>
          <use xlink:href="#img-e65d1579-14" x="17.89" y="28.47"/>
          <use xlink:href="#img-e65d1579-14" x="17.89" y="30.71"/>
          <use xlink:href="#img-e65d1579-14" x="17.89" y="36.37"/>
          <use xlink:href="#img-e65d1579-14" x="17.89" y="20.39"/>
          <use xlink:href="#img-e65d1579-14" x="17.89" y="34.28"/>
          <use xlink:href="#img-e65d1579-14" x="17.89" y="28.5"/>
          <use xlink:href="#img-e65d1579-14" x="17.89" y="29.75"/>
          <use xlink:href="#img-e65d1579-14" x="17.89" y="25.79"/>
          <use xlink:href="#img-e65d1579-14" x="17.89" y="28.77"/>
          <use xlink:href="#img-e65d1579-14" x="17.89" y="35.84"/>
          <use xlink:href="#img-e65d1579-14" x="17.89" y="29.32"/>
          <use xlink:href="#img-e65d1579-14" x="17.89" y="18.42"/>
          <use xlink:href="#img-e65d1579-14" x="17.89" y="29.81"/>
          <use xlink:href="#img-e65d1579-14" x="17.89" y="28.9"/>
          <use xlink:href="#img-e65d1579-14" x="17.89" y="28.09"/>
          <use xlink:href="#img-e65d1579-14" x="17.89" y="31.08"/>
          <use xlink:href="#img-e65d1579-14" x="17.89" y="36.16"/>
          <use xlink:href="#img-e65d1579-14" x="17.89" y="38.96"/>
          <use xlink:href="#img-e65d1579-14" x="17.89" y="27.9"/>
          <use xlink:href="#img-e65d1579-14" x="17.89" y="39.48"/>
          <use xlink:href="#img-e65d1579-14" x="17.89" y="38.32"/>
          <use xlink:href="#img-e65d1579-14" x="17.89" y="37.15"/>
          <use xlink:href="#img-e65d1579-14" x="17.89" y="25.46"/>
          <use xlink:href="#img-e65d1579-14" x="17.89" y="35.82"/>
          <use xlink:href="#img-e65d1579-14" x="17.89" y="30.08"/>
          <use xlink:href="#img-e65d1579-14" x="17.89" y="28.63"/>
          <use xlink:href="#img-e65d1579-14" x="17.89" y="29.39"/>
          <use xlink:href="#img-e65d1579-14" x="17.89" y="32.95"/>
          <use xlink:href="#img-e65d1579-14" x="17.89" y="31.82"/>
          <use xlink:href="#img-e65d1579-14" x="17.89" y="36.09"/>
          <use xlink:href="#img-e65d1579-14" x="17.89" y="40.6"/>
          <use xlink:href="#img-e65d1579-14" x="17.89" y="28.61"/>
          <use xlink:href="#img-e65d1579-14" x="17.89" y="38.88"/>
          <use xlink:href="#img-e65d1579-14" x="17.89" y="27.06"/>
          <use xlink:href="#img-e65d1579-14" x="17.89" y="29.21"/>
          <use xlink:href="#img-e65d1579-14" x="17.89" y="29.59"/>
          <use xlink:href="#img-e65d1579-14" x="17.89" y="40.09"/>
          <use xlink:href="#img-e65d1579-14" x="17.89" y="28.63"/>
          <use xlink:href="#img-e65d1579-14" x="17.89" y="44.93"/>
          <use xlink:href="#img-e65d1579-14" x="17.89" y="24.6"/>
          <use xlink:href="#img-e65d1579-14" x="17.89" y="25.35"/>
          <use xlink:href="#img-e65d1579-14" x="17.89" y="23.64"/>
          <use xlink:href="#img-e65d1579-14" x="17.89" y="35.26"/>
          <use xlink:href="#img-e65d1579-14" x="17.89" y="23.79"/>
          <use xlink:href="#img-e65d1579-14" x="17.89" y="33.19"/>
          <use xlink:href="#img-e65d1579-14" x="17.89" y="34.16"/>
          <use xlink:href="#img-e65d1579-14" x="17.89" y="12.77"/>
          <use xlink:href="#img-e65d1579-14" x="17.89" y="24.82"/>
          <use xlink:href="#img-e65d1579-14" x="17.89" y="21.49"/>
          <use xlink:href="#img-e65d1579-14" x="17.89" y="33.25"/>
          <use xlink:href="#img-e65d1579-14" x="17.89" y="35.7"/>
          <use xlink:href="#img-e65d1579-14" x="17.89" y="28.29"/>
          <use xlink:href="#img-e65d1579-14" x="17.89" y="28.35"/>
          <use xlink:href="#img-e65d1579-14" x="17.89" y="29.32"/>
          <use xlink:href="#img-e65d1579-14" x="17.89" y="39.31"/>
          <use xlink:href="#img-e65d1579-14" x="17.89" y="27.03"/>
          <use xlink:href="#img-e65d1579-14" x="17.89" y="22.18"/>
          <use xlink:href="#img-e65d1579-14" x="17.89" y="25.81"/>
          <use xlink:href="#img-e65d1579-14" x="17.89" y="23.61"/>
          <use xlink:href="#img-e65d1579-14" x="17.89" y="33.51"/>
          <use xlink:href="#img-e65d1579-14" x="17.89" y="40.78"/>
          <use xlink:href="#img-e65d1579-14" x="17.89" y="40.14"/>
          <use xlink:href="#img-e65d1579-14" x="17.89" y="29.69"/>
          <use xlink:href="#img-e65d1579-14" x="17.89" y="20.84"/>
          <use xlink:href="#img-e65d1579-14" x="17.89" y="33.94"/>
          <use xlink:href="#img-e65d1579-14" x="17.89" y="29.32"/>
          <use xlink:href="#img-e65d1579-14" x="17.89" y="35.26"/>
          <use xlink:href="#img-e65d1579-14" x="17.89" y="29.64"/>
          <use xlink:href="#img-e65d1579-14" x="17.89" y="31.61"/>
          <use xlink:href="#img-e65d1579-14" x="17.89" y="23.17"/>
          <use xlink:href="#img-e65d1579-14" x="17.89" y="33"/>
          <use xlink:href="#img-e65d1579-14" x="17.89" y="25.71"/>
          <use xlink:href="#img-e65d1579-14" x="17.89" y="30.11"/>
          <use xlink:href="#img-e65d1579-14" x="17.89" y="28.26"/>
          <use xlink:href="#img-e65d1579-14" x="17.89" y="19.5"/>
          <use xlink:href="#img-e65d1579-14" x="17.89" y="40.01"/>
          <use xlink:href="#img-e65d1579-14" x="17.89" y="26.82"/>
          <use xlink:href="#img-e65d1579-14" x="17.89" y="29.11"/>
          <use xlink:href="#img-e65d1579-14" x="17.89" y="30.85"/>
          <use xlink:href="#img-e65d1579-14" x="17.89" y="40.48"/>
          <use xlink:href="#img-e65d1579-14" x="17.89" y="31.58"/>
          <use xlink:href="#img-e65d1579-14" x="17.89" y="40.05"/>
          <use xlink:href="#img-e65d1579-14" x="17.89" y="34.52"/>
          <use xlink:href="#img-e65d1579-14" x="17.89" y="27.16"/>
          <use xlink:href="#img-e65d1579-14" x="17.89" y="35.22"/>
          <use xlink:href="#img-e65d1579-14" x="17.89" y="32.62"/>
          <use xlink:href="#img-e65d1579-14" x="17.89" y="37.35"/>
          <use xlink:href="#img-e65d1579-14" x="17.89" y="48.23"/>
          <use xlink:href="#img-e65d1579-14" x="17.89" y="36.26"/>
          <use xlink:href="#img-e65d1579-14" x="17.89" y="31.32"/>
          <use xlink:href="#img-e65d1579-14" x="17.89" y="40.56"/>
          <use xlink:href="#img-e65d1579-14" x="17.89" y="29.33"/>
          <use xlink:href="#img-e65d1579-14" x="17.89" y="29.49"/>
          <use xlink:href="#img-e65d1579-14" x="17.89" y="25.93"/>
          <use xlink:href="#img-e65d1579-14" x="17.89" y="22.5"/>
          <use xlink:href="#img-e65d1579-14" x="17.89" y="30.72"/>
          <use xlink:href="#img-e65d1579-14" x="17.89" y="40.41"/>
          <use xlink:href="#img-e65d1579-14" x="17.89" y="27.25"/>
          <use xlink:href="#img-e65d1579-14" x="17.89" y="40.51"/>
          <use xlink:href="#img-e65d1579-14" x="17.89" y="30.48"/>
          <use xlink:href="#img-e65d1579-14" x="17.89" y="38.55"/>
          <use xlink:href="#img-e65d1579-14" x="17.89" y="32.63"/>
          <use xlink:href="#img-e65d1579-14" x="120" y="37.09"/>
          <use xlink:href="#img-e65d1579-14" x="120" y="25.88"/>
          <use xlink:href="#img-e65d1579-14" x="120" y="24.56"/>
          <use xlink:href="#img-e65d1579-14" x="120" y="41.41"/>
          <use xlink:href="#img-e65d1579-14" x="120" y="28.23"/>
          <use xlink:href="#img-e65d1579-14" x="120" y="35.79"/>
          <use xlink:href="#img-e65d1579-14" x="120" y="28.63"/>
          <use xlink:href="#img-e65d1579-14" x="120" y="33.98"/>
          <use xlink:href="#img-e65d1579-14" x="120" y="31.02"/>
          <use xlink:href="#img-e65d1579-14" x="120" y="35.71"/>
          <use xlink:href="#img-e65d1579-14" x="120" y="17.67"/>
          <use xlink:href="#img-e65d1579-14" x="120" y="20.01"/>
          <use xlink:href="#img-e65d1579-14" x="120" y="36.23"/>
          <use xlink:href="#img-e65d1579-14" x="120" y="38.77"/>
          <use xlink:href="#img-e65d1579-14" x="120" y="31.32"/>
          <use xlink:href="#img-e65d1579-14" x="120" y="23.08"/>
          <use xlink:href="#img-e65d1579-14" x="120" y="31.04"/>
          <use xlink:href="#img-e65d1579-14" x="120" y="22.73"/>
          <use xlink:href="#img-e65d1579-14" x="120" y="31.79"/>
          <use xlink:href="#img-e65d1579-14" x="120" y="21.4"/>
          <use xlink:href="#img-e65d1579-14" x="120" y="29.46"/>
          <use xlink:href="#img-e65d1579-14" x="120" y="20.5"/>
          <use xlink:href="#img-e65d1579-14" x="120" y="30.43"/>
          <use xlink:href="#img-e65d1579-14" x="120" y="37.37"/>
          <use xlink:href="#img-e65d1579-14" x="120" y="33.25"/>
          <use xlink:href="#img-e65d1579-14" x="120" y="34.31"/>
          <use xlink:href="#img-e65d1579-14" x="120" y="22.1"/>
          <use xlink:href="#img-e65d1579-14" x="120" y="33.48"/>
          <use xlink:href="#img-e65d1579-14" x="120" y="35.24"/>
          <use xlink:href="#img-e65d1579-14" x="120" y="26.81"/>
          <use xlink:href="#img-e65d1579-14" x="120" y="19.24"/>
          <use xlink:href="#img-e65d1579-14" x="120" y="30.74"/>
          <use xlink:href="#img-e65d1579-14" x="120" y="35.22"/>
          <use xlink:href="#img-e65d1579-14" x="120" y="40.38"/>
          <use xlink:href="#img-e65d1579-14" x="120" y="34.89"/>
          <use xlink:href="#img-e65d1579-14" x="120" y="28.01"/>
          <use xlink:href="#img-e65d1579-14" x="120" y="26.78"/>
          <use xlink:href="#img-e65d1579-14" x="120" y="32.03"/>
          <use xlink:href="#img-e65d1579-14" x="120" y="43.5"/>
          <use xlink:href="#img-e65d1579-14" x="120" y="26.54"/>
          <use xlink:href="#img-e65d1579-14" x="120" y="39.44"/>
          <use xlink:href="#img-e65d1579-14" x="120" y="32.27"/>
          <use xlink:href="#img-e65d1579-14" x="120" y="23.13"/>
          <use xlink:href="#img-e65d1579-14" x="120" y="29.88"/>
          <use xlink:href="#img-e65d1579-14" x="120" y="37.68"/>
          <use xlink:href="#img-e65d1579-14" x="120" y="29.63"/>
          <use xlink:href="#img-e65d1579-14" x="120" y="31.95"/>
          <use xlink:href="#img-e65d1579-14" x="120" y="34.86"/>
          <use xlink:href="#img-e65d1579-14" x="120" y="26.72"/>
          <use xlink:href="#img-e65d1579-14" x="120" y="38.32"/>
          <use xlink:href="#img-e65d1579-14" x="120" y="37.39"/>
          <use xlink:href="#img-e65d1579-14" x="120" y="32.74"/>
          <use xlink:href="#img-e65d1579-14" x="120" y="38.5"/>
          <use xlink:href="#img-e65d1579-14" x="120" y="30.76"/>
          <use xlink:href="#img-e65d1579-14" x="120" y="27.96"/>
          <use xlink:href="#img-e65d1579-14" x="120" y="36.37"/>
          <use xlink:href="#img-e65d1579-14" x="120" y="39.5"/>
          <use xlink:href="#img-e65d1579-14" x="120" y="34.82"/>
          <use xlink:href="#img-e65d1579-14" x="120" y="22.67"/>
          <use xlink:href="#img-e65d1579-14" x="120" y="18.46"/>
          <use xlink:href="#img-e65d1579-14" x="120" y="30.14"/>
          <use xlink:href="#img-e65d1579-14" x="120" y="38.77"/>
          <use xlink:href="#img-e65d1579-14" x="120" y="42.25"/>
          <use xlink:href="#img-e65d1579-14" x="120" y="28.3"/>
          <use xlink:href="#img-e65d1579-14" x="120" y="34.19"/>
          <use xlink:href="#img-e65d1579-14" x="120" y="31.68"/>
          <use xlink:href="#img-e65d1579-14" x="120" y="27.77"/>
          <use xlink:href="#img-e65d1579-14" x="120" y="32.74"/>
          <use xlink:href="#img-e65d1579-14" x="120" y="29.91"/>
          <use xlink:href="#img-e65d1579-14" x="120" y="26.75"/>
          <use xlink:href="#img-e65d1579-14" x="120" y="28.38"/>
          <use xlink:href="#img-e65d1579-14" x="120" y="23.87"/>
          <use xlink:href="#img-e65d1579-14" x="120" y="24.23"/>
          <use xlink:href="#img-e65d1579-14" x="120" y="29.14"/>
          <use xlink:href="#img-e65d1579-14" x="120" y="30.28"/>
          <use xlink:href="#img-e65d1579-14" x="120" y="39.49"/>
          <use xlink:href="#img-e65d1579-14" x="120" y="30.52"/>
          <use xlink:href="#img-e65d1579-14" x="120" y="31.62"/>
          <use xlink:href="#img-e65d1579-14" x="120" y="31.14"/>
          <use xlink:href="#img-e65d1579-14" x="120" y="37.22"/>
          <use xlink:href="#img-e65d1579-14" x="120" y="37.23"/>
          <use xlink:href="#img-e65d1579-14" x="120" y="27.25"/>
          <use xlink:href="#img-e65d1579-14" x="120" y="32.31"/>
          <use xlink:href="#img-e65d1579-14" x="120" y="23.61"/>
          <use xlink:href="#img-e65d1579-14" x="120" y="42.8"/>
          <use xlink:href="#img-e65d1579-14" x="120" y="25.41"/>
          <use xlink:href="#img-e65d1579-14" x="120" y="30.41"/>
          <use xlink:href="#img-e65d1579-14" x="120" y="33.23"/>
          <use xlink:href="#img-e65d1579-14" x="120" y="26.38"/>
          <use xlink:href="#img-e65d1579-14" x="120" y="28.66"/>
          <use xlink:href="#img-e65d1579-14" x="120" y="36.4"/>
          <use xlink:href="#img-e65d1579-14" x="120" y="36.23"/>
          <use xlink:href="#img-e65d1579-14" x="120" y="24.22"/>
          <use xlink:href="#img-e65d1579-14" x="120" y="22.37"/>
          <use xlink:href="#img-e65d1579-14" x="120" y="28.53"/>
          <use xlink:href="#img-e65d1579-14" x="120" y="28.65"/>
          <use xlink:href="#img-e65d1579-14" x="120" y="31.26"/>
          <use xlink:href="#img-e65d1579-14" x="120" y="24.68"/>
          <use xlink:href="#img-e65d1579-14" x="120" y="30.91"/>
          <use xlink:href="#img-e65d1579-14" x="120" y="33.06"/>
          <use xlink:href="#img-e65d1579-14" x="120" y="31.78"/>
          <use xlink:href="#img-e65d1579-14" x="120" y="33.54"/>
          <use xlink:href="#img-e65d1579-14" x="120" y="36.96"/>
          <use xlink:href="#img-e65d1579-14" x="120" y="38.8"/>
          <use xlink:href="#img-e65d1579-14" x="120" y="25.79"/>
          <use xlink:href="#img-e65d1579-14" x="120" y="35.13"/>
          <use xlink:href="#img-e65d1579-14" x="120" y="31.42"/>
          <use xlink:href="#img-e65d1579-14" x="120" y="33.24"/>
          <use xlink:href="#img-e65d1579-14" x="120" y="42"/>
          <use xlink:href="#img-e65d1579-14" x="120" y="27.33"/>
          <use xlink:href="#img-e65d1579-14" x="120" y="33.01"/>
          <use xlink:href="#img-e65d1579-14" x="120" y="36.89"/>
          <use xlink:href="#img-e65d1579-14" x="120" y="29.64"/>
          <use xlink:href="#img-e65d1579-14" x="120" y="36.1"/>
          <use xlink:href="#img-e65d1579-14" x="120" y="26.98"/>
          <use xlink:href="#img-e65d1579-14" x="120" y="48.63"/>
          <use xlink:href="#img-e65d1579-14" x="120" y="26.3"/>
          <use xlink:href="#img-e65d1579-14" x="120" y="34.53"/>
          <use xlink:href="#img-e65d1579-14" x="120" y="34.42"/>
          <use xlink:href="#img-e65d1579-14" x="120" y="23.26"/>
          <use xlink:href="#img-e65d1579-14" x="120" y="17.39"/>
          <use xlink:href="#img-e65d1579-14" x="120" y="24.75"/>
          <use xlink:href="#img-e65d1579-14" x="120" y="40.32"/>
          <use xlink:href="#img-e65d1579-14" x="120" y="30.7"/>
          <use xlink:href="#img-e65d1579-14" x="120" y="32.59"/>
          <use xlink:href="#img-e65d1579-14" x="120" y="34.95"/>
          <use xlink:href="#img-e65d1579-14" x="120" y="34.9"/>
          <use xlink:href="#img-e65d1579-14" x="120" y="32.61"/>
          <use xlink:href="#img-e65d1579-14" x="120" y="41.94"/>
          <use xlink:href="#img-e65d1579-14" x="120" y="31.21"/>
          <use xlink:href="#img-e65d1579-14" x="120" y="33.63"/>
          <use xlink:href="#img-e65d1579-14" x="120" y="23.81"/>
          <use xlink:href="#img-e65d1579-14" x="120" y="24.03"/>
          <use xlink:href="#img-e65d1579-14" x="120" y="31.34"/>
          <use xlink:href="#img-e65d1579-14" x="120" y="34.27"/>
          <use xlink:href="#img-e65d1579-14" x="120" y="44.64"/>
          <use xlink:href="#img-e65d1579-14" x="120" y="31.47"/>
          <use xlink:href="#img-e65d1579-14" x="120" y="34.71"/>
          <use xlink:href="#img-e65d1579-14" x="120" y="32.15"/>
          <use xlink:href="#img-e65d1579-14" x="120" y="22.96"/>
          <use xlink:href="#img-e65d1579-14" x="120" y="20.85"/>
          <use xlink:href="#img-e65d1579-14" x="120" y="40.23"/>
          <use xlink:href="#img-e65d1579-14" x="120" y="33.79"/>
          <use xlink:href="#img-e65d1579-14" x="120" y="22.91"/>
          <use xlink:href="#img-e65d1579-14" x="120" y="26.07"/>
          <use xlink:href="#img-e65d1579-14" x="120" y="29.39"/>
          <use xlink:href="#img-e65d1579-14" x="120" y="36.89"/>
          <use xlink:href="#img-e65d1579-14" x="120" y="39.14"/>
          <use xlink:href="#img-e65d1579-14" x="120" y="30.01"/>
          <use xlink:href="#img-e65d1579-14" x="120" y="31.61"/>
          <use xlink:href="#img-e65d1579-14" x="120" y="33.82"/>
          <use xlink:href="#img-e65d1579-14" x="120" y="27.69"/>
          <use xlink:href="#img-e65d1579-14" x="120" y="32.02"/>
          <use xlink:href="#img-e65d1579-14" x="120" y="28.95"/>
          <use xlink:href="#img-e65d1579-14" x="120" y="28.96"/>
          <use xlink:href="#img-e65d1579-14" x="120" y="23.26"/>
          <use xlink:href="#img-e65d1579-14" x="120" y="23.14"/>
          <use xlink:href="#img-e65d1579-14" x="120" y="39.13"/>
          <use xlink:href="#img-e65d1579-14" x="120" y="38.27"/>
          <use xlink:href="#img-e65d1579-14" x="120" y="35.1"/>
          <use xlink:href="#img-e65d1579-14" x="120" y="37.23"/>
          <use xlink:href="#img-e65d1579-14" x="120" y="25.54"/>
          <use xlink:href="#img-e65d1579-14" x="120" y="29.87"/>
          <use xlink:href="#img-e65d1579-14" x="120" y="36.37"/>
          <use xlink:href="#img-e65d1579-14" x="120" y="33.75"/>
          <use xlink:href="#img-e65d1579-14" x="120" y="36.95"/>
          <use xlink:href="#img-e65d1579-14" x="120" y="27.72"/>
          <use xlink:href="#img-e65d1579-14" x="120" y="34.69"/>
          <use xlink:href="#img-e65d1579-14" x="120" y="31.83"/>
          <use xlink:href="#img-e65d1579-14" x="120" y="18.72"/>
          <use xlink:href="#img-e65d1579-14" x="120" y="27.55"/>
          <use xlink:href="#img-e65d1579-14" x="120" y="32.75"/>
          <use xlink:href="#img-e65d1579-14" x="120" y="26.15"/>
          <use xlink:href="#img-e65d1579-14" x="120" y="35.97"/>
          <use xlink:href="#img-e65d1579-14" x="120" y="28.89"/>
          <use xlink:href="#img-e65d1579-14" x="120" y="38.26"/>
          <use xlink:href="#img-e65d1579-14" x="120" y="31.7"/>
          <use xlink:href="#img-e65d1579-14" x="120" y="37.25"/>
          <use xlink:href="#img-e65d1579-14" x="120" y="40.09"/>
          <use xlink:href="#img-e65d1579-14" x="120" y="32.09"/>
          <use xlink:href="#img-e65d1579-14" x="120" y="32.25"/>
          <use xlink:href="#img-e65d1579-14" x="120" y="19.42"/>
          <use xlink:href="#img-e65d1579-14" x="120" y="25.57"/>
          <use xlink:href="#img-e65d1579-14" x="120" y="31.29"/>
          <use xlink:href="#img-e65d1579-14" x="120" y="46.53"/>
          <use xlink:href="#img-e65d1579-14" x="120" y="40.4"/>
          <use xlink:href="#img-e65d1579-14" x="120" y="27.44"/>
          <use xlink:href="#img-e65d1579-14" x="120" y="28.39"/>
          <use xlink:href="#img-e65d1579-14" x="120" y="29.36"/>
          <use xlink:href="#img-e65d1579-14" x="120" y="27.62"/>
          <use xlink:href="#img-e65d1579-14" x="120" y="24.06"/>
          <use xlink:href="#img-e65d1579-14" x="120" y="24.26"/>
          <use xlink:href="#img-e65d1579-14" x="120" y="21.71"/>
          <use xlink:href="#img-e65d1579-14" x="120" y="31.2"/>
          <use xlink:href="#img-e65d1579-14" x="120" y="32.14"/>
          <use xlink:href="#img-e65d1579-14" x="120" y="38.55"/>
          <use xlink:href="#img-e65d1579-14" x="120" y="30.69"/>
          <use xlink:href="#img-e65d1579-14" x="120" y="20.33"/>
          <use xlink:href="#img-e65d1579-14" x="120" y="25.86"/>
          <use xlink:href="#img-e65d1579-14" x="120" y="29.13"/>
        </g>
      </g>
    </g>
  </g>
</g>
  <g class="guide ylabels" font-size="2.82" font-family="'PT Sans Caption','Helvetica Neue','Helvetica',sans-serif" fill="#6C606B" id="img-e65d1579-15">
    <text x="14.89" y="54.91" text-anchor="end" dy="0.35em">-4</text>
    <text x="14.89" y="42.94" text-anchor="end" dy="0.35em">-2</text>
    <text x="14.89" y="30.96" text-anchor="end" dy="0.35em">0</text>
    <text x="14.89" y="18.98" text-anchor="end" dy="0.35em">2</text>
    <text x="14.89" y="7" text-anchor="end" dy="0.35em">4</text>
  </g>
  <g font-size="3.88" font-family="'PT Sans','Helvetica Neue','Helvetica',sans-serif" fill="#564A55" stroke="#000000" stroke-opacity="0.000" id="img-e65d1579-16">
    <text x="9.1" y="30.96" text-anchor="end" dy="0.35em">b</text>
  </g>
</g>
<defs>
  <clipPath id="img-e65d1579-4">
  <path d="M15.89,5 L 122 5 122 56.91 15.89 56.91" />
</clipPath>
  <g id="img-e65d1579-14">
    <circle cx="0" cy="0" r="0.9"/>
  </g>
</defs>
</svg>
