<?xml version="1.0" encoding="UTF-8"?>
<svg xmlns="http://www.w3.org/2000/svg"
     xmlns:xlink="http://www.w3.org/1999/xlink"
     xmlns:gadfly="http://www.gadflyjl.org/ns"
     version="1.2"
     width="152.4mm" height="101.6mm" viewBox="0 0 152.4 101.6"
     stroke="none"
     fill="#000000"
     stroke-width="0.3"
     font-size="3.88"
>
<g class="plotroot xscalable yscalable" id="img-b48f46ef-1">
  <g font-size="3.88" font-family="'PT Sans','Helvetica Neue','Helvetica',sans-serif" fill="#564A55" stroke="#000000" stroke-opacity="0.000" id="img-b48f46ef-2">
    <text x="78.87" y="89.99" text-anchor="middle" dy="0.6em">phi</text>
  </g>
  <g class="guide xlabels" font-size="2.82" font-family="'PT Sans Caption','Helvetica Neue','Helvetica',sans-serif" fill="#6C606B" id="img-b48f46ef-3">
    <text x="12.35" y="83.32" text-anchor="middle" dy="0.6em">0.45</text>
    <text x="28.98" y="83.32" text-anchor="middle" dy="0.6em">0.46</text>
    <text x="45.61" y="83.32" text-anchor="middle" dy="0.6em">0.47</text>
    <text x="62.24" y="83.32" text-anchor="middle" dy="0.6em">0.48</text>
    <text x="78.87" y="83.32" text-anchor="middle" dy="0.6em">0.49</text>
    <text x="95.5" y="83.32" text-anchor="middle" dy="0.6em">0.50</text>
    <text x="112.14" y="83.32" text-anchor="middle" dy="0.6em">0.51</text>
    <text x="128.77" y="83.32" text-anchor="middle" dy="0.6em">0.52</text>
    <text x="145.4" y="83.32" text-anchor="middle" dy="0.6em">0.53</text>
  </g>
<g clip-path="url(#img-b48f46ef-4)">
  <g id="img-b48f46ef-5">
    <g pointer-events="visible" opacity="1" fill="#000000" fill-opacity="0.000" stroke="#000000" stroke-opacity="0.000" class="guide background" id="img-b48f46ef-6">
      <rect x="10.35" y="5" width="137.05" height="77.32"/>
    </g>
    <g class="guide ygridlines xfixed" stroke-dasharray="0.5,0.5" stroke-width="0.2" stroke="#D0D0E0" id="img-b48f46ef-7">
      <path fill="none" d="M10.35,80.32 L 147.4 80.32"/>
      <path fill="none" d="M10.35,65.65 L 147.4 65.65"/>
      <path fill="none" d="M10.35,50.99 L 147.4 50.99"/>
      <path fill="none" d="M10.35,36.33 L 147.4 36.33"/>
      <path fill="none" d="M10.35,21.66 L 147.4 21.66"/>
      <path fill="none" d="M10.35,7 L 147.4 7"/>
    </g>
    <g class="guide xgridlines yfixed" stroke-dasharray="0.5,0.5" stroke-width="0.2" stroke="#D0D0E0" id="img-b48f46ef-8">
      <path fill="none" d="M12.35,5 L 12.35 82.32"/>
      <path fill="none" d="M28.98,5 L 28.98 82.32"/>
      <path fill="none" d="M45.61,5 L 45.61 82.32"/>
      <path fill="none" d="M62.24,5 L 62.24 82.32"/>
      <path fill="none" d="M78.87,5 L 78.87 82.32"/>
      <path fill="none" d="M95.5,5 L 95.5 82.32"/>
      <path fill="none" d="M112.14,5 L 112.14 82.32"/>
      <path fill="none" d="M128.77,5 L 128.77 82.32"/>
      <path fill="none" d="M145.4,5 L 145.4 82.32"/>
    </g>
    <g class="plotpanel" id="img-b48f46ef-9">
      <g stroke-width="0.3" fill="#000000" fill-opacity="0.000" class="geometry" stroke-dasharray="none" stroke="#00BFFF" id="img-b48f46ef-10">
        <path fill="none" d="M21.67,80.31 L 22.08 80.31 22.49 80.31 22.91 80.31 23.32 80.31 23.74 80.31 24.15 80.31 24.56 80.31 24.98 80.31 25.39 80.31 25.8 80.3 26.22 80.29 26.63 80.28 27.05 80.27 27.46 80.26 27.87 80.24 28.29 80.23 28.7 80.21 29.11 80.19 29.53 80.18 29.94 80.16 30.36 80.15 30.77 80.14 31.18 80.13 31.6 80.12 32.01 80.12 32.42 80.12 32.84 80.12 33.25 80.12 33.66 80.12 34.08 80.12 34.49 80.11 34.91 80.1 35.32 80.09 35.73 80.07 36.15 80.04 36.56 80 36.97 79.96 37.39 79.92 37.8 79.87 38.22 79.82 38.63 79.77 39.04 79.72 39.46 79.67 39.87 79.61 40.28 79.55 40.7 79.48 41.11 79.41 41.53 79.32 41.94 79.22 42.35 79.11 42.77 78.98 43.18 78.84 43.59 78.67 44.01 78.49 44.42 78.29 44.83 78.06 45.25 77.83 45.66 77.58 46.08 77.34 46.49 77.1 46.9 76.87 47.32 76.66 47.73 76.46 48.14 76.27 48.56 76.09 48.97 75.91 49.39 75.73 49.8 75.53 50.21 75.31 50.63 75.06 51.04 74.79 51.45 74.5 51.87 74.17 52.28 73.8 52.7 73.4 53.11 72.95 53.52 72.45 53.94 71.9 54.35 71.3 54.76 70.64 55.18 69.93 55.59 69.18 56 68.4 56.42 67.57 56.83 66.73 57.25 65.85 57.66 64.96 58.07 64.05 58.49 63.13 58.9 62.2 59.31 61.26 59.73 60.3 60.14 59.33 60.56 58.35 60.97 57.36 61.38 56.36 61.8 55.35 62.21 54.33 62.62 53.3 63.04 52.27 63.45 51.23 63.87 50.19 64.28 49.14 64.69 48.09 65.11 47.05 65.52 46.01 65.93 44.97 66.35 43.94 66.76 42.9 67.17 41.86 67.59 40.8 68 39.72 68.42 38.6 68.83 37.45 69.24 36.27 69.66 35.06 70.07 33.84 70.48 32.62 70.9 31.41 71.31 30.24 71.73 29.1 72.14 28.02 72.55 27 72.97 26.03 73.38 25.11 73.79 24.22 74.21 23.35 74.62 22.5 75.04 21.66 75.45 20.82 75.86 19.99 76.28 19.18 76.69 18.39 77.1 17.65 77.52 16.95 77.93 16.3 78.34 15.72 78.76 15.19 79.17 14.72 79.59 14.3 80 13.9 80.41 13.52 80.83 13.14 81.24 12.77 81.65 12.39 82.07 12.04 82.48 11.74 82.9 11.51 83.31 11.4 83.72 11.43 84.14 11.63 84.55 12.01 84.96 12.56 85.38 13.24 85.79 14.03 86.2 14.88 86.62 15.73 87.03 16.55 87.45 17.3 87.86 17.97 88.27 18.56 88.69 19.1 89.1 19.61 89.51 20.14 89.93 20.71 90.34 21.37 90.76 22.12 91.17 22.98 91.58 23.93 92 24.96 92.41 26.05 92.82 27.18 93.24 28.32 93.65 29.48 94.07 30.62 94.48 31.77 94.89 32.91 95.31 34.05 95.72 35.2 96.13 36.38 96.55 37.59 96.96 38.84 97.37 40.12 97.79 41.44 98.2 42.79 98.62 44.15 99.03 45.51 99.44 46.85 99.86 48.16 100.27 49.42 100.68 50.63 101.1 51.79 101.51 52.91 101.93 53.98 102.34 55.03 102.75 56.06 103.17 57.08 103.58 58.1 103.99 59.11 104.41 60.12 104.82 61.11 105.24 62.08 105.65 63.02 106.06 63.92 106.48 64.79 106.89 65.61 107.3 66.37 107.72 67.08 108.13 67.73 108.54 68.32 108.96 68.85 109.37 69.33 109.79 69.77 110.2 70.17 110.61 70.54 111.03 70.91 111.44 71.28 111.85 71.66 112.27 72.04 112.68 72.45 113.1 72.86 113.51 73.29 113.92 73.71 114.34 74.13 114.75 74.54 115.16 74.92 115.58 75.28 115.99 75.6 116.41 75.88 116.82 76.14 117.23 76.36 117.65 76.55 118.06 76.73 118.47 76.89 118.89 77.06 119.3 77.23 119.71 77.41 120.13 77.59 120.54 77.79 120.96 78 121.37 78.21 121.78 78.42 122.2 78.62 122.61 78.82 123.02 79 123.44 79.16 123.85 79.31 124.27 79.44 124.68 79.55 125.09 79.64 125.51 79.71 125.92 79.77 126.33 79.82 126.75 79.85 127.16 79.88 127.58 79.91 127.99 79.93 128.4 79.96 128.82 79.98 129.23 80.01 129.64 80.04 130.06 80.07 130.47 80.1 130.88 80.14 131.3 80.17 131.71 80.2 132.13 80.23 132.54 80.25 132.95 80.27 133.37 80.28 133.78 80.28 134.19 80.29 134.61 80.29 135.02 80.28 135.44 80.28 135.85 80.28 136.26 80.27 136.68 80.27 137.09 80.27 137.5 80.27 137.92 80.27 138.33 80.27 138.75 80.28 139.16 80.28 139.57 80.29 139.99 80.3 140.4 80.3 140.81 80.3 141.23 80.31 141.64 80.31 142.05 80.31 142.47 80.31 142.88 80.31 143.3 80.31 143.71 80.31 144.12 80.31 144.54 80.31 144.95 80.31 145.36 80.31"/>
      </g>
    </g>
  </g>
</g>
  <g class="guide ylabels" font-size="2.82" font-family="'PT Sans Caption','Helvetica Neue','Helvetica',sans-serif" fill="#6C606B" id="img-b48f46ef-11">
    <text x="9.35" y="80.32" text-anchor="end" dy="0.35em">0</text>
    <text x="9.35" y="65.65" text-anchor="end" dy="0.35em">10</text>
    <text x="9.35" y="50.99" text-anchor="end" dy="0.35em">20</text>
    <text x="9.35" y="36.33" text-anchor="end" dy="0.35em">30</text>
    <text x="9.35" y="21.66" text-anchor="end" dy="0.35em">40</text>
    <text x="9.35" y="7" text-anchor="end" dy="0.35em">50</text>
  </g>
</g>
<defs>
  <clipPath id="img-b48f46ef-4">
  <path d="M10.35,5 L 147.4 5 147.4 82.32 10.35 82.32" />
</clipPath>
</defs>
</svg>
