<?xml version="1.0" encoding="utf-8"?>
<svg xmlns="http://www.w3.org/2000/svg" xmlns:xlink="http://www.w3.org/1999/xlink" width="600" height="400" viewBox="0 0 2400 1600">
<defs>
  <clipPath id="clip4400">
    <rect x="0" y="0" width="2400" height="1600"/>
  </clipPath>
</defs>
<polygon clip-path="url(#clip4400)" points="
0,1600 2400,1600 2400,0 0,0 
  " fill="#ffffff" fill-rule="evenodd" fill-opacity="1"/>
<defs>
  <clipPath id="clip4401">
    <rect x="480" y="0" width="1681" height="1600"/>
  </clipPath>
</defs>
<polygon clip-path="url(#clip4400)" points="
215.754,1487.47 2352.76,1487.47 2352.76,47.2441 215.754,47.2441 
  " fill="#ffffff" fill-rule="evenodd" fill-opacity="1"/>
<defs>
  <clipPath id="clip4402">
    <rect x="215" y="47" width="2138" height="1441"/>
  </clipPath>
</defs>
<polyline clip-path="url(#clip4402)" style="stroke:#000000; stroke-width:2; stroke-opacity:0.1; fill:none" points="
  533.496,1487.47 533.496,47.2441 
  "/>
<polyline clip-path="url(#clip4402)" style="stroke:#000000; stroke-width:2; stroke-opacity:0.1; fill:none" points="
  1034,1487.47 1034,47.2441 
  "/>
<polyline clip-path="url(#clip4402)" style="stroke:#000000; stroke-width:2; stroke-opacity:0.1; fill:none" points="
  1534.51,1487.47 1534.51,47.2441 
  "/>
<polyline clip-path="url(#clip4402)" style="stroke:#000000; stroke-width:2; stroke-opacity:0.1; fill:none" points="
  2035.01,1487.47 2035.01,47.2441 
  "/>
<polyline clip-path="url(#clip4402)" style="stroke:#000000; stroke-width:2; stroke-opacity:0.1; fill:none" points="
  215.754,1446.71 2352.76,1446.71 
  "/>
<polyline clip-path="url(#clip4402)" style="stroke:#000000; stroke-width:2; stroke-opacity:0.1; fill:none" points="
  215.754,1149.82 2352.76,1149.82 
  "/>
<polyline clip-path="url(#clip4402)" style="stroke:#000000; stroke-width:2; stroke-opacity:0.1; fill:none" points="
  215.754,852.92 2352.76,852.92 
  "/>
<polyline clip-path="url(#clip4402)" style="stroke:#000000; stroke-width:2; stroke-opacity:0.1; fill:none" points="
  215.754,556.023 2352.76,556.023 
  "/>
<polyline clip-path="url(#clip4402)" style="stroke:#000000; stroke-width:2; stroke-opacity:0.1; fill:none" points="
  215.754,259.127 2352.76,259.127 
  "/>
<polyline clip-path="url(#clip4400)" style="stroke:#000000; stroke-width:4; stroke-opacity:1; fill:none" points="
  215.754,1487.47 2352.76,1487.47 
  "/>
<polyline clip-path="url(#clip4400)" style="stroke:#000000; stroke-width:4; stroke-opacity:1; fill:none" points="
  215.754,1487.47 215.754,47.2441 
  "/>
<polyline clip-path="url(#clip4400)" style="stroke:#000000; stroke-width:4; stroke-opacity:1; fill:none" points="
  533.496,1487.47 533.496,1465.87 
  "/>
<polyline clip-path="url(#clip4400)" style="stroke:#000000; stroke-width:4; stroke-opacity:1; fill:none" points="
  1034,1487.47 1034,1465.87 
  "/>
<polyline clip-path="url(#clip4400)" style="stroke:#000000; stroke-width:4; stroke-opacity:1; fill:none" points="
  1534.51,1487.47 1534.51,1465.87 
  "/>
<polyline clip-path="url(#clip4400)" style="stroke:#000000; stroke-width:4; stroke-opacity:1; fill:none" points="
  2035.01,1487.47 2035.01,1465.87 
  "/>
<polyline clip-path="url(#clip4400)" style="stroke:#000000; stroke-width:4; stroke-opacity:1; fill:none" points="
  215.754,1446.71 247.809,1446.71 
  "/>
<polyline clip-path="url(#clip4400)" style="stroke:#000000; stroke-width:4; stroke-opacity:1; fill:none" points="
  215.754,1149.82 247.809,1149.82 
  "/>
<polyline clip-path="url(#clip4400)" style="stroke:#000000; stroke-width:4; stroke-opacity:1; fill:none" points="
  215.754,852.92 247.809,852.92 
  "/>
<polyline clip-path="url(#clip4400)" style="stroke:#000000; stroke-width:4; stroke-opacity:1; fill:none" points="
  215.754,556.023 247.809,556.023 
  "/>
<polyline clip-path="url(#clip4400)" style="stroke:#000000; stroke-width:4; stroke-opacity:1; fill:none" points="
  215.754,259.127 247.809,259.127 
  "/>
<g clip-path="url(#clip4400)">
<text style="fill:#000000; fill-opacity:1; font-family:Arial,Helvetica Neue,Helvetica,sans-serif; font-size:48px; text-anchor:middle;" transform="rotate(0, 533.496, 1541.47)" x="533.496" y="1541.47">SGLD</text>
</g>
<g clip-path="url(#clip4400)">
<text style="fill:#000000; fill-opacity:1; font-family:Arial,Helvetica Neue,Helvetica,sans-serif; font-size:48px; text-anchor:middle;" transform="rotate(0, 1034, 1541.47)" x="1034" y="1541.47">HMC</text>
</g>
<g clip-path="url(#clip4400)">
<text style="fill:#000000; fill-opacity:1; font-family:Arial,Helvetica Neue,Helvetica,sans-serif; font-size:48px; text-anchor:middle;" transform="rotate(0, 1534.51, 1541.47)" x="1534.51" y="1541.47">MH</text>
</g>
<g clip-path="url(#clip4400)">
<text style="fill:#000000; fill-opacity:1; font-family:Arial,Helvetica Neue,Helvetica,sans-serif; font-size:48px; text-anchor:middle;" transform="rotate(0, 2035.01, 1541.47)" x="2035.01" y="1541.47">NUTS</text>
</g>
<g clip-path="url(#clip4400)">
<text style="fill:#000000; fill-opacity:1; font-family:Arial,Helvetica Neue,Helvetica,sans-serif; font-size:48px; text-anchor:end;" transform="rotate(0, 191.754, 1464.21)" x="191.754" y="1464.21">0.0</text>
</g>
<g clip-path="url(#clip4400)">
<text style="fill:#000000; fill-opacity:1; font-family:Arial,Helvetica Neue,Helvetica,sans-serif; font-size:48px; text-anchor:end;" transform="rotate(0, 191.754, 1167.32)" x="191.754" y="1167.32">0.1</text>
</g>
<g clip-path="url(#clip4400)">
<text style="fill:#000000; fill-opacity:1; font-family:Arial,Helvetica Neue,Helvetica,sans-serif; font-size:48px; text-anchor:end;" transform="rotate(0, 191.754, 870.42)" x="191.754" y="870.42">0.2</text>
</g>
<g clip-path="url(#clip4400)">
<text style="fill:#000000; fill-opacity:1; font-family:Arial,Helvetica Neue,Helvetica,sans-serif; font-size:48px; text-anchor:end;" transform="rotate(0, 191.754, 573.523)" x="191.754" y="573.523">0.3</text>
</g>
<g clip-path="url(#clip4400)">
<text style="fill:#000000; fill-opacity:1; font-family:Arial,Helvetica Neue,Helvetica,sans-serif; font-size:48px; text-anchor:end;" transform="rotate(0, 191.754, 276.627)" x="191.754" y="276.627">0.4</text>
</g>
<g clip-path="url(#clip4400)">
<text style="fill:#000000; fill-opacity:1; font-family:Arial,Helvetica Neue,Helvetica,sans-serif; font-size:66px; text-anchor:middle;" transform="rotate(-90, 89.2861, 767.359)" x="89.2861" y="767.359">Average Time (seconds)</text>
</g>
<polygon clip-path="url(#clip4402)" points="
333.293,1216.84 333.293,1446.71 733.698,1446.71 733.698,1216.84 333.293,1216.84 333.293,1216.84 
  " fill="#009af9" fill-rule="evenodd" fill-opacity="1"/>
<polyline clip-path="url(#clip4402)" style="stroke:#000000; stroke-width:4; stroke-opacity:1; fill:none" points="
  333.293,1216.84 333.293,1446.71 733.698,1446.71 733.698,1216.84 333.293,1216.84 
  "/>
<polygon clip-path="url(#clip4402)" points="
833.799,88.0053 833.799,1446.71 1234.2,1446.71 1234.2,88.0053 833.799,88.0053 833.799,88.0053 
  " fill="#009af9" fill-rule="evenodd" fill-opacity="1"/>
<polyline clip-path="url(#clip4402)" style="stroke:#000000; stroke-width:4; stroke-opacity:1; fill:none" points="
  833.799,88.0053 833.799,1446.71 1234.2,1446.71 1234.2,88.0053 833.799,88.0053 
  "/>
<polygon clip-path="url(#clip4402)" points="
1334.31,1005.27 1334.31,1446.71 1734.71,1446.71 1734.71,1005.27 1334.31,1005.27 1334.31,1005.27 
  " fill="#009af9" fill-rule="evenodd" fill-opacity="1"/>
<polyline clip-path="url(#clip4402)" style="stroke:#000000; stroke-width:4; stroke-opacity:1; fill:none" points="
  1334.31,1005.27 1334.31,1446.71 1734.71,1446.71 1734.71,1005.27 1334.31,1005.27 
  "/>
<polygon clip-path="url(#clip4402)" points="
1834.81,147.925 1834.81,1446.71 2235.22,1446.71 2235.22,147.925 1834.81,147.925 1834.81,147.925 
  " fill="#009af9" fill-rule="evenodd" fill-opacity="1"/>
<polyline clip-path="url(#clip4402)" style="stroke:#000000; stroke-width:4; stroke-opacity:1; fill:none" points="
  1834.81,147.925 1834.81,1446.71 2235.22,1446.71 2235.22,147.925 1834.81,147.925 
  "/>
</svg>
