<?xml version="1.0" encoding="utf-8"?>
<svg xmlns="http://www.w3.org/2000/svg" xmlns:xlink="http://www.w3.org/1999/xlink" width="600" height="400" viewBox="0 0 2400 1600">
<defs>
  <clipPath id="clip3500">
    <rect x="0" y="0" width="2000" height="2000"/>
  </clipPath>
</defs>
<defs>
  <clipPath id="clip3501">
    <rect x="0" y="0" width="2400" height="1600"/>
  </clipPath>
</defs>
<polygon clip-path="url(#clip3501)" points="
0,1600 2400,1600 2400,0 0,0 
  " fill="#ffffff" fill-rule="evenodd" fill-opacity="1"/>
<defs>
  <clipPath id="clip3502">
    <rect x="480" y="0" width="1681" height="1600"/>
  </clipPath>
</defs>
<polygon clip-path="url(#clip3501)" points="
237.767,1503.47 2321.26,1503.47 2321.26,47.2441 237.767,47.2441 
  " fill="#ffffff" fill-rule="evenodd" fill-opacity="1"/>
<defs>
  <clipPath id="clip3503">
    <rect x="237" y="47" width="2084" height="1457"/>
  </clipPath>
</defs>
<polyline clip-path="url(#clip3503)" style="stroke:#000000; stroke-width:2; stroke-opacity:0.1; fill:none" points="
  543.165,1503.47 543.165,47.2441 
  "/>
<polyline clip-path="url(#clip3503)" style="stroke:#000000; stroke-width:2; stroke-opacity:0.1; fill:none" points="
  1034.06,1503.47 1034.06,47.2441 
  "/>
<polyline clip-path="url(#clip3503)" style="stroke:#000000; stroke-width:2; stroke-opacity:0.1; fill:none" points="
  1524.96,1503.47 1524.96,47.2441 
  "/>
<polyline clip-path="url(#clip3503)" style="stroke:#000000; stroke-width:2; stroke-opacity:0.1; fill:none" points="
  2015.86,1503.47 2015.86,47.2441 
  "/>
<polyline clip-path="url(#clip3503)" style="stroke:#000000; stroke-width:2; stroke-opacity:0.1; fill:none" points="
  237.767,1462.26 2321.26,1462.26 
  "/>
<polyline clip-path="url(#clip3503)" style="stroke:#000000; stroke-width:2; stroke-opacity:0.1; fill:none" points="
  237.767,1030.34 2321.26,1030.34 
  "/>
<polyline clip-path="url(#clip3503)" style="stroke:#000000; stroke-width:2; stroke-opacity:0.1; fill:none" points="
  237.767,598.416 2321.26,598.416 
  "/>
<polyline clip-path="url(#clip3503)" style="stroke:#000000; stroke-width:2; stroke-opacity:0.1; fill:none" points="
  237.767,166.494 2321.26,166.494 
  "/>
<polyline clip-path="url(#clip3501)" style="stroke:#000000; stroke-width:4; stroke-opacity:1; fill:none" points="
  237.767,1503.47 2321.26,1503.47 
  "/>
<polyline clip-path="url(#clip3501)" style="stroke:#000000; stroke-width:4; stroke-opacity:1; fill:none" points="
  237.767,1503.47 237.767,47.2441 
  "/>
<polyline clip-path="url(#clip3501)" style="stroke:#000000; stroke-width:4; stroke-opacity:1; fill:none" points="
  543.165,1503.47 543.165,1481.63 
  "/>
<polyline clip-path="url(#clip3501)" style="stroke:#000000; stroke-width:4; stroke-opacity:1; fill:none" points="
  1034.06,1503.47 1034.06,1481.63 
  "/>
<polyline clip-path="url(#clip3501)" style="stroke:#000000; stroke-width:4; stroke-opacity:1; fill:none" points="
  1524.96,1503.47 1524.96,1481.63 
  "/>
<polyline clip-path="url(#clip3501)" style="stroke:#000000; stroke-width:4; stroke-opacity:1; fill:none" points="
  2015.86,1503.47 2015.86,1481.63 
  "/>
<polyline clip-path="url(#clip3501)" style="stroke:#000000; stroke-width:4; stroke-opacity:1; fill:none" points="
  237.767,1462.26 269.02,1462.26 
  "/>
<polyline clip-path="url(#clip3501)" style="stroke:#000000; stroke-width:4; stroke-opacity:1; fill:none" points="
  237.767,1030.34 269.02,1030.34 
  "/>
<polyline clip-path="url(#clip3501)" style="stroke:#000000; stroke-width:4; stroke-opacity:1; fill:none" points="
  237.767,598.416 269.02,598.416 
  "/>
<polyline clip-path="url(#clip3501)" style="stroke:#000000; stroke-width:4; stroke-opacity:1; fill:none" points="
  237.767,166.494 269.02,166.494 
  "/>
<g clip-path="url(#clip3501)">
<text style="fill:#000000; fill-opacity:1; font-family:Arial,Helvetica Neue,Helvetica,sans-serif; font-size:48px; text-anchor:middle;" transform="rotate(0, 543.165, 1557.47)" x="543.165" y="1557.47">SGLD</text>
</g>
<g clip-path="url(#clip3501)">
<text style="fill:#000000; fill-opacity:1; font-family:Arial,Helvetica Neue,Helvetica,sans-serif; font-size:48px; text-anchor:middle;" transform="rotate(0, 1034.06, 1557.47)" x="1034.06" y="1557.47">HMC</text>
</g>
<g clip-path="url(#clip3501)">
<text style="fill:#000000; fill-opacity:1; font-family:Arial,Helvetica Neue,Helvetica,sans-serif; font-size:48px; text-anchor:middle;" transform="rotate(0, 1524.96, 1557.47)" x="1524.96" y="1557.47">MH</text>
</g>
<g clip-path="url(#clip3501)">
<text style="fill:#000000; fill-opacity:1; font-family:Arial,Helvetica Neue,Helvetica,sans-serif; font-size:48px; text-anchor:middle;" transform="rotate(0, 2015.86, 1557.47)" x="2015.86" y="1557.47">NUTS</text>
</g>
<g clip-path="url(#clip3501)">
<text style="fill:#000000; fill-opacity:1; font-family:Arial,Helvetica Neue,Helvetica,sans-serif; font-size:48px; text-anchor:end;" transform="rotate(0, 213.767, 1479.76)" x="213.767" y="1479.76">0</text>
</g>
<g clip-path="url(#clip3501)">
<text style="fill:#000000; fill-opacity:1; font-family:Arial,Helvetica Neue,Helvetica,sans-serif; font-size:48px; text-anchor:end;" transform="rotate(0, 213.767, 1047.84)" x="213.767" y="1047.84">50</text>
</g>
<g clip-path="url(#clip3501)">
<text style="fill:#000000; fill-opacity:1; font-family:Arial,Helvetica Neue,Helvetica,sans-serif; font-size:48px; text-anchor:end;" transform="rotate(0, 213.767, 615.916)" x="213.767" y="615.916">100</text>
</g>
<g clip-path="url(#clip3501)">
<text style="fill:#000000; fill-opacity:1; font-family:Arial,Helvetica Neue,Helvetica,sans-serif; font-size:48px; text-anchor:end;" transform="rotate(0, 213.767, 183.994)" x="213.767" y="183.994">150</text>
</g>
<g clip-path="url(#clip3501)">
<text style="fill:#000000; fill-opacity:1; font-family:Arial,Helvetica Neue,Helvetica,sans-serif; font-size:66px; text-anchor:middle;" transform="rotate(-90, 57.6, 775.359)" x="57.6" y="775.359">Effective Samples per Second</text>
</g>
<polygon clip-path="url(#clip3503)" points="
346.806,880.285 346.806,1462.26 543.165,1462.26 543.165,880.285 346.806,880.285 346.806,880.285 
  " fill="#009af9" fill-rule="evenodd" fill-opacity="1"/>
<polyline clip-path="url(#clip3503)" style="stroke:#000000; stroke-width:4; stroke-opacity:1; fill:none" points="
  346.806,880.285 346.806,1462.26 543.165,1462.26 543.165,880.285 346.806,880.285 
  "/>
<polygon clip-path="url(#clip3503)" points="
837.705,189.185 837.705,1462.26 1034.06,1462.26 1034.06,189.185 837.705,189.185 837.705,189.185 
  " fill="#009af9" fill-rule="evenodd" fill-opacity="1"/>
<polyline clip-path="url(#clip3503)" style="stroke:#000000; stroke-width:4; stroke-opacity:1; fill:none" points="
  837.705,189.185 837.705,1462.26 1034.06,1462.26 1034.06,189.185 837.705,189.185 
  "/>
<polygon clip-path="url(#clip3503)" points="
1328.6,1180.38 1328.6,1462.26 1524.96,1462.26 1524.96,1180.38 1328.6,1180.38 1328.6,1180.38 
  " fill="#009af9" fill-rule="evenodd" fill-opacity="1"/>
<polyline clip-path="url(#clip3503)" style="stroke:#000000; stroke-width:4; stroke-opacity:1; fill:none" points="
  1328.6,1180.38 1328.6,1462.26 1524.96,1462.26 1524.96,1180.38 1328.6,1180.38 
  "/>
<polygon clip-path="url(#clip3503)" points="
1819.5,1378.5 1819.5,1462.26 2015.86,1462.26 2015.86,1378.5 1819.5,1378.5 1819.5,1378.5 
  " fill="#009af9" fill-rule="evenodd" fill-opacity="1"/>
<polyline clip-path="url(#clip3503)" style="stroke:#000000; stroke-width:4; stroke-opacity:1; fill:none" points="
  1819.5,1378.5 1819.5,1462.26 2015.86,1462.26 2015.86,1378.5 1819.5,1378.5 
  "/>
<polygon clip-path="url(#clip3503)" points="
543.165,914.264 543.165,1462.26 739.525,1462.26 739.525,914.264 543.165,914.264 543.165,914.264 
  " fill="#e26f46" fill-rule="evenodd" fill-opacity="1"/>
<polyline clip-path="url(#clip3503)" style="stroke:#000000; stroke-width:4; stroke-opacity:1; fill:none" points="
  543.165,914.264 543.165,1462.26 739.525,1462.26 739.525,914.264 543.165,914.264 
  "/>
<polygon clip-path="url(#clip3503)" points="
1034.06,88.4582 1034.06,1462.26 1230.42,1462.26 1230.42,88.4582 1034.06,88.4582 1034.06,88.4582 
  " fill="#e26f46" fill-rule="evenodd" fill-opacity="1"/>
<polyline clip-path="url(#clip3503)" style="stroke:#000000; stroke-width:4; stroke-opacity:1; fill:none" points="
  1034.06,88.4582 1034.06,1462.26 1230.42,1462.26 1230.42,88.4582 1034.06,88.4582 
  "/>
<polygon clip-path="url(#clip3503)" points="
1524.96,1225.12 1524.96,1462.26 1721.32,1462.26 1721.32,1225.12 1524.96,1225.12 1524.96,1225.12 
  " fill="#e26f46" fill-rule="evenodd" fill-opacity="1"/>
<polyline clip-path="url(#clip3503)" style="stroke:#000000; stroke-width:4; stroke-opacity:1; fill:none" points="
  1524.96,1225.12 1524.96,1462.26 1721.32,1462.26 1721.32,1225.12 1524.96,1225.12 
  "/>
<polygon clip-path="url(#clip3503)" points="
2015.86,1397.54 2015.86,1462.26 2212.22,1462.26 2212.22,1397.54 2015.86,1397.54 2015.86,1397.54 
  " fill="#e26f46" fill-rule="evenodd" fill-opacity="1"/>
<polyline clip-path="url(#clip3503)" style="stroke:#000000; stroke-width:4; stroke-opacity:1; fill:none" points="
  2015.86,1397.54 2015.86,1462.26 2212.22,1462.26 2212.22,1397.54 2015.86,1397.54 
  "/>
<polygon clip-path="url(#clip3501)" points="
1886.18,312.204 2249.26,312.204 2249.26,130.764 1886.18,130.764 
  " fill="#ffffff" fill-rule="evenodd" fill-opacity="1"/>
<polyline clip-path="url(#clip3501)" style="stroke:#000000; stroke-width:4; stroke-opacity:1; fill:none" points="
  1886.18,312.204 2249.26,312.204 2249.26,130.764 1886.18,130.764 1886.18,312.204 
  "/>
<polygon clip-path="url(#clip3501)" points="
1910.18,215.436 2054.18,215.436 2054.18,167.052 1910.18,167.052 1910.18,215.436 
  " fill="#009af9" fill-rule="evenodd" fill-opacity="1"/>
<polyline clip-path="url(#clip3501)" style="stroke:#000000; stroke-width:4; stroke-opacity:1; fill:none" points="
  1910.18,215.436 2054.18,215.436 2054.18,167.052 1910.18,167.052 1910.18,215.436 
  "/>
<g clip-path="url(#clip3501)">
<text style="fill:#000000; fill-opacity:1; font-family:Arial,Helvetica Neue,Helvetica,sans-serif; font-size:48px; text-anchor:start;" transform="rotate(0, 2078.18, 208.744)" x="2078.18" y="208.744">Alpha</text>
</g>
<polygon clip-path="url(#clip3501)" points="
1910.18,275.916 2054.18,275.916 2054.18,227.532 1910.18,227.532 1910.18,275.916 
  " fill="#e26f46" fill-rule="evenodd" fill-opacity="1"/>
<polyline clip-path="url(#clip3501)" style="stroke:#000000; stroke-width:4; stroke-opacity:1; fill:none" points="
  1910.18,275.916 2054.18,275.916 2054.18,227.532 1910.18,227.532 1910.18,275.916 
  "/>
<g clip-path="url(#clip3501)">
<text style="fill:#000000; fill-opacity:1; font-family:Arial,Helvetica Neue,Helvetica,sans-serif; font-size:48px; text-anchor:start;" transform="rotate(0, 2078.18, 269.224)" x="2078.18" y="269.224">Beta</text>
</g>
</svg>
