<?xml version="1.0" encoding="utf-8"?>
<svg xmlns="http://www.w3.org/2000/svg" xmlns:xlink="http://www.w3.org/1999/xlink" width="600" height="400" viewBox="0 0 2400 1600">
<defs>
  <clipPath id="clip3300">
    <rect x="0" y="0" width="2000" height="2000"/>
  </clipPath>
</defs>
<defs>
  <clipPath id="clip3301">
    <rect x="0" y="0" width="2400" height="1600"/>
  </clipPath>
</defs>
<polygon clip-path="url(#clip3301)" points="
0,1600 2400,1600 2400,0 0,0 
  " fill="#ffffff" fill-rule="evenodd" fill-opacity="1"/>
<defs>
  <clipPath id="clip3302">
    <rect x="480" y="0" width="1681" height="1600"/>
  </clipPath>
</defs>
<polygon clip-path="url(#clip3301)" points="
184.243,1503.47 2321.26,1503.47 2321.26,47.2441 184.243,47.2441 
  " fill="#ffffff" fill-rule="evenodd" fill-opacity="1"/>
<defs>
  <clipPath id="clip3303">
    <rect x="184" y="47" width="2138" height="1457"/>
  </clipPath>
</defs>
<polyline clip-path="url(#clip3303)" style="stroke:#000000; stroke-width:2; stroke-opacity:0.1; fill:none" points="
  501.986,1503.47 501.986,47.2441 
  "/>
<polyline clip-path="url(#clip3303)" style="stroke:#000000; stroke-width:2; stroke-opacity:0.1; fill:none" points="
  1002.5,1503.47 1002.5,47.2441 
  "/>
<polyline clip-path="url(#clip3303)" style="stroke:#000000; stroke-width:2; stroke-opacity:0.1; fill:none" points="
  1503.01,1503.47 1503.01,47.2441 
  "/>
<polyline clip-path="url(#clip3303)" style="stroke:#000000; stroke-width:2; stroke-opacity:0.1; fill:none" points="
  2003.52,1503.47 2003.52,47.2441 
  "/>
<polyline clip-path="url(#clip3303)" style="stroke:#000000; stroke-width:2; stroke-opacity:0.1; fill:none" points="
  184.243,1462.26 2321.26,1462.26 
  "/>
<polyline clip-path="url(#clip3303)" style="stroke:#000000; stroke-width:2; stroke-opacity:0.1; fill:none" points="
  184.243,1204.44 2321.26,1204.44 
  "/>
<polyline clip-path="url(#clip3303)" style="stroke:#000000; stroke-width:2; stroke-opacity:0.1; fill:none" points="
  184.243,946.625 2321.26,946.625 
  "/>
<polyline clip-path="url(#clip3303)" style="stroke:#000000; stroke-width:2; stroke-opacity:0.1; fill:none" points="
  184.243,688.807 2321.26,688.807 
  "/>
<polyline clip-path="url(#clip3303)" style="stroke:#000000; stroke-width:2; stroke-opacity:0.1; fill:none" points="
  184.243,430.989 2321.26,430.989 
  "/>
<polyline clip-path="url(#clip3303)" style="stroke:#000000; stroke-width:2; stroke-opacity:0.1; fill:none" points="
  184.243,173.171 2321.26,173.171 
  "/>
<polyline clip-path="url(#clip3301)" style="stroke:#000000; stroke-width:4; stroke-opacity:1; fill:none" points="
  184.243,1503.47 2321.26,1503.47 
  "/>
<polyline clip-path="url(#clip3301)" style="stroke:#000000; stroke-width:4; stroke-opacity:1; fill:none" points="
  184.243,1503.47 184.243,47.2441 
  "/>
<polyline clip-path="url(#clip3301)" style="stroke:#000000; stroke-width:4; stroke-opacity:1; fill:none" points="
  501.986,1503.47 501.986,1481.63 
  "/>
<polyline clip-path="url(#clip3301)" style="stroke:#000000; stroke-width:4; stroke-opacity:1; fill:none" points="
  1002.5,1503.47 1002.5,1481.63 
  "/>
<polyline clip-path="url(#clip3301)" style="stroke:#000000; stroke-width:4; stroke-opacity:1; fill:none" points="
  1503.01,1503.47 1503.01,1481.63 
  "/>
<polyline clip-path="url(#clip3301)" style="stroke:#000000; stroke-width:4; stroke-opacity:1; fill:none" points="
  2003.52,1503.47 2003.52,1481.63 
  "/>
<polyline clip-path="url(#clip3301)" style="stroke:#000000; stroke-width:4; stroke-opacity:1; fill:none" points="
  184.243,1462.26 216.298,1462.26 
  "/>
<polyline clip-path="url(#clip3301)" style="stroke:#000000; stroke-width:4; stroke-opacity:1; fill:none" points="
  184.243,1204.44 216.298,1204.44 
  "/>
<polyline clip-path="url(#clip3301)" style="stroke:#000000; stroke-width:4; stroke-opacity:1; fill:none" points="
  184.243,946.625 216.298,946.625 
  "/>
<polyline clip-path="url(#clip3301)" style="stroke:#000000; stroke-width:4; stroke-opacity:1; fill:none" points="
  184.243,688.807 216.298,688.807 
  "/>
<polyline clip-path="url(#clip3301)" style="stroke:#000000; stroke-width:4; stroke-opacity:1; fill:none" points="
  184.243,430.989 216.298,430.989 
  "/>
<polyline clip-path="url(#clip3301)" style="stroke:#000000; stroke-width:4; stroke-opacity:1; fill:none" points="
  184.243,173.171 216.298,173.171 
  "/>
<g clip-path="url(#clip3301)">
<text style="fill:#000000; fill-opacity:1; font-family:Arial,Helvetica Neue,Helvetica,sans-serif; font-size:48px; text-anchor:middle;" transform="rotate(0, 501.986, 1557.47)" x="501.986" y="1557.47">SGLD</text>
</g>
<g clip-path="url(#clip3301)">
<text style="fill:#000000; fill-opacity:1; font-family:Arial,Helvetica Neue,Helvetica,sans-serif; font-size:48px; text-anchor:middle;" transform="rotate(0, 1002.5, 1557.47)" x="1002.5" y="1557.47">HMC</text>
</g>
<g clip-path="url(#clip3301)">
<text style="fill:#000000; fill-opacity:1; font-family:Arial,Helvetica Neue,Helvetica,sans-serif; font-size:48px; text-anchor:middle;" transform="rotate(0, 1503.01, 1557.47)" x="1503.01" y="1557.47">MH</text>
</g>
<g clip-path="url(#clip3301)">
<text style="fill:#000000; fill-opacity:1; font-family:Arial,Helvetica Neue,Helvetica,sans-serif; font-size:48px; text-anchor:middle;" transform="rotate(0, 2003.52, 1557.47)" x="2003.52" y="1557.47">NUTS</text>
</g>
<g clip-path="url(#clip3301)">
<text style="fill:#000000; fill-opacity:1; font-family:Arial,Helvetica Neue,Helvetica,sans-serif; font-size:48px; text-anchor:end;" transform="rotate(0, 160.243, 1479.76)" x="160.243" y="1479.76">0</text>
</g>
<g clip-path="url(#clip3301)">
<text style="fill:#000000; fill-opacity:1; font-family:Arial,Helvetica Neue,Helvetica,sans-serif; font-size:48px; text-anchor:end;" transform="rotate(0, 160.243, 1221.94)" x="160.243" y="1221.94">1</text>
</g>
<g clip-path="url(#clip3301)">
<text style="fill:#000000; fill-opacity:1; font-family:Arial,Helvetica Neue,Helvetica,sans-serif; font-size:48px; text-anchor:end;" transform="rotate(0, 160.243, 964.125)" x="160.243" y="964.125">2</text>
</g>
<g clip-path="url(#clip3301)">
<text style="fill:#000000; fill-opacity:1; font-family:Arial,Helvetica Neue,Helvetica,sans-serif; font-size:48px; text-anchor:end;" transform="rotate(0, 160.243, 706.307)" x="160.243" y="706.307">3</text>
</g>
<g clip-path="url(#clip3301)">
<text style="fill:#000000; fill-opacity:1; font-family:Arial,Helvetica Neue,Helvetica,sans-serif; font-size:48px; text-anchor:end;" transform="rotate(0, 160.243, 448.489)" x="160.243" y="448.489">4</text>
</g>
<g clip-path="url(#clip3301)">
<text style="fill:#000000; fill-opacity:1; font-family:Arial,Helvetica Neue,Helvetica,sans-serif; font-size:48px; text-anchor:end;" transform="rotate(0, 160.243, 190.671)" x="160.243" y="190.671">5</text>
</g>
<g clip-path="url(#clip3301)">
<text style="fill:#000000; fill-opacity:1; font-family:Arial,Helvetica Neue,Helvetica,sans-serif; font-size:66px; text-anchor:middle;" transform="rotate(-90, 57.6, 775.359)" x="57.6" y="775.359">Average Time (seconds)</text>
</g>
<polygon clip-path="url(#clip3303)" points="
301.782,1376.17 301.782,1462.26 702.19,1462.26 702.19,1376.17 301.782,1376.17 301.782,1376.17 
  " fill="#009af9" fill-rule="evenodd" fill-opacity="1"/>
<polyline clip-path="url(#clip3303)" style="stroke:#000000; stroke-width:4; stroke-opacity:1; fill:none" points="
  301.782,1376.17 301.782,1462.26 702.19,1462.26 702.19,1376.17 301.782,1376.17 
  "/>
<polygon clip-path="url(#clip3303)" points="
802.292,719.14 802.292,1462.26 1202.7,1462.26 1202.7,719.14 802.292,719.14 802.292,719.14 
  " fill="#009af9" fill-rule="evenodd" fill-opacity="1"/>
<polyline clip-path="url(#clip3303)" style="stroke:#000000; stroke-width:4; stroke-opacity:1; fill:none" points="
  802.292,719.14 802.292,1462.26 1202.7,1462.26 1202.7,719.14 802.292,719.14 
  "/>
<polygon clip-path="url(#clip3303)" points="
1302.8,1374.7 1302.8,1462.26 1703.21,1462.26 1703.21,1374.7 1302.8,1374.7 1302.8,1374.7 
  " fill="#009af9" fill-rule="evenodd" fill-opacity="1"/>
<polyline clip-path="url(#clip3303)" style="stroke:#000000; stroke-width:4; stroke-opacity:1; fill:none" points="
  1302.8,1374.7 1302.8,1462.26 1703.21,1462.26 1703.21,1374.7 1302.8,1374.7 
  "/>
<polygon clip-path="url(#clip3303)" points="
1803.31,88.4582 1803.31,1462.26 2203.72,1462.26 2203.72,88.4582 1803.31,88.4582 1803.31,88.4582 
  " fill="#009af9" fill-rule="evenodd" fill-opacity="1"/>
<polyline clip-path="url(#clip3303)" style="stroke:#000000; stroke-width:4; stroke-opacity:1; fill:none" points="
  1803.31,88.4582 1803.31,1462.26 2203.72,1462.26 2203.72,88.4582 1803.31,88.4582 
  "/>
</svg>
