<?xml version="1.0" encoding="utf-8"?>
<svg xmlns="http://www.w3.org/2000/svg" xmlns:xlink="http://www.w3.org/1999/xlink" width="600" height="400" viewBox="0 0 2400 1600">
<defs>
  <clipPath id="clip600">
    <rect x="0" y="0" width="2400" height="1600"/>
  </clipPath>
</defs>
<path clip-path="url(#clip600)" d="
M0 1600 L2400 1600 L2400 0 L0 0  Z
  " fill="#ffffff" fill-rule="evenodd" fill-opacity="1"/>
<defs>
  <clipPath id="clip601">
    <rect x="480" y="0" width="1681" height="1600"/>
  </clipPath>
</defs>
<path clip-path="url(#clip600)" d="
M179.654 1486.45 L2352.76 1486.45 L2352.76 47.2441 L179.654 47.2441  Z
  " fill="#ffffff" fill-rule="evenodd" fill-opacity="1"/>
<defs>
  <clipPath id="clip602">
    <rect x="179" y="47" width="2174" height="1440"/>
  </clipPath>
</defs>
<polyline clip-path="url(#clip602)" style="stroke:#000000; stroke-width:2; stroke-opacity:0.1; fill:none" points="
  241.157,1486.45 241.157,47.2441 
  "/>
<polyline clip-path="url(#clip602)" style="stroke:#000000; stroke-width:2; stroke-opacity:0.1; fill:none" points="
  582.839,1486.45 582.839,47.2441 
  "/>
<polyline clip-path="url(#clip602)" style="stroke:#000000; stroke-width:2; stroke-opacity:0.1; fill:none" points="
  924.522,1486.45 924.522,47.2441 
  "/>
<polyline clip-path="url(#clip602)" style="stroke:#000000; stroke-width:2; stroke-opacity:0.1; fill:none" points="
  1266.2,1486.45 1266.2,47.2441 
  "/>
<polyline clip-path="url(#clip602)" style="stroke:#000000; stroke-width:2; stroke-opacity:0.1; fill:none" points="
  1607.89,1486.45 1607.89,47.2441 
  "/>
<polyline clip-path="url(#clip602)" style="stroke:#000000; stroke-width:2; stroke-opacity:0.1; fill:none" points="
  1949.57,1486.45 1949.57,47.2441 
  "/>
<polyline clip-path="url(#clip602)" style="stroke:#000000; stroke-width:2; stroke-opacity:0.1; fill:none" points="
  2291.25,1486.45 2291.25,47.2441 
  "/>
<polyline clip-path="url(#clip600)" style="stroke:#000000; stroke-width:4; stroke-opacity:1; fill:none" points="
  179.654,1486.45 2352.76,1486.45 
  "/>
<polyline clip-path="url(#clip600)" style="stroke:#000000; stroke-width:4; stroke-opacity:1; fill:none" points="
  241.157,1486.45 241.157,1469.18 
  "/>
<polyline clip-path="url(#clip600)" style="stroke:#000000; stroke-width:4; stroke-opacity:1; fill:none" points="
  582.839,1486.45 582.839,1469.18 
  "/>
<polyline clip-path="url(#clip600)" style="stroke:#000000; stroke-width:4; stroke-opacity:1; fill:none" points="
  924.522,1486.45 924.522,1469.18 
  "/>
<polyline clip-path="url(#clip600)" style="stroke:#000000; stroke-width:4; stroke-opacity:1; fill:none" points="
  1266.2,1486.45 1266.2,1469.18 
  "/>
<polyline clip-path="url(#clip600)" style="stroke:#000000; stroke-width:4; stroke-opacity:1; fill:none" points="
  1607.89,1486.45 1607.89,1469.18 
  "/>
<polyline clip-path="url(#clip600)" style="stroke:#000000; stroke-width:4; stroke-opacity:1; fill:none" points="
  1949.57,1486.45 1949.57,1469.18 
  "/>
<polyline clip-path="url(#clip600)" style="stroke:#000000; stroke-width:4; stroke-opacity:1; fill:none" points="
  2291.25,1486.45 2291.25,1469.18 
  "/>
<path clip-path="url(#clip600)" d="M 0 0 M213.136 1530.29 L242.812 1530.29 L242.812 1534.23 L213.136 1534.23 L213.136 1530.29 Z" fill="#000000" fill-rule="evenodd" fill-opacity="1" /><path clip-path="url(#clip600)" d="M 0 0 M262.048 1528.49 Q265.404 1529.2 267.279 1531.47 Q269.177 1533.74 269.177 1537.07 Q269.177 1542.19 265.659 1544.99 Q262.14 1547.79 255.659 1547.79 Q253.483 1547.79 251.168 1547.35 Q248.876 1546.93 246.423 1546.08 L246.423 1541.56 Q248.367 1542.7 250.682 1543.28 Q252.997 1543.86 255.52 1543.86 Q259.918 1543.86 262.21 1542.12 Q264.524 1540.38 264.524 1537.07 Q264.524 1534.02 262.372 1532.31 Q260.242 1530.57 256.423 1530.57 L252.395 1530.57 L252.395 1526.73 L256.608 1526.73 Q260.057 1526.73 261.886 1525.36 Q263.714 1523.97 263.714 1521.38 Q263.714 1518.72 261.816 1517.31 Q259.941 1515.87 256.423 1515.87 Q254.501 1515.87 252.302 1516.29 Q250.103 1516.7 247.464 1517.58 L247.464 1513.42 Q250.126 1512.68 252.441 1512.31 Q254.779 1511.93 256.839 1511.93 Q262.163 1511.93 265.265 1514.37 Q268.367 1516.77 268.367 1520.89 Q268.367 1523.76 266.724 1525.75 Q265.08 1527.72 262.048 1528.49 Z" fill="#000000" fill-rule="evenodd" fill-opacity="1" /><path clip-path="url(#clip600)" d="M 0 0 M555.293 1530.29 L584.969 1530.29 L584.969 1534.23 L555.293 1534.23 L555.293 1530.29 Z" fill="#000000" fill-rule="evenodd" fill-opacity="1" /><path clip-path="url(#clip600)" d="M 0 0 M594.066 1543.18 L610.385 1543.18 L610.385 1547.12 L588.441 1547.12 L588.441 1543.18 Q591.103 1540.43 595.686 1535.8 Q600.293 1531.15 601.473 1529.81 Q603.719 1527.28 604.598 1525.55 Q605.501 1523.79 605.501 1522.1 Q605.501 1519.34 603.557 1517.61 Q601.635 1515.87 598.534 1515.87 Q596.335 1515.87 593.881 1516.63 Q591.45 1517.4 588.673 1518.95 L588.673 1514.23 Q591.497 1513.09 593.95 1512.51 Q596.404 1511.93 598.441 1511.93 Q603.811 1511.93 607.006 1514.62 Q610.2 1517.31 610.2 1521.8 Q610.2 1523.93 609.39 1525.85 Q608.603 1527.74 606.497 1530.34 Q605.918 1531.01 602.816 1534.23 Q599.714 1537.42 594.066 1543.18 Z" fill="#000000" fill-rule="evenodd" fill-opacity="1" /><path clip-path="url(#clip600)" d="M 0 0 M896.791 1530.29 L926.466 1530.29 L926.466 1534.23 L896.791 1534.23 L896.791 1530.29 Z" fill="#000000" fill-rule="evenodd" fill-opacity="1" /><path clip-path="url(#clip600)" d="M 0 0 M932.346 1543.18 L939.985 1543.18 L939.985 1516.82 L931.675 1518.49 L931.675 1514.23 L939.939 1512.56 L944.615 1512.56 L944.615 1543.18 L952.253 1543.18 L952.253 1547.12 L932.346 1547.12 L932.346 1543.18 Z" fill="#000000" fill-rule="evenodd" fill-opacity="1" /><path clip-path="url(#clip600)" d="M 0 0 M1266.2 1515.64 Q1262.59 1515.64 1260.77 1519.2 Q1258.96 1522.75 1258.96 1529.87 Q1258.96 1536.98 1260.77 1540.55 Q1262.59 1544.09 1266.2 1544.09 Q1269.84 1544.09 1271.64 1540.55 Q1273.47 1536.98 1273.47 1529.87 Q1273.47 1522.75 1271.64 1519.2 Q1269.84 1515.64 1266.2 1515.64 M1266.2 1511.93 Q1272.01 1511.93 1275.07 1516.54 Q1278.15 1521.12 1278.15 1529.87 Q1278.15 1538.6 1275.07 1543.21 Q1272.01 1547.79 1266.2 1547.79 Q1260.39 1547.79 1257.32 1543.21 Q1254.26 1538.6 1254.26 1529.87 Q1254.26 1521.12 1257.32 1516.54 Q1260.39 1511.93 1266.2 1511.93 Z" fill="#000000" fill-rule="evenodd" fill-opacity="1" /><path clip-path="url(#clip600)" d="M 0 0 M1598.27 1543.18 L1605.91 1543.18 L1605.91 1516.82 L1597.6 1518.49 L1597.6 1514.23 L1605.86 1512.56 L1610.54 1512.56 L1610.54 1543.18 L1618.18 1543.18 L1618.18 1547.12 L1598.27 1547.12 L1598.27 1543.18 Z" fill="#000000" fill-rule="evenodd" fill-opacity="1" /><path clip-path="url(#clip600)" d="M 0 0 M1944.22 1543.18 L1960.54 1543.18 L1960.54 1547.12 L1938.6 1547.12 L1938.6 1543.18 Q1941.26 1540.43 1945.84 1535.8 Q1950.45 1531.15 1951.63 1529.81 Q1953.88 1527.28 1954.76 1525.55 Q1955.66 1523.79 1955.66 1522.1 Q1955.66 1519.34 1953.71 1517.61 Q1951.79 1515.87 1948.69 1515.87 Q1946.49 1515.87 1944.04 1516.63 Q1941.61 1517.4 1938.83 1518.95 L1938.83 1514.23 Q1941.65 1513.09 1944.11 1512.51 Q1946.56 1511.93 1948.6 1511.93 Q1953.97 1511.93 1957.16 1514.62 Q1960.36 1517.31 1960.36 1521.8 Q1960.36 1523.93 1959.55 1525.85 Q1958.76 1527.74 1956.65 1530.34 Q1956.07 1531.01 1952.97 1534.23 Q1949.87 1537.42 1944.22 1543.18 Z" fill="#000000" fill-rule="evenodd" fill-opacity="1" /><path clip-path="url(#clip600)" d="M 0 0 M2295.5 1528.49 Q2298.86 1529.2 2300.73 1531.47 Q2302.63 1533.74 2302.63 1537.07 Q2302.63 1542.19 2299.11 1544.99 Q2295.59 1547.79 2289.11 1547.79 Q2286.94 1547.79 2284.62 1547.35 Q2282.33 1546.93 2279.88 1546.08 L2279.88 1541.56 Q2281.82 1542.7 2284.13 1543.28 Q2286.45 1543.86 2288.97 1543.86 Q2293.37 1543.86 2295.66 1542.12 Q2297.98 1540.38 2297.98 1537.07 Q2297.98 1534.02 2295.82 1532.31 Q2293.7 1530.57 2289.88 1530.57 L2285.85 1530.57 L2285.85 1526.73 L2290.06 1526.73 Q2293.51 1526.73 2295.34 1525.36 Q2297.17 1523.97 2297.17 1521.38 Q2297.17 1518.72 2295.27 1517.31 Q2293.39 1515.87 2289.88 1515.87 Q2287.95 1515.87 2285.76 1516.29 Q2283.56 1516.7 2280.92 1517.58 L2280.92 1513.42 Q2283.58 1512.68 2285.89 1512.31 Q2288.23 1511.93 2290.29 1511.93 Q2295.62 1511.93 2298.72 1514.37 Q2301.82 1516.77 2301.82 1520.89 Q2301.82 1523.76 2300.18 1525.75 Q2298.53 1527.72 2295.5 1528.49 Z" fill="#000000" fill-rule="evenodd" fill-opacity="1" /><polyline clip-path="url(#clip602)" style="stroke:#000000; stroke-width:2; stroke-opacity:0.1; fill:none" points="
  179.654,1373.79 2352.76,1373.79 
  "/>
<polyline clip-path="url(#clip602)" style="stroke:#000000; stroke-width:2; stroke-opacity:0.1; fill:none" points="
  179.654,1072.05 2352.76,1072.05 
  "/>
<polyline clip-path="url(#clip602)" style="stroke:#000000; stroke-width:2; stroke-opacity:0.1; fill:none" points="
  179.654,770.308 2352.76,770.308 
  "/>
<polyline clip-path="url(#clip602)" style="stroke:#000000; stroke-width:2; stroke-opacity:0.1; fill:none" points="
  179.654,468.565 2352.76,468.565 
  "/>
<polyline clip-path="url(#clip602)" style="stroke:#000000; stroke-width:2; stroke-opacity:0.1; fill:none" points="
  179.654,166.822 2352.76,166.822 
  "/>
<polyline clip-path="url(#clip600)" style="stroke:#000000; stroke-width:4; stroke-opacity:1; fill:none" points="
  179.654,1486.45 179.654,47.2441 
  "/>
<polyline clip-path="url(#clip600)" style="stroke:#000000; stroke-width:4; stroke-opacity:1; fill:none" points="
  179.654,1373.79 205.731,1373.79 
  "/>
<polyline clip-path="url(#clip600)" style="stroke:#000000; stroke-width:4; stroke-opacity:1; fill:none" points="
  179.654,1072.05 205.731,1072.05 
  "/>
<polyline clip-path="url(#clip600)" style="stroke:#000000; stroke-width:4; stroke-opacity:1; fill:none" points="
  179.654,770.308 205.731,770.308 
  "/>
<polyline clip-path="url(#clip600)" style="stroke:#000000; stroke-width:4; stroke-opacity:1; fill:none" points="
  179.654,468.565 205.731,468.565 
  "/>
<polyline clip-path="url(#clip600)" style="stroke:#000000; stroke-width:4; stroke-opacity:1; fill:none" points="
  179.654,166.822 205.731,166.822 
  "/>
<path clip-path="url(#clip600)" d="M 0 0 M51.2236 1374.24 L80.8994 1374.24 L80.8994 1378.18 L51.2236 1378.18 L51.2236 1374.24 Z" fill="#000000" fill-rule="evenodd" fill-opacity="1" /><path clip-path="url(#clip600)" d="M 0 0 M86.779 1387.14 L94.4178 1387.14 L94.4178 1360.77 L86.1077 1362.44 L86.1077 1358.18 L94.3715 1356.51 L99.0474 1356.51 L99.0474 1387.14 L106.686 1387.14 L106.686 1391.07 L86.779 1391.07 L86.779 1387.14 Z" fill="#000000" fill-rule="evenodd" fill-opacity="1" /><path clip-path="url(#clip600)" d="M 0 0 M111.756 1385.19 L116.64 1385.19 L116.64 1391.07 L111.756 1391.07 L111.756 1385.19 Z" fill="#000000" fill-rule="evenodd" fill-opacity="1" /><path clip-path="url(#clip600)" d="M 0 0 M131.709 1359.59 Q128.098 1359.59 126.27 1363.16 Q124.464 1366.7 124.464 1373.83 Q124.464 1380.93 126.27 1384.5 Q128.098 1388.04 131.709 1388.04 Q135.344 1388.04 137.149 1384.5 Q138.978 1380.93 138.978 1373.83 Q138.978 1366.7 137.149 1363.16 Q135.344 1359.59 131.709 1359.59 M131.709 1355.89 Q137.519 1355.89 140.575 1360.49 Q143.654 1365.08 143.654 1373.83 Q143.654 1382.55 140.575 1387.16 Q137.519 1391.74 131.709 1391.74 Q125.899 1391.74 122.82 1387.16 Q119.765 1382.55 119.765 1373.83 Q119.765 1365.08 122.82 1360.49 Q125.899 1355.89 131.709 1355.89 Z" fill="#000000" fill-rule="evenodd" fill-opacity="1" /><path clip-path="url(#clip600)" d="M 0 0 M50.9921 1072.5 L80.6679 1072.5 L80.6679 1076.44 L50.9921 1076.44 L50.9921 1072.5 Z" fill="#000000" fill-rule="evenodd" fill-opacity="1" /><path clip-path="url(#clip600)" d="M 0 0 M95.7373 1057.85 Q92.1262 1057.85 90.2975 1061.41 Q88.4919 1064.96 88.4919 1072.09 Q88.4919 1079.19 90.2975 1082.76 Q92.1262 1086.3 95.7373 1086.3 Q99.3715 1086.3 101.177 1082.76 Q103.006 1079.19 103.006 1072.09 Q103.006 1064.96 101.177 1061.41 Q99.3715 1057.85 95.7373 1057.85 M95.7373 1054.15 Q101.547 1054.15 104.603 1058.75 Q107.682 1063.34 107.682 1072.09 Q107.682 1080.81 104.603 1085.42 Q101.547 1090 95.7373 1090 Q89.9271 1090 86.8484 1085.42 Q83.7929 1080.81 83.7929 1072.09 Q83.7929 1063.34 86.8484 1058.75 Q89.9271 1054.15 95.7373 1054.15 Z" fill="#000000" fill-rule="evenodd" fill-opacity="1" /><path clip-path="url(#clip600)" d="M 0 0 M112.751 1083.45 L117.635 1083.45 L117.635 1089.33 L112.751 1089.33 L112.751 1083.45 Z" fill="#000000" fill-rule="evenodd" fill-opacity="1" /><path clip-path="url(#clip600)" d="M 0 0 M122.751 1054.77 L141.107 1054.77 L141.107 1058.71 L127.033 1058.71 L127.033 1067.18 Q128.052 1066.83 129.07 1066.67 Q130.089 1066.48 131.107 1066.48 Q136.894 1066.48 140.274 1069.65 Q143.654 1072.83 143.654 1078.24 Q143.654 1083.82 140.181 1086.92 Q136.709 1090 130.39 1090 Q128.214 1090 125.945 1089.63 Q123.7 1089.26 121.293 1088.52 L121.293 1083.82 Q123.376 1084.96 125.598 1085.51 Q127.82 1086.07 130.297 1086.07 Q134.302 1086.07 136.64 1083.96 Q138.978 1081.85 138.978 1078.24 Q138.978 1074.63 136.64 1072.52 Q134.302 1070.42 130.297 1070.42 Q128.422 1070.42 126.547 1070.84 Q124.695 1071.25 122.751 1072.13 L122.751 1054.77 Z" fill="#000000" fill-rule="evenodd" fill-opacity="1" /><path clip-path="url(#clip600)" d="M 0 0 M94.7419 756.106 Q91.1308 756.106 89.3021 759.671 Q87.4966 763.213 87.4966 770.342 Q87.4966 777.449 89.3021 781.014 Q91.1308 784.555 94.7419 784.555 Q98.3761 784.555 100.182 781.014 Q102.01 777.449 102.01 770.342 Q102.01 763.213 100.182 759.671 Q98.3761 756.106 94.7419 756.106 M94.7419 752.403 Q100.552 752.403 103.608 757.009 Q106.686 761.592 106.686 770.342 Q106.686 779.069 103.608 783.676 Q100.552 788.259 94.7419 788.259 Q88.9317 788.259 85.8531 783.676 Q82.7975 779.069 82.7975 770.342 Q82.7975 761.592 85.8531 757.009 Q88.9317 752.403 94.7419 752.403 Z" fill="#000000" fill-rule="evenodd" fill-opacity="1" /><path clip-path="url(#clip600)" d="M 0 0 M111.756 781.708 L116.64 781.708 L116.64 787.588 L111.756 787.588 L111.756 781.708 Z" fill="#000000" fill-rule="evenodd" fill-opacity="1" /><path clip-path="url(#clip600)" d="M 0 0 M131.709 756.106 Q128.098 756.106 126.27 759.671 Q124.464 763.213 124.464 770.342 Q124.464 777.449 126.27 781.014 Q128.098 784.555 131.709 784.555 Q135.344 784.555 137.149 781.014 Q138.978 777.449 138.978 770.342 Q138.978 763.213 137.149 759.671 Q135.344 756.106 131.709 756.106 M131.709 752.403 Q137.519 752.403 140.575 757.009 Q143.654 761.592 143.654 770.342 Q143.654 779.069 140.575 783.676 Q137.519 788.259 131.709 788.259 Q125.899 788.259 122.82 783.676 Q119.765 779.069 119.765 770.342 Q119.765 761.592 122.82 757.009 Q125.899 752.403 131.709 752.403 Z" fill="#000000" fill-rule="evenodd" fill-opacity="1" /><path clip-path="url(#clip600)" d="M 0 0 M95.7373 454.363 Q92.1262 454.363 90.2975 457.928 Q88.4919 461.47 88.4919 468.6 Q88.4919 475.706 90.2975 479.271 Q92.1262 482.812 95.7373 482.812 Q99.3715 482.812 101.177 479.271 Q103.006 475.706 103.006 468.6 Q103.006 461.47 101.177 457.928 Q99.3715 454.363 95.7373 454.363 M95.7373 450.66 Q101.547 450.66 104.603 455.266 Q107.682 459.85 107.682 468.6 Q107.682 477.326 104.603 481.933 Q101.547 486.516 95.7373 486.516 Q89.9271 486.516 86.8484 481.933 Q83.7929 477.326 83.7929 468.6 Q83.7929 459.85 86.8484 455.266 Q89.9271 450.66 95.7373 450.66 Z" fill="#000000" fill-rule="evenodd" fill-opacity="1" /><path clip-path="url(#clip600)" d="M 0 0 M112.751 479.965 L117.635 479.965 L117.635 485.845 L112.751 485.845 L112.751 479.965 Z" fill="#000000" fill-rule="evenodd" fill-opacity="1" /><path clip-path="url(#clip600)" d="M 0 0 M122.751 451.285 L141.107 451.285 L141.107 455.22 L127.033 455.22 L127.033 463.692 Q128.052 463.345 129.07 463.183 Q130.089 462.998 131.107 462.998 Q136.894 462.998 140.274 466.169 Q143.654 469.34 143.654 474.757 Q143.654 480.336 140.181 483.437 Q136.709 486.516 130.39 486.516 Q128.214 486.516 125.945 486.146 Q123.7 485.775 121.293 485.035 L121.293 480.336 Q123.376 481.47 125.598 482.025 Q127.82 482.581 130.297 482.581 Q134.302 482.581 136.64 480.474 Q138.978 478.368 138.978 474.757 Q138.978 471.146 136.64 469.039 Q134.302 466.933 130.297 466.933 Q128.422 466.933 126.547 467.35 Q124.695 467.766 122.751 468.646 L122.751 451.285 Z" fill="#000000" fill-rule="evenodd" fill-opacity="1" /><path clip-path="url(#clip600)" d="M 0 0 M86.779 180.167 L94.4178 180.167 L94.4178 153.801 L86.1077 155.468 L86.1077 151.209 L94.3715 149.542 L99.0474 149.542 L99.0474 180.167 L106.686 180.167 L106.686 184.102 L86.779 184.102 L86.779 180.167 Z" fill="#000000" fill-rule="evenodd" fill-opacity="1" /><path clip-path="url(#clip600)" d="M 0 0 M111.756 178.222 L116.64 178.222 L116.64 184.102 L111.756 184.102 L111.756 178.222 Z" fill="#000000" fill-rule="evenodd" fill-opacity="1" /><path clip-path="url(#clip600)" d="M 0 0 M131.709 152.621 Q128.098 152.621 126.27 156.186 Q124.464 159.727 124.464 166.857 Q124.464 173.963 126.27 177.528 Q128.098 181.07 131.709 181.07 Q135.344 181.07 137.149 177.528 Q138.978 173.963 138.978 166.857 Q138.978 159.727 137.149 156.186 Q135.344 152.621 131.709 152.621 M131.709 148.917 Q137.519 148.917 140.575 153.523 Q143.654 158.107 143.654 166.857 Q143.654 175.584 140.575 180.19 Q137.519 184.773 131.709 184.773 Q125.899 184.773 122.82 180.19 Q119.765 175.584 119.765 166.857 Q119.765 158.107 122.82 153.523 Q125.899 148.917 131.709 148.917 Z" fill="#000000" fill-rule="evenodd" fill-opacity="1" /><circle clip-path="url(#clip602)" cx="241.157" cy="1425.97" r="14" fill="#009af9" fill-rule="evenodd" fill-opacity="1" stroke="#000000" stroke-opacity="1" stroke-width="3.2"/>
<circle clip-path="url(#clip602)" cx="275.325" cy="1306.08" r="14" fill="#009af9" fill-rule="evenodd" fill-opacity="1" stroke="#000000" stroke-opacity="1" stroke-width="3.2"/>
<circle clip-path="url(#clip602)" cx="309.493" cy="1314.08" r="14" fill="#009af9" fill-rule="evenodd" fill-opacity="1" stroke="#000000" stroke-opacity="1" stroke-width="3.2"/>
<circle clip-path="url(#clip602)" cx="343.661" cy="1237.52" r="14" fill="#009af9" fill-rule="evenodd" fill-opacity="1" stroke="#000000" stroke-opacity="1" stroke-width="3.2"/>
<circle clip-path="url(#clip602)" cx="377.83" cy="1350.62" r="14" fill="#009af9" fill-rule="evenodd" fill-opacity="1" stroke="#000000" stroke-opacity="1" stroke-width="3.2"/>
<circle clip-path="url(#clip602)" cx="411.998" cy="1233.16" r="14" fill="#009af9" fill-rule="evenodd" fill-opacity="1" stroke="#000000" stroke-opacity="1" stroke-width="3.2"/>
<circle clip-path="url(#clip602)" cx="446.166" cy="1155.48" r="14" fill="#009af9" fill-rule="evenodd" fill-opacity="1" stroke="#000000" stroke-opacity="1" stroke-width="3.2"/>
<circle clip-path="url(#clip602)" cx="480.334" cy="1194.54" r="14" fill="#009af9" fill-rule="evenodd" fill-opacity="1" stroke="#000000" stroke-opacity="1" stroke-width="3.2"/>
<circle clip-path="url(#clip602)" cx="514.503" cy="1123.98" r="14" fill="#009af9" fill-rule="evenodd" fill-opacity="1" stroke="#000000" stroke-opacity="1" stroke-width="3.2"/>
<circle clip-path="url(#clip602)" cx="548.671" cy="1036.02" r="14" fill="#009af9" fill-rule="evenodd" fill-opacity="1" stroke="#000000" stroke-opacity="1" stroke-width="3.2"/>
<circle clip-path="url(#clip602)" cx="582.839" cy="1099.14" r="14" fill="#009af9" fill-rule="evenodd" fill-opacity="1" stroke="#000000" stroke-opacity="1" stroke-width="3.2"/>
<circle clip-path="url(#clip602)" cx="617.008" cy="896.656" r="14" fill="#009af9" fill-rule="evenodd" fill-opacity="1" stroke="#000000" stroke-opacity="1" stroke-width="3.2"/>
<circle clip-path="url(#clip602)" cx="651.176" cy="927.606" r="14" fill="#009af9" fill-rule="evenodd" fill-opacity="1" stroke="#000000" stroke-opacity="1" stroke-width="3.2"/>
<circle clip-path="url(#clip602)" cx="685.344" cy="862.746" r="14" fill="#009af9" fill-rule="evenodd" fill-opacity="1" stroke="#000000" stroke-opacity="1" stroke-width="3.2"/>
<circle clip-path="url(#clip602)" cx="719.512" cy="771.529" r="14" fill="#009af9" fill-rule="evenodd" fill-opacity="1" stroke="#000000" stroke-opacity="1" stroke-width="3.2"/>
<circle clip-path="url(#clip602)" cx="753.681" cy="781.388" r="14" fill="#009af9" fill-rule="evenodd" fill-opacity="1" stroke="#000000" stroke-opacity="1" stroke-width="3.2"/>
<circle clip-path="url(#clip602)" cx="787.849" cy="581.75" r="14" fill="#009af9" fill-rule="evenodd" fill-opacity="1" stroke="#000000" stroke-opacity="1" stroke-width="3.2"/>
<circle clip-path="url(#clip602)" cx="822.017" cy="557.91" r="14" fill="#009af9" fill-rule="evenodd" fill-opacity="1" stroke="#000000" stroke-opacity="1" stroke-width="3.2"/>
<circle clip-path="url(#clip602)" cx="856.185" cy="524.62" r="14" fill="#009af9" fill-rule="evenodd" fill-opacity="1" stroke="#000000" stroke-opacity="1" stroke-width="3.2"/>
<circle clip-path="url(#clip602)" cx="890.354" cy="430.001" r="14" fill="#009af9" fill-rule="evenodd" fill-opacity="1" stroke="#000000" stroke-opacity="1" stroke-width="3.2"/>
<circle clip-path="url(#clip602)" cx="924.522" cy="444.511" r="14" fill="#009af9" fill-rule="evenodd" fill-opacity="1" stroke="#000000" stroke-opacity="1" stroke-width="3.2"/>
<circle clip-path="url(#clip602)" cx="958.69" cy="397.912" r="14" fill="#009af9" fill-rule="evenodd" fill-opacity="1" stroke="#000000" stroke-opacity="1" stroke-width="3.2"/>
<circle clip-path="url(#clip602)" cx="992.859" cy="371.996" r="14" fill="#009af9" fill-rule="evenodd" fill-opacity="1" stroke="#000000" stroke-opacity="1" stroke-width="3.2"/>
<circle clip-path="url(#clip602)" cx="1027.03" cy="442.951" r="14" fill="#009af9" fill-rule="evenodd" fill-opacity="1" stroke="#000000" stroke-opacity="1" stroke-width="3.2"/>
<circle clip-path="url(#clip602)" cx="1061.2" cy="194.484" r="14" fill="#009af9" fill-rule="evenodd" fill-opacity="1" stroke="#000000" stroke-opacity="1" stroke-width="3.2"/>
<circle clip-path="url(#clip602)" cx="1095.36" cy="238.5" r="14" fill="#009af9" fill-rule="evenodd" fill-opacity="1" stroke="#000000" stroke-opacity="1" stroke-width="3.2"/>
<circle clip-path="url(#clip602)" cx="1129.53" cy="320.196" r="14" fill="#009af9" fill-rule="evenodd" fill-opacity="1" stroke="#000000" stroke-opacity="1" stroke-width="3.2"/>
<circle clip-path="url(#clip602)" cx="1163.7" cy="132.371" r="14" fill="#009af9" fill-rule="evenodd" fill-opacity="1" stroke="#000000" stroke-opacity="1" stroke-width="3.2"/>
<circle clip-path="url(#clip602)" cx="1197.87" cy="131.814" r="14" fill="#009af9" fill-rule="evenodd" fill-opacity="1" stroke="#000000" stroke-opacity="1" stroke-width="3.2"/>
<circle clip-path="url(#clip602)" cx="1232.04" cy="131.571" r="14" fill="#009af9" fill-rule="evenodd" fill-opacity="1" stroke="#000000" stroke-opacity="1" stroke-width="3.2"/>
<circle clip-path="url(#clip602)" cx="1266.2" cy="199.819" r="14" fill="#009af9" fill-rule="evenodd" fill-opacity="1" stroke="#000000" stroke-opacity="1" stroke-width="3.2"/>
<circle clip-path="url(#clip602)" cx="1300.37" cy="234.347" r="14" fill="#009af9" fill-rule="evenodd" fill-opacity="1" stroke="#000000" stroke-opacity="1" stroke-width="3.2"/>
<circle clip-path="url(#clip602)" cx="1334.54" cy="87.9763" r="14" fill="#009af9" fill-rule="evenodd" fill-opacity="1" stroke="#000000" stroke-opacity="1" stroke-width="3.2"/>
<circle clip-path="url(#clip602)" cx="1368.71" cy="249.431" r="14" fill="#009af9" fill-rule="evenodd" fill-opacity="1" stroke="#000000" stroke-opacity="1" stroke-width="3.2"/>
<circle clip-path="url(#clip602)" cx="1402.88" cy="155.826" r="14" fill="#009af9" fill-rule="evenodd" fill-opacity="1" stroke="#000000" stroke-opacity="1" stroke-width="3.2"/>
<circle clip-path="url(#clip602)" cx="1437.05" cy="306.415" r="14" fill="#009af9" fill-rule="evenodd" fill-opacity="1" stroke="#000000" stroke-opacity="1" stroke-width="3.2"/>
<circle clip-path="url(#clip602)" cx="1471.21" cy="276.979" r="14" fill="#009af9" fill-rule="evenodd" fill-opacity="1" stroke="#000000" stroke-opacity="1" stroke-width="3.2"/>
<circle clip-path="url(#clip602)" cx="1505.38" cy="323.646" r="14" fill="#009af9" fill-rule="evenodd" fill-opacity="1" stroke="#000000" stroke-opacity="1" stroke-width="3.2"/>
<circle clip-path="url(#clip602)" cx="1539.55" cy="321.792" r="14" fill="#009af9" fill-rule="evenodd" fill-opacity="1" stroke="#000000" stroke-opacity="1" stroke-width="3.2"/>
<circle clip-path="url(#clip602)" cx="1573.72" cy="311.137" r="14" fill="#009af9" fill-rule="evenodd" fill-opacity="1" stroke="#000000" stroke-opacity="1" stroke-width="3.2"/>
<circle clip-path="url(#clip602)" cx="1607.89" cy="410.978" r="14" fill="#009af9" fill-rule="evenodd" fill-opacity="1" stroke="#000000" stroke-opacity="1" stroke-width="3.2"/>
<circle clip-path="url(#clip602)" cx="1642.06" cy="478.647" r="14" fill="#009af9" fill-rule="evenodd" fill-opacity="1" stroke="#000000" stroke-opacity="1" stroke-width="3.2"/>
<circle clip-path="url(#clip602)" cx="1676.22" cy="496.267" r="14" fill="#009af9" fill-rule="evenodd" fill-opacity="1" stroke="#000000" stroke-opacity="1" stroke-width="3.2"/>
<circle clip-path="url(#clip602)" cx="1710.39" cy="654.036" r="14" fill="#009af9" fill-rule="evenodd" fill-opacity="1" stroke="#000000" stroke-opacity="1" stroke-width="3.2"/>
<circle clip-path="url(#clip602)" cx="1744.56" cy="722.04" r="14" fill="#009af9" fill-rule="evenodd" fill-opacity="1" stroke="#000000" stroke-opacity="1" stroke-width="3.2"/>
<circle clip-path="url(#clip602)" cx="1778.73" cy="655.205" r="14" fill="#009af9" fill-rule="evenodd" fill-opacity="1" stroke="#000000" stroke-opacity="1" stroke-width="3.2"/>
<circle clip-path="url(#clip602)" cx="1812.9" cy="811.965" r="14" fill="#009af9" fill-rule="evenodd" fill-opacity="1" stroke="#000000" stroke-opacity="1" stroke-width="3.2"/>
<circle clip-path="url(#clip602)" cx="1847.07" cy="782.931" r="14" fill="#009af9" fill-rule="evenodd" fill-opacity="1" stroke="#000000" stroke-opacity="1" stroke-width="3.2"/>
<circle clip-path="url(#clip602)" cx="1881.23" cy="1020.36" r="14" fill="#009af9" fill-rule="evenodd" fill-opacity="1" stroke="#000000" stroke-opacity="1" stroke-width="3.2"/>
<circle clip-path="url(#clip602)" cx="1915.4" cy="980.114" r="14" fill="#009af9" fill-rule="evenodd" fill-opacity="1" stroke="#000000" stroke-opacity="1" stroke-width="3.2"/>
<circle clip-path="url(#clip602)" cx="1949.57" cy="936.53" r="14" fill="#009af9" fill-rule="evenodd" fill-opacity="1" stroke="#000000" stroke-opacity="1" stroke-width="3.2"/>
<circle clip-path="url(#clip602)" cx="1983.74" cy="1061.37" r="14" fill="#009af9" fill-rule="evenodd" fill-opacity="1" stroke="#000000" stroke-opacity="1" stroke-width="3.2"/>
<circle clip-path="url(#clip602)" cx="2017.91" cy="1226.51" r="14" fill="#009af9" fill-rule="evenodd" fill-opacity="1" stroke="#000000" stroke-opacity="1" stroke-width="3.2"/>
<circle clip-path="url(#clip602)" cx="2052.08" cy="1169.77" r="14" fill="#009af9" fill-rule="evenodd" fill-opacity="1" stroke="#000000" stroke-opacity="1" stroke-width="3.2"/>
<circle clip-path="url(#clip602)" cx="2086.24" cy="1245.28" r="14" fill="#009af9" fill-rule="evenodd" fill-opacity="1" stroke="#000000" stroke-opacity="1" stroke-width="3.2"/>
<circle clip-path="url(#clip602)" cx="2120.41" cy="1313.12" r="14" fill="#009af9" fill-rule="evenodd" fill-opacity="1" stroke="#000000" stroke-opacity="1" stroke-width="3.2"/>
<circle clip-path="url(#clip602)" cx="2154.58" cy="1389.32" r="14" fill="#009af9" fill-rule="evenodd" fill-opacity="1" stroke="#000000" stroke-opacity="1" stroke-width="3.2"/>
<circle clip-path="url(#clip602)" cx="2188.75" cy="1204.26" r="14" fill="#009af9" fill-rule="evenodd" fill-opacity="1" stroke="#000000" stroke-opacity="1" stroke-width="3.2"/>
<circle clip-path="url(#clip602)" cx="2222.92" cy="1305.06" r="14" fill="#009af9" fill-rule="evenodd" fill-opacity="1" stroke="#000000" stroke-opacity="1" stroke-width="3.2"/>
<circle clip-path="url(#clip602)" cx="2257.08" cy="1445.72" r="14" fill="#009af9" fill-rule="evenodd" fill-opacity="1" stroke="#000000" stroke-opacity="1" stroke-width="3.2"/>
<circle clip-path="url(#clip602)" cx="2291.25" cy="1371.59" r="14" fill="#009af9" fill-rule="evenodd" fill-opacity="1" stroke="#000000" stroke-opacity="1" stroke-width="3.2"/>
<polyline clip-path="url(#clip602)" style="stroke:#e26f46; stroke-width:4; stroke-opacity:1; fill:none" points="
  241.157,1367.75 275.325,1356.27 309.493,1338.93 343.661,1315.9 377.83,1287.43 411.998,1253.79 446.166,1215.31 480.334,1172.4 514.503,1125.46 548.671,1074.97 
  582.839,1021.45 617.008,965.408 651.176,907.421 685.344,848.063 719.512,787.929 753.681,727.619 787.849,667.735 822.017,608.876 856.185,551.63 890.354,496.569 
  924.522,444.243 958.69,395.175 992.859,349.855 1027.03,308.736 1061.2,272.229 1095.36,240.699 1129.53,214.461 1163.7,193.776 1197.87,178.852 1232.04,169.837 
  1266.2,166.822 1300.37,169.837 1334.54,178.852 1368.71,193.776 1402.88,214.461 1437.05,240.699 1471.21,272.229 1505.38,308.736 1539.55,349.855 1573.72,395.175 
  1607.89,444.243 1642.06,496.569 1676.22,551.63 1710.39,608.876 1744.56,667.735 1778.73,727.619 1812.9,787.929 1847.07,848.063 1881.23,907.421 1915.4,965.408 
  1949.57,1021.45 1983.74,1074.97 2017.91,1125.46 2052.08,1172.4 2086.24,1215.31 2120.41,1253.79 2154.58,1287.43 2188.75,1315.9 2222.92,1338.93 2257.08,1356.27 
  2291.25,1367.75 
  "/>
<path clip-path="url(#clip600)" d="
M1821.9 276.658 L2280.32 276.658 L2280.32 95.2176 L1821.9 95.2176  Z
  " fill="#ffffff" fill-rule="evenodd" fill-opacity="1"/>
<polyline clip-path="url(#clip600)" style="stroke:#000000; stroke-width:4; stroke-opacity:1; fill:none" points="
  1821.9,276.658 2280.32,276.658 2280.32,95.2176 1821.9,95.2176 1821.9,276.658 
  "/>
<circle clip-path="url(#clip600)" cx="1918.48" cy="155.698" r="23" fill="#009af9" fill-rule="evenodd" fill-opacity="1" stroke="#000000" stroke-opacity="1" stroke-width="5.12"/>
<path clip-path="url(#clip600)" d="M 0 0 M2015.06 138.418 L2044.3 138.418 L2044.3 142.353 L2032.03 142.353 L2032.03 172.978 L2027.33 172.978 L2027.33 142.353 L2015.06 142.353 L2015.06 138.418 Z" fill="#000000" fill-rule="evenodd" fill-opacity="1" /><path clip-path="url(#clip600)" d="M 0 0 M2056.82 151.033 Q2056.1 150.617 2055.25 150.431 Q2054.41 150.223 2053.39 150.223 Q2049.78 150.223 2047.84 152.584 Q2045.92 154.922 2045.92 159.32 L2045.92 172.978 L2041.64 172.978 L2041.64 147.052 L2045.92 147.052 L2045.92 151.08 Q2047.26 148.718 2049.41 147.584 Q2051.57 146.427 2054.64 146.427 Q2055.08 146.427 2055.62 146.496 Q2056.15 146.543 2056.8 146.658 L2056.82 151.033 Z" fill="#000000" fill-rule="evenodd" fill-opacity="1" /><path clip-path="url(#clip600)" d="M 0 0 M2073.07 159.945 Q2067.91 159.945 2065.92 161.126 Q2063.93 162.306 2063.93 165.154 Q2063.93 167.422 2065.41 168.765 Q2066.91 170.084 2069.48 170.084 Q2073.02 170.084 2075.15 167.584 Q2077.31 165.061 2077.31 160.894 L2077.31 159.945 L2073.07 159.945 M2081.57 158.186 L2081.57 172.978 L2077.31 172.978 L2077.31 169.042 Q2075.85 171.403 2073.67 172.538 Q2071.5 173.649 2068.35 173.649 Q2064.37 173.649 2062.01 171.427 Q2059.67 169.181 2059.67 165.431 Q2059.67 161.056 2062.58 158.834 Q2065.52 156.612 2071.33 156.612 L2077.31 156.612 L2077.31 156.195 Q2077.31 153.255 2075.36 151.658 Q2073.44 150.038 2069.95 150.038 Q2067.72 150.038 2065.62 150.57 Q2063.51 151.103 2061.57 152.167 L2061.57 148.232 Q2063.9 147.33 2066.1 146.89 Q2068.3 146.427 2070.39 146.427 Q2076.01 146.427 2078.79 149.343 Q2081.57 152.26 2081.57 158.186 Z" fill="#000000" fill-rule="evenodd" fill-opacity="1" /><path clip-path="url(#clip600)" d="M 0 0 M2086.03 147.052 L2090.29 147.052 L2090.29 172.978 L2086.03 172.978 L2086.03 147.052 M2086.03 136.959 L2090.29 136.959 L2090.29 142.353 L2086.03 142.353 L2086.03 136.959 Z" fill="#000000" fill-rule="evenodd" fill-opacity="1" /><path clip-path="url(#clip600)" d="M 0 0 M2116.31 157.329 L2116.31 172.978 L2112.05 172.978 L2112.05 157.468 Q2112.05 153.788 2110.62 151.959 Q2109.18 150.13 2106.31 150.13 Q2102.86 150.13 2100.87 152.33 Q2098.88 154.529 2098.88 158.325 L2098.88 172.978 L2094.6 172.978 L2094.6 147.052 L2098.88 147.052 L2098.88 151.08 Q2100.41 148.742 2102.47 147.584 Q2104.55 146.427 2107.26 146.427 Q2111.73 146.427 2114.02 149.205 Q2116.31 151.959 2116.31 157.329 Z" fill="#000000" fill-rule="evenodd" fill-opacity="1" /><path clip-path="url(#clip600)" d="M 0 0 M2140.71 142.26 L2140.71 169.135 L2146.36 169.135 Q2153.51 169.135 2156.82 165.894 Q2160.15 162.654 2160.15 155.663 Q2160.15 148.718 2156.82 145.501 Q2153.51 142.26 2146.36 142.26 L2140.71 142.26 M2136.03 138.418 L2145.64 138.418 Q2155.69 138.418 2160.38 142.607 Q2165.08 146.774 2165.08 155.663 Q2165.08 164.598 2160.36 168.788 Q2155.64 172.978 2145.64 172.978 L2136.03 172.978 L2136.03 138.418 Z" fill="#000000" fill-rule="evenodd" fill-opacity="1" /><path clip-path="url(#clip600)" d="M 0 0 M2181.33 159.945 Q2176.17 159.945 2174.18 161.126 Q2172.19 162.306 2172.19 165.154 Q2172.19 167.422 2173.67 168.765 Q2175.18 170.084 2177.75 170.084 Q2181.29 170.084 2183.42 167.584 Q2185.57 165.061 2185.57 160.894 L2185.57 159.945 L2181.33 159.945 M2189.83 158.186 L2189.83 172.978 L2185.57 172.978 L2185.57 169.042 Q2184.11 171.403 2181.94 172.538 Q2179.76 173.649 2176.61 173.649 Q2172.63 173.649 2170.27 171.427 Q2167.93 169.181 2167.93 165.431 Q2167.93 161.056 2170.85 158.834 Q2173.79 156.612 2179.6 156.612 L2185.57 156.612 L2185.57 156.195 Q2185.57 153.255 2183.63 151.658 Q2181.7 150.038 2178.21 150.038 Q2175.99 150.038 2173.88 150.57 Q2171.77 151.103 2169.83 152.167 L2169.83 148.232 Q2172.17 147.33 2174.37 146.89 Q2176.57 146.427 2178.65 146.427 Q2184.27 146.427 2187.05 149.343 Q2189.83 152.26 2189.83 158.186 Z" fill="#000000" fill-rule="evenodd" fill-opacity="1" /><path clip-path="url(#clip600)" d="M 0 0 M2198.51 139.691 L2198.51 147.052 L2207.28 147.052 L2207.28 150.362 L2198.51 150.362 L2198.51 164.436 Q2198.51 167.607 2199.37 168.51 Q2200.25 169.413 2202.91 169.413 L2207.28 169.413 L2207.28 172.978 L2202.91 172.978 Q2197.98 172.978 2196.1 171.149 Q2194.23 169.297 2194.23 164.436 L2194.23 150.362 L2191.1 150.362 L2191.1 147.052 L2194.23 147.052 L2194.23 139.691 L2198.51 139.691 Z" fill="#000000" fill-rule="evenodd" fill-opacity="1" /><path clip-path="url(#clip600)" d="M 0 0 M2223.53 159.945 Q2218.37 159.945 2216.38 161.126 Q2214.39 162.306 2214.39 165.154 Q2214.39 167.422 2215.87 168.765 Q2217.38 170.084 2219.94 170.084 Q2223.49 170.084 2225.62 167.584 Q2227.77 165.061 2227.77 160.894 L2227.77 159.945 L2223.53 159.945 M2232.03 158.186 L2232.03 172.978 L2227.77 172.978 L2227.77 169.042 Q2226.31 171.403 2224.13 172.538 Q2221.96 173.649 2218.81 173.649 Q2214.83 173.649 2212.47 171.427 Q2210.13 169.181 2210.13 165.431 Q2210.13 161.056 2213.05 158.834 Q2215.99 156.612 2221.8 156.612 L2227.77 156.612 L2227.77 156.195 Q2227.77 153.255 2225.82 151.658 Q2223.9 150.038 2220.41 150.038 Q2218.19 150.038 2216.08 150.57 Q2213.97 151.103 2212.03 152.167 L2212.03 148.232 Q2214.37 147.33 2216.57 146.89 Q2218.76 146.427 2220.85 146.427 Q2226.47 146.427 2229.25 149.343 Q2232.03 152.26 2232.03 158.186 Z" fill="#000000" fill-rule="evenodd" fill-opacity="1" /><polyline clip-path="url(#clip600)" style="stroke:#e26f46; stroke-width:4; stroke-opacity:1; fill:none" points="
  1846.04,216.178 1990.92,216.178 
  "/>
<path clip-path="url(#clip600)" d="M 0 0 M2015.06 198.898 L2044.3 198.898 L2044.3 202.833 L2032.03 202.833 L2032.03 233.458 L2027.33 233.458 L2027.33 202.833 L2015.06 202.833 L2015.06 198.898 Z" fill="#000000" fill-rule="evenodd" fill-opacity="1" /><path clip-path="url(#clip600)" d="M 0 0 M2056.82 211.513 Q2056.1 211.097 2055.25 210.911 Q2054.41 210.703 2053.39 210.703 Q2049.78 210.703 2047.84 213.064 Q2045.92 215.402 2045.92 219.8 L2045.92 233.458 L2041.64 233.458 L2041.64 207.532 L2045.92 207.532 L2045.92 211.56 Q2047.26 209.198 2049.41 208.064 Q2051.57 206.907 2054.64 206.907 Q2055.08 206.907 2055.62 206.976 Q2056.15 207.023 2056.8 207.138 L2056.82 211.513 Z" fill="#000000" fill-rule="evenodd" fill-opacity="1" /><path clip-path="url(#clip600)" d="M 0 0 M2060.85 223.226 L2060.85 207.532 L2065.11 207.532 L2065.11 223.064 Q2065.11 226.745 2066.54 228.596 Q2067.98 230.425 2070.85 230.425 Q2074.3 230.425 2076.29 228.226 Q2078.3 226.027 2078.3 222.231 L2078.3 207.532 L2082.56 207.532 L2082.56 233.458 L2078.3 233.458 L2078.3 229.476 Q2076.75 231.837 2074.69 232.995 Q2072.65 234.129 2069.95 234.129 Q2065.48 234.129 2063.16 231.351 Q2060.85 228.573 2060.85 223.226 M2071.57 206.907 L2071.57 206.907 Z" fill="#000000" fill-rule="evenodd" fill-opacity="1" /><path clip-path="url(#clip600)" d="M 0 0 M2091.24 200.171 L2091.24 207.532 L2100.01 207.532 L2100.01 210.842 L2091.24 210.842 L2091.24 224.916 Q2091.24 228.087 2092.1 228.99 Q2092.98 229.893 2095.64 229.893 L2100.01 229.893 L2100.01 233.458 L2095.64 233.458 Q2090.71 233.458 2088.83 231.629 Q2086.96 229.777 2086.96 224.916 L2086.96 210.842 L2083.83 210.842 L2083.83 207.532 L2086.96 207.532 L2086.96 200.171 L2091.24 200.171 Z" fill="#000000" fill-rule="evenodd" fill-opacity="1" /><path clip-path="url(#clip600)" d="M 0 0 M2126.03 217.809 L2126.03 233.458 L2121.77 233.458 L2121.77 217.948 Q2121.77 214.268 2120.34 212.439 Q2118.9 210.61 2116.03 210.61 Q2112.58 210.61 2110.59 212.81 Q2108.6 215.009 2108.6 218.805 L2108.6 233.458 L2104.32 233.458 L2104.32 197.439 L2108.6 197.439 L2108.6 211.56 Q2110.13 209.222 2112.19 208.064 Q2114.27 206.907 2116.98 206.907 Q2121.45 206.907 2123.74 209.685 Q2126.03 212.439 2126.03 217.809 Z" fill="#000000" fill-rule="evenodd" fill-opacity="1" /></svg>
