<?xml version="1.0" encoding="utf-8"?>
<svg xmlns="http://www.w3.org/2000/svg" xmlns:xlink="http://www.w3.org/1999/xlink" width="600" height="400" viewBox="0 0 2400 1600">
<defs>
  <clipPath id="clip640">
    <rect x="0" y="0" width="2400" height="1600"/>
  </clipPath>
</defs>
<path clip-path="url(#clip640)" d="
M0 1600 L2400 1600 L2400 0 L0 0  Z
  " fill="#ffffff" fill-rule="evenodd" fill-opacity="1"/>
<defs>
  <clipPath id="clip641">
    <rect x="480" y="0" width="1681" height="1600"/>
  </clipPath>
</defs>
<path clip-path="url(#clip640)" d="
M179.654 1486.45 L2352.76 1486.45 L2352.76 47.2441 L179.654 47.2441  Z
  " fill="#ffffff" fill-rule="evenodd" fill-opacity="1"/>
<defs>
  <clipPath id="clip642">
    <rect x="179" y="47" width="2174" height="1440"/>
  </clipPath>
</defs>
<polyline clip-path="url(#clip642)" style="stroke:#000000; stroke-width:2; stroke-opacity:0.1; fill:none" points="
  241.157,1486.45 241.157,47.2441 
  "/>
<polyline clip-path="url(#clip642)" style="stroke:#000000; stroke-width:2; stroke-opacity:0.1; fill:none" points="
  582.839,1486.45 582.839,47.2441 
  "/>
<polyline clip-path="url(#clip642)" style="stroke:#000000; stroke-width:2; stroke-opacity:0.1; fill:none" points="
  924.522,1486.45 924.522,47.2441 
  "/>
<polyline clip-path="url(#clip642)" style="stroke:#000000; stroke-width:2; stroke-opacity:0.1; fill:none" points="
  1266.2,1486.45 1266.2,47.2441 
  "/>
<polyline clip-path="url(#clip642)" style="stroke:#000000; stroke-width:2; stroke-opacity:0.1; fill:none" points="
  1607.89,1486.45 1607.89,47.2441 
  "/>
<polyline clip-path="url(#clip642)" style="stroke:#000000; stroke-width:2; stroke-opacity:0.1; fill:none" points="
  1949.57,1486.45 1949.57,47.2441 
  "/>
<polyline clip-path="url(#clip642)" style="stroke:#000000; stroke-width:2; stroke-opacity:0.1; fill:none" points="
  2291.25,1486.45 2291.25,47.2441 
  "/>
<polyline clip-path="url(#clip640)" style="stroke:#000000; stroke-width:4; stroke-opacity:1; fill:none" points="
  179.654,1486.45 2352.76,1486.45 
  "/>
<polyline clip-path="url(#clip640)" style="stroke:#000000; stroke-width:4; stroke-opacity:1; fill:none" points="
  241.157,1486.45 241.157,1469.18 
  "/>
<polyline clip-path="url(#clip640)" style="stroke:#000000; stroke-width:4; stroke-opacity:1; fill:none" points="
  582.839,1486.45 582.839,1469.18 
  "/>
<polyline clip-path="url(#clip640)" style="stroke:#000000; stroke-width:4; stroke-opacity:1; fill:none" points="
  924.522,1486.45 924.522,1469.18 
  "/>
<polyline clip-path="url(#clip640)" style="stroke:#000000; stroke-width:4; stroke-opacity:1; fill:none" points="
  1266.2,1486.45 1266.2,1469.18 
  "/>
<polyline clip-path="url(#clip640)" style="stroke:#000000; stroke-width:4; stroke-opacity:1; fill:none" points="
  1607.89,1486.45 1607.89,1469.18 
  "/>
<polyline clip-path="url(#clip640)" style="stroke:#000000; stroke-width:4; stroke-opacity:1; fill:none" points="
  1949.57,1486.45 1949.57,1469.18 
  "/>
<polyline clip-path="url(#clip640)" style="stroke:#000000; stroke-width:4; stroke-opacity:1; fill:none" points="
  2291.25,1486.45 2291.25,1469.18 
  "/>
<path clip-path="url(#clip640)" d="M 0 0 M213.136 1530.29 L242.812 1530.29 L242.812 1534.23 L213.136 1534.23 L213.136 1530.29 Z" fill="#000000" fill-rule="evenodd" fill-opacity="1" /><path clip-path="url(#clip640)" d="M 0 0 M262.048 1528.49 Q265.404 1529.2 267.279 1531.47 Q269.177 1533.74 269.177 1537.07 Q269.177 1542.19 265.659 1544.99 Q262.14 1547.79 255.659 1547.79 Q253.483 1547.79 251.168 1547.35 Q248.876 1546.93 246.423 1546.08 L246.423 1541.56 Q248.367 1542.7 250.682 1543.28 Q252.997 1543.86 255.52 1543.86 Q259.918 1543.86 262.21 1542.12 Q264.524 1540.38 264.524 1537.07 Q264.524 1534.02 262.372 1532.31 Q260.242 1530.57 256.423 1530.57 L252.395 1530.57 L252.395 1526.73 L256.608 1526.73 Q260.057 1526.73 261.886 1525.36 Q263.714 1523.97 263.714 1521.38 Q263.714 1518.72 261.816 1517.31 Q259.941 1515.87 256.423 1515.87 Q254.501 1515.87 252.302 1516.29 Q250.103 1516.7 247.464 1517.58 L247.464 1513.42 Q250.126 1512.68 252.441 1512.31 Q254.779 1511.93 256.839 1511.93 Q262.163 1511.93 265.265 1514.37 Q268.367 1516.77 268.367 1520.89 Q268.367 1523.76 266.724 1525.75 Q265.08 1527.72 262.048 1528.49 Z" fill="#000000" fill-rule="evenodd" fill-opacity="1" /><path clip-path="url(#clip640)" d="M 0 0 M555.293 1530.29 L584.969 1530.29 L584.969 1534.23 L555.293 1534.23 L555.293 1530.29 Z" fill="#000000" fill-rule="evenodd" fill-opacity="1" /><path clip-path="url(#clip640)" d="M 0 0 M594.066 1543.18 L610.385 1543.18 L610.385 1547.12 L588.441 1547.12 L588.441 1543.18 Q591.103 1540.43 595.686 1535.8 Q600.293 1531.15 601.473 1529.81 Q603.719 1527.28 604.598 1525.55 Q605.501 1523.79 605.501 1522.1 Q605.501 1519.34 603.557 1517.61 Q601.635 1515.87 598.534 1515.87 Q596.335 1515.87 593.881 1516.63 Q591.45 1517.4 588.673 1518.95 L588.673 1514.23 Q591.497 1513.09 593.95 1512.51 Q596.404 1511.93 598.441 1511.93 Q603.811 1511.93 607.006 1514.62 Q610.2 1517.31 610.2 1521.8 Q610.2 1523.93 609.39 1525.85 Q608.603 1527.74 606.497 1530.34 Q605.918 1531.01 602.816 1534.23 Q599.714 1537.42 594.066 1543.18 Z" fill="#000000" fill-rule="evenodd" fill-opacity="1" /><path clip-path="url(#clip640)" d="M 0 0 M896.791 1530.29 L926.466 1530.29 L926.466 1534.23 L896.791 1534.23 L896.791 1530.29 Z" fill="#000000" fill-rule="evenodd" fill-opacity="1" /><path clip-path="url(#clip640)" d="M 0 0 M932.346 1543.18 L939.985 1543.18 L939.985 1516.82 L931.675 1518.49 L931.675 1514.23 L939.939 1512.56 L944.615 1512.56 L944.615 1543.18 L952.253 1543.18 L952.253 1547.12 L932.346 1547.12 L932.346 1543.18 Z" fill="#000000" fill-rule="evenodd" fill-opacity="1" /><path clip-path="url(#clip640)" d="M 0 0 M1266.2 1515.64 Q1262.59 1515.64 1260.77 1519.2 Q1258.96 1522.75 1258.96 1529.87 Q1258.96 1536.98 1260.77 1540.55 Q1262.59 1544.09 1266.2 1544.09 Q1269.84 1544.09 1271.64 1540.55 Q1273.47 1536.98 1273.47 1529.87 Q1273.47 1522.75 1271.64 1519.2 Q1269.84 1515.64 1266.2 1515.64 M1266.2 1511.93 Q1272.01 1511.93 1275.07 1516.54 Q1278.15 1521.12 1278.15 1529.87 Q1278.15 1538.6 1275.07 1543.21 Q1272.01 1547.79 1266.2 1547.79 Q1260.39 1547.79 1257.32 1543.21 Q1254.26 1538.6 1254.26 1529.87 Q1254.26 1521.12 1257.32 1516.54 Q1260.39 1511.93 1266.2 1511.93 Z" fill="#000000" fill-rule="evenodd" fill-opacity="1" /><path clip-path="url(#clip640)" d="M 0 0 M1598.27 1543.18 L1605.91 1543.18 L1605.91 1516.82 L1597.6 1518.49 L1597.6 1514.23 L1605.86 1512.56 L1610.54 1512.56 L1610.54 1543.18 L1618.18 1543.18 L1618.18 1547.12 L1598.27 1547.12 L1598.27 1543.18 Z" fill="#000000" fill-rule="evenodd" fill-opacity="1" /><path clip-path="url(#clip640)" d="M 0 0 M1944.22 1543.18 L1960.54 1543.18 L1960.54 1547.12 L1938.6 1547.12 L1938.6 1543.18 Q1941.26 1540.43 1945.84 1535.8 Q1950.45 1531.15 1951.63 1529.81 Q1953.88 1527.28 1954.76 1525.55 Q1955.66 1523.79 1955.66 1522.1 Q1955.66 1519.34 1953.71 1517.61 Q1951.79 1515.87 1948.69 1515.87 Q1946.49 1515.87 1944.04 1516.63 Q1941.61 1517.4 1938.83 1518.95 L1938.83 1514.23 Q1941.65 1513.09 1944.11 1512.51 Q1946.56 1511.93 1948.6 1511.93 Q1953.97 1511.93 1957.16 1514.62 Q1960.36 1517.31 1960.36 1521.8 Q1960.36 1523.93 1959.55 1525.85 Q1958.76 1527.74 1956.65 1530.34 Q1956.07 1531.01 1952.97 1534.23 Q1949.87 1537.42 1944.22 1543.18 Z" fill="#000000" fill-rule="evenodd" fill-opacity="1" /><path clip-path="url(#clip640)" d="M 0 0 M2295.5 1528.49 Q2298.86 1529.2 2300.73 1531.47 Q2302.63 1533.74 2302.63 1537.07 Q2302.63 1542.19 2299.11 1544.99 Q2295.59 1547.79 2289.11 1547.79 Q2286.94 1547.79 2284.62 1547.35 Q2282.33 1546.93 2279.88 1546.08 L2279.88 1541.56 Q2281.82 1542.7 2284.13 1543.28 Q2286.45 1543.86 2288.97 1543.86 Q2293.37 1543.86 2295.66 1542.12 Q2297.98 1540.38 2297.98 1537.07 Q2297.98 1534.02 2295.82 1532.31 Q2293.7 1530.57 2289.88 1530.57 L2285.85 1530.57 L2285.85 1526.73 L2290.06 1526.73 Q2293.51 1526.73 2295.34 1525.36 Q2297.17 1523.97 2297.17 1521.38 Q2297.17 1518.72 2295.27 1517.31 Q2293.39 1515.87 2289.88 1515.87 Q2287.95 1515.87 2285.76 1516.29 Q2283.56 1516.7 2280.92 1517.58 L2280.92 1513.42 Q2283.58 1512.68 2285.89 1512.31 Q2288.23 1511.93 2290.29 1511.93 Q2295.62 1511.93 2298.72 1514.37 Q2301.82 1516.77 2301.82 1520.89 Q2301.82 1523.76 2300.18 1525.75 Q2298.53 1527.72 2295.5 1528.49 Z" fill="#000000" fill-rule="evenodd" fill-opacity="1" /><polyline clip-path="url(#clip642)" style="stroke:#000000; stroke-width:2; stroke-opacity:0.1; fill:none" points="
  179.654,1452.15 2352.76,1452.15 
  "/>
<polyline clip-path="url(#clip642)" style="stroke:#000000; stroke-width:2; stroke-opacity:0.1; fill:none" points="
  179.654,1130.71 2352.76,1130.71 
  "/>
<polyline clip-path="url(#clip642)" style="stroke:#000000; stroke-width:2; stroke-opacity:0.1; fill:none" points="
  179.654,809.28 2352.76,809.28 
  "/>
<polyline clip-path="url(#clip642)" style="stroke:#000000; stroke-width:2; stroke-opacity:0.1; fill:none" points="
  179.654,487.846 2352.76,487.846 
  "/>
<polyline clip-path="url(#clip642)" style="stroke:#000000; stroke-width:2; stroke-opacity:0.1; fill:none" points="
  179.654,166.412 2352.76,166.412 
  "/>
<polyline clip-path="url(#clip640)" style="stroke:#000000; stroke-width:4; stroke-opacity:1; fill:none" points="
  179.654,1486.45 179.654,47.2441 
  "/>
<polyline clip-path="url(#clip640)" style="stroke:#000000; stroke-width:4; stroke-opacity:1; fill:none" points="
  179.654,1452.15 205.731,1452.15 
  "/>
<polyline clip-path="url(#clip640)" style="stroke:#000000; stroke-width:4; stroke-opacity:1; fill:none" points="
  179.654,1130.71 205.731,1130.71 
  "/>
<polyline clip-path="url(#clip640)" style="stroke:#000000; stroke-width:4; stroke-opacity:1; fill:none" points="
  179.654,809.28 205.731,809.28 
  "/>
<polyline clip-path="url(#clip640)" style="stroke:#000000; stroke-width:4; stroke-opacity:1; fill:none" points="
  179.654,487.846 205.731,487.846 
  "/>
<polyline clip-path="url(#clip640)" style="stroke:#000000; stroke-width:4; stroke-opacity:1; fill:none" points="
  179.654,166.412 205.731,166.412 
  "/>
<path clip-path="url(#clip640)" d="M 0 0 M51.2236 1452.6 L80.8994 1452.6 L80.8994 1456.54 L51.2236 1456.54 L51.2236 1452.6 Z" fill="#000000" fill-rule="evenodd" fill-opacity="1" /><path clip-path="url(#clip640)" d="M 0 0 M86.779 1465.49 L94.4178 1465.49 L94.4178 1439.13 L86.1077 1440.8 L86.1077 1436.54 L94.3715 1434.87 L99.0474 1434.87 L99.0474 1465.49 L106.686 1465.49 L106.686 1469.43 L86.779 1469.43 L86.779 1465.49 Z" fill="#000000" fill-rule="evenodd" fill-opacity="1" /><path clip-path="url(#clip640)" d="M 0 0 M111.756 1463.55 L116.64 1463.55 L116.64 1469.43 L111.756 1469.43 L111.756 1463.55 Z" fill="#000000" fill-rule="evenodd" fill-opacity="1" /><path clip-path="url(#clip640)" d="M 0 0 M131.709 1437.95 Q128.098 1437.95 126.27 1441.51 Q124.464 1445.05 124.464 1452.18 Q124.464 1459.29 126.27 1462.86 Q128.098 1466.4 131.709 1466.4 Q135.344 1466.4 137.149 1462.86 Q138.978 1459.29 138.978 1452.18 Q138.978 1445.05 137.149 1441.51 Q135.344 1437.95 131.709 1437.95 M131.709 1434.24 Q137.519 1434.24 140.575 1438.85 Q143.654 1443.43 143.654 1452.18 Q143.654 1460.91 140.575 1465.52 Q137.519 1470.1 131.709 1470.1 Q125.899 1470.1 122.82 1465.52 Q119.765 1460.91 119.765 1452.18 Q119.765 1443.43 122.82 1438.85 Q125.899 1434.24 131.709 1434.24 Z" fill="#000000" fill-rule="evenodd" fill-opacity="1" /><path clip-path="url(#clip640)" d="M 0 0 M50.9921 1131.17 L80.6679 1131.17 L80.6679 1135.1 L50.9921 1135.1 L50.9921 1131.17 Z" fill="#000000" fill-rule="evenodd" fill-opacity="1" /><path clip-path="url(#clip640)" d="M 0 0 M95.7373 1116.51 Q92.1262 1116.51 90.2975 1120.08 Q88.4919 1123.62 88.4919 1130.75 Q88.4919 1137.86 90.2975 1141.42 Q92.1262 1144.96 95.7373 1144.96 Q99.3715 1144.96 101.177 1141.42 Q103.006 1137.86 103.006 1130.75 Q103.006 1123.62 101.177 1120.08 Q99.3715 1116.51 95.7373 1116.51 M95.7373 1112.81 Q101.547 1112.81 104.603 1117.42 Q107.682 1122 107.682 1130.75 Q107.682 1139.48 104.603 1144.08 Q101.547 1148.67 95.7373 1148.67 Q89.9271 1148.67 86.8484 1144.08 Q83.7929 1139.48 83.7929 1130.75 Q83.7929 1122 86.8484 1117.42 Q89.9271 1112.81 95.7373 1112.81 Z" fill="#000000" fill-rule="evenodd" fill-opacity="1" /><path clip-path="url(#clip640)" d="M 0 0 M112.751 1142.12 L117.635 1142.12 L117.635 1147.99 L112.751 1147.99 L112.751 1142.12 Z" fill="#000000" fill-rule="evenodd" fill-opacity="1" /><path clip-path="url(#clip640)" d="M 0 0 M122.751 1113.43 L141.107 1113.43 L141.107 1117.37 L127.033 1117.37 L127.033 1125.84 Q128.052 1125.49 129.07 1125.33 Q130.089 1125.15 131.107 1125.15 Q136.894 1125.15 140.274 1128.32 Q143.654 1131.49 143.654 1136.91 Q143.654 1142.49 140.181 1145.59 Q136.709 1148.67 130.39 1148.67 Q128.214 1148.67 125.945 1148.3 Q123.7 1147.93 121.293 1147.18 L121.293 1142.49 Q123.376 1143.62 125.598 1144.18 Q127.82 1144.73 130.297 1144.73 Q134.302 1144.73 136.64 1142.62 Q138.978 1140.52 138.978 1136.91 Q138.978 1133.3 136.64 1131.19 Q134.302 1129.08 130.297 1129.08 Q128.422 1129.08 126.547 1129.5 Q124.695 1129.92 122.751 1130.8 L122.751 1113.43 Z" fill="#000000" fill-rule="evenodd" fill-opacity="1" /><path clip-path="url(#clip640)" d="M 0 0 M94.7419 795.079 Q91.1308 795.079 89.3021 798.644 Q87.4966 802.186 87.4966 809.315 Q87.4966 816.422 89.3021 819.986 Q91.1308 823.528 94.7419 823.528 Q98.3761 823.528 100.182 819.986 Q102.01 816.422 102.01 809.315 Q102.01 802.186 100.182 798.644 Q98.3761 795.079 94.7419 795.079 M94.7419 791.375 Q100.552 791.375 103.608 795.982 Q106.686 800.565 106.686 809.315 Q106.686 818.042 103.608 822.648 Q100.552 827.232 94.7419 827.232 Q88.9317 827.232 85.8531 822.648 Q82.7975 818.042 82.7975 809.315 Q82.7975 800.565 85.8531 795.982 Q88.9317 791.375 94.7419 791.375 Z" fill="#000000" fill-rule="evenodd" fill-opacity="1" /><path clip-path="url(#clip640)" d="M 0 0 M111.756 820.681 L116.64 820.681 L116.64 826.56 L111.756 826.56 L111.756 820.681 Z" fill="#000000" fill-rule="evenodd" fill-opacity="1" /><path clip-path="url(#clip640)" d="M 0 0 M131.709 795.079 Q128.098 795.079 126.27 798.644 Q124.464 802.186 124.464 809.315 Q124.464 816.422 126.27 819.986 Q128.098 823.528 131.709 823.528 Q135.344 823.528 137.149 819.986 Q138.978 816.422 138.978 809.315 Q138.978 802.186 137.149 798.644 Q135.344 795.079 131.709 795.079 M131.709 791.375 Q137.519 791.375 140.575 795.982 Q143.654 800.565 143.654 809.315 Q143.654 818.042 140.575 822.648 Q137.519 827.232 131.709 827.232 Q125.899 827.232 122.82 822.648 Q119.765 818.042 119.765 809.315 Q119.765 800.565 122.82 795.982 Q125.899 791.375 131.709 791.375 Z" fill="#000000" fill-rule="evenodd" fill-opacity="1" /><path clip-path="url(#clip640)" d="M 0 0 M95.7373 473.645 Q92.1262 473.645 90.2975 477.21 Q88.4919 480.751 88.4919 487.881 Q88.4919 494.987 90.2975 498.552 Q92.1262 502.094 95.7373 502.094 Q99.3715 502.094 101.177 498.552 Q103.006 494.987 103.006 487.881 Q103.006 480.751 101.177 477.21 Q99.3715 473.645 95.7373 473.645 M95.7373 469.941 Q101.547 469.941 104.603 474.548 Q107.682 479.131 107.682 487.881 Q107.682 496.608 104.603 501.214 Q101.547 505.797 95.7373 505.797 Q89.9271 505.797 86.8484 501.214 Q83.7929 496.608 83.7929 487.881 Q83.7929 479.131 86.8484 474.548 Q89.9271 469.941 95.7373 469.941 Z" fill="#000000" fill-rule="evenodd" fill-opacity="1" /><path clip-path="url(#clip640)" d="M 0 0 M112.751 499.246 L117.635 499.246 L117.635 505.126 L112.751 505.126 L112.751 499.246 Z" fill="#000000" fill-rule="evenodd" fill-opacity="1" /><path clip-path="url(#clip640)" d="M 0 0 M122.751 470.566 L141.107 470.566 L141.107 474.501 L127.033 474.501 L127.033 482.973 Q128.052 482.626 129.07 482.464 Q130.089 482.279 131.107 482.279 Q136.894 482.279 140.274 485.45 Q143.654 488.622 143.654 494.038 Q143.654 499.617 140.181 502.719 Q136.709 505.797 130.39 505.797 Q128.214 505.797 125.945 505.427 Q123.7 505.057 121.293 504.316 L121.293 499.617 Q123.376 500.751 125.598 501.307 Q127.82 501.862 130.297 501.862 Q134.302 501.862 136.64 499.756 Q138.978 497.649 138.978 494.038 Q138.978 490.427 136.64 488.321 Q134.302 486.214 130.297 486.214 Q128.422 486.214 126.547 486.631 Q124.695 487.047 122.751 487.927 L122.751 470.566 Z" fill="#000000" fill-rule="evenodd" fill-opacity="1" /><path clip-path="url(#clip640)" d="M 0 0 M86.779 179.757 L94.4178 179.757 L94.4178 153.391 L86.1077 155.058 L86.1077 150.798 L94.3715 149.132 L99.0474 149.132 L99.0474 179.757 L106.686 179.757 L106.686 183.692 L86.779 183.692 L86.779 179.757 Z" fill="#000000" fill-rule="evenodd" fill-opacity="1" /><path clip-path="url(#clip640)" d="M 0 0 M111.756 177.812 L116.64 177.812 L116.64 183.692 L111.756 183.692 L111.756 177.812 Z" fill="#000000" fill-rule="evenodd" fill-opacity="1" /><path clip-path="url(#clip640)" d="M 0 0 M131.709 152.21 Q128.098 152.21 126.27 155.775 Q124.464 159.317 124.464 166.446 Q124.464 173.553 126.27 177.118 Q128.098 180.659 131.709 180.659 Q135.344 180.659 137.149 177.118 Q138.978 173.553 138.978 166.446 Q138.978 159.317 137.149 155.775 Q135.344 152.21 131.709 152.21 M131.709 148.507 Q137.519 148.507 140.575 153.113 Q143.654 157.696 143.654 166.446 Q143.654 175.173 140.575 179.78 Q137.519 184.363 131.709 184.363 Q125.899 184.363 122.82 179.78 Q119.765 175.173 119.765 166.446 Q119.765 157.696 122.82 153.113 Q125.899 148.507 131.709 148.507 Z" fill="#000000" fill-rule="evenodd" fill-opacity="1" /><polyline clip-path="url(#clip642)" style="stroke:#009af9; stroke-width:4; stroke-opacity:1; fill:none" points="
  241.157,1425.2 275.325,1405.63 309.493,1383.24 343.661,1357.74 377.83,1328.84 411.998,1296.28 446.166,1259.82 480.334,1219.29 514.503,1174.61 548.671,1125.8 
  582.839,1072.97 617.008,1016.43 651.176,956.584 685.344,894.023 719.512,829.459 753.681,763.727 787.849,697.738 822.017,632.445 856.185,568.796 890.354,507.69 
  924.522,449.945 958.69,396.273 992.859,347.266 1027.03,303.395 1061.2,265.022 1095.36,232.417 1129.53,205.778 1163.7,185.258 1197.87,170.982 1232.04,163.068 
  1266.2,161.631 1300.37,166.784 1334.54,178.631 1368.71,197.245 1402.88,222.636 1437.05,254.713 1471.21,293.24 1505.38,337.8 1539.55,387.763 1573.72,442.275 
  1607.89,500.276 1642.06,560.545 1676.22,621.765 1710.39,682.615 1744.56,741.855 1778.73,798.407 1812.9,851.41 1847.07,900.253 1881.23,944.57 1915.4,984.225 
  1949.57,1019.27 1983.74,1049.91 2017.91,1076.44 2052.08,1099.22 2086.24,1118.65 2120.41,1135.12 2154.58,1149 2188.75,1160.66 2222.92,1170.42 2257.08,1178.56 
  2291.25,1185.32 
  "/>
<polyline clip-path="url(#clip642)" style="stroke:#e26f46; stroke-width:4; stroke-opacity:1; fill:none" points="
  241.157,1445.72 275.325,1433.48 309.493,1415.01 343.661,1390.48 377.83,1360.15 411.998,1324.31 446.166,1283.33 480.334,1237.61 514.503,1187.61 548.671,1133.83 
  582.839,1076.81 617.008,1017.11 651.176,955.342 685.344,892.111 719.512,828.052 753.681,763.806 787.849,700.014 822.017,637.314 856.185,576.332 890.354,517.678 
  924.522,461.937 958.69,409.667 992.859,361.389 1027.03,317.587 1061.2,278.698 1095.36,245.11 1129.53,217.159 1163.7,195.124 1197.87,179.226 1232.04,169.623 
  1266.2,166.412 1300.37,169.623 1334.54,179.226 1368.71,195.124 1402.88,217.159 1437.05,245.11 1471.21,278.698 1505.38,317.587 1539.55,361.389 1573.72,409.667 
  1607.89,461.937 1642.06,517.678 1676.22,576.332 1710.39,637.314 1744.56,700.014 1778.73,763.806 1812.9,828.052 1847.07,892.111 1881.23,955.342 1915.4,1017.11 
  1949.57,1076.81 1983.74,1133.83 2017.91,1187.61 2052.08,1237.61 2086.24,1283.33 2120.41,1324.31 2154.58,1360.15 2188.75,1390.48 2222.92,1415.01 2257.08,1433.48 
  2291.25,1445.72 
  "/>
<circle clip-path="url(#clip642)" cx="1721.84" cy="644.287" r="14" fill="#3da44d" fill-rule="evenodd" fill-opacity="1" stroke="#000000" stroke-opacity="1" stroke-width="3.2"/>
<circle clip-path="url(#clip642)" cx="363.275" cy="1366.13" r="14" fill="#3da44d" fill-rule="evenodd" fill-opacity="1" stroke="#000000" stroke-opacity="1" stroke-width="3.2"/>
<circle clip-path="url(#clip642)" cx="1243.15" cy="122.391" r="14" fill="#3da44d" fill-rule="evenodd" fill-opacity="1" stroke="#000000" stroke-opacity="1" stroke-width="3.2"/>
<circle clip-path="url(#clip642)" cx="1410.85" cy="287.834" r="14" fill="#3da44d" fill-rule="evenodd" fill-opacity="1" stroke="#000000" stroke-opacity="1" stroke-width="3.2"/>
<circle clip-path="url(#clip642)" cx="1278.22" cy="192.362" r="14" fill="#3da44d" fill-rule="evenodd" fill-opacity="1" stroke="#000000" stroke-opacity="1" stroke-width="3.2"/>
<circle clip-path="url(#clip642)" cx="1924.99" cy="1048.27" r="14" fill="#3da44d" fill-rule="evenodd" fill-opacity="1" stroke="#000000" stroke-opacity="1" stroke-width="3.2"/>
<circle clip-path="url(#clip642)" cx="1444.41" cy="256.23" r="14" fill="#3da44d" fill-rule="evenodd" fill-opacity="1" stroke="#000000" stroke-opacity="1" stroke-width="3.2"/>
<circle clip-path="url(#clip642)" cx="1457.84" cy="391.684" r="14" fill="#3da44d" fill-rule="evenodd" fill-opacity="1" stroke="#000000" stroke-opacity="1" stroke-width="3.2"/>
<circle clip-path="url(#clip642)" cx="1907.74" cy="936.971" r="14" fill="#3da44d" fill-rule="evenodd" fill-opacity="1" stroke="#000000" stroke-opacity="1" stroke-width="3.2"/>
<circle clip-path="url(#clip642)" cx="993.536" cy="403.428" r="14" fill="#3da44d" fill-rule="evenodd" fill-opacity="1" stroke="#000000" stroke-opacity="1" stroke-width="3.2"/>
<circle clip-path="url(#clip642)" cx="1748.27" cy="788.33" r="14" fill="#3da44d" fill-rule="evenodd" fill-opacity="1" stroke="#000000" stroke-opacity="1" stroke-width="3.2"/>
<circle clip-path="url(#clip642)" cx="1363.86" cy="227.772" r="14" fill="#3da44d" fill-rule="evenodd" fill-opacity="1" stroke="#000000" stroke-opacity="1" stroke-width="3.2"/>
<circle clip-path="url(#clip642)" cx="1196.41" cy="169.447" r="14" fill="#3da44d" fill-rule="evenodd" fill-opacity="1" stroke="#000000" stroke-opacity="1" stroke-width="3.2"/>
<circle clip-path="url(#clip642)" cx="1363.9" cy="314.44" r="14" fill="#3da44d" fill-rule="evenodd" fill-opacity="1" stroke="#000000" stroke-opacity="1" stroke-width="3.2"/>
<circle clip-path="url(#clip642)" cx="1429.21" cy="262.353" r="14" fill="#3da44d" fill-rule="evenodd" fill-opacity="1" stroke="#000000" stroke-opacity="1" stroke-width="3.2"/>
<circle clip-path="url(#clip642)" cx="1098.58" cy="183.85" r="14" fill="#3da44d" fill-rule="evenodd" fill-opacity="1" stroke="#000000" stroke-opacity="1" stroke-width="3.2"/>
<circle clip-path="url(#clip642)" cx="603.142" cy="1081.97" r="14" fill="#3da44d" fill-rule="evenodd" fill-opacity="1" stroke="#000000" stroke-opacity="1" stroke-width="3.2"/>
<circle clip-path="url(#clip642)" cx="732.349" cy="863.502" r="14" fill="#3da44d" fill-rule="evenodd" fill-opacity="1" stroke="#000000" stroke-opacity="1" stroke-width="3.2"/>
<circle clip-path="url(#clip642)" cx="1727.98" cy="667.94" r="14" fill="#3da44d" fill-rule="evenodd" fill-opacity="1" stroke="#000000" stroke-opacity="1" stroke-width="3.2"/>
<circle clip-path="url(#clip642)" cx="668.17" cy="852.437" r="14" fill="#3da44d" fill-rule="evenodd" fill-opacity="1" stroke="#000000" stroke-opacity="1" stroke-width="3.2"/>
<circle clip-path="url(#clip642)" cx="680.025" cy="891.564" r="14" fill="#3da44d" fill-rule="evenodd" fill-opacity="1" stroke="#000000" stroke-opacity="1" stroke-width="3.2"/>
<circle clip-path="url(#clip642)" cx="1338.87" cy="198.408" r="14" fill="#3da44d" fill-rule="evenodd" fill-opacity="1" stroke="#000000" stroke-opacity="1" stroke-width="3.2"/>
<circle clip-path="url(#clip642)" cx="1543.68" cy="485.895" r="14" fill="#3da44d" fill-rule="evenodd" fill-opacity="1" stroke="#000000" stroke-opacity="1" stroke-width="3.2"/>
<circle clip-path="url(#clip642)" cx="1204.26" cy="141.938" r="14" fill="#3da44d" fill-rule="evenodd" fill-opacity="1" stroke="#000000" stroke-opacity="1" stroke-width="3.2"/>
<circle clip-path="url(#clip642)" cx="1314.33" cy="87.9763" r="14" fill="#3da44d" fill-rule="evenodd" fill-opacity="1" stroke="#000000" stroke-opacity="1" stroke-width="3.2"/>
<circle clip-path="url(#clip642)" cx="1723.81" cy="750.948" r="14" fill="#3da44d" fill-rule="evenodd" fill-opacity="1" stroke="#000000" stroke-opacity="1" stroke-width="3.2"/>
<circle clip-path="url(#clip642)" cx="644.06" cy="1009.17" r="14" fill="#3da44d" fill-rule="evenodd" fill-opacity="1" stroke="#000000" stroke-opacity="1" stroke-width="3.2"/>
<circle clip-path="url(#clip642)" cx="1205.26" cy="149.472" r="14" fill="#3da44d" fill-rule="evenodd" fill-opacity="1" stroke="#000000" stroke-opacity="1" stroke-width="3.2"/>
<circle clip-path="url(#clip642)" cx="1435.56" cy="258.58" r="14" fill="#3da44d" fill-rule="evenodd" fill-opacity="1" stroke="#000000" stroke-opacity="1" stroke-width="3.2"/>
<circle clip-path="url(#clip642)" cx="1452.38" cy="290.704" r="14" fill="#3da44d" fill-rule="evenodd" fill-opacity="1" stroke="#000000" stroke-opacity="1" stroke-width="3.2"/>
<circle clip-path="url(#clip642)" cx="859.36" cy="552.806" r="14" fill="#3da44d" fill-rule="evenodd" fill-opacity="1" stroke="#000000" stroke-opacity="1" stroke-width="3.2"/>
<circle clip-path="url(#clip642)" cx="818.585" cy="692.885" r="14" fill="#3da44d" fill-rule="evenodd" fill-opacity="1" stroke="#000000" stroke-opacity="1" stroke-width="3.2"/>
<circle clip-path="url(#clip642)" cx="489.924" cy="1237.43" r="14" fill="#3da44d" fill-rule="evenodd" fill-opacity="1" stroke="#000000" stroke-opacity="1" stroke-width="3.2"/>
<circle clip-path="url(#clip642)" cx="1446.99" cy="125.323" r="14" fill="#3da44d" fill-rule="evenodd" fill-opacity="1" stroke="#000000" stroke-opacity="1" stroke-width="3.2"/>
<circle clip-path="url(#clip642)" cx="1462.61" cy="489.444" r="14" fill="#3da44d" fill-rule="evenodd" fill-opacity="1" stroke="#000000" stroke-opacity="1" stroke-width="3.2"/>
<circle clip-path="url(#clip642)" cx="1423.69" cy="226.271" r="14" fill="#3da44d" fill-rule="evenodd" fill-opacity="1" stroke="#000000" stroke-opacity="1" stroke-width="3.2"/>
<circle clip-path="url(#clip642)" cx="1282.53" cy="118.687" r="14" fill="#3da44d" fill-rule="evenodd" fill-opacity="1" stroke="#000000" stroke-opacity="1" stroke-width="3.2"/>
<circle clip-path="url(#clip642)" cx="1708.83" cy="638.65" r="14" fill="#3da44d" fill-rule="evenodd" fill-opacity="1" stroke="#000000" stroke-opacity="1" stroke-width="3.2"/>
<circle clip-path="url(#clip642)" cx="1279.11" cy="191.693" r="14" fill="#3da44d" fill-rule="evenodd" fill-opacity="1" stroke="#000000" stroke-opacity="1" stroke-width="3.2"/>
<circle clip-path="url(#clip642)" cx="635.286" cy="943.154" r="14" fill="#3da44d" fill-rule="evenodd" fill-opacity="1" stroke="#000000" stroke-opacity="1" stroke-width="3.2"/>
<circle clip-path="url(#clip642)" cx="890.506" cy="446.052" r="14" fill="#3da44d" fill-rule="evenodd" fill-opacity="1" stroke="#000000" stroke-opacity="1" stroke-width="3.2"/>
<circle clip-path="url(#clip642)" cx="1883.13" cy="955.952" r="14" fill="#3da44d" fill-rule="evenodd" fill-opacity="1" stroke="#000000" stroke-opacity="1" stroke-width="3.2"/>
<circle clip-path="url(#clip642)" cx="722.223" cy="744.217" r="14" fill="#3da44d" fill-rule="evenodd" fill-opacity="1" stroke="#000000" stroke-opacity="1" stroke-width="3.2"/>
<circle clip-path="url(#clip642)" cx="1636.97" cy="624.576" r="14" fill="#3da44d" fill-rule="evenodd" fill-opacity="1" stroke="#000000" stroke-opacity="1" stroke-width="3.2"/>
<circle clip-path="url(#clip642)" cx="1176.84" cy="205.591" r="14" fill="#3da44d" fill-rule="evenodd" fill-opacity="1" stroke="#000000" stroke-opacity="1" stroke-width="3.2"/>
<circle clip-path="url(#clip642)" cx="1133.76" cy="180.221" r="14" fill="#3da44d" fill-rule="evenodd" fill-opacity="1" stroke="#000000" stroke-opacity="1" stroke-width="3.2"/>
<circle clip-path="url(#clip642)" cx="918.636" cy="495.909" r="14" fill="#3da44d" fill-rule="evenodd" fill-opacity="1" stroke="#000000" stroke-opacity="1" stroke-width="3.2"/>
<circle clip-path="url(#clip642)" cx="1476.53" cy="319.579" r="14" fill="#3da44d" fill-rule="evenodd" fill-opacity="1" stroke="#000000" stroke-opacity="1" stroke-width="3.2"/>
<circle clip-path="url(#clip642)" cx="1264.14" cy="188.698" r="14" fill="#3da44d" fill-rule="evenodd" fill-opacity="1" stroke="#000000" stroke-opacity="1" stroke-width="3.2"/>
<circle clip-path="url(#clip642)" cx="1190.71" cy="187.078" r="14" fill="#3da44d" fill-rule="evenodd" fill-opacity="1" stroke="#000000" stroke-opacity="1" stroke-width="3.2"/>
<circle clip-path="url(#clip642)" cx="1652.83" cy="522.389" r="14" fill="#3da44d" fill-rule="evenodd" fill-opacity="1" stroke="#000000" stroke-opacity="1" stroke-width="3.2"/>
<circle clip-path="url(#clip642)" cx="1042.47" cy="269.518" r="14" fill="#3da44d" fill-rule="evenodd" fill-opacity="1" stroke="#000000" stroke-opacity="1" stroke-width="3.2"/>
<circle clip-path="url(#clip642)" cx="1155.35" cy="234.015" r="14" fill="#3da44d" fill-rule="evenodd" fill-opacity="1" stroke="#000000" stroke-opacity="1" stroke-width="3.2"/>
<circle clip-path="url(#clip642)" cx="1133.26" cy="214.04" r="14" fill="#3da44d" fill-rule="evenodd" fill-opacity="1" stroke="#000000" stroke-opacity="1" stroke-width="3.2"/>
<circle clip-path="url(#clip642)" cx="882.151" cy="403.285" r="14" fill="#3da44d" fill-rule="evenodd" fill-opacity="1" stroke="#000000" stroke-opacity="1" stroke-width="3.2"/>
<circle clip-path="url(#clip642)" cx="1387.96" cy="282.967" r="14" fill="#3da44d" fill-rule="evenodd" fill-opacity="1" stroke="#000000" stroke-opacity="1" stroke-width="3.2"/>
<circle clip-path="url(#clip642)" cx="1027.15" cy="292.309" r="14" fill="#3da44d" fill-rule="evenodd" fill-opacity="1" stroke="#000000" stroke-opacity="1" stroke-width="3.2"/>
<circle clip-path="url(#clip642)" cx="941.355" cy="438.918" r="14" fill="#3da44d" fill-rule="evenodd" fill-opacity="1" stroke="#000000" stroke-opacity="1" stroke-width="3.2"/>
<circle clip-path="url(#clip642)" cx="1406.58" cy="163.094" r="14" fill="#3da44d" fill-rule="evenodd" fill-opacity="1" stroke="#000000" stroke-opacity="1" stroke-width="3.2"/>
<circle clip-path="url(#clip642)" cx="1208.84" cy="162.342" r="14" fill="#3da44d" fill-rule="evenodd" fill-opacity="1" stroke="#000000" stroke-opacity="1" stroke-width="3.2"/>
<circle clip-path="url(#clip642)" cx="622.56" cy="1001.88" r="14" fill="#3da44d" fill-rule="evenodd" fill-opacity="1" stroke="#000000" stroke-opacity="1" stroke-width="3.2"/>
<circle clip-path="url(#clip642)" cx="1441.8" cy="140.319" r="14" fill="#3da44d" fill-rule="evenodd" fill-opacity="1" stroke="#000000" stroke-opacity="1" stroke-width="3.2"/>
<circle clip-path="url(#clip642)" cx="1341.87" cy="175.811" r="14" fill="#3da44d" fill-rule="evenodd" fill-opacity="1" stroke="#000000" stroke-opacity="1" stroke-width="3.2"/>
<circle clip-path="url(#clip642)" cx="1163.2" cy="237.297" r="14" fill="#3da44d" fill-rule="evenodd" fill-opacity="1" stroke="#000000" stroke-opacity="1" stroke-width="3.2"/>
<circle clip-path="url(#clip642)" cx="1218.43" cy="93.2329" r="14" fill="#3da44d" fill-rule="evenodd" fill-opacity="1" stroke="#000000" stroke-opacity="1" stroke-width="3.2"/>
<circle clip-path="url(#clip642)" cx="1752.87" cy="712.064" r="14" fill="#3da44d" fill-rule="evenodd" fill-opacity="1" stroke="#000000" stroke-opacity="1" stroke-width="3.2"/>
<circle clip-path="url(#clip642)" cx="1057.24" cy="320.405" r="14" fill="#3da44d" fill-rule="evenodd" fill-opacity="1" stroke="#000000" stroke-opacity="1" stroke-width="3.2"/>
<circle clip-path="url(#clip642)" cx="1465.37" cy="196.756" r="14" fill="#3da44d" fill-rule="evenodd" fill-opacity="1" stroke="#000000" stroke-opacity="1" stroke-width="3.2"/>
<circle clip-path="url(#clip642)" cx="1436.57" cy="196.156" r="14" fill="#3da44d" fill-rule="evenodd" fill-opacity="1" stroke="#000000" stroke-opacity="1" stroke-width="3.2"/>
<circle clip-path="url(#clip642)" cx="405.981" cy="1299.46" r="14" fill="#3da44d" fill-rule="evenodd" fill-opacity="1" stroke="#000000" stroke-opacity="1" stroke-width="3.2"/>
<circle clip-path="url(#clip642)" cx="1152.18" cy="161.167" r="14" fill="#3da44d" fill-rule="evenodd" fill-opacity="1" stroke="#000000" stroke-opacity="1" stroke-width="3.2"/>
<circle clip-path="url(#clip642)" cx="1197.74" cy="195.008" r="14" fill="#3da44d" fill-rule="evenodd" fill-opacity="1" stroke="#000000" stroke-opacity="1" stroke-width="3.2"/>
<circle clip-path="url(#clip642)" cx="962.786" cy="530.186" r="14" fill="#3da44d" fill-rule="evenodd" fill-opacity="1" stroke="#000000" stroke-opacity="1" stroke-width="3.2"/>
<circle clip-path="url(#clip642)" cx="1293.12" cy="200.889" r="14" fill="#3da44d" fill-rule="evenodd" fill-opacity="1" stroke="#000000" stroke-opacity="1" stroke-width="3.2"/>
<circle clip-path="url(#clip642)" cx="1712.79" cy="684.764" r="14" fill="#3da44d" fill-rule="evenodd" fill-opacity="1" stroke="#000000" stroke-opacity="1" stroke-width="3.2"/>
<circle clip-path="url(#clip642)" cx="1251.69" cy="130.47" r="14" fill="#3da44d" fill-rule="evenodd" fill-opacity="1" stroke="#000000" stroke-opacity="1" stroke-width="3.2"/>
<circle clip-path="url(#clip642)" cx="1428.97" cy="242.22" r="14" fill="#3da44d" fill-rule="evenodd" fill-opacity="1" stroke="#000000" stroke-opacity="1" stroke-width="3.2"/>
<circle clip-path="url(#clip642)" cx="1198.26" cy="108.899" r="14" fill="#3da44d" fill-rule="evenodd" fill-opacity="1" stroke="#000000" stroke-opacity="1" stroke-width="3.2"/>
<circle clip-path="url(#clip642)" cx="1619.81" cy="516.223" r="14" fill="#3da44d" fill-rule="evenodd" fill-opacity="1" stroke="#000000" stroke-opacity="1" stroke-width="3.2"/>
<circle clip-path="url(#clip642)" cx="1580.33" cy="305.566" r="14" fill="#3da44d" fill-rule="evenodd" fill-opacity="1" stroke="#000000" stroke-opacity="1" stroke-width="3.2"/>
<circle clip-path="url(#clip642)" cx="570.85" cy="1152.12" r="14" fill="#3da44d" fill-rule="evenodd" fill-opacity="1" stroke="#000000" stroke-opacity="1" stroke-width="3.2"/>
<circle clip-path="url(#clip642)" cx="1457.28" cy="296.147" r="14" fill="#3da44d" fill-rule="evenodd" fill-opacity="1" stroke="#000000" stroke-opacity="1" stroke-width="3.2"/>
<circle clip-path="url(#clip642)" cx="1147.35" cy="125.597" r="14" fill="#3da44d" fill-rule="evenodd" fill-opacity="1" stroke="#000000" stroke-opacity="1" stroke-width="3.2"/>
<circle clip-path="url(#clip642)" cx="1126.09" cy="189.054" r="14" fill="#3da44d" fill-rule="evenodd" fill-opacity="1" stroke="#000000" stroke-opacity="1" stroke-width="3.2"/>
<circle clip-path="url(#clip642)" cx="1304.26" cy="221.051" r="14" fill="#3da44d" fill-rule="evenodd" fill-opacity="1" stroke="#000000" stroke-opacity="1" stroke-width="3.2"/>
<circle clip-path="url(#clip642)" cx="1351.67" cy="298.672" r="14" fill="#3da44d" fill-rule="evenodd" fill-opacity="1" stroke="#000000" stroke-opacity="1" stroke-width="3.2"/>
<circle clip-path="url(#clip642)" cx="1624.24" cy="524.846" r="14" fill="#3da44d" fill-rule="evenodd" fill-opacity="1" stroke="#000000" stroke-opacity="1" stroke-width="3.2"/>
<circle clip-path="url(#clip642)" cx="1467.45" cy="244.871" r="14" fill="#3da44d" fill-rule="evenodd" fill-opacity="1" stroke="#000000" stroke-opacity="1" stroke-width="3.2"/>
<circle clip-path="url(#clip642)" cx="532.226" cy="1099.29" r="14" fill="#3da44d" fill-rule="evenodd" fill-opacity="1" stroke="#000000" stroke-opacity="1" stroke-width="3.2"/>
<circle clip-path="url(#clip642)" cx="1598.28" cy="526.153" r="14" fill="#3da44d" fill-rule="evenodd" fill-opacity="1" stroke="#000000" stroke-opacity="1" stroke-width="3.2"/>
<circle clip-path="url(#clip642)" cx="1575.84" cy="418.967" r="14" fill="#3da44d" fill-rule="evenodd" fill-opacity="1" stroke="#000000" stroke-opacity="1" stroke-width="3.2"/>
<circle clip-path="url(#clip642)" cx="1672.31" cy="562.534" r="14" fill="#3da44d" fill-rule="evenodd" fill-opacity="1" stroke="#000000" stroke-opacity="1" stroke-width="3.2"/>
<circle clip-path="url(#clip642)" cx="738.309" cy="630.622" r="14" fill="#3da44d" fill-rule="evenodd" fill-opacity="1" stroke="#000000" stroke-opacity="1" stroke-width="3.2"/>
<circle clip-path="url(#clip642)" cx="1084.31" cy="217.655" r="14" fill="#3da44d" fill-rule="evenodd" fill-opacity="1" stroke="#000000" stroke-opacity="1" stroke-width="3.2"/>
<circle clip-path="url(#clip642)" cx="1133.21" cy="185.11" r="14" fill="#3da44d" fill-rule="evenodd" fill-opacity="1" stroke="#000000" stroke-opacity="1" stroke-width="3.2"/>
<circle clip-path="url(#clip642)" cx="423.993" cy="1342.66" r="14" fill="#3da44d" fill-rule="evenodd" fill-opacity="1" stroke="#000000" stroke-opacity="1" stroke-width="3.2"/>
<circle clip-path="url(#clip642)" cx="2024.68" cy="1172.78" r="14" fill="#3da44d" fill-rule="evenodd" fill-opacity="1" stroke="#000000" stroke-opacity="1" stroke-width="3.2"/>
<circle clip-path="url(#clip642)" cx="1212.83" cy="118.693" r="14" fill="#3da44d" fill-rule="evenodd" fill-opacity="1" stroke="#000000" stroke-opacity="1" stroke-width="3.2"/>
<circle clip-path="url(#clip642)" cx="725.968" cy="942.619" r="14" fill="#3da44d" fill-rule="evenodd" fill-opacity="1" stroke="#000000" stroke-opacity="1" stroke-width="3.2"/>
<circle clip-path="url(#clip642)" cx="1814.39" cy="898.583" r="14" fill="#3da44d" fill-rule="evenodd" fill-opacity="1" stroke="#000000" stroke-opacity="1" stroke-width="3.2"/>
<path clip-path="url(#clip640)" d="
M1844.77 337.138 L2280.32 337.138 L2280.32 95.2176 L1844.77 95.2176  Z
  " fill="#ffffff" fill-rule="evenodd" fill-opacity="1"/>
<polyline clip-path="url(#clip640)" style="stroke:#000000; stroke-width:4; stroke-opacity:1; fill:none" points="
  1844.77,337.138 2280.32,337.138 2280.32,95.2176 1844.77,95.2176 1844.77,337.138 
  "/>
<polyline clip-path="url(#clip640)" style="stroke:#009af9; stroke-width:4; stroke-opacity:1; fill:none" points="
  1868.91,155.698 2013.79,155.698 
  "/>
<path clip-path="url(#clip640)" d="M 0 0 M2042.61 142.26 L2042.61 155.246 L2048.49 155.246 Q2051.75 155.246 2053.53 153.556 Q2055.32 151.867 2055.32 148.742 Q2055.32 145.64 2053.53 143.95 Q2051.75 142.26 2048.49 142.26 L2042.61 142.26 M2037.93 138.418 L2048.49 138.418 Q2054.3 138.418 2057.26 141.056 Q2060.25 143.672 2060.25 148.742 Q2060.25 153.857 2057.26 156.473 Q2054.3 159.089 2048.49 159.089 L2042.61 159.089 L2042.61 172.978 L2037.93 172.978 L2037.93 138.418 Z" fill="#000000" fill-rule="evenodd" fill-opacity="1" /><path clip-path="url(#clip640)" d="M 0 0 M2078.9 151.033 Q2078.19 150.617 2077.33 150.431 Q2076.5 150.223 2075.48 150.223 Q2071.87 150.223 2069.92 152.584 Q2068 154.922 2068 159.32 L2068 172.978 L2063.72 172.978 L2063.72 147.052 L2068 147.052 L2068 151.08 Q2069.34 148.718 2071.5 147.584 Q2073.65 146.427 2076.73 146.427 Q2077.17 146.427 2077.7 146.496 Q2078.23 146.543 2078.88 146.658 L2078.9 151.033 Z" fill="#000000" fill-rule="evenodd" fill-opacity="1" /><path clip-path="url(#clip640)" d="M 0 0 M2104.51 158.95 L2104.51 161.033 L2084.92 161.033 Q2085.2 165.431 2087.56 167.746 Q2089.95 170.038 2094.18 170.038 Q2096.64 170.038 2098.93 169.436 Q2101.24 168.834 2103.51 167.63 L2103.51 171.658 Q2101.22 172.63 2098.81 173.14 Q2096.4 173.649 2093.93 173.649 Q2087.72 173.649 2084.09 170.038 Q2080.48 166.427 2080.48 160.269 Q2080.48 153.904 2083.9 150.177 Q2087.35 146.427 2093.19 146.427 Q2098.42 146.427 2101.45 149.806 Q2104.51 153.163 2104.51 158.95 M2100.25 157.7 Q2100.2 154.205 2098.28 152.121 Q2096.38 150.038 2093.23 150.038 Q2089.67 150.038 2087.51 152.052 Q2085.39 154.066 2085.06 157.723 L2100.25 157.7 Z" fill="#000000" fill-rule="evenodd" fill-opacity="1" /><path clip-path="url(#clip640)" d="M 0 0 M2126.03 150.987 L2126.03 136.959 L2130.29 136.959 L2130.29 172.978 L2126.03 172.978 L2126.03 169.089 Q2124.69 171.403 2122.63 172.538 Q2120.59 173.649 2117.72 173.649 Q2113.02 173.649 2110.06 169.899 Q2107.12 166.149 2107.12 160.038 Q2107.12 153.927 2110.06 150.177 Q2113.02 146.427 2117.72 146.427 Q2120.59 146.427 2122.63 147.561 Q2124.69 148.672 2126.03 150.987 M2111.52 160.038 Q2111.52 164.737 2113.44 167.422 Q2115.39 170.084 2118.76 170.084 Q2122.14 170.084 2124.09 167.422 Q2126.03 164.737 2126.03 160.038 Q2126.03 155.339 2124.09 152.677 Q2122.14 149.992 2118.76 149.992 Q2115.39 149.992 2113.44 152.677 Q2111.52 155.339 2111.52 160.038 Z" fill="#000000" fill-rule="evenodd" fill-opacity="1" /><path clip-path="url(#clip640)" d="M 0 0 M2134.76 147.052 L2139.02 147.052 L2139.02 172.978 L2134.76 172.978 L2134.76 147.052 M2134.76 136.959 L2139.02 136.959 L2139.02 142.353 L2134.76 142.353 L2134.76 136.959 Z" fill="#000000" fill-rule="evenodd" fill-opacity="1" /><path clip-path="url(#clip640)" d="M 0 0 M2162.14 148.047 L2162.14 152.029 Q2160.34 151.033 2158.51 150.547 Q2156.7 150.038 2154.85 150.038 Q2150.71 150.038 2148.42 152.677 Q2146.13 155.292 2146.13 160.038 Q2146.13 164.783 2148.42 167.422 Q2150.71 170.038 2154.85 170.038 Q2156.7 170.038 2158.51 169.552 Q2160.34 169.042 2162.14 168.047 L2162.14 171.982 Q2160.36 172.816 2158.44 173.232 Q2156.54 173.649 2154.39 173.649 Q2148.53 173.649 2145.08 169.968 Q2141.63 166.288 2141.63 160.038 Q2141.63 153.695 2145.11 150.061 Q2148.6 146.427 2154.67 146.427 Q2156.63 146.427 2158.51 146.843 Q2160.38 147.237 2162.14 148.047 Z" fill="#000000" fill-rule="evenodd" fill-opacity="1" /><path clip-path="url(#clip640)" d="M 0 0 M2170.82 139.691 L2170.82 147.052 L2179.6 147.052 L2179.6 150.362 L2170.82 150.362 L2170.82 164.436 Q2170.82 167.607 2171.68 168.51 Q2172.56 169.413 2175.22 169.413 L2179.6 169.413 L2179.6 172.978 L2175.22 172.978 Q2170.29 172.978 2168.42 171.149 Q2166.54 169.297 2166.54 164.436 L2166.54 150.362 L2163.42 150.362 L2163.42 147.052 L2166.54 147.052 L2166.54 139.691 L2170.82 139.691 Z" fill="#000000" fill-rule="evenodd" fill-opacity="1" /><path clip-path="url(#clip640)" d="M 0 0 M2206.24 158.95 L2206.24 161.033 L2186.66 161.033 Q2186.94 165.431 2189.3 167.746 Q2191.68 170.038 2195.92 170.038 Q2198.37 170.038 2200.66 169.436 Q2202.98 168.834 2205.25 167.63 L2205.25 171.658 Q2202.95 172.63 2200.55 173.14 Q2198.14 173.649 2195.66 173.649 Q2189.46 173.649 2185.82 170.038 Q2182.21 166.427 2182.21 160.269 Q2182.21 153.904 2185.64 150.177 Q2189.09 146.427 2194.92 146.427 Q2200.15 146.427 2203.19 149.806 Q2206.24 153.163 2206.24 158.95 M2201.98 157.7 Q2201.94 154.205 2200.01 152.121 Q2198.12 150.038 2194.97 150.038 Q2191.4 150.038 2189.25 152.052 Q2187.12 154.066 2186.8 157.723 L2201.98 157.7 Z" fill="#000000" fill-rule="evenodd" fill-opacity="1" /><path clip-path="url(#clip640)" d="M 0 0 M2227.77 150.987 L2227.77 136.959 L2232.03 136.959 L2232.03 172.978 L2227.77 172.978 L2227.77 169.089 Q2226.43 171.403 2224.37 172.538 Q2222.33 173.649 2219.46 173.649 Q2214.76 173.649 2211.8 169.899 Q2208.86 166.149 2208.86 160.038 Q2208.86 153.927 2211.8 150.177 Q2214.76 146.427 2219.46 146.427 Q2222.33 146.427 2224.37 147.561 Q2226.43 148.672 2227.77 150.987 M2213.25 160.038 Q2213.25 164.737 2215.18 167.422 Q2217.12 170.084 2220.5 170.084 Q2223.88 170.084 2225.82 167.422 Q2227.77 164.737 2227.77 160.038 Q2227.77 155.339 2225.82 152.677 Q2223.88 149.992 2220.5 149.992 Q2217.12 149.992 2215.18 152.677 Q2213.25 155.339 2213.25 160.038 Z" fill="#000000" fill-rule="evenodd" fill-opacity="1" /><polyline clip-path="url(#clip640)" style="stroke:#e26f46; stroke-width:4; stroke-opacity:1; fill:none" points="
  1868.91,216.178 2013.79,216.178 
  "/>
<path clip-path="url(#clip640)" d="M 0 0 M2037.93 198.898 L2067.17 198.898 L2067.17 202.833 L2054.9 202.833 L2054.9 233.458 L2050.2 233.458 L2050.2 202.833 L2037.93 202.833 L2037.93 198.898 Z" fill="#000000" fill-rule="evenodd" fill-opacity="1" /><path clip-path="url(#clip640)" d="M 0 0 M2079.69 211.513 Q2078.97 211.097 2078.12 210.911 Q2077.28 210.703 2076.26 210.703 Q2072.65 210.703 2070.71 213.064 Q2068.79 215.402 2068.79 219.8 L2068.79 233.458 L2064.51 233.458 L2064.51 207.532 L2068.79 207.532 L2068.79 211.56 Q2070.13 209.198 2072.28 208.064 Q2074.44 206.907 2077.51 206.907 Q2077.95 206.907 2078.49 206.976 Q2079.02 207.023 2079.67 207.138 L2079.69 211.513 Z" fill="#000000" fill-rule="evenodd" fill-opacity="1" /><path clip-path="url(#clip640)" d="M 0 0 M2083.72 223.226 L2083.72 207.532 L2087.98 207.532 L2087.98 223.064 Q2087.98 226.745 2089.41 228.596 Q2090.85 230.425 2093.72 230.425 Q2097.17 230.425 2099.16 228.226 Q2101.17 226.027 2101.17 222.231 L2101.17 207.532 L2105.43 207.532 L2105.43 233.458 L2101.17 233.458 L2101.17 229.476 Q2099.62 231.837 2097.56 232.995 Q2095.52 234.129 2092.82 234.129 Q2088.35 234.129 2086.03 231.351 Q2083.72 228.573 2083.72 223.226 M2094.44 206.907 L2094.44 206.907 Z" fill="#000000" fill-rule="evenodd" fill-opacity="1" /><path clip-path="url(#clip640)" d="M 0 0 M2132.07 219.43 L2132.07 221.513 L2112.49 221.513 Q2112.77 225.911 2115.13 228.226 Q2117.51 230.518 2121.75 230.518 Q2124.2 230.518 2126.5 229.916 Q2128.81 229.314 2131.08 228.11 L2131.08 232.138 Q2128.79 233.11 2126.38 233.62 Q2123.97 234.129 2121.5 234.129 Q2115.29 234.129 2111.66 230.518 Q2108.05 226.907 2108.05 220.749 Q2108.05 214.384 2111.47 210.657 Q2114.92 206.907 2120.76 206.907 Q2125.99 206.907 2129.02 210.286 Q2132.07 213.643 2132.07 219.43 M2127.82 218.18 Q2127.77 214.685 2125.85 212.601 Q2123.95 210.518 2120.8 210.518 Q2117.24 210.518 2115.08 212.532 Q2112.95 214.546 2112.63 218.203 L2127.82 218.18 Z" fill="#000000" fill-rule="evenodd" fill-opacity="1" /><circle clip-path="url(#clip640)" cx="1941.35" cy="276.658" r="23" fill="#3da44d" fill-rule="evenodd" fill-opacity="1" stroke="#000000" stroke-opacity="1" stroke-width="5.12"/>
<path clip-path="url(#clip640)" d="M 0 0 M2042.61 263.22 L2042.61 290.095 L2048.26 290.095 Q2055.41 290.095 2058.72 286.854 Q2062.05 283.614 2062.05 276.623 Q2062.05 269.678 2058.72 266.461 Q2055.41 263.22 2048.26 263.22 L2042.61 263.22 M2037.93 259.378 L2047.54 259.378 Q2057.58 259.378 2062.28 263.567 Q2066.98 267.734 2066.98 276.623 Q2066.98 285.558 2062.26 289.748 Q2057.54 293.938 2047.54 293.938 L2037.93 293.938 L2037.93 259.378 Z" fill="#000000" fill-rule="evenodd" fill-opacity="1" /><path clip-path="url(#clip640)" d="M 0 0 M2083.23 280.905 Q2078.07 280.905 2076.08 282.086 Q2074.09 283.266 2074.09 286.114 Q2074.09 288.382 2075.57 289.725 Q2077.08 291.044 2079.64 291.044 Q2083.19 291.044 2085.32 288.544 Q2087.47 286.021 2087.47 281.854 L2087.47 280.905 L2083.23 280.905 M2091.73 279.146 L2091.73 293.938 L2087.47 293.938 L2087.47 290.002 Q2086.01 292.363 2083.83 293.498 Q2081.66 294.609 2078.51 294.609 Q2074.53 294.609 2072.17 292.387 Q2069.83 290.141 2069.83 286.391 Q2069.83 282.016 2072.75 279.794 Q2075.69 277.572 2081.5 277.572 L2087.47 277.572 L2087.47 277.155 Q2087.47 274.215 2085.52 272.618 Q2083.6 270.998 2080.11 270.998 Q2077.89 270.998 2075.78 271.53 Q2073.67 272.063 2071.73 273.127 L2071.73 269.192 Q2074.07 268.29 2076.26 267.85 Q2078.46 267.387 2080.55 267.387 Q2086.17 267.387 2088.95 270.303 Q2091.73 273.22 2091.73 279.146 Z" fill="#000000" fill-rule="evenodd" fill-opacity="1" /><path clip-path="url(#clip640)" d="M 0 0 M2100.41 260.651 L2100.41 268.012 L2109.18 268.012 L2109.18 271.322 L2100.41 271.322 L2100.41 285.396 Q2100.41 288.567 2101.26 289.47 Q2102.14 290.373 2104.81 290.373 L2109.18 290.373 L2109.18 293.938 L2104.81 293.938 Q2099.88 293.938 2098 292.109 Q2096.13 290.257 2096.13 285.396 L2096.13 271.322 L2093 271.322 L2093 268.012 L2096.13 268.012 L2096.13 260.651 L2100.41 260.651 Z" fill="#000000" fill-rule="evenodd" fill-opacity="1" /><path clip-path="url(#clip640)" d="M 0 0 M2125.43 280.905 Q2120.27 280.905 2118.28 282.086 Q2116.29 283.266 2116.29 286.114 Q2116.29 288.382 2117.77 289.725 Q2119.27 291.044 2121.84 291.044 Q2125.39 291.044 2127.51 288.544 Q2129.67 286.021 2129.67 281.854 L2129.67 280.905 L2125.43 280.905 M2133.93 279.146 L2133.93 293.938 L2129.67 293.938 L2129.67 290.002 Q2128.21 292.363 2126.03 293.498 Q2123.86 294.609 2120.71 294.609 Q2116.73 294.609 2114.37 292.387 Q2112.03 290.141 2112.03 286.391 Q2112.03 282.016 2114.95 279.794 Q2117.89 277.572 2123.7 277.572 L2129.67 277.572 L2129.67 277.155 Q2129.67 274.215 2127.72 272.618 Q2125.8 270.998 2122.31 270.998 Q2120.08 270.998 2117.98 271.53 Q2115.87 272.063 2113.93 273.127 L2113.93 269.192 Q2116.26 268.29 2118.46 267.85 Q2120.66 267.387 2122.75 267.387 Q2128.37 267.387 2131.15 270.303 Q2133.93 273.22 2133.93 279.146 Z" fill="#000000" fill-rule="evenodd" fill-opacity="1" /></svg>
