<?xml version="1.0" encoding="utf-8"?>
<svg xmlns="http://www.w3.org/2000/svg" xmlns:xlink="http://www.w3.org/1999/xlink" width="800" height="470" viewBox="0 0 3200 1880">
<defs>
  <clipPath id="clip770">
    <rect x="0" y="0" width="3200" height="1880"/>
  </clipPath>
</defs>
<path clip-path="url(#clip770)" d="
M0 1880 L3200 1880 L3200 0 L0 0  Z
  " fill="#ffffff" fill-rule="evenodd" fill-opacity="1"/>
<defs>
  <clipPath id="clip771">
    <rect x="640" y="0" width="2241" height="1880"/>
  </clipPath>
</defs>
<path clip-path="url(#clip770)" d="
M147.191 1767.75 L3152.76 1767.75 L3152.76 116.29 L147.191 116.29  Z
  " fill="#ffffff" fill-rule="evenodd" fill-opacity="1"/>
<defs>
  <clipPath id="clip772">
    <rect x="147" y="116" width="3007" height="1652"/>
  </clipPath>
</defs>
<polyline clip-path="url(#clip772)" style="stroke:#000000; stroke-width:2; stroke-opacity:0.1; fill:none" points="
  443.636,1767.75 443.636,116.29 
  "/>
<polyline clip-path="url(#clip772)" style="stroke:#000000; stroke-width:2; stroke-opacity:0.1; fill:none" points="
  1318.32,1767.75 1318.32,116.29 
  "/>
<polyline clip-path="url(#clip772)" style="stroke:#000000; stroke-width:2; stroke-opacity:0.1; fill:none" points="
  2193.01,1767.75 2193.01,116.29 
  "/>
<polyline clip-path="url(#clip772)" style="stroke:#000000; stroke-width:2; stroke-opacity:0.1; fill:none" points="
  3067.69,1767.75 3067.69,116.29 
  "/>
<polyline clip-path="url(#clip772)" style="stroke:#000000; stroke-width:2; stroke-opacity:0.1; fill:none" points="
  147.191,1686.44 3152.76,1686.44 
  "/>
<polyline clip-path="url(#clip772)" style="stroke:#000000; stroke-width:2; stroke-opacity:0.1; fill:none" points="
  147.191,1250.55 3152.76,1250.55 
  "/>
<polyline clip-path="url(#clip772)" style="stroke:#000000; stroke-width:2; stroke-opacity:0.1; fill:none" points="
  147.191,814.665 3152.76,814.665 
  "/>
<polyline clip-path="url(#clip772)" style="stroke:#000000; stroke-width:2; stroke-opacity:0.1; fill:none" points="
  147.191,378.775 3152.76,378.775 
  "/>
<polyline clip-path="url(#clip770)" style="stroke:#000000; stroke-width:4; stroke-opacity:1; fill:none" points="
  147.191,1767.75 3152.76,1767.75 
  "/>
<polyline clip-path="url(#clip770)" style="stroke:#000000; stroke-width:4; stroke-opacity:1; fill:none" points="
  147.191,1767.75 147.191,116.29 
  "/>
<polyline clip-path="url(#clip770)" style="stroke:#000000; stroke-width:4; stroke-opacity:1; fill:none" points="
  443.636,1767.75 443.636,1747.93 
  "/>
<polyline clip-path="url(#clip770)" style="stroke:#000000; stroke-width:4; stroke-opacity:1; fill:none" points="
  1318.32,1767.75 1318.32,1747.93 
  "/>
<polyline clip-path="url(#clip770)" style="stroke:#000000; stroke-width:4; stroke-opacity:1; fill:none" points="
  2193.01,1767.75 2193.01,1747.93 
  "/>
<polyline clip-path="url(#clip770)" style="stroke:#000000; stroke-width:4; stroke-opacity:1; fill:none" points="
  3067.69,1767.75 3067.69,1747.93 
  "/>
<polyline clip-path="url(#clip770)" style="stroke:#000000; stroke-width:4; stroke-opacity:1; fill:none" points="
  147.191,1686.44 183.258,1686.44 
  "/>
<polyline clip-path="url(#clip770)" style="stroke:#000000; stroke-width:4; stroke-opacity:1; fill:none" points="
  147.191,1250.55 183.258,1250.55 
  "/>
<polyline clip-path="url(#clip770)" style="stroke:#000000; stroke-width:4; stroke-opacity:1; fill:none" points="
  147.191,814.665 183.258,814.665 
  "/>
<polyline clip-path="url(#clip770)" style="stroke:#000000; stroke-width:4; stroke-opacity:1; fill:none" points="
  147.191,378.775 183.258,378.775 
  "/>
<path clip-path="url(#clip770)" d="M 0 0 M225.397 1821.29 L241.716 1821.29 L241.716 1825.22 L219.772 1825.22 L219.772 1821.29 Q222.434 1818.53 227.017 1813.9 Q231.624 1809.25 232.804 1807.91 Q235.05 1805.39 235.929 1803.65 Q236.832 1801.89 236.832 1800.2 Q236.832 1797.45 234.888 1795.71 Q232.966 1793.97 229.864 1793.97 Q227.665 1793.97 225.212 1794.74 Q222.781 1795.5 220.003 1797.05 L220.003 1792.33 Q222.827 1791.2 225.281 1790.62 Q227.735 1790.04 229.772 1790.04 Q235.142 1790.04 238.337 1792.72 Q241.531 1795.41 241.531 1799.9 Q241.531 1802.03 240.721 1803.95 Q239.934 1805.85 237.827 1808.44 Q237.249 1809.11 234.147 1812.33 Q231.045 1815.52 225.397 1821.29 Z" fill="#000000" fill-rule="evenodd" fill-opacity="1" /><path clip-path="url(#clip770)" d="M 0 0 M256.786 1793.74 Q253.174 1793.74 251.346 1797.31 Q249.54 1800.85 249.54 1807.98 Q249.54 1815.09 251.346 1818.65 Q253.174 1822.19 256.786 1822.19 Q260.42 1822.19 262.225 1818.65 Q264.054 1815.09 264.054 1807.98 Q264.054 1800.85 262.225 1797.31 Q260.42 1793.74 256.786 1793.74 M256.786 1790.04 Q262.596 1790.04 265.651 1794.65 Q268.73 1799.23 268.73 1807.98 Q268.73 1816.71 265.651 1821.31 Q262.596 1825.9 256.786 1825.9 Q250.975 1825.9 247.897 1821.31 Q244.841 1816.71 244.841 1807.98 Q244.841 1799.23 247.897 1794.65 Q250.975 1790.04 256.786 1790.04 Z" fill="#000000" fill-rule="evenodd" fill-opacity="1" /><path clip-path="url(#clip770)" d="M 0 0 M277.827 1821.29 L294.146 1821.29 L294.146 1825.22 L272.202 1825.22 L272.202 1821.29 Q274.864 1818.53 279.447 1813.9 Q284.054 1809.25 285.234 1807.91 Q287.48 1805.39 288.359 1803.65 Q289.262 1801.89 289.262 1800.2 Q289.262 1797.45 287.318 1795.71 Q285.397 1793.97 282.295 1793.97 Q280.096 1793.97 277.642 1794.74 Q275.211 1795.5 272.434 1797.05 L272.434 1792.33 Q275.258 1791.2 277.711 1790.62 Q280.165 1790.04 282.202 1790.04 Q287.572 1790.04 290.767 1792.72 Q293.961 1795.41 293.961 1799.9 Q293.961 1802.03 293.151 1803.95 Q292.364 1805.85 290.258 1808.44 Q289.679 1809.11 286.577 1812.33 Q283.475 1815.52 277.827 1821.29 Z" fill="#000000" fill-rule="evenodd" fill-opacity="1" /><path clip-path="url(#clip770)" d="M 0 0 M309.216 1793.74 Q305.605 1793.74 303.776 1797.31 Q301.97 1800.85 301.97 1807.98 Q301.97 1815.09 303.776 1818.65 Q305.605 1822.19 309.216 1822.19 Q312.85 1822.19 314.656 1818.65 Q316.484 1815.09 316.484 1807.98 Q316.484 1800.85 314.656 1797.31 Q312.85 1793.74 309.216 1793.74 M309.216 1790.04 Q315.026 1790.04 318.082 1794.65 Q321.16 1799.23 321.16 1807.98 Q321.16 1816.71 318.082 1821.31 Q315.026 1825.9 309.216 1825.9 Q303.406 1825.9 300.327 1821.31 Q297.271 1816.71 297.271 1807.98 Q297.271 1799.23 300.327 1794.65 Q303.406 1790.04 309.216 1790.04 Z" fill="#000000" fill-rule="evenodd" fill-opacity="1" /><path clip-path="url(#clip770)" d="M 0 0 M323.475 1810.34 L335.952 1810.34 L335.952 1814.14 L323.475 1814.14 L323.475 1810.34 Z" fill="#000000" fill-rule="evenodd" fill-opacity="1" /><path clip-path="url(#clip770)" d="M 0 0 M351.021 1793.74 Q347.41 1793.74 345.581 1797.31 Q343.776 1800.85 343.776 1807.98 Q343.776 1815.09 345.581 1818.65 Q347.41 1822.19 351.021 1822.19 Q354.655 1822.19 356.461 1818.65 Q358.29 1815.09 358.29 1807.98 Q358.29 1800.85 356.461 1797.31 Q354.655 1793.74 351.021 1793.74 M351.021 1790.04 Q356.831 1790.04 359.887 1794.65 Q362.966 1799.23 362.966 1807.98 Q362.966 1816.71 359.887 1821.31 Q356.831 1825.9 351.021 1825.9 Q345.211 1825.9 342.132 1821.31 Q339.077 1816.71 339.077 1807.98 Q339.077 1799.23 342.132 1794.65 Q345.211 1790.04 351.021 1790.04 Z" fill="#000000" fill-rule="evenodd" fill-opacity="1" /><path clip-path="url(#clip770)" d="M 0 0 M366.854 1790.66 L389.077 1790.66 L389.077 1792.65 L376.53 1825.22 L371.646 1825.22 L383.452 1794.6 L366.854 1794.6 L366.854 1790.66 Z" fill="#000000" fill-rule="evenodd" fill-opacity="1" /><path clip-path="url(#clip770)" d="M 0 0 M391.391 1810.34 L403.868 1810.34 L403.868 1814.14 L391.391 1814.14 L391.391 1810.34 Z" fill="#000000" fill-rule="evenodd" fill-opacity="1" /><path clip-path="url(#clip770)" d="M 0 0 M418.937 1793.74 Q415.326 1793.74 413.498 1797.31 Q411.692 1800.85 411.692 1807.98 Q411.692 1815.09 413.498 1818.65 Q415.326 1822.19 418.937 1822.19 Q422.572 1822.19 424.377 1818.65 Q426.206 1815.09 426.206 1807.98 Q426.206 1800.85 424.377 1797.31 Q422.572 1793.74 418.937 1793.74 M418.937 1790.04 Q424.748 1790.04 427.803 1794.65 Q430.882 1799.23 430.882 1807.98 Q430.882 1816.71 427.803 1821.31 Q424.748 1825.9 418.937 1825.9 Q413.127 1825.9 410.049 1821.31 Q406.993 1816.71 406.993 1807.98 Q406.993 1799.23 410.049 1794.65 Q413.127 1790.04 418.937 1790.04 Z" fill="#000000" fill-rule="evenodd" fill-opacity="1" /><path clip-path="url(#clip770)" d="M 0 0 M436.761 1821.29 L444.4 1821.29 L444.4 1794.92 L436.09 1796.59 L436.09 1792.33 L444.354 1790.66 L449.03 1790.66 L449.03 1821.29 L456.669 1821.29 L456.669 1825.22 L436.761 1825.22 L436.761 1821.29 Z" fill="#000000" fill-rule="evenodd" fill-opacity="1" /><path clip-path="url(#clip770)" d="M 0 0 M456.53 1790.66 L485.766 1790.66 L485.766 1794.6 L473.497 1794.6 L473.497 1825.22 L468.798 1825.22 L468.798 1794.6 L456.53 1794.6 L456.53 1790.66 Z" fill="#000000" fill-rule="evenodd" fill-opacity="1" /><path clip-path="url(#clip770)" d="M 0 0 M491.645 1821.29 L499.284 1821.29 L499.284 1794.92 L490.974 1796.59 L490.974 1792.33 L499.238 1790.66 L503.914 1790.66 L503.914 1821.29 L511.553 1821.29 L511.553 1825.22 L491.645 1825.22 L491.645 1821.29 Z" fill="#000000" fill-rule="evenodd" fill-opacity="1" /><path clip-path="url(#clip770)" d="M 0 0 M526.622 1793.74 Q523.011 1793.74 521.182 1797.31 Q519.377 1800.85 519.377 1807.98 Q519.377 1815.09 521.182 1818.65 Q523.011 1822.19 526.622 1822.19 Q530.256 1822.19 532.062 1818.65 Q533.891 1815.09 533.891 1807.98 Q533.891 1800.85 532.062 1797.31 Q530.256 1793.74 526.622 1793.74 M526.622 1790.04 Q532.432 1790.04 535.488 1794.65 Q538.566 1799.23 538.566 1807.98 Q538.566 1816.71 535.488 1821.31 Q532.432 1825.9 526.622 1825.9 Q520.812 1825.9 517.733 1821.31 Q514.678 1816.71 514.678 1807.98 Q514.678 1799.23 517.733 1794.65 Q520.812 1790.04 526.622 1790.04 Z" fill="#000000" fill-rule="evenodd" fill-opacity="1" /><path clip-path="url(#clip770)" d="M 0 0 M544.122 1819.34 L549.006 1819.34 L549.006 1825.22 L544.122 1825.22 L544.122 1819.34 M544.122 1800.71 L549.006 1800.71 L549.006 1806.59 L544.122 1806.59 L544.122 1800.71 Z" fill="#000000" fill-rule="evenodd" fill-opacity="1" /><path clip-path="url(#clip770)" d="M 0 0 M564.076 1793.74 Q560.464 1793.74 558.636 1797.31 Q556.83 1800.85 556.83 1807.98 Q556.83 1815.09 558.636 1818.65 Q560.464 1822.19 564.076 1822.19 Q567.71 1822.19 569.515 1818.65 Q571.344 1815.09 571.344 1807.98 Q571.344 1800.85 569.515 1797.31 Q567.71 1793.74 564.076 1793.74 M564.076 1790.04 Q569.886 1790.04 572.941 1794.65 Q576.02 1799.23 576.02 1807.98 Q576.02 1816.71 572.941 1821.31 Q569.886 1825.9 564.076 1825.9 Q558.265 1825.9 555.187 1821.31 Q552.131 1816.71 552.131 1807.98 Q552.131 1799.23 555.187 1794.65 Q558.265 1790.04 564.076 1790.04 Z" fill="#000000" fill-rule="evenodd" fill-opacity="1" /><path clip-path="url(#clip770)" d="M 0 0 M591.089 1793.74 Q587.478 1793.74 585.65 1797.31 Q583.844 1800.85 583.844 1807.98 Q583.844 1815.09 585.65 1818.65 Q587.478 1822.19 591.089 1822.19 Q594.724 1822.19 596.529 1818.65 Q598.358 1815.09 598.358 1807.98 Q598.358 1800.85 596.529 1797.31 Q594.724 1793.74 591.089 1793.74 M591.089 1790.04 Q596.899 1790.04 599.955 1794.65 Q603.034 1799.23 603.034 1807.98 Q603.034 1816.71 599.955 1821.31 Q596.899 1825.9 591.089 1825.9 Q585.279 1825.9 582.2 1821.31 Q579.145 1816.71 579.145 1807.98 Q579.145 1799.23 582.2 1794.65 Q585.279 1790.04 591.089 1790.04 Z" fill="#000000" fill-rule="evenodd" fill-opacity="1" /><path clip-path="url(#clip770)" d="M 0 0 M608.589 1819.34 L613.473 1819.34 L613.473 1825.22 L608.589 1825.22 L608.589 1819.34 M608.589 1800.71 L613.473 1800.71 L613.473 1806.59 L608.589 1806.59 L608.589 1800.71 Z" fill="#000000" fill-rule="evenodd" fill-opacity="1" /><path clip-path="url(#clip770)" d="M 0 0 M628.543 1793.74 Q624.932 1793.74 623.103 1797.31 Q621.297 1800.85 621.297 1807.98 Q621.297 1815.09 623.103 1818.65 Q624.932 1822.19 628.543 1822.19 Q632.177 1822.19 633.983 1818.65 Q635.811 1815.09 635.811 1807.98 Q635.811 1800.85 633.983 1797.31 Q632.177 1793.74 628.543 1793.74 M628.543 1790.04 Q634.353 1790.04 637.409 1794.65 Q640.487 1799.23 640.487 1807.98 Q640.487 1816.71 637.409 1821.31 Q634.353 1825.9 628.543 1825.9 Q622.733 1825.9 619.654 1821.31 Q616.598 1816.71 616.598 1807.98 Q616.598 1799.23 619.654 1794.65 Q622.733 1790.04 628.543 1790.04 Z" fill="#000000" fill-rule="evenodd" fill-opacity="1" /><path clip-path="url(#clip770)" d="M 0 0 M655.557 1793.74 Q651.945 1793.74 650.117 1797.31 Q648.311 1800.85 648.311 1807.98 Q648.311 1815.09 650.117 1818.65 Q651.945 1822.19 655.557 1822.19 Q659.191 1822.19 660.996 1818.65 Q662.825 1815.09 662.825 1807.98 Q662.825 1800.85 660.996 1797.31 Q659.191 1793.74 655.557 1793.74 M655.557 1790.04 Q661.367 1790.04 664.422 1794.65 Q667.501 1799.23 667.501 1807.98 Q667.501 1816.71 664.422 1821.31 Q661.367 1825.9 655.557 1825.9 Q649.746 1825.9 646.668 1821.31 Q643.612 1816.71 643.612 1807.98 Q643.612 1799.23 646.668 1794.65 Q649.746 1790.04 655.557 1790.04 Z" fill="#000000" fill-rule="evenodd" fill-opacity="1" /><path clip-path="url(#clip770)" d="M 0 0 M1100.88 1821.29 L1117.2 1821.29 L1117.2 1825.22 L1095.26 1825.22 L1095.26 1821.29 Q1097.92 1818.53 1102.5 1813.9 Q1107.11 1809.25 1108.29 1807.91 Q1110.53 1805.39 1111.41 1803.65 Q1112.32 1801.89 1112.32 1800.2 Q1112.32 1797.45 1110.37 1795.71 Q1108.45 1793.97 1105.35 1793.97 Q1103.15 1793.97 1100.7 1794.74 Q1098.27 1795.5 1095.49 1797.05 L1095.49 1792.33 Q1098.31 1791.2 1100.77 1790.62 Q1103.22 1790.04 1105.26 1790.04 Q1110.63 1790.04 1113.82 1792.72 Q1117.02 1795.41 1117.02 1799.9 Q1117.02 1802.03 1116.2 1803.95 Q1115.42 1805.85 1113.31 1808.44 Q1112.73 1809.11 1109.63 1812.33 Q1106.53 1815.52 1100.88 1821.29 Z" fill="#000000" fill-rule="evenodd" fill-opacity="1" /><path clip-path="url(#clip770)" d="M 0 0 M1132.27 1793.74 Q1128.66 1793.74 1126.83 1797.31 Q1125.02 1800.85 1125.02 1807.98 Q1125.02 1815.09 1126.83 1818.65 Q1128.66 1822.19 1132.27 1822.19 Q1135.9 1822.19 1137.71 1818.65 Q1139.54 1815.09 1139.54 1807.98 Q1139.54 1800.85 1137.71 1797.31 Q1135.9 1793.74 1132.27 1793.74 M1132.27 1790.04 Q1138.08 1790.04 1141.14 1794.65 Q1144.21 1799.23 1144.21 1807.98 Q1144.21 1816.71 1141.14 1821.31 Q1138.08 1825.9 1132.27 1825.9 Q1126.46 1825.9 1123.38 1821.31 Q1120.33 1816.71 1120.33 1807.98 Q1120.33 1799.23 1123.38 1794.65 Q1126.46 1790.04 1132.27 1790.04 Z" fill="#000000" fill-rule="evenodd" fill-opacity="1" /><path clip-path="url(#clip770)" d="M 0 0 M1153.31 1821.29 L1169.63 1821.29 L1169.63 1825.22 L1147.69 1825.22 L1147.69 1821.29 Q1150.35 1818.53 1154.93 1813.9 Q1159.54 1809.25 1160.72 1807.91 Q1162.96 1805.39 1163.84 1803.65 Q1164.75 1801.89 1164.75 1800.2 Q1164.75 1797.45 1162.8 1795.71 Q1160.88 1793.97 1157.78 1793.97 Q1155.58 1793.97 1153.13 1794.74 Q1150.7 1795.5 1147.92 1797.05 L1147.92 1792.33 Q1150.74 1791.2 1153.2 1790.62 Q1155.65 1790.04 1157.69 1790.04 Q1163.06 1790.04 1166.25 1792.72 Q1169.45 1795.41 1169.45 1799.9 Q1169.45 1802.03 1168.64 1803.95 Q1167.85 1805.85 1165.74 1808.44 Q1165.16 1809.11 1162.06 1812.33 Q1158.96 1815.52 1153.31 1821.29 Z" fill="#000000" fill-rule="evenodd" fill-opacity="1" /><path clip-path="url(#clip770)" d="M 0 0 M1184.7 1793.74 Q1181.09 1793.74 1179.26 1797.31 Q1177.45 1800.85 1177.45 1807.98 Q1177.45 1815.09 1179.26 1818.65 Q1181.09 1822.19 1184.7 1822.19 Q1188.33 1822.19 1190.14 1818.65 Q1191.97 1815.09 1191.97 1807.98 Q1191.97 1800.85 1190.14 1797.31 Q1188.33 1793.74 1184.7 1793.74 M1184.7 1790.04 Q1190.51 1790.04 1193.57 1794.65 Q1196.64 1799.23 1196.64 1807.98 Q1196.64 1816.71 1193.57 1821.31 Q1190.51 1825.9 1184.7 1825.9 Q1178.89 1825.9 1175.81 1821.31 Q1172.76 1816.71 1172.76 1807.98 Q1172.76 1799.23 1175.81 1794.65 Q1178.89 1790.04 1184.7 1790.04 Z" fill="#000000" fill-rule="evenodd" fill-opacity="1" /><path clip-path="url(#clip770)" d="M 0 0 M1198.96 1810.34 L1211.44 1810.34 L1211.44 1814.14 L1198.96 1814.14 L1198.96 1810.34 Z" fill="#000000" fill-rule="evenodd" fill-opacity="1" /><path clip-path="url(#clip770)" d="M 0 0 M1226.51 1793.74 Q1222.89 1793.74 1221.07 1797.31 Q1219.26 1800.85 1219.26 1807.98 Q1219.26 1815.09 1221.07 1818.65 Q1222.89 1822.19 1226.51 1822.19 Q1230.14 1822.19 1231.94 1818.65 Q1233.77 1815.09 1233.77 1807.98 Q1233.77 1800.85 1231.94 1797.31 Q1230.14 1793.74 1226.51 1793.74 M1226.51 1790.04 Q1232.32 1790.04 1235.37 1794.65 Q1238.45 1799.23 1238.45 1807.98 Q1238.45 1816.71 1235.37 1821.31 Q1232.32 1825.9 1226.51 1825.9 Q1220.7 1825.9 1217.62 1821.31 Q1214.56 1816.71 1214.56 1807.98 Q1214.56 1799.23 1217.62 1794.65 Q1220.7 1790.04 1226.51 1790.04 Z" fill="#000000" fill-rule="evenodd" fill-opacity="1" /><path clip-path="url(#clip770)" d="M 0 0 M1242.34 1790.66 L1264.56 1790.66 L1264.56 1792.65 L1252.01 1825.22 L1247.13 1825.22 L1258.94 1794.6 L1242.34 1794.6 L1242.34 1790.66 Z" fill="#000000" fill-rule="evenodd" fill-opacity="1" /><path clip-path="url(#clip770)" d="M 0 0 M1266.88 1810.34 L1279.35 1810.34 L1279.35 1814.14 L1266.88 1814.14 L1266.88 1810.34 Z" fill="#000000" fill-rule="evenodd" fill-opacity="1" /><path clip-path="url(#clip770)" d="M 0 0 M1294.42 1793.74 Q1290.81 1793.74 1288.98 1797.31 Q1287.18 1800.85 1287.18 1807.98 Q1287.18 1815.09 1288.98 1818.65 Q1290.81 1822.19 1294.42 1822.19 Q1298.06 1822.19 1299.86 1818.65 Q1301.69 1815.09 1301.69 1807.98 Q1301.69 1800.85 1299.86 1797.31 Q1298.06 1793.74 1294.42 1793.74 M1294.42 1790.04 Q1300.23 1790.04 1303.29 1794.65 Q1306.37 1799.23 1306.37 1807.98 Q1306.37 1816.71 1303.29 1821.31 Q1300.23 1825.9 1294.42 1825.9 Q1288.61 1825.9 1285.53 1821.31 Q1282.48 1816.71 1282.48 1807.98 Q1282.48 1799.23 1285.53 1794.65 Q1288.61 1790.04 1294.42 1790.04 Z" fill="#000000" fill-rule="evenodd" fill-opacity="1" /><path clip-path="url(#clip770)" d="M 0 0 M1312.25 1821.29 L1319.88 1821.29 L1319.88 1794.92 L1311.57 1796.59 L1311.57 1792.33 L1319.84 1790.66 L1324.51 1790.66 L1324.51 1821.29 L1332.15 1821.29 L1332.15 1825.22 L1312.25 1825.22 L1312.25 1821.29 Z" fill="#000000" fill-rule="evenodd" fill-opacity="1" /><path clip-path="url(#clip770)" d="M 0 0 M1332.01 1790.66 L1361.25 1790.66 L1361.25 1794.6 L1348.98 1794.6 L1348.98 1825.22 L1344.28 1825.22 L1344.28 1794.6 L1332.01 1794.6 L1332.01 1790.66 Z" fill="#000000" fill-rule="evenodd" fill-opacity="1" /><path clip-path="url(#clip770)" d="M 0 0 M1367.13 1821.29 L1374.77 1821.29 L1374.77 1794.92 L1366.46 1796.59 L1366.46 1792.33 L1374.72 1790.66 L1379.4 1790.66 L1379.4 1821.29 L1387.04 1821.29 L1387.04 1825.22 L1367.13 1825.22 L1367.13 1821.29 Z" fill="#000000" fill-rule="evenodd" fill-opacity="1" /><path clip-path="url(#clip770)" d="M 0 0 M1396.13 1821.29 L1412.45 1821.29 L1412.45 1825.22 L1390.51 1825.22 L1390.51 1821.29 Q1393.17 1818.53 1397.75 1813.9 Q1402.36 1809.25 1403.54 1807.91 Q1405.79 1805.39 1406.67 1803.65 Q1407.57 1801.89 1407.57 1800.2 Q1407.57 1797.45 1405.62 1795.71 Q1403.7 1793.97 1400.6 1793.97 Q1398.4 1793.97 1395.95 1794.74 Q1393.52 1795.5 1390.74 1797.05 L1390.74 1792.33 Q1393.56 1791.2 1396.02 1790.62 Q1398.47 1790.04 1400.51 1790.04 Q1405.88 1790.04 1409.07 1792.72 Q1412.27 1795.41 1412.27 1799.9 Q1412.27 1802.03 1411.46 1803.95 Q1410.67 1805.85 1408.56 1808.44 Q1407.99 1809.11 1404.88 1812.33 Q1401.78 1815.52 1396.13 1821.29 Z" fill="#000000" fill-rule="evenodd" fill-opacity="1" /><path clip-path="url(#clip770)" d="M 0 0 M1418.01 1819.34 L1422.89 1819.34 L1422.89 1825.22 L1418.01 1825.22 L1418.01 1819.34 M1418.01 1800.71 L1422.89 1800.71 L1422.89 1806.59 L1418.01 1806.59 L1418.01 1800.71 Z" fill="#000000" fill-rule="evenodd" fill-opacity="1" /><path clip-path="url(#clip770)" d="M 0 0 M1437.96 1793.74 Q1434.35 1793.74 1432.52 1797.31 Q1430.72 1800.85 1430.72 1807.98 Q1430.72 1815.09 1432.52 1818.65 Q1434.35 1822.19 1437.96 1822.19 Q1441.6 1822.19 1443.4 1818.65 Q1445.23 1815.09 1445.23 1807.98 Q1445.23 1800.85 1443.4 1797.31 Q1441.6 1793.74 1437.96 1793.74 M1437.96 1790.04 Q1443.77 1790.04 1446.83 1794.65 Q1449.91 1799.23 1449.91 1807.98 Q1449.91 1816.71 1446.83 1821.31 Q1443.77 1825.9 1437.96 1825.9 Q1432.15 1825.9 1429.07 1821.31 Q1426.02 1816.71 1426.02 1807.98 Q1426.02 1799.23 1429.07 1794.65 Q1432.15 1790.04 1437.96 1790.04 Z" fill="#000000" fill-rule="evenodd" fill-opacity="1" /><path clip-path="url(#clip770)" d="M 0 0 M1464.98 1793.74 Q1461.37 1793.74 1459.54 1797.31 Q1457.73 1800.85 1457.73 1807.98 Q1457.73 1815.09 1459.54 1818.65 Q1461.37 1822.19 1464.98 1822.19 Q1468.61 1822.19 1470.42 1818.65 Q1472.24 1815.09 1472.24 1807.98 Q1472.24 1800.85 1470.42 1797.31 Q1468.61 1793.74 1464.98 1793.74 M1464.98 1790.04 Q1470.79 1790.04 1473.84 1794.65 Q1476.92 1799.23 1476.92 1807.98 Q1476.92 1816.71 1473.84 1821.31 Q1470.79 1825.9 1464.98 1825.9 Q1459.17 1825.9 1456.09 1821.31 Q1453.03 1816.71 1453.03 1807.98 Q1453.03 1799.23 1456.09 1794.65 Q1459.17 1790.04 1464.98 1790.04 Z" fill="#000000" fill-rule="evenodd" fill-opacity="1" /><path clip-path="url(#clip770)" d="M 0 0 M1482.48 1819.34 L1487.36 1819.34 L1487.36 1825.22 L1482.48 1825.22 L1482.48 1819.34 M1482.48 1800.71 L1487.36 1800.71 L1487.36 1806.59 L1482.48 1806.59 L1482.48 1800.71 Z" fill="#000000" fill-rule="evenodd" fill-opacity="1" /><path clip-path="url(#clip770)" d="M 0 0 M1502.43 1793.74 Q1498.82 1793.74 1496.99 1797.31 Q1495.18 1800.85 1495.18 1807.98 Q1495.18 1815.09 1496.99 1818.65 Q1498.82 1822.19 1502.43 1822.19 Q1506.06 1822.19 1507.87 1818.65 Q1509.7 1815.09 1509.7 1807.98 Q1509.7 1800.85 1507.87 1797.31 Q1506.06 1793.74 1502.43 1793.74 M1502.43 1790.04 Q1508.24 1790.04 1511.3 1794.65 Q1514.37 1799.23 1514.37 1807.98 Q1514.37 1816.71 1511.3 1821.31 Q1508.24 1825.9 1502.43 1825.9 Q1496.62 1825.9 1493.54 1821.31 Q1490.49 1816.71 1490.49 1807.98 Q1490.49 1799.23 1493.54 1794.65 Q1496.62 1790.04 1502.43 1790.04 Z" fill="#000000" fill-rule="evenodd" fill-opacity="1" /><path clip-path="url(#clip770)" d="M 0 0 M1529.44 1793.74 Q1525.83 1793.74 1524 1797.31 Q1522.2 1800.85 1522.2 1807.98 Q1522.2 1815.09 1524 1818.65 Q1525.83 1822.19 1529.44 1822.19 Q1533.08 1822.19 1534.88 1818.65 Q1536.71 1815.09 1536.71 1807.98 Q1536.71 1800.85 1534.88 1797.31 Q1533.08 1793.74 1529.44 1793.74 M1529.44 1790.04 Q1535.25 1790.04 1538.31 1794.65 Q1541.39 1799.23 1541.39 1807.98 Q1541.39 1816.71 1538.31 1821.31 Q1535.25 1825.9 1529.44 1825.9 Q1523.63 1825.9 1520.55 1821.31 Q1517.5 1816.71 1517.5 1807.98 Q1517.5 1799.23 1520.55 1794.65 Q1523.63 1790.04 1529.44 1790.04 Z" fill="#000000" fill-rule="evenodd" fill-opacity="1" /><path clip-path="url(#clip770)" d="M 0 0 M1974.52 1821.29 L1990.84 1821.29 L1990.84 1825.22 L1968.9 1825.22 L1968.9 1821.29 Q1971.56 1818.53 1976.15 1813.9 Q1980.75 1809.25 1981.93 1807.91 Q1984.18 1805.39 1985.06 1803.65 Q1985.96 1801.89 1985.96 1800.2 Q1985.96 1797.45 1984.02 1795.71 Q1982.09 1793.97 1978.99 1793.97 Q1976.79 1793.97 1974.34 1794.74 Q1971.91 1795.5 1969.13 1797.05 L1969.13 1792.33 Q1971.96 1791.2 1974.41 1790.62 Q1976.86 1790.04 1978.9 1790.04 Q1984.27 1790.04 1987.46 1792.72 Q1990.66 1795.41 1990.66 1799.9 Q1990.66 1802.03 1989.85 1803.95 Q1989.06 1805.85 1986.96 1808.44 Q1986.38 1809.11 1983.27 1812.33 Q1980.17 1815.52 1974.52 1821.29 Z" fill="#000000" fill-rule="evenodd" fill-opacity="1" /><path clip-path="url(#clip770)" d="M 0 0 M2005.91 1793.74 Q2002.3 1793.74 2000.47 1797.31 Q1998.67 1800.85 1998.67 1807.98 Q1998.67 1815.09 2000.47 1818.65 Q2002.3 1822.19 2005.91 1822.19 Q2009.55 1822.19 2011.35 1818.65 Q2013.18 1815.09 2013.18 1807.98 Q2013.18 1800.85 2011.35 1797.31 Q2009.55 1793.74 2005.91 1793.74 M2005.91 1790.04 Q2011.72 1790.04 2014.78 1794.65 Q2017.86 1799.23 2017.86 1807.98 Q2017.86 1816.71 2014.78 1821.31 Q2011.72 1825.9 2005.91 1825.9 Q2000.1 1825.9 1997.02 1821.31 Q1993.97 1816.71 1993.97 1807.98 Q1993.97 1799.23 1997.02 1794.65 Q2000.1 1790.04 2005.91 1790.04 Z" fill="#000000" fill-rule="evenodd" fill-opacity="1" /><path clip-path="url(#clip770)" d="M 0 0 M2026.95 1821.29 L2043.27 1821.29 L2043.27 1825.22 L2021.33 1825.22 L2021.33 1821.29 Q2023.99 1818.53 2028.58 1813.9 Q2033.18 1809.25 2034.36 1807.91 Q2036.61 1805.39 2037.49 1803.65 Q2038.39 1801.89 2038.39 1800.2 Q2038.39 1797.45 2036.45 1795.71 Q2034.52 1793.97 2031.42 1793.97 Q2029.22 1793.97 2026.77 1794.74 Q2024.34 1795.5 2021.56 1797.05 L2021.56 1792.33 Q2024.39 1791.2 2026.84 1790.62 Q2029.29 1790.04 2031.33 1790.04 Q2036.7 1790.04 2039.89 1792.72 Q2043.09 1795.41 2043.09 1799.9 Q2043.09 1802.03 2042.28 1803.95 Q2041.49 1805.85 2039.39 1808.44 Q2038.81 1809.11 2035.7 1812.33 Q2032.6 1815.52 2026.95 1821.29 Z" fill="#000000" fill-rule="evenodd" fill-opacity="1" /><path clip-path="url(#clip770)" d="M 0 0 M2058.34 1793.74 Q2054.73 1793.74 2052.9 1797.31 Q2051.1 1800.85 2051.1 1807.98 Q2051.1 1815.09 2052.9 1818.65 Q2054.73 1822.19 2058.34 1822.19 Q2061.98 1822.19 2063.78 1818.65 Q2065.61 1815.09 2065.61 1807.98 Q2065.61 1800.85 2063.78 1797.31 Q2061.98 1793.74 2058.34 1793.74 M2058.34 1790.04 Q2064.15 1790.04 2067.21 1794.65 Q2070.29 1799.23 2070.29 1807.98 Q2070.29 1816.71 2067.21 1821.31 Q2064.15 1825.9 2058.34 1825.9 Q2052.53 1825.9 2049.45 1821.31 Q2046.4 1816.71 2046.4 1807.98 Q2046.4 1799.23 2049.45 1794.65 Q2052.53 1790.04 2058.34 1790.04 Z" fill="#000000" fill-rule="evenodd" fill-opacity="1" /><path clip-path="url(#clip770)" d="M 0 0 M2072.6 1810.34 L2085.08 1810.34 L2085.08 1814.14 L2072.6 1814.14 L2072.6 1810.34 Z" fill="#000000" fill-rule="evenodd" fill-opacity="1" /><path clip-path="url(#clip770)" d="M 0 0 M2100.15 1793.74 Q2096.54 1793.74 2094.71 1797.31 Q2092.9 1800.85 2092.9 1807.98 Q2092.9 1815.09 2094.71 1818.65 Q2096.54 1822.19 2100.15 1822.19 Q2103.78 1822.19 2105.59 1818.65 Q2107.42 1815.09 2107.42 1807.98 Q2107.42 1800.85 2105.59 1797.31 Q2103.78 1793.74 2100.15 1793.74 M2100.15 1790.04 Q2105.96 1790.04 2109.01 1794.65 Q2112.09 1799.23 2112.09 1807.98 Q2112.09 1816.71 2109.01 1821.31 Q2105.96 1825.9 2100.15 1825.9 Q2094.34 1825.9 2091.26 1821.31 Q2088.2 1816.71 2088.2 1807.98 Q2088.2 1799.23 2091.26 1794.65 Q2094.34 1790.04 2100.15 1790.04 Z" fill="#000000" fill-rule="evenodd" fill-opacity="1" /><path clip-path="url(#clip770)" d="M 0 0 M2115.98 1790.66 L2138.2 1790.66 L2138.2 1792.65 L2125.66 1825.22 L2120.77 1825.22 L2132.58 1794.6 L2115.98 1794.6 L2115.98 1790.66 Z" fill="#000000" fill-rule="evenodd" fill-opacity="1" /><path clip-path="url(#clip770)" d="M 0 0 M2140.52 1810.34 L2153 1810.34 L2153 1814.14 L2140.52 1814.14 L2140.52 1810.34 Z" fill="#000000" fill-rule="evenodd" fill-opacity="1" /><path clip-path="url(#clip770)" d="M 0 0 M2168.07 1793.74 Q2164.45 1793.74 2162.63 1797.31 Q2160.82 1800.85 2160.82 1807.98 Q2160.82 1815.09 2162.63 1818.65 Q2164.45 1822.19 2168.07 1822.19 Q2171.7 1822.19 2173.51 1818.65 Q2175.33 1815.09 2175.33 1807.98 Q2175.33 1800.85 2173.51 1797.31 Q2171.7 1793.74 2168.07 1793.74 M2168.07 1790.04 Q2173.88 1790.04 2176.93 1794.65 Q2180.01 1799.23 2180.01 1807.98 Q2180.01 1816.71 2176.93 1821.31 Q2173.88 1825.9 2168.07 1825.9 Q2162.26 1825.9 2159.18 1821.31 Q2156.12 1816.71 2156.12 1807.98 Q2156.12 1799.23 2159.18 1794.65 Q2162.26 1790.04 2168.07 1790.04 Z" fill="#000000" fill-rule="evenodd" fill-opacity="1" /><path clip-path="url(#clip770)" d="M 0 0 M2185.89 1821.29 L2193.53 1821.29 L2193.53 1794.92 L2185.22 1796.59 L2185.22 1792.33 L2193.48 1790.66 L2198.16 1790.66 L2198.16 1821.29 L2205.8 1821.29 L2205.8 1825.22 L2185.89 1825.22 L2185.89 1821.29 Z" fill="#000000" fill-rule="evenodd" fill-opacity="1" /><path clip-path="url(#clip770)" d="M 0 0 M2205.66 1790.66 L2234.89 1790.66 L2234.89 1794.6 L2222.63 1794.6 L2222.63 1825.22 L2217.93 1825.22 L2217.93 1794.6 L2205.66 1794.6 L2205.66 1790.66 Z" fill="#000000" fill-rule="evenodd" fill-opacity="1" /><path clip-path="url(#clip770)" d="M 0 0 M2240.77 1821.29 L2248.41 1821.29 L2248.41 1794.92 L2240.1 1796.59 L2240.1 1792.33 L2248.37 1790.66 L2253.04 1790.66 L2253.04 1821.29 L2260.68 1821.29 L2260.68 1825.22 L2240.77 1825.22 L2240.77 1821.29 Z" fill="#000000" fill-rule="evenodd" fill-opacity="1" /><path clip-path="url(#clip770)" d="M 0 0 M2278.6 1794.74 L2266.79 1813.19 L2278.6 1813.19 L2278.6 1794.74 M2277.37 1790.66 L2283.25 1790.66 L2283.25 1813.19 L2288.18 1813.19 L2288.18 1817.08 L2283.25 1817.08 L2283.25 1825.22 L2278.6 1825.22 L2278.6 1817.08 L2263 1817.08 L2263 1812.56 L2277.37 1790.66 Z" fill="#000000" fill-rule="evenodd" fill-opacity="1" /><path clip-path="url(#clip770)" d="M 0 0 M2293.74 1819.34 L2298.62 1819.34 L2298.62 1825.22 L2293.74 1825.22 L2293.74 1819.34 M2293.74 1800.71 L2298.62 1800.71 L2298.62 1806.59 L2293.74 1806.59 L2293.74 1800.71 Z" fill="#000000" fill-rule="evenodd" fill-opacity="1" /><path clip-path="url(#clip770)" d="M 0 0 M2313.69 1793.74 Q2310.08 1793.74 2308.25 1797.31 Q2306.44 1800.85 2306.44 1807.98 Q2306.44 1815.09 2308.25 1818.65 Q2310.08 1822.19 2313.69 1822.19 Q2317.32 1822.19 2319.13 1818.65 Q2320.96 1815.09 2320.96 1807.98 Q2320.96 1800.85 2319.13 1797.31 Q2317.32 1793.74 2313.69 1793.74 M2313.69 1790.04 Q2319.5 1790.04 2322.56 1794.65 Q2325.63 1799.23 2325.63 1807.98 Q2325.63 1816.71 2322.56 1821.31 Q2319.5 1825.9 2313.69 1825.9 Q2307.88 1825.9 2304.8 1821.31 Q2301.75 1816.71 2301.75 1807.98 Q2301.75 1799.23 2304.8 1794.65 Q2307.88 1790.04 2313.69 1790.04 Z" fill="#000000" fill-rule="evenodd" fill-opacity="1" /><path clip-path="url(#clip770)" d="M 0 0 M2340.7 1793.74 Q2337.09 1793.74 2335.26 1797.31 Q2333.46 1800.85 2333.46 1807.98 Q2333.46 1815.09 2335.26 1818.65 Q2337.09 1822.19 2340.7 1822.19 Q2344.34 1822.19 2346.14 1818.65 Q2347.97 1815.09 2347.97 1807.98 Q2347.97 1800.85 2346.14 1797.31 Q2344.34 1793.74 2340.7 1793.74 M2340.7 1790.04 Q2346.51 1790.04 2349.57 1794.65 Q2352.65 1799.23 2352.65 1807.98 Q2352.65 1816.71 2349.57 1821.31 Q2346.51 1825.9 2340.7 1825.9 Q2334.89 1825.9 2331.81 1821.31 Q2328.76 1816.71 2328.76 1807.98 Q2328.76 1799.23 2331.81 1794.65 Q2334.89 1790.04 2340.7 1790.04 Z" fill="#000000" fill-rule="evenodd" fill-opacity="1" /><path clip-path="url(#clip770)" d="M 0 0 M2358.2 1819.34 L2363.09 1819.34 L2363.09 1825.22 L2358.2 1825.22 L2358.2 1819.34 M2358.2 1800.71 L2363.09 1800.71 L2363.09 1806.59 L2358.2 1806.59 L2358.2 1800.71 Z" fill="#000000" fill-rule="evenodd" fill-opacity="1" /><path clip-path="url(#clip770)" d="M 0 0 M2378.16 1793.74 Q2374.55 1793.74 2372.72 1797.31 Q2370.91 1800.85 2370.91 1807.98 Q2370.91 1815.09 2372.72 1818.65 Q2374.55 1822.19 2378.16 1822.19 Q2381.79 1822.19 2383.6 1818.65 Q2385.43 1815.09 2385.43 1807.98 Q2385.43 1800.85 2383.6 1797.31 Q2381.79 1793.74 2378.16 1793.74 M2378.16 1790.04 Q2383.97 1790.04 2387.02 1794.65 Q2390.1 1799.23 2390.1 1807.98 Q2390.1 1816.71 2387.02 1821.31 Q2383.97 1825.9 2378.16 1825.9 Q2372.35 1825.9 2369.27 1821.31 Q2366.21 1816.71 2366.21 1807.98 Q2366.21 1799.23 2369.27 1794.65 Q2372.35 1790.04 2378.16 1790.04 Z" fill="#000000" fill-rule="evenodd" fill-opacity="1" /><path clip-path="url(#clip770)" d="M 0 0 M2405.17 1793.74 Q2401.56 1793.74 2399.73 1797.31 Q2397.93 1800.85 2397.93 1807.98 Q2397.93 1815.09 2399.73 1818.65 Q2401.56 1822.19 2405.17 1822.19 Q2408.8 1822.19 2410.61 1818.65 Q2412.44 1815.09 2412.44 1807.98 Q2412.44 1800.85 2410.61 1797.31 Q2408.8 1793.74 2405.17 1793.74 M2405.17 1790.04 Q2410.98 1790.04 2414.04 1794.65 Q2417.11 1799.23 2417.11 1807.98 Q2417.11 1816.71 2414.04 1821.31 Q2410.98 1825.9 2405.17 1825.9 Q2399.36 1825.9 2396.28 1821.31 Q2393.23 1816.71 2393.23 1807.98 Q2393.23 1799.23 2396.28 1794.65 Q2399.36 1790.04 2405.17 1790.04 Z" fill="#000000" fill-rule="evenodd" fill-opacity="1" /><path clip-path="url(#clip770)" d="M 0 0 M2849.37 1821.29 L2865.69 1821.29 L2865.69 1825.22 L2843.75 1825.22 L2843.75 1821.29 Q2846.41 1818.53 2850.99 1813.9 Q2855.6 1809.25 2856.78 1807.91 Q2859.02 1805.39 2859.9 1803.65 Q2860.81 1801.89 2860.81 1800.2 Q2860.81 1797.45 2858.86 1795.71 Q2856.94 1793.97 2853.84 1793.97 Q2851.64 1793.97 2849.19 1794.74 Q2846.76 1795.5 2843.98 1797.05 L2843.98 1792.33 Q2846.8 1791.2 2849.26 1790.62 Q2851.71 1790.04 2853.75 1790.04 Q2859.12 1790.04 2862.31 1792.72 Q2865.51 1795.41 2865.51 1799.9 Q2865.51 1802.03 2864.7 1803.95 Q2863.91 1805.85 2861.8 1808.44 Q2861.22 1809.11 2858.12 1812.33 Q2855.02 1815.52 2849.37 1821.29 Z" fill="#000000" fill-rule="evenodd" fill-opacity="1" /><path clip-path="url(#clip770)" d="M 0 0 M2880.76 1793.74 Q2877.15 1793.74 2875.32 1797.31 Q2873.52 1800.85 2873.52 1807.98 Q2873.52 1815.09 2875.32 1818.65 Q2877.15 1822.19 2880.76 1822.19 Q2884.4 1822.19 2886.2 1818.65 Q2888.03 1815.09 2888.03 1807.98 Q2888.03 1800.85 2886.2 1797.31 Q2884.4 1793.74 2880.76 1793.74 M2880.76 1790.04 Q2886.57 1790.04 2889.63 1794.65 Q2892.71 1799.23 2892.71 1807.98 Q2892.71 1816.71 2889.63 1821.31 Q2886.57 1825.9 2880.76 1825.9 Q2874.95 1825.9 2871.87 1821.31 Q2868.82 1816.71 2868.82 1807.98 Q2868.82 1799.23 2871.87 1794.65 Q2874.95 1790.04 2880.76 1790.04 Z" fill="#000000" fill-rule="evenodd" fill-opacity="1" /><path clip-path="url(#clip770)" d="M 0 0 M2901.8 1821.29 L2918.12 1821.29 L2918.12 1825.22 L2896.18 1825.22 L2896.18 1821.29 Q2898.84 1818.53 2903.42 1813.9 Q2908.03 1809.25 2909.21 1807.91 Q2911.46 1805.39 2912.33 1803.65 Q2913.24 1801.89 2913.24 1800.2 Q2913.24 1797.45 2911.29 1795.71 Q2909.37 1793.97 2906.27 1793.97 Q2904.07 1793.97 2901.62 1794.74 Q2899.19 1795.5 2896.41 1797.05 L2896.41 1792.33 Q2899.23 1791.2 2901.69 1790.62 Q2904.14 1790.04 2906.18 1790.04 Q2911.55 1790.04 2914.74 1792.72 Q2917.94 1795.41 2917.94 1799.9 Q2917.94 1802.03 2917.13 1803.95 Q2916.34 1805.85 2914.23 1808.44 Q2913.65 1809.11 2910.55 1812.33 Q2907.45 1815.52 2901.8 1821.29 Z" fill="#000000" fill-rule="evenodd" fill-opacity="1" /><path clip-path="url(#clip770)" d="M 0 0 M2933.19 1793.74 Q2929.58 1793.74 2927.75 1797.31 Q2925.95 1800.85 2925.95 1807.98 Q2925.95 1815.09 2927.75 1818.65 Q2929.58 1822.19 2933.19 1822.19 Q2936.83 1822.19 2938.63 1818.65 Q2940.46 1815.09 2940.46 1807.98 Q2940.46 1800.85 2938.63 1797.31 Q2936.83 1793.74 2933.19 1793.74 M2933.19 1790.04 Q2939 1790.04 2942.06 1794.65 Q2945.14 1799.23 2945.14 1807.98 Q2945.14 1816.71 2942.06 1821.31 Q2939 1825.9 2933.19 1825.9 Q2927.38 1825.9 2924.3 1821.31 Q2921.25 1816.71 2921.25 1807.98 Q2921.25 1799.23 2924.3 1794.65 Q2927.38 1790.04 2933.19 1790.04 Z" fill="#000000" fill-rule="evenodd" fill-opacity="1" /><path clip-path="url(#clip770)" d="M 0 0 M2947.45 1810.34 L2959.93 1810.34 L2959.93 1814.14 L2947.45 1814.14 L2947.45 1810.34 Z" fill="#000000" fill-rule="evenodd" fill-opacity="1" /><path clip-path="url(#clip770)" d="M 0 0 M2975 1793.74 Q2971.39 1793.74 2969.56 1797.31 Q2967.75 1800.85 2967.75 1807.98 Q2967.75 1815.09 2969.56 1818.65 Q2971.39 1822.19 2975 1822.19 Q2978.63 1822.19 2980.44 1818.65 Q2982.26 1815.09 2982.26 1807.98 Q2982.26 1800.85 2980.44 1797.31 Q2978.63 1793.74 2975 1793.74 M2975 1790.04 Q2980.81 1790.04 2983.86 1794.65 Q2986.94 1799.23 2986.94 1807.98 Q2986.94 1816.71 2983.86 1821.31 Q2980.81 1825.9 2975 1825.9 Q2969.19 1825.9 2966.11 1821.31 Q2963.05 1816.71 2963.05 1807.98 Q2963.05 1799.23 2966.11 1794.65 Q2969.19 1790.04 2975 1790.04 Z" fill="#000000" fill-rule="evenodd" fill-opacity="1" /><path clip-path="url(#clip770)" d="M 0 0 M2990.83 1790.66 L3013.05 1790.66 L3013.05 1792.65 L3000.51 1825.22 L2995.62 1825.22 L3007.43 1794.6 L2990.83 1794.6 L2990.83 1790.66 Z" fill="#000000" fill-rule="evenodd" fill-opacity="1" /><path clip-path="url(#clip770)" d="M 0 0 M3015.37 1810.34 L3027.84 1810.34 L3027.84 1814.14 L3015.37 1814.14 L3015.37 1810.34 Z" fill="#000000" fill-rule="evenodd" fill-opacity="1" /><path clip-path="url(#clip770)" d="M 0 0 M3042.91 1793.74 Q3039.3 1793.74 3037.47 1797.31 Q3035.67 1800.85 3035.67 1807.98 Q3035.67 1815.09 3037.47 1818.65 Q3039.3 1822.19 3042.91 1822.19 Q3046.55 1822.19 3048.35 1818.65 Q3050.18 1815.09 3050.18 1807.98 Q3050.18 1800.85 3048.35 1797.31 Q3046.55 1793.74 3042.91 1793.74 M3042.91 1790.04 Q3048.72 1790.04 3051.78 1794.65 Q3054.86 1799.23 3054.86 1807.98 Q3054.86 1816.71 3051.78 1821.31 Q3048.72 1825.9 3042.91 1825.9 Q3037.1 1825.9 3034.02 1821.31 Q3030.97 1816.71 3030.97 1807.98 Q3030.97 1799.23 3034.02 1794.65 Q3037.1 1790.04 3042.91 1790.04 Z" fill="#000000" fill-rule="evenodd" fill-opacity="1" /><path clip-path="url(#clip770)" d="M 0 0 M3060.74 1821.29 L3068.38 1821.29 L3068.38 1794.92 L3060.07 1796.59 L3060.07 1792.33 L3068.33 1790.66 L3073.01 1790.66 L3073.01 1821.29 L3080.64 1821.29 L3080.64 1825.22 L3060.74 1825.22 L3060.74 1821.29 Z" fill="#000000" fill-rule="evenodd" fill-opacity="1" /><path clip-path="url(#clip770)" d="M 0 0 M3080.51 1790.66 L3109.74 1790.66 L3109.74 1794.6 L3097.47 1794.6 L3097.47 1825.22 L3092.77 1825.22 L3092.77 1794.6 L3080.51 1794.6 L3080.51 1790.66 Z" fill="#000000" fill-rule="evenodd" fill-opacity="1" /><path clip-path="url(#clip770)" d="M 0 0 M3115.62 1821.29 L3123.26 1821.29 L3123.26 1794.92 L3114.95 1796.59 L3114.95 1792.33 L3123.21 1790.66 L3127.89 1790.66 L3127.89 1821.29 L3135.53 1821.29 L3135.53 1825.22 L3115.62 1825.22 L3115.62 1821.29 Z" fill="#000000" fill-rule="evenodd" fill-opacity="1" /><path clip-path="url(#clip770)" d="M 0 0 M3151.18 1806.08 Q3148.03 1806.08 3146.18 1808.23 Q3144.35 1810.39 3144.35 1814.14 Q3144.35 1817.86 3146.18 1820.04 Q3148.03 1822.19 3151.18 1822.19 Q3154.32 1822.19 3156.15 1820.04 Q3158 1817.86 3158 1814.14 Q3158 1810.39 3156.15 1808.23 Q3154.32 1806.08 3151.18 1806.08 M3160.46 1791.43 L3160.46 1795.69 Q3158.7 1794.85 3156.89 1794.41 Q3155.11 1793.97 3153.35 1793.97 Q3148.72 1793.97 3146.27 1797.1 Q3143.84 1800.22 3143.49 1806.54 Q3144.86 1804.53 3146.92 1803.46 Q3148.98 1802.38 3151.45 1802.38 Q3156.66 1802.38 3159.67 1805.55 Q3162.7 1808.7 3162.7 1814.14 Q3162.7 1819.46 3159.56 1822.68 Q3156.41 1825.9 3151.18 1825.9 Q3145.18 1825.9 3142.01 1821.31 Q3138.84 1816.71 3138.84 1807.98 Q3138.84 1799.78 3142.73 1794.92 Q3146.62 1790.04 3153.17 1790.04 Q3154.93 1790.04 3156.71 1790.39 Q3158.51 1790.73 3160.46 1791.43 Z" fill="#000000" fill-rule="evenodd" fill-opacity="1" /><path clip-path="url(#clip770)" d="M 0 0 M3168.26 1819.34 L3173.14 1819.34 L3173.14 1825.22 L3168.26 1825.22 L3168.26 1819.34 M3168.26 1800.71 L3173.14 1800.71 L3173.14 1806.59 L3168.26 1806.59 L3168.26 1800.71 Z" fill="#000000" fill-rule="evenodd" fill-opacity="1" /><path clip-path="url(#clip770)" d="M 0 0 M3188.21 1793.74 Q3184.6 1793.74 3182.77 1797.31 Q3180.97 1800.85 3180.97 1807.98 Q3180.97 1815.09 3182.77 1818.65 Q3184.6 1822.19 3188.21 1822.19 Q3191.85 1822.19 3193.65 1818.65 Q3195.48 1815.09 3195.48 1807.98 Q3195.48 1800.85 3193.65 1797.31 Q3191.85 1793.74 3188.21 1793.74 M3188.21 1790.04 Q3194.02 1790.04 3197.08 1794.65 Q3200.16 1799.23 3200.16 1807.98 Q3200.16 1816.71 3197.08 1821.31 Q3194.02 1825.9 3188.21 1825.9 Q3182.4 1825.9 3179.32 1821.31 Q3176.27 1816.71 3176.27 1807.98 Q3176.27 1799.23 3179.32 1794.65 Q3182.4 1790.04 3188.21 1790.04 Z" fill="#000000" fill-rule="evenodd" fill-opacity="1" /><path clip-path="url(#clip770)" d="M 0 0 M3215.23 1793.74 Q3211.62 1793.74 3209.79 1797.31 Q3207.98 1800.85 3207.98 1807.98 Q3207.98 1815.09 3209.79 1818.65 Q3211.62 1822.19 3215.23 1822.19 Q3218.86 1822.19 3220.67 1818.65 Q3222.5 1815.09 3222.5 1807.98 Q3222.5 1800.85 3220.67 1797.31 Q3218.86 1793.74 3215.23 1793.74 M3215.23 1790.04 Q3221.04 1790.04 3224.09 1794.65 Q3227.17 1799.23 3227.17 1807.98 Q3227.17 1816.71 3224.09 1821.31 Q3221.04 1825.9 3215.23 1825.9 Q3209.42 1825.9 3206.34 1821.31 Q3203.28 1816.71 3203.28 1807.98 Q3203.28 1799.23 3206.34 1794.65 Q3209.42 1790.04 3215.23 1790.04 Z" fill="#000000" fill-rule="evenodd" fill-opacity="1" /><path clip-path="url(#clip770)" d="M 0 0 M3232.73 1819.34 L3237.61 1819.34 L3237.61 1825.22 L3232.73 1825.22 L3232.73 1819.34 M3232.73 1800.71 L3237.61 1800.71 L3237.61 1806.59 L3232.73 1806.59 L3232.73 1800.71 Z" fill="#000000" fill-rule="evenodd" fill-opacity="1" /><path clip-path="url(#clip770)" d="M 0 0 M3252.68 1793.74 Q3249.07 1793.74 3247.24 1797.31 Q3245.43 1800.85 3245.43 1807.98 Q3245.43 1815.09 3247.24 1818.65 Q3249.07 1822.19 3252.68 1822.19 Q3256.31 1822.19 3258.12 1818.65 Q3259.95 1815.09 3259.95 1807.98 Q3259.95 1800.85 3258.12 1797.31 Q3256.31 1793.74 3252.68 1793.74 M3252.68 1790.04 Q3258.49 1790.04 3261.55 1794.65 Q3264.62 1799.23 3264.62 1807.98 Q3264.62 1816.71 3261.55 1821.31 Q3258.49 1825.9 3252.68 1825.9 Q3246.87 1825.9 3243.79 1821.31 Q3240.74 1816.71 3240.74 1807.98 Q3240.74 1799.23 3243.79 1794.65 Q3246.87 1790.04 3252.68 1790.04 Z" fill="#000000" fill-rule="evenodd" fill-opacity="1" /><path clip-path="url(#clip770)" d="M 0 0 M3279.69 1793.74 Q3276.08 1793.74 3274.25 1797.31 Q3272.45 1800.85 3272.45 1807.98 Q3272.45 1815.09 3274.25 1818.65 Q3276.08 1822.19 3279.69 1822.19 Q3283.33 1822.19 3285.13 1818.65 Q3286.96 1815.09 3286.96 1807.98 Q3286.96 1800.85 3285.13 1797.31 Q3283.33 1793.74 3279.69 1793.74 M3279.69 1790.04 Q3285.5 1790.04 3288.56 1794.65 Q3291.64 1799.23 3291.64 1807.98 Q3291.64 1816.71 3288.56 1821.31 Q3285.5 1825.9 3279.69 1825.9 Q3273.88 1825.9 3270.81 1821.31 Q3267.75 1816.71 3267.75 1807.98 Q3267.75 1799.23 3270.81 1794.65 Q3273.88 1790.04 3279.69 1790.04 Z" fill="#000000" fill-rule="evenodd" fill-opacity="1" /><path clip-path="url(#clip770)" d="M 0 0 M71.8578 1699.79 L88.1772 1699.79 L88.1772 1703.72 L66.2329 1703.72 L66.2329 1699.79 Q68.8949 1697.03 73.4782 1692.4 Q78.0846 1687.75 79.2652 1686.41 Q81.5105 1683.89 82.3902 1682.15 Q83.2929 1680.39 83.2929 1678.7 Q83.2929 1675.95 81.3485 1674.21 Q79.4272 1672.47 76.3254 1672.47 Q74.1263 1672.47 71.6726 1673.24 Q69.2421 1674 66.4643 1675.55 L66.4643 1670.83 Q69.2884 1669.7 71.7421 1669.12 Q74.1958 1668.54 76.2328 1668.54 Q81.6031 1668.54 84.7976 1671.22 Q87.992 1673.91 87.992 1678.4 Q87.992 1680.53 87.1818 1682.45 Q86.3948 1684.35 84.2883 1686.94 Q83.7096 1687.61 80.6078 1690.83 Q77.5059 1694.03 71.8578 1699.79 Z" fill="#000000" fill-rule="evenodd" fill-opacity="1" /><path clip-path="url(#clip770)" d="M 0 0 M103.247 1672.24 Q99.6354 1672.24 97.8068 1675.81 Q96.0012 1679.35 96.0012 1686.48 Q96.0012 1693.59 97.8068 1697.15 Q99.6354 1700.69 103.247 1700.69 Q106.881 1700.69 108.686 1697.15 Q110.515 1693.59 110.515 1686.48 Q110.515 1679.35 108.686 1675.81 Q106.881 1672.24 103.247 1672.24 M103.247 1668.54 Q109.057 1668.54 112.112 1673.15 Q115.191 1677.73 115.191 1686.48 Q115.191 1695.21 112.112 1699.81 Q109.057 1704.4 103.247 1704.4 Q97.4364 1704.4 94.3577 1699.81 Q91.3022 1695.21 91.3022 1686.48 Q91.3022 1677.73 94.3577 1673.15 Q97.4364 1668.54 103.247 1668.54 Z" fill="#000000" fill-rule="evenodd" fill-opacity="1" /><path clip-path="url(#clip770)" d="M 0 0 M78.5939 1237.35 L66.7884 1255.8 L78.5939 1255.8 L78.5939 1237.35 M77.367 1233.27 L83.2466 1233.27 L83.2466 1255.8 L88.1772 1255.8 L88.1772 1259.69 L83.2466 1259.69 L83.2466 1267.83 L78.5939 1267.83 L78.5939 1259.69 L62.9921 1259.69 L62.9921 1255.17 L77.367 1233.27 Z" fill="#000000" fill-rule="evenodd" fill-opacity="1" /><path clip-path="url(#clip770)" d="M 0 0 M103.247 1236.35 Q99.6354 1236.35 97.8068 1239.92 Q96.0012 1243.46 96.0012 1250.59 Q96.0012 1257.7 97.8068 1261.26 Q99.6354 1264.8 103.247 1264.8 Q106.881 1264.8 108.686 1261.26 Q110.515 1257.7 110.515 1250.59 Q110.515 1243.46 108.686 1239.92 Q106.881 1236.35 103.247 1236.35 M103.247 1232.65 Q109.057 1232.65 112.112 1237.26 Q115.191 1241.84 115.191 1250.59 Q115.191 1259.32 112.112 1263.92 Q109.057 1268.51 103.247 1268.51 Q97.4364 1268.51 94.3577 1263.92 Q91.3022 1259.32 91.3022 1250.59 Q91.3022 1241.84 94.3577 1237.26 Q97.4364 1232.65 103.247 1232.65 Z" fill="#000000" fill-rule="evenodd" fill-opacity="1" /><path clip-path="url(#clip770)" d="M 0 0 M76.6495 812.802 Q73.5013 812.802 71.6495 814.954 Q69.8208 817.107 69.8208 820.857 Q69.8208 824.584 71.6495 826.76 Q73.5013 828.913 76.6495 828.913 Q79.7976 828.913 81.6263 826.76 Q83.4781 824.584 83.4781 820.857 Q83.4781 817.107 81.6263 814.954 Q79.7976 812.802 76.6495 812.802 M85.9318 798.149 L85.9318 802.408 Q84.1726 801.575 82.367 801.135 Q80.5846 800.695 78.8254 800.695 Q74.1958 800.695 71.7421 803.82 Q69.3115 806.945 68.9643 813.264 Q70.3301 811.251 72.3902 810.186 Q74.4504 809.098 76.9272 809.098 Q82.1355 809.098 85.1448 812.269 Q88.1772 815.417 88.1772 820.857 Q88.1772 826.181 85.029 829.399 Q81.8809 832.616 76.6495 832.616 Q70.6541 832.616 67.4828 828.033 Q64.3116 823.426 64.3116 814.7 Q64.3116 806.505 68.2004 801.644 Q72.0893 796.76 78.6402 796.76 Q80.3994 796.76 82.1818 797.107 Q83.9874 797.454 85.9318 798.149 Z" fill="#000000" fill-rule="evenodd" fill-opacity="1" /><path clip-path="url(#clip770)" d="M 0 0 M103.247 800.464 Q99.6354 800.464 97.8068 804.028 Q96.0012 807.57 96.0012 814.7 Q96.0012 821.806 97.8068 825.371 Q99.6354 828.913 103.247 828.913 Q106.881 828.913 108.686 825.371 Q110.515 821.806 110.515 814.7 Q110.515 807.57 108.686 804.028 Q106.881 800.464 103.247 800.464 M103.247 796.76 Q109.057 796.76 112.112 801.366 Q115.191 805.95 115.191 814.7 Q115.191 823.426 112.112 828.033 Q109.057 832.616 103.247 832.616 Q97.4364 832.616 94.3577 828.033 Q91.3022 823.426 91.3022 814.7 Q91.3022 805.95 94.3577 801.366 Q97.4364 796.76 103.247 796.76 Z" fill="#000000" fill-rule="evenodd" fill-opacity="1" /><path clip-path="url(#clip770)" d="M 0 0 M76.3254 379.643 Q72.9921 379.643 71.0708 381.426 Q69.1726 383.208 69.1726 386.333 Q69.1726 389.458 71.0708 391.241 Q72.9921 393.023 76.3254 393.023 Q79.6587 393.023 81.58 391.241 Q83.5013 389.435 83.5013 386.333 Q83.5013 383.208 81.58 381.426 Q79.6819 379.643 76.3254 379.643 M71.6495 377.653 Q68.6402 376.912 66.9504 374.852 Q65.2838 372.792 65.2838 369.829 Q65.2838 365.685 68.2236 363.278 Q71.1865 360.87 76.3254 360.87 Q81.4874 360.87 84.4272 363.278 Q87.367 365.685 87.367 369.829 Q87.367 372.792 85.6772 374.852 Q84.0105 376.912 81.0244 377.653 Q84.404 378.44 86.279 380.731 Q88.1772 383.023 88.1772 386.333 Q88.1772 391.356 85.0985 394.041 Q82.043 396.727 76.3254 396.727 Q70.6078 396.727 67.5291 394.041 Q64.4736 391.356 64.4736 386.333 Q64.4736 383.023 66.3717 380.731 Q68.2699 378.44 71.6495 377.653 M69.9365 370.268 Q69.9365 372.954 71.6032 374.458 Q73.293 375.963 76.3254 375.963 Q79.3346 375.963 81.0244 374.458 Q82.7374 372.954 82.7374 370.268 Q82.7374 367.583 81.0244 366.079 Q79.3346 364.574 76.3254 364.574 Q73.293 364.574 71.6032 366.079 Q69.9365 367.583 69.9365 370.268 Z" fill="#000000" fill-rule="evenodd" fill-opacity="1" /><path clip-path="url(#clip770)" d="M 0 0 M103.247 364.574 Q99.6354 364.574 97.8068 368.139 Q96.0012 371.68 96.0012 378.81 Q96.0012 385.917 97.8068 389.481 Q99.6354 393.023 103.247 393.023 Q106.881 393.023 108.686 389.481 Q110.515 385.917 110.515 378.81 Q110.515 371.68 108.686 368.139 Q106.881 364.574 103.247 364.574 M103.247 360.87 Q109.057 360.87 112.112 365.477 Q115.191 370.06 115.191 378.81 Q115.191 387.537 112.112 392.143 Q109.057 396.727 103.247 396.727 Q97.4364 396.727 94.3577 392.143 Q91.3022 387.537 91.3022 378.81 Q91.3022 370.06 94.3577 365.477 Q97.4364 360.87 103.247 360.87 Z" fill="#000000" fill-rule="evenodd" fill-opacity="1" /><path clip-path="url(#clip770)" d="M 0 0 M1548.5 12.096 L1599.66 12.096 L1599.66 18.9825 L1578.19 18.9825 L1578.19 72.576 L1569.97 72.576 L1569.97 18.9825 L1548.5 18.9825 L1548.5 12.096 Z" fill="#000000" fill-rule="evenodd" fill-opacity="1" /><path clip-path="url(#clip770)" d="M 0 0 M1644.06 14.0809 L1644.06 22.0612 Q1639.4 19.8332 1635.27 18.7395 Q1631.14 17.6457 1627.29 17.6457 Q1620.6 17.6457 1616.96 20.2383 Q1613.35 22.8309 1613.35 27.611 Q1613.35 31.6214 1615.74 33.6873 Q1618.17 35.7128 1624.9 36.9686 L1629.84 37.9813 Q1639 39.7232 1643.33 44.1387 Q1647.7 48.5136 1647.7 55.8863 Q1647.7 64.6767 1641.79 69.2137 Q1635.92 73.7508 1624.53 73.7508 Q1620.24 73.7508 1615.38 72.7785 Q1610.56 71.8063 1605.37 69.9024 L1605.37 61.4765 Q1610.36 64.2716 1615.14 65.6895 Q1619.92 67.1073 1624.53 67.1073 Q1631.54 67.1073 1635.35 64.3527 Q1639.16 61.598 1639.16 56.4939 Q1639.16 52.0379 1636.4 49.5264 Q1633.69 47.0148 1627.45 45.759 L1622.47 44.7868 Q1613.31 42.9639 1609.22 39.075 Q1605.13 35.1862 1605.13 28.2591 Q1605.13 20.2383 1610.76 15.6203 Q1616.43 11.0023 1626.36 11.0023 Q1630.61 11.0023 1635.03 11.7719 Q1639.44 12.5416 1644.06 14.0809 Z" fill="#000000" fill-rule="evenodd" fill-opacity="1" /><path clip-path="url(#clip770)" d="M 0 0 M1655.85 12.096 L1664.03 12.096 L1664.03 65.6895 L1693.48 65.6895 L1693.48 72.576 L1655.85 72.576 L1655.85 12.096 Z" fill="#000000" fill-rule="evenodd" fill-opacity="1" /><path clip-path="url(#clip770)" d="M 0 0 M1723.74 20.1573 L1712.64 50.2555 L1734.88 50.2555 L1723.74 20.1573 M1719.12 12.096 L1728.4 12.096 L1751.45 72.576 L1742.94 72.576 L1737.43 57.061 L1710.17 57.061 L1704.66 72.576 L1696.03 72.576 L1719.12 12.096 Z" fill="#000000" fill-rule="evenodd" fill-opacity="1" /><polyline clip-path="url(#clip772)" style="stroke:#009af9; stroke-width:4; stroke-opacity:1; fill:none" points="
  3067.69,1123 3060.4,1245.42 3053.11,1522.54 3045.83,1274.4 3038.54,1185.35 3031.25,945.789 3023.96,813.455 3016.67,828.921 3009.38,1015.22 3002.09,743.003 
  2994.8,689.852 2987.51,805.877 2980.22,847.056 2972.94,1016.05 2965.65,1000.31 2958.36,1045.2 2951.07,1127.98 2943.78,1051.05 2936.49,1091.99 2929.2,1017.24 
  2921.91,1278.38 2914.62,1201.54 2907.33,1288.62 2900.04,1214.24 2892.76,917.018 2885.47,697.352 2878.18,760.344 2870.89,954.599 2863.6,834.829 2856.31,698.753 
  2849.02,722.117 2841.73,880.186 2834.44,934.428 2827.15,905.158 2819.87,695.334 2812.58,819.052 2805.29,795.444 2798,784.549 2790.71,902.843 2783.42,800.871 
  2776.13,857.984 2768.84,951.702 2761.55,1221.53 2754.26,1139.07 2746.97,1312.17 2739.69,1386.02 2732.4,1461.4 2725.11,1356.14 2717.82,1322.59 2710.53,1305.86 
  2703.24,1403.66 2695.95,1514.68 2688.66,1449.65 2681.37,1326.29 2674.08,1096.78 2666.8,1228.88 2659.51,979.039 2652.22,1036.04 2644.93,1101.66 2637.64,1009.78 
  2630.35,937.44 2623.06,1047.94 2615.77,768.543 2608.48,1012.42 2601.19,832.87 2593.9,840.783 2586.62,855.405 2579.33,943.403 2572.04,1034.15 2564.75,1027.67 
  2557.46,863.456 2550.17,918.376 2542.88,1014.7 2535.59,1218.83 2528.3,1186.03 2521.01,992.802 2513.73,864.372 2506.44,970.722 2499.15,1078.28 2491.86,1111.43 
  2484.57,1143.61 2477.28,1168.51 2469.99,1306.87 2462.7,1217.89 2455.41,975.155 2448.12,1035.28 2440.83,926.126 2433.55,892.425 2426.26,796.292 2418.97,743.327 
  2411.68,530.478 2404.39,581.972 2397.1,358.831 2389.81,389.049 2382.52,428.759 2375.23,513.284 2367.94,574.344 2360.66,234.616 2353.37,326.196 2346.08,365.516 
  2338.79,426.161 2331.5,518.43 2324.21,506.807 2316.92,568.272 2309.63,581.486 2302.34,680.627 2295.05,797.959 2287.76,869.548 2280.48,748.035 2273.19,914.407 
  2265.9,1043.47 2258.61,1007.91 2251.32,1304.12 2244.03,1187.19 2236.74,1018.69 2229.45,1258.62 2222.16,1174.35 2214.87,1067.9 2207.59,1066.33 2200.3,1147.46 
  2193.01,1088.17 2185.72,1006.74 2178.43,1014.2 2171.14,1053.55 2163.85,1131.52 2156.56,1040.26 2149.27,848.187 2141.98,910.676 2134.69,932.619 2127.41,1009.25 
  2120.12,1038 2112.83,1139.45 2105.54,1189.03 2098.25,1419.58 2090.96,1375.81 2083.67,1319.41 2076.38,1219.48 2069.09,1348.06 2061.8,1269.5 2054.52,1394.78 
  2047.23,1455.85 2039.94,1324.41 2032.65,1227.02 2025.36,1142.77 2018.07,1023.97 2010.78,1246.16 2003.49,1186.83 1996.2,1059.5 1988.91,1059.93 1981.62,1161.28 
  1974.34,1322.06 1967.05,1224.61 1959.76,1074.8 1952.47,760.854 1945.18,664.911 1937.89,713.804 1930.6,771.521 1923.31,676.305 1916.02,894.202 1908.73,794.119 
  1901.45,829.025 1894.16,938.488 1886.87,1073.11 1879.58,1197.41 1872.29,1351.38 1865,1357.42 1857.71,1586.51 1850.42,1486.9 1843.13,1427.04 1835.84,1721.01 
  1828.56,1696.35 1821.27,1668.99 1813.98,1562.64 1806.69,1356.02 1799.4,1149.7 1792.11,1267.8 1784.82,1200.32 1777.53,1138.71 1770.24,1108.21 1762.95,929.637 
  1755.66,915.242 1748.38,972.228 1741.09,1025.04 1733.8,957.683 1726.51,1115.45 1719.22,1248.54 1711.93,1092.68 1704.64,1119.32 1697.35,1196.64 1690.06,1399.34 
  1682.77,1219.53 1675.49,1380.28 1668.2,1340.25 1660.91,1130.85 1653.62,1031.84 1646.33,990.398 1639.04,914.671 1631.75,1022.09 1624.46,862.26 1617.17,666.34 
  1609.88,763.749 1602.59,864.324 1595.31,909.724 1588.02,953.195 1580.73,853.522 1573.44,1099.66 1566.15,1173.52 1558.86,1097.52 1551.57,1120.23 1544.28,966.773 
  1536.99,1168.95 1529.7,1193.05 1522.42,1119.17 1515.13,1300.16 1507.84,1449.95 1500.55,1600.17 1493.26,1444.37 1485.97,1338.35 1478.68,1314.62 1471.39,1122.74 
  1464.1,1203.97 1456.81,1207.6 1449.52,1450.88 1442.24,1507.67 1434.95,1302.43 1427.66,1153.14 1420.37,1235.45 1413.08,1245.8 1405.79,1317.72 1398.5,1233.34 
  1391.21,1143.11 1383.92,1017.54 1376.63,1219.92 1369.35,1154.77 1362.06,1024.36 1354.77,1001.21 1347.48,954.317 1340.19,932.229 1332.9,1037.99 1325.61,1051.34 
  1318.32,1140.13 1311.03,1269.27 1303.74,1065.85 1296.45,1064.42 1289.17,817.986 1281.88,884.196 1274.59,909.506 1267.3,691.293 1260.01,809.33 1252.72,938.142 
  1245.43,750.099 1238.14,906.357 1230.85,893.642 1223.56,993.404 1216.28,978.971 1208.99,1008.56 1201.7,951.079 1194.41,907.666 1187.12,1029.6 1179.83,1069.83 
  1172.54,1112.62 1165.25,1209.35 1157.96,1354.22 1150.67,1302.92 1143.38,1636.79 1136.1,1440.61 1128.81,1476.58 1121.52,1408.44 1114.23,1629.13 1106.94,1420.54 
  1099.65,1276.51 1092.36,1149.4 1085.07,1070.62 1077.78,1109.1 1070.49,1084.59 1063.21,1029.53 1055.92,1217.61 1048.63,1149.64 1041.34,1191.37 1034.05,1097.39 
  1026.76,858.849 1019.47,798.236 1012.18,882.912 1004.89,761.308 997.604,877.947 990.315,1042.84 983.026,1015.09 975.737,1160.07 968.448,1058.55 961.159,934.391 
  953.87,946.685 946.581,922.763 939.291,1255.43 932.002,1302.23 924.713,1223.83 917.424,1197.57 910.135,1093.12 902.846,1141.87 895.557,1161.68 888.268,874.589 
  880.979,953.21 873.69,989.478 866.401,920.401 859.112,956.442 851.823,864.304 844.534,985.911 837.245,954.062 829.956,884.654 822.667,1162.4 815.378,1079.91 
  808.089,846.912 800.8,700.569 793.511,753.754 786.222,842.991 778.932,471.01 771.643,564.49 764.354,390.677 757.065,361.226 749.776,440.321 742.487,499.41 
  735.198,604.446 727.909,688.468 720.62,719.257 713.331,725.922 706.042,434.21 698.753,370.598 691.464,432.924 684.175,327.146 676.886,430.718 669.597,430.733 
  662.308,434.024 655.019,513.986 647.73,650.014 640.441,603.204 633.152,618.068 625.863,574.161 618.573,604.148 611.284,776.374 603.995,666.347 596.706,525.175 
  589.417,574.616 582.128,855.227 574.839,851.073 567.55,864.659 560.261,992.497 552.972,891.469 545.683,931.095 538.394,1040.12 531.105,952.672 523.816,877.089 
  516.527,1055.44 509.238,962.989 501.949,970.622 494.66,970.354 487.371,874.476 480.082,942.147 472.793,886.321 465.504,790.185 458.214,760.299 450.925,850.927 
  443.636,974.262 436.347,1104.27 429.058,961.516 421.769,1053.6 414.48,985.791 407.191,882.823 399.902,956.75 392.613,823.823 385.324,648.678 378.035,565.624 
  370.746,641.575 363.457,663.411 356.168,634.22 348.879,603.969 341.59,669.241 334.301,491.193 327.012,337.091 319.723,417.818 312.434,465.877 305.145,628.789 
  297.855,729.603 290.566,734.642 283.277,751.245 275.988,869.655 268.699,616.88 261.41,307.85 254.121,163.03 246.832,223.832 239.543,347.622 232.254,658.606 
  
  "/>
<polyline clip-path="url(#clip772)" style="stroke:#e26f46; stroke-width:4; stroke-opacity:1; fill:none" points="
  -2858.37,1468.5 6158.32,1468.5 
  "/>
<polyline clip-path="url(#clip772)" style="stroke:#e26f46; stroke-width:4; stroke-opacity:1; fill:none" points="
  -2858.37,596.72 6158.32,596.72 
  "/>
<path clip-path="url(#clip770)" d="
M2170.95 429.25 L3056.76 429.25 L3056.76 247.81 L2170.95 247.81  Z
  " fill="#ffffff" fill-rule="evenodd" fill-opacity="1"/>
<polyline clip-path="url(#clip770)" style="stroke:#000000; stroke-width:4; stroke-opacity:1; fill:none" points="
  2170.95,429.25 3056.76,429.25 3056.76,247.81 2170.95,247.81 2170.95,429.25 
  "/>
<polyline clip-path="url(#clip770)" style="stroke:#009af9; stroke-width:4; stroke-opacity:1; fill:none" points="
  2202.95,308.29 2394.95,308.29 
  "/>
<path clip-path="url(#clip770)" d="M 0 0 M2440.79 327.978 Q2438.99 332.607 2437.27 334.019 Q2435.56 335.431 2432.69 335.431 L2429.29 335.431 L2429.29 331.866 L2431.79 331.866 Q2433.55 331.866 2434.52 331.033 Q2435.49 330.2 2436.67 327.098 L2437.43 325.153 L2426.95 299.644 L2431.46 299.644 L2439.56 319.922 L2447.67 299.644 L2452.18 299.644 L2440.79 327.978 Z" fill="#000000" fill-rule="evenodd" fill-opacity="1" /><path clip-path="url(#clip770)" d="M 0 0 M2458.06 321.635 L2465.7 321.635 L2465.7 295.269 L2457.39 296.936 L2457.39 292.677 L2465.65 291.01 L2470.33 291.01 L2470.33 321.635 L2477.97 321.635 L2477.97 325.57 L2458.06 325.57 L2458.06 321.635 Z" fill="#000000" fill-rule="evenodd" fill-opacity="1" /><polyline clip-path="url(#clip770)" style="stroke:#e26f46; stroke-width:4; stroke-opacity:1; fill:none" points="
  2202.95,368.77 2394.95,368.77 
  "/>
<path clip-path="url(#clip770)" d="M 0 0 M2426.95 350.032 L2436.76 350.032 L2436.76 353.342 L2431.21 353.342 L2431.21 388.99 L2436.76 388.99 L2436.76 392.3 L2426.95 392.3 L2426.95 350.032 Z" fill="#000000" fill-rule="evenodd" fill-opacity="1" /><path clip-path="url(#clip770)" d="M 0 0 M2445.26 351.49 L2445.26 364.337 L2441.32 364.337 L2441.32 351.49 L2445.26 351.49 M2454.01 351.49 L2454.01 364.337 L2450.07 364.337 L2450.07 351.49 L2454.01 351.49 Z" fill="#000000" fill-rule="evenodd" fill-opacity="1" /><path clip-path="url(#clip770)" d="M 0 0 M2472.69 354.661 Q2467.6 354.661 2464.59 358.458 Q2461.6 362.254 2461.6 368.805 Q2461.6 375.333 2464.59 379.129 Q2467.6 382.925 2472.69 382.925 Q2477.78 382.925 2480.74 379.129 Q2483.73 375.333 2483.73 368.805 Q2483.73 362.254 2480.74 358.458 Q2477.78 354.661 2472.69 354.661 M2472.69 350.865 Q2479.96 350.865 2484.31 355.749 Q2488.66 360.61 2488.66 368.805 Q2488.66 376.976 2484.31 381.86 Q2479.96 386.721 2472.69 386.721 Q2465.4 386.721 2461.02 381.86 Q2456.67 376.999 2456.67 368.805 Q2456.67 360.61 2461.02 355.749 Q2465.4 350.865 2472.69 350.865 Z" fill="#000000" fill-rule="evenodd" fill-opacity="1" /><path clip-path="url(#clip770)" d="M 0 0 M2490.07 360.124 L2494.59 360.124 L2502.69 381.883 L2510.79 360.124 L2515.3 360.124 L2505.58 386.05 L2499.8 386.05 L2490.07 360.124 Z" fill="#000000" fill-rule="evenodd" fill-opacity="1" /><path clip-path="url(#clip770)" d="M 0 0 M2541.95 372.022 L2541.95 374.106 L2522.36 374.106 Q2522.64 378.504 2525 380.819 Q2527.39 383.11 2531.62 383.11 Q2534.08 383.11 2536.37 382.508 Q2538.68 381.907 2540.95 380.703 L2540.95 384.731 Q2538.66 385.703 2536.25 386.212 Q2533.85 386.721 2531.37 386.721 Q2525.17 386.721 2521.53 383.11 Q2517.92 379.499 2517.92 373.342 Q2517.92 366.976 2521.35 363.249 Q2524.8 359.499 2530.63 359.499 Q2535.86 359.499 2538.89 362.879 Q2541.95 366.235 2541.95 372.022 M2537.69 370.772 Q2537.64 367.277 2535.72 365.194 Q2533.82 363.11 2530.68 363.11 Q2527.11 363.11 2524.96 365.124 Q2522.83 367.138 2522.5 370.796 L2537.69 370.772 Z" fill="#000000" fill-rule="evenodd" fill-opacity="1" /><path clip-path="url(#clip770)" d="M 0 0 M2561.44 364.106 Q2560.72 363.689 2559.86 363.504 Q2559.03 363.296 2558.01 363.296 Q2554.4 363.296 2552.46 365.657 Q2550.54 367.995 2550.54 372.393 L2550.54 386.05 L2546.25 386.05 L2546.25 360.124 L2550.54 360.124 L2550.54 364.152 Q2551.88 361.791 2554.03 360.657 Q2556.18 359.499 2559.26 359.499 Q2559.7 359.499 2560.24 359.569 Q2560.77 359.615 2561.42 359.731 L2561.44 364.106 Z" fill="#000000" fill-rule="evenodd" fill-opacity="1" /><path clip-path="url(#clip770)" d="M 0 0 M2582.43 360.888 L2582.43 364.916 Q2580.63 363.99 2578.68 363.527 Q2576.74 363.064 2574.66 363.064 Q2571.49 363.064 2569.89 364.036 Q2568.31 365.009 2568.31 366.953 Q2568.31 368.434 2569.45 369.291 Q2570.58 370.124 2574.01 370.888 L2575.47 371.212 Q2580 372.184 2581.9 373.967 Q2583.82 375.726 2583.82 378.897 Q2583.82 382.508 2580.95 384.615 Q2578.11 386.721 2573.11 386.721 Q2571.02 386.721 2568.75 386.305 Q2566.51 385.911 2564.01 385.101 L2564.01 380.703 Q2566.37 381.93 2568.66 382.555 Q2570.95 383.157 2573.2 383.157 Q2576.21 383.157 2577.83 382.138 Q2579.45 381.096 2579.45 379.221 Q2579.45 377.485 2578.27 376.559 Q2577.11 375.634 2573.15 374.777 L2571.67 374.43 Q2567.71 373.596 2565.95 371.884 Q2564.19 370.147 2564.19 367.138 Q2564.19 363.481 2566.79 361.49 Q2569.38 359.499 2574.15 359.499 Q2576.51 359.499 2578.59 359.847 Q2580.67 360.194 2582.43 360.888 Z" fill="#000000" fill-rule="evenodd" fill-opacity="1" /><path clip-path="url(#clip770)" d="M 0 0 M2598.34 363.11 Q2594.91 363.11 2592.92 365.796 Q2590.93 368.458 2590.93 373.11 Q2590.93 377.763 2592.9 380.448 Q2594.89 383.11 2598.34 383.11 Q2601.74 383.11 2603.73 380.425 Q2605.72 377.74 2605.72 373.11 Q2605.72 368.504 2603.73 365.819 Q2601.74 363.11 2598.34 363.11 M2598.34 359.499 Q2603.89 359.499 2607.06 363.11 Q2610.23 366.722 2610.23 373.11 Q2610.23 379.476 2607.06 383.11 Q2603.89 386.721 2598.34 386.721 Q2592.76 386.721 2589.59 383.11 Q2586.44 379.476 2586.44 373.11 Q2586.44 366.722 2589.59 363.11 Q2592.76 359.499 2598.34 359.499 Z" fill="#000000" fill-rule="evenodd" fill-opacity="1" /><path clip-path="url(#clip770)" d="M 0 0 M2614.7 350.032 L2618.96 350.032 L2618.96 386.05 L2614.7 386.05 L2614.7 350.032 Z" fill="#000000" fill-rule="evenodd" fill-opacity="1" /><path clip-path="url(#clip770)" d="M 0 0 M2640.49 364.06 L2640.49 350.032 L2644.75 350.032 L2644.75 386.05 L2640.49 386.05 L2640.49 382.161 Q2639.15 384.476 2637.09 385.61 Q2635.05 386.721 2632.18 386.721 Q2627.48 386.721 2624.52 382.971 Q2621.58 379.221 2621.58 373.11 Q2621.58 366.999 2624.52 363.249 Q2627.48 359.499 2632.18 359.499 Q2635.05 359.499 2637.09 360.634 Q2639.15 361.745 2640.49 364.06 M2625.98 373.11 Q2625.98 377.809 2627.9 380.495 Q2629.84 383.157 2633.22 383.157 Q2636.6 383.157 2638.54 380.495 Q2640.49 377.809 2640.49 373.11 Q2640.49 368.411 2638.54 365.749 Q2636.6 363.064 2633.22 363.064 Q2629.84 363.064 2627.9 365.749 Q2625.98 368.411 2625.98 373.11 Z" fill="#000000" fill-rule="evenodd" fill-opacity="1" /><path clip-path="url(#clip770)" d="M 0 0 M2653.24 351.49 L2653.24 364.337 L2649.31 364.337 L2649.31 351.49 L2653.24 351.49 M2661.99 351.49 L2661.99 364.337 L2658.06 364.337 L2658.06 351.49 L2661.99 351.49 Z" fill="#000000" fill-rule="evenodd" fill-opacity="1" /><path clip-path="url(#clip770)" d="M 0 0 M2667.55 380.171 L2672.43 380.171 L2672.43 384.152 L2668.64 391.559 L2665.65 391.559 L2667.55 384.152 L2667.55 380.171 Z" fill="#000000" fill-rule="evenodd" fill-opacity="1" /><path clip-path="url(#clip770)" d="M 0 0 M2696 351.49 L2696 364.337 L2692.06 364.337 L2692.06 351.49 L2696 351.49 M2704.75 351.49 L2704.75 364.337 L2700.81 364.337 L2700.81 351.49 L2704.75 351.49 Z" fill="#000000" fill-rule="evenodd" fill-opacity="1" /><path clip-path="url(#clip770)" d="M 0 0 M2723.43 354.661 Q2718.34 354.661 2715.33 358.458 Q2712.34 362.254 2712.34 368.805 Q2712.34 375.333 2715.33 379.129 Q2718.34 382.925 2723.43 382.925 Q2728.52 382.925 2731.48 379.129 Q2734.47 375.333 2734.47 368.805 Q2734.47 362.254 2731.48 358.458 Q2728.52 354.661 2723.43 354.661 M2723.43 350.865 Q2730.7 350.865 2735.05 355.749 Q2739.4 360.61 2739.4 368.805 Q2739.4 376.976 2735.05 381.86 Q2730.7 386.721 2723.43 386.721 Q2716.14 386.721 2711.76 381.86 Q2707.41 376.999 2707.41 368.805 Q2707.41 360.61 2711.76 355.749 Q2716.14 350.865 2723.43 350.865 Z" fill="#000000" fill-rule="evenodd" fill-opacity="1" /><path clip-path="url(#clip770)" d="M 0 0 M2740.81 360.124 L2745.33 360.124 L2753.43 381.883 L2761.53 360.124 L2766.04 360.124 L2756.32 386.05 L2750.53 386.05 L2740.81 360.124 Z" fill="#000000" fill-rule="evenodd" fill-opacity="1" /><path clip-path="url(#clip770)" d="M 0 0 M2792.69 372.022 L2792.69 374.106 L2773.1 374.106 Q2773.38 378.504 2775.74 380.819 Q2778.13 383.11 2782.36 383.11 Q2784.82 383.11 2787.11 382.508 Q2789.42 381.907 2791.69 380.703 L2791.69 384.731 Q2789.4 385.703 2786.99 386.212 Q2784.59 386.721 2782.11 386.721 Q2775.91 386.721 2772.27 383.11 Q2768.66 379.499 2768.66 373.342 Q2768.66 366.976 2772.09 363.249 Q2775.53 359.499 2781.37 359.499 Q2786.6 359.499 2789.63 362.879 Q2792.69 366.235 2792.69 372.022 M2788.43 370.772 Q2788.38 367.277 2786.46 365.194 Q2784.56 363.11 2781.41 363.11 Q2777.85 363.11 2775.7 365.124 Q2773.57 367.138 2773.24 370.796 L2788.43 370.772 Z" fill="#000000" fill-rule="evenodd" fill-opacity="1" /><path clip-path="url(#clip770)" d="M 0 0 M2812.18 364.106 Q2811.46 363.689 2810.6 363.504 Q2809.77 363.296 2808.75 363.296 Q2805.14 363.296 2803.2 365.657 Q2801.28 367.995 2801.28 372.393 L2801.28 386.05 L2796.99 386.05 L2796.99 360.124 L2801.28 360.124 L2801.28 364.152 Q2802.62 361.791 2804.77 360.657 Q2806.92 359.499 2810 359.499 Q2810.44 359.499 2810.97 359.569 Q2811.51 359.615 2812.16 359.731 L2812.18 364.106 Z" fill="#000000" fill-rule="evenodd" fill-opacity="1" /><path clip-path="url(#clip770)" d="M 0 0 M2835.26 373.11 Q2835.26 368.411 2833.31 365.749 Q2831.39 363.064 2828.01 363.064 Q2824.63 363.064 2822.69 365.749 Q2820.77 368.411 2820.77 373.11 Q2820.77 377.809 2822.69 380.495 Q2824.63 383.157 2828.01 383.157 Q2831.39 383.157 2833.31 380.495 Q2835.26 377.809 2835.26 373.11 M2820.77 364.06 Q2822.11 361.745 2824.15 360.634 Q2826.21 359.499 2829.05 359.499 Q2833.78 359.499 2836.72 363.249 Q2839.68 366.999 2839.68 373.11 Q2839.68 379.221 2836.72 382.971 Q2833.78 386.721 2829.05 386.721 Q2826.21 386.721 2824.15 385.61 Q2822.11 384.476 2820.77 382.161 L2820.77 386.05 L2816.48 386.05 L2816.48 350.032 L2820.77 350.032 L2820.77 364.06 Z" fill="#000000" fill-rule="evenodd" fill-opacity="1" /><path clip-path="url(#clip770)" d="M 0 0 M2854.19 363.11 Q2850.77 363.11 2848.78 365.796 Q2846.78 368.458 2846.78 373.11 Q2846.78 377.763 2848.75 380.448 Q2850.74 383.11 2854.19 383.11 Q2857.59 383.11 2859.59 380.425 Q2861.58 377.74 2861.58 373.11 Q2861.58 368.504 2859.59 365.819 Q2857.59 363.11 2854.19 363.11 M2854.19 359.499 Q2859.75 359.499 2862.92 363.11 Q2866.09 366.722 2866.09 373.11 Q2866.09 379.476 2862.92 383.11 Q2859.75 386.721 2854.19 386.721 Q2848.61 386.721 2845.44 383.11 Q2842.29 379.476 2842.29 373.11 Q2842.29 366.722 2845.44 363.11 Q2848.61 359.499 2854.19 359.499 Z" fill="#000000" fill-rule="evenodd" fill-opacity="1" /><path clip-path="url(#clip770)" d="M 0 0 M2870.12 375.819 L2870.12 360.124 L2874.38 360.124 L2874.38 375.657 Q2874.38 379.337 2875.81 381.189 Q2877.25 383.018 2880.12 383.018 Q2883.57 383.018 2885.56 380.819 Q2887.57 378.62 2887.57 374.823 L2887.57 360.124 L2891.83 360.124 L2891.83 386.05 L2887.57 386.05 L2887.57 382.069 Q2886.02 384.43 2883.96 385.587 Q2881.92 386.721 2879.21 386.721 Q2874.75 386.721 2872.43 383.944 Q2870.12 381.166 2870.12 375.819 M2880.84 359.499 L2880.84 359.499 Z" fill="#000000" fill-rule="evenodd" fill-opacity="1" /><path clip-path="url(#clip770)" d="M 0 0 M2913.36 372.786 Q2913.36 368.157 2911.44 365.61 Q2909.54 363.064 2906.09 363.064 Q2902.66 363.064 2900.74 365.61 Q2898.84 368.157 2898.84 372.786 Q2898.84 377.393 2900.74 379.939 Q2902.66 382.485 2906.09 382.485 Q2909.54 382.485 2911.44 379.939 Q2913.36 377.393 2913.36 372.786 M2917.62 382.833 Q2917.62 389.453 2914.68 392.67 Q2911.74 395.911 2905.67 395.911 Q2903.43 395.911 2901.44 395.564 Q2899.45 395.24 2897.57 394.545 L2897.57 390.402 Q2899.45 391.42 2901.27 391.907 Q2903.1 392.393 2905 392.393 Q2909.19 392.393 2911.27 390.194 Q2913.36 388.018 2913.36 383.596 L2913.36 381.49 Q2912.04 383.782 2909.98 384.916 Q2907.92 386.05 2905.05 386.05 Q2900.28 386.05 2897.36 382.416 Q2894.45 378.782 2894.45 372.786 Q2894.45 366.768 2897.36 363.134 Q2900.28 359.499 2905.05 359.499 Q2907.92 359.499 2909.98 360.634 Q2912.04 361.768 2913.36 364.06 L2913.36 360.124 L2917.62 360.124 L2917.62 382.833 Z" fill="#000000" fill-rule="evenodd" fill-opacity="1" /><path clip-path="url(#clip770)" d="M 0 0 M2943.64 370.402 L2943.64 386.05 L2939.38 386.05 L2939.38 370.541 Q2939.38 366.86 2937.94 365.032 Q2936.51 363.203 2933.64 363.203 Q2930.19 363.203 2928.2 365.402 Q2926.21 367.601 2926.21 371.397 L2926.21 386.05 L2921.92 386.05 L2921.92 350.032 L2926.21 350.032 L2926.21 364.152 Q2927.73 361.814 2929.79 360.657 Q2931.88 359.499 2934.58 359.499 Q2939.05 359.499 2941.34 362.277 Q2943.64 365.032 2943.64 370.402 Z" fill="#000000" fill-rule="evenodd" fill-opacity="1" /><path clip-path="url(#clip770)" d="M 0 0 M2952.32 352.763 L2952.32 360.124 L2961.09 360.124 L2961.09 363.435 L2952.32 363.435 L2952.32 377.509 Q2952.32 380.68 2953.17 381.583 Q2954.05 382.485 2956.71 382.485 L2961.09 382.485 L2961.09 386.05 L2956.71 386.05 Q2951.78 386.05 2949.91 384.221 Q2948.03 382.37 2948.03 377.509 L2948.03 363.435 L2944.91 363.435 L2944.91 360.124 L2948.03 360.124 L2948.03 352.763 L2952.32 352.763 Z" fill="#000000" fill-rule="evenodd" fill-opacity="1" /><path clip-path="url(#clip770)" d="M 0 0 M2969.58 351.49 L2969.58 364.337 L2965.65 364.337 L2965.65 351.49 L2969.58 351.49 M2978.33 351.49 L2978.33 364.337 L2974.4 364.337 L2974.4 351.49 L2978.33 351.49 Z" fill="#000000" fill-rule="evenodd" fill-opacity="1" /><path clip-path="url(#clip770)" d="M 0 0 M2992.76 350.032 L2992.76 392.3 L2982.94 392.3 L2982.94 388.99 L2988.47 388.99 L2988.47 353.342 L2982.94 353.342 L2982.94 350.032 L2992.76 350.032 Z" fill="#000000" fill-rule="evenodd" fill-opacity="1" /></svg>
