<?xml version="1.0" encoding="utf-8"?>
<svg xmlns="http://www.w3.org/2000/svg" xmlns:xlink="http://www.w3.org/1999/xlink" width="600" height="400" viewBox="0 0 2400 1600">
<defs>
  <clipPath id="clip360">
    <rect x="0" y="0" width="2400" height="1600"/>
  </clipPath>
</defs>
<path clip-path="url(#clip360)" d="
M0 1600 L2400 1600 L2400 0 L0 0  Z
  " fill="#ffffff" fill-rule="evenodd" fill-opacity="1"/>
<defs>
  <clipPath id="clip361">
    <rect x="480" y="0" width="1681" height="1600"/>
  </clipPath>
</defs>
<path clip-path="url(#clip360)" d="
M188.612 1486.45 L2352.76 1486.45 L2352.76 123.472 L188.612 123.472  Z
  " fill="#ffffff" fill-rule="evenodd" fill-opacity="1"/>
<defs>
  <clipPath id="clip362">
    <rect x="188" y="123" width="2165" height="1364"/>
  </clipPath>
</defs>
<polyline clip-path="url(#clip362)" style="stroke:#000000; stroke-width:2; stroke-opacity:0.1; fill:none" points="
  429.706,1486.45 429.706,123.472 
  "/>
<polyline clip-path="url(#clip362)" style="stroke:#000000; stroke-width:2; stroke-opacity:0.1; fill:none" points="
  1175.65,1486.45 1175.65,123.472 
  "/>
<polyline clip-path="url(#clip362)" style="stroke:#000000; stroke-width:2; stroke-opacity:0.1; fill:none" points="
  1921.6,1486.45 1921.6,123.472 
  "/>
<polyline clip-path="url(#clip362)" style="stroke:#000000; stroke-width:2; stroke-opacity:0.1; fill:none" points="
  188.612,1283.98 2352.76,1283.98 
  "/>
<polyline clip-path="url(#clip362)" style="stroke:#000000; stroke-width:2; stroke-opacity:0.1; fill:none" points="
  188.612,1037.53 2352.76,1037.53 
  "/>
<polyline clip-path="url(#clip362)" style="stroke:#000000; stroke-width:2; stroke-opacity:0.1; fill:none" points="
  188.612,791.085 2352.76,791.085 
  "/>
<polyline clip-path="url(#clip362)" style="stroke:#000000; stroke-width:2; stroke-opacity:0.1; fill:none" points="
  188.612,544.635 2352.76,544.635 
  "/>
<polyline clip-path="url(#clip362)" style="stroke:#000000; stroke-width:2; stroke-opacity:0.1; fill:none" points="
  188.612,298.186 2352.76,298.186 
  "/>
<polyline clip-path="url(#clip360)" style="stroke:#000000; stroke-width:4; stroke-opacity:1; fill:none" points="
  188.612,1486.45 2352.76,1486.45 
  "/>
<polyline clip-path="url(#clip360)" style="stroke:#000000; stroke-width:4; stroke-opacity:1; fill:none" points="
  188.612,1486.45 188.612,123.472 
  "/>
<polyline clip-path="url(#clip360)" style="stroke:#000000; stroke-width:4; stroke-opacity:1; fill:none" points="
  429.706,1486.45 429.706,1470.09 
  "/>
<polyline clip-path="url(#clip360)" style="stroke:#000000; stroke-width:4; stroke-opacity:1; fill:none" points="
  1175.65,1486.45 1175.65,1470.09 
  "/>
<polyline clip-path="url(#clip360)" style="stroke:#000000; stroke-width:4; stroke-opacity:1; fill:none" points="
  1921.6,1486.45 1921.6,1470.09 
  "/>
<polyline clip-path="url(#clip360)" style="stroke:#000000; stroke-width:4; stroke-opacity:1; fill:none" points="
  188.612,1283.98 214.582,1283.98 
  "/>
<polyline clip-path="url(#clip360)" style="stroke:#000000; stroke-width:4; stroke-opacity:1; fill:none" points="
  188.612,1037.53 214.582,1037.53 
  "/>
<polyline clip-path="url(#clip360)" style="stroke:#000000; stroke-width:4; stroke-opacity:1; fill:none" points="
  188.612,791.085 214.582,791.085 
  "/>
<polyline clip-path="url(#clip360)" style="stroke:#000000; stroke-width:4; stroke-opacity:1; fill:none" points="
  188.612,544.635 214.582,544.635 
  "/>
<polyline clip-path="url(#clip360)" style="stroke:#000000; stroke-width:4; stroke-opacity:1; fill:none" points="
  188.612,298.186 214.582,298.186 
  "/>
<path clip-path="url(#clip360)" d="M 0 0 M316.906 1535.98 L333.225 1535.98 L333.225 1539.92 L311.281 1539.92 L311.281 1535.98 Q313.943 1533.23 318.526 1528.6 Q323.132 1523.95 324.313 1522.61 Q326.558 1520.08 327.438 1518.35 Q328.341 1516.59 328.341 1514.9 Q328.341 1512.14 326.396 1510.41 Q324.475 1508.67 321.373 1508.67 Q319.174 1508.67 316.72 1509.43 Q314.29 1510.2 311.512 1511.75 L311.512 1507.03 Q314.336 1505.89 316.79 1505.31 Q319.244 1504.73 321.281 1504.73 Q326.651 1504.73 329.845 1507.42 Q333.04 1510.11 333.04 1514.6 Q333.04 1516.73 332.23 1518.65 Q331.443 1520.54 329.336 1523.14 Q328.757 1523.81 325.656 1527.03 Q322.554 1530.22 316.906 1535.98 Z" fill="#000000" fill-rule="evenodd" fill-opacity="1" /><path clip-path="url(#clip360)" d="M 0 0 M348.294 1508.44 Q344.683 1508.44 342.855 1512 Q341.049 1515.55 341.049 1522.67 Q341.049 1529.78 342.855 1533.35 Q344.683 1536.89 348.294 1536.89 Q351.929 1536.89 353.734 1533.35 Q355.563 1529.78 355.563 1522.67 Q355.563 1515.55 353.734 1512 Q351.929 1508.44 348.294 1508.44 M348.294 1504.73 Q354.104 1504.73 357.16 1509.34 Q360.239 1513.92 360.239 1522.67 Q360.239 1531.4 357.16 1536.01 Q354.104 1540.59 348.294 1540.59 Q342.484 1540.59 339.405 1536.01 Q336.35 1531.4 336.35 1522.67 Q336.35 1513.92 339.405 1509.34 Q342.484 1504.73 348.294 1504.73 Z" fill="#000000" fill-rule="evenodd" fill-opacity="1" /><path clip-path="url(#clip360)" d="M 0 0 M366.118 1535.98 L373.757 1535.98 L373.757 1509.62 L365.447 1511.29 L365.447 1507.03 L373.711 1505.36 L378.387 1505.36 L378.387 1535.98 L386.026 1535.98 L386.026 1539.92 L366.118 1539.92 L366.118 1535.98 Z" fill="#000000" fill-rule="evenodd" fill-opacity="1" /><path clip-path="url(#clip360)" d="M 0 0 M401.095 1523.51 Q397.762 1523.51 395.84 1525.29 Q393.942 1527.07 393.942 1530.2 Q393.942 1533.32 395.84 1535.11 Q397.762 1536.89 401.095 1536.89 Q404.428 1536.89 406.35 1535.11 Q408.271 1533.3 408.271 1530.2 Q408.271 1527.07 406.35 1525.29 Q404.451 1523.51 401.095 1523.51 M396.419 1521.52 Q393.41 1520.78 391.72 1518.72 Q390.053 1516.66 390.053 1513.69 Q390.053 1509.55 392.993 1507.14 Q395.956 1504.73 401.095 1504.73 Q406.257 1504.73 409.197 1507.14 Q412.137 1509.55 412.137 1513.69 Q412.137 1516.66 410.447 1518.72 Q408.78 1520.78 405.794 1521.52 Q409.174 1522.3 411.049 1524.6 Q412.947 1526.89 412.947 1530.2 Q412.947 1535.22 409.868 1537.91 Q406.813 1540.59 401.095 1540.59 Q395.377 1540.59 392.299 1537.91 Q389.243 1535.22 389.243 1530.2 Q389.243 1526.89 391.141 1524.6 Q393.039 1522.3 396.419 1521.52 M394.706 1514.13 Q394.706 1516.82 396.373 1518.32 Q398.063 1519.83 401.095 1519.83 Q404.104 1519.83 405.794 1518.32 Q407.507 1516.82 407.507 1514.13 Q407.507 1511.45 405.794 1509.94 Q404.104 1508.44 401.095 1508.44 Q398.063 1508.44 396.373 1509.94 Q394.706 1511.45 394.706 1514.13 Z" fill="#000000" fill-rule="evenodd" fill-opacity="1" /><path clip-path="url(#clip360)" d="M 0 0 M415.262 1525.04 L427.738 1525.04 L427.738 1528.83 L415.262 1528.83 L415.262 1525.04 Z" fill="#000000" fill-rule="evenodd" fill-opacity="1" /><path clip-path="url(#clip360)" d="M 0 0 M442.808 1508.44 Q439.197 1508.44 437.368 1512 Q435.562 1515.55 435.562 1522.67 Q435.562 1529.78 437.368 1533.35 Q439.197 1536.89 442.808 1536.89 Q446.442 1536.89 448.248 1533.35 Q450.076 1529.78 450.076 1522.67 Q450.076 1515.55 448.248 1512 Q446.442 1508.44 442.808 1508.44 M442.808 1504.73 Q448.618 1504.73 451.673 1509.34 Q454.752 1513.92 454.752 1522.67 Q454.752 1531.4 451.673 1536.01 Q448.618 1540.59 442.808 1540.59 Q436.998 1540.59 433.919 1536.01 Q430.863 1531.4 430.863 1522.67 Q430.863 1513.92 433.919 1509.34 Q436.998 1504.73 442.808 1504.73 Z" fill="#000000" fill-rule="evenodd" fill-opacity="1" /><path clip-path="url(#clip360)" d="M 0 0 M460.632 1535.98 L468.271 1535.98 L468.271 1509.62 L459.96 1511.29 L459.96 1507.03 L468.224 1505.36 L472.9 1505.36 L472.9 1535.98 L480.539 1535.98 L480.539 1539.92 L460.632 1539.92 L460.632 1535.98 Z" fill="#000000" fill-rule="evenodd" fill-opacity="1" /><path clip-path="url(#clip360)" d="M 0 0 M482.854 1525.04 L495.331 1525.04 L495.331 1528.83 L482.854 1528.83 L482.854 1525.04 Z" fill="#000000" fill-rule="evenodd" fill-opacity="1" /><path clip-path="url(#clip360)" d="M 0 0 M510.4 1508.44 Q506.789 1508.44 504.96 1512 Q503.155 1515.55 503.155 1522.67 Q503.155 1529.78 504.96 1533.35 Q506.789 1536.89 510.4 1536.89 Q514.034 1536.89 515.84 1533.35 Q517.668 1529.78 517.668 1522.67 Q517.668 1515.55 515.84 1512 Q514.034 1508.44 510.4 1508.44 M510.4 1504.73 Q516.21 1504.73 519.266 1509.34 Q522.344 1513.92 522.344 1522.67 Q522.344 1531.4 519.266 1536.01 Q516.21 1540.59 510.4 1540.59 Q504.59 1540.59 501.511 1536.01 Q498.456 1531.4 498.456 1522.67 Q498.456 1513.92 501.511 1509.34 Q504.59 1504.73 510.4 1504.73 Z" fill="#000000" fill-rule="evenodd" fill-opacity="1" /><path clip-path="url(#clip360)" d="M 0 0 M528.224 1535.98 L535.863 1535.98 L535.863 1509.62 L527.553 1511.29 L527.553 1507.03 L535.816 1505.36 L540.492 1505.36 L540.492 1535.98 L548.131 1535.98 L548.131 1539.92 L528.224 1539.92 L528.224 1535.98 Z" fill="#000000" fill-rule="evenodd" fill-opacity="1" /><path clip-path="url(#clip360)" d="M 0 0 M1062.9 1535.98 L1079.22 1535.98 L1079.22 1539.92 L1057.27 1539.92 L1057.27 1535.98 Q1059.94 1533.23 1064.52 1528.6 Q1069.13 1523.95 1070.31 1522.61 Q1072.55 1520.08 1073.43 1518.35 Q1074.33 1516.59 1074.33 1514.9 Q1074.33 1512.14 1072.39 1510.41 Q1070.47 1508.67 1067.37 1508.67 Q1065.17 1508.67 1062.71 1509.43 Q1060.28 1510.2 1057.5 1511.75 L1057.5 1507.03 Q1060.33 1505.89 1062.78 1505.31 Q1065.24 1504.73 1067.27 1504.73 Q1072.64 1504.73 1075.84 1507.42 Q1079.03 1510.11 1079.03 1514.6 Q1079.03 1516.73 1078.22 1518.65 Q1077.44 1520.54 1075.33 1523.14 Q1074.75 1523.81 1071.65 1527.03 Q1068.55 1530.22 1062.9 1535.98 Z" fill="#000000" fill-rule="evenodd" fill-opacity="1" /><path clip-path="url(#clip360)" d="M 0 0 M1094.29 1508.44 Q1090.68 1508.44 1088.85 1512 Q1087.04 1515.55 1087.04 1522.67 Q1087.04 1529.78 1088.85 1533.35 Q1090.68 1536.89 1094.29 1536.89 Q1097.92 1536.89 1099.73 1533.35 Q1101.56 1529.78 1101.56 1522.67 Q1101.56 1515.55 1099.73 1512 Q1097.92 1508.44 1094.29 1508.44 M1094.29 1504.73 Q1100.1 1504.73 1103.15 1509.34 Q1106.23 1513.92 1106.23 1522.67 Q1106.23 1531.4 1103.15 1536.01 Q1100.1 1540.59 1094.29 1540.59 Q1088.48 1540.59 1085.4 1536.01 Q1082.34 1531.4 1082.34 1522.67 Q1082.34 1513.92 1085.4 1509.34 Q1088.48 1504.73 1094.29 1504.73 Z" fill="#000000" fill-rule="evenodd" fill-opacity="1" /><path clip-path="url(#clip360)" d="M 0 0 M1112.11 1535.98 L1119.75 1535.98 L1119.75 1509.62 L1111.44 1511.29 L1111.44 1507.03 L1119.7 1505.36 L1124.38 1505.36 L1124.38 1535.98 L1132.02 1535.98 L1132.02 1539.92 L1112.11 1539.92 L1112.11 1535.98 Z" fill="#000000" fill-rule="evenodd" fill-opacity="1" /><path clip-path="url(#clip360)" d="M 0 0 M1137.23 1539.2 L1137.23 1534.94 Q1138.99 1535.78 1140.79 1536.22 Q1142.6 1536.66 1144.33 1536.66 Q1148.96 1536.66 1151.39 1533.55 Q1153.85 1530.43 1154.19 1524.09 Q1152.85 1526.08 1150.79 1527.14 Q1148.73 1528.21 1146.23 1528.21 Q1141.05 1528.21 1138.01 1525.08 Q1135 1521.93 1135 1516.49 Q1135 1511.17 1138.15 1507.95 Q1141.3 1504.73 1146.53 1504.73 Q1152.53 1504.73 1155.68 1509.34 Q1158.85 1513.92 1158.85 1522.67 Q1158.85 1530.85 1154.96 1535.73 Q1151.09 1540.59 1144.54 1540.59 Q1142.78 1540.59 1140.98 1540.24 Q1139.17 1539.9 1137.23 1539.2 M1146.53 1524.55 Q1149.68 1524.55 1151.51 1522.4 Q1153.36 1520.24 1153.36 1516.49 Q1153.36 1512.77 1151.51 1510.61 Q1149.68 1508.44 1146.53 1508.44 Q1143.38 1508.44 1141.53 1510.61 Q1139.7 1512.77 1139.7 1516.49 Q1139.7 1520.24 1141.53 1522.4 Q1143.38 1524.55 1146.53 1524.55 Z" fill="#000000" fill-rule="evenodd" fill-opacity="1" /><path clip-path="url(#clip360)" d="M 0 0 M1161.16 1525.04 L1173.64 1525.04 L1173.64 1528.83 L1161.16 1528.83 L1161.16 1525.04 Z" fill="#000000" fill-rule="evenodd" fill-opacity="1" /><path clip-path="url(#clip360)" d="M 0 0 M1188.71 1508.44 Q1185.1 1508.44 1183.27 1512 Q1181.46 1515.55 1181.46 1522.67 Q1181.46 1529.78 1183.27 1533.35 Q1185.1 1536.89 1188.71 1536.89 Q1192.34 1536.89 1194.15 1533.35 Q1195.98 1529.78 1195.98 1522.67 Q1195.98 1515.55 1194.15 1512 Q1192.34 1508.44 1188.71 1508.44 M1188.71 1504.73 Q1194.52 1504.73 1197.57 1509.34 Q1200.65 1513.92 1200.65 1522.67 Q1200.65 1531.4 1197.57 1536.01 Q1194.52 1540.59 1188.71 1540.59 Q1182.9 1540.59 1179.82 1536.01 Q1176.76 1531.4 1176.76 1522.67 Q1176.76 1513.92 1179.82 1509.34 Q1182.9 1504.73 1188.71 1504.73 Z" fill="#000000" fill-rule="evenodd" fill-opacity="1" /><path clip-path="url(#clip360)" d="M 0 0 M1206.53 1535.98 L1214.17 1535.98 L1214.17 1509.62 L1205.86 1511.29 L1205.86 1507.03 L1214.12 1505.36 L1218.8 1505.36 L1218.8 1535.98 L1226.44 1535.98 L1226.44 1539.92 L1206.53 1539.92 L1206.53 1535.98 Z" fill="#000000" fill-rule="evenodd" fill-opacity="1" /><path clip-path="url(#clip360)" d="M 0 0 M1228.75 1525.04 L1241.23 1525.04 L1241.23 1528.83 L1228.75 1528.83 L1228.75 1525.04 Z" fill="#000000" fill-rule="evenodd" fill-opacity="1" /><path clip-path="url(#clip360)" d="M 0 0 M1256.3 1508.44 Q1252.69 1508.44 1250.86 1512 Q1249.05 1515.55 1249.05 1522.67 Q1249.05 1529.78 1250.86 1533.35 Q1252.69 1536.89 1256.3 1536.89 Q1259.93 1536.89 1261.74 1533.35 Q1263.57 1529.78 1263.57 1522.67 Q1263.57 1515.55 1261.74 1512 Q1259.93 1508.44 1256.3 1508.44 M1256.3 1504.73 Q1262.11 1504.73 1265.17 1509.34 Q1268.24 1513.92 1268.24 1522.67 Q1268.24 1531.4 1265.17 1536.01 Q1262.11 1540.59 1256.3 1540.59 Q1250.49 1540.59 1247.41 1536.01 Q1244.36 1531.4 1244.36 1522.67 Q1244.36 1513.92 1247.41 1509.34 Q1250.49 1504.73 1256.3 1504.73 Z" fill="#000000" fill-rule="evenodd" fill-opacity="1" /><path clip-path="url(#clip360)" d="M 0 0 M1274.12 1535.98 L1281.76 1535.98 L1281.76 1509.62 L1273.45 1511.29 L1273.45 1507.03 L1281.72 1505.36 L1286.39 1505.36 L1286.39 1535.98 L1294.03 1535.98 L1294.03 1539.92 L1274.12 1539.92 L1274.12 1535.98 Z" fill="#000000" fill-rule="evenodd" fill-opacity="1" /><path clip-path="url(#clip360)" d="M 0 0 M1808.94 1535.98 L1825.26 1535.98 L1825.26 1539.92 L1803.31 1539.92 L1803.31 1535.98 Q1805.97 1533.23 1810.56 1528.6 Q1815.16 1523.95 1816.34 1522.61 Q1818.59 1520.08 1819.47 1518.35 Q1820.37 1516.59 1820.37 1514.9 Q1820.37 1512.14 1818.43 1510.41 Q1816.51 1508.67 1813.4 1508.67 Q1811.21 1508.67 1808.75 1509.43 Q1806.32 1510.2 1803.54 1511.75 L1803.54 1507.03 Q1806.37 1505.89 1808.82 1505.31 Q1811.28 1504.73 1813.31 1504.73 Q1818.68 1504.73 1821.88 1507.42 Q1825.07 1510.11 1825.07 1514.6 Q1825.07 1516.73 1824.26 1518.65 Q1823.47 1520.54 1821.37 1523.14 Q1820.79 1523.81 1817.69 1527.03 Q1814.59 1530.22 1808.94 1535.98 Z" fill="#000000" fill-rule="evenodd" fill-opacity="1" /><path clip-path="url(#clip360)" d="M 0 0 M1840.33 1508.44 Q1836.72 1508.44 1834.89 1512 Q1833.08 1515.55 1833.08 1522.67 Q1833.08 1529.78 1834.89 1533.35 Q1836.72 1536.89 1840.33 1536.89 Q1843.96 1536.89 1845.77 1533.35 Q1847.59 1529.78 1847.59 1522.67 Q1847.59 1515.55 1845.77 1512 Q1843.96 1508.44 1840.33 1508.44 M1840.33 1504.73 Q1846.14 1504.73 1849.19 1509.34 Q1852.27 1513.92 1852.27 1522.67 Q1852.27 1531.4 1849.19 1536.01 Q1846.14 1540.59 1840.33 1540.59 Q1834.52 1540.59 1831.44 1536.01 Q1828.38 1531.4 1828.38 1522.67 Q1828.38 1513.92 1831.44 1509.34 Q1834.52 1504.73 1840.33 1504.73 Z" fill="#000000" fill-rule="evenodd" fill-opacity="1" /><path clip-path="url(#clip360)" d="M 0 0 M1861.37 1535.98 L1877.69 1535.98 L1877.69 1539.92 L1855.74 1539.92 L1855.74 1535.98 Q1858.4 1533.23 1862.99 1528.6 Q1867.59 1523.95 1868.78 1522.61 Q1871.02 1520.08 1871.9 1518.35 Q1872.8 1516.59 1872.8 1514.9 Q1872.8 1512.14 1870.86 1510.41 Q1868.94 1508.67 1865.84 1508.67 Q1863.64 1508.67 1861.18 1509.43 Q1858.75 1510.2 1855.97 1511.75 L1855.97 1507.03 Q1858.8 1505.89 1861.25 1505.31 Q1863.71 1504.73 1865.74 1504.73 Q1871.11 1504.73 1874.31 1507.42 Q1877.5 1510.11 1877.5 1514.6 Q1877.5 1516.73 1876.69 1518.65 Q1875.9 1520.54 1873.8 1523.14 Q1873.22 1523.81 1870.12 1527.03 Q1867.02 1530.22 1861.37 1535.98 Z" fill="#000000" fill-rule="evenodd" fill-opacity="1" /><path clip-path="url(#clip360)" d="M 0 0 M1892.76 1508.44 Q1889.15 1508.44 1887.32 1512 Q1885.51 1515.55 1885.51 1522.67 Q1885.51 1529.78 1887.32 1533.35 Q1889.15 1536.89 1892.76 1536.89 Q1896.39 1536.89 1898.2 1533.35 Q1900.02 1529.78 1900.02 1522.67 Q1900.02 1515.55 1898.2 1512 Q1896.39 1508.44 1892.76 1508.44 M1892.76 1504.73 Q1898.57 1504.73 1901.62 1509.34 Q1904.7 1513.92 1904.7 1522.67 Q1904.7 1531.4 1901.62 1536.01 Q1898.57 1540.59 1892.76 1540.59 Q1886.95 1540.59 1883.87 1536.01 Q1880.81 1531.4 1880.81 1522.67 Q1880.81 1513.92 1883.87 1509.34 Q1886.95 1504.73 1892.76 1504.73 Z" fill="#000000" fill-rule="evenodd" fill-opacity="1" /><path clip-path="url(#clip360)" d="M 0 0 M1907.02 1525.04 L1919.49 1525.04 L1919.49 1528.83 L1907.02 1528.83 L1907.02 1525.04 Z" fill="#000000" fill-rule="evenodd" fill-opacity="1" /><path clip-path="url(#clip360)" d="M 0 0 M1934.56 1508.44 Q1930.95 1508.44 1929.12 1512 Q1927.32 1515.55 1927.32 1522.67 Q1927.32 1529.78 1929.12 1533.35 Q1930.95 1536.89 1934.56 1536.89 Q1938.2 1536.89 1940 1533.35 Q1941.83 1529.78 1941.83 1522.67 Q1941.83 1515.55 1940 1512 Q1938.2 1508.44 1934.56 1508.44 M1934.56 1504.73 Q1940.37 1504.73 1943.43 1509.34 Q1946.51 1513.92 1946.51 1522.67 Q1946.51 1531.4 1943.43 1536.01 Q1940.37 1540.59 1934.56 1540.59 Q1928.75 1540.59 1925.67 1536.01 Q1922.62 1531.4 1922.62 1522.67 Q1922.62 1513.92 1925.67 1509.34 Q1928.75 1504.73 1934.56 1504.73 Z" fill="#000000" fill-rule="evenodd" fill-opacity="1" /><path clip-path="url(#clip360)" d="M 0 0 M1952.39 1535.98 L1960.02 1535.98 L1960.02 1509.62 L1951.71 1511.29 L1951.71 1507.03 L1959.98 1505.36 L1964.65 1505.36 L1964.65 1535.98 L1972.29 1535.98 L1972.29 1539.92 L1952.39 1539.92 L1952.39 1535.98 Z" fill="#000000" fill-rule="evenodd" fill-opacity="1" /><path clip-path="url(#clip360)" d="M 0 0 M1974.61 1525.04 L1987.08 1525.04 L1987.08 1528.83 L1974.61 1528.83 L1974.61 1525.04 Z" fill="#000000" fill-rule="evenodd" fill-opacity="1" /><path clip-path="url(#clip360)" d="M 0 0 M2002.15 1508.44 Q1998.54 1508.44 1996.71 1512 Q1994.91 1515.55 1994.91 1522.67 Q1994.91 1529.78 1996.71 1533.35 Q1998.54 1536.89 2002.15 1536.89 Q2005.79 1536.89 2007.59 1533.35 Q2009.42 1529.78 2009.42 1522.67 Q2009.42 1515.55 2007.59 1512 Q2005.79 1508.44 2002.15 1508.44 M2002.15 1504.73 Q2007.96 1504.73 2011.02 1509.34 Q2014.1 1513.92 2014.1 1522.67 Q2014.1 1531.4 2011.02 1536.01 Q2007.96 1540.59 2002.15 1540.59 Q1996.34 1540.59 1993.27 1536.01 Q1990.21 1531.4 1990.21 1522.67 Q1990.21 1513.92 1993.27 1509.34 Q1996.34 1504.73 2002.15 1504.73 Z" fill="#000000" fill-rule="evenodd" fill-opacity="1" /><path clip-path="url(#clip360)" d="M 0 0 M2019.98 1535.98 L2027.62 1535.98 L2027.62 1509.62 L2019.31 1511.29 L2019.31 1507.03 L2027.57 1505.36 L2032.25 1505.36 L2032.25 1535.98 L2039.89 1535.98 L2039.89 1539.92 L2019.98 1539.92 L2019.98 1535.98 Z" fill="#000000" fill-rule="evenodd" fill-opacity="1" /><path clip-path="url(#clip360)" d="M 0 0 M95.2605 1297.33 L111.58 1297.33 L111.58 1301.26 L89.6355 1301.26 L89.6355 1297.33 Q92.2975 1294.57 96.8808 1289.94 Q101.487 1285.29 102.668 1283.95 Q104.913 1281.43 105.793 1279.69 Q106.696 1277.93 106.696 1276.24 Q106.696 1273.49 104.751 1271.75 Q102.83 1270.01 99.728 1270.01 Q97.529 1270.01 95.0753 1270.78 Q92.6447 1271.54 89.867 1273.09 L89.867 1268.37 Q92.691 1267.24 95.1447 1266.66 Q97.5984 1266.08 99.6354 1266.08 Q105.006 1266.08 108.2 1268.76 Q111.395 1271.45 111.395 1275.94 Q111.395 1278.07 110.584 1279.99 Q109.797 1281.89 107.691 1284.48 Q107.112 1285.15 104.01 1288.37 Q100.909 1291.57 95.2605 1297.33 Z" fill="#000000" fill-rule="evenodd" fill-opacity="1" /><path clip-path="url(#clip360)" d="M 0 0 M116.696 1266.7 L135.052 1266.7 L135.052 1270.64 L120.978 1270.64 L120.978 1279.11 Q121.996 1278.76 123.015 1278.6 Q124.033 1278.42 125.052 1278.42 Q130.839 1278.42 134.219 1281.59 Q137.598 1284.76 137.598 1290.18 Q137.598 1295.75 134.126 1298.86 Q130.654 1301.94 124.334 1301.94 Q122.158 1301.94 119.89 1301.57 Q117.645 1301.19 115.237 1300.45 L115.237 1295.75 Q117.321 1296.89 119.543 1297.44 Q121.765 1298 124.242 1298 Q128.246 1298 130.584 1295.89 Q132.922 1293.79 132.922 1290.18 Q132.922 1286.57 130.584 1284.46 Q128.246 1282.35 124.242 1282.35 Q122.367 1282.35 120.492 1282.77 Q118.64 1283.19 116.696 1284.07 L116.696 1266.7 Z" fill="#000000" fill-rule="evenodd" fill-opacity="1" /><path clip-path="url(#clip360)" d="M 0 0 M152.668 1269.78 Q149.056 1269.78 147.228 1273.35 Q145.422 1276.89 145.422 1284.02 Q145.422 1291.13 147.228 1294.69 Q149.056 1298.23 152.668 1298.23 Q156.302 1298.23 158.107 1294.69 Q159.936 1291.13 159.936 1284.02 Q159.936 1276.89 158.107 1273.35 Q156.302 1269.78 152.668 1269.78 M152.668 1266.08 Q158.478 1266.08 161.533 1270.69 Q164.612 1275.27 164.612 1284.02 Q164.612 1292.75 161.533 1297.35 Q158.478 1301.94 152.668 1301.94 Q146.857 1301.94 143.779 1297.35 Q140.723 1292.75 140.723 1284.02 Q140.723 1275.27 143.779 1270.69 Q146.857 1266.08 152.668 1266.08 Z" fill="#000000" fill-rule="evenodd" fill-opacity="1" /><path clip-path="url(#clip360)" d="M 0 0 M89.6818 1020.25 L108.038 1020.25 L108.038 1024.19 L93.9642 1024.19 L93.9642 1032.66 Q94.9827 1032.31 96.0012 1032.15 Q97.0197 1031.97 98.0382 1031.97 Q103.825 1031.97 107.205 1035.14 Q110.584 1038.31 110.584 1043.73 Q110.584 1049.31 107.112 1052.41 Q103.64 1055.49 97.3206 1055.49 Q95.1447 1055.49 92.8762 1055.12 Q90.6309 1054.75 88.2235 1054 L88.2235 1049.31 Q90.3068 1050.44 92.529 1051 Q94.7512 1051.55 97.2281 1051.55 Q101.233 1051.55 103.571 1049.44 Q105.909 1047.34 105.909 1043.73 Q105.909 1040.12 103.571 1038.01 Q101.233 1035.9 97.2281 1035.9 Q95.3531 1035.9 93.4781 1036.32 Q91.6262 1036.74 89.6818 1037.62 L89.6818 1020.25 Z" fill="#000000" fill-rule="evenodd" fill-opacity="1" /><path clip-path="url(#clip360)" d="M 0 0 M125.654 1023.33 Q122.043 1023.33 120.214 1026.9 Q118.408 1030.44 118.408 1037.57 Q118.408 1044.68 120.214 1048.24 Q122.043 1051.78 125.654 1051.78 Q129.288 1051.78 131.094 1048.24 Q132.922 1044.68 132.922 1037.57 Q132.922 1030.44 131.094 1026.9 Q129.288 1023.33 125.654 1023.33 M125.654 1019.63 Q131.464 1019.63 134.52 1024.24 Q137.598 1028.82 137.598 1037.57 Q137.598 1046.3 134.52 1050.9 Q131.464 1055.49 125.654 1055.49 Q119.844 1055.49 116.765 1050.9 Q113.709 1046.3 113.709 1037.57 Q113.709 1028.82 116.765 1024.24 Q119.844 1019.63 125.654 1019.63 Z" fill="#000000" fill-rule="evenodd" fill-opacity="1" /><path clip-path="url(#clip360)" d="M 0 0 M152.668 1023.33 Q149.056 1023.33 147.228 1026.9 Q145.422 1030.44 145.422 1037.57 Q145.422 1044.68 147.228 1048.24 Q149.056 1051.78 152.668 1051.78 Q156.302 1051.78 158.107 1048.24 Q159.936 1044.68 159.936 1037.57 Q159.936 1030.44 158.107 1026.9 Q156.302 1023.33 152.668 1023.33 M152.668 1019.63 Q158.478 1019.63 161.533 1024.24 Q164.612 1028.82 164.612 1037.57 Q164.612 1046.3 161.533 1050.9 Q158.478 1055.49 152.668 1055.49 Q146.857 1055.49 143.779 1050.9 Q140.723 1046.3 140.723 1037.57 Q140.723 1028.82 143.779 1024.24 Q146.857 1019.63 152.668 1019.63 Z" fill="#000000" fill-rule="evenodd" fill-opacity="1" /><path clip-path="url(#clip360)" d="M 0 0 M89.3577 773.805 L111.58 773.805 L111.58 775.796 L99.0336 808.365 L94.1494 808.365 L105.955 777.74 L89.3577 777.74 L89.3577 773.805 Z" fill="#000000" fill-rule="evenodd" fill-opacity="1" /><path clip-path="url(#clip360)" d="M 0 0 M116.696 773.805 L135.052 773.805 L135.052 777.74 L120.978 777.74 L120.978 786.212 Q121.996 785.865 123.015 785.703 Q124.033 785.518 125.052 785.518 Q130.839 785.518 134.219 788.689 Q137.598 791.86 137.598 797.277 Q137.598 802.856 134.126 805.957 Q130.654 809.036 124.334 809.036 Q122.158 809.036 119.89 808.666 Q117.645 808.295 115.237 807.555 L115.237 802.856 Q117.321 803.99 119.543 804.545 Q121.765 805.101 124.242 805.101 Q128.246 805.101 130.584 802.995 Q132.922 800.888 132.922 797.277 Q132.922 793.666 130.584 791.559 Q128.246 789.453 124.242 789.453 Q122.367 789.453 120.492 789.87 Q118.64 790.286 116.696 791.166 L116.696 773.805 Z" fill="#000000" fill-rule="evenodd" fill-opacity="1" /><path clip-path="url(#clip360)" d="M 0 0 M152.668 776.884 Q149.056 776.884 147.228 780.448 Q145.422 783.99 145.422 791.12 Q145.422 798.226 147.228 801.791 Q149.056 805.332 152.668 805.332 Q156.302 805.332 158.107 801.791 Q159.936 798.226 159.936 791.12 Q159.936 783.99 158.107 780.448 Q156.302 776.884 152.668 776.884 M152.668 773.18 Q158.478 773.18 161.533 777.786 Q164.612 782.37 164.612 791.12 Q164.612 799.846 161.533 804.453 Q158.478 809.036 152.668 809.036 Q146.857 809.036 143.779 804.453 Q140.723 799.846 140.723 791.12 Q140.723 782.37 143.779 777.786 Q146.857 773.18 152.668 773.18 Z" fill="#000000" fill-rule="evenodd" fill-opacity="1" /><path clip-path="url(#clip360)" d="M 0 0 M63.6634 557.98 L71.3023 557.98 L71.3023 531.615 L62.9921 533.281 L62.9921 529.022 L71.256 527.355 L75.9319 527.355 L75.9319 557.98 L83.5707 557.98 L83.5707 561.915 L63.6634 561.915 L63.6634 557.98 Z" fill="#000000" fill-rule="evenodd" fill-opacity="1" /><path clip-path="url(#clip360)" d="M 0 0 M98.6401 530.434 Q95.029 530.434 93.2003 533.999 Q91.3948 537.54 91.3948 544.67 Q91.3948 551.776 93.2003 555.341 Q95.029 558.883 98.6401 558.883 Q102.274 558.883 104.08 555.341 Q105.909 551.776 105.909 544.67 Q105.909 537.54 104.08 533.999 Q102.274 530.434 98.6401 530.434 M98.6401 526.73 Q104.45 526.73 107.506 531.337 Q110.584 535.92 110.584 544.67 Q110.584 553.397 107.506 558.003 Q104.45 562.587 98.6401 562.587 Q92.8299 562.587 89.7512 558.003 Q86.6957 553.397 86.6957 544.67 Q86.6957 535.92 89.7512 531.337 Q92.8299 526.73 98.6401 526.73 Z" fill="#000000" fill-rule="evenodd" fill-opacity="1" /><path clip-path="url(#clip360)" d="M 0 0 M125.654 530.434 Q122.043 530.434 120.214 533.999 Q118.408 537.54 118.408 544.67 Q118.408 551.776 120.214 555.341 Q122.043 558.883 125.654 558.883 Q129.288 558.883 131.094 555.341 Q132.922 551.776 132.922 544.67 Q132.922 537.54 131.094 533.999 Q129.288 530.434 125.654 530.434 M125.654 526.73 Q131.464 526.73 134.52 531.337 Q137.598 535.92 137.598 544.67 Q137.598 553.397 134.52 558.003 Q131.464 562.587 125.654 562.587 Q119.844 562.587 116.765 558.003 Q113.709 553.397 113.709 544.67 Q113.709 535.92 116.765 531.337 Q119.844 526.73 125.654 526.73 Z" fill="#000000" fill-rule="evenodd" fill-opacity="1" /><path clip-path="url(#clip360)" d="M 0 0 M152.668 530.434 Q149.056 530.434 147.228 533.999 Q145.422 537.54 145.422 544.67 Q145.422 551.776 147.228 555.341 Q149.056 558.883 152.668 558.883 Q156.302 558.883 158.107 555.341 Q159.936 551.776 159.936 544.67 Q159.936 537.54 158.107 533.999 Q156.302 530.434 152.668 530.434 M152.668 526.73 Q158.478 526.73 161.533 531.337 Q164.612 535.92 164.612 544.67 Q164.612 553.397 161.533 558.003 Q158.478 562.587 152.668 562.587 Q146.857 562.587 143.779 558.003 Q140.723 553.397 140.723 544.67 Q140.723 535.92 143.779 531.337 Q146.857 526.73 152.668 526.73 Z" fill="#000000" fill-rule="evenodd" fill-opacity="1" /><path clip-path="url(#clip360)" d="M 0 0 M66.256 311.531 L73.8948 311.531 L73.8948 285.165 L65.5847 286.832 L65.5847 282.572 L73.8485 280.906 L78.5245 280.906 L78.5245 311.531 L86.1633 311.531 L86.1633 315.466 L66.256 315.466 L66.256 311.531 Z" fill="#000000" fill-rule="evenodd" fill-opacity="1" /><path clip-path="url(#clip360)" d="M 0 0 M95.2605 311.531 L111.58 311.531 L111.58 315.466 L89.6355 315.466 L89.6355 311.531 Q92.2975 308.776 96.8808 304.146 Q101.487 299.494 102.668 298.151 Q104.913 295.628 105.793 293.892 Q106.696 292.132 106.696 290.443 Q106.696 287.688 104.751 285.952 Q102.83 284.216 99.728 284.216 Q97.529 284.216 95.0753 284.98 Q92.6447 285.744 89.867 287.295 L89.867 282.572 Q92.691 281.438 95.1447 280.859 Q97.5984 280.281 99.6354 280.281 Q105.006 280.281 108.2 282.966 Q111.395 285.651 111.395 290.142 Q111.395 292.271 110.584 294.193 Q109.797 296.091 107.691 298.683 Q107.112 299.355 104.01 302.572 Q100.909 305.767 95.2605 311.531 Z" fill="#000000" fill-rule="evenodd" fill-opacity="1" /><path clip-path="url(#clip360)" d="M 0 0 M116.696 280.906 L135.052 280.906 L135.052 284.841 L120.978 284.841 L120.978 293.313 Q121.996 292.966 123.015 292.804 Q124.033 292.619 125.052 292.619 Q130.839 292.619 134.219 295.79 Q137.598 298.961 137.598 304.378 Q137.598 309.956 134.126 313.058 Q130.654 316.137 124.334 316.137 Q122.158 316.137 119.89 315.767 Q117.645 315.396 115.237 314.655 L115.237 309.956 Q117.321 311.091 119.543 311.646 Q121.765 312.202 124.242 312.202 Q128.246 312.202 130.584 310.095 Q132.922 307.989 132.922 304.378 Q132.922 300.767 130.584 298.66 Q128.246 296.554 124.242 296.554 Q122.367 296.554 120.492 296.97 Q118.64 297.387 116.696 298.267 L116.696 280.906 Z" fill="#000000" fill-rule="evenodd" fill-opacity="1" /><path clip-path="url(#clip360)" d="M 0 0 M152.668 283.984 Q149.056 283.984 147.228 287.549 Q145.422 291.091 145.422 298.22 Q145.422 305.327 147.228 308.892 Q149.056 312.433 152.668 312.433 Q156.302 312.433 158.107 308.892 Q159.936 305.327 159.936 298.22 Q159.936 291.091 158.107 287.549 Q156.302 283.984 152.668 283.984 M152.668 280.281 Q158.478 280.281 161.533 284.887 Q164.612 289.47 164.612 298.22 Q164.612 306.947 161.533 311.554 Q158.478 316.137 152.668 316.137 Q146.857 316.137 143.779 311.554 Q140.723 306.947 140.723 298.22 Q140.723 289.47 143.779 284.887 Q146.857 280.281 152.668 280.281 Z" fill="#000000" fill-rule="evenodd" fill-opacity="1" /><path clip-path="url(#clip360)" d="M 0 0 M1090.99 12.096 L1129.23 12.096 L1129.23 18.9825 L1099.17 18.9825 L1099.17 36.8875 L1127.97 36.8875 L1127.97 43.7741 L1099.17 43.7741 L1099.17 65.6895 L1129.96 65.6895 L1129.96 72.576 L1090.99 72.576 L1090.99 12.096 Z" fill="#000000" fill-rule="evenodd" fill-opacity="1" /><path clip-path="url(#clip360)" d="M 0 0 M1145.15 14.324 L1145.15 27.2059 L1160.5 27.2059 L1160.5 32.9987 L1145.15 32.9987 L1145.15 57.6282 Q1145.15 63.1779 1146.65 64.7578 Q1148.18 66.3376 1152.84 66.3376 L1160.5 66.3376 L1160.5 72.576 L1152.84 72.576 Q1144.21 72.576 1140.93 69.3758 Q1137.65 66.1351 1137.65 57.6282 L1137.65 32.9987 L1132.18 32.9987 L1132.18 27.2059 L1137.65 27.2059 L1137.65 14.324 L1145.15 14.324 Z" fill="#000000" fill-rule="evenodd" fill-opacity="1" /><path clip-path="url(#clip360)" d="M 0 0 M1206.03 45.1919 L1206.03 72.576 L1198.58 72.576 L1198.58 45.4349 Q1198.58 38.994 1196.07 35.7938 Q1193.55 32.5936 1188.53 32.5936 Q1182.5 32.5936 1179.01 36.4419 Q1175.53 40.2903 1175.53 46.9338 L1175.53 72.576 L1168.03 72.576 L1168.03 9.54393 L1175.53 9.54393 L1175.53 34.2544 Q1178.2 30.163 1181.81 28.1376 Q1185.45 26.1121 1190.19 26.1121 Q1198.01 26.1121 1202.02 30.9732 Q1206.03 35.7938 1206.03 45.1919 Z" fill="#000000" fill-rule="evenodd" fill-opacity="1" /><path clip-path="url(#clip360)" d="M 0 0 M1252.66 48.0275 L1252.66 51.6733 L1218.39 51.6733 Q1218.87 59.3701 1223 63.421 Q1227.18 67.4314 1234.59 67.4314 Q1238.88 67.4314 1242.89 66.3781 Q1246.95 65.3249 1250.92 63.2184 L1250.92 70.267 Q1246.91 71.9684 1242.69 72.8596 Q1238.48 73.7508 1234.14 73.7508 Q1223.29 73.7508 1216.93 67.4314 Q1210.61 61.1119 1210.61 50.3365 Q1210.61 39.1965 1216.6 32.6746 Q1222.64 26.1121 1232.85 26.1121 Q1242 26.1121 1247.31 32.0264 Q1252.66 37.9003 1252.66 48.0275 M1245.2 45.84 Q1245.12 39.7232 1241.76 36.0774 Q1238.44 32.4315 1232.93 32.4315 Q1226.69 32.4315 1222.92 35.9558 Q1219.2 39.4801 1218.63 45.8805 L1245.2 45.84 Z" fill="#000000" fill-rule="evenodd" fill-opacity="1" /><path clip-path="url(#clip360)" d="M 0 0 M1286.77 34.1734 Q1285.51 33.4443 1284.01 33.1202 Q1282.55 32.7556 1280.77 32.7556 Q1274.45 32.7556 1271.05 36.8875 Q1267.69 40.9789 1267.69 48.6757 L1267.69 72.576 L1260.19 72.576 L1260.19 27.2059 L1267.69 27.2059 L1267.69 34.2544 Q1270.04 30.1225 1273.8 28.1376 Q1277.57 26.1121 1282.96 26.1121 Q1283.73 26.1121 1284.66 26.2337 Q1285.59 26.3147 1286.73 26.5172 L1286.77 34.1734 Z" fill="#000000" fill-rule="evenodd" fill-opacity="1" /><path clip-path="url(#clip360)" d="M 0 0 M1331.57 48.0275 L1331.57 51.6733 L1297.3 51.6733 Q1297.78 59.3701 1301.92 63.421 Q1306.09 67.4314 1313.5 67.4314 Q1317.8 67.4314 1321.81 66.3781 Q1325.86 65.3249 1329.83 63.2184 L1329.83 70.267 Q1325.82 71.9684 1321.6 72.8596 Q1317.39 73.7508 1313.06 73.7508 Q1302.2 73.7508 1295.84 67.4314 Q1289.52 61.1119 1289.52 50.3365 Q1289.52 39.1965 1295.52 32.6746 Q1301.55 26.1121 1311.76 26.1121 Q1320.92 26.1121 1326.22 32.0264 Q1331.57 37.9003 1331.57 48.0275 M1324.12 45.84 Q1324.03 39.7232 1320.67 36.0774 Q1317.35 32.4315 1311.84 32.4315 Q1305.6 32.4315 1301.84 35.9558 Q1298.11 39.4801 1297.54 45.8805 L1324.12 45.84 Z" fill="#000000" fill-rule="evenodd" fill-opacity="1" /><path clip-path="url(#clip360)" d="M 0 0 M1338.62 54.671 L1338.62 27.2059 L1346.07 27.2059 L1346.07 54.3874 Q1346.07 60.8284 1348.58 64.0691 Q1351.09 67.2693 1356.12 67.2693 Q1362.15 67.2693 1365.64 63.421 Q1369.16 59.5726 1369.16 52.9291 L1369.16 27.2059 L1376.62 27.2059 L1376.62 72.576 L1369.16 72.576 L1369.16 65.6084 Q1366.45 69.7404 1362.84 71.7658 Q1359.28 73.7508 1354.54 73.7508 Q1346.72 73.7508 1342.67 68.8897 Q1338.62 64.0286 1338.62 54.671 M1357.37 26.1121 L1357.37 26.1121 Z" fill="#000000" fill-rule="evenodd" fill-opacity="1" /><path clip-path="url(#clip360)" d="M 0 0 M1419.76 35.9153 Q1422.55 30.8922 1426.44 28.5022 Q1430.33 26.1121 1435.6 26.1121 Q1442.69 26.1121 1446.53 31.0947 Q1450.38 36.0368 1450.38 45.1919 L1450.38 72.576 L1442.89 72.576 L1442.89 45.4349 Q1442.89 38.913 1440.58 35.7533 Q1438.27 32.5936 1433.53 32.5936 Q1427.74 32.5936 1424.38 36.4419 Q1421.01 40.2903 1421.01 46.9338 L1421.01 72.576 L1413.52 72.576 L1413.52 45.4349 Q1413.52 38.8725 1411.21 35.7533 Q1408.9 32.5936 1404.08 32.5936 Q1398.37 32.5936 1395.01 36.4824 Q1391.64 40.3308 1391.64 46.9338 L1391.64 72.576 L1384.15 72.576 L1384.15 27.2059 L1391.64 27.2059 L1391.64 34.2544 Q1394.2 30.082 1397.76 28.0971 Q1401.33 26.1121 1406.23 26.1121 Q1411.17 26.1121 1414.61 28.6237 Q1418.1 31.1352 1419.76 35.9153 Z" fill="#000000" fill-rule="evenodd" fill-opacity="1" /><polyline clip-path="url(#clip362)" style="stroke:#009af9; stroke-width:4; stroke-opacity:1; fill:none" points="
  2291.51,1305.69 2289.46,1308.74 2287.42,1312.63 2285.38,1304.04 2283.33,1301.25 2281.29,1299.19 2279.24,1290.74 2277.2,1290.78 2275.16,1305.64 2273.11,1304.8 
  2271.07,1304.69 2269.03,1302.46 2266.98,1299.93 2264.94,1298.47 2262.89,1302.85 2260.85,1301.98 2258.81,1295.69 2256.76,1296.26 2254.72,1303.25 2252.68,1286.17 
  2250.63,1290.11 2248.59,1287.56 2246.55,1289.34 2244.5,1291.93 2242.46,1293.8 2240.41,1290.67 2238.37,1289.37 2236.33,1296.1 2234.28,1285.73 2232.24,1302.16 
  2230.2,1290.18 2228.15,1312.94 2226.11,1313.32 2224.06,1325.1 2222.02,1332.37 2219.98,1329.11 2217.93,1333.37 2215.89,1326.77 2213.85,1326.02 2211.8,1334.54 
  2209.76,1323.43 2207.72,1318.88 2205.67,1318.57 2203.63,1326.35 2201.58,1332.84 2199.54,1338.33 2197.5,1330.03 2195.45,1333.66 2193.41,1343.36 2191.37,1347.27 
  2189.32,1345.48 2187.28,1323.33 2185.23,1322.11 2183.19,1321.43 2181.15,1334.34 2179.1,1328.05 2177.06,1326.9 2175.02,1323.55 2172.97,1319.58 2170.93,1321.43 
  2168.89,1327.29 2166.84,1318.09 2164.8,1336.98 2162.75,1336.89 2160.71,1335.85 2158.67,1338.98 2156.62,1345.5 2154.58,1347.5 2152.54,1350.33 2150.49,1362.13 
  2148.45,1362.64 2146.4,1352.97 2144.36,1345.7 2142.32,1362.25 2140.27,1360.57 2138.23,1379.86 2136.19,1374.22 2134.14,1376.37 2132.1,1374.13 2130.06,1374.35 
  2128.01,1374.86 2125.97,1363.28 2123.92,1359.74 2121.88,1368.15 2119.84,1361.55 2117.79,1389.77 2115.75,1388.38 2113.71,1391.14 2111.66,1391.17 2109.62,1396.71 
  2107.57,1399.6 2105.53,1400.22 2103.49,1407.73 2101.44,1401.35 2099.4,1400.97 2097.36,1394 2095.31,1396.26 2093.27,1393.98 2091.23,1396.47 2089.18,1409.86 
  2087.14,1399.69 2085.09,1398.84 2083.05,1396.07 2081.01,1414 2078.96,1416.41 2076.92,1420.99 2074.88,1408.37 2072.83,1409.63 2070.79,1398.28 2068.74,1424.29 
  2066.7,1338.59 2064.66,1332.54 2062.61,1330.52 2060.57,1333.84 2058.53,1296.57 2056.48,1288.98 2054.44,1305.3 2052.39,1309.36 2050.35,1309.77 2048.31,1301.63 
  2046.26,1315.72 2044.22,1316.23 2042.18,1306.89 2040.13,1305.94 2038.09,1309.63 2036.05,1287.27 2034,1268.73 2031.96,1259.83 2029.91,1272.6 2027.87,1268.88 
  2025.83,1277.11 2023.78,1275.66 2021.74,1251.81 2019.7,1266.34 2017.65,1275.22 2015.61,1269.29 2013.56,1249.37 2011.52,1265.9 2009.48,1268.47 2007.43,1297.11 
  2005.39,1310.71 2003.35,1305.15 2001.3,1310.59 1999.26,1310.25 1997.22,1320.3 1995.17,1329.55 1993.13,1344.21 1991.08,1343.39 1989.04,1344.63 1987,1349.41 
  1984.95,1353.05 1982.91,1348.35 1980.87,1359.22 1978.82,1357.35 1976.78,1362.81 1974.73,1364.91 1972.69,1372.35 1970.65,1370.23 1968.6,1369.9 1966.56,1364.75 
  1964.52,1363.36 1962.47,1365.94 1960.43,1366.01 1958.39,1358.81 1956.34,1362.93 1954.3,1368.53 1952.25,1366.4 1950.21,1367.19 1948.17,1388.89 1946.12,1385.96 
  1944.08,1390.06 1942.04,1387.66 1939.99,1394.66 1937.95,1391.67 1935.9,1389.66 1933.86,1388.34 1931.82,1396.99 1929.77,1398.14 1927.73,1397.97 1925.69,1405.05 
  1923.64,1401.57 1921.6,1403.11 1919.56,1400.69 1917.51,1397.98 1915.47,1404.14 1913.42,1405.95 1911.38,1406.64 1909.34,1407.12 1907.29,1404.55 1905.25,1404.45 
  1903.21,1400.19 1901.16,1405.24 1899.12,1404.06 1897.07,1404.15 1895.03,1399.52 1892.99,1410.28 1890.94,1399.6 1888.9,1390 1886.86,1390.66 1884.81,1387.69 
  1882.77,1387.62 1880.73,1389.06 1878.68,1386.97 1876.64,1385.13 1874.59,1382.13 1872.55,1385.36 1870.51,1384.08 1868.46,1384.43 1866.42,1387.05 1864.38,1385.33 
  1862.33,1383.88 1860.29,1381.85 1858.24,1381.15 1856.2,1378.09 1854.16,1381.88 1852.11,1379.99 1850.07,1385.06 1848.03,1386.69 1845.98,1392.43 1843.94,1380.75 
  1841.89,1383.01 1839.85,1371.7 1837.81,1358.17 1835.76,1357 1833.72,1354.76 1831.68,1349.22 1829.63,1350.65 1827.59,1353 1825.55,1348.13 1823.5,1345.03 
  1821.46,1346 1819.41,1348.08 1817.37,1344.16 1815.33,1348.2 1813.28,1349.33 1811.24,1346.41 1809.2,1341.99 1807.15,1344.46 1805.11,1347.36 1803.06,1351.48 
  1801.02,1350.13 1798.98,1350.17 1796.93,1350.83 1794.89,1349.89 1792.85,1342.69 1790.8,1351.34 1788.76,1349.2 1786.72,1353.56 1784.67,1351.48 1782.63,1372.32 
  1780.58,1370.39 1778.54,1361.67 1776.5,1358.9 1774.45,1357.74 1772.41,1361.03 1770.37,1360.11 1768.32,1355.78 1766.28,1358.39 1764.23,1352.48 1762.19,1346.39 
  1760.15,1352.02 1758.1,1353.34 1756.06,1352.35 1754.02,1341.97 1751.97,1340.56 1749.93,1352.39 1747.89,1353.11 1745.84,1362.77 1743.8,1356.71 1741.75,1357.38 
  1739.71,1358.2 1737.67,1352.75 1735.62,1357.28 1733.58,1352.11 1731.54,1363.58 1729.49,1359.4 1727.45,1359.07 1725.4,1366.87 1723.36,1362.89 1721.32,1367.07 
  1719.27,1332.04 1717.23,1322.23 1715.19,1318.45 1713.14,1315.52 1711.1,1313.3 1709.06,1323.15 1707.01,1325.54 1704.97,1336 1702.92,1344.07 1700.88,1344.97 
  1698.84,1352.04 1696.79,1352.29 1694.75,1354.67 1692.71,1353.12 1690.66,1352.48 1688.62,1351.83 1686.57,1355.38 1684.53,1363.73 1682.49,1359.16 1680.44,1358.21 
  1678.4,1354.18 1676.36,1354.96 1674.31,1362.13 1672.27,1361.35 1670.23,1364.35 1668.18,1363.8 1666.14,1359.86 1664.09,1345.79 1662.05,1344.5 1660.01,1346.54 
  1657.96,1342.54 1655.92,1339.17 1653.88,1342.78 1651.83,1345.65 1649.79,1336.68 1647.74,1331.07 1645.7,1338.87 1643.66,1347.4 1641.61,1348.23 1639.57,1345.12 
  1637.53,1346.01 1635.48,1324.1 1633.44,1321.86 1631.4,1317.1 1629.35,1326.89 1627.31,1322.9 1625.26,1312.2 1623.22,1307.53 1621.18,1307.34 1619.13,1300.22 
  1617.09,1311.79 1615.05,1311.45 1613,1315.84 1610.96,1316.71 1608.91,1315.12 1606.87,1323.84 1604.83,1322.59 1602.78,1321.86 1600.74,1326.08 1598.7,1314.73 
  1596.65,1314.41 1594.61,1317.2 1592.56,1320.9 1590.52,1315.93 1588.48,1308.15 1586.43,1305.43 1584.39,1312.73 1582.35,1307.89 1580.3,1322.63 1578.26,1334.32 
  1576.22,1305.47 1574.17,1307.81 1572.13,1265.45 1570.08,1259.8 1568.04,1265.58 1566,1245.31 1563.95,1227.34 1561.91,1222.9 1559.87,1230.04 1557.82,1246.24 
  1555.78,1247.19 1553.73,1251.59 1551.69,1233.6 1549.65,1243.1 1547.6,1239.59 1545.56,1241.7 1543.52,1217.3 1541.47,1223.9 1539.43,1236.32 1537.39,1195.73 
  1535.34,1216.66 1533.3,1223.21 1531.25,1226.39 1529.21,1224.15 1527.17,1240.36 1525.12,1263.02 1523.08,1266.08 1521.04,1269.51 1518.99,1261.17 1516.95,1266.51 
  1514.9,1266.46 1512.86,1271.68 1510.82,1279.38 1508.77,1273.01 1506.73,1289.54 1504.69,1287.33 1502.64,1302.69 1500.6,1290.56 1498.56,1285.19 1496.51,1285.2 
  1494.47,1288.3 1492.42,1292.4 1490.38,1283.96 1488.34,1265.38 1486.29,1269.86 1484.25,1266.34 1482.21,1279.46 1480.16,1265.33 1478.12,1263.2 1476.07,1263.58 
  1474.03,1269.84 1471.99,1283.82 1469.94,1285.13 1467.9,1289.28 1465.86,1290.21 1463.81,1280.68 1461.77,1283.51 1459.73,1274.75 1457.68,1300.18 1455.64,1289.59 
  1453.59,1269.84 1451.55,1285.9 1449.51,1317.11 1447.46,1337.38 1445.42,1345.03 1443.38,1342.93 1441.33,1359.97 1439.29,1361.9 1437.24,1361.98 1435.2,1363.76 
  1433.16,1359.91 1431.11,1369.7 1429.07,1369.05 1427.03,1364.72 1424.98,1370.91 1422.94,1372.51 1420.9,1370.88 1418.85,1377.5 1416.81,1374.82 1414.76,1373.38 
  1412.72,1374.75 1410.68,1377.93 1408.63,1367.99 1406.59,1363.69 1404.55,1362.34 1402.5,1364.24 1400.46,1360 1398.41,1360.23 1396.37,1359.56 1394.33,1367.04 
  1392.28,1367.37 1390.24,1372.79 1388.2,1365.6 1386.15,1369.76 1384.11,1369.55 1382.06,1368.7 1380.02,1355.83 1377.98,1358.33 1375.93,1354.26 1373.89,1358.62 
  1371.85,1367.22 1369.8,1367.93 1367.76,1375.34 1365.72,1372.75 1363.67,1369.49 1361.63,1391.2 1359.58,1391.03 1357.54,1390.02 1355.5,1389.22 1353.45,1394.54 
  1351.41,1392.95 1349.37,1398.2 1347.32,1398.37 1345.28,1396.25 1343.23,1395.1 1341.19,1396.44 1339.15,1397.5 1337.1,1393.37 1335.06,1393.84 1333.02,1394.77 
  1330.97,1393.73 1328.93,1391.5 1326.89,1395.77 1324.84,1400.07 1322.8,1400.61 1320.75,1398.71 1318.71,1399.65 1316.67,1396.99 1314.62,1395.11 1312.58,1398.82 
  1310.54,1395.56 1308.49,1395.01 1306.45,1395.67 1304.4,1406.54 1302.36,1401.69 1300.32,1399.78 1298.27,1397.04 1296.23,1397.04 1294.19,1397.32 1292.14,1396.15 
  1290.1,1394.51 1288.06,1400.21 1286.01,1374.92 1283.97,1385.13 1281.92,1386.82 1279.88,1384.12 1277.84,1389.02 1275.79,1386.81 1273.75,1398.56 1271.71,1409.51 
  1269.66,1410.5 1267.62,1411.67 1265.57,1410.3 1263.53,1409.77 1261.49,1411.27 1259.44,1407.09 1257.4,1412.94 1255.36,1412.81 1253.31,1427.44 1251.27,1427.43 
  1249.23,1424.68 1247.18,1424.31 1245.14,1424.63 1243.09,1421.59 1241.05,1425.24 1239.01,1425.48 1236.96,1423.68 1234.92,1427.51 1232.88,1426.44 1230.83,1419.98 
  1228.79,1416.75 1226.74,1416.94 1224.7,1415.69 1222.66,1415.69 1220.61,1414.31 1218.57,1416.46 1216.53,1414.54 1214.48,1409.56 1212.44,1412.97 1210.4,1410.6 
  1208.35,1410.67 1206.31,1413.19 1204.26,1405.29 1202.22,1417.89 1200.18,1408.84 1198.13,1407.53 1196.09,1407.25 1194.05,1384.43 1192,1384.91 1189.96,1383.26 
  1187.91,1378.73 1185.87,1379.77 1183.83,1380.51 1181.78,1386.21 1179.74,1380.58 1177.7,1393.31 1175.65,1400.85 1173.61,1394.58 1171.57,1399.32 1169.52,1397.06 
  1167.48,1418.3 1165.43,1402.92 1163.39,1404.64 1161.35,1394.38 1159.3,1403.24 1157.26,1416.89 1155.22,1424.29 1153.17,1418.34 1151.13,1433.11 1149.08,1431.47 
  1147.04,1437.74 1145,1446.96 1142.95,1447.87 1140.91,1447.8 1138.87,1445.31 1136.82,1442.31 1134.78,1443.91 1132.73,1441.83 1130.69,1438.5 1128.65,1441.33 
  1126.6,1438.7 1124.56,1440.55 1122.52,1429.16 1120.47,1422.07 1118.43,1423.22 1116.39,1415.46 1114.34,1414.02 1112.3,1418.34 1110.25,1414.12 1108.21,1409.3 
  1106.17,1420.64 1104.12,1421.35 1102.08,1413.47 1100.04,1417.23 1097.99,1407.21 1095.95,1405.65 1093.9,1394.04 1091.86,1398.65 1089.82,1381.81 1087.77,1353.94 
  1085.73,1356.74 1083.69,1356.02 1081.64,1348.7 1079.6,1345.67 1077.56,1323.57 1075.51,1320.55 1073.47,1320.85 1071.42,1320.19 1069.38,1322.65 1067.34,1320.67 
  1065.29,1314.48 1063.25,1312.8 1061.21,1322.79 1059.16,1321.32 1057.12,1333.01 1055.07,1331 1053.03,1333.34 1050.99,1334.56 1048.94,1335.99 1046.9,1336.28 
  1044.86,1328.35 1042.81,1328.89 1040.77,1328.42 1038.73,1329.49 1036.68,1328 1034.64,1327.51 1032.59,1326.7 1030.55,1325.92 1028.51,1325.48 1026.46,1328.25 
  1024.42,1327.11 1022.38,1320.56 1020.33,1318.29 1018.29,1319.09 1016.24,1336.39 1014.2,1331.9 1012.16,1336.27 1010.11,1341.6 1008.07,1306.95 1006.03,1305.28 
  1003.98,1303.69 1001.94,1307.39 999.895,1308.24 997.851,1305.32 995.808,1310.94 993.764,1312.9 991.72,1307.94 989.677,1302.1 987.633,1300.7 985.589,1302.1 
  983.546,1311.69 981.502,1304.59 979.458,1319.1 977.415,1314.05 975.371,1305.61 973.327,1289.37 971.284,1292.85 969.24,1286.28 967.196,1309.61 965.152,1323.62 
  963.109,1324.97 961.065,1336.97 959.021,1313.32 956.978,1311.96 954.934,1324.85 952.89,1322.52 950.847,1349.87 948.803,1347.92 946.759,1336.01 944.716,1337.09 
  942.672,1336.36 940.628,1318.3 938.584,1303.97 936.541,1305.4 934.497,1249.3 932.453,1245.45 930.41,1239.12 928.366,1238.83 926.322,1252.97 924.279,1250.57 
  922.235,1246.18 920.191,1239.19 918.148,1246.81 916.104,1260.16 914.06,1256.84 912.017,1253.38 909.973,1258.29 907.929,1263.6 905.885,1253.34 903.842,1263.77 
  901.798,1235.38 899.754,1240.51 897.711,1217.43 895.667,1247.67 893.623,1252.97 891.58,1255.92 889.536,1250.65 887.492,1216.99 885.449,1217.45 883.405,1203.27 
  881.361,1172.38 879.317,1180 877.274,1157.6 875.23,1131 873.186,1127.47 871.143,1129.01 869.099,1118.78 867.055,1125.65 865.012,1116.03 862.968,1104.37 
  860.924,1080.72 858.881,1070.66 856.837,1068.65 854.793,1067.02 852.75,1074.83 850.706,1065.03 848.662,1058 846.618,1086.78 844.575,1079.46 842.531,1076.74 
  840.487,1087.77 838.444,1068.39 836.4,1057.84 834.356,1038.63 832.313,1058.74 830.269,1087.03 828.225,1103.39 826.182,1104.14 824.138,1105.42 822.094,1091.76 
  820.051,1104.03 818.007,1065.4 815.963,1050.79 813.919,1051.76 811.876,1066.64 809.832,1069.29 807.788,1069.88 805.745,1075.21 803.701,1060.88 801.657,1084.71 
  799.614,1082.68 797.57,1101.84 795.526,1115.93 793.483,1095.34 791.439,1106.73 789.395,1077.91 787.351,1082.6 785.308,1063.76 783.264,1074.6 781.22,1011.59 
  779.177,1001.71 777.133,1000.39 775.089,1020.02 773.046,1040.34 771.002,1041.03 768.958,1049.89 766.915,1018.51 764.871,1061.72 762.827,1044.44 760.784,1006.9 
  758.74,1013.24 756.696,946.407 754.652,939.655 752.609,933.828 750.565,932.37 748.521,929.797 746.478,947.807 744.434,919.574 742.39,947.975 740.347,959.656 
  738.303,960.83 736.259,980.486 734.216,971.397 732.172,1026.2 730.128,967.73 728.085,952.726 726.041,953.19 723.997,936.904 721.953,961.441 719.91,898.675 
  717.866,843.234 715.822,824.444 713.779,843.332 711.735,847.019 709.691,872.295 707.648,833.671 705.604,835.535 703.56,813.275 701.517,811.708 699.473,855.596 
  697.429,863.088 695.385,818.175 693.342,788.719 691.298,792.081 689.254,788.127 687.211,747.414 685.167,722.572 683.123,755.793 681.08,762.497 679.036,851.662 
  676.992,867.987 674.949,869.18 672.905,849.395 670.861,856.64 668.818,896.161 666.774,878.318 664.73,921.476 662.686,839.231 660.643,895.008 658.599,918.578 
  656.555,934.154 654.512,922.393 652.468,970.362 650.424,1011.42 648.381,1035.01 646.337,1025.62 644.293,1004.14 642.25,1034.89 640.206,1042.77 638.162,1043.15 
  636.119,1106.64 634.075,1120.8 632.031,1136.85 629.987,1135.72 627.944,1151.38 625.9,1166.78 623.856,1154.29 621.813,1157.65 619.769,1121.33 617.725,1150.9 
  615.682,1157.23 613.638,1142.1 611.594,1143.61 609.551,1152.02 607.507,1090.7 605.463,1088.3 603.419,1052.32 601.376,1013.92 599.332,1016.67 597.288,994.948 
  595.245,998.319 593.201,979.225 591.157,981.344 589.114,981.462 587.07,1000.68 585.026,990.236 582.983,939.911 580.939,930.25 578.895,928.998 576.852,850.075 
  574.808,843.805 572.764,819.673 570.72,859.519 568.677,817.061 566.633,844.831 564.589,792.051 562.546,728.674 560.502,692.692 558.458,676.131 556.415,686.087 
  554.371,686.324 552.327,672.168 550.284,689.055 548.24,670.975 546.196,674.78 544.153,700.924 542.109,708.357 540.065,690.938 538.021,740.346 535.978,705.961 
  533.934,659.984 531.89,604.601 529.847,632.371 527.803,574.219 525.759,605.163 523.716,619.014 521.672,624.396 519.628,700.815 517.585,676.348 515.541,733.337 
  513.497,691.371 511.453,666.579 509.41,759.875 507.366,787.94 505.322,761.521 503.279,842.415 501.235,720.502 499.191,573.223 497.148,619.881 495.104,503.34 
  493.06,420.464 491.017,461.207 488.973,370.139 486.929,296.254 484.886,427.335 482.842,494.33 480.798,490.13 478.754,485.152 476.711,563.168 474.667,551.536 
  472.623,496.331 470.58,396.401 468.536,512.597 466.492,551.24 464.449,544.635 462.405,544.645 460.361,279.781 458.318,201.587 456.274,162.047 454.23,294.371 
  452.187,410.123 450.143,299.142 448.099,257.768 446.055,413.347 444.012,423.293 441.968,540.978 439.924,586.039 437.881,603.783 435.837,609.668 433.793,687.448 
  431.75,786.166 429.706,807.834 427.662,860.081 425.619,807.942 423.575,831.01 421.531,801.051 419.487,791.085 417.444,827.441 415.4,880.398 413.356,899.197 
  411.313,904.304 409.269,757.568 407.225,747.099 405.182,743.767 403.138,757.568 401.094,832.863 399.051,858.316 397.007,866.252 394.963,860.327 392.92,856.167 
  390.876,917.267 388.832,1029.21 386.788,1109.15 384.745,1076.97 382.701,1094.16 380.657,1129.69 378.614,1122.81 376.57,1084.6 374.526,1070.4 372.483,1076.67 
  370.439,1079.62 368.395,1079.4 366.352,1108.46 364.308,1114.51 362.264,1070.88 360.221,1064.82 358.177,1074.17 356.133,1075.98 354.089,1069.5 352.046,1131.16 
  350.002,1155.21 347.958,1173.46 345.915,1168.23 343.871,1180.33 341.827,1188.7 339.784,1203.94 337.74,1203.65 335.696,1204.15 333.653,1199.6 331.609,1221.88 
  329.565,1230.75 327.521,1223.98 325.478,1241.08 323.434,1216.46 321.39,1231.15 319.347,1243.26 317.303,1237.41 315.259,1239.44 313.216,1236.57 311.172,1230.66 
  309.128,1251.33 307.085,1247.21 305.041,1229.87 302.997,1228.83 300.954,1229.77 298.91,1242.72 296.866,1238.5 294.822,1239.9 292.779,1240.51 290.735,1239.2 
  288.691,1252.17 286.648,1240.83 284.604,1235.69 282.56,1230.25 280.517,1226.16 278.473,1223.34 276.429,1219.72 274.386,1200.01 272.342,1197.73 270.298,1193.29 
  268.255,1197.27 266.211,1231.22 264.167,1230.74 262.123,1233.83 260.08,1237.31 258.036,1223.72 255.992,1223.77 253.949,1224.93 251.905,1239.84 249.861,1244.55 
  
  "/>
<path clip-path="url(#clip360)" d="
M1928.6 327.952 L2280.76 327.952 L2280.76 206.992 L1928.6 206.992  Z
  " fill="#ffffff" fill-rule="evenodd" fill-opacity="1"/>
<polyline clip-path="url(#clip360)" style="stroke:#000000; stroke-width:4; stroke-opacity:1; fill:none" points="
  1928.6,327.952 2280.76,327.952 2280.76,206.992 1928.6,206.992 1928.6,327.952 
  "/>
<polyline clip-path="url(#clip360)" style="stroke:#009af9; stroke-width:4; stroke-opacity:1; fill:none" points="
  1952.6,267.472 2096.6,267.472 
  "/>
<path clip-path="url(#clip360)" d="M 0 0 M2136.62 253.363 Q2131.53 253.363 2128.52 257.16 Q2125.53 260.956 2125.53 267.507 Q2125.53 274.035 2128.52 277.831 Q2131.53 281.627 2136.62 281.627 Q2141.71 281.627 2144.68 277.831 Q2147.66 274.035 2147.66 267.507 Q2147.66 260.956 2144.68 257.16 Q2141.71 253.363 2136.62 253.363 M2136.62 249.567 Q2143.89 249.567 2148.24 254.451 Q2152.59 259.312 2152.59 267.507 Q2152.59 275.678 2148.24 280.562 Q2143.89 285.423 2136.62 285.423 Q2129.33 285.423 2124.96 280.562 Q2120.6 275.701 2120.6 267.507 Q2120.6 259.312 2124.96 254.451 Q2129.33 249.567 2136.62 249.567 Z" fill="#000000" fill-rule="evenodd" fill-opacity="1" /><path clip-path="url(#clip360)" d="M 0 0 M2161.18 280.863 L2161.18 294.613 L2156.9 294.613 L2156.9 258.826 L2161.18 258.826 L2161.18 262.762 Q2162.52 260.447 2164.56 259.336 Q2166.62 258.201 2169.47 258.201 Q2174.19 258.201 2177.13 261.951 Q2180.09 265.701 2180.09 271.812 Q2180.09 277.923 2177.13 281.673 Q2174.19 285.423 2169.47 285.423 Q2166.62 285.423 2164.56 284.312 Q2162.52 283.178 2161.18 280.863 M2175.67 271.812 Q2175.67 267.113 2173.73 264.451 Q2171.81 261.766 2168.43 261.766 Q2165.05 261.766 2163.1 264.451 Q2161.18 267.113 2161.18 271.812 Q2161.18 276.511 2163.1 279.197 Q2165.05 281.859 2168.43 281.859 Q2171.81 281.859 2173.73 279.197 Q2175.67 276.511 2175.67 271.812 Z" fill="#000000" fill-rule="evenodd" fill-opacity="1" /><path clip-path="url(#clip360)" d="M 0 0 M2206.74 270.724 L2206.74 272.808 L2187.15 272.808 Q2187.43 277.206 2189.79 279.521 Q2192.18 281.812 2196.41 281.812 Q2198.87 281.812 2201.16 281.21 Q2203.47 280.609 2205.74 279.405 L2205.74 283.433 Q2203.45 284.405 2201.04 284.914 Q2198.64 285.423 2196.16 285.423 Q2189.96 285.423 2186.32 281.812 Q2182.71 278.201 2182.71 272.044 Q2182.71 265.678 2186.14 261.951 Q2189.58 258.201 2195.42 258.201 Q2200.65 258.201 2203.68 261.581 Q2206.74 264.937 2206.74 270.724 M2202.48 269.474 Q2202.43 265.979 2200.51 263.896 Q2198.61 261.812 2195.46 261.812 Q2191.9 261.812 2189.75 263.826 Q2187.62 265.84 2187.29 269.498 L2202.48 269.474 Z" fill="#000000" fill-rule="evenodd" fill-opacity="1" /><path clip-path="url(#clip360)" d="M 0 0 M2232.76 269.104 L2232.76 284.752 L2228.5 284.752 L2228.5 269.243 Q2228.5 265.562 2227.06 263.734 Q2225.63 261.905 2222.76 261.905 Q2219.31 261.905 2217.32 264.104 Q2215.33 266.303 2215.33 270.099 L2215.33 284.752 L2211.04 284.752 L2211.04 258.826 L2215.33 258.826 L2215.33 262.854 Q2216.85 260.516 2218.91 259.359 Q2221 258.201 2223.71 258.201 Q2228.17 258.201 2230.46 260.979 Q2232.76 263.734 2232.76 269.104 Z" fill="#000000" fill-rule="evenodd" fill-opacity="1" /></svg>
