<?xml version="1.0" encoding="utf-8"?>
<svg xmlns="http://www.w3.org/2000/svg" xmlns:xlink="http://www.w3.org/1999/xlink" width="600" height="400" viewBox="0 0 2400 1600">
<defs>
  <clipPath id="clip240">
    <rect x="0" y="0" width="2400" height="1600"/>
  </clipPath>
</defs>
<path clip-path="url(#clip240)" d="
M0 1600 L2400 1600 L2400 0 L0 0  Z
  " fill="#ffffff" fill-rule="evenodd" fill-opacity="1"/>
<defs>
  <clipPath id="clip241">
    <rect x="480" y="0" width="1681" height="1600"/>
  </clipPath>
</defs>
<path clip-path="url(#clip240)" d="
M148.01 1486.45 L2352.76 1486.45 L2352.76 123.472 L148.01 123.472  Z
  " fill="#ffffff" fill-rule="evenodd" fill-opacity="1"/>
<defs>
  <clipPath id="clip242">
    <rect x="148" y="123" width="2206" height="1364"/>
  </clipPath>
</defs>
<polyline clip-path="url(#clip242)" style="stroke:#000000; stroke-width:2; stroke-opacity:0.1; fill:none" points="
  171.726,1486.45 171.726,123.472 
  "/>
<polyline clip-path="url(#clip242)" style="stroke:#000000; stroke-width:2; stroke-opacity:0.1; fill:none" points="
  715.072,1486.45 715.072,123.472 
  "/>
<polyline clip-path="url(#clip242)" style="stroke:#000000; stroke-width:2; stroke-opacity:0.1; fill:none" points="
  1258.42,1486.45 1258.42,123.472 
  "/>
<polyline clip-path="url(#clip242)" style="stroke:#000000; stroke-width:2; stroke-opacity:0.1; fill:none" points="
  1801.76,1486.45 1801.76,123.472 
  "/>
<polyline clip-path="url(#clip242)" style="stroke:#000000; stroke-width:2; stroke-opacity:0.1; fill:none" points="
  2345.41,1486.45 2345.41,123.472 
  "/>
<polyline clip-path="url(#clip242)" style="stroke:#000000; stroke-width:2; stroke-opacity:0.1; fill:none" points="
  148.01,1438.71 2352.76,1438.71 
  "/>
<polyline clip-path="url(#clip242)" style="stroke:#000000; stroke-width:2; stroke-opacity:0.1; fill:none" points="
  148.01,1086.23 2352.76,1086.23 
  "/>
<polyline clip-path="url(#clip242)" style="stroke:#000000; stroke-width:2; stroke-opacity:0.1; fill:none" points="
  148.01,733.76 2352.76,733.76 
  "/>
<polyline clip-path="url(#clip242)" style="stroke:#000000; stroke-width:2; stroke-opacity:0.1; fill:none" points="
  148.01,381.286 2352.76,381.286 
  "/>
<polyline clip-path="url(#clip240)" style="stroke:#000000; stroke-width:4; stroke-opacity:1; fill:none" points="
  148.01,1486.45 2352.76,1486.45 
  "/>
<polyline clip-path="url(#clip240)" style="stroke:#000000; stroke-width:4; stroke-opacity:1; fill:none" points="
  148.01,1486.45 148.01,123.472 
  "/>
<polyline clip-path="url(#clip240)" style="stroke:#000000; stroke-width:4; stroke-opacity:1; fill:none" points="
  171.726,1486.45 171.726,1470.09 
  "/>
<polyline clip-path="url(#clip240)" style="stroke:#000000; stroke-width:4; stroke-opacity:1; fill:none" points="
  715.072,1486.45 715.072,1470.09 
  "/>
<polyline clip-path="url(#clip240)" style="stroke:#000000; stroke-width:4; stroke-opacity:1; fill:none" points="
  1258.42,1486.45 1258.42,1470.09 
  "/>
<polyline clip-path="url(#clip240)" style="stroke:#000000; stroke-width:4; stroke-opacity:1; fill:none" points="
  1801.76,1486.45 1801.76,1470.09 
  "/>
<polyline clip-path="url(#clip240)" style="stroke:#000000; stroke-width:4; stroke-opacity:1; fill:none" points="
  2345.41,1486.45 2345.41,1470.09 
  "/>
<polyline clip-path="url(#clip240)" style="stroke:#000000; stroke-width:4; stroke-opacity:1; fill:none" points="
  148.01,1438.71 174.467,1438.71 
  "/>
<polyline clip-path="url(#clip240)" style="stroke:#000000; stroke-width:4; stroke-opacity:1; fill:none" points="
  148.01,1086.23 174.467,1086.23 
  "/>
<polyline clip-path="url(#clip240)" style="stroke:#000000; stroke-width:4; stroke-opacity:1; fill:none" points="
  148.01,733.76 174.467,733.76 
  "/>
<polyline clip-path="url(#clip240)" style="stroke:#000000; stroke-width:4; stroke-opacity:1; fill:none" points="
  148.01,381.286 174.467,381.286 
  "/>
<path clip-path="url(#clip240)" d="M 0 0 M58.8793 1535.98 L75.1986 1535.98 L75.1986 1539.92 L53.2543 1539.92 L53.2543 1535.98 Q55.9163 1533.23 60.4996 1528.6 Q65.1061 1523.95 66.2866 1522.61 Q68.532 1520.08 69.4116 1518.35 Q70.3144 1516.59 70.3144 1514.9 Q70.3144 1512.14 68.37 1510.41 Q66.4487 1508.67 63.3468 1508.67 Q61.1478 1508.67 58.6941 1509.43 Q56.2636 1510.2 53.4858 1511.75 L53.4858 1507.03 Q56.3098 1505.89 58.7635 1505.31 Q61.2172 1504.73 63.2543 1504.73 Q68.6246 1504.73 71.819 1507.42 Q75.0135 1510.11 75.0135 1514.6 Q75.0135 1516.73 74.2033 1518.65 Q73.4162 1520.54 71.3098 1523.14 Q70.7311 1523.81 67.6292 1527.03 Q64.5274 1530.22 58.8793 1535.98 Z" fill="#000000" fill-rule="evenodd" fill-opacity="1" /><path clip-path="url(#clip240)" d="M 0 0 M90.268 1508.44 Q86.6569 1508.44 84.8282 1512 Q83.0227 1515.55 83.0227 1522.67 Q83.0227 1529.78 84.8282 1533.35 Q86.6569 1536.89 90.268 1536.89 Q93.9022 1536.89 95.7078 1533.35 Q97.5365 1529.78 97.5365 1522.67 Q97.5365 1515.55 95.7078 1512 Q93.9022 1508.44 90.268 1508.44 M90.268 1504.73 Q96.0782 1504.73 99.1337 1509.34 Q102.212 1513.92 102.212 1522.67 Q102.212 1531.4 99.1337 1536.01 Q96.0782 1540.59 90.268 1540.59 Q84.4578 1540.59 81.3792 1536.01 Q78.3236 1531.4 78.3236 1522.67 Q78.3236 1513.92 81.3792 1509.34 Q84.4578 1504.73 90.268 1504.73 Z" fill="#000000" fill-rule="evenodd" fill-opacity="1" /><path clip-path="url(#clip240)" d="M 0 0 M117.282 1508.44 Q113.671 1508.44 111.842 1512 Q110.036 1515.55 110.036 1522.67 Q110.036 1529.78 111.842 1533.35 Q113.671 1536.89 117.282 1536.89 Q120.916 1536.89 122.722 1533.35 Q124.55 1529.78 124.55 1522.67 Q124.55 1515.55 122.722 1512 Q120.916 1508.44 117.282 1508.44 M117.282 1504.73 Q123.092 1504.73 126.147 1509.34 Q129.226 1513.92 129.226 1522.67 Q129.226 1531.4 126.147 1536.01 Q123.092 1540.59 117.282 1540.59 Q111.472 1540.59 108.393 1536.01 Q105.337 1531.4 105.337 1522.67 Q105.337 1513.92 108.393 1509.34 Q111.472 1504.73 117.282 1504.73 Z" fill="#000000" fill-rule="evenodd" fill-opacity="1" /><path clip-path="url(#clip240)" d="M 0 0 M135.106 1535.98 L142.745 1535.98 L142.745 1509.62 L134.434 1511.29 L134.434 1507.03 L142.698 1505.36 L147.374 1505.36 L147.374 1535.98 L155.013 1535.98 L155.013 1539.92 L135.106 1539.92 L135.106 1535.98 Z" fill="#000000" fill-rule="evenodd" fill-opacity="1" /><path clip-path="url(#clip240)" d="M 0 0 M157.328 1525.04 L169.805 1525.04 L169.805 1528.83 L157.328 1528.83 L157.328 1525.04 Z" fill="#000000" fill-rule="evenodd" fill-opacity="1" /><path clip-path="url(#clip240)" d="M 0 0 M184.874 1508.44 Q181.263 1508.44 179.434 1512 Q177.629 1515.55 177.629 1522.67 Q177.629 1529.78 179.434 1533.35 Q181.263 1536.89 184.874 1536.89 Q188.508 1536.89 190.314 1533.35 Q192.142 1529.78 192.142 1522.67 Q192.142 1515.55 190.314 1512 Q188.508 1508.44 184.874 1508.44 M184.874 1504.73 Q190.684 1504.73 193.74 1509.34 Q196.818 1513.92 196.818 1522.67 Q196.818 1531.4 193.74 1536.01 Q190.684 1540.59 184.874 1540.59 Q179.064 1540.59 175.985 1536.01 Q172.93 1531.4 172.93 1522.67 Q172.93 1513.92 175.985 1509.34 Q179.064 1504.73 184.874 1504.73 Z" fill="#000000" fill-rule="evenodd" fill-opacity="1" /><path clip-path="url(#clip240)" d="M 0 0 M202.698 1535.98 L210.337 1535.98 L210.337 1509.62 L202.027 1511.29 L202.027 1507.03 L210.291 1505.36 L214.966 1505.36 L214.966 1535.98 L222.605 1535.98 L222.605 1539.92 L202.698 1539.92 L202.698 1535.98 Z" fill="#000000" fill-rule="evenodd" fill-opacity="1" /><path clip-path="url(#clip240)" d="M 0 0 M224.92 1525.04 L237.397 1525.04 L237.397 1528.83 L224.92 1528.83 L224.92 1525.04 Z" fill="#000000" fill-rule="evenodd" fill-opacity="1" /><path clip-path="url(#clip240)" d="M 0 0 M252.466 1508.44 Q248.855 1508.44 247.026 1512 Q245.221 1515.55 245.221 1522.67 Q245.221 1529.78 247.026 1533.35 Q248.855 1536.89 252.466 1536.89 Q256.1 1536.89 257.906 1533.35 Q259.735 1529.78 259.735 1522.67 Q259.735 1515.55 257.906 1512 Q256.1 1508.44 252.466 1508.44 M252.466 1504.73 Q258.276 1504.73 261.332 1509.34 Q264.411 1513.92 264.411 1522.67 Q264.411 1531.4 261.332 1536.01 Q258.276 1540.59 252.466 1540.59 Q246.656 1540.59 243.577 1536.01 Q240.522 1531.4 240.522 1522.67 Q240.522 1513.92 243.577 1509.34 Q246.656 1504.73 252.466 1504.73 Z" fill="#000000" fill-rule="evenodd" fill-opacity="1" /><path clip-path="url(#clip240)" d="M 0 0 M270.29 1535.98 L277.929 1535.98 L277.929 1509.62 L269.619 1511.29 L269.619 1507.03 L277.883 1505.36 L282.559 1505.36 L282.559 1535.98 L290.197 1535.98 L290.197 1539.92 L270.29 1539.92 L270.29 1535.98 Z" fill="#000000" fill-rule="evenodd" fill-opacity="1" /><path clip-path="url(#clip240)" d="M 0 0 M601.531 1535.98 L617.85 1535.98 L617.85 1539.92 L595.906 1539.92 L595.906 1535.98 Q598.568 1533.23 603.151 1528.6 Q607.757 1523.95 608.938 1522.61 Q611.183 1520.08 612.063 1518.35 Q612.966 1516.59 612.966 1514.9 Q612.966 1512.14 611.021 1510.41 Q609.1 1508.67 605.998 1508.67 Q603.799 1508.67 601.345 1509.43 Q598.915 1510.2 596.137 1511.75 L596.137 1507.03 Q598.961 1505.89 601.415 1505.31 Q603.868 1504.73 605.905 1504.73 Q611.276 1504.73 614.47 1507.42 Q617.665 1510.11 617.665 1514.6 Q617.665 1516.73 616.855 1518.65 Q616.067 1520.54 613.961 1523.14 Q613.382 1523.81 610.28 1527.03 Q607.179 1530.22 601.531 1535.98 Z" fill="#000000" fill-rule="evenodd" fill-opacity="1" /><path clip-path="url(#clip240)" d="M 0 0 M632.919 1508.44 Q629.308 1508.44 627.479 1512 Q625.674 1515.55 625.674 1522.67 Q625.674 1529.78 627.479 1533.35 Q629.308 1536.89 632.919 1536.89 Q636.553 1536.89 638.359 1533.35 Q640.188 1529.78 640.188 1522.67 Q640.188 1515.55 638.359 1512 Q636.553 1508.44 632.919 1508.44 M632.919 1504.73 Q638.729 1504.73 641.785 1509.34 Q644.864 1513.92 644.864 1522.67 Q644.864 1531.4 641.785 1536.01 Q638.729 1540.59 632.919 1540.59 Q627.109 1540.59 624.03 1536.01 Q620.975 1531.4 620.975 1522.67 Q620.975 1513.92 624.03 1509.34 Q627.109 1504.73 632.919 1504.73 Z" fill="#000000" fill-rule="evenodd" fill-opacity="1" /><path clip-path="url(#clip240)" d="M 0 0 M659.933 1508.44 Q656.322 1508.44 654.493 1512 Q652.688 1515.55 652.688 1522.67 Q652.688 1529.78 654.493 1533.35 Q656.322 1536.89 659.933 1536.89 Q663.567 1536.89 665.373 1533.35 Q667.201 1529.78 667.201 1522.67 Q667.201 1515.55 665.373 1512 Q663.567 1508.44 659.933 1508.44 M659.933 1504.73 Q665.743 1504.73 668.799 1509.34 Q671.877 1513.92 671.877 1522.67 Q671.877 1531.4 668.799 1536.01 Q665.743 1540.59 659.933 1540.59 Q654.123 1540.59 651.044 1536.01 Q647.989 1531.4 647.989 1522.67 Q647.989 1513.92 651.044 1509.34 Q654.123 1504.73 659.933 1504.73 Z" fill="#000000" fill-rule="evenodd" fill-opacity="1" /><path clip-path="url(#clip240)" d="M 0 0 M687.525 1520.78 Q684.377 1520.78 682.525 1522.93 Q680.697 1525.08 680.697 1528.83 Q680.697 1532.56 682.525 1534.73 Q684.377 1536.89 687.525 1536.89 Q690.674 1536.89 692.502 1534.73 Q694.354 1532.56 694.354 1528.83 Q694.354 1525.08 692.502 1522.93 Q690.674 1520.78 687.525 1520.78 M696.808 1506.12 L696.808 1510.38 Q695.049 1509.55 693.243 1509.11 Q691.461 1508.67 689.701 1508.67 Q685.072 1508.67 682.618 1511.8 Q680.188 1514.92 679.84 1521.24 Q681.206 1519.23 683.266 1518.16 Q685.326 1517.07 687.803 1517.07 Q693.012 1517.07 696.021 1520.24 Q699.053 1523.39 699.053 1528.83 Q699.053 1534.16 695.905 1537.37 Q692.757 1540.59 687.525 1540.59 Q681.53 1540.59 678.359 1536.01 Q675.188 1531.4 675.188 1522.67 Q675.188 1514.48 679.076 1509.62 Q682.965 1504.73 689.516 1504.73 Q691.275 1504.73 693.058 1505.08 Q694.863 1505.43 696.808 1506.12 Z" fill="#000000" fill-rule="evenodd" fill-opacity="1" /><path clip-path="url(#clip240)" d="M 0 0 M701.368 1525.04 L713.845 1525.04 L713.845 1528.83 L701.368 1528.83 L701.368 1525.04 Z" fill="#000000" fill-rule="evenodd" fill-opacity="1" /><path clip-path="url(#clip240)" d="M 0 0 M728.914 1508.44 Q725.303 1508.44 723.474 1512 Q721.669 1515.55 721.669 1522.67 Q721.669 1529.78 723.474 1533.35 Q725.303 1536.89 728.914 1536.89 Q732.548 1536.89 734.354 1533.35 Q736.183 1529.78 736.183 1522.67 Q736.183 1515.55 734.354 1512 Q732.548 1508.44 728.914 1508.44 M728.914 1504.73 Q734.724 1504.73 737.78 1509.34 Q740.858 1513.92 740.858 1522.67 Q740.858 1531.4 737.78 1536.01 Q734.724 1540.59 728.914 1540.59 Q723.104 1540.59 720.025 1536.01 Q716.97 1531.4 716.97 1522.67 Q716.97 1513.92 720.025 1509.34 Q723.104 1504.73 728.914 1504.73 Z" fill="#000000" fill-rule="evenodd" fill-opacity="1" /><path clip-path="url(#clip240)" d="M 0 0 M746.738 1535.98 L754.377 1535.98 L754.377 1509.62 L746.067 1511.29 L746.067 1507.03 L754.331 1505.36 L759.007 1505.36 L759.007 1535.98 L766.645 1535.98 L766.645 1539.92 L746.738 1539.92 L746.738 1535.98 Z" fill="#000000" fill-rule="evenodd" fill-opacity="1" /><path clip-path="url(#clip240)" d="M 0 0 M768.96 1525.04 L781.437 1525.04 L781.437 1528.83 L768.96 1528.83 L768.96 1525.04 Z" fill="#000000" fill-rule="evenodd" fill-opacity="1" /><path clip-path="url(#clip240)" d="M 0 0 M796.506 1508.44 Q792.895 1508.44 791.067 1512 Q789.261 1515.55 789.261 1522.67 Q789.261 1529.78 791.067 1533.35 Q792.895 1536.89 796.506 1536.89 Q800.141 1536.89 801.946 1533.35 Q803.775 1529.78 803.775 1522.67 Q803.775 1515.55 801.946 1512 Q800.141 1508.44 796.506 1508.44 M796.506 1504.73 Q802.316 1504.73 805.372 1509.34 Q808.451 1513.92 808.451 1522.67 Q808.451 1531.4 805.372 1536.01 Q802.316 1540.59 796.506 1540.59 Q790.696 1540.59 787.617 1536.01 Q784.562 1531.4 784.562 1522.67 Q784.562 1513.92 787.617 1509.34 Q790.696 1504.73 796.506 1504.73 Z" fill="#000000" fill-rule="evenodd" fill-opacity="1" /><path clip-path="url(#clip240)" d="M 0 0 M814.33 1535.98 L821.969 1535.98 L821.969 1509.62 L813.659 1511.29 L813.659 1507.03 L821.923 1505.36 L826.599 1505.36 L826.599 1535.98 L834.238 1535.98 L834.238 1539.92 L814.33 1539.92 L814.33 1535.98 Z" fill="#000000" fill-rule="evenodd" fill-opacity="1" /><path clip-path="url(#clip240)" d="M 0 0 M1146.18 1535.98 L1162.5 1535.98 L1162.5 1539.92 L1140.56 1539.92 L1140.56 1535.98 Q1143.22 1533.23 1147.8 1528.6 Q1152.41 1523.95 1153.59 1522.61 Q1155.84 1520.08 1156.72 1518.35 Q1157.62 1516.59 1157.62 1514.9 Q1157.62 1512.14 1155.67 1510.41 Q1153.75 1508.67 1150.65 1508.67 Q1148.45 1508.67 1146 1509.43 Q1143.57 1510.2 1140.79 1511.75 L1140.79 1507.03 Q1143.61 1505.89 1146.07 1505.31 Q1148.52 1504.73 1150.56 1504.73 Q1155.93 1504.73 1159.12 1507.42 Q1162.32 1510.11 1162.32 1514.6 Q1162.32 1516.73 1161.51 1518.65 Q1160.72 1520.54 1158.61 1523.14 Q1158.04 1523.81 1154.93 1527.03 Q1151.83 1530.22 1146.18 1535.98 Z" fill="#000000" fill-rule="evenodd" fill-opacity="1" /><path clip-path="url(#clip240)" d="M 0 0 M1177.57 1508.44 Q1173.96 1508.44 1172.13 1512 Q1170.33 1515.55 1170.33 1522.67 Q1170.33 1529.78 1172.13 1533.35 Q1173.96 1536.89 1177.57 1536.89 Q1181.21 1536.89 1183.01 1533.35 Q1184.84 1529.78 1184.84 1522.67 Q1184.84 1515.55 1183.01 1512 Q1181.21 1508.44 1177.57 1508.44 M1177.57 1504.73 Q1183.38 1504.73 1186.44 1509.34 Q1189.52 1513.92 1189.52 1522.67 Q1189.52 1531.4 1186.44 1536.01 Q1183.38 1540.59 1177.57 1540.59 Q1171.76 1540.59 1168.68 1536.01 Q1165.63 1531.4 1165.63 1522.67 Q1165.63 1513.92 1168.68 1509.34 Q1171.76 1504.73 1177.57 1504.73 Z" fill="#000000" fill-rule="evenodd" fill-opacity="1" /><path clip-path="url(#clip240)" d="M 0 0 M1195.4 1535.98 L1203.04 1535.98 L1203.04 1509.62 L1194.73 1511.29 L1194.73 1507.03 L1202.99 1505.36 L1207.67 1505.36 L1207.67 1535.98 L1215.3 1535.98 L1215.3 1539.92 L1195.4 1539.92 L1195.4 1535.98 Z" fill="#000000" fill-rule="evenodd" fill-opacity="1" /><path clip-path="url(#clip240)" d="M 0 0 M1221.18 1535.98 L1228.82 1535.98 L1228.82 1509.62 L1220.51 1511.29 L1220.51 1507.03 L1228.78 1505.36 L1233.45 1505.36 L1233.45 1535.98 L1241.09 1535.98 L1241.09 1539.92 L1221.18 1539.92 L1221.18 1535.98 Z" fill="#000000" fill-rule="evenodd" fill-opacity="1" /><path clip-path="url(#clip240)" d="M 0 0 M1243.41 1525.04 L1255.88 1525.04 L1255.88 1528.83 L1243.41 1528.83 L1243.41 1525.04 Z" fill="#000000" fill-rule="evenodd" fill-opacity="1" /><path clip-path="url(#clip240)" d="M 0 0 M1270.95 1508.44 Q1267.34 1508.44 1265.51 1512 Q1263.71 1515.55 1263.71 1522.67 Q1263.71 1529.78 1265.51 1533.35 Q1267.34 1536.89 1270.95 1536.89 Q1274.59 1536.89 1276.39 1533.35 Q1278.22 1529.78 1278.22 1522.67 Q1278.22 1515.55 1276.39 1512 Q1274.59 1508.44 1270.95 1508.44 M1270.95 1504.73 Q1276.76 1504.73 1279.82 1509.34 Q1282.9 1513.92 1282.9 1522.67 Q1282.9 1531.4 1279.82 1536.01 Q1276.76 1540.59 1270.95 1540.59 Q1265.14 1540.59 1262.06 1536.01 Q1259.01 1531.4 1259.01 1522.67 Q1259.01 1513.92 1262.06 1509.34 Q1265.14 1504.73 1270.95 1504.73 Z" fill="#000000" fill-rule="evenodd" fill-opacity="1" /><path clip-path="url(#clip240)" d="M 0 0 M1288.78 1535.98 L1296.41 1535.98 L1296.41 1509.62 L1288.1 1511.29 L1288.1 1507.03 L1296.37 1505.36 L1301.04 1505.36 L1301.04 1535.98 L1308.68 1535.98 L1308.68 1539.92 L1288.78 1539.92 L1288.78 1535.98 Z" fill="#000000" fill-rule="evenodd" fill-opacity="1" /><path clip-path="url(#clip240)" d="M 0 0 M1311 1525.04 L1323.47 1525.04 L1323.47 1528.83 L1311 1528.83 L1311 1525.04 Z" fill="#000000" fill-rule="evenodd" fill-opacity="1" /><path clip-path="url(#clip240)" d="M 0 0 M1338.54 1508.44 Q1334.93 1508.44 1333.1 1512 Q1331.3 1515.55 1331.3 1522.67 Q1331.3 1529.78 1333.1 1533.35 Q1334.93 1536.89 1338.54 1536.89 Q1342.18 1536.89 1343.98 1533.35 Q1345.81 1529.78 1345.81 1522.67 Q1345.81 1515.55 1343.98 1512 Q1342.18 1508.44 1338.54 1508.44 M1338.54 1504.73 Q1344.35 1504.73 1347.41 1509.34 Q1350.49 1513.92 1350.49 1522.67 Q1350.49 1531.4 1347.41 1536.01 Q1344.35 1540.59 1338.54 1540.59 Q1332.73 1540.59 1329.66 1536.01 Q1326.6 1531.4 1326.6 1522.67 Q1326.6 1513.92 1329.66 1509.34 Q1332.73 1504.73 1338.54 1504.73 Z" fill="#000000" fill-rule="evenodd" fill-opacity="1" /><path clip-path="url(#clip240)" d="M 0 0 M1356.37 1535.98 L1364.01 1535.98 L1364.01 1509.62 L1355.7 1511.29 L1355.7 1507.03 L1363.96 1505.36 L1368.64 1505.36 L1368.64 1535.98 L1376.28 1535.98 L1376.28 1539.92 L1356.37 1539.92 L1356.37 1535.98 Z" fill="#000000" fill-rule="evenodd" fill-opacity="1" /><path clip-path="url(#clip240)" d="M 0 0 M1688.84 1535.98 L1705.15 1535.98 L1705.15 1539.92 L1683.21 1539.92 L1683.21 1535.98 Q1685.87 1533.23 1690.46 1528.6 Q1695.06 1523.95 1696.24 1522.61 Q1698.49 1520.08 1699.37 1518.35 Q1700.27 1516.59 1700.27 1514.9 Q1700.27 1512.14 1698.33 1510.41 Q1696.4 1508.67 1693.3 1508.67 Q1691.1 1508.67 1688.65 1509.43 Q1686.22 1510.2 1683.44 1511.75 L1683.44 1507.03 Q1686.27 1505.89 1688.72 1505.31 Q1691.17 1504.73 1693.21 1504.73 Q1698.58 1504.73 1701.78 1507.42 Q1704.97 1510.11 1704.97 1514.6 Q1704.97 1516.73 1704.16 1518.65 Q1703.37 1520.54 1701.27 1523.14 Q1700.69 1523.81 1697.59 1527.03 Q1694.48 1530.22 1688.84 1535.98 Z" fill="#000000" fill-rule="evenodd" fill-opacity="1" /><path clip-path="url(#clip240)" d="M 0 0 M1720.22 1508.44 Q1716.61 1508.44 1714.78 1512 Q1712.98 1515.55 1712.98 1522.67 Q1712.98 1529.78 1714.78 1533.35 Q1716.61 1536.89 1720.22 1536.89 Q1723.86 1536.89 1725.66 1533.35 Q1727.49 1529.78 1727.49 1522.67 Q1727.49 1515.55 1725.66 1512 Q1723.86 1508.44 1720.22 1508.44 M1720.22 1504.73 Q1726.03 1504.73 1729.09 1509.34 Q1732.17 1513.92 1732.17 1522.67 Q1732.17 1531.4 1729.09 1536.01 Q1726.03 1540.59 1720.22 1540.59 Q1714.41 1540.59 1711.34 1536.01 Q1708.28 1531.4 1708.28 1522.67 Q1708.28 1513.92 1711.34 1509.34 Q1714.41 1504.73 1720.22 1504.73 Z" fill="#000000" fill-rule="evenodd" fill-opacity="1" /><path clip-path="url(#clip240)" d="M 0 0 M1738.05 1535.98 L1745.69 1535.98 L1745.69 1509.62 L1737.38 1511.29 L1737.38 1507.03 L1745.64 1505.36 L1750.32 1505.36 L1750.32 1535.98 L1757.96 1535.98 L1757.96 1539.92 L1738.05 1539.92 L1738.05 1535.98 Z" fill="#000000" fill-rule="evenodd" fill-opacity="1" /><path clip-path="url(#clip240)" d="M 0 0 M1773.6 1520.78 Q1770.46 1520.78 1768.6 1522.93 Q1766.77 1525.08 1766.77 1528.83 Q1766.77 1532.56 1768.6 1534.73 Q1770.46 1536.89 1773.6 1536.89 Q1776.75 1536.89 1778.58 1534.73 Q1780.43 1532.56 1780.43 1528.83 Q1780.43 1525.08 1778.58 1522.93 Q1776.75 1520.78 1773.6 1520.78 M1782.89 1506.12 L1782.89 1510.38 Q1781.13 1509.55 1779.32 1509.11 Q1777.54 1508.67 1775.78 1508.67 Q1771.15 1508.67 1768.7 1511.8 Q1766.27 1514.92 1765.92 1521.24 Q1767.28 1519.23 1769.34 1518.16 Q1771.4 1517.07 1773.88 1517.07 Q1779.09 1517.07 1782.1 1520.24 Q1785.13 1523.39 1785.13 1528.83 Q1785.13 1534.16 1781.98 1537.37 Q1778.83 1540.59 1773.6 1540.59 Q1767.61 1540.59 1764.44 1536.01 Q1761.27 1531.4 1761.27 1522.67 Q1761.27 1514.48 1765.15 1509.62 Q1769.04 1504.73 1775.59 1504.73 Q1777.35 1504.73 1779.14 1505.08 Q1780.94 1505.43 1782.89 1506.12 Z" fill="#000000" fill-rule="evenodd" fill-opacity="1" /><path clip-path="url(#clip240)" d="M 0 0 M1787.45 1525.04 L1799.92 1525.04 L1799.92 1528.83 L1787.45 1528.83 L1787.45 1525.04 Z" fill="#000000" fill-rule="evenodd" fill-opacity="1" /><path clip-path="url(#clip240)" d="M 0 0 M1814.99 1508.44 Q1811.38 1508.44 1809.55 1512 Q1807.75 1515.55 1807.75 1522.67 Q1807.75 1529.78 1809.55 1533.35 Q1811.38 1536.89 1814.99 1536.89 Q1818.63 1536.89 1820.43 1533.35 Q1822.26 1529.78 1822.26 1522.67 Q1822.26 1515.55 1820.43 1512 Q1818.63 1508.44 1814.99 1508.44 M1814.99 1504.73 Q1820.8 1504.73 1823.86 1509.34 Q1826.94 1513.92 1826.94 1522.67 Q1826.94 1531.4 1823.86 1536.01 Q1820.8 1540.59 1814.99 1540.59 Q1809.18 1540.59 1806.1 1536.01 Q1803.05 1531.4 1803.05 1522.67 Q1803.05 1513.92 1806.1 1509.34 Q1809.18 1504.73 1814.99 1504.73 Z" fill="#000000" fill-rule="evenodd" fill-opacity="1" /><path clip-path="url(#clip240)" d="M 0 0 M1832.82 1535.98 L1840.45 1535.98 L1840.45 1509.62 L1832.14 1511.29 L1832.14 1507.03 L1840.41 1505.36 L1845.08 1505.36 L1845.08 1535.98 L1852.72 1535.98 L1852.72 1539.92 L1832.82 1539.92 L1832.82 1535.98 Z" fill="#000000" fill-rule="evenodd" fill-opacity="1" /><path clip-path="url(#clip240)" d="M 0 0 M1855.04 1525.04 L1867.51 1525.04 L1867.51 1528.83 L1855.04 1528.83 L1855.04 1525.04 Z" fill="#000000" fill-rule="evenodd" fill-opacity="1" /><path clip-path="url(#clip240)" d="M 0 0 M1882.58 1508.44 Q1878.97 1508.44 1877.14 1512 Q1875.34 1515.55 1875.34 1522.67 Q1875.34 1529.78 1877.14 1533.35 Q1878.97 1536.89 1882.58 1536.89 Q1886.22 1536.89 1888.02 1533.35 Q1889.85 1529.78 1889.85 1522.67 Q1889.85 1515.55 1888.02 1512 Q1886.22 1508.44 1882.58 1508.44 M1882.58 1504.73 Q1888.39 1504.73 1891.45 1509.34 Q1894.53 1513.92 1894.53 1522.67 Q1894.53 1531.4 1891.45 1536.01 Q1888.39 1540.59 1882.58 1540.59 Q1876.77 1540.59 1873.7 1536.01 Q1870.64 1531.4 1870.64 1522.67 Q1870.64 1513.92 1873.7 1509.34 Q1876.77 1504.73 1882.58 1504.73 Z" fill="#000000" fill-rule="evenodd" fill-opacity="1" /><path clip-path="url(#clip240)" d="M 0 0 M1900.41 1535.98 L1908.05 1535.98 L1908.05 1509.62 L1899.74 1511.29 L1899.74 1507.03 L1908 1505.36 L1912.68 1505.36 L1912.68 1535.98 L1920.32 1535.98 L1920.32 1539.92 L1900.41 1539.92 L1900.41 1535.98 Z" fill="#000000" fill-rule="evenodd" fill-opacity="1" /><path clip-path="url(#clip240)" d="M 0 0 M2233.36 1535.98 L2249.68 1535.98 L2249.68 1539.92 L2227.73 1539.92 L2227.73 1535.98 Q2230.4 1533.23 2234.98 1528.6 Q2239.58 1523.95 2240.77 1522.61 Q2243.01 1520.08 2243.89 1518.35 Q2244.79 1516.59 2244.79 1514.9 Q2244.79 1512.14 2242.85 1510.41 Q2240.93 1508.67 2237.83 1508.67 Q2235.63 1508.67 2233.17 1509.43 Q2230.74 1510.2 2227.96 1511.75 L2227.96 1507.03 Q2230.79 1505.89 2233.24 1505.31 Q2235.7 1504.73 2237.73 1504.73 Q2243.1 1504.73 2246.3 1507.42 Q2249.49 1510.11 2249.49 1514.6 Q2249.49 1516.73 2248.68 1518.65 Q2247.9 1520.54 2245.79 1523.14 Q2245.21 1523.81 2242.11 1527.03 Q2239.01 1530.22 2233.36 1535.98 Z" fill="#000000" fill-rule="evenodd" fill-opacity="1" /><path clip-path="url(#clip240)" d="M 0 0 M2264.75 1508.44 Q2261.14 1508.44 2259.31 1512 Q2257.5 1515.55 2257.5 1522.67 Q2257.5 1529.78 2259.31 1533.35 Q2261.14 1536.89 2264.75 1536.89 Q2268.38 1536.89 2270.19 1533.35 Q2272.02 1529.78 2272.02 1522.67 Q2272.02 1515.55 2270.19 1512 Q2268.38 1508.44 2264.75 1508.44 M2264.75 1504.73 Q2270.56 1504.73 2273.61 1509.34 Q2276.69 1513.92 2276.69 1522.67 Q2276.69 1531.4 2273.61 1536.01 Q2270.56 1540.59 2264.75 1540.59 Q2258.94 1540.59 2255.86 1536.01 Q2252.8 1531.4 2252.8 1522.67 Q2252.8 1513.92 2255.86 1509.34 Q2258.94 1504.73 2264.75 1504.73 Z" fill="#000000" fill-rule="evenodd" fill-opacity="1" /><path clip-path="url(#clip240)" d="M 0 0 M2285.79 1535.98 L2302.11 1535.98 L2302.11 1539.92 L2280.16 1539.92 L2280.16 1535.98 Q2282.83 1533.23 2287.41 1528.6 Q2292.02 1523.95 2293.2 1522.61 Q2295.44 1520.08 2296.32 1518.35 Q2297.22 1516.59 2297.22 1514.9 Q2297.22 1512.14 2295.28 1510.41 Q2293.36 1508.67 2290.26 1508.67 Q2288.06 1508.67 2285.6 1509.43 Q2283.17 1510.2 2280.39 1511.75 L2280.39 1507.03 Q2283.22 1505.89 2285.67 1505.31 Q2288.13 1504.73 2290.16 1504.73 Q2295.53 1504.73 2298.73 1507.42 Q2301.92 1510.11 2301.92 1514.6 Q2301.92 1516.73 2301.11 1518.65 Q2300.33 1520.54 2298.22 1523.14 Q2297.64 1523.81 2294.54 1527.03 Q2291.44 1530.22 2285.79 1535.98 Z" fill="#000000" fill-rule="evenodd" fill-opacity="1" /><path clip-path="url(#clip240)" d="M 0 0 M2307.99 1535.98 L2315.63 1535.98 L2315.63 1509.62 L2307.32 1511.29 L2307.32 1507.03 L2315.58 1505.36 L2320.26 1505.36 L2320.26 1535.98 L2327.89 1535.98 L2327.89 1539.92 L2307.99 1539.92 L2307.99 1535.98 Z" fill="#000000" fill-rule="evenodd" fill-opacity="1" /><path clip-path="url(#clip240)" d="M 0 0 M2330.21 1525.04 L2342.69 1525.04 L2342.69 1528.83 L2330.21 1528.83 L2330.21 1525.04 Z" fill="#000000" fill-rule="evenodd" fill-opacity="1" /><path clip-path="url(#clip240)" d="M 0 0 M2357.76 1508.44 Q2354.14 1508.44 2352.32 1512 Q2350.51 1515.55 2350.51 1522.67 Q2350.51 1529.78 2352.32 1533.35 Q2354.14 1536.89 2357.76 1536.89 Q2361.39 1536.89 2363.2 1533.35 Q2365.02 1529.78 2365.02 1522.67 Q2365.02 1515.55 2363.2 1512 Q2361.39 1508.44 2357.76 1508.44 M2357.76 1504.73 Q2363.57 1504.73 2366.62 1509.34 Q2369.7 1513.92 2369.7 1522.67 Q2369.7 1531.4 2366.62 1536.01 Q2363.57 1540.59 2357.76 1540.59 Q2351.95 1540.59 2348.87 1536.01 Q2345.81 1531.4 2345.81 1522.67 Q2345.81 1513.92 2348.87 1509.34 Q2351.95 1504.73 2357.76 1504.73 Z" fill="#000000" fill-rule="evenodd" fill-opacity="1" /><path clip-path="url(#clip240)" d="M 0 0 M2375.58 1535.98 L2383.22 1535.98 L2383.22 1509.62 L2374.91 1511.29 L2374.91 1507.03 L2383.17 1505.36 L2387.85 1505.36 L2387.85 1535.98 L2395.49 1535.98 L2395.49 1539.92 L2375.58 1539.92 L2375.58 1535.98 Z" fill="#000000" fill-rule="evenodd" fill-opacity="1" /><path clip-path="url(#clip240)" d="M 0 0 M2397.8 1525.04 L2410.28 1525.04 L2410.28 1528.83 L2397.8 1528.83 L2397.8 1525.04 Z" fill="#000000" fill-rule="evenodd" fill-opacity="1" /><path clip-path="url(#clip240)" d="M 0 0 M2425.35 1508.44 Q2421.74 1508.44 2419.91 1512 Q2418.1 1515.55 2418.1 1522.67 Q2418.1 1529.78 2419.91 1533.35 Q2421.74 1536.89 2425.35 1536.89 Q2428.98 1536.89 2430.79 1533.35 Q2432.62 1529.78 2432.62 1522.67 Q2432.62 1515.55 2430.79 1512 Q2428.98 1508.44 2425.35 1508.44 M2425.35 1504.73 Q2431.16 1504.73 2434.21 1509.34 Q2437.29 1513.92 2437.29 1522.67 Q2437.29 1531.4 2434.21 1536.01 Q2431.16 1540.59 2425.35 1540.59 Q2419.54 1540.59 2416.46 1536.01 Q2413.4 1531.4 2413.4 1522.67 Q2413.4 1513.92 2416.46 1509.34 Q2419.54 1504.73 2425.35 1504.73 Z" fill="#000000" fill-rule="evenodd" fill-opacity="1" /><path clip-path="url(#clip240)" d="M 0 0 M2443.17 1535.98 L2450.81 1535.98 L2450.81 1509.62 L2442.5 1511.29 L2442.5 1507.03 L2450.76 1505.36 L2455.44 1505.36 L2455.44 1535.98 L2463.08 1535.98 L2463.08 1539.92 L2443.17 1539.92 L2443.17 1535.98 Z" fill="#000000" fill-rule="evenodd" fill-opacity="1" /><path clip-path="url(#clip240)" d="M 0 0 M74.9365 1424.51 Q71.3254 1424.51 69.4967 1428.07 Q67.6912 1431.61 67.6912 1438.74 Q67.6912 1445.85 69.4967 1449.41 Q71.3254 1452.96 74.9365 1452.96 Q78.5707 1452.96 80.3763 1449.41 Q82.205 1445.85 82.205 1438.74 Q82.205 1431.61 80.3763 1428.07 Q78.5707 1424.51 74.9365 1424.51 M74.9365 1420.8 Q80.7467 1420.8 83.8022 1425.41 Q86.8809 1429.99 86.8809 1438.74 Q86.8809 1447.47 83.8022 1452.08 Q80.7467 1456.66 74.9365 1456.66 Q69.1264 1456.66 66.0477 1452.08 Q62.9921 1447.47 62.9921 1438.74 Q62.9921 1429.99 66.0477 1425.41 Q69.1264 1420.8 74.9365 1420.8 Z" fill="#000000" fill-rule="evenodd" fill-opacity="1" /><path clip-path="url(#clip240)" d="M 0 0 M91.9503 1450.11 L96.8345 1450.11 L96.8345 1455.99 L91.9503 1455.99 L91.9503 1450.11 Z" fill="#000000" fill-rule="evenodd" fill-opacity="1" /><path clip-path="url(#clip240)" d="M 0 0 M112.483 1436.85 Q109.334 1436.85 107.483 1439 Q105.654 1441.15 105.654 1444.9 Q105.654 1448.63 107.483 1450.8 Q109.334 1452.96 112.483 1452.96 Q115.631 1452.96 117.459 1450.8 Q119.311 1448.63 119.311 1444.9 Q119.311 1441.15 117.459 1439 Q115.631 1436.85 112.483 1436.85 M121.765 1422.19 L121.765 1426.45 Q120.006 1425.62 118.2 1425.18 Q116.418 1424.74 114.659 1424.74 Q110.029 1424.74 107.575 1427.86 Q105.145 1430.99 104.797 1437.31 Q106.163 1435.29 108.223 1434.23 Q110.284 1433.14 112.76 1433.14 Q117.969 1433.14 120.978 1436.31 Q124.01 1439.46 124.01 1444.9 Q124.01 1450.22 120.862 1453.44 Q117.714 1456.66 112.483 1456.66 Q106.487 1456.66 103.316 1452.08 Q100.145 1447.47 100.145 1438.74 Q100.145 1430.55 104.034 1425.69 Q107.922 1420.8 114.473 1420.8 Q116.233 1420.8 118.015 1421.15 Q119.821 1421.5 121.765 1422.19 Z" fill="#000000" fill-rule="evenodd" fill-opacity="1" /><path clip-path="url(#clip240)" d="M 0 0 M76.0013 1072.03 Q72.3902 1072.03 70.5615 1075.6 Q68.756 1079.14 68.756 1086.27 Q68.756 1093.38 70.5615 1096.94 Q72.3902 1100.48 76.0013 1100.48 Q79.6356 1100.48 81.4411 1096.94 Q83.2698 1093.38 83.2698 1086.27 Q83.2698 1079.14 81.4411 1075.6 Q79.6356 1072.03 76.0013 1072.03 M76.0013 1068.33 Q81.8115 1068.33 84.867 1072.94 Q87.9457 1077.52 87.9457 1086.27 Q87.9457 1095 84.867 1099.6 Q81.8115 1104.19 76.0013 1104.19 Q70.1912 1104.19 67.1125 1099.6 Q64.0569 1095 64.0569 1086.27 Q64.0569 1077.52 67.1125 1072.94 Q70.1912 1068.33 76.0013 1068.33 Z" fill="#000000" fill-rule="evenodd" fill-opacity="1" /><path clip-path="url(#clip240)" d="M 0 0 M93.0151 1097.63 L97.8993 1097.63 L97.8993 1103.51 L93.0151 1103.51 L93.0151 1097.63 Z" fill="#000000" fill-rule="evenodd" fill-opacity="1" /><path clip-path="url(#clip240)" d="M 0 0 M101.788 1068.95 L124.01 1068.95 L124.01 1070.95 L111.464 1103.51 L106.58 1103.51 L118.385 1072.89 L101.788 1072.89 L101.788 1068.95 Z" fill="#000000" fill-rule="evenodd" fill-opacity="1" /><path clip-path="url(#clip240)" d="M 0 0 M75.1911 719.559 Q71.58 719.559 69.7513 723.124 Q67.9458 726.665 67.9458 733.795 Q67.9458 740.901 69.7513 744.466 Q71.58 748.008 75.1911 748.008 Q78.8254 748.008 80.6309 744.466 Q82.4596 740.901 82.4596 733.795 Q82.4596 726.665 80.6309 723.124 Q78.8254 719.559 75.1911 719.559 M75.1911 715.855 Q81.0013 715.855 84.0568 720.462 Q87.1355 725.045 87.1355 733.795 Q87.1355 742.522 84.0568 747.128 Q81.0013 751.711 75.1911 751.711 Q69.381 751.711 66.3023 747.128 Q63.2468 742.522 63.2468 733.795 Q63.2468 725.045 66.3023 720.462 Q69.381 715.855 75.1911 715.855 Z" fill="#000000" fill-rule="evenodd" fill-opacity="1" /><path clip-path="url(#clip240)" d="M 0 0 M92.2049 745.161 L97.0892 745.161 L97.0892 751.04 L92.2049 751.04 L92.2049 745.161 Z" fill="#000000" fill-rule="evenodd" fill-opacity="1" /><path clip-path="url(#clip240)" d="M 0 0 M112.159 734.628 Q108.825 734.628 106.904 736.411 Q105.006 738.193 105.006 741.318 Q105.006 744.443 106.904 746.225 Q108.825 748.008 112.159 748.008 Q115.492 748.008 117.413 746.225 Q119.334 744.42 119.334 741.318 Q119.334 738.193 117.413 736.411 Q115.515 734.628 112.159 734.628 M107.483 732.638 Q104.473 731.897 102.784 729.837 Q101.117 727.776 101.117 724.813 Q101.117 720.67 104.057 718.263 Q107.02 715.855 112.159 715.855 Q117.321 715.855 120.26 718.263 Q123.2 720.67 123.2 724.813 Q123.2 727.776 121.51 729.837 Q119.844 731.897 116.858 732.638 Q120.237 733.425 122.112 735.716 Q124.01 738.008 124.01 741.318 Q124.01 746.341 120.932 749.026 Q117.876 751.711 112.159 751.711 Q106.441 751.711 103.362 749.026 Q100.307 746.341 100.307 741.318 Q100.307 738.008 102.205 735.716 Q104.103 733.425 107.483 732.638 M105.77 725.253 Q105.77 727.938 107.436 729.443 Q109.126 730.948 112.159 730.948 Q115.168 730.948 116.858 729.443 Q118.571 727.938 118.571 725.253 Q118.571 722.568 116.858 721.064 Q115.168 719.559 112.159 719.559 Q109.126 719.559 107.436 721.064 Q105.77 722.568 105.77 725.253 Z" fill="#000000" fill-rule="evenodd" fill-opacity="1" /><path clip-path="url(#clip240)" d="M 0 0 M75.2837 367.085 Q71.6726 367.085 69.8439 370.649 Q68.0384 374.191 68.0384 381.321 Q68.0384 388.427 69.8439 391.992 Q71.6726 395.534 75.2837 395.534 Q78.918 395.534 80.7235 391.992 Q82.5522 388.427 82.5522 381.321 Q82.5522 374.191 80.7235 370.649 Q78.918 367.085 75.2837 367.085 M75.2837 363.381 Q81.0939 363.381 84.1494 367.987 Q87.2281 372.571 87.2281 381.321 Q87.2281 390.047 84.1494 394.654 Q81.0939 399.237 75.2837 399.237 Q69.4736 399.237 66.3949 394.654 Q63.3393 390.047 63.3393 381.321 Q63.3393 372.571 66.3949 367.987 Q69.4736 363.381 75.2837 363.381 Z" fill="#000000" fill-rule="evenodd" fill-opacity="1" /><path clip-path="url(#clip240)" d="M 0 0 M92.2975 392.686 L97.1818 392.686 L97.1818 398.566 L92.2975 398.566 L92.2975 392.686 Z" fill="#000000" fill-rule="evenodd" fill-opacity="1" /><path clip-path="url(#clip240)" d="M 0 0 M102.39 397.848 L102.39 393.589 Q104.149 394.422 105.955 394.862 Q107.76 395.302 109.497 395.302 Q114.126 395.302 116.557 392.2 Q119.01 389.075 119.358 382.733 Q118.015 384.723 115.955 385.788 Q113.895 386.853 111.395 386.853 Q106.209 386.853 103.177 383.728 Q100.168 380.58 100.168 375.14 Q100.168 369.816 103.316 366.598 Q106.464 363.381 111.696 363.381 Q117.691 363.381 120.839 367.987 Q124.01 372.571 124.01 381.321 Q124.01 389.492 120.121 394.376 Q116.256 399.237 109.705 399.237 Q107.946 399.237 106.14 398.89 Q104.334 398.543 102.39 397.848 M111.696 383.196 Q114.844 383.196 116.672 381.043 Q118.524 378.89 118.524 375.14 Q118.524 371.413 116.672 369.261 Q114.844 367.085 111.696 367.085 Q108.547 367.085 106.696 369.261 Q104.867 371.413 104.867 375.14 Q104.867 378.89 106.696 381.043 Q108.547 383.196 111.696 383.196 Z" fill="#000000" fill-rule="evenodd" fill-opacity="1" /><path clip-path="url(#clip240)" d="M 0 0 M1098.66 12.096 L1136.9 12.096 L1136.9 18.9825 L1106.84 18.9825 L1106.84 36.8875 L1135.64 36.8875 L1135.64 43.7741 L1106.84 43.7741 L1106.84 65.6895 L1137.63 65.6895 L1137.63 72.576 L1098.66 72.576 L1098.66 12.096 Z" fill="#000000" fill-rule="evenodd" fill-opacity="1" /><path clip-path="url(#clip240)" d="M 0 0 M1144.84 12.096 L1153.06 12.096 L1153.06 48.8377 Q1153.06 58.5599 1156.58 62.8538 Q1160.11 67.1073 1168.01 67.1073 Q1175.87 67.1073 1179.39 62.8538 Q1182.92 58.5599 1182.92 48.8377 L1182.92 12.096 L1191.14 12.096 L1191.14 49.8504 Q1191.14 61.6791 1185.26 67.7149 Q1179.43 73.7508 1168.01 73.7508 Q1156.54 73.7508 1150.67 67.7149 Q1144.84 61.6791 1144.84 49.8504 L1144.84 12.096 Z" fill="#000000" fill-rule="evenodd" fill-opacity="1" /><path clip-path="url(#clip240)" d="M 0 0 M1227.96 44.2197 Q1230.59 45.1109 1233.07 48.0275 Q1235.58 50.9442 1238.09 56.0483 L1246.39 72.576 L1237.6 72.576 L1229.87 57.061 Q1226.87 50.9847 1224.03 48.9997 Q1221.24 47.0148 1216.38 47.0148 L1207.46 47.0148 L1207.46 72.576 L1199.28 72.576 L1199.28 12.096 L1217.75 12.096 Q1228.12 12.096 1233.23 16.4305 Q1238.33 20.7649 1238.33 29.5149 Q1238.33 35.2267 1235.66 38.994 Q1233.02 42.7613 1227.96 44.2197 M1207.46 18.8205 L1207.46 40.2903 L1217.75 40.2903 Q1223.67 40.2903 1226.67 37.5762 Q1229.7 34.8216 1229.7 29.5149 Q1229.7 24.2082 1226.67 21.5346 Q1223.67 18.8205 1217.75 18.8205 L1207.46 18.8205 Z" fill="#000000" fill-rule="evenodd" fill-opacity="1" /><path clip-path="url(#clip240)" d="M 0 0 M1295.77 63.9476 L1295.77 47.7034 L1282.41 47.7034 L1282.41 40.9789 L1303.88 40.9789 L1303.88 66.9452 Q1299.14 70.3075 1293.42 72.0494 Q1287.71 73.7508 1281.23 73.7508 Q1267.05 73.7508 1259.03 65.4869 Q1251.05 57.1826 1251.05 42.3968 Q1251.05 27.5705 1259.03 19.3066 Q1267.05 11.0023 1281.23 11.0023 Q1287.15 11.0023 1292.45 12.4606 Q1297.8 13.9189 1302.3 16.7545 L1302.3 25.464 Q1297.76 21.6156 1292.65 19.6712 Q1287.55 17.7268 1281.92 17.7268 Q1270.82 17.7268 1265.23 23.9246 Q1259.68 30.1225 1259.68 42.3968 Q1259.68 54.6305 1265.23 60.8284 Q1270.82 67.0263 1281.92 67.0263 Q1286.25 67.0263 1289.66 66.2971 Q1293.06 65.5274 1295.77 63.9476 Z" fill="#000000" fill-rule="evenodd" fill-opacity="1" /><path clip-path="url(#clip240)" d="M 0 0 M1320.2 43.6931 L1320.2 65.8515 L1333.33 65.8515 Q1339.93 65.8515 1343.09 63.1374 Q1346.29 60.3828 1346.29 54.752 Q1346.29 49.0808 1343.09 46.4072 Q1339.93 43.6931 1333.33 43.6931 L1320.2 43.6931 M1320.2 18.8205 L1320.2 37.0496 L1332.31 37.0496 Q1338.31 37.0496 1341.22 34.8216 Q1344.18 32.5531 1344.18 27.935 Q1344.18 23.3575 1341.22 21.089 Q1338.31 18.8205 1332.31 18.8205 L1320.2 18.8205 M1312.02 12.096 L1332.92 12.096 Q1342.28 12.096 1347.34 15.9849 Q1352.41 19.8737 1352.41 27.0438 Q1352.41 32.5936 1349.81 35.8748 Q1347.22 39.156 1342.2 39.9662 Q1348.23 41.2625 1351.55 45.3944 Q1354.92 49.4858 1354.92 55.6432 Q1354.92 63.745 1349.41 68.1605 Q1343.9 72.576 1333.73 72.576 L1312.02 72.576 L1312.02 12.096 Z" fill="#000000" fill-rule="evenodd" fill-opacity="1" /><path clip-path="url(#clip240)" d="M 0 0 M1371.24 18.8205 L1371.24 41.5461 L1381.53 41.5461 Q1387.24 41.5461 1390.36 38.5889 Q1393.48 35.6318 1393.48 30.163 Q1393.48 24.7348 1390.36 21.7777 Q1387.24 18.8205 1381.53 18.8205 L1371.24 18.8205 M1363.06 12.096 L1381.53 12.096 Q1391.7 12.096 1396.88 16.714 Q1402.11 21.2916 1402.11 30.163 Q1402.11 39.1155 1396.88 43.6931 Q1391.7 48.2706 1381.53 48.2706 L1371.24 48.2706 L1371.24 72.576 L1363.06 72.576 L1363.06 12.096 Z" fill="#000000" fill-rule="evenodd" fill-opacity="1" /><polyline clip-path="url(#clip242)" style="stroke:#009af9; stroke-width:4; stroke-opacity:1; fill:none" points="
  2290.36,348.153 2289.17,361.9 2287.08,385.163 2285,416.181 2282.92,381.286 2280.84,399.615 2278.75,398.91 2276.67,475.397 2274.59,453.543 2272.5,470.462 
  2270.42,487.733 2268.34,461.65 2266.26,438.387 2264.17,396.795 2262.09,299.864 2260.01,383.048 2257.92,487.733 2255.84,514.169 2253.76,605.812 2251.67,625.551 
  2249.59,561.753 2247.51,588.893 2245.43,580.081 2243.34,547.301 2241.26,548.006 2239.18,545.186 2237.09,542.014 2235.01,550.121 2232.93,614.271 2230.85,586.426 
  2228.76,545.539 2226.68,530.383 2224.6,538.137 2222.51,516.989 2220.43,510.996 2218.35,509.587 2216.26,506.414 2214.18,477.864 2212.1,415.123 2210.02,415.476 
  2207.93,440.149 2205.85,428.517 2203.77,390.803 2201.68,367.539 2199.6,349.563 2197.52,336.874 2195.44,271.666 2193.35,331.235 2191.27,384.458 2189.19,392.213 
  2187.1,393.975 2185.02,393.975 2182.94,398.205 2180.86,407.721 2178.77,414.418 2176.69,418.296 2174.61,437.329 2172.52,449.313 2170.44,462.003 2168.36,508.882 
  2166.27,556.818 2164.19,511.701 2162.11,503.947 2160.03,507.472 2157.94,520.513 2155.86,515.579 2153.78,539.899 2151.69,550.121 2149.61,503.947 2147.53,522.981 
  2145.45,494.078 2143.36,469.404 2141.28,469.052 2139.2,466.232 2137.11,509.587 2135.03,441.207 2132.95,411.599 2130.86,396.442 2128.78,379.171 2126.7,385.163 
  2124.62,387.278 2122.53,394.327 2120.45,418.296 2118.37,437.329 2116.28,417.943 2114.2,467.995 2112.12,467.29 2110.04,421.468 2107.95,448.256 2105.87,445.436 
  2103.79,459.535 2101.7,415.123 2099.62,387.63 2097.54,420.058 2095.46,402.434 2093.37,391.155 2091.29,364.367 2089.21,390.803 2087.12,407.017 2085.04,419.353 
  2082.96,418.648 2080.87,405.959 2078.79,441.207 2076.71,439.797 2074.63,437.329 2072.54,453.896 2070.46,474.339 2068.38,458.478 2066.29,474.692 2064.21,458.125 
  2062.13,475.749 2060.05,445.084 2057.96,439.444 2055.88,452.133 2053.8,463.06 2051.71,501.48 2049.63,483.503 2047.55,459.888 2045.47,473.634 2043.38,447.904 
  2041.3,421.468 2039.22,401.729 2037.13,452.838 2035.05,434.862 2032.97,430.28 2030.88,444.731 2028.8,459.888 2026.72,443.321 2024.64,422.878 2022.55,428.165 
  2020.47,422.525 2018.39,428.517 2016.3,445.436 2014.22,455.306 2012.14,449.666 2010.06,397.852 2007.97,414.771 2005.89,433.805 2003.81,423.23 2001.72,439.444 
  1999.64,408.779 1997.56,420.058 1995.47,390.803 1993.39,446.141 1991.31,441.911 1989.23,454.248 1987.14,342.514 1985.06,323.833 1982.98,289.29 1980.89,335.464 
  1978.81,350.621 1976.73,369.302 1974.65,401.024 1972.56,389.04 1970.48,469.757 1968.4,435.919 1966.31,460.24 1964.23,456.363 1962.15,462.355 1960.07,453.896 
  1957.98,465.175 1955.9,478.569 1953.82,519.456 1951.73,565.277 1949.65,565.277 1947.57,581.139 1945.48,559.638 1943.4,570.565 1941.32,539.899 1939.24,556.818 
  1937.15,498.66 1935.07,488.438 1932.99,459.183 1930.9,512.054 1928.82,564.925 1926.74,539.899 1924.66,554.703 1922.57,507.824 1920.49,548.711 1918.41,506.062 
  1916.32,445.789 1914.24,524.39 1912.16,550.474 1910.07,550.474 1907.99,605.46 1905.91,602.287 1903.83,614.976 1901.74,558.228 1899.66,532.145 1897.58,516.989 
  1895.49,420.411 1893.41,379.876 1891.33,415.828 1889.25,374.941 1887.16,381.286 1885.08,491.963 1883,500.422 1880.91,532.497 1878.83,566.335 1876.75,595.238 
  1874.67,548.359 1872.58,502.89 1870.5,505.709 1868.42,563.515 1866.33,575.147 1864.25,611.452 1862.17,608.984 1860.08,543.777 1858,600.525 1855.92,655.511 
  1853.84,798.968 1851.75,766.893 1849.67,786.279 1847.59,874.397 1845.5,826.813 1843.42,775 1841.34,769.713 1839.26,786.631 1837.17,814.829 1835.09,746.802 
  1833.01,708.03 1830.92,729.531 1828.84,770.418 1826.76,806.37 1824.68,816.592 1822.59,829.281 1820.51,778.172 1818.43,813.772 1816.34,822.936 1814.26,845.142 
  1812.18,872.635 1810.09,887.791 1808.01,856.421 1805.93,893.784 1803.85,954.762 1801.76,964.631 1799.68,986.837 1797.6,1008.34 1795.51,1016.8 1793.43,1070.73 
  1791.35,1083.41 1789.27,1068.26 1787.18,1040.06 1785.1,1037.59 1783.02,1017.85 1780.93,961.459 1778.85,939.605 1776.77,950.179 1774.68,958.286 1772.6,989.304 
  1770.52,964.631 1768.44,967.098 1766.35,993.534 1764.27,994.239 1762.19,1052.4 1760.1,1059.45 1758.02,1078.13 1755.94,1060.5 1753.86,1105.97 1751.77,1024.9 
  1749.69,1057.33 1747.61,1087.64 1745.52,1030.9 1743.44,1011.51 1741.36,989.657 1739.28,1024.55 1737.19,1049.58 1735.11,991.066 1733.03,997.763 1730.94,951.942 
  1728.86,1029.84 1726.78,1009.4 1724.69,999.526 1722.61,954.762 1720.53,978.025 1718.45,999.526 1716.36,1045.35 1714.28,1017.15 1712.2,999.173 1710.11,947.712 
  1708.03,947.36 1705.95,936.785 1703.87,912.465 1701.78,935.728 1699.7,860.651 1697.62,800.378 1695.53,797.558 1693.45,795.443 1691.37,797.206 1689.29,759.138 
  1687.2,772.18 1685.12,747.154 1683.04,767.95 1680.95,737.99 1678.87,786.279 1676.79,792.976 1674.7,777.115 1672.62,760.548 1670.54,784.164 1668.46,791.918 
  1666.37,801.435 1664.29,778.524 1662.21,744.334 1660.12,733.055 1658.04,764.425 1655.96,743.277 1653.88,730.235 1651.79,736.58 1649.71,741.162 1647.63,765.483 
  1645.54,763.016 1643.46,752.794 1641.38,761.958 1639.29,730.588 1637.21,738.695 1635.13,743.277 1633.05,692.168 1630.96,688.291 1628.88,700.98 1626.8,683.709 
  1624.71,676.307 1622.63,656.921 1620.55,651.634 1618.47,655.158 1616.38,636.125 1614.3,640.002 1612.22,641.412 1610.13,602.64 1608.05,606.869 1605.97,630.133 
  1603.89,652.339 1601.8,643.174 1599.72,672.43 1597.64,628.018 1595.55,660.093 1593.47,633.305 1591.39,648.109 1589.3,630.485 1587.22,632.6 1585.14,612.509 
  1583.06,605.107 1580.97,585.016 1578.89,597 1576.81,629.075 1574.72,610.394 1572.64,603.697 1570.56,612.862 1568.48,569.155 1566.39,545.539 1564.31,571.975 
  1562.23,561.753 1560.14,571.27 1558.06,610.042 1555.98,573.032 1553.89,598.763 1551.81,583.606 1549.73,553.646 1547.65,526.153 1545.56,547.654 1543.48,522.276 
  1541.4,491.61 1539.31,511.701 1537.23,521.218 1535.15,505.709 1533.07,515.579 1530.98,537.784 1528.9,553.293 1526.82,559.99 1524.73,560.343 1522.65,540.957 
  1520.57,540.604 1518.49,573.737 1516.4,575.147 1514.32,585.369 1512.24,581.844 1510.15,528.62 1508.07,543.072 1505.99,566.687 1503.9,583.254 1501.82,553.998 
  1499.74,538.137 1497.66,484.913 1495.57,504.652 1493.49,463.765 1491.41,519.103 1489.32,571.975 1487.24,487.381 1485.16,542.367 1483.08,593.475 1480.99,634.01 
  1478.91,686.529 1476.83,674.192 1474.74,678.774 1472.66,682.651 1470.58,720.719 1468.5,697.103 1466.41,703.095 1464.33,725.301 1462.25,736.58 1460.16,731.998 
  1458.08,719.661 1456,686.176 1453.91,714.374 1451.83,709.087 1449.75,752.441 1447.67,737.99 1445.58,703.8 1443.5,735.17 1441.42,762.663 1439.33,766.893 
  1437.25,783.107 1435.17,791.566 1433.09,760.196 1431,798.615 1428.92,816.239 1426.84,782.402 1424.75,760.196 1422.67,708.382 1420.59,716.489 1418.5,699.218 
  1416.42,681.594 1414.34,703.447 1412.26,728.473 1410.17,705.562 1408.09,727.063 1406.01,710.849 1403.92,686.176 1401.84,670.315 1399.76,649.166 1397.68,649.871 
  1395.59,613.566 1393.51,607.574 1391.43,622.378 1389.34,605.46 1387.26,618.854 1385.18,568.097 1383.1,623.083 1381.01,602.64 1378.93,629.78 1376.85,590.656 
  1374.76,635.42 1372.68,640.002 1370.6,652.691 1368.51,610.747 1366.43,605.812 1364.35,597 1362.27,540.604 1360.18,526.153 1358.1,521.218 1356.02,537.784 
  1353.93,528.268 1351.85,520.161 1349.77,462.355 1347.69,487.381 1345.6,462.707 1343.52,519.808 1341.44,530.735 1339.35,478.216 1337.27,487.733 1335.19,531.087 
  1333.1,463.765 1331.02,430.985 1328.94,478.569 1326.86,466.937 1324.77,476.454 1322.69,468.347 1320.61,446.141 1318.52,466.232 1316.44,427.108 1314.36,364.015 
  1312.28,421.82 1310.19,441.559 1308.11,442.969 1306.03,414.418 1303.94,494.783 1301.86,483.856 1299.78,487.381 1297.7,463.412 1295.61,427.108 1293.53,447.551 
  1291.45,440.502 1289.36,443.674 1287.28,440.854 1285.2,461.65 1283.11,474.339 1281.03,494.078 1278.95,524.038 1276.87,545.186 1274.78,585.016 1272.7,575.852 
  1270.62,585.721 1268.53,531.44 1266.45,550.826 1264.37,580.434 1262.29,629.428 1260.2,539.194 1258.12,560.695 1256.04,559.285 1253.95,609.337 1251.87,562.458 
  1249.79,551.883 1247.71,527.915 1245.62,562.81 1243.54,495.84 1241.46,486.323 1239.37,414.771 1237.29,472.224 1235.21,460.945 1233.12,478.921 1231.04,551.179 
  1228.96,616.386 1226.88,637.535 1224.79,611.804 1222.71,657.978 1220.63,672.782 1218.54,667.848 1216.46,623.436 1214.38,627.313 1212.3,606.165 1210.21,579.729 
  1208.13,595.943 1206.05,642.117 1203.96,655.511 1201.88,605.107 1199.8,619.911 1197.71,633.305 1195.63,555.408 1193.55,517.341 1191.47,556.466 1189.38,502.537 
  1187.3,486.676 1185.22,497.25 1183.13,446.846 1181.05,443.674 1178.97,439.444 1176.89,380.228 1174.8,378.819 1172.72,361.9 1170.64,382.343 1168.55,400.672 
  1166.47,453.191 1164.39,494.078 1162.31,472.577 1160.22,497.955 1158.14,462.003 1156.06,436.624 1153.97,384.458 1151.89,429.575 1149.81,378.466 1147.72,426.755 
  1145.64,386.221 1143.56,375.294 1141.48,354.145 1139.39,380.228 1137.31,404.902 1135.23,401.377 1133.14,392.918 1131.06,309.734 1128.98,346.038 1126.9,277.658 
  1124.81,332.292 1122.73,309.029 1120.65,366.834 1118.56,471.167 1116.48,479.979 1114.4,454.601 1112.31,494.783 1110.23,526.153 1108.15,555.408 1106.07,549.416 
  1103.98,505.004 1101.9,508.882 1099.82,518.398 1097.73,538.137 1095.65,555.408 1093.57,575.852 1091.49,547.301 1089.4,472.577 1087.32,470.109 1085.24,451.781 
  1083.15,420.058 1081.07,395.032 1078.99,418.296 1076.91,371.417 1074.82,448.609 1072.74,385.516 1070.66,350.621 1068.57,275.544 1066.49,243.116 1064.41,295.987 
  1062.32,389.393 1060.24,434.51 1058.16,422.173 1056.08,396.09 1053.99,469.757 1051.91,447.551 1049.83,239.591 1047.74,383.401 1045.66,421.82 1043.58,181.785 
  1041.5,162.047 1039.41,270.257 1037.33,402.082 1035.25,502.185 1033.16,643.527 1031.08,580.434 1029,539.899 1026.92,688.291 1024.83,764.778 1022.75,759.843 
  1020.67,819.411 1018.58,780.992 1016.5,814.829 1014.42,760.548 1012.33,769.36 1010.25,759.491 1008.17,704.505 1006.09,706.972 1004,738.695 1001.92,778.524 
  999.837,807.427 997.754,774.647 995.671,774.647 993.588,760.548 991.505,730.235 989.422,761.958 987.34,765.13 985.257,767.95 983.174,770.418 981.091,731.293 
  979.008,775.705 976.925,748.564 974.842,746.802 972.759,764.073 970.676,796.148 968.593,781.344 966.51,764.425 964.427,723.538 962.344,771.827 960.262,761.253 
  958.179,810.6 956.096,815.182 954.013,864.881 951.93,864.176 949.847,895.898 947.764,912.817 945.681,925.506 943.598,900.128 941.515,941.368 939.432,920.219 
  937.349,889.906 935.266,921.629 933.184,955.467 931.101,998.821 929.018,1036.89 926.935,1009.75 924.852,1044.64 922.769,1018.56 920.686,1037.95 918.603,1079.18 
  916.52,1106.33 914.437,1083.06 912.354,1093.99 910.271,1099.98 908.188,1113.73 906.105,1096.46 904.023,1096.1 901.94,1116.55 899.857,1160.61 897.774,1172.24 
  895.691,1165.89 893.608,1156.38 891.525,1168.01 889.442,1176.12 887.359,1181.4 885.276,1183.16 883.193,1166.6 881.11,1164.84 879.027,1177.53 876.945,1179.64 
  874.862,1165.89 872.779,1162.37 870.696,1162.72 868.613,1164.84 866.53,1141.57 864.447,1147.57 862.364,1150.38 860.281,1146.51 858.198,1162.72 856.115,1153.56 
  854.032,1155.67 851.949,1159.9 849.867,1166.6 847.784,1136.64 845.701,1164.13 843.618,1160.25 841.535,1190.21 839.452,1177.88 837.369,1203.26 835.286,1230.04 
  833.203,1230.04 831.12,1240.27 829.037,1232.86 826.954,1177.53 824.871,1179.29 822.789,1190.92 820.706,1192.68 818.623,1174 816.54,1176.47 814.457,1158.84 
  812.374,1168.36 810.291,1184.93 808.208,1195.5 806.125,1189.16 804.042,1192.33 801.959,1178.58 799.876,1179.99 797.793,1169.77 795.71,1182.46 793.628,1182.46 
  791.545,1159.9 789.462,1180.35 787.379,1171.53 785.296,1150.38 783.213,1183.16 781.13,1173.3 779.047,1139.11 776.964,1145.8 774.881,1133.47 772.798,1113.37 
  770.715,1114.78 768.632,1129.59 766.55,1144.75 764.467,1136.64 762.384,1135.58 760.301,1141.22 758.218,1157.08 756.135,1148.27 754.052,1142.63 751.969,1113.37 
  749.886,1116.19 747.803,1117.25 745.72,1105.62 743.637,1098.57 741.554,1119.37 739.472,1109.85 737.389,1121.83 735.306,1136.99 733.223,1154.97 731.14,1139.46 
  729.057,1149.33 726.974,1147.57 724.891,1141.57 722.808,1136.99 720.725,1144.75 718.642,1141.93 716.559,1128.53 714.476,1140.52 712.394,1164.84 710.311,1180.35 
  708.228,1174 706.145,1144.39 704.062,1139.11 701.979,1182.46 699.896,1173.3 697.813,1158.49 695.73,1170.12 693.647,1146.16 691.564,1127.47 689.481,1152.5 
  687.398,1162.02 685.316,1169.42 683.233,1175.06 681.15,1156.38 679.067,1151.09 676.984,1167.66 674.901,1137.7 672.818,1103.86 670.735,1122.19 668.652,1108.09 
  666.569,1122.89 664.486,1132.06 662.403,1169.07 660.32,1210.31 658.237,1206.08 656.155,1192.33 654.072,1183.16 651.989,1144.04 649.906,1130.29 647.823,1130.65 
  645.74,1151.09 643.657,1161.31 641.574,1156.73 639.491,1143.69 637.408,1137.34 635.325,1138.75 633.242,1111.97 631.159,1109.15 629.077,1093.28 626.994,1123.6 
  624.911,1128.53 622.828,1127.12 620.745,1127.47 618.662,1136.64 616.579,1119.37 614.496,1106.33 612.413,1085.18 610.33,1095.4 608.247,1060.15 606.164,1071.43 
  604.081,1129.94 601.999,1117.6 599.916,1118.66 597.833,1084.12 595.75,1081.65 593.667,1083.06 591.584,1100.69 589.501,1100.33 587.418,1103.15 585.335,1104.92 
  583.252,1127.47 581.169,1127.47 579.086,1157.43 577.003,1152.5 574.921,1147.92 572.838,1162.37 570.755,1188.8 568.672,1188.1 566.589,1186.69 564.506,1204.67 
  562.423,1235.33 560.34,1228.63 558.257,1211.72 556.174,1202.2 554.091,1182.46 552.008,1204.31 549.925,1225.81 547.843,1231.81 545.76,1196.56 543.677,1201.85 
  541.594,1189.86 539.511,1169.77 537.428,1209.25 535.345,1179.29 533.262,1206.43 531.179,1199.73 529.096,1231.1 527.013,1222.64 524.93,1204.67 522.847,1193.39 
  520.764,1164.13 518.682,1191.62 516.599,1197.97 514.516,1184.93 512.433,1170.12 510.35,1139.11 508.267,1144.04 506.184,1123.6 504.101,1127.12 502.018,1101.74 
  499.935,1071.78 497.852,1079.54 495.769,1079.18 493.686,1082 491.604,1071.43 489.521,1093.99 487.438,1091.17 485.355,1087.64 483.272,1126.42 481.189,1145.45 
  479.106,1104.92 477.023,1096.1 474.94,1051.69 472.857,1097.16 470.774,1116.19 468.691,1102.1 466.608,1079.54 464.526,1087.29 462.443,1099.98 460.36,1118.31 
  458.277,1066.85 456.194,1066.85 454.111,1084.12 452.028,1050.63 449.945,1041.82 447.862,1110.91 445.779,1125.36 443.696,1110.56 441.613,1095.75 439.53,1052.75 
  437.448,1066.85 435.365,1012.21 433.282,999.526 431.199,1025.96 429.116,1034.42 427.033,1085.18 424.95,1111.61 422.867,1114.78 420.784,1141.93 418.701,1133.47 
  416.618,1136.29 414.535,1168.36 412.452,1159.9 410.37,1131.7 408.287,1136.99 406.204,1154.97 404.121,1197.26 402.038,1215.24 399.955,1249.78 397.872,1216.65 
  395.789,1222.99 393.706,1238.15 391.623,1273.4 389.54,1262.82 387.457,1295.25 385.374,1284.33 383.291,1296.31 381.209,1303.01 379.126,1330.15 377.043,1301.24 
  374.96,1310.76 372.877,1308.65 370.794,1334.38 368.711,1336.84 366.628,1324.86 364.545,1348.12 362.462,1340.02 360.379,1327.68 358.296,1348.12 356.213,1335.43 
  354.131,1320.98 352.048,1299.13 349.965,1299.13 347.882,1308.65 345.799,1338.25 343.716,1335.43 341.633,1293.84 339.55,1305.47 337.467,1301.24 335.384,1274.46 
  333.301,1271.28 331.218,1296.31 329.135,1275.16 327.053,1295.25 324.97,1326.62 322.887,1330.15 320.804,1353.76 318.721,1356.93 316.638,1375.26 314.555,1381.61 
  312.472,1397.82 310.389,1392.89 308.306,1399.23 306.223,1385.84 304.14,1372.09 302.057,1386.9 299.975,1404.87 297.892,1399.58 295.809,1404.17 293.726,1383.72 
  291.643,1409.81 289.56,1390.77 287.477,1388.66 285.394,1379.14 283.311,1370.68 281.228,1403.11 279.145,1378.44 277.062,1362.57 274.979,1367.86 272.897,1336.49 
  270.814,1360.81 268.731,1375.26 266.648,1392.18 264.565,1379.85 262.482,1363.98 260.399,1343.54 258.316,1342.13 256.233,1373.5 254.15,1376.32 252.067,1344.95 
  249.984,1344.25 247.901,1370.33 245.818,1346.01 243.736,1325.21 241.653,1317.81 239.57,1342.84 237.487,1375.97 235.404,1382.67 233.321,1401.35 231.238,1407.69 
  229.155,1437.3 227.072,1439.77 224.989,1416.5 222.906,1389.01 220.823,1381.61 218.74,1447.87 216.658,1424.61 214.575,1399.94 212.492,1379.14 210.409,1366.45 
  
  "/>
<path clip-path="url(#clip240)" d="
M1936.8 327.952 L2280.76 327.952 L2280.76 206.992 L1936.8 206.992  Z
  " fill="#ffffff" fill-rule="evenodd" fill-opacity="1"/>
<polyline clip-path="url(#clip240)" style="stroke:#000000; stroke-width:4; stroke-opacity:1; fill:none" points="
  1936.8,327.952 2280.76,327.952 2280.76,206.992 1936.8,206.992 1936.8,327.952 
  "/>
<polyline clip-path="url(#clip240)" style="stroke:#009af9; stroke-width:4; stroke-opacity:1; fill:none" points="
  1960.8,267.472 2104.8,267.472 
  "/>
<path clip-path="url(#clip240)" d="M 0 0 M2140.7 261.812 Q2137.27 261.812 2135.28 264.498 Q2133.29 267.16 2133.29 271.812 Q2133.29 276.465 2135.26 279.15 Q2137.25 281.812 2140.7 281.812 Q2144.1 281.812 2146.09 279.127 Q2148.08 276.442 2148.08 271.812 Q2148.08 267.206 2146.09 264.521 Q2144.1 261.812 2140.7 261.812 M2140.7 258.201 Q2146.25 258.201 2149.42 261.812 Q2152.59 265.424 2152.59 271.812 Q2152.59 278.178 2149.42 281.812 Q2146.25 285.423 2140.7 285.423 Q2135.12 285.423 2131.95 281.812 Q2128.8 278.178 2128.8 271.812 Q2128.8 265.424 2131.95 261.812 Q2135.12 258.201 2140.7 258.201 Z" fill="#000000" fill-rule="evenodd" fill-opacity="1" /><path clip-path="url(#clip240)" d="M 0 0 M2161.18 280.863 L2161.18 294.613 L2156.9 294.613 L2156.9 258.826 L2161.18 258.826 L2161.18 262.762 Q2162.52 260.447 2164.56 259.336 Q2166.62 258.201 2169.47 258.201 Q2174.19 258.201 2177.13 261.951 Q2180.09 265.701 2180.09 271.812 Q2180.09 277.923 2177.13 281.673 Q2174.19 285.423 2169.47 285.423 Q2166.62 285.423 2164.56 284.312 Q2162.52 283.178 2161.18 280.863 M2175.67 271.812 Q2175.67 267.113 2173.73 264.451 Q2171.81 261.766 2168.43 261.766 Q2165.05 261.766 2163.1 264.451 Q2161.18 267.113 2161.18 271.812 Q2161.18 276.511 2163.1 279.197 Q2165.05 281.859 2168.43 281.859 Q2171.81 281.859 2173.73 279.197 Q2175.67 276.511 2175.67 271.812 Z" fill="#000000" fill-rule="evenodd" fill-opacity="1" /><path clip-path="url(#clip240)" d="M 0 0 M2206.74 270.724 L2206.74 272.808 L2187.15 272.808 Q2187.43 277.206 2189.79 279.521 Q2192.18 281.812 2196.41 281.812 Q2198.87 281.812 2201.16 281.21 Q2203.47 280.609 2205.74 279.405 L2205.74 283.433 Q2203.45 284.405 2201.04 284.914 Q2198.64 285.423 2196.16 285.423 Q2189.96 285.423 2186.32 281.812 Q2182.71 278.201 2182.71 272.044 Q2182.71 265.678 2186.14 261.951 Q2189.58 258.201 2195.42 258.201 Q2200.65 258.201 2203.68 261.581 Q2206.74 264.937 2206.74 270.724 M2202.48 269.474 Q2202.43 265.979 2200.51 263.896 Q2198.61 261.812 2195.46 261.812 Q2191.9 261.812 2189.75 263.826 Q2187.62 265.84 2187.29 269.498 L2202.48 269.474 Z" fill="#000000" fill-rule="evenodd" fill-opacity="1" /><path clip-path="url(#clip240)" d="M 0 0 M2232.76 269.104 L2232.76 284.752 L2228.5 284.752 L2228.5 269.243 Q2228.5 265.562 2227.06 263.734 Q2225.63 261.905 2222.76 261.905 Q2219.31 261.905 2217.32 264.104 Q2215.33 266.303 2215.33 270.099 L2215.33 284.752 L2211.04 284.752 L2211.04 258.826 L2215.33 258.826 L2215.33 262.854 Q2216.85 260.516 2218.91 259.359 Q2221 258.201 2223.71 258.201 Q2228.17 258.201 2230.46 260.979 Q2232.76 263.734 2232.76 269.104 Z" fill="#000000" fill-rule="evenodd" fill-opacity="1" /></svg>
