<?xml version="1.0" encoding="utf-8"?>
<svg xmlns="http://www.w3.org/2000/svg" xmlns:xlink="http://www.w3.org/1999/xlink" width="600" height="400" viewBox="0 0 2400 1600">
<defs>
  <clipPath id="clip280">
    <rect x="0" y="0" width="2400" height="1600"/>
  </clipPath>
</defs>
<path clip-path="url(#clip280)" d="
M0 1600 L2400 1600 L2400 0 L0 0  Z
  " fill="#ffffff" fill-rule="evenodd" fill-opacity="1"/>
<defs>
  <clipPath id="clip281">
    <rect x="480" y="0" width="1681" height="1600"/>
  </clipPath>
</defs>
<path clip-path="url(#clip280)" d="
M187.385 1486.45 L2352.76 1486.45 L2352.76 123.472 L187.385 123.472  Z
  " fill="#ffffff" fill-rule="evenodd" fill-opacity="1"/>
<defs>
  <clipPath id="clip282">
    <rect x="187" y="123" width="2166" height="1364"/>
  </clipPath>
</defs>
<polyline clip-path="url(#clip282)" style="stroke:#000000; stroke-width:2; stroke-opacity:0.1; fill:none" points="
  249.687,1486.45 249.687,123.472 
  "/>
<polyline clip-path="url(#clip282)" style="stroke:#000000; stroke-width:2; stroke-opacity:0.1; fill:none" points="
  621.013,1486.45 621.013,123.472 
  "/>
<polyline clip-path="url(#clip282)" style="stroke:#000000; stroke-width:2; stroke-opacity:0.1; fill:none" points="
  993.356,1486.45 993.356,123.472 
  "/>
<polyline clip-path="url(#clip282)" style="stroke:#000000; stroke-width:2; stroke-opacity:0.1; fill:none" points="
  1364.68,1486.45 1364.68,123.472 
  "/>
<polyline clip-path="url(#clip282)" style="stroke:#000000; stroke-width:2; stroke-opacity:0.1; fill:none" points="
  1736.01,1486.45 1736.01,123.472 
  "/>
<polyline clip-path="url(#clip282)" style="stroke:#000000; stroke-width:2; stroke-opacity:0.1; fill:none" points="
  2107.33,1486.45 2107.33,123.472 
  "/>
<polyline clip-path="url(#clip282)" style="stroke:#000000; stroke-width:2; stroke-opacity:0.1; fill:none" points="
  187.385,1340.04 2352.76,1340.04 
  "/>
<polyline clip-path="url(#clip282)" style="stroke:#000000; stroke-width:2; stroke-opacity:0.1; fill:none" points="
  187.385,1158.76 2352.76,1158.76 
  "/>
<polyline clip-path="url(#clip282)" style="stroke:#000000; stroke-width:2; stroke-opacity:0.1; fill:none" points="
  187.385,977.472 2352.76,977.472 
  "/>
<polyline clip-path="url(#clip282)" style="stroke:#000000; stroke-width:2; stroke-opacity:0.1; fill:none" points="
  187.385,796.186 2352.76,796.186 
  "/>
<polyline clip-path="url(#clip282)" style="stroke:#000000; stroke-width:2; stroke-opacity:0.1; fill:none" points="
  187.385,614.9 2352.76,614.9 
  "/>
<polyline clip-path="url(#clip282)" style="stroke:#000000; stroke-width:2; stroke-opacity:0.1; fill:none" points="
  187.385,433.614 2352.76,433.614 
  "/>
<polyline clip-path="url(#clip282)" style="stroke:#000000; stroke-width:2; stroke-opacity:0.1; fill:none" points="
  187.385,252.327 2352.76,252.327 
  "/>
<polyline clip-path="url(#clip280)" style="stroke:#000000; stroke-width:4; stroke-opacity:1; fill:none" points="
  187.385,1486.45 2352.76,1486.45 
  "/>
<polyline clip-path="url(#clip280)" style="stroke:#000000; stroke-width:4; stroke-opacity:1; fill:none" points="
  187.385,1486.45 187.385,123.472 
  "/>
<polyline clip-path="url(#clip280)" style="stroke:#000000; stroke-width:4; stroke-opacity:1; fill:none" points="
  249.687,1486.45 249.687,1470.09 
  "/>
<polyline clip-path="url(#clip280)" style="stroke:#000000; stroke-width:4; stroke-opacity:1; fill:none" points="
  621.013,1486.45 621.013,1470.09 
  "/>
<polyline clip-path="url(#clip280)" style="stroke:#000000; stroke-width:4; stroke-opacity:1; fill:none" points="
  993.356,1486.45 993.356,1470.09 
  "/>
<polyline clip-path="url(#clip280)" style="stroke:#000000; stroke-width:4; stroke-opacity:1; fill:none" points="
  1364.68,1486.45 1364.68,1470.09 
  "/>
<polyline clip-path="url(#clip280)" style="stroke:#000000; stroke-width:4; stroke-opacity:1; fill:none" points="
  1736.01,1486.45 1736.01,1470.09 
  "/>
<polyline clip-path="url(#clip280)" style="stroke:#000000; stroke-width:4; stroke-opacity:1; fill:none" points="
  2107.33,1486.45 2107.33,1470.09 
  "/>
<polyline clip-path="url(#clip280)" style="stroke:#000000; stroke-width:4; stroke-opacity:1; fill:none" points="
  187.385,1340.04 213.37,1340.04 
  "/>
<polyline clip-path="url(#clip280)" style="stroke:#000000; stroke-width:4; stroke-opacity:1; fill:none" points="
  187.385,1158.76 213.37,1158.76 
  "/>
<polyline clip-path="url(#clip280)" style="stroke:#000000; stroke-width:4; stroke-opacity:1; fill:none" points="
  187.385,977.472 213.37,977.472 
  "/>
<polyline clip-path="url(#clip280)" style="stroke:#000000; stroke-width:4; stroke-opacity:1; fill:none" points="
  187.385,796.186 213.37,796.186 
  "/>
<polyline clip-path="url(#clip280)" style="stroke:#000000; stroke-width:4; stroke-opacity:1; fill:none" points="
  187.385,614.9 213.37,614.9 
  "/>
<polyline clip-path="url(#clip280)" style="stroke:#000000; stroke-width:4; stroke-opacity:1; fill:none" points="
  187.385,433.614 213.37,433.614 
  "/>
<polyline clip-path="url(#clip280)" style="stroke:#000000; stroke-width:4; stroke-opacity:1; fill:none" points="
  187.385,252.327 213.37,252.327 
  "/>
<path clip-path="url(#clip280)" d="M 0 0 M137.338 1535.98 L153.657 1535.98 L153.657 1539.92 L131.713 1539.92 L131.713 1535.98 Q134.375 1533.23 138.958 1528.6 Q143.564 1523.95 144.745 1522.61 Q146.99 1520.08 147.87 1518.35 Q148.773 1516.59 148.773 1514.9 Q148.773 1512.14 146.828 1510.41 Q144.907 1508.67 141.805 1508.67 Q139.606 1508.67 137.152 1509.43 Q134.722 1510.2 131.944 1511.75 L131.944 1507.03 Q134.768 1505.89 137.222 1505.31 Q139.676 1504.73 141.713 1504.73 Q147.083 1504.73 150.277 1507.42 Q153.472 1510.11 153.472 1514.6 Q153.472 1516.73 152.662 1518.65 Q151.875 1520.54 149.768 1523.14 Q149.189 1523.81 146.088 1527.03 Q142.986 1530.22 137.338 1535.98 Z" fill="#000000" fill-rule="evenodd" fill-opacity="1" /><path clip-path="url(#clip280)" d="M 0 0 M168.726 1508.44 Q165.115 1508.44 163.287 1512 Q161.481 1515.55 161.481 1522.67 Q161.481 1529.78 163.287 1533.35 Q165.115 1536.89 168.726 1536.89 Q172.361 1536.89 174.166 1533.35 Q175.995 1529.78 175.995 1522.67 Q175.995 1515.55 174.166 1512 Q172.361 1508.44 168.726 1508.44 M168.726 1504.73 Q174.536 1504.73 177.592 1509.34 Q180.671 1513.92 180.671 1522.67 Q180.671 1531.4 177.592 1536.01 Q174.536 1540.59 168.726 1540.59 Q162.916 1540.59 159.837 1536.01 Q156.782 1531.4 156.782 1522.67 Q156.782 1513.92 159.837 1509.34 Q162.916 1504.73 168.726 1504.73 Z" fill="#000000" fill-rule="evenodd" fill-opacity="1" /><path clip-path="url(#clip280)" d="M 0 0 M186.55 1535.98 L194.189 1535.98 L194.189 1509.62 L185.879 1511.29 L185.879 1507.03 L194.143 1505.36 L198.819 1505.36 L198.819 1535.98 L206.458 1535.98 L206.458 1539.92 L186.55 1539.92 L186.55 1535.98 Z" fill="#000000" fill-rule="evenodd" fill-opacity="1" /><path clip-path="url(#clip280)" d="M 0 0 M211.573 1505.36 L229.93 1505.36 L229.93 1509.3 L215.856 1509.3 L215.856 1517.77 Q216.874 1517.42 217.893 1517.26 Q218.911 1517.07 219.93 1517.07 Q225.717 1517.07 229.096 1520.24 Q232.476 1523.42 232.476 1528.83 Q232.476 1534.41 229.004 1537.51 Q225.532 1540.59 219.212 1540.59 Q217.036 1540.59 214.768 1540.22 Q212.522 1539.85 210.115 1539.11 L210.115 1534.41 Q212.198 1535.54 214.421 1536.1 Q216.643 1536.66 219.12 1536.66 Q223.124 1536.66 225.462 1534.55 Q227.8 1532.44 227.8 1528.83 Q227.8 1525.22 225.462 1523.11 Q223.124 1521.01 219.12 1521.01 Q217.245 1521.01 215.37 1521.42 Q213.518 1521.84 211.573 1522.72 L211.573 1505.36 Z" fill="#000000" fill-rule="evenodd" fill-opacity="1" /><path clip-path="url(#clip280)" d="M 0 0 M234.791 1525.04 L247.268 1525.04 L247.268 1528.83 L234.791 1528.83 L234.791 1525.04 Z" fill="#000000" fill-rule="evenodd" fill-opacity="1" /><path clip-path="url(#clip280)" d="M 0 0 M262.337 1508.44 Q258.726 1508.44 256.897 1512 Q255.092 1515.55 255.092 1522.67 Q255.092 1529.78 256.897 1533.35 Q258.726 1536.89 262.337 1536.89 Q265.971 1536.89 267.777 1533.35 Q269.605 1529.78 269.605 1522.67 Q269.605 1515.55 267.777 1512 Q265.971 1508.44 262.337 1508.44 M262.337 1504.73 Q268.147 1504.73 271.203 1509.34 Q274.281 1513.92 274.281 1522.67 Q274.281 1531.4 271.203 1536.01 Q268.147 1540.59 262.337 1540.59 Q256.527 1540.59 253.448 1536.01 Q250.393 1531.4 250.393 1522.67 Q250.393 1513.92 253.448 1509.34 Q256.527 1504.73 262.337 1504.73 Z" fill="#000000" fill-rule="evenodd" fill-opacity="1" /><path clip-path="url(#clip280)" d="M 0 0 M280.161 1535.98 L287.8 1535.98 L287.8 1509.62 L279.49 1511.29 L279.49 1507.03 L287.753 1505.36 L292.429 1505.36 L292.429 1535.98 L300.068 1535.98 L300.068 1539.92 L280.161 1539.92 L280.161 1535.98 Z" fill="#000000" fill-rule="evenodd" fill-opacity="1" /><path clip-path="url(#clip280)" d="M 0 0 M302.383 1525.04 L314.86 1525.04 L314.86 1528.83 L302.383 1528.83 L302.383 1525.04 Z" fill="#000000" fill-rule="evenodd" fill-opacity="1" /><path clip-path="url(#clip280)" d="M 0 0 M329.929 1508.44 Q326.318 1508.44 324.489 1512 Q322.684 1515.55 322.684 1522.67 Q322.684 1529.78 324.489 1533.35 Q326.318 1536.89 329.929 1536.89 Q333.563 1536.89 335.369 1533.35 Q337.198 1529.78 337.198 1522.67 Q337.198 1515.55 335.369 1512 Q333.563 1508.44 329.929 1508.44 M329.929 1504.73 Q335.739 1504.73 338.795 1509.34 Q341.874 1513.92 341.874 1522.67 Q341.874 1531.4 338.795 1536.01 Q335.739 1540.59 329.929 1540.59 Q324.119 1540.59 321.04 1536.01 Q317.985 1531.4 317.985 1522.67 Q317.985 1513.92 321.04 1509.34 Q324.119 1504.73 329.929 1504.73 Z" fill="#000000" fill-rule="evenodd" fill-opacity="1" /><path clip-path="url(#clip280)" d="M 0 0 M347.753 1535.98 L355.392 1535.98 L355.392 1509.62 L347.082 1511.29 L347.082 1507.03 L355.346 1505.36 L360.022 1505.36 L360.022 1535.98 L367.66 1535.98 L367.66 1539.92 L347.753 1539.92 L347.753 1535.98 Z" fill="#000000" fill-rule="evenodd" fill-opacity="1" /><path clip-path="url(#clip280)" d="M 0 0 M508.085 1535.98 L524.404 1535.98 L524.404 1539.92 L502.46 1539.92 L502.46 1535.98 Q505.122 1533.23 509.705 1528.6 Q514.312 1523.95 515.492 1522.61 Q517.738 1520.08 518.617 1518.35 Q519.52 1516.59 519.52 1514.9 Q519.52 1512.14 517.576 1510.41 Q515.654 1508.67 512.553 1508.67 Q510.354 1508.67 507.9 1509.43 Q505.469 1510.2 502.692 1511.75 L502.692 1507.03 Q505.516 1505.89 507.969 1505.31 Q510.423 1504.73 512.46 1504.73 Q517.83 1504.73 521.025 1507.42 Q524.219 1510.11 524.219 1514.6 Q524.219 1516.73 523.409 1518.65 Q522.622 1520.54 520.516 1523.14 Q519.937 1523.81 516.835 1527.03 Q513.733 1530.22 508.085 1535.98 Z" fill="#000000" fill-rule="evenodd" fill-opacity="1" /><path clip-path="url(#clip280)" d="M 0 0 M539.474 1508.44 Q535.863 1508.44 534.034 1512 Q532.228 1515.55 532.228 1522.67 Q532.228 1529.78 534.034 1533.35 Q535.863 1536.89 539.474 1536.89 Q543.108 1536.89 544.914 1533.35 Q546.742 1529.78 546.742 1522.67 Q546.742 1515.55 544.914 1512 Q543.108 1508.44 539.474 1508.44 M539.474 1504.73 Q545.284 1504.73 548.339 1509.34 Q551.418 1513.92 551.418 1522.67 Q551.418 1531.4 548.339 1536.01 Q545.284 1540.59 539.474 1540.59 Q533.664 1540.59 530.585 1536.01 Q527.529 1531.4 527.529 1522.67 Q527.529 1513.92 530.585 1509.34 Q533.664 1504.73 539.474 1504.73 Z" fill="#000000" fill-rule="evenodd" fill-opacity="1" /><path clip-path="url(#clip280)" d="M 0 0 M557.298 1535.98 L564.937 1535.98 L564.937 1509.62 L556.626 1511.29 L556.626 1507.03 L564.89 1505.36 L569.566 1505.36 L569.566 1535.98 L577.205 1535.98 L577.205 1539.92 L557.298 1539.92 L557.298 1535.98 Z" fill="#000000" fill-rule="evenodd" fill-opacity="1" /><path clip-path="url(#clip280)" d="M 0 0 M592.853 1520.78 Q589.705 1520.78 587.853 1522.93 Q586.024 1525.08 586.024 1528.83 Q586.024 1532.56 587.853 1534.73 Q589.705 1536.89 592.853 1536.89 Q596.001 1536.89 597.83 1534.73 Q599.682 1532.56 599.682 1528.83 Q599.682 1525.08 597.83 1522.93 Q596.001 1520.78 592.853 1520.78 M602.135 1506.12 L602.135 1510.38 Q600.376 1509.55 598.571 1509.11 Q596.788 1508.67 595.029 1508.67 Q590.399 1508.67 587.946 1511.8 Q585.515 1514.92 585.168 1521.24 Q586.534 1519.23 588.594 1518.16 Q590.654 1517.07 593.131 1517.07 Q598.339 1517.07 601.348 1520.24 Q604.381 1523.39 604.381 1528.83 Q604.381 1534.16 601.233 1537.37 Q598.085 1540.59 592.853 1540.59 Q586.858 1540.59 583.687 1536.01 Q580.515 1531.4 580.515 1522.67 Q580.515 1514.48 584.404 1509.62 Q588.293 1504.73 594.844 1504.73 Q596.603 1504.73 598.386 1505.08 Q600.191 1505.43 602.135 1506.12 Z" fill="#000000" fill-rule="evenodd" fill-opacity="1" /><path clip-path="url(#clip280)" d="M 0 0 M606.696 1525.04 L619.172 1525.04 L619.172 1528.83 L606.696 1528.83 L606.696 1525.04 Z" fill="#000000" fill-rule="evenodd" fill-opacity="1" /><path clip-path="url(#clip280)" d="M 0 0 M634.242 1508.44 Q630.631 1508.44 628.802 1512 Q626.996 1515.55 626.996 1522.67 Q626.996 1529.78 628.802 1533.35 Q630.631 1536.89 634.242 1536.89 Q637.876 1536.89 639.682 1533.35 Q641.51 1529.78 641.51 1522.67 Q641.51 1515.55 639.682 1512 Q637.876 1508.44 634.242 1508.44 M634.242 1504.73 Q640.052 1504.73 643.107 1509.34 Q646.186 1513.92 646.186 1522.67 Q646.186 1531.4 643.107 1536.01 Q640.052 1540.59 634.242 1540.59 Q628.432 1540.59 625.353 1536.01 Q622.297 1531.4 622.297 1522.67 Q622.297 1513.92 625.353 1509.34 Q628.432 1504.73 634.242 1504.73 Z" fill="#000000" fill-rule="evenodd" fill-opacity="1" /><path clip-path="url(#clip280)" d="M 0 0 M652.066 1535.98 L659.705 1535.98 L659.705 1509.62 L651.394 1511.29 L651.394 1507.03 L659.658 1505.36 L664.334 1505.36 L664.334 1535.98 L671.973 1535.98 L671.973 1539.92 L652.066 1539.92 L652.066 1535.98 Z" fill="#000000" fill-rule="evenodd" fill-opacity="1" /><path clip-path="url(#clip280)" d="M 0 0 M674.288 1525.04 L686.765 1525.04 L686.765 1528.83 L674.288 1528.83 L674.288 1525.04 Z" fill="#000000" fill-rule="evenodd" fill-opacity="1" /><path clip-path="url(#clip280)" d="M 0 0 M701.834 1508.44 Q698.223 1508.44 696.394 1512 Q694.589 1515.55 694.589 1522.67 Q694.589 1529.78 696.394 1533.35 Q698.223 1536.89 701.834 1536.89 Q705.468 1536.89 707.274 1533.35 Q709.103 1529.78 709.103 1522.67 Q709.103 1515.55 707.274 1512 Q705.468 1508.44 701.834 1508.44 M701.834 1504.73 Q707.644 1504.73 710.7 1509.34 Q713.778 1513.92 713.778 1522.67 Q713.778 1531.4 710.7 1536.01 Q707.644 1540.59 701.834 1540.59 Q696.024 1540.59 692.945 1536.01 Q689.89 1531.4 689.89 1522.67 Q689.89 1513.92 692.945 1509.34 Q696.024 1504.73 701.834 1504.73 Z" fill="#000000" fill-rule="evenodd" fill-opacity="1" /><path clip-path="url(#clip280)" d="M 0 0 M719.658 1535.98 L727.297 1535.98 L727.297 1509.62 L718.987 1511.29 L718.987 1507.03 L727.251 1505.36 L731.926 1505.36 L731.926 1535.98 L739.565 1535.98 L739.565 1539.92 L719.658 1539.92 L719.658 1535.98 Z" fill="#000000" fill-rule="evenodd" fill-opacity="1" /><path clip-path="url(#clip280)" d="M 0 0 M880.961 1535.98 L897.28 1535.98 L897.28 1539.92 L875.336 1539.92 L875.336 1535.98 Q877.998 1533.23 882.581 1528.6 Q887.188 1523.95 888.368 1522.61 Q890.614 1520.08 891.493 1518.35 Q892.396 1516.59 892.396 1514.9 Q892.396 1512.14 890.452 1510.41 Q888.53 1508.67 885.429 1508.67 Q883.229 1508.67 880.776 1509.43 Q878.345 1510.2 875.567 1511.75 L875.567 1507.03 Q878.392 1505.89 880.845 1505.31 Q883.299 1504.73 885.336 1504.73 Q890.706 1504.73 893.901 1507.42 Q897.095 1510.11 897.095 1514.6 Q897.095 1516.73 896.285 1518.65 Q895.498 1520.54 893.391 1523.14 Q892.813 1523.81 889.711 1527.03 Q886.609 1530.22 880.961 1535.98 Z" fill="#000000" fill-rule="evenodd" fill-opacity="1" /><path clip-path="url(#clip280)" d="M 0 0 M912.35 1508.44 Q908.739 1508.44 906.91 1512 Q905.104 1515.55 905.104 1522.67 Q905.104 1529.78 906.91 1533.35 Q908.739 1536.89 912.35 1536.89 Q915.984 1536.89 917.789 1533.35 Q919.618 1529.78 919.618 1522.67 Q919.618 1515.55 917.789 1512 Q915.984 1508.44 912.35 1508.44 M912.35 1504.73 Q918.16 1504.73 921.215 1509.34 Q924.294 1513.92 924.294 1522.67 Q924.294 1531.4 921.215 1536.01 Q918.16 1540.59 912.35 1540.59 Q906.54 1540.59 903.461 1536.01 Q900.405 1531.4 900.405 1522.67 Q900.405 1513.92 903.461 1509.34 Q906.54 1504.73 912.35 1504.73 Z" fill="#000000" fill-rule="evenodd" fill-opacity="1" /><path clip-path="url(#clip280)" d="M 0 0 M930.174 1535.98 L937.813 1535.98 L937.813 1509.62 L929.502 1511.29 L929.502 1507.03 L937.766 1505.36 L942.442 1505.36 L942.442 1535.98 L950.081 1535.98 L950.081 1539.92 L930.174 1539.92 L930.174 1535.98 Z" fill="#000000" fill-rule="evenodd" fill-opacity="1" /><path clip-path="url(#clip280)" d="M 0 0 M953.97 1505.36 L976.192 1505.36 L976.192 1507.35 L963.646 1539.92 L958.761 1539.92 L970.567 1509.3 L953.97 1509.3 L953.97 1505.36 Z" fill="#000000" fill-rule="evenodd" fill-opacity="1" /><path clip-path="url(#clip280)" d="M 0 0 M978.507 1525.04 L990.984 1525.04 L990.984 1528.83 L978.507 1528.83 L978.507 1525.04 Z" fill="#000000" fill-rule="evenodd" fill-opacity="1" /><path clip-path="url(#clip280)" d="M 0 0 M1006.05 1508.44 Q1002.44 1508.44 1000.61 1512 Q998.808 1515.55 998.808 1522.67 Q998.808 1529.78 1000.61 1533.35 Q1002.44 1536.89 1006.05 1536.89 Q1009.69 1536.89 1011.49 1533.35 Q1013.32 1529.78 1013.32 1522.67 Q1013.32 1515.55 1011.49 1512 Q1009.69 1508.44 1006.05 1508.44 M1006.05 1504.73 Q1011.86 1504.73 1014.92 1509.34 Q1018 1513.92 1018 1522.67 Q1018 1531.4 1014.92 1536.01 Q1011.86 1540.59 1006.05 1540.59 Q1000.24 1540.59 997.164 1536.01 Q994.109 1531.4 994.109 1522.67 Q994.109 1513.92 997.164 1509.34 Q1000.24 1504.73 1006.05 1504.73 Z" fill="#000000" fill-rule="evenodd" fill-opacity="1" /><path clip-path="url(#clip280)" d="M 0 0 M1023.88 1535.98 L1031.52 1535.98 L1031.52 1509.62 L1023.21 1511.29 L1023.21 1507.03 L1031.47 1505.36 L1036.15 1505.36 L1036.15 1535.98 L1043.78 1535.98 L1043.78 1539.92 L1023.88 1539.92 L1023.88 1535.98 Z" fill="#000000" fill-rule="evenodd" fill-opacity="1" /><path clip-path="url(#clip280)" d="M 0 0 M1046.1 1525.04 L1058.58 1525.04 L1058.58 1528.83 L1046.1 1528.83 L1046.1 1525.04 Z" fill="#000000" fill-rule="evenodd" fill-opacity="1" /><path clip-path="url(#clip280)" d="M 0 0 M1073.65 1508.44 Q1070.03 1508.44 1068.21 1512 Q1066.4 1515.55 1066.4 1522.67 Q1066.4 1529.78 1068.21 1533.35 Q1070.03 1536.89 1073.65 1536.89 Q1077.28 1536.89 1079.08 1533.35 Q1080.91 1529.78 1080.91 1522.67 Q1080.91 1515.55 1079.08 1512 Q1077.28 1508.44 1073.65 1508.44 M1073.65 1504.73 Q1079.46 1504.73 1082.51 1509.34 Q1085.59 1513.92 1085.59 1522.67 Q1085.59 1531.4 1082.51 1536.01 Q1079.46 1540.59 1073.65 1540.59 Q1067.83 1540.59 1064.76 1536.01 Q1061.7 1531.4 1061.7 1522.67 Q1061.7 1513.92 1064.76 1509.34 Q1067.83 1504.73 1073.65 1504.73 Z" fill="#000000" fill-rule="evenodd" fill-opacity="1" /><path clip-path="url(#clip280)" d="M 0 0 M1091.47 1535.98 L1099.11 1535.98 L1099.11 1509.62 L1090.8 1511.29 L1090.8 1507.03 L1099.06 1505.36 L1103.74 1505.36 L1103.74 1535.98 L1111.38 1535.98 L1111.38 1539.92 L1091.47 1539.92 L1091.47 1535.98 Z" fill="#000000" fill-rule="evenodd" fill-opacity="1" /><path clip-path="url(#clip280)" d="M 0 0 M1251.88 1535.98 L1268.2 1535.98 L1268.2 1539.92 L1246.26 1539.92 L1246.26 1535.98 Q1248.92 1533.23 1253.5 1528.6 Q1258.11 1523.95 1259.29 1522.61 Q1261.53 1520.08 1262.41 1518.35 Q1263.32 1516.59 1263.32 1514.9 Q1263.32 1512.14 1261.37 1510.41 Q1259.45 1508.67 1256.35 1508.67 Q1254.15 1508.67 1251.7 1509.43 Q1249.27 1510.2 1246.49 1511.75 L1246.49 1507.03 Q1249.31 1505.89 1251.77 1505.31 Q1254.22 1504.73 1256.26 1504.73 Q1261.63 1504.73 1264.82 1507.42 Q1268.02 1510.11 1268.02 1514.6 Q1268.02 1516.73 1267.21 1518.65 Q1266.42 1520.54 1264.31 1523.14 Q1263.73 1523.81 1260.63 1527.03 Q1257.53 1530.22 1251.88 1535.98 Z" fill="#000000" fill-rule="evenodd" fill-opacity="1" /><path clip-path="url(#clip280)" d="M 0 0 M1283.27 1508.44 Q1279.66 1508.44 1277.83 1512 Q1276.03 1515.55 1276.03 1522.67 Q1276.03 1529.78 1277.83 1533.35 Q1279.66 1536.89 1283.27 1536.89 Q1286.91 1536.89 1288.71 1533.35 Q1290.54 1529.78 1290.54 1522.67 Q1290.54 1515.55 1288.71 1512 Q1286.91 1508.44 1283.27 1508.44 M1283.27 1504.73 Q1289.08 1504.73 1292.14 1509.34 Q1295.22 1513.92 1295.22 1522.67 Q1295.22 1531.4 1292.14 1536.01 Q1289.08 1540.59 1283.27 1540.59 Q1277.46 1540.59 1274.38 1536.01 Q1271.33 1531.4 1271.33 1522.67 Q1271.33 1513.92 1274.38 1509.34 Q1277.46 1504.73 1283.27 1504.73 Z" fill="#000000" fill-rule="evenodd" fill-opacity="1" /><path clip-path="url(#clip280)" d="M 0 0 M1301.09 1535.98 L1308.73 1535.98 L1308.73 1509.62 L1300.42 1511.29 L1300.42 1507.03 L1308.69 1505.36 L1313.36 1505.36 L1313.36 1535.98 L1321 1535.98 L1321 1539.92 L1301.09 1539.92 L1301.09 1535.98 Z" fill="#000000" fill-rule="evenodd" fill-opacity="1" /><path clip-path="url(#clip280)" d="M 0 0 M1336.07 1523.51 Q1332.74 1523.51 1330.82 1525.29 Q1328.92 1527.07 1328.92 1530.2 Q1328.92 1533.32 1330.82 1535.11 Q1332.74 1536.89 1336.07 1536.89 Q1339.4 1536.89 1341.33 1535.11 Q1343.25 1533.3 1343.25 1530.2 Q1343.25 1527.07 1341.33 1525.29 Q1339.43 1523.51 1336.07 1523.51 M1331.4 1521.52 Q1328.39 1520.78 1326.7 1518.72 Q1325.03 1516.66 1325.03 1513.69 Q1325.03 1509.55 1327.97 1507.14 Q1330.93 1504.73 1336.07 1504.73 Q1341.23 1504.73 1344.17 1507.14 Q1347.11 1509.55 1347.11 1513.69 Q1347.11 1516.66 1345.42 1518.72 Q1343.76 1520.78 1340.77 1521.52 Q1344.15 1522.3 1346.03 1524.6 Q1347.92 1526.89 1347.92 1530.2 Q1347.92 1535.22 1344.84 1537.91 Q1341.79 1540.59 1336.07 1540.59 Q1330.35 1540.59 1327.28 1537.91 Q1324.22 1535.22 1324.22 1530.2 Q1324.22 1526.89 1326.12 1524.6 Q1328.02 1522.3 1331.4 1521.52 M1329.68 1514.13 Q1329.68 1516.82 1331.35 1518.32 Q1333.04 1519.83 1336.07 1519.83 Q1339.08 1519.83 1340.77 1518.32 Q1342.48 1516.82 1342.48 1514.13 Q1342.48 1511.45 1340.77 1509.94 Q1339.08 1508.44 1336.07 1508.44 Q1333.04 1508.44 1331.35 1509.94 Q1329.68 1511.45 1329.68 1514.13 Z" fill="#000000" fill-rule="evenodd" fill-opacity="1" /><path clip-path="url(#clip280)" d="M 0 0 M1350.24 1525.04 L1362.71 1525.04 L1362.71 1528.83 L1350.24 1528.83 L1350.24 1525.04 Z" fill="#000000" fill-rule="evenodd" fill-opacity="1" /><path clip-path="url(#clip280)" d="M 0 0 M1377.78 1508.44 Q1374.17 1508.44 1372.34 1512 Q1370.54 1515.55 1370.54 1522.67 Q1370.54 1529.78 1372.34 1533.35 Q1374.17 1536.89 1377.78 1536.89 Q1381.42 1536.89 1383.22 1533.35 Q1385.05 1529.78 1385.05 1522.67 Q1385.05 1515.55 1383.22 1512 Q1381.42 1508.44 1377.78 1508.44 M1377.78 1504.73 Q1383.59 1504.73 1386.65 1509.34 Q1389.73 1513.92 1389.73 1522.67 Q1389.73 1531.4 1386.65 1536.01 Q1383.59 1540.59 1377.78 1540.59 Q1371.97 1540.59 1368.9 1536.01 Q1365.84 1531.4 1365.84 1522.67 Q1365.84 1513.92 1368.9 1509.34 Q1371.97 1504.73 1377.78 1504.73 Z" fill="#000000" fill-rule="evenodd" fill-opacity="1" /><path clip-path="url(#clip280)" d="M 0 0 M1395.61 1535.98 L1403.25 1535.98 L1403.25 1509.62 L1394.94 1511.29 L1394.94 1507.03 L1403.2 1505.36 L1407.88 1505.36 L1407.88 1535.98 L1415.52 1535.98 L1415.52 1539.92 L1395.61 1539.92 L1395.61 1535.98 Z" fill="#000000" fill-rule="evenodd" fill-opacity="1" /><path clip-path="url(#clip280)" d="M 0 0 M1417.83 1525.04 L1430.31 1525.04 L1430.31 1528.83 L1417.83 1528.83 L1417.83 1525.04 Z" fill="#000000" fill-rule="evenodd" fill-opacity="1" /><path clip-path="url(#clip280)" d="M 0 0 M1445.38 1508.44 Q1441.77 1508.44 1439.94 1512 Q1438.13 1515.55 1438.13 1522.67 Q1438.13 1529.78 1439.94 1533.35 Q1441.77 1536.89 1445.38 1536.89 Q1449.01 1536.89 1450.82 1533.35 Q1452.64 1529.78 1452.64 1522.67 Q1452.64 1515.55 1450.82 1512 Q1449.01 1508.44 1445.38 1508.44 M1445.38 1504.73 Q1451.19 1504.73 1454.24 1509.34 Q1457.32 1513.92 1457.32 1522.67 Q1457.32 1531.4 1454.24 1536.01 Q1451.19 1540.59 1445.38 1540.59 Q1439.57 1540.59 1436.49 1536.01 Q1433.43 1531.4 1433.43 1522.67 Q1433.43 1513.92 1436.49 1509.34 Q1439.57 1504.73 1445.38 1504.73 Z" fill="#000000" fill-rule="evenodd" fill-opacity="1" /><path clip-path="url(#clip280)" d="M 0 0 M1463.2 1535.98 L1470.84 1535.98 L1470.84 1509.62 L1462.53 1511.29 L1462.53 1507.03 L1470.79 1505.36 L1475.47 1505.36 L1475.47 1535.98 L1483.11 1535.98 L1483.11 1539.92 L1463.2 1539.92 L1463.2 1535.98 Z" fill="#000000" fill-rule="evenodd" fill-opacity="1" /><path clip-path="url(#clip280)" d="M 0 0 M1623.25 1535.98 L1639.57 1535.98 L1639.57 1539.92 L1617.63 1539.92 L1617.63 1535.98 Q1620.29 1533.23 1624.87 1528.6 Q1629.48 1523.95 1630.66 1522.61 Q1632.91 1520.08 1633.79 1518.35 Q1634.69 1516.59 1634.69 1514.9 Q1634.69 1512.14 1632.75 1510.41 Q1630.82 1508.67 1627.72 1508.67 Q1625.52 1508.67 1623.07 1509.43 Q1620.64 1510.2 1617.86 1511.75 L1617.86 1507.03 Q1620.69 1505.89 1623.14 1505.31 Q1625.59 1504.73 1627.63 1504.73 Q1633 1504.73 1636.19 1507.42 Q1639.39 1510.11 1639.39 1514.6 Q1639.39 1516.73 1638.58 1518.65 Q1637.79 1520.54 1635.69 1523.14 Q1635.11 1523.81 1632 1527.03 Q1628.9 1530.22 1623.25 1535.98 Z" fill="#000000" fill-rule="evenodd" fill-opacity="1" /><path clip-path="url(#clip280)" d="M 0 0 M1654.64 1508.44 Q1651.03 1508.44 1649.2 1512 Q1647.4 1515.55 1647.4 1522.67 Q1647.4 1529.78 1649.2 1533.35 Q1651.03 1536.89 1654.64 1536.89 Q1658.28 1536.89 1660.08 1533.35 Q1661.91 1529.78 1661.91 1522.67 Q1661.91 1515.55 1660.08 1512 Q1658.28 1508.44 1654.64 1508.44 M1654.64 1504.73 Q1660.45 1504.73 1663.51 1509.34 Q1666.59 1513.92 1666.59 1522.67 Q1666.59 1531.4 1663.51 1536.01 Q1660.45 1540.59 1654.64 1540.59 Q1648.83 1540.59 1645.75 1536.01 Q1642.7 1531.4 1642.7 1522.67 Q1642.7 1513.92 1645.75 1509.34 Q1648.83 1504.73 1654.64 1504.73 Z" fill="#000000" fill-rule="evenodd" fill-opacity="1" /><path clip-path="url(#clip280)" d="M 0 0 M1672.47 1535.98 L1680.11 1535.98 L1680.11 1509.62 L1671.8 1511.29 L1671.8 1507.03 L1680.06 1505.36 L1684.74 1505.36 L1684.74 1535.98 L1692.37 1535.98 L1692.37 1539.92 L1672.47 1539.92 L1672.47 1535.98 Z" fill="#000000" fill-rule="evenodd" fill-opacity="1" /><path clip-path="url(#clip280)" d="M 0 0 M1697.58 1539.2 L1697.58 1534.94 Q1699.34 1535.78 1701.15 1536.22 Q1702.95 1536.66 1704.69 1536.66 Q1709.32 1536.66 1711.75 1533.55 Q1714.2 1530.43 1714.55 1524.09 Q1713.21 1526.08 1711.15 1527.14 Q1709.09 1528.21 1706.59 1528.21 Q1701.4 1528.21 1698.37 1525.08 Q1695.36 1521.93 1695.36 1516.49 Q1695.36 1511.17 1698.51 1507.95 Q1701.66 1504.73 1706.89 1504.73 Q1712.88 1504.73 1716.03 1509.34 Q1719.2 1513.92 1719.2 1522.67 Q1719.2 1530.85 1715.31 1535.73 Q1711.45 1540.59 1704.9 1540.59 Q1703.14 1540.59 1701.33 1540.24 Q1699.53 1539.9 1697.58 1539.2 M1706.89 1524.55 Q1710.04 1524.55 1711.87 1522.4 Q1713.72 1520.24 1713.72 1516.49 Q1713.72 1512.77 1711.87 1510.61 Q1710.04 1508.44 1706.89 1508.44 Q1703.74 1508.44 1701.89 1510.61 Q1700.06 1512.77 1700.06 1516.49 Q1700.06 1520.24 1701.89 1522.4 Q1703.74 1524.55 1706.89 1524.55 Z" fill="#000000" fill-rule="evenodd" fill-opacity="1" /><path clip-path="url(#clip280)" d="M 0 0 M1721.52 1525.04 L1733.99 1525.04 L1733.99 1528.83 L1721.52 1528.83 L1721.52 1525.04 Z" fill="#000000" fill-rule="evenodd" fill-opacity="1" /><path clip-path="url(#clip280)" d="M 0 0 M1749.06 1508.44 Q1745.45 1508.44 1743.62 1512 Q1741.82 1515.55 1741.82 1522.67 Q1741.82 1529.78 1743.62 1533.35 Q1745.45 1536.89 1749.06 1536.89 Q1752.7 1536.89 1754.5 1533.35 Q1756.33 1529.78 1756.33 1522.67 Q1756.33 1515.55 1754.5 1512 Q1752.7 1508.44 1749.06 1508.44 M1749.06 1504.73 Q1754.87 1504.73 1757.93 1509.34 Q1761.01 1513.92 1761.01 1522.67 Q1761.01 1531.4 1757.93 1536.01 Q1754.87 1540.59 1749.06 1540.59 Q1743.25 1540.59 1740.18 1536.01 Q1737.12 1531.4 1737.12 1522.67 Q1737.12 1513.92 1740.18 1509.34 Q1743.25 1504.73 1749.06 1504.73 Z" fill="#000000" fill-rule="evenodd" fill-opacity="1" /><path clip-path="url(#clip280)" d="M 0 0 M1766.89 1535.98 L1774.53 1535.98 L1774.53 1509.62 L1766.22 1511.29 L1766.22 1507.03 L1774.48 1505.36 L1779.16 1505.36 L1779.16 1535.98 L1786.8 1535.98 L1786.8 1539.92 L1766.89 1539.92 L1766.89 1535.98 Z" fill="#000000" fill-rule="evenodd" fill-opacity="1" /><path clip-path="url(#clip280)" d="M 0 0 M1789.11 1525.04 L1801.59 1525.04 L1801.59 1528.83 L1789.11 1528.83 L1789.11 1525.04 Z" fill="#000000" fill-rule="evenodd" fill-opacity="1" /><path clip-path="url(#clip280)" d="M 0 0 M1816.66 1508.44 Q1813.05 1508.44 1811.22 1512 Q1809.41 1515.55 1809.41 1522.67 Q1809.41 1529.78 1811.22 1533.35 Q1813.05 1536.89 1816.66 1536.89 Q1820.29 1536.89 1822.1 1533.35 Q1823.92 1529.78 1823.92 1522.67 Q1823.92 1515.55 1822.1 1512 Q1820.29 1508.44 1816.66 1508.44 M1816.66 1504.73 Q1822.47 1504.73 1825.52 1509.34 Q1828.6 1513.92 1828.6 1522.67 Q1828.6 1531.4 1825.52 1536.01 Q1822.47 1540.59 1816.66 1540.59 Q1810.85 1540.59 1807.77 1536.01 Q1804.71 1531.4 1804.71 1522.67 Q1804.71 1513.92 1807.77 1509.34 Q1810.85 1504.73 1816.66 1504.73 Z" fill="#000000" fill-rule="evenodd" fill-opacity="1" /><path clip-path="url(#clip280)" d="M 0 0 M1834.48 1535.98 L1842.12 1535.98 L1842.12 1509.62 L1833.81 1511.29 L1833.81 1507.03 L1842.07 1505.36 L1846.75 1505.36 L1846.75 1535.98 L1854.39 1535.98 L1854.39 1539.92 L1834.48 1539.92 L1834.48 1535.98 Z" fill="#000000" fill-rule="evenodd" fill-opacity="1" /><path clip-path="url(#clip280)" d="M 0 0 M1994.67 1535.98 L2010.99 1535.98 L2010.99 1539.92 L1989.05 1539.92 L1989.05 1535.98 Q1991.71 1533.23 1996.29 1528.6 Q2000.9 1523.95 2002.08 1522.61 Q2004.33 1520.08 2005.21 1518.35 Q2006.11 1516.59 2006.11 1514.9 Q2006.11 1512.14 2004.16 1510.41 Q2002.24 1508.67 1999.14 1508.67 Q1996.94 1508.67 1994.49 1509.43 Q1992.06 1510.2 1989.28 1511.75 L1989.28 1507.03 Q1992.1 1505.89 1994.56 1505.31 Q1997.01 1504.73 1999.05 1504.73 Q2004.42 1504.73 2007.61 1507.42 Q2010.81 1510.11 2010.81 1514.6 Q2010.81 1516.73 2010 1518.65 Q2009.21 1520.54 2007.1 1523.14 Q2006.53 1523.81 2003.42 1527.03 Q2000.32 1530.22 1994.67 1535.98 Z" fill="#000000" fill-rule="evenodd" fill-opacity="1" /><path clip-path="url(#clip280)" d="M 0 0 M2026.06 1508.44 Q2022.45 1508.44 2020.62 1512 Q2018.82 1515.55 2018.82 1522.67 Q2018.82 1529.78 2020.62 1533.35 Q2022.45 1536.89 2026.06 1536.89 Q2029.7 1536.89 2031.5 1533.35 Q2033.33 1529.78 2033.33 1522.67 Q2033.33 1515.55 2031.5 1512 Q2029.7 1508.44 2026.06 1508.44 M2026.06 1504.73 Q2031.87 1504.73 2034.93 1509.34 Q2038.01 1513.92 2038.01 1522.67 Q2038.01 1531.4 2034.93 1536.01 Q2031.87 1540.59 2026.06 1540.59 Q2020.25 1540.59 2017.17 1536.01 Q2014.12 1531.4 2014.12 1522.67 Q2014.12 1513.92 2017.17 1509.34 Q2020.25 1504.73 2026.06 1504.73 Z" fill="#000000" fill-rule="evenodd" fill-opacity="1" /><path clip-path="url(#clip280)" d="M 0 0 M2047.1 1535.98 L2063.42 1535.98 L2063.42 1539.92 L2041.48 1539.92 L2041.48 1535.98 Q2044.14 1533.23 2048.72 1528.6 Q2053.33 1523.95 2054.51 1522.61 Q2056.76 1520.08 2057.64 1518.35 Q2058.54 1516.59 2058.54 1514.9 Q2058.54 1512.14 2056.59 1510.41 Q2054.67 1508.67 2051.57 1508.67 Q2049.37 1508.67 2046.92 1509.43 Q2044.49 1510.2 2041.71 1511.75 L2041.71 1507.03 Q2044.53 1505.89 2046.99 1505.31 Q2049.44 1504.73 2051.48 1504.73 Q2056.85 1504.73 2060.04 1507.42 Q2063.24 1510.11 2063.24 1514.6 Q2063.24 1516.73 2062.43 1518.65 Q2061.64 1520.54 2059.53 1523.14 Q2058.96 1523.81 2055.85 1527.03 Q2052.75 1530.22 2047.1 1535.98 Z" fill="#000000" fill-rule="evenodd" fill-opacity="1" /><path clip-path="url(#clip280)" d="M 0 0 M2078.49 1508.44 Q2074.88 1508.44 2073.05 1512 Q2071.25 1515.55 2071.25 1522.67 Q2071.25 1529.78 2073.05 1533.35 Q2074.88 1536.89 2078.49 1536.89 Q2082.13 1536.89 2083.93 1533.35 Q2085.76 1529.78 2085.76 1522.67 Q2085.76 1515.55 2083.93 1512 Q2082.13 1508.44 2078.49 1508.44 M2078.49 1504.73 Q2084.3 1504.73 2087.36 1509.34 Q2090.44 1513.92 2090.44 1522.67 Q2090.44 1531.4 2087.36 1536.01 Q2084.3 1540.59 2078.49 1540.59 Q2072.68 1540.59 2069.6 1536.01 Q2066.55 1531.4 2066.55 1522.67 Q2066.55 1513.92 2069.6 1509.34 Q2072.68 1504.73 2078.49 1504.73 Z" fill="#000000" fill-rule="evenodd" fill-opacity="1" /><path clip-path="url(#clip280)" d="M 0 0 M2092.75 1525.04 L2105.23 1525.04 L2105.23 1528.83 L2092.75 1528.83 L2092.75 1525.04 Z" fill="#000000" fill-rule="evenodd" fill-opacity="1" /><path clip-path="url(#clip280)" d="M 0 0 M2120.3 1508.44 Q2116.69 1508.44 2114.86 1512 Q2113.05 1515.55 2113.05 1522.67 Q2113.05 1529.78 2114.86 1533.35 Q2116.69 1536.89 2120.3 1536.89 Q2123.93 1536.89 2125.74 1533.35 Q2127.57 1529.78 2127.57 1522.67 Q2127.57 1515.55 2125.74 1512 Q2123.93 1508.44 2120.3 1508.44 M2120.3 1504.73 Q2126.11 1504.73 2129.16 1509.34 Q2132.24 1513.92 2132.24 1522.67 Q2132.24 1531.4 2129.16 1536.01 Q2126.11 1540.59 2120.3 1540.59 Q2114.49 1540.59 2111.41 1536.01 Q2108.35 1531.4 2108.35 1522.67 Q2108.35 1513.92 2111.41 1509.34 Q2114.49 1504.73 2120.3 1504.73 Z" fill="#000000" fill-rule="evenodd" fill-opacity="1" /><path clip-path="url(#clip280)" d="M 0 0 M2138.12 1535.98 L2145.76 1535.98 L2145.76 1509.62 L2137.45 1511.29 L2137.45 1507.03 L2145.71 1505.36 L2150.39 1505.36 L2150.39 1535.98 L2158.03 1535.98 L2158.03 1539.92 L2138.12 1539.92 L2138.12 1535.98 Z" fill="#000000" fill-rule="evenodd" fill-opacity="1" /><path clip-path="url(#clip280)" d="M 0 0 M2160.34 1525.04 L2172.82 1525.04 L2172.82 1528.83 L2160.34 1528.83 L2160.34 1525.04 Z" fill="#000000" fill-rule="evenodd" fill-opacity="1" /><path clip-path="url(#clip280)" d="M 0 0 M2187.89 1508.44 Q2184.28 1508.44 2182.45 1512 Q2180.64 1515.55 2180.64 1522.67 Q2180.64 1529.78 2182.45 1533.35 Q2184.28 1536.89 2187.89 1536.89 Q2191.52 1536.89 2193.33 1533.35 Q2195.16 1529.78 2195.16 1522.67 Q2195.16 1515.55 2193.33 1512 Q2191.52 1508.44 2187.89 1508.44 M2187.89 1504.73 Q2193.7 1504.73 2196.76 1509.34 Q2199.83 1513.92 2199.83 1522.67 Q2199.83 1531.4 2196.76 1536.01 Q2193.7 1540.59 2187.89 1540.59 Q2182.08 1540.59 2179 1536.01 Q2175.95 1531.4 2175.95 1522.67 Q2175.95 1513.92 2179 1509.34 Q2182.08 1504.73 2187.89 1504.73 Z" fill="#000000" fill-rule="evenodd" fill-opacity="1" /><path clip-path="url(#clip280)" d="M 0 0 M2205.71 1535.98 L2213.35 1535.98 L2213.35 1509.62 L2205.04 1511.29 L2205.04 1507.03 L2213.31 1505.36 L2217.98 1505.36 L2217.98 1535.98 L2225.62 1535.98 L2225.62 1539.92 L2205.71 1539.92 L2205.71 1535.98 Z" fill="#000000" fill-rule="evenodd" fill-opacity="1" /><path clip-path="url(#clip280)" d="M 0 0 M64.3347 1353.39 L71.9736 1353.39 L71.9736 1327.02 L63.6634 1328.69 L63.6634 1324.43 L71.9273 1322.76 L76.6032 1322.76 L76.6032 1353.39 L84.242 1353.39 L84.242 1357.32 L64.3347 1357.32 L64.3347 1353.39 Z" fill="#000000" fill-rule="evenodd" fill-opacity="1" /><path clip-path="url(#clip280)" d="M 0 0 M99.3114 1325.84 Q95.7003 1325.84 93.8716 1329.41 Q92.066 1332.95 92.066 1340.08 Q92.066 1347.19 93.8716 1350.75 Q95.7003 1354.29 99.3114 1354.29 Q102.946 1354.29 104.751 1350.75 Q106.58 1347.19 106.58 1340.08 Q106.58 1332.95 104.751 1329.41 Q102.946 1325.84 99.3114 1325.84 M99.3114 1322.14 Q105.122 1322.14 108.177 1326.75 Q111.256 1331.33 111.256 1340.08 Q111.256 1348.81 108.177 1353.41 Q105.122 1358 99.3114 1358 Q93.5012 1358 90.4225 1353.41 Q87.367 1348.81 87.367 1340.08 Q87.367 1331.33 90.4225 1326.75 Q93.5012 1322.14 99.3114 1322.14 Z" fill="#000000" fill-rule="evenodd" fill-opacity="1" /><path clip-path="url(#clip280)" d="M 0 0 M115.145 1322.76 L137.367 1322.76 L137.367 1324.75 L124.82 1357.32 L119.936 1357.32 L131.742 1326.7 L115.145 1326.7 L115.145 1322.76 Z" fill="#000000" fill-rule="evenodd" fill-opacity="1" /><path clip-path="url(#clip280)" d="M 0 0 M142.482 1322.76 L160.839 1322.76 L160.839 1326.7 L146.765 1326.7 L146.765 1335.17 Q147.783 1334.82 148.802 1334.66 Q149.82 1334.48 150.839 1334.48 Q156.626 1334.48 160.005 1337.65 Q163.385 1340.82 163.385 1346.24 Q163.385 1351.81 159.913 1354.92 Q156.441 1358 150.121 1358 Q147.945 1358 145.677 1357.63 Q143.432 1357.25 141.024 1356.51 L141.024 1351.81 Q143.107 1352.95 145.33 1353.5 Q147.552 1354.06 150.029 1354.06 Q154.033 1354.06 156.371 1351.95 Q158.709 1349.85 158.709 1346.24 Q158.709 1342.63 156.371 1340.52 Q154.033 1338.41 150.029 1338.41 Q148.154 1338.41 146.279 1338.83 Q144.427 1339.25 142.482 1340.13 L142.482 1322.76 Z" fill="#000000" fill-rule="evenodd" fill-opacity="1" /><path clip-path="url(#clip280)" d="M 0 0 M63.6634 1172.1 L71.3023 1172.1 L71.3023 1145.74 L62.9921 1147.4 L62.9921 1143.14 L71.256 1141.48 L75.9319 1141.48 L75.9319 1172.1 L83.5707 1172.1 L83.5707 1176.04 L63.6634 1176.04 L63.6634 1172.1 Z" fill="#000000" fill-rule="evenodd" fill-opacity="1" /><path clip-path="url(#clip280)" d="M 0 0 M89.4503 1172.1 L97.0892 1172.1 L97.0892 1145.74 L88.779 1147.4 L88.779 1143.14 L97.0429 1141.48 L101.719 1141.48 L101.719 1172.1 L109.358 1172.1 L109.358 1176.04 L89.4503 1176.04 L89.4503 1172.1 Z" fill="#000000" fill-rule="evenodd" fill-opacity="1" /><path clip-path="url(#clip280)" d="M 0 0 M124.427 1144.56 Q120.816 1144.56 118.987 1148.12 Q117.182 1151.66 117.182 1158.79 Q117.182 1165.9 118.987 1169.46 Q120.816 1173.01 124.427 1173.01 Q128.061 1173.01 129.867 1169.46 Q131.695 1165.9 131.695 1158.79 Q131.695 1151.66 129.867 1148.12 Q128.061 1144.56 124.427 1144.56 M124.427 1140.85 Q130.237 1140.85 133.293 1145.46 Q136.371 1150.04 136.371 1158.79 Q136.371 1167.52 133.293 1172.13 Q130.237 1176.71 124.427 1176.71 Q118.617 1176.71 115.538 1172.13 Q112.483 1167.52 112.483 1158.79 Q112.483 1150.04 115.538 1145.46 Q118.617 1140.85 124.427 1140.85 Z" fill="#000000" fill-rule="evenodd" fill-opacity="1" /><path clip-path="url(#clip280)" d="M 0 0 M151.441 1144.56 Q147.83 1144.56 146.001 1148.12 Q144.195 1151.66 144.195 1158.79 Q144.195 1165.9 146.001 1169.46 Q147.83 1173.01 151.441 1173.01 Q155.075 1173.01 156.881 1169.46 Q158.709 1165.9 158.709 1158.79 Q158.709 1151.66 156.881 1148.12 Q155.075 1144.56 151.441 1144.56 M151.441 1140.85 Q157.251 1140.85 160.306 1145.46 Q163.385 1150.04 163.385 1158.79 Q163.385 1167.52 160.306 1172.13 Q157.251 1176.71 151.441 1176.71 Q145.631 1176.71 142.552 1172.13 Q139.496 1167.52 139.496 1158.79 Q139.496 1150.04 142.552 1145.46 Q145.631 1140.85 151.441 1140.85 Z" fill="#000000" fill-rule="evenodd" fill-opacity="1" /><path clip-path="url(#clip280)" d="M 0 0 M66.256 990.817 L73.8948 990.817 L73.8948 964.451 L65.5847 966.118 L65.5847 961.859 L73.8485 960.192 L78.5245 960.192 L78.5245 990.817 L86.1633 990.817 L86.1633 994.752 L66.256 994.752 L66.256 990.817 Z" fill="#000000" fill-rule="evenodd" fill-opacity="1" /><path clip-path="url(#clip280)" d="M 0 0 M92.0429 990.817 L99.6817 990.817 L99.6817 964.451 L91.3716 966.118 L91.3716 961.859 L99.6354 960.192 L104.311 960.192 L104.311 990.817 L111.95 990.817 L111.95 994.752 L92.0429 994.752 L92.0429 990.817 Z" fill="#000000" fill-rule="evenodd" fill-opacity="1" /><path clip-path="url(#clip280)" d="M 0 0 M121.047 990.817 L137.367 990.817 L137.367 994.752 L115.422 994.752 L115.422 990.817 Q118.084 988.062 122.668 983.432 Q127.274 978.78 128.455 977.437 Q130.7 974.914 131.58 973.178 Q132.482 971.419 132.482 969.729 Q132.482 966.974 130.538 965.238 Q128.617 963.502 125.515 963.502 Q123.316 963.502 120.862 964.266 Q118.432 965.03 115.654 966.581 L115.654 961.859 Q118.478 960.724 120.932 960.146 Q123.385 959.567 125.422 959.567 Q130.793 959.567 133.987 962.252 Q137.182 964.937 137.182 969.428 Q137.182 971.558 136.371 973.479 Q135.584 975.377 133.478 977.97 Q132.899 978.641 129.797 981.858 Q126.695 985.053 121.047 990.817 Z" fill="#000000" fill-rule="evenodd" fill-opacity="1" /><path clip-path="url(#clip280)" d="M 0 0 M142.482 960.192 L160.839 960.192 L160.839 964.127 L146.765 964.127 L146.765 972.599 Q147.783 972.252 148.802 972.09 Q149.82 971.905 150.839 971.905 Q156.626 971.905 160.005 975.076 Q163.385 978.247 163.385 983.664 Q163.385 989.243 159.913 992.344 Q156.441 995.423 150.121 995.423 Q147.945 995.423 145.677 995.053 Q143.432 994.682 141.024 993.942 L141.024 989.243 Q143.107 990.377 145.33 990.932 Q147.552 991.488 150.029 991.488 Q154.033 991.488 156.371 989.382 Q158.709 987.275 158.709 983.664 Q158.709 980.053 156.371 977.946 Q154.033 975.84 150.029 975.84 Q148.154 975.84 146.279 976.257 Q144.427 976.673 142.482 977.553 L142.482 960.192 Z" fill="#000000" fill-rule="evenodd" fill-opacity="1" /><path clip-path="url(#clip280)" d="M 0 0 M64.6588 809.531 L72.2976 809.531 L72.2976 783.165 L63.9875 784.832 L63.9875 780.572 L72.2513 778.906 L76.9272 778.906 L76.9272 809.531 L84.5661 809.531 L84.5661 813.466 L64.6588 813.466 L64.6588 809.531 Z" fill="#000000" fill-rule="evenodd" fill-opacity="1" /><path clip-path="url(#clip280)" d="M 0 0 M90.4457 809.531 L98.0845 809.531 L98.0845 783.165 L89.7744 784.832 L89.7744 780.572 L98.0382 778.906 L102.714 778.906 L102.714 809.531 L110.353 809.531 L110.353 813.466 L90.4457 813.466 L90.4457 809.531 Z" fill="#000000" fill-rule="evenodd" fill-opacity="1" /><path clip-path="url(#clip280)" d="M 0 0 M115.469 778.906 L133.825 778.906 L133.825 782.841 L119.751 782.841 L119.751 791.313 Q120.77 790.966 121.788 790.804 Q122.807 790.619 123.825 790.619 Q129.612 790.619 132.992 793.79 Q136.371 796.961 136.371 802.378 Q136.371 807.957 132.899 811.058 Q129.427 814.137 123.108 814.137 Q120.932 814.137 118.663 813.767 Q116.418 813.396 114.01 812.656 L114.01 807.957 Q116.094 809.091 118.316 809.646 Q120.538 810.202 123.015 810.202 Q127.02 810.202 129.358 808.095 Q131.695 805.989 131.695 802.378 Q131.695 798.767 129.358 796.66 Q127.02 794.554 123.015 794.554 Q121.14 794.554 119.265 794.97 Q117.413 795.387 115.469 796.267 L115.469 778.906 Z" fill="#000000" fill-rule="evenodd" fill-opacity="1" /><path clip-path="url(#clip280)" d="M 0 0 M151.441 781.984 Q147.83 781.984 146.001 785.549 Q144.195 789.091 144.195 796.22 Q144.195 803.327 146.001 806.892 Q147.83 810.433 151.441 810.433 Q155.075 810.433 156.881 806.892 Q158.709 803.327 158.709 796.22 Q158.709 789.091 156.881 785.549 Q155.075 781.984 151.441 781.984 M151.441 778.281 Q157.251 778.281 160.306 782.887 Q163.385 787.471 163.385 796.22 Q163.385 804.947 160.306 809.554 Q157.251 814.137 151.441 814.137 Q145.631 814.137 142.552 809.554 Q139.496 804.947 139.496 796.22 Q139.496 787.471 142.552 782.887 Q145.631 778.281 151.441 778.281 Z" fill="#000000" fill-rule="evenodd" fill-opacity="1" /><path clip-path="url(#clip280)" d="M 0 0 M65.5616 628.244 L73.2004 628.244 L73.2004 601.879 L64.8903 603.546 L64.8903 599.286 L73.1541 597.62 L77.83 597.62 L77.83 628.244 L85.4689 628.244 L85.4689 632.18 L65.5616 632.18 L65.5616 628.244 Z" fill="#000000" fill-rule="evenodd" fill-opacity="1" /><path clip-path="url(#clip280)" d="M 0 0 M91.3485 628.244 L98.9873 628.244 L98.9873 601.879 L90.6772 603.546 L90.6772 599.286 L98.941 597.62 L103.617 597.62 L103.617 628.244 L111.256 628.244 L111.256 632.18 L91.3485 632.18 L91.3485 628.244 Z" fill="#000000" fill-rule="evenodd" fill-opacity="1" /><path clip-path="url(#clip280)" d="M 0 0 M115.145 597.62 L137.367 597.62 L137.367 599.61 L124.82 632.18 L119.936 632.18 L131.742 601.555 L115.145 601.555 L115.145 597.62 Z" fill="#000000" fill-rule="evenodd" fill-opacity="1" /><path clip-path="url(#clip280)" d="M 0 0 M142.482 597.62 L160.839 597.62 L160.839 601.555 L146.765 601.555 L146.765 610.027 Q147.783 609.68 148.802 609.518 Q149.82 609.333 150.839 609.333 Q156.626 609.333 160.005 612.504 Q163.385 615.675 163.385 621.092 Q163.385 626.67 159.913 629.772 Q156.441 632.851 150.121 632.851 Q147.945 632.851 145.677 632.481 Q143.432 632.11 141.024 631.369 L141.024 626.67 Q143.107 627.805 145.33 628.36 Q147.552 628.916 150.029 628.916 Q154.033 628.916 156.371 626.809 Q158.709 624.703 158.709 621.092 Q158.709 617.481 156.371 615.374 Q154.033 613.268 150.029 613.268 Q148.154 613.268 146.279 613.684 Q144.427 614.101 142.482 614.981 L142.482 597.62 Z" fill="#000000" fill-rule="evenodd" fill-opacity="1" /><path clip-path="url(#clip280)" d="M 0 0 M64.0338 446.958 L71.6726 446.958 L71.6726 420.593 L63.3625 422.259 L63.3625 418 L71.6263 416.334 L76.3022 416.334 L76.3022 446.958 L83.9411 446.958 L83.9411 450.894 L64.0338 450.894 L64.0338 446.958 Z" fill="#000000" fill-rule="evenodd" fill-opacity="1" /><path clip-path="url(#clip280)" d="M 0 0 M93.0383 446.958 L109.358 446.958 L109.358 450.894 L87.4133 450.894 L87.4133 446.958 Q90.0753 444.204 94.6586 439.574 Q99.2651 434.921 100.446 433.579 Q102.691 431.056 103.571 429.32 Q104.473 427.56 104.473 425.871 Q104.473 423.116 102.529 421.38 Q100.608 419.644 97.5058 419.644 Q95.3068 419.644 92.8531 420.408 Q90.4225 421.171 87.6448 422.722 L87.6448 418 Q90.4688 416.866 92.9225 416.287 Q95.3762 415.709 97.4132 415.709 Q102.784 415.709 105.978 418.394 Q109.172 421.079 109.172 425.57 Q109.172 427.699 108.362 429.62 Q107.575 431.519 105.469 434.111 Q104.89 434.782 101.788 438 Q98.6864 441.194 93.0383 446.958 Z" fill="#000000" fill-rule="evenodd" fill-opacity="1" /><path clip-path="url(#clip280)" d="M 0 0 M124.427 419.412 Q120.816 419.412 118.987 422.977 Q117.182 426.519 117.182 433.648 Q117.182 440.755 118.987 444.319 Q120.816 447.861 124.427 447.861 Q128.061 447.861 129.867 444.319 Q131.695 440.755 131.695 433.648 Q131.695 426.519 129.867 422.977 Q128.061 419.412 124.427 419.412 M124.427 415.709 Q130.237 415.709 133.293 420.315 Q136.371 424.898 136.371 433.648 Q136.371 442.375 133.293 446.981 Q130.237 451.565 124.427 451.565 Q118.617 451.565 115.538 446.981 Q112.483 442.375 112.483 433.648 Q112.483 424.898 115.538 420.315 Q118.617 415.709 124.427 415.709 Z" fill="#000000" fill-rule="evenodd" fill-opacity="1" /><path clip-path="url(#clip280)" d="M 0 0 M151.441 419.412 Q147.83 419.412 146.001 422.977 Q144.195 426.519 144.195 433.648 Q144.195 440.755 146.001 444.319 Q147.83 447.861 151.441 447.861 Q155.075 447.861 156.881 444.319 Q158.709 440.755 158.709 433.648 Q158.709 426.519 156.881 422.977 Q155.075 419.412 151.441 419.412 M151.441 415.709 Q157.251 415.709 160.306 420.315 Q163.385 424.898 163.385 433.648 Q163.385 442.375 160.306 446.981 Q157.251 451.565 151.441 451.565 Q145.631 451.565 142.552 446.981 Q139.496 442.375 139.496 433.648 Q139.496 424.898 142.552 420.315 Q145.631 415.709 151.441 415.709 Z" fill="#000000" fill-rule="evenodd" fill-opacity="1" /><path clip-path="url(#clip280)" d="M 0 0 M66.6264 265.672 L74.2652 265.672 L74.2652 239.307 L65.9551 240.973 L65.9551 236.714 L74.2189 235.047 L78.8948 235.047 L78.8948 265.672 L86.5337 265.672 L86.5337 269.607 L66.6264 269.607 L66.6264 265.672 Z" fill="#000000" fill-rule="evenodd" fill-opacity="1" /><path clip-path="url(#clip280)" d="M 0 0 M95.6308 265.672 L111.95 265.672 L111.95 269.607 L90.0059 269.607 L90.0059 265.672 Q92.6679 262.918 97.2512 258.288 Q101.858 253.635 103.038 252.293 Q105.284 249.77 106.163 248.033 Q107.066 246.274 107.066 244.584 Q107.066 241.83 105.122 240.094 Q103.2 238.358 100.098 238.358 Q97.8993 238.358 95.4457 239.121 Q93.0151 239.885 90.2374 241.436 L90.2374 236.714 Q93.0614 235.58 95.5151 235.001 Q97.9688 234.422 100.006 234.422 Q105.376 234.422 108.571 237.108 Q111.765 239.793 111.765 244.283 Q111.765 246.413 110.955 248.334 Q110.168 250.233 108.061 252.825 Q107.483 253.496 104.381 256.714 Q101.279 259.908 95.6308 265.672 Z" fill="#000000" fill-rule="evenodd" fill-opacity="1" /><path clip-path="url(#clip280)" d="M 0 0 M121.047 265.672 L137.367 265.672 L137.367 269.607 L115.422 269.607 L115.422 265.672 Q118.084 262.918 122.668 258.288 Q127.274 253.635 128.455 252.293 Q130.7 249.77 131.58 248.033 Q132.482 246.274 132.482 244.584 Q132.482 241.83 130.538 240.094 Q128.617 238.358 125.515 238.358 Q123.316 238.358 120.862 239.121 Q118.432 239.885 115.654 241.436 L115.654 236.714 Q118.478 235.58 120.932 235.001 Q123.385 234.422 125.422 234.422 Q130.793 234.422 133.987 237.108 Q137.182 239.793 137.182 244.283 Q137.182 246.413 136.371 248.334 Q135.584 250.233 133.478 252.825 Q132.899 253.496 129.797 256.714 Q126.695 259.908 121.047 265.672 Z" fill="#000000" fill-rule="evenodd" fill-opacity="1" /><path clip-path="url(#clip280)" d="M 0 0 M142.482 235.047 L160.839 235.047 L160.839 238.983 L146.765 238.983 L146.765 247.455 Q147.783 247.108 148.802 246.945 Q149.82 246.76 150.839 246.76 Q156.626 246.76 160.005 249.932 Q163.385 253.103 163.385 258.519 Q163.385 264.098 159.913 267.2 Q156.441 270.279 150.121 270.279 Q147.945 270.279 145.677 269.908 Q143.432 269.538 141.024 268.797 L141.024 264.098 Q143.107 265.232 145.33 265.788 Q147.552 266.344 150.029 266.344 Q154.033 266.344 156.371 264.237 Q158.709 262.131 158.709 258.519 Q158.709 254.908 156.371 252.802 Q154.033 250.695 150.029 250.695 Q148.154 250.695 146.279 251.112 Q144.427 251.529 142.482 252.408 L142.482 235.047 Z" fill="#000000" fill-rule="evenodd" fill-opacity="1" /><path clip-path="url(#clip280)" d="M 0 0 M1099.73 12.096 L1107.95 12.096 L1107.95 48.8377 Q1107.95 58.5599 1111.48 62.8538 Q1115 67.1073 1122.9 67.1073 Q1130.76 67.1073 1134.28 62.8538 Q1137.81 58.5599 1137.81 48.8377 L1137.81 12.096 L1146.03 12.096 L1146.03 49.8504 Q1146.03 61.6791 1140.16 67.7149 Q1134.32 73.7508 1122.9 73.7508 Q1111.44 73.7508 1105.56 67.7149 Q1099.73 61.6791 1099.73 49.8504 L1099.73 12.096 Z" fill="#000000" fill-rule="evenodd" fill-opacity="1" /><path clip-path="url(#clip280)" d="M 0 0 M1190.43 14.0809 L1190.43 22.0612 Q1185.77 19.8332 1181.64 18.7395 Q1177.51 17.6457 1173.66 17.6457 Q1166.97 17.6457 1163.33 20.2383 Q1159.72 22.8309 1159.72 27.611 Q1159.72 31.6214 1162.11 33.6873 Q1164.54 35.7128 1171.27 36.9686 L1176.21 37.9813 Q1185.37 39.7232 1189.7 44.1387 Q1194.08 48.5136 1194.08 55.8863 Q1194.08 64.6767 1188.16 69.2137 Q1182.29 73.7508 1170.9 73.7508 Q1166.61 73.7508 1161.75 72.7785 Q1156.93 71.8063 1151.74 69.9024 L1151.74 61.4765 Q1156.73 64.2716 1161.51 65.6895 Q1166.29 67.1073 1170.9 67.1073 Q1177.91 67.1073 1181.72 64.3527 Q1185.53 61.598 1185.53 56.4939 Q1185.53 52.0379 1182.77 49.5264 Q1180.06 47.0148 1173.82 45.759 L1168.84 44.7868 Q1159.68 42.9639 1155.59 39.075 Q1151.5 35.1862 1151.5 28.2591 Q1151.5 20.2383 1157.13 15.6203 Q1162.8 11.0023 1172.73 11.0023 Q1176.98 11.0023 1181.4 11.7719 Q1185.81 12.5416 1190.43 14.0809 Z" fill="#000000" fill-rule="evenodd" fill-opacity="1" /><path clip-path="url(#clip280)" d="M 0 0 M1210.4 18.8205 L1210.4 65.8515 L1220.28 65.8515 Q1232.8 65.8515 1238.59 60.1802 Q1244.43 54.509 1244.43 42.2752 Q1244.43 30.1225 1238.59 24.4918 Q1232.8 18.8205 1220.28 18.8205 L1210.4 18.8205 M1202.22 12.096 L1219.03 12.096 Q1236.61 12.096 1244.83 19.4281 Q1253.06 26.7198 1253.06 42.2752 Q1253.06 57.9117 1244.79 65.2439 Q1236.53 72.576 1219.03 72.576 L1202.22 72.576 L1202.22 12.096 Z" fill="#000000" fill-rule="evenodd" fill-opacity="1" /><path clip-path="url(#clip280)" d="M 0 0 M1261.2 12.096 L1269.38 12.096 L1269.38 37.6572 L1296.52 12.096 L1307.06 12.096 L1277.04 40.2903 L1309.2 72.576 L1298.43 72.576 L1269.38 43.45 L1269.38 72.576 L1261.2 72.576 L1261.2 12.096 Z" fill="#000000" fill-rule="evenodd" fill-opacity="1" /><path clip-path="url(#clip280)" d="M 0 0 M1346.02 44.2197 Q1348.66 45.1109 1351.13 48.0275 Q1353.64 50.9442 1356.15 56.0483 L1364.46 72.576 L1355.67 72.576 L1347.93 57.061 Q1344.93 50.9847 1342.1 48.9997 Q1339.3 47.0148 1334.44 47.0148 L1325.53 47.0148 L1325.53 72.576 L1317.34 72.576 L1317.34 12.096 L1335.82 12.096 Q1346.19 12.096 1351.29 16.4305 Q1356.4 20.7649 1356.4 29.5149 Q1356.4 35.2267 1353.72 38.994 Q1351.09 42.7613 1346.02 44.2197 M1325.53 18.8205 L1325.53 40.2903 L1335.82 40.2903 Q1341.73 40.2903 1344.73 37.5762 Q1347.77 34.8216 1347.77 29.5149 Q1347.77 24.2082 1344.73 21.5346 Q1341.73 18.8205 1335.82 18.8205 L1325.53 18.8205 Z" fill="#000000" fill-rule="evenodd" fill-opacity="1" /><path clip-path="url(#clip280)" d="M 0 0 M1363.85 12.096 L1372.11 12.096 L1384.83 63.2184 L1397.51 12.096 L1406.71 12.096 L1419.43 63.2184 L1432.11 12.096 L1440.41 12.096 L1425.22 72.576 L1414.93 72.576 L1402.17 20.0763 L1389.29 72.576 L1379 72.576 L1363.85 12.096 Z" fill="#000000" fill-rule="evenodd" fill-opacity="1" /><polyline clip-path="url(#clip282)" style="stroke:#009af9; stroke-width:4; stroke-opacity:1; fill:none" points="
  2291.47,206.353 2258.92,344.783 2229.41,304.32 2198.89,438.544 2166.34,472.264 2137.85,767.905 2106.32,575.307 2073.76,668.705 2044.26,451.742 2012.72,371.614 
  1981.19,530.493 1950.67,757.391 1917.09,523.169 1888.61,696.768 1857.07,897.706 1824.52,985.158 1795.01,1078.05 1766.53,1074.64 1734.99,1021.71 1703.45,865.945 
  1672.93,1098.57 1639.36,1054.84 1610.88,1074.64 1579.34,1053.25 1546.78,1309.95 1517.28,1381.3 1485.74,1447.87 1454.21,1268.11 1423.69,1386.89 1395.2,1410.02 
  1361.63,1254.91 1332.13,1036.5 1301.61,837.809 1269.05,991.322 1239.55,1027.65 1208.01,838.897 1176.48,1025.77 1145.96,900.026 1112.38,1054.55 1083.9,894.878 
  1052.36,797.926 1023.88,397.719 991.322,602.21 960.802,840.42 930.282,1171.09 898.744,1045.64 868.224,1071.38 834.652,784.583 805.15,513.017 774.63,828.455 
  742.075,874.139 712.573,162.047 681.035,391.555 649.498,600.397 619.995,736.724 588.458,868.7 556.921,538.034 526.401,560.876 495.881,675.812 464.344,1020.62 
  432.806,1075.37 400.252,1342.58 370.749,1093.49 340.229,1164.56 307.674,1143.17 279.189,1224.02 248.669,1088.42 
  "/>
<path clip-path="url(#clip280)" d="
M1936.8 327.952 L2280.76 327.952 L2280.76 206.992 L1936.8 206.992  Z
  " fill="#ffffff" fill-rule="evenodd" fill-opacity="1"/>
<polyline clip-path="url(#clip280)" style="stroke:#000000; stroke-width:4; stroke-opacity:1; fill:none" points="
  1936.8,327.952 2280.76,327.952 2280.76,206.992 1936.8,206.992 1936.8,327.952 
  "/>
<polyline clip-path="url(#clip280)" style="stroke:#009af9; stroke-width:4; stroke-opacity:1; fill:none" points="
  1960.8,267.472 2104.8,267.472 
  "/>
<path clip-path="url(#clip280)" d="M 0 0 M2140.7 261.812 Q2137.27 261.812 2135.28 264.498 Q2133.29 267.16 2133.29 271.812 Q2133.29 276.465 2135.26 279.15 Q2137.25 281.812 2140.7 281.812 Q2144.1 281.812 2146.09 279.127 Q2148.08 276.442 2148.08 271.812 Q2148.08 267.206 2146.09 264.521 Q2144.1 261.812 2140.7 261.812 M2140.7 258.201 Q2146.25 258.201 2149.42 261.812 Q2152.59 265.424 2152.59 271.812 Q2152.59 278.178 2149.42 281.812 Q2146.25 285.423 2140.7 285.423 Q2135.12 285.423 2131.95 281.812 Q2128.8 278.178 2128.8 271.812 Q2128.8 265.424 2131.95 261.812 Q2135.12 258.201 2140.7 258.201 Z" fill="#000000" fill-rule="evenodd" fill-opacity="1" /><path clip-path="url(#clip280)" d="M 0 0 M2161.18 280.863 L2161.18 294.613 L2156.9 294.613 L2156.9 258.826 L2161.18 258.826 L2161.18 262.762 Q2162.52 260.447 2164.56 259.336 Q2166.62 258.201 2169.47 258.201 Q2174.19 258.201 2177.13 261.951 Q2180.09 265.701 2180.09 271.812 Q2180.09 277.923 2177.13 281.673 Q2174.19 285.423 2169.47 285.423 Q2166.62 285.423 2164.56 284.312 Q2162.52 283.178 2161.18 280.863 M2175.67 271.812 Q2175.67 267.113 2173.73 264.451 Q2171.81 261.766 2168.43 261.766 Q2165.05 261.766 2163.1 264.451 Q2161.18 267.113 2161.18 271.812 Q2161.18 276.511 2163.1 279.197 Q2165.05 281.859 2168.43 281.859 Q2171.81 281.859 2173.73 279.197 Q2175.67 276.511 2175.67 271.812 Z" fill="#000000" fill-rule="evenodd" fill-opacity="1" /><path clip-path="url(#clip280)" d="M 0 0 M2206.74 270.724 L2206.74 272.808 L2187.15 272.808 Q2187.43 277.206 2189.79 279.521 Q2192.18 281.812 2196.41 281.812 Q2198.87 281.812 2201.16 281.21 Q2203.47 280.609 2205.74 279.405 L2205.74 283.433 Q2203.45 284.405 2201.04 284.914 Q2198.64 285.423 2196.16 285.423 Q2189.96 285.423 2186.32 281.812 Q2182.71 278.201 2182.71 272.044 Q2182.71 265.678 2186.14 261.951 Q2189.58 258.201 2195.42 258.201 Q2200.65 258.201 2203.68 261.581 Q2206.74 264.937 2206.74 270.724 M2202.48 269.474 Q2202.43 265.979 2200.51 263.896 Q2198.61 261.812 2195.46 261.812 Q2191.9 261.812 2189.75 263.826 Q2187.62 265.84 2187.29 269.498 L2202.48 269.474 Z" fill="#000000" fill-rule="evenodd" fill-opacity="1" /><path clip-path="url(#clip280)" d="M 0 0 M2232.76 269.104 L2232.76 284.752 L2228.5 284.752 L2228.5 269.243 Q2228.5 265.562 2227.06 263.734 Q2225.63 261.905 2222.76 261.905 Q2219.31 261.905 2217.32 264.104 Q2215.33 266.303 2215.33 270.099 L2215.33 284.752 L2211.04 284.752 L2211.04 258.826 L2215.33 258.826 L2215.33 262.854 Q2216.85 260.516 2218.91 259.359 Q2221 258.201 2223.71 258.201 Q2228.17 258.201 2230.46 260.979 Q2232.76 263.734 2232.76 269.104 Z" fill="#000000" fill-rule="evenodd" fill-opacity="1" /></svg>
