<?xml version="1.0" encoding="utf-8"?>
<svg xmlns="http://www.w3.org/2000/svg" xmlns:xlink="http://www.w3.org/1999/xlink" width="600" height="400" viewBox="0 0 2400 1600">
<defs>
  <clipPath id="clip320">
    <rect x="0" y="0" width="2400" height="1600"/>
  </clipPath>
</defs>
<path clip-path="url(#clip320)" d="
M0 1600 L2400 1600 L2400 0 L0 0  Z
  " fill="#ffffff" fill-rule="evenodd" fill-opacity="1"/>
<defs>
  <clipPath id="clip321">
    <rect x="480" y="0" width="1681" height="1600"/>
  </clipPath>
</defs>
<path clip-path="url(#clip320)" d="
M225.001 1486.45 L2352.76 1486.45 L2352.76 123.472 L225.001 123.472  Z
  " fill="#ffffff" fill-rule="evenodd" fill-opacity="1"/>
<defs>
  <clipPath id="clip322">
    <rect x="225" y="123" width="2129" height="1364"/>
  </clipPath>
</defs>
<polyline clip-path="url(#clip322)" style="stroke:#000000; stroke-width:2; stroke-opacity:0.1; fill:none" points="
  244.668,1486.45 244.668,123.472 
  "/>
<polyline clip-path="url(#clip322)" style="stroke:#000000; stroke-width:2; stroke-opacity:0.1; fill:none" points="
  771.842,1486.45 771.842,123.472 
  "/>
<polyline clip-path="url(#clip322)" style="stroke:#000000; stroke-width:2; stroke-opacity:0.1; fill:none" points="
  1299.02,1486.45 1299.02,123.472 
  "/>
<polyline clip-path="url(#clip322)" style="stroke:#000000; stroke-width:2; stroke-opacity:0.1; fill:none" points="
  1826.19,1486.45 1826.19,123.472 
  "/>
<polyline clip-path="url(#clip322)" style="stroke:#000000; stroke-width:2; stroke-opacity:0.1; fill:none" points="
  225.001,1319.29 2352.76,1319.29 
  "/>
<polyline clip-path="url(#clip322)" style="stroke:#000000; stroke-width:2; stroke-opacity:0.1; fill:none" points="
  225.001,997.834 2352.76,997.834 
  "/>
<polyline clip-path="url(#clip322)" style="stroke:#000000; stroke-width:2; stroke-opacity:0.1; fill:none" points="
  225.001,676.377 2352.76,676.377 
  "/>
<polyline clip-path="url(#clip322)" style="stroke:#000000; stroke-width:2; stroke-opacity:0.1; fill:none" points="
  225.001,354.921 2352.76,354.921 
  "/>
<polyline clip-path="url(#clip320)" style="stroke:#000000; stroke-width:4; stroke-opacity:1; fill:none" points="
  225.001,1486.45 2352.76,1486.45 
  "/>
<polyline clip-path="url(#clip320)" style="stroke:#000000; stroke-width:4; stroke-opacity:1; fill:none" points="
  225.001,1486.45 225.001,123.472 
  "/>
<polyline clip-path="url(#clip320)" style="stroke:#000000; stroke-width:4; stroke-opacity:1; fill:none" points="
  244.668,1486.45 244.668,1470.09 
  "/>
<polyline clip-path="url(#clip320)" style="stroke:#000000; stroke-width:4; stroke-opacity:1; fill:none" points="
  771.842,1486.45 771.842,1470.09 
  "/>
<polyline clip-path="url(#clip320)" style="stroke:#000000; stroke-width:4; stroke-opacity:1; fill:none" points="
  1299.02,1486.45 1299.02,1470.09 
  "/>
<polyline clip-path="url(#clip320)" style="stroke:#000000; stroke-width:4; stroke-opacity:1; fill:none" points="
  1826.19,1486.45 1826.19,1470.09 
  "/>
<polyline clip-path="url(#clip320)" style="stroke:#000000; stroke-width:4; stroke-opacity:1; fill:none" points="
  225.001,1319.29 250.534,1319.29 
  "/>
<polyline clip-path="url(#clip320)" style="stroke:#000000; stroke-width:4; stroke-opacity:1; fill:none" points="
  225.001,997.834 250.534,997.834 
  "/>
<polyline clip-path="url(#clip320)" style="stroke:#000000; stroke-width:4; stroke-opacity:1; fill:none" points="
  225.001,676.377 250.534,676.377 
  "/>
<polyline clip-path="url(#clip320)" style="stroke:#000000; stroke-width:4; stroke-opacity:1; fill:none" points="
  225.001,354.921 250.534,354.921 
  "/>
<path clip-path="url(#clip320)" d="M 0 0 M26.1394 1535.98 L42.4587 1535.98 L42.4587 1539.92 L20.5144 1539.92 L20.5144 1535.98 Q23.1764 1533.23 27.7597 1528.6 Q32.3662 1523.95 33.5467 1522.61 Q35.7921 1520.08 36.6717 1518.35 Q37.5745 1516.59 37.5745 1514.9 Q37.5745 1512.14 35.6301 1510.41 Q33.7088 1508.67 30.6069 1508.67 Q28.4079 1508.67 25.9542 1509.43 Q23.5236 1510.2 20.7459 1511.75 L20.7459 1507.03 Q23.5699 1505.89 26.0236 1505.31 Q28.4773 1504.73 30.5143 1504.73 Q35.8847 1504.73 39.0791 1507.42 Q42.2735 1510.11 42.2735 1514.6 Q42.2735 1516.73 41.4634 1518.65 Q40.6763 1520.54 38.5699 1523.14 Q37.9912 1523.81 34.8893 1527.03 Q31.7875 1530.22 26.1394 1535.98 Z" fill="#000000" fill-rule="evenodd" fill-opacity="1" /><path clip-path="url(#clip320)" d="M 0 0 M57.5281 1508.44 Q53.917 1508.44 52.0883 1512 Q50.2828 1515.55 50.2828 1522.67 Q50.2828 1529.78 52.0883 1533.35 Q53.917 1536.89 57.5281 1536.89 Q61.1623 1536.89 62.9679 1533.35 Q64.7966 1529.78 64.7966 1522.67 Q64.7966 1515.55 62.9679 1512 Q61.1623 1508.44 57.5281 1508.44 M57.5281 1504.73 Q63.3382 1504.73 66.3938 1509.34 Q69.4725 1513.92 69.4725 1522.67 Q69.4725 1531.4 66.3938 1536.01 Q63.3382 1540.59 57.5281 1540.59 Q51.7179 1540.59 48.6392 1536.01 Q45.5837 1531.4 45.5837 1522.67 Q45.5837 1513.92 48.6392 1509.34 Q51.7179 1504.73 57.5281 1504.73 Z" fill="#000000" fill-rule="evenodd" fill-opacity="1" /><path clip-path="url(#clip320)" d="M 0 0 M78.5696 1535.98 L94.889 1535.98 L94.889 1539.92 L72.9447 1539.92 L72.9447 1535.98 Q75.6067 1533.23 80.19 1528.6 Q84.7965 1523.95 85.977 1522.61 Q88.2224 1520.08 89.102 1518.35 Q90.0048 1516.59 90.0048 1514.9 Q90.0048 1512.14 88.0603 1510.41 Q86.139 1508.67 83.0372 1508.67 Q80.8381 1508.67 78.3845 1509.43 Q75.9539 1510.2 73.1762 1511.75 L73.1762 1507.03 Q76.0002 1505.89 78.4539 1505.31 Q80.9076 1504.73 82.9446 1504.73 Q88.315 1504.73 91.5094 1507.42 Q94.7038 1510.11 94.7038 1514.6 Q94.7038 1516.73 93.8936 1518.65 Q93.1066 1520.54 91.0001 1523.14 Q90.4214 1523.81 87.3196 1527.03 Q84.2178 1530.22 78.5696 1535.98 Z" fill="#000000" fill-rule="evenodd" fill-opacity="1" /><path clip-path="url(#clip320)" d="M 0 0 M109.958 1508.44 Q106.347 1508.44 104.519 1512 Q102.713 1515.55 102.713 1522.67 Q102.713 1529.78 104.519 1533.35 Q106.347 1536.89 109.958 1536.89 Q113.593 1536.89 115.398 1533.35 Q117.227 1529.78 117.227 1522.67 Q117.227 1515.55 115.398 1512 Q113.593 1508.44 109.958 1508.44 M109.958 1504.73 Q115.769 1504.73 118.824 1509.34 Q121.903 1513.92 121.903 1522.67 Q121.903 1531.4 118.824 1536.01 Q115.769 1540.59 109.958 1540.59 Q104.148 1540.59 101.07 1536.01 Q98.014 1531.4 98.014 1522.67 Q98.014 1513.92 101.07 1509.34 Q104.148 1504.73 109.958 1504.73 Z" fill="#000000" fill-rule="evenodd" fill-opacity="1" /><path clip-path="url(#clip320)" d="M 0 0 M124.218 1525.04 L136.694 1525.04 L136.694 1528.83 L124.218 1528.83 L124.218 1525.04 Z" fill="#000000" fill-rule="evenodd" fill-opacity="1" /><path clip-path="url(#clip320)" d="M 0 0 M151.764 1508.44 Q148.153 1508.44 146.324 1512 Q144.518 1515.55 144.518 1522.67 Q144.518 1529.78 146.324 1533.35 Q148.153 1536.89 151.764 1536.89 Q155.398 1536.89 157.203 1533.35 Q159.032 1529.78 159.032 1522.67 Q159.032 1515.55 157.203 1512 Q155.398 1508.44 151.764 1508.44 M151.764 1504.73 Q157.574 1504.73 160.629 1509.34 Q163.708 1513.92 163.708 1522.67 Q163.708 1531.4 160.629 1536.01 Q157.574 1540.59 151.764 1540.59 Q145.954 1540.59 142.875 1536.01 Q139.819 1531.4 139.819 1522.67 Q139.819 1513.92 142.875 1509.34 Q145.954 1504.73 151.764 1504.73 Z" fill="#000000" fill-rule="evenodd" fill-opacity="1" /><path clip-path="url(#clip320)" d="M 0 0 M179.356 1520.78 Q176.208 1520.78 174.356 1522.93 Q172.527 1525.08 172.527 1528.83 Q172.527 1532.56 174.356 1534.73 Q176.208 1536.89 179.356 1536.89 Q182.504 1536.89 184.333 1534.73 Q186.185 1532.56 186.185 1528.83 Q186.185 1525.08 184.333 1522.93 Q182.504 1520.78 179.356 1520.78 M188.638 1506.12 L188.638 1510.38 Q186.879 1509.55 185.074 1509.11 Q183.291 1508.67 181.532 1508.67 Q176.902 1508.67 174.449 1511.8 Q172.018 1514.92 171.671 1521.24 Q173.037 1519.23 175.097 1518.16 Q177.157 1517.07 179.634 1517.07 Q184.842 1517.07 187.851 1520.24 Q190.884 1523.39 190.884 1528.83 Q190.884 1534.16 187.736 1537.37 Q184.588 1540.59 179.356 1540.59 Q173.361 1540.59 170.19 1536.01 Q167.018 1531.4 167.018 1522.67 Q167.018 1514.48 170.907 1509.62 Q174.796 1504.73 181.347 1504.73 Q183.106 1504.73 184.889 1505.08 Q186.694 1505.43 188.638 1506.12 Z" fill="#000000" fill-rule="evenodd" fill-opacity="1" /><path clip-path="url(#clip320)" d="M 0 0 M193.199 1525.04 L205.675 1525.04 L205.675 1528.83 L193.199 1528.83 L193.199 1525.04 Z" fill="#000000" fill-rule="evenodd" fill-opacity="1" /><path clip-path="url(#clip320)" d="M 0 0 M224.911 1521.29 Q228.268 1522 230.143 1524.27 Q232.041 1526.54 232.041 1529.87 Q232.041 1534.99 228.523 1537.79 Q225.004 1540.59 218.523 1540.59 Q216.347 1540.59 214.032 1540.15 Q211.74 1539.73 209.287 1538.88 L209.287 1534.36 Q211.231 1535.5 213.546 1536.08 Q215.861 1536.66 218.384 1536.66 Q222.782 1536.66 225.073 1534.92 Q227.388 1533.18 227.388 1529.87 Q227.388 1526.82 225.236 1525.11 Q223.106 1523.37 219.286 1523.37 L215.259 1523.37 L215.259 1519.53 L219.472 1519.53 Q222.921 1519.53 224.749 1518.16 Q226.578 1516.77 226.578 1514.18 Q226.578 1511.52 224.68 1510.11 Q222.805 1508.67 219.286 1508.67 Q217.365 1508.67 215.166 1509.09 Q212.967 1509.5 210.328 1510.38 L210.328 1506.22 Q212.99 1505.48 215.305 1505.11 Q217.643 1504.73 219.703 1504.73 Q225.027 1504.73 228.129 1507.17 Q231.231 1509.57 231.231 1513.69 Q231.231 1516.56 229.587 1518.55 Q227.944 1520.52 224.911 1521.29 Z" fill="#000000" fill-rule="evenodd" fill-opacity="1" /><path clip-path="url(#clip320)" d="M 0 0 M247.11 1508.44 Q243.499 1508.44 241.671 1512 Q239.865 1515.55 239.865 1522.67 Q239.865 1529.78 241.671 1533.35 Q243.499 1536.89 247.11 1536.89 Q250.745 1536.89 252.55 1533.35 Q254.379 1529.78 254.379 1522.67 Q254.379 1515.55 252.55 1512 Q250.745 1508.44 247.11 1508.44 M247.11 1504.73 Q252.921 1504.73 255.976 1509.34 Q259.055 1513.92 259.055 1522.67 Q259.055 1531.4 255.976 1536.01 Q252.921 1540.59 247.11 1540.59 Q241.3 1540.59 238.222 1536.01 Q235.166 1531.4 235.166 1522.67 Q235.166 1513.92 238.222 1509.34 Q241.3 1504.73 247.11 1504.73 Z" fill="#000000" fill-rule="evenodd" fill-opacity="1" /><path clip-path="url(#clip320)" d="M 0 0 M258.916 1505.36 L288.152 1505.36 L288.152 1509.3 L275.883 1509.3 L275.883 1539.92 L271.184 1539.92 L271.184 1509.3 L258.916 1509.3 L258.916 1505.36 Z" fill="#000000" fill-rule="evenodd" fill-opacity="1" /><path clip-path="url(#clip320)" d="M 0 0 M303.221 1508.44 Q299.61 1508.44 297.781 1512 Q295.976 1515.55 295.976 1522.67 Q295.976 1529.78 297.781 1533.35 Q299.61 1536.89 303.221 1536.89 Q306.855 1536.89 308.661 1533.35 Q310.49 1529.78 310.49 1522.67 Q310.49 1515.55 308.661 1512 Q306.855 1508.44 303.221 1508.44 M303.221 1504.73 Q309.031 1504.73 312.087 1509.34 Q315.166 1513.92 315.166 1522.67 Q315.166 1531.4 312.087 1536.01 Q309.031 1540.59 303.221 1540.59 Q297.411 1540.59 294.332 1536.01 Q291.277 1531.4 291.277 1522.67 Q291.277 1513.92 294.332 1509.34 Q297.411 1504.73 303.221 1504.73 Z" fill="#000000" fill-rule="evenodd" fill-opacity="1" /><path clip-path="url(#clip320)" d="M 0 0 M320.281 1505.36 L338.638 1505.36 L338.638 1509.3 L324.564 1509.3 L324.564 1517.77 Q325.582 1517.42 326.601 1517.26 Q327.619 1517.07 328.638 1517.07 Q334.425 1517.07 337.804 1520.24 Q341.184 1523.42 341.184 1528.83 Q341.184 1534.41 337.712 1537.51 Q334.24 1540.59 327.92 1540.59 Q325.744 1540.59 323.476 1540.22 Q321.23 1539.85 318.823 1539.11 L318.823 1534.41 Q320.906 1535.54 323.129 1536.1 Q325.351 1536.66 327.828 1536.66 Q331.832 1536.66 334.17 1534.55 Q336.508 1532.44 336.508 1528.83 Q336.508 1525.22 334.17 1523.11 Q331.832 1521.01 327.828 1521.01 Q325.953 1521.01 324.078 1521.42 Q322.226 1521.84 320.281 1522.72 L320.281 1505.36 Z" fill="#000000" fill-rule="evenodd" fill-opacity="1" /><path clip-path="url(#clip320)" d="M 0 0 M346.74 1534.04 L351.624 1534.04 L351.624 1539.92 L346.74 1539.92 L346.74 1534.04 M346.74 1515.41 L351.624 1515.41 L351.624 1521.29 L346.74 1521.29 L346.74 1515.41 Z" fill="#000000" fill-rule="evenodd" fill-opacity="1" /><path clip-path="url(#clip320)" d="M 0 0 M370.86 1521.29 Q374.216 1522 376.091 1524.27 Q377.989 1526.54 377.989 1529.87 Q377.989 1534.99 374.471 1537.79 Q370.952 1540.59 364.471 1540.59 Q362.295 1540.59 359.98 1540.15 Q357.689 1539.73 355.235 1538.88 L355.235 1534.36 Q357.179 1535.5 359.494 1536.08 Q361.809 1536.66 364.332 1536.66 Q368.73 1536.66 371.022 1534.92 Q373.337 1533.18 373.337 1529.87 Q373.337 1526.82 371.184 1525.11 Q369.054 1523.37 365.235 1523.37 L361.207 1523.37 L361.207 1519.53 L365.42 1519.53 Q368.869 1519.53 370.698 1518.16 Q372.526 1516.77 372.526 1514.18 Q372.526 1511.52 370.628 1510.11 Q368.753 1508.67 365.235 1508.67 Q363.313 1508.67 361.114 1509.09 Q358.915 1509.5 356.276 1510.38 L356.276 1506.22 Q358.939 1505.48 361.253 1505.11 Q363.591 1504.73 365.651 1504.73 Q370.975 1504.73 374.077 1507.17 Q377.179 1509.57 377.179 1513.69 Q377.179 1516.56 375.536 1518.55 Q373.892 1520.52 370.86 1521.29 Z" fill="#000000" fill-rule="evenodd" fill-opacity="1" /><path clip-path="url(#clip320)" d="M 0 0 M397.225 1521.29 Q400.582 1522 402.457 1524.27 Q404.355 1526.54 404.355 1529.87 Q404.355 1534.99 400.836 1537.79 Q397.318 1540.59 390.836 1540.59 Q388.661 1540.59 386.346 1540.15 Q384.054 1539.73 381.6 1538.88 L381.6 1534.36 Q383.545 1535.5 385.86 1536.08 Q388.174 1536.66 390.698 1536.66 Q395.096 1536.66 397.387 1534.92 Q399.702 1533.18 399.702 1529.87 Q399.702 1526.82 397.549 1525.11 Q395.42 1523.37 391.6 1523.37 L387.573 1523.37 L387.573 1519.53 L391.786 1519.53 Q395.235 1519.53 397.063 1518.16 Q398.892 1516.77 398.892 1514.18 Q398.892 1511.52 396.994 1510.11 Q395.119 1508.67 391.6 1508.67 Q389.679 1508.67 387.48 1509.09 Q385.281 1509.5 382.642 1510.38 L382.642 1506.22 Q385.304 1505.48 387.619 1505.11 Q389.957 1504.73 392.017 1504.73 Q397.341 1504.73 400.443 1507.17 Q403.545 1509.57 403.545 1513.69 Q403.545 1516.56 401.901 1518.55 Q400.258 1520.52 397.225 1521.29 Z" fill="#000000" fill-rule="evenodd" fill-opacity="1" /><path clip-path="url(#clip320)" d="M 0 0 M409.91 1534.04 L414.795 1534.04 L414.795 1539.92 L409.91 1539.92 L409.91 1534.04 M409.91 1515.41 L414.795 1515.41 L414.795 1521.29 L409.91 1521.29 L409.91 1515.41 Z" fill="#000000" fill-rule="evenodd" fill-opacity="1" /><path clip-path="url(#clip320)" d="M 0 0 M429.864 1508.44 Q426.253 1508.44 424.424 1512 Q422.619 1515.55 422.619 1522.67 Q422.619 1529.78 424.424 1533.35 Q426.253 1536.89 429.864 1536.89 Q433.498 1536.89 435.304 1533.35 Q437.133 1529.78 437.133 1522.67 Q437.133 1515.55 435.304 1512 Q433.498 1508.44 429.864 1508.44 M429.864 1504.73 Q435.674 1504.73 438.73 1509.34 Q441.808 1513.92 441.808 1522.67 Q441.808 1531.4 438.73 1536.01 Q435.674 1540.59 429.864 1540.59 Q424.054 1540.59 420.975 1536.01 Q417.92 1531.4 417.92 1522.67 Q417.92 1513.92 420.975 1509.34 Q424.054 1504.73 429.864 1504.73 Z" fill="#000000" fill-rule="evenodd" fill-opacity="1" /><path clip-path="url(#clip320)" d="M 0 0 M456.878 1508.44 Q453.267 1508.44 451.438 1512 Q449.632 1515.55 449.632 1522.67 Q449.632 1529.78 451.438 1533.35 Q453.267 1536.89 456.878 1536.89 Q460.512 1536.89 462.318 1533.35 Q464.146 1529.78 464.146 1522.67 Q464.146 1515.55 462.318 1512 Q460.512 1508.44 456.878 1508.44 M456.878 1504.73 Q462.688 1504.73 465.743 1509.34 Q468.822 1513.92 468.822 1522.67 Q468.822 1531.4 465.743 1536.01 Q462.688 1540.59 456.878 1540.59 Q451.068 1540.59 447.989 1536.01 Q444.933 1531.4 444.933 1522.67 Q444.933 1513.92 447.989 1509.34 Q451.068 1504.73 456.878 1504.73 Z" fill="#000000" fill-rule="evenodd" fill-opacity="1" /><path clip-path="url(#clip320)" d="M 0 0 M553.255 1535.98 L569.575 1535.98 L569.575 1539.92 L547.631 1539.92 L547.631 1535.98 Q550.293 1533.23 554.876 1528.6 Q559.482 1523.95 560.663 1522.61 Q562.908 1520.08 563.788 1518.35 Q564.691 1516.59 564.691 1514.9 Q564.691 1512.14 562.746 1510.41 Q560.825 1508.67 557.723 1508.67 Q555.524 1508.67 553.07 1509.43 Q550.64 1510.2 547.862 1511.75 L547.862 1507.03 Q550.686 1505.89 553.14 1505.31 Q555.593 1504.73 557.63 1504.73 Q563.001 1504.73 566.195 1507.42 Q569.39 1510.11 569.39 1514.6 Q569.39 1516.73 568.579 1518.65 Q567.792 1520.54 565.686 1523.14 Q565.107 1523.81 562.005 1527.03 Q558.904 1530.22 553.255 1535.98 Z" fill="#000000" fill-rule="evenodd" fill-opacity="1" /><path clip-path="url(#clip320)" d="M 0 0 M584.644 1508.44 Q581.033 1508.44 579.204 1512 Q577.399 1515.55 577.399 1522.67 Q577.399 1529.78 579.204 1533.35 Q581.033 1536.89 584.644 1536.89 Q588.278 1536.89 590.084 1533.35 Q591.913 1529.78 591.913 1522.67 Q591.913 1515.55 590.084 1512 Q588.278 1508.44 584.644 1508.44 M584.644 1504.73 Q590.454 1504.73 593.51 1509.34 Q596.589 1513.92 596.589 1522.67 Q596.589 1531.4 593.51 1536.01 Q590.454 1540.59 584.644 1540.59 Q578.834 1540.59 575.755 1536.01 Q572.7 1531.4 572.7 1522.67 Q572.7 1513.92 575.755 1509.34 Q578.834 1504.73 584.644 1504.73 Z" fill="#000000" fill-rule="evenodd" fill-opacity="1" /><path clip-path="url(#clip320)" d="M 0 0 M605.686 1535.98 L622.005 1535.98 L622.005 1539.92 L600.061 1539.92 L600.061 1535.98 Q602.723 1533.23 607.306 1528.6 Q611.913 1523.95 613.093 1522.61 Q615.338 1520.08 616.218 1518.35 Q617.121 1516.59 617.121 1514.9 Q617.121 1512.14 615.176 1510.41 Q613.255 1508.67 610.153 1508.67 Q607.954 1508.67 605.501 1509.43 Q603.07 1510.2 600.292 1511.75 L600.292 1507.03 Q603.116 1505.89 605.57 1505.31 Q608.024 1504.73 610.061 1504.73 Q615.431 1504.73 618.625 1507.42 Q621.82 1510.11 621.82 1514.6 Q621.82 1516.73 621.01 1518.65 Q620.223 1520.54 618.116 1523.14 Q617.538 1523.81 614.436 1527.03 Q611.334 1530.22 605.686 1535.98 Z" fill="#000000" fill-rule="evenodd" fill-opacity="1" /><path clip-path="url(#clip320)" d="M 0 0 M637.074 1508.44 Q633.463 1508.44 631.635 1512 Q629.829 1515.55 629.829 1522.67 Q629.829 1529.78 631.635 1533.35 Q633.463 1536.89 637.074 1536.89 Q640.709 1536.89 642.514 1533.35 Q644.343 1529.78 644.343 1522.67 Q644.343 1515.55 642.514 1512 Q640.709 1508.44 637.074 1508.44 M637.074 1504.73 Q642.885 1504.73 645.94 1509.34 Q649.019 1513.92 649.019 1522.67 Q649.019 1531.4 645.94 1536.01 Q642.885 1540.59 637.074 1540.59 Q631.264 1540.59 628.186 1536.01 Q625.13 1531.4 625.13 1522.67 Q625.13 1513.92 628.186 1509.34 Q631.264 1504.73 637.074 1504.73 Z" fill="#000000" fill-rule="evenodd" fill-opacity="1" /><path clip-path="url(#clip320)" d="M 0 0 M651.334 1525.04 L663.81 1525.04 L663.81 1528.83 L651.334 1528.83 L651.334 1525.04 Z" fill="#000000" fill-rule="evenodd" fill-opacity="1" /><path clip-path="url(#clip320)" d="M 0 0 M678.88 1508.44 Q675.269 1508.44 673.44 1512 Q671.634 1515.55 671.634 1522.67 Q671.634 1529.78 673.44 1533.35 Q675.269 1536.89 678.88 1536.89 Q682.514 1536.89 684.32 1533.35 Q686.148 1529.78 686.148 1522.67 Q686.148 1515.55 684.32 1512 Q682.514 1508.44 678.88 1508.44 M678.88 1504.73 Q684.69 1504.73 687.745 1509.34 Q690.824 1513.92 690.824 1522.67 Q690.824 1531.4 687.745 1536.01 Q684.69 1540.59 678.88 1540.59 Q673.07 1540.59 669.991 1536.01 Q666.935 1531.4 666.935 1522.67 Q666.935 1513.92 669.991 1509.34 Q673.07 1504.73 678.88 1504.73 Z" fill="#000000" fill-rule="evenodd" fill-opacity="1" /><path clip-path="url(#clip320)" d="M 0 0 M706.472 1520.78 Q703.324 1520.78 701.472 1522.93 Q699.644 1525.08 699.644 1528.83 Q699.644 1532.56 701.472 1534.73 Q703.324 1536.89 706.472 1536.89 Q709.62 1536.89 711.449 1534.73 Q713.301 1532.56 713.301 1528.83 Q713.301 1525.08 711.449 1522.93 Q709.62 1520.78 706.472 1520.78 M715.755 1506.12 L715.755 1510.38 Q713.995 1509.55 712.19 1509.11 Q710.407 1508.67 708.648 1508.67 Q704.019 1508.67 701.565 1511.8 Q699.134 1514.92 698.787 1521.24 Q700.153 1519.23 702.213 1518.16 Q704.273 1517.07 706.75 1517.07 Q711.958 1517.07 714.968 1520.24 Q718 1523.39 718 1528.83 Q718 1534.16 714.852 1537.37 Q711.704 1540.59 706.472 1540.59 Q700.477 1540.59 697.306 1536.01 Q694.134 1531.4 694.134 1522.67 Q694.134 1514.48 698.023 1509.62 Q701.912 1504.73 708.463 1504.73 Q710.222 1504.73 712.005 1505.08 Q713.81 1505.43 715.755 1506.12 Z" fill="#000000" fill-rule="evenodd" fill-opacity="1" /><path clip-path="url(#clip320)" d="M 0 0 M720.315 1525.04 L732.792 1525.04 L732.792 1528.83 L720.315 1528.83 L720.315 1525.04 Z" fill="#000000" fill-rule="evenodd" fill-opacity="1" /><path clip-path="url(#clip320)" d="M 0 0 M752.028 1521.29 Q755.384 1522 757.259 1524.27 Q759.157 1526.54 759.157 1529.87 Q759.157 1534.99 755.639 1537.79 Q752.12 1540.59 745.639 1540.59 Q743.463 1540.59 741.148 1540.15 Q738.856 1539.73 736.403 1538.88 L736.403 1534.36 Q738.347 1535.5 740.662 1536.08 Q742.977 1536.66 745.5 1536.66 Q749.898 1536.66 752.19 1534.92 Q754.504 1533.18 754.504 1529.87 Q754.504 1526.82 752.352 1525.11 Q750.222 1523.37 746.403 1523.37 L742.375 1523.37 L742.375 1519.53 L746.588 1519.53 Q750.037 1519.53 751.866 1518.16 Q753.694 1516.77 753.694 1514.18 Q753.694 1511.52 751.796 1510.11 Q749.921 1508.67 746.403 1508.67 Q744.481 1508.67 742.282 1509.09 Q740.083 1509.5 737.444 1510.38 L737.444 1506.22 Q740.106 1505.48 742.421 1505.11 Q744.759 1504.73 746.819 1504.73 Q752.143 1504.73 755.245 1507.17 Q758.347 1509.57 758.347 1513.69 Q758.347 1516.56 756.703 1518.55 Q755.06 1520.52 752.028 1521.29 Z" fill="#000000" fill-rule="evenodd" fill-opacity="1" /><path clip-path="url(#clip320)" d="M 0 0 M774.227 1508.44 Q770.615 1508.44 768.787 1512 Q766.981 1515.55 766.981 1522.67 Q766.981 1529.78 768.787 1533.35 Q770.615 1536.89 774.227 1536.89 Q777.861 1536.89 779.666 1533.35 Q781.495 1529.78 781.495 1522.67 Q781.495 1515.55 779.666 1512 Q777.861 1508.44 774.227 1508.44 M774.227 1504.73 Q780.037 1504.73 783.092 1509.34 Q786.171 1513.92 786.171 1522.67 Q786.171 1531.4 783.092 1536.01 Q780.037 1540.59 774.227 1540.59 Q768.416 1540.59 765.338 1536.01 Q762.282 1531.4 762.282 1522.67 Q762.282 1513.92 765.338 1509.34 Q768.416 1504.73 774.227 1504.73 Z" fill="#000000" fill-rule="evenodd" fill-opacity="1" /><path clip-path="url(#clip320)" d="M 0 0 M786.032 1505.36 L815.268 1505.36 L815.268 1509.3 L803 1509.3 L803 1539.92 L798.3 1539.92 L798.3 1509.3 L786.032 1509.3 L786.032 1505.36 Z" fill="#000000" fill-rule="evenodd" fill-opacity="1" /><path clip-path="url(#clip320)" d="M 0 0 M830.337 1508.44 Q826.726 1508.44 824.898 1512 Q823.092 1515.55 823.092 1522.67 Q823.092 1529.78 824.898 1533.35 Q826.726 1536.89 830.337 1536.89 Q833.972 1536.89 835.777 1533.35 Q837.606 1529.78 837.606 1522.67 Q837.606 1515.55 835.777 1512 Q833.972 1508.44 830.337 1508.44 M830.337 1504.73 Q836.147 1504.73 839.203 1509.34 Q842.282 1513.92 842.282 1522.67 Q842.282 1531.4 839.203 1536.01 Q836.147 1540.59 830.337 1540.59 Q824.527 1540.59 821.448 1536.01 Q818.393 1531.4 818.393 1522.67 Q818.393 1513.92 821.448 1509.34 Q824.527 1504.73 830.337 1504.73 Z" fill="#000000" fill-rule="evenodd" fill-opacity="1" /><path clip-path="url(#clip320)" d="M 0 0 M847.397 1505.36 L865.754 1505.36 L865.754 1509.3 L851.68 1509.3 L851.68 1517.77 Q852.698 1517.42 853.717 1517.26 Q854.735 1517.07 855.754 1517.07 Q861.541 1517.07 864.92 1520.24 Q868.3 1523.42 868.3 1528.83 Q868.3 1534.41 864.828 1537.51 Q861.356 1540.59 855.036 1540.59 Q852.86 1540.59 850.592 1540.22 Q848.346 1539.85 845.939 1539.11 L845.939 1534.41 Q848.022 1535.54 850.245 1536.1 Q852.467 1536.66 854.944 1536.66 Q858.948 1536.66 861.286 1534.55 Q863.624 1532.44 863.624 1528.83 Q863.624 1525.22 861.286 1523.11 Q858.948 1521.01 854.944 1521.01 Q853.069 1521.01 851.194 1521.42 Q849.342 1521.84 847.397 1522.72 L847.397 1505.36 Z" fill="#000000" fill-rule="evenodd" fill-opacity="1" /><path clip-path="url(#clip320)" d="M 0 0 M873.856 1534.04 L878.74 1534.04 L878.74 1539.92 L873.856 1539.92 L873.856 1534.04 M873.856 1515.41 L878.74 1515.41 L878.74 1521.29 L873.856 1521.29 L873.856 1515.41 Z" fill="#000000" fill-rule="evenodd" fill-opacity="1" /><path clip-path="url(#clip320)" d="M 0 0 M883.856 1505.36 L902.212 1505.36 L902.212 1509.3 L888.138 1509.3 L888.138 1517.77 Q889.156 1517.42 890.175 1517.26 Q891.193 1517.07 892.212 1517.07 Q897.999 1517.07 901.379 1520.24 Q904.758 1523.42 904.758 1528.83 Q904.758 1534.41 901.286 1537.51 Q897.814 1540.59 891.494 1540.59 Q889.318 1540.59 887.05 1540.22 Q884.805 1539.85 882.397 1539.11 L882.397 1534.41 Q884.481 1535.54 886.703 1536.1 Q888.925 1536.66 891.402 1536.66 Q895.406 1536.66 897.744 1534.55 Q900.082 1532.44 900.082 1528.83 Q900.082 1525.22 897.744 1523.11 Q895.406 1521.01 891.402 1521.01 Q889.527 1521.01 887.652 1521.42 Q885.8 1521.84 883.856 1522.72 L883.856 1505.36 Z" fill="#000000" fill-rule="evenodd" fill-opacity="1" /><path clip-path="url(#clip320)" d="M 0 0 M909.967 1539.2 L909.967 1534.94 Q911.726 1535.78 913.531 1536.22 Q915.337 1536.66 917.073 1536.66 Q921.703 1536.66 924.133 1533.55 Q926.587 1530.43 926.934 1524.09 Q925.591 1526.08 923.531 1527.14 Q921.471 1528.21 918.971 1528.21 Q913.786 1528.21 910.754 1525.08 Q907.744 1521.93 907.744 1516.49 Q907.744 1511.17 910.892 1507.95 Q914.041 1504.73 919.272 1504.73 Q925.267 1504.73 928.416 1509.34 Q931.587 1513.92 931.587 1522.67 Q931.587 1530.85 927.698 1535.73 Q923.832 1540.59 917.281 1540.59 Q915.522 1540.59 913.717 1540.24 Q911.911 1539.9 909.967 1539.2 M919.272 1524.55 Q922.42 1524.55 924.249 1522.4 Q926.101 1520.24 926.101 1516.49 Q926.101 1512.77 924.249 1510.61 Q922.42 1508.44 919.272 1508.44 Q916.124 1508.44 914.272 1510.61 Q912.443 1512.77 912.443 1516.49 Q912.443 1520.24 914.272 1522.4 Q916.124 1524.55 919.272 1524.55 Z" fill="#000000" fill-rule="evenodd" fill-opacity="1" /><path clip-path="url(#clip320)" d="M 0 0 M937.142 1534.04 L942.027 1534.04 L942.027 1539.92 L937.142 1539.92 L937.142 1534.04 M937.142 1515.41 L942.027 1515.41 L942.027 1521.29 L937.142 1521.29 L937.142 1515.41 Z" fill="#000000" fill-rule="evenodd" fill-opacity="1" /><path clip-path="url(#clip320)" d="M 0 0 M957.096 1508.44 Q953.485 1508.44 951.656 1512 Q949.851 1515.55 949.851 1522.67 Q949.851 1529.78 951.656 1533.35 Q953.485 1536.89 957.096 1536.89 Q960.73 1536.89 962.536 1533.35 Q964.364 1529.78 964.364 1522.67 Q964.364 1515.55 962.536 1512 Q960.73 1508.44 957.096 1508.44 M957.096 1504.73 Q962.906 1504.73 965.962 1509.34 Q969.04 1513.92 969.04 1522.67 Q969.04 1531.4 965.962 1536.01 Q962.906 1540.59 957.096 1540.59 Q951.286 1540.59 948.207 1536.01 Q945.152 1531.4 945.152 1522.67 Q945.152 1513.92 948.207 1509.34 Q951.286 1504.73 957.096 1504.73 Z" fill="#000000" fill-rule="evenodd" fill-opacity="1" /><path clip-path="url(#clip320)" d="M 0 0 M984.11 1508.44 Q980.499 1508.44 978.67 1512 Q976.864 1515.55 976.864 1522.67 Q976.864 1529.78 978.67 1533.35 Q980.499 1536.89 984.11 1536.89 Q987.744 1536.89 989.549 1533.35 Q991.378 1529.78 991.378 1522.67 Q991.378 1515.55 989.549 1512 Q987.744 1508.44 984.11 1508.44 M984.11 1504.73 Q989.92 1504.73 992.975 1509.34 Q996.054 1513.92 996.054 1522.67 Q996.054 1531.4 992.975 1536.01 Q989.92 1540.59 984.11 1540.59 Q978.299 1540.59 975.221 1536.01 Q972.165 1531.4 972.165 1522.67 Q972.165 1513.92 975.221 1509.34 Q978.299 1504.73 984.11 1504.73 Z" fill="#000000" fill-rule="evenodd" fill-opacity="1" /><path clip-path="url(#clip320)" d="M 0 0 M1080.56 1535.98 L1096.88 1535.98 L1096.88 1539.92 L1074.93 1539.92 L1074.93 1535.98 Q1077.59 1533.23 1082.18 1528.6 Q1086.78 1523.95 1087.96 1522.61 Q1090.21 1520.08 1091.09 1518.35 Q1091.99 1516.59 1091.99 1514.9 Q1091.99 1512.14 1090.05 1510.41 Q1088.13 1508.67 1085.02 1508.67 Q1082.83 1508.67 1080.37 1509.43 Q1077.94 1510.2 1075.16 1511.75 L1075.16 1507.03 Q1077.99 1505.89 1080.44 1505.31 Q1082.89 1504.73 1084.93 1504.73 Q1090.3 1504.73 1093.5 1507.42 Q1096.69 1510.11 1096.69 1514.6 Q1096.69 1516.73 1095.88 1518.65 Q1095.09 1520.54 1092.99 1523.14 Q1092.41 1523.81 1089.31 1527.03 Q1086.2 1530.22 1080.56 1535.98 Z" fill="#000000" fill-rule="evenodd" fill-opacity="1" /><path clip-path="url(#clip320)" d="M 0 0 M1111.95 1508.44 Q1108.33 1508.44 1106.51 1512 Q1104.7 1515.55 1104.7 1522.67 Q1104.7 1529.78 1106.51 1533.35 Q1108.33 1536.89 1111.95 1536.89 Q1115.58 1536.89 1117.39 1533.35 Q1119.21 1529.78 1119.21 1522.67 Q1119.21 1515.55 1117.39 1512 Q1115.58 1508.44 1111.95 1508.44 M1111.95 1504.73 Q1117.76 1504.73 1120.81 1509.34 Q1123.89 1513.92 1123.89 1522.67 Q1123.89 1531.4 1120.81 1536.01 Q1117.76 1540.59 1111.95 1540.59 Q1106.14 1540.59 1103.06 1536.01 Q1100 1531.4 1100 1522.67 Q1100 1513.92 1103.06 1509.34 Q1106.14 1504.73 1111.95 1504.73 Z" fill="#000000" fill-rule="evenodd" fill-opacity="1" /><path clip-path="url(#clip320)" d="M 0 0 M1132.99 1535.98 L1149.31 1535.98 L1149.31 1539.92 L1127.36 1539.92 L1127.36 1535.98 Q1130.02 1533.23 1134.61 1528.6 Q1139.21 1523.95 1140.39 1522.61 Q1142.64 1520.08 1143.52 1518.35 Q1144.42 1516.59 1144.42 1514.9 Q1144.42 1512.14 1142.48 1510.41 Q1140.56 1508.67 1137.45 1508.67 Q1135.26 1508.67 1132.8 1509.43 Q1130.37 1510.2 1127.59 1511.75 L1127.59 1507.03 Q1130.42 1505.89 1132.87 1505.31 Q1135.32 1504.73 1137.36 1504.73 Q1142.73 1504.73 1145.93 1507.42 Q1149.12 1510.11 1149.12 1514.6 Q1149.12 1516.73 1148.31 1518.65 Q1147.52 1520.54 1145.42 1523.14 Q1144.84 1523.81 1141.74 1527.03 Q1138.64 1530.22 1132.99 1535.98 Z" fill="#000000" fill-rule="evenodd" fill-opacity="1" /><path clip-path="url(#clip320)" d="M 0 0 M1164.38 1508.44 Q1160.76 1508.44 1158.94 1512 Q1157.13 1515.55 1157.13 1522.67 Q1157.13 1529.78 1158.94 1533.35 Q1160.76 1536.89 1164.38 1536.89 Q1168.01 1536.89 1169.82 1533.35 Q1171.64 1529.78 1171.64 1522.67 Q1171.64 1515.55 1169.82 1512 Q1168.01 1508.44 1164.38 1508.44 M1164.38 1504.73 Q1170.19 1504.73 1173.24 1509.34 Q1176.32 1513.92 1176.32 1522.67 Q1176.32 1531.4 1173.24 1536.01 Q1170.19 1540.59 1164.38 1540.59 Q1158.57 1540.59 1155.49 1536.01 Q1152.43 1531.4 1152.43 1522.67 Q1152.43 1513.92 1155.49 1509.34 Q1158.57 1504.73 1164.38 1504.73 Z" fill="#000000" fill-rule="evenodd" fill-opacity="1" /><path clip-path="url(#clip320)" d="M 0 0 M1178.63 1525.04 L1191.11 1525.04 L1191.11 1528.83 L1178.63 1528.83 L1178.63 1525.04 Z" fill="#000000" fill-rule="evenodd" fill-opacity="1" /><path clip-path="url(#clip320)" d="M 0 0 M1206.18 1508.44 Q1202.57 1508.44 1200.74 1512 Q1198.94 1515.55 1198.94 1522.67 Q1198.94 1529.78 1200.74 1533.35 Q1202.57 1536.89 1206.18 1536.89 Q1209.82 1536.89 1211.62 1533.35 Q1213.45 1529.78 1213.45 1522.67 Q1213.45 1515.55 1211.62 1512 Q1209.82 1508.44 1206.18 1508.44 M1206.18 1504.73 Q1211.99 1504.73 1215.05 1509.34 Q1218.13 1513.92 1218.13 1522.67 Q1218.13 1531.4 1215.05 1536.01 Q1211.99 1540.59 1206.18 1540.59 Q1200.37 1540.59 1197.29 1536.01 Q1194.24 1531.4 1194.24 1522.67 Q1194.24 1513.92 1197.29 1509.34 Q1200.37 1504.73 1206.18 1504.73 Z" fill="#000000" fill-rule="evenodd" fill-opacity="1" /><path clip-path="url(#clip320)" d="M 0 0 M1233.77 1520.78 Q1230.63 1520.78 1228.77 1522.93 Q1226.94 1525.08 1226.94 1528.83 Q1226.94 1532.56 1228.77 1534.73 Q1230.63 1536.89 1233.77 1536.89 Q1236.92 1536.89 1238.75 1534.73 Q1240.6 1532.56 1240.6 1528.83 Q1240.6 1525.08 1238.75 1522.93 Q1236.92 1520.78 1233.77 1520.78 M1243.06 1506.12 L1243.06 1510.38 Q1241.3 1509.55 1239.49 1509.11 Q1237.71 1508.67 1235.95 1508.67 Q1231.32 1508.67 1228.87 1511.8 Q1226.44 1514.92 1226.09 1521.24 Q1227.45 1519.23 1229.51 1518.16 Q1231.57 1517.07 1234.05 1517.07 Q1239.26 1517.07 1242.27 1520.24 Q1245.3 1523.39 1245.3 1528.83 Q1245.3 1534.16 1242.15 1537.37 Q1239 1540.59 1233.77 1540.59 Q1227.78 1540.59 1224.61 1536.01 Q1221.44 1531.4 1221.44 1522.67 Q1221.44 1514.48 1225.32 1509.62 Q1229.21 1504.73 1235.76 1504.73 Q1237.52 1504.73 1239.31 1505.08 Q1241.11 1505.43 1243.06 1506.12 Z" fill="#000000" fill-rule="evenodd" fill-opacity="1" /><path clip-path="url(#clip320)" d="M 0 0 M1247.62 1525.04 L1260.09 1525.04 L1260.09 1528.83 L1247.62 1528.83 L1247.62 1525.04 Z" fill="#000000" fill-rule="evenodd" fill-opacity="1" /><path clip-path="url(#clip320)" d="M 0 0 M1279.33 1521.29 Q1282.69 1522 1284.56 1524.27 Q1286.46 1526.54 1286.46 1529.87 Q1286.46 1534.99 1282.94 1537.79 Q1279.42 1540.59 1272.94 1540.59 Q1270.76 1540.59 1268.45 1540.15 Q1266.16 1539.73 1263.7 1538.88 L1263.7 1534.36 Q1265.65 1535.5 1267.96 1536.08 Q1270.28 1536.66 1272.8 1536.66 Q1277.2 1536.66 1279.49 1534.92 Q1281.81 1533.18 1281.81 1529.87 Q1281.81 1526.82 1279.65 1525.11 Q1277.52 1523.37 1273.7 1523.37 L1269.68 1523.37 L1269.68 1519.53 L1273.89 1519.53 Q1277.34 1519.53 1279.17 1518.16 Q1281 1516.77 1281 1514.18 Q1281 1511.52 1279.1 1510.11 Q1277.22 1508.67 1273.7 1508.67 Q1271.78 1508.67 1269.58 1509.09 Q1267.38 1509.5 1264.75 1510.38 L1264.75 1506.22 Q1267.41 1505.48 1269.72 1505.11 Q1272.06 1504.73 1274.12 1504.73 Q1279.44 1504.73 1282.55 1507.17 Q1285.65 1509.57 1285.65 1513.69 Q1285.65 1516.56 1284 1518.55 Q1282.36 1520.52 1279.33 1521.29 Z" fill="#000000" fill-rule="evenodd" fill-opacity="1" /><path clip-path="url(#clip320)" d="M 0 0 M1301.53 1508.44 Q1297.92 1508.44 1296.09 1512 Q1294.28 1515.55 1294.28 1522.67 Q1294.28 1529.78 1296.09 1533.35 Q1297.92 1536.89 1301.53 1536.89 Q1305.16 1536.89 1306.97 1533.35 Q1308.8 1529.78 1308.8 1522.67 Q1308.8 1515.55 1306.97 1512 Q1305.16 1508.44 1301.53 1508.44 M1301.53 1504.73 Q1307.34 1504.73 1310.39 1509.34 Q1313.47 1513.92 1313.47 1522.67 Q1313.47 1531.4 1310.39 1536.01 Q1307.34 1540.59 1301.53 1540.59 Q1295.72 1540.59 1292.64 1536.01 Q1289.58 1531.4 1289.58 1522.67 Q1289.58 1513.92 1292.64 1509.34 Q1295.72 1504.73 1301.53 1504.73 Z" fill="#000000" fill-rule="evenodd" fill-opacity="1" /><path clip-path="url(#clip320)" d="M 0 0 M1313.33 1505.36 L1342.57 1505.36 L1342.57 1509.3 L1330.3 1509.3 L1330.3 1539.92 L1325.6 1539.92 L1325.6 1509.3 L1313.33 1509.3 L1313.33 1505.36 Z" fill="#000000" fill-rule="evenodd" fill-opacity="1" /><path clip-path="url(#clip320)" d="M 0 0 M1357.64 1508.44 Q1354.03 1508.44 1352.2 1512 Q1350.39 1515.55 1350.39 1522.67 Q1350.39 1529.78 1352.2 1533.35 Q1354.03 1536.89 1357.64 1536.89 Q1361.27 1536.89 1363.08 1533.35 Q1364.91 1529.78 1364.91 1522.67 Q1364.91 1515.55 1363.08 1512 Q1361.27 1508.44 1357.64 1508.44 M1357.64 1504.73 Q1363.45 1504.73 1366.5 1509.34 Q1369.58 1513.92 1369.58 1522.67 Q1369.58 1531.4 1366.5 1536.01 Q1363.45 1540.59 1357.64 1540.59 Q1351.83 1540.59 1348.75 1536.01 Q1345.69 1531.4 1345.69 1522.67 Q1345.69 1513.92 1348.75 1509.34 Q1351.83 1504.73 1357.64 1504.73 Z" fill="#000000" fill-rule="evenodd" fill-opacity="1" /><path clip-path="url(#clip320)" d="M 0 0 M1385.23 1520.78 Q1382.08 1520.78 1380.23 1522.93 Q1378.4 1525.08 1378.4 1528.83 Q1378.4 1532.56 1380.23 1534.73 Q1382.08 1536.89 1385.23 1536.89 Q1388.38 1536.89 1390.21 1534.73 Q1392.06 1532.56 1392.06 1528.83 Q1392.06 1525.08 1390.21 1522.93 Q1388.38 1520.78 1385.23 1520.78 M1394.51 1506.12 L1394.51 1510.38 Q1392.75 1509.55 1390.95 1509.11 Q1389.17 1508.67 1387.41 1508.67 Q1382.78 1508.67 1380.32 1511.8 Q1377.89 1514.92 1377.55 1521.24 Q1378.91 1519.23 1380.97 1518.16 Q1383.03 1517.07 1385.51 1517.07 Q1390.72 1517.07 1393.73 1520.24 Q1396.76 1523.39 1396.76 1528.83 Q1396.76 1534.16 1393.61 1537.37 Q1390.46 1540.59 1385.23 1540.59 Q1379.24 1540.59 1376.06 1536.01 Q1372.89 1531.4 1372.89 1522.67 Q1372.89 1514.48 1376.78 1509.62 Q1380.67 1504.73 1387.22 1504.73 Q1388.98 1504.73 1390.76 1505.08 Q1392.57 1505.43 1394.51 1506.12 Z" fill="#000000" fill-rule="evenodd" fill-opacity="1" /><path clip-path="url(#clip320)" d="M 0 0 M1402.31 1534.04 L1407.2 1534.04 L1407.2 1539.92 L1402.31 1539.92 L1402.31 1534.04 M1402.31 1515.41 L1407.2 1515.41 L1407.2 1521.29 L1402.31 1521.29 L1402.31 1515.41 Z" fill="#000000" fill-rule="evenodd" fill-opacity="1" /><path clip-path="url(#clip320)" d="M 0 0 M1416.3 1535.98 L1432.62 1535.98 L1432.62 1539.92 L1410.67 1539.92 L1410.67 1535.98 Q1413.33 1533.23 1417.92 1528.6 Q1422.52 1523.95 1423.7 1522.61 Q1425.95 1520.08 1426.83 1518.35 Q1427.73 1516.59 1427.73 1514.9 Q1427.73 1512.14 1425.79 1510.41 Q1423.87 1508.67 1420.76 1508.67 Q1418.56 1508.67 1416.11 1509.43 Q1413.68 1510.2 1410.9 1511.75 L1410.9 1507.03 Q1413.73 1505.89 1416.18 1505.31 Q1418.63 1504.73 1420.67 1504.73 Q1426.04 1504.73 1429.24 1507.42 Q1432.43 1510.11 1432.43 1514.6 Q1432.43 1516.73 1431.62 1518.65 Q1430.83 1520.54 1428.73 1523.14 Q1428.15 1523.81 1425.05 1527.03 Q1421.94 1530.22 1416.3 1535.98 Z" fill="#000000" fill-rule="evenodd" fill-opacity="1" /><path clip-path="url(#clip320)" d="M 0 0 M1437.73 1505.36 L1456.09 1505.36 L1456.09 1509.3 L1442.01 1509.3 L1442.01 1517.77 Q1443.03 1517.42 1444.05 1517.26 Q1445.07 1517.07 1446.09 1517.07 Q1451.87 1517.07 1455.25 1520.24 Q1458.63 1523.42 1458.63 1528.83 Q1458.63 1534.41 1455.16 1537.51 Q1451.69 1540.59 1445.37 1540.59 Q1443.19 1540.59 1440.93 1540.22 Q1438.68 1539.85 1436.27 1539.11 L1436.27 1534.41 Q1438.36 1535.54 1440.58 1536.1 Q1442.8 1536.66 1445.28 1536.66 Q1449.28 1536.66 1451.62 1534.55 Q1453.96 1532.44 1453.96 1528.83 Q1453.96 1525.22 1451.62 1523.11 Q1449.28 1521.01 1445.28 1521.01 Q1443.4 1521.01 1441.53 1521.42 Q1439.68 1521.84 1437.73 1522.72 L1437.73 1505.36 Z" fill="#000000" fill-rule="evenodd" fill-opacity="1" /><path clip-path="url(#clip320)" d="M 0 0 M1464.19 1534.04 L1469.07 1534.04 L1469.07 1539.92 L1464.19 1539.92 L1464.19 1534.04 M1464.19 1515.41 L1469.07 1515.41 L1469.07 1521.29 L1464.19 1521.29 L1464.19 1515.41 Z" fill="#000000" fill-rule="evenodd" fill-opacity="1" /><path clip-path="url(#clip320)" d="M 0 0 M1484.14 1508.44 Q1480.53 1508.44 1478.7 1512 Q1476.9 1515.55 1476.9 1522.67 Q1476.9 1529.78 1478.7 1533.35 Q1480.53 1536.89 1484.14 1536.89 Q1487.78 1536.89 1489.58 1533.35 Q1491.41 1529.78 1491.41 1522.67 Q1491.41 1515.55 1489.58 1512 Q1487.78 1508.44 1484.14 1508.44 M1484.14 1504.73 Q1489.95 1504.73 1493.01 1509.34 Q1496.09 1513.92 1496.09 1522.67 Q1496.09 1531.4 1493.01 1536.01 Q1489.95 1540.59 1484.14 1540.59 Q1478.33 1540.59 1475.25 1536.01 Q1472.2 1531.4 1472.2 1522.67 Q1472.2 1513.92 1475.25 1509.34 Q1478.33 1504.73 1484.14 1504.73 Z" fill="#000000" fill-rule="evenodd" fill-opacity="1" /><path clip-path="url(#clip320)" d="M 0 0 M1511.16 1508.44 Q1507.55 1508.44 1505.72 1512 Q1503.91 1515.55 1503.91 1522.67 Q1503.91 1529.78 1505.72 1533.35 Q1507.55 1536.89 1511.16 1536.89 Q1514.79 1536.89 1516.6 1533.35 Q1518.42 1529.78 1518.42 1522.67 Q1518.42 1515.55 1516.6 1512 Q1514.79 1508.44 1511.16 1508.44 M1511.16 1504.73 Q1516.97 1504.73 1520.02 1509.34 Q1523.1 1513.92 1523.1 1522.67 Q1523.1 1531.4 1520.02 1536.01 Q1516.97 1540.59 1511.16 1540.59 Q1505.35 1540.59 1502.27 1536.01 Q1499.21 1531.4 1499.21 1522.67 Q1499.21 1513.92 1502.27 1509.34 Q1505.35 1504.73 1511.16 1504.73 Z" fill="#000000" fill-rule="evenodd" fill-opacity="1" /><path clip-path="url(#clip320)" d="M 0 0 M1607.55 1535.98 L1623.86 1535.98 L1623.86 1539.92 L1601.92 1539.92 L1601.92 1535.98 Q1604.58 1533.23 1609.17 1528.6 Q1613.77 1523.95 1614.95 1522.61 Q1617.2 1520.08 1618.08 1518.35 Q1618.98 1516.59 1618.98 1514.9 Q1618.98 1512.14 1617.04 1510.41 Q1615.11 1508.67 1612.01 1508.67 Q1609.81 1508.67 1607.36 1509.43 Q1604.93 1510.2 1602.15 1511.75 L1602.15 1507.03 Q1604.98 1505.89 1607.43 1505.31 Q1609.88 1504.73 1611.92 1504.73 Q1617.29 1504.73 1620.49 1507.42 Q1623.68 1510.11 1623.68 1514.6 Q1623.68 1516.73 1622.87 1518.65 Q1622.08 1520.54 1619.98 1523.14 Q1619.4 1523.81 1616.3 1527.03 Q1613.19 1530.22 1607.55 1535.98 Z" fill="#000000" fill-rule="evenodd" fill-opacity="1" /><path clip-path="url(#clip320)" d="M 0 0 M1638.93 1508.44 Q1635.32 1508.44 1633.49 1512 Q1631.69 1515.55 1631.69 1522.67 Q1631.69 1529.78 1633.49 1533.35 Q1635.32 1536.89 1638.93 1536.89 Q1642.57 1536.89 1644.37 1533.35 Q1646.2 1529.78 1646.2 1522.67 Q1646.2 1515.55 1644.37 1512 Q1642.57 1508.44 1638.93 1508.44 M1638.93 1504.73 Q1644.74 1504.73 1647.8 1509.34 Q1650.88 1513.92 1650.88 1522.67 Q1650.88 1531.4 1647.8 1536.01 Q1644.74 1540.59 1638.93 1540.59 Q1633.12 1540.59 1630.05 1536.01 Q1626.99 1531.4 1626.99 1522.67 Q1626.99 1513.92 1630.05 1509.34 Q1633.12 1504.73 1638.93 1504.73 Z" fill="#000000" fill-rule="evenodd" fill-opacity="1" /><path clip-path="url(#clip320)" d="M 0 0 M1659.98 1535.98 L1676.3 1535.98 L1676.3 1539.92 L1654.35 1539.92 L1654.35 1535.98 Q1657.01 1533.23 1661.6 1528.6 Q1666.2 1523.95 1667.38 1522.61 Q1669.63 1520.08 1670.51 1518.35 Q1671.41 1516.59 1671.41 1514.9 Q1671.41 1512.14 1669.47 1510.41 Q1667.55 1508.67 1664.44 1508.67 Q1662.24 1508.67 1659.79 1509.43 Q1657.36 1510.2 1654.58 1511.75 L1654.58 1507.03 Q1657.41 1505.89 1659.86 1505.31 Q1662.31 1504.73 1664.35 1504.73 Q1669.72 1504.73 1672.92 1507.42 Q1676.11 1510.11 1676.11 1514.6 Q1676.11 1516.73 1675.3 1518.65 Q1674.51 1520.54 1672.41 1523.14 Q1671.83 1523.81 1668.73 1527.03 Q1665.62 1530.22 1659.98 1535.98 Z" fill="#000000" fill-rule="evenodd" fill-opacity="1" /><path clip-path="url(#clip320)" d="M 0 0 M1691.36 1508.44 Q1687.75 1508.44 1685.92 1512 Q1684.12 1515.55 1684.12 1522.67 Q1684.12 1529.78 1685.92 1533.35 Q1687.75 1536.89 1691.36 1536.89 Q1695 1536.89 1696.8 1533.35 Q1698.63 1529.78 1698.63 1522.67 Q1698.63 1515.55 1696.8 1512 Q1695 1508.44 1691.36 1508.44 M1691.36 1504.73 Q1697.17 1504.73 1700.23 1509.34 Q1703.31 1513.92 1703.31 1522.67 Q1703.31 1531.4 1700.23 1536.01 Q1697.17 1540.59 1691.36 1540.59 Q1685.55 1540.59 1682.48 1536.01 Q1679.42 1531.4 1679.42 1522.67 Q1679.42 1513.92 1682.48 1509.34 Q1685.55 1504.73 1691.36 1504.73 Z" fill="#000000" fill-rule="evenodd" fill-opacity="1" /><path clip-path="url(#clip320)" d="M 0 0 M1705.62 1525.04 L1718.1 1525.04 L1718.1 1528.83 L1705.62 1528.83 L1705.62 1525.04 Z" fill="#000000" fill-rule="evenodd" fill-opacity="1" /><path clip-path="url(#clip320)" d="M 0 0 M1733.17 1508.44 Q1729.56 1508.44 1727.73 1512 Q1725.92 1515.55 1725.92 1522.67 Q1725.92 1529.78 1727.73 1533.35 Q1729.56 1536.89 1733.17 1536.89 Q1736.8 1536.89 1738.61 1533.35 Q1740.44 1529.78 1740.44 1522.67 Q1740.44 1515.55 1738.61 1512 Q1736.8 1508.44 1733.17 1508.44 M1733.17 1504.73 Q1738.98 1504.73 1742.04 1509.34 Q1745.11 1513.92 1745.11 1522.67 Q1745.11 1531.4 1742.04 1536.01 Q1738.98 1540.59 1733.17 1540.59 Q1727.36 1540.59 1724.28 1536.01 Q1721.23 1531.4 1721.23 1522.67 Q1721.23 1513.92 1724.28 1509.34 Q1727.36 1504.73 1733.17 1504.73 Z" fill="#000000" fill-rule="evenodd" fill-opacity="1" /><path clip-path="url(#clip320)" d="M 0 0 M1760.76 1520.78 Q1757.61 1520.78 1755.76 1522.93 Q1753.93 1525.08 1753.93 1528.83 Q1753.93 1532.56 1755.76 1534.73 Q1757.61 1536.89 1760.76 1536.89 Q1763.91 1536.89 1765.74 1534.73 Q1767.59 1532.56 1767.59 1528.83 Q1767.59 1525.08 1765.74 1522.93 Q1763.91 1520.78 1760.76 1520.78 M1770.04 1506.12 L1770.04 1510.38 Q1768.29 1509.55 1766.48 1509.11 Q1764.7 1508.67 1762.94 1508.67 Q1758.31 1508.67 1755.85 1511.8 Q1753.42 1514.92 1753.08 1521.24 Q1754.44 1519.23 1756.5 1518.16 Q1758.56 1517.07 1761.04 1517.07 Q1766.25 1517.07 1769.26 1520.24 Q1772.29 1523.39 1772.29 1528.83 Q1772.29 1534.16 1769.14 1537.37 Q1765.99 1540.59 1760.76 1540.59 Q1754.77 1540.59 1751.6 1536.01 Q1748.42 1531.4 1748.42 1522.67 Q1748.42 1514.48 1752.31 1509.62 Q1756.2 1504.73 1762.75 1504.73 Q1764.51 1504.73 1766.29 1505.08 Q1768.1 1505.43 1770.04 1506.12 Z" fill="#000000" fill-rule="evenodd" fill-opacity="1" /><path clip-path="url(#clip320)" d="M 0 0 M1774.6 1525.04 L1787.08 1525.04 L1787.08 1528.83 L1774.6 1528.83 L1774.6 1525.04 Z" fill="#000000" fill-rule="evenodd" fill-opacity="1" /><path clip-path="url(#clip320)" d="M 0 0 M1806.32 1521.29 Q1809.67 1522 1811.55 1524.27 Q1813.45 1526.54 1813.45 1529.87 Q1813.45 1534.99 1809.93 1537.79 Q1806.41 1540.59 1799.93 1540.59 Q1797.75 1540.59 1795.44 1540.15 Q1793.15 1539.73 1790.69 1538.88 L1790.69 1534.36 Q1792.64 1535.5 1794.95 1536.08 Q1797.27 1536.66 1799.79 1536.66 Q1804.19 1536.66 1806.48 1534.92 Q1808.79 1533.18 1808.79 1529.87 Q1808.79 1526.82 1806.64 1525.11 Q1804.51 1523.37 1800.69 1523.37 L1796.66 1523.37 L1796.66 1519.53 L1800.88 1519.53 Q1804.33 1519.53 1806.16 1518.16 Q1807.98 1516.77 1807.98 1514.18 Q1807.98 1511.52 1806.09 1510.11 Q1804.21 1508.67 1800.69 1508.67 Q1798.77 1508.67 1796.57 1509.09 Q1794.37 1509.5 1791.73 1510.38 L1791.73 1506.22 Q1794.4 1505.48 1796.71 1505.11 Q1799.05 1504.73 1801.11 1504.73 Q1806.43 1504.73 1809.54 1507.17 Q1812.64 1509.57 1812.64 1513.69 Q1812.64 1516.56 1810.99 1518.55 Q1809.35 1520.52 1806.32 1521.29 Z" fill="#000000" fill-rule="evenodd" fill-opacity="1" /><path clip-path="url(#clip320)" d="M 0 0 M1828.52 1508.44 Q1824.91 1508.44 1823.08 1512 Q1821.27 1515.55 1821.27 1522.67 Q1821.27 1529.78 1823.08 1533.35 Q1824.91 1536.89 1828.52 1536.89 Q1832.15 1536.89 1833.96 1533.35 Q1835.79 1529.78 1835.79 1522.67 Q1835.79 1515.55 1833.96 1512 Q1832.15 1508.44 1828.52 1508.44 M1828.52 1504.73 Q1834.33 1504.73 1837.38 1509.34 Q1840.46 1513.92 1840.46 1522.67 Q1840.46 1531.4 1837.38 1536.01 Q1834.33 1540.59 1828.52 1540.59 Q1822.71 1540.59 1819.63 1536.01 Q1816.57 1531.4 1816.57 1522.67 Q1816.57 1513.92 1819.63 1509.34 Q1822.71 1504.73 1828.52 1504.73 Z" fill="#000000" fill-rule="evenodd" fill-opacity="1" /><path clip-path="url(#clip320)" d="M 0 0 M1840.32 1505.36 L1869.56 1505.36 L1869.56 1509.3 L1857.29 1509.3 L1857.29 1539.92 L1852.59 1539.92 L1852.59 1509.3 L1840.32 1509.3 L1840.32 1505.36 Z" fill="#000000" fill-rule="evenodd" fill-opacity="1" /><path clip-path="url(#clip320)" d="M 0 0 M1884.63 1508.44 Q1881.02 1508.44 1879.19 1512 Q1877.38 1515.55 1877.38 1522.67 Q1877.38 1529.78 1879.19 1533.35 Q1881.02 1536.89 1884.63 1536.89 Q1888.26 1536.89 1890.07 1533.35 Q1891.9 1529.78 1891.9 1522.67 Q1891.9 1515.55 1890.07 1512 Q1888.26 1508.44 1884.63 1508.44 M1884.63 1504.73 Q1890.44 1504.73 1893.49 1509.34 Q1896.57 1513.92 1896.57 1522.67 Q1896.57 1531.4 1893.49 1536.01 Q1890.44 1540.59 1884.63 1540.59 Q1878.82 1540.59 1875.74 1536.01 Q1872.68 1531.4 1872.68 1522.67 Q1872.68 1513.92 1875.74 1509.34 Q1878.82 1504.73 1884.63 1504.73 Z" fill="#000000" fill-rule="evenodd" fill-opacity="1" /><path clip-path="url(#clip320)" d="M 0 0 M1912.22 1520.78 Q1909.07 1520.78 1907.22 1522.93 Q1905.39 1525.08 1905.39 1528.83 Q1905.39 1532.56 1907.22 1534.73 Q1909.07 1536.89 1912.22 1536.89 Q1915.37 1536.89 1917.2 1534.73 Q1919.05 1532.56 1919.05 1528.83 Q1919.05 1525.08 1917.2 1522.93 Q1915.37 1520.78 1912.22 1520.78 M1921.5 1506.12 L1921.5 1510.38 Q1919.74 1509.55 1917.94 1509.11 Q1916.16 1508.67 1914.4 1508.67 Q1909.77 1508.67 1907.31 1511.8 Q1904.88 1514.92 1904.53 1521.24 Q1905.9 1519.23 1907.96 1518.16 Q1910.02 1517.07 1912.5 1517.07 Q1917.71 1517.07 1920.72 1520.24 Q1923.75 1523.39 1923.75 1528.83 Q1923.75 1534.16 1920.6 1537.37 Q1917.45 1540.59 1912.22 1540.59 Q1906.22 1540.59 1903.05 1536.01 Q1899.88 1531.4 1899.88 1522.67 Q1899.88 1514.48 1903.77 1509.62 Q1907.66 1504.73 1914.21 1504.73 Q1915.97 1504.73 1917.75 1505.08 Q1919.56 1505.43 1921.5 1506.12 Z" fill="#000000" fill-rule="evenodd" fill-opacity="1" /><path clip-path="url(#clip320)" d="M 0 0 M1929.3 1534.04 L1934.19 1534.04 L1934.19 1539.92 L1929.3 1539.92 L1929.3 1534.04 M1929.3 1515.41 L1934.19 1515.41 L1934.19 1521.29 L1929.3 1521.29 L1929.3 1515.41 Z" fill="#000000" fill-rule="evenodd" fill-opacity="1" /><path clip-path="url(#clip320)" d="M 0 0 M1939.3 1505.36 L1957.66 1505.36 L1957.66 1509.3 L1943.59 1509.3 L1943.59 1517.77 Q1944.6 1517.42 1945.62 1517.26 Q1946.64 1517.07 1947.66 1517.07 Q1953.45 1517.07 1956.83 1520.24 Q1960.21 1523.42 1960.21 1528.83 Q1960.21 1534.41 1956.73 1537.51 Q1953.26 1540.59 1946.94 1540.59 Q1944.77 1540.59 1942.5 1540.22 Q1940.25 1539.85 1937.84 1539.11 L1937.84 1534.41 Q1939.93 1535.54 1942.15 1536.1 Q1944.37 1536.66 1946.85 1536.66 Q1950.85 1536.66 1953.19 1534.55 Q1955.53 1532.44 1955.53 1528.83 Q1955.53 1525.22 1953.19 1523.11 Q1950.85 1521.01 1946.85 1521.01 Q1944.97 1521.01 1943.1 1521.42 Q1941.25 1521.84 1939.3 1522.72 L1939.3 1505.36 Z" fill="#000000" fill-rule="evenodd" fill-opacity="1" /><path clip-path="url(#clip320)" d="M 0 0 M1966.09 1535.98 L1973.72 1535.98 L1973.72 1509.62 L1965.41 1511.29 L1965.41 1507.03 L1973.68 1505.36 L1978.35 1505.36 L1978.35 1535.98 L1985.99 1535.98 L1985.99 1539.92 L1966.09 1539.92 L1966.09 1535.98 Z" fill="#000000" fill-rule="evenodd" fill-opacity="1" /><path clip-path="url(#clip320)" d="M 0 0 M1991.55 1534.04 L1996.43 1534.04 L1996.43 1539.92 L1991.55 1539.92 L1991.55 1534.04 M1991.55 1515.41 L1996.43 1515.41 L1996.43 1521.29 L1991.55 1521.29 L1991.55 1515.41 Z" fill="#000000" fill-rule="evenodd" fill-opacity="1" /><path clip-path="url(#clip320)" d="M 0 0 M2011.5 1508.44 Q2007.89 1508.44 2006.06 1512 Q2004.26 1515.55 2004.26 1522.67 Q2004.26 1529.78 2006.06 1533.35 Q2007.89 1536.89 2011.5 1536.89 Q2015.14 1536.89 2016.94 1533.35 Q2018.77 1529.78 2018.77 1522.67 Q2018.77 1515.55 2016.94 1512 Q2015.14 1508.44 2011.5 1508.44 M2011.5 1504.73 Q2017.31 1504.73 2020.37 1509.34 Q2023.45 1513.92 2023.45 1522.67 Q2023.45 1531.4 2020.37 1536.01 Q2017.31 1540.59 2011.5 1540.59 Q2005.69 1540.59 2002.61 1536.01 Q1999.56 1531.4 1999.56 1522.67 Q1999.56 1513.92 2002.61 1509.34 Q2005.69 1504.73 2011.5 1504.73 Z" fill="#000000" fill-rule="evenodd" fill-opacity="1" /><path clip-path="url(#clip320)" d="M 0 0 M2038.52 1508.44 Q2034.9 1508.44 2033.08 1512 Q2031.27 1515.55 2031.27 1522.67 Q2031.27 1529.78 2033.08 1533.35 Q2034.9 1536.89 2038.52 1536.89 Q2042.15 1536.89 2043.96 1533.35 Q2045.78 1529.78 2045.78 1522.67 Q2045.78 1515.55 2043.96 1512 Q2042.15 1508.44 2038.52 1508.44 M2038.52 1504.73 Q2044.33 1504.73 2047.38 1509.34 Q2050.46 1513.92 2050.46 1522.67 Q2050.46 1531.4 2047.38 1536.01 Q2044.33 1540.59 2038.52 1540.59 Q2032.71 1540.59 2029.63 1536.01 Q2026.57 1531.4 2026.57 1522.67 Q2026.57 1513.92 2029.63 1509.34 Q2032.71 1504.73 2038.52 1504.73 Z" fill="#000000" fill-rule="evenodd" fill-opacity="1" /><path clip-path="url(#clip320)" d="M 0 0 M64.4736 1332.64 L72.1124 1332.64 L72.1124 1306.27 L63.8023 1307.94 L63.8023 1303.68 L72.0661 1302.01 L76.7421 1302.01 L76.7421 1332.64 L84.3809 1332.64 L84.3809 1336.57 L64.4736 1336.57 L64.4736 1332.64 Z" fill="#000000" fill-rule="evenodd" fill-opacity="1" /><path clip-path="url(#clip320)" d="M 0 0 M89.4503 1330.69 L94.3345 1330.69 L94.3345 1336.57 L89.4503 1336.57 L89.4503 1330.69 Z" fill="#000000" fill-rule="evenodd" fill-opacity="1" /><path clip-path="url(#clip320)" d="M 0 0 M113.571 1317.94 Q116.927 1318.65 118.802 1320.92 Q120.7 1323.19 120.7 1326.52 Q120.7 1331.64 117.182 1334.44 Q113.663 1337.24 107.182 1337.24 Q105.006 1337.24 102.691 1336.8 Q100.399 1336.39 97.9456 1335.53 L97.9456 1331.01 Q99.8901 1332.15 102.205 1332.73 Q104.52 1333.31 107.043 1333.31 Q111.441 1333.31 113.733 1331.57 Q116.047 1329.83 116.047 1326.52 Q116.047 1323.47 113.895 1321.76 Q111.765 1320.02 107.946 1320.02 L103.918 1320.02 L103.918 1316.18 L108.131 1316.18 Q111.58 1316.18 113.409 1314.81 Q115.237 1313.42 115.237 1310.83 Q115.237 1308.17 113.339 1306.76 Q111.464 1305.32 107.946 1305.32 Q106.024 1305.32 103.825 1305.74 Q101.626 1306.15 98.9873 1307.03 L98.9873 1302.87 Q101.649 1302.13 103.964 1301.76 Q106.302 1301.39 108.362 1301.39 Q113.686 1301.39 116.788 1303.82 Q119.89 1306.22 119.89 1310.34 Q119.89 1313.21 118.246 1315.2 Q116.603 1317.17 113.571 1317.94 Z" fill="#000000" fill-rule="evenodd" fill-opacity="1" /><path clip-path="url(#clip320)" d="M 0 0 M136.348 1317.43 Q133.2 1317.43 131.348 1319.58 Q129.52 1321.73 129.52 1325.48 Q129.52 1329.21 131.348 1331.39 Q133.2 1333.54 136.348 1333.54 Q139.496 1333.54 141.325 1331.39 Q143.177 1329.21 143.177 1325.48 Q143.177 1321.73 141.325 1319.58 Q139.496 1317.43 136.348 1317.43 M145.631 1302.77 L145.631 1307.03 Q143.871 1306.2 142.066 1305.76 Q140.283 1305.32 138.524 1305.32 Q133.895 1305.32 131.441 1308.45 Q129.01 1311.57 128.663 1317.89 Q130.029 1315.88 132.089 1314.81 Q134.149 1313.72 136.626 1313.72 Q141.834 1313.72 144.844 1316.89 Q147.876 1320.04 147.876 1325.48 Q147.876 1330.81 144.728 1334.02 Q141.58 1337.24 136.348 1337.24 Q130.353 1337.24 127.182 1332.66 Q124.01 1328.05 124.01 1319.33 Q124.01 1311.13 127.899 1306.27 Q131.788 1301.39 138.339 1301.39 Q140.098 1301.39 141.881 1301.73 Q143.686 1302.08 145.631 1302.77 Z" fill="#000000" fill-rule="evenodd" fill-opacity="1" /><path clip-path="url(#clip320)" d="M 0 0 M151.765 1302.01 L173.987 1302.01 L173.987 1304 L161.441 1336.57 L156.556 1336.57 L168.362 1305.95 L151.765 1305.95 L151.765 1302.01 Z" fill="#000000" fill-rule="evenodd" fill-opacity="1" /><path clip-path="url(#clip320)" d="M 0 0 M189.056 1305.09 Q185.445 1305.09 183.616 1308.65 Q181.811 1312.2 181.811 1319.33 Q181.811 1326.43 183.616 1330 Q185.445 1333.54 189.056 1333.54 Q192.691 1333.54 194.496 1330 Q196.325 1326.43 196.325 1319.33 Q196.325 1312.2 194.496 1308.65 Q192.691 1305.09 189.056 1305.09 M189.056 1301.39 Q194.866 1301.39 197.922 1305.99 Q201.001 1310.58 201.001 1319.33 Q201.001 1328.05 197.922 1332.66 Q194.866 1337.24 189.056 1337.24 Q183.246 1337.24 180.167 1332.66 Q177.112 1328.05 177.112 1319.33 Q177.112 1310.58 180.167 1305.99 Q183.246 1301.39 189.056 1301.39 Z" fill="#000000" fill-rule="evenodd" fill-opacity="1" /><path clip-path="url(#clip320)" d="M 0 0 M65.469 1011.18 L73.1078 1011.18 L73.1078 984.813 L64.7977 986.48 L64.7977 982.221 L73.0615 980.554 L77.7374 980.554 L77.7374 1011.18 L85.3763 1011.18 L85.3763 1015.11 L65.469 1015.11 L65.469 1011.18 Z" fill="#000000" fill-rule="evenodd" fill-opacity="1" /><path clip-path="url(#clip320)" d="M 0 0 M90.4457 1009.23 L95.3299 1009.23 L95.3299 1015.11 L90.4457 1015.11 L90.4457 1009.23 Z" fill="#000000" fill-rule="evenodd" fill-opacity="1" /><path clip-path="url(#clip320)" d="M 0 0 M114.566 996.48 Q117.922 997.197 119.797 999.466 Q121.696 1001.73 121.696 1005.07 Q121.696 1010.18 118.177 1012.98 Q114.659 1015.79 108.177 1015.79 Q106.001 1015.79 103.686 1015.35 Q101.395 1014.93 98.941 1014.07 L98.941 1009.56 Q100.885 1010.69 103.2 1011.27 Q105.515 1011.85 108.038 1011.85 Q112.436 1011.85 114.728 1010.11 Q117.043 1008.38 117.043 1005.07 Q117.043 1002.01 114.89 1000.3 Q112.76 998.563 108.941 998.563 L104.913 998.563 L104.913 994.721 L109.126 994.721 Q112.575 994.721 114.404 993.355 Q116.233 991.966 116.233 989.373 Q116.233 986.711 114.334 985.299 Q112.459 983.864 108.941 983.864 Q107.02 983.864 104.821 984.281 Q102.622 984.697 99.9827 985.577 L99.9827 981.41 Q102.645 980.67 104.959 980.299 Q107.297 979.929 109.358 979.929 Q114.682 979.929 117.783 982.359 Q120.885 984.767 120.885 988.887 Q120.885 991.758 119.242 993.748 Q117.598 995.716 114.566 996.48 Z" fill="#000000" fill-rule="evenodd" fill-opacity="1" /><path clip-path="url(#clip320)" d="M 0 0 M137.344 995.971 Q134.195 995.971 132.344 998.123 Q130.515 1000.28 130.515 1004.03 Q130.515 1007.75 132.344 1009.93 Q134.195 1012.08 137.344 1012.08 Q140.492 1012.08 142.32 1009.93 Q144.172 1007.75 144.172 1004.03 Q144.172 1000.28 142.32 998.123 Q140.492 995.971 137.344 995.971 M146.626 981.318 L146.626 985.577 Q144.867 984.744 143.061 984.304 Q141.279 983.864 139.519 983.864 Q134.89 983.864 132.436 986.989 Q130.006 990.114 129.658 996.433 Q131.024 994.42 133.084 993.355 Q135.145 992.267 137.621 992.267 Q142.83 992.267 145.839 995.438 Q148.871 998.586 148.871 1004.03 Q148.871 1009.35 145.723 1012.57 Q142.575 1015.79 137.344 1015.79 Q131.348 1015.79 128.177 1011.2 Q125.006 1006.6 125.006 997.869 Q125.006 989.674 128.895 984.813 Q132.783 979.929 139.334 979.929 Q141.094 979.929 142.876 980.276 Q144.682 980.623 146.626 981.318 Z" fill="#000000" fill-rule="evenodd" fill-opacity="1" /><path clip-path="url(#clip320)" d="M 0 0 M152.76 980.554 L174.982 980.554 L174.982 982.545 L162.436 1015.11 L157.552 1015.11 L169.357 984.489 L152.76 984.489 L152.76 980.554 Z" fill="#000000" fill-rule="evenodd" fill-opacity="1" /><path clip-path="url(#clip320)" d="M 0 0 M180.098 980.554 L198.454 980.554 L198.454 984.489 L184.38 984.489 L184.38 992.961 Q185.399 992.614 186.417 992.452 Q187.436 992.267 188.454 992.267 Q194.241 992.267 197.621 995.438 Q201.001 998.609 201.001 1004.03 Q201.001 1009.6 197.528 1012.71 Q194.056 1015.79 187.737 1015.79 Q185.561 1015.79 183.292 1015.41 Q181.047 1015.04 178.64 1014.3 L178.64 1009.6 Q180.723 1010.74 182.945 1011.29 Q185.167 1011.85 187.644 1011.85 Q191.649 1011.85 193.987 1009.74 Q196.325 1007.64 196.325 1004.03 Q196.325 1000.41 193.987 998.308 Q191.649 996.202 187.644 996.202 Q185.769 996.202 183.894 996.619 Q182.042 997.035 180.098 997.915 L180.098 980.554 Z" fill="#000000" fill-rule="evenodd" fill-opacity="1" /><path clip-path="url(#clip320)" d="M 0 0 M63.6634 689.722 L71.3023 689.722 L71.3023 663.357 L62.9921 665.023 L62.9921 660.764 L71.256 659.097 L75.9319 659.097 L75.9319 689.722 L83.5707 689.722 L83.5707 693.657 L63.6634 693.657 L63.6634 689.722 Z" fill="#000000" fill-rule="evenodd" fill-opacity="1" /><path clip-path="url(#clip320)" d="M 0 0 M88.6401 687.778 L93.5244 687.778 L93.5244 693.657 L88.6401 693.657 L88.6401 687.778 Z" fill="#000000" fill-rule="evenodd" fill-opacity="1" /><path clip-path="url(#clip320)" d="M 0 0 M112.76 675.023 Q116.117 675.741 117.992 678.009 Q119.89 680.278 119.89 683.611 Q119.89 688.727 116.371 691.528 Q112.853 694.329 106.372 694.329 Q104.196 694.329 101.881 693.889 Q99.5892 693.472 97.1355 692.616 L97.1355 688.102 Q99.0799 689.236 101.395 689.815 Q103.709 690.394 106.233 690.394 Q110.631 690.394 112.922 688.657 Q115.237 686.921 115.237 683.611 Q115.237 680.556 113.084 678.843 Q110.955 677.107 107.135 677.107 L103.108 677.107 L103.108 673.264 L107.321 673.264 Q110.77 673.264 112.598 671.898 Q114.427 670.509 114.427 667.917 Q114.427 665.255 112.529 663.843 Q110.654 662.408 107.135 662.408 Q105.214 662.408 103.015 662.824 Q100.816 663.241 98.1771 664.121 L98.1771 659.954 Q100.839 659.213 103.154 658.843 Q105.492 658.472 107.552 658.472 Q112.876 658.472 115.978 660.903 Q119.08 663.31 119.08 667.431 Q119.08 670.301 117.436 672.292 Q115.793 674.259 112.76 675.023 Z" fill="#000000" fill-rule="evenodd" fill-opacity="1" /><path clip-path="url(#clip320)" d="M 0 0 M135.538 674.514 Q132.39 674.514 130.538 676.667 Q128.709 678.819 128.709 682.569 Q128.709 686.296 130.538 688.472 Q132.39 690.625 135.538 690.625 Q138.686 690.625 140.515 688.472 Q142.367 686.296 142.367 682.569 Q142.367 678.819 140.515 676.667 Q138.686 674.514 135.538 674.514 M144.82 659.861 L144.82 664.121 Q143.061 663.287 141.256 662.847 Q139.473 662.408 137.714 662.408 Q133.084 662.408 130.631 665.533 Q128.2 668.658 127.853 674.977 Q129.219 672.963 131.279 671.898 Q133.339 670.81 135.816 670.81 Q141.024 670.81 144.033 673.982 Q147.066 677.13 147.066 682.569 Q147.066 687.894 143.918 691.111 Q140.769 694.329 135.538 694.329 Q129.543 694.329 126.371 689.745 Q123.2 685.139 123.2 676.412 Q123.2 668.218 127.089 663.357 Q130.978 658.472 137.529 658.472 Q139.288 658.472 141.07 658.82 Q142.876 659.167 144.82 659.861 Z" fill="#000000" fill-rule="evenodd" fill-opacity="1" /><path clip-path="url(#clip320)" d="M 0 0 M162.135 677.245 Q158.802 677.245 156.881 679.028 Q154.982 680.81 154.982 683.935 Q154.982 687.06 156.881 688.843 Q158.802 690.625 162.135 690.625 Q165.468 690.625 167.39 688.843 Q169.311 687.037 169.311 683.935 Q169.311 680.81 167.39 679.028 Q165.492 677.245 162.135 677.245 M157.459 675.255 Q154.45 674.514 152.76 672.454 Q151.094 670.394 151.094 667.431 Q151.094 663.287 154.033 660.88 Q156.996 658.472 162.135 658.472 Q167.297 658.472 170.237 660.88 Q173.177 663.287 173.177 667.431 Q173.177 670.394 171.487 672.454 Q169.82 674.514 166.834 675.255 Q170.214 676.042 172.089 678.333 Q173.987 680.625 173.987 683.935 Q173.987 688.958 170.908 691.644 Q167.853 694.329 162.135 694.329 Q156.418 694.329 153.339 691.644 Q150.283 688.958 150.283 683.935 Q150.283 680.625 152.181 678.333 Q154.08 676.042 157.459 675.255 M155.746 667.87 Q155.746 670.556 157.413 672.06 Q159.103 673.565 162.135 673.565 Q165.144 673.565 166.834 672.06 Q168.547 670.556 168.547 667.87 Q168.547 665.185 166.834 663.681 Q165.144 662.176 162.135 662.176 Q159.103 662.176 157.413 663.681 Q155.746 665.185 155.746 667.87 Z" fill="#000000" fill-rule="evenodd" fill-opacity="1" /><path clip-path="url(#clip320)" d="M 0 0 M189.056 662.176 Q185.445 662.176 183.616 665.741 Q181.811 669.283 181.811 676.412 Q181.811 683.519 183.616 687.083 Q185.445 690.625 189.056 690.625 Q192.691 690.625 194.496 687.083 Q196.325 683.519 196.325 676.412 Q196.325 669.283 194.496 665.741 Q192.691 662.176 189.056 662.176 M189.056 658.472 Q194.866 658.472 197.922 663.079 Q201.001 667.662 201.001 676.412 Q201.001 685.139 197.922 689.745 Q194.866 694.329 189.056 694.329 Q183.246 694.329 180.167 689.745 Q177.112 685.139 177.112 676.412 Q177.112 667.662 180.167 663.079 Q183.246 658.472 189.056 658.472 Z" fill="#000000" fill-rule="evenodd" fill-opacity="1" /><path clip-path="url(#clip320)" d="M 0 0 M64.6588 368.266 L72.2976 368.266 L72.2976 341.9 L63.9875 343.567 L63.9875 339.307 L72.2513 337.641 L76.9272 337.641 L76.9272 368.266 L84.5661 368.266 L84.5661 372.201 L64.6588 372.201 L64.6588 368.266 Z" fill="#000000" fill-rule="evenodd" fill-opacity="1" /><path clip-path="url(#clip320)" d="M 0 0 M89.6355 366.321 L94.5197 366.321 L94.5197 372.201 L89.6355 372.201 L89.6355 366.321 Z" fill="#000000" fill-rule="evenodd" fill-opacity="1" /><path clip-path="url(#clip320)" d="M 0 0 M113.756 353.567 Q117.112 354.284 118.987 356.553 Q120.885 358.821 120.885 362.155 Q120.885 367.27 117.367 370.071 Q113.848 372.872 107.367 372.872 Q105.191 372.872 102.876 372.432 Q100.585 372.016 98.1308 371.159 L98.1308 366.645 Q100.075 367.78 102.39 368.358 Q104.705 368.937 107.228 368.937 Q111.626 368.937 113.918 367.201 Q116.233 365.465 116.233 362.155 Q116.233 359.099 114.08 357.386 Q111.95 355.65 108.131 355.65 L104.103 355.65 L104.103 351.807 L108.316 351.807 Q111.765 351.807 113.594 350.442 Q115.422 349.053 115.422 346.46 Q115.422 343.798 113.524 342.386 Q111.649 340.951 108.131 340.951 Q106.209 340.951 104.01 341.368 Q101.811 341.784 99.1725 342.664 L99.1725 338.497 Q101.835 337.757 104.149 337.386 Q106.487 337.016 108.547 337.016 Q113.871 337.016 116.973 339.446 Q120.075 341.854 120.075 345.974 Q120.075 348.844 118.432 350.835 Q116.788 352.803 113.756 353.567 Z" fill="#000000" fill-rule="evenodd" fill-opacity="1" /><path clip-path="url(#clip320)" d="M 0 0 M136.533 353.057 Q133.385 353.057 131.533 355.21 Q129.705 357.363 129.705 361.113 Q129.705 364.84 131.533 367.016 Q133.385 369.168 136.533 369.168 Q139.682 369.168 141.51 367.016 Q143.362 364.84 143.362 361.113 Q143.362 357.363 141.51 355.21 Q139.682 353.057 136.533 353.057 M145.816 338.405 L145.816 342.664 Q144.057 341.831 142.251 341.391 Q140.469 340.951 138.709 340.951 Q134.08 340.951 131.626 344.076 Q129.195 347.201 128.848 353.52 Q130.214 351.507 132.274 350.442 Q134.334 349.354 136.811 349.354 Q142.019 349.354 145.029 352.525 Q148.061 355.673 148.061 361.113 Q148.061 366.437 144.913 369.655 Q141.765 372.872 136.533 372.872 Q130.538 372.872 127.367 368.289 Q124.195 363.682 124.195 354.956 Q124.195 346.761 128.084 341.9 Q131.973 337.016 138.524 337.016 Q140.283 337.016 142.066 337.363 Q143.871 337.71 145.816 338.405 Z" fill="#000000" fill-rule="evenodd" fill-opacity="1" /><path clip-path="url(#clip320)" d="M 0 0 M163.13 355.789 Q159.797 355.789 157.876 357.571 Q155.978 359.354 155.978 362.479 Q155.978 365.604 157.876 367.386 Q159.797 369.168 163.13 369.168 Q166.464 369.168 168.385 367.386 Q170.306 365.581 170.306 362.479 Q170.306 359.354 168.385 357.571 Q166.487 355.789 163.13 355.789 M158.455 353.798 Q155.445 353.057 153.756 350.997 Q152.089 348.937 152.089 345.974 Q152.089 341.831 155.029 339.423 Q157.992 337.016 163.13 337.016 Q168.292 337.016 171.232 339.423 Q174.172 341.831 174.172 345.974 Q174.172 348.937 172.482 350.997 Q170.816 353.057 167.83 353.798 Q171.209 354.585 173.084 356.877 Q174.982 359.169 174.982 362.479 Q174.982 367.502 171.904 370.187 Q168.848 372.872 163.13 372.872 Q157.413 372.872 154.334 370.187 Q151.279 367.502 151.279 362.479 Q151.279 359.169 153.177 356.877 Q155.075 354.585 158.455 353.798 M156.742 346.414 Q156.742 349.099 158.408 350.604 Q160.098 352.108 163.13 352.108 Q166.14 352.108 167.83 350.604 Q169.542 349.099 169.542 346.414 Q169.542 343.729 167.83 342.224 Q166.14 340.72 163.13 340.72 Q160.098 340.72 158.408 342.224 Q156.742 343.729 156.742 346.414 Z" fill="#000000" fill-rule="evenodd" fill-opacity="1" /><path clip-path="url(#clip320)" d="M 0 0 M180.098 337.641 L198.454 337.641 L198.454 341.576 L184.38 341.576 L184.38 350.048 Q185.399 349.701 186.417 349.539 Q187.436 349.354 188.454 349.354 Q194.241 349.354 197.621 352.525 Q201.001 355.696 201.001 361.113 Q201.001 366.692 197.528 369.793 Q194.056 372.872 187.737 372.872 Q185.561 372.872 183.292 372.502 Q181.047 372.131 178.64 371.391 L178.64 366.692 Q180.723 367.826 182.945 368.381 Q185.167 368.937 187.644 368.937 Q191.649 368.937 193.987 366.83 Q196.325 364.724 196.325 361.113 Q196.325 357.502 193.987 355.395 Q191.649 353.289 187.644 353.289 Q185.769 353.289 183.894 353.706 Q182.042 354.122 180.098 355.002 L180.098 337.641 Z" fill="#000000" fill-rule="evenodd" fill-opacity="1" /><path clip-path="url(#clip320)" d="M 0 0 M1127.98 12.096 L1136.2 12.096 L1136.2 48.8377 Q1136.2 58.5599 1139.72 62.8538 Q1143.25 67.1073 1151.15 67.1073 Q1159.01 67.1073 1162.53 62.8538 Q1166.05 58.5599 1166.05 48.8377 L1166.05 12.096 L1174.28 12.096 L1174.28 49.8504 Q1174.28 61.6791 1168.4 67.7149 Q1162.57 73.7508 1151.15 73.7508 Q1139.68 73.7508 1133.81 67.7149 Q1127.98 61.6791 1127.98 49.8504 L1127.98 12.096 Z" fill="#000000" fill-rule="evenodd" fill-opacity="1" /><path clip-path="url(#clip320)" d="M 0 0 M1218.68 14.0809 L1218.68 22.0612 Q1214.02 19.8332 1209.89 18.7395 Q1205.75 17.6457 1201.91 17.6457 Q1195.22 17.6457 1191.58 20.2383 Q1187.97 22.8309 1187.97 27.611 Q1187.97 31.6214 1190.36 33.6873 Q1192.79 35.7128 1199.52 36.9686 L1204.46 37.9813 Q1213.61 39.7232 1217.95 44.1387 Q1222.32 48.5136 1222.32 55.8863 Q1222.32 64.6767 1216.41 69.2137 Q1210.53 73.7508 1199.15 73.7508 Q1194.86 73.7508 1190 72.7785 Q1185.18 71.8063 1179.99 69.9024 L1179.99 61.4765 Q1184.97 64.2716 1189.75 65.6895 Q1194.53 67.1073 1199.15 67.1073 Q1206.16 67.1073 1209.97 64.3527 Q1213.77 61.598 1213.77 56.4939 Q1213.77 52.0379 1211.02 49.5264 Q1208.31 47.0148 1202.07 45.759 L1197.08 44.7868 Q1187.93 42.9639 1183.84 39.075 Q1179.75 35.1862 1179.75 28.2591 Q1179.75 20.2383 1185.38 15.6203 Q1191.05 11.0023 1200.97 11.0023 Q1205.23 11.0023 1209.64 11.7719 Q1214.06 12.5416 1218.68 14.0809 Z" fill="#000000" fill-rule="evenodd" fill-opacity="1" /><path clip-path="url(#clip320)" d="M 0 0 M1238.65 18.8205 L1238.65 65.8515 L1248.53 65.8515 Q1261.05 65.8515 1266.84 60.1802 Q1272.67 54.509 1272.67 42.2752 Q1272.67 30.1225 1266.84 24.4918 Q1261.05 18.8205 1248.53 18.8205 L1238.65 18.8205 M1230.46 12.096 L1247.28 12.096 Q1264.86 12.096 1273.08 19.4281 Q1281.3 26.7198 1281.3 42.2752 Q1281.3 57.9117 1273.04 65.2439 Q1264.78 72.576 1247.28 72.576 L1230.46 72.576 L1230.46 12.096 Z" fill="#000000" fill-rule="evenodd" fill-opacity="1" /><path clip-path="url(#clip320)" d="M 0 0 M1334.73 16.7545 L1334.73 25.383 Q1330.6 21.5346 1325.9 19.6307 Q1321.25 17.7268 1315.98 17.7268 Q1305.61 17.7268 1300.1 24.0867 Q1294.59 30.4061 1294.59 42.3968 Q1294.59 54.3469 1300.1 60.7069 Q1305.61 67.0263 1315.98 67.0263 Q1321.25 67.0263 1325.9 65.1223 Q1330.6 63.2184 1334.73 59.3701 L1334.73 67.9175 Q1330.44 70.8341 1325.62 72.2924 Q1320.84 73.7508 1315.49 73.7508 Q1301.76 73.7508 1293.86 65.3654 Q1285.96 56.9395 1285.96 42.3968 Q1285.96 27.8135 1293.86 19.4281 Q1301.76 11.0023 1315.49 11.0023 Q1320.92 11.0023 1325.7 12.4606 Q1330.52 13.8784 1334.73 16.7545 Z" fill="#000000" fill-rule="evenodd" fill-opacity="1" /><path clip-path="url(#clip320)" d="M 0 0 M1363.09 20.1573 L1351.99 50.2555 L1374.23 50.2555 L1363.09 20.1573 M1358.47 12.096 L1367.75 12.096 L1390.8 72.576 L1382.29 72.576 L1376.78 57.061 L1349.52 57.061 L1344.01 72.576 L1335.38 72.576 L1358.47 12.096 Z" fill="#000000" fill-rule="evenodd" fill-opacity="1" /><path clip-path="url(#clip320)" d="M 0 0 M1407.12 18.8205 L1407.12 65.8515 L1417.01 65.8515 Q1429.53 65.8515 1435.32 60.1802 Q1441.15 54.509 1441.15 42.2752 Q1441.15 30.1225 1435.32 24.4918 Q1429.53 18.8205 1417.01 18.8205 L1407.12 18.8205 M1398.94 12.096 L1415.75 12.096 Q1433.33 12.096 1441.56 19.4281 Q1449.78 26.7198 1449.78 42.2752 Q1449.78 57.9117 1441.52 65.2439 Q1433.25 72.576 1415.75 72.576 L1398.94 72.576 L1398.94 12.096 Z" fill="#000000" fill-rule="evenodd" fill-opacity="1" /><polyline clip-path="url(#clip322)" style="stroke:#009af9; stroke-width:4; stroke-opacity:1; fill:none" points="
  2292.54,226.338 2272.26,226.338 2251.98,226.338 2231.71,354.921 2211.43,354.921 2191.16,483.503 2170.88,483.503 2150.6,419.212 2130.33,804.96 2110.05,676.377 
  2089.78,869.251 2069.5,804.96 2049.23,804.96 2028.95,804.96 2008.67,483.503 1988.4,612.086 1968.12,547.795 1947.85,419.212 1927.57,547.795 1907.29,547.795 
  1887.02,547.795 1866.74,290.63 1846.47,162.047 1826.19,162.047 1805.91,162.047 1785.64,162.047 1765.36,226.338 1745.09,226.338 1724.81,419.212 1704.53,419.212 
  1684.26,354.921 1663.98,226.338 1643.71,354.921 1623.43,419.212 1603.16,483.503 1582.88,419.212 1562.6,354.921 1542.33,419.212 1522.05,354.921 1501.78,354.921 
  1481.5,419.212 1461.22,483.503 1440.95,483.503 1420.67,483.503 1400.4,612.086 1380.12,547.795 1359.84,547.795 1339.57,612.086 1319.29,612.086 1299.02,483.503 
  1278.74,483.503 1258.46,354.921 1238.19,354.921 1217.91,354.921 1197.64,419.212 1177.36,226.338 1157.08,162.047 1136.81,290.63 1116.53,419.212 1096.26,483.503 
  1075.98,419.212 1055.71,483.503 1035.43,483.503 1015.15,354.921 994.877,419.212 974.601,419.212 954.326,547.795 934.05,804.96 913.774,676.377 893.498,804.96 
  873.222,804.96 852.946,933.543 832.67,997.834 812.394,804.96 792.118,676.377 771.842,804.96 751.566,740.669 731.29,933.543 711.014,804.96 690.739,804.96 
  670.463,804.96 650.187,804.96 629.911,804.96 609.635,933.543 589.359,997.834 569.083,1062.13 548.807,1126.42 528.531,1062.13 508.255,1062.13 487.979,1126.42 
  467.703,1062.13 447.428,997.834 427.152,933.543 406.876,869.251 386.6,869.251 366.324,1190.71 346.048,1190.71 325.772,1255 305.496,1447.87 285.22,1319.29 
  
  "/>
<path clip-path="url(#clip320)" d="
M1928.6 327.952 L2280.76 327.952 L2280.76 206.992 L1928.6 206.992  Z
  " fill="#ffffff" fill-rule="evenodd" fill-opacity="1"/>
<polyline clip-path="url(#clip320)" style="stroke:#000000; stroke-width:4; stroke-opacity:1; fill:none" points="
  1928.6,327.952 2280.76,327.952 2280.76,206.992 1928.6,206.992 1928.6,327.952 
  "/>
<polyline clip-path="url(#clip320)" style="stroke:#009af9; stroke-width:4; stroke-opacity:1; fill:none" points="
  1952.6,267.472 2096.6,267.472 
  "/>
<path clip-path="url(#clip320)" d="M 0 0 M2136.62 253.363 Q2131.53 253.363 2128.52 257.16 Q2125.53 260.956 2125.53 267.507 Q2125.53 274.035 2128.52 277.831 Q2131.53 281.627 2136.62 281.627 Q2141.71 281.627 2144.68 277.831 Q2147.66 274.035 2147.66 267.507 Q2147.66 260.956 2144.68 257.16 Q2141.71 253.363 2136.62 253.363 M2136.62 249.567 Q2143.89 249.567 2148.24 254.451 Q2152.59 259.312 2152.59 267.507 Q2152.59 275.678 2148.24 280.562 Q2143.89 285.423 2136.62 285.423 Q2129.33 285.423 2124.96 280.562 Q2120.6 275.701 2120.6 267.507 Q2120.6 259.312 2124.96 254.451 Q2129.33 249.567 2136.62 249.567 Z" fill="#000000" fill-rule="evenodd" fill-opacity="1" /><path clip-path="url(#clip320)" d="M 0 0 M2161.18 280.863 L2161.18 294.613 L2156.9 294.613 L2156.9 258.826 L2161.18 258.826 L2161.18 262.762 Q2162.52 260.447 2164.56 259.336 Q2166.62 258.201 2169.47 258.201 Q2174.19 258.201 2177.13 261.951 Q2180.09 265.701 2180.09 271.812 Q2180.09 277.923 2177.13 281.673 Q2174.19 285.423 2169.47 285.423 Q2166.62 285.423 2164.56 284.312 Q2162.52 283.178 2161.18 280.863 M2175.67 271.812 Q2175.67 267.113 2173.73 264.451 Q2171.81 261.766 2168.43 261.766 Q2165.05 261.766 2163.1 264.451 Q2161.18 267.113 2161.18 271.812 Q2161.18 276.511 2163.1 279.197 Q2165.05 281.859 2168.43 281.859 Q2171.81 281.859 2173.73 279.197 Q2175.67 276.511 2175.67 271.812 Z" fill="#000000" fill-rule="evenodd" fill-opacity="1" /><path clip-path="url(#clip320)" d="M 0 0 M2206.74 270.724 L2206.74 272.808 L2187.15 272.808 Q2187.43 277.206 2189.79 279.521 Q2192.18 281.812 2196.41 281.812 Q2198.87 281.812 2201.16 281.21 Q2203.47 280.609 2205.74 279.405 L2205.74 283.433 Q2203.45 284.405 2201.04 284.914 Q2198.64 285.423 2196.16 285.423 Q2189.96 285.423 2186.32 281.812 Q2182.71 278.201 2182.71 272.044 Q2182.71 265.678 2186.14 261.951 Q2189.58 258.201 2195.42 258.201 Q2200.65 258.201 2203.68 261.581 Q2206.74 264.937 2206.74 270.724 M2202.48 269.474 Q2202.43 265.979 2200.51 263.896 Q2198.61 261.812 2195.46 261.812 Q2191.9 261.812 2189.75 263.826 Q2187.62 265.84 2187.29 269.498 L2202.48 269.474 Z" fill="#000000" fill-rule="evenodd" fill-opacity="1" /><path clip-path="url(#clip320)" d="M 0 0 M2232.76 269.104 L2232.76 284.752 L2228.5 284.752 L2228.5 269.243 Q2228.5 265.562 2227.06 263.734 Q2225.63 261.905 2222.76 261.905 Q2219.31 261.905 2217.32 264.104 Q2215.33 266.303 2215.33 270.099 L2215.33 284.752 L2211.04 284.752 L2211.04 258.826 L2215.33 258.826 L2215.33 262.854 Q2216.85 260.516 2218.91 259.359 Q2221 258.201 2223.71 258.201 Q2228.17 258.201 2230.46 260.979 Q2232.76 263.734 2232.76 269.104 Z" fill="#000000" fill-rule="evenodd" fill-opacity="1" /></svg>
