<?xml version="1.0" encoding="utf-8"?>
<svg xmlns="http://www.w3.org/2000/svg" xmlns:xlink="http://www.w3.org/1999/xlink" width="600" height="400" viewBox="0 0 2400 1600">
<defs>
  <clipPath id="clip200">
    <rect x="0" y="0" width="2400" height="1600"/>
  </clipPath>
</defs>
<path clip-path="url(#clip200)" d="
M0 1600 L2400 1600 L2400 0 L0 0  Z
  " fill="#ffffff" fill-rule="evenodd" fill-opacity="1"/>
<defs>
  <clipPath id="clip201">
    <rect x="480" y="0" width="1681" height="1600"/>
  </clipPath>
</defs>
<path clip-path="url(#clip200)" d="
M188.612 1486.45 L2352.76 1486.45 L2352.76 123.472 L188.612 123.472  Z
  " fill="#ffffff" fill-rule="evenodd" fill-opacity="1"/>
<defs>
  <clipPath id="clip202">
    <rect x="188" y="123" width="2165" height="1364"/>
  </clipPath>
</defs>
<polyline clip-path="url(#clip202)" style="stroke:#000000; stroke-width:2; stroke-opacity:0.1; fill:none" points="
  353.816,1486.45 353.816,123.472 
  "/>
<polyline clip-path="url(#clip202)" style="stroke:#000000; stroke-width:2; stroke-opacity:0.1; fill:none" points="
  966.365,1486.45 966.365,123.472 
  "/>
<polyline clip-path="url(#clip202)" style="stroke:#000000; stroke-width:2; stroke-opacity:0.1; fill:none" points="
  1578.91,1486.45 1578.91,123.472 
  "/>
<polyline clip-path="url(#clip202)" style="stroke:#000000; stroke-width:2; stroke-opacity:0.1; fill:none" points="
  2190.91,1486.45 2190.91,123.472 
  "/>
<polyline clip-path="url(#clip202)" style="stroke:#000000; stroke-width:2; stroke-opacity:0.1; fill:none" points="
  188.612,1468.7 2352.76,1468.7 
  "/>
<polyline clip-path="url(#clip202)" style="stroke:#000000; stroke-width:2; stroke-opacity:0.1; fill:none" points="
  188.612,1146.16 2352.76,1146.16 
  "/>
<polyline clip-path="url(#clip202)" style="stroke:#000000; stroke-width:2; stroke-opacity:0.1; fill:none" points="
  188.612,823.616 2352.76,823.616 
  "/>
<polyline clip-path="url(#clip202)" style="stroke:#000000; stroke-width:2; stroke-opacity:0.1; fill:none" points="
  188.612,501.075 2352.76,501.075 
  "/>
<polyline clip-path="url(#clip202)" style="stroke:#000000; stroke-width:2; stroke-opacity:0.1; fill:none" points="
  188.612,178.535 2352.76,178.535 
  "/>
<polyline clip-path="url(#clip200)" style="stroke:#000000; stroke-width:4; stroke-opacity:1; fill:none" points="
  188.612,1486.45 2352.76,1486.45 
  "/>
<polyline clip-path="url(#clip200)" style="stroke:#000000; stroke-width:4; stroke-opacity:1; fill:none" points="
  188.612,1486.45 188.612,123.472 
  "/>
<polyline clip-path="url(#clip200)" style="stroke:#000000; stroke-width:4; stroke-opacity:1; fill:none" points="
  353.816,1486.45 353.816,1470.09 
  "/>
<polyline clip-path="url(#clip200)" style="stroke:#000000; stroke-width:4; stroke-opacity:1; fill:none" points="
  966.365,1486.45 966.365,1470.09 
  "/>
<polyline clip-path="url(#clip200)" style="stroke:#000000; stroke-width:4; stroke-opacity:1; fill:none" points="
  1578.91,1486.45 1578.91,1470.09 
  "/>
<polyline clip-path="url(#clip200)" style="stroke:#000000; stroke-width:4; stroke-opacity:1; fill:none" points="
  2190.91,1486.45 2190.91,1470.09 
  "/>
<polyline clip-path="url(#clip200)" style="stroke:#000000; stroke-width:4; stroke-opacity:1; fill:none" points="
  188.612,1468.7 214.582,1468.7 
  "/>
<polyline clip-path="url(#clip200)" style="stroke:#000000; stroke-width:4; stroke-opacity:1; fill:none" points="
  188.612,1146.16 214.582,1146.16 
  "/>
<polyline clip-path="url(#clip200)" style="stroke:#000000; stroke-width:4; stroke-opacity:1; fill:none" points="
  188.612,823.616 214.582,823.616 
  "/>
<polyline clip-path="url(#clip200)" style="stroke:#000000; stroke-width:4; stroke-opacity:1; fill:none" points="
  188.612,501.075 214.582,501.075 
  "/>
<polyline clip-path="url(#clip200)" style="stroke:#000000; stroke-width:4; stroke-opacity:1; fill:none" points="
  188.612,178.535 214.582,178.535 
  "/>
<path clip-path="url(#clip200)" d="M 0 0 M241.583 1535.98 L257.902 1535.98 L257.902 1539.92 L235.958 1539.92 L235.958 1535.98 Q238.62 1533.23 243.203 1528.6 Q247.809 1523.95 248.99 1522.61 Q251.235 1520.08 252.115 1518.35 Q253.018 1516.59 253.018 1514.9 Q253.018 1512.14 251.073 1510.41 Q249.152 1508.67 246.05 1508.67 Q243.851 1508.67 241.397 1509.43 Q238.967 1510.2 236.189 1511.75 L236.189 1507.03 Q239.013 1505.89 241.467 1505.31 Q243.921 1504.73 245.958 1504.73 Q251.328 1504.73 254.522 1507.42 Q257.717 1510.11 257.717 1514.6 Q257.717 1516.73 256.907 1518.65 Q256.12 1520.54 254.013 1523.14 Q253.434 1523.81 250.333 1527.03 Q247.231 1530.22 241.583 1535.98 Z" fill="#000000" fill-rule="evenodd" fill-opacity="1" /><path clip-path="url(#clip200)" d="M 0 0 M272.971 1508.44 Q269.36 1508.44 267.532 1512 Q265.726 1515.55 265.726 1522.67 Q265.726 1529.78 267.532 1533.35 Q269.36 1536.89 272.971 1536.89 Q276.606 1536.89 278.411 1533.35 Q280.24 1529.78 280.24 1522.67 Q280.24 1515.55 278.411 1512 Q276.606 1508.44 272.971 1508.44 M272.971 1504.73 Q278.782 1504.73 281.837 1509.34 Q284.916 1513.92 284.916 1522.67 Q284.916 1531.4 281.837 1536.01 Q278.782 1540.59 272.971 1540.59 Q267.161 1540.59 264.083 1536.01 Q261.027 1531.4 261.027 1522.67 Q261.027 1513.92 264.083 1509.34 Q267.161 1504.73 272.971 1504.73 Z" fill="#000000" fill-rule="evenodd" fill-opacity="1" /><path clip-path="url(#clip200)" d="M 0 0 M290.795 1535.98 L298.434 1535.98 L298.434 1509.62 L290.124 1511.29 L290.124 1507.03 L298.388 1505.36 L303.064 1505.36 L303.064 1535.98 L310.703 1535.98 L310.703 1539.92 L290.795 1539.92 L290.795 1535.98 Z" fill="#000000" fill-rule="evenodd" fill-opacity="1" /><path clip-path="url(#clip200)" d="M 0 0 M316.582 1535.98 L324.221 1535.98 L324.221 1509.62 L315.911 1511.29 L315.911 1507.03 L324.175 1505.36 L328.851 1505.36 L328.851 1535.98 L336.49 1535.98 L336.49 1539.92 L316.582 1539.92 L316.582 1535.98 Z" fill="#000000" fill-rule="evenodd" fill-opacity="1" /><path clip-path="url(#clip200)" d="M 0 0 M338.804 1525.04 L351.281 1525.04 L351.281 1528.83 L338.804 1528.83 L338.804 1525.04 Z" fill="#000000" fill-rule="evenodd" fill-opacity="1" /><path clip-path="url(#clip200)" d="M 0 0 M366.351 1508.44 Q362.739 1508.44 360.911 1512 Q359.105 1515.55 359.105 1522.67 Q359.105 1529.78 360.911 1533.35 Q362.739 1536.89 366.351 1536.89 Q369.985 1536.89 371.79 1533.35 Q373.619 1529.78 373.619 1522.67 Q373.619 1515.55 371.79 1512 Q369.985 1508.44 366.351 1508.44 M366.351 1504.73 Q372.161 1504.73 375.216 1509.34 Q378.295 1513.92 378.295 1522.67 Q378.295 1531.4 375.216 1536.01 Q372.161 1540.59 366.351 1540.59 Q360.54 1540.59 357.462 1536.01 Q354.406 1531.4 354.406 1522.67 Q354.406 1513.92 357.462 1509.34 Q360.54 1504.73 366.351 1504.73 Z" fill="#000000" fill-rule="evenodd" fill-opacity="1" /><path clip-path="url(#clip200)" d="M 0 0 M384.175 1535.98 L391.813 1535.98 L391.813 1509.62 L383.503 1511.29 L383.503 1507.03 L391.767 1505.36 L396.443 1505.36 L396.443 1535.98 L404.082 1535.98 L404.082 1539.92 L384.175 1539.92 L384.175 1535.98 Z" fill="#000000" fill-rule="evenodd" fill-opacity="1" /><path clip-path="url(#clip200)" d="M 0 0 M406.397 1525.04 L418.873 1525.04 L418.873 1528.83 L406.397 1528.83 L406.397 1525.04 Z" fill="#000000" fill-rule="evenodd" fill-opacity="1" /><path clip-path="url(#clip200)" d="M 0 0 M433.943 1508.44 Q430.332 1508.44 428.503 1512 Q426.697 1515.55 426.697 1522.67 Q426.697 1529.78 428.503 1533.35 Q430.332 1536.89 433.943 1536.89 Q437.577 1536.89 439.383 1533.35 Q441.211 1529.78 441.211 1522.67 Q441.211 1515.55 439.383 1512 Q437.577 1508.44 433.943 1508.44 M433.943 1504.73 Q439.753 1504.73 442.808 1509.34 Q445.887 1513.92 445.887 1522.67 Q445.887 1531.4 442.808 1536.01 Q439.753 1540.59 433.943 1540.59 Q428.133 1540.59 425.054 1536.01 Q421.998 1531.4 421.998 1522.67 Q421.998 1513.92 425.054 1509.34 Q428.133 1504.73 433.943 1504.73 Z" fill="#000000" fill-rule="evenodd" fill-opacity="1" /><path clip-path="url(#clip200)" d="M 0 0 M451.767 1535.98 L459.406 1535.98 L459.406 1509.62 L451.095 1511.29 L451.095 1507.03 L459.359 1505.36 L464.035 1505.36 L464.035 1535.98 L471.674 1535.98 L471.674 1539.92 L451.767 1539.92 L451.767 1535.98 Z" fill="#000000" fill-rule="evenodd" fill-opacity="1" /><path clip-path="url(#clip200)" d="M 0 0 M853.276 1535.98 L869.595 1535.98 L869.595 1539.92 L847.651 1539.92 L847.651 1535.98 Q850.313 1533.23 854.896 1528.6 Q859.502 1523.95 860.683 1522.61 Q862.928 1520.08 863.808 1518.35 Q864.711 1516.59 864.711 1514.9 Q864.711 1512.14 862.766 1510.41 Q860.845 1508.67 857.743 1508.67 Q855.544 1508.67 853.09 1509.43 Q850.66 1510.2 847.882 1511.75 L847.882 1507.03 Q850.706 1505.89 853.16 1505.31 Q855.614 1504.73 857.651 1504.73 Q863.021 1504.73 866.215 1507.42 Q869.41 1510.11 869.41 1514.6 Q869.41 1516.73 868.6 1518.65 Q867.813 1520.54 865.706 1523.14 Q865.127 1523.81 862.026 1527.03 Q858.924 1530.22 853.276 1535.98 Z" fill="#000000" fill-rule="evenodd" fill-opacity="1" /><path clip-path="url(#clip200)" d="M 0 0 M884.664 1508.44 Q881.053 1508.44 879.225 1512 Q877.419 1515.55 877.419 1522.67 Q877.419 1529.78 879.225 1533.35 Q881.053 1536.89 884.664 1536.89 Q888.299 1536.89 890.104 1533.35 Q891.933 1529.78 891.933 1522.67 Q891.933 1515.55 890.104 1512 Q888.299 1508.44 884.664 1508.44 M884.664 1504.73 Q890.475 1504.73 893.53 1509.34 Q896.609 1513.92 896.609 1522.67 Q896.609 1531.4 893.53 1536.01 Q890.475 1540.59 884.664 1540.59 Q878.854 1540.59 875.776 1536.01 Q872.72 1531.4 872.72 1522.67 Q872.72 1513.92 875.776 1509.34 Q878.854 1504.73 884.664 1504.73 Z" fill="#000000" fill-rule="evenodd" fill-opacity="1" /><path clip-path="url(#clip200)" d="M 0 0 M902.488 1535.98 L910.127 1535.98 L910.127 1509.62 L901.817 1511.29 L901.817 1507.03 L910.081 1505.36 L914.757 1505.36 L914.757 1535.98 L922.396 1535.98 L922.396 1539.92 L902.488 1539.92 L902.488 1535.98 Z" fill="#000000" fill-rule="evenodd" fill-opacity="1" /><path clip-path="url(#clip200)" d="M 0 0 M940.312 1509.43 L928.507 1527.88 L940.312 1527.88 L940.312 1509.43 M939.085 1505.36 L944.965 1505.36 L944.965 1527.88 L949.896 1527.88 L949.896 1531.77 L944.965 1531.77 L944.965 1539.92 L940.312 1539.92 L940.312 1531.77 L924.71 1531.77 L924.71 1527.26 L939.085 1505.36 Z" fill="#000000" fill-rule="evenodd" fill-opacity="1" /><path clip-path="url(#clip200)" d="M 0 0 M952.21 1525.04 L964.687 1525.04 L964.687 1528.83 L952.21 1528.83 L952.21 1525.04 Z" fill="#000000" fill-rule="evenodd" fill-opacity="1" /><path clip-path="url(#clip200)" d="M 0 0 M979.756 1508.44 Q976.145 1508.44 974.317 1512 Q972.511 1515.55 972.511 1522.67 Q972.511 1529.78 974.317 1533.35 Q976.145 1536.89 979.756 1536.89 Q983.391 1536.89 985.196 1533.35 Q987.025 1529.78 987.025 1522.67 Q987.025 1515.55 985.196 1512 Q983.391 1508.44 979.756 1508.44 M979.756 1504.73 Q985.567 1504.73 988.622 1509.34 Q991.701 1513.92 991.701 1522.67 Q991.701 1531.4 988.622 1536.01 Q985.567 1540.59 979.756 1540.59 Q973.946 1540.59 970.868 1536.01 Q967.812 1531.4 967.812 1522.67 Q967.812 1513.92 970.868 1509.34 Q973.946 1504.73 979.756 1504.73 Z" fill="#000000" fill-rule="evenodd" fill-opacity="1" /><path clip-path="url(#clip200)" d="M 0 0 M997.58 1535.98 L1005.22 1535.98 L1005.22 1509.62 L996.909 1511.29 L996.909 1507.03 L1005.17 1505.36 L1009.85 1505.36 L1009.85 1535.98 L1017.49 1535.98 L1017.49 1539.92 L997.58 1539.92 L997.58 1535.98 Z" fill="#000000" fill-rule="evenodd" fill-opacity="1" /><path clip-path="url(#clip200)" d="M 0 0 M1019.8 1525.04 L1032.28 1525.04 L1032.28 1528.83 L1019.8 1528.83 L1019.8 1525.04 Z" fill="#000000" fill-rule="evenodd" fill-opacity="1" /><path clip-path="url(#clip200)" d="M 0 0 M1047.35 1508.44 Q1043.74 1508.44 1041.91 1512 Q1040.1 1515.55 1040.1 1522.67 Q1040.1 1529.78 1041.91 1533.35 Q1043.74 1536.89 1047.35 1536.89 Q1050.98 1536.89 1052.79 1533.35 Q1054.62 1529.78 1054.62 1522.67 Q1054.62 1515.55 1052.79 1512 Q1050.98 1508.44 1047.35 1508.44 M1047.35 1504.73 Q1053.16 1504.73 1056.21 1509.34 Q1059.29 1513.92 1059.29 1522.67 Q1059.29 1531.4 1056.21 1536.01 Q1053.16 1540.59 1047.35 1540.59 Q1041.54 1540.59 1038.46 1536.01 Q1035.4 1531.4 1035.4 1522.67 Q1035.4 1513.92 1038.46 1509.34 Q1041.54 1504.73 1047.35 1504.73 Z" fill="#000000" fill-rule="evenodd" fill-opacity="1" /><path clip-path="url(#clip200)" d="M 0 0 M1065.17 1535.98 L1072.81 1535.98 L1072.81 1509.62 L1064.5 1511.29 L1064.5 1507.03 L1072.77 1505.36 L1077.44 1505.36 L1077.44 1535.98 L1085.08 1535.98 L1085.08 1539.92 L1065.17 1539.92 L1065.17 1535.98 Z" fill="#000000" fill-rule="evenodd" fill-opacity="1" /><path clip-path="url(#clip200)" d="M 0 0 M1466.52 1535.98 L1482.84 1535.98 L1482.84 1539.92 L1460.89 1539.92 L1460.89 1535.98 Q1463.56 1533.23 1468.14 1528.6 Q1472.75 1523.95 1473.93 1522.61 Q1476.17 1520.08 1477.05 1518.35 Q1477.95 1516.59 1477.95 1514.9 Q1477.95 1512.14 1476.01 1510.41 Q1474.09 1508.67 1470.99 1508.67 Q1468.79 1508.67 1466.33 1509.43 Q1463.9 1510.2 1461.13 1511.75 L1461.13 1507.03 Q1463.95 1505.89 1466.4 1505.31 Q1468.86 1504.73 1470.89 1504.73 Q1476.26 1504.73 1479.46 1507.42 Q1482.65 1510.11 1482.65 1514.6 Q1482.65 1516.73 1481.84 1518.65 Q1481.06 1520.54 1478.95 1523.14 Q1478.37 1523.81 1475.27 1527.03 Q1472.17 1530.22 1466.52 1535.98 Z" fill="#000000" fill-rule="evenodd" fill-opacity="1" /><path clip-path="url(#clip200)" d="M 0 0 M1497.91 1508.44 Q1494.3 1508.44 1492.47 1512 Q1490.66 1515.55 1490.66 1522.67 Q1490.66 1529.78 1492.47 1533.35 Q1494.3 1536.89 1497.91 1536.89 Q1501.54 1536.89 1503.35 1533.35 Q1505.18 1529.78 1505.18 1522.67 Q1505.18 1515.55 1503.35 1512 Q1501.54 1508.44 1497.91 1508.44 M1497.91 1504.73 Q1503.72 1504.73 1506.77 1509.34 Q1509.85 1513.92 1509.85 1522.67 Q1509.85 1531.4 1506.77 1536.01 Q1503.72 1540.59 1497.91 1540.59 Q1492.1 1540.59 1489.02 1536.01 Q1485.96 1531.4 1485.96 1522.67 Q1485.96 1513.92 1489.02 1509.34 Q1492.1 1504.73 1497.91 1504.73 Z" fill="#000000" fill-rule="evenodd" fill-opacity="1" /><path clip-path="url(#clip200)" d="M 0 0 M1515.73 1535.98 L1523.37 1535.98 L1523.37 1509.62 L1515.06 1511.29 L1515.06 1507.03 L1523.32 1505.36 L1528 1505.36 L1528 1535.98 L1535.64 1535.98 L1535.64 1539.92 L1515.73 1539.92 L1515.73 1535.98 Z" fill="#000000" fill-rule="evenodd" fill-opacity="1" /><path clip-path="url(#clip200)" d="M 0 0 M1539.53 1505.36 L1561.75 1505.36 L1561.75 1507.35 L1549.2 1539.92 L1544.32 1539.92 L1556.13 1509.3 L1539.53 1509.3 L1539.53 1505.36 Z" fill="#000000" fill-rule="evenodd" fill-opacity="1" /><path clip-path="url(#clip200)" d="M 0 0 M1564.07 1525.04 L1576.54 1525.04 L1576.54 1528.83 L1564.07 1528.83 L1564.07 1525.04 Z" fill="#000000" fill-rule="evenodd" fill-opacity="1" /><path clip-path="url(#clip200)" d="M 0 0 M1591.61 1508.44 Q1588 1508.44 1586.17 1512 Q1584.37 1515.55 1584.37 1522.67 Q1584.37 1529.78 1586.17 1533.35 Q1588 1536.89 1591.61 1536.89 Q1595.25 1536.89 1597.05 1533.35 Q1598.88 1529.78 1598.88 1522.67 Q1598.88 1515.55 1597.05 1512 Q1595.25 1508.44 1591.61 1508.44 M1591.61 1504.73 Q1597.42 1504.73 1600.48 1509.34 Q1603.56 1513.92 1603.56 1522.67 Q1603.56 1531.4 1600.48 1536.01 Q1597.42 1540.59 1591.61 1540.59 Q1585.8 1540.59 1582.72 1536.01 Q1579.67 1531.4 1579.67 1522.67 Q1579.67 1513.92 1582.72 1509.34 Q1585.8 1504.73 1591.61 1504.73 Z" fill="#000000" fill-rule="evenodd" fill-opacity="1" /><path clip-path="url(#clip200)" d="M 0 0 M1609.44 1535.98 L1617.07 1535.98 L1617.07 1509.62 L1608.76 1511.29 L1608.76 1507.03 L1617.03 1505.36 L1621.7 1505.36 L1621.7 1535.98 L1629.34 1535.98 L1629.34 1539.92 L1609.44 1539.92 L1609.44 1535.98 Z" fill="#000000" fill-rule="evenodd" fill-opacity="1" /><path clip-path="url(#clip200)" d="M 0 0 M1631.66 1525.04 L1644.13 1525.04 L1644.13 1528.83 L1631.66 1528.83 L1631.66 1525.04 Z" fill="#000000" fill-rule="evenodd" fill-opacity="1" /><path clip-path="url(#clip200)" d="M 0 0 M1659.2 1508.44 Q1655.59 1508.44 1653.76 1512 Q1651.96 1515.55 1651.96 1522.67 Q1651.96 1529.78 1653.76 1533.35 Q1655.59 1536.89 1659.2 1536.89 Q1662.84 1536.89 1664.64 1533.35 Q1666.47 1529.78 1666.47 1522.67 Q1666.47 1515.55 1664.64 1512 Q1662.84 1508.44 1659.2 1508.44 M1659.2 1504.73 Q1665.01 1504.73 1668.07 1509.34 Q1671.15 1513.92 1671.15 1522.67 Q1671.15 1531.4 1668.07 1536.01 Q1665.01 1540.59 1659.2 1540.59 Q1653.39 1540.59 1650.31 1536.01 Q1647.26 1531.4 1647.26 1522.67 Q1647.26 1513.92 1650.31 1509.34 Q1653.39 1504.73 1659.2 1504.73 Z" fill="#000000" fill-rule="evenodd" fill-opacity="1" /><path clip-path="url(#clip200)" d="M 0 0 M1677.03 1535.98 L1684.67 1535.98 L1684.67 1509.62 L1676.36 1511.29 L1676.36 1507.03 L1684.62 1505.36 L1689.3 1505.36 L1689.3 1535.98 L1696.93 1535.98 L1696.93 1539.92 L1677.03 1539.92 L1677.03 1535.98 Z" fill="#000000" fill-rule="evenodd" fill-opacity="1" /><path clip-path="url(#clip200)" d="M 0 0 M2078.24 1535.98 L2094.56 1535.98 L2094.56 1539.92 L2072.62 1539.92 L2072.62 1535.98 Q2075.28 1533.23 2079.86 1528.6 Q2084.47 1523.95 2085.65 1522.61 Q2087.9 1520.08 2088.78 1518.35 Q2089.68 1516.59 2089.68 1514.9 Q2089.68 1512.14 2087.73 1510.41 Q2085.81 1508.67 2082.71 1508.67 Q2080.51 1508.67 2078.06 1509.43 Q2075.63 1510.2 2072.85 1511.75 L2072.85 1507.03 Q2075.67 1505.89 2078.13 1505.31 Q2080.58 1504.73 2082.62 1504.73 Q2087.99 1504.73 2091.18 1507.42 Q2094.38 1510.11 2094.38 1514.6 Q2094.38 1516.73 2093.57 1518.65 Q2092.78 1520.54 2090.67 1523.14 Q2090.1 1523.81 2086.99 1527.03 Q2083.89 1530.22 2078.24 1535.98 Z" fill="#000000" fill-rule="evenodd" fill-opacity="1" /><path clip-path="url(#clip200)" d="M 0 0 M2109.63 1508.44 Q2106.02 1508.44 2104.19 1512 Q2102.39 1515.55 2102.39 1522.67 Q2102.39 1529.78 2104.19 1533.35 Q2106.02 1536.89 2109.63 1536.89 Q2113.27 1536.89 2115.07 1533.35 Q2116.9 1529.78 2116.9 1522.67 Q2116.9 1515.55 2115.07 1512 Q2113.27 1508.44 2109.63 1508.44 M2109.63 1504.73 Q2115.44 1504.73 2118.5 1509.34 Q2121.58 1513.92 2121.58 1522.67 Q2121.58 1531.4 2118.5 1536.01 Q2115.44 1540.59 2109.63 1540.59 Q2103.82 1540.59 2100.74 1536.01 Q2097.69 1531.4 2097.69 1522.67 Q2097.69 1513.92 2100.74 1509.34 Q2103.82 1504.73 2109.63 1504.73 Z" fill="#000000" fill-rule="evenodd" fill-opacity="1" /><path clip-path="url(#clip200)" d="M 0 0 M2130.67 1535.98 L2146.99 1535.98 L2146.99 1539.92 L2125.05 1539.92 L2125.05 1535.98 Q2127.71 1533.23 2132.29 1528.6 Q2136.9 1523.95 2138.08 1522.61 Q2140.33 1520.08 2141.21 1518.35 Q2142.11 1516.59 2142.11 1514.9 Q2142.11 1512.14 2140.16 1510.41 Q2138.24 1508.67 2135.14 1508.67 Q2132.94 1508.67 2130.49 1509.43 Q2128.06 1510.2 2125.28 1511.75 L2125.28 1507.03 Q2128.1 1505.89 2130.56 1505.31 Q2133.01 1504.73 2135.05 1504.73 Q2140.42 1504.73 2143.61 1507.42 Q2146.81 1510.11 2146.81 1514.6 Q2146.81 1516.73 2146 1518.65 Q2145.21 1520.54 2143.1 1523.14 Q2142.53 1523.81 2139.42 1527.03 Q2136.32 1530.22 2130.67 1535.98 Z" fill="#000000" fill-rule="evenodd" fill-opacity="1" /><path clip-path="url(#clip200)" d="M 0 0 M2162.06 1508.44 Q2158.45 1508.44 2156.62 1512 Q2154.82 1515.55 2154.82 1522.67 Q2154.82 1529.78 2156.62 1533.35 Q2158.45 1536.89 2162.06 1536.89 Q2165.7 1536.89 2167.5 1533.35 Q2169.33 1529.78 2169.33 1522.67 Q2169.33 1515.55 2167.5 1512 Q2165.7 1508.44 2162.06 1508.44 M2162.06 1504.73 Q2167.87 1504.73 2170.93 1509.34 Q2174.01 1513.92 2174.01 1522.67 Q2174.01 1531.4 2170.93 1536.01 Q2167.87 1540.59 2162.06 1540.59 Q2156.25 1540.59 2153.17 1536.01 Q2150.12 1531.4 2150.12 1522.67 Q2150.12 1513.92 2153.17 1509.34 Q2156.25 1504.73 2162.06 1504.73 Z" fill="#000000" fill-rule="evenodd" fill-opacity="1" /><path clip-path="url(#clip200)" d="M 0 0 M2176.32 1525.04 L2188.8 1525.04 L2188.8 1528.83 L2176.32 1528.83 L2176.32 1525.04 Z" fill="#000000" fill-rule="evenodd" fill-opacity="1" /><path clip-path="url(#clip200)" d="M 0 0 M2203.87 1508.44 Q2200.26 1508.44 2198.43 1512 Q2196.62 1515.55 2196.62 1522.67 Q2196.62 1529.78 2198.43 1533.35 Q2200.26 1536.89 2203.87 1536.89 Q2207.5 1536.89 2209.31 1533.35 Q2211.14 1529.78 2211.14 1522.67 Q2211.14 1515.55 2209.31 1512 Q2207.5 1508.44 2203.87 1508.44 M2203.87 1504.73 Q2209.68 1504.73 2212.73 1509.34 Q2215.81 1513.92 2215.81 1522.67 Q2215.81 1531.4 2212.73 1536.01 Q2209.68 1540.59 2203.87 1540.59 Q2198.06 1540.59 2194.98 1536.01 Q2191.92 1531.4 2191.92 1522.67 Q2191.92 1513.92 2194.98 1509.34 Q2198.06 1504.73 2203.87 1504.73 Z" fill="#000000" fill-rule="evenodd" fill-opacity="1" /><path clip-path="url(#clip200)" d="M 0 0 M2221.69 1535.98 L2229.33 1535.98 L2229.33 1509.62 L2221.02 1511.29 L2221.02 1507.03 L2229.28 1505.36 L2233.96 1505.36 L2233.96 1535.98 L2241.6 1535.98 L2241.6 1539.92 L2221.69 1539.92 L2221.69 1535.98 Z" fill="#000000" fill-rule="evenodd" fill-opacity="1" /><path clip-path="url(#clip200)" d="M 0 0 M2243.91 1525.04 L2256.39 1525.04 L2256.39 1528.83 L2243.91 1528.83 L2243.91 1525.04 Z" fill="#000000" fill-rule="evenodd" fill-opacity="1" /><path clip-path="url(#clip200)" d="M 0 0 M2271.46 1508.44 Q2267.85 1508.44 2266.02 1512 Q2264.22 1515.55 2264.22 1522.67 Q2264.22 1529.78 2266.02 1533.35 Q2267.85 1536.89 2271.46 1536.89 Q2275.09 1536.89 2276.9 1533.35 Q2278.73 1529.78 2278.73 1522.67 Q2278.73 1515.55 2276.9 1512 Q2275.09 1508.44 2271.46 1508.44 M2271.46 1504.73 Q2277.27 1504.73 2280.33 1509.34 Q2283.4 1513.92 2283.4 1522.67 Q2283.4 1531.4 2280.33 1536.01 Q2277.27 1540.59 2271.46 1540.59 Q2265.65 1540.59 2262.57 1536.01 Q2259.52 1531.4 2259.52 1522.67 Q2259.52 1513.92 2262.57 1509.34 Q2265.65 1504.73 2271.46 1504.73 Z" fill="#000000" fill-rule="evenodd" fill-opacity="1" /><path clip-path="url(#clip200)" d="M 0 0 M2289.28 1535.98 L2296.92 1535.98 L2296.92 1509.62 L2288.61 1511.29 L2288.61 1507.03 L2296.88 1505.36 L2301.55 1505.36 L2301.55 1535.98 L2309.19 1535.98 L2309.19 1539.92 L2289.28 1539.92 L2289.28 1535.98 Z" fill="#000000" fill-rule="evenodd" fill-opacity="1" /><path clip-path="url(#clip200)" d="M 0 0 M152.668 1454.49 Q149.056 1454.49 147.228 1458.06 Q145.422 1461.6 145.422 1468.73 Q145.422 1475.84 147.228 1479.4 Q149.056 1482.94 152.668 1482.94 Q156.302 1482.94 158.107 1479.4 Q159.936 1475.84 159.936 1468.73 Q159.936 1461.6 158.107 1458.06 Q156.302 1454.49 152.668 1454.49 M152.668 1450.79 Q158.478 1450.79 161.533 1455.4 Q164.612 1459.98 164.612 1468.73 Q164.612 1477.46 161.533 1482.06 Q158.478 1486.65 152.668 1486.65 Q146.857 1486.65 143.779 1482.06 Q140.723 1477.46 140.723 1468.73 Q140.723 1459.98 143.779 1455.4 Q146.857 1450.79 152.668 1450.79 Z" fill="#000000" fill-rule="evenodd" fill-opacity="1" /><path clip-path="url(#clip200)" d="M 0 0 M95.2605 1159.5 L111.58 1159.5 L111.58 1163.44 L89.6355 1163.44 L89.6355 1159.5 Q92.2975 1156.75 96.8808 1152.12 Q101.487 1147.46 102.668 1146.12 Q104.913 1143.6 105.793 1141.86 Q106.696 1140.1 106.696 1138.41 Q106.696 1135.66 104.751 1133.92 Q102.83 1132.19 99.728 1132.19 Q97.529 1132.19 95.0753 1132.95 Q92.6447 1133.71 89.867 1135.26 L89.867 1130.54 Q92.691 1129.41 95.1447 1128.83 Q97.5984 1128.25 99.6354 1128.25 Q105.006 1128.25 108.2 1130.94 Q111.395 1133.62 111.395 1138.11 Q111.395 1140.24 110.584 1142.16 Q109.797 1144.06 107.691 1146.65 Q107.112 1147.32 104.01 1150.54 Q100.909 1153.74 95.2605 1159.5 Z" fill="#000000" fill-rule="evenodd" fill-opacity="1" /><path clip-path="url(#clip200)" d="M 0 0 M116.696 1128.88 L135.052 1128.88 L135.052 1132.81 L120.978 1132.81 L120.978 1141.28 Q121.996 1140.94 123.015 1140.77 Q124.033 1140.59 125.052 1140.59 Q130.839 1140.59 134.219 1143.76 Q137.598 1146.93 137.598 1152.35 Q137.598 1157.93 134.126 1161.03 Q130.654 1164.11 124.334 1164.11 Q122.158 1164.11 119.89 1163.74 Q117.645 1163.37 115.237 1162.63 L115.237 1157.93 Q117.321 1159.06 119.543 1159.62 Q121.765 1160.17 124.242 1160.17 Q128.246 1160.17 130.584 1158.07 Q132.922 1155.96 132.922 1152.35 Q132.922 1148.74 130.584 1146.63 Q128.246 1144.52 124.242 1144.52 Q122.367 1144.52 120.492 1144.94 Q118.64 1145.36 116.696 1146.24 L116.696 1128.88 Z" fill="#000000" fill-rule="evenodd" fill-opacity="1" /><path clip-path="url(#clip200)" d="M 0 0 M152.668 1131.95 Q149.056 1131.95 147.228 1135.52 Q145.422 1139.06 145.422 1146.19 Q145.422 1153.3 147.228 1156.86 Q149.056 1160.4 152.668 1160.4 Q156.302 1160.4 158.107 1156.86 Q159.936 1153.3 159.936 1146.19 Q159.936 1139.06 158.107 1135.52 Q156.302 1131.95 152.668 1131.95 M152.668 1128.25 Q158.478 1128.25 161.533 1132.86 Q164.612 1137.44 164.612 1146.19 Q164.612 1154.92 161.533 1159.52 Q158.478 1164.11 152.668 1164.11 Q146.857 1164.11 143.779 1159.52 Q140.723 1154.92 140.723 1146.19 Q140.723 1137.44 143.779 1132.86 Q146.857 1128.25 152.668 1128.25 Z" fill="#000000" fill-rule="evenodd" fill-opacity="1" /><path clip-path="url(#clip200)" d="M 0 0 M89.6818 806.336 L108.038 806.336 L108.038 810.271 L93.9642 810.271 L93.9642 818.743 Q94.9827 818.396 96.0012 818.234 Q97.0197 818.049 98.0382 818.049 Q103.825 818.049 107.205 821.22 Q110.584 824.391 110.584 829.808 Q110.584 835.387 107.112 838.488 Q103.64 841.567 97.3206 841.567 Q95.1447 841.567 92.8762 841.197 Q90.6309 840.826 88.2235 840.086 L88.2235 835.387 Q90.3068 836.521 92.529 837.076 Q94.7512 837.632 97.2281 837.632 Q101.233 837.632 103.571 835.525 Q105.909 833.419 105.909 829.808 Q105.909 826.197 103.571 824.09 Q101.233 821.984 97.2281 821.984 Q95.3531 821.984 93.4781 822.4 Q91.6262 822.817 89.6818 823.697 L89.6818 806.336 Z" fill="#000000" fill-rule="evenodd" fill-opacity="1" /><path clip-path="url(#clip200)" d="M 0 0 M125.654 809.414 Q122.043 809.414 120.214 812.979 Q118.408 816.521 118.408 823.65 Q118.408 830.757 120.214 834.322 Q122.043 837.863 125.654 837.863 Q129.288 837.863 131.094 834.322 Q132.922 830.757 132.922 823.65 Q132.922 816.521 131.094 812.979 Q129.288 809.414 125.654 809.414 M125.654 805.711 Q131.464 805.711 134.52 810.317 Q137.598 814.9 137.598 823.65 Q137.598 832.377 134.52 836.984 Q131.464 841.567 125.654 841.567 Q119.844 841.567 116.765 836.984 Q113.709 832.377 113.709 823.65 Q113.709 814.9 116.765 810.317 Q119.844 805.711 125.654 805.711 Z" fill="#000000" fill-rule="evenodd" fill-opacity="1" /><path clip-path="url(#clip200)" d="M 0 0 M152.668 809.414 Q149.056 809.414 147.228 812.979 Q145.422 816.521 145.422 823.65 Q145.422 830.757 147.228 834.322 Q149.056 837.863 152.668 837.863 Q156.302 837.863 158.107 834.322 Q159.936 830.757 159.936 823.65 Q159.936 816.521 158.107 812.979 Q156.302 809.414 152.668 809.414 M152.668 805.711 Q158.478 805.711 161.533 810.317 Q164.612 814.9 164.612 823.65 Q164.612 832.377 161.533 836.984 Q158.478 841.567 152.668 841.567 Q146.857 841.567 143.779 836.984 Q140.723 832.377 140.723 823.65 Q140.723 814.9 143.779 810.317 Q146.857 805.711 152.668 805.711 Z" fill="#000000" fill-rule="evenodd" fill-opacity="1" /><path clip-path="url(#clip200)" d="M 0 0 M89.3577 483.795 L111.58 483.795 L111.58 485.786 L99.0336 518.355 L94.1494 518.355 L105.955 487.731 L89.3577 487.731 L89.3577 483.795 Z" fill="#000000" fill-rule="evenodd" fill-opacity="1" /><path clip-path="url(#clip200)" d="M 0 0 M116.696 483.795 L135.052 483.795 L135.052 487.731 L120.978 487.731 L120.978 496.203 Q121.996 495.856 123.015 495.694 Q124.033 495.508 125.052 495.508 Q130.839 495.508 134.219 498.68 Q137.598 501.851 137.598 507.268 Q137.598 512.846 134.126 515.948 Q130.654 519.027 124.334 519.027 Q122.158 519.027 119.89 518.656 Q117.645 518.286 115.237 517.545 L115.237 512.846 Q117.321 513.98 119.543 514.536 Q121.765 515.092 124.242 515.092 Q128.246 515.092 130.584 512.985 Q132.922 510.879 132.922 507.268 Q132.922 503.656 130.584 501.55 Q128.246 499.444 124.242 499.444 Q122.367 499.444 120.492 499.86 Q118.64 500.277 116.696 501.156 L116.696 483.795 Z" fill="#000000" fill-rule="evenodd" fill-opacity="1" /><path clip-path="url(#clip200)" d="M 0 0 M152.668 486.874 Q149.056 486.874 147.228 490.439 Q145.422 493.981 145.422 501.11 Q145.422 508.217 147.228 511.781 Q149.056 515.323 152.668 515.323 Q156.302 515.323 158.107 511.781 Q159.936 508.217 159.936 501.11 Q159.936 493.981 158.107 490.439 Q156.302 486.874 152.668 486.874 M152.668 483.17 Q158.478 483.17 161.533 487.777 Q164.612 492.36 164.612 501.11 Q164.612 509.837 161.533 514.443 Q158.478 519.027 152.668 519.027 Q146.857 519.027 143.779 514.443 Q140.723 509.837 140.723 501.11 Q140.723 492.36 143.779 487.777 Q146.857 483.17 152.668 483.17 Z" fill="#000000" fill-rule="evenodd" fill-opacity="1" /><path clip-path="url(#clip200)" d="M 0 0 M63.6634 191.88 L71.3023 191.88 L71.3023 165.514 L62.9921 167.181 L62.9921 162.922 L71.256 161.255 L75.9319 161.255 L75.9319 191.88 L83.5707 191.88 L83.5707 195.815 L63.6634 195.815 L63.6634 191.88 Z" fill="#000000" fill-rule="evenodd" fill-opacity="1" /><path clip-path="url(#clip200)" d="M 0 0 M98.6401 164.334 Q95.029 164.334 93.2003 167.899 Q91.3948 171.44 91.3948 178.57 Q91.3948 185.676 93.2003 189.241 Q95.029 192.783 98.6401 192.783 Q102.274 192.783 104.08 189.241 Q105.909 185.676 105.909 178.57 Q105.909 171.44 104.08 167.899 Q102.274 164.334 98.6401 164.334 M98.6401 160.63 Q104.45 160.63 107.506 165.237 Q110.584 169.82 110.584 178.57 Q110.584 187.297 107.506 191.903 Q104.45 196.486 98.6401 196.486 Q92.8299 196.486 89.7512 191.903 Q86.6957 187.297 86.6957 178.57 Q86.6957 169.82 89.7512 165.237 Q92.8299 160.63 98.6401 160.63 Z" fill="#000000" fill-rule="evenodd" fill-opacity="1" /><path clip-path="url(#clip200)" d="M 0 0 M125.654 164.334 Q122.043 164.334 120.214 167.899 Q118.408 171.44 118.408 178.57 Q118.408 185.676 120.214 189.241 Q122.043 192.783 125.654 192.783 Q129.288 192.783 131.094 189.241 Q132.922 185.676 132.922 178.57 Q132.922 171.44 131.094 167.899 Q129.288 164.334 125.654 164.334 M125.654 160.63 Q131.464 160.63 134.52 165.237 Q137.598 169.82 137.598 178.57 Q137.598 187.297 134.52 191.903 Q131.464 196.486 125.654 196.486 Q119.844 196.486 116.765 191.903 Q113.709 187.297 113.709 178.57 Q113.709 169.82 116.765 165.237 Q119.844 160.63 125.654 160.63 Z" fill="#000000" fill-rule="evenodd" fill-opacity="1" /><path clip-path="url(#clip200)" d="M 0 0 M152.668 164.334 Q149.056 164.334 147.228 167.899 Q145.422 171.44 145.422 178.57 Q145.422 185.676 147.228 189.241 Q149.056 192.783 152.668 192.783 Q156.302 192.783 158.107 189.241 Q159.936 185.676 159.936 178.57 Q159.936 171.44 158.107 167.899 Q156.302 164.334 152.668 164.334 M152.668 160.63 Q158.478 160.63 161.533 165.237 Q164.612 169.82 164.612 178.57 Q164.612 187.297 161.533 191.903 Q158.478 196.486 152.668 196.486 Q146.857 196.486 143.779 191.903 Q140.723 187.297 140.723 178.57 Q140.723 169.82 143.779 165.237 Q146.857 160.63 152.668 160.63 Z" fill="#000000" fill-rule="evenodd" fill-opacity="1" /><path clip-path="url(#clip200)" d="M 0 0 M1066.3 12.096 L1117.46 12.096 L1117.46 18.9825 L1095.99 18.9825 L1095.99 72.576 L1087.77 72.576 L1087.77 18.9825 L1066.3 18.9825 L1066.3 12.096 Z" fill="#000000" fill-rule="evenodd" fill-opacity="1" /><path clip-path="url(#clip200)" d="M 0 0 M1161.86 14.0809 L1161.86 22.0612 Q1157.2 19.8332 1153.07 18.7395 Q1148.93 17.6457 1145.09 17.6457 Q1138.4 17.6457 1134.76 20.2383 Q1131.15 22.8309 1131.15 27.611 Q1131.15 31.6214 1133.54 33.6873 Q1135.97 35.7128 1142.7 36.9686 L1147.64 37.9813 Q1156.79 39.7232 1161.13 44.1387 Q1165.5 48.5136 1165.5 55.8863 Q1165.5 64.6767 1159.59 69.2137 Q1153.71 73.7508 1142.33 73.7508 Q1138.04 73.7508 1133.18 72.7785 Q1128.36 71.8063 1123.17 69.9024 L1123.17 61.4765 Q1128.15 64.2716 1132.93 65.6895 Q1137.71 67.1073 1142.33 67.1073 Q1149.34 67.1073 1153.15 64.3527 Q1156.95 61.598 1156.95 56.4939 Q1156.95 52.0379 1154.2 49.5264 Q1151.49 47.0148 1145.25 45.759 L1140.27 44.7868 Q1131.11 42.9639 1127.02 39.075 Q1122.93 35.1862 1122.93 28.2591 Q1122.93 20.2383 1128.56 15.6203 Q1134.23 11.0023 1144.15 11.0023 Q1148.41 11.0023 1152.82 11.7719 Q1157.24 12.5416 1161.86 14.0809 Z" fill="#000000" fill-rule="evenodd" fill-opacity="1" /><path clip-path="url(#clip200)" d="M 0 0 M1173.64 12.096 L1181.83 12.096 L1181.83 65.6895 L1211.28 65.6895 L1211.28 72.576 L1173.64 72.576 L1173.64 12.096 Z" fill="#000000" fill-rule="evenodd" fill-opacity="1" /><path clip-path="url(#clip200)" d="M 0 0 M1241.54 20.1573 L1230.44 50.2555 L1252.68 50.2555 L1241.54 20.1573 M1236.92 12.096 L1246.2 12.096 L1269.25 72.576 L1260.74 72.576 L1255.23 57.061 L1227.97 57.061 L1222.46 72.576 L1213.83 72.576 L1236.92 12.096 Z" fill="#000000" fill-rule="evenodd" fill-opacity="1" /><path clip-path="url(#clip200)" d="M 0 0 M1311.94 18.8205 L1311.94 65.8515 L1321.83 65.8515 Q1334.34 65.8515 1340.14 60.1802 Q1345.97 54.509 1345.97 42.2752 Q1345.97 30.1225 1340.14 24.4918 Q1334.34 18.8205 1321.83 18.8205 L1311.94 18.8205 M1303.76 12.096 L1320.57 12.096 Q1338.15 12.096 1346.38 19.4281 Q1354.6 26.7198 1354.6 42.2752 Q1354.6 57.9117 1346.33 65.2439 Q1338.07 72.576 1320.57 72.576 L1303.76 72.576 L1303.76 12.096 Z" fill="#000000" fill-rule="evenodd" fill-opacity="1" /><path clip-path="url(#clip200)" d="M 0 0 M1383.04 49.7694 Q1374 49.7694 1370.52 51.8354 Q1367.03 53.9013 1367.03 58.8839 Q1367.03 62.8538 1369.63 65.2034 Q1372.26 67.5124 1376.76 67.5124 Q1382.95 67.5124 1386.68 63.1374 Q1390.45 58.7219 1390.45 51.4303 L1390.45 49.7694 L1383.04 49.7694 M1397.9 46.6907 L1397.9 72.576 L1390.45 72.576 L1390.45 65.6895 Q1387.9 69.8214 1384.09 71.8063 Q1380.28 73.7508 1374.77 73.7508 Q1367.8 73.7508 1363.67 69.8619 Q1359.58 65.9325 1359.58 59.3701 Q1359.58 51.7138 1364.69 47.825 Q1369.83 43.9361 1380 43.9361 L1390.45 43.9361 L1390.45 43.2069 Q1390.45 38.0623 1387.05 35.2672 Q1383.68 32.4315 1377.57 32.4315 Q1373.68 32.4315 1369.99 33.3632 Q1366.31 34.295 1362.9 36.1584 L1362.9 29.2718 Q1366.99 27.692 1370.84 26.9223 Q1374.69 26.1121 1378.34 26.1121 Q1388.18 26.1121 1393.04 31.2163 Q1397.9 36.3204 1397.9 46.6907 Z" fill="#000000" fill-rule="evenodd" fill-opacity="1" /><path clip-path="url(#clip200)" d="M 0 0 M1405.72 27.2059 L1413.17 27.2059 L1413.17 72.576 L1405.72 72.576 L1405.72 27.2059 M1405.72 9.54393 L1413.17 9.54393 L1413.17 18.9825 L1405.72 18.9825 L1405.72 9.54393 Z" fill="#000000" fill-rule="evenodd" fill-opacity="1" /><path clip-path="url(#clip200)" d="M 0 0 M1420.99 9.54393 L1428.45 9.54393 L1428.45 72.576 L1420.99 72.576 L1420.99 9.54393 Z" fill="#000000" fill-rule="evenodd" fill-opacity="1" /><path clip-path="url(#clip200)" d="M 0 0 M1455.14 76.7889 Q1451.98 84.8907 1448.98 87.3618 Q1445.99 89.8329 1440.96 89.8329 L1435.01 89.8329 L1435.01 83.5945 L1439.38 83.5945 Q1442.46 83.5945 1444.16 82.1361 Q1445.87 80.6778 1447.93 75.2496 L1449.27 71.8468 L1430.92 27.2059 L1438.82 27.2059 L1452.99 62.6918 L1467.17 27.2059 L1475.07 27.2059 L1455.14 76.7889 Z" fill="#000000" fill-rule="evenodd" fill-opacity="1" /><polyline clip-path="url(#clip202)" style="stroke:#009af9; stroke-width:4; stroke-opacity:1; fill:none" points="
  2291.51,218.517 2289.83,185.27 2289.27,237.534 2288.71,186.134 2288.15,179.98 2287.59,178.6 2285.92,162.047 2285.36,174.665 2284.8,194.391 2284.24,163.247 
  2283.68,284.599 2282.01,204.338 2281.45,191.179 2280.89,189.011 2280.33,255.932 2279.77,283.038 2278.09,336.141 2277.53,320.608 2276.98,322.878 2276.42,314.389 
  2275.86,361.738 2274.18,425.278 2273.62,419.137 2273.06,409.655 2272.5,392.057 2270.27,407.96 2269.71,415.925 2269.15,410.119 2268.59,416.996 2268.03,400.727 
  2266.36,449.017 2265.8,462.371 2265.24,409.693 2264.68,401.733 2264.12,448.811 2262.44,444.605 2261.89,465.97 2261.33,466.886 2260.77,449.74 2260.21,564.293 
  2258.53,494.625 2257.97,365.363 2257.41,449.25 2256.86,442.192 2256.3,517.061 2254.62,551.637 2254.06,529.975 2253.5,560.449 2252.94,526.724 2252.38,523.395 
  2250.71,472.331 2250.15,543.728 2249.59,511.397 2249.03,566.912 2248.47,707.295 2246.24,743.51 2245.68,753.689 2245.12,765.558 2244.56,809.166 2242.88,811.359 
  2242.32,848.09 2241.76,818.455 2241.21,822.003 2240.65,810.379 2238.97,817.165 2238.41,762.475 2237.85,765.236 2237.29,852.902 2236.73,909.282 2235.06,903.348 
  2234.5,985.277 2233.94,966.824 2233.38,901.012 2232.82,862.966 2231.15,701.05 2230.59,719.255 2230.03,642.735 2229.47,617.925 2228.91,687.646 2227.23,578.481 
  2226.67,534.916 2226.12,483.064 2225.56,430.117 2225,551.056 2223.32,656.282 2222.76,526.879 2222.2,459.145 2221.64,373.349 2221.09,386.251 2219.41,298.546 
  2218.85,292.134 2218.29,277.232 2217.73,382.897 2215.5,453.056 2214.94,511.603 2214.38,465.119 2213.82,476.833 2213.26,436.567 2211.58,526.169 2211.03,565.687 
  2210.47,406.558 2209.91,329.536 2209.35,599.528 2207.67,642.993 2207.11,652.773 2206.55,725.963 2206,735.253 2205.44,769.442 2203.76,732.492 2203.2,740.723 
  2202.64,730.866 2202.08,784.588 2199.85,813.798 2199.29,831.679 2198.73,785.221 2198.17,766.52 2197.61,832.002 2195.94,847.11 2195.38,827.357 2194.82,857.547 
  2194.26,873.416 2193.7,900.419 2192.02,900.38 2191.46,921.023 2190.35,946.181 2189.79,915.488 2188.11,907.476 2187.55,916.623 2186.43,928.944 2185.88,937.434 
  2184.2,939.356 2183.64,956.089 2183.08,977.622 2182.52,979.738 2181.96,1000.95 2180.29,1002.88 2179.73,1010.79 2179.17,1014.72 2178.61,1030.09 2178.05,1034.44 
  2176.37,1036.49 2175.82,1039.29 2175.26,1032.94 2174.7,1039.56 2174.14,1043.72 2172.46,1041.51 2171.34,1041.5 2170.79,1036.14 2170.23,1024.47 2168.55,1029.84 
  2167.99,1011.32 2167.43,1004.24 2166.87,1014.88 2166.31,1013.38 2164.64,1016.31 2164.08,1022.16 2163.52,1010.69 2162.96,1021.14 2162.4,1024.95 2160.73,1037.14 
  2160.17,1044.05 2159.61,1058.43 2159.05,1056.33 2158.49,1062.55 2156.81,1060.59 2156.25,1064.75 2155.69,1064.88 2155.14,1055.86 2154.58,1046.12 2152.9,1084.59 
  2152.34,1083.75 2151.78,1140.35 2151.22,1140.58 2150.66,1135.41 2148.99,1132.35 2148.43,1130.03 2147.87,1136.62 2147.31,1136.22 2146.75,1148.87 2145.08,1149.83 
  2144.52,1152.25 2143.96,1157.35 2143.4,1164.39 2142.84,1172.22 2141.16,1169.88 2140.6,1169.56 2140.05,1154.81 2139.49,1157.12 2138.93,1155.19 2137.25,1156.22 
  2136.69,1171.11 2136.13,1178.98 2135.57,1157.1 2135.02,1159.06 2133.34,1150.68 2132.78,1151.32 2132.22,1152.61 2131.66,1155.87 2131.1,1151.32 2129.43,1150.08 
  2128.87,1149.12 2128.31,1162.44 2127.75,1170.93 2127.19,1171.96 2125.51,1175.57 2124.96,1181.64 2124.4,1175.97 2123.84,1179.6 2121.6,1173.06 2121.04,1186.15 
  2120.48,1193 2119.93,1190.36 2119.37,1193.12 2117.69,1184.9 2117.13,1181.25 2116.57,1182.27 2116.01,1175.03 2115.45,1179.43 2113.78,1189.17 2113.22,1183.75 
  2112.66,1170.4 2112.1,1173.49 2111.54,1168.1 2109.87,1164.15 2109.31,1166.22 2108.75,1176.47 2108.19,1169.53 2107.63,1172.48 2105.95,1170.22 2105.39,1155.64 
  2104.84,1155.19 2104.28,1168.22 2103.72,1175.71 2102.04,1175.93 2101.48,1167.44 2100.92,1134.33 2100.36,1137.5 2099.81,1134.87 2098.13,1138.81 2097.57,1139.64 
  2097.01,1138.84 2096.45,1147.06 2095.89,1148.74 2094.22,1159.38 2093.66,1161.46 2093.1,1166.61 2092.54,1173.29 2091.98,1170.36 2090.3,1166.06 2089.19,1159.84 
  2088.63,1173.39 2088.07,1171.69 2086.39,1183.58 2085.83,1185.57 2085.27,1184.46 2084.72,1179.2 2084.16,1180.68 2082.48,1189.74 2081.92,1180.99 2081.36,1178.27 
  2080.8,1173.61 2080.24,1190.69 2078.57,1196.15 2078.01,1197.27 2077.45,1181.05 2076.89,1185.97 2076.33,1197.44 2074.66,1204.21 2074.1,1204.94 2073.54,1212.37 
  2072.98,1235.05 2072.42,1229.36 2070.74,1229.89 2070.18,1225.18 2069.63,1227.31 2069.07,1222.02 2066.83,1210.88 2066.27,1217.97 2065.71,1211.83 2065.15,1213.55 
  2064.59,1207.05 2062.92,1182.33 2062.36,1172.62 2061.8,1172.84 2061.24,1172.86 2060.68,1169.37 2059.01,1159.38 2058.45,1156.48 2057.89,1150.1 2057.33,1137.38 
  2056.77,1146.13 2055.09,1154.08 2054.53,1151.94 2053.98,1160.54 2053.42,1156.4 2052.86,1164.4 2051.18,1150.67 2050.62,1139.71 2050.06,1128.29 2049.5,1133.06 
  2048.95,1121.64 2046.71,1118.77 2046.15,1114.22 2045.59,1125.84 2045.03,1122.12 2043.36,1120.07 2042.8,1122.55 2042.24,1111.66 2041.68,1118.22 2041.12,1110.43 
  2039.44,1120.53 2038.89,1130.82 2038.33,1098.01 2037.77,1096.74 2037.21,1104.07 2035.53,1109.13 2034.97,1111.12 2034.41,1121.97 2033.86,1127.53 2033.3,1133.63 
  2031.62,1117.02 2031.06,1117 2030.5,1120.75 2029.94,1123.58 2029.38,1112.61 2027.71,1102.92 2027.15,1091.39 2026.59,1102.42 2026.03,1099.08 2025.47,1102.91 
  2023.8,1111.44 2023.24,1108.95 2022.68,1111.99 2022.12,1104.87 2021.56,1084.07 2019.88,1072.69 2019.32,1057.24 2018.77,1079.35 2018.21,1091.69 2017.65,1084.34 
  2015.97,1088.76 2015.41,1079.31 2014.85,1075.96 2014.29,1073.18 2012.06,1075.84 2011.5,1077.29 2010.94,1065.71 2010.38,1060.75 2009.82,1066.68 2008.15,1072.84 
  2007.59,1064.49 2007.03,1056.37 2006.47,1065.53 2005.91,1064.9 2004.23,1074.66 2003.68,1080.36 2003.12,1081.07 2002.56,1087.75 2002,1090.8 2000.32,1088.89 
  1999.76,1103.54 1999.2,1091.32 1998.65,1075.43 1996.41,1051.97 1995.85,1022.03 1995.29,1023.87 1994.73,1036.49 1994.17,1026.97 1992.5,1027.35 1991.94,1037.27 
  1991.38,1035.85 1990.82,1027.51 1990.26,1053.63 1988.59,1073.91 1988.03,1072.62 1987.47,1073.78 1986.35,1032.89 1984.67,1051.85 1984.11,1056.05 1983.56,1081.65 
  1982.44,1064.23 1980.76,1059.2 1980.2,1046.74 1979.64,1033.14 1979.08,1016.44 1978.53,1001.66 1976.85,984.886 1976.29,991.143 1975.73,992.085 1975.17,991.453 
  1974.61,1004.24 1972.94,992.627 1972.38,1009.39 1971.26,1009.33 1970.7,1004.24 1969.02,1027.68 1968.46,1021.01 1967.91,1022.31 1967.35,1029.98 1966.79,1049.39 
  1965.11,1037.34 1963.99,1014.56 1963.43,1027.78 1962.88,1008.96 1961.2,1023.35 1960.64,1027.04 1960.08,1026.56 1959.52,1038.87 1958.96,1019.24 1957.29,1018.43 
  1956.73,1019.08 1956.17,1025.73 1955.61,1031.24 1955.05,1029.4 1953.37,1025.22 1952.82,1032.29 1952.26,1039.67 1951.7,1045.02 1951.14,1033.31 1949.46,1071 
  1948.9,1059.43 1948.34,1080.29 1947.79,1128.26 1947.23,1132.38 1945.55,1123.72 1944.99,1121.27 1944.43,1104.35 1943.87,1125.9 1943.31,1134.47 1941.64,1131.96 
  1941.08,1136.44 1940.52,1127.31 1939.96,1139.38 1939.4,1127.42 1937.73,1114.35 1937.17,1089.45 1936.61,1077.35 1936.05,1063.65 1935.49,1074.2 1933.81,1120.02 
  1933.25,1065 1932.7,1079.18 1932.14,1081.65 1931.58,1083.61 1929.9,1084.62 1929.34,1077.05 1928.78,1106.79 1928.22,1085.92 1927.67,1094.5 1925.99,1096.15 
  1925.43,1097.1 1924.87,1105.59 1924.31,1108.13 1923.75,1116.15 1922.08,1133.13 1921.52,1101.26 1920.96,1100.94 1920.4,1085.6 1918.16,1079.07 1917.61,1078.73 
  1917.05,1068.4 1916.49,1057.9 1915.93,1058.43 1914.25,1054.94 1913.69,1056.95 1913.13,1054.72 1912.58,1067.96 1912.02,1092.35 1910.34,1051.33 1909.78,1030.16 
  1909.22,1027.58 1908.66,1006.24 1908.1,1002.78 1906.43,1011.98 1905.87,997.078 1905.31,992.511 1904.75,1025.09 1904.19,1023 1902.52,1019.97 1901.96,1044.96 
  1901.4,1084.24 1900.84,1091.65 1900.28,1086.94 1898.6,1072.29 1898.04,1075.39 1897.49,1085.85 1896.93,1075.94 1896.37,1079.27 1894.69,1054.26 1894.13,1060.58 
  1893.57,1049.39 1893.01,1070.28 1892.46,1066.54 1890.78,1061.55 1890.22,1054 1889.66,1061.26 1889.1,1049.96 1888.54,1066.18 1886.87,1075.26 1886.31,1063.9 
  1885.19,1040.69 1884.63,1004.15 1882.95,1012.84 1882.4,1018.87 1881.84,1023.59 1881.28,1035.13 1880.72,1042.79 1879.04,1015.15 1878.48,1001.66 1877.92,1006.77 
  1877.36,997.581 1876.81,1010.17 1875.13,1012.19 1874.57,1020.2 1874.01,1021.39 1873.45,1023.98 1872.89,1052.61 1871.22,1057.13 1870.66,1060.81 1870.1,1081 
  1869.54,1084.62 1868.98,1088.95 1867.3,1099.89 1866.75,1098.15 1866.19,1103.21 1865.63,1109.37 1863.39,1110.52 1862.83,1109.52 1862.27,1110.34 1861.72,1097.44 
  1861.16,1105.74 1859.48,1101.45 1858.92,1099.84 1858.36,1102.51 1857.8,1100.99 1857.24,1077.36 1855.57,1071.71 1855.01,1071.97 1854.45,1081.12 1853.89,1080.62 
  1853.33,1084.87 1851.66,1103.58 1851.1,1109.01 1850.54,1083.49 1849.98,1090.02 1849.42,1089.89 1847.74,1100.52 1847.18,1109.06 1846.63,1102.94 1846.07,1101 
  1845.51,1092.89 1843.83,1087.88 1843.27,1093.16 1842.71,1093.16 1842.15,1096.01 1841.6,1082.94 1839.92,1077 1839.36,1078.65 1838.8,1080.69 1838.24,1082.98 
  1837.68,1081.17 1836.01,1080.36 1835.45,1095.4 1834.89,1142.57 1834.33,1120.59 1833.77,1138.08 1831.54,1137.78 1830.98,1127.35 1830.42,1076.49 1829.86,1072.18 
  1828.18,1067.13 1827.62,1063.73 1827.06,1068.42 1826.51,1062.46 1825.95,1060.36 1824.27,1048.16 1823.71,1043.74 1823.15,1034.22 1822.59,1023.69 1822.03,1044.74 
  1820.36,1050.56 1819.8,1039.25 1819.24,1048.83 1818.68,1038.11 1818.12,1039.86 1816.45,1046.84 1815.89,1023.58 1815.33,1013.82 1814.77,1009.08 1814.21,1012.62 
  1812.53,1019.94 1811.97,1035.81 1811.42,1035.16 1810.86,1037.18 1808.62,1039.72 1808.06,1050.04 1807.5,1054.76 1806.94,1062.27 1806.39,1060.84 1804.71,1055.94 
  1804.15,1025.77 1803.59,1031.34 1803.03,1049.12 1802.47,1032.66 1800.8,1019.15 1800.24,1015.85 1799.68,1020.35 1799.12,1023.41 1798.56,1030.24 1796.88,1028.11 
  1796.33,1019.37 1795.77,1011.23 1795.21,1004.24 1794.65,1017.91 1792.97,1023.59 1792.41,1022.73 1791.85,1029.44 1791.3,1033.22 1789.06,1031.81 1788.5,1036.18 
  1787.94,1040.1 1787.38,1036.29 1786.82,1061.01 1785.15,1060.21 1784.59,1065.04 1784.03,1054.55 1783.47,1066.17 1781.23,1060.77 1780.68,1066.49 1780.12,1061.01 
  1779.56,1050.9 1777.32,1043.58 1776.76,1043.47 1776.2,1039.47 1775.65,1029.71 1775.09,1023.72 1773.41,1027.41 1772.85,1028.74 1772.29,1028.84 1771.73,1042.36 
  1771.17,1062.77 1769.5,1062.81 1768.94,1066.17 1768.38,1081.52 1767.82,1079.07 1767.26,1073.26 1765.59,1074.63 1765.03,1070.6 1764.47,1059.33 1763.91,1060.54 
  1763.35,1064.55 1761.67,1063.86 1760.56,1060.01 1760,1067.64 1759.44,1063.86 1757.76,1048.53 1757.2,1063.6 1756.64,1073.89 1756.08,1062.3 1755.53,1081.48 
  1753.85,1078.42 1753.29,1078.42 1752.73,1074.55 1752.17,1080.33 1751.61,1072.62 1749.94,1082.29 1749.38,1081.48 1748.82,1040.04 1748.26,1055.55 1747.7,1056.9 
  1746.02,1056.17 1745.47,1045.81 1744.91,1034.3 1744.35,1031.59 1743.79,1017.29 1742.11,1013.67 1741.55,1009.97 1740.99,1009.44 1740.44,1015.97 1739.88,1012.29 
  1738.2,1008.13 1737.64,1013.33 1737.08,1012.12 1736.52,1021.27 1735.96,1017.59 1734.29,1013.14 1733.73,1009.4 1733.17,1015.53 1732.61,1035.33 1732.05,1026.79 
  1730.38,1027.64 1729.82,1030.2 1729.26,1017.27 1728.7,1015.94 1728.14,1013.08 1726.46,995.865 1725.9,985.015 1725.35,987.466 1724.79,978.435 1724.23,978.113 
  1722.55,985.518 1721.99,998.652 1721.43,999.31 1720.87,998.445 1720.32,1015.4 1718.64,1018.44 1718.08,1022.33 1717.52,1017.78 1716.96,1012.24 1714.73,1009.24 
  1714.17,1012.56 1713.61,1017.57 1713.05,1030.71 1712.49,1020.65 1710.81,1011.67 1710.26,1013.89 1709.7,1031.34 1709.14,1028.58 1708.58,1022.53 1706.9,1013.39 
  1706.34,1002.68 1705.78,1000.37 1705.23,997.529 1704.67,998.265 1702.99,1008.15 1702.43,1002.17 1701.87,1002.95 1701.31,1007.42 1700.75,1007.66 1699.08,1021.01 
  1698.52,1023.16 1697.96,1057.21 1697.4,1051.97 1696.84,1035.85 1695.17,1034.05 1694.61,1022.3 1694.05,1029.58 1693.49,1023.59 1692.93,1042.63 1691.25,1043.64 
  1690.69,1046.94 1690.13,1045.23 1689.58,1059.07 1689.02,1048.7 1687.34,1051.73 1686.78,1042.8 1686.22,1042.43 1685.66,1061.01 1685.1,1065 1683.43,1064.23 
  1682.87,1059.38 1682.31,1020.75 1681.19,991.027 1679.52,999.452 1678.96,990.55 1678.4,995.62 1677.84,983.08 1677.28,969.804 1675.6,975.274 1675.04,981.028 
  1674.49,985.724 1673.93,982.731 1673.37,984.886 1671.69,981.041 1671.13,988.111 1670.57,977.029 1670.01,994.407 1669.46,1006.83 1667.78,985.634 1667.22,999.4 
  1666.66,1008.96 1666.1,1023.98 1665.54,1031.98 1663.87,1030.34 1663.31,1024.88 1662.75,1033.02 1662.19,1048.1 1659.95,1059.35 1659.4,1067.43 1658.84,1073.25 
  1658.28,1068.15 1657.72,1065.13 1656.04,1061.65 1655.48,1072.62 1654.92,1063.08 1654.37,1058.95 1653.81,1057.93 1652.13,1048.77 1651.57,1051.46 1651.01,1053.83 
  1650.45,1069.55 1649.89,1067.59 1648.22,1084.23 1647.66,1072.05 1647.1,1058.85 1646.54,1050.68 1645.98,1062.45 1644.31,1068.97 1643.75,1066.57 1643.19,1065.69 
  1642.63,1071.33 1642.07,1069.75 1640.39,1079.07 1639.83,1073.25 1639.28,1078.47 1638.72,1082.04 1638.16,1078.16 1635.92,1085.91 1635.36,1073.47 1634.8,1064.39 
  1634.25,1069.84 1632.57,1084.87 1632.01,1085.67 1631.45,1079.02 1630.89,1085.66 1630.33,1098.55 1628.66,1109.09 1628.1,1109.98 1627.54,1109.59 1626.98,1111.3 
  1626.42,1132.48 1624.74,1138.8 1624.19,1139.2 1623.63,1144.14 1623.07,1129.6 1622.51,1132.48 1620.83,1128.09 1620.27,1130.16 1619.71,1137.12 1619.16,1151.17 
  1618.6,1152.84 1616.92,1151.05 1616.36,1149.21 1615.8,1150.03 1615.24,1143.68 1614.68,1148.85 1613.01,1145.2 1612.45,1146.53 1611.89,1140.76 1611.33,1153.65 
  1610.77,1148.52 1609.1,1142.72 1608.54,1128.09 1607.98,1107.05 1607.42,1113.32 1605.18,1125.77 1604.62,1110.55 1604.07,1107.45 1603.51,1108.7 1602.95,1119.4 
  1601.27,1120.62 1600.71,1125.19 1600.15,1136.67 1599.59,1135.59 1599.04,1144.87 1597.36,1143.69 1596.8,1148.3 1596.24,1142.22 1595.68,1147.14 1595.12,1142.89 
  1593.45,1144.38 1592.89,1140.62 1592.33,1136.72 1591.77,1146.16 1591.21,1151.51 1589.53,1152.01 1588.97,1149.7 1588.42,1163.38 1587.86,1163.32 1585.62,1171.96 
  1585.06,1173.17 1584.5,1173.16 1583.94,1169.38 1583.39,1173.29 1581.71,1175.92 1581.15,1176.58 1580.59,1191.63 1580.03,1191.49 1577.8,1189.63 1577.24,1186.72 
  1576.68,1182.89 1576.12,1191.47 1573.88,1200.34 1573.33,1200.06 1572.77,1199.76 1572.21,1206.73 1571.65,1207.45 1569.97,1213.14 1569.41,1212.72 1568.85,1212.29 
  1568.3,1219.46 1567.74,1219.95 1566.06,1222.44 1565.5,1220.92 1564.94,1228.53 1564.38,1229.35 1563.82,1233.23 1562.15,1232.75 1561.59,1225.82 1561.03,1222.28 
  1560.47,1216.39 1559.91,1216.5 1558.24,1218.87 1557.12,1222.78 1556.56,1228.93 1556,1229.96 1554.32,1222.73 1553.76,1231.96 1553.21,1233.05 1552.65,1232.88 
  1552.09,1226.15 1550.41,1231 1549.85,1222.21 1549.29,1227.6 1548.73,1218.68 1548.18,1218.93 1546.5,1224.86 1545.94,1224.86 1545.38,1223.5 1544.82,1213.19 
  1544.26,1207.45 1542.59,1205.5 1542.03,1196.03 1541.47,1209.37 1540.91,1206.92 1540.35,1209.37 1538.67,1212.47 1538.12,1207.93 1537.56,1211 1537,1215.84 
  1536.44,1214.47 1534.76,1209.81 1534.2,1210.02 1533.64,1209.44 1533.09,1208.28 1532.53,1208.92 1530.85,1209.37 1530.29,1207.49 1529.73,1194.87 1529.17,1193.76 
  1528.61,1194.8 1526.94,1207.81 1526.38,1203.44 1525.82,1200.97 1525.26,1198.21 1524.7,1202.28 1523.03,1202.94 1522.47,1202.41 1521.91,1202.45 1521.35,1201.83 
  1520.79,1201.63 1519.11,1210.12 1518.55,1215.19 1518,1216.15 1517.44,1214.46 1516.88,1217.11 1515.2,1211.84 1514.64,1211.24 1514.08,1203.57 1513.52,1211.93 
  1511.29,1207.66 1510.73,1199.04 1510.17,1197.21 1509.61,1189.88 1509.05,1184.67 1507.38,1182.1 1506.82,1180.85 1506.26,1175.77 1505.7,1179.29 1505.14,1179.48 
  1503.46,1180.29 1502.91,1179.93 1502.35,1179.27 1501.79,1177.78 1501.23,1177.09 1499.55,1177.88 1498.99,1176.9 1498.43,1174.23 1497.87,1176.06 1497.32,1174.54 
  1495.64,1171.96 1495.08,1177.52 1494.52,1175.35 1493.96,1172.77 1493.4,1164.86 1491.73,1171.06 1491.17,1174.6 1490.61,1172.81 1490.05,1174.94 1489.49,1181.93 
  1487.81,1182.29 1487.26,1177.12 1486.7,1176.51 1486.14,1178.41 1485.58,1185.33 1483.9,1181.61 1483.34,1180.84 1482.78,1177.76 1482.23,1179.57 1481.67,1184.91 
  1479.99,1187.7 1479.43,1193.76 1478.87,1197.76 1478.31,1198.11 1476.08,1202.74 1475.52,1193.93 1474.96,1204.05 1474.4,1208.23 1473.84,1222.46 1472.17,1223.5 
  1471.61,1216.22 1471.05,1211.35 1470.49,1183.98 1469.93,1185.51 1468.25,1187.69 1467.69,1188.19 1467.14,1188.8 1466.58,1186.31 1466.02,1185.51 1464.34,1175.33 
  1463.78,1165.53 1463.22,1167.06 1462.66,1181.97 1462.11,1187.44 1460.43,1184.86 1459.87,1185.39 1459.31,1182.95 1458.75,1180.94 1456.52,1178.42 1455.96,1184.22 
  1455.4,1187.56 1454.84,1189.25 1454.28,1185.03 1452.6,1188.74 1452.05,1193.09 1451.49,1198.86 1450.93,1198.99 1450.37,1200.15 1448.69,1200.63 1448.13,1195.9 
  1447.57,1200.87 1447.02,1200.92 1446.46,1190.38 1444.78,1196.64 1444.22,1173.95 1443.66,1171.59 1443.1,1162.46 1442.54,1157.12 1440.87,1148.56 1440.31,1146.35 
  1439.75,1142.61 1439.19,1143.51 1438.63,1142.27 1436.96,1147.59 1436.4,1147.46 1435.84,1150.98 1435.28,1142.13 1434.72,1143.28 1433.04,1144.47 1432.48,1142.29 
  1431.93,1148.08 1431.37,1146.8 1430.81,1144.87 1429.13,1132.61 1428.57,1124.93 1428.01,1141.03 1427.45,1158.41 1426.9,1147.29 1425.22,1152.83 1424.66,1172.81 
  1424.1,1165.39 1423.54,1172.1 1422.98,1169.88 1420.75,1190.31 1420.19,1168.9 1419.63,1162.66 1419.07,1165.07 1417.39,1173.12 1416.84,1182.96 1416.28,1187.44 
  1415.72,1192.25 1415.16,1194.34 1413.48,1200.43 1412.92,1197.76 1412.36,1204.83 1411.81,1206.15 1411.25,1213.66 1409.57,1213.24 1409.01,1225.78 1408.45,1231.65 
  1407.89,1218.08 1407.33,1220.47 1405.66,1225.24 1405.1,1238.21 1404.54,1245.82 1403.98,1241.42 1403.42,1249.21 1401.74,1257.55 1401.19,1246.25 1400.63,1263.56 
  1400.07,1263.95 1397.83,1268.72 1397.27,1272.59 1396.71,1274.53 1396.16,1285.08 1395.6,1266.01 1393.92,1247.69 1393.36,1248.47 1392.8,1231.84 1392.24,1220.44 
  1391.68,1225.17 1390.01,1223.63 1389.45,1222.55 1388.89,1220.5 1388.33,1214.92 1387.77,1210.59 1386.1,1204.47 1385.54,1208.66 1384.98,1211.44 1384.42,1199.43 
  1382.18,1211.99 1381.62,1207.81 1381.07,1195.17 1380.51,1195.7 1379.95,1192.59 1378.27,1187.62 1377.71,1192.36 1377.15,1184.86 1376.59,1176.66 1376.04,1171.03 
  1373.8,1160.98 1373.24,1163.44 1372.68,1171.88 1372.12,1170.04 1369.89,1171.24 1369.33,1169.15 1368.77,1165.52 1368.21,1169.78 1366.53,1168.23 1365.98,1166.88 
  1365.42,1182.15 1364.86,1182.51 1364.3,1188.07 1362.62,1178.1 1362.06,1178.78 1361.5,1176.22 1360.95,1175.16 1360.39,1174.93 1358.71,1168.79 1358.15,1164.89 
  1357.59,1162.93 1357.03,1170.59 1356.47,1169.65 1354.8,1170.59 1353.68,1183.13 1353.12,1190.83 1352.56,1188.28 1350.89,1180.36 1350.33,1184.16 1349.77,1191.96 
  1349.21,1191.05 1348.65,1202.81 1346.97,1193.96 1346.41,1187.63 1345.86,1187.74 1345.3,1180.37 1344.74,1168.1 1343.06,1171.06 1342.5,1171.21 1341.94,1175.83 
  1341.38,1192.8 1340.83,1199.16 1339.15,1197.25 1338.59,1195.5 1338.03,1196.07 1337.47,1191.52 1336.91,1195.98 1335.24,1191.31 1334.68,1195.75 1334.12,1195.2 
  1333.56,1174.9 1333,1176.47 1331.32,1180.94 1330.77,1189.47 1330.21,1184 1329.65,1193.53 1329.09,1181 1327.41,1183.66 1326.85,1171.86 1326.29,1163.41 
  1325.74,1159.06 1325.18,1147.65 1323.5,1164.73 1322.94,1149.37 1322.38,1143.58 1321.82,1145.56 1321.26,1136.67 1319.59,1124.73 1319.03,1133.86 1318.47,1130.74 
  1317.91,1134.51 1317.35,1128.12 1315.68,1135.89 1315.12,1128.15 1314.56,1142.23 1314,1142.61 1313.44,1144.74 1311.76,1149.2 1311.2,1149.73 1310.64,1143.51 
  1310.09,1152.54 1307.85,1157.91 1307.29,1143.5 1306.73,1152.43 1306.17,1158.62 1305.61,1151.61 1303.94,1156.66 1303.38,1170.67 1302.82,1174.63 1302.26,1171.29 
  1301.7,1207.06 1300.03,1164.22 1299.47,1143.5 1298.91,1132.83 1298.35,1139.21 1297.79,1138.98 1296.11,1149.72 1295.55,1159.24 1295,1165.51 1294.44,1162.73 
  1293.88,1161.44 1292.2,1154.44 1291.64,1146.75 1291.08,1128.64 1290.52,1133.24 1289.97,1125.14 1288.29,1123.45 1287.73,1129.78 1287.17,1127.75 1286.61,1138.74 
  1286.05,1130.12 1284.38,1123.73 1283.82,1120.8 1283.26,1131.62 1282.7,1120.29 1282.14,1113.9 1280.46,1117.13 1279.91,1127.81 1279.35,1124.56 1278.79,1130.55 
  1278.23,1130.35 1276.55,1130.39 1275.99,1134.44 1275.43,1134.13 1274.88,1113.9 1274.32,1108.9 1272.08,1107.2 1271.52,1118.92 1270.96,1127.06 1270.4,1130.74 
  1268.73,1121.78 1268.17,1124.93 1267.61,1124.25 1267.05,1132.84 1266.49,1130.48 1264.82,1130.16 1264.26,1130.67 1263.7,1143.36 1263.14,1145.99 1262.58,1146.54 
  1260.9,1145.89 1260.34,1141.95 1259.79,1143.7 1259.23,1139.19 1258.67,1145.06 1256.99,1151.32 1256.43,1149.38 1255.87,1148.48 1255.31,1147.55 1254.76,1144.34 
  1253.08,1144.87 1252.52,1149.99 1251.96,1148.08 1251.4,1149.15 1249.17,1152.12 1248.61,1155.15 1248.05,1149.86 1247.49,1148.18 1246.93,1150.03 1245.25,1153.99 
  1244.7,1152.84 1244.14,1149.24 1243.58,1158.92 1243.02,1163.84 1241.34,1164.23 1240.78,1183.57 1240.22,1166.67 1239.67,1161.95 1239.11,1174.31 1237.43,1172.04 
  1236.87,1171.46 1236.31,1171.89 1235.75,1165.83 1235.19,1181.56 1233.52,1184.22 1232.96,1187.09 1232.4,1194.54 1231.84,1203.18 1231.28,1201.92 1229.61,1204.23 
  1229.05,1200.73 1228.49,1201.04 1227.93,1199.61 1227.37,1197.2 1225.69,1197.96 1225.13,1199.79 1224.58,1200.08 1224.02,1207.43 1223.46,1213.24 1221.22,1223.27 
  1220.66,1225.24 1220.1,1219.01 1219.54,1228.92 1217.87,1224.77 1217.31,1218.51 1216.75,1212.9 1216.19,1208.63 1215.63,1212.6 1213.96,1213.95 1213.4,1208.08 
  1212.84,1217.17 1212.28,1216.56 1211.72,1220.99 1210.04,1224.92 1209.48,1218.73 1208.93,1222.08 1208.37,1225.55 1207.81,1217.9 1206.13,1211.68 1205.57,1206.99 
  1205.01,1211.63 1204.45,1214.78 1203.9,1207.18 1202.22,1201.76 1201.66,1205.5 1201.1,1204.29 1200.54,1201.26 1199.98,1190.46 1198.31,1196.76 1197.75,1204.21 
  1197.19,1205.28 1196.63,1203.31 1194.39,1206.92 1193.84,1218.96 1193.28,1194.91 1192.72,1188.02 1192.16,1190.82 1190.48,1182.28 1189.92,1185.02 1189.36,1187.07 
  1188.81,1193.61 1188.25,1205.54 1186.57,1205.56 1186.01,1209.28 1185.45,1202.78 1184.89,1204.96 1184.33,1208.3 1182.66,1210.29 1182.1,1214.53 1181.54,1224.15 
  1180.98,1218.57 1178.75,1222.66 1178.19,1217.77 1177.63,1228.95 1177.07,1206.38 1176.51,1206.73 1174.83,1199.16 1174.27,1194.14 1173.72,1193.44 1173.16,1197.69 
  1172.6,1191.89 1170.92,1181.16 1169.8,1180.87 1169.24,1179.71 1168.69,1175.96 1167.01,1182.91 1165.89,1185.16 1165.33,1179.95 1164.77,1184.86 1163.1,1184.62 
  1162.54,1194.69 1161.98,1219.62 1161.42,1209.52 1160.86,1198.68 1159.18,1204.45 1158.63,1197.08 1158.07,1192.43 1157.51,1198.61 1156.95,1182.87 1155.27,1173.68 
  1154.71,1173.77 1154.15,1176.8 1153.6,1166.06 1153.04,1157.56 1151.36,1152.16 1150.24,1148.3 1149.68,1149.57 1149.12,1152.35 1147.45,1143.3 1146.89,1148.8 
  1146.33,1145.37 1145.77,1138.6 1145.21,1136.49 1143.54,1146.16 1142.98,1145.36 1142.42,1146.52 1141.86,1155.77 1141.3,1160.21 1139.62,1156.23 1139.06,1166.17 
  1138.51,1157.77 1137.95,1158.43 1137.39,1155.19 1135.71,1155.82 1135.15,1161.46 1134.59,1157.6 1134.03,1172.48 1133.48,1166.48 1131.8,1163.87 1131.24,1165.95 
  1130.68,1167.84 1130.12,1166.45 1129.56,1176.19 1127.89,1167.6 1127.33,1185.22 1126.77,1184.86 1126.21,1174.22 1125.65,1160.9 1123.97,1153.07 1123.41,1130.35 
  1122.86,1133.13 1122.3,1135.15 1121.74,1134.38 1120.06,1142.21 1119.5,1145.9 1118.94,1156.22 1118.38,1150.13 1117.83,1153.9 1116.15,1148.41 1115.59,1142.9 
  1115.03,1144.71 1114.47,1152.32 1113.91,1139.71 1112.24,1135.85 1111.68,1128.92 1111.12,1130.15 1110.56,1139.51 1110,1114.71 1108.32,1106.81 1107.77,1106.86 
  1107.21,1108.1 1106.65,1103.59 1106.09,1110.52 1104.41,1104.16 1103.85,1102.28 1103.29,1097.56 1102.74,1113.26 1100.5,1122.03 1099.94,1130.82 1099.38,1128.74 
  1098.82,1126.83 1098.26,1135.59 1096.59,1140.3 1096.03,1137.74 1095.47,1140.13 1094.91,1134.71 1094.35,1129.06 1092.68,1131.34 1092.12,1130.04 1091.56,1130.66 
  1091,1135.73 1090.44,1139.09 1088.76,1144.66 1088.2,1146 1087.65,1160.48 1087.09,1162.32 1086.53,1166.31 1084.85,1177 1084.29,1172.91 1083.73,1182.38 
  1083.17,1176.33 1082.62,1179.38 1080.94,1181.35 1080.38,1180.67 1079.82,1184.85 1079.26,1182.04 1078.7,1188.41 1077.03,1190.09 1076.47,1189.82 1075.91,1182.51 
  1075.35,1176.18 1074.79,1184.87 1073.11,1184.07 1072.56,1188.5 1072,1183.22 1071.44,1186.6 1070.88,1175.18 1068.64,1170.29 1068.08,1158.21 1067.53,1155.88 
  1066.97,1159.64 1065.29,1165.91 1064.73,1162.71 1064.17,1168.02 1063.61,1160.39 1063.05,1172.59 1061.38,1173.87 1060.82,1173.4 1060.26,1170.02 1059.7,1179.56 
  1059.14,1201.94 1057.47,1204.5 1056.91,1204.08 1056.35,1208.73 1055.79,1204.95 1055.23,1200.41 1053.55,1198.08 1052.99,1204.9 1052.44,1205.05 1051.88,1206.16 
  1051.32,1201.21 1049.64,1197.38 1049.08,1197.03 1048.52,1197.74 1047.96,1199.67 1045.73,1204.82 1045.17,1210.21 1044.61,1215.59 1044.05,1214.61 1043.49,1222.64 
  1041.82,1224.92 1041.26,1223.59 1040.7,1224.92 1040.14,1231.62 1039.58,1231.47 1037.9,1236.65 1037.35,1233.89 1036.79,1198.23 1036.23,1189.25 1035.67,1198.43 
  1033.99,1199.57 1033.43,1201.53 1032.87,1206.02 1032.32,1212.97 1031.76,1210.66 1030.08,1208.08 1029.52,1196.72 1028.96,1189.6 1028.4,1202.46 1027.84,1214.43 
  1025.61,1211.17 1025.05,1214.53 1024.49,1211.84 1023.93,1200.86 1022.25,1209.88 1021.7,1188.96 1021.14,1189.04 1020.58,1197.7 1020.02,1203.17 1018.34,1177.11 
  1017.78,1171.57 1017.22,1184.86 1016.67,1199.03 1016.11,1189.38 1014.43,1194.15 1013.87,1194.7 1013.31,1182.35 1012.75,1179.52 1012.19,1172.28 1010.52,1164.19 
  1009.96,1164.01 1009.4,1157.26 1008.84,1162.99 1008.28,1165.57 1006.61,1165.13 1006.05,1154.17 1005.49,1170.02 1004.93,1163.57 1004.37,1155.57 1002.69,1142.36 
  1002.13,1140.81 1001.58,1137.49 1001.02,1135.22 1000.46,1162.59 998.781,1146.61 998.222,1131.64 997.663,1135.09 997.105,1171.96 996.546,1199.36 994.869,1195.65 
  994.31,1191.3 993.751,1205.89 993.192,1203.9 990.957,1213.12 990.398,1219.26 989.839,1216.11 989.28,1211.71 988.721,1224.42 987.044,1235.16 986.486,1241.24 
  985.927,1238.66 985.368,1235.56 984.809,1232.74 983.132,1237.95 982.573,1239.05 982.014,1242.53 981.456,1247.43 980.897,1242.71 979.22,1239.24 978.661,1240.04 
  978.102,1239.29 977.543,1247.77 975.308,1249.12 974.749,1259.05 974.19,1251.37 973.631,1287.43 973.072,1280.62 971.395,1277.16 970.836,1271.95 970.278,1276.66 
  969.719,1278.24 969.16,1275.17 967.483,1275.17 966.924,1275.43 965.806,1272.18 965.248,1273.73 963.571,1268.33 963.012,1268.67 961.894,1275.17 961.335,1281.82 
  959.659,1286.04 959.1,1279.17 958.541,1272.28 957.982,1278.29 957.423,1277.13 955.746,1277.69 955.187,1288.46 954.629,1285.65 954.07,1288.01 953.511,1291.94 
  951.834,1286.13 951.275,1287.88 950.716,1282.5 950.157,1297.52 949.598,1305.68 947.922,1301.27 946.804,1311.81 946.245,1314.68 945.686,1308.07 944.01,1311.84 
  943.451,1310.15 942.892,1306.03 942.333,1314.61 941.774,1294.18 940.097,1292.14 939.538,1289.47 938.979,1286.99 938.421,1282.02 937.862,1286.78 936.185,1292.62 
  935.626,1282.67 935.067,1268.97 934.508,1236.47 933.949,1255.82 932.273,1258.4 931.714,1267.86 931.155,1256.3 930.596,1258.71 930.037,1249.14 928.36,1243.94 
  927.802,1255.82 927.243,1250.78 926.684,1248.72 926.125,1232.24 924.448,1231.11 923.889,1231.9 923.33,1230.15 922.771,1229.66 922.213,1242.92 920.536,1245.82 
  919.977,1245.38 919.418,1243.27 918.859,1230.79 918.3,1233.29 916.624,1241.11 916.065,1242.86 915.506,1225.38 914.947,1218.46 914.388,1224.86 912.711,1226.77 
  912.152,1227.82 911.594,1231.87 911.035,1237.58 910.476,1230.69 908.799,1237.89 908.24,1248.34 907.681,1253.15 907.122,1255.72 906.564,1251.95 904.887,1258.7 
  904.328,1257.11 903.769,1254 903.21,1260.4 902.651,1258.25 900.975,1251.21 900.416,1249.24 899.857,1249.67 899.298,1244.98 897.062,1254.05 896.503,1256.83 
  895.944,1250.58 895.386,1259.3 894.827,1255.63 893.15,1266.14 892.591,1276.18 892.032,1275.17 891.473,1276.91 890.914,1283.65 889.238,1285.97 888.679,1292.68 
  888.12,1284.56 887.561,1275.82 887.002,1275.91 885.325,1272.08 884.767,1269.55 884.208,1285.64 883.649,1281.95 883.09,1288.06 881.413,1295.05 880.854,1294.52 
  880.295,1297.66 879.737,1294.78 879.178,1301.85 877.501,1303.38 876.942,1313.36 876.383,1308.11 875.824,1308.72 875.265,1314.02 873.589,1315.81 873.03,1312.63 
  872.471,1331.27 871.912,1305.77 871.353,1297.07 869.676,1306.78 869.118,1307.58 868.559,1309.76 868,1307.89 867.441,1312.11 865.764,1316.04 864.646,1316.46 
  864.087,1316.13 863.529,1327.6 861.852,1328.62 861.293,1330.97 860.734,1334.78 860.175,1335.68 859.616,1344.2 857.94,1334.91 857.381,1333.68 856.822,1337.02 
  856.263,1337.42 855.704,1335.04 854.027,1339.68 853.468,1340.97 852.91,1343.81 852.351,1342.03 851.792,1341.06 850.115,1342.26 849.556,1345.81 848.997,1347.86 
  848.438,1349.03 847.879,1342.75 846.203,1331.6 845.644,1336.51 845.085,1322.2 844.526,1337.68 842.291,1349.23 841.732,1359.28 841.173,1357.27 840.614,1354.52 
  840.055,1351.14 838.378,1349.36 837.819,1346.52 837.26,1363.16 836.702,1347.14 836.143,1364.21 834.466,1378.84 833.907,1378.23 833.348,1394.51 832.789,1388.71 
  832.23,1395.94 830.554,1395.84 829.995,1399.22 829.436,1396.46 828.877,1396.45 828.318,1401.92 826.641,1400.15 826.083,1403.54 825.524,1403.03 824.965,1402.9 
  824.406,1405.99 822.729,1407.47 822.17,1409.37 821.611,1409.99 821.053,1411.68 820.494,1412.57 818.817,1412.9 818.258,1414.43 817.699,1416.19 817.14,1414.77 
  816.581,1414.55 814.905,1414.51 814.346,1415.66 813.787,1413.09 813.228,1412.45 812.669,1414.05 810.433,1419.37 809.875,1419.75 809.316,1419.7 808.757,1420.83 
  807.08,1421.99 806.521,1422.31 805.962,1423.21 805.403,1423.22 804.845,1423.15 803.168,1421.42 802.609,1418.51 802.05,1418.38 801.491,1418.51 800.932,1418.55 
  799.256,1419.59 798.697,1420.02 798.138,1420.95 797.579,1422.25 797.02,1423.84 795.343,1423.54 794.784,1422.39 794.226,1424.3 793.667,1424.24 793.108,1422.06 
  791.431,1422.61 790.872,1421.62 790.313,1417.99 789.754,1420.5 787.519,1419.03 786.96,1418.84 786.401,1419.28 785.842,1419.09 785.283,1419.7 783.607,1417.8 
  783.048,1418.13 782.489,1419.44 781.93,1419.67 781.371,1419.15 779.694,1419.45 779.135,1419.84 778.576,1419.86 778.018,1419.54 777.459,1421.14 775.782,1420.96 
  775.223,1422.25 774.664,1423.51 774.105,1424.11 771.87,1423.88 771.311,1424.62 770.752,1425.02 770.193,1425.98 769.634,1426.02 767.957,1424.78 767.399,1425 
  766.84,1424.82 766.281,1424.19 765.722,1423.8 764.045,1423.8 763.486,1423.31 762.927,1423.54 761.81,1426.12 760.133,1425.63 759.574,1425.48 759.015,1424.88 
  757.897,1425.3 756.221,1424.91 755.662,1424.17 755.103,1423.86 754.544,1424.5 753.985,1425.13 752.308,1425.35 751.749,1423.21 751.191,1423.27 750.632,1424.06 
  750.073,1424.28 748.396,1424.44 747.837,1425.06 747.278,1425.06 746.719,1424.73 746.161,1424.97 744.484,1425.31 743.925,1425.55 743.366,1427.41 742.807,1427.24 
  742.248,1427.28 740.572,1426.64 739.454,1426.62 738.895,1426.38 738.336,1427.32 736.659,1428.51 736.1,1428.31 735.541,1427.46 734.983,1428.33 734.424,1429.62 
  732.747,1429.22 732.188,1428.69 731.629,1428.7 731.07,1429.2 730.511,1430.25 728.835,1430.93 728.276,1432.25 727.717,1432.96 724.922,1433.18 724.364,1432.83 
  723.805,1431.9 723.246,1433.37 722.687,1432.58 721.01,1432.79 720.451,1431.29 719.892,1432.25 719.334,1433 718.775,1432.57 717.098,1432.16 716.539,1431.33 
  715.98,1432.07 715.421,1431.13 714.862,1431.46 713.186,1430.38 712.627,1429.99 712.068,1430.31 711.509,1430.92 710.95,1430.64 709.273,1431.63 708.715,1432.89 
  708.156,1433 707.597,1431.77 707.038,1430.62 705.361,1428.57 704.802,1428.79 704.243,1428.7 703.684,1427.57 703.126,1426.96 701.449,1429.99 700.89,1431.84 
  700.331,1432.7 699.772,1432.88 699.213,1431.02 697.537,1431.86 696.978,1432.57 696.419,1432.56 695.86,1431.9 693.624,1431.78 693.065,1431.8 692.507,1431.94 
  691.948,1432.06 691.389,1430.55 689.712,1429.91 689.153,1429.99 688.594,1431.27 688.035,1430.53 687.476,1429.8 685.8,1429.62 685.241,1430.6 684.682,1430.78 
  684.123,1429.02 683.564,1430.39 681.888,1430.88 681.329,1430.61 680.77,1430.12 680.211,1431.58 679.652,1433.15 677.975,1433.99 677.416,1434.07 676.857,1432.58 
  676.299,1433.17 675.74,1430.62 674.063,1431.66 673.504,1430.12 672.945,1430.09 672.386,1429.14 671.827,1428.64 670.151,1427.32 669.592,1426.48 669.033,1428.16 
  668.474,1423.54 667.915,1424.42 666.238,1426.16 665.68,1428.33 665.121,1427.97 664.562,1428 664.003,1428.78 662.326,1428.71 661.767,1428.95 660.649,1429.22 
  660.091,1428.25 658.414,1426.38 657.855,1427.54 657.296,1427.54 656.737,1427.35 656.178,1424.91 654.502,1426.64 653.943,1424.5 653.384,1425.48 652.825,1427.39 
  652.266,1430.07 650.589,1430.78 650.03,1429.76 649.472,1430.57 648.913,1430.98 648.354,1429.59 646.677,1431.46 646.118,1430.24 645.559,1432.31 645,1432.78 
  644.442,1432.53 642.765,1431.89 642.206,1429.9 641.647,1428.6 641.088,1429.98 638.853,1429.79 638.294,1428.38 637.735,1429.27 637.176,1429.86 636.617,1433.11 
  634.94,1432.09 634.381,1430.89 633.823,1430.53 633.264,1429.66 632.705,1427.51 631.028,1426.78 630.469,1426.16 629.91,1429.6 629.351,1426.77 628.792,1427.46 
  627.116,1427.15 626.557,1424.95 625.998,1425.48 625.439,1425.95 624.88,1425.77 623.203,1425.35 622.645,1426.17 622.086,1427.32 621.527,1427.64 620.968,1426.3 
  619.291,1425.94 618.732,1426.44 618.173,1427.3 617.615,1426.86 617.056,1425.59 615.379,1424.91 614.82,1425.13 614.261,1425.81 613.702,1425.93 613.143,1424.7 
  610.908,1423.41 610.349,1423.19 609.79,1421.35 609.231,1420.53 607.554,1420.29 606.996,1419.43 606.437,1419.95 605.878,1420.75 605.319,1422.78 603.642,1424.5 
  603.083,1423.58 602.524,1423.62 601.965,1423.57 601.407,1423.21 599.73,1423.67 599.171,1423.18 598.612,1422.25 598.053,1421.59 597.494,1423.94 595.818,1425.86 
  595.259,1425.98 594.7,1425.97 594.141,1425.8 593.582,1424.38 591.905,1424.31 591.346,1425.46 590.788,1425.08 590.229,1425.3 589.67,1425.59 587.993,1424.53 
  587.434,1425.01 586.875,1424.19 586.316,1423.71 584.081,1424.84 583.522,1425.48 582.963,1425.99 582.404,1427.75 581.845,1427.99 580.169,1427.08 579.61,1427.41 
  579.051,1427.93 578.492,1427.67 577.933,1428.57 576.256,1429.46 575.697,1430.35 575.138,1431.19 574.58,1430.12 574.021,1430.65 572.344,1431.93 571.785,1432.48 
  571.226,1433.51 570.667,1434.34 570.108,1434.11 568.432,1433.99 567.873,1433.62 567.314,1434.26 566.755,1434.35 564.519,1432.06 563.961,1431.95 563.402,1433.06 
  562.843,1433.29 562.284,1433.86 560.607,1433.6 560.048,1432.88 559.489,1432.3 558.931,1431.36 556.695,1431.94 556.136,1431.81 555.577,1431.29 555.018,1433.01 
  552.783,1432.57 552.224,1433.09 551.665,1432.69 551.106,1432.51 550.547,1432.46 548.87,1431.55 548.312,1431.71 547.753,1430.64 547.194,1429.26 546.635,1429.42 
  544.958,1429.29 544.399,1428.91 543.84,1424.02 543.281,1424.57 542.723,1425.44 541.046,1426.34 540.487,1426.68 539.928,1426.77 539.369,1426.78 538.81,1427.41 
  537.134,1427.99 536.016,1427.72 535.457,1427.72 534.898,1426.84 533.221,1425.3 532.662,1424.19 532.104,1425.5 531.545,1426.22 530.986,1426.12 529.309,1427.54 
  528.75,1428.78 528.191,1428.87 527.632,1428.22 527.073,1427.88 525.397,1428.11 524.838,1429.99 524.279,1431.28 523.72,1432.07 523.161,1430.64 521.485,1431.93 
  520.926,1432.13 520.367,1432.33 519.808,1432.28 519.249,1432.74 517.572,1433.35 517.013,1433.29 516.454,1432.55 515.896,1433.47 515.337,1432.75 513.66,1432.57 
  513.101,1433.05 512.542,1433.54 511.983,1433.2 511.424,1433.46 509.748,1433.89 509.189,1435.96 508.63,1437.69 508.071,1438.65 507.512,1436.51 505.835,1436.7 
  505.277,1435.51 504.718,1435.15 504.159,1435.15 503.6,1434.48 501.923,1435.81 501.364,1435.62 500.805,1435.22 500.246,1435.18 499.688,1436.51 498.011,1436.73 
  497.452,1436.98 496.893,1437.41 496.334,1439.01 495.775,1439.36 494.099,1438.55 493.54,1438.27 492.981,1438.52 492.422,1439.67 490.186,1438.17 489.627,1436.88 
  489.069,1436.7 488.51,1437.09 487.951,1437.45 486.274,1439.4 485.715,1437.9 485.156,1438.89 484.597,1440.4 484.039,1438.88 482.362,1437.91 481.803,1436.44 
  481.244,1434.65 480.685,1434.98 480.126,1434.35 478.45,1435.67 477.891,1437.68 477.332,1435.87 476.773,1437.54 476.214,1438.89 474.537,1436.46 473.978,1434.49 
  473.42,1433.22 472.861,1431.68 472.302,1431.71 470.625,1432.83 470.066,1433.09 469.507,1431.93 468.948,1432.17 468.389,1431.27 466.713,1431.67 466.154,1431.4 
  465.595,1432.57 465.036,1433.11 464.477,1433.42 462.8,1432.84 462.242,1431.89 461.683,1432.02 461.124,1432.09 460.565,1432.06 458.888,1430.13 458.329,1431.1 
  457.77,1431.1 457.212,1431.26 454.976,1431.19 454.417,1431.93 453.858,1431.93 453.299,1432.84 452.74,1432.92 451.064,1433.04 450.505,1433.6 449.946,1433.38 
  449.387,1434.84 448.828,1434.78 447.151,1434.03 446.593,1433 446.034,1432 445.475,1431.88 444.916,1432.48 443.239,1433.19 442.68,1433.31 442.121,1432 
  441.562,1431.36 441.004,1431.15 439.327,1430.06 438.768,1431.9 438.209,1429.99 437.65,1430.39 435.415,1430.58 434.856,1431.51 434.297,1433.99 433.738,1433.84 
  433.179,1433.06 431.502,1432.24 430.943,1433.82 430.385,1435.02 429.826,1433.86 429.267,1432.58 427.59,1432.57 427.031,1433.77 426.472,1432.31 425.913,1432.26 
  425.354,1433.86 423.678,1433.99 423.119,1433.6 422.56,1434.15 422.001,1433.37 421.442,1433.09 419.766,1432.97 419.207,1433.77 418.648,1433.95 418.089,1434.3 
  417.53,1434.25 415.294,1435.35 414.735,1435.54 414.177,1436.11 413.618,1436.27 411.941,1435.6 411.382,1436.61 410.823,1436.27 410.264,1436.34 409.705,1434.55 
  408.029,1433.11 407.47,1434.06 406.911,1433.87 406.352,1435.28 405.793,1434.08 404.116,1433.28 403.558,1434.44 402.999,1437.59 402.44,1438.64 401.881,1439.41 
  400.204,1439.76 399.645,1440.13 399.086,1440.17 398.528,1439.37 397.969,1438.96 396.292,1438.78 395.733,1438.71 395.174,1439.2 394.615,1440.05 394.056,1437.96 
  392.38,1437.93 391.821,1437.16 391.262,1436.88 390.703,1436.96 390.144,1436.53 388.467,1437.11 387.908,1437.11 387.35,1437.96 386.791,1437.67 386.232,1438.07 
  384.555,1439.27 383.996,1440.6 383.437,1440.08 382.878,1439.18 380.643,1438.6 380.084,1436.92 379.525,1438.89 378.966,1439.01 378.407,1438.2 376.731,1438.7 
  376.172,1438.69 375.613,1437.56 375.054,1438.02 374.495,1438.69 372.818,1438.45 372.259,1437.96 371.701,1437.53 371.142,1437.33 370.583,1437.67 368.906,1436.6 
  368.347,1436.78 367.788,1436.82 367.229,1436.89 366.67,1438.34 364.994,1438.87 364.435,1437.69 363.876,1436.09 363.317,1435.82 361.082,1434.96 360.523,1433.91 
  359.964,1433.85 359.405,1431.81 358.846,1432.35 357.169,1432.57 356.61,1434.08 356.051,1434.53 355.493,1434.3 354.934,1434.07 353.257,1434.42 352.698,1432.96 
  352.139,1433.82 351.58,1435.35 351.021,1432.55 348.786,1428.37 348.227,1427.09 347.668,1427.67 347.109,1427.88 345.432,1428.26 344.874,1429.99 344.315,1431.71 
  343.756,1429.62 343.197,1427.88 341.52,1427.35 340.961,1426.75 340.402,1426.79 339.843,1429.36 339.285,1428.25 337.608,1427.4 337.049,1424.82 336.49,1422.42 
  335.931,1425.17 335.372,1423.01 333.696,1422.77 332.578,1423.19 332.019,1425.75 331.46,1427.97 329.783,1429.79 329.224,1429.13 328.666,1429.73 328.107,1428.7 
  327.548,1429.71 325.871,1432.25 325.312,1431.8 324.753,1437.11 324.194,1436.44 323.636,1437.09 321.959,1436.61 321.4,1439.54 320.841,1441.24 320.282,1440.73 
  319.723,1440.39 318.047,1441.42 317.488,1441.1 316.929,1441.28 316.37,1441.86 315.811,1441.68 314.134,1442.02 313.575,1442.11 313.016,1442.69 312.458,1442.64 
  311.899,1442.22 310.222,1441.74 309.663,1441.6 309.104,1442.07 308.545,1442.64 307.986,1442.33 306.31,1442.34 305.751,1442.16 305.192,1441.53 304.633,1441.41 
  304.074,1442.34 302.397,1442 301.839,1440.31 301.28,1441.36 300.721,1441.55 300.162,1442.38 298.485,1442.96 297.926,1443.03 297.367,1441.77 296.809,1441.74 
  296.25,1442.03 294.573,1441.58 294.014,1440.12 293.455,1441.63 292.896,1442.2 292.337,1441.74 290.661,1441.93 290.102,1441.6 289.543,1442.04 288.984,1442.11 
  286.748,1441.77 286.19,1442.42 285.631,1443.38 285.072,1443.33 284.513,1443.28 282.836,1443.22 282.277,1443.03 281.718,1443.98 281.159,1443.86 280.601,1444.07 
  278.924,1444.63 278.365,1444.78 277.806,1443.42 277.247,1444.23 276.688,1444.89 275.012,1445.24 274.453,1445.73 273.894,1444.58 273.335,1443.34 272.776,1443.02 
  271.099,1442.76 270.54,1440.91 269.982,1440.38 269.423,1441.6 268.864,1442.25 267.187,1442.64 266.628,1441.9 266.069,1442.18 265.51,1441.72 264.951,1440.96 
  263.275,1441.36 262.716,1442.25 262.157,1442.04 261.598,1440.51 261.039,1441.13 259.363,1441.99 258.804,1442.97 258.245,1445.55 257.686,1446.26 257.127,1445.54 
  255.45,1446.02 254.891,1447.87 254.332,1447.54 253.774,1442.89 251.538,1439.02 250.979,1436.44 250.42,1435.42 249.861,1444.18 
  "/>
<path clip-path="url(#clip200)" d="
M1928.6 327.952 L2280.76 327.952 L2280.76 206.992 L1928.6 206.992  Z
  " fill="#ffffff" fill-rule="evenodd" fill-opacity="1"/>
<polyline clip-path="url(#clip200)" style="stroke:#000000; stroke-width:4; stroke-opacity:1; fill:none" points="
  1928.6,327.952 2280.76,327.952 2280.76,206.992 1928.6,206.992 1928.6,327.952 
  "/>
<polyline clip-path="url(#clip200)" style="stroke:#009af9; stroke-width:4; stroke-opacity:1; fill:none" points="
  1952.6,267.472 2096.6,267.472 
  "/>
<path clip-path="url(#clip200)" d="M 0 0 M2136.62 253.363 Q2131.53 253.363 2128.52 257.16 Q2125.53 260.956 2125.53 267.507 Q2125.53 274.035 2128.52 277.831 Q2131.53 281.627 2136.62 281.627 Q2141.71 281.627 2144.68 277.831 Q2147.66 274.035 2147.66 267.507 Q2147.66 260.956 2144.68 257.16 Q2141.71 253.363 2136.62 253.363 M2136.62 249.567 Q2143.89 249.567 2148.24 254.451 Q2152.59 259.312 2152.59 267.507 Q2152.59 275.678 2148.24 280.562 Q2143.89 285.423 2136.62 285.423 Q2129.33 285.423 2124.96 280.562 Q2120.6 275.701 2120.6 267.507 Q2120.6 259.312 2124.96 254.451 Q2129.33 249.567 2136.62 249.567 Z" fill="#000000" fill-rule="evenodd" fill-opacity="1" /><path clip-path="url(#clip200)" d="M 0 0 M2161.18 280.863 L2161.18 294.613 L2156.9 294.613 L2156.9 258.826 L2161.18 258.826 L2161.18 262.762 Q2162.52 260.447 2164.56 259.336 Q2166.62 258.201 2169.47 258.201 Q2174.19 258.201 2177.13 261.951 Q2180.09 265.701 2180.09 271.812 Q2180.09 277.923 2177.13 281.673 Q2174.19 285.423 2169.47 285.423 Q2166.62 285.423 2164.56 284.312 Q2162.52 283.178 2161.18 280.863 M2175.67 271.812 Q2175.67 267.113 2173.73 264.451 Q2171.81 261.766 2168.43 261.766 Q2165.05 261.766 2163.1 264.451 Q2161.18 267.113 2161.18 271.812 Q2161.18 276.511 2163.1 279.197 Q2165.05 281.859 2168.43 281.859 Q2171.81 281.859 2173.73 279.197 Q2175.67 276.511 2175.67 271.812 Z" fill="#000000" fill-rule="evenodd" fill-opacity="1" /><path clip-path="url(#clip200)" d="M 0 0 M2206.74 270.724 L2206.74 272.808 L2187.15 272.808 Q2187.43 277.206 2189.79 279.521 Q2192.18 281.812 2196.41 281.812 Q2198.87 281.812 2201.16 281.21 Q2203.47 280.609 2205.74 279.405 L2205.74 283.433 Q2203.45 284.405 2201.04 284.914 Q2198.64 285.423 2196.16 285.423 Q2189.96 285.423 2186.32 281.812 Q2182.71 278.201 2182.71 272.044 Q2182.71 265.678 2186.14 261.951 Q2189.58 258.201 2195.42 258.201 Q2200.65 258.201 2203.68 261.581 Q2206.74 264.937 2206.74 270.724 M2202.48 269.474 Q2202.43 265.979 2200.51 263.896 Q2198.61 261.812 2195.46 261.812 Q2191.9 261.812 2189.75 263.826 Q2187.62 265.84 2187.29 269.498 L2202.48 269.474 Z" fill="#000000" fill-rule="evenodd" fill-opacity="1" /><path clip-path="url(#clip200)" d="M 0 0 M2232.76 269.104 L2232.76 284.752 L2228.5 284.752 L2228.5 269.243 Q2228.5 265.562 2227.06 263.734 Q2225.63 261.905 2222.76 261.905 Q2219.31 261.905 2217.32 264.104 Q2215.33 266.303 2215.33 270.099 L2215.33 284.752 L2211.04 284.752 L2211.04 258.826 L2215.33 258.826 L2215.33 262.854 Q2216.85 260.516 2218.91 259.359 Q2221 258.201 2223.71 258.201 Q2228.17 258.201 2230.46 260.979 Q2232.76 263.734 2232.76 269.104 Z" fill="#000000" fill-rule="evenodd" fill-opacity="1" /></svg>
