<?xml version="1.0" encoding="utf-8"?>
<svg xmlns="http://www.w3.org/2000/svg" xmlns:xlink="http://www.w3.org/1999/xlink" width="600" height="400" viewBox="0 0 2400 1600">
<defs>
  <clipPath id="clip810">
    <rect x="0" y="0" width="2400" height="1600"/>
  </clipPath>
</defs>
<path clip-path="url(#clip810)" d="
M0 1600 L2400 1600 L2400 0 L0 0  Z
  " fill="#ffffff" fill-rule="evenodd" fill-opacity="1"/>
<defs>
  <clipPath id="clip811">
    <rect x="480" y="0" width="1681" height="1600"/>
  </clipPath>
</defs>
<path clip-path="url(#clip810)" d="
M148.334 1486.45 L2352.76 1486.45 L2352.76 47.2441 L148.334 47.2441  Z
  " fill="#ffffff" fill-rule="evenodd" fill-opacity="1"/>
<defs>
  <clipPath id="clip812">
    <rect x="148" y="47" width="2205" height="1440"/>
  </clipPath>
</defs>
<polyline clip-path="url(#clip812)" style="stroke:#222255; stroke-width:2; stroke-opacity:0.1; fill:none" points="
  606.608,1486.45 606.608,47.2441 
  "/>
<polyline clip-path="url(#clip812)" style="stroke:#222255; stroke-width:2; stroke-opacity:0.1; fill:none" points="
  1114.49,1486.45 1114.49,47.2441 
  "/>
<polyline clip-path="url(#clip812)" style="stroke:#222255; stroke-width:2; stroke-opacity:0.1; fill:none" points="
  1622.38,1486.45 1622.38,47.2441 
  "/>
<polyline clip-path="url(#clip812)" style="stroke:#222255; stroke-width:2; stroke-opacity:0.1; fill:none" points="
  2130.26,1486.45 2130.26,47.2441 
  "/>
<polyline clip-path="url(#clip812)" style="stroke:#222255; stroke-width:2; stroke-opacity:0.05; fill:none" points="
  200.3,1486.45 200.3,47.2441 
  "/>
<polyline clip-path="url(#clip812)" style="stroke:#222255; stroke-width:2; stroke-opacity:0.05; fill:none" points="
  301.877,1486.45 301.877,47.2441 
  "/>
<polyline clip-path="url(#clip812)" style="stroke:#222255; stroke-width:2; stroke-opacity:0.05; fill:none" points="
  403.454,1486.45 403.454,47.2441 
  "/>
<polyline clip-path="url(#clip812)" style="stroke:#222255; stroke-width:2; stroke-opacity:0.05; fill:none" points="
  505.031,1486.45 505.031,47.2441 
  "/>
<polyline clip-path="url(#clip812)" style="stroke:#222255; stroke-width:2; stroke-opacity:0.05; fill:none" points="
  708.185,1486.45 708.185,47.2441 
  "/>
<polyline clip-path="url(#clip812)" style="stroke:#222255; stroke-width:2; stroke-opacity:0.05; fill:none" points="
  809.762,1486.45 809.762,47.2441 
  "/>
<polyline clip-path="url(#clip812)" style="stroke:#222255; stroke-width:2; stroke-opacity:0.05; fill:none" points="
  911.339,1486.45 911.339,47.2441 
  "/>
<polyline clip-path="url(#clip812)" style="stroke:#222255; stroke-width:2; stroke-opacity:0.05; fill:none" points="
  1012.92,1486.45 1012.92,47.2441 
  "/>
<polyline clip-path="url(#clip812)" style="stroke:#222255; stroke-width:2; stroke-opacity:0.05; fill:none" points="
  1216.07,1486.45 1216.07,47.2441 
  "/>
<polyline clip-path="url(#clip812)" style="stroke:#222255; stroke-width:2; stroke-opacity:0.05; fill:none" points="
  1317.65,1486.45 1317.65,47.2441 
  "/>
<polyline clip-path="url(#clip812)" style="stroke:#222255; stroke-width:2; stroke-opacity:0.05; fill:none" points="
  1419.22,1486.45 1419.22,47.2441 
  "/>
<polyline clip-path="url(#clip812)" style="stroke:#222255; stroke-width:2; stroke-opacity:0.05; fill:none" points="
  1520.8,1486.45 1520.8,47.2441 
  "/>
<polyline clip-path="url(#clip812)" style="stroke:#222255; stroke-width:2; stroke-opacity:0.05; fill:none" points="
  1723.95,1486.45 1723.95,47.2441 
  "/>
<polyline clip-path="url(#clip812)" style="stroke:#222255; stroke-width:2; stroke-opacity:0.05; fill:none" points="
  1825.53,1486.45 1825.53,47.2441 
  "/>
<polyline clip-path="url(#clip812)" style="stroke:#222255; stroke-width:2; stroke-opacity:0.05; fill:none" points="
  1927.11,1486.45 1927.11,47.2441 
  "/>
<polyline clip-path="url(#clip812)" style="stroke:#222255; stroke-width:2; stroke-opacity:0.05; fill:none" points="
  2028.68,1486.45 2028.68,47.2441 
  "/>
<polyline clip-path="url(#clip812)" style="stroke:#222255; stroke-width:2; stroke-opacity:0.05; fill:none" points="
  2231.84,1486.45 2231.84,47.2441 
  "/>
<polyline clip-path="url(#clip812)" style="stroke:#222255; stroke-width:2; stroke-opacity:0.05; fill:none" points="
  2333.42,1486.45 2333.42,47.2441 
  "/>
<polyline clip-path="url(#clip810)" style="stroke:#222255; stroke-width:4; stroke-opacity:0; fill:none" points="
  606.608,1486.45 606.608,1469.18 
  "/>
<polyline clip-path="url(#clip810)" style="stroke:#222255; stroke-width:4; stroke-opacity:0; fill:none" points="
  1114.49,1486.45 1114.49,1469.18 
  "/>
<polyline clip-path="url(#clip810)" style="stroke:#222255; stroke-width:4; stroke-opacity:0; fill:none" points="
  1622.38,1486.45 1622.38,1469.18 
  "/>
<polyline clip-path="url(#clip810)" style="stroke:#222255; stroke-width:4; stroke-opacity:0; fill:none" points="
  2130.26,1486.45 2130.26,1469.18 
  "/>
<polyline clip-path="url(#clip810)" style="stroke:#222255; stroke-width:4; stroke-opacity:0; fill:none" points="
  200.3,1486.45 200.3,1477.81 
  "/>
<polyline clip-path="url(#clip810)" style="stroke:#222255; stroke-width:4; stroke-opacity:0; fill:none" points="
  301.877,1486.45 301.877,1477.81 
  "/>
<polyline clip-path="url(#clip810)" style="stroke:#222255; stroke-width:4; stroke-opacity:0; fill:none" points="
  403.454,1486.45 403.454,1477.81 
  "/>
<polyline clip-path="url(#clip810)" style="stroke:#222255; stroke-width:4; stroke-opacity:0; fill:none" points="
  505.031,1486.45 505.031,1477.81 
  "/>
<polyline clip-path="url(#clip810)" style="stroke:#222255; stroke-width:4; stroke-opacity:0; fill:none" points="
  708.185,1486.45 708.185,1477.81 
  "/>
<polyline clip-path="url(#clip810)" style="stroke:#222255; stroke-width:4; stroke-opacity:0; fill:none" points="
  809.762,1486.45 809.762,1477.81 
  "/>
<polyline clip-path="url(#clip810)" style="stroke:#222255; stroke-width:4; stroke-opacity:0; fill:none" points="
  911.339,1486.45 911.339,1477.81 
  "/>
<polyline clip-path="url(#clip810)" style="stroke:#222255; stroke-width:4; stroke-opacity:0; fill:none" points="
  1012.92,1486.45 1012.92,1477.81 
  "/>
<polyline clip-path="url(#clip810)" style="stroke:#222255; stroke-width:4; stroke-opacity:0; fill:none" points="
  1216.07,1486.45 1216.07,1477.81 
  "/>
<polyline clip-path="url(#clip810)" style="stroke:#222255; stroke-width:4; stroke-opacity:0; fill:none" points="
  1317.65,1486.45 1317.65,1477.81 
  "/>
<polyline clip-path="url(#clip810)" style="stroke:#222255; stroke-width:4; stroke-opacity:0; fill:none" points="
  1419.22,1486.45 1419.22,1477.81 
  "/>
<polyline clip-path="url(#clip810)" style="stroke:#222255; stroke-width:4; stroke-opacity:0; fill:none" points="
  1520.8,1486.45 1520.8,1477.81 
  "/>
<polyline clip-path="url(#clip810)" style="stroke:#222255; stroke-width:4; stroke-opacity:0; fill:none" points="
  1723.95,1486.45 1723.95,1477.81 
  "/>
<polyline clip-path="url(#clip810)" style="stroke:#222255; stroke-width:4; stroke-opacity:0; fill:none" points="
  1825.53,1486.45 1825.53,1477.81 
  "/>
<polyline clip-path="url(#clip810)" style="stroke:#222255; stroke-width:4; stroke-opacity:0; fill:none" points="
  1927.11,1486.45 1927.11,1477.81 
  "/>
<polyline clip-path="url(#clip810)" style="stroke:#222255; stroke-width:4; stroke-opacity:0; fill:none" points="
  2028.68,1486.45 2028.68,1477.81 
  "/>
<polyline clip-path="url(#clip810)" style="stroke:#222255; stroke-width:4; stroke-opacity:0; fill:none" points="
  2231.84,1486.45 2231.84,1477.81 
  "/>
<polyline clip-path="url(#clip810)" style="stroke:#222255; stroke-width:4; stroke-opacity:0; fill:none" points="
  2333.42,1486.45 2333.42,1477.81 
  "/>
<path clip-path="url(#clip810)" d="M 0 0 M561.076 1530.29 L590.752 1530.29 L590.752 1534.23 L561.076 1534.23 L561.076 1530.29 Z" fill="#000000" fill-rule="evenodd" fill-opacity="1" /><path clip-path="url(#clip810)" d="M 0 0 M599.849 1543.18 L616.168 1543.18 L616.168 1547.12 L594.224 1547.12 L594.224 1543.18 Q596.886 1540.43 601.469 1535.8 Q606.076 1531.15 607.256 1529.81 Q609.502 1527.28 610.381 1525.55 Q611.284 1523.79 611.284 1522.1 Q611.284 1519.34 609.339 1517.61 Q607.418 1515.87 604.316 1515.87 Q602.117 1515.87 599.664 1516.63 Q597.233 1517.4 594.455 1518.95 L594.455 1514.23 Q597.279 1513.09 599.733 1512.51 Q602.187 1511.93 604.224 1511.93 Q609.594 1511.93 612.789 1514.62 Q615.983 1517.31 615.983 1521.8 Q615.983 1523.93 615.173 1525.85 Q614.386 1527.74 612.279 1530.34 Q611.701 1531.01 608.599 1534.23 Q605.497 1537.42 599.849 1543.18 Z" fill="#000000" fill-rule="evenodd" fill-opacity="1" /><path clip-path="url(#clip810)" d="M 0 0 M621.238 1541.24 L626.122 1541.24 L626.122 1547.12 L621.238 1547.12 L621.238 1541.24 Z" fill="#000000" fill-rule="evenodd" fill-opacity="1" /><path clip-path="url(#clip810)" d="M 0 0 M631.238 1512.56 L649.594 1512.56 L649.594 1516.5 L635.52 1516.5 L635.52 1524.97 Q636.538 1524.62 637.557 1524.46 Q638.575 1524.27 639.594 1524.27 Q645.381 1524.27 648.761 1527.44 Q652.14 1530.62 652.14 1536.03 Q652.14 1541.61 648.668 1544.71 Q645.196 1547.79 638.876 1547.79 Q636.7 1547.79 634.432 1547.42 Q632.187 1547.05 629.779 1546.31 L629.779 1541.61 Q631.863 1542.74 634.085 1543.3 Q636.307 1543.86 638.784 1543.86 Q642.788 1543.86 645.126 1541.75 Q647.464 1539.64 647.464 1536.03 Q647.464 1532.42 645.126 1530.31 Q642.788 1528.21 638.784 1528.21 Q636.909 1528.21 635.034 1528.62 Q633.182 1529.04 631.238 1529.92 L631.238 1512.56 Z" fill="#000000" fill-rule="evenodd" fill-opacity="1" /><path clip-path="url(#clip810)" d="M 0 0 M1096.01 1515.64 Q1092.4 1515.64 1090.57 1519.2 Q1088.76 1522.75 1088.76 1529.87 Q1088.76 1536.98 1090.57 1540.55 Q1092.4 1544.09 1096.01 1544.09 Q1099.64 1544.09 1101.45 1540.55 Q1103.28 1536.98 1103.28 1529.87 Q1103.28 1522.75 1101.45 1519.2 Q1099.64 1515.64 1096.01 1515.64 M1096.01 1511.93 Q1101.82 1511.93 1104.87 1516.54 Q1107.95 1521.12 1107.95 1529.87 Q1107.95 1538.6 1104.87 1543.21 Q1101.82 1547.79 1096.01 1547.79 Q1090.2 1547.79 1087.12 1543.21 Q1084.06 1538.6 1084.06 1529.87 Q1084.06 1521.12 1087.12 1516.54 Q1090.2 1511.93 1096.01 1511.93 Z" fill="#000000" fill-rule="evenodd" fill-opacity="1" /><path clip-path="url(#clip810)" d="M 0 0 M1113.02 1541.24 L1117.91 1541.24 L1117.91 1547.12 L1113.02 1547.12 L1113.02 1541.24 Z" fill="#000000" fill-rule="evenodd" fill-opacity="1" /><path clip-path="url(#clip810)" d="M 0 0 M1132.98 1515.64 Q1129.37 1515.64 1127.54 1519.2 Q1125.73 1522.75 1125.73 1529.87 Q1125.73 1536.98 1127.54 1540.55 Q1129.37 1544.09 1132.98 1544.09 Q1136.61 1544.09 1138.42 1540.55 Q1140.24 1536.98 1140.24 1529.87 Q1140.24 1522.75 1138.42 1519.2 Q1136.61 1515.64 1132.98 1515.64 M1132.98 1511.93 Q1138.79 1511.93 1141.84 1516.54 Q1144.92 1521.12 1144.92 1529.87 Q1144.92 1538.6 1141.84 1543.21 Q1138.79 1547.79 1132.98 1547.79 Q1127.17 1547.79 1124.09 1543.21 Q1121.03 1538.6 1121.03 1529.87 Q1121.03 1521.12 1124.09 1516.54 Q1127.17 1511.93 1132.98 1511.93 Z" fill="#000000" fill-rule="evenodd" fill-opacity="1" /><path clip-path="url(#clip810)" d="M 0 0 M1599.04 1543.18 L1615.36 1543.18 L1615.36 1547.12 L1593.42 1547.12 L1593.42 1543.18 Q1596.08 1540.43 1600.66 1535.8 Q1605.27 1531.15 1606.45 1529.81 Q1608.7 1527.28 1609.58 1525.55 Q1610.48 1523.79 1610.48 1522.1 Q1610.48 1519.34 1608.53 1517.61 Q1606.61 1515.87 1603.51 1515.87 Q1601.31 1515.87 1598.86 1516.63 Q1596.43 1517.4 1593.65 1518.95 L1593.65 1514.23 Q1596.47 1513.09 1598.93 1512.51 Q1601.38 1511.93 1603.42 1511.93 Q1608.79 1511.93 1611.98 1514.62 Q1615.18 1517.31 1615.18 1521.8 Q1615.18 1523.93 1614.37 1525.85 Q1613.58 1527.74 1611.47 1530.34 Q1610.9 1531.01 1607.79 1534.23 Q1604.69 1537.42 1599.04 1543.18 Z" fill="#000000" fill-rule="evenodd" fill-opacity="1" /><path clip-path="url(#clip810)" d="M 0 0 M1620.43 1541.24 L1625.32 1541.24 L1625.32 1547.12 L1620.43 1547.12 L1620.43 1541.24 Z" fill="#000000" fill-rule="evenodd" fill-opacity="1" /><path clip-path="url(#clip810)" d="M 0 0 M1630.43 1512.56 L1648.79 1512.56 L1648.79 1516.5 L1634.71 1516.5 L1634.71 1524.97 Q1635.73 1524.62 1636.75 1524.46 Q1637.77 1524.27 1638.79 1524.27 Q1644.58 1524.27 1647.96 1527.44 Q1651.34 1530.62 1651.34 1536.03 Q1651.34 1541.61 1647.86 1544.71 Q1644.39 1547.79 1638.07 1547.79 Q1635.9 1547.79 1633.63 1547.42 Q1631.38 1547.05 1628.97 1546.31 L1628.97 1541.61 Q1631.06 1542.74 1633.28 1543.3 Q1635.5 1543.86 1637.98 1543.86 Q1641.98 1543.86 1644.32 1541.75 Q1646.66 1539.64 1646.66 1536.03 Q1646.66 1532.42 1644.32 1530.31 Q1641.98 1528.21 1637.98 1528.21 Q1636.1 1528.21 1634.23 1528.62 Q1632.38 1529.04 1630.43 1529.92 L1630.43 1512.56 Z" fill="#000000" fill-rule="evenodd" fill-opacity="1" /><path clip-path="url(#clip810)" d="M 0 0 M2102.06 1512.56 L2120.41 1512.56 L2120.41 1516.5 L2106.34 1516.5 L2106.34 1524.97 Q2107.36 1524.62 2108.37 1524.46 Q2109.39 1524.27 2110.41 1524.27 Q2116.2 1524.27 2119.58 1527.44 Q2122.96 1530.62 2122.96 1536.03 Q2122.96 1541.61 2119.49 1544.71 Q2116.01 1547.79 2109.69 1547.79 Q2107.52 1547.79 2105.25 1547.42 Q2103 1547.05 2100.6 1546.31 L2100.6 1541.61 Q2102.68 1542.74 2104.9 1543.3 Q2107.12 1543.86 2109.6 1543.86 Q2113.61 1543.86 2115.94 1541.75 Q2118.28 1539.64 2118.28 1536.03 Q2118.28 1532.42 2115.94 1530.31 Q2113.61 1528.21 2109.6 1528.21 Q2107.73 1528.21 2105.85 1528.62 Q2104 1529.04 2102.06 1529.92 L2102.06 1512.56 Z" fill="#000000" fill-rule="evenodd" fill-opacity="1" /><path clip-path="url(#clip810)" d="M 0 0 M2128.03 1541.24 L2132.91 1541.24 L2132.91 1547.12 L2128.03 1547.12 L2128.03 1541.24 Z" fill="#000000" fill-rule="evenodd" fill-opacity="1" /><path clip-path="url(#clip810)" d="M 0 0 M2147.98 1515.64 Q2144.37 1515.64 2142.54 1519.2 Q2140.74 1522.75 2140.74 1529.87 Q2140.74 1536.98 2142.54 1540.55 Q2144.37 1544.09 2147.98 1544.09 Q2151.62 1544.09 2153.42 1540.55 Q2155.25 1536.98 2155.25 1529.87 Q2155.25 1522.75 2153.42 1519.2 Q2151.62 1515.64 2147.98 1515.64 M2147.98 1511.93 Q2153.79 1511.93 2156.85 1516.54 Q2159.93 1521.12 2159.93 1529.87 Q2159.93 1538.6 2156.85 1543.21 Q2153.79 1547.79 2147.98 1547.79 Q2142.17 1547.79 2139.09 1543.21 Q2136.04 1538.6 2136.04 1529.87 Q2136.04 1521.12 2139.09 1516.54 Q2142.17 1511.93 2147.98 1511.93 Z" fill="#000000" fill-rule="evenodd" fill-opacity="1" /><polyline clip-path="url(#clip812)" style="stroke:#222255; stroke-width:2; stroke-opacity:0.1; fill:none" points="
  148.334,1445.72 2352.76,1445.72 
  "/>
<polyline clip-path="url(#clip812)" style="stroke:#222255; stroke-width:2; stroke-opacity:0.1; fill:none" points="
  148.334,1142.53 2352.76,1142.53 
  "/>
<polyline clip-path="url(#clip812)" style="stroke:#222255; stroke-width:2; stroke-opacity:0.1; fill:none" points="
  148.334,839.348 2352.76,839.348 
  "/>
<polyline clip-path="url(#clip812)" style="stroke:#222255; stroke-width:2; stroke-opacity:0.1; fill:none" points="
  148.334,536.164 2352.76,536.164 
  "/>
<polyline clip-path="url(#clip812)" style="stroke:#222255; stroke-width:2; stroke-opacity:0.1; fill:none" points="
  148.334,232.98 2352.76,232.98 
  "/>
<polyline clip-path="url(#clip812)" style="stroke:#222255; stroke-width:2; stroke-opacity:0.05; fill:none" points="
  148.334,1385.08 2352.76,1385.08 
  "/>
<polyline clip-path="url(#clip812)" style="stroke:#222255; stroke-width:2; stroke-opacity:0.05; fill:none" points="
  148.334,1324.44 2352.76,1324.44 
  "/>
<polyline clip-path="url(#clip812)" style="stroke:#222255; stroke-width:2; stroke-opacity:0.05; fill:none" points="
  148.334,1263.81 2352.76,1263.81 
  "/>
<polyline clip-path="url(#clip812)" style="stroke:#222255; stroke-width:2; stroke-opacity:0.05; fill:none" points="
  148.334,1203.17 2352.76,1203.17 
  "/>
<polyline clip-path="url(#clip812)" style="stroke:#222255; stroke-width:2; stroke-opacity:0.05; fill:none" points="
  148.334,1081.9 2352.76,1081.9 
  "/>
<polyline clip-path="url(#clip812)" style="stroke:#222255; stroke-width:2; stroke-opacity:0.05; fill:none" points="
  148.334,1021.26 2352.76,1021.26 
  "/>
<polyline clip-path="url(#clip812)" style="stroke:#222255; stroke-width:2; stroke-opacity:0.05; fill:none" points="
  148.334,960.622 2352.76,960.622 
  "/>
<polyline clip-path="url(#clip812)" style="stroke:#222255; stroke-width:2; stroke-opacity:0.05; fill:none" points="
  148.334,899.985 2352.76,899.985 
  "/>
<polyline clip-path="url(#clip812)" style="stroke:#222255; stroke-width:2; stroke-opacity:0.05; fill:none" points="
  148.334,778.712 2352.76,778.712 
  "/>
<polyline clip-path="url(#clip812)" style="stroke:#222255; stroke-width:2; stroke-opacity:0.05; fill:none" points="
  148.334,718.075 2352.76,718.075 
  "/>
<polyline clip-path="url(#clip812)" style="stroke:#222255; stroke-width:2; stroke-opacity:0.05; fill:none" points="
  148.334,657.438 2352.76,657.438 
  "/>
<polyline clip-path="url(#clip812)" style="stroke:#222255; stroke-width:2; stroke-opacity:0.05; fill:none" points="
  148.334,596.801 2352.76,596.801 
  "/>
<polyline clip-path="url(#clip812)" style="stroke:#222255; stroke-width:2; stroke-opacity:0.05; fill:none" points="
  148.334,475.528 2352.76,475.528 
  "/>
<polyline clip-path="url(#clip812)" style="stroke:#222255; stroke-width:2; stroke-opacity:0.05; fill:none" points="
  148.334,414.891 2352.76,414.891 
  "/>
<polyline clip-path="url(#clip812)" style="stroke:#222255; stroke-width:2; stroke-opacity:0.05; fill:none" points="
  148.334,354.254 2352.76,354.254 
  "/>
<polyline clip-path="url(#clip812)" style="stroke:#222255; stroke-width:2; stroke-opacity:0.05; fill:none" points="
  148.334,293.617 2352.76,293.617 
  "/>
<polyline clip-path="url(#clip812)" style="stroke:#222255; stroke-width:2; stroke-opacity:0.05; fill:none" points="
  148.334,172.344 2352.76,172.344 
  "/>
<polyline clip-path="url(#clip812)" style="stroke:#222255; stroke-width:2; stroke-opacity:0.05; fill:none" points="
  148.334,111.707 2352.76,111.707 
  "/>
<polyline clip-path="url(#clip812)" style="stroke:#222255; stroke-width:2; stroke-opacity:0.05; fill:none" points="
  148.334,51.0701 2352.76,51.0701 
  "/>
<polyline clip-path="url(#clip810)" style="stroke:#222255; stroke-width:4; stroke-opacity:0; fill:none" points="
  148.334,1445.72 174.787,1445.72 
  "/>
<polyline clip-path="url(#clip810)" style="stroke:#222255; stroke-width:4; stroke-opacity:0; fill:none" points="
  148.334,1142.53 174.787,1142.53 
  "/>
<polyline clip-path="url(#clip810)" style="stroke:#222255; stroke-width:4; stroke-opacity:0; fill:none" points="
  148.334,839.348 174.787,839.348 
  "/>
<polyline clip-path="url(#clip810)" style="stroke:#222255; stroke-width:4; stroke-opacity:0; fill:none" points="
  148.334,536.164 174.787,536.164 
  "/>
<polyline clip-path="url(#clip810)" style="stroke:#222255; stroke-width:4; stroke-opacity:0; fill:none" points="
  148.334,232.98 174.787,232.98 
  "/>
<polyline clip-path="url(#clip810)" style="stroke:#222255; stroke-width:4; stroke-opacity:0; fill:none" points="
  148.334,1385.08 161.561,1385.08 
  "/>
<polyline clip-path="url(#clip810)" style="stroke:#222255; stroke-width:4; stroke-opacity:0; fill:none" points="
  148.334,1324.44 161.561,1324.44 
  "/>
<polyline clip-path="url(#clip810)" style="stroke:#222255; stroke-width:4; stroke-opacity:0; fill:none" points="
  148.334,1263.81 161.561,1263.81 
  "/>
<polyline clip-path="url(#clip810)" style="stroke:#222255; stroke-width:4; stroke-opacity:0; fill:none" points="
  148.334,1203.17 161.561,1203.17 
  "/>
<polyline clip-path="url(#clip810)" style="stroke:#222255; stroke-width:4; stroke-opacity:0; fill:none" points="
  148.334,1081.9 161.561,1081.9 
  "/>
<polyline clip-path="url(#clip810)" style="stroke:#222255; stroke-width:4; stroke-opacity:0; fill:none" points="
  148.334,1021.26 161.561,1021.26 
  "/>
<polyline clip-path="url(#clip810)" style="stroke:#222255; stroke-width:4; stroke-opacity:0; fill:none" points="
  148.334,960.622 161.561,960.622 
  "/>
<polyline clip-path="url(#clip810)" style="stroke:#222255; stroke-width:4; stroke-opacity:0; fill:none" points="
  148.334,899.985 161.561,899.985 
  "/>
<polyline clip-path="url(#clip810)" style="stroke:#222255; stroke-width:4; stroke-opacity:0; fill:none" points="
  148.334,778.712 161.561,778.712 
  "/>
<polyline clip-path="url(#clip810)" style="stroke:#222255; stroke-width:4; stroke-opacity:0; fill:none" points="
  148.334,718.075 161.561,718.075 
  "/>
<polyline clip-path="url(#clip810)" style="stroke:#222255; stroke-width:4; stroke-opacity:0; fill:none" points="
  148.334,657.438 161.561,657.438 
  "/>
<polyline clip-path="url(#clip810)" style="stroke:#222255; stroke-width:4; stroke-opacity:0; fill:none" points="
  148.334,596.801 161.561,596.801 
  "/>
<polyline clip-path="url(#clip810)" style="stroke:#222255; stroke-width:4; stroke-opacity:0; fill:none" points="
  148.334,475.528 161.561,475.528 
  "/>
<polyline clip-path="url(#clip810)" style="stroke:#222255; stroke-width:4; stroke-opacity:0; fill:none" points="
  148.334,414.891 161.561,414.891 
  "/>
<polyline clip-path="url(#clip810)" style="stroke:#222255; stroke-width:4; stroke-opacity:0; fill:none" points="
  148.334,354.254 161.561,354.254 
  "/>
<polyline clip-path="url(#clip810)" style="stroke:#222255; stroke-width:4; stroke-opacity:0; fill:none" points="
  148.334,293.617 161.561,293.617 
  "/>
<polyline clip-path="url(#clip810)" style="stroke:#222255; stroke-width:4; stroke-opacity:0; fill:none" points="
  148.334,172.344 161.561,172.344 
  "/>
<polyline clip-path="url(#clip810)" style="stroke:#222255; stroke-width:4; stroke-opacity:0; fill:none" points="
  148.334,111.707 161.561,111.707 
  "/>
<polyline clip-path="url(#clip810)" style="stroke:#222255; stroke-width:4; stroke-opacity:0; fill:none" points="
  148.334,51.0701 161.561,51.0701 
  "/>
<path clip-path="url(#clip810)" d="M 0 0 M63.4226 1431.52 Q59.8115 1431.52 57.9828 1435.08 Q56.1773 1438.62 56.1773 1445.75 Q56.1773 1452.86 57.9828 1456.42 Q59.8115 1459.96 63.4226 1459.96 Q67.0569 1459.96 68.8624 1456.42 Q70.6911 1452.86 70.6911 1445.75 Q70.6911 1438.62 68.8624 1435.08 Q67.0569 1431.52 63.4226 1431.52 M63.4226 1427.81 Q69.2328 1427.81 72.2883 1432.42 Q75.367 1437 75.367 1445.75 Q75.367 1454.48 72.2883 1459.08 Q69.2328 1463.67 63.4226 1463.67 Q57.6125 1463.67 54.5338 1459.08 Q51.4782 1454.48 51.4782 1445.75 Q51.4782 1437 54.5338 1432.42 Q57.6125 1427.81 63.4226 1427.81 Z" fill="#000000" fill-rule="evenodd" fill-opacity="1" /><path clip-path="url(#clip810)" d="M 0 0 M80.4364 1457.12 L85.3206 1457.12 L85.3206 1463 L80.4364 1463 L80.4364 1457.12 Z" fill="#000000" fill-rule="evenodd" fill-opacity="1" /><path clip-path="url(#clip810)" d="M 0 0 M100.39 1431.52 Q96.7789 1431.52 94.9502 1435.08 Q93.1447 1438.62 93.1447 1445.75 Q93.1447 1452.86 94.9502 1456.42 Q96.7789 1459.96 100.39 1459.96 Q104.024 1459.96 105.83 1456.42 Q107.658 1452.86 107.658 1445.75 Q107.658 1438.62 105.83 1435.08 Q104.024 1431.52 100.39 1431.52 M100.39 1427.81 Q106.2 1427.81 109.256 1432.42 Q112.334 1437 112.334 1445.75 Q112.334 1454.48 109.256 1459.08 Q106.2 1463.67 100.39 1463.67 Q94.5799 1463.67 91.5012 1459.08 Q88.4456 1454.48 88.4456 1445.75 Q88.4456 1437 91.5012 1432.42 Q94.5799 1427.81 100.39 1427.81 Z" fill="#000000" fill-rule="evenodd" fill-opacity="1" /><path clip-path="url(#clip810)" d="M 0 0 M64.6495 1128.33 Q61.0384 1128.33 59.2097 1131.9 Q57.4041 1135.44 57.4041 1142.57 Q57.4041 1149.67 59.2097 1153.24 Q61.0384 1156.78 64.6495 1156.78 Q68.2837 1156.78 70.0892 1153.24 Q71.9179 1149.67 71.9179 1142.57 Q71.9179 1135.44 70.0892 1131.9 Q68.2837 1128.33 64.6495 1128.33 M64.6495 1124.63 Q70.4596 1124.63 73.5152 1129.23 Q76.5938 1133.82 76.5938 1142.57 Q76.5938 1151.29 73.5152 1155.9 Q70.4596 1160.48 64.6495 1160.48 Q58.8393 1160.48 55.7606 1155.9 Q52.7051 1151.29 52.7051 1142.57 Q52.7051 1133.82 55.7606 1129.23 Q58.8393 1124.63 64.6495 1124.63 Z" fill="#000000" fill-rule="evenodd" fill-opacity="1" /><path clip-path="url(#clip810)" d="M 0 0 M81.6633 1153.93 L86.5475 1153.93 L86.5475 1159.81 L81.6633 1159.81 L81.6633 1153.93 Z" fill="#000000" fill-rule="evenodd" fill-opacity="1" /><path clip-path="url(#clip810)" d="M 0 0 M92.4271 1155.88 L100.066 1155.88 L100.066 1129.51 L91.7558 1131.18 L91.7558 1126.92 L100.02 1125.25 L104.696 1125.25 L104.696 1155.88 L112.334 1155.88 L112.334 1159.81 L92.4271 1159.81 L92.4271 1155.88 Z" fill="#000000" fill-rule="evenodd" fill-opacity="1" /><path clip-path="url(#clip810)" d="M 0 0 M65.0198 825.147 Q61.4087 825.147 59.58 828.712 Q57.7745 832.254 57.7745 839.383 Q57.7745 846.49 59.58 850.054 Q61.4087 853.596 65.0198 853.596 Q68.6541 853.596 70.4596 850.054 Q72.2883 846.49 72.2883 839.383 Q72.2883 832.254 70.4596 828.712 Q68.6541 825.147 65.0198 825.147 M65.0198 821.443 Q70.83 821.443 73.8855 826.05 Q76.9642 830.633 76.9642 839.383 Q76.9642 848.11 73.8855 852.716 Q70.83 857.3 65.0198 857.3 Q59.2097 857.3 56.131 852.716 Q53.0754 848.11 53.0754 839.383 Q53.0754 830.633 56.131 826.05 Q59.2097 821.443 65.0198 821.443 Z" fill="#000000" fill-rule="evenodd" fill-opacity="1" /><path clip-path="url(#clip810)" d="M 0 0 M82.0336 850.749 L86.9179 850.749 L86.9179 856.628 L82.0336 856.628 L82.0336 850.749 Z" fill="#000000" fill-rule="evenodd" fill-opacity="1" /><path clip-path="url(#clip810)" d="M 0 0 M96.015 852.693 L112.334 852.693 L112.334 856.628 L90.3901 856.628 L90.3901 852.693 Q93.0521 849.939 97.6354 845.309 Q102.242 840.656 103.422 839.314 Q105.668 836.791 106.547 835.055 Q107.45 833.295 107.45 831.605 Q107.45 828.851 105.506 827.115 Q103.584 825.379 100.483 825.379 Q98.2835 825.379 95.8298 826.143 Q93.3993 826.906 90.6215 828.457 L90.6215 823.735 Q93.4456 822.601 95.8993 822.022 Q98.353 821.443 100.39 821.443 Q105.76 821.443 108.955 824.129 Q112.149 826.814 112.149 831.305 Q112.149 833.434 111.339 835.355 Q110.552 837.254 108.446 839.846 Q107.867 840.517 104.765 843.735 Q101.663 846.929 96.015 852.693 Z" fill="#000000" fill-rule="evenodd" fill-opacity="1" /><path clip-path="url(#clip810)" d="M 0 0 M64.0708 521.963 Q60.4597 521.963 58.631 525.528 Q56.8254 529.07 56.8254 536.199 Q56.8254 543.306 58.631 546.87 Q60.4597 550.412 64.0708 550.412 Q67.705 550.412 69.5105 546.87 Q71.3392 543.306 71.3392 536.199 Q71.3392 529.07 69.5105 525.528 Q67.705 521.963 64.0708 521.963 M64.0708 518.259 Q69.8809 518.259 72.9365 522.866 Q76.0151 527.449 76.0151 536.199 Q76.0151 544.926 72.9365 549.532 Q69.8809 554.116 64.0708 554.116 Q58.2606 554.116 55.1819 549.532 Q52.1264 544.926 52.1264 536.199 Q52.1264 527.449 55.1819 522.866 Q58.2606 518.259 64.0708 518.259 Z" fill="#000000" fill-rule="evenodd" fill-opacity="1" /><path clip-path="url(#clip810)" d="M 0 0 M81.0846 547.565 L85.9688 547.565 L85.9688 553.444 L81.0846 553.444 L81.0846 547.565 Z" fill="#000000" fill-rule="evenodd" fill-opacity="1" /><path clip-path="url(#clip810)" d="M 0 0 M105.205 534.81 Q108.561 535.528 110.436 537.796 Q112.334 540.065 112.334 543.398 Q112.334 548.514 108.816 551.315 Q105.297 554.116 98.8159 554.116 Q96.64 554.116 94.3252 553.676 Q92.0336 553.259 89.5799 552.403 L89.5799 547.889 Q91.5243 549.023 93.8391 549.602 Q96.1539 550.181 98.6771 550.181 Q103.075 550.181 105.367 548.445 Q107.682 546.708 107.682 543.398 Q107.682 540.343 105.529 538.63 Q103.399 536.894 99.5798 536.894 L95.5521 536.894 L95.5521 533.051 L99.765 533.051 Q103.214 533.051 105.043 531.685 Q106.871 530.296 106.871 527.704 Q106.871 525.042 104.973 523.63 Q103.098 522.195 99.5798 522.195 Q97.6585 522.195 95.4595 522.611 Q93.2604 523.028 90.6215 523.908 L90.6215 519.741 Q93.2836 519 95.5984 518.63 Q97.9363 518.259 99.9965 518.259 Q105.321 518.259 108.422 520.69 Q111.524 523.097 111.524 527.218 Q111.524 530.088 109.881 532.079 Q108.237 534.046 105.205 534.81 Z" fill="#000000" fill-rule="evenodd" fill-opacity="1" /><path clip-path="url(#clip810)" d="M 0 0 M62.9365 218.779 Q59.3254 218.779 57.4967 222.344 Q55.6912 225.886 55.6912 233.015 Q55.6912 240.122 57.4967 243.686 Q59.3254 247.228 62.9365 247.228 Q66.5707 247.228 68.3763 243.686 Q70.205 240.122 70.205 233.015 Q70.205 225.886 68.3763 222.344 Q66.5707 218.779 62.9365 218.779 M62.9365 215.075 Q68.7467 215.075 71.8022 219.682 Q74.8809 224.265 74.8809 233.015 Q74.8809 241.742 71.8022 246.348 Q68.7467 250.932 62.9365 250.932 Q57.1264 250.932 54.0477 246.348 Q50.9921 241.742 50.9921 233.015 Q50.9921 224.265 54.0477 219.682 Q57.1264 215.075 62.9365 215.075 Z" fill="#000000" fill-rule="evenodd" fill-opacity="1" /><path clip-path="url(#clip810)" d="M 0 0 M79.9503 244.381 L84.8345 244.381 L84.8345 250.26 L79.9503 250.26 L79.9503 244.381 Z" fill="#000000" fill-rule="evenodd" fill-opacity="1" /><path clip-path="url(#clip810)" d="M 0 0 M102.751 219.775 L90.9456 238.224 L102.751 238.224 L102.751 219.775 M101.524 215.7 L107.404 215.7 L107.404 238.224 L112.334 238.224 L112.334 242.112 L107.404 242.112 L107.404 250.26 L102.751 250.26 L102.751 242.112 L87.1493 242.112 L87.1493 237.599 L101.524 215.7 Z" fill="#000000" fill-rule="evenodd" fill-opacity="1" /><polyline clip-path="url(#clip812)" style="stroke:#cc6677; stroke-width:4.8; stroke-opacity:1; fill:none" points="
  242.887,1445.72 249.968,1445.71 257.049,1445.71 264.129,1445.71 271.21,1445.69 278.291,1445.67 285.372,1445.63 292.453,1445.56 299.533,1445.46 306.614,1445.3 
  313.695,1445.1 320.776,1444.86 327.857,1444.59 334.937,1444.33 342.018,1444.12 349.099,1443.99 356.18,1443.97 363.26,1444.05 370.341,1444.22 377.422,1444.45 
  384.503,1444.7 391.584,1444.91 398.664,1445.04 405.745,1445.07 412.826,1444.95 419.907,1444.64 426.988,1444.1 434.068,1443.3 441.149,1442.19 448.23,1440.76 
  455.311,1439 462.391,1436.92 469.472,1434.55 476.553,1431.9 483.634,1429 490.715,1425.85 497.795,1422.4 504.876,1418.56 511.957,1414.19 519.038,1409.1 
  526.119,1403.05 533.199,1395.85 540.28,1387.35 547.361,1377.58 554.442,1366.73 561.522,1355.2 568.603,1343.51 575.684,1332.17 582.765,1321.52 589.846,1311.68 
  596.926,1302.43 604.007,1293.33 611.088,1283.83 618.169,1273.46 625.25,1261.9 632.33,1249.03 639.411,1234.85 646.492,1219.36 653.573,1202.49 660.653,1184.16 
  667.734,1164.3 674.815,1143.04 681.896,1120.75 688.977,1097.96 696.057,1075.2 703.138,1052.84 710.219,1030.86 717.3,1008.9 724.381,986.304 731.461,962.312 
  738.542,936.263 745.623,907.738 752.704,876.642 759.784,843.216 766.865,807.999 773.946,771.719 781.027,735.164 788.108,698.997 795.188,663.592 802.269,628.918 
  809.35,594.535 816.431,559.735 823.512,523.811 830.592,486.364 837.673,447.57 844.754,408.279 851.835,369.911 858.915,334.17 865.996,302.644 873.077,276.426 
  880.158,255.855 887.239,240.441 894.319,228.986 901.4,219.866 908.481,211.4 915.562,202.222 922.643,191.595 929.723,179.571 936.804,166.956 943.885,155.048 
  950.966,145.215 958.046,138.414 965.127,134.83 972.208,133.774 979.289,133.874 986.37,133.505 993.45,131.294 1000.53,126.522 1007.61,119.297 1014.69,110.494 
  1021.77,101.497 1028.85,93.8615 1035.94,89.0026 1043.02,87.9763 1050.1,91.3898 1057.18,99.4295 1064.26,111.965 1071.34,128.672 1078.42,149.127 1085.5,172.846 
  1092.58,199.291 1099.66,227.874 1106.74,258 1113.82,289.151 1120.9,320.991 1127.99,353.43 1135.07,386.62 1142.15,420.871 1149.23,456.516 1156.31,493.786 
  1163.39,532.735 1170.47,573.243 1177.55,615.06 1184.63,657.873 1191.71,701.349 1198.79,745.144 1205.87,788.883 1212.95,832.138 1220.04,874.412 1227.12,915.142 
  1234.2,953.733 1241.28,989.622 1248.36,1022.36 1255.44,1051.72 1262.52,1077.74 1269.6,1100.8 1276.68,1121.5 1283.76,1140.61 1290.84,1158.85 1297.92,1176.74 
  1305,1194.56 1312.09,1212.31 1319.17,1229.84 1326.25,1246.9 1333.33,1263.31 1340.41,1278.94 1347.49,1293.73 1354.57,1307.67 1361.65,1320.76 1368.73,1332.98 
  1375.81,1344.34 1382.89,1354.82 1389.97,1364.48 1397.06,1373.36 1404.14,1381.54 1411.22,1389.11 1418.3,1396.14 1425.38,1402.69 1432.46,1408.82 1439.54,1414.52 
  1446.62,1419.76 1453.7,1424.46 1460.78,1428.52 1467.86,1431.85 1474.94,1434.41 1482.02,1436.25 1489.11,1437.48 1496.19,1438.25 1503.27,1438.76 1510.35,1439.17 
  1517.43,1439.6 1524.51,1440.11 1531.59,1440.71 1538.67,1441.39 1545.75,1442.1 1552.83,1442.81 1559.91,1443.48 1566.99,1444.06 1574.07,1444.55 1581.16,1444.93 
  1588.24,1445.22 1595.32,1445.41 1602.4,1445.54 1609.48,1445.62 1616.56,1445.67 1623.64,1445.69 1630.72,1445.71 1637.8,1445.71 1644.88,1445.71 1651.96,1445.72 
  
  "/>
<polyline clip-path="url(#clip812)" style="stroke:#332288; stroke-width:4.8; stroke-opacity:1; fill:none" points="
  210.724,1445.72 221.174,1445.71 231.625,1445.71 242.075,1445.7 252.526,1445.67 262.976,1445.6 273.426,1445.48 283.877,1445.28 294.327,1445.01 304.778,1444.68 
  315.228,1444.35 325.679,1444.06 336.129,1443.83 346.58,1443.63 357.03,1443.37 367.481,1442.91 377.931,1442.16 388.382,1441.07 398.832,1439.63 409.283,1437.83 
  419.733,1435.69 430.183,1433.24 440.634,1430.6 451.084,1427.91 461.535,1425.31 471.985,1422.78 482.436,1420.13 492.886,1417.02 503.337,1413.08 513.787,1408.01 
  524.238,1401.62 534.688,1393.78 545.139,1384.31 555.589,1373.03 566.04,1359.8 576.49,1344.59 586.94,1327.57 597.391,1309.06 607.841,1289.4 618.292,1268.67 
  628.742,1246.39 639.193,1221.46 649.643,1192.44 660.094,1158.12 670.544,1118.1 680.995,1072.94 691.445,1023.88 701.896,972.393 712.346,919.794 722.797,867.263 
  733.247,815.967 743.697,767.009 754.148,721.044 764.598,677.813 775.049,636.015 785.499,593.759 795.95,549.382 806.4,502.205 816.851,452.895 827.301,403.365 
  837.752,356.321 848.202,314.589 858.653,280.348 869.103,254.452 879.554,236.081 890.004,222.883 900.455,211.685 910.905,199.645 921.355,185.419 931.806,169.762 
  942.256,155.153 952.707,144.556 963.157,140.019 973.608,141.905 984.058,149.181 994.509,160.448 1004.96,174.969 1015.41,193.032 1025.86,215.523 1036.31,243.147 
  1046.76,275.862 1057.21,312.797 1067.66,352.501 1078.11,393.276 1088.56,433.447 1099.01,471.594 1109.46,506.82 1119.91,539.023 1130.36,568.995 1140.82,598.219 
  1151.27,628.36 1161.72,660.69 1172.17,695.769 1182.62,733.495 1193.07,773.418 1203.52,814.993 1213.97,857.586 1224.42,900.292 1234.87,941.825 1245.32,980.772 
  1255.77,1016.16 1266.22,1047.99 1276.67,1077.2 1287.12,1105.22 1297.57,1133.16 1308.02,1161.45 1318.47,1189.91 1328.92,1218.11 1339.37,1245.6 1349.82,1271.99 
  1360.28,1296.8 1370.73,1319.49 1381.18,1339.49 1391.63,1356.28 1402.08,1369.57 1412.53,1379.38 1422.98,1386.19 1433.43,1390.85 1443.88,1394.41 1454.33,1397.74 
  1464.78,1401.43 1475.23,1405.67 1485.68,1410.38 1496.13,1415.28 1506.58,1420.07 1517.03,1424.37 1527.48,1427.91 1537.93,1430.52 1548.38,1432.2 1558.83,1433.18 
  1569.28,1433.77 1579.73,1434.26 1590.19,1434.83 1600.64,1435.5 1611.09,1436.23 1621.54,1436.96 1631.99,1437.69 1642.44,1438.49 1652.89,1439.36 1663.34,1440.27 
  1673.79,1441.13 1684.24,1441.82 1694.69,1442.28 1705.14,1442.52 1715.59,1442.57 1726.04,1442.48 1736.49,1442.32 1746.94,1442.14 1757.39,1442 1767.84,1441.96 
  1778.29,1442.05 1788.74,1442.26 1799.19,1442.59 1809.65,1442.98 1820.1,1443.37 1830.55,1443.67 1841,1443.76 1851.45,1443.55 1861.9,1442.98 1872.35,1442.05 
  1882.8,1440.8 1893.25,1439.33 1903.7,1437.78 1914.15,1436.35 1924.6,1435.29 1935.05,1434.76 1945.5,1434.81 1955.95,1435.21 1966.4,1435.58 1976.85,1435.54 
  1987.3,1434.98 1997.75,1434.09 2008.2,1433.36 2018.65,1433.3 2029.1,1434.18 2039.56,1435.93 2050.01,1438.16 2060.46,1440.39 2070.91,1442.23 2081.36,1443.46 
  2091.81,1444.08 2102.26,1444.19 2112.71,1443.96 2123.16,1443.59 2133.61,1443.22 2144.06,1442.99 2154.51,1442.96 2164.96,1443.15 2175.41,1443.52 2185.86,1443.99 
  2196.31,1444.48 2206.76,1444.91 2217.21,1445.24 2227.66,1445.46 2238.11,1445.59 2248.56,1445.66 2259.02,1445.7 2269.47,1445.71 2279.92,1445.71 2290.37,1445.72 
  
  "/>
<polyline clip-path="url(#clip812)" style="stroke:#ddcc77; stroke-width:4.8; stroke-opacity:1; fill:none" points="
  1012.92,2925.65 1012.92,-1391.96 
  "/>
<polyline clip-path="url(#clip812)" style="stroke:#117733; stroke-width:4.8; stroke-opacity:1; fill:none" points="
  301.877,1270.06 505.031,1243.66 708.185,1222.41 911.339,1208.6 1114.49,1203.81 1317.65,1208.6 1520.8,1222.41 1723.95,1243.66 1927.11,1270.06 
  "/>
<path clip-path="url(#clip810)" d="
M1880.1 397.618 L2279.28 397.618 L2279.28 95.2176 L1880.1 95.2176  Z
  " fill="#ffffff" fill-rule="evenodd" fill-opacity="0.9"/>
<polyline clip-path="url(#clip810)" style="stroke:#222255; stroke-width:4; stroke-opacity:0.1; fill:none" points="
  1880.1,397.618 2279.28,397.618 2279.28,95.2176 1880.1,95.2176 1880.1,397.618 
  "/>
<polyline clip-path="url(#clip810)" style="stroke:#cc6677; stroke-width:4; stroke-opacity:1; fill:none" points="
  1904.6,155.698 2051.56,155.698 
  "/>
<path clip-path="url(#clip810)" d="M 0 0 M2103.92 141.08 L2103.92 146.01 Q2101.56 143.811 2098.88 142.723 Q2096.21 141.635 2093.21 141.635 Q2087.28 141.635 2084.13 145.269 Q2080.98 148.88 2080.98 155.732 Q2080.98 162.561 2084.13 166.195 Q2087.28 169.806 2093.21 169.806 Q2096.21 169.806 2098.88 168.718 Q2101.56 167.63 2103.92 165.431 L2103.92 170.316 Q2101.47 171.982 2098.71 172.816 Q2095.98 173.649 2092.93 173.649 Q2085.08 173.649 2080.57 168.857 Q2076.05 164.042 2076.05 155.732 Q2076.05 147.399 2080.57 142.607 Q2085.08 137.793 2092.93 137.793 Q2096.03 137.793 2098.76 138.626 Q2101.52 139.436 2103.92 141.08 Z" fill="#000000" fill-rule="evenodd" fill-opacity="1" /><path clip-path="url(#clip810)" d="M 0 0 M2129.94 157.329 L2129.94 172.978 L2125.68 172.978 L2125.68 157.468 Q2125.68 153.788 2124.25 151.959 Q2122.81 150.13 2119.94 150.13 Q2116.49 150.13 2114.5 152.33 Q2112.51 154.529 2112.51 158.325 L2112.51 172.978 L2108.23 172.978 L2108.23 136.959 L2112.51 136.959 L2112.51 151.08 Q2114.04 148.742 2116.1 147.584 Q2118.18 146.427 2120.89 146.427 Q2125.36 146.427 2127.65 149.205 Q2129.94 151.959 2129.94 157.329 Z" fill="#000000" fill-rule="evenodd" fill-opacity="1" /><path clip-path="url(#clip810)" d="M 0 0 M2146.19 159.945 Q2141.03 159.945 2139.04 161.126 Q2137.05 162.306 2137.05 165.154 Q2137.05 167.422 2138.53 168.765 Q2140.03 170.084 2142.6 170.084 Q2146.14 170.084 2148.27 167.584 Q2150.43 165.061 2150.43 160.894 L2150.43 159.945 L2146.19 159.945 M2154.69 158.186 L2154.69 172.978 L2150.43 172.978 L2150.43 169.042 Q2148.97 171.403 2146.79 172.538 Q2144.62 173.649 2141.47 173.649 Q2137.49 173.649 2135.13 171.427 Q2132.79 169.181 2132.79 165.431 Q2132.79 161.056 2135.71 158.834 Q2138.65 156.612 2144.46 156.612 L2150.43 156.612 L2150.43 156.195 Q2150.43 153.255 2148.48 151.658 Q2146.56 150.038 2143.07 150.038 Q2140.84 150.038 2138.74 150.57 Q2136.63 151.103 2134.69 152.167 L2134.69 148.232 Q2137.02 147.33 2139.22 146.89 Q2141.42 146.427 2143.51 146.427 Q2149.13 146.427 2151.91 149.343 Q2154.69 152.26 2154.69 158.186 Z" fill="#000000" fill-rule="evenodd" fill-opacity="1" /><path clip-path="url(#clip810)" d="M 0 0 M2159.15 147.052 L2163.41 147.052 L2163.41 172.978 L2159.15 172.978 L2159.15 147.052 M2159.15 136.959 L2163.41 136.959 L2163.41 142.353 L2159.15 142.353 L2159.15 136.959 Z" fill="#000000" fill-rule="evenodd" fill-opacity="1" /><path clip-path="url(#clip810)" d="M 0 0 M2189.43 157.329 L2189.43 172.978 L2185.17 172.978 L2185.17 157.468 Q2185.17 153.788 2183.74 151.959 Q2182.3 150.13 2179.43 150.13 Q2175.98 150.13 2173.99 152.33 Q2172 154.529 2172 158.325 L2172 172.978 L2167.72 172.978 L2167.72 147.052 L2172 147.052 L2172 151.08 Q2173.53 148.742 2175.59 147.584 Q2177.67 146.427 2180.38 146.427 Q2184.85 146.427 2187.14 149.205 Q2189.43 151.959 2189.43 157.329 Z" fill="#000000" fill-rule="evenodd" fill-opacity="1" /><path clip-path="url(#clip810)" d="M 0 0 M2210.38 169.042 L2218.02 169.042 L2218.02 142.677 L2209.71 144.343 L2209.71 140.084 L2217.97 138.418 L2222.65 138.418 L2222.65 169.042 L2230.29 169.042 L2230.29 172.978 L2210.38 172.978 L2210.38 169.042 Z" fill="#000000" fill-rule="evenodd" fill-opacity="1" /><polyline clip-path="url(#clip810)" style="stroke:#332288; stroke-width:4; stroke-opacity:1; fill:none" points="
  1904.6,216.178 2051.56,216.178 
  "/>
<path clip-path="url(#clip810)" d="M 0 0 M2103.92 201.56 L2103.92 206.49 Q2101.56 204.291 2098.88 203.203 Q2096.21 202.115 2093.21 202.115 Q2087.28 202.115 2084.13 205.749 Q2080.98 209.36 2080.98 216.212 Q2080.98 223.041 2084.13 226.675 Q2087.28 230.286 2093.21 230.286 Q2096.21 230.286 2098.88 229.198 Q2101.56 228.11 2103.92 225.911 L2103.92 230.796 Q2101.47 232.462 2098.71 233.296 Q2095.98 234.129 2092.93 234.129 Q2085.08 234.129 2080.57 229.337 Q2076.05 224.522 2076.05 216.212 Q2076.05 207.879 2080.57 203.087 Q2085.08 198.273 2092.93 198.273 Q2096.03 198.273 2098.76 199.106 Q2101.52 199.916 2103.92 201.56 Z" fill="#000000" fill-rule="evenodd" fill-opacity="1" /><path clip-path="url(#clip810)" d="M 0 0 M2129.94 217.809 L2129.94 233.458 L2125.68 233.458 L2125.68 217.948 Q2125.68 214.268 2124.25 212.439 Q2122.81 210.61 2119.94 210.61 Q2116.49 210.61 2114.5 212.81 Q2112.51 215.009 2112.51 218.805 L2112.51 233.458 L2108.23 233.458 L2108.23 197.439 L2112.51 197.439 L2112.51 211.56 Q2114.04 209.222 2116.1 208.064 Q2118.18 206.907 2120.89 206.907 Q2125.36 206.907 2127.65 209.685 Q2129.94 212.439 2129.94 217.809 Z" fill="#000000" fill-rule="evenodd" fill-opacity="1" /><path clip-path="url(#clip810)" d="M 0 0 M2146.19 220.425 Q2141.03 220.425 2139.04 221.606 Q2137.05 222.786 2137.05 225.634 Q2137.05 227.902 2138.53 229.245 Q2140.03 230.564 2142.6 230.564 Q2146.14 230.564 2148.27 228.064 Q2150.43 225.541 2150.43 221.374 L2150.43 220.425 L2146.19 220.425 M2154.69 218.666 L2154.69 233.458 L2150.43 233.458 L2150.43 229.522 Q2148.97 231.883 2146.79 233.018 Q2144.62 234.129 2141.47 234.129 Q2137.49 234.129 2135.13 231.907 Q2132.79 229.661 2132.79 225.911 Q2132.79 221.536 2135.71 219.314 Q2138.65 217.092 2144.46 217.092 L2150.43 217.092 L2150.43 216.675 Q2150.43 213.735 2148.48 212.138 Q2146.56 210.518 2143.07 210.518 Q2140.84 210.518 2138.74 211.05 Q2136.63 211.583 2134.69 212.647 L2134.69 208.712 Q2137.02 207.81 2139.22 207.37 Q2141.42 206.907 2143.51 206.907 Q2149.13 206.907 2151.91 209.823 Q2154.69 212.74 2154.69 218.666 Z" fill="#000000" fill-rule="evenodd" fill-opacity="1" /><path clip-path="url(#clip810)" d="M 0 0 M2159.15 207.532 L2163.41 207.532 L2163.41 233.458 L2159.15 233.458 L2159.15 207.532 M2159.15 197.439 L2163.41 197.439 L2163.41 202.833 L2159.15 202.833 L2159.15 197.439 Z" fill="#000000" fill-rule="evenodd" fill-opacity="1" /><path clip-path="url(#clip810)" d="M 0 0 M2189.43 217.809 L2189.43 233.458 L2185.17 233.458 L2185.17 217.948 Q2185.17 214.268 2183.74 212.439 Q2182.3 210.61 2179.43 210.61 Q2175.98 210.61 2173.99 212.81 Q2172 215.009 2172 218.805 L2172 233.458 L2167.72 233.458 L2167.72 207.532 L2172 207.532 L2172 211.56 Q2173.53 209.222 2175.59 208.064 Q2177.67 206.907 2180.38 206.907 Q2184.85 206.907 2187.14 209.685 Q2189.43 212.439 2189.43 217.809 Z" fill="#000000" fill-rule="evenodd" fill-opacity="1" /><path clip-path="url(#clip810)" d="M 0 0 M2213.6 229.522 L2229.92 229.522 L2229.92 233.458 L2207.97 233.458 L2207.97 229.522 Q2210.64 226.768 2215.22 222.138 Q2219.83 217.485 2221.01 216.143 Q2223.25 213.62 2224.13 211.884 Q2225.03 210.124 2225.03 208.435 Q2225.03 205.68 2223.09 203.944 Q2221.17 202.208 2218.07 202.208 Q2215.87 202.208 2213.41 202.972 Q2210.98 203.735 2208.2 205.286 L2208.2 200.564 Q2211.03 199.43 2213.48 198.851 Q2215.94 198.273 2217.97 198.273 Q2223.34 198.273 2226.54 200.958 Q2229.73 203.643 2229.73 208.134 Q2229.73 210.263 2228.92 212.185 Q2228.14 214.083 2226.03 216.675 Q2225.45 217.347 2222.35 220.564 Q2219.25 223.759 2213.6 229.522 Z" fill="#000000" fill-rule="evenodd" fill-opacity="1" /><polyline clip-path="url(#clip810)" style="stroke:#ddcc77; stroke-width:4; stroke-opacity:1; fill:none" points="
  1904.6,276.658 2051.56,276.658 
  "/>
<path clip-path="url(#clip810)" d="M 0 0 M2076.05 259.378 L2105.29 259.378 L2105.29 263.313 L2093.02 263.313 L2093.02 293.938 L2088.32 293.938 L2088.32 263.313 L2076.05 263.313 L2076.05 259.378 Z" fill="#000000" fill-rule="evenodd" fill-opacity="1" /><path clip-path="url(#clip810)" d="M 0 0 M2117.81 271.993 Q2117.09 271.577 2116.24 271.391 Q2115.4 271.183 2114.39 271.183 Q2110.77 271.183 2108.83 273.544 Q2106.91 275.882 2106.91 280.28 L2106.91 293.938 L2102.63 293.938 L2102.63 268.012 L2106.91 268.012 L2106.91 272.04 Q2108.25 269.678 2110.4 268.544 Q2112.56 267.387 2115.64 267.387 Q2116.08 267.387 2116.61 267.456 Q2117.14 267.503 2117.79 267.618 L2117.81 271.993 Z" fill="#000000" fill-rule="evenodd" fill-opacity="1" /><path clip-path="url(#clip810)" d="M 0 0 M2121.84 283.706 L2121.84 268.012 L2126.1 268.012 L2126.1 283.544 Q2126.1 287.225 2127.53 289.076 Q2128.97 290.905 2131.84 290.905 Q2135.29 290.905 2137.28 288.706 Q2139.29 286.507 2139.29 282.711 L2139.29 268.012 L2143.55 268.012 L2143.55 293.938 L2139.29 293.938 L2139.29 289.956 Q2137.74 292.317 2135.68 293.475 Q2133.65 294.609 2130.94 294.609 Q2126.47 294.609 2124.15 291.831 Q2121.84 289.053 2121.84 283.706 M2132.56 267.387 L2132.56 267.387 Z" fill="#000000" fill-rule="evenodd" fill-opacity="1" /><path clip-path="url(#clip810)" d="M 0 0 M2170.2 279.91 L2170.2 281.993 L2150.61 281.993 Q2150.89 286.391 2153.25 288.706 Q2155.64 290.998 2159.87 290.998 Q2162.33 290.998 2164.62 290.396 Q2166.93 289.794 2169.2 288.59 L2169.2 292.618 Q2166.91 293.59 2164.5 294.1 Q2162.09 294.609 2159.62 294.609 Q2153.41 294.609 2149.78 290.998 Q2146.17 287.387 2146.17 281.229 Q2146.17 274.864 2149.59 271.137 Q2153.04 267.387 2158.88 267.387 Q2164.11 267.387 2167.14 270.766 Q2170.2 274.123 2170.2 279.91 M2165.94 278.66 Q2165.89 275.165 2163.97 273.081 Q2162.07 270.998 2158.92 270.998 Q2155.36 270.998 2153.21 273.012 Q2151.08 275.026 2150.75 278.683 L2165.94 278.66 Z" fill="#000000" fill-rule="evenodd" fill-opacity="1" /><polyline clip-path="url(#clip810)" style="stroke:#117733; stroke-width:4; stroke-opacity:1; fill:none" points="
  1904.6,337.138 2051.56,337.138 
  "/>
<path clip-path="url(#clip810)" d="M 0 0 M2080.73 323.7 L2080.73 336.686 L2086.61 336.686 Q2089.87 336.686 2091.65 334.996 Q2093.44 333.307 2093.44 330.182 Q2093.44 327.08 2091.65 325.39 Q2089.87 323.7 2086.61 323.7 L2080.73 323.7 M2076.05 319.858 L2086.61 319.858 Q2092.42 319.858 2095.38 322.496 Q2098.37 325.112 2098.37 330.182 Q2098.37 335.297 2095.38 337.913 Q2092.42 340.529 2086.61 340.529 L2080.73 340.529 L2080.73 354.418 L2076.05 354.418 L2076.05 319.858 Z" fill="#000000" fill-rule="evenodd" fill-opacity="1" /><path clip-path="url(#clip810)" d="M 0 0 M2117.02 332.473 Q2116.31 332.057 2115.45 331.871 Q2114.62 331.663 2113.6 331.663 Q2109.99 331.663 2108.04 334.024 Q2106.12 336.362 2106.12 340.76 L2106.12 354.418 L2101.84 354.418 L2101.84 328.492 L2106.12 328.492 L2106.12 332.52 Q2107.46 330.158 2109.62 329.024 Q2111.77 327.867 2114.85 327.867 Q2115.29 327.867 2115.82 327.936 Q2116.35 327.983 2117 328.098 L2117.02 332.473 Z" fill="#000000" fill-rule="evenodd" fill-opacity="1" /><path clip-path="url(#clip810)" d="M 0 0 M2121.49 328.492 L2125.75 328.492 L2125.75 354.418 L2121.49 354.418 L2121.49 328.492 M2121.49 318.399 L2125.75 318.399 L2125.75 323.793 L2121.49 323.793 L2121.49 318.399 Z" fill="#000000" fill-rule="evenodd" fill-opacity="1" /><path clip-path="url(#clip810)" d="M 0 0 M2140.27 331.478 Q2136.84 331.478 2134.85 334.163 Q2132.86 336.825 2132.86 341.478 Q2132.86 346.131 2134.83 348.816 Q2136.82 351.478 2140.27 351.478 Q2143.67 351.478 2145.66 348.793 Q2147.65 346.107 2147.65 341.478 Q2147.65 336.871 2145.66 334.186 Q2143.67 331.478 2140.27 331.478 M2140.27 327.867 Q2145.82 327.867 2148.99 331.478 Q2152.16 335.089 2152.16 341.478 Q2152.16 347.844 2148.99 351.478 Q2145.82 355.089 2140.27 355.089 Q2134.69 355.089 2131.52 351.478 Q2128.37 347.844 2128.37 341.478 Q2128.37 335.089 2131.52 331.478 Q2134.69 327.867 2140.27 327.867 Z" fill="#000000" fill-rule="evenodd" fill-opacity="1" /><path clip-path="url(#clip810)" d="M 0 0 M2171.65 332.473 Q2170.94 332.057 2170.08 331.871 Q2169.25 331.663 2168.23 331.663 Q2164.62 331.663 2162.67 334.024 Q2160.75 336.362 2160.75 340.76 L2160.75 354.418 L2156.47 354.418 L2156.47 328.492 L2160.75 328.492 L2160.75 332.52 Q2162.09 330.158 2164.25 329.024 Q2166.4 327.867 2169.48 327.867 Q2169.92 327.867 2170.45 327.936 Q2170.98 327.983 2171.63 328.098 L2171.65 332.473 Z" fill="#000000" fill-rule="evenodd" fill-opacity="1" /></svg>
