<?xml version="1.0" encoding="utf-8"?>
<svg xmlns="http://www.w3.org/2000/svg" xmlns:xlink="http://www.w3.org/1999/xlink" width="600" height="400" viewBox="0 0 2400 1600">
<defs>
  <clipPath id="clip770">
    <rect x="0" y="0" width="2400" height="1600"/>
  </clipPath>
</defs>
<path clip-path="url(#clip770)" d="
M0 1600 L2400 1600 L2400 0 L0 0  Z
  " fill="#ffffff" fill-rule="evenodd" fill-opacity="1"/>
<defs>
  <clipPath id="clip771">
    <rect x="480" y="0" width="1681" height="1600"/>
  </clipPath>
</defs>
<path clip-path="url(#clip770)" d="
M135.95 1486.45 L2352.76 1486.45 L2352.76 47.2441 L135.95 47.2441  Z
  " fill="#ffffff" fill-rule="evenodd" fill-opacity="1"/>
<defs>
  <clipPath id="clip772">
    <rect x="135" y="47" width="2218" height="1440"/>
  </clipPath>
</defs>
<polyline clip-path="url(#clip772)" style="stroke:#222255; stroke-width:2; stroke-opacity:0.1; fill:none" points="
  177.777,1486.45 177.777,47.2441 
  "/>
<polyline clip-path="url(#clip772)" style="stroke:#222255; stroke-width:2; stroke-opacity:0.1; fill:none" points="
  700.608,1486.45 700.608,47.2441 
  "/>
<polyline clip-path="url(#clip772)" style="stroke:#222255; stroke-width:2; stroke-opacity:0.1; fill:none" points="
  1223.44,1486.45 1223.44,47.2441 
  "/>
<polyline clip-path="url(#clip772)" style="stroke:#222255; stroke-width:2; stroke-opacity:0.1; fill:none" points="
  1746.27,1486.45 1746.27,47.2441 
  "/>
<polyline clip-path="url(#clip772)" style="stroke:#222255; stroke-width:2; stroke-opacity:0.1; fill:none" points="
  2269.1,1486.45 2269.1,47.2441 
  "/>
<polyline clip-path="url(#clip772)" style="stroke:#222255; stroke-width:2; stroke-opacity:0.05; fill:none" points="
  282.343,1486.45 282.343,47.2441 
  "/>
<polyline clip-path="url(#clip772)" style="stroke:#222255; stroke-width:2; stroke-opacity:0.05; fill:none" points="
  386.909,1486.45 386.909,47.2441 
  "/>
<polyline clip-path="url(#clip772)" style="stroke:#222255; stroke-width:2; stroke-opacity:0.05; fill:none" points="
  491.476,1486.45 491.476,47.2441 
  "/>
<polyline clip-path="url(#clip772)" style="stroke:#222255; stroke-width:2; stroke-opacity:0.05; fill:none" points="
  596.042,1486.45 596.042,47.2441 
  "/>
<polyline clip-path="url(#clip772)" style="stroke:#222255; stroke-width:2; stroke-opacity:0.05; fill:none" points="
  805.175,1486.45 805.175,47.2441 
  "/>
<polyline clip-path="url(#clip772)" style="stroke:#222255; stroke-width:2; stroke-opacity:0.05; fill:none" points="
  909.741,1486.45 909.741,47.2441 
  "/>
<polyline clip-path="url(#clip772)" style="stroke:#222255; stroke-width:2; stroke-opacity:0.05; fill:none" points="
  1014.31,1486.45 1014.31,47.2441 
  "/>
<polyline clip-path="url(#clip772)" style="stroke:#222255; stroke-width:2; stroke-opacity:0.05; fill:none" points="
  1118.87,1486.45 1118.87,47.2441 
  "/>
<polyline clip-path="url(#clip772)" style="stroke:#222255; stroke-width:2; stroke-opacity:0.05; fill:none" points="
  1328.01,1486.45 1328.01,47.2441 
  "/>
<polyline clip-path="url(#clip772)" style="stroke:#222255; stroke-width:2; stroke-opacity:0.05; fill:none" points="
  1432.57,1486.45 1432.57,47.2441 
  "/>
<polyline clip-path="url(#clip772)" style="stroke:#222255; stroke-width:2; stroke-opacity:0.05; fill:none" points="
  1537.14,1486.45 1537.14,47.2441 
  "/>
<polyline clip-path="url(#clip772)" style="stroke:#222255; stroke-width:2; stroke-opacity:0.05; fill:none" points="
  1641.71,1486.45 1641.71,47.2441 
  "/>
<polyline clip-path="url(#clip772)" style="stroke:#222255; stroke-width:2; stroke-opacity:0.05; fill:none" points="
  1850.84,1486.45 1850.84,47.2441 
  "/>
<polyline clip-path="url(#clip772)" style="stroke:#222255; stroke-width:2; stroke-opacity:0.05; fill:none" points="
  1955.4,1486.45 1955.4,47.2441 
  "/>
<polyline clip-path="url(#clip772)" style="stroke:#222255; stroke-width:2; stroke-opacity:0.05; fill:none" points="
  2059.97,1486.45 2059.97,47.2441 
  "/>
<polyline clip-path="url(#clip772)" style="stroke:#222255; stroke-width:2; stroke-opacity:0.05; fill:none" points="
  2164.54,1486.45 2164.54,47.2441 
  "/>
<polyline clip-path="url(#clip770)" style="stroke:#222255; stroke-width:4; stroke-opacity:0; fill:none" points="
  177.777,1486.45 177.777,1469.18 
  "/>
<polyline clip-path="url(#clip770)" style="stroke:#222255; stroke-width:4; stroke-opacity:0; fill:none" points="
  700.608,1486.45 700.608,1469.18 
  "/>
<polyline clip-path="url(#clip770)" style="stroke:#222255; stroke-width:4; stroke-opacity:0; fill:none" points="
  1223.44,1486.45 1223.44,1469.18 
  "/>
<polyline clip-path="url(#clip770)" style="stroke:#222255; stroke-width:4; stroke-opacity:0; fill:none" points="
  1746.27,1486.45 1746.27,1469.18 
  "/>
<polyline clip-path="url(#clip770)" style="stroke:#222255; stroke-width:4; stroke-opacity:0; fill:none" points="
  2269.1,1486.45 2269.1,1469.18 
  "/>
<polyline clip-path="url(#clip770)" style="stroke:#222255; stroke-width:4; stroke-opacity:0; fill:none" points="
  282.343,1486.45 282.343,1477.81 
  "/>
<polyline clip-path="url(#clip770)" style="stroke:#222255; stroke-width:4; stroke-opacity:0; fill:none" points="
  386.909,1486.45 386.909,1477.81 
  "/>
<polyline clip-path="url(#clip770)" style="stroke:#222255; stroke-width:4; stroke-opacity:0; fill:none" points="
  491.476,1486.45 491.476,1477.81 
  "/>
<polyline clip-path="url(#clip770)" style="stroke:#222255; stroke-width:4; stroke-opacity:0; fill:none" points="
  596.042,1486.45 596.042,1477.81 
  "/>
<polyline clip-path="url(#clip770)" style="stroke:#222255; stroke-width:4; stroke-opacity:0; fill:none" points="
  805.175,1486.45 805.175,1477.81 
  "/>
<polyline clip-path="url(#clip770)" style="stroke:#222255; stroke-width:4; stroke-opacity:0; fill:none" points="
  909.741,1486.45 909.741,1477.81 
  "/>
<polyline clip-path="url(#clip770)" style="stroke:#222255; stroke-width:4; stroke-opacity:0; fill:none" points="
  1014.31,1486.45 1014.31,1477.81 
  "/>
<polyline clip-path="url(#clip770)" style="stroke:#222255; stroke-width:4; stroke-opacity:0; fill:none" points="
  1118.87,1486.45 1118.87,1477.81 
  "/>
<polyline clip-path="url(#clip770)" style="stroke:#222255; stroke-width:4; stroke-opacity:0; fill:none" points="
  1328.01,1486.45 1328.01,1477.81 
  "/>
<polyline clip-path="url(#clip770)" style="stroke:#222255; stroke-width:4; stroke-opacity:0; fill:none" points="
  1432.57,1486.45 1432.57,1477.81 
  "/>
<polyline clip-path="url(#clip770)" style="stroke:#222255; stroke-width:4; stroke-opacity:0; fill:none" points="
  1537.14,1486.45 1537.14,1477.81 
  "/>
<polyline clip-path="url(#clip770)" style="stroke:#222255; stroke-width:4; stroke-opacity:0; fill:none" points="
  1641.71,1486.45 1641.71,1477.81 
  "/>
<polyline clip-path="url(#clip770)" style="stroke:#222255; stroke-width:4; stroke-opacity:0; fill:none" points="
  1850.84,1486.45 1850.84,1477.81 
  "/>
<polyline clip-path="url(#clip770)" style="stroke:#222255; stroke-width:4; stroke-opacity:0; fill:none" points="
  1955.4,1486.45 1955.4,1477.81 
  "/>
<polyline clip-path="url(#clip770)" style="stroke:#222255; stroke-width:4; stroke-opacity:0; fill:none" points="
  2059.97,1486.45 2059.97,1477.81 
  "/>
<polyline clip-path="url(#clip770)" style="stroke:#222255; stroke-width:4; stroke-opacity:0; fill:none" points="
  2164.54,1486.45 2164.54,1477.81 
  "/>
<path clip-path="url(#clip770)" d="M 0 0 M177.777 1515.64 Q174.166 1515.64 172.337 1519.2 Q170.531 1522.75 170.531 1529.87 Q170.531 1536.98 172.337 1540.55 Q174.166 1544.09 177.777 1544.09 Q181.411 1544.09 183.217 1540.55 Q185.045 1536.98 185.045 1529.87 Q185.045 1522.75 183.217 1519.2 Q181.411 1515.64 177.777 1515.64 M177.777 1511.93 Q183.587 1511.93 186.642 1516.54 Q189.721 1521.12 189.721 1529.87 Q189.721 1538.6 186.642 1543.21 Q183.587 1547.79 177.777 1547.79 Q171.967 1547.79 168.888 1543.21 Q165.832 1538.6 165.832 1529.87 Q165.832 1521.12 168.888 1516.54 Q171.967 1511.93 177.777 1511.93 Z" fill="#000000" fill-rule="evenodd" fill-opacity="1" /><path clip-path="url(#clip770)" d="M 0 0 M682.252 1543.18 L698.571 1543.18 L698.571 1547.12 L676.627 1547.12 L676.627 1543.18 Q679.289 1540.43 683.872 1535.8 Q688.479 1531.15 689.659 1529.81 Q691.905 1527.28 692.784 1525.55 Q693.687 1523.79 693.687 1522.1 Q693.687 1519.34 691.743 1517.61 Q689.821 1515.87 686.719 1515.87 Q684.52 1515.87 682.067 1516.63 Q679.636 1517.4 676.858 1518.95 L676.858 1514.23 Q679.682 1513.09 682.136 1512.51 Q684.59 1511.93 686.627 1511.93 Q691.997 1511.93 695.192 1514.62 Q698.386 1517.31 698.386 1521.8 Q698.386 1523.93 697.576 1525.85 Q696.789 1527.74 694.682 1530.34 Q694.104 1531.01 691.002 1534.23 Q687.9 1537.42 682.252 1543.18 Z" fill="#000000" fill-rule="evenodd" fill-opacity="1" /><path clip-path="url(#clip770)" d="M 0 0 M703.687 1512.56 L722.043 1512.56 L722.043 1516.5 L707.969 1516.5 L707.969 1524.97 Q708.988 1524.62 710.006 1524.46 Q711.025 1524.27 712.043 1524.27 Q717.83 1524.27 721.21 1527.44 Q724.59 1530.62 724.59 1536.03 Q724.59 1541.61 721.117 1544.71 Q717.645 1547.79 711.326 1547.79 Q709.15 1547.79 706.881 1547.42 Q704.636 1547.05 702.229 1546.31 L702.229 1541.61 Q704.312 1542.74 706.534 1543.3 Q708.756 1543.86 711.233 1543.86 Q715.238 1543.86 717.576 1541.75 Q719.914 1539.64 719.914 1536.03 Q719.914 1532.42 717.576 1530.31 Q715.238 1528.21 711.233 1528.21 Q709.358 1528.21 707.483 1528.62 Q705.631 1529.04 703.687 1529.92 L703.687 1512.56 Z" fill="#000000" fill-rule="evenodd" fill-opacity="1" /><path clip-path="url(#clip770)" d="M 0 0 M1200.21 1512.56 L1218.57 1512.56 L1218.57 1516.5 L1204.49 1516.5 L1204.49 1524.97 Q1205.51 1524.62 1206.53 1524.46 Q1207.55 1524.27 1208.57 1524.27 Q1214.35 1524.27 1217.73 1527.44 Q1221.11 1530.62 1221.11 1536.03 Q1221.11 1541.61 1217.64 1544.71 Q1214.17 1547.79 1207.85 1547.79 Q1205.67 1547.79 1203.41 1547.42 Q1201.16 1547.05 1198.75 1546.31 L1198.75 1541.61 Q1200.84 1542.74 1203.06 1543.3 Q1205.28 1543.86 1207.76 1543.86 Q1211.76 1543.86 1214.1 1541.75 Q1216.44 1539.64 1216.44 1536.03 Q1216.44 1532.42 1214.1 1530.31 Q1211.76 1528.21 1207.76 1528.21 Q1205.88 1528.21 1204.01 1528.62 Q1202.16 1529.04 1200.21 1529.92 L1200.21 1512.56 Z" fill="#000000" fill-rule="evenodd" fill-opacity="1" /><path clip-path="url(#clip770)" d="M 0 0 M1236.18 1515.64 Q1232.57 1515.64 1230.74 1519.2 Q1228.94 1522.75 1228.94 1529.87 Q1228.94 1536.98 1230.74 1540.55 Q1232.57 1544.09 1236.18 1544.09 Q1239.82 1544.09 1241.62 1540.55 Q1243.45 1536.98 1243.45 1529.87 Q1243.45 1522.75 1241.62 1519.2 Q1239.82 1515.64 1236.18 1515.64 M1236.18 1511.93 Q1241.99 1511.93 1245.05 1516.54 Q1248.13 1521.12 1248.13 1529.87 Q1248.13 1538.6 1245.05 1543.21 Q1241.99 1547.79 1236.18 1547.79 Q1230.37 1547.79 1227.29 1543.21 Q1224.24 1538.6 1224.24 1529.87 Q1224.24 1521.12 1227.29 1516.54 Q1230.37 1511.93 1236.18 1511.93 Z" fill="#000000" fill-rule="evenodd" fill-opacity="1" /><path clip-path="url(#clip770)" d="M 0 0 M1722.15 1512.56 L1744.37 1512.56 L1744.37 1514.55 L1731.83 1547.12 L1726.94 1547.12 L1738.75 1516.5 L1722.15 1516.5 L1722.15 1512.56 Z" fill="#000000" fill-rule="evenodd" fill-opacity="1" /><path clip-path="url(#clip770)" d="M 0 0 M1749.49 1512.56 L1767.85 1512.56 L1767.85 1516.5 L1753.77 1516.5 L1753.77 1524.97 Q1754.79 1524.62 1755.81 1524.46 Q1756.83 1524.27 1757.85 1524.27 Q1763.63 1524.27 1767.01 1527.44 Q1770.39 1530.62 1770.39 1536.03 Q1770.39 1541.61 1766.92 1544.71 Q1763.45 1547.79 1757.13 1547.79 Q1754.95 1547.79 1752.68 1547.42 Q1750.44 1547.05 1748.03 1546.31 L1748.03 1541.61 Q1750.11 1542.74 1752.34 1543.3 Q1754.56 1543.86 1757.04 1543.86 Q1761.04 1543.86 1763.38 1541.75 Q1765.72 1539.64 1765.72 1536.03 Q1765.72 1532.42 1763.38 1530.31 Q1761.04 1528.21 1757.04 1528.21 Q1755.16 1528.21 1753.29 1528.62 Q1751.43 1529.04 1749.49 1529.92 L1749.49 1512.56 Z" fill="#000000" fill-rule="evenodd" fill-opacity="1" /><path clip-path="url(#clip770)" d="M 0 0 M2232.47 1543.18 L2240.11 1543.18 L2240.11 1516.82 L2231.8 1518.49 L2231.8 1514.23 L2240.06 1512.56 L2244.74 1512.56 L2244.74 1543.18 L2252.38 1543.18 L2252.38 1547.12 L2232.47 1547.12 L2232.47 1543.18 Z" fill="#000000" fill-rule="evenodd" fill-opacity="1" /><path clip-path="url(#clip770)" d="M 0 0 M2267.45 1515.64 Q2263.84 1515.64 2262.01 1519.2 Q2260.2 1522.75 2260.2 1529.87 Q2260.2 1536.98 2262.01 1540.55 Q2263.84 1544.09 2267.45 1544.09 Q2271.08 1544.09 2272.89 1540.55 Q2274.72 1536.98 2274.72 1529.87 Q2274.72 1522.75 2272.89 1519.2 Q2271.08 1515.64 2267.45 1515.64 M2267.45 1511.93 Q2273.26 1511.93 2276.31 1516.54 Q2279.39 1521.12 2279.39 1529.87 Q2279.39 1538.6 2276.31 1543.21 Q2273.26 1547.79 2267.45 1547.79 Q2261.64 1547.79 2258.56 1543.21 Q2255.5 1538.6 2255.5 1529.87 Q2255.5 1521.12 2258.56 1516.54 Q2261.64 1511.93 2267.45 1511.93 Z" fill="#000000" fill-rule="evenodd" fill-opacity="1" /><path clip-path="url(#clip770)" d="M 0 0 M2294.46 1515.64 Q2290.85 1515.64 2289.02 1519.2 Q2287.22 1522.75 2287.22 1529.87 Q2287.22 1536.98 2289.02 1540.55 Q2290.85 1544.09 2294.46 1544.09 Q2298.1 1544.09 2299.9 1540.55 Q2301.73 1536.98 2301.73 1529.87 Q2301.73 1522.75 2299.9 1519.2 Q2298.1 1515.64 2294.46 1515.64 M2294.46 1511.93 Q2300.27 1511.93 2303.33 1516.54 Q2306.41 1521.12 2306.41 1529.87 Q2306.41 1538.6 2303.33 1543.21 Q2300.27 1547.79 2294.46 1547.79 Q2288.65 1547.79 2285.57 1543.21 Q2282.52 1538.6 2282.52 1529.87 Q2282.52 1521.12 2285.57 1516.54 Q2288.65 1511.93 2294.46 1511.93 Z" fill="#000000" fill-rule="evenodd" fill-opacity="1" /><polyline clip-path="url(#clip772)" style="stroke:#222255; stroke-width:2; stroke-opacity:0.1; fill:none" points="
  135.95,1462.06 2352.76,1462.06 
  "/>
<polyline clip-path="url(#clip772)" style="stroke:#222255; stroke-width:2; stroke-opacity:0.1; fill:none" points="
  135.95,1120 2352.76,1120 
  "/>
<polyline clip-path="url(#clip772)" style="stroke:#222255; stroke-width:2; stroke-opacity:0.1; fill:none" points="
  135.95,777.945 2352.76,777.945 
  "/>
<polyline clip-path="url(#clip772)" style="stroke:#222255; stroke-width:2; stroke-opacity:0.1; fill:none" points="
  135.95,435.886 2352.76,435.886 
  "/>
<polyline clip-path="url(#clip772)" style="stroke:#222255; stroke-width:2; stroke-opacity:0.1; fill:none" points="
  135.95,93.828 2352.76,93.828 
  "/>
<polyline clip-path="url(#clip772)" style="stroke:#222255; stroke-width:2; stroke-opacity:0.05; fill:none" points="
  135.95,1393.65 2352.76,1393.65 
  "/>
<polyline clip-path="url(#clip772)" style="stroke:#222255; stroke-width:2; stroke-opacity:0.05; fill:none" points="
  135.95,1325.24 2352.76,1325.24 
  "/>
<polyline clip-path="url(#clip772)" style="stroke:#222255; stroke-width:2; stroke-opacity:0.05; fill:none" points="
  135.95,1256.83 2352.76,1256.83 
  "/>
<polyline clip-path="url(#clip772)" style="stroke:#222255; stroke-width:2; stroke-opacity:0.05; fill:none" points="
  135.95,1188.42 2352.76,1188.42 
  "/>
<polyline clip-path="url(#clip772)" style="stroke:#222255; stroke-width:2; stroke-opacity:0.05; fill:none" points="
  135.95,1051.59 2352.76,1051.59 
  "/>
<polyline clip-path="url(#clip772)" style="stroke:#222255; stroke-width:2; stroke-opacity:0.05; fill:none" points="
  135.95,983.18 2352.76,983.18 
  "/>
<polyline clip-path="url(#clip772)" style="stroke:#222255; stroke-width:2; stroke-opacity:0.05; fill:none" points="
  135.95,914.768 2352.76,914.768 
  "/>
<polyline clip-path="url(#clip772)" style="stroke:#222255; stroke-width:2; stroke-opacity:0.05; fill:none" points="
  135.95,846.357 2352.76,846.357 
  "/>
<polyline clip-path="url(#clip772)" style="stroke:#222255; stroke-width:2; stroke-opacity:0.05; fill:none" points="
  135.95,709.533 2352.76,709.533 
  "/>
<polyline clip-path="url(#clip772)" style="stroke:#222255; stroke-width:2; stroke-opacity:0.05; fill:none" points="
  135.95,641.122 2352.76,641.122 
  "/>
<polyline clip-path="url(#clip772)" style="stroke:#222255; stroke-width:2; stroke-opacity:0.05; fill:none" points="
  135.95,572.71 2352.76,572.71 
  "/>
<polyline clip-path="url(#clip772)" style="stroke:#222255; stroke-width:2; stroke-opacity:0.05; fill:none" points="
  135.95,504.298 2352.76,504.298 
  "/>
<polyline clip-path="url(#clip772)" style="stroke:#222255; stroke-width:2; stroke-opacity:0.05; fill:none" points="
  135.95,367.475 2352.76,367.475 
  "/>
<polyline clip-path="url(#clip772)" style="stroke:#222255; stroke-width:2; stroke-opacity:0.05; fill:none" points="
  135.95,299.063 2352.76,299.063 
  "/>
<polyline clip-path="url(#clip772)" style="stroke:#222255; stroke-width:2; stroke-opacity:0.05; fill:none" points="
  135.95,230.651 2352.76,230.651 
  "/>
<polyline clip-path="url(#clip772)" style="stroke:#222255; stroke-width:2; stroke-opacity:0.05; fill:none" points="
  135.95,162.24 2352.76,162.24 
  "/>
<polyline clip-path="url(#clip770)" style="stroke:#222255; stroke-width:4; stroke-opacity:0; fill:none" points="
  135.95,1462.06 162.552,1462.06 
  "/>
<polyline clip-path="url(#clip770)" style="stroke:#222255; stroke-width:4; stroke-opacity:0; fill:none" points="
  135.95,1120 162.552,1120 
  "/>
<polyline clip-path="url(#clip770)" style="stroke:#222255; stroke-width:4; stroke-opacity:0; fill:none" points="
  135.95,777.945 162.552,777.945 
  "/>
<polyline clip-path="url(#clip770)" style="stroke:#222255; stroke-width:4; stroke-opacity:0; fill:none" points="
  135.95,435.886 162.552,435.886 
  "/>
<polyline clip-path="url(#clip770)" style="stroke:#222255; stroke-width:4; stroke-opacity:0; fill:none" points="
  135.95,93.828 162.552,93.828 
  "/>
<polyline clip-path="url(#clip770)" style="stroke:#222255; stroke-width:4; stroke-opacity:0; fill:none" points="
  135.95,1393.65 149.251,1393.65 
  "/>
<polyline clip-path="url(#clip770)" style="stroke:#222255; stroke-width:4; stroke-opacity:0; fill:none" points="
  135.95,1325.24 149.251,1325.24 
  "/>
<polyline clip-path="url(#clip770)" style="stroke:#222255; stroke-width:4; stroke-opacity:0; fill:none" points="
  135.95,1256.83 149.251,1256.83 
  "/>
<polyline clip-path="url(#clip770)" style="stroke:#222255; stroke-width:4; stroke-opacity:0; fill:none" points="
  135.95,1188.42 149.251,1188.42 
  "/>
<polyline clip-path="url(#clip770)" style="stroke:#222255; stroke-width:4; stroke-opacity:0; fill:none" points="
  135.95,1051.59 149.251,1051.59 
  "/>
<polyline clip-path="url(#clip770)" style="stroke:#222255; stroke-width:4; stroke-opacity:0; fill:none" points="
  135.95,983.18 149.251,983.18 
  "/>
<polyline clip-path="url(#clip770)" style="stroke:#222255; stroke-width:4; stroke-opacity:0; fill:none" points="
  135.95,914.768 149.251,914.768 
  "/>
<polyline clip-path="url(#clip770)" style="stroke:#222255; stroke-width:4; stroke-opacity:0; fill:none" points="
  135.95,846.357 149.251,846.357 
  "/>
<polyline clip-path="url(#clip770)" style="stroke:#222255; stroke-width:4; stroke-opacity:0; fill:none" points="
  135.95,709.533 149.251,709.533 
  "/>
<polyline clip-path="url(#clip770)" style="stroke:#222255; stroke-width:4; stroke-opacity:0; fill:none" points="
  135.95,641.122 149.251,641.122 
  "/>
<polyline clip-path="url(#clip770)" style="stroke:#222255; stroke-width:4; stroke-opacity:0; fill:none" points="
  135.95,572.71 149.251,572.71 
  "/>
<polyline clip-path="url(#clip770)" style="stroke:#222255; stroke-width:4; stroke-opacity:0; fill:none" points="
  135.95,504.298 149.251,504.298 
  "/>
<polyline clip-path="url(#clip770)" style="stroke:#222255; stroke-width:4; stroke-opacity:0; fill:none" points="
  135.95,367.475 149.251,367.475 
  "/>
<polyline clip-path="url(#clip770)" style="stroke:#222255; stroke-width:4; stroke-opacity:0; fill:none" points="
  135.95,299.063 149.251,299.063 
  "/>
<polyline clip-path="url(#clip770)" style="stroke:#222255; stroke-width:4; stroke-opacity:0; fill:none" points="
  135.95,230.651 149.251,230.651 
  "/>
<polyline clip-path="url(#clip770)" style="stroke:#222255; stroke-width:4; stroke-opacity:0; fill:none" points="
  135.95,162.24 149.251,162.24 
  "/>
<path clip-path="url(#clip770)" d="M 0 0 M88.0058 1447.86 Q84.3947 1447.86 82.566 1451.43 Q80.7605 1454.97 80.7605 1462.1 Q80.7605 1469.2 82.566 1472.77 Q84.3947 1476.31 88.0058 1476.31 Q91.6401 1476.31 93.4456 1472.77 Q95.2743 1469.2 95.2743 1462.1 Q95.2743 1454.97 93.4456 1451.43 Q91.6401 1447.86 88.0058 1447.86 M88.0058 1444.16 Q93.816 1444.16 96.8715 1448.76 Q99.9502 1453.35 99.9502 1462.1 Q99.9502 1470.82 96.8715 1475.43 Q93.816 1480.01 88.0058 1480.01 Q82.1957 1480.01 79.117 1475.43 Q76.0614 1470.82 76.0614 1462.1 Q76.0614 1453.35 79.117 1448.76 Q82.1957 1444.16 88.0058 1444.16 Z" fill="#000000" fill-rule="evenodd" fill-opacity="1" /><path clip-path="url(#clip770)" d="M 0 0 M79.0475 1102.72 L97.4039 1102.72 L97.4039 1106.66 L83.3299 1106.66 L83.3299 1115.13 Q84.3484 1114.78 85.3669 1114.62 Q86.3855 1114.44 87.404 1114.44 Q93.191 1114.44 96.5706 1117.61 Q99.9502 1120.78 99.9502 1126.2 Q99.9502 1131.77 96.478 1134.88 Q93.0058 1137.95 86.6864 1137.95 Q84.5105 1137.95 82.242 1137.58 Q79.9966 1137.21 77.5892 1136.47 L77.5892 1131.77 Q79.6725 1132.91 81.8947 1133.46 Q84.1169 1134.02 86.5938 1134.02 Q90.5984 1134.02 92.9363 1131.91 Q95.2743 1129.81 95.2743 1126.2 Q95.2743 1122.58 92.9363 1120.48 Q90.5984 1118.37 86.5938 1118.37 Q84.7188 1118.37 82.8438 1118.79 Q80.992 1119.2 79.0475 1120.08 L79.0475 1102.72 Z" fill="#000000" fill-rule="evenodd" fill-opacity="1" /><path clip-path="url(#clip770)" d="M 0 0 M53.0292 791.29 L60.668 791.29 L60.668 764.924 L52.3579 766.591 L52.3579 762.332 L60.6217 760.665 L65.2976 760.665 L65.2976 791.29 L72.9365 791.29 L72.9365 795.225 L53.0292 795.225 L53.0292 791.29 Z" fill="#000000" fill-rule="evenodd" fill-opacity="1" /><path clip-path="url(#clip770)" d="M 0 0 M88.0058 763.744 Q84.3947 763.744 82.566 767.308 Q80.7605 770.85 80.7605 777.98 Q80.7605 785.086 82.566 788.651 Q84.3947 792.193 88.0058 792.193 Q91.6401 792.193 93.4456 788.651 Q95.2743 785.086 95.2743 777.98 Q95.2743 770.85 93.4456 767.308 Q91.6401 763.744 88.0058 763.744 M88.0058 760.04 Q93.816 760.04 96.8715 764.646 Q99.9502 769.23 99.9502 777.98 Q99.9502 786.706 96.8715 791.313 Q93.816 795.896 88.0058 795.896 Q82.1957 795.896 79.117 791.313 Q76.0614 786.706 76.0614 777.98 Q76.0614 769.23 79.117 764.646 Q82.1957 760.04 88.0058 760.04 Z" fill="#000000" fill-rule="evenodd" fill-opacity="1" /><path clip-path="url(#clip770)" d="M 0 0 M54.0245 449.231 L61.6634 449.231 L61.6634 422.866 L53.3532 424.532 L53.3532 420.273 L61.6171 418.606 L66.293 418.606 L66.293 449.231 L73.9318 449.231 L73.9318 453.166 L54.0245 453.166 L54.0245 449.231 Z" fill="#000000" fill-rule="evenodd" fill-opacity="1" /><path clip-path="url(#clip770)" d="M 0 0 M79.0475 418.606 L97.4039 418.606 L97.4039 422.542 L83.3299 422.542 L83.3299 431.014 Q84.3484 430.667 85.3669 430.505 Q86.3855 430.319 87.404 430.319 Q93.191 430.319 96.5706 433.491 Q99.9502 436.662 99.9502 442.079 Q99.9502 447.657 96.478 450.759 Q93.0058 453.838 86.6864 453.838 Q84.5105 453.838 82.242 453.467 Q79.9966 453.097 77.5892 452.356 L77.5892 447.657 Q79.6725 448.792 81.8947 449.347 Q84.1169 449.903 86.5938 449.903 Q90.5984 449.903 92.9363 447.796 Q95.2743 445.69 95.2743 442.079 Q95.2743 438.467 92.9363 436.361 Q90.5984 434.255 86.5938 434.255 Q84.7188 434.255 82.8438 434.671 Q80.992 435.088 79.0475 435.968 L79.0475 418.606 Z" fill="#000000" fill-rule="evenodd" fill-opacity="1" /><path clip-path="url(#clip770)" d="M 0 0 M56.6171 107.173 L72.9365 107.173 L72.9365 111.108 L50.9921 111.108 L50.9921 107.173 Q53.6541 104.418 58.2375 99.7886 Q62.8439 95.1359 64.0245 93.7933 Q66.2698 91.2701 67.1494 89.534 Q68.0522 87.7748 68.0522 86.085 Q68.0522 83.3304 66.1078 81.5943 Q64.1865 79.8582 61.0847 79.8582 Q58.8856 79.8582 56.4319 80.6221 Q54.0014 81.3859 51.2236 82.9369 L51.2236 78.2147 Q54.0477 77.0804 56.5014 76.5017 Q58.955 75.923 60.9921 75.923 Q66.3624 75.923 69.5568 78.6082 Q72.7513 81.2933 72.7513 85.7841 Q72.7513 87.9137 71.9411 89.835 Q71.1541 91.7331 69.0476 94.3257 Q68.4689 94.997 65.367 98.2146 Q62.2652 101.409 56.6171 107.173 Z" fill="#000000" fill-rule="evenodd" fill-opacity="1" /><path clip-path="url(#clip770)" d="M 0 0 M88.0058 79.6267 Q84.3947 79.6267 82.566 83.1915 Q80.7605 86.7331 80.7605 93.8627 Q80.7605 100.969 82.566 104.534 Q84.3947 108.076 88.0058 108.076 Q91.6401 108.076 93.4456 104.534 Q95.2743 100.969 95.2743 93.8627 Q95.2743 86.7331 93.4456 83.1915 Q91.6401 79.6267 88.0058 79.6267 M88.0058 75.923 Q93.816 75.923 96.8715 80.5295 Q99.9502 85.1128 99.9502 93.8627 Q99.9502 102.59 96.8715 107.196 Q93.816 111.779 88.0058 111.779 Q82.1957 111.779 79.117 107.196 Q76.0614 102.59 76.0614 93.8627 Q76.0614 85.1128 79.117 80.5295 Q82.1957 75.923 88.0058 75.923 Z" fill="#000000" fill-rule="evenodd" fill-opacity="1" /><polyline clip-path="url(#clip772)" style="stroke:#cc6677; stroke-width:4.8; stroke-opacity:1; fill:none" points="
  198.69,87.9763 219.603,94.9429 240.517,102.115 261.43,109.514 282.343,117.158 303.256,125.065 324.17,133.254 345.083,141.742 365.996,150.546 386.909,159.681 
  407.823,169.161 428.736,179.001 449.649,189.213 470.562,199.81 491.476,210.802 512.389,222.199 533.302,234.009 554.215,246.239 575.129,258.897 596.042,271.986 
  616.955,285.509 637.868,299.47 658.782,313.869 679.695,328.705 700.608,343.975 721.522,359.677 742.435,375.805 763.348,392.352 784.261,409.31 805.175,426.67 
  826.088,444.42 847.001,462.547 867.914,481.038 888.828,499.877 909.741,519.047 930.654,538.529 951.567,558.304 972.481,578.351 993.394,598.647 1014.31,619.17 
  1035.22,639.895 1056.13,660.796 1077.05,681.848 1097.96,703.023 1118.87,724.293 1139.79,745.631 1160.7,767.008 1181.61,788.394 1202.53,809.76 1223.44,831.077 
  1244.35,852.315 1265.27,873.445 1286.18,894.437 1307.09,915.263 1328.01,935.895 1348.92,956.305 1369.83,976.466 1390.75,996.351 1411.66,1015.94 1432.57,1035.2 
  1453.49,1054.11 1474.4,1072.66 1495.31,1090.81 1516.23,1108.56 1537.14,1125.88 1558.05,1142.76 1578.97,1159.19 1599.88,1175.14 1620.79,1190.61 1641.71,1205.6 
  1662.62,1220.08 1683.53,1234.07 1704.44,1247.54 1725.36,1260.5 1746.27,1272.95 1767.18,1284.89 1788.1,1296.32 1809.01,1307.24 1829.92,1317.66 1850.84,1327.58 
  1871.75,1337.01 1892.66,1345.96 1913.58,1354.44 1934.49,1362.45 1955.4,1370.02 1976.32,1377.15 1997.23,1383.86 2018.14,1390.16 2039.06,1396.06 2059.97,1401.57 
  2080.88,1406.72 2101.8,1411.52 2122.71,1415.99 2143.62,1420.13 2164.54,1423.97 2185.45,1427.52 2206.36,1430.8 2227.28,1433.81 2248.19,1436.59 2269.1,1439.13 
  2290.02,1441.46 
  "/>
<polyline clip-path="url(#clip772)" style="stroke:#332288; stroke-width:4.8; stroke-opacity:1; fill:none" points="
  198.69,90.677 219.603,105.157 240.517,119.145 261.43,132.692 282.343,145.845 303.256,158.651 324.17,171.154 345.083,183.398 365.996,195.423 386.909,207.269 
  407.823,218.975 428.736,230.577 449.649,242.112 470.562,253.614 491.476,265.115 512.389,276.648 533.302,288.243 554.215,299.929 575.129,311.734 596.042,323.684 
  616.955,335.806 637.868,348.121 658.782,360.653 679.695,373.423 700.608,386.448 721.522,399.748 742.435,413.337 763.348,427.231 784.261,441.44 805.175,455.976 
  826.088,470.848 847.001,486.062 867.914,501.623 888.828,517.534 909.741,533.796 930.654,550.407 951.567,567.363 972.481,584.66 993.394,602.29 1014.31,620.242 
  1035.22,638.506 1056.13,657.067 1077.05,675.91 1097.96,695.016 1118.87,714.366 1139.79,733.939 1160.7,753.711 1181.61,773.657 1202.53,793.751 1223.44,813.965 
  1244.35,834.27 1265.27,854.636 1286.18,875.031 1307.09,895.425 1328.01,915.783 1348.92,936.074 1369.83,956.263 1390.75,976.319 1411.66,996.206 1432.57,1015.89 
  1453.49,1035.35 1474.4,1054.54 1495.31,1073.44 1516.23,1092.01 1537.14,1110.22 1558.05,1128.06 1578.97,1145.5 1599.88,1162.5 1620.79,1179.05 1641.71,1195.13 
  1662.62,1210.73 1683.53,1225.81 1704.44,1240.38 1725.36,1254.42 1746.27,1267.92 1767.18,1280.88 1788.1,1293.29 1809.01,1305.14 1829.92,1316.44 1850.84,1327.19 
  1871.75,1337.39 1892.66,1347.05 1913.58,1356.18 1934.49,1364.78 1955.4,1372.87 1976.32,1380.46 1997.23,1387.57 2018.14,1394.2 2039.06,1400.38 2059.97,1406.12 
  2080.88,1411.45 2101.8,1416.37 2122.71,1420.9 2143.62,1425.08 2164.54,1428.91 2185.45,1432.41 2206.36,1435.61 2227.28,1438.52 2248.19,1441.16 2269.1,1443.56 
  2290.02,1445.72 
  "/>
<path clip-path="url(#clip770)" d="
M1938.41 276.658 L2278.86 276.658 L2278.86 95.2176 L1938.41 95.2176  Z
  " fill="#ffffff" fill-rule="evenodd" fill-opacity="0.9"/>
<polyline clip-path="url(#clip770)" style="stroke:#222255; stroke-width:4; stroke-opacity:0.1; fill:none" points="
  1938.41,276.658 2278.86,276.658 2278.86,95.2176 1938.41,95.2176 1938.41,276.658 
  "/>
<polyline clip-path="url(#clip770)" style="stroke:#cc6677; stroke-width:4; stroke-opacity:1; fill:none" points="
  1963.04,155.698 2110.83,155.698 
  "/>
<path clip-path="url(#clip770)" d="M 0 0 M2135.46 138.418 L2164.69 138.418 L2164.69 142.353 L2152.42 142.353 L2152.42 172.978 L2147.73 172.978 L2147.73 142.353 L2135.46 142.353 L2135.46 138.418 Z" fill="#000000" fill-rule="evenodd" fill-opacity="1" /><path clip-path="url(#clip770)" d="M 0 0 M2177.22 151.033 Q2176.5 150.617 2175.64 150.431 Q2174.81 150.223 2173.79 150.223 Q2170.18 150.223 2168.23 152.584 Q2166.31 154.922 2166.31 159.32 L2166.31 172.978 L2162.03 172.978 L2162.03 147.052 L2166.31 147.052 L2166.31 151.08 Q2167.66 148.718 2169.81 147.584 Q2171.96 146.427 2175.04 146.427 Q2175.48 146.427 2176.01 146.496 Q2176.54 146.543 2177.19 146.658 L2177.22 151.033 Z" fill="#000000" fill-rule="evenodd" fill-opacity="1" /><path clip-path="url(#clip770)" d="M 0 0 M2181.24 162.746 L2181.24 147.052 L2185.5 147.052 L2185.5 162.584 Q2185.5 166.265 2186.94 168.116 Q2188.37 169.945 2191.24 169.945 Q2194.69 169.945 2196.68 167.746 Q2198.7 165.547 2198.7 161.751 L2198.7 147.052 L2202.96 147.052 L2202.96 172.978 L2198.7 172.978 L2198.7 168.996 Q2197.15 171.357 2195.09 172.515 Q2193.05 173.649 2190.34 173.649 Q2185.87 173.649 2183.56 170.871 Q2181.24 168.093 2181.24 162.746 M2191.96 146.427 L2191.96 146.427 Z" fill="#000000" fill-rule="evenodd" fill-opacity="1" /><path clip-path="url(#clip770)" d="M 0 0 M2229.6 158.95 L2229.6 161.033 L2210.02 161.033 Q2210.29 165.431 2212.66 167.746 Q2215.04 170.038 2219.28 170.038 Q2221.73 170.038 2224.02 169.436 Q2226.34 168.834 2228.6 167.63 L2228.6 171.658 Q2226.31 172.63 2223.91 173.14 Q2221.5 173.649 2219.02 173.649 Q2212.82 173.649 2209.18 170.038 Q2205.57 166.427 2205.57 160.269 Q2205.57 153.904 2209 150.177 Q2212.45 146.427 2218.28 146.427 Q2223.51 146.427 2226.54 149.806 Q2229.6 153.163 2229.6 158.95 M2225.34 157.7 Q2225.29 154.205 2223.37 152.121 Q2221.48 150.038 2218.33 150.038 Q2214.76 150.038 2212.61 152.052 Q2210.48 154.066 2210.16 157.723 L2225.34 157.7 Z" fill="#000000" fill-rule="evenodd" fill-opacity="1" /><polyline clip-path="url(#clip770)" style="stroke:#332288; stroke-width:4; stroke-opacity:1; fill:none" points="
  1963.04,216.178 2110.83,216.178 
  "/>
<path clip-path="url(#clip770)" d="M 0 0 M2135.46 198.898 L2142.42 198.898 L2151.24 222.416 L2160.11 198.898 L2167.08 198.898 L2167.08 233.458 L2162.52 233.458 L2162.52 203.11 L2153.61 226.814 L2148.91 226.814 L2139.99 203.11 L2139.99 233.458 L2135.46 233.458 L2135.46 198.898 Z" fill="#000000" fill-rule="evenodd" fill-opacity="1" /><path clip-path="url(#clip770)" d="M 0 0 M2171.73 198.898 L2176.41 198.898 L2176.41 229.522 L2193.23 229.522 L2193.23 233.458 L2171.73 233.458 L2171.73 198.898 Z" fill="#000000" fill-rule="evenodd" fill-opacity="1" /><path clip-path="url(#clip770)" d="M 0 0 M2197.89 198.898 L2219.74 198.898 L2219.74 202.833 L2202.56 202.833 L2202.56 213.064 L2219.02 213.064 L2219.02 216.999 L2202.56 216.999 L2202.56 229.522 L2220.16 229.522 L2220.16 233.458 L2197.89 233.458 L2197.89 198.898 Z" fill="#000000" fill-rule="evenodd" fill-opacity="1" /></svg>
