<?xml version="1.0" encoding="utf-8"?>
<svg xmlns="http://www.w3.org/2000/svg" xmlns:xlink="http://www.w3.org/1999/xlink" width="600" height="400" viewBox="0 0 2400 1600">
<defs>
  <clipPath id="clip730">
    <rect x="0" y="0" width="2400" height="1600"/>
  </clipPath>
</defs>
<path clip-path="url(#clip730)" d="
M0 1600 L2400 1600 L2400 0 L0 0  Z
  " fill="#ffffff" fill-rule="evenodd" fill-opacity="1"/>
<defs>
  <clipPath id="clip731">
    <rect x="480" y="0" width="1681" height="1600"/>
  </clipPath>
</defs>
<path clip-path="url(#clip730)" d="
M161.598 1486.45 L2352.76 1486.45 L2352.76 47.2441 L161.598 47.2441  Z
  " fill="#ffffff" fill-rule="evenodd" fill-opacity="1"/>
<defs>
  <clipPath id="clip732">
    <rect x="161" y="47" width="2192" height="1440"/>
  </clipPath>
</defs>
<polyline clip-path="url(#clip732)" style="stroke:#222255; stroke-width:2; stroke-opacity:0.1; fill:none" points="
  282.116,1486.45 282.116,47.2441 
  "/>
<polyline clip-path="url(#clip732)" style="stroke:#222255; stroke-width:2; stroke-opacity:0.1; fill:none" points="
  769.646,1486.45 769.646,47.2441 
  "/>
<polyline clip-path="url(#clip732)" style="stroke:#222255; stroke-width:2; stroke-opacity:0.1; fill:none" points="
  1257.18,1486.45 1257.18,47.2441 
  "/>
<polyline clip-path="url(#clip732)" style="stroke:#222255; stroke-width:2; stroke-opacity:0.1; fill:none" points="
  1744.71,1486.45 1744.71,47.2441 
  "/>
<polyline clip-path="url(#clip732)" style="stroke:#222255; stroke-width:2; stroke-opacity:0.1; fill:none" points="
  2232.24,1486.45 2232.24,47.2441 
  "/>
<polyline clip-path="url(#clip732)" style="stroke:#222255; stroke-width:2; stroke-opacity:0.05; fill:none" points="
  184.61,1486.45 184.61,47.2441 
  "/>
<polyline clip-path="url(#clip732)" style="stroke:#222255; stroke-width:2; stroke-opacity:0.05; fill:none" points="
  379.622,1486.45 379.622,47.2441 
  "/>
<polyline clip-path="url(#clip732)" style="stroke:#222255; stroke-width:2; stroke-opacity:0.05; fill:none" points="
  477.128,1486.45 477.128,47.2441 
  "/>
<polyline clip-path="url(#clip732)" style="stroke:#222255; stroke-width:2; stroke-opacity:0.05; fill:none" points="
  574.634,1486.45 574.634,47.2441 
  "/>
<polyline clip-path="url(#clip732)" style="stroke:#222255; stroke-width:2; stroke-opacity:0.05; fill:none" points="
  672.14,1486.45 672.14,47.2441 
  "/>
<polyline clip-path="url(#clip732)" style="stroke:#222255; stroke-width:2; stroke-opacity:0.05; fill:none" points="
  867.153,1486.45 867.153,47.2441 
  "/>
<polyline clip-path="url(#clip732)" style="stroke:#222255; stroke-width:2; stroke-opacity:0.05; fill:none" points="
  964.659,1486.45 964.659,47.2441 
  "/>
<polyline clip-path="url(#clip732)" style="stroke:#222255; stroke-width:2; stroke-opacity:0.05; fill:none" points="
  1062.16,1486.45 1062.16,47.2441 
  "/>
<polyline clip-path="url(#clip732)" style="stroke:#222255; stroke-width:2; stroke-opacity:0.05; fill:none" points="
  1159.67,1486.45 1159.67,47.2441 
  "/>
<polyline clip-path="url(#clip732)" style="stroke:#222255; stroke-width:2; stroke-opacity:0.05; fill:none" points="
  1354.68,1486.45 1354.68,47.2441 
  "/>
<polyline clip-path="url(#clip732)" style="stroke:#222255; stroke-width:2; stroke-opacity:0.05; fill:none" points="
  1452.19,1486.45 1452.19,47.2441 
  "/>
<polyline clip-path="url(#clip732)" style="stroke:#222255; stroke-width:2; stroke-opacity:0.05; fill:none" points="
  1549.7,1486.45 1549.7,47.2441 
  "/>
<polyline clip-path="url(#clip732)" style="stroke:#222255; stroke-width:2; stroke-opacity:0.05; fill:none" points="
  1647.2,1486.45 1647.2,47.2441 
  "/>
<polyline clip-path="url(#clip732)" style="stroke:#222255; stroke-width:2; stroke-opacity:0.05; fill:none" points="
  1842.21,1486.45 1842.21,47.2441 
  "/>
<polyline clip-path="url(#clip732)" style="stroke:#222255; stroke-width:2; stroke-opacity:0.05; fill:none" points="
  1939.72,1486.45 1939.72,47.2441 
  "/>
<polyline clip-path="url(#clip732)" style="stroke:#222255; stroke-width:2; stroke-opacity:0.05; fill:none" points="
  2037.23,1486.45 2037.23,47.2441 
  "/>
<polyline clip-path="url(#clip732)" style="stroke:#222255; stroke-width:2; stroke-opacity:0.05; fill:none" points="
  2134.73,1486.45 2134.73,47.2441 
  "/>
<polyline clip-path="url(#clip732)" style="stroke:#222255; stroke-width:2; stroke-opacity:0.05; fill:none" points="
  2329.74,1486.45 2329.74,47.2441 
  "/>
<polyline clip-path="url(#clip730)" style="stroke:#222255; stroke-width:4; stroke-opacity:0; fill:none" points="
  282.116,1486.45 282.116,1469.18 
  "/>
<polyline clip-path="url(#clip730)" style="stroke:#222255; stroke-width:4; stroke-opacity:0; fill:none" points="
  769.646,1486.45 769.646,1469.18 
  "/>
<polyline clip-path="url(#clip730)" style="stroke:#222255; stroke-width:4; stroke-opacity:0; fill:none" points="
  1257.18,1486.45 1257.18,1469.18 
  "/>
<polyline clip-path="url(#clip730)" style="stroke:#222255; stroke-width:4; stroke-opacity:0; fill:none" points="
  1744.71,1486.45 1744.71,1469.18 
  "/>
<polyline clip-path="url(#clip730)" style="stroke:#222255; stroke-width:4; stroke-opacity:0; fill:none" points="
  2232.24,1486.45 2232.24,1469.18 
  "/>
<polyline clip-path="url(#clip730)" style="stroke:#222255; stroke-width:4; stroke-opacity:0; fill:none" points="
  184.61,1486.45 184.61,1477.81 
  "/>
<polyline clip-path="url(#clip730)" style="stroke:#222255; stroke-width:4; stroke-opacity:0; fill:none" points="
  379.622,1486.45 379.622,1477.81 
  "/>
<polyline clip-path="url(#clip730)" style="stroke:#222255; stroke-width:4; stroke-opacity:0; fill:none" points="
  477.128,1486.45 477.128,1477.81 
  "/>
<polyline clip-path="url(#clip730)" style="stroke:#222255; stroke-width:4; stroke-opacity:0; fill:none" points="
  574.634,1486.45 574.634,1477.81 
  "/>
<polyline clip-path="url(#clip730)" style="stroke:#222255; stroke-width:4; stroke-opacity:0; fill:none" points="
  672.14,1486.45 672.14,1477.81 
  "/>
<polyline clip-path="url(#clip730)" style="stroke:#222255; stroke-width:4; stroke-opacity:0; fill:none" points="
  867.153,1486.45 867.153,1477.81 
  "/>
<polyline clip-path="url(#clip730)" style="stroke:#222255; stroke-width:4; stroke-opacity:0; fill:none" points="
  964.659,1486.45 964.659,1477.81 
  "/>
<polyline clip-path="url(#clip730)" style="stroke:#222255; stroke-width:4; stroke-opacity:0; fill:none" points="
  1062.16,1486.45 1062.16,1477.81 
  "/>
<polyline clip-path="url(#clip730)" style="stroke:#222255; stroke-width:4; stroke-opacity:0; fill:none" points="
  1159.67,1486.45 1159.67,1477.81 
  "/>
<polyline clip-path="url(#clip730)" style="stroke:#222255; stroke-width:4; stroke-opacity:0; fill:none" points="
  1354.68,1486.45 1354.68,1477.81 
  "/>
<polyline clip-path="url(#clip730)" style="stroke:#222255; stroke-width:4; stroke-opacity:0; fill:none" points="
  1452.19,1486.45 1452.19,1477.81 
  "/>
<polyline clip-path="url(#clip730)" style="stroke:#222255; stroke-width:4; stroke-opacity:0; fill:none" points="
  1549.7,1486.45 1549.7,1477.81 
  "/>
<polyline clip-path="url(#clip730)" style="stroke:#222255; stroke-width:4; stroke-opacity:0; fill:none" points="
  1647.2,1486.45 1647.2,1477.81 
  "/>
<polyline clip-path="url(#clip730)" style="stroke:#222255; stroke-width:4; stroke-opacity:0; fill:none" points="
  1842.21,1486.45 1842.21,1477.81 
  "/>
<polyline clip-path="url(#clip730)" style="stroke:#222255; stroke-width:4; stroke-opacity:0; fill:none" points="
  1939.72,1486.45 1939.72,1477.81 
  "/>
<polyline clip-path="url(#clip730)" style="stroke:#222255; stroke-width:4; stroke-opacity:0; fill:none" points="
  2037.23,1486.45 2037.23,1477.81 
  "/>
<polyline clip-path="url(#clip730)" style="stroke:#222255; stroke-width:4; stroke-opacity:0; fill:none" points="
  2134.73,1486.45 2134.73,1477.81 
  "/>
<polyline clip-path="url(#clip730)" style="stroke:#222255; stroke-width:4; stroke-opacity:0; fill:none" points="
  2329.74,1486.45 2329.74,1477.81 
  "/>
<path clip-path="url(#clip730)" d="M 0 0 M282.116 1515.64 Q278.505 1515.64 276.676 1519.2 Q274.87 1522.75 274.87 1529.87 Q274.87 1536.98 276.676 1540.55 Q278.505 1544.09 282.116 1544.09 Q285.75 1544.09 287.556 1540.55 Q289.384 1536.98 289.384 1529.87 Q289.384 1522.75 287.556 1519.2 Q285.75 1515.64 282.116 1515.64 M282.116 1511.93 Q287.926 1511.93 290.981 1516.54 Q294.06 1521.12 294.06 1529.87 Q294.06 1538.6 290.981 1543.21 Q287.926 1547.79 282.116 1547.79 Q276.306 1547.79 273.227 1543.21 Q270.171 1538.6 270.171 1529.87 Q270.171 1521.12 273.227 1516.54 Q276.306 1511.93 282.116 1511.93 Z" fill="#000000" fill-rule="evenodd" fill-opacity="1" /><path clip-path="url(#clip730)" d="M 0 0 M751.29 1543.18 L767.609 1543.18 L767.609 1547.12 L745.665 1547.12 L745.665 1543.18 Q748.327 1540.43 752.91 1535.8 Q757.517 1531.15 758.697 1529.81 Q760.943 1527.28 761.822 1525.55 Q762.725 1523.79 762.725 1522.1 Q762.725 1519.34 760.781 1517.61 Q758.859 1515.87 755.758 1515.87 Q753.559 1515.87 751.105 1516.63 Q748.674 1517.4 745.897 1518.95 L745.897 1514.23 Q748.721 1513.09 751.174 1512.51 Q753.628 1511.93 755.665 1511.93 Q761.035 1511.93 764.23 1514.62 Q767.424 1517.31 767.424 1521.8 Q767.424 1523.93 766.614 1525.85 Q765.827 1527.74 763.721 1530.34 Q763.142 1531.01 760.04 1534.23 Q756.938 1537.42 751.29 1543.18 Z" fill="#000000" fill-rule="evenodd" fill-opacity="1" /><path clip-path="url(#clip730)" d="M 0 0 M772.725 1512.56 L791.081 1512.56 L791.081 1516.5 L777.007 1516.5 L777.007 1524.97 Q778.026 1524.62 779.045 1524.46 Q780.063 1524.27 781.082 1524.27 Q786.869 1524.27 790.248 1527.44 Q793.628 1530.62 793.628 1536.03 Q793.628 1541.61 790.156 1544.71 Q786.683 1547.79 780.364 1547.79 Q778.188 1547.79 775.92 1547.42 Q773.674 1547.05 771.267 1546.31 L771.267 1541.61 Q773.35 1542.74 775.572 1543.3 Q777.795 1543.86 780.271 1543.86 Q784.276 1543.86 786.614 1541.75 Q788.952 1539.64 788.952 1536.03 Q788.952 1532.42 786.614 1530.31 Q784.276 1528.21 780.271 1528.21 Q778.396 1528.21 776.521 1528.62 Q774.67 1529.04 772.725 1529.92 L772.725 1512.56 Z" fill="#000000" fill-rule="evenodd" fill-opacity="1" /><path clip-path="url(#clip730)" d="M 0 0 M1233.95 1512.56 L1252.3 1512.56 L1252.3 1516.5 L1238.23 1516.5 L1238.23 1524.97 Q1239.25 1524.62 1240.27 1524.46 Q1241.29 1524.27 1242.3 1524.27 Q1248.09 1524.27 1251.47 1527.44 Q1254.85 1530.62 1254.85 1536.03 Q1254.85 1541.61 1251.38 1544.71 Q1247.91 1547.79 1241.59 1547.79 Q1239.41 1547.79 1237.14 1547.42 Q1234.9 1547.05 1232.49 1546.31 L1232.49 1541.61 Q1234.57 1542.74 1236.8 1543.3 Q1239.02 1543.86 1241.49 1543.86 Q1245.5 1543.86 1247.84 1541.75 Q1250.17 1539.64 1250.17 1536.03 Q1250.17 1532.42 1247.84 1530.31 Q1245.5 1528.21 1241.49 1528.21 Q1239.62 1528.21 1237.74 1528.62 Q1235.89 1529.04 1233.95 1529.92 L1233.95 1512.56 Z" fill="#000000" fill-rule="evenodd" fill-opacity="1" /><path clip-path="url(#clip730)" d="M 0 0 M1269.92 1515.64 Q1266.31 1515.64 1264.48 1519.2 Q1262.67 1522.75 1262.67 1529.87 Q1262.67 1536.98 1264.48 1540.55 Q1266.31 1544.09 1269.92 1544.09 Q1273.55 1544.09 1275.36 1540.55 Q1277.19 1536.98 1277.19 1529.87 Q1277.19 1522.75 1275.36 1519.2 Q1273.55 1515.64 1269.92 1515.64 M1269.92 1511.93 Q1275.73 1511.93 1278.79 1516.54 Q1281.86 1521.12 1281.86 1529.87 Q1281.86 1538.6 1278.79 1543.21 Q1275.73 1547.79 1269.92 1547.79 Q1264.11 1547.79 1261.03 1543.21 Q1257.98 1538.6 1257.98 1529.87 Q1257.98 1521.12 1261.03 1516.54 Q1264.11 1511.93 1269.92 1511.93 Z" fill="#000000" fill-rule="evenodd" fill-opacity="1" /><path clip-path="url(#clip730)" d="M 0 0 M1720.59 1512.56 L1742.81 1512.56 L1742.81 1514.55 L1730.26 1547.12 L1725.38 1547.12 L1737.18 1516.5 L1720.59 1516.5 L1720.59 1512.56 Z" fill="#000000" fill-rule="evenodd" fill-opacity="1" /><path clip-path="url(#clip730)" d="M 0 0 M1747.93 1512.56 L1766.28 1512.56 L1766.28 1516.5 L1752.21 1516.5 L1752.21 1524.97 Q1753.23 1524.62 1754.24 1524.46 Q1755.26 1524.27 1756.28 1524.27 Q1762.07 1524.27 1765.45 1527.44 Q1768.83 1530.62 1768.83 1536.03 Q1768.83 1541.61 1765.36 1544.71 Q1761.88 1547.79 1755.56 1547.79 Q1753.39 1547.79 1751.12 1547.42 Q1748.87 1547.05 1746.47 1546.31 L1746.47 1541.61 Q1748.55 1542.74 1750.77 1543.3 Q1752.99 1543.86 1755.47 1543.86 Q1759.48 1543.86 1761.81 1541.75 Q1764.15 1539.64 1764.15 1536.03 Q1764.15 1532.42 1761.81 1530.31 Q1759.48 1528.21 1755.47 1528.21 Q1753.6 1528.21 1751.72 1528.62 Q1749.87 1529.04 1747.93 1529.92 L1747.93 1512.56 Z" fill="#000000" fill-rule="evenodd" fill-opacity="1" /><path clip-path="url(#clip730)" d="M 0 0 M2195.61 1543.18 L2203.25 1543.18 L2203.25 1516.82 L2194.94 1518.49 L2194.94 1514.23 L2203.2 1512.56 L2207.88 1512.56 L2207.88 1543.18 L2215.51 1543.18 L2215.51 1547.12 L2195.61 1547.12 L2195.61 1543.18 Z" fill="#000000" fill-rule="evenodd" fill-opacity="1" /><path clip-path="url(#clip730)" d="M 0 0 M2230.58 1515.64 Q2226.97 1515.64 2225.14 1519.2 Q2223.34 1522.75 2223.34 1529.87 Q2223.34 1536.98 2225.14 1540.55 Q2226.97 1544.09 2230.58 1544.09 Q2234.22 1544.09 2236.02 1540.55 Q2237.85 1536.98 2237.85 1529.87 Q2237.85 1522.75 2236.02 1519.2 Q2234.22 1515.64 2230.58 1515.64 M2230.58 1511.93 Q2236.39 1511.93 2239.45 1516.54 Q2242.53 1521.12 2242.53 1529.87 Q2242.53 1538.6 2239.45 1543.21 Q2236.39 1547.79 2230.58 1547.79 Q2224.77 1547.79 2221.69 1543.21 Q2218.64 1538.6 2218.64 1529.87 Q2218.64 1521.12 2221.69 1516.54 Q2224.77 1511.93 2230.58 1511.93 Z" fill="#000000" fill-rule="evenodd" fill-opacity="1" /><path clip-path="url(#clip730)" d="M 0 0 M2257.6 1515.64 Q2253.99 1515.64 2252.16 1519.2 Q2250.35 1522.75 2250.35 1529.87 Q2250.35 1536.98 2252.16 1540.55 Q2253.99 1544.09 2257.6 1544.09 Q2261.23 1544.09 2263.04 1540.55 Q2264.87 1536.98 2264.87 1529.87 Q2264.87 1522.75 2263.04 1519.2 Q2261.23 1515.64 2257.6 1515.64 M2257.6 1511.93 Q2263.41 1511.93 2266.46 1516.54 Q2269.54 1521.12 2269.54 1529.87 Q2269.54 1538.6 2266.46 1543.21 Q2263.41 1547.79 2257.6 1547.79 Q2251.79 1547.79 2248.71 1543.21 Q2245.65 1538.6 2245.65 1529.87 Q2245.65 1521.12 2248.71 1516.54 Q2251.79 1511.93 2257.6 1511.93 Z" fill="#000000" fill-rule="evenodd" fill-opacity="1" /><polyline clip-path="url(#clip732)" style="stroke:#222255; stroke-width:2; stroke-opacity:0.1; fill:none" points="
  161.598,1445.72 2352.76,1445.72 
  "/>
<polyline clip-path="url(#clip732)" style="stroke:#222255; stroke-width:2; stroke-opacity:0.1; fill:none" points="
  161.598,1078.76 2352.76,1078.76 
  "/>
<polyline clip-path="url(#clip732)" style="stroke:#222255; stroke-width:2; stroke-opacity:0.1; fill:none" points="
  161.598,711.802 2352.76,711.802 
  "/>
<polyline clip-path="url(#clip732)" style="stroke:#222255; stroke-width:2; stroke-opacity:0.1; fill:none" points="
  161.598,344.846 2352.76,344.846 
  "/>
<polyline clip-path="url(#clip732)" style="stroke:#222255; stroke-width:2; stroke-opacity:0.05; fill:none" points="
  161.598,1372.32 2352.76,1372.32 
  "/>
<polyline clip-path="url(#clip732)" style="stroke:#222255; stroke-width:2; stroke-opacity:0.05; fill:none" points="
  161.598,1298.93 2352.76,1298.93 
  "/>
<polyline clip-path="url(#clip732)" style="stroke:#222255; stroke-width:2; stroke-opacity:0.05; fill:none" points="
  161.598,1225.54 2352.76,1225.54 
  "/>
<polyline clip-path="url(#clip732)" style="stroke:#222255; stroke-width:2; stroke-opacity:0.05; fill:none" points="
  161.598,1152.15 2352.76,1152.15 
  "/>
<polyline clip-path="url(#clip732)" style="stroke:#222255; stroke-width:2; stroke-opacity:0.05; fill:none" points="
  161.598,1005.37 2352.76,1005.37 
  "/>
<polyline clip-path="url(#clip732)" style="stroke:#222255; stroke-width:2; stroke-opacity:0.05; fill:none" points="
  161.598,931.976 2352.76,931.976 
  "/>
<polyline clip-path="url(#clip732)" style="stroke:#222255; stroke-width:2; stroke-opacity:0.05; fill:none" points="
  161.598,858.585 2352.76,858.585 
  "/>
<polyline clip-path="url(#clip732)" style="stroke:#222255; stroke-width:2; stroke-opacity:0.05; fill:none" points="
  161.598,785.194 2352.76,785.194 
  "/>
<polyline clip-path="url(#clip732)" style="stroke:#222255; stroke-width:2; stroke-opacity:0.05; fill:none" points="
  161.598,638.411 2352.76,638.411 
  "/>
<polyline clip-path="url(#clip732)" style="stroke:#222255; stroke-width:2; stroke-opacity:0.05; fill:none" points="
  161.598,565.02 2352.76,565.02 
  "/>
<polyline clip-path="url(#clip732)" style="stroke:#222255; stroke-width:2; stroke-opacity:0.05; fill:none" points="
  161.598,491.629 2352.76,491.629 
  "/>
<polyline clip-path="url(#clip732)" style="stroke:#222255; stroke-width:2; stroke-opacity:0.05; fill:none" points="
  161.598,418.237 2352.76,418.237 
  "/>
<polyline clip-path="url(#clip732)" style="stroke:#222255; stroke-width:2; stroke-opacity:0.05; fill:none" points="
  161.598,271.455 2352.76,271.455 
  "/>
<polyline clip-path="url(#clip732)" style="stroke:#222255; stroke-width:2; stroke-opacity:0.05; fill:none" points="
  161.598,198.063 2352.76,198.063 
  "/>
<polyline clip-path="url(#clip732)" style="stroke:#222255; stroke-width:2; stroke-opacity:0.05; fill:none" points="
  161.598,124.672 2352.76,124.672 
  "/>
<polyline clip-path="url(#clip732)" style="stroke:#222255; stroke-width:2; stroke-opacity:0.05; fill:none" points="
  161.598,51.2806 2352.76,51.2806 
  "/>
<polyline clip-path="url(#clip730)" style="stroke:#222255; stroke-width:4; stroke-opacity:0; fill:none" points="
  161.598,1445.72 187.892,1445.72 
  "/>
<polyline clip-path="url(#clip730)" style="stroke:#222255; stroke-width:4; stroke-opacity:0; fill:none" points="
  161.598,1078.76 187.892,1078.76 
  "/>
<polyline clip-path="url(#clip730)" style="stroke:#222255; stroke-width:4; stroke-opacity:0; fill:none" points="
  161.598,711.802 187.892,711.802 
  "/>
<polyline clip-path="url(#clip730)" style="stroke:#222255; stroke-width:4; stroke-opacity:0; fill:none" points="
  161.598,344.846 187.892,344.846 
  "/>
<polyline clip-path="url(#clip730)" style="stroke:#222255; stroke-width:4; stroke-opacity:0; fill:none" points="
  161.598,1372.32 174.745,1372.32 
  "/>
<polyline clip-path="url(#clip730)" style="stroke:#222255; stroke-width:4; stroke-opacity:0; fill:none" points="
  161.598,1298.93 174.745,1298.93 
  "/>
<polyline clip-path="url(#clip730)" style="stroke:#222255; stroke-width:4; stroke-opacity:0; fill:none" points="
  161.598,1225.54 174.745,1225.54 
  "/>
<polyline clip-path="url(#clip730)" style="stroke:#222255; stroke-width:4; stroke-opacity:0; fill:none" points="
  161.598,1152.15 174.745,1152.15 
  "/>
<polyline clip-path="url(#clip730)" style="stroke:#222255; stroke-width:4; stroke-opacity:0; fill:none" points="
  161.598,1005.37 174.745,1005.37 
  "/>
<polyline clip-path="url(#clip730)" style="stroke:#222255; stroke-width:4; stroke-opacity:0; fill:none" points="
  161.598,931.976 174.745,931.976 
  "/>
<polyline clip-path="url(#clip730)" style="stroke:#222255; stroke-width:4; stroke-opacity:0; fill:none" points="
  161.598,858.585 174.745,858.585 
  "/>
<polyline clip-path="url(#clip730)" style="stroke:#222255; stroke-width:4; stroke-opacity:0; fill:none" points="
  161.598,785.194 174.745,785.194 
  "/>
<polyline clip-path="url(#clip730)" style="stroke:#222255; stroke-width:4; stroke-opacity:0; fill:none" points="
  161.598,638.411 174.745,638.411 
  "/>
<polyline clip-path="url(#clip730)" style="stroke:#222255; stroke-width:4; stroke-opacity:0; fill:none" points="
  161.598,565.02 174.745,565.02 
  "/>
<polyline clip-path="url(#clip730)" style="stroke:#222255; stroke-width:4; stroke-opacity:0; fill:none" points="
  161.598,491.629 174.745,491.629 
  "/>
<polyline clip-path="url(#clip730)" style="stroke:#222255; stroke-width:4; stroke-opacity:0; fill:none" points="
  161.598,418.237 174.745,418.237 
  "/>
<polyline clip-path="url(#clip730)" style="stroke:#222255; stroke-width:4; stroke-opacity:0; fill:none" points="
  161.598,271.455 174.745,271.455 
  "/>
<polyline clip-path="url(#clip730)" style="stroke:#222255; stroke-width:4; stroke-opacity:0; fill:none" points="
  161.598,198.063 174.745,198.063 
  "/>
<polyline clip-path="url(#clip730)" style="stroke:#222255; stroke-width:4; stroke-opacity:0; fill:none" points="
  161.598,124.672 174.745,124.672 
  "/>
<polyline clip-path="url(#clip730)" style="stroke:#222255; stroke-width:4; stroke-opacity:0; fill:none" points="
  161.598,51.2806 174.745,51.2806 
  "/>
<path clip-path="url(#clip730)" d="M 0 0 M113.654 1431.51 Q110.043 1431.51 108.214 1435.08 Q106.408 1438.62 106.408 1445.75 Q106.408 1452.86 108.214 1456.42 Q110.043 1459.96 113.654 1459.96 Q117.288 1459.96 119.094 1456.42 Q120.922 1452.86 120.922 1445.75 Q120.922 1438.62 119.094 1435.08 Q117.288 1431.51 113.654 1431.51 M113.654 1427.81 Q119.464 1427.81 122.52 1432.42 Q125.598 1437 125.598 1445.75 Q125.598 1454.48 122.52 1459.08 Q119.464 1463.67 113.654 1463.67 Q107.844 1463.67 104.765 1459.08 Q101.709 1454.48 101.709 1445.75 Q101.709 1437 104.765 1432.42 Q107.844 1427.81 113.654 1427.81 Z" fill="#000000" fill-rule="evenodd" fill-opacity="1" /><path clip-path="url(#clip730)" d="M 0 0 M77.6818 1061.48 L96.0382 1061.48 L96.0382 1065.41 L81.9642 1065.41 L81.9642 1073.89 Q82.9827 1073.54 84.0012 1073.38 Q85.0197 1073.19 86.0382 1073.19 Q91.8252 1073.19 95.2049 1076.36 Q98.5845 1079.53 98.5845 1084.95 Q98.5845 1090.53 95.1123 1093.63 Q91.6401 1096.71 85.3206 1096.71 Q83.1447 1096.71 80.8762 1096.34 Q78.6309 1095.97 76.2235 1095.23 L76.2235 1090.53 Q78.3068 1091.66 80.529 1092.22 Q82.7512 1092.78 85.2281 1092.78 Q89.2327 1092.78 91.5706 1090.67 Q93.9086 1088.56 93.9086 1084.95 Q93.9086 1081.34 91.5706 1079.23 Q89.2327 1077.13 85.2281 1077.13 Q83.3531 1077.13 81.4781 1077.54 Q79.6262 1077.96 77.6818 1078.84 L77.6818 1061.48 Z" fill="#000000" fill-rule="evenodd" fill-opacity="1" /><path clip-path="url(#clip730)" d="M 0 0 M113.654 1064.56 Q110.043 1064.56 108.214 1068.12 Q106.408 1071.66 106.408 1078.79 Q106.408 1085.9 108.214 1089.47 Q110.043 1093.01 113.654 1093.01 Q117.288 1093.01 119.094 1089.47 Q120.922 1085.9 120.922 1078.79 Q120.922 1071.66 119.094 1068.12 Q117.288 1064.56 113.654 1064.56 M113.654 1060.85 Q119.464 1060.85 122.52 1065.46 Q125.598 1070.04 125.598 1078.79 Q125.598 1087.52 122.52 1092.13 Q119.464 1096.71 113.654 1096.71 Q107.844 1096.71 104.765 1092.13 Q101.709 1087.52 101.709 1078.79 Q101.709 1070.04 104.765 1065.46 Q107.844 1060.85 113.654 1060.85 Z" fill="#000000" fill-rule="evenodd" fill-opacity="1" /><path clip-path="url(#clip730)" d="M 0 0 M51.6634 725.147 L59.3023 725.147 L59.3023 698.782 L50.9921 700.448 L50.9921 696.189 L59.256 694.522 L63.9319 694.522 L63.9319 725.147 L71.5707 725.147 L71.5707 729.082 L51.6634 729.082 L51.6634 725.147 Z" fill="#000000" fill-rule="evenodd" fill-opacity="1" /><path clip-path="url(#clip730)" d="M 0 0 M86.6401 697.601 Q83.029 697.601 81.2003 701.166 Q79.3948 704.708 79.3948 711.837 Q79.3948 718.944 81.2003 722.508 Q83.029 726.05 86.6401 726.05 Q90.2743 726.05 92.0799 722.508 Q93.9086 718.944 93.9086 711.837 Q93.9086 704.708 92.0799 701.166 Q90.2743 697.601 86.6401 697.601 M86.6401 693.897 Q92.4502 693.897 95.5058 698.504 Q98.5845 703.087 98.5845 711.837 Q98.5845 720.564 95.5058 725.17 Q92.4502 729.754 86.6401 729.754 Q80.8299 729.754 77.7512 725.17 Q74.6957 720.564 74.6957 711.837 Q74.6957 703.087 77.7512 698.504 Q80.8299 693.897 86.6401 693.897 Z" fill="#000000" fill-rule="evenodd" fill-opacity="1" /><path clip-path="url(#clip730)" d="M 0 0 M113.654 697.601 Q110.043 697.601 108.214 701.166 Q106.408 704.708 106.408 711.837 Q106.408 718.944 108.214 722.508 Q110.043 726.05 113.654 726.05 Q117.288 726.05 119.094 722.508 Q120.922 718.944 120.922 711.837 Q120.922 704.708 119.094 701.166 Q117.288 697.601 113.654 697.601 M113.654 693.897 Q119.464 693.897 122.52 698.504 Q125.598 703.087 125.598 711.837 Q125.598 720.564 122.52 725.17 Q119.464 729.754 113.654 729.754 Q107.844 729.754 104.765 725.17 Q101.709 720.564 101.709 711.837 Q101.709 703.087 104.765 698.504 Q107.844 693.897 113.654 693.897 Z" fill="#000000" fill-rule="evenodd" fill-opacity="1" /><path clip-path="url(#clip730)" d="M 0 0 M52.6588 358.191 L60.2976 358.191 L60.2976 331.825 L51.9875 333.492 L51.9875 329.233 L60.2513 327.566 L64.9272 327.566 L64.9272 358.191 L72.5661 358.191 L72.5661 362.126 L52.6588 362.126 L52.6588 358.191 Z" fill="#000000" fill-rule="evenodd" fill-opacity="1" /><path clip-path="url(#clip730)" d="M 0 0 M77.6818 327.566 L96.0382 327.566 L96.0382 331.501 L81.9642 331.501 L81.9642 339.973 Q82.9827 339.626 84.0012 339.464 Q85.0197 339.279 86.0382 339.279 Q91.8252 339.279 95.2049 342.45 Q98.5845 345.621 98.5845 351.038 Q98.5845 356.617 95.1123 359.719 Q91.6401 362.797 85.3206 362.797 Q83.1447 362.797 80.8762 362.427 Q78.6309 362.056 76.2235 361.316 L76.2235 356.617 Q78.3068 357.751 80.529 358.306 Q82.7512 358.862 85.2281 358.862 Q89.2327 358.862 91.5706 356.756 Q93.9086 354.649 93.9086 351.038 Q93.9086 347.427 91.5706 345.32 Q89.2327 343.214 85.2281 343.214 Q83.3531 343.214 81.4781 343.631 Q79.6262 344.047 77.6818 344.927 L77.6818 327.566 Z" fill="#000000" fill-rule="evenodd" fill-opacity="1" /><path clip-path="url(#clip730)" d="M 0 0 M113.654 330.645 Q110.043 330.645 108.214 334.209 Q106.408 337.751 106.408 344.881 Q106.408 351.987 108.214 355.552 Q110.043 359.094 113.654 359.094 Q117.288 359.094 119.094 355.552 Q120.922 351.987 120.922 344.881 Q120.922 337.751 119.094 334.209 Q117.288 330.645 113.654 330.645 M113.654 326.941 Q119.464 326.941 122.52 331.547 Q125.598 336.131 125.598 344.881 Q125.598 353.607 122.52 358.214 Q119.464 362.797 113.654 362.797 Q107.844 362.797 104.765 358.214 Q101.709 353.607 101.709 344.881 Q101.709 336.131 104.765 331.547 Q107.844 326.941 113.654 326.941 Z" fill="#000000" fill-rule="evenodd" fill-opacity="1" /><path clip-path="url(#clip732)" d="
M282.116 87.9763 L282.116 1445.72 L477.128 1445.72 L477.128 87.9763 L282.116 87.9763 L282.116 87.9763  Z
  " fill="#cc6677" fill-rule="evenodd" fill-opacity="1"/>
<polyline clip-path="url(#clip732)" style="stroke:#000000; stroke-width:4.8; stroke-opacity:1; fill:none" points="
  282.116,87.9763 282.116,1445.72 477.128,1445.72 477.128,87.9763 282.116,87.9763 
  "/>
<path clip-path="url(#clip732)" d="
M477.128 124.672 L477.128 1445.72 L672.14 1445.72 L672.14 124.672 L477.128 124.672 L477.128 124.672  Z
  " fill="#cc6677" fill-rule="evenodd" fill-opacity="1"/>
<polyline clip-path="url(#clip732)" style="stroke:#000000; stroke-width:4.8; stroke-opacity:1; fill:none" points="
  477.128,124.672 477.128,1445.72 672.14,1445.72 672.14,124.672 477.128,124.672 
  "/>
<path clip-path="url(#clip732)" d="
M672.14 293.472 L672.14 1445.72 L867.153 1445.72 L867.153 293.472 L672.14 293.472 L672.14 293.472  Z
  " fill="#cc6677" fill-rule="evenodd" fill-opacity="1"/>
<polyline clip-path="url(#clip732)" style="stroke:#000000; stroke-width:4.8; stroke-opacity:1; fill:none" points="
  672.14,293.472 672.14,1445.72 867.153,1445.72 867.153,293.472 672.14,293.472 
  "/>
<path clip-path="url(#clip732)" d="
M867.153 543.002 L867.153 1445.72 L1062.16 1445.72 L1062.16 543.002 L867.153 543.002 L867.153 543.002  Z
  " fill="#cc6677" fill-rule="evenodd" fill-opacity="1"/>
<polyline clip-path="url(#clip732)" style="stroke:#000000; stroke-width:4.8; stroke-opacity:1; fill:none" points="
  867.153,543.002 867.153,1445.72 1062.16,1445.72 1062.16,543.002 867.153,543.002 
  "/>
<path clip-path="url(#clip732)" d="
M1062.16 667.768 L1062.16 1445.72 L1257.18 1445.72 L1257.18 667.768 L1062.16 667.768 L1062.16 667.768  Z
  " fill="#cc6677" fill-rule="evenodd" fill-opacity="1"/>
<polyline clip-path="url(#clip732)" style="stroke:#000000; stroke-width:4.8; stroke-opacity:1; fill:none" points="
  1062.16,667.768 1062.16,1445.72 1257.18,1445.72 1257.18,667.768 1062.16,667.768 
  "/>
<path clip-path="url(#clip732)" d="
M1257.18 785.194 L1257.18 1445.72 L1452.19 1445.72 L1452.19 785.194 L1257.18 785.194 L1257.18 785.194  Z
  " fill="#cc6677" fill-rule="evenodd" fill-opacity="1"/>
<polyline clip-path="url(#clip732)" style="stroke:#000000; stroke-width:4.8; stroke-opacity:1; fill:none" points="
  1257.18,785.194 1257.18,1445.72 1452.19,1445.72 1452.19,785.194 1257.18,785.194 
  "/>
<path clip-path="url(#clip732)" d="
M1452.19 1071.42 L1452.19 1445.72 L1647.2 1445.72 L1647.2 1071.42 L1452.19 1071.42 L1452.19 1071.42  Z
  " fill="#cc6677" fill-rule="evenodd" fill-opacity="1"/>
<polyline clip-path="url(#clip732)" style="stroke:#000000; stroke-width:4.8; stroke-opacity:1; fill:none" points="
  1452.19,1071.42 1452.19,1445.72 1647.2,1445.72 1647.2,1071.42 1452.19,1071.42 
  "/>
<path clip-path="url(#clip732)" d="
M1647.2 1306.27 L1647.2 1445.72 L1842.21 1445.72 L1842.21 1306.27 L1647.2 1306.27 L1647.2 1306.27  Z
  " fill="#cc6677" fill-rule="evenodd" fill-opacity="1"/>
<polyline clip-path="url(#clip732)" style="stroke:#000000; stroke-width:4.8; stroke-opacity:1; fill:none" points="
  1647.2,1306.27 1647.2,1445.72 1842.21,1445.72 1842.21,1306.27 1647.2,1306.27 
  "/>
<path clip-path="url(#clip732)" d="
M1842.21 1379.66 L1842.21 1445.72 L2037.23 1445.72 L2037.23 1379.66 L1842.21 1379.66 L1842.21 1379.66  Z
  " fill="#cc6677" fill-rule="evenodd" fill-opacity="1"/>
<polyline clip-path="url(#clip732)" style="stroke:#000000; stroke-width:4.8; stroke-opacity:1; fill:none" points="
  1842.21,1379.66 1842.21,1445.72 2037.23,1445.72 2037.23,1379.66 1842.21,1379.66 
  "/>
<path clip-path="url(#clip732)" d="
M2037.23 1387 L2037.23 1445.72 L2232.24 1445.72 L2232.24 1387 L2037.23 1387 L2037.23 1387  Z
  " fill="#cc6677" fill-rule="evenodd" fill-opacity="1"/>
<polyline clip-path="url(#clip732)" style="stroke:#000000; stroke-width:4.8; stroke-opacity:1; fill:none" points="
  2037.23,1387 2037.23,1445.72 2232.24,1445.72 2232.24,1387 2037.23,1387 
  "/>
</svg>
