<?xml version="1.0" encoding="utf-8"?>
<svg xmlns="http://www.w3.org/2000/svg" xmlns:xlink="http://www.w3.org/1999/xlink" width="600" height="400" viewBox="0 0 2400 1600">
<defs>
  <clipPath id="clip140">
    <rect x="0" y="0" width="2400" height="1600"/>
  </clipPath>
</defs>
<path clip-path="url(#clip140)" d="
M0 1600 L2400 1600 L2400 0 L0 0  Z
  " fill="#ffffff" fill-rule="evenodd" fill-opacity="1"/>
<defs>
  <clipPath id="clip141">
    <rect x="480" y="0" width="1681" height="1600"/>
  </clipPath>
</defs>
<path clip-path="url(#clip140)" d="
M138.959 1486.45 L2352.76 1486.45 L2352.76 123.472 L138.959 123.472  Z
  " fill="#ffffff" fill-rule="evenodd" fill-opacity="1"/>
<defs>
  <clipPath id="clip142">
    <rect x="138" y="123" width="2215" height="1364"/>
  </clipPath>
</defs>
<polyline clip-path="url(#clip142)" style="stroke:#000000; stroke-linecap:butt; stroke-linejoin:round; stroke-width:2; stroke-opacity:0.1; fill:none" points="
  167.724,1486.45 167.724,123.472 
  "/>
<polyline clip-path="url(#clip142)" style="stroke:#000000; stroke-linecap:butt; stroke-linejoin:round; stroke-width:2; stroke-opacity:0.1; fill:none" points="
  710.342,1486.45 710.342,123.472 
  "/>
<polyline clip-path="url(#clip142)" style="stroke:#000000; stroke-linecap:butt; stroke-linejoin:round; stroke-width:2; stroke-opacity:0.1; fill:none" points="
  1252.96,1486.45 1252.96,123.472 
  "/>
<polyline clip-path="url(#clip142)" style="stroke:#000000; stroke-linecap:butt; stroke-linejoin:round; stroke-width:2; stroke-opacity:0.1; fill:none" points="
  1795.58,1486.45 1795.58,123.472 
  "/>
<polyline clip-path="url(#clip142)" style="stroke:#000000; stroke-linecap:butt; stroke-linejoin:round; stroke-width:2; stroke-opacity:0.1; fill:none" points="
  2338.2,1486.45 2338.2,123.472 
  "/>
<polyline clip-path="url(#clip140)" style="stroke:#000000; stroke-linecap:butt; stroke-linejoin:round; stroke-width:4; stroke-opacity:1; fill:none" points="
  138.959,1486.45 2352.76,1486.45 
  "/>
<polyline clip-path="url(#clip140)" style="stroke:#000000; stroke-linecap:butt; stroke-linejoin:round; stroke-width:4; stroke-opacity:1; fill:none" points="
  167.724,1486.45 167.724,1467.55 
  "/>
<polyline clip-path="url(#clip140)" style="stroke:#000000; stroke-linecap:butt; stroke-linejoin:round; stroke-width:4; stroke-opacity:1; fill:none" points="
  710.342,1486.45 710.342,1467.55 
  "/>
<polyline clip-path="url(#clip140)" style="stroke:#000000; stroke-linecap:butt; stroke-linejoin:round; stroke-width:4; stroke-opacity:1; fill:none" points="
  1252.96,1486.45 1252.96,1467.55 
  "/>
<polyline clip-path="url(#clip140)" style="stroke:#000000; stroke-linecap:butt; stroke-linejoin:round; stroke-width:4; stroke-opacity:1; fill:none" points="
  1795.58,1486.45 1795.58,1467.55 
  "/>
<polyline clip-path="url(#clip140)" style="stroke:#000000; stroke-linecap:butt; stroke-linejoin:round; stroke-width:4; stroke-opacity:1; fill:none" points="
  2338.2,1486.45 2338.2,1467.55 
  "/>
<path clip-path="url(#clip140)" d="M35.4327 1543.18 L43.0715 1543.18 L43.0715 1516.82 L34.7614 1518.49 L34.7614 1514.23 L43.0252 1512.56 L47.7011 1512.56 L47.7011 1543.18 L55.34 1543.18 L55.34 1547.12 L35.4327 1547.12 L35.4327 1543.18 Z" fill="#000000" fill-rule="evenodd" fill-opacity="1" /><path clip-path="url(#clip140)" d="M64.9232 1546.4 L64.9232 1542.14 Q66.6825 1542.98 68.488 1543.42 Q70.2936 1543.86 72.0297 1543.86 Q76.6593 1543.86 79.0898 1540.75 Q81.5435 1537.63 81.8907 1531.29 Q80.5482 1533.28 78.488 1534.34 Q76.4278 1535.41 73.9278 1535.41 Q68.7427 1535.41 65.7103 1532.28 Q62.701 1529.13 62.701 1523.69 Q62.701 1518.37 65.8492 1515.15 Q68.9973 1511.93 74.2287 1511.93 Q80.2241 1511.93 83.3722 1516.54 Q86.5435 1521.12 86.5435 1529.87 Q86.5435 1538.05 82.6546 1542.93 Q78.7889 1547.79 72.238 1547.79 Q70.4788 1547.79 68.6732 1547.44 Q66.8677 1547.1 64.9232 1546.4 M74.2287 1531.75 Q77.3769 1531.75 79.2056 1529.6 Q81.0574 1527.44 81.0574 1523.69 Q81.0574 1519.97 79.2056 1517.81 Q77.3769 1515.64 74.2287 1515.64 Q71.0806 1515.64 69.2288 1517.81 Q67.4001 1519.97 67.4001 1523.69 Q67.4001 1527.44 69.2288 1529.6 Q71.0806 1531.75 74.2287 1531.75 Z" fill="#000000" fill-rule="evenodd" fill-opacity="1" /><path clip-path="url(#clip140)" d="M94.9925 1512.56 L113.349 1512.56 L113.349 1516.5 L99.2749 1516.5 L99.2749 1524.97 Q100.293 1524.62 101.312 1524.46 Q102.33 1524.27 103.349 1524.27 Q109.136 1524.27 112.516 1527.44 Q115.895 1530.62 115.895 1536.03 Q115.895 1541.61 112.423 1544.71 Q108.951 1547.79 102.631 1547.79 Q100.455 1547.79 98.1869 1547.42 Q95.9416 1547.05 93.5342 1546.31 L93.5342 1541.61 Q95.6175 1542.74 97.8397 1543.3 Q100.062 1543.86 102.539 1543.86 Q106.543 1543.86 108.881 1541.75 Q111.219 1539.64 111.219 1536.03 Q111.219 1532.42 108.881 1530.31 Q106.543 1528.21 102.539 1528.21 Q100.664 1528.21 98.7888 1528.62 Q96.937 1529.04 94.9925 1529.92 L94.9925 1512.56 Z" fill="#000000" fill-rule="evenodd" fill-opacity="1" /><path clip-path="url(#clip140)" d="M125.247 1546.4 L125.247 1542.14 Q127.006 1542.98 128.812 1543.42 Q130.617 1543.86 132.353 1543.86 Q136.983 1543.86 139.414 1540.75 Q141.867 1537.63 142.214 1531.29 Q140.872 1533.28 138.812 1534.34 Q136.752 1535.41 134.252 1535.41 Q129.066 1535.41 126.034 1532.28 Q123.025 1529.13 123.025 1523.69 Q123.025 1518.37 126.173 1515.15 Q129.321 1511.93 134.552 1511.93 Q140.548 1511.93 143.696 1516.54 Q146.867 1521.12 146.867 1529.87 Q146.867 1538.05 142.978 1542.93 Q139.113 1547.79 132.562 1547.79 Q130.803 1547.79 128.997 1547.44 Q127.191 1547.1 125.247 1546.4 M134.552 1531.75 Q137.701 1531.75 139.529 1529.6 Q141.381 1527.44 141.381 1523.69 Q141.381 1519.97 139.529 1517.81 Q137.701 1515.64 134.552 1515.64 Q131.404 1515.64 129.553 1517.81 Q127.724 1519.97 127.724 1523.69 Q127.724 1527.44 129.553 1529.6 Q131.404 1531.75 134.552 1531.75 Z" fill="#000000" fill-rule="evenodd" fill-opacity="1" /><path clip-path="url(#clip140)" d="M152.515 1532.24 L164.992 1532.24 L164.992 1536.03 L152.515 1536.03 L152.515 1532.24 Z" fill="#000000" fill-rule="evenodd" fill-opacity="1" /><path clip-path="url(#clip140)" d="M182.376 1515.64 Q178.765 1515.64 176.937 1519.2 Q175.131 1522.75 175.131 1529.87 Q175.131 1536.98 176.937 1540.55 Q178.765 1544.09 182.376 1544.09 Q186.011 1544.09 187.816 1540.55 Q189.645 1536.98 189.645 1529.87 Q189.645 1522.75 187.816 1519.2 Q186.011 1515.64 182.376 1515.64 M182.376 1511.93 Q188.186 1511.93 191.242 1516.54 Q194.321 1521.12 194.321 1529.87 Q194.321 1538.6 191.242 1543.21 Q188.186 1547.79 182.376 1547.79 Q176.566 1547.79 173.487 1543.21 Q170.432 1538.6 170.432 1529.87 Q170.432 1521.12 173.487 1516.54 Q176.566 1511.93 182.376 1511.93 Z" fill="#000000" fill-rule="evenodd" fill-opacity="1" /><path clip-path="url(#clip140)" d="M203.348 1543.18 L210.987 1543.18 L210.987 1516.82 L202.677 1518.49 L202.677 1514.23 L210.941 1512.56 L215.617 1512.56 L215.617 1543.18 L223.256 1543.18 L223.256 1547.12 L203.348 1547.12 L203.348 1543.18 Z" fill="#000000" fill-rule="evenodd" fill-opacity="1" /><path clip-path="url(#clip140)" d="M229.945 1532.24 L242.422 1532.24 L242.422 1536.03 L229.945 1536.03 L229.945 1532.24 Z" fill="#000000" fill-rule="evenodd" fill-opacity="1" /><path clip-path="url(#clip140)" d="M259.806 1515.64 Q256.195 1515.64 254.367 1519.2 Q252.561 1522.75 252.561 1529.87 Q252.561 1536.98 254.367 1540.55 Q256.195 1544.09 259.806 1544.09 Q263.441 1544.09 265.246 1540.55 Q267.075 1536.98 267.075 1529.87 Q267.075 1522.75 265.246 1519.2 Q263.441 1515.64 259.806 1515.64 M259.806 1511.93 Q265.617 1511.93 268.672 1516.54 Q271.751 1521.12 271.751 1529.87 Q271.751 1538.6 268.672 1543.21 Q265.617 1547.79 259.806 1547.79 Q253.996 1547.79 250.918 1543.21 Q247.862 1538.6 247.862 1529.87 Q247.862 1521.12 250.918 1516.54 Q253.996 1511.93 259.806 1511.93 Z" fill="#000000" fill-rule="evenodd" fill-opacity="1" /><path clip-path="url(#clip140)" d="M280.779 1543.18 L288.417 1543.18 L288.417 1516.82 L280.107 1518.49 L280.107 1514.23 L288.371 1512.56 L293.047 1512.56 L293.047 1543.18 L300.686 1543.18 L300.686 1547.12 L280.779 1547.12 L280.779 1543.18 Z" fill="#000000" fill-rule="evenodd" fill-opacity="1" /><path clip-path="url(#clip140)" d="M578.051 1543.18 L585.69 1543.18 L585.69 1516.82 L577.38 1518.49 L577.38 1514.23 L585.644 1512.56 L590.32 1512.56 L590.32 1543.18 L597.959 1543.18 L597.959 1547.12 L578.051 1547.12 L578.051 1543.18 Z" fill="#000000" fill-rule="evenodd" fill-opacity="1" /><path clip-path="url(#clip140)" d="M607.542 1546.4 L607.542 1542.14 Q609.301 1542.98 611.107 1543.42 Q612.912 1543.86 614.648 1543.86 Q619.278 1543.86 621.708 1540.75 Q624.162 1537.63 624.509 1531.29 Q623.167 1533.28 621.107 1534.34 Q619.046 1535.41 616.546 1535.41 Q611.361 1535.41 608.329 1532.28 Q605.32 1529.13 605.32 1523.69 Q605.32 1518.37 608.468 1515.15 Q611.616 1511.93 616.847 1511.93 Q622.843 1511.93 625.991 1516.54 Q629.162 1521.12 629.162 1529.87 Q629.162 1538.05 625.273 1542.93 Q621.407 1547.79 614.857 1547.79 Q613.097 1547.79 611.292 1547.44 Q609.486 1547.1 607.542 1546.4 M616.847 1531.75 Q619.995 1531.75 621.824 1529.6 Q623.676 1527.44 623.676 1523.69 Q623.676 1519.97 621.824 1517.81 Q619.995 1515.64 616.847 1515.64 Q613.699 1515.64 611.847 1517.81 Q610.019 1519.97 610.019 1523.69 Q610.019 1527.44 611.847 1529.6 Q613.699 1531.75 616.847 1531.75 Z" fill="#000000" fill-rule="evenodd" fill-opacity="1" /><path clip-path="url(#clip140)" d="M636.384 1512.56 L658.606 1512.56 L658.606 1514.55 L646.06 1547.12 L641.176 1547.12 L652.981 1516.5 L636.384 1516.5 L636.384 1512.56 Z" fill="#000000" fill-rule="evenodd" fill-opacity="1" /><path clip-path="url(#clip140)" d="M667.773 1512.56 L686.129 1512.56 L686.129 1516.5 L672.055 1516.5 L672.055 1524.97 Q673.074 1524.62 674.092 1524.46 Q675.111 1524.27 676.129 1524.27 Q681.916 1524.27 685.296 1527.44 Q688.676 1530.62 688.676 1536.03 Q688.676 1541.61 685.203 1544.71 Q681.731 1547.79 675.412 1547.79 Q673.236 1547.79 670.967 1547.42 Q668.722 1547.05 666.315 1546.31 L666.315 1541.61 Q668.398 1542.74 670.62 1543.3 Q672.842 1543.86 675.319 1543.86 Q679.324 1543.86 681.662 1541.75 Q684 1539.64 684 1536.03 Q684 1532.42 681.662 1530.31 Q679.324 1528.21 675.319 1528.21 Q673.444 1528.21 671.569 1528.62 Q669.717 1529.04 667.773 1529.92 L667.773 1512.56 Z" fill="#000000" fill-rule="evenodd" fill-opacity="1" /><path clip-path="url(#clip140)" d="M695.134 1532.24 L707.611 1532.24 L707.611 1536.03 L695.134 1536.03 L695.134 1532.24 Z" fill="#000000" fill-rule="evenodd" fill-opacity="1" /><path clip-path="url(#clip140)" d="M724.995 1515.64 Q721.384 1515.64 719.555 1519.2 Q717.75 1522.75 717.75 1529.87 Q717.75 1536.98 719.555 1540.55 Q721.384 1544.09 724.995 1544.09 Q728.629 1544.09 730.435 1540.55 Q732.263 1536.98 732.263 1529.87 Q732.263 1522.75 730.435 1519.2 Q728.629 1515.64 724.995 1515.64 M724.995 1511.93 Q730.805 1511.93 733.861 1516.54 Q736.939 1521.12 736.939 1529.87 Q736.939 1538.6 733.861 1543.21 Q730.805 1547.79 724.995 1547.79 Q719.185 1547.79 716.106 1543.21 Q713.05 1538.6 713.05 1529.87 Q713.05 1521.12 716.106 1516.54 Q719.185 1511.93 724.995 1511.93 Z" fill="#000000" fill-rule="evenodd" fill-opacity="1" /><path clip-path="url(#clip140)" d="M745.967 1543.18 L753.606 1543.18 L753.606 1516.82 L745.296 1518.49 L745.296 1514.23 L753.56 1512.56 L758.235 1512.56 L758.235 1543.18 L765.874 1543.18 L765.874 1547.12 L745.967 1547.12 L745.967 1543.18 Z" fill="#000000" fill-rule="evenodd" fill-opacity="1" /><path clip-path="url(#clip140)" d="M772.564 1532.24 L785.041 1532.24 L785.041 1536.03 L772.564 1536.03 L772.564 1532.24 Z" fill="#000000" fill-rule="evenodd" fill-opacity="1" /><path clip-path="url(#clip140)" d="M802.425 1515.64 Q798.814 1515.64 796.985 1519.2 Q795.18 1522.75 795.18 1529.87 Q795.18 1536.98 796.985 1540.55 Q798.814 1544.09 802.425 1544.09 Q806.059 1544.09 807.865 1540.55 Q809.693 1536.98 809.693 1529.87 Q809.693 1522.75 807.865 1519.2 Q806.059 1515.64 802.425 1515.64 M802.425 1511.93 Q808.235 1511.93 811.291 1516.54 Q814.369 1521.12 814.369 1529.87 Q814.369 1538.6 811.291 1543.21 Q808.235 1547.79 802.425 1547.79 Q796.615 1547.79 793.536 1543.21 Q790.481 1538.6 790.481 1529.87 Q790.481 1521.12 793.536 1516.54 Q796.615 1511.93 802.425 1511.93 Z" fill="#000000" fill-rule="evenodd" fill-opacity="1" /><path clip-path="url(#clip140)" d="M823.397 1543.18 L831.036 1543.18 L831.036 1516.82 L822.726 1518.49 L822.726 1514.23 L830.99 1512.56 L835.666 1512.56 L835.666 1543.18 L843.304 1543.18 L843.304 1547.12 L823.397 1547.12 L823.397 1543.18 Z" fill="#000000" fill-rule="evenodd" fill-opacity="1" /><path clip-path="url(#clip140)" d="M1120.67 1543.18 L1128.31 1543.18 L1128.31 1516.82 L1120 1518.49 L1120 1514.23 L1128.26 1512.56 L1132.94 1512.56 L1132.94 1543.18 L1140.58 1543.18 L1140.58 1547.12 L1120.67 1547.12 L1120.67 1543.18 Z" fill="#000000" fill-rule="evenodd" fill-opacity="1" /><path clip-path="url(#clip140)" d="M1150.16 1546.4 L1150.16 1542.14 Q1151.92 1542.98 1153.73 1543.42 Q1155.53 1543.86 1157.27 1543.86 Q1161.9 1543.86 1164.33 1540.75 Q1166.78 1537.63 1167.13 1531.29 Q1165.79 1533.28 1163.73 1534.34 Q1161.66 1535.41 1159.16 1535.41 Q1153.98 1535.41 1150.95 1532.28 Q1147.94 1529.13 1147.94 1523.69 Q1147.94 1518.37 1151.09 1515.15 Q1154.23 1511.93 1159.47 1511.93 Q1165.46 1511.93 1168.61 1516.54 Q1171.78 1521.12 1171.78 1529.87 Q1171.78 1538.05 1167.89 1542.93 Q1164.03 1547.79 1157.48 1547.79 Q1155.72 1547.79 1153.91 1547.44 Q1152.1 1547.1 1150.16 1546.4 M1159.47 1531.75 Q1162.61 1531.75 1164.44 1529.6 Q1166.29 1527.44 1166.29 1523.69 Q1166.29 1519.97 1164.44 1517.81 Q1162.61 1515.64 1159.47 1515.64 Q1156.32 1515.64 1154.47 1517.81 Q1152.64 1519.97 1152.64 1523.69 Q1152.64 1527.44 1154.47 1529.6 Q1156.32 1531.75 1159.47 1531.75 Z" fill="#000000" fill-rule="evenodd" fill-opacity="1" /><path clip-path="url(#clip140)" d="M1180.32 1546.4 L1180.32 1542.14 Q1182.08 1542.98 1183.89 1543.42 Q1185.69 1543.86 1187.43 1543.86 Q1192.06 1543.86 1194.49 1540.75 Q1196.94 1537.63 1197.29 1531.29 Q1195.95 1533.28 1193.89 1534.34 Q1191.83 1535.41 1189.33 1535.41 Q1184.14 1535.41 1181.11 1532.28 Q1178.1 1529.13 1178.1 1523.69 Q1178.1 1518.37 1181.25 1515.15 Q1184.4 1511.93 1189.63 1511.93 Q1195.62 1511.93 1198.77 1516.54 Q1201.94 1521.12 1201.94 1529.87 Q1201.94 1538.05 1198.05 1542.93 Q1194.19 1547.79 1187.64 1547.79 Q1185.88 1547.79 1184.07 1547.44 Q1182.27 1547.1 1180.32 1546.4 M1189.63 1531.75 Q1192.78 1531.75 1194.6 1529.6 Q1196.46 1527.44 1196.46 1523.69 Q1196.46 1519.97 1194.6 1517.81 Q1192.78 1515.64 1189.63 1515.64 Q1186.48 1515.64 1184.63 1517.81 Q1182.8 1519.97 1182.8 1523.69 Q1182.8 1527.44 1184.63 1529.6 Q1186.48 1531.75 1189.63 1531.75 Z" fill="#000000" fill-rule="evenodd" fill-opacity="1" /><path clip-path="url(#clip140)" d="M1211.16 1543.18 L1218.79 1543.18 L1218.79 1516.82 L1210.48 1518.49 L1210.48 1514.23 L1218.75 1512.56 L1223.42 1512.56 L1223.42 1543.18 L1231.06 1543.18 L1231.06 1547.12 L1211.16 1547.12 L1211.16 1543.18 Z" fill="#000000" fill-rule="evenodd" fill-opacity="1" /><path clip-path="url(#clip140)" d="M1237.75 1532.24 L1250.23 1532.24 L1250.23 1536.03 L1237.75 1536.03 L1237.75 1532.24 Z" fill="#000000" fill-rule="evenodd" fill-opacity="1" /><path clip-path="url(#clip140)" d="M1267.61 1515.64 Q1264 1515.64 1262.17 1519.2 Q1260.37 1522.75 1260.37 1529.87 Q1260.37 1536.98 1262.17 1540.55 Q1264 1544.09 1267.61 1544.09 Q1271.25 1544.09 1273.05 1540.55 Q1274.88 1536.98 1274.88 1529.87 Q1274.88 1522.75 1273.05 1519.2 Q1271.25 1515.64 1267.61 1515.64 M1267.61 1511.93 Q1273.42 1511.93 1276.48 1516.54 Q1279.56 1521.12 1279.56 1529.87 Q1279.56 1538.6 1276.48 1543.21 Q1273.42 1547.79 1267.61 1547.79 Q1261.8 1547.79 1258.72 1543.21 Q1255.67 1538.6 1255.67 1529.87 Q1255.67 1521.12 1258.72 1516.54 Q1261.8 1511.93 1267.61 1511.93 Z" fill="#000000" fill-rule="evenodd" fill-opacity="1" /><path clip-path="url(#clip140)" d="M1288.59 1543.18 L1296.22 1543.18 L1296.22 1516.82 L1287.91 1518.49 L1287.91 1514.23 L1296.18 1512.56 L1300.85 1512.56 L1300.85 1543.18 L1308.49 1543.18 L1308.49 1547.12 L1288.59 1547.12 L1288.59 1543.18 Z" fill="#000000" fill-rule="evenodd" fill-opacity="1" /><path clip-path="url(#clip140)" d="M1315.18 1532.24 L1327.66 1532.24 L1327.66 1536.03 L1315.18 1536.03 L1315.18 1532.24 Z" fill="#000000" fill-rule="evenodd" fill-opacity="1" /><path clip-path="url(#clip140)" d="M1345.04 1515.64 Q1341.43 1515.64 1339.6 1519.2 Q1337.8 1522.75 1337.8 1529.87 Q1337.8 1536.98 1339.6 1540.55 Q1341.43 1544.09 1345.04 1544.09 Q1348.68 1544.09 1350.48 1540.55 Q1352.31 1536.98 1352.31 1529.87 Q1352.31 1522.75 1350.48 1519.2 Q1348.68 1515.64 1345.04 1515.64 M1345.04 1511.93 Q1350.85 1511.93 1353.91 1516.54 Q1356.99 1521.12 1356.99 1529.87 Q1356.99 1538.6 1353.91 1543.21 Q1350.85 1547.79 1345.04 1547.79 Q1339.23 1547.79 1336.15 1543.21 Q1333.1 1538.6 1333.1 1529.87 Q1333.1 1521.12 1336.15 1516.54 Q1339.23 1511.93 1345.04 1511.93 Z" fill="#000000" fill-rule="evenodd" fill-opacity="1" /><path clip-path="url(#clip140)" d="M1366.02 1543.18 L1373.65 1543.18 L1373.65 1516.82 L1365.34 1518.49 L1365.34 1514.23 L1373.61 1512.56 L1378.28 1512.56 L1378.28 1543.18 L1385.92 1543.18 L1385.92 1547.12 L1366.02 1547.12 L1366.02 1543.18 Z" fill="#000000" fill-rule="evenodd" fill-opacity="1" /><path clip-path="url(#clip140)" d="M1667.37 1543.18 L1683.69 1543.18 L1683.69 1547.12 L1661.75 1547.12 L1661.75 1543.18 Q1664.41 1540.43 1668.99 1535.8 Q1673.6 1531.15 1674.78 1529.81 Q1677.03 1527.28 1677.91 1525.55 Q1678.81 1523.79 1678.81 1522.1 Q1678.81 1519.34 1676.86 1517.61 Q1674.94 1515.87 1671.84 1515.87 Q1669.64 1515.87 1667.19 1516.63 Q1664.76 1517.4 1661.98 1518.95 L1661.98 1514.23 Q1664.8 1513.09 1667.26 1512.51 Q1669.71 1511.93 1671.75 1511.93 Q1677.12 1511.93 1680.31 1514.62 Q1683.51 1517.31 1683.51 1521.8 Q1683.51 1523.93 1682.7 1525.85 Q1681.91 1527.74 1679.8 1530.34 Q1679.23 1531.01 1676.12 1534.23 Q1673.02 1537.42 1667.37 1543.18 Z" fill="#000000" fill-rule="evenodd" fill-opacity="1" /><path clip-path="url(#clip140)" d="M1703.51 1515.64 Q1699.9 1515.64 1698.07 1519.2 Q1696.26 1522.75 1696.26 1529.87 Q1696.26 1536.98 1698.07 1540.55 Q1699.9 1544.09 1703.51 1544.09 Q1707.14 1544.09 1708.95 1540.55 Q1710.78 1536.98 1710.78 1529.87 Q1710.78 1522.75 1708.95 1519.2 Q1707.14 1515.64 1703.51 1515.64 M1703.51 1511.93 Q1709.32 1511.93 1712.37 1516.54 Q1715.45 1521.12 1715.45 1529.87 Q1715.45 1538.6 1712.37 1543.21 Q1709.32 1547.79 1703.51 1547.79 Q1697.7 1547.79 1694.62 1543.21 Q1691.56 1538.6 1691.56 1529.87 Q1691.56 1521.12 1694.62 1516.54 Q1697.7 1511.93 1703.51 1511.93 Z" fill="#000000" fill-rule="evenodd" fill-opacity="1" /><path clip-path="url(#clip140)" d="M1733.67 1515.64 Q1730.06 1515.64 1728.23 1519.2 Q1726.42 1522.75 1726.42 1529.87 Q1726.42 1536.98 1728.23 1540.55 Q1730.06 1544.09 1733.67 1544.09 Q1737.3 1544.09 1739.11 1540.55 Q1740.94 1536.98 1740.94 1529.87 Q1740.94 1522.75 1739.11 1519.2 Q1737.3 1515.64 1733.67 1515.64 M1733.67 1511.93 Q1739.48 1511.93 1742.54 1516.54 Q1745.61 1521.12 1745.61 1529.87 Q1745.61 1538.6 1742.54 1543.21 Q1739.48 1547.79 1733.67 1547.79 Q1727.86 1547.79 1724.78 1543.21 Q1721.73 1538.6 1721.73 1529.87 Q1721.73 1521.12 1724.78 1516.54 Q1727.86 1511.93 1733.67 1511.93 Z" fill="#000000" fill-rule="evenodd" fill-opacity="1" /><path clip-path="url(#clip140)" d="M1752.65 1512.56 L1774.87 1512.56 L1774.87 1514.55 L1762.33 1547.12 L1757.44 1547.12 L1769.25 1516.5 L1752.65 1516.5 L1752.65 1512.56 Z" fill="#000000" fill-rule="evenodd" fill-opacity="1" /><path clip-path="url(#clip140)" d="M1781.24 1532.24 L1793.72 1532.24 L1793.72 1536.03 L1781.24 1536.03 L1781.24 1532.24 Z" fill="#000000" fill-rule="evenodd" fill-opacity="1" /><path clip-path="url(#clip140)" d="M1811.1 1515.64 Q1807.49 1515.64 1805.66 1519.2 Q1803.85 1522.75 1803.85 1529.87 Q1803.85 1536.98 1805.66 1540.55 Q1807.49 1544.09 1811.1 1544.09 Q1814.73 1544.09 1816.54 1540.55 Q1818.37 1536.98 1818.37 1529.87 Q1818.37 1522.75 1816.54 1519.2 Q1814.73 1515.64 1811.1 1515.64 M1811.1 1511.93 Q1816.91 1511.93 1819.97 1516.54 Q1823.04 1521.12 1823.04 1529.87 Q1823.04 1538.6 1819.97 1543.21 Q1816.91 1547.79 1811.1 1547.79 Q1805.29 1547.79 1802.21 1543.21 Q1799.16 1538.6 1799.16 1529.87 Q1799.16 1521.12 1802.21 1516.54 Q1805.29 1511.93 1811.1 1511.93 Z" fill="#000000" fill-rule="evenodd" fill-opacity="1" /><path clip-path="url(#clip140)" d="M1832.07 1543.18 L1839.71 1543.18 L1839.71 1516.82 L1831.4 1518.49 L1831.4 1514.23 L1839.66 1512.56 L1844.34 1512.56 L1844.34 1543.18 L1851.98 1543.18 L1851.98 1547.12 L1832.07 1547.12 L1832.07 1543.18 Z" fill="#000000" fill-rule="evenodd" fill-opacity="1" /><path clip-path="url(#clip140)" d="M1858.67 1532.24 L1871.15 1532.24 L1871.15 1536.03 L1858.67 1536.03 L1858.67 1532.24 Z" fill="#000000" fill-rule="evenodd" fill-opacity="1" /><path clip-path="url(#clip140)" d="M1888.53 1515.64 Q1884.92 1515.64 1883.09 1519.2 Q1881.28 1522.75 1881.28 1529.87 Q1881.28 1536.98 1883.09 1540.55 Q1884.92 1544.09 1888.53 1544.09 Q1892.16 1544.09 1893.97 1540.55 Q1895.8 1536.98 1895.8 1529.87 Q1895.8 1522.75 1893.97 1519.2 Q1892.16 1515.64 1888.53 1515.64 M1888.53 1511.93 Q1894.34 1511.93 1897.4 1516.54 Q1900.47 1521.12 1900.47 1529.87 Q1900.47 1538.6 1897.4 1543.21 Q1894.34 1547.79 1888.53 1547.79 Q1882.72 1547.79 1879.64 1543.21 Q1876.59 1538.6 1876.59 1529.87 Q1876.59 1521.12 1879.64 1516.54 Q1882.72 1511.93 1888.53 1511.93 Z" fill="#000000" fill-rule="evenodd" fill-opacity="1" /><path clip-path="url(#clip140)" d="M1909.5 1543.18 L1917.14 1543.18 L1917.14 1516.82 L1908.83 1518.49 L1908.83 1514.23 L1917.09 1512.56 L1921.77 1512.56 L1921.77 1543.18 L1929.41 1543.18 L1929.41 1547.12 L1909.5 1547.12 L1909.5 1543.18 Z" fill="#000000" fill-rule="evenodd" fill-opacity="1" /><path clip-path="url(#clip140)" d="M2209.99 1543.18 L2226.31 1543.18 L2226.31 1547.12 L2204.37 1547.12 L2204.37 1543.18 Q2207.03 1540.43 2211.61 1535.8 Q2216.22 1531.15 2217.4 1529.81 Q2219.65 1527.28 2220.52 1525.55 Q2221.43 1523.79 2221.43 1522.1 Q2221.43 1519.34 2219.48 1517.61 Q2217.56 1515.87 2214.46 1515.87 Q2212.26 1515.87 2209.81 1516.63 Q2207.38 1517.4 2204.6 1518.95 L2204.6 1514.23 Q2207.42 1513.09 2209.88 1512.51 Q2212.33 1511.93 2214.37 1511.93 Q2219.74 1511.93 2222.93 1514.62 Q2226.13 1517.31 2226.13 1521.8 Q2226.13 1523.93 2225.32 1525.85 Q2224.53 1527.74 2222.42 1530.34 Q2221.84 1531.01 2218.74 1534.23 Q2215.64 1537.42 2209.99 1543.18 Z" fill="#000000" fill-rule="evenodd" fill-opacity="1" /><path clip-path="url(#clip140)" d="M2246.13 1515.64 Q2242.52 1515.64 2240.69 1519.2 Q2238.88 1522.75 2238.88 1529.87 Q2238.88 1536.98 2240.69 1540.55 Q2242.52 1544.09 2246.13 1544.09 Q2249.76 1544.09 2251.57 1540.55 Q2253.4 1536.98 2253.4 1529.87 Q2253.4 1522.75 2251.57 1519.2 Q2249.76 1515.64 2246.13 1515.64 M2246.13 1511.93 Q2251.94 1511.93 2254.99 1516.54 Q2258.07 1521.12 2258.07 1529.87 Q2258.07 1538.6 2254.99 1543.21 Q2251.94 1547.79 2246.13 1547.79 Q2240.32 1547.79 2237.24 1543.21 Q2234.18 1538.6 2234.18 1529.87 Q2234.18 1521.12 2237.24 1516.54 Q2240.32 1511.93 2246.13 1511.93 Z" fill="#000000" fill-rule="evenodd" fill-opacity="1" /><path clip-path="url(#clip140)" d="M2270.32 1543.18 L2286.64 1543.18 L2286.64 1547.12 L2264.69 1547.12 L2264.69 1543.18 Q2267.35 1540.43 2271.94 1535.8 Q2276.54 1531.15 2277.72 1529.81 Q2279.97 1527.28 2280.85 1525.55 Q2281.75 1523.79 2281.75 1522.1 Q2281.75 1519.34 2279.81 1517.61 Q2277.89 1515.87 2274.78 1515.87 Q2272.58 1515.87 2270.13 1516.63 Q2267.7 1517.4 2264.92 1518.95 L2264.92 1514.23 Q2267.75 1513.09 2270.2 1512.51 Q2272.65 1511.93 2274.69 1511.93 Q2280.06 1511.93 2283.26 1514.62 Q2286.45 1517.31 2286.45 1521.8 Q2286.45 1523.93 2285.64 1525.85 Q2284.85 1527.74 2282.75 1530.34 Q2282.17 1531.01 2279.07 1534.23 Q2275.96 1537.42 2270.32 1543.18 Z" fill="#000000" fill-rule="evenodd" fill-opacity="1" /><path clip-path="url(#clip140)" d="M2310.62 1528.49 Q2313.97 1529.2 2315.85 1531.47 Q2317.75 1533.74 2317.75 1537.07 Q2317.75 1542.19 2314.23 1544.99 Q2310.71 1547.79 2304.23 1547.79 Q2302.05 1547.79 2299.74 1547.35 Q2297.45 1546.93 2294.99 1546.08 L2294.99 1541.56 Q2296.94 1542.7 2299.25 1543.28 Q2301.57 1543.86 2304.09 1543.86 Q2308.49 1543.86 2310.78 1542.12 Q2313.09 1540.38 2313.09 1537.07 Q2313.09 1534.02 2310.94 1532.31 Q2308.81 1530.57 2304.99 1530.57 L2300.96 1530.57 L2300.96 1526.73 L2305.18 1526.73 Q2308.63 1526.73 2310.45 1525.36 Q2312.28 1523.97 2312.28 1521.38 Q2312.28 1518.72 2310.39 1517.31 Q2308.51 1515.87 2304.99 1515.87 Q2303.07 1515.87 2300.87 1516.29 Q2298.67 1516.7 2296.03 1517.58 L2296.03 1513.42 Q2298.7 1512.68 2301.01 1512.31 Q2303.35 1511.93 2305.41 1511.93 Q2310.73 1511.93 2313.83 1514.37 Q2316.94 1516.77 2316.94 1520.89 Q2316.94 1523.76 2315.29 1525.75 Q2313.65 1527.72 2310.62 1528.49 Z" fill="#000000" fill-rule="evenodd" fill-opacity="1" /><path clip-path="url(#clip140)" d="M2323.86 1532.24 L2336.33 1532.24 L2336.33 1536.03 L2323.86 1536.03 L2323.86 1532.24 Z" fill="#000000" fill-rule="evenodd" fill-opacity="1" /><path clip-path="url(#clip140)" d="M2353.72 1515.64 Q2350.11 1515.64 2348.28 1519.2 Q2346.47 1522.75 2346.47 1529.87 Q2346.47 1536.98 2348.28 1540.55 Q2350.11 1544.09 2353.72 1544.09 Q2357.35 1544.09 2359.16 1540.55 Q2360.99 1536.98 2360.99 1529.87 Q2360.99 1522.75 2359.16 1519.2 Q2357.35 1515.64 2353.72 1515.64 M2353.72 1511.93 Q2359.53 1511.93 2362.58 1516.54 Q2365.66 1521.12 2365.66 1529.87 Q2365.66 1538.6 2362.58 1543.21 Q2359.53 1547.79 2353.72 1547.79 Q2347.91 1547.79 2344.83 1543.21 Q2341.77 1538.6 2341.77 1529.87 Q2341.77 1521.12 2344.83 1516.54 Q2347.91 1511.93 2353.72 1511.93 Z" fill="#000000" fill-rule="evenodd" fill-opacity="1" /><path clip-path="url(#clip140)" d="M2374.69 1543.18 L2382.33 1543.18 L2382.33 1516.82 L2374.02 1518.49 L2374.02 1514.23 L2382.28 1512.56 L2386.96 1512.56 L2386.96 1543.18 L2394.6 1543.18 L2394.6 1547.12 L2374.69 1547.12 L2374.69 1543.18 Z" fill="#000000" fill-rule="evenodd" fill-opacity="1" /><path clip-path="url(#clip140)" d="M2401.29 1532.24 L2413.76 1532.24 L2413.76 1536.03 L2401.29 1536.03 L2401.29 1532.24 Z" fill="#000000" fill-rule="evenodd" fill-opacity="1" /><path clip-path="url(#clip140)" d="M2431.15 1515.64 Q2427.54 1515.64 2425.71 1519.2 Q2423.9 1522.75 2423.9 1529.87 Q2423.9 1536.98 2425.71 1540.55 Q2427.54 1544.09 2431.15 1544.09 Q2434.78 1544.09 2436.59 1540.55 Q2438.42 1536.98 2438.42 1529.87 Q2438.42 1522.75 2436.59 1519.2 Q2434.78 1515.64 2431.15 1515.64 M2431.15 1511.93 Q2436.96 1511.93 2440.01 1516.54 Q2443.09 1521.12 2443.09 1529.87 Q2443.09 1538.6 2440.01 1543.21 Q2436.96 1547.79 2431.15 1547.79 Q2425.34 1547.79 2422.26 1543.21 Q2419.2 1538.6 2419.2 1529.87 Q2419.2 1521.12 2422.26 1516.54 Q2425.34 1511.93 2431.15 1511.93 Z" fill="#000000" fill-rule="evenodd" fill-opacity="1" /><path clip-path="url(#clip140)" d="M2452.12 1543.18 L2459.76 1543.18 L2459.76 1516.82 L2451.45 1518.49 L2451.45 1514.23 L2459.71 1512.56 L2464.39 1512.56 L2464.39 1543.18 L2472.03 1543.18 L2472.03 1547.12 L2452.12 1547.12 L2452.12 1543.18 Z" fill="#000000" fill-rule="evenodd" fill-opacity="1" /><polyline clip-path="url(#clip142)" style="stroke:#000000; stroke-linecap:butt; stroke-linejoin:round; stroke-width:2; stroke-opacity:0.1; fill:none" points="
  138.959,1414.99 2352.76,1414.99 
  "/>
<polyline clip-path="url(#clip142)" style="stroke:#000000; stroke-linecap:butt; stroke-linejoin:round; stroke-width:2; stroke-opacity:0.1; fill:none" points="
  138.959,1230.05 2352.76,1230.05 
  "/>
<polyline clip-path="url(#clip142)" style="stroke:#000000; stroke-linecap:butt; stroke-linejoin:round; stroke-width:2; stroke-opacity:0.1; fill:none" points="
  138.959,1045.1 2352.76,1045.1 
  "/>
<polyline clip-path="url(#clip142)" style="stroke:#000000; stroke-linecap:butt; stroke-linejoin:round; stroke-width:2; stroke-opacity:0.1; fill:none" points="
  138.959,860.151 2352.76,860.151 
  "/>
<polyline clip-path="url(#clip142)" style="stroke:#000000; stroke-linecap:butt; stroke-linejoin:round; stroke-width:2; stroke-opacity:0.1; fill:none" points="
  138.959,675.203 2352.76,675.203 
  "/>
<polyline clip-path="url(#clip142)" style="stroke:#000000; stroke-linecap:butt; stroke-linejoin:round; stroke-width:2; stroke-opacity:0.1; fill:none" points="
  138.959,490.255 2352.76,490.255 
  "/>
<polyline clip-path="url(#clip142)" style="stroke:#000000; stroke-linecap:butt; stroke-linejoin:round; stroke-width:2; stroke-opacity:0.1; fill:none" points="
  138.959,305.308 2352.76,305.308 
  "/>
<polyline clip-path="url(#clip140)" style="stroke:#000000; stroke-linecap:butt; stroke-linejoin:round; stroke-width:4; stroke-opacity:1; fill:none" points="
  138.959,1486.45 138.959,123.472 
  "/>
<polyline clip-path="url(#clip140)" style="stroke:#000000; stroke-linecap:butt; stroke-linejoin:round; stroke-width:4; stroke-opacity:1; fill:none" points="
  138.959,1414.99 157.857,1414.99 
  "/>
<polyline clip-path="url(#clip140)" style="stroke:#000000; stroke-linecap:butt; stroke-linejoin:round; stroke-width:4; stroke-opacity:1; fill:none" points="
  138.959,1230.05 157.857,1230.05 
  "/>
<polyline clip-path="url(#clip140)" style="stroke:#000000; stroke-linecap:butt; stroke-linejoin:round; stroke-width:4; stroke-opacity:1; fill:none" points="
  138.959,1045.1 157.857,1045.1 
  "/>
<polyline clip-path="url(#clip140)" style="stroke:#000000; stroke-linecap:butt; stroke-linejoin:round; stroke-width:4; stroke-opacity:1; fill:none" points="
  138.959,860.151 157.857,860.151 
  "/>
<polyline clip-path="url(#clip140)" style="stroke:#000000; stroke-linecap:butt; stroke-linejoin:round; stroke-width:4; stroke-opacity:1; fill:none" points="
  138.959,675.203 157.857,675.203 
  "/>
<polyline clip-path="url(#clip140)" style="stroke:#000000; stroke-linecap:butt; stroke-linejoin:round; stroke-width:4; stroke-opacity:1; fill:none" points="
  138.959,490.255 157.857,490.255 
  "/>
<polyline clip-path="url(#clip140)" style="stroke:#000000; stroke-linecap:butt; stroke-linejoin:round; stroke-width:4; stroke-opacity:1; fill:none" points="
  138.959,305.308 157.857,305.308 
  "/>
<path clip-path="url(#clip140)" d="M91.0151 1400.79 Q87.404 1400.79 85.5753 1404.36 Q83.7697 1407.9 83.7697 1415.03 Q83.7697 1422.14 85.5753 1425.7 Q87.404 1429.24 91.0151 1429.24 Q94.6493 1429.24 96.4548 1425.7 Q98.2835 1422.14 98.2835 1415.03 Q98.2835 1407.9 96.4548 1404.36 Q94.6493 1400.79 91.0151 1400.79 M91.0151 1397.09 Q96.8252 1397.09 99.8808 1401.7 Q102.959 1406.28 102.959 1415.03 Q102.959 1423.76 99.8808 1428.36 Q96.8252 1432.95 91.0151 1432.95 Q85.2049 1432.95 82.1262 1428.36 Q79.0707 1423.76 79.0707 1415.03 Q79.0707 1406.28 82.1262 1401.7 Q85.2049 1397.09 91.0151 1397.09 Z" fill="#000000" fill-rule="evenodd" fill-opacity="1" /><path clip-path="url(#clip140)" d="M86.6401 1243.39 L102.959 1243.39 L102.959 1247.33 L81.0151 1247.33 L81.0151 1243.39 Q83.6771 1240.64 88.2604 1236.01 Q92.8669 1231.35 94.0475 1230.01 Q96.2928 1227.49 97.1724 1225.75 Q98.0752 1223.99 98.0752 1222.3 Q98.0752 1219.55 96.1308 1217.81 Q94.2095 1216.08 91.1077 1216.08 Q88.9086 1216.08 86.4549 1216.84 Q84.0244 1217.6 81.2466 1219.16 L81.2466 1214.43 Q84.0707 1213.3 86.5243 1212.72 Q88.978 1212.14 91.0151 1212.14 Q96.3854 1212.14 99.5798 1214.83 Q102.774 1217.51 102.774 1222 Q102.774 1224.13 101.964 1226.05 Q101.177 1227.95 99.0706 1230.54 Q98.4919 1231.22 95.39 1234.43 Q92.2882 1237.63 86.6401 1243.39 Z" fill="#000000" fill-rule="evenodd" fill-opacity="1" /><path clip-path="url(#clip140)" d="M93.3762 1031.89 L81.5707 1050.34 L93.3762 1050.34 L93.3762 1031.89 M92.1493 1027.82 L98.0289 1027.82 L98.0289 1050.34 L102.959 1050.34 L102.959 1054.23 L98.0289 1054.23 L98.0289 1062.38 L93.3762 1062.38 L93.3762 1054.23 L77.7744 1054.23 L77.7744 1049.72 L92.1493 1027.82 Z" fill="#000000" fill-rule="evenodd" fill-opacity="1" /><path clip-path="url(#clip140)" d="M91.4317 858.288 Q88.2836 858.288 86.4318 860.44 Q84.6031 862.593 84.6031 866.343 Q84.6031 870.07 86.4318 872.246 Q88.2836 874.399 91.4317 874.399 Q94.5799 874.399 96.4085 872.246 Q98.2604 870.07 98.2604 866.343 Q98.2604 862.593 96.4085 860.44 Q94.5799 858.288 91.4317 858.288 M100.714 843.635 L100.714 847.894 Q98.9548 847.061 97.1493 846.621 Q95.3669 846.181 93.6076 846.181 Q88.978 846.181 86.5243 849.306 Q84.0938 852.431 83.7466 858.751 Q85.1123 856.737 87.1725 855.672 Q89.2327 854.584 91.7095 854.584 Q96.9178 854.584 99.927 857.755 Q102.959 860.903 102.959 866.343 Q102.959 871.667 99.8113 874.885 Q96.6632 878.102 91.4317 878.102 Q85.4364 878.102 82.2651 873.519 Q79.0938 868.913 79.0938 860.186 Q79.0938 851.991 82.9827 847.13 Q86.8716 842.246 93.4225 842.246 Q95.1817 842.246 96.9641 842.593 Q98.7696 842.94 100.714 843.635 Z" fill="#000000" fill-rule="evenodd" fill-opacity="1" /><path clip-path="url(#clip140)" d="M91.1077 676.071 Q87.7743 676.071 85.8531 677.854 Q83.9549 679.636 83.9549 682.761 Q83.9549 685.886 85.8531 687.668 Q87.7743 689.451 91.1077 689.451 Q94.441 689.451 96.3623 687.668 Q98.2835 685.863 98.2835 682.761 Q98.2835 679.636 96.3623 677.854 Q94.4641 676.071 91.1077 676.071 M86.4318 674.081 Q83.4225 673.34 81.7327 671.28 Q80.066 669.219 80.066 666.257 Q80.066 662.113 83.0058 659.706 Q85.9688 657.298 91.1077 657.298 Q96.2697 657.298 99.2095 659.706 Q102.149 662.113 102.149 666.257 Q102.149 669.219 100.459 671.28 Q98.7928 673.34 95.8067 674.081 Q99.1863 674.868 101.061 677.159 Q102.959 679.451 102.959 682.761 Q102.959 687.784 99.8808 690.469 Q96.8252 693.155 91.1077 693.155 Q85.3901 693.155 82.3114 690.469 Q79.2559 687.784 79.2559 682.761 Q79.2559 679.451 81.154 677.159 Q83.0521 674.868 86.4318 674.081 M84.7188 666.696 Q84.7188 669.381 86.3855 670.886 Q88.0753 672.391 91.1077 672.391 Q94.1169 672.391 95.8067 670.886 Q97.5197 669.381 97.5197 666.696 Q97.5197 664.011 95.8067 662.507 Q94.1169 661.002 91.1077 661.002 Q88.0753 661.002 86.3855 662.507 Q84.7188 664.011 84.7188 666.696 Z" fill="#000000" fill-rule="evenodd" fill-opacity="1" /><path clip-path="url(#clip140)" d="M51.6634 503.6 L59.3023 503.6 L59.3023 477.235 L50.9921 478.901 L50.9921 474.642 L59.256 472.975 L63.9319 472.975 L63.9319 503.6 L71.5707 503.6 L71.5707 507.535 L51.6634 507.535 L51.6634 503.6 Z" fill="#000000" fill-rule="evenodd" fill-opacity="1" /><path clip-path="url(#clip140)" d="M91.0151 476.054 Q87.404 476.054 85.5753 479.619 Q83.7697 483.161 83.7697 490.29 Q83.7697 497.397 85.5753 500.961 Q87.404 504.503 91.0151 504.503 Q94.6493 504.503 96.4548 500.961 Q98.2835 497.397 98.2835 490.29 Q98.2835 483.161 96.4548 479.619 Q94.6493 476.054 91.0151 476.054 M91.0151 472.35 Q96.8252 472.35 99.8808 476.957 Q102.959 481.54 102.959 490.29 Q102.959 499.017 99.8808 503.623 Q96.8252 508.207 91.0151 508.207 Q85.2049 508.207 82.1262 503.623 Q79.0707 499.017 79.0707 490.29 Q79.0707 481.54 82.1262 476.957 Q85.2049 472.35 91.0151 472.35 Z" fill="#000000" fill-rule="evenodd" fill-opacity="1" /><path clip-path="url(#clip140)" d="M53.2606 318.652 L60.8995 318.652 L60.8995 292.287 L52.5893 293.954 L52.5893 289.694 L60.8532 288.028 L65.5291 288.028 L65.5291 318.652 L73.1679 318.652 L73.1679 322.588 L53.2606 322.588 L53.2606 318.652 Z" fill="#000000" fill-rule="evenodd" fill-opacity="1" /><path clip-path="url(#clip140)" d="M86.6401 318.652 L102.959 318.652 L102.959 322.588 L81.0151 322.588 L81.0151 318.652 Q83.6771 315.898 88.2604 311.268 Q92.8669 306.616 94.0475 305.273 Q96.2928 302.75 97.1724 301.014 Q98.0752 299.254 98.0752 297.565 Q98.0752 294.81 96.1308 293.074 Q94.2095 291.338 91.1077 291.338 Q88.9086 291.338 86.4549 292.102 Q84.0244 292.866 81.2466 294.417 L81.2466 289.694 Q84.0707 288.56 86.5243 287.981 Q88.978 287.403 91.0151 287.403 Q96.3854 287.403 99.5798 290.088 Q102.774 292.773 102.774 297.264 Q102.774 299.393 101.964 301.315 Q101.177 303.213 99.0706 305.805 Q98.4919 306.477 95.39 309.694 Q92.2882 312.889 86.6401 318.652 Z" fill="#000000" fill-rule="evenodd" fill-opacity="1" /><path clip-path="url(#clip140)" d="M1083.92 12.096 L1092.11 12.096 L1092.11 72.576 L1083.92 72.576 L1083.92 12.096 Z" fill="#000000" fill-rule="evenodd" fill-opacity="1" /><path clip-path="url(#clip140)" d="M1145.78 45.1919 L1145.78 72.576 L1138.33 72.576 L1138.33 45.4349 Q1138.33 38.994 1135.81 35.7938 Q1133.3 32.5936 1128.28 32.5936 Q1122.24 32.5936 1118.76 36.4419 Q1115.28 40.2903 1115.28 46.9338 L1115.28 72.576 L1107.78 72.576 L1107.78 27.2059 L1115.28 27.2059 L1115.28 34.2544 Q1117.95 30.163 1121.56 28.1376 Q1125.2 26.1121 1129.94 26.1121 Q1137.76 26.1121 1141.77 30.9732 Q1145.78 35.7938 1145.78 45.1919 Z" fill="#000000" fill-rule="evenodd" fill-opacity="1" /><path clip-path="url(#clip140)" d="M1183.62 9.54393 L1183.62 15.7418 L1176.49 15.7418 Q1172.48 15.7418 1170.9 17.3622 Q1169.36 18.9825 1169.36 23.1955 L1169.36 27.2059 L1181.63 27.2059 L1181.63 32.9987 L1169.36 32.9987 L1169.36 72.576 L1161.86 72.576 L1161.86 32.9987 L1154.73 32.9987 L1154.73 27.2059 L1161.86 27.2059 L1161.86 24.0462 Q1161.86 16.471 1165.39 13.0277 Q1168.91 9.54393 1176.57 9.54393 L1183.62 9.54393 Z" fill="#000000" fill-rule="evenodd" fill-opacity="1" /><path clip-path="url(#clip140)" d="M1189.85 9.54393 L1197.31 9.54393 L1197.31 72.576 L1189.85 72.576 L1189.85 9.54393 Z" fill="#000000" fill-rule="evenodd" fill-opacity="1" /><path clip-path="url(#clip140)" d="M1233.52 49.7694 Q1224.49 49.7694 1221.01 51.8354 Q1217.52 53.9013 1217.52 58.8839 Q1217.52 62.8538 1220.11 65.2034 Q1222.75 67.5124 1227.24 67.5124 Q1233.44 67.5124 1237.17 63.1374 Q1240.94 58.7219 1240.94 51.4303 L1240.94 49.7694 L1233.52 49.7694 M1248.39 46.6907 L1248.39 72.576 L1240.94 72.576 L1240.94 65.6895 Q1238.38 69.8214 1234.58 71.8063 Q1230.77 73.7508 1225.26 73.7508 Q1218.29 73.7508 1214.16 69.8619 Q1210.07 65.9325 1210.07 59.3701 Q1210.07 51.7138 1215.17 47.825 Q1220.32 43.9361 1230.48 43.9361 L1240.94 43.9361 L1240.94 43.2069 Q1240.94 38.0623 1237.53 35.2672 Q1234.17 32.4315 1228.05 32.4315 Q1224.17 32.4315 1220.48 33.3632 Q1216.79 34.295 1213.39 36.1584 L1213.39 29.2718 Q1217.48 27.692 1221.33 26.9223 Q1225.18 26.1121 1228.82 26.1121 Q1238.67 26.1121 1243.53 31.2163 Q1248.39 36.3204 1248.39 46.6907 Z" fill="#000000" fill-rule="evenodd" fill-opacity="1" /><path clip-path="url(#clip140)" d="M1271.12 14.324 L1271.12 27.2059 L1286.47 27.2059 L1286.47 32.9987 L1271.12 32.9987 L1271.12 57.6282 Q1271.12 63.1779 1272.61 64.7578 Q1274.15 66.3376 1278.81 66.3376 L1286.47 66.3376 L1286.47 72.576 L1278.81 72.576 Q1270.18 72.576 1266.9 69.3758 Q1263.62 66.1351 1263.62 57.6282 L1263.62 32.9987 L1258.15 32.9987 L1258.15 27.2059 L1263.62 27.2059 L1263.62 14.324 L1271.12 14.324 Z" fill="#000000" fill-rule="evenodd" fill-opacity="1" /><path clip-path="url(#clip140)" d="M1296.27 27.2059 L1303.72 27.2059 L1303.72 72.576 L1296.27 72.576 L1296.27 27.2059 M1296.27 9.54393 L1303.72 9.54393 L1303.72 18.9825 L1296.27 18.9825 L1296.27 9.54393 Z" fill="#000000" fill-rule="evenodd" fill-opacity="1" /><path clip-path="url(#clip140)" d="M1336.9 32.4315 Q1330.91 32.4315 1327.42 37.1306 Q1323.94 41.7891 1323.94 49.9314 Q1323.94 58.0738 1327.38 62.7728 Q1330.87 67.4314 1336.9 67.4314 Q1342.86 67.4314 1346.34 62.7323 Q1349.82 58.0333 1349.82 49.9314 Q1349.82 41.8701 1346.34 37.1711 Q1342.86 32.4315 1336.9 32.4315 M1336.9 26.1121 Q1346.62 26.1121 1352.17 32.4315 Q1357.72 38.7509 1357.72 49.9314 Q1357.72 61.0714 1352.17 67.4314 Q1346.62 73.7508 1336.9 73.7508 Q1327.14 73.7508 1321.59 67.4314 Q1316.08 61.0714 1316.08 49.9314 Q1316.08 38.7509 1321.59 32.4315 Q1327.14 26.1121 1336.9 26.1121 Z" fill="#000000" fill-rule="evenodd" fill-opacity="1" /><path clip-path="url(#clip140)" d="M1407.79 45.1919 L1407.79 72.576 L1400.34 72.576 L1400.34 45.4349 Q1400.34 38.994 1397.83 35.7938 Q1395.32 32.5936 1390.29 32.5936 Q1384.26 32.5936 1380.77 36.4419 Q1377.29 40.2903 1377.29 46.9338 L1377.29 72.576 L1369.8 72.576 L1369.8 27.2059 L1377.29 27.2059 L1377.29 34.2544 Q1379.96 30.163 1383.57 28.1376 Q1387.21 26.1121 1391.95 26.1121 Q1399.77 26.1121 1403.78 30.9732 Q1407.79 35.7938 1407.79 45.1919 Z" fill="#000000" fill-rule="evenodd" fill-opacity="1" /><polyline clip-path="url(#clip142)" style="stroke:#009af9; stroke-linecap:butt; stroke-linejoin:round; stroke-width:4; stroke-opacity:1; fill:none" points="
  2236.43,1300.92 2202.54,1247.41 2168.65,1189.12 2134.76,1218.01 2100.78,1298.33 2066.89,1404.02 2033,1264.98 1999.11,1279.54 1965.12,1223.63 1931.23,1123.07 
  1897.34,1263.33 1863.45,1447.87 1829.47,1059.98 1795.58,1151.2 1761.69,1116.68 1727.8,1101.25 1693.82,1167.42 1659.92,1205.07 1626.03,1268.33 1592.14,1153.65 
  1558.16,1102.72 1524.27,1212.66 1490.38,1271.45 1456.49,1198.82 1422.51,1143.93 1388.62,1155.57 1354.72,1173.87 1320.83,1142.04 1286.85,1134.91 1252.96,1023.37 
  1219.07,915.824 1185.18,968.623 1151.2,1037.91 1117.31,1076.12 1083.42,1239.47 1049.53,1087.11 1015.54,1017.31 981.651,1117.93 947.761,847.997 913.871,459.303 
  879.887,162.047 845.997,374.25 812.106,709.329 778.216,813.758 744.233,883.749 710.342,569.492 676.452,392.714 642.561,843.713 608.578,1112.39 574.688,1018.03 
  540.797,875.108 506.907,909.866 472.923,1019.96 439.033,1158.58 405.142,1136.18 371.252,1268.41 337.269,1296.73 303.378,1300.36 269.488,1304.14 235.597,1315.98 
  201.614,1280.17 
  "/>
<polyline clip-path="url(#clip142)" style="stroke:#e26f46; stroke-linecap:butt; stroke-linejoin:round; stroke-width:4; stroke-opacity:1; fill:none" points="
  2290.1,989.614 2287.22,980.367 2284.44,1026.6 2281.56,989.614 2278.77,1100.58 2275.9,1128.33 2273.3,1109.83 2270.42,1137.57 2267.54,1183.81 2264.75,1156.07 
  2261.87,1174.56 2259.09,1174.56 2256.21,1128.33 2253.33,1137.57 2250.55,1137.57 2247.67,1119.08 2244.88,1220.8 2242,1211.55 2239.31,1193.06 2236.43,1183.81 
  2233.56,1202.3 2230.77,1183.81 2227.89,1183.81 2225.11,1156.07 2222.23,1165.31 2219.35,1174.56 2216.56,1165.31 2213.69,1146.82 2210.9,1183.81 2208.02,1183.81 
  2205.42,1174.56 2202.54,1165.31 2199.66,1165.31 2196.88,1156.07 2194,1146.82 2191.22,1165.31 2188.34,1137.57 2185.46,1146.82 2182.67,1137.57 2179.79,1156.07 
  2177.01,1165.31 2174.13,1156.07 2171.53,1165.31 2168.65,1165.31 2165.77,1165.31 2162.99,1183.81 2160.11,1193.06 2157.33,1165.31 2154.45,1174.56 2151.57,1174.56 
  2148.78,1174.56 2145.9,1174.56 2143.12,1183.81 2140.24,1183.81 2137.64,1165.31 2134.76,1174.56 2131.88,1211.55 2129.1,1193.06 2126.22,1193.06 2123.43,1193.06 
  2120.56,1183.81 2117.68,1165.31 2114.89,1174.56 2112.01,1193.06 2109.23,1156.07 2106.35,1165.31 2103.66,1183.81 2100.78,1183.81 2097.9,1174.56 2095.12,1165.31 
  2092.24,1165.31 2089.45,1156.07 2086.57,1156.07 2083.69,1156.07 2080.91,1165.31 2078.03,1156.07 2075.25,1174.56 2072.37,1137.57 2069.77,1156.07 2066.89,1183.81 
  2064.01,1156.07 2061.22,1156.07 2058.35,1146.82 2055.56,1137.57 2052.68,1119.08 2049.8,1109.83 2047.02,1128.33 2044.14,1109.83 2041.35,1119.08 2038.48,1119.08 
  2035.88,1119.08 2033,1128.33 2030.12,1137.57 2027.33,1146.82 2024.46,1137.57 2021.67,1109.83 2018.79,1137.57 2015.91,1128.33 2013.13,1137.57 2010.25,1128.33 
  2007.46,1128.33 2004.59,1119.08 2001.99,1109.83 1999.11,1109.83 1996.23,1119.08 1993.44,1128.33 1990.57,1128.33 1987.78,1109.83 1984.9,1082.09 1982.02,1137.57 
  1979.24,1128.33 1976.36,1137.57 1973.57,1119.08 1970.7,1054.35 1968,1109.83 1965.12,1109.83 1962.25,1128.33 1959.46,1119.08 1956.58,1119.08 1953.8,1109.83 
  1950.92,1091.34 1948.04,1100.58 1945.25,1063.59 1942.38,1035.85 1939.59,989.614 1936.71,989.614 1934.11,1100.58 1931.23,1100.58 1928.36,1137.57 1925.57,1137.57 
  1922.69,1165.31 1919.91,1211.55 1917.03,1165.31 1914.15,1165.31 1911.36,1156.07 1908.49,1119.08 1905.7,1146.82 1902.82,1165.31 1900.22,1165.31 1897.34,1156.07 
  1894.47,1183.81 1891.68,1165.31 1888.8,1146.82 1886.02,1211.55 1883.14,1156.07 1880.26,1146.82 1877.47,1128.33 1874.6,1156.07 1871.81,1156.07 1868.93,1230.05 
  1866.33,1239.29 1863.45,1211.55 1860.57,1257.79 1857.79,1146.82 1854.91,1054.35 1852.13,1017.36 1849.25,971.12 1846.37,943.377 1843.58,943.377 1840.7,934.13 
  1837.92,971.12 1835.04,1017.36 1832.35,1082.09 1829.47,1100.58 1826.59,1100.58 1823.81,1100.58 1820.93,1128.33 1818.14,1128.33 1815.26,1119.08 1812.39,1100.58 
  1809.6,1100.58 1806.72,1109.83 1803.94,1109.83 1801.06,1137.57 1798.46,1137.57 1795.58,1137.57 1792.7,1146.82 1789.92,1137.57 1787.04,1128.33 1784.25,1128.33 
  1781.37,1063.59 1778.49,1119.08 1775.71,1109.83 1772.83,1045.1 1770.05,1109.83 1767.17,1137.57 1764.57,1137.57 1761.69,1137.57 1758.81,1128.33 1756.02,1109.83 
  1753.15,989.614 1750.36,1017.36 1747.48,1128.33 1744.6,1137.57 1741.82,1119.08 1738.94,1119.08 1736.15,1109.83 1733.28,1119.08 1730.68,1146.82 1727.8,1146.82 
  1724.92,1137.57 1722.13,1156.07 1719.26,1128.33 1716.47,1156.07 1713.59,1156.07 1710.71,1137.57 1707.93,1109.83 1705.05,1109.83 1702.26,1119.08 1699.39,1146.82 
  1696.69,1174.56 1693.82,1165.31 1690.94,1174.56 1688.15,1165.31 1685.27,1174.56 1682.49,1156.07 1679.61,1183.81 1676.73,1257.79 1673.95,1220.8 1671.07,1230.05 
  1668.28,1193.06 1665.4,1128.33 1662.8,1165.31 1659.92,1183.81 1657.05,1183.81 1654.26,1193.06 1651.38,1183.81 1648.6,1183.81 1645.72,1174.56 1642.84,1174.56 
  1640.05,1165.31 1637.18,1165.31 1634.39,1156.07 1631.51,1165.31 1628.91,1220.8 1626.03,1239.29 1623.16,1248.54 1620.37,1378 1617.49,1322.52 1614.71,1156.07 
  1611.83,1165.31 1608.95,1174.56 1606.16,1137.57 1603.29,1119.08 1600.5,1128.33 1597.62,1156.07 1595.02,1156.07 1592.14,1137.57 1589.27,1156.07 1586.48,1146.82 
  1583.6,1119.08 1580.82,1146.82 1577.94,1165.31 1575.06,1137.57 1572.27,1146.82 1569.4,1137.57 1566.61,1119.08 1563.73,1119.08 1561.04,1146.82 1558.16,1137.57 
  1555.28,1137.57 1552.5,1146.82 1549.62,1146.82 1546.83,1165.31 1543.95,1156.07 1541.08,1165.31 1538.29,1183.81 1535.41,1156.07 1532.63,1165.31 1529.75,1165.31 
  1527.15,1183.81 1524.27,1165.31 1521.39,1183.81 1518.61,1202.3 1515.73,1183.81 1512.94,1202.3 1510.06,1193.06 1507.19,1174.56 1504.4,1165.31 1501.52,1174.56 
  1498.74,1193.06 1495.86,1183.81 1493.26,1193.06 1490.38,1202.3 1487.5,1156.07 1484.72,1146.82 1481.84,1156.07 1479.05,1156.07 1476.17,1165.31 1473.3,1165.31 
  1470.51,1156.07 1467.63,1146.82 1464.85,1137.57 1461.97,1156.07 1459.37,1137.57 1456.49,1137.57 1453.61,1137.57 1450.83,1137.57 1447.95,1137.57 1445.16,1119.08 
  1442.28,1128.33 1439.4,1137.57 1436.62,1146.82 1433.74,1128.33 1430.96,1137.57 1428.08,1146.82 1425.38,1156.07 1422.51,1156.07 1419.63,1165.31 1416.84,1156.07 
  1413.96,1146.82 1411.18,1156.07 1408.3,1146.82 1405.42,1146.82 1402.64,1146.82 1399.76,1137.57 1396.97,1109.83 1394.09,1119.08 1391.49,1137.57 1388.62,1137.57 
  1385.74,1137.57 1382.95,1119.08 1380.07,1137.57 1377.29,1100.58 1374.41,1128.33 1371.53,1146.82 1368.75,1165.31 1365.87,1128.33 1363.08,1137.57 1360.2,1137.57 
  1357.6,1156.07 1354.72,1156.07 1351.85,1137.57 1349.06,1156.07 1346.18,1109.83 1343.4,1137.57 1340.52,1119.08 1337.64,1137.57 1334.85,1091.34 1331.98,1146.82 
  1329.19,1137.57 1326.31,1128.33 1323.71,1119.08 1320.83,1146.82 1317.96,1156.07 1315.17,1146.82 1312.29,1156.07 1309.51,1137.57 1306.63,1156.07 1303.75,1165.31 
  1300.96,1128.33 1298.09,1146.82 1295.3,1137.57 1292.42,1174.56 1289.73,1174.56 1286.85,1165.31 1283.97,1165.31 1281.19,1146.82 1278.31,1119.08 1275.52,1137.57 
  1272.65,1119.08 1269.77,1128.33 1266.98,1109.83 1264.1,1128.33 1261.32,1119.08 1258.44,1109.83 1255.84,1100.58 1252.96,1054.35 1250.08,980.367 1247.3,980.367 
  1244.42,971.12 1241.63,980.367 1238.75,989.614 1235.88,1100.58 1233.09,1063.59 1230.21,1100.58 1227.43,1082.09 1224.55,1072.84 1221.95,1035.85 1219.07,1035.85 
  1216.19,1091.34 1213.41,1091.34 1210.53,1082.09 1207.74,1100.58 1204.86,1091.34 1201.99,1035.85 1199.2,1063.59 1196.32,989.614 1193.54,1017.36 1190.66,1072.84 
  1188.06,1035.85 1185.18,1091.34 1182.3,1054.35 1179.52,1072.84 1176.64,1054.35 1173.85,1054.35 1170.97,1008.11 1168.1,989.614 1165.31,1072.84 1162.43,1109.83 
  1159.65,1109.83 1156.77,1119.08 1154.07,1128.33 1151.2,1119.08 1148.32,1128.33 1145.53,1119.08 1142.65,1109.83 1139.87,1137.57 1136.99,1119.08 1134.11,1128.33 
  1131.33,1109.83 1128.45,1100.58 1125.66,1137.57 1122.78,1137.57 1120.18,1128.33 1117.31,1146.82 1114.43,1137.57 1111.64,1156.07 1108.76,1119.08 1105.98,1146.82 
  1103.1,1137.57 1100.22,1156.07 1097.44,1146.82 1094.56,1165.31 1091.77,1193.06 1088.89,1202.3 1086.29,1156.07 1083.42,1146.82 1080.54,1091.34 1077.75,1128.33 
  1074.87,1109.83 1072.09,1146.82 1069.21,1156.07 1066.33,1156.07 1063.55,1100.58 1060.67,1119.08 1057.88,1109.83 1055,1137.57 1052.4,1128.33 1049.53,1146.82 
  1046.65,1109.83 1043.86,1100.58 1040.98,1091.34 1038.2,1137.57 1035.32,1137.57 1032.44,1100.58 1029.66,1026.6 1026.78,1026.6 1023.99,1054.35 1021.11,1100.58 
  1018.42,1109.83 1015.54,1119.08 1012.66,1091.34 1009.88,1091.34 1007,1072.84 1004.21,1109.83 1001.34,1109.83 998.457,1119.08 995.672,1119.08 992.794,1119.08 
  990.008,1100.58 987.13,1248.54 984.53,1137.57 981.651,1156.07 978.773,1072.84 975.988,998.862 973.109,980.367 970.324,998.862 967.445,971.12 964.567,952.625 
  961.781,989.614 958.903,1091.34 956.118,980.367 953.239,1026.6 950.639,934.13 947.761,943.377 944.883,924.883 942.097,739.935 939.219,795.419 936.433,776.924 
  933.555,878.646 930.677,786.172 927.891,758.43 925.013,739.935 922.227,675.203 919.349,749.182 916.749,619.719 913.871,536.492 910.992,517.998 908.207,619.719 
  905.328,527.245 902.543,573.482 899.664,712.193 896.786,527.245 894.001,628.966 891.122,619.719 888.337,481.008 885.458,471.761 882.766,490.255 879.887,453.266 
  877.009,499.503 874.223,490.255 871.345,582.729 868.559,527.245 865.681,499.503 862.803,499.503 860.017,499.503 857.139,508.75 854.353,517.998 851.475,601.224 
  848.875,554.987 845.997,693.698 843.118,739.935 840.333,721.44 837.455,730.688 834.669,776.924 831.791,610.471 828.912,804.667 826.127,813.914 823.248,776.924 
  820.463,795.419 817.585,832.409 814.985,823.161 812.106,934.13 
  "/>
<path clip-path="url(#clip140)" d="
M1759.88 324.425 L2278.96 324.425 L2278.96 168.905 L1759.88 168.905  Z
  " fill="#ffffff" fill-rule="evenodd" fill-opacity="1"/>
<polyline clip-path="url(#clip140)" style="stroke:#000000; stroke-linecap:butt; stroke-linejoin:round; stroke-width:4; stroke-opacity:1; fill:none" points="
  1759.88,324.425 2278.96,324.425 2278.96,168.905 1759.88,168.905 1759.88,324.425 
  "/>
<polyline clip-path="url(#clip140)" style="stroke:#009af9; stroke-linecap:butt; stroke-linejoin:round; stroke-width:4; stroke-opacity:1; fill:none" points="
  1784.48,220.745 1932.07,220.745 
  "/>
<path clip-path="url(#clip140)" d="M1972.5 208.071 L1966.16 225.27 L1978.87 225.27 L1972.5 208.071 M1969.86 203.465 L1975.16 203.465 L1988.33 238.025 L1983.47 238.025 L1980.32 229.159 L1964.75 229.159 L1961.6 238.025 L1956.67 238.025 L1969.86 203.465 Z" fill="#000000" fill-rule="evenodd" fill-opacity="1" /><path clip-path="url(#clip140)" d="M2011.02 213.094 L2011.02 217.076 Q2009.21 216.08 2007.38 215.594 Q2005.58 215.085 2003.73 215.085 Q1999.58 215.085 1997.29 217.724 Q1995 220.34 1995 225.085 Q1995 229.83 1997.29 232.469 Q1999.58 235.085 2003.73 235.085 Q2005.58 235.085 2007.38 234.599 Q2009.21 234.089 2011.02 233.094 L2011.02 237.029 Q2009.24 237.863 2007.31 238.279 Q2005.42 238.696 2003.26 238.696 Q1997.41 238.696 1993.96 235.015 Q1990.51 231.335 1990.51 225.085 Q1990.51 218.742 1993.98 215.108 Q1997.48 211.474 2003.54 211.474 Q2005.51 211.474 2007.38 211.891 Q2009.26 212.284 2011.02 213.094 Z" fill="#000000" fill-rule="evenodd" fill-opacity="1" /><path clip-path="url(#clip140)" d="M2022.64 204.738 L2022.64 212.099 L2031.41 212.099 L2031.41 215.409 L2022.64 215.409 L2022.64 229.483 Q2022.64 232.654 2023.5 233.557 Q2024.37 234.46 2027.04 234.46 L2031.41 234.46 L2031.41 238.025 L2027.04 238.025 Q2022.11 238.025 2020.23 236.196 Q2018.36 234.344 2018.36 229.483 L2018.36 215.409 L2015.23 215.409 L2015.23 212.099 L2018.36 212.099 L2018.36 204.738 L2022.64 204.738 Z" fill="#000000" fill-rule="evenodd" fill-opacity="1" /><path clip-path="url(#clip140)" d="M2036.57 227.793 L2036.57 212.099 L2040.83 212.099 L2040.83 227.631 Q2040.83 231.312 2042.27 233.164 Q2043.7 234.992 2046.57 234.992 Q2050.02 234.992 2052.01 232.793 Q2054.03 230.594 2054.03 226.798 L2054.03 212.099 L2058.29 212.099 L2058.29 238.025 L2054.03 238.025 L2054.03 234.043 Q2052.48 236.404 2050.42 237.562 Q2048.38 238.696 2045.67 238.696 Q2041.2 238.696 2038.89 235.918 Q2036.57 233.14 2036.57 227.793 M2047.29 211.474 L2047.29 211.474 Z" fill="#000000" fill-rule="evenodd" fill-opacity="1" /><path clip-path="url(#clip140)" d="M2078.84 224.992 Q2073.68 224.992 2071.69 226.173 Q2069.7 227.353 2069.7 230.201 Q2069.7 232.469 2071.18 233.812 Q2072.68 235.131 2075.25 235.131 Q2078.8 235.131 2080.93 232.631 Q2083.08 230.108 2083.08 225.941 L2083.08 224.992 L2078.84 224.992 M2087.34 223.233 L2087.34 238.025 L2083.08 238.025 L2083.08 234.089 Q2081.62 236.451 2079.44 237.585 Q2077.27 238.696 2074.12 238.696 Q2070.14 238.696 2067.78 236.474 Q2065.44 234.228 2065.44 230.478 Q2065.44 226.103 2068.36 223.881 Q2071.3 221.659 2077.11 221.659 L2083.08 221.659 L2083.08 221.242 Q2083.08 218.303 2081.13 216.705 Q2079.21 215.085 2075.72 215.085 Q2073.49 215.085 2071.39 215.617 Q2069.28 216.15 2067.34 217.215 L2067.34 213.279 Q2069.68 212.377 2071.87 211.937 Q2074.07 211.474 2076.16 211.474 Q2081.78 211.474 2084.56 214.391 Q2087.34 217.307 2087.34 223.233 Z" fill="#000000" fill-rule="evenodd" fill-opacity="1" /><path clip-path="url(#clip140)" d="M2096.11 202.006 L2100.37 202.006 L2100.37 238.025 L2096.11 238.025 L2096.11 202.006 Z" fill="#000000" fill-rule="evenodd" fill-opacity="1" /><polyline clip-path="url(#clip140)" style="stroke:#e26f46; stroke-linecap:butt; stroke-linejoin:round; stroke-width:4; stroke-opacity:1; fill:none" points="
  1784.48,272.585 1932.07,272.585 
  "/>
<path clip-path="url(#clip140)" d="M1956.67 255.305 L1978.52 255.305 L1978.52 259.24 L1961.34 259.24 L1961.34 269.471 L1977.8 269.471 L1977.8 273.406 L1961.34 273.406 L1961.34 285.929 L1978.94 285.929 L1978.94 289.865 L1956.67 289.865 L1956.67 255.305 Z" fill="#000000" fill-rule="evenodd" fill-opacity="1" /><path clip-path="url(#clip140)" d="M2007.99 263.939 L1998.61 276.555 L2008.47 289.865 L2003.45 289.865 L1995.9 279.68 L1988.36 289.865 L1983.33 289.865 L1993.4 276.3 L1984.19 263.939 L1989.21 263.939 L1996.09 273.175 L2002.96 263.939 L2007.99 263.939 Z" fill="#000000" fill-rule="evenodd" fill-opacity="1" /><path clip-path="url(#clip140)" d="M2018.61 285.976 L2018.61 299.726 L2014.33 299.726 L2014.33 263.939 L2018.61 263.939 L2018.61 267.874 Q2019.95 265.559 2021.99 264.448 Q2024.05 263.314 2026.9 263.314 Q2031.62 263.314 2034.56 267.064 Q2037.52 270.814 2037.52 276.925 Q2037.52 283.036 2034.56 286.786 Q2031.62 290.536 2026.9 290.536 Q2024.05 290.536 2021.99 289.425 Q2019.95 288.291 2018.61 285.976 M2033.1 276.925 Q2033.1 272.226 2031.16 269.564 Q2029.24 266.879 2025.86 266.879 Q2022.48 266.879 2020.53 269.564 Q2018.61 272.226 2018.61 276.925 Q2018.61 281.624 2020.53 284.309 Q2022.48 286.971 2025.86 286.971 Q2029.24 286.971 2031.16 284.309 Q2033.1 281.624 2033.1 276.925 Z" fill="#000000" fill-rule="evenodd" fill-opacity="1" /><path clip-path="url(#clip140)" d="M2066.76 275.837 L2066.76 277.92 L2047.18 277.92 Q2047.45 282.318 2049.81 284.633 Q2052.2 286.925 2056.43 286.925 Q2058.89 286.925 2061.18 286.323 Q2063.49 285.721 2065.76 284.517 L2065.76 288.545 Q2063.47 289.517 2061.06 290.027 Q2058.66 290.536 2056.18 290.536 Q2049.98 290.536 2046.34 286.925 Q2042.73 283.314 2042.73 277.156 Q2042.73 270.791 2046.16 267.064 Q2049.61 263.314 2055.44 263.314 Q2060.67 263.314 2063.7 266.693 Q2066.76 270.05 2066.76 275.837 M2062.5 274.587 Q2062.45 271.092 2060.53 269.008 Q2058.63 266.925 2055.49 266.925 Q2051.92 266.925 2049.77 268.939 Q2047.64 270.953 2047.31 274.61 L2062.5 274.587 Z" fill="#000000" fill-rule="evenodd" fill-opacity="1" /><path clip-path="url(#clip140)" d="M2092.41 264.934 L2092.41 268.916 Q2090.6 267.92 2088.77 267.434 Q2086.97 266.925 2085.12 266.925 Q2080.97 266.925 2078.68 269.564 Q2076.39 272.18 2076.39 276.925 Q2076.39 281.67 2078.68 284.309 Q2080.97 286.925 2085.12 286.925 Q2086.97 286.925 2088.77 286.439 Q2090.6 285.929 2092.41 284.934 L2092.41 288.869 Q2090.62 289.703 2088.7 290.119 Q2086.81 290.536 2084.65 290.536 Q2078.8 290.536 2075.35 286.855 Q2071.9 283.175 2071.9 276.925 Q2071.9 270.582 2075.37 266.948 Q2078.87 263.314 2084.93 263.314 Q2086.9 263.314 2088.77 263.731 Q2090.65 264.124 2092.41 264.934 Z" fill="#000000" fill-rule="evenodd" fill-opacity="1" /><path clip-path="url(#clip140)" d="M2104.03 256.578 L2104.03 263.939 L2112.8 263.939 L2112.8 267.249 L2104.03 267.249 L2104.03 281.323 Q2104.03 284.494 2104.88 285.397 Q2105.76 286.3 2108.43 286.3 L2112.8 286.3 L2112.8 289.865 L2108.43 289.865 Q2103.49 289.865 2101.62 288.036 Q2099.74 286.184 2099.74 281.323 L2099.74 267.249 L2096.62 267.249 L2096.62 263.939 L2099.74 263.939 L2099.74 256.578 L2104.03 256.578 Z" fill="#000000" fill-rule="evenodd" fill-opacity="1" /><path clip-path="url(#clip140)" d="M2130.18 276.832 Q2125.02 276.832 2123.03 278.013 Q2121.04 279.193 2121.04 282.041 Q2121.04 284.309 2122.52 285.652 Q2124.03 286.971 2126.6 286.971 Q2130.14 286.971 2132.27 284.471 Q2134.42 281.948 2134.42 277.781 L2134.42 276.832 L2130.18 276.832 M2138.68 275.073 L2138.68 289.865 L2134.42 289.865 L2134.42 285.929 Q2132.96 288.291 2130.79 289.425 Q2128.61 290.536 2125.46 290.536 Q2121.48 290.536 2119.12 288.314 Q2116.78 286.068 2116.78 282.318 Q2116.78 277.943 2119.7 275.721 Q2122.64 273.499 2128.45 273.499 L2134.42 273.499 L2134.42 273.082 Q2134.42 270.143 2132.48 268.545 Q2130.55 266.925 2127.06 266.925 Q2124.84 266.925 2122.73 267.457 Q2120.62 267.99 2118.68 269.055 L2118.68 265.119 Q2121.02 264.217 2123.22 263.777 Q2125.42 263.314 2127.5 263.314 Q2133.12 263.314 2135.9 266.231 Q2138.68 269.147 2138.68 275.073 Z" fill="#000000" fill-rule="evenodd" fill-opacity="1" /><path clip-path="url(#clip140)" d="M2151.67 256.578 L2151.67 263.939 L2160.44 263.939 L2160.44 267.249 L2151.67 267.249 L2151.67 281.323 Q2151.67 284.494 2152.52 285.397 Q2153.4 286.3 2156.06 286.3 L2160.44 286.3 L2160.44 289.865 L2156.06 289.865 Q2151.13 289.865 2149.26 288.036 Q2147.38 286.184 2147.38 281.323 L2147.38 267.249 L2144.26 267.249 L2144.26 263.939 L2147.38 263.939 L2147.38 256.578 L2151.67 256.578 Z" fill="#000000" fill-rule="evenodd" fill-opacity="1" /><path clip-path="url(#clip140)" d="M2166.04 263.939 L2170.3 263.939 L2170.3 289.865 L2166.04 289.865 L2166.04 263.939 M2166.04 253.846 L2170.3 253.846 L2170.3 259.24 L2166.04 259.24 L2166.04 253.846 Z" fill="#000000" fill-rule="evenodd" fill-opacity="1" /><path clip-path="url(#clip140)" d="M2189.26 266.925 Q2185.83 266.925 2183.84 269.61 Q2181.85 272.272 2181.85 276.925 Q2181.85 281.578 2183.82 284.263 Q2185.81 286.925 2189.26 286.925 Q2192.66 286.925 2194.65 284.24 Q2196.64 281.555 2196.64 276.925 Q2196.64 272.318 2194.65 269.633 Q2192.66 266.925 2189.26 266.925 M2189.26 263.314 Q2194.81 263.314 2197.98 266.925 Q2201.16 270.536 2201.16 276.925 Q2201.16 283.291 2197.98 286.925 Q2194.81 290.536 2189.26 290.536 Q2183.68 290.536 2180.51 286.925 Q2177.36 283.291 2177.36 276.925 Q2177.36 270.536 2180.51 266.925 Q2183.68 263.314 2189.26 263.314 Z" fill="#000000" fill-rule="evenodd" fill-opacity="1" /><path clip-path="url(#clip140)" d="M2229.77 274.217 L2229.77 289.865 L2225.51 289.865 L2225.51 274.355 Q2225.51 270.675 2224.07 268.846 Q2222.64 267.018 2219.77 267.018 Q2216.32 267.018 2214.33 269.217 Q2212.34 271.416 2212.34 275.212 L2212.34 289.865 L2208.05 289.865 L2208.05 263.939 L2212.34 263.939 L2212.34 267.967 Q2213.86 265.629 2215.92 264.471 Q2218.01 263.314 2220.72 263.314 Q2225.18 263.314 2227.48 266.092 Q2229.77 268.846 2229.77 274.217 Z" fill="#000000" fill-rule="evenodd" fill-opacity="1" /></svg>
