<?xml version="1.0" encoding="utf-8"?>
<svg xmlns="http://www.w3.org/2000/svg" xmlns:xlink="http://www.w3.org/1999/xlink" width="600" height="400" viewBox="0 0 2400 1600">
<defs>
  <clipPath id="clip060">
    <rect x="0" y="0" width="2400" height="1600"/>
  </clipPath>
</defs>
<path clip-path="url(#clip060)" d="
M0 1600 L2400 1600 L2400 0 L0 0  Z
  " fill="#ffffff" fill-rule="evenodd" fill-opacity="1"/>
<defs>
  <clipPath id="clip061">
    <rect x="480" y="0" width="1681" height="1600"/>
  </clipPath>
</defs>
<path clip-path="url(#clip060)" d="
M138.959 1486.45 L2352.76 1486.45 L2352.76 123.472 L138.959 123.472  Z
  " fill="#ffffff" fill-rule="evenodd" fill-opacity="1"/>
<defs>
  <clipPath id="clip062">
    <rect x="138" y="123" width="2215" height="1364"/>
  </clipPath>
</defs>
<polyline clip-path="url(#clip062)" style="stroke:#000000; stroke-linecap:butt; stroke-linejoin:round; stroke-width:2; stroke-opacity:0.1; fill:none" points="
  155.135,1486.45 155.135,123.472 
  "/>
<polyline clip-path="url(#clip062)" style="stroke:#000000; stroke-linecap:butt; stroke-linejoin:round; stroke-width:2; stroke-opacity:0.1; fill:none" points="
  714.755,1486.45 714.755,123.472 
  "/>
<polyline clip-path="url(#clip062)" style="stroke:#000000; stroke-linecap:butt; stroke-linejoin:round; stroke-width:2; stroke-opacity:0.1; fill:none" points="
  1274.46,1486.45 1274.46,123.472 
  "/>
<polyline clip-path="url(#clip062)" style="stroke:#000000; stroke-linecap:butt; stroke-linejoin:round; stroke-width:2; stroke-opacity:0.1; fill:none" points="
  1834.08,1486.45 1834.08,123.472 
  "/>
<polyline clip-path="url(#clip060)" style="stroke:#000000; stroke-linecap:butt; stroke-linejoin:round; stroke-width:4; stroke-opacity:1; fill:none" points="
  138.959,1486.45 2352.76,1486.45 
  "/>
<polyline clip-path="url(#clip060)" style="stroke:#000000; stroke-linecap:butt; stroke-linejoin:round; stroke-width:4; stroke-opacity:1; fill:none" points="
  155.135,1486.45 155.135,1467.55 
  "/>
<polyline clip-path="url(#clip060)" style="stroke:#000000; stroke-linecap:butt; stroke-linejoin:round; stroke-width:4; stroke-opacity:1; fill:none" points="
  714.755,1486.45 714.755,1467.55 
  "/>
<polyline clip-path="url(#clip060)" style="stroke:#000000; stroke-linecap:butt; stroke-linejoin:round; stroke-width:4; stroke-opacity:1; fill:none" points="
  1274.46,1486.45 1274.46,1467.55 
  "/>
<polyline clip-path="url(#clip060)" style="stroke:#000000; stroke-linecap:butt; stroke-linejoin:round; stroke-width:4; stroke-opacity:1; fill:none" points="
  1834.08,1486.45 1834.08,1467.55 
  "/>
<path clip-path="url(#clip060)" d="M22.8442 1543.18 L30.483 1543.18 L30.483 1516.82 L22.1729 1518.49 L22.1729 1514.23 L30.4367 1512.56 L35.1126 1512.56 L35.1126 1543.18 L42.7515 1543.18 L42.7515 1547.12 L22.8442 1547.12 L22.8442 1543.18 Z" fill="#000000" fill-rule="evenodd" fill-opacity="1" /><path clip-path="url(#clip060)" d="M52.3348 1546.4 L52.3348 1542.14 Q54.094 1542.98 55.8995 1543.42 Q57.7051 1543.86 59.4412 1543.86 Q64.0708 1543.86 66.5013 1540.75 Q68.955 1537.63 69.3023 1531.29 Q67.9597 1533.28 65.8995 1534.34 Q63.8393 1535.41 61.3393 1535.41 Q56.1542 1535.41 53.1218 1532.28 Q50.1125 1529.13 50.1125 1523.69 Q50.1125 1518.37 53.2607 1515.15 Q56.4088 1511.93 61.6403 1511.93 Q67.6356 1511.93 70.7837 1516.54 Q73.955 1521.12 73.955 1529.87 Q73.955 1538.05 70.0661 1542.93 Q66.2004 1547.79 59.6495 1547.79 Q57.8903 1547.79 56.0847 1547.44 Q54.2792 1547.1 52.3348 1546.4 M61.6403 1531.75 Q64.7884 1531.75 66.6171 1529.6 Q68.4689 1527.44 68.4689 1523.69 Q68.4689 1519.97 66.6171 1517.81 Q64.7884 1515.64 61.6403 1515.64 Q58.4921 1515.64 56.6403 1517.81 Q54.8116 1519.97 54.8116 1523.69 Q54.8116 1527.44 56.6403 1529.6 Q58.4921 1531.75 61.6403 1531.75 Z" fill="#000000" fill-rule="evenodd" fill-opacity="1" /><path clip-path="url(#clip060)" d="M82.404 1512.56 L100.76 1512.56 L100.76 1516.5 L86.6864 1516.5 L86.6864 1524.97 Q87.7049 1524.62 88.7234 1524.46 Q89.742 1524.27 90.7605 1524.27 Q96.5475 1524.27 99.9271 1527.44 Q103.307 1530.62 103.307 1536.03 Q103.307 1541.61 99.8345 1544.71 Q96.3623 1547.79 90.0429 1547.79 Q87.867 1547.79 85.5985 1547.42 Q83.3531 1547.05 80.9457 1546.31 L80.9457 1541.61 Q83.029 1542.74 85.2512 1543.3 Q87.4735 1543.86 89.9503 1543.86 Q93.9549 1543.86 96.2929 1541.75 Q98.6308 1539.64 98.6308 1536.03 Q98.6308 1532.42 96.2929 1530.31 Q93.9549 1528.21 89.9503 1528.21 Q88.0753 1528.21 86.2003 1528.62 Q84.3485 1529.04 82.404 1529.92 L82.404 1512.56 Z" fill="#000000" fill-rule="evenodd" fill-opacity="1" /><path clip-path="url(#clip060)" d="M126.686 1528.49 Q130.043 1529.2 131.918 1531.47 Q133.816 1533.74 133.816 1537.07 Q133.816 1542.19 130.297 1544.99 Q126.779 1547.79 120.297 1547.79 Q118.121 1547.79 115.807 1547.35 Q113.515 1546.93 111.061 1546.08 L111.061 1541.56 Q113.006 1542.7 115.321 1543.28 Q117.635 1543.86 120.158 1543.86 Q124.557 1543.86 126.848 1542.12 Q129.163 1540.38 129.163 1537.07 Q129.163 1534.02 127.01 1532.31 Q124.881 1530.57 121.061 1530.57 L117.033 1530.57 L117.033 1526.73 L121.246 1526.73 Q124.695 1526.73 126.524 1525.36 Q128.353 1523.97 128.353 1521.38 Q128.353 1518.72 126.455 1517.31 Q124.58 1515.87 121.061 1515.87 Q119.14 1515.87 116.941 1516.29 Q114.742 1516.7 112.103 1517.58 L112.103 1513.42 Q114.765 1512.68 117.08 1512.31 Q119.418 1511.93 121.478 1511.93 Q126.802 1511.93 129.904 1514.37 Q133.006 1516.77 133.006 1520.89 Q133.006 1523.76 131.362 1525.75 Q129.719 1527.72 126.686 1528.49 Z" fill="#000000" fill-rule="evenodd" fill-opacity="1" /><path clip-path="url(#clip060)" d="M139.927 1532.24 L152.404 1532.24 L152.404 1536.03 L139.927 1536.03 L139.927 1532.24 Z" fill="#000000" fill-rule="evenodd" fill-opacity="1" /><path clip-path="url(#clip060)" d="M169.788 1515.64 Q166.177 1515.64 164.348 1519.2 Q162.542 1522.75 162.542 1529.87 Q162.542 1536.98 164.348 1540.55 Q166.177 1544.09 169.788 1544.09 Q173.422 1544.09 175.228 1540.55 Q177.056 1536.98 177.056 1529.87 Q177.056 1522.75 175.228 1519.2 Q173.422 1515.64 169.788 1515.64 M169.788 1511.93 Q175.598 1511.93 178.654 1516.54 Q181.732 1521.12 181.732 1529.87 Q181.732 1538.6 178.654 1543.21 Q175.598 1547.79 169.788 1547.79 Q163.978 1547.79 160.899 1543.21 Q157.843 1538.6 157.843 1529.87 Q157.843 1521.12 160.899 1516.54 Q163.978 1511.93 169.788 1511.93 Z" fill="#000000" fill-rule="evenodd" fill-opacity="1" /><path clip-path="url(#clip060)" d="M190.76 1543.18 L198.399 1543.18 L198.399 1516.82 L190.089 1518.49 L190.089 1514.23 L198.352 1512.56 L203.028 1512.56 L203.028 1543.18 L210.667 1543.18 L210.667 1547.12 L190.76 1547.12 L190.76 1543.18 Z" fill="#000000" fill-rule="evenodd" fill-opacity="1" /><path clip-path="url(#clip060)" d="M217.357 1532.24 L229.834 1532.24 L229.834 1536.03 L217.357 1536.03 L217.357 1532.24 Z" fill="#000000" fill-rule="evenodd" fill-opacity="1" /><path clip-path="url(#clip060)" d="M247.218 1515.64 Q243.607 1515.64 241.778 1519.2 Q239.973 1522.75 239.973 1529.87 Q239.973 1536.98 241.778 1540.55 Q243.607 1544.09 247.218 1544.09 Q250.852 1544.09 252.658 1540.55 Q254.486 1536.98 254.486 1529.87 Q254.486 1522.75 252.658 1519.2 Q250.852 1515.64 247.218 1515.64 M247.218 1511.93 Q253.028 1511.93 256.084 1516.54 Q259.162 1521.12 259.162 1529.87 Q259.162 1538.6 256.084 1543.21 Q253.028 1547.79 247.218 1547.79 Q241.408 1547.79 238.329 1543.21 Q235.274 1538.6 235.274 1529.87 Q235.274 1521.12 238.329 1516.54 Q241.408 1511.93 247.218 1511.93 Z" fill="#000000" fill-rule="evenodd" fill-opacity="1" /><path clip-path="url(#clip060)" d="M268.19 1543.18 L275.829 1543.18 L275.829 1516.82 L267.519 1518.49 L267.519 1514.23 L275.783 1512.56 L280.459 1512.56 L280.459 1543.18 L288.097 1543.18 L288.097 1547.12 L268.19 1547.12 L268.19 1543.18 Z" fill="#000000" fill-rule="evenodd" fill-opacity="1" /><path clip-path="url(#clip060)" d="M582.464 1543.18 L590.103 1543.18 L590.103 1516.82 L581.793 1518.49 L581.793 1514.23 L590.057 1512.56 L594.733 1512.56 L594.733 1543.18 L602.371 1543.18 L602.371 1547.12 L582.464 1547.12 L582.464 1543.18 Z" fill="#000000" fill-rule="evenodd" fill-opacity="1" /><path clip-path="url(#clip060)" d="M611.955 1546.4 L611.955 1542.14 Q613.714 1542.98 615.519 1543.42 Q617.325 1543.86 619.061 1543.86 Q623.691 1543.86 626.121 1540.75 Q628.575 1537.63 628.922 1531.29 Q627.58 1533.28 625.519 1534.34 Q623.459 1535.41 620.959 1535.41 Q615.774 1535.41 612.742 1532.28 Q609.732 1529.13 609.732 1523.69 Q609.732 1518.37 612.881 1515.15 Q616.029 1511.93 621.26 1511.93 Q627.256 1511.93 630.404 1516.54 Q633.575 1521.12 633.575 1529.87 Q633.575 1538.05 629.686 1542.93 Q625.82 1547.79 619.269 1547.79 Q617.51 1547.79 615.705 1547.44 Q613.899 1547.1 611.955 1546.4 M621.26 1531.75 Q624.408 1531.75 626.237 1529.6 Q628.089 1527.44 628.089 1523.69 Q628.089 1519.97 626.237 1517.81 Q624.408 1515.64 621.26 1515.64 Q618.112 1515.64 616.26 1517.81 Q614.432 1519.97 614.432 1523.69 Q614.432 1527.44 616.26 1529.6 Q618.112 1531.75 621.26 1531.75 Z" fill="#000000" fill-rule="evenodd" fill-opacity="1" /><path clip-path="url(#clip060)" d="M640.797 1512.56 L663.019 1512.56 L663.019 1514.55 L650.473 1547.12 L645.589 1547.12 L657.394 1516.5 L640.797 1516.5 L640.797 1512.56 Z" fill="#000000" fill-rule="evenodd" fill-opacity="1" /><path clip-path="url(#clip060)" d="M672.95 1543.18 L680.589 1543.18 L680.589 1516.82 L672.278 1518.49 L672.278 1514.23 L680.542 1512.56 L685.218 1512.56 L685.218 1543.18 L692.857 1543.18 L692.857 1547.12 L672.95 1547.12 L672.95 1543.18 Z" fill="#000000" fill-rule="evenodd" fill-opacity="1" /><path clip-path="url(#clip060)" d="M699.547 1532.24 L712.024 1532.24 L712.024 1536.03 L699.547 1536.03 L699.547 1532.24 Z" fill="#000000" fill-rule="evenodd" fill-opacity="1" /><path clip-path="url(#clip060)" d="M729.408 1515.64 Q725.797 1515.64 723.968 1519.2 Q722.162 1522.75 722.162 1529.87 Q722.162 1536.98 723.968 1540.55 Q725.797 1544.09 729.408 1544.09 Q733.042 1544.09 734.848 1540.55 Q736.676 1536.98 736.676 1529.87 Q736.676 1522.75 734.848 1519.2 Q733.042 1515.64 729.408 1515.64 M729.408 1511.93 Q735.218 1511.93 738.273 1516.54 Q741.352 1521.12 741.352 1529.87 Q741.352 1538.6 738.273 1543.21 Q735.218 1547.79 729.408 1547.79 Q723.598 1547.79 720.519 1543.21 Q717.463 1538.6 717.463 1529.87 Q717.463 1521.12 720.519 1516.54 Q723.598 1511.93 729.408 1511.93 Z" fill="#000000" fill-rule="evenodd" fill-opacity="1" /><path clip-path="url(#clip060)" d="M750.38 1543.18 L758.019 1543.18 L758.019 1516.82 L749.709 1518.49 L749.709 1514.23 L757.972 1512.56 L762.648 1512.56 L762.648 1543.18 L770.287 1543.18 L770.287 1547.12 L750.38 1547.12 L750.38 1543.18 Z" fill="#000000" fill-rule="evenodd" fill-opacity="1" /><path clip-path="url(#clip060)" d="M776.977 1532.24 L789.454 1532.24 L789.454 1536.03 L776.977 1536.03 L776.977 1532.24 Z" fill="#000000" fill-rule="evenodd" fill-opacity="1" /><path clip-path="url(#clip060)" d="M806.838 1515.64 Q803.227 1515.64 801.398 1519.2 Q799.593 1522.75 799.593 1529.87 Q799.593 1536.98 801.398 1540.55 Q803.227 1544.09 806.838 1544.09 Q810.472 1544.09 812.278 1540.55 Q814.106 1536.98 814.106 1529.87 Q814.106 1522.75 812.278 1519.2 Q810.472 1515.64 806.838 1515.64 M806.838 1511.93 Q812.648 1511.93 815.704 1516.54 Q818.782 1521.12 818.782 1529.87 Q818.782 1538.6 815.704 1543.21 Q812.648 1547.79 806.838 1547.79 Q801.028 1547.79 797.949 1543.21 Q794.894 1538.6 794.894 1529.87 Q794.894 1521.12 797.949 1516.54 Q801.028 1511.93 806.838 1511.93 Z" fill="#000000" fill-rule="evenodd" fill-opacity="1" /><path clip-path="url(#clip060)" d="M827.81 1543.18 L835.449 1543.18 L835.449 1516.82 L827.139 1518.49 L827.139 1514.23 L835.403 1512.56 L840.078 1512.56 L840.078 1543.18 L847.717 1543.18 L847.717 1547.12 L827.81 1547.12 L827.81 1543.18 Z" fill="#000000" fill-rule="evenodd" fill-opacity="1" /><path clip-path="url(#clip060)" d="M1142.17 1543.18 L1149.81 1543.18 L1149.81 1516.82 L1141.5 1518.49 L1141.5 1514.23 L1149.76 1512.56 L1154.44 1512.56 L1154.44 1543.18 L1162.08 1543.18 L1162.08 1547.12 L1142.17 1547.12 L1142.17 1543.18 Z" fill="#000000" fill-rule="evenodd" fill-opacity="1" /><path clip-path="url(#clip060)" d="M1171.66 1546.4 L1171.66 1542.14 Q1173.42 1542.98 1175.22 1543.42 Q1177.03 1543.86 1178.77 1543.86 Q1183.4 1543.86 1185.83 1540.75 Q1188.28 1537.63 1188.63 1531.29 Q1187.28 1533.28 1185.22 1534.34 Q1183.16 1535.41 1180.66 1535.41 Q1175.48 1535.41 1172.45 1532.28 Q1169.44 1529.13 1169.44 1523.69 Q1169.44 1518.37 1172.59 1515.15 Q1175.73 1511.93 1180.97 1511.93 Q1186.96 1511.93 1190.11 1516.54 Q1193.28 1521.12 1193.28 1529.87 Q1193.28 1538.05 1189.39 1542.93 Q1185.53 1547.79 1178.97 1547.79 Q1177.22 1547.79 1175.41 1547.44 Q1173.6 1547.1 1171.66 1546.4 M1180.97 1531.75 Q1184.11 1531.75 1185.94 1529.6 Q1187.79 1527.44 1187.79 1523.69 Q1187.79 1519.97 1185.94 1517.81 Q1184.11 1515.64 1180.97 1515.64 Q1177.82 1515.64 1175.97 1517.81 Q1174.14 1519.97 1174.14 1523.69 Q1174.14 1527.44 1175.97 1529.6 Q1177.82 1531.75 1180.97 1531.75 Z" fill="#000000" fill-rule="evenodd" fill-opacity="1" /><path clip-path="url(#clip060)" d="M1211.68 1530.71 Q1208.35 1530.71 1206.43 1532.49 Q1204.53 1534.27 1204.53 1537.4 Q1204.53 1540.52 1206.43 1542.31 Q1208.35 1544.09 1211.68 1544.09 Q1215.02 1544.09 1216.94 1542.31 Q1218.86 1540.5 1218.86 1537.4 Q1218.86 1534.27 1216.94 1532.49 Q1215.04 1530.71 1211.68 1530.71 M1207.01 1528.72 Q1204 1527.98 1202.31 1525.92 Q1200.64 1523.86 1200.64 1520.89 Q1200.64 1516.75 1203.58 1514.34 Q1206.54 1511.93 1211.68 1511.93 Q1216.84 1511.93 1219.78 1514.34 Q1222.72 1516.75 1222.72 1520.89 Q1222.72 1523.86 1221.03 1525.92 Q1219.37 1527.98 1216.38 1528.72 Q1219.76 1529.5 1221.64 1531.8 Q1223.53 1534.09 1223.53 1537.4 Q1223.53 1542.42 1220.46 1545.11 Q1217.4 1547.79 1211.68 1547.79 Q1205.97 1547.79 1202.89 1545.11 Q1199.83 1542.42 1199.83 1537.4 Q1199.83 1534.09 1201.73 1531.8 Q1203.63 1529.5 1207.01 1528.72 M1205.29 1521.33 Q1205.29 1524.02 1206.96 1525.52 Q1208.65 1527.03 1211.68 1527.03 Q1214.69 1527.03 1216.38 1525.52 Q1218.09 1524.02 1218.09 1521.33 Q1218.09 1518.65 1216.38 1517.14 Q1214.69 1515.64 1211.68 1515.64 Q1208.65 1515.64 1206.96 1517.14 Q1205.29 1518.65 1205.29 1521.33 Z" fill="#000000" fill-rule="evenodd" fill-opacity="1" /><path clip-path="url(#clip060)" d="M1231.98 1546.4 L1231.98 1542.14 Q1233.74 1542.98 1235.55 1543.42 Q1237.35 1543.86 1239.09 1543.86 Q1243.72 1543.86 1246.15 1540.75 Q1248.6 1537.63 1248.95 1531.29 Q1247.61 1533.28 1245.55 1534.34 Q1243.49 1535.41 1240.99 1535.41 Q1235.8 1535.41 1232.77 1532.28 Q1229.76 1529.13 1229.76 1523.69 Q1229.76 1518.37 1232.91 1515.15 Q1236.06 1511.93 1241.29 1511.93 Q1247.28 1511.93 1250.43 1516.54 Q1253.6 1521.12 1253.6 1529.87 Q1253.6 1538.05 1249.71 1542.93 Q1245.85 1547.79 1239.3 1547.79 Q1237.54 1547.79 1235.73 1547.44 Q1233.93 1547.1 1231.98 1546.4 M1241.29 1531.75 Q1244.44 1531.75 1246.27 1529.6 Q1248.12 1527.44 1248.12 1523.69 Q1248.12 1519.97 1246.27 1517.81 Q1244.44 1515.64 1241.29 1515.64 Q1238.14 1515.64 1236.29 1517.81 Q1234.46 1519.97 1234.46 1523.69 Q1234.46 1527.44 1236.29 1529.6 Q1238.14 1531.75 1241.29 1531.75 Z" fill="#000000" fill-rule="evenodd" fill-opacity="1" /><path clip-path="url(#clip060)" d="M1259.25 1532.24 L1271.73 1532.24 L1271.73 1536.03 L1259.25 1536.03 L1259.25 1532.24 Z" fill="#000000" fill-rule="evenodd" fill-opacity="1" /><path clip-path="url(#clip060)" d="M1289.11 1515.64 Q1285.5 1515.64 1283.67 1519.2 Q1281.87 1522.75 1281.87 1529.87 Q1281.87 1536.98 1283.67 1540.55 Q1285.5 1544.09 1289.11 1544.09 Q1292.75 1544.09 1294.55 1540.55 Q1296.38 1536.98 1296.38 1529.87 Q1296.38 1522.75 1294.55 1519.2 Q1292.75 1515.64 1289.11 1515.64 M1289.11 1511.93 Q1294.92 1511.93 1297.98 1516.54 Q1301.06 1521.12 1301.06 1529.87 Q1301.06 1538.6 1297.98 1543.21 Q1294.92 1547.79 1289.11 1547.79 Q1283.3 1547.79 1280.22 1543.21 Q1277.17 1538.6 1277.17 1529.87 Q1277.17 1521.12 1280.22 1516.54 Q1283.3 1511.93 1289.11 1511.93 Z" fill="#000000" fill-rule="evenodd" fill-opacity="1" /><path clip-path="url(#clip060)" d="M1310.08 1543.18 L1317.72 1543.18 L1317.72 1516.82 L1309.41 1518.49 L1309.41 1514.23 L1317.68 1512.56 L1322.35 1512.56 L1322.35 1543.18 L1329.99 1543.18 L1329.99 1547.12 L1310.08 1547.12 L1310.08 1543.18 Z" fill="#000000" fill-rule="evenodd" fill-opacity="1" /><path clip-path="url(#clip060)" d="M1336.68 1532.24 L1349.16 1532.24 L1349.16 1536.03 L1336.68 1536.03 L1336.68 1532.24 Z" fill="#000000" fill-rule="evenodd" fill-opacity="1" /><path clip-path="url(#clip060)" d="M1366.54 1515.64 Q1362.93 1515.64 1361.1 1519.2 Q1359.3 1522.75 1359.3 1529.87 Q1359.3 1536.98 1361.1 1540.55 Q1362.93 1544.09 1366.54 1544.09 Q1370.18 1544.09 1371.98 1540.55 Q1373.81 1536.98 1373.81 1529.87 Q1373.81 1522.75 1371.98 1519.2 Q1370.18 1515.64 1366.54 1515.64 M1366.54 1511.93 Q1372.35 1511.93 1375.41 1516.54 Q1378.49 1521.12 1378.49 1529.87 Q1378.49 1538.6 1375.41 1543.21 Q1372.35 1547.79 1366.54 1547.79 Q1360.73 1547.79 1357.65 1543.21 Q1354.6 1538.6 1354.6 1529.87 Q1354.6 1521.12 1357.65 1516.54 Q1360.73 1511.93 1366.54 1511.93 Z" fill="#000000" fill-rule="evenodd" fill-opacity="1" /><path clip-path="url(#clip060)" d="M1387.52 1543.18 L1395.15 1543.18 L1395.15 1516.82 L1386.84 1518.49 L1386.84 1514.23 L1395.11 1512.56 L1399.78 1512.56 L1399.78 1543.18 L1407.42 1543.18 L1407.42 1547.12 L1387.52 1547.12 L1387.52 1543.18 Z" fill="#000000" fill-rule="evenodd" fill-opacity="1" /><path clip-path="url(#clip060)" d="M1705.87 1543.18 L1722.19 1543.18 L1722.19 1547.12 L1700.25 1547.12 L1700.25 1543.18 Q1702.91 1540.43 1707.5 1535.8 Q1712.1 1531.15 1713.28 1529.81 Q1715.53 1527.28 1716.41 1525.55 Q1717.31 1523.79 1717.31 1522.1 Q1717.31 1519.34 1715.37 1517.61 Q1713.44 1515.87 1710.34 1515.87 Q1708.14 1515.87 1705.69 1516.63 Q1703.26 1517.4 1700.48 1518.95 L1700.48 1514.23 Q1703.31 1513.09 1705.76 1512.51 Q1708.21 1511.93 1710.25 1511.93 Q1715.62 1511.93 1718.81 1514.62 Q1722.01 1517.31 1722.01 1521.8 Q1722.01 1523.93 1721.2 1525.85 Q1720.41 1527.74 1718.31 1530.34 Q1717.73 1531.01 1714.62 1534.23 Q1711.52 1537.42 1705.87 1543.18 Z" fill="#000000" fill-rule="evenodd" fill-opacity="1" /><path clip-path="url(#clip060)" d="M1742.01 1515.64 Q1738.4 1515.64 1736.57 1519.2 Q1734.76 1522.75 1734.76 1529.87 Q1734.76 1536.98 1736.57 1540.55 Q1738.4 1544.09 1742.01 1544.09 Q1745.64 1544.09 1747.45 1540.55 Q1749.28 1536.98 1749.28 1529.87 Q1749.28 1522.75 1747.45 1519.2 Q1745.64 1515.64 1742.01 1515.64 M1742.01 1511.93 Q1747.82 1511.93 1750.87 1516.54 Q1753.95 1521.12 1753.95 1529.87 Q1753.95 1538.6 1750.87 1543.21 Q1747.82 1547.79 1742.01 1547.79 Q1736.2 1547.79 1733.12 1543.21 Q1730.06 1538.6 1730.06 1529.87 Q1730.06 1521.12 1733.12 1516.54 Q1736.2 1511.93 1742.01 1511.93 Z" fill="#000000" fill-rule="evenodd" fill-opacity="1" /><path clip-path="url(#clip060)" d="M1772.17 1515.64 Q1768.56 1515.64 1766.73 1519.2 Q1764.93 1522.75 1764.93 1529.87 Q1764.93 1536.98 1766.73 1540.55 Q1768.56 1544.09 1772.17 1544.09 Q1775.8 1544.09 1777.61 1540.55 Q1779.44 1536.98 1779.44 1529.87 Q1779.44 1522.75 1777.61 1519.2 Q1775.8 1515.64 1772.17 1515.64 M1772.17 1511.93 Q1777.98 1511.93 1781.04 1516.54 Q1784.11 1521.12 1784.11 1529.87 Q1784.11 1538.6 1781.04 1543.21 Q1777.98 1547.79 1772.17 1547.79 Q1766.36 1547.79 1763.28 1543.21 Q1760.23 1538.6 1760.23 1529.87 Q1760.23 1521.12 1763.28 1516.54 Q1766.36 1511.93 1772.17 1511.93 Z" fill="#000000" fill-rule="evenodd" fill-opacity="1" /><path clip-path="url(#clip060)" d="M1791.15 1512.56 L1813.37 1512.56 L1813.37 1514.55 L1800.83 1547.12 L1795.94 1547.12 L1807.75 1516.5 L1791.15 1516.5 L1791.15 1512.56 Z" fill="#000000" fill-rule="evenodd" fill-opacity="1" /><path clip-path="url(#clip060)" d="M1819.74 1532.24 L1832.22 1532.24 L1832.22 1536.03 L1819.74 1536.03 L1819.74 1532.24 Z" fill="#000000" fill-rule="evenodd" fill-opacity="1" /><path clip-path="url(#clip060)" d="M1849.6 1515.64 Q1845.99 1515.64 1844.16 1519.2 Q1842.36 1522.75 1842.36 1529.87 Q1842.36 1536.98 1844.16 1540.55 Q1845.99 1544.09 1849.6 1544.09 Q1853.23 1544.09 1855.04 1540.55 Q1856.87 1536.98 1856.87 1529.87 Q1856.87 1522.75 1855.04 1519.2 Q1853.23 1515.64 1849.6 1515.64 M1849.6 1511.93 Q1855.41 1511.93 1858.47 1516.54 Q1861.55 1521.12 1861.55 1529.87 Q1861.55 1538.6 1858.47 1543.21 Q1855.41 1547.79 1849.6 1547.79 Q1843.79 1547.79 1840.71 1543.21 Q1837.66 1538.6 1837.66 1529.87 Q1837.66 1521.12 1840.71 1516.54 Q1843.79 1511.93 1849.6 1511.93 Z" fill="#000000" fill-rule="evenodd" fill-opacity="1" /><path clip-path="url(#clip060)" d="M1870.57 1543.18 L1878.21 1543.18 L1878.21 1516.82 L1869.9 1518.49 L1869.9 1514.23 L1878.17 1512.56 L1882.84 1512.56 L1882.84 1543.18 L1890.48 1543.18 L1890.48 1547.12 L1870.57 1547.12 L1870.57 1543.18 Z" fill="#000000" fill-rule="evenodd" fill-opacity="1" /><path clip-path="url(#clip060)" d="M1897.17 1532.24 L1909.65 1532.24 L1909.65 1536.03 L1897.17 1536.03 L1897.17 1532.24 Z" fill="#000000" fill-rule="evenodd" fill-opacity="1" /><path clip-path="url(#clip060)" d="M1927.03 1515.64 Q1923.42 1515.64 1921.59 1519.2 Q1919.79 1522.75 1919.79 1529.87 Q1919.79 1536.98 1921.59 1540.55 Q1923.42 1544.09 1927.03 1544.09 Q1930.67 1544.09 1932.47 1540.55 Q1934.3 1536.98 1934.3 1529.87 Q1934.3 1522.75 1932.47 1519.2 Q1930.67 1515.64 1927.03 1515.64 M1927.03 1511.93 Q1932.84 1511.93 1935.9 1516.54 Q1938.98 1521.12 1938.98 1529.87 Q1938.98 1538.6 1935.9 1543.21 Q1932.84 1547.79 1927.03 1547.79 Q1921.22 1547.79 1918.14 1543.21 Q1915.09 1538.6 1915.09 1529.87 Q1915.09 1521.12 1918.14 1516.54 Q1921.22 1511.93 1927.03 1511.93 Z" fill="#000000" fill-rule="evenodd" fill-opacity="1" /><path clip-path="url(#clip060)" d="M1948 1543.18 L1955.64 1543.18 L1955.64 1516.82 L1947.33 1518.49 L1947.33 1514.23 L1955.6 1512.56 L1960.27 1512.56 L1960.27 1543.18 L1967.91 1543.18 L1967.91 1547.12 L1948 1547.12 L1948 1543.18 Z" fill="#000000" fill-rule="evenodd" fill-opacity="1" /><polyline clip-path="url(#clip062)" style="stroke:#000000; stroke-linecap:butt; stroke-linejoin:round; stroke-width:2; stroke-opacity:0.1; fill:none" points="
  138.959,1451.25 2352.76,1451.25 
  "/>
<polyline clip-path="url(#clip062)" style="stroke:#000000; stroke-linecap:butt; stroke-linejoin:round; stroke-width:2; stroke-opacity:0.1; fill:none" points="
  138.959,1113.76 2352.76,1113.76 
  "/>
<polyline clip-path="url(#clip062)" style="stroke:#000000; stroke-linecap:butt; stroke-linejoin:round; stroke-width:2; stroke-opacity:0.1; fill:none" points="
  138.959,776.274 2352.76,776.274 
  "/>
<polyline clip-path="url(#clip062)" style="stroke:#000000; stroke-linecap:butt; stroke-linejoin:round; stroke-width:2; stroke-opacity:0.1; fill:none" points="
  138.959,438.786 2352.76,438.786 
  "/>
<polyline clip-path="url(#clip060)" style="stroke:#000000; stroke-linecap:butt; stroke-linejoin:round; stroke-width:4; stroke-opacity:1; fill:none" points="
  138.959,1486.45 138.959,123.472 
  "/>
<polyline clip-path="url(#clip060)" style="stroke:#000000; stroke-linecap:butt; stroke-linejoin:round; stroke-width:4; stroke-opacity:1; fill:none" points="
  138.959,1451.25 157.857,1451.25 
  "/>
<polyline clip-path="url(#clip060)" style="stroke:#000000; stroke-linecap:butt; stroke-linejoin:round; stroke-width:4; stroke-opacity:1; fill:none" points="
  138.959,1113.76 157.857,1113.76 
  "/>
<polyline clip-path="url(#clip060)" style="stroke:#000000; stroke-linecap:butt; stroke-linejoin:round; stroke-width:4; stroke-opacity:1; fill:none" points="
  138.959,776.274 157.857,776.274 
  "/>
<polyline clip-path="url(#clip060)" style="stroke:#000000; stroke-linecap:butt; stroke-linejoin:round; stroke-width:4; stroke-opacity:1; fill:none" points="
  138.959,438.786 157.857,438.786 
  "/>
<path clip-path="url(#clip060)" d="M91.0151 1437.05 Q87.404 1437.05 85.5753 1440.61 Q83.7697 1444.15 83.7697 1451.28 Q83.7697 1458.39 85.5753 1461.95 Q87.404 1465.5 91.0151 1465.5 Q94.6493 1465.5 96.4548 1461.95 Q98.2835 1458.39 98.2835 1451.28 Q98.2835 1444.15 96.4548 1440.61 Q94.6493 1437.05 91.0151 1437.05 M91.0151 1433.34 Q96.8252 1433.34 99.8808 1437.95 Q102.959 1442.53 102.959 1451.28 Q102.959 1460.01 99.8808 1464.62 Q96.8252 1469.2 91.0151 1469.2 Q85.2049 1469.2 82.1262 1464.62 Q79.0707 1460.01 79.0707 1451.28 Q79.0707 1442.53 82.1262 1437.95 Q85.2049 1433.34 91.0151 1433.34 Z" fill="#000000" fill-rule="evenodd" fill-opacity="1" /><path clip-path="url(#clip060)" d="M82.0568 1096.48 L100.413 1096.48 L100.413 1100.42 L86.3392 1100.42 L86.3392 1108.89 Q87.3577 1108.54 88.3762 1108.38 Q89.3947 1108.19 90.4132 1108.19 Q96.2002 1108.19 99.5798 1111.36 Q102.959 1114.54 102.959 1119.95 Q102.959 1125.53 99.4872 1128.63 Q96.015 1131.71 89.6956 1131.71 Q87.5197 1131.71 85.2512 1131.34 Q83.0058 1130.97 80.5984 1130.23 L80.5984 1125.53 Q82.6818 1126.67 84.904 1127.22 Q87.1262 1127.78 89.603 1127.78 Q93.6076 1127.78 95.9456 1125.67 Q98.2835 1123.56 98.2835 1119.95 Q98.2835 1116.34 95.9456 1114.24 Q93.6076 1112.13 89.603 1112.13 Q87.728 1112.13 85.8531 1112.55 Q84.0012 1112.96 82.0568 1113.84 L82.0568 1096.48 Z" fill="#000000" fill-rule="evenodd" fill-opacity="1" /><path clip-path="url(#clip060)" d="M51.6634 789.618 L59.3023 789.618 L59.3023 763.253 L50.9921 764.919 L50.9921 760.66 L59.256 758.994 L63.9319 758.994 L63.9319 789.618 L71.5707 789.618 L71.5707 793.554 L51.6634 793.554 L51.6634 789.618 Z" fill="#000000" fill-rule="evenodd" fill-opacity="1" /><path clip-path="url(#clip060)" d="M91.0151 762.072 Q87.404 762.072 85.5753 765.637 Q83.7697 769.179 83.7697 776.308 Q83.7697 783.415 85.5753 786.98 Q87.404 790.521 91.0151 790.521 Q94.6493 790.521 96.4548 786.98 Q98.2835 783.415 98.2835 776.308 Q98.2835 769.179 96.4548 765.637 Q94.6493 762.072 91.0151 762.072 M91.0151 758.369 Q96.8252 758.369 99.8808 762.975 Q102.959 767.558 102.959 776.308 Q102.959 785.035 99.8808 789.642 Q96.8252 794.225 91.0151 794.225 Q85.2049 794.225 82.1262 789.642 Q79.0707 785.035 79.0707 776.308 Q79.0707 767.558 82.1262 762.975 Q85.2049 758.369 91.0151 758.369 Z" fill="#000000" fill-rule="evenodd" fill-opacity="1" /><path clip-path="url(#clip060)" d="M52.6588 452.131 L60.2976 452.131 L60.2976 425.766 L51.9875 427.432 L51.9875 423.173 L60.2513 421.506 L64.9272 421.506 L64.9272 452.131 L72.5661 452.131 L72.5661 456.066 L52.6588 456.066 L52.6588 452.131 Z" fill="#000000" fill-rule="evenodd" fill-opacity="1" /><path clip-path="url(#clip060)" d="M82.0568 421.506 L100.413 421.506 L100.413 425.442 L86.3392 425.442 L86.3392 433.914 Q87.3577 433.567 88.3762 433.404 Q89.3947 433.219 90.4132 433.219 Q96.2002 433.219 99.5798 436.391 Q102.959 439.562 102.959 444.979 Q102.959 450.557 99.4872 453.659 Q96.015 456.738 89.6956 456.738 Q87.5197 456.738 85.2512 456.367 Q83.0058 455.997 80.5984 455.256 L80.5984 450.557 Q82.6818 451.691 84.904 452.247 Q87.1262 452.803 89.603 452.803 Q93.6076 452.803 95.9456 450.696 Q98.2835 448.59 98.2835 444.979 Q98.2835 441.367 95.9456 439.261 Q93.6076 437.154 89.603 437.154 Q87.728 437.154 85.8531 437.571 Q84.0012 437.988 82.0568 438.867 L82.0568 421.506 Z" fill="#000000" fill-rule="evenodd" fill-opacity="1" /><path clip-path="url(#clip060)" d="M877.185 12.096 L911.942 12.096 L911.942 18.9825 L885.368 18.9825 L885.368 36.8065 L909.349 36.8065 L909.349 43.6931 L885.368 43.6931 L885.368 72.576 L877.185 72.576 L877.185 12.096 Z" fill="#000000" fill-rule="evenodd" fill-opacity="1" /><path clip-path="url(#clip060)" d="M958.851 48.0275 L958.851 51.6733 L924.58 51.6733 Q925.067 59.3701 929.198 63.421 Q933.371 67.4314 940.784 67.4314 Q945.078 67.4314 949.088 66.3781 Q953.139 65.3249 957.109 63.2184 L957.109 70.267 Q953.099 71.9684 948.886 72.8596 Q944.673 73.7508 940.338 73.7508 Q929.482 73.7508 923.122 67.4314 Q916.803 61.1119 916.803 50.3365 Q916.803 39.1965 922.798 32.6746 Q928.834 26.1121 939.042 26.1121 Q948.197 26.1121 953.504 32.0264 Q958.851 37.9003 958.851 48.0275 M951.397 45.84 Q951.316 39.7232 947.954 36.0774 Q944.632 32.4315 939.123 32.4315 Q932.885 32.4315 929.117 35.9558 Q925.391 39.4801 924.824 45.8805 L951.397 45.84 Z" fill="#000000" fill-rule="evenodd" fill-opacity="1" /><path clip-path="url(#clip060)" d="M1000.94 34.0924 L1000.94 9.54393 L1008.39 9.54393 L1008.39 72.576 L1000.94 72.576 L1000.94 65.7705 Q998.59 69.8214 994.985 71.8063 Q991.42 73.7508 986.397 73.7508 Q978.174 73.7508 972.989 67.1883 Q967.844 60.6258 967.844 49.9314 Q967.844 39.2371 972.989 32.6746 Q978.174 26.1121 986.397 26.1121 Q991.42 26.1121 994.985 28.0971 Q998.59 30.0415 1000.94 34.0924 M975.541 49.9314 Q975.541 58.1548 978.903 62.8538 Q982.306 67.5124 988.22 67.5124 Q994.134 67.5124 997.537 62.8538 Q1000.94 58.1548 1000.94 49.9314 Q1000.94 41.7081 997.537 37.0496 Q994.134 32.3505 988.22 32.3505 Q982.306 32.3505 978.903 37.0496 Q975.541 41.7081 975.541 49.9314 Z" fill="#000000" fill-rule="evenodd" fill-opacity="1" /><path clip-path="url(#clip060)" d="M1062.55 48.0275 L1062.55 51.6733 L1028.28 51.6733 Q1028.77 59.3701 1032.9 63.421 Q1037.07 67.4314 1044.49 67.4314 Q1048.78 67.4314 1052.79 66.3781 Q1056.84 65.3249 1060.81 63.2184 L1060.81 70.267 Q1056.8 71.9684 1052.59 72.8596 Q1048.38 73.7508 1044.04 73.7508 Q1033.19 73.7508 1026.83 67.4314 Q1020.51 61.1119 1020.51 50.3365 Q1020.51 39.1965 1026.5 32.6746 Q1032.54 26.1121 1042.75 26.1121 Q1051.9 26.1121 1057.21 32.0264 Q1062.55 37.9003 1062.55 48.0275 M1055.1 45.84 Q1055.02 39.7232 1051.66 36.0774 Q1048.34 32.4315 1042.83 32.4315 Q1036.59 32.4315 1032.82 35.9558 Q1029.09 39.4801 1028.53 45.8805 L1055.1 45.84 Z" fill="#000000" fill-rule="evenodd" fill-opacity="1" /><path clip-path="url(#clip060)" d="M1101.08 34.1734 Q1099.82 33.4443 1098.32 33.1202 Q1096.87 32.7556 1095.08 32.7556 Q1088.76 32.7556 1085.36 36.8875 Q1082 40.9789 1082 48.6757 L1082 72.576 L1074.5 72.576 L1074.5 27.2059 L1082 27.2059 L1082 34.2544 Q1084.35 30.1225 1088.12 28.1376 Q1091.88 26.1121 1097.27 26.1121 Q1098.04 26.1121 1098.97 26.2337 Q1099.9 26.3147 1101.04 26.5172 L1101.08 34.1734 Z" fill="#000000" fill-rule="evenodd" fill-opacity="1" /><path clip-path="url(#clip060)" d="M1129.52 49.7694 Q1120.48 49.7694 1117 51.8354 Q1113.51 53.9013 1113.51 58.8839 Q1113.51 62.8538 1116.11 65.2034 Q1118.74 67.5124 1123.24 67.5124 Q1129.43 67.5124 1133.16 63.1374 Q1136.93 58.7219 1136.93 51.4303 L1136.93 49.7694 L1129.52 49.7694 M1144.38 46.6907 L1144.38 72.576 L1136.93 72.576 L1136.93 65.6895 Q1134.38 69.8214 1130.57 71.8063 Q1126.76 73.7508 1121.25 73.7508 Q1114.28 73.7508 1110.15 69.8619 Q1106.06 65.9325 1106.06 59.3701 Q1106.06 51.7138 1111.17 47.825 Q1116.31 43.9361 1126.48 43.9361 L1136.93 43.9361 L1136.93 43.2069 Q1136.93 38.0623 1133.53 35.2672 Q1130.16 32.4315 1124.05 32.4315 Q1120.16 32.4315 1116.47 33.3632 Q1112.79 34.295 1109.38 36.1584 L1109.38 29.2718 Q1113.47 27.692 1117.32 26.9223 Q1121.17 26.1121 1124.82 26.1121 Q1134.66 26.1121 1139.52 31.2163 Q1144.38 36.3204 1144.38 46.6907 Z" fill="#000000" fill-rule="evenodd" fill-opacity="1" /><path clip-path="url(#clip060)" d="M1159.74 9.54393 L1167.19 9.54393 L1167.19 72.576 L1159.74 72.576 L1159.74 9.54393 Z" fill="#000000" fill-rule="evenodd" fill-opacity="1" /><path clip-path="url(#clip060)" d="M1209.48 12.096 L1244.24 12.096 L1244.24 18.9825 L1217.66 18.9825 L1217.66 36.8065 L1241.64 36.8065 L1241.64 43.6931 L1217.66 43.6931 L1217.66 72.576 L1209.48 72.576 L1209.48 12.096 Z" fill="#000000" fill-rule="evenodd" fill-opacity="1" /><path clip-path="url(#clip060)" d="M1251.57 54.671 L1251.57 27.2059 L1259.02 27.2059 L1259.02 54.3874 Q1259.02 60.8284 1261.53 64.0691 Q1264.05 67.2693 1269.07 67.2693 Q1275.11 67.2693 1278.59 63.421 Q1282.11 59.5726 1282.11 52.9291 L1282.11 27.2059 L1289.57 27.2059 L1289.57 72.576 L1282.11 72.576 L1282.11 65.6084 Q1279.4 69.7404 1275.79 71.7658 Q1272.23 73.7508 1267.49 73.7508 Q1259.67 73.7508 1255.62 68.8897 Q1251.57 64.0286 1251.57 54.671 M1270.33 26.1121 L1270.33 26.1121 Z" fill="#000000" fill-rule="evenodd" fill-opacity="1" /><path clip-path="url(#clip060)" d="M1342.63 45.1919 L1342.63 72.576 L1335.18 72.576 L1335.18 45.4349 Q1335.18 38.994 1332.67 35.7938 Q1330.16 32.5936 1325.13 32.5936 Q1319.1 32.5936 1315.61 36.4419 Q1312.13 40.2903 1312.13 46.9338 L1312.13 72.576 L1304.64 72.576 L1304.64 27.2059 L1312.13 27.2059 L1312.13 34.2544 Q1314.8 30.163 1318.41 28.1376 Q1322.06 26.1121 1326.79 26.1121 Q1334.61 26.1121 1338.62 30.9732 Q1342.63 35.7938 1342.63 45.1919 Z" fill="#000000" fill-rule="evenodd" fill-opacity="1" /><path clip-path="url(#clip060)" d="M1387.36 34.0924 L1387.36 9.54393 L1394.81 9.54393 L1394.81 72.576 L1387.36 72.576 L1387.36 65.7705 Q1385.01 69.8214 1381.4 71.8063 Q1377.84 73.7508 1372.81 73.7508 Q1364.59 73.7508 1359.4 67.1883 Q1354.26 60.6258 1354.26 49.9314 Q1354.26 39.2371 1359.4 32.6746 Q1364.59 26.1121 1372.81 26.1121 Q1377.84 26.1121 1381.4 28.0971 Q1385.01 30.0415 1387.36 34.0924 M1361.96 49.9314 Q1361.96 58.1548 1365.32 62.8538 Q1368.72 67.5124 1374.64 67.5124 Q1380.55 67.5124 1383.95 62.8538 Q1387.36 58.1548 1387.36 49.9314 Q1387.36 41.7081 1383.95 37.0496 Q1380.55 32.3505 1374.64 32.3505 Q1368.72 32.3505 1365.32 37.0496 Q1361.96 41.7081 1361.96 49.9314 Z" fill="#000000" fill-rule="evenodd" fill-opacity="1" /><path clip-path="url(#clip060)" d="M1465.54 44.2197 Q1468.17 45.1109 1470.64 48.0275 Q1473.15 50.9442 1475.67 56.0483 L1483.97 72.576 L1475.18 72.576 L1467.44 57.061 Q1464.44 50.9847 1461.61 48.9997 Q1458.81 47.0148 1453.95 47.0148 L1445.04 47.0148 L1445.04 72.576 L1436.86 72.576 L1436.86 12.096 L1455.33 12.096 Q1465.7 12.096 1470.8 16.4305 Q1475.91 20.7649 1475.91 29.5149 Q1475.91 35.2267 1473.23 38.994 Q1470.6 42.7613 1465.54 44.2197 M1445.04 18.8205 L1445.04 40.2903 L1455.33 40.2903 Q1461.24 40.2903 1464.24 37.5762 Q1467.28 34.8216 1467.28 29.5149 Q1467.28 24.2082 1464.24 21.5346 Q1461.24 18.8205 1455.33 18.8205 L1445.04 18.8205 Z" fill="#000000" fill-rule="evenodd" fill-opacity="1" /><path clip-path="url(#clip060)" d="M1512.97 49.7694 Q1503.94 49.7694 1500.46 51.8354 Q1496.97 53.9013 1496.97 58.8839 Q1496.97 62.8538 1499.57 65.2034 Q1502.2 67.5124 1506.7 67.5124 Q1512.89 67.5124 1516.62 63.1374 Q1520.39 58.7219 1520.39 51.4303 L1520.39 49.7694 L1512.97 49.7694 M1527.84 46.6907 L1527.84 72.576 L1520.39 72.576 L1520.39 65.6895 Q1517.84 69.8214 1514.03 71.8063 Q1510.22 73.7508 1504.71 73.7508 Q1497.74 73.7508 1493.61 69.8619 Q1489.52 65.9325 1489.52 59.3701 Q1489.52 51.7138 1494.62 47.825 Q1499.77 43.9361 1509.94 43.9361 L1520.39 43.9361 L1520.39 43.2069 Q1520.39 38.0623 1516.98 35.2672 Q1513.62 32.4315 1507.51 32.4315 Q1503.62 32.4315 1499.93 33.3632 Q1496.24 34.295 1492.84 36.1584 L1492.84 29.2718 Q1496.93 27.692 1500.78 26.9223 Q1504.63 26.1121 1508.28 26.1121 Q1518.12 26.1121 1522.98 31.2163 Q1527.84 36.3204 1527.84 46.6907 Z" fill="#000000" fill-rule="evenodd" fill-opacity="1" /><path clip-path="url(#clip060)" d="M1550.57 14.324 L1550.57 27.2059 L1565.92 27.2059 L1565.92 32.9987 L1550.57 32.9987 L1550.57 57.6282 Q1550.57 63.1779 1552.07 64.7578 Q1553.6 66.3376 1558.26 66.3376 L1565.92 66.3376 L1565.92 72.576 L1558.26 72.576 Q1549.63 72.576 1546.35 69.3758 Q1543.07 66.1351 1543.07 57.6282 L1543.07 32.9987 L1537.6 32.9987 L1537.6 27.2059 L1543.07 27.2059 L1543.07 14.324 L1550.57 14.324 Z" fill="#000000" fill-rule="evenodd" fill-opacity="1" /><path clip-path="url(#clip060)" d="M1614.53 48.0275 L1614.53 51.6733 L1580.26 51.6733 Q1580.75 59.3701 1584.88 63.421 Q1589.05 67.4314 1596.46 67.4314 Q1600.76 67.4314 1604.77 66.3781 Q1608.82 65.3249 1612.79 63.2184 L1612.79 70.267 Q1608.78 71.9684 1604.57 72.8596 Q1600.35 73.7508 1596.02 73.7508 Q1585.16 73.7508 1578.8 67.4314 Q1572.48 61.1119 1572.48 50.3365 Q1572.48 39.1965 1578.48 32.6746 Q1584.51 26.1121 1594.72 26.1121 Q1603.88 26.1121 1609.18 32.0264 Q1614.53 37.9003 1614.53 48.0275 M1607.08 45.84 Q1607 39.7232 1603.63 36.0774 Q1600.31 32.4315 1594.8 32.4315 Q1588.56 32.4315 1584.8 35.9558 Q1581.07 39.4801 1580.5 45.8805 L1607.08 45.84 Z" fill="#000000" fill-rule="evenodd" fill-opacity="1" /><polyline clip-path="url(#clip062)" style="stroke:#009af9; stroke-linecap:butt; stroke-linejoin:round; stroke-width:4; stroke-opacity:1; fill:none" points="
  2290.1,1445.85 2287.46,1445.17 2284.82,1444.5 2282.27,1445.85 2279.63,1447.2 2277.08,1446.52 2274.44,1446.52 2272.05,1445.85 2269.42,1445.17 2266.78,1445.17 
  2264.22,1445.17 2261.58,1445.17 2259.03,1445.17 2256.39,1444.5 2253.75,1445.17 2251.2,1445.85 2248.56,1447.87 2246.01,1447.87 2243.37,1407.37 2240.9,1344.6 
  2238.26,1346.63 2235.62,1346.63 2233.07,1346.63 2230.43,1327.73 2227.87,1313.55 2225.24,1307.48 2222.6,1289.25 2220.04,1290.6 2217.4,1289.93 2214.85,1287.9 
  2212.21,1288.58 2209.83,1289.25 2207.19,1289.25 2204.55,1298.03 2202,1302.75 2199.36,1303.43 2196.8,1319.63 2194.16,1322.33 2191.53,1322.33 2188.97,1328.4 
  2186.33,1336.5 2183.78,1337.18 2181.14,1349.33 2178.76,1355.4 2176.12,1356.08 2173.48,1363.5 2170.92,1372.95 2168.29,1373.63 2165.73,1373.63 2163.09,1372.95 
  2160.45,1373.63 2157.9,1381.05 2155.26,1389.83 2152.71,1390.5 2150.07,1397.92 2147.69,1406.7 2145.05,1407.37 2142.41,1414.8 2139.85,1423.57 2137.21,1424.25 
  2134.66,1424.25 2132.02,1424.25 2129.38,1424.92 2126.83,1425.6 2124.19,1426.27 2121.64,1426.27 2119,1426.95 2116.53,1425.6 2113.89,1428.3 2111.25,1435.05 
  2108.7,1443.15 2106.06,1443.15 2103.5,1441.8 2100.87,1441.8 2098.23,1442.47 2095.67,1442.47 2093.03,1443.15 2090.48,1443.15 2087.84,1443.82 2085.46,1443.82 
  2082.82,1443.82 2080.18,1443.15 2077.63,1445.17 2074.99,1445.17 2072.43,1445.17 2069.79,1445.17 2067.16,1445.17 2064.6,1444.5 2061.96,1445.17 2059.41,1445.17 
  2056.77,1445.85 2054.39,1446.52 2051.75,1446.52 2049.11,1445.17 2046.56,1445.85 2043.92,1445.17 2041.36,1445.85 2038.72,1445.85 2036.08,1445.17 2033.53,1445.17 
  2030.89,1443.82 2028.34,1441.12 2025.7,1441.8 2023.32,1441.12 2020.68,1441.8 2018.04,1440.45 2015.48,1440.45 2012.85,1440.45 2010.29,1441.8 2007.65,1442.47 
  2005.01,1440.45 2002.46,1440.45 1999.82,1440.45 1997.27,1441.8 1994.63,1442.47 1992.16,1444.5 1989.52,1445.85 1986.88,1446.52 1984.33,1445.85 1981.69,1446.52 
  1979.14,1445.85 1976.5,1444.5 1973.86,1446.52 1971.3,1445.17 1968.66,1445.17 1966.11,1444.5 1963.47,1441.8 1961.09,1440.45 1958.45,1439.77 1955.81,1439.1 
  1953.26,1438.42 1950.62,1438.42 1948.06,1438.42 1945.43,1438.42 1942.79,1439.1 1940.23,1439.1 1937.59,1437.75 1935.04,1437.75 1932.4,1440.45 1930.02,1442.47 
  1927.38,1443.82 1924.74,1443.15 1922.19,1443.15 1919.55,1443.15 1916.99,1441.12 1914.35,1440.45 1911.72,1440.45 1909.16,1437.07 1906.52,1439.1 1903.97,1441.12 
  1901.33,1439.1 1898.95,1436.4 1896.31,1441.12 1893.67,1440.45 1891.11,1424.92 1888.48,1385.78 1885.92,1329.08 1883.28,1316.25 1880.64,1315.58 1878.09,1316.25 
  1875.45,1317.6 1872.9,1297.35 1870.26,1275.08 1867.79,1250.11 1865.15,1185.31 1862.51,1165.06 1859.96,1148.18 1857.32,1129.96 1854.77,1117.81 1852.13,1112.41 
  1849.49,1096.21 1846.93,1096.89 1844.3,1096.89 1841.74,1096.89 1839.1,1096.21 1836.72,1096.21 1834.08,1096.89 1831.44,1097.56 1828.89,1096.89 1826.25,1096.89 
  1823.69,1096.89 1821.06,1096.89 1818.42,1097.56 1815.86,1114.44 1813.22,1117.81 1810.67,1127.94 1808.03,1141.43 1805.65,1148.18 1803.01,1161.68 1800.37,1170.46 
  1797.82,1181.26 1795.18,1196.11 1792.62,1206.91 1789.98,1215.01 1787.35,1231.21 1784.79,1246.06 1782.15,1248.76 1779.6,1262.93 1776.96,1273.73 1774.58,1282.5 
  1771.94,1297.35 1769.3,1305.45 1766.75,1320.98 1764.11,1332.45 1761.55,1342.58 1758.91,1354.73 1756.27,1366.2 1753.72,1381.73 1751.08,1383.75 1748.53,1383.75 
  1745.89,1383.75 1743.42,1383.08 1740.78,1383.75 1738.14,1385.1 1735.59,1383.75 1732.95,1383.08 1730.4,1383.08 1727.76,1381.73 1725.12,1383.08 1722.56,1368.9 
  1719.93,1366.2 1717.37,1366.2 1714.73,1366.88 1712.35,1366.2 1709.71,1367.55 1707.07,1367.55 1704.52,1360.8 1701.88,1333.13 1699.33,1333.13 1696.69,1333.8 
  1694.05,1334.48 1691.49,1333.13 1688.85,1333.13 1686.3,1333.13 1683.66,1334.48 1681.28,1333.8 1678.64,1334.48 1676,1328.4 1673.45,1310.18 1670.81,1283.18 
  1668.25,1244.03 1665.62,1204.88 1662.98,1196.78 1660.42,1183.28 1657.78,1167.08 1655.23,1127.26 1652.59,1092.84 1650.21,1080.69 1647.57,1047.61 1644.93,1019.26 
  1642.38,1011.84 1639.74,1011.84 1637.18,1011.16 1634.54,1012.51 1631.91,1009.81 1629.35,1010.49 1626.71,1028.04 1624.16,1044.91 1621.52,1056.39 1619.05,1064.49 
  1616.41,1083.39 1613.77,1093.51 1611.22,1085.41 1608.58,1100.26 1606.03,1098.91 1603.39,1109.04 1600.75,1114.44 1598.2,1129.96 1595.56,1131.31 1593,1131.31 
  1590.36,1126.59 1587.98,1129.96 1585.34,1138.73 1582.7,1135.36 1580.15,1125.24 1577.51,1109.04 1574.96,1079.34 1572.32,1076.64 1569.68,1077.31 1567.12,1075.96 
  1564.49,1080.69 1561.93,1083.39 1559.29,1080.69 1556.91,1079.34 1554.27,1075.96 1551.63,1080.01 1549.08,1078.66 1546.44,1080.01 1543.88,1077.31 1541.25,1077.31 
  1538.61,1078.66 1536.05,1075.96 1533.41,1080.01 1530.86,1079.34 1528.22,1087.44 1525.84,1100.94 1523.2,1096.89 1520.56,1094.19 1518.01,1092.84 1515.37,1097.56 
  1512.81,1093.51 1510.17,1098.91 1507.54,1086.76 1504.98,1095.54 1502.34,1097.56 1499.79,1098.91 1497.15,1092.84 1494.68,1098.91 1492.04,1075.96 1489.4,1073.26 
  1486.85,1059.76 1484.21,1062.46 1481.66,1059.76 1479.02,1063.81 1476.38,1056.39 1473.83,1046.26 1471.19,1045.59 1468.63,1042.89 1465.99,1047.61 1463.61,1051.66 
  1460.97,1077.99 1458.33,1083.39 1455.78,1094.19 1453.14,1129.96 1450.59,1131.99 1447.95,1149.53 1445.31,1163.71 1442.75,1164.38 1440.12,1180.58 1437.56,1210.96 
  1434.92,1225.81 1432.54,1231.88 1429.9,1245.38 1427.26,1251.46 1424.71,1247.41 1422.07,1249.43 1419.52,1242.68 1416.88,1246.73 1414.24,1244.71 1411.68,1246.06 
  1409.04,1248.76 1406.49,1251.46 1403.85,1244.03 1401.47,1246.73 1398.83,1247.41 1396.19,1254.16 1393.64,1242.68 1391,1242.01 1388.44,1233.91 1385.81,1228.51 
  1383.17,1231.88 1380.61,1197.46 1377.97,1193.41 1375.42,1199.48 1372.78,1182.61 1370.31,1177.21 1367.67,1179.23 1365.03,1152.23 1362.48,1126.59 1359.84,1099.59 
  1357.29,1083.39 1354.65,1069.21 1352.01,1058.41 1349.46,1053.01 1346.82,1061.11 1344.26,1052.34 1341.62,1038.16 1339.24,1029.39 1336.6,984.841 1333.96,957.842 
  1331.41,924.093 1328.77,903.844 1326.22,897.769 1323.58,902.494 1320.94,901.144 1318.39,891.694 1315.75,899.119 1313.19,893.719 1310.55,892.369 1308.17,895.069 
  1305.53,895.744 1302.89,880.895 1300.34,874.145 1297.7,854.571 1295.15,842.421 1292.51,844.446 1289.87,827.572 1287.31,807.997 1284.68,789.098 1282.12,787.073 
  1279.48,786.398 1277.1,819.472 1274.46,835.671 1271.82,859.97 1269.27,887.644 1266.63,891.019 1264.07,898.444 1261.44,910.593 1258.8,928.143 1256.24,944.342 
  1253.6,972.691 1251.05,987.541 1248.41,1007.11 1245.94,1007.11 1243.3,990.24 1240.66,994.29 1238.11,999.69 1235.47,959.192 1232.92,963.916 1230.28,996.99 
  1227.64,1007.11 1225.09,996.99 1222.45,988.891 1219.89,1021.29 1217.26,1037.49 1214.87,1039.51 1212.23,1017.24 1209.59,984.841 1207.04,1043.56 1204.4,1056.39 
  1201.85,1053.69 1199.21,1034.79 1196.57,1008.46 1194.02,984.166 1191.38,988.891 1188.82,979.441 1186.18,946.367 1183.8,920.718 1181.16,901.819 1178.52,893.044 
  1175.97,907.894 1173.33,911.943 1170.78,916.668 1168.14,918.018 1165.5,919.368 1162.94,942.992 1160.31,913.293 1157.75,893.044 1155.11,872.12 1152.73,877.52 
  1150.09,887.644 1147.45,885.619 1144.9,814.747 1142.26,776.949 1139.71,688.527 1137.07,665.578 1134.43,693.252 1131.87,704.726 1129.23,754.674 1126.68,756.699 
  1124.04,782.348 1121.57,803.948 1118.93,805.972 1116.3,812.047 1113.74,820.822 1111.1,811.372 1108.55,813.397 1105.91,805.972 1103.27,818.797 1100.72,845.121 
  1098.08,868.745 1095.52,857.271 1092.89,859.295 1090.5,876.845 1087.86,865.37 1085.22,847.146 1082.67,830.272 1080.03,795.848 1077.48,755.349 1074.84,768.174 
  1072.2,601.455 1069.65,496.159 1067.01,475.91 1064.45,442.836 1061.81,460.386 1059.43,453.636 1056.79,558.932 1054.15,616.305 1051.6,552.857 1048.96,433.387 
  1046.41,380.064 1043.77,248.444 1041.13,166.097 1038.58,162.047 1035.94,201.195 1033.38,390.188 1030.74,459.036 1028.36,376.014 1025.72,163.397 1023.08,175.546 
  1020.53,381.414 1017.89,586.606 1015.34,717.551 1012.7,802.598 1010.06,841.746 1007.5,812.047 1004.87,710.126 1002.31,262.618 999.673,290.967 997.204,497.509 
  994.565,518.433 991.926,521.133 989.372,561.632 986.733,521.808 984.18,679.752 981.541,712.826 978.902,744.55 976.348,756.699 973.709,760.074 971.155,775.599 
  968.516,770.199 966.133,772.224 963.494,771.549 960.855,774.249 958.301,792.473 955.662,846.471 953.109,880.895 950.47,908.569 947.831,924.093 945.277,938.267 
  942.638,954.467 940.084,986.191 937.445,992.94 935.062,993.615 932.423,999.015 929.784,1008.46 927.23,1011.84 924.591,1014.54 922.037,1036.81 919.399,1053.01 
  916.76,1085.41 914.206,1087.44 911.567,1090.14 909.013,1131.99 906.374,1134.68 903.991,1135.36 901.352,1140.08 898.713,1137.38 896.159,1117.14 893.52,1112.41 
  890.966,1096.89 888.327,1094.19 885.689,1092.84 883.135,1081.36 880.496,1094.19 877.942,1125.91 875.303,1124.56 872.834,1129.29 870.196,1122.54 867.557,1100.26 
  865.003,1098.91 862.364,1058.41 859.81,1030.06 857.171,1036.81 854.532,1039.51 851.979,1076.64 849.34,1098.91 846.786,1080.69 844.147,1077.31 841.763,1030.06 
  839.124,969.991 836.486,875.495 833.932,813.397 831.293,772.224 828.739,685.827 826.1,640.604 823.461,579.181 820.907,646.004 818.269,687.852 815.715,741.85 
  813.076,820.147 810.692,845.796 808.053,799.898 805.414,779.648 802.861,774.249 800.222,775.599 797.668,723.626 795.029,742.525 792.39,749.275 789.836,878.195 
  787.197,922.068 784.644,970.666 782.005,972.691 779.621,1007.11 776.982,1050.31 774.343,1091.49 771.79,1109.71 769.151,1110.39 766.597,1122.54 763.958,1126.59 
  761.319,1144.13 758.765,1150.21 756.126,1163.03 753.573,1169.78 750.934,1192.73 748.465,1228.51 745.826,1214.33 743.187,1171.81 740.633,1119.84 737.995,1100.26 
  735.441,1076.64 732.802,1075.29 730.163,1092.84 727.609,1119.84 724.97,1138.73 722.416,1170.46 719.777,1200.83 717.394,1200.16 714.755,1171.81 712.116,1120.51 
  709.562,1073.26 706.923,1032.76 704.37,1026.69 701.731,1004.41 699.092,964.591 696.538,937.592 693.899,914.643 691.345,904.519 688.706,927.468 686.323,845.121 
  683.684,845.121 681.045,845.796 678.491,853.896 675.852,843.771 673.299,833.646 670.66,830.947 668.021,870.095 665.467,850.521 662.828,866.045 660.274,951.092 
  657.635,992.94 655.252,1005.09 652.613,1026.01 649.974,1044.91 647.42,1058.41 644.781,1052.34 642.227,1061.11 639.589,1044.24 636.95,1044.24 634.396,1041.54 
  631.757,1038.16 629.203,1062.46 626.564,1110.39 624.096,1133.34 621.457,1140.08 618.818,1146.83 616.264,1172.48 613.625,1189.36 611.071,1181.93 608.432,1188.01 
  605.793,1195.43 603.24,1182.61 600.601,1185.31 598.047,1177.88 595.408,1145.48 593.025,1113.76 590.386,1117.81 587.747,1086.76 585.193,1062.46 582.554,1077.99 
  580,1086.76 577.361,1077.99 574.722,1093.51 572.169,1102.29 569.53,1120.51 566.976,1136.03 564.337,1136.71 561.953,1140.76 559.315,1152.91 556.676,1159.66 
  554.122,1174.51 551.483,1175.86 548.929,1179.91 546.29,1173.16 543.651,1175.18 541.098,1177.88 538.459,1174.51 535.905,1175.18 533.266,1177.88 530.882,1182.61 
  528.243,1188.01 525.605,1191.38 523.051,1213.66 520.412,1224.46 517.858,1218.38 515.219,1215.01 512.58,1220.41 510.026,1215.01 507.388,1215.01 504.834,1217.03 
  502.195,1219.73 499.726,1216.36 497.087,1216.36 494.448,1223.11 491.895,1216.36 489.256,1215.01 486.702,1216.36 484.063,1215.68 481.424,1247.41 478.87,1249.43 
  476.231,1248.76 473.678,1255.51 471.039,1250.11 468.655,1248.76 466.016,1254.16 463.377,1253.48 460.823,1252.81 458.185,1255.51 455.631,1255.51 452.992,1253.48 
  450.353,1268.33 447.799,1270.35 445.16,1291.95 442.606,1263.61 439.968,1258.88 437.584,1291.28 434.945,1306.13 432.306,1293.98 429.752,1275.08 427.113,1298.7 
  424.56,1324.35 421.921,1316.25 419.282,1372.28 416.728,1334.48 414.089,1317.6 411.535,1350.68 408.896,1314.9 406.513,1279.8 403.874,1353.38 401.235,1317.6 
  398.681,1286.55 396.042,1284.53 393.489,1275.75 390.85,1250.11 388.211,1233.23 385.657,1227.16 383.018,1191.38 380.464,1186.66 377.825,1192.06 375.357,1183.28 
  372.718,1181.93 370.079,1181.93 367.525,1181.26 364.886,1182.61 362.332,1197.46 359.693,1215.01 357.055,1217.03 354.501,1222.43 351.862,1255.51 349.308,1251.46 
  346.669,1262.26 344.286,1287.23 341.647,1283.85 339.008,1287.9 336.454,1298.03 333.815,1329.75 331.261,1332.45 328.622,1347.98 325.983,1405.35 323.43,1388.48 
  320.791,1408.72 318.237,1366.2 315.598,1370.25 313.215,1338.53 310.576,1267.65 307.937,1250.11 305.383,1229.86 302.744,1215.01 300.19,1217.03 297.551,1232.56 
  294.912,1249.43 292.359,1248.76 289.72,1248.76 287.166,1248.76 284.527,1251.46 282.143,1248.76 279.505,1259.56 276.866,1252.81 274.312,1256.86 271.673,1251.46 
  269.119,1252.13 266.48,1266.98 263.841,1265.63 261.288,1268.33 258.649,1265.63 256.095,1274.4 253.456,1282.5 250.987,1282.5 248.348,1285.88 245.709,1283.85 
  243.156,1292.63 240.517,1300.05 237.963,1304.1 235.324,1318.95 232.685,1337.85 230.131,1340.55 227.492,1354.73 224.939,1354.73 222.3,1360.13 219.916,1364.18 
  217.277,1357.43 214.638,1364.85 212.085,1395.23 209.446,1393.88 206.892,1379.03 204.253,1368.9 201.614,1397.25 
  "/>
</svg>
