<?xml version="1.0" encoding="utf-8"?>
<svg xmlns="http://www.w3.org/2000/svg" xmlns:xlink="http://www.w3.org/1999/xlink" width="600" height="400" viewBox="0 0 2400 1600">
<defs>
  <clipPath id="clip020">
    <rect x="0" y="0" width="2400" height="1600"/>
  </clipPath>
</defs>
<path clip-path="url(#clip020)" d="
M0 1600 L2400 1600 L2400 0 L0 0  Z
  " fill="#ffffff" fill-rule="evenodd" fill-opacity="1"/>
<defs>
  <clipPath id="clip021">
    <rect x="480" y="0" width="1681" height="1600"/>
  </clipPath>
</defs>
<path clip-path="url(#clip020)" d="
M175.445 1423.18 L2352.76 1423.18 L2352.76 123.472 L175.445 123.472  Z
  " fill="#ffffff" fill-rule="evenodd" fill-opacity="1"/>
<defs>
  <clipPath id="clip022">
    <rect x="175" y="123" width="2178" height="1301"/>
  </clipPath>
</defs>
<polyline clip-path="url(#clip022)" style="stroke:#000000; stroke-linecap:butt; stroke-linejoin:round; stroke-width:2; stroke-opacity:0.1; fill:none" points="
  219.806,1423.18 219.806,123.472 
  "/>
<polyline clip-path="url(#clip022)" style="stroke:#000000; stroke-linecap:butt; stroke-linejoin:round; stroke-width:2; stroke-opacity:0.1; fill:none" points="
  795.175,1423.18 795.175,123.472 
  "/>
<polyline clip-path="url(#clip022)" style="stroke:#000000; stroke-linecap:butt; stroke-linejoin:round; stroke-width:2; stroke-opacity:0.1; fill:none" points="
  1370.54,1423.18 1370.54,123.472 
  "/>
<polyline clip-path="url(#clip022)" style="stroke:#000000; stroke-linecap:butt; stroke-linejoin:round; stroke-width:2; stroke-opacity:0.1; fill:none" points="
  1945.91,1423.18 1945.91,123.472 
  "/>
<polyline clip-path="url(#clip020)" style="stroke:#000000; stroke-linecap:butt; stroke-linejoin:round; stroke-width:4; stroke-opacity:1; fill:none" points="
  175.445,1423.18 2352.76,1423.18 
  "/>
<polyline clip-path="url(#clip020)" style="stroke:#000000; stroke-linecap:butt; stroke-linejoin:round; stroke-width:4; stroke-opacity:1; fill:none" points="
  219.806,1423.18 219.806,1404.28 
  "/>
<polyline clip-path="url(#clip020)" style="stroke:#000000; stroke-linecap:butt; stroke-linejoin:round; stroke-width:4; stroke-opacity:1; fill:none" points="
  795.175,1423.18 795.175,1404.28 
  "/>
<polyline clip-path="url(#clip020)" style="stroke:#000000; stroke-linecap:butt; stroke-linejoin:round; stroke-width:4; stroke-opacity:1; fill:none" points="
  1370.54,1423.18 1370.54,1404.28 
  "/>
<polyline clip-path="url(#clip020)" style="stroke:#000000; stroke-linecap:butt; stroke-linejoin:round; stroke-width:4; stroke-opacity:1; fill:none" points="
  1945.91,1423.18 1945.91,1404.28 
  "/>
<path clip-path="url(#clip020)" d="M219.806 1452.37 Q216.195 1452.37 214.366 1455.94 Q212.561 1459.48 212.561 1466.61 Q212.561 1473.71 214.366 1477.28 Q216.195 1480.82 219.806 1480.82 Q223.44 1480.82 225.246 1477.28 Q227.075 1473.71 227.075 1466.61 Q227.075 1459.48 225.246 1455.94 Q223.44 1452.37 219.806 1452.37 M219.806 1448.67 Q225.616 1448.67 228.672 1453.27 Q231.751 1457.86 231.751 1466.61 Q231.751 1475.33 228.672 1479.94 Q225.616 1484.52 219.806 1484.52 Q213.996 1484.52 210.917 1479.94 Q207.862 1475.33 207.862 1466.61 Q207.862 1457.86 210.917 1453.27 Q213.996 1448.67 219.806 1448.67 Z" fill="#000000" fill-rule="evenodd" fill-opacity="1" /><path clip-path="url(#clip020)" d="M754.782 1479.92 L762.421 1479.92 L762.421 1453.55 L754.11 1455.22 L754.11 1450.96 L762.374 1449.29 L767.05 1449.29 L767.05 1479.92 L774.689 1479.92 L774.689 1483.85 L754.782 1483.85 L754.782 1479.92 Z" fill="#000000" fill-rule="evenodd" fill-opacity="1" /><path clip-path="url(#clip020)" d="M794.133 1452.37 Q790.522 1452.37 788.694 1455.94 Q786.888 1459.48 786.888 1466.61 Q786.888 1473.71 788.694 1477.28 Q790.522 1480.82 794.133 1480.82 Q797.768 1480.82 799.573 1477.28 Q801.402 1473.71 801.402 1466.61 Q801.402 1459.48 799.573 1455.94 Q797.768 1452.37 794.133 1452.37 M794.133 1448.67 Q799.943 1448.67 802.999 1453.27 Q806.078 1457.86 806.078 1466.61 Q806.078 1475.33 802.999 1479.94 Q799.943 1484.52 794.133 1484.52 Q788.323 1484.52 785.244 1479.94 Q782.189 1475.33 782.189 1466.61 Q782.189 1457.86 785.244 1453.27 Q788.323 1448.67 794.133 1448.67 Z" fill="#000000" fill-rule="evenodd" fill-opacity="1" /><path clip-path="url(#clip020)" d="M824.295 1452.37 Q820.684 1452.37 818.855 1455.94 Q817.05 1459.48 817.05 1466.61 Q817.05 1473.71 818.855 1477.28 Q820.684 1480.82 824.295 1480.82 Q827.929 1480.82 829.735 1477.28 Q831.564 1473.71 831.564 1466.61 Q831.564 1459.48 829.735 1455.94 Q827.929 1452.37 824.295 1452.37 M824.295 1448.67 Q830.105 1448.67 833.161 1453.27 Q836.24 1457.86 836.24 1466.61 Q836.24 1475.33 833.161 1479.94 Q830.105 1484.52 824.295 1484.52 Q818.485 1484.52 815.406 1479.94 Q812.351 1475.33 812.351 1466.61 Q812.351 1457.86 815.406 1453.27 Q818.485 1448.67 824.295 1448.67 Z" fill="#000000" fill-rule="evenodd" fill-opacity="1" /><path clip-path="url(#clip020)" d="M1334.24 1479.92 L1350.56 1479.92 L1350.56 1483.85 L1328.61 1483.85 L1328.61 1479.92 Q1331.27 1477.16 1335.86 1472.53 Q1340.46 1467.88 1341.64 1466.54 Q1343.89 1464.01 1344.77 1462.28 Q1345.67 1460.52 1345.67 1458.83 Q1345.67 1456.07 1343.73 1454.34 Q1341.81 1452.6 1338.7 1452.6 Q1336.5 1452.6 1334.05 1453.37 Q1331.62 1454.13 1328.84 1455.68 L1328.84 1450.96 Q1331.67 1449.82 1334.12 1449.25 Q1336.57 1448.67 1338.61 1448.67 Q1343.98 1448.67 1347.18 1451.35 Q1350.37 1454.04 1350.37 1458.53 Q1350.37 1460.66 1349.56 1462.58 Q1348.77 1464.48 1346.67 1467.07 Q1346.09 1467.74 1342.99 1470.96 Q1339.88 1474.15 1334.24 1479.92 Z" fill="#000000" fill-rule="evenodd" fill-opacity="1" /><path clip-path="url(#clip020)" d="M1370.37 1452.37 Q1366.76 1452.37 1364.93 1455.94 Q1363.12 1459.48 1363.12 1466.61 Q1363.12 1473.71 1364.93 1477.28 Q1366.76 1480.82 1370.37 1480.82 Q1374 1480.82 1375.81 1477.28 Q1377.64 1473.71 1377.64 1466.61 Q1377.64 1459.48 1375.81 1455.94 Q1374 1452.37 1370.37 1452.37 M1370.37 1448.67 Q1376.18 1448.67 1379.24 1453.27 Q1382.31 1457.86 1382.31 1466.61 Q1382.31 1475.33 1379.24 1479.94 Q1376.18 1484.52 1370.37 1484.52 Q1364.56 1484.52 1361.48 1479.94 Q1358.43 1475.33 1358.43 1466.61 Q1358.43 1457.86 1361.48 1453.27 Q1364.56 1448.67 1370.37 1448.67 Z" fill="#000000" fill-rule="evenodd" fill-opacity="1" /><path clip-path="url(#clip020)" d="M1400.53 1452.37 Q1396.92 1452.37 1395.09 1455.94 Q1393.29 1459.48 1393.29 1466.61 Q1393.29 1473.71 1395.09 1477.28 Q1396.92 1480.82 1400.53 1480.82 Q1404.17 1480.82 1405.97 1477.28 Q1407.8 1473.71 1407.8 1466.61 Q1407.8 1459.48 1405.97 1455.94 Q1404.17 1452.37 1400.53 1452.37 M1400.53 1448.67 Q1406.34 1448.67 1409.4 1453.27 Q1412.48 1457.86 1412.48 1466.61 Q1412.48 1475.33 1409.4 1479.94 Q1406.34 1484.52 1400.53 1484.52 Q1394.72 1484.52 1391.64 1479.94 Q1388.59 1475.33 1388.59 1466.61 Q1388.59 1457.86 1391.64 1453.27 Q1394.72 1448.67 1400.53 1448.67 Z" fill="#000000" fill-rule="evenodd" fill-opacity="1" /><path clip-path="url(#clip020)" d="M1919.67 1465.22 Q1923.03 1465.94 1924.91 1468.2 Q1926.8 1470.47 1926.8 1473.81 Q1926.8 1478.92 1923.29 1481.72 Q1919.77 1484.52 1913.29 1484.52 Q1911.11 1484.52 1908.79 1484.08 Q1906.5 1483.67 1904.05 1482.81 L1904.05 1478.3 Q1905.99 1479.43 1908.31 1480.01 Q1910.62 1480.59 1913.15 1480.59 Q1917.54 1480.59 1919.84 1478.85 Q1922.15 1477.12 1922.15 1473.81 Q1922.15 1470.75 1920 1469.04 Q1917.87 1467.3 1914.05 1467.3 L1910.02 1467.3 L1910.02 1463.46 L1914.23 1463.46 Q1917.68 1463.46 1919.51 1462.09 Q1921.34 1460.7 1921.34 1458.11 Q1921.34 1455.45 1919.44 1454.04 Q1917.57 1452.6 1914.05 1452.6 Q1912.13 1452.6 1909.93 1453.02 Q1907.73 1453.44 1905.09 1454.31 L1905.09 1450.15 Q1907.75 1449.41 1910.07 1449.04 Q1912.41 1448.67 1914.47 1448.67 Q1919.79 1448.67 1922.89 1451.1 Q1925.99 1453.5 1925.99 1457.63 Q1925.99 1460.5 1924.35 1462.49 Q1922.71 1464.45 1919.67 1465.22 Z" fill="#000000" fill-rule="evenodd" fill-opacity="1" /><path clip-path="url(#clip020)" d="M1945.67 1452.37 Q1942.06 1452.37 1940.23 1455.94 Q1938.42 1459.48 1938.42 1466.61 Q1938.42 1473.71 1940.23 1477.28 Q1942.06 1480.82 1945.67 1480.82 Q1949.3 1480.82 1951.11 1477.28 Q1952.94 1473.71 1952.94 1466.61 Q1952.94 1459.48 1951.11 1455.94 Q1949.3 1452.37 1945.67 1452.37 M1945.67 1448.67 Q1951.48 1448.67 1954.54 1453.27 Q1957.61 1457.86 1957.61 1466.61 Q1957.61 1475.33 1954.54 1479.94 Q1951.48 1484.52 1945.67 1484.52 Q1939.86 1484.52 1936.78 1479.94 Q1933.73 1475.33 1933.73 1466.61 Q1933.73 1457.86 1936.78 1453.27 Q1939.86 1448.67 1945.67 1448.67 Z" fill="#000000" fill-rule="evenodd" fill-opacity="1" /><path clip-path="url(#clip020)" d="M1975.83 1452.37 Q1972.22 1452.37 1970.39 1455.94 Q1968.59 1459.48 1968.59 1466.61 Q1968.59 1473.71 1970.39 1477.28 Q1972.22 1480.82 1975.83 1480.82 Q1979.47 1480.82 1981.27 1477.28 Q1983.1 1473.71 1983.1 1466.61 Q1983.1 1459.48 1981.27 1455.94 Q1979.47 1452.37 1975.83 1452.37 M1975.83 1448.67 Q1981.64 1448.67 1984.7 1453.27 Q1987.78 1457.86 1987.78 1466.61 Q1987.78 1475.33 1984.7 1479.94 Q1981.64 1484.52 1975.83 1484.52 Q1970.02 1484.52 1966.94 1479.94 Q1963.89 1475.33 1963.89 1466.61 Q1963.89 1457.86 1966.94 1453.27 Q1970.02 1448.67 1975.83 1448.67 Z" fill="#000000" fill-rule="evenodd" fill-opacity="1" /><path clip-path="url(#clip020)" d="M1065.67 1520.52 L1105.87 1520.52 L1105.87 1525.93 L1089 1525.93 L1089 1568.04 L1082.53 1568.04 L1082.53 1525.93 L1065.67 1525.93 L1065.67 1520.52 Z" fill="#000000" fill-rule="evenodd" fill-opacity="1" /><path clip-path="url(#clip020)" d="M1131.23 1548.76 L1131.23 1551.62 L1104.31 1551.62 Q1104.69 1557.67 1107.93 1560.85 Q1111.21 1564 1117.04 1564 Q1120.41 1564 1123.56 1563.17 Q1126.74 1562.35 1129.86 1560.69 L1129.86 1566.23 Q1126.71 1567.57 1123.4 1568.27 Q1120.09 1568.97 1116.69 1568.97 Q1108.16 1568.97 1103.16 1564 Q1098.19 1559.04 1098.19 1550.57 Q1098.19 1541.82 1102.9 1536.69 Q1107.65 1531.54 1115.67 1531.54 Q1122.86 1531.54 1127.03 1536.18 Q1131.23 1540.8 1131.23 1548.76 M1125.38 1547.04 Q1125.31 1542.23 1122.67 1539.37 Q1120.06 1536.5 1115.73 1536.5 Q1110.83 1536.5 1107.87 1539.27 Q1104.94 1542.04 1104.5 1547.07 L1125.38 1547.04 Z" fill="#000000" fill-rule="evenodd" fill-opacity="1" /><path clip-path="url(#clip020)" d="M1170.48 1546.53 L1170.48 1568.04 L1164.62 1568.04 L1164.62 1546.72 Q1164.62 1541.66 1162.65 1539.14 Q1160.67 1536.63 1156.73 1536.63 Q1151.98 1536.63 1149.25 1539.65 Q1146.51 1542.68 1146.51 1547.9 L1146.51 1568.04 L1140.62 1568.04 L1140.62 1532.4 L1146.51 1532.4 L1146.51 1537.93 Q1148.61 1534.72 1151.44 1533.13 Q1154.31 1531.54 1158.03 1531.54 Q1164.17 1531.54 1167.33 1535.36 Q1170.48 1539.14 1170.48 1546.53 Z" fill="#000000" fill-rule="evenodd" fill-opacity="1" /><path clip-path="url(#clip020)" d="M1195.97 1536.5 Q1191.26 1536.5 1188.52 1540.19 Q1185.79 1543.85 1185.79 1550.25 Q1185.79 1556.65 1188.49 1560.34 Q1191.23 1564 1195.97 1564 Q1200.65 1564 1203.39 1560.31 Q1206.12 1556.62 1206.12 1550.25 Q1206.12 1543.92 1203.39 1540.23 Q1200.65 1536.5 1195.97 1536.5 M1195.97 1531.54 Q1203.61 1531.54 1207.97 1536.5 Q1212.33 1541.47 1212.33 1550.25 Q1212.33 1559 1207.97 1564 Q1203.61 1568.97 1195.97 1568.97 Q1188.3 1568.97 1183.94 1564 Q1179.61 1559 1179.61 1550.25 Q1179.61 1541.47 1183.94 1536.5 Q1188.3 1531.54 1195.97 1531.54 Z" fill="#000000" fill-rule="evenodd" fill-opacity="1" /><path clip-path="url(#clip020)" d="M1242.7 1537.87 Q1241.71 1537.3 1240.53 1537.04 Q1239.39 1536.76 1237.99 1536.76 Q1233.02 1536.76 1230.35 1540 Q1227.7 1543.22 1227.7 1549.27 L1227.7 1568.04 L1221.82 1568.04 L1221.82 1532.4 L1227.7 1532.4 L1227.7 1537.93 Q1229.55 1534.69 1232.51 1533.13 Q1235.47 1531.54 1239.7 1531.54 Q1240.31 1531.54 1241.04 1531.63 Q1241.77 1531.7 1242.66 1531.85 L1242.7 1537.87 Z" fill="#000000" fill-rule="evenodd" fill-opacity="1" /><path clip-path="url(#clip020)" d="M1283.63 1518.58 Q1279.36 1525.9 1277.29 1533.06 Q1275.22 1540.23 1275.22 1547.58 Q1275.22 1554.93 1277.29 1562.16 Q1279.39 1569.35 1283.63 1576.64 L1278.53 1576.64 Q1273.76 1569.16 1271.37 1561.93 Q1269.02 1554.71 1269.02 1547.58 Q1269.02 1540.48 1271.37 1533.29 Q1273.73 1526.09 1278.53 1518.58 L1283.63 1518.58 Z" fill="#000000" fill-rule="evenodd" fill-opacity="1" /><path clip-path="url(#clip020)" d="M1318.45 1537.81 L1318.45 1518.52 L1324.3 1518.52 L1324.3 1568.04 L1318.45 1568.04 L1318.45 1562.7 Q1316.6 1565.88 1313.77 1567.44 Q1310.97 1568.97 1307.02 1568.97 Q1300.56 1568.97 1296.49 1563.81 Q1292.44 1558.65 1292.44 1550.25 Q1292.44 1541.85 1296.49 1536.69 Q1300.56 1531.54 1307.02 1531.54 Q1310.97 1531.54 1313.77 1533.1 Q1316.6 1534.62 1318.45 1537.81 M1298.49 1550.25 Q1298.49 1556.71 1301.13 1560.4 Q1303.81 1564.07 1308.45 1564.07 Q1313.1 1564.07 1315.77 1560.4 Q1318.45 1556.71 1318.45 1550.25 Q1318.45 1543.79 1315.77 1540.13 Q1313.1 1536.44 1308.45 1536.44 Q1303.81 1536.44 1301.13 1540.13 Q1298.49 1543.79 1298.49 1550.25 Z" fill="#000000" fill-rule="evenodd" fill-opacity="1" /><path clip-path="url(#clip020)" d="M1352.57 1550.12 Q1345.47 1550.12 1342.73 1551.75 Q1340 1553.37 1340 1557.29 Q1340 1560.4 1342.03 1562.25 Q1344.1 1564.07 1347.63 1564.07 Q1352.5 1564.07 1355.43 1560.63 Q1358.39 1557.16 1358.39 1551.43 L1358.39 1550.12 L1352.57 1550.12 M1364.25 1547.71 L1364.25 1568.04 L1358.39 1568.04 L1358.39 1562.63 Q1356.39 1565.88 1353.4 1567.44 Q1350.4 1568.97 1346.07 1568.97 Q1340.6 1568.97 1337.35 1565.91 Q1334.14 1562.82 1334.14 1557.67 Q1334.14 1551.65 1338.15 1548.6 Q1342.19 1545.54 1350.18 1545.54 L1358.39 1545.54 L1358.39 1544.97 Q1358.39 1540.93 1355.72 1538.73 Q1353.08 1536.5 1348.27 1536.5 Q1345.22 1536.5 1342.32 1537.23 Q1339.42 1537.97 1336.75 1539.43 L1336.75 1534.02 Q1339.96 1532.78 1342.99 1532.17 Q1346.01 1531.54 1348.88 1531.54 Q1356.61 1531.54 1360.43 1535.55 Q1364.25 1539.56 1364.25 1547.71 Z" fill="#000000" fill-rule="evenodd" fill-opacity="1" /><path clip-path="url(#clip020)" d="M1391.14 1571.35 Q1388.66 1577.72 1386.31 1579.66 Q1383.95 1581.6 1380 1581.6 L1375.33 1581.6 L1375.33 1576.7 L1378.76 1576.7 Q1381.18 1576.7 1382.52 1575.56 Q1383.86 1574.41 1385.48 1570.14 L1386.53 1567.47 L1372.11 1532.4 L1378.32 1532.4 L1389.46 1560.28 L1400.6 1532.4 L1406.8 1532.4 L1391.14 1571.35 Z" fill="#000000" fill-rule="evenodd" fill-opacity="1" /><path clip-path="url(#clip020)" d="M1437.61 1533.45 L1437.61 1538.98 Q1435.13 1537.71 1432.46 1537.07 Q1429.78 1536.44 1426.92 1536.44 Q1422.56 1536.44 1420.36 1537.77 Q1418.2 1539.11 1418.2 1541.79 Q1418.2 1543.82 1419.76 1545 Q1421.32 1546.15 1426.03 1547.2 L1428.03 1547.64 Q1434.27 1548.98 1436.88 1551.43 Q1439.52 1553.85 1439.52 1558.21 Q1439.52 1563.17 1435.58 1566.07 Q1431.66 1568.97 1424.79 1568.97 Q1421.92 1568.97 1418.8 1568.39 Q1415.72 1567.85 1412.28 1566.74 L1412.28 1560.69 Q1415.52 1562.38 1418.68 1563.24 Q1421.83 1564.07 1424.91 1564.07 Q1429.05 1564.07 1431.28 1562.66 Q1433.51 1561.23 1433.51 1558.65 Q1433.51 1556.27 1431.88 1554.99 Q1430.29 1553.72 1424.85 1552.54 L1422.81 1552.07 Q1417.37 1550.92 1414.95 1548.56 Q1412.53 1546.18 1412.53 1542.04 Q1412.53 1537.01 1416.1 1534.27 Q1419.66 1531.54 1426.22 1531.54 Q1429.47 1531.54 1432.33 1532.01 Q1435.19 1532.49 1437.61 1533.45 Z" fill="#000000" fill-rule="evenodd" fill-opacity="1" /><path clip-path="url(#clip020)" d="M1447.93 1518.58 L1453.02 1518.58 Q1457.79 1526.09 1460.15 1533.29 Q1462.54 1540.48 1462.54 1547.58 Q1462.54 1554.71 1460.15 1561.93 Q1457.79 1569.16 1453.02 1576.64 L1447.93 1576.64 Q1452.16 1569.35 1454.23 1562.16 Q1456.33 1554.93 1456.33 1547.58 Q1456.33 1540.23 1454.23 1533.06 Q1452.16 1525.9 1447.93 1518.58 Z" fill="#000000" fill-rule="evenodd" fill-opacity="1" /><polyline clip-path="url(#clip022)" style="stroke:#000000; stroke-linecap:butt; stroke-linejoin:round; stroke-width:2; stroke-opacity:0.1; fill:none" points="
  175.445,1417.9 2352.76,1417.9 
  "/>
<polyline clip-path="url(#clip022)" style="stroke:#000000; stroke-linecap:butt; stroke-linejoin:round; stroke-width:2; stroke-opacity:0.1; fill:none" points="
  175.445,1175.58 2352.76,1175.58 
  "/>
<polyline clip-path="url(#clip022)" style="stroke:#000000; stroke-linecap:butt; stroke-linejoin:round; stroke-width:2; stroke-opacity:0.1; fill:none" points="
  175.445,933.257 2352.76,933.257 
  "/>
<polyline clip-path="url(#clip022)" style="stroke:#000000; stroke-linecap:butt; stroke-linejoin:round; stroke-width:2; stroke-opacity:0.1; fill:none" points="
  175.445,690.937 2352.76,690.937 
  "/>
<polyline clip-path="url(#clip022)" style="stroke:#000000; stroke-linecap:butt; stroke-linejoin:round; stroke-width:2; stroke-opacity:0.1; fill:none" points="
  175.445,448.617 2352.76,448.617 
  "/>
<polyline clip-path="url(#clip022)" style="stroke:#000000; stroke-linecap:butt; stroke-linejoin:round; stroke-width:2; stroke-opacity:0.1; fill:none" points="
  175.445,206.297 2352.76,206.297 
  "/>
<polyline clip-path="url(#clip020)" style="stroke:#000000; stroke-linecap:butt; stroke-linejoin:round; stroke-width:4; stroke-opacity:1; fill:none" points="
  175.445,1423.18 175.445,123.472 
  "/>
<polyline clip-path="url(#clip020)" style="stroke:#000000; stroke-linecap:butt; stroke-linejoin:round; stroke-width:4; stroke-opacity:1; fill:none" points="
  175.445,1417.9 194.343,1417.9 
  "/>
<polyline clip-path="url(#clip020)" style="stroke:#000000; stroke-linecap:butt; stroke-linejoin:round; stroke-width:4; stroke-opacity:1; fill:none" points="
  175.445,1175.58 194.343,1175.58 
  "/>
<polyline clip-path="url(#clip020)" style="stroke:#000000; stroke-linecap:butt; stroke-linejoin:round; stroke-width:4; stroke-opacity:1; fill:none" points="
  175.445,933.257 194.343,933.257 
  "/>
<polyline clip-path="url(#clip020)" style="stroke:#000000; stroke-linecap:butt; stroke-linejoin:round; stroke-width:4; stroke-opacity:1; fill:none" points="
  175.445,690.937 194.343,690.937 
  "/>
<polyline clip-path="url(#clip020)" style="stroke:#000000; stroke-linecap:butt; stroke-linejoin:round; stroke-width:4; stroke-opacity:1; fill:none" points="
  175.445,448.617 194.343,448.617 
  "/>
<polyline clip-path="url(#clip020)" style="stroke:#000000; stroke-linecap:butt; stroke-linejoin:round; stroke-width:4; stroke-opacity:1; fill:none" points="
  175.445,206.297 194.343,206.297 
  "/>
<path clip-path="url(#clip020)" d="M127.501 1403.7 Q123.89 1403.7 122.061 1407.26 Q120.255 1410.8 120.255 1417.93 Q120.255 1425.04 122.061 1428.6 Q123.89 1432.14 127.501 1432.14 Q131.135 1432.14 132.941 1428.6 Q134.769 1425.04 134.769 1417.93 Q134.769 1410.8 132.941 1407.26 Q131.135 1403.7 127.501 1403.7 M127.501 1399.99 Q133.311 1399.99 136.367 1404.6 Q139.445 1409.18 139.445 1417.93 Q139.445 1426.66 136.367 1431.27 Q133.311 1435.85 127.501 1435.85 Q121.691 1435.85 118.612 1431.27 Q115.556 1426.66 115.556 1417.93 Q115.556 1409.18 118.612 1404.6 Q121.691 1399.99 127.501 1399.99 Z" fill="#000000" fill-rule="evenodd" fill-opacity="1" /><path clip-path="url(#clip020)" d="M119.538 1188.92 L127.177 1188.92 L127.177 1162.56 L118.867 1164.22 L118.867 1159.96 L127.13 1158.3 L131.806 1158.3 L131.806 1188.92 L139.445 1188.92 L139.445 1192.86 L119.538 1192.86 L119.538 1188.92 Z" fill="#000000" fill-rule="evenodd" fill-opacity="1" /><path clip-path="url(#clip020)" d="M123.126 946.602 L139.445 946.602 L139.445 950.537 L117.501 950.537 L117.501 946.602 Q120.163 943.847 124.746 939.218 Q129.353 934.565 130.533 933.222 Q132.779 930.699 133.658 928.963 Q134.561 927.204 134.561 925.514 Q134.561 922.76 132.617 921.023 Q130.695 919.287 127.593 919.287 Q125.394 919.287 122.941 920.051 Q120.51 920.815 117.732 922.366 L117.732 917.644 Q120.556 916.51 123.01 915.931 Q125.464 915.352 127.501 915.352 Q132.871 915.352 136.066 918.037 Q139.26 920.723 139.26 925.213 Q139.26 927.343 138.45 929.264 Q137.663 931.162 135.556 933.755 Q134.978 934.426 131.876 937.644 Q128.774 940.838 123.126 946.602 Z" fill="#000000" fill-rule="evenodd" fill-opacity="1" /><path clip-path="url(#clip020)" d="M132.316 689.583 Q135.672 690.301 137.547 692.569 Q139.445 694.838 139.445 698.171 Q139.445 703.287 135.927 706.088 Q132.408 708.888 125.927 708.888 Q123.751 708.888 121.436 708.449 Q119.144 708.032 116.691 707.176 L116.691 702.662 Q118.635 703.796 120.95 704.375 Q123.265 704.953 125.788 704.953 Q130.186 704.953 132.478 703.217 Q134.792 701.481 134.792 698.171 Q134.792 695.115 132.64 693.402 Q130.51 691.666 126.691 691.666 L122.663 691.666 L122.663 687.824 L126.876 687.824 Q130.325 687.824 132.154 686.458 Q133.982 685.069 133.982 682.477 Q133.982 679.815 132.084 678.403 Q130.209 676.967 126.691 676.967 Q124.769 676.967 122.57 677.384 Q120.371 677.801 117.732 678.68 L117.732 674.514 Q120.394 673.773 122.709 673.403 Q125.047 673.032 127.107 673.032 Q132.431 673.032 135.533 675.463 Q138.635 677.87 138.635 681.99 Q138.635 684.861 136.992 686.852 Q135.348 688.819 132.316 689.583 Z" fill="#000000" fill-rule="evenodd" fill-opacity="1" /><path clip-path="url(#clip020)" d="M129.862 435.411 L118.056 453.86 L129.862 453.86 L129.862 435.411 M128.635 431.337 L134.515 431.337 L134.515 453.86 L139.445 453.86 L139.445 457.749 L134.515 457.749 L134.515 465.897 L129.862 465.897 L129.862 457.749 L114.26 457.749 L114.26 453.235 L128.635 431.337 Z" fill="#000000" fill-rule="evenodd" fill-opacity="1" /><path clip-path="url(#clip020)" d="M118.543 189.017 L136.899 189.017 L136.899 192.952 L122.825 192.952 L122.825 201.424 Q123.843 201.077 124.862 200.915 Q125.88 200.73 126.899 200.73 Q132.686 200.73 136.066 203.901 Q139.445 207.073 139.445 212.489 Q139.445 218.068 135.973 221.17 Q132.501 224.248 126.181 224.248 Q124.005 224.248 121.737 223.878 Q119.492 223.508 117.084 222.767 L117.084 218.068 Q119.168 219.202 121.39 219.758 Q123.612 220.313 126.089 220.313 Q130.093 220.313 132.431 218.207 Q134.769 216.1 134.769 212.489 Q134.769 208.878 132.431 206.772 Q130.093 204.665 126.089 204.665 Q124.214 204.665 122.339 205.082 Q120.487 205.499 118.543 206.378 L118.543 189.017 Z" fill="#000000" fill-rule="evenodd" fill-opacity="1" /><path clip-path="url(#clip020)" d="M16.4842 914.947 L16.4842 908.04 L36.0269 894.863 L16.4842 881.782 L16.4842 874.875 L41.3741 891.68 L64.0042 891.68 L64.0042 898.142 L41.3741 898.142 L16.4842 914.947 Z" fill="#000000" fill-rule="evenodd" fill-opacity="1" /><path clip-path="url(#clip020)" d="M28.3562 871.183 L28.3562 865.326 L64.0042 865.326 L64.0042 871.183 L28.3562 871.183 M14.479 871.183 L14.479 865.326 L21.895 865.326 L21.895 871.183 L14.479 871.183 Z" fill="#000000" fill-rule="evenodd" fill-opacity="1" /><path clip-path="url(#clip020)" d="M44.7161 822.581 L47.5806 822.581 L47.5806 849.508 Q53.6281 849.126 56.8109 845.879 Q59.9619 842.601 59.9619 836.776 Q59.9619 833.402 59.1344 830.251 Q58.3069 827.068 56.6518 823.949 L62.1899 823.949 Q63.5267 827.1 64.227 830.41 Q64.9272 833.721 64.9272 837.126 Q64.9272 845.656 59.9619 850.653 Q54.9967 855.619 46.5303 855.619 Q37.7774 855.619 32.6531 850.908 Q27.4968 846.166 27.4968 838.145 Q27.4968 830.952 32.1438 826.782 Q36.7589 822.581 44.7161 822.581 M42.9973 828.437 Q38.1912 828.501 35.3266 831.143 Q32.4621 833.752 32.4621 838.081 Q32.4621 842.983 35.2312 845.943 Q38.0002 848.871 43.0292 849.317 L42.9973 828.437 Z" fill="#000000" fill-rule="evenodd" fill-opacity="1" /><path clip-path="url(#clip020)" d="M14.479 812.968 L14.479 807.112 L64.0042 807.112 L64.0042 812.968 L14.479 812.968 Z" fill="#000000" fill-rule="evenodd" fill-opacity="1" /><path clip-path="url(#clip020)" d="M33.7671 771.4 L14.479 771.4 L14.479 765.544 L64.0042 765.544 L64.0042 771.4 L58.657 771.4 Q61.8398 773.246 63.3994 776.079 Q64.9272 778.88 64.9272 782.827 Q64.9272 789.288 59.771 793.362 Q54.6147 797.404 46.212 797.404 Q37.8093 797.404 32.6531 793.362 Q27.4968 789.288 27.4968 782.827 Q27.4968 778.88 29.0564 776.079 Q30.5842 773.246 33.7671 771.4 M46.212 791.357 Q52.6732 791.357 56.3653 788.715 Q60.0256 786.041 60.0256 781.395 Q60.0256 776.748 56.3653 774.074 Q52.6732 771.4 46.212 771.4 Q39.7508 771.4 36.0905 774.074 Q32.3984 776.748 32.3984 781.395 Q32.3984 786.041 36.0905 788.715 Q39.7508 791.357 46.212 791.357 Z" fill="#000000" fill-rule="evenodd" fill-opacity="1" /><path clip-path="url(#clip020)" d="M14.5426 718.692 Q21.8632 722.957 29.0246 725.026 Q36.186 727.095 43.5384 727.095 Q50.8908 727.095 58.1159 725.026 Q65.3091 722.926 72.5979 718.692 L72.5979 723.785 Q65.1182 728.559 57.8931 730.946 Q50.668 733.302 43.5384 733.302 Q36.4406 733.302 29.2474 730.946 Q22.0542 728.591 14.5426 723.785 L14.5426 718.692 Z" fill="#000000" fill-rule="evenodd" fill-opacity="1" /><path clip-path="url(#clip020)" d="M43.0928 666.08 Q43.0928 668.849 45.4481 670.44 Q47.8034 672 52.0048 672 Q56.1425 672 58.5296 670.44 Q60.885 668.849 60.885 666.08 Q60.885 663.374 58.5296 661.815 Q56.1425 660.223 52.0048 660.223 Q47.8353 660.223 45.48 661.815 Q43.0928 663.374 43.0928 666.08 M39.0506 666.08 Q39.0506 661.051 42.5517 658.091 Q46.0529 655.131 52.0048 655.131 Q57.9567 655.131 61.4579 658.123 Q64.9272 661.083 64.9272 666.08 Q64.9272 671.172 61.4579 674.132 Q57.9567 677.092 52.0048 677.092 Q46.021 677.092 42.5517 674.132 Q39.0506 671.14 39.0506 666.08 M19.667 698.927 Q19.667 701.664 22.0542 703.255 Q24.4095 704.815 28.5472 704.815 Q32.7485 704.815 35.1038 703.255 Q37.4592 701.696 37.4592 698.927 Q37.4592 696.158 35.1038 694.598 Q32.7485 693.007 28.5472 693.007 Q24.4413 693.007 22.0542 694.598 Q19.667 696.19 19.667 698.927 M15.6248 670.186 L15.6248 665.093 L64.9272 694.821 L64.9272 699.913 L15.6248 670.186 M15.6248 698.927 Q15.6248 693.898 19.1259 690.906 Q22.5952 687.914 28.5472 687.914 Q34.5628 687.914 38.0321 690.906 Q41.5014 693.866 41.5014 698.927 Q41.5014 703.988 38.0321 706.948 Q34.5309 709.876 28.5472 709.876 Q22.6271 709.876 19.1259 706.916 Q15.6248 703.956 15.6248 698.927 Z" fill="#000000" fill-rule="evenodd" fill-opacity="1" /><path clip-path="url(#clip020)" d="M14.5426 646.314 L14.5426 641.222 Q22.0542 636.447 29.2474 634.092 Q36.4406 631.705 43.5384 631.705 Q50.668 631.705 57.8931 634.092 Q65.1182 636.447 72.5979 641.222 L72.5979 646.314 Q65.3091 642.081 58.1159 640.012 Q50.8908 637.911 43.5384 637.911 Q36.186 637.911 29.0246 640.012 Q21.8632 642.081 14.5426 646.314 Z" fill="#000000" fill-rule="evenodd" fill-opacity="1" /><path clip-path="url(#clip020)" d="M1031.9 12.096 L1040.69 12.096 L1057.46 36.9686 L1074.11 12.096 L1082.9 12.096 L1061.51 43.7741 L1061.51 72.576 L1053.29 72.576 L1053.29 43.7741 L1031.9 12.096 Z" fill="#000000" fill-rule="evenodd" fill-opacity="1" /><path clip-path="url(#clip020)" d="M1087.6 27.2059 L1095.06 27.2059 L1095.06 72.576 L1087.6 72.576 L1087.6 27.2059 M1087.6 9.54393 L1095.06 9.54393 L1095.06 18.9825 L1087.6 18.9825 L1087.6 9.54393 Z" fill="#000000" fill-rule="evenodd" fill-opacity="1" /><path clip-path="url(#clip020)" d="M1149.46 48.0275 L1149.46 51.6733 L1115.19 51.6733 Q1115.68 59.3701 1119.81 63.421 Q1123.98 67.4314 1131.39 67.4314 Q1135.69 67.4314 1139.7 66.3781 Q1143.75 65.3249 1147.72 63.2184 L1147.72 70.267 Q1143.71 71.9684 1139.49 72.8596 Q1135.28 73.7508 1130.95 73.7508 Q1120.09 73.7508 1113.73 67.4314 Q1107.41 61.1119 1107.41 50.3365 Q1107.41 39.1965 1113.41 32.6746 Q1119.44 26.1121 1129.65 26.1121 Q1138.81 26.1121 1144.11 32.0264 Q1149.46 37.9003 1149.46 48.0275 M1142.01 45.84 Q1141.93 39.7232 1138.56 36.0774 Q1135.24 32.4315 1129.73 32.4315 Q1123.49 32.4315 1119.73 35.9558 Q1116 39.4801 1115.43 45.8805 L1142.01 45.84 Z" fill="#000000" fill-rule="evenodd" fill-opacity="1" /><path clip-path="url(#clip020)" d="M1161.69 9.54393 L1169.15 9.54393 L1169.15 72.576 L1161.69 72.576 L1161.69 9.54393 Z" fill="#000000" fill-rule="evenodd" fill-opacity="1" /><path clip-path="url(#clip020)" d="M1214.6 34.0924 L1214.6 9.54393 L1222.05 9.54393 L1222.05 72.576 L1214.6 72.576 L1214.6 65.7705 Q1212.25 69.8214 1208.64 71.8063 Q1205.08 73.7508 1200.06 73.7508 Q1191.83 73.7508 1186.65 67.1883 Q1181.5 60.6258 1181.5 49.9314 Q1181.5 39.2371 1186.65 32.6746 Q1191.83 26.1121 1200.06 26.1121 Q1205.08 26.1121 1208.64 28.0971 Q1212.25 30.0415 1214.6 34.0924 M1189.2 49.9314 Q1189.2 58.1548 1192.56 62.8538 Q1195.96 67.5124 1201.88 67.5124 Q1207.79 67.5124 1211.2 62.8538 Q1214.6 58.1548 1214.6 49.9314 Q1214.6 41.7081 1211.2 37.0496 Q1207.79 32.3505 1201.88 32.3505 Q1195.96 32.3505 1192.56 37.0496 Q1189.2 41.7081 1189.2 49.9314 Z" fill="#000000" fill-rule="evenodd" fill-opacity="1" /><path clip-path="url(#clip020)" d="M1309.39 16.7545 L1309.39 25.383 Q1305.26 21.5346 1300.56 19.6307 Q1295.9 17.7268 1290.63 17.7268 Q1280.26 17.7268 1274.75 24.0867 Q1269.25 30.4061 1269.25 42.3968 Q1269.25 54.3469 1274.75 60.7069 Q1280.26 67.0263 1290.63 67.0263 Q1295.9 67.0263 1300.56 65.1223 Q1305.26 63.2184 1309.39 59.3701 L1309.39 67.9175 Q1305.1 70.8341 1300.28 72.2924 Q1295.5 73.7508 1290.15 73.7508 Q1276.42 73.7508 1268.52 65.3654 Q1260.62 56.9395 1260.62 42.3968 Q1260.62 27.8135 1268.52 19.4281 Q1276.42 11.0023 1290.15 11.0023 Q1295.58 11.0023 1300.36 12.4606 Q1305.18 13.8784 1309.39 16.7545 Z" fill="#000000" fill-rule="evenodd" fill-opacity="1" /><path clip-path="url(#clip020)" d="M1320.93 54.671 L1320.93 27.2059 L1328.39 27.2059 L1328.39 54.3874 Q1328.39 60.8284 1330.9 64.0691 Q1333.41 67.2693 1338.43 67.2693 Q1344.47 67.2693 1347.95 63.421 Q1351.48 59.5726 1351.48 52.9291 L1351.48 27.2059 L1358.93 27.2059 L1358.93 72.576 L1351.48 72.576 L1351.48 65.6084 Q1348.76 69.7404 1345.16 71.7658 Q1341.59 73.7508 1336.85 73.7508 Q1329.04 73.7508 1324.99 68.8897 Q1320.93 64.0286 1320.93 54.671 M1339.69 26.1121 L1339.69 26.1121 Z" fill="#000000" fill-rule="evenodd" fill-opacity="1" /><path clip-path="url(#clip020)" d="M1400.58 34.1734 Q1399.32 33.4443 1397.82 33.1202 Q1396.36 32.7556 1394.58 32.7556 Q1388.26 32.7556 1384.86 36.8875 Q1381.5 40.9789 1381.5 48.6757 L1381.5 72.576 L1374 72.576 L1374 27.2059 L1381.5 27.2059 L1381.5 34.2544 Q1383.85 30.1225 1387.61 28.1376 Q1391.38 26.1121 1396.77 26.1121 Q1397.54 26.1121 1398.47 26.2337 Q1399.4 26.3147 1400.54 26.5172 L1400.58 34.1734 Z" fill="#000000" fill-rule="evenodd" fill-opacity="1" /><path clip-path="url(#clip020)" d="M1403.05 27.2059 L1410.95 27.2059 L1425.12 65.2844 L1439.3 27.2059 L1447.2 27.2059 L1430.19 72.576 L1420.06 72.576 L1403.05 27.2059 Z" fill="#000000" fill-rule="evenodd" fill-opacity="1" /><path clip-path="url(#clip020)" d="M1496.3 48.0275 L1496.3 51.6733 L1462.03 51.6733 Q1462.51 59.3701 1466.65 63.421 Q1470.82 67.4314 1478.23 67.4314 Q1482.53 67.4314 1486.54 66.3781 Q1490.59 65.3249 1494.56 63.2184 L1494.56 70.267 Q1490.55 71.9684 1486.33 72.8596 Q1482.12 73.7508 1477.79 73.7508 Q1466.93 73.7508 1460.57 67.4314 Q1454.25 61.1119 1454.25 50.3365 Q1454.25 39.1965 1460.25 32.6746 Q1466.28 26.1121 1476.49 26.1121 Q1485.64 26.1121 1490.95 32.0264 Q1496.3 37.9003 1496.3 48.0275 M1488.84 45.84 Q1488.76 39.7232 1485.4 36.0774 Q1482.08 32.4315 1476.57 32.4315 Q1470.33 32.4315 1466.56 35.9558 Q1462.84 39.4801 1462.27 45.8805 L1488.84 45.84 Z" fill="#000000" fill-rule="evenodd" fill-opacity="1" /><polyline clip-path="url(#clip022)" style="stroke:#009af9; stroke-linecap:butt; stroke-linejoin:round; stroke-width:4; stroke-opacity:1; fill:none" points="
  237.067,160.256 565.027,298.379 910.249,295.956 2291.13,271.724 
  "/>
<path clip-path="url(#clip022)" d="M237.067 144.256 L221.067 160.256 L237.067 176.256 L253.067 160.256 L237.067 144.256 Z" fill="#009af9" fill-rule="evenodd" fill-opacity="1" stroke="#000000" stroke-opacity="1" stroke-width="3.2"/>
<path clip-path="url(#clip022)" d="M565.027 282.379 L549.027 298.379 L565.027 314.379 L581.027 298.379 L565.027 282.379 Z" fill="#009af9" fill-rule="evenodd" fill-opacity="1" stroke="#000000" stroke-opacity="1" stroke-width="3.2"/>
<path clip-path="url(#clip022)" d="M910.249 279.956 L894.249 295.956 L910.249 311.956 L926.249 295.956 L910.249 279.956 Z" fill="#009af9" fill-rule="evenodd" fill-opacity="1" stroke="#000000" stroke-opacity="1" stroke-width="3.2"/>
<path clip-path="url(#clip022)" d="M2291.13 255.724 L2275.13 271.724 L2291.13 287.724 L2307.13 271.724 L2291.13 255.724 Z" fill="#009af9" fill-rule="evenodd" fill-opacity="1" stroke="#000000" stroke-opacity="1" stroke-width="3.2"/>
<polyline clip-path="url(#clip022)" style="stroke:#e26f46; stroke-linecap:butt; stroke-linejoin:round; stroke-width:4; stroke-opacity:1; fill:none" points="
  237.067,899.332 565.027,710.323 910.249,477.696 2291.13,288.686 
  "/>
<path clip-path="url(#clip022)" d="M237.067 883.332 L221.067 899.332 L237.067 915.332 L253.067 899.332 L237.067 883.332 Z" fill="#e26f46" fill-rule="evenodd" fill-opacity="1" stroke="#000000" stroke-opacity="1" stroke-width="3.2"/>
<path clip-path="url(#clip022)" d="M565.027 694.323 L549.027 710.323 L565.027 726.323 L581.027 710.323 L565.027 694.323 Z" fill="#e26f46" fill-rule="evenodd" fill-opacity="1" stroke="#000000" stroke-opacity="1" stroke-width="3.2"/>
<path clip-path="url(#clip022)" d="M910.249 461.696 L894.249 477.696 L910.249 493.696 L926.249 477.696 L910.249 461.696 Z" fill="#e26f46" fill-rule="evenodd" fill-opacity="1" stroke="#000000" stroke-opacity="1" stroke-width="3.2"/>
<path clip-path="url(#clip022)" d="M2291.13 272.686 L2275.13 288.686 L2291.13 304.686 L2307.13 288.686 L2291.13 272.686 Z" fill="#e26f46" fill-rule="evenodd" fill-opacity="1" stroke="#000000" stroke-opacity="1" stroke-width="3.2"/>
<polyline clip-path="url(#clip022)" style="stroke:#3da44d; stroke-linecap:butt; stroke-linejoin:round; stroke-width:4; stroke-opacity:1; fill:none" points="
  237.067,1352.47 565.027,916.295 910.249,695.784 2291.13,531.006 
  "/>
<path clip-path="url(#clip022)" d="M237.067 1336.47 L221.067 1352.47 L237.067 1368.47 L253.067 1352.47 L237.067 1336.47 Z" fill="#3da44d" fill-rule="evenodd" fill-opacity="1" stroke="#000000" stroke-opacity="1" stroke-width="3.2"/>
<path clip-path="url(#clip022)" d="M565.027 900.295 L549.027 916.295 L565.027 932.295 L581.027 916.295 L565.027 900.295 Z" fill="#3da44d" fill-rule="evenodd" fill-opacity="1" stroke="#000000" stroke-opacity="1" stroke-width="3.2"/>
<path clip-path="url(#clip022)" d="M910.249 679.784 L894.249 695.784 L910.249 711.784 L926.249 695.784 L910.249 679.784 Z" fill="#3da44d" fill-rule="evenodd" fill-opacity="1" stroke="#000000" stroke-opacity="1" stroke-width="3.2"/>
<path clip-path="url(#clip022)" d="M2291.13 515.006 L2275.13 531.006 L2291.13 547.006 L2307.13 531.006 L2291.13 515.006 Z" fill="#3da44d" fill-rule="evenodd" fill-opacity="1" stroke="#000000" stroke-opacity="1" stroke-width="3.2"/>
<polyline clip-path="url(#clip022)" style="stroke:#c271d2; stroke-linecap:butt; stroke-linejoin:round; stroke-width:4; stroke-opacity:1; fill:none" points="
  237.067,1386.4 565.027,860.561 910.249,543.122 2291.13,315.341 
  "/>
<path clip-path="url(#clip022)" d="M237.067 1370.4 L221.067 1386.4 L237.067 1402.4 L253.067 1386.4 L237.067 1370.4 Z" fill="#c271d2" fill-rule="evenodd" fill-opacity="1" stroke="#000000" stroke-opacity="1" stroke-width="3.2"/>
<path clip-path="url(#clip022)" d="M565.027 844.561 L549.027 860.561 L565.027 876.561 L581.027 860.561 L565.027 844.561 Z" fill="#c271d2" fill-rule="evenodd" fill-opacity="1" stroke="#000000" stroke-opacity="1" stroke-width="3.2"/>
<path clip-path="url(#clip022)" d="M910.249 527.122 L894.249 543.122 L910.249 559.122 L926.249 543.122 L910.249 527.122 Z" fill="#c271d2" fill-rule="evenodd" fill-opacity="1" stroke="#000000" stroke-opacity="1" stroke-width="3.2"/>
<path clip-path="url(#clip022)" d="M2291.13 299.341 L2275.13 315.341 L2291.13 331.341 L2307.13 315.341 L2291.13 299.341 Z" fill="#c271d2" fill-rule="evenodd" fill-opacity="1" stroke="#000000" stroke-opacity="1" stroke-width="3.2"/>
<path clip-path="url(#clip020)" d="
M1769.21 1379.86 L2280.18 1379.86 L2280.18 1120.66 L1769.21 1120.66  Z
  " fill="#ffffff" fill-rule="evenodd" fill-opacity="1"/>
<polyline clip-path="url(#clip020)" style="stroke:#000000; stroke-linecap:butt; stroke-linejoin:round; stroke-width:4; stroke-opacity:1; fill:none" points="
  1769.21,1379.86 2280.18,1379.86 2280.18,1120.66 1769.21,1120.66 1769.21,1379.86 
  "/>
<polyline clip-path="url(#clip020)" style="stroke:#009af9; stroke-linecap:butt; stroke-linejoin:round; stroke-width:4; stroke-opacity:1; fill:none" points="
  1793.4,1172.5 1938.55,1172.5 
  "/>
<path clip-path="url(#clip020)" d="M1865.98 1146.9 L1840.38 1172.5 L1865.98 1198.1 L1891.58 1172.5 L1865.98 1146.9 Z" fill="#009af9" fill-rule="evenodd" fill-opacity="1" stroke="#000000" stroke-opacity="1" stroke-width="5.12"/>
<path clip-path="url(#clip020)" d="M1968.37 1185.84 L1984.69 1185.84 L1984.69 1189.78 L1962.74 1189.78 L1962.74 1185.84 Q1965.41 1183.09 1969.99 1178.46 Q1974.6 1173.8 1975.78 1172.46 Q1978.02 1169.94 1978.9 1168.2 Q1979.8 1166.44 1979.8 1164.75 Q1979.8 1162 1977.86 1160.26 Q1975.94 1158.53 1972.84 1158.53 Q1970.64 1158.53 1968.18 1159.29 Q1965.75 1160.05 1962.98 1161.61 L1962.98 1156.88 Q1965.8 1155.75 1968.25 1155.17 Q1970.71 1154.59 1972.74 1154.59 Q1978.12 1154.59 1981.31 1157.28 Q1984.5 1159.96 1984.5 1164.45 Q1984.5 1166.58 1983.69 1168.5 Q1982.91 1170.4 1980.8 1172.99 Q1980.22 1173.67 1977.12 1176.88 Q1974.02 1180.08 1968.37 1185.84 Z" fill="#000000" fill-rule="evenodd" fill-opacity="1" /><path clip-path="url(#clip020)" d="M2004.5 1158.29 Q2000.89 1158.29 1999.06 1161.86 Q1997.26 1165.4 1997.26 1172.53 Q1997.26 1179.64 1999.06 1183.2 Q2000.89 1186.74 2004.5 1186.74 Q2008.14 1186.74 2009.94 1183.2 Q2011.77 1179.64 2011.77 1172.53 Q2011.77 1165.4 2009.94 1161.86 Q2008.14 1158.29 2004.5 1158.29 M2004.5 1154.59 Q2010.31 1154.59 2013.37 1159.2 Q2016.45 1163.78 2016.45 1172.53 Q2016.45 1181.26 2013.37 1185.86 Q2010.31 1190.45 2004.5 1190.45 Q1998.69 1190.45 1995.61 1185.86 Q1992.56 1181.26 1992.56 1172.53 Q1992.56 1163.78 1995.61 1159.2 Q1998.69 1154.59 2004.5 1154.59 Z" fill="#000000" fill-rule="evenodd" fill-opacity="1" /><path clip-path="url(#clip020)" d="M2034.67 1158.29 Q2031.05 1158.29 2029.23 1161.86 Q2027.42 1165.4 2027.42 1172.53 Q2027.42 1179.64 2029.23 1183.2 Q2031.05 1186.74 2034.67 1186.74 Q2038.3 1186.74 2040.11 1183.2 Q2041.93 1179.64 2041.93 1172.53 Q2041.93 1165.4 2040.11 1161.86 Q2038.3 1158.29 2034.67 1158.29 M2034.67 1154.59 Q2040.48 1154.59 2043.53 1159.2 Q2046.61 1163.78 2046.61 1172.53 Q2046.61 1181.26 2043.53 1185.86 Q2040.48 1190.45 2034.67 1190.45 Q2028.86 1190.45 2025.78 1185.86 Q2022.72 1181.26 2022.72 1172.53 Q2022.72 1163.78 2025.78 1159.2 Q2028.86 1154.59 2034.67 1154.59 Z" fill="#000000" fill-rule="evenodd" fill-opacity="1" /><path clip-path="url(#clip020)" d="M2053.65 1155.22 L2075.87 1155.22 L2075.87 1157.21 L2063.32 1189.78 L2058.44 1189.78 L2070.24 1159.15 L2053.65 1159.15 L2053.65 1155.22 Z" fill="#000000" fill-rule="evenodd" fill-opacity="1" /><path clip-path="url(#clip020)" d="M2082.23 1174.89 L2094.71 1174.89 L2094.71 1178.69 L2082.23 1178.69 L2082.23 1174.89 Z" fill="#000000" fill-rule="evenodd" fill-opacity="1" /><path clip-path="url(#clip020)" d="M2112.1 1158.29 Q2108.48 1158.29 2106.66 1161.86 Q2104.85 1165.4 2104.85 1172.53 Q2104.85 1179.64 2106.66 1183.2 Q2108.48 1186.74 2112.1 1186.74 Q2115.73 1186.74 2117.54 1183.2 Q2119.36 1179.64 2119.36 1172.53 Q2119.36 1165.4 2117.54 1161.86 Q2115.73 1158.29 2112.1 1158.29 M2112.1 1154.59 Q2117.91 1154.59 2120.96 1159.2 Q2124.04 1163.78 2124.04 1172.53 Q2124.04 1181.26 2120.96 1185.86 Q2117.91 1190.45 2112.1 1190.45 Q2106.29 1190.45 2103.21 1185.86 Q2100.15 1181.26 2100.15 1172.53 Q2100.15 1163.78 2103.21 1159.2 Q2106.29 1154.59 2112.1 1154.59 Z" fill="#000000" fill-rule="evenodd" fill-opacity="1" /><path clip-path="url(#clip020)" d="M2136.29 1185.84 L2152.6 1185.84 L2152.6 1189.78 L2130.66 1189.78 L2130.66 1185.84 Q2133.32 1183.09 2137.91 1178.46 Q2142.51 1173.8 2143.69 1172.46 Q2145.94 1169.94 2146.82 1168.2 Q2147.72 1166.44 2147.72 1164.75 Q2147.72 1162 2145.78 1160.26 Q2143.85 1158.53 2140.75 1158.53 Q2138.55 1158.53 2136.1 1159.29 Q2133.67 1160.05 2130.89 1161.61 L2130.89 1156.88 Q2133.72 1155.75 2136.17 1155.17 Q2138.62 1154.59 2140.66 1154.59 Q2146.03 1154.59 2149.23 1157.28 Q2152.42 1159.96 2152.42 1164.45 Q2152.42 1166.58 2151.61 1168.5 Q2150.82 1170.4 2148.72 1172.99 Q2148.14 1173.67 2145.04 1176.88 Q2141.93 1180.08 2136.29 1185.84 Z" fill="#000000" fill-rule="evenodd" fill-opacity="1" /><path clip-path="url(#clip020)" d="M2159.66 1174.89 L2172.14 1174.89 L2172.14 1178.69 L2159.66 1178.69 L2159.66 1174.89 Z" fill="#000000" fill-rule="evenodd" fill-opacity="1" /><path clip-path="url(#clip020)" d="M2183.55 1185.84 L2199.87 1185.84 L2199.87 1189.78 L2177.93 1189.78 L2177.93 1185.84 Q2180.59 1183.09 2185.17 1178.46 Q2189.78 1173.8 2190.96 1172.46 Q2193.21 1169.94 2194.09 1168.2 Q2194.99 1166.44 2194.99 1164.75 Q2194.99 1162 2193.04 1160.26 Q2191.12 1158.53 2188.02 1158.53 Q2185.82 1158.53 2183.37 1159.29 Q2180.94 1160.05 2178.16 1161.61 L2178.16 1156.88 Q2180.98 1155.75 2183.44 1155.17 Q2185.89 1154.59 2187.93 1154.59 Q2193.3 1154.59 2196.49 1157.28 Q2199.69 1159.96 2199.69 1164.45 Q2199.69 1166.58 2198.88 1168.5 Q2198.09 1170.4 2195.98 1172.99 Q2195.41 1173.67 2192.3 1176.88 Q2189.2 1180.08 2183.55 1185.84 Z" fill="#000000" fill-rule="evenodd" fill-opacity="1" /><path clip-path="url(#clip020)" d="M2220.27 1170.63 Q2217.12 1170.63 2215.27 1172.79 Q2213.44 1174.94 2213.44 1178.69 Q2213.44 1182.42 2215.27 1184.59 Q2217.12 1186.74 2220.27 1186.74 Q2223.41 1186.74 2225.24 1184.59 Q2227.1 1182.42 2227.1 1178.69 Q2227.1 1174.94 2225.24 1172.79 Q2223.41 1170.63 2220.27 1170.63 M2229.55 1155.98 L2229.55 1160.24 Q2227.79 1159.41 2225.98 1158.97 Q2224.2 1158.53 2222.44 1158.53 Q2217.81 1158.53 2215.36 1161.65 Q2212.93 1164.78 2212.58 1171.1 Q2213.95 1169.08 2216.01 1168.02 Q2218.07 1166.93 2220.54 1166.93 Q2225.75 1166.93 2228.76 1170.1 Q2231.79 1173.25 2231.79 1178.69 Q2231.79 1184.01 2228.65 1187.23 Q2225.5 1190.45 2220.27 1190.45 Q2214.27 1190.45 2211.1 1185.86 Q2207.93 1181.26 2207.93 1172.53 Q2207.93 1164.34 2211.82 1159.48 Q2215.71 1154.59 2222.26 1154.59 Q2224.02 1154.59 2225.8 1154.94 Q2227.6 1155.29 2229.55 1155.98 Z" fill="#000000" fill-rule="evenodd" fill-opacity="1" /><polyline clip-path="url(#clip020)" style="stroke:#e26f46; stroke-linecap:butt; stroke-linejoin:round; stroke-width:4; stroke-opacity:1; fill:none" points="
  1793.4,1224.34 1938.55,1224.34 
  "/>
<path clip-path="url(#clip020)" d="M1865.98 1198.74 L1840.38 1224.34 L1865.98 1249.94 L1891.58 1224.34 L1865.98 1198.74 Z" fill="#e26f46" fill-rule="evenodd" fill-opacity="1" stroke="#000000" stroke-opacity="1" stroke-width="5.12"/>
<path clip-path="url(#clip020)" d="M1968.37 1237.68 L1984.69 1237.68 L1984.69 1241.62 L1962.74 1241.62 L1962.74 1237.68 Q1965.41 1234.93 1969.99 1230.3 Q1974.6 1225.64 1975.78 1224.3 Q1978.02 1221.78 1978.9 1220.04 Q1979.8 1218.28 1979.8 1216.59 Q1979.8 1213.84 1977.86 1212.1 Q1975.94 1210.37 1972.84 1210.37 Q1970.64 1210.37 1968.18 1211.13 Q1965.75 1211.89 1962.98 1213.45 L1962.98 1208.72 Q1965.8 1207.59 1968.25 1207.01 Q1970.71 1206.43 1972.74 1206.43 Q1978.12 1206.43 1981.31 1209.12 Q1984.5 1211.8 1984.5 1216.29 Q1984.5 1218.42 1983.69 1220.34 Q1982.91 1222.24 1980.8 1224.83 Q1980.22 1225.51 1977.12 1228.72 Q1974.02 1231.92 1968.37 1237.68 Z" fill="#000000" fill-rule="evenodd" fill-opacity="1" /><path clip-path="url(#clip020)" d="M2004.5 1210.13 Q2000.89 1210.13 1999.06 1213.7 Q1997.26 1217.24 1997.26 1224.37 Q1997.26 1231.48 1999.06 1235.04 Q2000.89 1238.58 2004.5 1238.58 Q2008.14 1238.58 2009.94 1235.04 Q2011.77 1231.48 2011.77 1224.37 Q2011.77 1217.24 2009.94 1213.7 Q2008.14 1210.13 2004.5 1210.13 M2004.5 1206.43 Q2010.31 1206.43 2013.37 1211.04 Q2016.45 1215.62 2016.45 1224.37 Q2016.45 1233.1 2013.37 1237.7 Q2010.31 1242.29 2004.5 1242.29 Q1998.69 1242.29 1995.61 1237.7 Q1992.56 1233.1 1992.56 1224.37 Q1992.56 1215.62 1995.61 1211.04 Q1998.69 1206.43 2004.5 1206.43 Z" fill="#000000" fill-rule="evenodd" fill-opacity="1" /><path clip-path="url(#clip020)" d="M2034.67 1210.13 Q2031.05 1210.13 2029.23 1213.7 Q2027.42 1217.24 2027.42 1224.37 Q2027.42 1231.48 2029.23 1235.04 Q2031.05 1238.58 2034.67 1238.58 Q2038.3 1238.58 2040.11 1235.04 Q2041.93 1231.48 2041.93 1224.37 Q2041.93 1217.24 2040.11 1213.7 Q2038.3 1210.13 2034.67 1210.13 M2034.67 1206.43 Q2040.48 1206.43 2043.53 1211.04 Q2046.61 1215.62 2046.61 1224.37 Q2046.61 1233.1 2043.53 1237.7 Q2040.48 1242.29 2034.67 1242.29 Q2028.86 1242.29 2025.78 1237.7 Q2022.72 1233.1 2022.72 1224.37 Q2022.72 1215.62 2025.78 1211.04 Q2028.86 1206.43 2034.67 1206.43 Z" fill="#000000" fill-rule="evenodd" fill-opacity="1" /><path clip-path="url(#clip020)" d="M2064.83 1225.2 Q2061.49 1225.2 2059.57 1226.99 Q2057.67 1228.77 2057.67 1231.89 Q2057.67 1235.02 2059.57 1236.8 Q2061.49 1238.58 2064.83 1238.58 Q2068.16 1238.58 2070.08 1236.8 Q2072 1235 2072 1231.89 Q2072 1228.77 2070.08 1226.99 Q2068.18 1225.2 2064.83 1225.2 M2060.15 1223.21 Q2057.14 1222.47 2055.45 1220.41 Q2053.79 1218.35 2053.79 1215.39 Q2053.79 1211.25 2056.73 1208.84 Q2059.69 1206.43 2064.83 1206.43 Q2069.99 1206.43 2072.93 1208.84 Q2075.87 1211.25 2075.87 1215.39 Q2075.87 1218.35 2074.18 1220.41 Q2072.51 1222.47 2069.53 1223.21 Q2072.91 1224 2074.78 1226.29 Q2076.68 1228.58 2076.68 1231.89 Q2076.68 1236.92 2073.6 1239.6 Q2070.55 1242.29 2064.83 1242.29 Q2059.11 1242.29 2056.03 1239.6 Q2052.98 1236.92 2052.98 1231.89 Q2052.98 1228.58 2054.87 1226.29 Q2056.77 1224 2060.15 1223.21 M2058.44 1215.83 Q2058.44 1218.51 2060.11 1220.02 Q2061.8 1221.52 2064.83 1221.52 Q2067.84 1221.52 2069.53 1220.02 Q2071.24 1218.51 2071.24 1215.83 Q2071.24 1213.14 2069.53 1211.64 Q2067.84 1210.13 2064.83 1210.13 Q2061.8 1210.13 2060.11 1211.64 Q2058.44 1213.14 2058.44 1215.83 Z" fill="#000000" fill-rule="evenodd" fill-opacity="1" /><path clip-path="url(#clip020)" d="M2082.23 1226.73 L2094.71 1226.73 L2094.71 1230.53 L2082.23 1230.53 L2082.23 1226.73 Z" fill="#000000" fill-rule="evenodd" fill-opacity="1" /><path clip-path="url(#clip020)" d="M2112.1 1210.13 Q2108.48 1210.13 2106.66 1213.7 Q2104.85 1217.24 2104.85 1224.37 Q2104.85 1231.48 2106.66 1235.04 Q2108.48 1238.58 2112.1 1238.58 Q2115.73 1238.58 2117.54 1235.04 Q2119.36 1231.48 2119.36 1224.37 Q2119.36 1217.24 2117.54 1213.7 Q2115.73 1210.13 2112.1 1210.13 M2112.1 1206.43 Q2117.91 1206.43 2120.96 1211.04 Q2124.04 1215.62 2124.04 1224.37 Q2124.04 1233.1 2120.96 1237.7 Q2117.91 1242.29 2112.1 1242.29 Q2106.29 1242.29 2103.21 1237.7 Q2100.15 1233.1 2100.15 1224.37 Q2100.15 1215.62 2103.21 1211.04 Q2106.29 1206.43 2112.1 1206.43 Z" fill="#000000" fill-rule="evenodd" fill-opacity="1" /><path clip-path="url(#clip020)" d="M2136.29 1237.68 L2152.6 1237.68 L2152.6 1241.62 L2130.66 1241.62 L2130.66 1237.68 Q2133.32 1234.93 2137.91 1230.3 Q2142.51 1225.64 2143.69 1224.3 Q2145.94 1221.78 2146.82 1220.04 Q2147.72 1218.28 2147.72 1216.59 Q2147.72 1213.84 2145.78 1212.1 Q2143.85 1210.37 2140.75 1210.37 Q2138.55 1210.37 2136.1 1211.13 Q2133.67 1211.89 2130.89 1213.45 L2130.89 1208.72 Q2133.72 1207.59 2136.17 1207.01 Q2138.62 1206.43 2140.66 1206.43 Q2146.03 1206.43 2149.23 1209.12 Q2152.42 1211.8 2152.42 1216.29 Q2152.42 1218.42 2151.61 1220.34 Q2150.82 1222.24 2148.72 1224.83 Q2148.14 1225.51 2145.04 1228.72 Q2141.93 1231.92 2136.29 1237.68 Z" fill="#000000" fill-rule="evenodd" fill-opacity="1" /><path clip-path="url(#clip020)" d="M2159.66 1226.73 L2172.14 1226.73 L2172.14 1230.53 L2159.66 1230.53 L2159.66 1226.73 Z" fill="#000000" fill-rule="evenodd" fill-opacity="1" /><path clip-path="url(#clip020)" d="M2183.55 1237.68 L2199.87 1237.68 L2199.87 1241.62 L2177.93 1241.62 L2177.93 1237.68 Q2180.59 1234.93 2185.17 1230.3 Q2189.78 1225.64 2190.96 1224.3 Q2193.21 1221.78 2194.09 1220.04 Q2194.99 1218.28 2194.99 1216.59 Q2194.99 1213.84 2193.04 1212.1 Q2191.12 1210.37 2188.02 1210.37 Q2185.82 1210.37 2183.37 1211.13 Q2180.94 1211.89 2178.16 1213.45 L2178.16 1208.72 Q2180.98 1207.59 2183.44 1207.01 Q2185.89 1206.43 2187.93 1206.43 Q2193.3 1206.43 2196.49 1209.12 Q2199.69 1211.8 2199.69 1216.29 Q2199.69 1218.42 2198.88 1220.34 Q2198.09 1222.24 2195.98 1224.83 Q2195.41 1225.51 2192.3 1228.72 Q2189.2 1231.92 2183.55 1237.68 Z" fill="#000000" fill-rule="evenodd" fill-opacity="1" /><path clip-path="url(#clip020)" d="M2220.27 1222.47 Q2217.12 1222.47 2215.27 1224.63 Q2213.44 1226.78 2213.44 1230.53 Q2213.44 1234.26 2215.27 1236.43 Q2217.12 1238.58 2220.27 1238.58 Q2223.41 1238.58 2225.24 1236.43 Q2227.1 1234.26 2227.1 1230.53 Q2227.1 1226.78 2225.24 1224.63 Q2223.41 1222.47 2220.27 1222.47 M2229.55 1207.82 L2229.55 1212.08 Q2227.79 1211.25 2225.98 1210.81 Q2224.2 1210.37 2222.44 1210.37 Q2217.81 1210.37 2215.36 1213.49 Q2212.93 1216.62 2212.58 1222.94 Q2213.95 1220.92 2216.01 1219.86 Q2218.07 1218.77 2220.54 1218.77 Q2225.75 1218.77 2228.76 1221.94 Q2231.79 1225.09 2231.79 1230.53 Q2231.79 1235.85 2228.65 1239.07 Q2225.5 1242.29 2220.27 1242.29 Q2214.27 1242.29 2211.1 1237.7 Q2207.93 1233.1 2207.93 1224.37 Q2207.93 1216.18 2211.82 1211.32 Q2215.71 1206.43 2222.26 1206.43 Q2224.02 1206.43 2225.8 1206.78 Q2227.6 1207.13 2229.55 1207.82 Z" fill="#000000" fill-rule="evenodd" fill-opacity="1" /><polyline clip-path="url(#clip020)" style="stroke:#3da44d; stroke-linecap:butt; stroke-linejoin:round; stroke-width:4; stroke-opacity:1; fill:none" points="
  1793.4,1276.18 1938.55,1276.18 
  "/>
<path clip-path="url(#clip020)" d="M1865.98 1250.58 L1840.38 1276.18 L1865.98 1301.78 L1891.58 1276.18 L1865.98 1250.58 Z" fill="#3da44d" fill-rule="evenodd" fill-opacity="1" stroke="#000000" stroke-opacity="1" stroke-width="5.12"/>
<path clip-path="url(#clip020)" d="M1968.37 1289.52 L1984.69 1289.52 L1984.69 1293.46 L1962.74 1293.46 L1962.74 1289.52 Q1965.41 1286.77 1969.99 1282.14 Q1974.6 1277.48 1975.78 1276.14 Q1978.02 1273.62 1978.9 1271.88 Q1979.8 1270.12 1979.8 1268.43 Q1979.8 1265.68 1977.86 1263.94 Q1975.94 1262.21 1972.84 1262.21 Q1970.64 1262.21 1968.18 1262.97 Q1965.75 1263.73 1962.98 1265.29 L1962.98 1260.56 Q1965.8 1259.43 1968.25 1258.85 Q1970.71 1258.27 1972.74 1258.27 Q1978.12 1258.27 1981.31 1260.96 Q1984.5 1263.64 1984.5 1268.13 Q1984.5 1270.26 1983.69 1272.18 Q1982.91 1274.08 1980.8 1276.67 Q1980.22 1277.35 1977.12 1280.56 Q1974.02 1283.76 1968.37 1289.52 Z" fill="#000000" fill-rule="evenodd" fill-opacity="1" /><path clip-path="url(#clip020)" d="M2004.5 1261.97 Q2000.89 1261.97 1999.06 1265.54 Q1997.26 1269.08 1997.26 1276.21 Q1997.26 1283.32 1999.06 1286.88 Q2000.89 1290.42 2004.5 1290.42 Q2008.14 1290.42 2009.94 1286.88 Q2011.77 1283.32 2011.77 1276.21 Q2011.77 1269.08 2009.94 1265.54 Q2008.14 1261.97 2004.5 1261.97 M2004.5 1258.27 Q2010.31 1258.27 2013.37 1262.88 Q2016.45 1267.46 2016.45 1276.21 Q2016.45 1284.94 2013.37 1289.54 Q2010.31 1294.13 2004.5 1294.13 Q1998.69 1294.13 1995.61 1289.54 Q1992.56 1284.94 1992.56 1276.21 Q1992.56 1267.46 1995.61 1262.88 Q1998.69 1258.27 2004.5 1258.27 Z" fill="#000000" fill-rule="evenodd" fill-opacity="1" /><path clip-path="url(#clip020)" d="M2034.67 1261.97 Q2031.05 1261.97 2029.23 1265.54 Q2027.42 1269.08 2027.42 1276.21 Q2027.42 1283.32 2029.23 1286.88 Q2031.05 1290.42 2034.67 1290.42 Q2038.3 1290.42 2040.11 1286.88 Q2041.93 1283.32 2041.93 1276.21 Q2041.93 1269.08 2040.11 1265.54 Q2038.3 1261.97 2034.67 1261.97 M2034.67 1258.27 Q2040.48 1258.27 2043.53 1262.88 Q2046.61 1267.46 2046.61 1276.21 Q2046.61 1284.94 2043.53 1289.54 Q2040.48 1294.13 2034.67 1294.13 Q2028.86 1294.13 2025.78 1289.54 Q2022.72 1284.94 2022.72 1276.21 Q2022.72 1267.46 2025.78 1262.88 Q2028.86 1258.27 2034.67 1258.27 Z" fill="#000000" fill-rule="evenodd" fill-opacity="1" /><path clip-path="url(#clip020)" d="M2054.97 1292.74 L2054.97 1288.48 Q2056.73 1289.31 2058.53 1289.75 Q2060.34 1290.19 2062.07 1290.19 Q2066.7 1290.19 2069.13 1287.09 Q2071.59 1283.97 2071.93 1277.62 Q2070.59 1279.61 2068.53 1280.68 Q2066.47 1281.74 2063.97 1281.74 Q2058.79 1281.74 2055.75 1278.62 Q2052.74 1275.47 2052.74 1270.03 Q2052.74 1264.71 2055.89 1261.49 Q2059.04 1258.27 2064.27 1258.27 Q2070.27 1258.27 2073.42 1262.88 Q2076.59 1267.46 2076.59 1276.21 Q2076.59 1284.38 2072.7 1289.27 Q2068.83 1294.13 2062.28 1294.13 Q2060.52 1294.13 2058.72 1293.78 Q2056.91 1293.43 2054.97 1292.74 M2064.27 1278.09 Q2067.42 1278.09 2069.25 1275.93 Q2071.1 1273.78 2071.1 1270.03 Q2071.1 1266.3 2069.25 1264.15 Q2067.42 1261.97 2064.27 1261.97 Q2061.12 1261.97 2059.27 1264.15 Q2057.44 1266.3 2057.44 1270.03 Q2057.44 1273.78 2059.27 1275.93 Q2061.12 1278.09 2064.27 1278.09 Z" fill="#000000" fill-rule="evenodd" fill-opacity="1" /><path clip-path="url(#clip020)" d="M2082.23 1278.57 L2094.71 1278.57 L2094.71 1282.37 L2082.23 1282.37 L2082.23 1278.57 Z" fill="#000000" fill-rule="evenodd" fill-opacity="1" /><path clip-path="url(#clip020)" d="M2112.1 1261.97 Q2108.48 1261.97 2106.66 1265.54 Q2104.85 1269.08 2104.85 1276.21 Q2104.85 1283.32 2106.66 1286.88 Q2108.48 1290.42 2112.1 1290.42 Q2115.73 1290.42 2117.54 1286.88 Q2119.36 1283.32 2119.36 1276.21 Q2119.36 1269.08 2117.54 1265.54 Q2115.73 1261.97 2112.1 1261.97 M2112.1 1258.27 Q2117.91 1258.27 2120.96 1262.88 Q2124.04 1267.46 2124.04 1276.21 Q2124.04 1284.94 2120.96 1289.54 Q2117.91 1294.13 2112.1 1294.13 Q2106.29 1294.13 2103.21 1289.54 Q2100.15 1284.94 2100.15 1276.21 Q2100.15 1267.46 2103.21 1262.88 Q2106.29 1258.27 2112.1 1258.27 Z" fill="#000000" fill-rule="evenodd" fill-opacity="1" /><path clip-path="url(#clip020)" d="M2136.29 1289.52 L2152.6 1289.52 L2152.6 1293.46 L2130.66 1293.46 L2130.66 1289.52 Q2133.32 1286.77 2137.91 1282.14 Q2142.51 1277.48 2143.69 1276.14 Q2145.94 1273.62 2146.82 1271.88 Q2147.72 1270.12 2147.72 1268.43 Q2147.72 1265.68 2145.78 1263.94 Q2143.85 1262.21 2140.75 1262.21 Q2138.55 1262.21 2136.1 1262.97 Q2133.67 1263.73 2130.89 1265.29 L2130.89 1260.56 Q2133.72 1259.43 2136.17 1258.85 Q2138.62 1258.27 2140.66 1258.27 Q2146.03 1258.27 2149.23 1260.96 Q2152.42 1263.64 2152.42 1268.13 Q2152.42 1270.26 2151.61 1272.18 Q2150.82 1274.08 2148.72 1276.67 Q2148.14 1277.35 2145.04 1280.56 Q2141.93 1283.76 2136.29 1289.52 Z" fill="#000000" fill-rule="evenodd" fill-opacity="1" /><path clip-path="url(#clip020)" d="M2159.66 1278.57 L2172.14 1278.57 L2172.14 1282.37 L2159.66 1282.37 L2159.66 1278.57 Z" fill="#000000" fill-rule="evenodd" fill-opacity="1" /><path clip-path="url(#clip020)" d="M2183.55 1289.52 L2199.87 1289.52 L2199.87 1293.46 L2177.93 1293.46 L2177.93 1289.52 Q2180.59 1286.77 2185.17 1282.14 Q2189.78 1277.48 2190.96 1276.14 Q2193.21 1273.62 2194.09 1271.88 Q2194.99 1270.12 2194.99 1268.43 Q2194.99 1265.68 2193.04 1263.94 Q2191.12 1262.21 2188.02 1262.21 Q2185.82 1262.21 2183.37 1262.97 Q2180.94 1263.73 2178.16 1265.29 L2178.16 1260.56 Q2180.98 1259.43 2183.44 1258.85 Q2185.89 1258.27 2187.93 1258.27 Q2193.3 1258.27 2196.49 1260.96 Q2199.69 1263.64 2199.69 1268.13 Q2199.69 1270.26 2198.88 1272.18 Q2198.09 1274.08 2195.98 1276.67 Q2195.41 1277.35 2192.3 1280.56 Q2189.2 1283.76 2183.55 1289.52 Z" fill="#000000" fill-rule="evenodd" fill-opacity="1" /><path clip-path="url(#clip020)" d="M2220.27 1274.31 Q2217.12 1274.31 2215.27 1276.47 Q2213.44 1278.62 2213.44 1282.37 Q2213.44 1286.1 2215.27 1288.27 Q2217.12 1290.42 2220.27 1290.42 Q2223.41 1290.42 2225.24 1288.27 Q2227.1 1286.1 2227.1 1282.37 Q2227.1 1278.62 2225.24 1276.47 Q2223.41 1274.31 2220.27 1274.31 M2229.55 1259.66 L2229.55 1263.92 Q2227.79 1263.09 2225.98 1262.65 Q2224.2 1262.21 2222.44 1262.21 Q2217.81 1262.21 2215.36 1265.33 Q2212.93 1268.46 2212.58 1274.78 Q2213.95 1272.76 2216.01 1271.7 Q2218.07 1270.61 2220.54 1270.61 Q2225.75 1270.61 2228.76 1273.78 Q2231.79 1276.93 2231.79 1282.37 Q2231.79 1287.69 2228.65 1290.91 Q2225.5 1294.13 2220.27 1294.13 Q2214.27 1294.13 2211.1 1289.54 Q2207.93 1284.94 2207.93 1276.21 Q2207.93 1268.02 2211.82 1263.16 Q2215.71 1258.27 2222.26 1258.27 Q2224.02 1258.27 2225.8 1258.62 Q2227.6 1258.97 2229.55 1259.66 Z" fill="#000000" fill-rule="evenodd" fill-opacity="1" /><polyline clip-path="url(#clip020)" style="stroke:#c271d2; stroke-linecap:butt; stroke-linejoin:round; stroke-width:4; stroke-opacity:1; fill:none" points="
  1793.4,1328.02 1938.55,1328.02 
  "/>
<path clip-path="url(#clip020)" d="M1865.98 1302.42 L1840.38 1328.02 L1865.98 1353.62 L1891.58 1328.02 L1865.98 1302.42 Z" fill="#c271d2" fill-rule="evenodd" fill-opacity="1" stroke="#000000" stroke-opacity="1" stroke-width="5.12"/>
<path clip-path="url(#clip020)" d="M1968.37 1341.36 L1984.69 1341.36 L1984.69 1345.3 L1962.74 1345.3 L1962.74 1341.36 Q1965.41 1338.61 1969.99 1333.98 Q1974.6 1329.32 1975.78 1327.98 Q1978.02 1325.46 1978.9 1323.72 Q1979.8 1321.96 1979.8 1320.27 Q1979.8 1317.52 1977.86 1315.78 Q1975.94 1314.05 1972.84 1314.05 Q1970.64 1314.05 1968.18 1314.81 Q1965.75 1315.57 1962.98 1317.13 L1962.98 1312.4 Q1965.8 1311.27 1968.25 1310.69 Q1970.71 1310.11 1972.74 1310.11 Q1978.12 1310.11 1981.31 1312.8 Q1984.5 1315.48 1984.5 1319.97 Q1984.5 1322.1 1983.69 1324.02 Q1982.91 1325.92 1980.8 1328.51 Q1980.22 1329.19 1977.12 1332.4 Q1974.02 1335.6 1968.37 1341.36 Z" fill="#000000" fill-rule="evenodd" fill-opacity="1" /><path clip-path="url(#clip020)" d="M2004.5 1313.81 Q2000.89 1313.81 1999.06 1317.38 Q1997.26 1320.92 1997.26 1328.05 Q1997.26 1335.16 1999.06 1338.72 Q2000.89 1342.26 2004.5 1342.26 Q2008.14 1342.26 2009.94 1338.72 Q2011.77 1335.16 2011.77 1328.05 Q2011.77 1320.92 2009.94 1317.38 Q2008.14 1313.81 2004.5 1313.81 M2004.5 1310.11 Q2010.31 1310.11 2013.37 1314.72 Q2016.45 1319.3 2016.45 1328.05 Q2016.45 1336.78 2013.37 1341.38 Q2010.31 1345.97 2004.5 1345.97 Q1998.69 1345.97 1995.61 1341.38 Q1992.56 1336.78 1992.56 1328.05 Q1992.56 1319.3 1995.61 1314.72 Q1998.69 1310.11 2004.5 1310.11 Z" fill="#000000" fill-rule="evenodd" fill-opacity="1" /><path clip-path="url(#clip020)" d="M2025.48 1341.36 L2033.11 1341.36 L2033.11 1315 L2024.8 1316.66 L2024.8 1312.4 L2033.07 1310.74 L2037.74 1310.74 L2037.74 1341.36 L2045.38 1341.36 L2045.38 1345.3 L2025.48 1345.3 L2025.48 1341.36 Z" fill="#000000" fill-rule="evenodd" fill-opacity="1" /><path clip-path="url(#clip020)" d="M2064.83 1313.81 Q2061.22 1313.81 2059.39 1317.38 Q2057.58 1320.92 2057.58 1328.05 Q2057.58 1335.16 2059.39 1338.72 Q2061.22 1342.26 2064.83 1342.26 Q2068.46 1342.26 2070.27 1338.72 Q2072.1 1335.16 2072.1 1328.05 Q2072.1 1320.92 2070.27 1317.38 Q2068.46 1313.81 2064.83 1313.81 M2064.83 1310.11 Q2070.64 1310.11 2073.69 1314.72 Q2076.77 1319.3 2076.77 1328.05 Q2076.77 1336.78 2073.69 1341.38 Q2070.64 1345.97 2064.83 1345.97 Q2059.02 1345.97 2055.94 1341.38 Q2052.88 1336.78 2052.88 1328.05 Q2052.88 1319.3 2055.94 1314.72 Q2059.02 1310.11 2064.83 1310.11 Z" fill="#000000" fill-rule="evenodd" fill-opacity="1" /><path clip-path="url(#clip020)" d="M2082.23 1330.41 L2094.71 1330.41 L2094.71 1334.21 L2082.23 1334.21 L2082.23 1330.41 Z" fill="#000000" fill-rule="evenodd" fill-opacity="1" /><path clip-path="url(#clip020)" d="M2112.1 1313.81 Q2108.48 1313.81 2106.66 1317.38 Q2104.85 1320.92 2104.85 1328.05 Q2104.85 1335.16 2106.66 1338.72 Q2108.48 1342.26 2112.1 1342.26 Q2115.73 1342.26 2117.54 1338.72 Q2119.36 1335.16 2119.36 1328.05 Q2119.36 1320.92 2117.54 1317.38 Q2115.73 1313.81 2112.1 1313.81 M2112.1 1310.11 Q2117.91 1310.11 2120.96 1314.72 Q2124.04 1319.3 2124.04 1328.05 Q2124.04 1336.78 2120.96 1341.38 Q2117.91 1345.97 2112.1 1345.97 Q2106.29 1345.97 2103.21 1341.38 Q2100.15 1336.78 2100.15 1328.05 Q2100.15 1319.3 2103.21 1314.72 Q2106.29 1310.11 2112.1 1310.11 Z" fill="#000000" fill-rule="evenodd" fill-opacity="1" /><path clip-path="url(#clip020)" d="M2136.29 1341.36 L2152.6 1341.36 L2152.6 1345.3 L2130.66 1345.3 L2130.66 1341.36 Q2133.32 1338.61 2137.91 1333.98 Q2142.51 1329.32 2143.69 1327.98 Q2145.94 1325.46 2146.82 1323.72 Q2147.72 1321.96 2147.72 1320.27 Q2147.72 1317.52 2145.78 1315.78 Q2143.85 1314.05 2140.75 1314.05 Q2138.55 1314.05 2136.1 1314.81 Q2133.67 1315.57 2130.89 1317.13 L2130.89 1312.4 Q2133.72 1311.27 2136.17 1310.69 Q2138.62 1310.11 2140.66 1310.11 Q2146.03 1310.11 2149.23 1312.8 Q2152.42 1315.48 2152.42 1319.97 Q2152.42 1322.1 2151.61 1324.02 Q2150.82 1325.92 2148.72 1328.51 Q2148.14 1329.19 2145.04 1332.4 Q2141.93 1335.6 2136.29 1341.36 Z" fill="#000000" fill-rule="evenodd" fill-opacity="1" /><path clip-path="url(#clip020)" d="M2159.66 1330.41 L2172.14 1330.41 L2172.14 1334.21 L2159.66 1334.21 L2159.66 1330.41 Z" fill="#000000" fill-rule="evenodd" fill-opacity="1" /><path clip-path="url(#clip020)" d="M2183.55 1341.36 L2199.87 1341.36 L2199.87 1345.3 L2177.93 1345.3 L2177.93 1341.36 Q2180.59 1338.61 2185.17 1333.98 Q2189.78 1329.32 2190.96 1327.98 Q2193.21 1325.46 2194.09 1323.72 Q2194.99 1321.96 2194.99 1320.27 Q2194.99 1317.52 2193.04 1315.78 Q2191.12 1314.05 2188.02 1314.05 Q2185.82 1314.05 2183.37 1314.81 Q2180.94 1315.57 2178.16 1317.13 L2178.16 1312.4 Q2180.98 1311.27 2183.44 1310.69 Q2185.89 1310.11 2187.93 1310.11 Q2193.3 1310.11 2196.49 1312.8 Q2199.69 1315.48 2199.69 1319.97 Q2199.69 1322.1 2198.88 1324.02 Q2198.09 1325.92 2195.98 1328.51 Q2195.41 1329.19 2192.3 1332.4 Q2189.2 1335.6 2183.55 1341.36 Z" fill="#000000" fill-rule="evenodd" fill-opacity="1" /><path clip-path="url(#clip020)" d="M2220.27 1326.15 Q2217.12 1326.15 2215.27 1328.31 Q2213.44 1330.46 2213.44 1334.21 Q2213.44 1337.94 2215.27 1340.11 Q2217.12 1342.26 2220.27 1342.26 Q2223.41 1342.26 2225.24 1340.11 Q2227.1 1337.94 2227.1 1334.21 Q2227.1 1330.46 2225.24 1328.31 Q2223.41 1326.15 2220.27 1326.15 M2229.55 1311.5 L2229.55 1315.76 Q2227.79 1314.93 2225.98 1314.49 Q2224.2 1314.05 2222.44 1314.05 Q2217.81 1314.05 2215.36 1317.17 Q2212.93 1320.3 2212.58 1326.62 Q2213.95 1324.6 2216.01 1323.54 Q2218.07 1322.45 2220.54 1322.45 Q2225.75 1322.45 2228.76 1325.62 Q2231.79 1328.77 2231.79 1334.21 Q2231.79 1339.53 2228.65 1342.75 Q2225.5 1345.97 2220.27 1345.97 Q2214.27 1345.97 2211.1 1341.38 Q2207.93 1336.78 2207.93 1328.05 Q2207.93 1319.86 2211.82 1315 Q2215.71 1310.11 2222.26 1310.11 Q2224.02 1310.11 2225.8 1310.46 Q2227.6 1310.81 2229.55 1311.5 Z" fill="#000000" fill-rule="evenodd" fill-opacity="1" /></svg>
