<?xml version="1.0" encoding="utf-8"?>
<svg xmlns="http://www.w3.org/2000/svg" xmlns:xlink="http://www.w3.org/1999/xlink" width="600" height="400" viewBox="0 0 2400 1600">
<defs>
  <clipPath id="clip940">
    <rect x="0" y="0" width="2400" height="1600"/>
  </clipPath>
</defs>
<path clip-path="url(#clip940)" d="
M0 1600 L2400 1600 L2400 0 L0 0  Z
  " fill="#ffffff" fill-rule="evenodd" fill-opacity="1"/>
<defs>
  <clipPath id="clip941">
    <rect x="480" y="0" width="1681" height="1600"/>
  </clipPath>
</defs>
<path clip-path="url(#clip940)" d="
M277.431 1486.45 L2352.76 1486.45 L2352.76 47.2441 L277.431 47.2441  Z
  " fill="#ffffff" fill-rule="evenodd" fill-opacity="1"/>
<defs>
  <clipPath id="clip942">
    <rect x="277" y="47" width="2076" height="1440"/>
  </clipPath>
</defs>
<polyline clip-path="url(#clip942)" style="stroke:#000000; stroke-linecap:butt; stroke-linejoin:round; stroke-width:2; stroke-opacity:0.1; fill:none" points="
  283.464,1486.45 283.464,47.2441 
  "/>
<polyline clip-path="url(#clip942)" style="stroke:#000000; stroke-linecap:butt; stroke-linejoin:round; stroke-width:2; stroke-opacity:0.1; fill:none" points="
  810.848,1486.45 810.848,47.2441 
  "/>
<polyline clip-path="url(#clip942)" style="stroke:#000000; stroke-linecap:butt; stroke-linejoin:round; stroke-width:2; stroke-opacity:0.1; fill:none" points="
  1338.23,1486.45 1338.23,47.2441 
  "/>
<polyline clip-path="url(#clip942)" style="stroke:#000000; stroke-linecap:butt; stroke-linejoin:round; stroke-width:2; stroke-opacity:0.1; fill:none" points="
  1865.62,1486.45 1865.62,47.2441 
  "/>
<polyline clip-path="url(#clip940)" style="stroke:#000000; stroke-linecap:butt; stroke-linejoin:round; stroke-width:4; stroke-opacity:1; fill:none" points="
  277.431,1486.45 2352.76,1486.45 
  "/>
<polyline clip-path="url(#clip940)" style="stroke:#000000; stroke-linecap:butt; stroke-linejoin:round; stroke-width:4; stroke-opacity:1; fill:none" points="
  283.464,1486.45 283.464,1467.55 
  "/>
<polyline clip-path="url(#clip940)" style="stroke:#000000; stroke-linecap:butt; stroke-linejoin:round; stroke-width:4; stroke-opacity:1; fill:none" points="
  810.848,1486.45 810.848,1467.55 
  "/>
<polyline clip-path="url(#clip940)" style="stroke:#000000; stroke-linecap:butt; stroke-linejoin:round; stroke-width:4; stroke-opacity:1; fill:none" points="
  1338.23,1486.45 1338.23,1467.55 
  "/>
<polyline clip-path="url(#clip940)" style="stroke:#000000; stroke-linecap:butt; stroke-linejoin:round; stroke-width:4; stroke-opacity:1; fill:none" points="
  1865.62,1486.45 1865.62,1467.55 
  "/>
<path clip-path="url(#clip940)" d="M151.173 1543.18 L158.812 1543.18 L158.812 1516.82 L150.502 1518.49 L150.502 1514.23 L158.766 1512.56 L163.442 1512.56 L163.442 1543.18 L171.081 1543.18 L171.081 1547.12 L151.173 1547.12 L151.173 1543.18 Z" fill="#000000" fill-rule="evenodd" fill-opacity="1" /><path clip-path="url(#clip940)" d="M180.664 1546.4 L180.664 1542.14 Q182.423 1542.98 184.229 1543.42 Q186.034 1543.86 187.77 1543.86 Q192.4 1543.86 194.83 1540.75 Q197.284 1537.63 197.631 1531.29 Q196.289 1533.28 194.229 1534.34 Q192.168 1535.41 189.668 1535.41 Q184.483 1535.41 181.451 1532.28 Q178.442 1529.13 178.442 1523.69 Q178.442 1518.37 181.59 1515.15 Q184.738 1511.93 189.969 1511.93 Q195.965 1511.93 199.113 1516.54 Q202.284 1521.12 202.284 1529.87 Q202.284 1538.05 198.395 1542.93 Q194.53 1547.79 187.979 1547.79 Q186.219 1547.79 184.414 1547.44 Q182.608 1547.1 180.664 1546.4 M189.969 1531.75 Q193.118 1531.75 194.946 1529.6 Q196.798 1527.44 196.798 1523.69 Q196.798 1519.97 194.946 1517.81 Q193.118 1515.64 189.969 1515.64 Q186.821 1515.64 184.969 1517.81 Q183.141 1519.97 183.141 1523.69 Q183.141 1527.44 184.969 1529.6 Q186.821 1531.75 189.969 1531.75 Z" fill="#000000" fill-rule="evenodd" fill-opacity="1" /><path clip-path="url(#clip940)" d="M223.534 1516.63 L211.729 1535.08 L223.534 1535.08 L223.534 1516.63 M222.307 1512.56 L228.187 1512.56 L228.187 1535.08 L233.117 1535.08 L233.117 1538.97 L228.187 1538.97 L228.187 1547.12 L223.534 1547.12 L223.534 1538.97 L207.932 1538.97 L207.932 1534.46 L222.307 1512.56 Z" fill="#000000" fill-rule="evenodd" fill-opacity="1" /><path clip-path="url(#clip940)" d="M240.895 1512.56 L259.251 1512.56 L259.251 1516.5 L245.177 1516.5 L245.177 1524.97 Q246.196 1524.62 247.214 1524.46 Q248.233 1524.27 249.251 1524.27 Q255.038 1524.27 258.418 1527.44 Q261.798 1530.62 261.798 1536.03 Q261.798 1541.61 258.325 1544.71 Q254.853 1547.79 248.534 1547.79 Q246.358 1547.79 244.089 1547.42 Q241.844 1547.05 239.437 1546.31 L239.437 1541.61 Q241.52 1542.74 243.742 1543.3 Q245.964 1543.86 248.441 1543.86 Q252.446 1543.86 254.784 1541.75 Q257.122 1539.64 257.122 1536.03 Q257.122 1532.42 254.784 1530.31 Q252.446 1528.21 248.441 1528.21 Q246.566 1528.21 244.691 1528.62 Q242.839 1529.04 240.895 1529.92 L240.895 1512.56 Z" fill="#000000" fill-rule="evenodd" fill-opacity="1" /><path clip-path="url(#clip940)" d="M268.256 1532.24 L280.733 1532.24 L280.733 1536.03 L268.256 1536.03 L268.256 1532.24 Z" fill="#000000" fill-rule="evenodd" fill-opacity="1" /><path clip-path="url(#clip940)" d="M298.117 1515.64 Q294.506 1515.64 292.677 1519.2 Q290.872 1522.75 290.872 1529.87 Q290.872 1536.98 292.677 1540.55 Q294.506 1544.09 298.117 1544.09 Q301.751 1544.09 303.557 1540.55 Q305.385 1536.98 305.385 1529.87 Q305.385 1522.75 303.557 1519.2 Q301.751 1515.64 298.117 1515.64 M298.117 1511.93 Q303.927 1511.93 306.983 1516.54 Q310.061 1521.12 310.061 1529.87 Q310.061 1538.6 306.983 1543.21 Q303.927 1547.79 298.117 1547.79 Q292.307 1547.79 289.228 1543.21 Q286.173 1538.6 286.173 1529.87 Q286.173 1521.12 289.228 1516.54 Q292.307 1511.93 298.117 1511.93 Z" fill="#000000" fill-rule="evenodd" fill-opacity="1" /><path clip-path="url(#clip940)" d="M319.089 1543.18 L326.728 1543.18 L326.728 1516.82 L318.418 1518.49 L318.418 1514.23 L326.682 1512.56 L331.358 1512.56 L331.358 1543.18 L338.996 1543.18 L338.996 1547.12 L319.089 1547.12 L319.089 1543.18 Z" fill="#000000" fill-rule="evenodd" fill-opacity="1" /><path clip-path="url(#clip940)" d="M345.686 1532.24 L358.163 1532.24 L358.163 1536.03 L345.686 1536.03 L345.686 1532.24 Z" fill="#000000" fill-rule="evenodd" fill-opacity="1" /><path clip-path="url(#clip940)" d="M375.547 1515.64 Q371.936 1515.64 370.107 1519.2 Q368.302 1522.75 368.302 1529.87 Q368.302 1536.98 370.107 1540.55 Q371.936 1544.09 375.547 1544.09 Q379.181 1544.09 380.987 1540.55 Q382.816 1536.98 382.816 1529.87 Q382.816 1522.75 380.987 1519.2 Q379.181 1515.64 375.547 1515.64 M375.547 1511.93 Q381.357 1511.93 384.413 1516.54 Q387.491 1521.12 387.491 1529.87 Q387.491 1538.6 384.413 1543.21 Q381.357 1547.79 375.547 1547.79 Q369.737 1547.79 366.658 1543.21 Q363.603 1538.6 363.603 1529.87 Q363.603 1521.12 366.658 1516.54 Q369.737 1511.93 375.547 1511.93 Z" fill="#000000" fill-rule="evenodd" fill-opacity="1" /><path clip-path="url(#clip940)" d="M396.519 1543.18 L404.158 1543.18 L404.158 1516.82 L395.848 1518.49 L395.848 1514.23 L404.112 1512.56 L408.788 1512.56 L408.788 1543.18 L416.426 1543.18 L416.426 1547.12 L396.519 1547.12 L396.519 1543.18 Z" fill="#000000" fill-rule="evenodd" fill-opacity="1" /><path clip-path="url(#clip940)" d="M678.557 1543.18 L686.196 1543.18 L686.196 1516.82 L677.886 1518.49 L677.886 1514.23 L686.15 1512.56 L690.826 1512.56 L690.826 1543.18 L698.464 1543.18 L698.464 1547.12 L678.557 1547.12 L678.557 1543.18 Z" fill="#000000" fill-rule="evenodd" fill-opacity="1" /><path clip-path="url(#clip940)" d="M708.048 1546.4 L708.048 1542.14 Q709.807 1542.98 711.612 1543.42 Q713.418 1543.86 715.154 1543.86 Q719.784 1543.86 722.214 1540.75 Q724.668 1537.63 725.015 1531.29 Q723.673 1533.28 721.612 1534.34 Q719.552 1535.41 717.052 1535.41 Q711.867 1535.41 708.835 1532.28 Q705.825 1529.13 705.825 1523.69 Q705.825 1518.37 708.974 1515.15 Q712.122 1511.93 717.353 1511.93 Q723.349 1511.93 726.497 1516.54 Q729.668 1521.12 729.668 1529.87 Q729.668 1538.05 725.779 1542.93 Q721.913 1547.79 715.362 1547.79 Q713.603 1547.79 711.798 1547.44 Q709.992 1547.1 708.048 1546.4 M717.353 1531.75 Q720.501 1531.75 722.33 1529.6 Q724.182 1527.44 724.182 1523.69 Q724.182 1519.97 722.33 1517.81 Q720.501 1515.64 717.353 1515.64 Q714.205 1515.64 712.353 1517.81 Q710.525 1519.97 710.525 1523.69 Q710.525 1527.44 712.353 1529.6 Q714.205 1531.75 717.353 1531.75 Z" fill="#000000" fill-rule="evenodd" fill-opacity="1" /><path clip-path="url(#clip940)" d="M748.649 1527.98 Q745.501 1527.98 743.649 1530.13 Q741.821 1532.28 741.821 1536.03 Q741.821 1539.76 743.649 1541.93 Q745.501 1544.09 748.649 1544.09 Q751.797 1544.09 753.626 1541.93 Q755.478 1539.76 755.478 1536.03 Q755.478 1532.28 753.626 1530.13 Q751.797 1527.98 748.649 1527.98 M757.932 1513.32 L757.932 1517.58 Q756.172 1516.75 754.367 1516.31 Q752.584 1515.87 750.825 1515.87 Q746.196 1515.87 743.742 1519 Q741.311 1522.12 740.964 1528.44 Q742.33 1526.43 744.39 1525.36 Q746.45 1524.27 748.927 1524.27 Q754.135 1524.27 757.145 1527.44 Q760.177 1530.59 760.177 1536.03 Q760.177 1541.36 757.029 1544.57 Q753.881 1547.79 748.649 1547.79 Q742.654 1547.79 739.483 1543.21 Q736.311 1538.6 736.311 1529.87 Q736.311 1521.68 740.2 1516.82 Q744.089 1511.93 750.64 1511.93 Q752.399 1511.93 754.182 1512.28 Q755.987 1512.63 757.932 1513.32 Z" fill="#000000" fill-rule="evenodd" fill-opacity="1" /><path clip-path="url(#clip940)" d="M768.279 1512.56 L786.635 1512.56 L786.635 1516.5 L772.561 1516.5 L772.561 1524.97 Q773.58 1524.62 774.598 1524.46 Q775.617 1524.27 776.635 1524.27 Q782.422 1524.27 785.802 1527.44 Q789.182 1530.62 789.182 1536.03 Q789.182 1541.61 785.709 1544.71 Q782.237 1547.79 775.918 1547.79 Q773.742 1547.79 771.473 1547.42 Q769.228 1547.05 766.821 1546.31 L766.821 1541.61 Q768.904 1542.74 771.126 1543.3 Q773.348 1543.86 775.825 1543.86 Q779.83 1543.86 782.168 1541.75 Q784.506 1539.64 784.506 1536.03 Q784.506 1532.42 782.168 1530.31 Q779.83 1528.21 775.825 1528.21 Q773.95 1528.21 772.075 1528.62 Q770.223 1529.04 768.279 1529.92 L768.279 1512.56 Z" fill="#000000" fill-rule="evenodd" fill-opacity="1" /><path clip-path="url(#clip940)" d="M795.64 1532.24 L808.117 1532.24 L808.117 1536.03 L795.64 1536.03 L795.64 1532.24 Z" fill="#000000" fill-rule="evenodd" fill-opacity="1" /><path clip-path="url(#clip940)" d="M825.501 1515.64 Q821.89 1515.64 820.061 1519.2 Q818.255 1522.75 818.255 1529.87 Q818.255 1536.98 820.061 1540.55 Q821.89 1544.09 825.501 1544.09 Q829.135 1544.09 830.941 1540.55 Q832.769 1536.98 832.769 1529.87 Q832.769 1522.75 830.941 1519.2 Q829.135 1515.64 825.501 1515.64 M825.501 1511.93 Q831.311 1511.93 834.366 1516.54 Q837.445 1521.12 837.445 1529.87 Q837.445 1538.6 834.366 1543.21 Q831.311 1547.79 825.501 1547.79 Q819.691 1547.79 816.612 1543.21 Q813.556 1538.6 813.556 1529.87 Q813.556 1521.12 816.612 1516.54 Q819.691 1511.93 825.501 1511.93 Z" fill="#000000" fill-rule="evenodd" fill-opacity="1" /><path clip-path="url(#clip940)" d="M846.473 1543.18 L854.112 1543.18 L854.112 1516.82 L845.802 1518.49 L845.802 1514.23 L854.065 1512.56 L858.741 1512.56 L858.741 1543.18 L866.38 1543.18 L866.38 1547.12 L846.473 1547.12 L846.473 1543.18 Z" fill="#000000" fill-rule="evenodd" fill-opacity="1" /><path clip-path="url(#clip940)" d="M873.07 1532.24 L885.547 1532.24 L885.547 1536.03 L873.07 1536.03 L873.07 1532.24 Z" fill="#000000" fill-rule="evenodd" fill-opacity="1" /><path clip-path="url(#clip940)" d="M902.931 1515.64 Q899.32 1515.64 897.491 1519.2 Q895.686 1522.75 895.686 1529.87 Q895.686 1536.98 897.491 1540.55 Q899.32 1544.09 902.931 1544.09 Q906.565 1544.09 908.371 1540.55 Q910.199 1536.98 910.199 1529.87 Q910.199 1522.75 908.371 1519.2 Q906.565 1515.64 902.931 1515.64 M902.931 1511.93 Q908.741 1511.93 911.797 1516.54 Q914.875 1521.12 914.875 1529.87 Q914.875 1538.6 911.797 1543.21 Q908.741 1547.79 902.931 1547.79 Q897.121 1547.79 894.042 1543.21 Q890.987 1538.6 890.987 1529.87 Q890.987 1521.12 894.042 1516.54 Q897.121 1511.93 902.931 1511.93 Z" fill="#000000" fill-rule="evenodd" fill-opacity="1" /><path clip-path="url(#clip940)" d="M923.903 1543.18 L931.542 1543.18 L931.542 1516.82 L923.232 1518.49 L923.232 1514.23 L931.496 1512.56 L936.171 1512.56 L936.171 1543.18 L943.81 1543.18 L943.81 1547.12 L923.903 1547.12 L923.903 1543.18 Z" fill="#000000" fill-rule="evenodd" fill-opacity="1" /><path clip-path="url(#clip940)" d="M1205.94 1543.18 L1213.58 1543.18 L1213.58 1516.82 L1205.27 1518.49 L1205.27 1514.23 L1213.53 1512.56 L1218.21 1512.56 L1218.21 1543.18 L1225.85 1543.18 L1225.85 1547.12 L1205.94 1547.12 L1205.94 1543.18 Z" fill="#000000" fill-rule="evenodd" fill-opacity="1" /><path clip-path="url(#clip940)" d="M1235.43 1546.4 L1235.43 1542.14 Q1237.19 1542.98 1239 1543.42 Q1240.8 1543.86 1242.54 1543.86 Q1247.17 1543.86 1249.6 1540.75 Q1252.05 1537.63 1252.4 1531.29 Q1251.06 1533.28 1249 1534.34 Q1246.94 1535.41 1244.44 1535.41 Q1239.25 1535.41 1236.22 1532.28 Q1233.21 1529.13 1233.21 1523.69 Q1233.21 1518.37 1236.36 1515.15 Q1239.51 1511.93 1244.74 1511.93 Q1250.73 1511.93 1253.88 1516.54 Q1257.05 1521.12 1257.05 1529.87 Q1257.05 1538.05 1253.16 1542.93 Q1249.3 1547.79 1242.75 1547.79 Q1240.99 1547.79 1239.18 1547.44 Q1237.38 1547.1 1235.43 1546.4 M1244.74 1531.75 Q1247.89 1531.75 1249.71 1529.6 Q1251.57 1527.44 1251.57 1523.69 Q1251.57 1519.97 1249.71 1517.81 Q1247.89 1515.64 1244.74 1515.64 Q1241.59 1515.64 1239.74 1517.81 Q1237.91 1519.97 1237.91 1523.69 Q1237.91 1527.44 1239.74 1529.6 Q1241.59 1531.75 1244.74 1531.75 Z" fill="#000000" fill-rule="evenodd" fill-opacity="1" /><path clip-path="url(#clip940)" d="M1275.45 1530.71 Q1272.12 1530.71 1270.2 1532.49 Q1268.3 1534.27 1268.3 1537.4 Q1268.3 1540.52 1270.2 1542.31 Q1272.12 1544.09 1275.45 1544.09 Q1278.79 1544.09 1280.71 1542.31 Q1282.63 1540.5 1282.63 1537.4 Q1282.63 1534.27 1280.71 1532.49 Q1278.81 1530.71 1275.45 1530.71 M1270.78 1528.72 Q1267.77 1527.98 1266.08 1525.92 Q1264.41 1523.86 1264.41 1520.89 Q1264.41 1516.75 1267.35 1514.34 Q1270.32 1511.93 1275.45 1511.93 Q1280.62 1511.93 1283.56 1514.34 Q1286.5 1516.75 1286.5 1520.89 Q1286.5 1523.86 1284.81 1525.92 Q1283.14 1527.98 1280.15 1528.72 Q1283.53 1529.5 1285.41 1531.8 Q1287.31 1534.09 1287.31 1537.4 Q1287.31 1542.42 1284.23 1545.11 Q1281.17 1547.79 1275.45 1547.79 Q1269.74 1547.79 1266.66 1545.11 Q1263.6 1542.42 1263.6 1537.4 Q1263.6 1534.09 1265.5 1531.8 Q1267.4 1529.5 1270.78 1528.72 M1269.07 1521.33 Q1269.07 1524.02 1270.73 1525.52 Q1272.42 1527.03 1275.45 1527.03 Q1278.46 1527.03 1280.15 1525.52 Q1281.87 1524.02 1281.87 1521.33 Q1281.87 1518.65 1280.15 1517.14 Q1278.46 1515.64 1275.45 1515.64 Q1272.42 1515.64 1270.73 1517.14 Q1269.07 1518.65 1269.07 1521.33 Z" fill="#000000" fill-rule="evenodd" fill-opacity="1" /><path clip-path="url(#clip940)" d="M1295.66 1512.56 L1314.02 1512.56 L1314.02 1516.5 L1299.95 1516.5 L1299.95 1524.97 Q1300.96 1524.62 1301.98 1524.46 Q1303 1524.27 1304.02 1524.27 Q1309.81 1524.27 1313.19 1527.44 Q1316.57 1530.62 1316.57 1536.03 Q1316.57 1541.61 1313.09 1544.71 Q1309.62 1547.79 1303.3 1547.79 Q1301.13 1547.79 1298.86 1547.42 Q1296.61 1547.05 1294.2 1546.31 L1294.2 1541.61 Q1296.29 1542.74 1298.51 1543.3 Q1300.73 1543.86 1303.21 1543.86 Q1307.21 1543.86 1309.55 1541.75 Q1311.89 1539.64 1311.89 1536.03 Q1311.89 1532.42 1309.55 1530.31 Q1307.21 1528.21 1303.21 1528.21 Q1301.33 1528.21 1299.46 1528.62 Q1297.61 1529.04 1295.66 1529.92 L1295.66 1512.56 Z" fill="#000000" fill-rule="evenodd" fill-opacity="1" /><path clip-path="url(#clip940)" d="M1323.02 1532.24 L1335.5 1532.24 L1335.5 1536.03 L1323.02 1536.03 L1323.02 1532.24 Z" fill="#000000" fill-rule="evenodd" fill-opacity="1" /><path clip-path="url(#clip940)" d="M1352.88 1515.64 Q1349.27 1515.64 1347.44 1519.2 Q1345.64 1522.75 1345.64 1529.87 Q1345.64 1536.98 1347.44 1540.55 Q1349.27 1544.09 1352.88 1544.09 Q1356.52 1544.09 1358.32 1540.55 Q1360.15 1536.98 1360.15 1529.87 Q1360.15 1522.75 1358.32 1519.2 Q1356.52 1515.64 1352.88 1515.64 M1352.88 1511.93 Q1358.69 1511.93 1361.75 1516.54 Q1364.83 1521.12 1364.83 1529.87 Q1364.83 1538.6 1361.75 1543.21 Q1358.69 1547.79 1352.88 1547.79 Q1347.07 1547.79 1344 1543.21 Q1340.94 1538.6 1340.94 1529.87 Q1340.94 1521.12 1344 1516.54 Q1347.07 1511.93 1352.88 1511.93 Z" fill="#000000" fill-rule="evenodd" fill-opacity="1" /><path clip-path="url(#clip940)" d="M1373.86 1543.18 L1381.5 1543.18 L1381.5 1516.82 L1373.19 1518.49 L1373.19 1514.23 L1381.45 1512.56 L1386.13 1512.56 L1386.13 1543.18 L1393.76 1543.18 L1393.76 1547.12 L1373.86 1547.12 L1373.86 1543.18 Z" fill="#000000" fill-rule="evenodd" fill-opacity="1" /><path clip-path="url(#clip940)" d="M1400.45 1532.24 L1412.93 1532.24 L1412.93 1536.03 L1400.45 1536.03 L1400.45 1532.24 Z" fill="#000000" fill-rule="evenodd" fill-opacity="1" /><path clip-path="url(#clip940)" d="M1430.31 1515.64 Q1426.7 1515.64 1424.87 1519.2 Q1423.07 1522.75 1423.07 1529.87 Q1423.07 1536.98 1424.87 1540.55 Q1426.7 1544.09 1430.31 1544.09 Q1433.95 1544.09 1435.75 1540.55 Q1437.58 1536.98 1437.58 1529.87 Q1437.58 1522.75 1435.75 1519.2 Q1433.95 1515.64 1430.31 1515.64 M1430.31 1511.93 Q1436.12 1511.93 1439.18 1516.54 Q1442.26 1521.12 1442.26 1529.87 Q1442.26 1538.6 1439.18 1543.21 Q1436.12 1547.79 1430.31 1547.79 Q1424.5 1547.79 1421.43 1543.21 Q1418.37 1538.6 1418.37 1529.87 Q1418.37 1521.12 1421.43 1516.54 Q1424.5 1511.93 1430.31 1511.93 Z" fill="#000000" fill-rule="evenodd" fill-opacity="1" /><path clip-path="url(#clip940)" d="M1451.29 1543.18 L1458.93 1543.18 L1458.93 1516.82 L1450.62 1518.49 L1450.62 1514.23 L1458.88 1512.56 L1463.56 1512.56 L1463.56 1543.18 L1471.19 1543.18 L1471.19 1547.12 L1451.29 1547.12 L1451.29 1543.18 Z" fill="#000000" fill-rule="evenodd" fill-opacity="1" /><path clip-path="url(#clip940)" d="M1737.41 1543.18 L1753.73 1543.18 L1753.73 1547.12 L1731.79 1547.12 L1731.79 1543.18 Q1734.45 1540.43 1739.03 1535.8 Q1743.64 1531.15 1744.82 1529.81 Q1747.06 1527.28 1747.94 1525.55 Q1748.85 1523.79 1748.85 1522.1 Q1748.85 1519.34 1746.9 1517.61 Q1744.98 1515.87 1741.88 1515.87 Q1739.68 1515.87 1737.23 1516.63 Q1734.79 1517.4 1732.02 1518.95 L1732.02 1514.23 Q1734.84 1513.09 1737.29 1512.51 Q1739.75 1511.93 1741.79 1511.93 Q1747.16 1511.93 1750.35 1514.62 Q1753.54 1517.31 1753.54 1521.8 Q1753.54 1523.93 1752.73 1525.85 Q1751.95 1527.74 1749.84 1530.34 Q1749.26 1531.01 1746.16 1534.23 Q1743.06 1537.42 1737.41 1543.18 Z" fill="#000000" fill-rule="evenodd" fill-opacity="1" /><path clip-path="url(#clip940)" d="M1773.54 1515.64 Q1769.93 1515.64 1768.1 1519.2 Q1766.3 1522.75 1766.3 1529.87 Q1766.3 1536.98 1768.1 1540.55 Q1769.93 1544.09 1773.54 1544.09 Q1777.18 1544.09 1778.98 1540.55 Q1780.81 1536.98 1780.81 1529.87 Q1780.81 1522.75 1778.98 1519.2 Q1777.18 1515.64 1773.54 1515.64 M1773.54 1511.93 Q1779.35 1511.93 1782.41 1516.54 Q1785.49 1521.12 1785.49 1529.87 Q1785.49 1538.6 1782.41 1543.21 Q1779.35 1547.79 1773.54 1547.79 Q1767.73 1547.79 1764.66 1543.21 Q1761.6 1538.6 1761.6 1529.87 Q1761.6 1521.12 1764.66 1516.54 Q1767.73 1511.93 1773.54 1511.93 Z" fill="#000000" fill-rule="evenodd" fill-opacity="1" /><path clip-path="url(#clip940)" d="M1803.71 1515.64 Q1800.1 1515.64 1798.27 1519.2 Q1796.46 1522.75 1796.46 1529.87 Q1796.46 1536.98 1798.27 1540.55 Q1800.1 1544.09 1803.71 1544.09 Q1807.34 1544.09 1809.15 1540.55 Q1810.97 1536.98 1810.97 1529.87 Q1810.97 1522.75 1809.15 1519.2 Q1807.34 1515.64 1803.71 1515.64 M1803.71 1511.93 Q1809.52 1511.93 1812.57 1516.54 Q1815.65 1521.12 1815.65 1529.87 Q1815.65 1538.6 1812.57 1543.21 Q1809.52 1547.79 1803.71 1547.79 Q1797.9 1547.79 1794.82 1543.21 Q1791.76 1538.6 1791.76 1529.87 Q1791.76 1521.12 1794.82 1516.54 Q1797.9 1511.93 1803.71 1511.93 Z" fill="#000000" fill-rule="evenodd" fill-opacity="1" /><path clip-path="url(#clip940)" d="M1823.91 1512.56 L1842.27 1512.56 L1842.27 1516.5 L1828.2 1516.5 L1828.2 1524.97 Q1829.22 1524.62 1830.23 1524.46 Q1831.25 1524.27 1832.27 1524.27 Q1838.06 1524.27 1841.44 1527.44 Q1844.82 1530.62 1844.82 1536.03 Q1844.82 1541.61 1841.34 1544.71 Q1837.87 1547.79 1831.55 1547.79 Q1829.38 1547.79 1827.11 1547.42 Q1824.86 1547.05 1822.46 1546.31 L1822.46 1541.61 Q1824.54 1542.74 1826.76 1543.3 Q1828.98 1543.86 1831.46 1543.86 Q1835.47 1543.86 1837.8 1541.75 Q1840.14 1539.64 1840.14 1536.03 Q1840.14 1532.42 1837.8 1530.31 Q1835.47 1528.21 1831.46 1528.21 Q1829.59 1528.21 1827.71 1528.62 Q1825.86 1529.04 1823.91 1529.92 L1823.91 1512.56 Z" fill="#000000" fill-rule="evenodd" fill-opacity="1" /><path clip-path="url(#clip940)" d="M1851.28 1532.24 L1863.75 1532.24 L1863.75 1536.03 L1851.28 1536.03 L1851.28 1532.24 Z" fill="#000000" fill-rule="evenodd" fill-opacity="1" /><path clip-path="url(#clip940)" d="M1881.14 1515.64 Q1877.53 1515.64 1875.7 1519.2 Q1873.89 1522.75 1873.89 1529.87 Q1873.89 1536.98 1875.7 1540.55 Q1877.53 1544.09 1881.14 1544.09 Q1884.77 1544.09 1886.58 1540.55 Q1888.4 1536.98 1888.4 1529.87 Q1888.4 1522.75 1886.58 1519.2 Q1884.77 1515.64 1881.14 1515.64 M1881.14 1511.93 Q1886.95 1511.93 1890 1516.54 Q1893.08 1521.12 1893.08 1529.87 Q1893.08 1538.6 1890 1543.21 Q1886.95 1547.79 1881.14 1547.79 Q1875.33 1547.79 1872.25 1543.21 Q1869.19 1538.6 1869.19 1529.87 Q1869.19 1521.12 1872.25 1516.54 Q1875.33 1511.93 1881.14 1511.93 Z" fill="#000000" fill-rule="evenodd" fill-opacity="1" /><path clip-path="url(#clip940)" d="M1902.11 1543.18 L1909.75 1543.18 L1909.75 1516.82 L1901.44 1518.49 L1901.44 1514.23 L1909.7 1512.56 L1914.38 1512.56 L1914.38 1543.18 L1922.02 1543.18 L1922.02 1547.12 L1902.11 1547.12 L1902.11 1543.18 Z" fill="#000000" fill-rule="evenodd" fill-opacity="1" /><path clip-path="url(#clip940)" d="M1928.71 1532.24 L1941.18 1532.24 L1941.18 1536.03 L1928.71 1536.03 L1928.71 1532.24 Z" fill="#000000" fill-rule="evenodd" fill-opacity="1" /><path clip-path="url(#clip940)" d="M1958.57 1515.64 Q1954.96 1515.64 1953.13 1519.2 Q1951.32 1522.75 1951.32 1529.87 Q1951.32 1536.98 1953.13 1540.55 Q1954.96 1544.09 1958.57 1544.09 Q1962.2 1544.09 1964.01 1540.55 Q1965.84 1536.98 1965.84 1529.87 Q1965.84 1522.75 1964.01 1519.2 Q1962.2 1515.64 1958.57 1515.64 M1958.57 1511.93 Q1964.38 1511.93 1967.43 1516.54 Q1970.51 1521.12 1970.51 1529.87 Q1970.51 1538.6 1967.43 1543.21 Q1964.38 1547.79 1958.57 1547.79 Q1952.76 1547.79 1949.68 1543.21 Q1946.62 1538.6 1946.62 1529.87 Q1946.62 1521.12 1949.68 1516.54 Q1952.76 1511.93 1958.57 1511.93 Z" fill="#000000" fill-rule="evenodd" fill-opacity="1" /><path clip-path="url(#clip940)" d="M1979.54 1543.18 L1987.18 1543.18 L1987.18 1516.82 L1978.87 1518.49 L1978.87 1514.23 L1987.13 1512.56 L1991.81 1512.56 L1991.81 1543.18 L1999.45 1543.18 L1999.45 1547.12 L1979.54 1547.12 L1979.54 1543.18 Z" fill="#000000" fill-rule="evenodd" fill-opacity="1" /><polyline clip-path="url(#clip942)" style="stroke:#000000; stroke-linecap:butt; stroke-linejoin:round; stroke-width:2; stroke-opacity:0.1; fill:none" points="
  277.431,1262.8 2352.76,1262.8 
  "/>
<polyline clip-path="url(#clip942)" style="stroke:#000000; stroke-linecap:butt; stroke-linejoin:round; stroke-width:2; stroke-opacity:0.1; fill:none" points="
  277.431,957.474 2352.76,957.474 
  "/>
<polyline clip-path="url(#clip942)" style="stroke:#000000; stroke-linecap:butt; stroke-linejoin:round; stroke-width:2; stroke-opacity:0.1; fill:none" points="
  277.431,652.152 2352.76,652.152 
  "/>
<polyline clip-path="url(#clip942)" style="stroke:#000000; stroke-linecap:butt; stroke-linejoin:round; stroke-width:2; stroke-opacity:0.1; fill:none" points="
  277.431,346.829 2352.76,346.829 
  "/>
<polyline clip-path="url(#clip940)" style="stroke:#000000; stroke-linecap:butt; stroke-linejoin:round; stroke-width:4; stroke-opacity:1; fill:none" points="
  277.431,1486.45 277.431,47.2441 
  "/>
<polyline clip-path="url(#clip940)" style="stroke:#000000; stroke-linecap:butt; stroke-linejoin:round; stroke-width:4; stroke-opacity:1; fill:none" points="
  277.431,1262.8 296.329,1262.8 
  "/>
<polyline clip-path="url(#clip940)" style="stroke:#000000; stroke-linecap:butt; stroke-linejoin:round; stroke-width:4; stroke-opacity:1; fill:none" points="
  277.431,957.474 296.329,957.474 
  "/>
<polyline clip-path="url(#clip940)" style="stroke:#000000; stroke-linecap:butt; stroke-linejoin:round; stroke-width:4; stroke-opacity:1; fill:none" points="
  277.431,652.152 296.329,652.152 
  "/>
<polyline clip-path="url(#clip940)" style="stroke:#000000; stroke-linecap:butt; stroke-linejoin:round; stroke-width:4; stroke-opacity:1; fill:none" points="
  277.431,346.829 296.329,346.829 
  "/>
<path clip-path="url(#clip940)" d="M57.7745 1282.59 L74.0939 1282.59 L74.0939 1286.52 L52.1495 1286.52 L52.1495 1282.59 Q54.8115 1279.83 59.3949 1275.21 Q64.0013 1270.55 65.1819 1269.21 Q67.4272 1266.69 68.3068 1264.95 Q69.2096 1263.19 69.2096 1261.5 Q69.2096 1258.75 67.2652 1257.01 Q65.3439 1255.27 62.2421 1255.27 Q60.043 1255.27 57.5893 1256.04 Q55.1588 1256.8 52.381 1258.35 L52.381 1253.63 Q55.2051 1252.5 57.6588 1251.92 Q60.1124 1251.34 62.1495 1251.34 Q67.5198 1251.34 70.7142 1254.02 Q73.9087 1256.71 73.9087 1261.2 Q73.9087 1263.33 73.0985 1265.25 Q72.3115 1267.15 70.205 1269.74 Q69.6263 1270.41 66.5245 1273.63 Q63.4226 1276.83 57.7745 1282.59 Z" fill="#000000" fill-rule="evenodd" fill-opacity="1" /><path clip-path="url(#clip940)" d="M83.9086 1280.64 L88.7928 1280.64 L88.7928 1286.52 L83.9086 1286.52 L83.9086 1280.64 Z" fill="#000000" fill-rule="evenodd" fill-opacity="1" /><path clip-path="url(#clip940)" d="M108.978 1255.04 Q105.367 1255.04 103.538 1258.61 Q101.733 1262.15 101.733 1269.28 Q101.733 1276.39 103.538 1279.95 Q105.367 1283.49 108.978 1283.49 Q112.612 1283.49 114.418 1279.95 Q116.246 1276.39 116.246 1269.28 Q116.246 1262.15 114.418 1258.61 Q112.612 1255.04 108.978 1255.04 M108.978 1251.34 Q114.788 1251.34 117.844 1255.95 Q120.922 1260.53 120.922 1269.28 Q120.922 1278.01 117.844 1282.61 Q114.788 1287.2 108.978 1287.2 Q103.168 1287.2 100.089 1282.61 Q97.0335 1278.01 97.0335 1269.28 Q97.0335 1260.53 100.089 1255.95 Q103.168 1251.34 108.978 1251.34 Z" fill="#000000" fill-rule="evenodd" fill-opacity="1" /><path clip-path="url(#clip940)" d="M157.311 1261.06 L146.732 1271.69 L157.311 1282.27 L154.556 1285.07 L143.931 1274.44 L133.306 1285.07 L130.575 1282.27 L141.131 1271.69 L130.575 1261.06 L133.306 1258.26 L143.931 1268.89 L154.556 1258.26 L157.311 1261.06 Z" fill="#000000" fill-rule="evenodd" fill-opacity="1" /><path clip-path="url(#clip940)" d="M169.672 1282.59 L177.311 1282.59 L177.311 1256.22 L169.001 1257.89 L169.001 1253.63 L177.265 1251.96 L181.94 1251.96 L181.94 1282.59 L189.579 1282.59 L189.579 1286.52 L169.672 1286.52 L169.672 1282.59 Z" fill="#000000" fill-rule="evenodd" fill-opacity="1" /><path clip-path="url(#clip940)" d="M209.024 1255.04 Q205.413 1255.04 203.584 1258.61 Q201.778 1262.15 201.778 1269.28 Q201.778 1276.39 203.584 1279.95 Q205.413 1283.49 209.024 1283.49 Q212.658 1283.49 214.463 1279.95 Q216.292 1276.39 216.292 1269.28 Q216.292 1262.15 214.463 1258.61 Q212.658 1255.04 209.024 1255.04 M209.024 1251.34 Q214.834 1251.34 217.889 1255.95 Q220.968 1260.53 220.968 1269.28 Q220.968 1278.01 217.889 1282.61 Q214.834 1287.2 209.024 1287.2 Q203.214 1287.2 200.135 1282.61 Q197.079 1278.01 197.079 1269.28 Q197.079 1260.53 200.135 1255.95 Q203.214 1251.34 209.024 1251.34 Z" fill="#000000" fill-rule="evenodd" fill-opacity="1" /><path clip-path="url(#clip940)" d="M233.645 1234.34 L224.053 1249.33 L233.645 1249.33 L233.645 1234.34 M232.648 1231.03 L237.425 1231.03 L237.425 1249.33 L241.431 1249.33 L241.431 1252.49 L237.425 1252.49 L237.425 1259.11 L233.645 1259.11 L233.645 1252.49 L220.968 1252.49 L220.968 1248.83 L232.648 1231.03 Z" fill="#000000" fill-rule="evenodd" fill-opacity="1" /><path clip-path="url(#clip940)" d="M67.9133 962.568 Q71.2698 963.285 73.1448 965.554 Q75.0429 967.822 75.0429 971.156 Q75.0429 976.271 71.5244 979.072 Q68.0059 981.873 61.5245 981.873 Q59.3486 981.873 57.0338 981.433 Q54.7421 981.017 52.2884 980.16 L52.2884 975.646 Q54.2328 976.781 56.5477 977.359 Q58.8625 977.938 61.3856 977.938 Q65.7837 977.938 68.0754 976.202 Q70.3902 974.466 70.3902 971.156 Q70.3902 968.1 68.2374 966.387 Q66.1078 964.651 62.2884 964.651 L58.2606 964.651 L58.2606 960.808 L62.4735 960.808 Q65.9226 960.808 67.7513 959.443 Q69.58 958.054 69.58 955.461 Q69.58 952.799 67.6819 951.387 Q65.8069 949.952 62.2884 949.952 Q60.3671 949.952 58.168 950.369 Q55.969 950.785 53.3301 951.665 L53.3301 947.498 Q55.9921 946.758 58.3069 946.387 Q60.6449 946.017 62.705 946.017 Q68.0291 946.017 71.1309 948.447 Q74.2327 950.855 74.2327 954.975 Q74.2327 957.845 72.5892 959.836 Q70.9457 961.804 67.9133 962.568 Z" fill="#000000" fill-rule="evenodd" fill-opacity="1" /><path clip-path="url(#clip940)" d="M83.9086 975.322 L88.7928 975.322 L88.7928 981.202 L83.9086 981.202 L83.9086 975.322 Z" fill="#000000" fill-rule="evenodd" fill-opacity="1" /><path clip-path="url(#clip940)" d="M108.978 949.72 Q105.367 949.72 103.538 953.285 Q101.733 956.827 101.733 963.957 Q101.733 971.063 103.538 974.628 Q105.367 978.169 108.978 978.169 Q112.612 978.169 114.418 974.628 Q116.246 971.063 116.246 963.957 Q116.246 956.827 114.418 953.285 Q112.612 949.72 108.978 949.72 M108.978 946.017 Q114.788 946.017 117.844 950.623 Q120.922 955.207 120.922 963.957 Q120.922 972.683 117.844 977.29 Q114.788 981.873 108.978 981.873 Q103.168 981.873 100.089 977.29 Q97.0335 972.683 97.0335 963.957 Q97.0335 955.207 100.089 950.623 Q103.168 946.017 108.978 946.017 Z" fill="#000000" fill-rule="evenodd" fill-opacity="1" /><path clip-path="url(#clip940)" d="M157.311 955.739 L146.732 966.364 L157.311 976.943 L154.556 979.743 L143.931 969.119 L133.306 979.743 L130.575 976.943 L141.131 966.364 L130.575 955.739 L133.306 952.938 L143.931 963.563 L154.556 952.938 L157.311 955.739 Z" fill="#000000" fill-rule="evenodd" fill-opacity="1" /><path clip-path="url(#clip940)" d="M169.672 977.267 L177.311 977.267 L177.311 950.901 L169.001 952.568 L169.001 948.308 L177.265 946.642 L181.94 946.642 L181.94 977.267 L189.579 977.267 L189.579 981.202 L169.672 981.202 L169.672 977.267 Z" fill="#000000" fill-rule="evenodd" fill-opacity="1" /><path clip-path="url(#clip940)" d="M209.024 949.72 Q205.413 949.72 203.584 953.285 Q201.778 956.827 201.778 963.957 Q201.778 971.063 203.584 974.628 Q205.413 978.169 209.024 978.169 Q212.658 978.169 214.463 974.628 Q216.292 971.063 216.292 963.957 Q216.292 956.827 214.463 953.285 Q212.658 949.72 209.024 949.72 M209.024 946.017 Q214.834 946.017 217.889 950.623 Q220.968 955.207 220.968 963.957 Q220.968 972.683 217.889 977.29 Q214.834 981.873 209.024 981.873 Q203.214 981.873 200.135 977.29 Q197.079 972.683 197.079 963.957 Q197.079 955.207 200.135 950.623 Q203.214 946.017 209.024 946.017 Z" fill="#000000" fill-rule="evenodd" fill-opacity="1" /><path clip-path="url(#clip940)" d="M233.645 929.022 L224.053 944.011 L233.645 944.011 L233.645 929.022 M232.648 925.711 L237.425 925.711 L237.425 944.011 L241.431 944.011 L241.431 947.171 L237.425 947.171 L237.425 953.791 L233.645 953.791 L233.645 947.171 L220.968 947.171 L220.968 943.504 L232.648 925.711 Z" fill="#000000" fill-rule="evenodd" fill-opacity="1" /><path clip-path="url(#clip940)" d="M66.5939 645.393 L54.7884 663.842 L66.5939 663.842 L66.5939 645.393 M65.367 641.319 L71.2466 641.319 L71.2466 663.842 L76.1772 663.842 L76.1772 667.731 L71.2466 667.731 L71.2466 675.879 L66.5939 675.879 L66.5939 667.731 L50.9921 667.731 L50.9921 663.217 L65.367 641.319 Z" fill="#000000" fill-rule="evenodd" fill-opacity="1" /><path clip-path="url(#clip940)" d="M83.9086 670 L88.7928 670 L88.7928 675.879 L83.9086 675.879 L83.9086 670 Z" fill="#000000" fill-rule="evenodd" fill-opacity="1" /><path clip-path="url(#clip940)" d="M108.978 644.398 Q105.367 644.398 103.538 647.963 Q101.733 651.504 101.733 658.634 Q101.733 665.74 103.538 669.305 Q105.367 672.847 108.978 672.847 Q112.612 672.847 114.418 669.305 Q116.246 665.74 116.246 658.634 Q116.246 651.504 114.418 647.963 Q112.612 644.398 108.978 644.398 M108.978 640.694 Q114.788 640.694 117.844 645.301 Q120.922 649.884 120.922 658.634 Q120.922 667.361 117.844 671.967 Q114.788 676.55 108.978 676.55 Q103.168 676.55 100.089 671.967 Q97.0335 667.361 97.0335 658.634 Q97.0335 649.884 100.089 645.301 Q103.168 640.694 108.978 640.694 Z" fill="#000000" fill-rule="evenodd" fill-opacity="1" /><path clip-path="url(#clip940)" d="M157.311 650.416 L146.732 661.041 L157.311 671.62 L154.556 674.421 L143.931 663.796 L133.306 674.421 L130.575 671.62 L141.131 661.041 L130.575 650.416 L133.306 647.615 L143.931 658.24 L154.556 647.615 L157.311 650.416 Z" fill="#000000" fill-rule="evenodd" fill-opacity="1" /><path clip-path="url(#clip940)" d="M169.672 671.944 L177.311 671.944 L177.311 645.578 L169.001 647.245 L169.001 642.986 L177.265 641.319 L181.94 641.319 L181.94 671.944 L189.579 671.944 L189.579 675.879 L169.672 675.879 L169.672 671.944 Z" fill="#000000" fill-rule="evenodd" fill-opacity="1" /><path clip-path="url(#clip940)" d="M209.024 644.398 Q205.413 644.398 203.584 647.963 Q201.778 651.504 201.778 658.634 Q201.778 665.74 203.584 669.305 Q205.413 672.847 209.024 672.847 Q212.658 672.847 214.463 669.305 Q216.292 665.74 216.292 658.634 Q216.292 651.504 214.463 647.963 Q212.658 644.398 209.024 644.398 M209.024 640.694 Q214.834 640.694 217.889 645.301 Q220.968 649.884 220.968 658.634 Q220.968 667.361 217.889 671.967 Q214.834 676.55 209.024 676.55 Q203.214 676.55 200.135 671.967 Q197.079 667.361 197.079 658.634 Q197.079 649.884 200.135 645.301 Q203.214 640.694 209.024 640.694 Z" fill="#000000" fill-rule="evenodd" fill-opacity="1" /><path clip-path="url(#clip940)" d="M233.645 623.699 L224.053 638.689 L233.645 638.689 L233.645 623.699 M232.648 620.389 L237.425 620.389 L237.425 638.689 L241.431 638.689 L241.431 641.848 L237.425 641.848 L237.425 648.469 L233.645 648.469 L233.645 641.848 L220.968 641.848 L220.968 638.181 L232.648 620.389 Z" fill="#000000" fill-rule="evenodd" fill-opacity="1" /><path clip-path="url(#clip940)" d="M53.793 335.996 L72.1494 335.996 L72.1494 339.932 L58.0754 339.932 L58.0754 348.404 Q59.0939 348.057 60.1124 347.895 Q61.131 347.709 62.1495 347.709 Q67.9365 347.709 71.3161 350.881 Q74.6957 354.052 74.6957 359.469 Q74.6957 365.047 71.2235 368.149 Q67.7513 371.228 61.4319 371.228 Q59.256 371.228 56.9875 370.857 Q54.7421 370.487 52.3347 369.746 L52.3347 365.047 Q54.418 366.181 56.6402 366.737 Q58.8625 367.293 61.3393 367.293 Q65.3439 367.293 67.6819 365.186 Q70.0198 363.08 70.0198 359.469 Q70.0198 355.857 67.6819 353.751 Q65.3439 351.645 61.3393 351.645 Q59.4643 351.645 57.5893 352.061 Q55.7375 352.478 53.793 353.357 L53.793 335.996 Z" fill="#000000" fill-rule="evenodd" fill-opacity="1" /><path clip-path="url(#clip940)" d="M83.9086 364.677 L88.7928 364.677 L88.7928 370.556 L83.9086 370.556 L83.9086 364.677 Z" fill="#000000" fill-rule="evenodd" fill-opacity="1" /><path clip-path="url(#clip940)" d="M108.978 339.075 Q105.367 339.075 103.538 342.64 Q101.733 346.182 101.733 353.311 Q101.733 360.418 103.538 363.982 Q105.367 367.524 108.978 367.524 Q112.612 367.524 114.418 363.982 Q116.246 360.418 116.246 353.311 Q116.246 346.182 114.418 342.64 Q112.612 339.075 108.978 339.075 M108.978 335.371 Q114.788 335.371 117.844 339.978 Q120.922 344.561 120.922 353.311 Q120.922 362.038 117.844 366.644 Q114.788 371.228 108.978 371.228 Q103.168 371.228 100.089 366.644 Q97.0335 362.038 97.0335 353.311 Q97.0335 344.561 100.089 339.978 Q103.168 335.371 108.978 335.371 Z" fill="#000000" fill-rule="evenodd" fill-opacity="1" /><path clip-path="url(#clip940)" d="M157.311 345.094 L146.732 355.719 L157.311 366.297 L154.556 369.098 L143.931 358.473 L133.306 369.098 L130.575 366.297 L141.131 355.719 L130.575 345.094 L133.306 342.293 L143.931 352.918 L154.556 342.293 L157.311 345.094 Z" fill="#000000" fill-rule="evenodd" fill-opacity="1" /><path clip-path="url(#clip940)" d="M169.672 366.621 L177.311 366.621 L177.311 340.256 L169.001 341.922 L169.001 337.663 L177.265 335.996 L181.94 335.996 L181.94 366.621 L189.579 366.621 L189.579 370.556 L169.672 370.556 L169.672 366.621 Z" fill="#000000" fill-rule="evenodd" fill-opacity="1" /><path clip-path="url(#clip940)" d="M209.024 339.075 Q205.413 339.075 203.584 342.64 Q201.778 346.182 201.778 353.311 Q201.778 360.418 203.584 363.982 Q205.413 367.524 209.024 367.524 Q212.658 367.524 214.463 363.982 Q216.292 360.418 216.292 353.311 Q216.292 346.182 214.463 342.64 Q212.658 339.075 209.024 339.075 M209.024 335.371 Q214.834 335.371 217.889 339.978 Q220.968 344.561 220.968 353.311 Q220.968 362.038 217.889 366.644 Q214.834 371.228 209.024 371.228 Q203.214 371.228 200.135 366.644 Q197.079 362.038 197.079 353.311 Q197.079 344.561 200.135 339.978 Q203.214 335.371 209.024 335.371 Z" fill="#000000" fill-rule="evenodd" fill-opacity="1" /><path clip-path="url(#clip940)" d="M233.645 318.376 L224.053 333.366 L233.645 333.366 L233.645 318.376 M232.648 315.066 L237.425 315.066 L237.425 333.366 L241.431 333.366 L241.431 336.526 L237.425 336.526 L237.425 343.146 L233.645 343.146 L233.645 336.526 L220.968 336.526 L220.968 332.858 L232.648 315.066 Z" fill="#000000" fill-rule="evenodd" fill-opacity="1" /><polyline clip-path="url(#clip942)" style="stroke:#009af9; stroke-linecap:butt; stroke-linejoin:round; stroke-width:4; stroke-opacity:1; fill:none" points="
  2294.02,87.9763 2287.52,115.761 2280.88,141.286 2274.24,158.078 2267.67,276.177 2261.1,117.47 2254.46,92.4035 2247.82,98.2657 2241.25,107.883 2234.75,119.913 
  2228.11,128.645 2221.46,130.202 2214.89,136.095 2208.4,148.461 2201.76,159.636 2195.11,173.039 2188.54,182.443 2182.05,189.527 2175.4,195.114 2168.76,200.457 
  2162.19,207.357 2155.62,209.708 2148.98,216.761 2142.34,215.968 2135.77,218.074 2129.27,224.944 2122.63,235.661 2115.99,239.752 2109.42,255.324 2102.92,273.216 
  2096.28,264.972 2089.64,273.216 2083.07,282.742 2076.57,282.528 2069.93,293.947 2063.29,292.665 2056.72,292.42 2050.15,297.061 2043.5,307.381 2036.86,321.792 
  2030.29,318.159 2023.79,326.128 2017.15,319.869 2010.51,324.846 2003.94,333.731 1997.44,345.73 1990.8,350.31 1984.16,362.919 1977.59,364.904 1971.09,359.225 
  1964.45,338.249 1957.81,300.328 1951.24,288.115 1944.67,293.703 1938.03,283.749 1931.39,289.367 1924.82,294.771 1918.32,301.275 1911.68,302.404 1905.03,311.564 
  1898.46,309.885 1891.97,310.19 1885.32,327.624 1878.68,332.479 1872.11,340.6 1865.62,344.753 1858.97,358.34 1852.33,369.942 1845.76,380.262 1839.19,388.566 
  1832.55,394.154 1825.91,407.527 1819.34,427.984 1812.84,437.601 1806.2,441.998 1799.56,440.38 1792.99,442.517 1786.49,448.104 1779.85,456.745 1773.21,457.05 
  1766.64,447.646 1760.14,453.112 1753.5,445.234 1746.86,449.906 1740.29,447.463 1733.72,469.477 1727.07,471.034 1720.43,489.537 1713.86,503.276 1707.36,510.879 
  1700.72,520.222 1694.08,537.717 1687.51,550.113 1681.01,558.662 1674.37,568.34 1667.73,575.393 1661.16,587.179 1654.66,604.582 1648.02,609.376 1641.38,618.383 
  1634.81,625.497 1628.24,642.473 1621.6,648.579 1614.95,653.098 1608.39,659.479 1601.89,659.662 1595.25,660.701 1588.6,670.776 1582.03,673.89 1575.54,686.47 
  1568.89,694.714 1562.25,706.804 1555.68,708.392 1549.19,711.598 1542.54,710.102 1535.9,718.132 1529.33,725.215 1522.76,733.734 1516.12,743.901 1509.48,743.962 
  1502.91,745.641 1496.41,750.801 1489.77,742.039 1483.13,727.597 1476.56,724.33 1470.06,724.91 1463.42,734.741 1456.78,733.886 1450.21,739.138 1443.71,745.183 
  1437.07,754.312 1430.42,766.281 1423.86,769.853 1417.29,781.883 1410.64,785.333 1404,801.057 1397.43,807.652 1390.93,816.812 1384.29,822.583 1377.65,825.697 
  1371.08,833.055 1364.58,835.528 1357.94,843.1 1351.3,848.138 1344.73,860.962 1338.23,867.679 1331.59,875.465 1324.95,881.205 1318.38,888.258 1311.81,903.035 
  1305.17,919.828 1298.52,937.109 1291.95,953.2 1285.46,971.824 1278.82,981.747 1272.17,979.915 1265.6,974.175 1259.11,976.282 1252.46,960.192 1245.82,947.734 
  1239.25,956.192 1232.76,947.246 1226.11,963.184 1219.47,977.412 1212.9,973.656 1206.33,952.162 1199.69,952.467 1193.05,951.917 1186.48,955.948 1179.98,954.543 
  1173.34,953.841 1166.7,963.397 1160.13,969.809 1153.63,1001.23 1146.99,1001.96 1140.35,999.517 1133.78,1012.58 1127.28,1026.97 1120.64,1034.9 1113.99,1038.72 
  1107.42,1041.13 1100.86,1045.44 1094.21,1061.93 1087.57,1070.63 1081,1081.8 1074.5,1085.53 1067.86,1074.2 1061.22,1069.01 1054.65,1059.27 1048.15,1059.45 
  1041.51,1050.72 1034.87,1056.46 1028.3,1050.11 1021.8,1057.16 1015.16,1075.15 1008.52,1086.23 1001.95,1091.57 995.378,1107.11 988.736,1119.14 982.094,1118.59 
  975.525,1122.44 969.027,1124.33 962.385,1141.89 955.743,1131.42 949.174,1135.69 942.676,1134.44 936.034,1131.51 929.392,1125.68 922.822,1128.49 916.325,1129.07 
  909.683,1139.02 903.041,1139.9 896.471,1143.57 889.901,1153.92 883.26,1166.8 876.618,1170.13 870.048,1174.77 863.55,1173.46 856.908,1177.92 850.266,1181.46 
  843.697,1185.15 837.199,1185.7 830.557,1200.39 823.915,1213.4 817.346,1225.58 810.848,1231.93 804.206,1245.36 797.564,1245.09 790.994,1252.51 784.425,1257.24 
  777.783,1268.08 771.141,1269.7 764.571,1280.44 758.074,1285.12 751.432,1289.54 744.79,1289.12 738.22,1293.97 731.722,1297.15 725.081,1305.24 718.439,1313.76 
  711.869,1322 705.371,1329.11 698.729,1330.94 692.087,1321.72 685.518,1321.66 678.948,1315.34 672.306,1324.38 665.664,1323.53 659.094,1321.57 652.597,1331.65 
  645.955,1339.55 639.313,1349.33 632.743,1358.97 626.246,1360.35 619.604,1344.71 612.962,1336.75 606.392,1339.59 599.895,1336.23 593.253,1337.23 586.611,1343.28 
  580.041,1340.32 573.471,1342.55 566.829,1338.27 560.187,1338.88 553.618,1343.62 547.12,1350 540.478,1362.42 533.836,1369.78 527.266,1373.11 520.769,1371.61 
  514.127,1367.03 507.485,1356.84 500.915,1351.55 494.418,1353.63 487.776,1361.23 481.134,1375.25 474.564,1376.65 467.994,1375.8 461.353,1379.06 454.711,1377.78 
  448.141,1385.57 441.643,1391.98 435.001,1396.44 428.359,1403.31 421.79,1418.85 415.292,1430.72 408.65,1445.72 402.008,1440.13 395.439,1442.72 388.941,1439.52 
  382.299,1431.52 375.657,1429.96 369.087,1430.57 362.518,1436.04 355.876,1440.77 349.234,1445.44 342.664,1442.6 336.167,1439.49 
  "/>
</svg>
