<?xml version="1.0" encoding="utf-8"?>
<svg xmlns="http://www.w3.org/2000/svg" xmlns:xlink="http://www.w3.org/1999/xlink" width="600" height="400" viewBox="0 0 2400 1600">
<defs>
  <clipPath id="clip180">
    <rect x="0" y="0" width="2400" height="1600"/>
  </clipPath>
</defs>
<path clip-path="url(#clip180)" d="
M0 1600 L2400 1600 L2400 0 L0 0  Z
  " fill="#ffffff" fill-rule="evenodd" fill-opacity="1"/>
<defs>
  <clipPath id="clip181">
    <rect x="480" y="0" width="1681" height="1600"/>
  </clipPath>
</defs>
<path clip-path="url(#clip180)" d="
M169.121 1486.45 L2352.76 1486.45 L2352.76 123.472 L169.121 123.472  Z
  " fill="#ffffff" fill-rule="evenodd" fill-opacity="1"/>
<defs>
  <clipPath id="clip182">
    <rect x="169" y="123" width="2185" height="1364"/>
  </clipPath>
</defs>
<polyline clip-path="url(#clip182)" style="stroke:#000000; stroke-linecap:butt; stroke-linejoin:round; stroke-width:2; stroke-opacity:0.1; fill:none" points="
  175.955,1486.45 175.955,123.472 
  "/>
<polyline clip-path="url(#clip182)" style="stroke:#000000; stroke-linecap:butt; stroke-linejoin:round; stroke-width:2; stroke-opacity:0.1; fill:none" points="
  715.37,1486.45 715.37,123.472 
  "/>
<polyline clip-path="url(#clip182)" style="stroke:#000000; stroke-linecap:butt; stroke-linejoin:round; stroke-width:2; stroke-opacity:0.1; fill:none" points="
  1254.7,1486.45 1254.7,123.472 
  "/>
<polyline clip-path="url(#clip182)" style="stroke:#000000; stroke-linecap:butt; stroke-linejoin:round; stroke-width:2; stroke-opacity:0.1; fill:none" points="
  1794.12,1486.45 1794.12,123.472 
  "/>
<polyline clip-path="url(#clip182)" style="stroke:#000000; stroke-linecap:butt; stroke-linejoin:round; stroke-width:2; stroke-opacity:0.1; fill:none" points="
  2333.45,1486.45 2333.45,123.472 
  "/>
<polyline clip-path="url(#clip180)" style="stroke:#000000; stroke-linecap:butt; stroke-linejoin:round; stroke-width:4; stroke-opacity:1; fill:none" points="
  169.121,1486.45 2352.76,1486.45 
  "/>
<polyline clip-path="url(#clip180)" style="stroke:#000000; stroke-linecap:butt; stroke-linejoin:round; stroke-width:4; stroke-opacity:1; fill:none" points="
  175.955,1486.45 175.955,1467.55 
  "/>
<polyline clip-path="url(#clip180)" style="stroke:#000000; stroke-linecap:butt; stroke-linejoin:round; stroke-width:4; stroke-opacity:1; fill:none" points="
  715.37,1486.45 715.37,1467.55 
  "/>
<polyline clip-path="url(#clip180)" style="stroke:#000000; stroke-linecap:butt; stroke-linejoin:round; stroke-width:4; stroke-opacity:1; fill:none" points="
  1254.7,1486.45 1254.7,1467.55 
  "/>
<polyline clip-path="url(#clip180)" style="stroke:#000000; stroke-linecap:butt; stroke-linejoin:round; stroke-width:4; stroke-opacity:1; fill:none" points="
  1794.12,1486.45 1794.12,1467.55 
  "/>
<polyline clip-path="url(#clip180)" style="stroke:#000000; stroke-linecap:butt; stroke-linejoin:round; stroke-width:4; stroke-opacity:1; fill:none" points="
  2333.45,1486.45 2333.45,1467.55 
  "/>
<path clip-path="url(#clip180)" d="M43.6643 1543.18 L51.3032 1543.18 L51.3032 1516.82 L42.993 1518.49 L42.993 1514.23 L51.2569 1512.56 L55.9328 1512.56 L55.9328 1543.18 L63.5716 1543.18 L63.5716 1547.12 L43.6643 1547.12 L43.6643 1543.18 Z" fill="#000000" fill-rule="evenodd" fill-opacity="1" /><path clip-path="url(#clip180)" d="M73.1549 1546.4 L73.1549 1542.14 Q74.9141 1542.98 76.7197 1543.42 Q78.5252 1543.86 80.2613 1543.86 Q84.8909 1543.86 87.3215 1540.75 Q89.7752 1537.63 90.1224 1531.29 Q88.7798 1533.28 86.7196 1534.34 Q84.6595 1535.41 82.1595 1535.41 Q76.9743 1535.41 73.9419 1532.28 Q70.9327 1529.13 70.9327 1523.69 Q70.9327 1518.37 74.0808 1515.15 Q77.229 1511.93 82.4604 1511.93 Q88.4557 1511.93 91.6039 1516.54 Q94.7752 1521.12 94.7752 1529.87 Q94.7752 1538.05 90.8863 1542.93 Q87.0206 1547.79 80.4697 1547.79 Q78.7104 1547.79 76.9049 1547.44 Q75.0993 1547.1 73.1549 1546.4 M82.4604 1531.75 Q85.6085 1531.75 87.4372 1529.6 Q89.2891 1527.44 89.2891 1523.69 Q89.2891 1519.97 87.4372 1517.81 Q85.6085 1515.64 82.4604 1515.64 Q79.3123 1515.64 77.4604 1517.81 Q75.6317 1519.97 75.6317 1523.69 Q75.6317 1527.44 77.4604 1529.6 Q79.3123 1531.75 82.4604 1531.75 Z" fill="#000000" fill-rule="evenodd" fill-opacity="1" /><path clip-path="url(#clip180)" d="M103.224 1512.56 L121.581 1512.56 L121.581 1516.5 L107.507 1516.5 L107.507 1524.97 Q108.525 1524.62 109.544 1524.46 Q110.562 1524.27 111.581 1524.27 Q117.368 1524.27 120.747 1527.44 Q124.127 1530.62 124.127 1536.03 Q124.127 1541.61 120.655 1544.71 Q117.182 1547.79 110.863 1547.79 Q108.687 1547.79 106.419 1547.42 Q104.173 1547.05 101.766 1546.31 L101.766 1541.61 Q103.849 1542.74 106.071 1543.3 Q108.294 1543.86 110.77 1543.86 Q114.775 1543.86 117.113 1541.75 Q119.451 1539.64 119.451 1536.03 Q119.451 1532.42 117.113 1530.31 Q114.775 1528.21 110.77 1528.21 Q108.895 1528.21 107.02 1528.62 Q105.169 1529.04 103.224 1529.92 L103.224 1512.56 Z" fill="#000000" fill-rule="evenodd" fill-opacity="1" /><path clip-path="url(#clip180)" d="M134.15 1543.18 L141.789 1543.18 L141.789 1516.82 L133.479 1518.49 L133.479 1514.23 L141.742 1512.56 L146.418 1512.56 L146.418 1543.18 L154.057 1543.18 L154.057 1547.12 L134.15 1547.12 L134.15 1543.18 Z" fill="#000000" fill-rule="evenodd" fill-opacity="1" /><path clip-path="url(#clip180)" d="M160.747 1532.24 L173.224 1532.24 L173.224 1536.03 L160.747 1536.03 L160.747 1532.24 Z" fill="#000000" fill-rule="evenodd" fill-opacity="1" /><path clip-path="url(#clip180)" d="M190.608 1515.64 Q186.997 1515.64 185.168 1519.2 Q183.363 1522.75 183.363 1529.87 Q183.363 1536.98 185.168 1540.55 Q186.997 1544.09 190.608 1544.09 Q194.242 1544.09 196.048 1540.55 Q197.876 1536.98 197.876 1529.87 Q197.876 1522.75 196.048 1519.2 Q194.242 1515.64 190.608 1515.64 M190.608 1511.93 Q196.418 1511.93 199.474 1516.54 Q202.552 1521.12 202.552 1529.87 Q202.552 1538.6 199.474 1543.21 Q196.418 1547.79 190.608 1547.79 Q184.798 1547.79 181.719 1543.21 Q178.664 1538.6 178.664 1529.87 Q178.664 1521.12 181.719 1516.54 Q184.798 1511.93 190.608 1511.93 Z" fill="#000000" fill-rule="evenodd" fill-opacity="1" /><path clip-path="url(#clip180)" d="M211.58 1543.18 L219.219 1543.18 L219.219 1516.82 L210.909 1518.49 L210.909 1514.23 L219.173 1512.56 L223.849 1512.56 L223.849 1543.18 L231.487 1543.18 L231.487 1547.12 L211.58 1547.12 L211.58 1543.18 Z" fill="#000000" fill-rule="evenodd" fill-opacity="1" /><path clip-path="url(#clip180)" d="M238.177 1532.24 L250.654 1532.24 L250.654 1536.03 L238.177 1536.03 L238.177 1532.24 Z" fill="#000000" fill-rule="evenodd" fill-opacity="1" /><path clip-path="url(#clip180)" d="M268.038 1515.64 Q264.427 1515.64 262.598 1519.2 Q260.793 1522.75 260.793 1529.87 Q260.793 1536.98 262.598 1540.55 Q264.427 1544.09 268.038 1544.09 Q271.672 1544.09 273.478 1540.55 Q275.307 1536.98 275.307 1529.87 Q275.307 1522.75 273.478 1519.2 Q271.672 1515.64 268.038 1515.64 M268.038 1511.93 Q273.848 1511.93 276.904 1516.54 Q279.982 1521.12 279.982 1529.87 Q279.982 1538.6 276.904 1543.21 Q273.848 1547.79 268.038 1547.79 Q262.228 1547.79 259.149 1543.21 Q256.094 1538.6 256.094 1529.87 Q256.094 1521.12 259.149 1516.54 Q262.228 1511.93 268.038 1511.93 Z" fill="#000000" fill-rule="evenodd" fill-opacity="1" /><path clip-path="url(#clip180)" d="M289.01 1543.18 L296.649 1543.18 L296.649 1516.82 L288.339 1518.49 L288.339 1514.23 L296.603 1512.56 L301.279 1512.56 L301.279 1543.18 L308.918 1543.18 L308.918 1547.12 L289.01 1547.12 L289.01 1543.18 Z" fill="#000000" fill-rule="evenodd" fill-opacity="1" /><path clip-path="url(#clip180)" d="M583.079 1543.18 L590.718 1543.18 L590.718 1516.82 L582.408 1518.49 L582.408 1514.23 L590.672 1512.56 L595.348 1512.56 L595.348 1543.18 L602.987 1543.18 L602.987 1547.12 L583.079 1547.12 L583.079 1543.18 Z" fill="#000000" fill-rule="evenodd" fill-opacity="1" /><path clip-path="url(#clip180)" d="M612.57 1546.4 L612.57 1542.14 Q614.329 1542.98 616.135 1543.42 Q617.94 1543.86 619.676 1543.86 Q624.306 1543.86 626.737 1540.75 Q629.19 1537.63 629.538 1531.29 Q628.195 1533.28 626.135 1534.34 Q624.075 1535.41 621.575 1535.41 Q616.389 1535.41 613.357 1532.28 Q610.348 1529.13 610.348 1523.69 Q610.348 1518.37 613.496 1515.15 Q616.644 1511.93 621.876 1511.93 Q627.871 1511.93 631.019 1516.54 Q634.19 1521.12 634.19 1529.87 Q634.19 1538.05 630.301 1542.93 Q626.436 1547.79 619.885 1547.79 Q618.126 1547.79 616.32 1547.44 Q614.514 1547.1 612.57 1546.4 M621.876 1531.75 Q625.024 1531.75 626.852 1529.6 Q628.704 1527.44 628.704 1523.69 Q628.704 1519.97 626.852 1517.81 Q625.024 1515.64 621.876 1515.64 Q618.727 1515.64 616.876 1517.81 Q615.047 1519.97 615.047 1523.69 Q615.047 1527.44 616.876 1529.6 Q618.727 1531.75 621.876 1531.75 Z" fill="#000000" fill-rule="evenodd" fill-opacity="1" /><path clip-path="url(#clip180)" d="M653.172 1527.98 Q650.024 1527.98 648.172 1530.13 Q646.343 1532.28 646.343 1536.03 Q646.343 1539.76 648.172 1541.93 Q650.024 1544.09 653.172 1544.09 Q656.32 1544.09 658.149 1541.93 Q660 1539.76 660 1536.03 Q660 1532.28 658.149 1530.13 Q656.32 1527.98 653.172 1527.98 M662.454 1513.32 L662.454 1517.58 Q660.695 1516.75 658.889 1516.31 Q657.107 1515.87 655.348 1515.87 Q650.718 1515.87 648.264 1519 Q645.834 1522.12 645.487 1528.44 Q646.852 1526.43 648.912 1525.36 Q650.973 1524.27 653.449 1524.27 Q658.658 1524.27 661.667 1527.44 Q664.699 1530.59 664.699 1536.03 Q664.699 1541.36 661.551 1544.57 Q658.403 1547.79 653.172 1547.79 Q647.176 1547.79 644.005 1543.21 Q640.834 1538.6 640.834 1529.87 Q640.834 1521.68 644.723 1516.82 Q648.612 1511.93 655.162 1511.93 Q656.922 1511.93 658.704 1512.28 Q660.51 1512.63 662.454 1513.32 Z" fill="#000000" fill-rule="evenodd" fill-opacity="1" /><path clip-path="url(#clip180)" d="M672.894 1546.4 L672.894 1542.14 Q674.653 1542.98 676.459 1543.42 Q678.264 1543.86 680 1543.86 Q684.63 1543.86 687.06 1540.75 Q689.514 1537.63 689.861 1531.29 Q688.519 1533.28 686.459 1534.34 Q684.398 1535.41 681.898 1535.41 Q676.713 1535.41 673.681 1532.28 Q670.672 1529.13 670.672 1523.69 Q670.672 1518.37 673.82 1515.15 Q676.968 1511.93 682.199 1511.93 Q688.195 1511.93 691.343 1516.54 Q694.514 1521.12 694.514 1529.87 Q694.514 1538.05 690.625 1542.93 Q686.759 1547.79 680.209 1547.79 Q678.449 1547.79 676.644 1547.44 Q674.838 1547.1 672.894 1546.4 M682.199 1531.75 Q685.347 1531.75 687.176 1529.6 Q689.028 1527.44 689.028 1523.69 Q689.028 1519.97 687.176 1517.81 Q685.347 1515.64 682.199 1515.64 Q679.051 1515.64 677.199 1517.81 Q675.371 1519.97 675.371 1523.69 Q675.371 1527.44 677.199 1529.6 Q679.051 1531.75 682.199 1531.75 Z" fill="#000000" fill-rule="evenodd" fill-opacity="1" /><path clip-path="url(#clip180)" d="M700.162 1532.24 L712.639 1532.24 L712.639 1536.03 L700.162 1536.03 L700.162 1532.24 Z" fill="#000000" fill-rule="evenodd" fill-opacity="1" /><path clip-path="url(#clip180)" d="M730.023 1515.64 Q726.412 1515.64 724.583 1519.2 Q722.778 1522.75 722.778 1529.87 Q722.778 1536.98 724.583 1540.55 Q726.412 1544.09 730.023 1544.09 Q733.657 1544.09 735.463 1540.55 Q737.292 1536.98 737.292 1529.87 Q737.292 1522.75 735.463 1519.2 Q733.657 1515.64 730.023 1515.64 M730.023 1511.93 Q735.833 1511.93 738.889 1516.54 Q741.968 1521.12 741.968 1529.87 Q741.968 1538.6 738.889 1543.21 Q735.833 1547.79 730.023 1547.79 Q724.213 1547.79 721.134 1543.21 Q718.079 1538.6 718.079 1529.87 Q718.079 1521.12 721.134 1516.54 Q724.213 1511.93 730.023 1511.93 Z" fill="#000000" fill-rule="evenodd" fill-opacity="1" /><path clip-path="url(#clip180)" d="M750.995 1543.18 L758.634 1543.18 L758.634 1516.82 L750.324 1518.49 L750.324 1514.23 L758.588 1512.56 L763.264 1512.56 L763.264 1543.18 L770.903 1543.18 L770.903 1547.12 L750.995 1547.12 L750.995 1543.18 Z" fill="#000000" fill-rule="evenodd" fill-opacity="1" /><path clip-path="url(#clip180)" d="M777.592 1532.24 L790.069 1532.24 L790.069 1536.03 L777.592 1536.03 L777.592 1532.24 Z" fill="#000000" fill-rule="evenodd" fill-opacity="1" /><path clip-path="url(#clip180)" d="M807.453 1515.64 Q803.842 1515.64 802.013 1519.2 Q800.208 1522.75 800.208 1529.87 Q800.208 1536.98 802.013 1540.55 Q803.842 1544.09 807.453 1544.09 Q811.088 1544.09 812.893 1540.55 Q814.722 1536.98 814.722 1529.87 Q814.722 1522.75 812.893 1519.2 Q811.088 1515.64 807.453 1515.64 M807.453 1511.93 Q813.263 1511.93 816.319 1516.54 Q819.398 1521.12 819.398 1529.87 Q819.398 1538.6 816.319 1543.21 Q813.263 1547.79 807.453 1547.79 Q801.643 1547.79 798.564 1543.21 Q795.509 1538.6 795.509 1529.87 Q795.509 1521.12 798.564 1516.54 Q801.643 1511.93 807.453 1511.93 Z" fill="#000000" fill-rule="evenodd" fill-opacity="1" /><path clip-path="url(#clip180)" d="M828.425 1543.18 L836.064 1543.18 L836.064 1516.82 L827.754 1518.49 L827.754 1514.23 L836.018 1512.56 L840.694 1512.56 L840.694 1543.18 L848.333 1543.18 L848.333 1547.12 L828.425 1547.12 L828.425 1543.18 Z" fill="#000000" fill-rule="evenodd" fill-opacity="1" /><path clip-path="url(#clip180)" d="M1122.41 1543.18 L1130.05 1543.18 L1130.05 1516.82 L1121.74 1518.49 L1121.74 1514.23 L1130.01 1512.56 L1134.68 1512.56 L1134.68 1543.18 L1142.32 1543.18 L1142.32 1547.12 L1122.41 1547.12 L1122.41 1543.18 Z" fill="#000000" fill-rule="evenodd" fill-opacity="1" /><path clip-path="url(#clip180)" d="M1151.9 1546.4 L1151.9 1542.14 Q1153.66 1542.98 1155.47 1543.42 Q1157.27 1543.86 1159.01 1543.86 Q1163.64 1543.86 1166.07 1540.75 Q1168.52 1537.63 1168.87 1531.29 Q1167.53 1533.28 1165.47 1534.34 Q1163.41 1535.41 1160.91 1535.41 Q1155.72 1535.41 1152.69 1532.28 Q1149.68 1529.13 1149.68 1523.69 Q1149.68 1518.37 1152.83 1515.15 Q1155.98 1511.93 1161.21 1511.93 Q1167.2 1511.93 1170.35 1516.54 Q1173.52 1521.12 1173.52 1529.87 Q1173.52 1538.05 1169.63 1542.93 Q1165.77 1547.79 1159.22 1547.79 Q1157.46 1547.79 1155.65 1547.44 Q1153.85 1547.1 1151.9 1546.4 M1161.21 1531.75 Q1164.36 1531.75 1166.19 1529.6 Q1168.04 1527.44 1168.04 1523.69 Q1168.04 1519.97 1166.19 1517.81 Q1164.36 1515.64 1161.21 1515.64 Q1158.06 1515.64 1156.21 1517.81 Q1154.38 1519.97 1154.38 1523.69 Q1154.38 1527.44 1156.21 1529.6 Q1158.06 1531.75 1161.21 1531.75 Z" fill="#000000" fill-rule="evenodd" fill-opacity="1" /><path clip-path="url(#clip180)" d="M1191.93 1530.71 Q1188.59 1530.71 1186.67 1532.49 Q1184.77 1534.27 1184.77 1537.4 Q1184.77 1540.52 1186.67 1542.31 Q1188.59 1544.09 1191.93 1544.09 Q1195.26 1544.09 1197.18 1542.31 Q1199.1 1540.5 1199.1 1537.4 Q1199.1 1534.27 1197.18 1532.49 Q1195.28 1530.71 1191.93 1530.71 M1187.25 1528.72 Q1184.24 1527.98 1182.55 1525.92 Q1180.88 1523.86 1180.88 1520.89 Q1180.88 1516.75 1183.82 1514.34 Q1186.79 1511.93 1191.93 1511.93 Q1197.09 1511.93 1200.03 1514.34 Q1202.97 1516.75 1202.97 1520.89 Q1202.97 1523.86 1201.28 1525.92 Q1199.61 1527.98 1196.63 1528.72 Q1200 1529.5 1201.88 1531.8 Q1203.78 1534.09 1203.78 1537.4 Q1203.78 1542.42 1200.7 1545.11 Q1197.64 1547.79 1191.93 1547.79 Q1186.21 1547.79 1183.13 1545.11 Q1180.07 1542.42 1180.07 1537.4 Q1180.07 1534.09 1181.97 1531.8 Q1183.87 1529.5 1187.25 1528.72 M1185.54 1521.33 Q1185.54 1524.02 1187.2 1525.52 Q1188.89 1527.03 1191.93 1527.03 Q1194.94 1527.03 1196.63 1525.52 Q1198.34 1524.02 1198.34 1521.33 Q1198.34 1518.65 1196.63 1517.14 Q1194.94 1515.64 1191.93 1515.64 Q1188.89 1515.64 1187.2 1517.14 Q1185.54 1518.65 1185.54 1521.33 Z" fill="#000000" fill-rule="evenodd" fill-opacity="1" /><path clip-path="url(#clip180)" d="M1210.91 1512.56 L1233.13 1512.56 L1233.13 1514.55 L1220.58 1547.12 L1215.7 1547.12 L1227.5 1516.5 L1210.91 1516.5 L1210.91 1512.56 Z" fill="#000000" fill-rule="evenodd" fill-opacity="1" /><path clip-path="url(#clip180)" d="M1239.5 1532.24 L1251.97 1532.24 L1251.97 1536.03 L1239.5 1536.03 L1239.5 1532.24 Z" fill="#000000" fill-rule="evenodd" fill-opacity="1" /><path clip-path="url(#clip180)" d="M1269.36 1515.64 Q1265.75 1515.64 1263.92 1519.2 Q1262.11 1522.75 1262.11 1529.87 Q1262.11 1536.98 1263.92 1540.55 Q1265.75 1544.09 1269.36 1544.09 Q1272.99 1544.09 1274.8 1540.55 Q1276.62 1536.98 1276.62 1529.87 Q1276.62 1522.75 1274.8 1519.2 Q1272.99 1515.64 1269.36 1515.64 M1269.36 1511.93 Q1275.17 1511.93 1278.22 1516.54 Q1281.3 1521.12 1281.3 1529.87 Q1281.3 1538.6 1278.22 1543.21 Q1275.17 1547.79 1269.36 1547.79 Q1263.55 1547.79 1260.47 1543.21 Q1257.41 1538.6 1257.41 1529.87 Q1257.41 1521.12 1260.47 1516.54 Q1263.55 1511.93 1269.36 1511.93 Z" fill="#000000" fill-rule="evenodd" fill-opacity="1" /><path clip-path="url(#clip180)" d="M1290.33 1543.18 L1297.97 1543.18 L1297.97 1516.82 L1289.66 1518.49 L1289.66 1514.23 L1297.92 1512.56 L1302.6 1512.56 L1302.6 1543.18 L1310.24 1543.18 L1310.24 1547.12 L1290.33 1547.12 L1290.33 1543.18 Z" fill="#000000" fill-rule="evenodd" fill-opacity="1" /><path clip-path="url(#clip180)" d="M1316.93 1532.24 L1329.4 1532.24 L1329.4 1536.03 L1316.93 1536.03 L1316.93 1532.24 Z" fill="#000000" fill-rule="evenodd" fill-opacity="1" /><path clip-path="url(#clip180)" d="M1346.79 1515.64 Q1343.18 1515.64 1341.35 1519.2 Q1339.54 1522.75 1339.54 1529.87 Q1339.54 1536.98 1341.35 1540.55 Q1343.18 1544.09 1346.79 1544.09 Q1350.42 1544.09 1352.23 1540.55 Q1354.05 1536.98 1354.05 1529.87 Q1354.05 1522.75 1352.23 1519.2 Q1350.42 1515.64 1346.79 1515.64 M1346.79 1511.93 Q1352.6 1511.93 1355.65 1516.54 Q1358.73 1521.12 1358.73 1529.87 Q1358.73 1538.6 1355.65 1543.21 Q1352.6 1547.79 1346.79 1547.79 Q1340.98 1547.79 1337.9 1543.21 Q1334.84 1538.6 1334.84 1529.87 Q1334.84 1521.12 1337.9 1516.54 Q1340.98 1511.93 1346.79 1511.93 Z" fill="#000000" fill-rule="evenodd" fill-opacity="1" /><path clip-path="url(#clip180)" d="M1367.76 1543.18 L1375.4 1543.18 L1375.4 1516.82 L1367.09 1518.49 L1367.09 1514.23 L1375.35 1512.56 L1380.03 1512.56 L1380.03 1543.18 L1387.67 1543.18 L1387.67 1547.12 L1367.76 1547.12 L1367.76 1543.18 Z" fill="#000000" fill-rule="evenodd" fill-opacity="1" /><path clip-path="url(#clip180)" d="M1665.91 1543.18 L1682.23 1543.18 L1682.23 1547.12 L1660.29 1547.12 L1660.29 1543.18 Q1662.95 1540.43 1667.53 1535.8 Q1672.14 1531.15 1673.32 1529.81 Q1675.57 1527.28 1676.45 1525.55 Q1677.35 1523.79 1677.35 1522.1 Q1677.35 1519.34 1675.4 1517.61 Q1673.48 1515.87 1670.38 1515.87 Q1668.18 1515.87 1665.73 1516.63 Q1663.3 1517.4 1660.52 1518.95 L1660.52 1514.23 Q1663.34 1513.09 1665.8 1512.51 Q1668.25 1511.93 1670.29 1511.93 Q1675.66 1511.93 1678.85 1514.62 Q1682.05 1517.31 1682.05 1521.8 Q1682.05 1523.93 1681.24 1525.85 Q1680.45 1527.74 1678.34 1530.34 Q1677.77 1531.01 1674.66 1534.23 Q1671.56 1537.42 1665.91 1543.18 Z" fill="#000000" fill-rule="evenodd" fill-opacity="1" /><path clip-path="url(#clip180)" d="M1702.05 1515.64 Q1698.44 1515.64 1696.61 1519.2 Q1694.8 1522.75 1694.8 1529.87 Q1694.8 1536.98 1696.61 1540.55 Q1698.44 1544.09 1702.05 1544.09 Q1705.68 1544.09 1707.49 1540.55 Q1709.32 1536.98 1709.32 1529.87 Q1709.32 1522.75 1707.49 1519.2 Q1705.68 1515.64 1702.05 1515.64 M1702.05 1511.93 Q1707.86 1511.93 1710.91 1516.54 Q1713.99 1521.12 1713.99 1529.87 Q1713.99 1538.6 1710.91 1543.21 Q1707.86 1547.79 1702.05 1547.79 Q1696.24 1547.79 1693.16 1543.21 Q1690.1 1538.6 1690.1 1529.87 Q1690.1 1521.12 1693.16 1516.54 Q1696.24 1511.93 1702.05 1511.93 Z" fill="#000000" fill-rule="evenodd" fill-opacity="1" /><path clip-path="url(#clip180)" d="M1732.21 1515.64 Q1728.6 1515.64 1726.77 1519.2 Q1724.96 1522.75 1724.96 1529.87 Q1724.96 1536.98 1726.77 1540.55 Q1728.6 1544.09 1732.21 1544.09 Q1735.84 1544.09 1737.65 1540.55 Q1739.48 1536.98 1739.48 1529.87 Q1739.48 1522.75 1737.65 1519.2 Q1735.84 1515.64 1732.21 1515.64 M1732.21 1511.93 Q1738.02 1511.93 1741.08 1516.54 Q1744.15 1521.12 1744.15 1529.87 Q1744.15 1538.6 1741.08 1543.21 Q1738.02 1547.79 1732.21 1547.79 Q1726.4 1547.79 1723.32 1543.21 Q1720.26 1538.6 1720.26 1529.87 Q1720.26 1521.12 1723.32 1516.54 Q1726.4 1511.93 1732.21 1511.93 Z" fill="#000000" fill-rule="evenodd" fill-opacity="1" /><path clip-path="url(#clip180)" d="M1752.42 1512.56 L1770.77 1512.56 L1770.77 1516.5 L1756.7 1516.5 L1756.7 1524.97 Q1757.72 1524.62 1758.74 1524.46 Q1759.76 1524.27 1760.77 1524.27 Q1766.56 1524.27 1769.94 1527.44 Q1773.32 1530.62 1773.32 1536.03 Q1773.32 1541.61 1769.85 1544.71 Q1766.38 1547.79 1760.06 1547.79 Q1757.88 1547.79 1755.61 1547.42 Q1753.37 1547.05 1750.96 1546.31 L1750.96 1541.61 Q1753.04 1542.74 1755.26 1543.3 Q1757.49 1543.86 1759.96 1543.86 Q1763.97 1543.86 1766.31 1541.75 Q1768.64 1539.64 1768.64 1536.03 Q1768.64 1532.42 1766.31 1530.31 Q1763.97 1528.21 1759.96 1528.21 Q1758.09 1528.21 1756.21 1528.62 Q1754.36 1529.04 1752.42 1529.92 L1752.42 1512.56 Z" fill="#000000" fill-rule="evenodd" fill-opacity="1" /><path clip-path="url(#clip180)" d="M1779.78 1532.24 L1792.26 1532.24 L1792.26 1536.03 L1779.78 1536.03 L1779.78 1532.24 Z" fill="#000000" fill-rule="evenodd" fill-opacity="1" /><path clip-path="url(#clip180)" d="M1809.64 1515.64 Q1806.03 1515.64 1804.2 1519.2 Q1802.39 1522.75 1802.39 1529.87 Q1802.39 1536.98 1804.2 1540.55 Q1806.03 1544.09 1809.64 1544.09 Q1813.27 1544.09 1815.08 1540.55 Q1816.91 1536.98 1816.91 1529.87 Q1816.91 1522.75 1815.08 1519.2 Q1813.27 1515.64 1809.64 1515.64 M1809.64 1511.93 Q1815.45 1511.93 1818.51 1516.54 Q1821.58 1521.12 1821.58 1529.87 Q1821.58 1538.6 1818.51 1543.21 Q1815.45 1547.79 1809.64 1547.79 Q1803.83 1547.79 1800.75 1543.21 Q1797.7 1538.6 1797.7 1529.87 Q1797.7 1521.12 1800.75 1516.54 Q1803.83 1511.93 1809.64 1511.93 Z" fill="#000000" fill-rule="evenodd" fill-opacity="1" /><path clip-path="url(#clip180)" d="M1830.61 1543.18 L1838.25 1543.18 L1838.25 1516.82 L1829.94 1518.49 L1829.94 1514.23 L1838.2 1512.56 L1842.88 1512.56 L1842.88 1543.18 L1850.52 1543.18 L1850.52 1547.12 L1830.61 1547.12 L1830.61 1543.18 Z" fill="#000000" fill-rule="evenodd" fill-opacity="1" /><path clip-path="url(#clip180)" d="M1857.21 1532.24 L1869.69 1532.24 L1869.69 1536.03 L1857.21 1536.03 L1857.21 1532.24 Z" fill="#000000" fill-rule="evenodd" fill-opacity="1" /><path clip-path="url(#clip180)" d="M1887.07 1515.64 Q1883.46 1515.64 1881.63 1519.2 Q1879.82 1522.75 1879.82 1529.87 Q1879.82 1536.98 1881.63 1540.55 Q1883.46 1544.09 1887.07 1544.09 Q1890.7 1544.09 1892.51 1540.55 Q1894.34 1536.98 1894.34 1529.87 Q1894.34 1522.75 1892.51 1519.2 Q1890.7 1515.64 1887.07 1515.64 M1887.07 1511.93 Q1892.88 1511.93 1895.94 1516.54 Q1899.01 1521.12 1899.01 1529.87 Q1899.01 1538.6 1895.94 1543.21 Q1892.88 1547.79 1887.07 1547.79 Q1881.26 1547.79 1878.18 1543.21 Q1875.13 1538.6 1875.13 1529.87 Q1875.13 1521.12 1878.18 1516.54 Q1881.26 1511.93 1887.07 1511.93 Z" fill="#000000" fill-rule="evenodd" fill-opacity="1" /><path clip-path="url(#clip180)" d="M1908.04 1543.18 L1915.68 1543.18 L1915.68 1516.82 L1907.37 1518.49 L1907.37 1514.23 L1915.63 1512.56 L1920.31 1512.56 L1920.31 1543.18 L1927.95 1543.18 L1927.95 1547.12 L1908.04 1547.12 L1908.04 1543.18 Z" fill="#000000" fill-rule="evenodd" fill-opacity="1" /><path clip-path="url(#clip180)" d="M2205.25 1543.18 L2221.57 1543.18 L2221.57 1547.12 L2199.62 1547.12 L2199.62 1543.18 Q2202.28 1540.43 2206.87 1535.8 Q2211.47 1531.15 2212.65 1529.81 Q2214.9 1527.28 2215.78 1525.55 Q2216.68 1523.79 2216.68 1522.1 Q2216.68 1519.34 2214.74 1517.61 Q2212.82 1515.87 2209.71 1515.87 Q2207.51 1515.87 2205.06 1516.63 Q2202.63 1517.4 2199.85 1518.95 L2199.85 1514.23 Q2202.68 1513.09 2205.13 1512.51 Q2207.58 1511.93 2209.62 1511.93 Q2214.99 1511.93 2218.19 1514.62 Q2221.38 1517.31 2221.38 1521.8 Q2221.38 1523.93 2220.57 1525.85 Q2219.78 1527.74 2217.68 1530.34 Q2217.1 1531.01 2214 1534.23 Q2210.89 1537.42 2205.25 1543.18 Z" fill="#000000" fill-rule="evenodd" fill-opacity="1" /><path clip-path="url(#clip180)" d="M2241.38 1515.64 Q2237.77 1515.64 2235.94 1519.2 Q2234.14 1522.75 2234.14 1529.87 Q2234.14 1536.98 2235.94 1540.55 Q2237.77 1544.09 2241.38 1544.09 Q2245.01 1544.09 2246.82 1540.55 Q2248.65 1536.98 2248.65 1529.87 Q2248.65 1522.75 2246.82 1519.2 Q2245.01 1515.64 2241.38 1515.64 M2241.38 1511.93 Q2247.19 1511.93 2250.25 1516.54 Q2253.32 1521.12 2253.32 1529.87 Q2253.32 1538.6 2250.25 1543.21 Q2247.19 1547.79 2241.38 1547.79 Q2235.57 1547.79 2232.49 1543.21 Q2229.44 1538.6 2229.44 1529.87 Q2229.44 1521.12 2232.49 1516.54 Q2235.57 1511.93 2241.38 1511.93 Z" fill="#000000" fill-rule="evenodd" fill-opacity="1" /><path clip-path="url(#clip180)" d="M2265.57 1543.18 L2281.89 1543.18 L2281.89 1547.12 L2259.95 1547.12 L2259.95 1543.18 Q2262.61 1540.43 2267.19 1535.8 Q2271.8 1531.15 2272.98 1529.81 Q2275.22 1527.28 2276.1 1525.55 Q2277.01 1523.79 2277.01 1522.1 Q2277.01 1519.34 2275.06 1517.61 Q2273.14 1515.87 2270.04 1515.87 Q2267.84 1515.87 2265.39 1516.63 Q2262.95 1517.4 2260.18 1518.95 L2260.18 1514.23 Q2263 1513.09 2265.45 1512.51 Q2267.91 1511.93 2269.95 1511.93 Q2275.32 1511.93 2278.51 1514.62 Q2281.7 1517.31 2281.7 1521.8 Q2281.7 1523.93 2280.89 1525.85 Q2280.11 1527.74 2278 1530.34 Q2277.42 1531.01 2274.32 1534.23 Q2271.22 1537.42 2265.57 1543.18 Z" fill="#000000" fill-rule="evenodd" fill-opacity="1" /><path clip-path="url(#clip180)" d="M2305.87 1528.49 Q2309.23 1529.2 2311.1 1531.47 Q2313 1533.74 2313 1537.07 Q2313 1542.19 2309.48 1544.99 Q2305.96 1547.79 2299.48 1547.79 Q2297.31 1547.79 2294.99 1547.35 Q2292.7 1546.93 2290.25 1546.08 L2290.25 1541.56 Q2292.19 1542.7 2294.51 1543.28 Q2296.82 1543.86 2299.34 1543.86 Q2303.74 1543.86 2306.03 1542.12 Q2308.35 1540.38 2308.35 1537.07 Q2308.35 1534.02 2306.2 1532.31 Q2304.07 1530.57 2300.25 1530.57 L2296.22 1530.57 L2296.22 1526.73 L2300.43 1526.73 Q2303.88 1526.73 2305.71 1525.36 Q2307.54 1523.97 2307.54 1521.38 Q2307.54 1518.72 2305.64 1517.31 Q2303.76 1515.87 2300.25 1515.87 Q2298.32 1515.87 2296.13 1516.29 Q2293.93 1516.7 2291.29 1517.58 L2291.29 1513.42 Q2293.95 1512.68 2296.26 1512.31 Q2298.6 1511.93 2300.66 1511.93 Q2305.99 1511.93 2309.09 1514.37 Q2312.19 1516.77 2312.19 1520.89 Q2312.19 1523.76 2310.55 1525.75 Q2308.9 1527.72 2305.87 1528.49 Z" fill="#000000" fill-rule="evenodd" fill-opacity="1" /><path clip-path="url(#clip180)" d="M2319.11 1532.24 L2331.59 1532.24 L2331.59 1536.03 L2319.11 1536.03 L2319.11 1532.24 Z" fill="#000000" fill-rule="evenodd" fill-opacity="1" /><path clip-path="url(#clip180)" d="M2348.97 1515.64 Q2345.36 1515.64 2343.53 1519.2 Q2341.73 1522.75 2341.73 1529.87 Q2341.73 1536.98 2343.53 1540.55 Q2345.36 1544.09 2348.97 1544.09 Q2352.61 1544.09 2354.41 1540.55 Q2356.24 1536.98 2356.24 1529.87 Q2356.24 1522.75 2354.41 1519.2 Q2352.61 1515.64 2348.97 1515.64 M2348.97 1511.93 Q2354.78 1511.93 2357.84 1516.54 Q2360.92 1521.12 2360.92 1529.87 Q2360.92 1538.6 2357.84 1543.21 Q2354.78 1547.79 2348.97 1547.79 Q2343.16 1547.79 2340.08 1543.21 Q2337.03 1538.6 2337.03 1529.87 Q2337.03 1521.12 2340.08 1516.54 Q2343.16 1511.93 2348.97 1511.93 Z" fill="#000000" fill-rule="evenodd" fill-opacity="1" /><path clip-path="url(#clip180)" d="M2369.94 1543.18 L2377.58 1543.18 L2377.58 1516.82 L2369.27 1518.49 L2369.27 1514.23 L2377.54 1512.56 L2382.21 1512.56 L2382.21 1543.18 L2389.85 1543.18 L2389.85 1547.12 L2369.94 1547.12 L2369.94 1543.18 Z" fill="#000000" fill-rule="evenodd" fill-opacity="1" /><path clip-path="url(#clip180)" d="M2396.54 1532.24 L2409.02 1532.24 L2409.02 1536.03 L2396.54 1536.03 L2396.54 1532.24 Z" fill="#000000" fill-rule="evenodd" fill-opacity="1" /><path clip-path="url(#clip180)" d="M2426.4 1515.64 Q2422.79 1515.64 2420.96 1519.2 Q2419.16 1522.75 2419.16 1529.87 Q2419.16 1536.98 2420.96 1540.55 Q2422.79 1544.09 2426.4 1544.09 Q2430.04 1544.09 2431.84 1540.55 Q2433.67 1536.98 2433.67 1529.87 Q2433.67 1522.75 2431.84 1519.2 Q2430.04 1515.64 2426.4 1515.64 M2426.4 1511.93 Q2432.21 1511.93 2435.27 1516.54 Q2438.35 1521.12 2438.35 1529.87 Q2438.35 1538.6 2435.27 1543.21 Q2432.21 1547.79 2426.4 1547.79 Q2420.59 1547.79 2417.51 1543.21 Q2414.46 1538.6 2414.46 1529.87 Q2414.46 1521.12 2417.51 1516.54 Q2420.59 1511.93 2426.4 1511.93 Z" fill="#000000" fill-rule="evenodd" fill-opacity="1" /><path clip-path="url(#clip180)" d="M2447.37 1543.18 L2455.01 1543.18 L2455.01 1516.82 L2446.7 1518.49 L2446.7 1514.23 L2454.97 1512.56 L2459.64 1512.56 L2459.64 1543.18 L2467.28 1543.18 L2467.28 1547.12 L2447.37 1547.12 L2447.37 1543.18 Z" fill="#000000" fill-rule="evenodd" fill-opacity="1" /><polyline clip-path="url(#clip182)" style="stroke:#000000; stroke-linecap:butt; stroke-linejoin:round; stroke-width:2; stroke-opacity:0.1; fill:none" points="
  169.121,1484.12 2352.76,1484.12 
  "/>
<polyline clip-path="url(#clip182)" style="stroke:#000000; stroke-linecap:butt; stroke-linejoin:round; stroke-width:2; stroke-opacity:0.1; fill:none" points="
  169.121,1270.89 2352.76,1270.89 
  "/>
<polyline clip-path="url(#clip182)" style="stroke:#000000; stroke-linecap:butt; stroke-linejoin:round; stroke-width:2; stroke-opacity:0.1; fill:none" points="
  169.121,1057.65 2352.76,1057.65 
  "/>
<polyline clip-path="url(#clip182)" style="stroke:#000000; stroke-linecap:butt; stroke-linejoin:round; stroke-width:2; stroke-opacity:0.1; fill:none" points="
  169.121,844.409 2352.76,844.409 
  "/>
<polyline clip-path="url(#clip182)" style="stroke:#000000; stroke-linecap:butt; stroke-linejoin:round; stroke-width:2; stroke-opacity:0.1; fill:none" points="
  169.121,631.171 2352.76,631.171 
  "/>
<polyline clip-path="url(#clip182)" style="stroke:#000000; stroke-linecap:butt; stroke-linejoin:round; stroke-width:2; stroke-opacity:0.1; fill:none" points="
  169.121,417.933 2352.76,417.933 
  "/>
<polyline clip-path="url(#clip182)" style="stroke:#000000; stroke-linecap:butt; stroke-linejoin:round; stroke-width:2; stroke-opacity:0.1; fill:none" points="
  169.121,204.695 2352.76,204.695 
  "/>
<polyline clip-path="url(#clip180)" style="stroke:#000000; stroke-linecap:butt; stroke-linejoin:round; stroke-width:4; stroke-opacity:1; fill:none" points="
  169.121,1486.45 169.121,123.472 
  "/>
<polyline clip-path="url(#clip180)" style="stroke:#000000; stroke-linecap:butt; stroke-linejoin:round; stroke-width:4; stroke-opacity:1; fill:none" points="
  169.121,1484.12 188.019,1484.12 
  "/>
<polyline clip-path="url(#clip180)" style="stroke:#000000; stroke-linecap:butt; stroke-linejoin:round; stroke-width:4; stroke-opacity:1; fill:none" points="
  169.121,1270.89 188.019,1270.89 
  "/>
<polyline clip-path="url(#clip180)" style="stroke:#000000; stroke-linecap:butt; stroke-linejoin:round; stroke-width:4; stroke-opacity:1; fill:none" points="
  169.121,1057.65 188.019,1057.65 
  "/>
<polyline clip-path="url(#clip180)" style="stroke:#000000; stroke-linecap:butt; stroke-linejoin:round; stroke-width:4; stroke-opacity:1; fill:none" points="
  169.121,844.409 188.019,844.409 
  "/>
<polyline clip-path="url(#clip180)" style="stroke:#000000; stroke-linecap:butt; stroke-linejoin:round; stroke-width:4; stroke-opacity:1; fill:none" points="
  169.121,631.171 188.019,631.171 
  "/>
<polyline clip-path="url(#clip180)" style="stroke:#000000; stroke-linecap:butt; stroke-linejoin:round; stroke-width:4; stroke-opacity:1; fill:none" points="
  169.121,417.933 188.019,417.933 
  "/>
<polyline clip-path="url(#clip180)" style="stroke:#000000; stroke-linecap:butt; stroke-linejoin:round; stroke-width:4; stroke-opacity:1; fill:none" points="
  169.121,204.695 188.019,204.695 
  "/>
<path clip-path="url(#clip180)" d="M81.0614 1466.84 L99.4178 1466.84 L99.4178 1470.78 L85.3438 1470.78 L85.3438 1479.25 Q86.3623 1478.9 87.3808 1478.74 Q88.3993 1478.56 89.4178 1478.56 Q95.2049 1478.56 98.5845 1481.73 Q101.964 1484.9 101.964 1490.32 Q101.964 1495.89 98.4919 1499 Q95.0197 1502.07 88.7003 1502.07 Q86.5243 1502.07 84.2558 1501.7 Q82.0105 1501.33 79.6031 1500.59 L79.6031 1495.89 Q81.6864 1497.03 83.9086 1497.58 Q86.1308 1498.14 88.6077 1498.14 Q92.6123 1498.14 94.9502 1496.03 Q97.2882 1493.93 97.2882 1490.32 Q97.2882 1486.7 94.9502 1484.6 Q92.6123 1482.49 88.6077 1482.49 Q86.7327 1482.49 84.8577 1482.91 Q83.0058 1483.32 81.0614 1484.2 L81.0614 1466.84 Z" fill="#000000" fill-rule="evenodd" fill-opacity="1" /><path clip-path="url(#clip180)" d="M121.177 1469.92 Q117.566 1469.92 115.737 1473.49 Q113.932 1477.03 113.932 1484.16 Q113.932 1491.26 115.737 1494.83 Q117.566 1498.37 121.177 1498.37 Q124.811 1498.37 126.617 1494.83 Q128.445 1491.26 128.445 1484.16 Q128.445 1477.03 126.617 1473.49 Q124.811 1469.92 121.177 1469.92 M121.177 1466.22 Q126.987 1466.22 130.043 1470.83 Q133.121 1475.41 133.121 1484.16 Q133.121 1492.89 130.043 1497.49 Q126.987 1502.07 121.177 1502.07 Q115.367 1502.07 112.288 1497.49 Q109.233 1492.89 109.233 1484.16 Q109.233 1475.41 112.288 1470.83 Q115.367 1466.22 121.177 1466.22 Z" fill="#000000" fill-rule="evenodd" fill-opacity="1" /><path clip-path="url(#clip180)" d="M91.5938 1269.02 Q88.4456 1269.02 86.5938 1271.17 Q84.7651 1273.33 84.7651 1277.08 Q84.7651 1280.8 86.5938 1282.98 Q88.4456 1285.13 91.5938 1285.13 Q94.7419 1285.13 96.5706 1282.98 Q98.4224 1280.8 98.4224 1277.08 Q98.4224 1273.33 96.5706 1271.17 Q94.7419 1269.02 91.5938 1269.02 M100.876 1254.37 L100.876 1258.63 Q99.1169 1257.8 97.3113 1257.36 Q95.5289 1256.92 93.7697 1256.92 Q89.1401 1256.92 86.6864 1260.04 Q84.2558 1263.17 83.9086 1269.48 Q85.2743 1267.47 87.3345 1266.41 Q89.3947 1265.32 91.8715 1265.32 Q97.0798 1265.32 100.089 1268.49 Q103.121 1271.64 103.121 1277.08 Q103.121 1282.4 99.9733 1285.62 Q96.8252 1288.84 91.5938 1288.84 Q85.5984 1288.84 82.4271 1284.25 Q79.2559 1279.65 79.2559 1270.92 Q79.2559 1262.73 83.1447 1257.86 Q87.0336 1252.98 93.5845 1252.98 Q95.3437 1252.98 97.1261 1253.33 Q98.9317 1253.67 100.876 1254.37 Z" fill="#000000" fill-rule="evenodd" fill-opacity="1" /><path clip-path="url(#clip180)" d="M121.177 1256.68 Q117.566 1256.68 115.737 1260.25 Q113.932 1263.79 113.932 1270.92 Q113.932 1278.03 115.737 1281.59 Q117.566 1285.13 121.177 1285.13 Q124.811 1285.13 126.617 1281.59 Q128.445 1278.03 128.445 1270.92 Q128.445 1263.79 126.617 1260.25 Q124.811 1256.68 121.177 1256.68 M121.177 1252.98 Q126.987 1252.98 130.043 1257.59 Q133.121 1262.17 133.121 1270.92 Q133.121 1279.65 130.043 1284.25 Q126.987 1288.84 121.177 1288.84 Q115.367 1288.84 112.288 1284.25 Q109.233 1279.65 109.233 1270.92 Q109.233 1262.17 112.288 1257.59 Q115.367 1252.98 121.177 1252.98 Z" fill="#000000" fill-rule="evenodd" fill-opacity="1" /><path clip-path="url(#clip180)" d="M79.8346 1040.37 L102.057 1040.37 L102.057 1042.36 L89.5104 1074.93 L84.6262 1074.93 L96.4317 1044.3 L79.8346 1044.3 L79.8346 1040.37 Z" fill="#000000" fill-rule="evenodd" fill-opacity="1" /><path clip-path="url(#clip180)" d="M121.177 1043.45 Q117.566 1043.45 115.737 1047.01 Q113.932 1050.55 113.932 1057.68 Q113.932 1064.79 115.737 1068.35 Q117.566 1071.89 121.177 1071.89 Q124.811 1071.89 126.617 1068.35 Q128.445 1064.79 128.445 1057.68 Q128.445 1050.55 126.617 1047.01 Q124.811 1043.45 121.177 1043.45 M121.177 1039.74 Q126.987 1039.74 130.043 1044.35 Q133.121 1048.93 133.121 1057.68 Q133.121 1066.41 130.043 1071.02 Q126.987 1075.6 121.177 1075.6 Q115.367 1075.6 112.288 1071.02 Q109.233 1066.41 109.233 1057.68 Q109.233 1048.93 112.288 1044.35 Q115.367 1039.74 121.177 1039.74 Z" fill="#000000" fill-rule="evenodd" fill-opacity="1" /><path clip-path="url(#clip180)" d="M91.0151 845.277 Q87.6817 845.277 85.7605 847.06 Q83.8623 848.842 83.8623 851.967 Q83.8623 855.092 85.7605 856.874 Q87.6817 858.657 91.0151 858.657 Q94.3484 858.657 96.2697 856.874 Q98.1909 855.069 98.1909 851.967 Q98.1909 848.842 96.2697 847.06 Q94.3715 845.277 91.0151 845.277 M86.3392 843.286 Q83.3299 842.546 81.6401 840.485 Q79.9735 838.425 79.9735 835.462 Q79.9735 831.319 82.9133 828.911 Q85.8762 826.504 91.0151 826.504 Q96.1771 826.504 99.1169 828.911 Q102.057 831.319 102.057 835.462 Q102.057 838.425 100.367 840.485 Q98.7002 842.546 95.7141 843.286 Q99.0937 844.073 100.969 846.365 Q102.867 848.657 102.867 851.967 Q102.867 856.99 99.7882 859.675 Q96.7326 862.36 91.0151 862.36 Q85.2975 862.36 82.2188 859.675 Q79.1633 856.99 79.1633 851.967 Q79.1633 848.657 81.0614 846.365 Q82.9595 844.073 86.3392 843.286 M84.6262 835.902 Q84.6262 838.587 86.2929 840.092 Q87.9827 841.597 91.0151 841.597 Q94.0243 841.597 95.7141 840.092 Q97.4271 838.587 97.4271 835.902 Q97.4271 833.217 95.7141 831.712 Q94.0243 830.208 91.0151 830.208 Q87.9827 830.208 86.2929 831.712 Q84.6262 833.217 84.6262 835.902 Z" fill="#000000" fill-rule="evenodd" fill-opacity="1" /><path clip-path="url(#clip180)" d="M121.177 830.208 Q117.566 830.208 115.737 833.773 Q113.932 837.314 113.932 844.444 Q113.932 851.55 115.737 855.115 Q117.566 858.657 121.177 858.657 Q124.811 858.657 126.617 855.115 Q128.445 851.55 128.445 844.444 Q128.445 837.314 126.617 833.773 Q124.811 830.208 121.177 830.208 M121.177 826.504 Q126.987 826.504 130.043 831.111 Q133.121 835.694 133.121 844.444 Q133.121 853.171 130.043 857.777 Q126.987 862.36 121.177 862.36 Q115.367 862.36 112.288 857.777 Q109.233 853.171 109.233 844.444 Q109.233 835.694 112.288 831.111 Q115.367 826.504 121.177 826.504 Z" fill="#000000" fill-rule="evenodd" fill-opacity="1" /><path clip-path="url(#clip180)" d="M81.154 647.733 L81.154 643.474 Q82.9133 644.307 84.7188 644.747 Q86.5243 645.187 88.2604 645.187 Q92.89 645.187 95.3206 642.085 Q97.7743 638.96 98.1215 632.618 Q96.7789 634.608 94.7187 635.673 Q92.6586 636.738 90.1586 636.738 Q84.9734 636.738 81.941 633.613 Q78.9318 630.465 78.9318 625.025 Q78.9318 619.701 82.0799 616.483 Q85.2281 613.266 90.4595 613.266 Q96.4548 613.266 99.603 617.872 Q102.774 622.456 102.774 631.206 Q102.774 639.377 98.8854 644.261 Q95.0197 649.122 88.4688 649.122 Q86.7095 649.122 84.904 648.775 Q83.0984 648.428 81.154 647.733 M90.4595 633.081 Q93.6076 633.081 95.4363 630.928 Q97.2882 628.775 97.2882 625.025 Q97.2882 621.298 95.4363 619.145 Q93.6076 616.97 90.4595 616.97 Q87.3114 616.97 85.4595 619.145 Q83.6308 621.298 83.6308 625.025 Q83.6308 628.775 85.4595 630.928 Q87.3114 633.081 90.4595 633.081 Z" fill="#000000" fill-rule="evenodd" fill-opacity="1" /><path clip-path="url(#clip180)" d="M121.177 616.97 Q117.566 616.97 115.737 620.534 Q113.932 624.076 113.932 631.206 Q113.932 638.312 115.737 641.877 Q117.566 645.418 121.177 645.418 Q124.811 645.418 126.617 641.877 Q128.445 638.312 128.445 631.206 Q128.445 624.076 126.617 620.534 Q124.811 616.97 121.177 616.97 M121.177 613.266 Q126.987 613.266 130.043 617.872 Q133.121 622.456 133.121 631.206 Q133.121 639.932 130.043 644.539 Q126.987 649.122 121.177 649.122 Q115.367 649.122 112.288 644.539 Q109.233 639.932 109.233 631.206 Q109.233 622.456 112.288 617.872 Q115.367 613.266 121.177 613.266 Z" fill="#000000" fill-rule="evenodd" fill-opacity="1" /><path clip-path="url(#clip180)" d="M51.6634 431.278 L59.3023 431.278 L59.3023 404.912 L50.9921 406.579 L50.9921 402.319 L59.256 400.653 L63.9319 400.653 L63.9319 431.278 L71.5707 431.278 L71.5707 435.213 L51.6634 435.213 L51.6634 431.278 Z" fill="#000000" fill-rule="evenodd" fill-opacity="1" /><path clip-path="url(#clip180)" d="M91.0151 403.731 Q87.404 403.731 85.5753 407.296 Q83.7697 410.838 83.7697 417.967 Q83.7697 425.074 85.5753 428.639 Q87.404 432.18 91.0151 432.18 Q94.6493 432.18 96.4548 428.639 Q98.2835 425.074 98.2835 417.967 Q98.2835 410.838 96.4548 407.296 Q94.6493 403.731 91.0151 403.731 M91.0151 400.028 Q96.8252 400.028 99.8808 404.634 Q102.959 409.217 102.959 417.967 Q102.959 426.694 99.8808 431.301 Q96.8252 435.884 91.0151 435.884 Q85.2049 435.884 82.1262 431.301 Q79.0707 426.694 79.0707 417.967 Q79.0707 409.217 82.1262 404.634 Q85.2049 400.028 91.0151 400.028 Z" fill="#000000" fill-rule="evenodd" fill-opacity="1" /><path clip-path="url(#clip180)" d="M121.177 403.731 Q117.566 403.731 115.737 407.296 Q113.932 410.838 113.932 417.967 Q113.932 425.074 115.737 428.639 Q117.566 432.18 121.177 432.18 Q124.811 432.18 126.617 428.639 Q128.445 425.074 128.445 417.967 Q128.445 410.838 126.617 407.296 Q124.811 403.731 121.177 403.731 M121.177 400.028 Q126.987 400.028 130.043 404.634 Q133.121 409.217 133.121 417.967 Q133.121 426.694 130.043 431.301 Q126.987 435.884 121.177 435.884 Q115.367 435.884 112.288 431.301 Q109.233 426.694 109.233 417.967 Q109.233 409.217 112.288 404.634 Q115.367 400.028 121.177 400.028 Z" fill="#000000" fill-rule="evenodd" fill-opacity="1" /><path clip-path="url(#clip180)" d="M51.6634 218.039 L59.3023 218.039 L59.3023 191.674 L50.9921 193.34 L50.9921 189.081 L59.256 187.415 L63.9319 187.415 L63.9319 218.039 L71.5707 218.039 L71.5707 221.975 L51.6634 221.975 L51.6634 218.039 Z" fill="#000000" fill-rule="evenodd" fill-opacity="1" /><path clip-path="url(#clip180)" d="M81.8253 218.039 L89.4641 218.039 L89.4641 191.674 L81.154 193.34 L81.154 189.081 L89.4178 187.415 L94.0937 187.415 L94.0937 218.039 L101.733 218.039 L101.733 221.975 L81.8253 221.975 L81.8253 218.039 Z" fill="#000000" fill-rule="evenodd" fill-opacity="1" /><path clip-path="url(#clip180)" d="M121.177 190.493 Q117.566 190.493 115.737 194.058 Q113.932 197.6 113.932 204.729 Q113.932 211.836 115.737 215.401 Q117.566 218.942 121.177 218.942 Q124.811 218.942 126.617 215.401 Q128.445 211.836 128.445 204.729 Q128.445 197.6 126.617 194.058 Q124.811 190.493 121.177 190.493 M121.177 186.79 Q126.987 186.79 130.043 191.396 Q133.121 195.979 133.121 204.729 Q133.121 213.456 130.043 218.063 Q126.987 222.646 121.177 222.646 Q115.367 222.646 112.288 218.063 Q109.233 213.456 109.233 204.729 Q109.233 195.979 112.288 191.396 Q115.367 186.79 121.177 186.79 Z" fill="#000000" fill-rule="evenodd" fill-opacity="1" /><path clip-path="url(#clip180)" d="M873.915 16.7545 L873.915 25.383 Q869.783 21.5346 865.084 19.6307 Q860.426 17.7268 855.16 17.7268 Q844.789 17.7268 839.28 24.0867 Q833.771 30.4061 833.771 42.3968 Q833.771 54.3469 839.28 60.7069 Q844.789 67.0263 855.16 67.0263 Q860.426 67.0263 865.084 65.1223 Q869.783 63.2184 873.915 59.3701 L873.915 67.9175 Q869.621 70.8341 864.801 72.2924 Q860.021 73.7508 854.673 73.7508 Q840.941 73.7508 833.042 65.3654 Q825.142 56.9395 825.142 42.3968 Q825.142 27.8135 833.042 19.4281 Q840.941 11.0023 854.673 11.0023 Q860.102 11.0023 864.882 12.4606 Q869.702 13.8784 873.915 16.7545 Z" fill="#000000" fill-rule="evenodd" fill-opacity="1" /><path clip-path="url(#clip180)" d="M903.811 32.4315 Q897.816 32.4315 894.332 37.1306 Q890.848 41.7891 890.848 49.9314 Q890.848 58.0738 894.291 62.7728 Q897.775 67.4314 903.811 67.4314 Q909.766 67.4314 913.25 62.7323 Q916.733 58.0333 916.733 49.9314 Q916.733 41.8701 913.25 37.1711 Q909.766 32.4315 903.811 32.4315 M903.811 26.1121 Q913.533 26.1121 919.083 32.4315 Q924.633 38.7509 924.633 49.9314 Q924.633 61.0714 919.083 67.4314 Q913.533 73.7508 903.811 73.7508 Q894.048 73.7508 888.498 67.4314 Q882.989 61.0714 882.989 49.9314 Q882.989 38.7509 888.498 32.4315 Q894.048 26.1121 903.811 26.1121 Z" fill="#000000" fill-rule="evenodd" fill-opacity="1" /><path clip-path="url(#clip180)" d="M974.702 45.1919 L974.702 72.576 L967.248 72.576 L967.248 45.4349 Q967.248 38.994 964.736 35.7938 Q962.225 32.5936 957.202 32.5936 Q951.166 32.5936 947.682 36.4419 Q944.198 40.2903 944.198 46.9338 L944.198 72.576 L936.704 72.576 L936.704 27.2059 L944.198 27.2059 L944.198 34.2544 Q946.872 30.163 950.477 28.1376 Q954.123 26.1121 958.863 26.1121 Q966.681 26.1121 970.691 30.9732 Q974.702 35.7938 974.702 45.1919 Z" fill="#000000" fill-rule="evenodd" fill-opacity="1" /><path clip-path="url(#clip180)" d="M1018.49 28.5427 L1018.49 35.5912 Q1015.33 33.9709 1011.93 33.1607 Q1008.53 32.3505 1004.88 32.3505 Q999.331 32.3505 996.536 34.0519 Q993.781 35.7533 993.781 39.156 Q993.781 41.7486 995.766 43.2475 Q997.751 44.7058 1003.75 46.0426 L1006.3 46.6097 Q1014.24 48.3111 1017.56 51.4303 Q1020.92 54.509 1020.92 60.0587 Q1020.92 66.3781 1015.9 70.0644 Q1010.92 73.7508 1002.17 73.7508 Q998.521 73.7508 994.551 73.0216 Q990.622 72.3329 986.247 70.9151 L986.247 63.2184 Q990.379 65.3654 994.389 66.4591 Q998.4 67.5124 1002.33 67.5124 Q1007.6 67.5124 1010.43 65.73 Q1013.27 63.9071 1013.27 60.6258 Q1013.27 57.5877 1011.2 55.9673 Q1009.17 54.3469 1002.25 52.8481 L999.655 52.2405 Q992.728 50.7821 989.65 47.7845 Q986.571 44.7463 986.571 39.4801 Q986.571 33.0797 991.108 29.5959 Q995.645 26.1121 1003.99 26.1121 Q1008.12 26.1121 1011.77 26.7198 Q1015.41 27.3274 1018.49 28.5427 Z" fill="#000000" fill-rule="evenodd" fill-opacity="1" /><path clip-path="url(#clip180)" d="M1032.02 54.671 L1032.02 27.2059 L1039.48 27.2059 L1039.48 54.3874 Q1039.48 60.8284 1041.99 64.0691 Q1044.5 67.2693 1049.52 67.2693 Q1055.56 67.2693 1059.04 63.421 Q1062.57 59.5726 1062.57 52.9291 L1062.57 27.2059 L1070.02 27.2059 L1070.02 72.576 L1062.57 72.576 L1062.57 65.6084 Q1059.85 69.7404 1056.25 71.7658 Q1052.68 73.7508 1047.94 73.7508 Q1040.12 73.7508 1036.07 68.8897 Q1032.02 64.0286 1032.02 54.671 M1050.78 26.1121 L1050.78 26.1121 Z" fill="#000000" fill-rule="evenodd" fill-opacity="1" /><path clip-path="url(#clip180)" d="M1120.7 35.9153 Q1123.49 30.8922 1127.38 28.5022 Q1131.27 26.1121 1136.54 26.1121 Q1143.62 26.1121 1147.47 31.0947 Q1151.32 36.0368 1151.32 45.1919 L1151.32 72.576 L1143.83 72.576 L1143.83 45.4349 Q1143.83 38.913 1141.52 35.7533 Q1139.21 32.5936 1134.47 32.5936 Q1128.68 32.5936 1125.31 36.4419 Q1121.95 40.2903 1121.95 46.9338 L1121.95 72.576 L1114.46 72.576 L1114.46 45.4349 Q1114.46 38.8725 1112.15 35.7533 Q1109.84 32.5936 1105.02 32.5936 Q1099.31 32.5936 1095.95 36.4824 Q1092.58 40.3308 1092.58 46.9338 L1092.58 72.576 L1085.09 72.576 L1085.09 27.2059 L1092.58 27.2059 L1092.58 34.2544 Q1095.14 30.082 1098.7 28.0971 Q1102.26 26.1121 1107.17 26.1121 Q1112.11 26.1121 1115.55 28.6237 Q1119.04 31.1352 1120.7 35.9153 Z" fill="#000000" fill-rule="evenodd" fill-opacity="1" /><path clip-path="url(#clip180)" d="M1205 48.0275 L1205 51.6733 L1170.72 51.6733 Q1171.21 59.3701 1175.34 63.421 Q1179.52 67.4314 1186.93 67.4314 Q1191.22 67.4314 1195.23 66.3781 Q1199.28 65.3249 1203.25 63.2184 L1203.25 70.267 Q1199.24 71.9684 1195.03 72.8596 Q1190.82 73.7508 1186.48 73.7508 Q1175.63 73.7508 1169.27 67.4314 Q1162.95 61.1119 1162.95 50.3365 Q1162.95 39.1965 1168.94 32.6746 Q1174.98 26.1121 1185.19 26.1121 Q1194.34 26.1121 1199.65 32.0264 Q1205 37.9003 1205 48.0275 M1197.54 45.84 Q1197.46 39.7232 1194.1 36.0774 Q1190.78 32.4315 1185.27 32.4315 Q1179.03 32.4315 1175.26 35.9558 Q1171.54 39.4801 1170.97 45.8805 L1197.54 45.84 Z" fill="#000000" fill-rule="evenodd" fill-opacity="1" /><path clip-path="url(#clip180)" d="M1243.52 34.1734 Q1242.26 33.4443 1240.77 33.1202 Q1239.31 32.7556 1237.52 32.7556 Q1231.2 32.7556 1227.8 36.8875 Q1224.44 40.9789 1224.44 48.6757 L1224.44 72.576 L1216.95 72.576 L1216.95 27.2059 L1224.44 27.2059 L1224.44 34.2544 Q1226.79 30.1225 1230.56 28.1376 Q1234.32 26.1121 1239.71 26.1121 Q1240.48 26.1121 1241.41 26.2337 Q1242.34 26.3147 1243.48 26.5172 L1243.52 34.1734 Z" fill="#000000" fill-rule="evenodd" fill-opacity="1" /><path clip-path="url(#clip180)" d="M1314.29 14.0809 L1314.29 22.0612 Q1309.63 19.8332 1305.5 18.7395 Q1301.37 17.6457 1297.52 17.6457 Q1290.83 17.6457 1287.19 20.2383 Q1283.58 22.8309 1283.58 27.611 Q1283.58 31.6214 1285.97 33.6873 Q1288.4 35.7128 1295.13 36.9686 L1300.07 37.9813 Q1309.23 39.7232 1313.56 44.1387 Q1317.93 48.5136 1317.93 55.8863 Q1317.93 64.6767 1312.02 69.2137 Q1306.15 73.7508 1294.76 73.7508 Q1290.47 73.7508 1285.61 72.7785 Q1280.79 71.8063 1275.6 69.9024 L1275.6 61.4765 Q1280.59 64.2716 1285.37 65.6895 Q1290.15 67.1073 1294.76 67.1073 Q1301.77 67.1073 1305.58 64.3527 Q1309.39 61.598 1309.39 56.4939 Q1309.39 52.0379 1306.63 49.5264 Q1303.92 47.0148 1297.68 45.759 L1292.7 44.7868 Q1283.54 42.9639 1279.45 39.075 Q1275.36 35.1862 1275.36 28.2591 Q1275.36 20.2383 1280.99 15.6203 Q1286.66 11.0023 1296.59 11.0023 Q1300.84 11.0023 1305.26 11.7719 Q1309.67 12.5416 1314.29 14.0809 Z" fill="#000000" fill-rule="evenodd" fill-opacity="1" /><path clip-path="url(#clip180)" d="M1369.18 48.0275 L1369.18 51.6733 L1334.91 51.6733 Q1335.39 59.3701 1339.53 63.421 Q1343.7 67.4314 1351.11 67.4314 Q1355.41 67.4314 1359.42 66.3781 Q1363.47 65.3249 1367.44 63.2184 L1367.44 70.267 Q1363.43 71.9684 1359.21 72.8596 Q1355 73.7508 1350.67 73.7508 Q1339.81 73.7508 1333.45 67.4314 Q1327.13 61.1119 1327.13 50.3365 Q1327.13 39.1965 1333.13 32.6746 Q1339.16 26.1121 1349.37 26.1121 Q1358.52 26.1121 1363.83 32.0264 Q1369.18 37.9003 1369.18 48.0275 M1361.73 45.84 Q1361.64 39.7232 1358.28 36.0774 Q1354.96 32.4315 1349.45 32.4315 Q1343.21 32.4315 1339.45 35.9558 Q1335.72 39.4801 1335.15 45.8805 L1361.73 45.84 Z" fill="#000000" fill-rule="evenodd" fill-opacity="1" /><path clip-path="url(#clip180)" d="M1419.13 45.1919 L1419.13 72.576 L1411.67 72.576 L1411.67 45.4349 Q1411.67 38.994 1409.16 35.7938 Q1406.65 32.5936 1401.63 32.5936 Q1395.59 32.5936 1392.11 36.4419 Q1388.62 40.2903 1388.62 46.9338 L1388.62 72.576 L1381.13 72.576 L1381.13 27.2059 L1388.62 27.2059 L1388.62 34.2544 Q1391.3 30.163 1394.9 28.1376 Q1398.55 26.1121 1403.29 26.1121 Q1411.11 26.1121 1415.12 30.9732 Q1419.13 35.7938 1419.13 45.1919 Z" fill="#000000" fill-rule="evenodd" fill-opacity="1" /><path clip-path="url(#clip180)" d="M1441.37 14.324 L1441.37 27.2059 L1456.72 27.2059 L1456.72 32.9987 L1441.37 32.9987 L1441.37 57.6282 Q1441.37 63.1779 1442.86 64.7578 Q1444.4 66.3376 1449.06 66.3376 L1456.72 66.3376 L1456.72 72.576 L1449.06 72.576 Q1440.43 72.576 1437.15 69.3758 Q1433.87 66.1351 1433.87 57.6282 L1433.87 32.9987 L1428.4 32.9987 L1428.4 27.2059 L1433.87 27.2059 L1433.87 14.324 L1441.37 14.324 Z" fill="#000000" fill-rule="evenodd" fill-opacity="1" /><path clip-path="url(#clip180)" d="M1466.52 27.2059 L1473.98 27.2059 L1473.98 72.576 L1466.52 72.576 L1466.52 27.2059 M1466.52 9.54393 L1473.98 9.54393 L1473.98 18.9825 L1466.52 18.9825 L1466.52 9.54393 Z" fill="#000000" fill-rule="evenodd" fill-opacity="1" /><path clip-path="url(#clip180)" d="M1524.9 35.9153 Q1527.69 30.8922 1531.58 28.5022 Q1535.47 26.1121 1540.73 26.1121 Q1547.82 26.1121 1551.67 31.0947 Q1555.52 36.0368 1555.52 45.1919 L1555.52 72.576 L1548.03 72.576 L1548.03 45.4349 Q1548.03 38.913 1545.72 35.7533 Q1543.41 32.5936 1538.67 32.5936 Q1532.88 32.5936 1529.51 36.4419 Q1526.15 40.2903 1526.15 46.9338 L1526.15 72.576 L1518.66 72.576 L1518.66 45.4349 Q1518.66 38.8725 1516.35 35.7533 Q1514.04 32.5936 1509.22 32.5936 Q1503.51 32.5936 1500.14 36.4824 Q1496.78 40.3308 1496.78 46.9338 L1496.78 72.576 L1489.29 72.576 L1489.29 27.2059 L1496.78 27.2059 L1496.78 34.2544 Q1499.33 30.082 1502.9 28.0971 Q1506.46 26.1121 1511.37 26.1121 Q1516.31 26.1121 1519.75 28.6237 Q1523.23 31.1352 1524.9 35.9153 Z" fill="#000000" fill-rule="evenodd" fill-opacity="1" /><path clip-path="url(#clip180)" d="M1609.19 48.0275 L1609.19 51.6733 L1574.92 51.6733 Q1575.41 59.3701 1579.54 63.421 Q1583.71 67.4314 1591.13 67.4314 Q1595.42 67.4314 1599.43 66.3781 Q1603.48 65.3249 1607.45 63.2184 L1607.45 70.267 Q1603.44 71.9684 1599.23 72.8596 Q1595.02 73.7508 1590.68 73.7508 Q1579.83 73.7508 1573.47 67.4314 Q1567.15 61.1119 1567.15 50.3365 Q1567.15 39.1965 1573.14 32.6746 Q1579.18 26.1121 1589.39 26.1121 Q1598.54 26.1121 1603.85 32.0264 Q1609.19 37.9003 1609.19 48.0275 M1601.74 45.84 Q1601.66 39.7232 1598.3 36.0774 Q1594.98 32.4315 1589.47 32.4315 Q1583.23 32.4315 1579.46 35.9558 Q1575.73 39.4801 1575.17 45.8805 L1601.74 45.84 Z" fill="#000000" fill-rule="evenodd" fill-opacity="1" /><path clip-path="url(#clip180)" d="M1659.14 45.1919 L1659.14 72.576 L1651.69 72.576 L1651.69 45.4349 Q1651.69 38.994 1649.18 35.7938 Q1646.67 32.5936 1641.64 32.5936 Q1635.61 32.5936 1632.12 36.4419 Q1628.64 40.2903 1628.64 46.9338 L1628.64 72.576 L1621.15 72.576 L1621.15 27.2059 L1628.64 27.2059 L1628.64 34.2544 Q1631.31 30.163 1634.92 28.1376 Q1638.56 26.1121 1643.3 26.1121 Q1651.12 26.1121 1655.13 30.9732 Q1659.14 35.7938 1659.14 45.1919 Z" fill="#000000" fill-rule="evenodd" fill-opacity="1" /><path clip-path="url(#clip180)" d="M1681.38 14.324 L1681.38 27.2059 L1696.73 27.2059 L1696.73 32.9987 L1681.38 32.9987 L1681.38 57.6282 Q1681.38 63.1779 1682.88 64.7578 Q1684.42 66.3376 1689.08 66.3376 L1696.73 66.3376 L1696.73 72.576 L1689.08 72.576 Q1680.45 72.576 1677.17 69.3758 Q1673.89 66.1351 1673.89 57.6282 L1673.89 32.9987 L1668.42 32.9987 L1668.42 27.2059 L1673.89 27.2059 L1673.89 14.324 L1681.38 14.324 Z" fill="#000000" fill-rule="evenodd" fill-opacity="1" /><polyline clip-path="url(#clip182)" style="stroke:#009af9; stroke-linecap:butt; stroke-linejoin:round; stroke-width:4; stroke-opacity:1; fill:none" points="
  2290.95,1051.25 2288.41,818.82 2285.95,727.128 2283.41,782.57 2280.95,667.421 2278.4,739.922 2276.11,912.645 2273.56,865.733 2271.02,829.482 2268.56,910.513 
  2266.01,806.026 2263.55,835.88 2261.01,970.22 2258.47,1004.34 2256.01,884.924 2253.46,1008.6 2251,1019.26 2248.46,650.362 2246.08,396.609 2243.54,422.197 
  2240.99,432.859 2238.53,486.169 2235.99,513.89 2233.53,562.935 2230.98,635.436 2228.44,452.051 2225.98,456.316 2223.44,417.933 2220.97,477.639 2218.43,452.051 
  2216.13,550.14 2213.59,605.582 2211.05,454.183 2208.59,471.242 2206.04,447.786 2203.58,415.8 2201.04,498.963 2198.5,462.713 2196.03,456.316 2193.49,460.58 
  2191.03,443.521 2188.49,388.079 2186.19,424.33 2183.65,509.625 2181.1,505.36 2178.64,449.918 2176.1,403.006 2173.64,522.419 2171.09,486.169 2168.55,558.67 
  2166.09,524.552 2163.55,479.772 2161.09,481.904 2158.54,484.037 2156.24,496.831 2153.7,449.918 2151.16,456.316 2148.7,550.14 2146.15,690.878 2143.69,605.582 
  2141.15,635.436 2138.61,631.171 2136.14,556.538 2133.6,530.949 2131.14,652.495 2128.6,609.847 2126.22,594.92 2123.67,588.523 2121.13,575.729 2118.67,603.45 
  2116.13,631.171 2113.67,690.878 2111.12,590.656 2108.58,565.067 2106.12,501.096 2103.57,616.244 2101.11,505.36 2098.57,567.199 2096.27,516.022 2093.73,458.448 
  2091.19,554.405 2088.73,656.759 2086.18,697.275 2083.72,746.32 2081.18,791.1 2078.63,806.026 2076.17,791.1 2073.63,803.894 2071.17,756.981 2068.63,844.409 
  2066.33,810.291 2063.79,818.82 2061.24,791.1 2058.78,948.896 2056.24,989.411 2053.78,897.719 2051.23,799.629 2048.69,735.658 2046.23,756.981 2043.69,748.452 
  2041.22,921.175 2038.68,874.262 2036.38,895.586 2033.84,976.617 2031.3,995.808 2028.84,786.835 2026.29,788.967 2023.83,880.66 2021.29,965.955 2018.75,1008.6 
  2016.28,989.411 2013.74,859.336 2011.28,921.175 2008.74,925.44 2006.36,944.631 2003.81,951.028 2001.27,1059.78 1998.81,1191.99 1996.27,1253.83 1993.8,1281.55 
  1991.26,1360.45 1988.72,1191.99 1986.26,1025.66 1983.71,965.955 1981.25,1061.91 1978.71,1110.96 1976.41,897.719 1973.87,968.087 1971.33,961.69 1968.86,1023.53 
  1966.32,1106.69 1963.86,1096.03 1961.32,1081.1 1958.77,1104.56 1956.31,929.704 1953.77,980.881 1951.31,1010.73 1948.76,980.881 1946.47,980.881 1943.92,963.822 
  1941.38,1004.34 1938.92,1113.09 1936.38,1044.85 1933.92,983.014 1931.37,1149.34 1928.83,1142.94 1926.37,1040.59 1923.82,1085.37 1921.36,1162.13 1918.82,1328.46 
  1916.52,1349.78 1913.98,1245.3 1911.44,1268.75 1908.98,1371.11 1906.43,1322.06 1903.97,1051.25 1901.43,1206.91 1898.88,1245.3 1896.42,1347.65 1893.88,1275.15 
  1891.42,1215.44 1888.88,1068.31 1886.5,1040.59 1883.95,878.527 1881.41,940.366 1878.95,927.572 1876.41,825.218 1873.94,771.908 1871.4,771.908 1868.86,622.641 
  1866.4,731.393 1863.85,667.421 1861.39,693.01 1858.85,665.289 1856.55,603.45 1854.01,484.037 1851.46,594.92 1849,586.391 1846.46,554.405 1844,729.26 
  1841.46,801.761 1838.91,744.187 1836.45,739.922 1833.91,863.6 1831.45,686.613 1828.9,654.627 1826.61,701.539 1824.06,605.582 1821.52,599.185 1819.06,810.291 
  1816.52,968.087 1814.05,910.513 1811.51,650.362 1808.97,492.566 1806.51,503.228 1803.96,697.275 1801.5,680.216 1798.96,575.729 1796.66,543.743 1794.12,513.89 
  1791.58,479.772 1789.11,571.464 1786.57,594.92 1784.11,541.611 1781.57,505.36 1779.02,488.301 1776.56,511.758 1774.02,626.906 1771.56,541.611 1769.01,507.493 
  1766.64,537.346 1764.09,336.902 1761.55,575.729 1759.09,552.273 1756.54,639.7 1754.08,680.216 1751.54,646.098 1749,611.979 1746.54,637.568 1743.99,586.391 
  1741.53,716.466 1738.99,895.586 1736.69,846.541 1734.15,793.232 1731.6,701.539 1729.14,754.849 1726.6,831.615 1724.14,714.334 1721.6,682.348 1719.05,671.686 
  1716.59,579.994 1714.05,484.037 1711.59,567.199 1709.04,509.625 1706.75,616.244 1704.2,567.199 1701.66,656.759 1699.2,761.246 1696.65,786.835 1694.19,806.026 
  1691.65,599.185 1689.11,579.994 1686.65,575.729 1684.1,588.523 1681.64,665.289 1679.1,599.185 1676.8,618.377 1674.26,530.949 1671.71,452.051 1669.25,255.872 
  1666.71,294.255 1664.25,272.931 1661.71,262.269 1659.16,240.945 1656.7,281.46 1654.16,189.768 1651.7,221.754 1649.15,266.534 1646.77,176.974 1644.23,162.047 
  1641.69,302.784 1639.23,264.401 1636.68,349.697 1634.22,264.401 1631.68,321.976 1629.14,289.99 1626.67,262.269 1624.13,272.931 1621.67,319.843 1619.13,296.387 
  1616.83,245.21 1614.29,334.77 1611.74,407.271 1609.28,360.358 1606.74,473.375 1604.28,398.741 1601.73,324.108 1599.19,307.049 1596.73,298.519 1594.19,279.328 
  1591.73,232.416 1589.18,279.328 1586.88,196.165 1584.34,277.196 1581.8,373.153 1579.34,264.401 1576.79,298.519 1574.33,289.99 1571.79,324.108 1569.25,266.534 
  1566.78,321.976 1564.24,349.697 1561.78,388.079 1559.24,417.933 1556.94,424.33 1554.4,473.375 1551.85,484.037 1549.39,434.992 1546.85,492.566 1544.39,530.949 
  1541.84,518.155 1539.3,530.949 1536.84,579.994 1534.3,643.965 1531.84,573.597 1529.29,552.273 1526.91,663.157 1524.37,646.098 1521.83,609.847 1519.37,669.554 
  1516.82,626.906 1514.36,654.627 1511.82,498.963 1509.27,537.346 1506.81,573.597 1504.27,635.436 1501.81,577.861 1499.27,624.774 1496.97,522.419 1494.43,469.11 
  1491.88,522.419 1489.42,597.053 1486.88,573.597 1484.42,599.185 1481.87,594.92 1479.33,652.495 1476.87,605.582 1474.33,571.464 1471.86,575.729 1469.32,599.185 
  1467.02,562.935 1464.48,539.478 1461.94,669.554 1459.48,818.82 1456.93,786.835 1454.47,889.189 1451.93,901.983 1449.39,908.381 1446.92,812.423 1444.38,838.012 
  1441.92,724.996 1439.38,718.599 1437.08,703.672 1434.54,646.098 1431.99,609.847 1429.53,731.393 1426.99,987.279 1424.53,938.234 1421.98,927.572 1419.44,916.91 
  1416.98,835.88 1414.44,861.468 1411.97,904.116 1409.43,929.704 1407.05,1083.24 1404.51,1110.96 1401.97,1096.03 1399.5,1076.84 1396.96,880.66 1394.5,780.438 
  1391.96,801.761 1389.41,782.57 1386.95,799.629 1384.41,880.66 1381.95,806.026 1379.4,680.216 1377.11,1049.12 1374.56,1125.88 1372.02,1153.6 1369.56,1142.94 
  1367.02,1187.72 1364.56,997.941 1362.01,921.175 1359.47,669.554 1357.01,667.421 1354.46,618.377 1352,548.008 1349.46,603.45 1347.16,641.833 1344.62,567.199 
  1342.08,620.509 1339.62,611.979 1337.07,548.008 1334.61,507.493 1332.07,639.7 1329.52,588.523 1327.06,618.377 1324.52,616.244 1322.06,599.185 1319.52,539.478 
  1317.22,516.022 1314.68,462.713 1312.13,590.656 1309.67,567.199 1307.13,543.743 1304.67,475.507 1302.12,473.375 1299.58,558.67 1297.12,530.949 1294.58,528.817 
  1292.11,605.582 1289.57,533.081 1287.19,597.053 1284.65,614.112 1282.11,699.407 1279.64,778.305 1277.1,646.098 1274.64,554.405 1272.1,537.346 1269.55,552.273 
  1267.09,599.185 1264.55,607.715 1262.09,571.464 1259.54,614.112 1257.25,626.906 1254.7,622.641 1252.16,650.362 1249.7,601.318 1247.16,511.758 1244.69,590.656 
  1242.15,526.684 1239.61,466.977 1237.15,432.859 1234.6,528.817 1232.14,498.963 1229.6,522.419 1227.3,505.36 1224.76,511.758 1222.22,548.008 1219.75,611.979 
  1217.21,665.289 1214.75,586.391 1212.21,579.994 1209.66,545.876 1207.2,492.566 1204.66,592.788 1202.2,533.081 1199.65,552.273 1197.36,552.273 1194.81,503.228 
  1192.27,569.332 1189.81,509.625 1187.27,496.831 1184.81,398.741 1182.26,437.124 1179.72,490.434 1177.26,513.89 1174.71,458.448 1172.25,501.096 1169.71,396.609 
  1167.33,473.375 1164.79,415.8 1162.24,541.611 1159.78,607.715 1157.24,646.098 1154.78,633.303 1152.24,611.979 1149.69,571.464 1147.23,584.258 1144.69,560.802 
  1142.23,650.362 1139.68,827.35 1137.39,959.558 1134.84,1049.12 1132.3,1017.13 1129.84,1012.87 1127.29,985.146 1124.83,1072.57 1122.29,1155.74 1119.75,1155.74 
  1117.29,1149.34 1114.74,1110.96 1112.28,1153.6 1109.74,1228.24 1107.44,1132.28 1104.9,1036.32 1102.35,1179.19 1099.89,1217.58 1097.35,1051.25 1094.89,991.543 
  1092.35,904.116 1089.8,970.22 1087.34,991.543 1084.8,923.307 1082.34,1006.47 1079.79,1132.28 1077.5,1123.75 1074.95,1027.79 1072.41,1174.93 1069.95,914.778 
  1067.41,951.028 1064.94,978.749 1062.4,1115.22 1059.86,1221.84 1057.4,1298.61 1054.85,1447.87 1052.39,1426.55 1049.85,1345.52 1047.47,1123.75 1044.93,1121.62 
  1042.38,1249.56 1039.92,1200.52 1037.38,1226.11 1034.92,1128.02 1032.37,1174.93 1029.83,1262.36 1027.37,1147.21 1024.83,1098.16 1022.37,1142.94 1019.82,1091.77 
  1017.52,974.484 1014.98,1012.87 1012.44,1140.81 1009.98,951.028 1007.43,859.336 1004.97,835.88 1002.43,878.527 999.886,793.232 997.425,844.409 994.882,782.57 
  992.421,810.291 989.877,869.998 987.58,752.717 985.037,765.511 980.033,750.584 972.485,652.495 964.937,626.906 957.636,693.01 950.088,695.142 942.54,637.568 
  934.992,774.04 927.609,746.32 920.061,938.234 912.513,936.101 904.966,997.941 897.664,1322.06 890.116,1281.55 882.569,1177.06 875.021,1012.87 867.719,1232.5 
  860.172,919.042 852.624,1015 845.076,908.381 837.775,803.894 830.227,616.244 822.679,520.287 815.131,661.024 807.748,571.464 800.2,801.761 792.652,799.629 
  785.105,840.144 777.803,884.924 770.255,1006.47 762.708,895.586 755.16,942.499 747.858,884.924 740.311,850.806 732.763,707.937 725.215,599.185 717.914,456.316 
  710.366,594.92 702.818,579.994 695.271,579.994 687.887,477.639 680.339,569.332 672.792,481.904 665.244,505.36 657.942,543.743 650.394,667.421 642.847,605.582 
  635.299,509.625 627.997,417.933 620.45,356.094 612.902,345.432 605.354,302.784 598.053,375.285 590.505,420.065 582.957,405.138 575.41,449.918 568.026,428.595 
  560.478,537.346 552.931,494.698 545.383,594.92 538.081,452.051 530.534,524.552 522.986,597.053 515.438,516.022 508.137,420.065 500.589,567.199 493.041,434.992 
  485.493,577.861 478.192,597.053 470.644,629.039 463.096,477.639 455.549,560.802 448.165,417.933 440.617,550.14 425.522,518.155 410.673,614.112 395.577,825.218 
  388.276,876.395 380.728,765.511 365.633,569.332 350.783,413.668 343.236,420.065 335.688,456.316 320.756,424.33 305.661,437.124 298.359,505.36 290.812,695.142 
  275.716,782.57 268.415,801.761 260.867,829.482 253.319,827.35 238.47,616.244 230.922,712.201 
  "/>
</svg>
