<?xml version="1.0" encoding="utf-8"?>
<svg xmlns="http://www.w3.org/2000/svg" xmlns:xlink="http://www.w3.org/1999/xlink" width="600" height="400" viewBox="0 0 2400 1600">
<defs>
  <clipPath id="clip220">
    <rect x="0" y="0" width="2400" height="1600"/>
  </clipPath>
</defs>
<path clip-path="url(#clip220)" d="
M0 1600 L2400 1600 L2400 0 L0 0  Z
  " fill="#ffffff" fill-rule="evenodd" fill-opacity="1"/>
<defs>
  <clipPath id="clip221">
    <rect x="480" y="0" width="1681" height="1600"/>
  </clipPath>
</defs>
<path clip-path="url(#clip220)" d="
M275.136 1486.45 L2352.76 1486.45 L2352.76 47.2441 L275.136 47.2441  Z
  " fill="#ffffff" fill-rule="evenodd" fill-opacity="1"/>
<defs>
  <clipPath id="clip222">
    <rect x="275" y="47" width="2079" height="1440"/>
  </clipPath>
</defs>
<polyline clip-path="url(#clip222)" style="stroke:#000000; stroke-linecap:butt; stroke-linejoin:round; stroke-width:2; stroke-opacity:0.1; fill:none" points="
  333.937,1486.45 333.937,47.2441 
  "/>
<polyline clip-path="url(#clip222)" style="stroke:#000000; stroke-linecap:butt; stroke-linejoin:round; stroke-width:2; stroke-opacity:0.1; fill:none" points="
  863.985,1486.45 863.985,47.2441 
  "/>
<polyline clip-path="url(#clip222)" style="stroke:#000000; stroke-linecap:butt; stroke-linejoin:round; stroke-width:2; stroke-opacity:0.1; fill:none" points="
  1394.03,1486.45 1394.03,47.2441 
  "/>
<polyline clip-path="url(#clip222)" style="stroke:#000000; stroke-linecap:butt; stroke-linejoin:round; stroke-width:2; stroke-opacity:0.1; fill:none" points="
  1924.08,1486.45 1924.08,47.2441 
  "/>
<polyline clip-path="url(#clip220)" style="stroke:#000000; stroke-linecap:butt; stroke-linejoin:round; stroke-width:4; stroke-opacity:1; fill:none" points="
  275.136,1486.45 2352.76,1486.45 
  "/>
<polyline clip-path="url(#clip220)" style="stroke:#000000; stroke-linecap:butt; stroke-linejoin:round; stroke-width:4; stroke-opacity:1; fill:none" points="
  333.937,1486.45 333.937,1467.55 
  "/>
<polyline clip-path="url(#clip220)" style="stroke:#000000; stroke-linecap:butt; stroke-linejoin:round; stroke-width:4; stroke-opacity:1; fill:none" points="
  863.985,1486.45 863.985,1467.55 
  "/>
<polyline clip-path="url(#clip220)" style="stroke:#000000; stroke-linecap:butt; stroke-linejoin:round; stroke-width:4; stroke-opacity:1; fill:none" points="
  1394.03,1486.45 1394.03,1467.55 
  "/>
<polyline clip-path="url(#clip220)" style="stroke:#000000; stroke-linecap:butt; stroke-linejoin:round; stroke-width:4; stroke-opacity:1; fill:none" points="
  1924.08,1486.45 1924.08,1467.55 
  "/>
<path clip-path="url(#clip220)" d="M201.646 1543.18 L209.285 1543.18 L209.285 1516.82 L200.975 1518.49 L200.975 1514.23 L209.239 1512.56 L213.914 1512.56 L213.914 1543.18 L221.553 1543.18 L221.553 1547.12 L201.646 1547.12 L201.646 1543.18 Z" fill="#000000" fill-rule="evenodd" fill-opacity="1" /><path clip-path="url(#clip220)" d="M231.137 1546.4 L231.137 1542.14 Q232.896 1542.98 234.701 1543.42 Q236.507 1543.86 238.243 1543.86 Q242.873 1543.86 245.303 1540.75 Q247.757 1537.63 248.104 1531.29 Q246.761 1533.28 244.701 1534.34 Q242.641 1535.41 240.141 1535.41 Q234.956 1535.41 231.924 1532.28 Q228.914 1529.13 228.914 1523.69 Q228.914 1518.37 232.062 1515.15 Q235.211 1511.93 240.442 1511.93 Q246.437 1511.93 249.586 1516.54 Q252.757 1521.12 252.757 1529.87 Q252.757 1538.05 248.868 1542.93 Q245.002 1547.79 238.451 1547.79 Q236.692 1547.79 234.887 1547.44 Q233.081 1547.1 231.137 1546.4 M240.442 1531.75 Q243.59 1531.75 245.419 1529.6 Q247.271 1527.44 247.271 1523.69 Q247.271 1519.97 245.419 1517.81 Q243.59 1515.64 240.442 1515.64 Q237.294 1515.64 235.442 1517.81 Q233.613 1519.97 233.613 1523.69 Q233.613 1527.44 235.442 1529.6 Q237.294 1531.75 240.442 1531.75 Z" fill="#000000" fill-rule="evenodd" fill-opacity="1" /><path clip-path="url(#clip220)" d="M261.298 1546.4 L261.298 1542.14 Q263.058 1542.98 264.863 1543.42 Q266.669 1543.86 268.405 1543.86 Q273.034 1543.86 275.465 1540.75 Q277.919 1537.63 278.266 1531.29 Q276.923 1533.28 274.863 1534.34 Q272.803 1535.41 270.303 1535.41 Q265.118 1535.41 262.085 1532.28 Q259.076 1529.13 259.076 1523.69 Q259.076 1518.37 262.224 1515.15 Q265.372 1511.93 270.604 1511.93 Q276.599 1511.93 279.747 1516.54 Q282.919 1521.12 282.919 1529.87 Q282.919 1538.05 279.03 1542.93 Q275.164 1547.79 268.613 1547.79 Q266.854 1547.79 265.048 1547.44 Q263.243 1547.1 261.298 1546.4 M270.604 1531.75 Q273.752 1531.75 275.581 1529.6 Q277.433 1527.44 277.433 1523.69 Q277.433 1519.97 275.581 1517.81 Q273.752 1515.64 270.604 1515.64 Q267.456 1515.64 265.604 1517.81 Q263.775 1519.97 263.775 1523.69 Q263.775 1527.44 265.604 1529.6 Q267.456 1531.75 270.604 1531.75 Z" fill="#000000" fill-rule="evenodd" fill-opacity="1" /><path clip-path="url(#clip220)" d="M295.349 1543.18 L311.669 1543.18 L311.669 1547.12 L289.724 1547.12 L289.724 1543.18 Q292.386 1540.43 296.97 1535.8 Q301.576 1531.15 302.757 1529.81 Q305.002 1527.28 305.882 1525.55 Q306.784 1523.79 306.784 1522.1 Q306.784 1519.34 304.84 1517.61 Q302.919 1515.87 299.817 1515.87 Q297.618 1515.87 295.164 1516.63 Q292.733 1517.4 289.956 1518.95 L289.956 1514.23 Q292.78 1513.09 295.233 1512.51 Q297.687 1511.93 299.724 1511.93 Q305.094 1511.93 308.289 1514.62 Q311.483 1517.31 311.483 1521.8 Q311.483 1523.93 310.673 1525.85 Q309.886 1527.74 307.78 1530.34 Q307.201 1531.01 304.099 1534.23 Q300.997 1537.42 295.349 1543.18 Z" fill="#000000" fill-rule="evenodd" fill-opacity="1" /><path clip-path="url(#clip220)" d="M318.729 1532.24 L331.205 1532.24 L331.205 1536.03 L318.729 1536.03 L318.729 1532.24 Z" fill="#000000" fill-rule="evenodd" fill-opacity="1" /><path clip-path="url(#clip220)" d="M348.59 1515.64 Q344.979 1515.64 343.15 1519.2 Q341.344 1522.75 341.344 1529.87 Q341.344 1536.98 343.15 1540.55 Q344.979 1544.09 348.59 1544.09 Q352.224 1544.09 354.029 1540.55 Q355.858 1536.98 355.858 1529.87 Q355.858 1522.75 354.029 1519.2 Q352.224 1515.64 348.59 1515.64 M348.59 1511.93 Q354.4 1511.93 357.455 1516.54 Q360.534 1521.12 360.534 1529.87 Q360.534 1538.6 357.455 1543.21 Q354.4 1547.79 348.59 1547.79 Q342.779 1547.79 339.701 1543.21 Q336.645 1538.6 336.645 1529.87 Q336.645 1521.12 339.701 1516.54 Q342.779 1511.93 348.59 1511.93 Z" fill="#000000" fill-rule="evenodd" fill-opacity="1" /><path clip-path="url(#clip220)" d="M369.562 1543.18 L377.201 1543.18 L377.201 1516.82 L368.89 1518.49 L368.89 1514.23 L377.154 1512.56 L381.83 1512.56 L381.83 1543.18 L389.469 1543.18 L389.469 1547.12 L369.562 1547.12 L369.562 1543.18 Z" fill="#000000" fill-rule="evenodd" fill-opacity="1" /><path clip-path="url(#clip220)" d="M396.159 1532.24 L408.636 1532.24 L408.636 1536.03 L396.159 1536.03 L396.159 1532.24 Z" fill="#000000" fill-rule="evenodd" fill-opacity="1" /><path clip-path="url(#clip220)" d="M426.02 1515.64 Q422.409 1515.64 420.58 1519.2 Q418.774 1522.75 418.774 1529.87 Q418.774 1536.98 420.58 1540.55 Q422.409 1544.09 426.02 1544.09 Q429.654 1544.09 431.46 1540.55 Q433.288 1536.98 433.288 1529.87 Q433.288 1522.75 431.46 1519.2 Q429.654 1515.64 426.02 1515.64 M426.02 1511.93 Q431.83 1511.93 434.885 1516.54 Q437.964 1521.12 437.964 1529.87 Q437.964 1538.6 434.885 1543.21 Q431.83 1547.79 426.02 1547.79 Q420.21 1547.79 417.131 1543.21 Q414.075 1538.6 414.075 1529.87 Q414.075 1521.12 417.131 1516.54 Q420.21 1511.93 426.02 1511.93 Z" fill="#000000" fill-rule="evenodd" fill-opacity="1" /><path clip-path="url(#clip220)" d="M446.992 1543.18 L454.631 1543.18 L454.631 1516.82 L446.321 1518.49 L446.321 1514.23 L454.584 1512.56 L459.26 1512.56 L459.26 1543.18 L466.899 1543.18 L466.899 1547.12 L446.992 1547.12 L446.992 1543.18 Z" fill="#000000" fill-rule="evenodd" fill-opacity="1" /><path clip-path="url(#clip220)" d="M735.78 1543.18 L752.099 1543.18 L752.099 1547.12 L730.155 1547.12 L730.155 1543.18 Q732.817 1540.43 737.4 1535.8 Q742.007 1531.15 743.187 1529.81 Q745.433 1527.28 746.312 1525.55 Q747.215 1523.79 747.215 1522.1 Q747.215 1519.34 745.271 1517.61 Q743.349 1515.87 740.248 1515.87 Q738.049 1515.87 735.595 1516.63 Q733.164 1517.4 730.387 1518.95 L730.387 1514.23 Q733.211 1513.09 735.664 1512.51 Q738.118 1511.93 740.155 1511.93 Q745.525 1511.93 748.72 1514.62 Q751.914 1517.31 751.914 1521.8 Q751.914 1523.93 751.104 1525.85 Q750.317 1527.74 748.211 1530.34 Q747.632 1531.01 744.53 1534.23 Q741.428 1537.42 735.78 1543.18 Z" fill="#000000" fill-rule="evenodd" fill-opacity="1" /><path clip-path="url(#clip220)" d="M771.914 1515.64 Q768.303 1515.64 766.474 1519.2 Q764.669 1522.75 764.669 1529.87 Q764.669 1536.98 766.474 1540.55 Q768.303 1544.09 771.914 1544.09 Q775.548 1544.09 777.354 1540.55 Q779.183 1536.98 779.183 1529.87 Q779.183 1522.75 777.354 1519.2 Q775.548 1515.64 771.914 1515.64 M771.914 1511.93 Q777.724 1511.93 780.78 1516.54 Q783.859 1521.12 783.859 1529.87 Q783.859 1538.6 780.78 1543.21 Q777.724 1547.79 771.914 1547.79 Q766.104 1547.79 763.025 1543.21 Q759.97 1538.6 759.97 1529.87 Q759.97 1521.12 763.025 1516.54 Q766.104 1511.93 771.914 1511.93 Z" fill="#000000" fill-rule="evenodd" fill-opacity="1" /><path clip-path="url(#clip220)" d="M802.076 1515.64 Q798.465 1515.64 796.636 1519.2 Q794.831 1522.75 794.831 1529.87 Q794.831 1536.98 796.636 1540.55 Q798.465 1544.09 802.076 1544.09 Q805.71 1544.09 807.516 1540.55 Q809.344 1536.98 809.344 1529.87 Q809.344 1522.75 807.516 1519.2 Q805.71 1515.64 802.076 1515.64 M802.076 1511.93 Q807.886 1511.93 810.942 1516.54 Q814.02 1521.12 814.02 1529.87 Q814.02 1538.6 810.942 1543.21 Q807.886 1547.79 802.076 1547.79 Q796.266 1547.79 793.187 1543.21 Q790.132 1538.6 790.132 1529.87 Q790.132 1521.12 793.187 1516.54 Q796.266 1511.93 802.076 1511.93 Z" fill="#000000" fill-rule="evenodd" fill-opacity="1" /><path clip-path="url(#clip220)" d="M832.238 1515.64 Q828.627 1515.64 826.798 1519.2 Q824.993 1522.75 824.993 1529.87 Q824.993 1536.98 826.798 1540.55 Q828.627 1544.09 832.238 1544.09 Q835.872 1544.09 837.678 1540.55 Q839.506 1536.98 839.506 1529.87 Q839.506 1522.75 837.678 1519.2 Q835.872 1515.64 832.238 1515.64 M832.238 1511.93 Q838.048 1511.93 841.104 1516.54 Q844.182 1521.12 844.182 1529.87 Q844.182 1538.6 841.104 1543.21 Q838.048 1547.79 832.238 1547.79 Q826.428 1547.79 823.349 1543.21 Q820.294 1538.6 820.294 1529.87 Q820.294 1521.12 823.349 1516.54 Q826.428 1511.93 832.238 1511.93 Z" fill="#000000" fill-rule="evenodd" fill-opacity="1" /><path clip-path="url(#clip220)" d="M849.645 1532.24 L862.122 1532.24 L862.122 1536.03 L849.645 1536.03 L849.645 1532.24 Z" fill="#000000" fill-rule="evenodd" fill-opacity="1" /><path clip-path="url(#clip220)" d="M879.506 1515.64 Q875.895 1515.64 874.066 1519.2 Q872.261 1522.75 872.261 1529.87 Q872.261 1536.98 874.066 1540.55 Q875.895 1544.09 879.506 1544.09 Q883.14 1544.09 884.946 1540.55 Q886.775 1536.98 886.775 1529.87 Q886.775 1522.75 884.946 1519.2 Q883.14 1515.64 879.506 1515.64 M879.506 1511.93 Q885.316 1511.93 888.372 1516.54 Q891.451 1521.12 891.451 1529.87 Q891.451 1538.6 888.372 1543.21 Q885.316 1547.79 879.506 1547.79 Q873.696 1547.79 870.617 1543.21 Q867.562 1538.6 867.562 1529.87 Q867.562 1521.12 870.617 1516.54 Q873.696 1511.93 879.506 1511.93 Z" fill="#000000" fill-rule="evenodd" fill-opacity="1" /><path clip-path="url(#clip220)" d="M900.478 1543.18 L908.117 1543.18 L908.117 1516.82 L899.807 1518.49 L899.807 1514.23 L908.071 1512.56 L912.747 1512.56 L912.747 1543.18 L920.386 1543.18 L920.386 1547.12 L900.478 1547.12 L900.478 1543.18 Z" fill="#000000" fill-rule="evenodd" fill-opacity="1" /><path clip-path="url(#clip220)" d="M927.075 1532.24 L939.552 1532.24 L939.552 1536.03 L927.075 1536.03 L927.075 1532.24 Z" fill="#000000" fill-rule="evenodd" fill-opacity="1" /><path clip-path="url(#clip220)" d="M956.936 1515.64 Q953.325 1515.64 951.497 1519.2 Q949.691 1522.75 949.691 1529.87 Q949.691 1536.98 951.497 1540.55 Q953.325 1544.09 956.936 1544.09 Q960.571 1544.09 962.376 1540.55 Q964.205 1536.98 964.205 1529.87 Q964.205 1522.75 962.376 1519.2 Q960.571 1515.64 956.936 1515.64 M956.936 1511.93 Q962.746 1511.93 965.802 1516.54 Q968.881 1521.12 968.881 1529.87 Q968.881 1538.6 965.802 1543.21 Q962.746 1547.79 956.936 1547.79 Q951.126 1547.79 948.047 1543.21 Q944.992 1538.6 944.992 1529.87 Q944.992 1521.12 948.047 1516.54 Q951.126 1511.93 956.936 1511.93 Z" fill="#000000" fill-rule="evenodd" fill-opacity="1" /><path clip-path="url(#clip220)" d="M977.908 1543.18 L985.547 1543.18 L985.547 1516.82 L977.237 1518.49 L977.237 1514.23 L985.501 1512.56 L990.177 1512.56 L990.177 1543.18 L997.816 1543.18 L997.816 1547.12 L977.908 1547.12 L977.908 1543.18 Z" fill="#000000" fill-rule="evenodd" fill-opacity="1" /><path clip-path="url(#clip220)" d="M1265.83 1543.18 L1282.15 1543.18 L1282.15 1547.12 L1260.2 1547.12 L1260.2 1543.18 Q1262.87 1540.43 1267.45 1535.8 Q1272.06 1531.15 1273.24 1529.81 Q1275.48 1527.28 1276.36 1525.55 Q1277.26 1523.79 1277.26 1522.1 Q1277.26 1519.34 1275.32 1517.61 Q1273.4 1515.87 1270.3 1515.87 Q1268.1 1515.87 1265.64 1516.63 Q1263.21 1517.4 1260.44 1518.95 L1260.44 1514.23 Q1263.26 1513.09 1265.71 1512.51 Q1268.17 1511.93 1270.2 1511.93 Q1275.57 1511.93 1278.77 1514.62 Q1281.96 1517.31 1281.96 1521.8 Q1281.96 1523.93 1281.15 1525.85 Q1280.37 1527.74 1278.26 1530.34 Q1277.68 1531.01 1274.58 1534.23 Q1271.48 1537.42 1265.83 1543.18 Z" fill="#000000" fill-rule="evenodd" fill-opacity="1" /><path clip-path="url(#clip220)" d="M1301.96 1515.64 Q1298.35 1515.64 1296.52 1519.2 Q1294.72 1522.75 1294.72 1529.87 Q1294.72 1536.98 1296.52 1540.55 Q1298.35 1544.09 1301.96 1544.09 Q1305.6 1544.09 1307.4 1540.55 Q1309.23 1536.98 1309.23 1529.87 Q1309.23 1522.75 1307.4 1519.2 Q1305.6 1515.64 1301.96 1515.64 M1301.96 1511.93 Q1307.77 1511.93 1310.83 1516.54 Q1313.91 1521.12 1313.91 1529.87 Q1313.91 1538.6 1310.83 1543.21 Q1307.77 1547.79 1301.96 1547.79 Q1296.15 1547.79 1293.07 1543.21 Q1290.02 1538.6 1290.02 1529.87 Q1290.02 1521.12 1293.07 1516.54 Q1296.15 1511.93 1301.96 1511.93 Z" fill="#000000" fill-rule="evenodd" fill-opacity="1" /><path clip-path="url(#clip220)" d="M1332.12 1515.64 Q1328.51 1515.64 1326.68 1519.2 Q1324.88 1522.75 1324.88 1529.87 Q1324.88 1536.98 1326.68 1540.55 Q1328.51 1544.09 1332.12 1544.09 Q1335.76 1544.09 1337.56 1540.55 Q1339.39 1536.98 1339.39 1529.87 Q1339.39 1522.75 1337.56 1519.2 Q1335.76 1515.64 1332.12 1515.64 M1332.12 1511.93 Q1337.93 1511.93 1340.99 1516.54 Q1344.07 1521.12 1344.07 1529.87 Q1344.07 1538.6 1340.99 1543.21 Q1337.93 1547.79 1332.12 1547.79 Q1326.31 1547.79 1323.24 1543.21 Q1320.18 1538.6 1320.18 1529.87 Q1320.18 1521.12 1323.24 1516.54 Q1326.31 1511.93 1332.12 1511.93 Z" fill="#000000" fill-rule="evenodd" fill-opacity="1" /><path clip-path="url(#clip220)" d="M1362.29 1530.71 Q1358.95 1530.71 1357.03 1532.49 Q1355.13 1534.27 1355.13 1537.4 Q1355.13 1540.52 1357.03 1542.31 Q1358.95 1544.09 1362.29 1544.09 Q1365.62 1544.09 1367.54 1542.31 Q1369.46 1540.5 1369.46 1537.4 Q1369.46 1534.27 1367.54 1532.49 Q1365.64 1530.71 1362.29 1530.71 M1357.61 1528.72 Q1354.6 1527.98 1352.91 1525.92 Q1351.24 1523.86 1351.24 1520.89 Q1351.24 1516.75 1354.18 1514.34 Q1357.15 1511.93 1362.29 1511.93 Q1367.45 1511.93 1370.39 1514.34 Q1373.33 1516.75 1373.33 1520.89 Q1373.33 1523.86 1371.64 1525.92 Q1369.97 1527.98 1366.99 1528.72 Q1370.37 1529.5 1372.24 1531.8 Q1374.14 1534.09 1374.14 1537.4 Q1374.14 1542.42 1371.06 1545.11 Q1368 1547.79 1362.29 1547.79 Q1356.57 1547.79 1353.49 1545.11 Q1350.43 1542.42 1350.43 1537.4 Q1350.43 1534.09 1352.33 1531.8 Q1354.23 1529.5 1357.61 1528.72 M1355.9 1521.33 Q1355.9 1524.02 1357.56 1525.52 Q1359.25 1527.03 1362.29 1527.03 Q1365.3 1527.03 1366.99 1525.52 Q1368.7 1524.02 1368.7 1521.33 Q1368.7 1518.65 1366.99 1517.14 Q1365.3 1515.64 1362.29 1515.64 Q1359.25 1515.64 1357.56 1517.14 Q1355.9 1518.65 1355.9 1521.33 Z" fill="#000000" fill-rule="evenodd" fill-opacity="1" /><path clip-path="url(#clip220)" d="M1379.69 1532.24 L1392.17 1532.24 L1392.17 1536.03 L1379.69 1536.03 L1379.69 1532.24 Z" fill="#000000" fill-rule="evenodd" fill-opacity="1" /><path clip-path="url(#clip220)" d="M1409.55 1515.64 Q1405.94 1515.64 1404.11 1519.2 Q1402.31 1522.75 1402.31 1529.87 Q1402.31 1536.98 1404.11 1540.55 Q1405.94 1544.09 1409.55 1544.09 Q1413.19 1544.09 1414.99 1540.55 Q1416.82 1536.98 1416.82 1529.87 Q1416.82 1522.75 1414.99 1519.2 Q1413.19 1515.64 1409.55 1515.64 M1409.55 1511.93 Q1415.36 1511.93 1418.42 1516.54 Q1421.5 1521.12 1421.5 1529.87 Q1421.5 1538.6 1418.42 1543.21 Q1415.36 1547.79 1409.55 1547.79 Q1403.74 1547.79 1400.67 1543.21 Q1397.61 1538.6 1397.61 1529.87 Q1397.61 1521.12 1400.67 1516.54 Q1403.74 1511.93 1409.55 1511.93 Z" fill="#000000" fill-rule="evenodd" fill-opacity="1" /><path clip-path="url(#clip220)" d="M1430.53 1543.18 L1438.17 1543.18 L1438.17 1516.82 L1429.86 1518.49 L1429.86 1514.23 L1438.12 1512.56 L1442.8 1512.56 L1442.8 1543.18 L1450.43 1543.18 L1450.43 1547.12 L1430.53 1547.12 L1430.53 1543.18 Z" fill="#000000" fill-rule="evenodd" fill-opacity="1" /><path clip-path="url(#clip220)" d="M1457.12 1532.24 L1469.6 1532.24 L1469.6 1536.03 L1457.12 1536.03 L1457.12 1532.24 Z" fill="#000000" fill-rule="evenodd" fill-opacity="1" /><path clip-path="url(#clip220)" d="M1486.98 1515.64 Q1483.37 1515.64 1481.54 1519.2 Q1479.74 1522.75 1479.74 1529.87 Q1479.74 1536.98 1481.54 1540.55 Q1483.37 1544.09 1486.98 1544.09 Q1490.62 1544.09 1492.42 1540.55 Q1494.25 1536.98 1494.25 1529.87 Q1494.25 1522.75 1492.42 1519.2 Q1490.62 1515.64 1486.98 1515.64 M1486.98 1511.93 Q1492.79 1511.93 1495.85 1516.54 Q1498.93 1521.12 1498.93 1529.87 Q1498.93 1538.6 1495.85 1543.21 Q1492.79 1547.79 1486.98 1547.79 Q1481.17 1547.79 1478.1 1543.21 Q1475.04 1538.6 1475.04 1529.87 Q1475.04 1521.12 1478.1 1516.54 Q1481.17 1511.93 1486.98 1511.93 Z" fill="#000000" fill-rule="evenodd" fill-opacity="1" /><path clip-path="url(#clip220)" d="M1507.96 1543.18 L1515.6 1543.18 L1515.6 1516.82 L1507.29 1518.49 L1507.29 1514.23 L1515.55 1512.56 L1520.23 1512.56 L1520.23 1543.18 L1527.86 1543.18 L1527.86 1547.12 L1507.96 1547.12 L1507.96 1543.18 Z" fill="#000000" fill-rule="evenodd" fill-opacity="1" /><path clip-path="url(#clip220)" d="M1795.88 1543.18 L1812.2 1543.18 L1812.2 1547.12 L1790.25 1547.12 L1790.25 1543.18 Q1792.91 1540.43 1797.5 1535.8 Q1802.1 1531.15 1803.28 1529.81 Q1805.53 1527.28 1806.41 1525.55 Q1807.31 1523.79 1807.31 1522.1 Q1807.31 1519.34 1805.37 1517.61 Q1803.45 1515.87 1800.34 1515.87 Q1798.15 1515.87 1795.69 1516.63 Q1793.26 1517.4 1790.48 1518.95 L1790.48 1514.23 Q1793.31 1513.09 1795.76 1512.51 Q1798.21 1511.93 1800.25 1511.93 Q1805.62 1511.93 1808.82 1514.62 Q1812.01 1517.31 1812.01 1521.8 Q1812.01 1523.93 1811.2 1525.85 Q1810.41 1527.74 1808.31 1530.34 Q1807.73 1531.01 1804.63 1534.23 Q1801.53 1537.42 1795.88 1543.18 Z" fill="#000000" fill-rule="evenodd" fill-opacity="1" /><path clip-path="url(#clip220)" d="M1832.01 1515.64 Q1828.4 1515.64 1826.57 1519.2 Q1824.77 1522.75 1824.77 1529.87 Q1824.77 1536.98 1826.57 1540.55 Q1828.4 1544.09 1832.01 1544.09 Q1835.65 1544.09 1837.45 1540.55 Q1839.28 1536.98 1839.28 1529.87 Q1839.28 1522.75 1837.45 1519.2 Q1835.65 1515.64 1832.01 1515.64 M1832.01 1511.93 Q1837.82 1511.93 1840.88 1516.54 Q1843.96 1521.12 1843.96 1529.87 Q1843.96 1538.6 1840.88 1543.21 Q1837.82 1547.79 1832.01 1547.79 Q1826.2 1547.79 1823.12 1543.21 Q1820.07 1538.6 1820.07 1529.87 Q1820.07 1521.12 1823.12 1516.54 Q1826.2 1511.93 1832.01 1511.93 Z" fill="#000000" fill-rule="evenodd" fill-opacity="1" /><path clip-path="url(#clip220)" d="M1852.98 1543.18 L1860.62 1543.18 L1860.62 1516.82 L1852.31 1518.49 L1852.31 1514.23 L1860.58 1512.56 L1865.25 1512.56 L1865.25 1543.18 L1872.89 1543.18 L1872.89 1547.12 L1852.98 1547.12 L1852.98 1543.18 Z" fill="#000000" fill-rule="evenodd" fill-opacity="1" /><path clip-path="url(#clip220)" d="M1892.91 1527.98 Q1889.77 1527.98 1887.91 1530.13 Q1886.08 1532.28 1886.08 1536.03 Q1886.08 1539.76 1887.91 1541.93 Q1889.77 1544.09 1892.91 1544.09 Q1896.06 1544.09 1897.89 1541.93 Q1899.74 1539.76 1899.74 1536.03 Q1899.74 1532.28 1897.89 1530.13 Q1896.06 1527.98 1892.91 1527.98 M1902.2 1513.32 L1902.2 1517.58 Q1900.44 1516.75 1898.63 1516.31 Q1896.85 1515.87 1895.09 1515.87 Q1890.46 1515.87 1888.01 1519 Q1885.58 1522.12 1885.23 1528.44 Q1886.59 1526.43 1888.65 1525.36 Q1890.71 1524.27 1893.19 1524.27 Q1898.4 1524.27 1901.41 1527.44 Q1904.44 1530.59 1904.44 1536.03 Q1904.44 1541.36 1901.29 1544.57 Q1898.15 1547.79 1892.91 1547.79 Q1886.92 1547.79 1883.75 1543.21 Q1880.58 1538.6 1880.58 1529.87 Q1880.58 1521.68 1884.46 1516.82 Q1888.35 1511.93 1894.9 1511.93 Q1896.66 1511.93 1898.45 1512.28 Q1900.25 1512.63 1902.2 1513.32 Z" fill="#000000" fill-rule="evenodd" fill-opacity="1" /><path clip-path="url(#clip220)" d="M1909.74 1532.24 L1922.22 1532.24 L1922.22 1536.03 L1909.74 1536.03 L1909.74 1532.24 Z" fill="#000000" fill-rule="evenodd" fill-opacity="1" /><path clip-path="url(#clip220)" d="M1939.6 1515.64 Q1935.99 1515.64 1934.16 1519.2 Q1932.36 1522.75 1932.36 1529.87 Q1932.36 1536.98 1934.16 1540.55 Q1935.99 1544.09 1939.6 1544.09 Q1943.24 1544.09 1945.04 1540.55 Q1946.87 1536.98 1946.87 1529.87 Q1946.87 1522.75 1945.04 1519.2 Q1943.24 1515.64 1939.6 1515.64 M1939.6 1511.93 Q1945.41 1511.93 1948.47 1516.54 Q1951.55 1521.12 1951.55 1529.87 Q1951.55 1538.6 1948.47 1543.21 Q1945.41 1547.79 1939.6 1547.79 Q1933.79 1547.79 1930.71 1543.21 Q1927.66 1538.6 1927.66 1529.87 Q1927.66 1521.12 1930.71 1516.54 Q1933.79 1511.93 1939.6 1511.93 Z" fill="#000000" fill-rule="evenodd" fill-opacity="1" /><path clip-path="url(#clip220)" d="M1960.58 1543.18 L1968.21 1543.18 L1968.21 1516.82 L1959.9 1518.49 L1959.9 1514.23 L1968.17 1512.56 L1972.84 1512.56 L1972.84 1543.18 L1980.48 1543.18 L1980.48 1547.12 L1960.58 1547.12 L1960.58 1543.18 Z" fill="#000000" fill-rule="evenodd" fill-opacity="1" /><path clip-path="url(#clip220)" d="M1987.17 1532.24 L1999.65 1532.24 L1999.65 1536.03 L1987.17 1536.03 L1987.17 1532.24 Z" fill="#000000" fill-rule="evenodd" fill-opacity="1" /><path clip-path="url(#clip220)" d="M2017.03 1515.64 Q2013.42 1515.64 2011.59 1519.2 Q2009.79 1522.75 2009.79 1529.87 Q2009.79 1536.98 2011.59 1540.55 Q2013.42 1544.09 2017.03 1544.09 Q2020.67 1544.09 2022.47 1540.55 Q2024.3 1536.98 2024.3 1529.87 Q2024.3 1522.75 2022.47 1519.2 Q2020.67 1515.64 2017.03 1515.64 M2017.03 1511.93 Q2022.84 1511.93 2025.9 1516.54 Q2028.98 1521.12 2028.98 1529.87 Q2028.98 1538.6 2025.9 1543.21 Q2022.84 1547.79 2017.03 1547.79 Q2011.22 1547.79 2008.14 1543.21 Q2005.09 1538.6 2005.09 1529.87 Q2005.09 1521.12 2008.14 1516.54 Q2011.22 1511.93 2017.03 1511.93 Z" fill="#000000" fill-rule="evenodd" fill-opacity="1" /><path clip-path="url(#clip220)" d="M2038.01 1543.18 L2045.64 1543.18 L2045.64 1516.82 L2037.33 1518.49 L2037.33 1514.23 L2045.6 1512.56 L2050.27 1512.56 L2050.27 1543.18 L2057.91 1543.18 L2057.91 1547.12 L2038.01 1547.12 L2038.01 1543.18 Z" fill="#000000" fill-rule="evenodd" fill-opacity="1" /><polyline clip-path="url(#clip222)" style="stroke:#000000; stroke-linecap:butt; stroke-linejoin:round; stroke-width:2; stroke-opacity:0.1; fill:none" points="
  275.136,1454.5 2352.76,1454.5 
  "/>
<polyline clip-path="url(#clip222)" style="stroke:#000000; stroke-linecap:butt; stroke-linejoin:round; stroke-width:2; stroke-opacity:0.1; fill:none" points="
  275.136,1164.15 2352.76,1164.15 
  "/>
<polyline clip-path="url(#clip222)" style="stroke:#000000; stroke-linecap:butt; stroke-linejoin:round; stroke-width:2; stroke-opacity:0.1; fill:none" points="
  275.136,873.792 2352.76,873.792 
  "/>
<polyline clip-path="url(#clip222)" style="stroke:#000000; stroke-linecap:butt; stroke-linejoin:round; stroke-width:2; stroke-opacity:0.1; fill:none" points="
  275.136,583.438 2352.76,583.438 
  "/>
<polyline clip-path="url(#clip222)" style="stroke:#000000; stroke-linecap:butt; stroke-linejoin:round; stroke-width:2; stroke-opacity:0.1; fill:none" points="
  275.136,293.085 2352.76,293.085 
  "/>
<polyline clip-path="url(#clip220)" style="stroke:#000000; stroke-linecap:butt; stroke-linejoin:round; stroke-width:4; stroke-opacity:1; fill:none" points="
  275.136,1486.45 275.136,47.2441 
  "/>
<polyline clip-path="url(#clip220)" style="stroke:#000000; stroke-linecap:butt; stroke-linejoin:round; stroke-width:4; stroke-opacity:1; fill:none" points="
  275.136,1454.5 294.034,1454.5 
  "/>
<polyline clip-path="url(#clip220)" style="stroke:#000000; stroke-linecap:butt; stroke-linejoin:round; stroke-width:4; stroke-opacity:1; fill:none" points="
  275.136,1164.15 294.034,1164.15 
  "/>
<polyline clip-path="url(#clip220)" style="stroke:#000000; stroke-linecap:butt; stroke-linejoin:round; stroke-width:4; stroke-opacity:1; fill:none" points="
  275.136,873.792 294.034,873.792 
  "/>
<polyline clip-path="url(#clip220)" style="stroke:#000000; stroke-linecap:butt; stroke-linejoin:round; stroke-width:4; stroke-opacity:1; fill:none" points="
  275.136,583.438 294.034,583.438 
  "/>
<polyline clip-path="url(#clip220)" style="stroke:#000000; stroke-linecap:butt; stroke-linejoin:round; stroke-width:4; stroke-opacity:1; fill:none" points="
  275.136,293.085 294.034,293.085 
  "/>
<path clip-path="url(#clip220)" d="M54.5569 1474.29 L62.1958 1474.29 L62.1958 1447.93 L53.8856 1449.59 L53.8856 1445.33 L62.1495 1443.67 L66.8254 1443.67 L66.8254 1474.29 L74.4642 1474.29 L74.4642 1478.23 L54.5569 1478.23 L54.5569 1474.29 Z" fill="#000000" fill-rule="evenodd" fill-opacity="1" /><path clip-path="url(#clip220)" d="M83.9086 1472.35 L88.7928 1472.35 L88.7928 1478.23 L83.9086 1478.23 L83.9086 1472.35 Z" fill="#000000" fill-rule="evenodd" fill-opacity="1" /><path clip-path="url(#clip220)" d="M108.978 1446.75 Q105.367 1446.75 103.538 1450.31 Q101.733 1453.85 101.733 1460.98 Q101.733 1468.09 103.538 1471.65 Q105.367 1475.19 108.978 1475.19 Q112.612 1475.19 114.418 1471.65 Q116.246 1468.09 116.246 1460.98 Q116.246 1453.85 114.418 1450.31 Q112.612 1446.75 108.978 1446.75 M108.978 1443.04 Q114.788 1443.04 117.844 1447.65 Q120.922 1452.23 120.922 1460.98 Q120.922 1469.71 117.844 1474.31 Q114.788 1478.9 108.978 1478.9 Q103.168 1478.9 100.089 1474.31 Q97.0335 1469.71 97.0335 1460.98 Q97.0335 1452.23 100.089 1447.65 Q103.168 1443.04 108.978 1443.04 Z" fill="#000000" fill-rule="evenodd" fill-opacity="1" /><path clip-path="url(#clip220)" d="M157.311 1452.76 L146.732 1463.39 L157.311 1473.97 L154.556 1476.77 L143.931 1466.14 L133.306 1476.77 L130.575 1473.97 L141.131 1463.39 L130.575 1452.76 L133.306 1449.96 L143.931 1460.59 L154.556 1449.96 L157.311 1452.76 Z" fill="#000000" fill-rule="evenodd" fill-opacity="1" /><path clip-path="url(#clip220)" d="M169.672 1474.29 L177.311 1474.29 L177.311 1447.93 L169.001 1449.59 L169.001 1445.33 L177.265 1443.67 L181.94 1443.67 L181.94 1474.29 L189.579 1474.29 L189.579 1478.23 L169.672 1478.23 L169.672 1474.29 Z" fill="#000000" fill-rule="evenodd" fill-opacity="1" /><path clip-path="url(#clip220)" d="M209.024 1446.75 Q205.413 1446.75 203.584 1450.31 Q201.778 1453.85 201.778 1460.98 Q201.778 1468.09 203.584 1471.65 Q205.413 1475.19 209.024 1475.19 Q212.658 1475.19 214.463 1471.65 Q216.292 1468.09 216.292 1460.98 Q216.292 1453.85 214.463 1450.31 Q212.658 1446.75 209.024 1446.75 M209.024 1443.04 Q214.834 1443.04 217.889 1447.65 Q220.968 1452.23 220.968 1460.98 Q220.968 1469.71 217.889 1474.31 Q214.834 1478.9 209.024 1478.9 Q203.214 1478.9 200.135 1474.31 Q197.079 1469.71 197.079 1460.98 Q197.079 1452.23 200.135 1447.65 Q203.214 1443.04 209.024 1443.04 Z" fill="#000000" fill-rule="evenodd" fill-opacity="1" /><path clip-path="url(#clip220)" d="M222.153 1422.74 L237.068 1422.74 L237.068 1425.93 L225.632 1425.93 L225.632 1432.82 Q226.46 1432.53 227.287 1432.4 Q228.115 1432.25 228.943 1432.25 Q233.645 1432.25 236.39 1434.83 Q239.136 1437.41 239.136 1441.81 Q239.136 1446.34 236.315 1448.86 Q233.494 1451.36 228.36 1451.36 Q226.592 1451.36 224.748 1451.06 Q222.924 1450.76 220.968 1450.16 L220.968 1446.34 Q222.661 1447.26 224.466 1447.71 Q226.272 1448.16 228.284 1448.16 Q231.538 1448.16 233.438 1446.45 Q235.337 1444.74 235.337 1441.81 Q235.337 1438.87 233.438 1437.16 Q231.538 1435.45 228.284 1435.45 Q226.761 1435.45 225.237 1435.79 Q223.733 1436.13 222.153 1436.84 L222.153 1422.74 Z" fill="#000000" fill-rule="evenodd" fill-opacity="1" /><path clip-path="url(#clip220)" d="M57.7745 1183.94 L74.0939 1183.94 L74.0939 1187.87 L52.1495 1187.87 L52.1495 1183.94 Q54.8115 1181.18 59.3949 1176.55 Q64.0013 1171.9 65.1819 1170.56 Q67.4272 1168.04 68.3068 1166.3 Q69.2096 1164.54 69.2096 1162.85 Q69.2096 1160.1 67.2652 1158.36 Q65.3439 1156.62 62.2421 1156.62 Q60.043 1156.62 57.5893 1157.39 Q55.1588 1158.15 52.381 1159.7 L52.381 1154.98 Q55.2051 1153.85 57.6588 1153.27 Q60.1124 1152.69 62.1495 1152.69 Q67.5198 1152.69 70.7142 1155.37 Q73.9087 1158.06 73.9087 1162.55 Q73.9087 1164.68 73.0985 1166.6 Q72.3115 1168.5 70.205 1171.09 Q69.6263 1171.76 66.5245 1174.98 Q63.4226 1178.17 57.7745 1183.94 Z" fill="#000000" fill-rule="evenodd" fill-opacity="1" /><path clip-path="url(#clip220)" d="M83.9086 1181.99 L88.7928 1181.99 L88.7928 1187.87 L83.9086 1187.87 L83.9086 1181.99 Z" fill="#000000" fill-rule="evenodd" fill-opacity="1" /><path clip-path="url(#clip220)" d="M108.978 1156.39 Q105.367 1156.39 103.538 1159.96 Q101.733 1163.5 101.733 1170.63 Q101.733 1177.73 103.538 1181.3 Q105.367 1184.84 108.978 1184.84 Q112.612 1184.84 114.418 1181.3 Q116.246 1177.73 116.246 1170.63 Q116.246 1163.5 114.418 1159.96 Q112.612 1156.39 108.978 1156.39 M108.978 1152.69 Q114.788 1152.69 117.844 1157.29 Q120.922 1161.88 120.922 1170.63 Q120.922 1179.35 117.844 1183.96 Q114.788 1188.54 108.978 1188.54 Q103.168 1188.54 100.089 1183.96 Q97.0335 1179.35 97.0335 1170.63 Q97.0335 1161.88 100.089 1157.29 Q103.168 1152.69 108.978 1152.69 Z" fill="#000000" fill-rule="evenodd" fill-opacity="1" /><path clip-path="url(#clip220)" d="M157.311 1162.41 L146.732 1173.04 L157.311 1183.61 L154.556 1186.41 L143.931 1175.79 L133.306 1186.41 L130.575 1183.61 L141.131 1173.04 L130.575 1162.41 L133.306 1159.61 L143.931 1170.23 L154.556 1159.61 L157.311 1162.41 Z" fill="#000000" fill-rule="evenodd" fill-opacity="1" /><path clip-path="url(#clip220)" d="M169.672 1183.94 L177.311 1183.94 L177.311 1157.57 L169.001 1159.24 L169.001 1154.98 L177.265 1153.31 L181.94 1153.31 L181.94 1183.94 L189.579 1183.94 L189.579 1187.87 L169.672 1187.87 L169.672 1183.94 Z" fill="#000000" fill-rule="evenodd" fill-opacity="1" /><path clip-path="url(#clip220)" d="M209.024 1156.39 Q205.413 1156.39 203.584 1159.96 Q201.778 1163.5 201.778 1170.63 Q201.778 1177.73 203.584 1181.3 Q205.413 1184.84 209.024 1184.84 Q212.658 1184.84 214.463 1181.3 Q216.292 1177.73 216.292 1170.63 Q216.292 1163.5 214.463 1159.96 Q212.658 1156.39 209.024 1156.39 M209.024 1152.69 Q214.834 1152.69 217.889 1157.29 Q220.968 1161.88 220.968 1170.63 Q220.968 1179.35 217.889 1183.96 Q214.834 1188.54 209.024 1188.54 Q203.214 1188.54 200.135 1183.96 Q197.079 1179.35 197.079 1170.63 Q197.079 1161.88 200.135 1157.29 Q203.214 1152.69 209.024 1152.69 Z" fill="#000000" fill-rule="evenodd" fill-opacity="1" /><path clip-path="url(#clip220)" d="M222.153 1132.38 L237.068 1132.38 L237.068 1135.58 L225.632 1135.58 L225.632 1142.46 Q226.46 1142.18 227.287 1142.05 Q228.115 1141.9 228.943 1141.9 Q233.645 1141.9 236.39 1144.48 Q239.136 1147.05 239.136 1151.45 Q239.136 1155.99 236.315 1158.51 Q233.494 1161.01 228.36 1161.01 Q226.592 1161.01 224.748 1160.71 Q222.924 1160.41 220.968 1159.8 L220.968 1155.99 Q222.661 1156.91 224.466 1157.36 Q226.272 1157.81 228.284 1157.81 Q231.538 1157.81 233.438 1156.1 Q235.337 1154.39 235.337 1151.45 Q235.337 1148.52 233.438 1146.81 Q231.538 1145.1 228.284 1145.1 Q226.761 1145.1 225.237 1145.44 Q223.733 1145.77 222.153 1146.49 L222.153 1132.38 Z" fill="#000000" fill-rule="evenodd" fill-opacity="1" /><path clip-path="url(#clip220)" d="M67.9133 878.885 Q71.2698 879.603 73.1448 881.871 Q75.0429 884.14 75.0429 887.473 Q75.0429 892.589 71.5244 895.39 Q68.0059 898.191 61.5245 898.191 Q59.3486 898.191 57.0338 897.751 Q54.7421 897.334 52.2884 896.478 L52.2884 891.964 Q54.2328 893.098 56.5477 893.677 Q58.8625 894.256 61.3856 894.256 Q65.7837 894.256 68.0754 892.52 Q70.3902 890.783 70.3902 887.473 Q70.3902 884.418 68.2374 882.705 Q66.1078 880.969 62.2884 880.969 L58.2606 880.969 L58.2606 877.126 L62.4735 877.126 Q65.9226 877.126 67.7513 875.76 Q69.58 874.371 69.58 871.779 Q69.58 869.117 67.6819 867.705 Q65.8069 866.27 62.2884 866.27 Q60.3671 866.27 58.168 866.686 Q55.969 867.103 53.3301 867.983 L53.3301 863.816 Q55.9921 863.075 58.3069 862.705 Q60.6449 862.334 62.705 862.334 Q68.0291 862.334 71.1309 864.765 Q74.2327 867.172 74.2327 871.293 Q74.2327 874.163 72.5892 876.154 Q70.9457 878.121 67.9133 878.885 Z" fill="#000000" fill-rule="evenodd" fill-opacity="1" /><path clip-path="url(#clip220)" d="M83.9086 891.64 L88.7928 891.64 L88.7928 897.519 L83.9086 897.519 L83.9086 891.64 Z" fill="#000000" fill-rule="evenodd" fill-opacity="1" /><path clip-path="url(#clip220)" d="M108.978 866.038 Q105.367 866.038 103.538 869.603 Q101.733 873.145 101.733 880.274 Q101.733 887.381 103.538 890.945 Q105.367 894.487 108.978 894.487 Q112.612 894.487 114.418 890.945 Q116.246 887.381 116.246 880.274 Q116.246 873.145 114.418 869.603 Q112.612 866.038 108.978 866.038 M108.978 862.334 Q114.788 862.334 117.844 866.941 Q120.922 871.524 120.922 880.274 Q120.922 889.001 117.844 893.607 Q114.788 898.191 108.978 898.191 Q103.168 898.191 100.089 893.607 Q97.0335 889.001 97.0335 880.274 Q97.0335 871.524 100.089 866.941 Q103.168 862.334 108.978 862.334 Z" fill="#000000" fill-rule="evenodd" fill-opacity="1" /><path clip-path="url(#clip220)" d="M157.311 872.057 L146.732 882.682 L157.311 893.26 L154.556 896.061 L143.931 885.436 L133.306 896.061 L130.575 893.26 L141.131 882.682 L130.575 872.057 L133.306 869.256 L143.931 879.881 L154.556 869.256 L157.311 872.057 Z" fill="#000000" fill-rule="evenodd" fill-opacity="1" /><path clip-path="url(#clip220)" d="M169.672 893.584 L177.311 893.584 L177.311 867.219 L169.001 868.885 L169.001 864.626 L177.265 862.959 L181.94 862.959 L181.94 893.584 L189.579 893.584 L189.579 897.519 L169.672 897.519 L169.672 893.584 Z" fill="#000000" fill-rule="evenodd" fill-opacity="1" /><path clip-path="url(#clip220)" d="M209.024 866.038 Q205.413 866.038 203.584 869.603 Q201.778 873.145 201.778 880.274 Q201.778 887.381 203.584 890.945 Q205.413 894.487 209.024 894.487 Q212.658 894.487 214.463 890.945 Q216.292 887.381 216.292 880.274 Q216.292 873.145 214.463 869.603 Q212.658 866.038 209.024 866.038 M209.024 862.334 Q214.834 862.334 217.889 866.941 Q220.968 871.524 220.968 880.274 Q220.968 889.001 217.889 893.607 Q214.834 898.191 209.024 898.191 Q203.214 898.191 200.135 893.607 Q197.079 889.001 197.079 880.274 Q197.079 871.524 200.135 866.941 Q203.214 862.334 209.024 862.334 Z" fill="#000000" fill-rule="evenodd" fill-opacity="1" /><path clip-path="url(#clip220)" d="M222.153 842.029 L237.068 842.029 L237.068 845.226 L225.632 845.226 L225.632 852.11 Q226.46 851.828 227.287 851.696 Q228.115 851.546 228.943 851.546 Q233.645 851.546 236.39 854.122 Q239.136 856.699 239.136 861.1 Q239.136 865.633 236.315 868.153 Q233.494 870.655 228.36 870.655 Q226.592 870.655 224.748 870.354 Q222.924 870.053 220.968 869.451 L220.968 865.633 Q222.661 866.554 224.466 867.006 Q226.272 867.457 228.284 867.457 Q231.538 867.457 233.438 865.746 Q235.337 864.034 235.337 861.1 Q235.337 858.166 233.438 856.455 Q231.538 854.743 228.284 854.743 Q226.761 854.743 225.237 855.082 Q223.733 855.42 222.153 856.135 L222.153 842.029 Z" fill="#000000" fill-rule="evenodd" fill-opacity="1" /><path clip-path="url(#clip220)" d="M66.5939 576.68 L54.7884 595.129 L66.5939 595.129 L66.5939 576.68 M65.367 572.606 L71.2466 572.606 L71.2466 595.129 L76.1772 595.129 L76.1772 599.018 L71.2466 599.018 L71.2466 607.166 L66.5939 607.166 L66.5939 599.018 L50.9921 599.018 L50.9921 594.504 L65.367 572.606 Z" fill="#000000" fill-rule="evenodd" fill-opacity="1" /><path clip-path="url(#clip220)" d="M83.9086 601.286 L88.7928 601.286 L88.7928 607.166 L83.9086 607.166 L83.9086 601.286 Z" fill="#000000" fill-rule="evenodd" fill-opacity="1" /><path clip-path="url(#clip220)" d="M108.978 575.685 Q105.367 575.685 103.538 579.249 Q101.733 582.791 101.733 589.921 Q101.733 597.027 103.538 600.592 Q105.367 604.134 108.978 604.134 Q112.612 604.134 114.418 600.592 Q116.246 597.027 116.246 589.921 Q116.246 582.791 114.418 579.249 Q112.612 575.685 108.978 575.685 M108.978 571.981 Q114.788 571.981 117.844 576.587 Q120.922 581.171 120.922 589.921 Q120.922 598.648 117.844 603.254 Q114.788 607.837 108.978 607.837 Q103.168 607.837 100.089 603.254 Q97.0335 598.648 97.0335 589.921 Q97.0335 581.171 100.089 576.587 Q103.168 571.981 108.978 571.981 Z" fill="#000000" fill-rule="evenodd" fill-opacity="1" /><path clip-path="url(#clip220)" d="M157.311 581.703 L146.732 592.328 L157.311 602.907 L154.556 605.708 L143.931 595.083 L133.306 605.708 L130.575 602.907 L141.131 592.328 L130.575 581.703 L133.306 578.902 L143.931 589.527 L154.556 578.902 L157.311 581.703 Z" fill="#000000" fill-rule="evenodd" fill-opacity="1" /><path clip-path="url(#clip220)" d="M169.672 603.231 L177.311 603.231 L177.311 576.865 L169.001 578.532 L169.001 574.273 L177.265 572.606 L181.94 572.606 L181.94 603.231 L189.579 603.231 L189.579 607.166 L169.672 607.166 L169.672 603.231 Z" fill="#000000" fill-rule="evenodd" fill-opacity="1" /><path clip-path="url(#clip220)" d="M209.024 575.685 Q205.413 575.685 203.584 579.249 Q201.778 582.791 201.778 589.921 Q201.778 597.027 203.584 600.592 Q205.413 604.134 209.024 604.134 Q212.658 604.134 214.463 600.592 Q216.292 597.027 216.292 589.921 Q216.292 582.791 214.463 579.249 Q212.658 575.685 209.024 575.685 M209.024 571.981 Q214.834 571.981 217.889 576.587 Q220.968 581.171 220.968 589.921 Q220.968 598.648 217.889 603.254 Q214.834 607.837 209.024 607.837 Q203.214 607.837 200.135 603.254 Q197.079 598.648 197.079 589.921 Q197.079 581.171 200.135 576.587 Q203.214 571.981 209.024 571.981 Z" fill="#000000" fill-rule="evenodd" fill-opacity="1" /><path clip-path="url(#clip220)" d="M222.153 551.676 L237.068 551.676 L237.068 554.873 L225.632 554.873 L225.632 561.757 Q226.46 561.474 227.287 561.343 Q228.115 561.192 228.943 561.192 Q233.645 561.192 236.39 563.769 Q239.136 566.346 239.136 570.747 Q239.136 575.279 236.315 577.8 Q233.494 580.301 228.36 580.301 Q226.592 580.301 224.748 580 Q222.924 579.699 220.968 579.097 L220.968 575.279 Q222.661 576.201 224.466 576.652 Q226.272 577.104 228.284 577.104 Q231.538 577.104 233.438 575.392 Q235.337 573.681 235.337 570.747 Q235.337 567.813 233.438 566.101 Q231.538 564.39 228.284 564.39 Q226.761 564.39 225.237 564.728 Q223.733 565.067 222.153 565.781 L222.153 551.676 Z" fill="#000000" fill-rule="evenodd" fill-opacity="1" /><path clip-path="url(#clip220)" d="M53.793 282.252 L72.1494 282.252 L72.1494 286.188 L58.0754 286.188 L58.0754 294.66 Q59.0939 294.313 60.1124 294.151 Q61.131 293.965 62.1495 293.965 Q67.9365 293.965 71.3161 297.137 Q74.6957 300.308 74.6957 305.725 Q74.6957 311.303 71.2235 314.405 Q67.7513 317.484 61.4319 317.484 Q59.256 317.484 56.9875 317.113 Q54.7421 316.743 52.3347 316.002 L52.3347 311.303 Q54.418 312.438 56.6402 312.993 Q58.8625 313.549 61.3393 313.549 Q65.3439 313.549 67.6819 311.442 Q70.0198 309.336 70.0198 305.725 Q70.0198 302.113 67.6819 300.007 Q65.3439 297.901 61.3393 297.901 Q59.4643 297.901 57.5893 298.317 Q55.7375 298.734 53.793 299.614 L53.793 282.252 Z" fill="#000000" fill-rule="evenodd" fill-opacity="1" /><path clip-path="url(#clip220)" d="M83.9086 310.933 L88.7928 310.933 L88.7928 316.812 L83.9086 316.812 L83.9086 310.933 Z" fill="#000000" fill-rule="evenodd" fill-opacity="1" /><path clip-path="url(#clip220)" d="M108.978 285.331 Q105.367 285.331 103.538 288.896 Q101.733 292.438 101.733 299.567 Q101.733 306.674 103.538 310.238 Q105.367 313.78 108.978 313.78 Q112.612 313.78 114.418 310.238 Q116.246 306.674 116.246 299.567 Q116.246 292.438 114.418 288.896 Q112.612 285.331 108.978 285.331 M108.978 281.627 Q114.788 281.627 117.844 286.234 Q120.922 290.817 120.922 299.567 Q120.922 308.294 117.844 312.9 Q114.788 317.484 108.978 317.484 Q103.168 317.484 100.089 312.9 Q97.0335 308.294 97.0335 299.567 Q97.0335 290.817 100.089 286.234 Q103.168 281.627 108.978 281.627 Z" fill="#000000" fill-rule="evenodd" fill-opacity="1" /><path clip-path="url(#clip220)" d="M157.311 291.35 L146.732 301.975 L157.311 312.553 L154.556 315.354 L143.931 304.729 L133.306 315.354 L130.575 312.553 L141.131 301.975 L130.575 291.35 L133.306 288.549 L143.931 299.174 L154.556 288.549 L157.311 291.35 Z" fill="#000000" fill-rule="evenodd" fill-opacity="1" /><path clip-path="url(#clip220)" d="M169.672 312.877 L177.311 312.877 L177.311 286.512 L169.001 288.178 L169.001 283.919 L177.265 282.252 L181.94 282.252 L181.94 312.877 L189.579 312.877 L189.579 316.812 L169.672 316.812 L169.672 312.877 Z" fill="#000000" fill-rule="evenodd" fill-opacity="1" /><path clip-path="url(#clip220)" d="M209.024 285.331 Q205.413 285.331 203.584 288.896 Q201.778 292.438 201.778 299.567 Q201.778 306.674 203.584 310.238 Q205.413 313.78 209.024 313.78 Q212.658 313.78 214.463 310.238 Q216.292 306.674 216.292 299.567 Q216.292 292.438 214.463 288.896 Q212.658 285.331 209.024 285.331 M209.024 281.627 Q214.834 281.627 217.889 286.234 Q220.968 290.817 220.968 299.567 Q220.968 308.294 217.889 312.9 Q214.834 317.484 209.024 317.484 Q203.214 317.484 200.135 312.9 Q197.079 308.294 197.079 299.567 Q197.079 290.817 200.135 286.234 Q203.214 281.627 209.024 281.627 Z" fill="#000000" fill-rule="evenodd" fill-opacity="1" /><path clip-path="url(#clip220)" d="M222.153 261.322 L237.068 261.322 L237.068 264.519 L225.632 264.519 L225.632 271.403 Q226.46 271.121 227.287 270.989 Q228.115 270.839 228.943 270.839 Q233.645 270.839 236.39 273.415 Q239.136 275.992 239.136 280.393 Q239.136 284.926 236.315 287.446 Q233.494 289.948 228.36 289.948 Q226.592 289.948 224.748 289.647 Q222.924 289.346 220.968 288.744 L220.968 284.926 Q222.661 285.847 224.466 286.299 Q226.272 286.75 228.284 286.75 Q231.538 286.75 233.438 285.039 Q235.337 283.327 235.337 280.393 Q235.337 277.459 233.438 275.748 Q231.538 274.036 228.284 274.036 Q226.761 274.036 225.237 274.375 Q223.733 274.713 222.153 275.428 L222.153 261.322 Z" fill="#000000" fill-rule="evenodd" fill-opacity="1" /><polyline clip-path="url(#clip222)" style="stroke:#009af9; stroke-linecap:butt; stroke-linejoin:round; stroke-width:4; stroke-opacity:1; fill:none" points="
  2293.96,975.27 2288.33,1046.88 2282.89,942.251 2277.27,1026.79 2271.82,1029.16 2266.2,932.536 2261.12,1056.78 2255.5,1097.73 2249.88,1040.53 2244.43,1099.6 
  2238.81,1066.26 2233.37,1057.74 2227.74,1107.2 2222.12,1147.73 2216.68,1136.73 2211.06,1234.65 2205.61,1298.65 2199.99,1130.56 2194.73,1081.93 2189.11,1130.29 
  2183.48,1030.33 2178.04,1083.8 2172.42,1014.97 2166.98,1015.65 2161.35,1014.4 2155.73,1068.21 2150.29,1003.23 2144.66,1038.56 2139.22,1034.24 2133.6,929.758 
  2128.52,1063.74 2122.9,1066 2117.27,1043.22 2111.83,1080.55 2106.21,1044.04 2100.77,1019.61 2095.14,1018.21 2089.52,1118.95 2084.08,988.723 2078.45,1047.45 
  2073.01,1070.82 2067.39,969.109 2062.31,1096.93 2056.69,1156.31 2051.06,1044.53 2045.62,1081.95 2040,1079.59 2034.55,1032.42 2028.93,1090.21 2023.31,1167.85 
  2017.87,978.528 2012.24,1102.9 2006.8,1126.1 2001.18,1014.76 1996.1,1164.64 1990.47,1183.43 1984.85,1079.24 1979.41,1125.34 1973.79,1072.91 1968.34,1074.26 
  1962.72,1101.61 1957.1,1170.34 1951.66,1074.66 1946.03,1111.94 1940.59,1102.55 1934.97,1037.69 1929.71,1131.88 1924.08,1165.82 1918.46,1074.25 1913.02,1115.68 
  1907.39,1082.45 1901.95,1073.15 1896.33,1111.11 1890.7,1115.36 1885.26,1010.96 1879.64,1131.8 1874.2,1105.81 1868.57,1021.18 1863.5,1146.24 1857.87,1162.46 
  1852.25,1046.68 1846.81,1116.52 1841.18,1051.75 1835.74,1019.85 1830.12,1073.57 1824.49,911.898 1819.05,997.982 1813.43,1072.04 1807.99,1073.08 1802.36,1013.85 
  1797.28,1101.91 1791.66,1152.59 1786.04,1018.62 1780.6,1067.46 1774.97,1057.34 1769.53,1024.18 1763.91,1094.25 1758.28,1140.66 1752.84,989.28 1747.22,1051.84 
  1741.78,1102.15 1736.15,1068.33 1731.07,1089.7 1725.45,1152.04 1719.83,1049.84 1714.38,1135.95 1708.76,1098.13 1703.32,1096.14 1697.7,1152.53 1692.07,1144.49 
  1686.63,1067.58 1681.01,1103.8 1675.57,1132.51 1669.94,1046.03 1664.68,1091.78 1659.06,1152.49 1653.43,1055.18 1647.99,1145.55 1642.37,1145.06 1636.93,1102.2 
  1631.3,1115.6 1625.68,1195.46 1620.24,1116.1 1614.62,1149.56 1609.17,1178.89 1603.55,1068.1 1598.47,1200.54 1592.85,1210.49 1587.22,1137.98 1581.78,1203.04 
  1576.16,1186.42 1570.72,1126.02 1565.09,1187.7 1559.47,1237.65 1554.03,1163.91 1548.4,1211.95 1542.96,1217.78 1537.34,1164.17 1532.26,1253.97 1526.64,1270.16 
  1521.01,1238.23 1515.57,1305.75 1509.95,1271.01 1504.51,1254.89 1498.88,1293.48 1493.26,1322.75 1487.82,1288.64 1482.19,1321.77 1476.75,1338.67 1471.13,1274.17 
  1466.05,1346.36 1460.43,1343.53 1454.8,1188.15 1449.36,1251.67 1443.74,1172.01 1438.3,1093.78 1432.67,1120.96 1427.05,1148.06 1421.61,1040.81 1415.98,1082.86 
  1410.54,1091.34 1404.92,1016.34 1399.66,1077.42 1394.03,1106.23 1388.41,1007.22 1382.97,1094.07 1377.35,1062.06 1371.9,1070.11 1366.28,1043.97 1360.66,1131.44 
  1355.21,1037.25 1349.59,1079 1344.15,1089.94 1338.53,1012.9 1333.45,1131.16 1327.82,1151.99 1322.2,1056.91 1316.76,1109.41 1311.13,1106.41 1305.69,1038.76 
  1300.07,1118.57 1294.45,1204.53 1289,1055.08 1283.38,1112.26 1277.94,1146.27 1272.32,1011.25 1267.24,1136.63 1261.61,1187.61 1255.99,1078.46 1250.55,1118.96 
  1244.92,1130.32 1239.48,1121.81 1233.86,1137.98 1228.24,1252.89 1222.79,1093.87 1217.17,1147.62 1211.73,1190.57 1206.1,1135.96 1201.03,1196.23 1195.4,1229.2 
  1189.78,1160.74 1184.34,1198.61 1178.71,1202.13 1173.27,1172.37 1167.65,1208.68 1162.02,1268.89 1156.58,1171.53 1150.96,1216.8 1145.52,1211.32 1139.89,1121.72 
  1134.63,1221.89 1129.01,1265.98 1123.39,1199.27 1117.94,1241.47 1112.32,1191.46 1106.88,1201.11 1101.26,1249.47 1095.63,1308.35 1090.19,1210.63 1084.57,1244.4 
  1079.12,1256.57 1073.5,1196.51 1068.42,1253.1 1062.8,1279.72 1057.18,1259.68 1051.73,1267.77 1046.11,1239.52 1040.67,1239.07 1035.04,1230.96 1029.42,1304.72 
  1023.98,1240.86 1018.36,1232.92 1012.91,1250.78 1007.29,1211.93 1002.21,1257.95 996.588,1301.96 990.965,1250.87 985.523,1279.52 979.9,1235.86 974.458,1251.93 
  968.834,1246.92 963.211,1324.71 957.769,1197.68 952.145,1220.42 946.703,1260.07 941.08,1160.31 936.001,1231.95 930.378,1259.65 924.754,1184.53 919.312,1206.32 
  913.689,1199.85 908.247,1133.12 902.623,1199.89 897,1280.57 891.558,1056.3 885.935,1192.63 880.493,1202.26 874.869,1126.47 869.609,1195.64 863.985,1205.34 
  858.362,1156.37 852.92,1210.64 847.297,1181.89 841.855,1157.1 836.231,1203.08 830.608,1281.29 825.166,1168.87 819.543,1215.46 814.101,1221.57 808.477,1150.34 
  803.398,1206.96 797.775,1245.64 792.151,1206.33 786.709,1228.24 781.086,1218.28 775.644,1181.68 770.021,1240.62 764.397,1321.56 758.955,1199.01 753.332,1236.29 
  747.89,1227.33 742.267,1182.59 737.187,1215.45 731.564,1267.54 725.941,1222.49 720.499,1207.03 714.875,1212.36 709.433,1190.4 703.81,1249.9 698.187,1307.05 
  692.745,1201.3 687.121,1263.75 681.679,1249.26 676.056,1220.68 670.977,1244.54 665.353,1293.76 659.73,1262.2 654.288,1255.17 648.665,1252.82 643.223,1237.32 
  637.599,1298.76 631.976,1343.08 626.534,1242.84 620.91,1269.34 615.468,1294.53 609.845,1233.06 604.585,1282.65 598.961,1308.04 593.338,1269.34 587.896,1289.34 
  582.272,1284.73 576.83,1256.12 571.207,1305.07 565.584,1386.97 560.142,1275.39 554.518,1304.18 549.076,1320.28 543.453,1257.8 538.374,1290.14 532.75,1328.37 
  527.127,1295.11 521.685,1308.74 516.062,1304.76 510.62,1298.8 504.996,1330.08 499.373,1397.88 493.931,1294.6 488.308,1337.29 482.866,1344.61 477.242,1311.48 
  472.163,1341.1 466.54,1363.35 460.916,1343.37 455.474,1363.15 449.851,1351.47 444.409,1355.45 438.786,1384.38 433.162,1432.15 427.72,1342.83 422.097,1387.11 
  416.655,1377.3 411.032,1342.22 405.952,1366.92 400.329,1408.64 394.706,1361.77 389.264,1391.32 383.64,1363.52 378.198,1378.2 372.575,1414.94 366.952,1445.72 
  361.51,1363.71 355.886,1389.83 350.444,1386.94 344.821,1369.4 339.56,1400.99 
  "/>
<polyline clip-path="url(#clip222)" style="stroke:#e26f46; stroke-linecap:butt; stroke-linejoin:round; stroke-width:4; stroke-opacity:1; fill:none" points="
  2293.96,133.388 2288.33,126.416 2282.89,110.368 2277.27,87.9763 2271.82,124.154 2266.2,95.839 2261.12,467.242 2255.5,396.561 2249.88,119.07 2244.43,315.262 
  2238.81,305.506 2233.37,362.053 2227.74,325.172 2222.12,307.878 2216.68,347.657 2211.06,402.589 2205.61,649.61 2199.99,494.802 2194.73,538.402 2189.11,529.044 
  2183.48,230.755 2178.04,383.086 2172.42,419.574 2166.98,497.622 2161.35,370.081 2155.73,403.138 2150.29,442.341 2144.66,363.069 2139.22,458.816 2133.6,446.522 
  2128.52,627.087 2122.9,585.003 2117.27,311.882 2111.83,411.204 2106.21,461.844 2100.77,533.579 2095.14,420.753 2089.52,462.166 2084.08,456.911 2078.45,397.467 
  2073.01,524.656 2067.39,452.797 2062.31,639.561 2056.69,613.031 2051.06,301.717 2045.62,461.266 2040,531.668 2034.55,546.918 2028.93,491.042 2023.31,534.369 
  2017.87,516.558 2012.24,483.412 2006.8,562.635 2001.18,516.974 1996.1,683.668 1990.47,673.564 1984.85,345.195 1979.41,543.161 1973.79,591.171 1968.34,600.433 
  1962.72,535.678 1957.1,566.206 1951.66,554.272 1946.03,545.556 1940.59,598.635 1934.97,568.776 1929.71,689.063 1924.08,723.127 1918.46,397.293 1913.02,594.617 
  1907.39,604.573 1901.95,635.31 1896.33,568.598 1890.7,563.81 1885.26,589.147 1879.64,555.265 1874.2,619.497 1868.57,602.84 1863.5,751.756 1857.87,727.262 
  1852.25,434.353 1846.81,607.677 1841.18,616.849 1835.74,657.458 1830.12,578.95 1824.49,598.566 1819.05,625.374 1813.43,559.098 1807.99,630.2 1802.36,630.934 
  1797.28,764.741 1791.66,756.03 1786.04,494.143 1780.6,644.993 1774.97,670.928 1769.53,720.633 1763.91,617.413 1758.28,650.13 1752.84,672.417 1747.22,613.319 
  1741.78,690.933 1736.15,658.434 1731.07,779.511 1725.45,776.05 1719.83,534.639 1714.38,674.63 1708.76,711.708 1703.32,750.154 1697.7,661.874 1692.07,724.202 
  1686.63,710.953 1681.01,661.459 1675.57,730.955 1669.94,674.894 1664.68,782.418 1659.06,828.671 1653.43,557.568 1647.99,724.21 1642.37,766.167 1636.93,776.111 
  1631.3,722.158 1625.68,753.641 1620.24,738.429 1614.62,731.58 1609.17,760.513 1603.55,742.982 1598.47,874.024 1592.85,877.781 1587.22,621.539 1581.78,791.387 
  1576.16,830.068 1570.72,851.615 1565.09,808.988 1559.47,813.064 1554.03,818.093 1548.4,801.726 1542.96,824.606 1537.34,811.932 1532.26,944.737 1526.64,934.638 
  1521.01,691.639 1515.57,862.613 1509.95,872.747 1504.51,908.428 1498.88,831.676 1493.26,848.104 1487.82,856.226 1482.19,852.071 1476.75,896.901 1471.13,902.63 
  1466.05,976.969 1460.43,949.29 1454.8,738.74 1449.36,876.004 1443.74,840.628 1438.3,835.152 1432.67,750.557 1427.05,745.578 1421.61,758.257 1415.98,707.486 
  1410.54,783.776 1404.92,773.864 1399.66,850.067 1394.03,851.795 1388.41,619.811 1382.97,752.285 1377.35,783.57 1371.9,824.011 1366.28,730.964 1360.66,775.609 
  1355.21,762.909 1349.59,719.321 1344.15,809.969 1338.53,769.506 1333.45,902.639 1327.82,887.485 1322.2,640.963 1316.76,806.752 1311.13,836.116 1305.69,842.506 
  1300.07,760.104 1294.45,798.576 1289,784.235 1283.38,765.22 1277.94,825.808 1272.32,797.856 1267.24,924.845 1261.61,914 1255.99,668.436 1250.55,839.777 
  1244.92,867.366 1239.48,872.517 1233.86,811.63 1228.24,824.76 1222.79,823.343 1217.17,841.005 1211.73,867.828 1206.1,855.256 1201.03,974.486 1195.4,979.861 
  1189.78,715.18 1184.34,890.406 1178.71,910.179 1173.27,923.227 1167.65,890.827 1162.02,888.673 1156.58,903.803 1150.96,884.671 1145.52,919.305 1139.89,908.797 
  1134.63,1008.26 1129.01,1010.79 1123.39,793.384 1117.94,953.941 1112.32,949.92 1106.88,974.455 1101.26,916.729 1095.63,933.828 1090.19,957.292 1084.57,927.56 
  1079.12,972.541 1073.5,976.774 1068.42,1066.94 1062.8,1041.41 1057.18,848.18 1051.73,979.08 1046.11,990.093 1040.67,1029.57 1035.04,938.494 1029.42,970.204 
  1023.98,988.815 1018.36,956.014 1012.91,997.607 1007.29,998.258 1002.21,1082.6 996.588,1075.45 990.965,877.665 985.523,984.115 979.9,974.87 974.458,1059.01 
  968.834,971.176 963.211,1014.6 957.769,989.019 952.145,964.794 946.703,1021.69 941.08,1008.98 936.001,1094.54 930.378,1086.36 924.754,890.641 919.312,1012.74 
  913.689,1033 908.247,1037.48 902.623,997.23 897,1035.1 891.558,1004.26 885.935,996.957 880.493,1050.76 874.869,1008.18 869.609,1085.5 863.985,1124.34 
  858.362,894.079 852.92,1045.52 847.297,1067.77 841.855,1075.11 836.231,1046.62 830.608,1056.74 825.166,1057.21 819.543,1055.37 814.101,1085.43 808.477,1076.37 
  803.398,1165.74 797.775,1173.41 792.151,973.621 786.709,1109.07 781.086,1104.63 775.644,1138.26 770.021,1115.93 764.397,1112.79 758.955,1103.56 753.332,1102.72 
  747.89,1128.54 742.267,1141 737.187,1211.28 731.564,1200.6 725.941,1020.74 720.499,1142.27 714.875,1134.69 709.433,1160.04 703.81,1129.44 698.187,1138.43 
  692.745,1148.2 687.121,1130.71 681.679,1166.41 676.056,1153.26 670.977,1226.78 665.353,1219.1 659.73,1055.33 654.288,1153.63 648.665,1158.55 643.223,1194.85 
  637.599,1151.75 631.976,1172.45 626.534,1173.31 620.91,1147.31 615.468,1187.7 609.845,1187.81 604.585,1239.81 598.961,1258.88 593.338,1084.15 587.896,1183.29 
  582.272,1209.8 576.83,1214.9 571.207,1183.4 565.584,1213.77 560.142,1188.51 554.518,1192.4 549.076,1231.99 543.453,1216.67 538.374,1294.35 532.75,1286.08 
  527.127,1101.58 521.685,1209.81 516.062,1226.16 510.62,1236.36 504.996,1215.12 499.373,1241.97 493.931,1226.55 488.308,1235.2 482.866,1248.94 477.242,1240.91 
  472.163,1319.97 466.54,1323.04 460.916,1146.22 455.474,1251.31 449.851,1268.7 444.409,1282.33 438.786,1268.7 433.162,1266.96 427.72,1271.68 422.097,1270.07 
  416.655,1284.31 411.032,1300.54 405.952,1354.44 400.329,1347.01 394.706,1189.27 389.264,1295.32 383.64,1291.94 378.198,1314.67 372.575,1302.13 366.952,1301.81 
  361.51,1303.95 355.886,1302.3 350.444,1317.52 344.821,1331.13 339.56,1363.78 333.937,1365.41 
  "/>
<path clip-path="url(#clip220)" d="
M344.39 250.738 L920.397 250.738 L920.397 95.2176 L344.39 95.2176  Z
  " fill="#ffffff" fill-rule="evenodd" fill-opacity="1"/>
<polyline clip-path="url(#clip220)" style="stroke:#000000; stroke-linecap:butt; stroke-linejoin:round; stroke-width:4; stroke-opacity:1; fill:none" points="
  344.39,250.738 920.397,250.738 920.397,95.2176 344.39,95.2176 344.39,250.738 
  "/>
<polyline clip-path="url(#clip220)" style="stroke:#009af9; stroke-linecap:butt; stroke-linejoin:round; stroke-width:4; stroke-opacity:1; fill:none" points="
  367.475,147.058 505.983,147.058 
  "/>
<path clip-path="url(#clip220)" d="M533.744 133.62 L533.744 160.495 L539.392 160.495 Q546.544 160.495 549.855 157.254 Q553.188 154.014 553.188 147.023 Q553.188 140.078 549.855 136.861 Q546.544 133.62 539.392 133.62 L533.744 133.62 M529.068 129.778 L538.674 129.778 Q548.72 129.778 553.419 133.967 Q558.118 138.134 558.118 147.023 Q558.118 155.958 553.396 160.148 Q548.674 164.338 538.674 164.338 L529.068 164.338 L529.068 129.778 Z" fill="#000000" fill-rule="evenodd" fill-opacity="1" /><path clip-path="url(#clip220)" d="M564.947 154.106 L564.947 138.412 L569.206 138.412 L569.206 153.944 Q569.206 157.625 570.642 159.476 Q572.077 161.305 574.947 161.305 Q578.396 161.305 580.387 159.106 Q582.401 156.907 582.401 153.111 L582.401 138.412 L586.66 138.412 L586.66 164.338 L582.401 164.338 L582.401 160.356 Q580.85 162.717 578.79 163.875 Q576.753 165.009 574.044 165.009 Q569.577 165.009 567.262 162.231 Q564.947 159.453 564.947 154.106 M575.665 137.787 L575.665 137.787 Z" fill="#000000" fill-rule="evenodd" fill-opacity="1" /><path clip-path="url(#clip220)" d="M610.456 142.393 Q609.739 141.977 608.882 141.791 Q608.049 141.583 607.03 141.583 Q603.419 141.583 601.475 143.944 Q599.553 146.282 599.553 150.68 L599.553 164.338 L595.271 164.338 L595.271 138.412 L599.553 138.412 L599.553 142.44 Q600.896 140.078 603.049 138.944 Q605.202 137.787 608.28 137.787 Q608.72 137.787 609.252 137.856 Q609.785 137.903 610.433 138.018 L610.456 142.393 Z" fill="#000000" fill-rule="evenodd" fill-opacity="1" /><path clip-path="url(#clip220)" d="M626.706 151.305 Q621.544 151.305 619.553 152.486 Q617.563 153.666 617.563 156.514 Q617.563 158.782 619.044 160.125 Q620.549 161.444 623.118 161.444 Q626.66 161.444 628.789 158.944 Q630.942 156.421 630.942 152.254 L630.942 151.305 L626.706 151.305 M635.201 149.546 L635.201 164.338 L630.942 164.338 L630.942 160.402 Q629.484 162.763 627.308 163.898 Q625.132 165.009 621.984 165.009 Q618.002 165.009 615.641 162.787 Q613.303 160.541 613.303 156.791 Q613.303 152.416 616.22 150.194 Q619.16 147.972 624.97 147.972 L630.942 147.972 L630.942 147.555 Q630.942 144.615 628.998 143.018 Q627.076 141.398 623.581 141.398 Q621.359 141.398 619.252 141.93 Q617.146 142.463 615.201 143.527 L615.201 139.592 Q617.539 138.69 619.738 138.25 Q621.938 137.787 624.021 137.787 Q629.646 137.787 632.424 140.703 Q635.201 143.62 635.201 149.546 Z" fill="#000000" fill-rule="evenodd" fill-opacity="1" /><path clip-path="url(#clip220)" d="M662.585 151.398 Q662.585 146.699 660.641 144.037 Q658.72 141.352 655.34 141.352 Q651.961 141.352 650.016 144.037 Q648.095 146.699 648.095 151.398 Q648.095 156.097 650.016 158.782 Q651.961 161.444 655.34 161.444 Q658.72 161.444 660.641 158.782 Q662.585 156.097 662.585 151.398 M648.095 142.347 Q649.437 140.032 651.474 138.921 Q653.535 137.787 656.382 137.787 Q661.104 137.787 664.044 141.537 Q667.007 145.287 667.007 151.398 Q667.007 157.509 664.044 161.259 Q661.104 165.009 656.382 165.009 Q653.535 165.009 651.474 163.898 Q649.437 162.763 648.095 160.449 L648.095 164.338 L643.812 164.338 L643.812 128.319 L648.095 128.319 L648.095 142.347 Z" fill="#000000" fill-rule="evenodd" fill-opacity="1" /><path clip-path="url(#clip220)" d="M674.067 128.319 L678.326 128.319 L678.326 164.338 L674.067 164.338 L674.067 128.319 Z" fill="#000000" fill-rule="evenodd" fill-opacity="1" /><path clip-path="url(#clip220)" d="M709.414 150.31 L709.414 152.393 L689.831 152.393 Q690.108 156.791 692.47 159.106 Q694.854 161.398 699.09 161.398 Q701.544 161.398 703.835 160.796 Q706.15 160.194 708.419 158.99 L708.419 163.018 Q706.127 163.99 703.719 164.5 Q701.312 165.009 698.835 165.009 Q692.632 165.009 688.997 161.398 Q685.386 157.787 685.386 151.629 Q685.386 145.264 688.812 141.537 Q692.261 137.787 698.095 137.787 Q703.326 137.787 706.358 141.166 Q709.414 144.523 709.414 150.31 M705.155 149.06 Q705.108 145.565 703.187 143.481 Q701.289 141.398 698.141 141.398 Q694.576 141.398 692.423 143.412 Q690.294 145.426 689.97 149.083 L705.155 149.06 Z" fill="#000000" fill-rule="evenodd" fill-opacity="1" /><path clip-path="url(#clip220)" d="M755.224 159.407 L755.224 150.125 L747.585 150.125 L747.585 146.282 L759.853 146.282 L759.853 161.12 Q757.145 163.041 753.881 164.037 Q750.617 165.009 746.914 165.009 Q738.812 165.009 734.229 160.287 Q729.668 155.541 729.668 147.092 Q729.668 138.62 734.229 133.898 Q738.812 129.153 746.914 129.153 Q750.293 129.153 753.326 129.986 Q756.381 130.819 758.951 132.44 L758.951 137.416 Q756.358 135.217 753.441 134.106 Q750.525 132.995 747.307 132.995 Q740.965 132.995 737.77 136.537 Q734.599 140.078 734.599 147.092 Q734.599 154.083 737.77 157.625 Q740.965 161.166 747.307 161.166 Q749.784 161.166 751.728 160.75 Q753.673 160.31 755.224 159.407 Z" fill="#000000" fill-rule="evenodd" fill-opacity="1" /><path clip-path="url(#clip220)" d="M778.256 141.398 Q774.83 141.398 772.839 144.083 Q770.849 146.745 770.849 151.398 Q770.849 156.051 772.816 158.736 Q774.807 161.398 778.256 161.398 Q781.659 161.398 783.65 158.713 Q785.64 156.027 785.64 151.398 Q785.64 146.791 783.65 144.106 Q781.659 141.398 778.256 141.398 M778.256 137.787 Q783.812 137.787 786.983 141.398 Q790.154 145.009 790.154 151.398 Q790.154 157.764 786.983 161.398 Q783.812 165.009 778.256 165.009 Q772.677 165.009 769.506 161.398 Q766.358 157.764 766.358 151.398 Q766.358 145.009 769.506 141.398 Q772.677 137.787 778.256 137.787 Z" fill="#000000" fill-rule="evenodd" fill-opacity="1" /><path clip-path="url(#clip220)" d="M807.261 141.398 Q803.835 141.398 801.844 144.083 Q799.853 146.745 799.853 151.398 Q799.853 156.051 801.821 158.736 Q803.812 161.398 807.261 161.398 Q810.663 161.398 812.654 158.713 Q814.645 156.027 814.645 151.398 Q814.645 146.791 812.654 144.106 Q810.663 141.398 807.261 141.398 M807.261 137.787 Q812.816 137.787 815.987 141.398 Q819.159 145.009 819.159 151.398 Q819.159 157.764 815.987 161.398 Q812.816 165.009 807.261 165.009 Q801.682 165.009 798.511 161.398 Q795.363 157.764 795.363 151.398 Q795.363 145.009 798.511 141.398 Q801.682 137.787 807.261 137.787 Z" fill="#000000" fill-rule="evenodd" fill-opacity="1" /><path clip-path="url(#clip220)" d="M843.279 142.347 L843.279 128.319 L847.538 128.319 L847.538 164.338 L843.279 164.338 L843.279 160.449 Q841.936 162.763 839.876 163.898 Q837.839 165.009 834.969 165.009 Q830.27 165.009 827.307 161.259 Q824.367 157.509 824.367 151.398 Q824.367 145.287 827.307 141.537 Q830.27 137.787 834.969 137.787 Q837.839 137.787 839.876 138.921 Q841.936 140.032 843.279 142.347 M828.765 151.398 Q828.765 156.097 830.686 158.782 Q832.631 161.444 836.01 161.444 Q839.39 161.444 841.334 158.782 Q843.279 156.097 843.279 151.398 Q843.279 146.699 841.334 144.037 Q839.39 141.352 836.01 141.352 Q832.631 141.352 830.686 144.037 Q828.765 146.699 828.765 151.398 Z" fill="#000000" fill-rule="evenodd" fill-opacity="1" /><path clip-path="url(#clip220)" d="M872.839 139.176 L872.839 143.203 Q871.033 142.277 869.089 141.815 Q867.145 141.352 865.061 141.352 Q861.89 141.352 860.293 142.324 Q858.719 143.296 858.719 145.24 Q858.719 146.722 859.853 147.578 Q860.987 148.412 864.413 149.176 L865.871 149.5 Q870.408 150.472 872.307 152.254 Q874.228 154.014 874.228 157.185 Q874.228 160.796 871.357 162.902 Q868.51 165.009 863.51 165.009 Q861.427 165.009 859.158 164.592 Q856.913 164.199 854.413 163.388 L854.413 158.99 Q856.774 160.217 859.066 160.842 Q861.358 161.444 863.603 161.444 Q866.612 161.444 868.232 160.426 Q869.853 159.384 869.853 157.509 Q869.853 155.773 868.672 154.847 Q867.515 153.921 863.557 153.064 L862.075 152.717 Q858.117 151.884 856.358 150.171 Q854.598 148.435 854.598 145.426 Q854.598 141.768 857.191 139.778 Q859.783 137.787 864.552 137.787 Q866.913 137.787 868.996 138.134 Q871.08 138.481 872.839 139.176 Z" fill="#000000" fill-rule="evenodd" fill-opacity="1" /><polyline clip-path="url(#clip220)" style="stroke:#e26f46; stroke-linecap:butt; stroke-linejoin:round; stroke-width:4; stroke-opacity:1; fill:none" points="
  367.475,198.898 505.983,198.898 
  "/>
<path clip-path="url(#clip220)" d="M545.456 199.974 Q546.961 200.483 548.373 202.15 Q549.808 203.817 551.243 206.733 L555.989 216.178 L550.966 216.178 L546.544 207.312 Q544.831 203.84 543.211 202.705 Q541.614 201.571 538.836 201.571 L533.744 201.571 L533.744 216.178 L529.068 216.178 L529.068 181.618 L539.623 181.618 Q545.549 181.618 548.466 184.094 Q551.382 186.571 551.382 191.571 Q551.382 194.835 549.855 196.988 Q548.35 199.141 545.456 199.974 M533.744 185.46 L533.744 197.729 L539.623 197.729 Q543.003 197.729 544.716 196.178 Q546.452 194.604 546.452 191.571 Q546.452 188.539 544.716 187.011 Q543.003 185.46 539.623 185.46 L533.744 185.46 Z" fill="#000000" fill-rule="evenodd" fill-opacity="1" /><path clip-path="url(#clip220)" d="M581.868 202.15 L581.868 204.233 L562.285 204.233 Q562.563 208.631 564.924 210.946 Q567.308 213.238 571.544 213.238 Q573.998 213.238 576.29 212.636 Q578.604 212.034 580.873 210.83 L580.873 214.858 Q578.581 215.83 576.174 216.34 Q573.766 216.849 571.29 216.849 Q565.086 216.849 561.452 213.238 Q557.841 209.627 557.841 203.469 Q557.841 197.104 561.267 193.377 Q564.716 189.627 570.549 189.627 Q575.78 189.627 578.813 193.006 Q581.868 196.363 581.868 202.15 M577.609 200.9 Q577.563 197.405 575.641 195.321 Q573.743 193.238 570.595 193.238 Q567.03 193.238 564.878 195.252 Q562.748 197.266 562.424 200.923 L577.609 200.9 Z" fill="#000000" fill-rule="evenodd" fill-opacity="1" /><path clip-path="url(#clip220)" d="M593.072 182.891 L593.072 190.252 L601.845 190.252 L601.845 193.562 L593.072 193.562 L593.072 207.636 Q593.072 210.807 593.928 211.71 Q594.808 212.613 597.47 212.613 L601.845 212.613 L601.845 216.178 L597.47 216.178 Q592.54 216.178 590.665 214.349 Q588.79 212.497 588.79 207.636 L588.79 193.562 L585.665 193.562 L585.665 190.252 L588.79 190.252 L588.79 182.891 L593.072 182.891 Z" fill="#000000" fill-rule="evenodd" fill-opacity="1" /><path clip-path="url(#clip220)" d="M619.229 203.145 Q614.067 203.145 612.076 204.326 Q610.086 205.506 610.086 208.354 Q610.086 210.622 611.567 211.965 Q613.072 213.284 615.641 213.284 Q619.183 213.284 621.313 210.784 Q623.465 208.261 623.465 204.094 L623.465 203.145 L619.229 203.145 M627.725 201.386 L627.725 216.178 L623.465 216.178 L623.465 212.242 Q622.007 214.603 619.831 215.738 Q617.655 216.849 614.507 216.849 Q610.526 216.849 608.164 214.627 Q605.826 212.381 605.826 208.631 Q605.826 204.256 608.743 202.034 Q611.683 199.812 617.493 199.812 L623.465 199.812 L623.465 199.395 Q623.465 196.455 621.521 194.858 Q619.6 193.238 616.104 193.238 Q613.882 193.238 611.776 193.77 Q609.669 194.303 607.725 195.367 L607.725 191.432 Q610.063 190.53 612.262 190.09 Q614.461 189.627 616.544 189.627 Q622.169 189.627 624.947 192.543 Q627.725 195.46 627.725 201.386 Z" fill="#000000" fill-rule="evenodd" fill-opacity="1" /><path clip-path="url(#clip220)" d="M636.498 190.252 L640.757 190.252 L640.757 216.178 L636.498 216.178 L636.498 190.252 M636.498 180.159 L640.757 180.159 L640.757 185.553 L636.498 185.553 L636.498 180.159 Z" fill="#000000" fill-rule="evenodd" fill-opacity="1" /><path clip-path="url(#clip220)" d="M649.669 180.159 L653.928 180.159 L653.928 216.178 L649.669 216.178 L649.669 180.159 Z" fill="#000000" fill-rule="evenodd" fill-opacity="1" /><path clip-path="url(#clip220)" d="M698.812 182.752 L698.812 187.312 Q696.15 186.039 693.789 185.414 Q691.428 184.789 689.229 184.789 Q685.409 184.789 683.326 186.27 Q681.266 187.752 681.266 190.483 Q681.266 192.775 682.632 193.955 Q684.021 195.113 687.863 195.83 L690.687 196.409 Q695.919 197.405 698.395 199.928 Q700.895 202.428 700.895 206.641 Q700.895 211.664 697.516 214.256 Q694.159 216.849 687.655 216.849 Q685.201 216.849 682.423 216.293 Q679.669 215.738 676.706 214.65 L676.706 209.835 Q679.553 211.432 682.284 212.242 Q685.016 213.053 687.655 213.053 Q691.659 213.053 693.835 211.479 Q696.011 209.904 696.011 206.988 Q696.011 204.442 694.437 203.006 Q692.886 201.571 689.321 200.854 L686.474 200.298 Q681.243 199.256 678.905 197.034 Q676.567 194.812 676.567 190.854 Q676.567 186.27 679.784 183.631 Q683.025 180.993 688.696 180.993 Q691.127 180.993 693.65 181.432 Q696.173 181.872 698.812 182.752 Z" fill="#000000" fill-rule="evenodd" fill-opacity="1" /><path clip-path="url(#clip220)" d="M719.784 203.145 Q714.622 203.145 712.631 204.326 Q710.641 205.506 710.641 208.354 Q710.641 210.622 712.122 211.965 Q713.627 213.284 716.196 213.284 Q719.738 213.284 721.868 210.784 Q724.02 208.261 724.02 204.094 L724.02 203.145 L719.784 203.145 M728.28 201.386 L728.28 216.178 L724.02 216.178 L724.02 212.242 Q722.562 214.603 720.386 215.738 Q718.21 216.849 715.062 216.849 Q711.081 216.849 708.719 214.627 Q706.382 212.381 706.382 208.631 Q706.382 204.256 709.298 202.034 Q712.238 199.812 718.048 199.812 L724.02 199.812 L724.02 199.395 Q724.02 196.455 722.076 194.858 Q720.155 193.238 716.659 193.238 Q714.437 193.238 712.331 193.77 Q710.224 194.303 708.28 195.367 L708.28 191.432 Q710.618 190.53 712.817 190.09 Q715.016 189.627 717.099 189.627 Q722.724 189.627 725.502 192.543 Q728.28 195.46 728.28 201.386 Z" fill="#000000" fill-rule="evenodd" fill-opacity="1" /><path clip-path="url(#clip220)" d="M737.053 180.159 L741.312 180.159 L741.312 216.178 L737.053 216.178 L737.053 180.159 Z" fill="#000000" fill-rule="evenodd" fill-opacity="1" /><path clip-path="url(#clip220)" d="M772.4 202.15 L772.4 204.233 L752.816 204.233 Q753.094 208.631 755.455 210.946 Q757.84 213.238 762.076 213.238 Q764.529 213.238 766.821 212.636 Q769.136 212.034 771.404 210.83 L771.404 214.858 Q769.113 215.83 766.705 216.34 Q764.298 216.849 761.821 216.849 Q755.617 216.849 751.983 213.238 Q748.372 209.627 748.372 203.469 Q748.372 197.104 751.798 193.377 Q755.247 189.627 761.08 189.627 Q766.312 189.627 769.344 193.006 Q772.4 196.363 772.4 202.15 M768.14 200.9 Q768.094 197.405 766.173 195.321 Q764.275 193.238 761.127 193.238 Q757.562 193.238 755.409 195.252 Q753.279 197.266 752.955 200.923 L768.14 200.9 Z" fill="#000000" fill-rule="evenodd" fill-opacity="1" /><path clip-path="url(#clip220)" d="M795.918 191.016 L795.918 195.043 Q794.113 194.117 792.168 193.655 Q790.224 193.192 788.14 193.192 Q784.969 193.192 783.372 194.164 Q781.798 195.136 781.798 197.08 Q781.798 198.562 782.932 199.418 Q784.066 200.252 787.492 201.016 L788.951 201.34 Q793.488 202.312 795.386 204.094 Q797.307 205.854 797.307 209.025 Q797.307 212.636 794.437 214.742 Q791.589 216.849 786.589 216.849 Q784.506 216.849 782.238 216.432 Q779.992 216.039 777.492 215.228 L777.492 210.83 Q779.853 212.057 782.145 212.682 Q784.437 213.284 786.682 213.284 Q789.691 213.284 791.312 212.266 Q792.932 211.224 792.932 209.349 Q792.932 207.613 791.751 206.687 Q790.594 205.761 786.636 204.904 L785.154 204.557 Q781.196 203.724 779.437 202.011 Q777.677 200.275 777.677 197.266 Q777.677 193.608 780.27 191.618 Q782.863 189.627 787.631 189.627 Q789.992 189.627 792.075 189.974 Q794.159 190.321 795.918 191.016 Z" fill="#000000" fill-rule="evenodd" fill-opacity="1" /></svg>
