<?xml version="1.0" encoding="utf-8"?>
<svg xmlns="http://www.w3.org/2000/svg" xmlns:xlink="http://www.w3.org/1999/xlink" width="600" height="400" viewBox="0 0 2400 1600">
<defs>
  <clipPath id="clip100">
    <rect x="0" y="0" width="2400" height="1600"/>
  </clipPath>
</defs>
<path clip-path="url(#clip100)" d="
M0 1600 L2400 1600 L2400 0 L0 0  Z
  " fill="#ffffff" fill-rule="evenodd" fill-opacity="1"/>
<defs>
  <clipPath id="clip101">
    <rect x="480" y="0" width="1681" height="1600"/>
  </clipPath>
</defs>
<path clip-path="url(#clip100)" d="
M170.857 1486.45 L2352.76 1486.45 L2352.76 123.472 L170.857 123.472  Z
  " fill="#ffffff" fill-rule="evenodd" fill-opacity="1"/>
<defs>
  <clipPath id="clip102">
    <rect x="170" y="123" width="2183" height="1364"/>
  </clipPath>
</defs>
<polyline clip-path="url(#clip102)" style="stroke:#000000; stroke-linecap:butt; stroke-linejoin:round; stroke-width:2; stroke-opacity:0.1; fill:none" points="
  175.724,1486.45 175.724,123.472 
  "/>
<polyline clip-path="url(#clip102)" style="stroke:#000000; stroke-linecap:butt; stroke-linejoin:round; stroke-width:2; stroke-opacity:0.1; fill:none" points="
  725.474,1486.45 725.474,123.472 
  "/>
<polyline clip-path="url(#clip102)" style="stroke:#000000; stroke-linecap:butt; stroke-linejoin:round; stroke-width:2; stroke-opacity:0.1; fill:none" points="
  1275.22,1486.45 1275.22,123.472 
  "/>
<polyline clip-path="url(#clip102)" style="stroke:#000000; stroke-linecap:butt; stroke-linejoin:round; stroke-width:2; stroke-opacity:0.1; fill:none" points="
  1825.02,1486.45 1825.02,123.472 
  "/>
<polyline clip-path="url(#clip100)" style="stroke:#000000; stroke-linecap:butt; stroke-linejoin:round; stroke-width:4; stroke-opacity:1; fill:none" points="
  170.857,1486.45 2352.76,1486.45 
  "/>
<polyline clip-path="url(#clip100)" style="stroke:#000000; stroke-linecap:butt; stroke-linejoin:round; stroke-width:4; stroke-opacity:1; fill:none" points="
  175.724,1486.45 175.724,1467.55 
  "/>
<polyline clip-path="url(#clip100)" style="stroke:#000000; stroke-linecap:butt; stroke-linejoin:round; stroke-width:4; stroke-opacity:1; fill:none" points="
  725.474,1486.45 725.474,1467.55 
  "/>
<polyline clip-path="url(#clip100)" style="stroke:#000000; stroke-linecap:butt; stroke-linejoin:round; stroke-width:4; stroke-opacity:1; fill:none" points="
  1275.22,1486.45 1275.22,1467.55 
  "/>
<polyline clip-path="url(#clip100)" style="stroke:#000000; stroke-linecap:butt; stroke-linejoin:round; stroke-width:4; stroke-opacity:1; fill:none" points="
  1825.02,1486.45 1825.02,1467.55 
  "/>
<path clip-path="url(#clip100)" d="M43.4333 1543.18 L51.0722 1543.18 L51.0722 1516.82 L42.762 1518.49 L42.762 1514.23 L51.0259 1512.56 L55.7018 1512.56 L55.7018 1543.18 L63.3406 1543.18 L63.3406 1547.12 L43.4333 1547.12 L43.4333 1543.18 Z" fill="#000000" fill-rule="evenodd" fill-opacity="1" /><path clip-path="url(#clip100)" d="M72.9239 1546.4 L72.9239 1542.14 Q74.6832 1542.98 76.4887 1543.42 Q78.2943 1543.86 80.0304 1543.86 Q84.66 1543.86 87.0905 1540.75 Q89.5442 1537.63 89.8914 1531.29 Q88.5488 1533.28 86.4887 1534.34 Q84.4285 1535.41 81.9285 1535.41 Q76.7433 1535.41 73.711 1532.28 Q70.7017 1529.13 70.7017 1523.69 Q70.7017 1518.37 73.8498 1515.15 Q76.998 1511.93 82.2294 1511.93 Q88.2248 1511.93 91.3729 1516.54 Q94.5442 1521.12 94.5442 1529.87 Q94.5442 1538.05 90.6553 1542.93 Q86.7896 1547.79 80.2387 1547.79 Q78.4795 1547.79 76.6739 1547.44 Q74.8684 1547.1 72.9239 1546.4 M82.2294 1531.75 Q85.3776 1531.75 87.2063 1529.6 Q89.0581 1527.44 89.0581 1523.69 Q89.0581 1519.97 87.2063 1517.81 Q85.3776 1515.64 82.2294 1515.64 Q79.0813 1515.64 77.2295 1517.81 Q75.4008 1519.97 75.4008 1523.69 Q75.4008 1527.44 77.2295 1529.6 Q79.0813 1531.75 82.2294 1531.75 Z" fill="#000000" fill-rule="evenodd" fill-opacity="1" /><path clip-path="url(#clip100)" d="M103.757 1543.18 L111.396 1543.18 L111.396 1516.82 L103.086 1518.49 L103.086 1514.23 L111.35 1512.56 L116.026 1512.56 L116.026 1543.18 L123.664 1543.18 L123.664 1547.12 L103.757 1547.12 L103.757 1543.18 Z" fill="#000000" fill-rule="evenodd" fill-opacity="1" /><path clip-path="url(#clip100)" d="M143.109 1515.64 Q139.498 1515.64 137.669 1519.2 Q135.863 1522.75 135.863 1529.87 Q135.863 1536.98 137.669 1540.55 Q139.498 1544.09 143.109 1544.09 Q146.743 1544.09 148.549 1540.55 Q150.377 1536.98 150.377 1529.87 Q150.377 1522.75 148.549 1519.2 Q146.743 1515.64 143.109 1515.64 M143.109 1511.93 Q148.919 1511.93 151.974 1516.54 Q155.053 1521.12 155.053 1529.87 Q155.053 1538.6 151.974 1543.21 Q148.919 1547.79 143.109 1547.79 Q137.299 1547.79 134.22 1543.21 Q131.164 1538.6 131.164 1529.87 Q131.164 1521.12 134.22 1516.54 Q137.299 1511.93 143.109 1511.93 Z" fill="#000000" fill-rule="evenodd" fill-opacity="1" /><path clip-path="url(#clip100)" d="M160.516 1532.24 L172.993 1532.24 L172.993 1536.03 L160.516 1536.03 L160.516 1532.24 Z" fill="#000000" fill-rule="evenodd" fill-opacity="1" /><path clip-path="url(#clip100)" d="M190.377 1515.64 Q186.766 1515.64 184.937 1519.2 Q183.132 1522.75 183.132 1529.87 Q183.132 1536.98 184.937 1540.55 Q186.766 1544.09 190.377 1544.09 Q194.011 1544.09 195.817 1540.55 Q197.645 1536.98 197.645 1529.87 Q197.645 1522.75 195.817 1519.2 Q194.011 1515.64 190.377 1515.64 M190.377 1511.93 Q196.187 1511.93 199.243 1516.54 Q202.321 1521.12 202.321 1529.87 Q202.321 1538.6 199.243 1543.21 Q196.187 1547.79 190.377 1547.79 Q184.567 1547.79 181.488 1543.21 Q178.433 1538.6 178.433 1529.87 Q178.433 1521.12 181.488 1516.54 Q184.567 1511.93 190.377 1511.93 Z" fill="#000000" fill-rule="evenodd" fill-opacity="1" /><path clip-path="url(#clip100)" d="M211.349 1543.18 L218.988 1543.18 L218.988 1516.82 L210.678 1518.49 L210.678 1514.23 L218.942 1512.56 L223.618 1512.56 L223.618 1543.18 L231.256 1543.18 L231.256 1547.12 L211.349 1547.12 L211.349 1543.18 Z" fill="#000000" fill-rule="evenodd" fill-opacity="1" /><path clip-path="url(#clip100)" d="M237.946 1532.24 L250.423 1532.24 L250.423 1536.03 L237.946 1536.03 L237.946 1532.24 Z" fill="#000000" fill-rule="evenodd" fill-opacity="1" /><path clip-path="url(#clip100)" d="M267.807 1515.64 Q264.196 1515.64 262.367 1519.2 Q260.562 1522.75 260.562 1529.87 Q260.562 1536.98 262.367 1540.55 Q264.196 1544.09 267.807 1544.09 Q271.441 1544.09 273.247 1540.55 Q275.076 1536.98 275.076 1529.87 Q275.076 1522.75 273.247 1519.2 Q271.441 1515.64 267.807 1515.64 M267.807 1511.93 Q273.617 1511.93 276.673 1516.54 Q279.752 1521.12 279.752 1529.87 Q279.752 1538.6 276.673 1543.21 Q273.617 1547.79 267.807 1547.79 Q261.997 1547.79 258.918 1543.21 Q255.863 1538.6 255.863 1529.87 Q255.863 1521.12 258.918 1516.54 Q261.997 1511.93 267.807 1511.93 Z" fill="#000000" fill-rule="evenodd" fill-opacity="1" /><path clip-path="url(#clip100)" d="M288.779 1543.18 L296.418 1543.18 L296.418 1516.82 L288.108 1518.49 L288.108 1514.23 L296.372 1512.56 L301.048 1512.56 L301.048 1543.18 L308.687 1543.18 L308.687 1547.12 L288.779 1547.12 L288.779 1543.18 Z" fill="#000000" fill-rule="evenodd" fill-opacity="1" /><path clip-path="url(#clip100)" d="M593.183 1543.18 L600.822 1543.18 L600.822 1516.82 L592.512 1518.49 L592.512 1514.23 L600.775 1512.56 L605.451 1512.56 L605.451 1543.18 L613.09 1543.18 L613.09 1547.12 L593.183 1547.12 L593.183 1543.18 Z" fill="#000000" fill-rule="evenodd" fill-opacity="1" /><path clip-path="url(#clip100)" d="M622.673 1546.4 L622.673 1542.14 Q624.433 1542.98 626.238 1543.42 Q628.044 1543.86 629.78 1543.86 Q634.41 1543.86 636.84 1540.75 Q639.294 1537.63 639.641 1531.29 Q638.298 1533.28 636.238 1534.34 Q634.178 1535.41 631.678 1535.41 Q626.493 1535.41 623.461 1532.28 Q620.451 1529.13 620.451 1523.69 Q620.451 1518.37 623.599 1515.15 Q626.748 1511.93 631.979 1511.93 Q637.974 1511.93 641.122 1516.54 Q644.294 1521.12 644.294 1529.87 Q644.294 1538.05 640.405 1542.93 Q636.539 1547.79 629.988 1547.79 Q628.229 1547.79 626.423 1547.44 Q624.618 1547.1 622.673 1546.4 M631.979 1531.75 Q635.127 1531.75 636.956 1529.6 Q638.808 1527.44 638.808 1523.69 Q638.808 1519.97 636.956 1517.81 Q635.127 1515.64 631.979 1515.64 Q628.831 1515.64 626.979 1517.81 Q625.15 1519.97 625.15 1523.69 Q625.15 1527.44 626.979 1529.6 Q628.831 1531.75 631.979 1531.75 Z" fill="#000000" fill-rule="evenodd" fill-opacity="1" /><path clip-path="url(#clip100)" d="M666.863 1528.49 Q670.22 1529.2 672.095 1531.47 Q673.993 1533.74 673.993 1537.07 Q673.993 1542.19 670.474 1544.99 Q666.956 1547.79 660.474 1547.79 Q658.298 1547.79 655.983 1547.35 Q653.692 1546.93 651.238 1546.08 L651.238 1541.56 Q653.183 1542.7 655.497 1543.28 Q657.812 1543.86 660.335 1543.86 Q664.733 1543.86 667.025 1542.12 Q669.34 1540.38 669.34 1537.07 Q669.34 1534.02 667.187 1532.31 Q665.058 1530.57 661.238 1530.57 L657.21 1530.57 L657.21 1526.73 L661.423 1526.73 Q664.872 1526.73 666.701 1525.36 Q668.53 1523.97 668.53 1521.38 Q668.53 1518.72 666.632 1517.31 Q664.757 1515.87 661.238 1515.87 Q659.317 1515.87 657.118 1516.29 Q654.919 1516.7 652.28 1517.58 L652.28 1513.42 Q654.942 1512.68 657.257 1512.31 Q659.595 1511.93 661.655 1511.93 Q666.979 1511.93 670.081 1514.37 Q673.182 1516.77 673.182 1520.89 Q673.182 1523.76 671.539 1525.75 Q669.895 1527.72 666.863 1528.49 Z" fill="#000000" fill-rule="evenodd" fill-opacity="1" /><path clip-path="url(#clip100)" d="M682.997 1546.4 L682.997 1542.14 Q684.756 1542.98 686.562 1543.42 Q688.368 1543.86 690.104 1543.86 Q694.733 1543.86 697.164 1540.75 Q699.618 1537.63 699.965 1531.29 Q698.622 1533.28 696.562 1534.34 Q694.502 1535.41 692.002 1535.41 Q686.817 1535.41 683.784 1532.28 Q680.775 1529.13 680.775 1523.69 Q680.775 1518.37 683.923 1515.15 Q687.071 1511.93 692.303 1511.93 Q698.298 1511.93 701.446 1516.54 Q704.617 1521.12 704.617 1529.87 Q704.617 1538.05 700.729 1542.93 Q696.863 1547.79 690.312 1547.79 Q688.553 1547.79 686.747 1547.44 Q684.942 1547.1 682.997 1546.4 M692.303 1531.75 Q695.451 1531.75 697.28 1529.6 Q699.131 1527.44 699.131 1523.69 Q699.131 1519.97 697.28 1517.81 Q695.451 1515.64 692.303 1515.64 Q689.155 1515.64 687.303 1517.81 Q685.474 1519.97 685.474 1523.69 Q685.474 1527.44 687.303 1529.6 Q689.155 1531.75 692.303 1531.75 Z" fill="#000000" fill-rule="evenodd" fill-opacity="1" /><path clip-path="url(#clip100)" d="M710.266 1532.24 L722.742 1532.24 L722.742 1536.03 L710.266 1536.03 L710.266 1532.24 Z" fill="#000000" fill-rule="evenodd" fill-opacity="1" /><path clip-path="url(#clip100)" d="M740.127 1515.64 Q736.515 1515.64 734.687 1519.2 Q732.881 1522.75 732.881 1529.87 Q732.881 1536.98 734.687 1540.55 Q736.515 1544.09 740.127 1544.09 Q743.761 1544.09 745.566 1540.55 Q747.395 1536.98 747.395 1529.87 Q747.395 1522.75 745.566 1519.2 Q743.761 1515.64 740.127 1515.64 M740.127 1511.93 Q745.937 1511.93 748.992 1516.54 Q752.071 1521.12 752.071 1529.87 Q752.071 1538.6 748.992 1543.21 Q745.937 1547.79 740.127 1547.79 Q734.316 1547.79 731.238 1543.21 Q728.182 1538.6 728.182 1529.87 Q728.182 1521.12 731.238 1516.54 Q734.316 1511.93 740.127 1511.93 Z" fill="#000000" fill-rule="evenodd" fill-opacity="1" /><path clip-path="url(#clip100)" d="M761.099 1543.18 L768.738 1543.18 L768.738 1516.82 L760.427 1518.49 L760.427 1514.23 L768.691 1512.56 L773.367 1512.56 L773.367 1543.18 L781.006 1543.18 L781.006 1547.12 L761.099 1547.12 L761.099 1543.18 Z" fill="#000000" fill-rule="evenodd" fill-opacity="1" /><path clip-path="url(#clip100)" d="M787.696 1532.24 L800.173 1532.24 L800.173 1536.03 L787.696 1536.03 L787.696 1532.24 Z" fill="#000000" fill-rule="evenodd" fill-opacity="1" /><path clip-path="url(#clip100)" d="M817.557 1515.64 Q813.946 1515.64 812.117 1519.2 Q810.311 1522.75 810.311 1529.87 Q810.311 1536.98 812.117 1540.55 Q813.946 1544.09 817.557 1544.09 Q821.191 1544.09 822.996 1540.55 Q824.825 1536.98 824.825 1529.87 Q824.825 1522.75 822.996 1519.2 Q821.191 1515.64 817.557 1515.64 M817.557 1511.93 Q823.367 1511.93 826.422 1516.54 Q829.501 1521.12 829.501 1529.87 Q829.501 1538.6 826.422 1543.21 Q823.367 1547.79 817.557 1547.79 Q811.747 1547.79 808.668 1543.21 Q805.612 1538.6 805.612 1529.87 Q805.612 1521.12 808.668 1516.54 Q811.747 1511.93 817.557 1511.93 Z" fill="#000000" fill-rule="evenodd" fill-opacity="1" /><path clip-path="url(#clip100)" d="M838.529 1543.18 L846.168 1543.18 L846.168 1516.82 L837.858 1518.49 L837.858 1514.23 L846.121 1512.56 L850.797 1512.56 L850.797 1543.18 L858.436 1543.18 L858.436 1547.12 L838.529 1547.12 L838.529 1543.18 Z" fill="#000000" fill-rule="evenodd" fill-opacity="1" /><path clip-path="url(#clip100)" d="M1142.93 1543.18 L1150.57 1543.18 L1150.57 1516.82 L1142.26 1518.49 L1142.26 1514.23 L1150.53 1512.56 L1155.2 1512.56 L1155.2 1543.18 L1162.84 1543.18 L1162.84 1547.12 L1142.93 1547.12 L1142.93 1543.18 Z" fill="#000000" fill-rule="evenodd" fill-opacity="1" /><path clip-path="url(#clip100)" d="M1172.42 1546.4 L1172.42 1542.14 Q1174.18 1542.98 1175.99 1543.42 Q1177.79 1543.86 1179.53 1543.86 Q1184.16 1543.86 1186.59 1540.75 Q1189.04 1537.63 1189.39 1531.29 Q1188.05 1533.28 1185.99 1534.34 Q1183.93 1535.41 1181.43 1535.41 Q1176.24 1535.41 1173.21 1532.28 Q1170.2 1529.13 1170.2 1523.69 Q1170.2 1518.37 1173.35 1515.15 Q1176.5 1511.93 1181.73 1511.93 Q1187.72 1511.93 1190.87 1516.54 Q1194.04 1521.12 1194.04 1529.87 Q1194.04 1538.05 1190.15 1542.93 Q1186.29 1547.79 1179.74 1547.79 Q1177.98 1547.79 1176.17 1547.44 Q1174.37 1547.1 1172.42 1546.4 M1181.73 1531.75 Q1184.88 1531.75 1186.71 1529.6 Q1188.56 1527.44 1188.56 1523.69 Q1188.56 1519.97 1186.71 1517.81 Q1184.88 1515.64 1181.73 1515.64 Q1178.58 1515.64 1176.73 1517.81 Q1174.9 1519.97 1174.9 1523.69 Q1174.9 1527.44 1176.73 1529.6 Q1178.58 1531.75 1181.73 1531.75 Z" fill="#000000" fill-rule="evenodd" fill-opacity="1" /><path clip-path="url(#clip100)" d="M1213.02 1527.98 Q1209.88 1527.98 1208.02 1530.13 Q1206.2 1532.28 1206.2 1536.03 Q1206.2 1539.76 1208.02 1541.93 Q1209.88 1544.09 1213.02 1544.09 Q1216.17 1544.09 1218 1541.93 Q1219.85 1539.76 1219.85 1536.03 Q1219.85 1532.28 1218 1530.13 Q1216.17 1527.98 1213.02 1527.98 M1222.31 1513.32 L1222.31 1517.58 Q1220.55 1516.75 1218.74 1516.31 Q1216.96 1515.87 1215.2 1515.87 Q1210.57 1515.87 1208.12 1519 Q1205.69 1522.12 1205.34 1528.44 Q1206.71 1526.43 1208.77 1525.36 Q1210.83 1524.27 1213.3 1524.27 Q1218.51 1524.27 1221.52 1527.44 Q1224.55 1530.59 1224.55 1536.03 Q1224.55 1541.36 1221.4 1544.57 Q1218.26 1547.79 1213.02 1547.79 Q1207.03 1547.79 1203.86 1543.21 Q1200.69 1538.6 1200.69 1529.87 Q1200.69 1521.68 1204.58 1516.82 Q1208.46 1511.93 1215.02 1511.93 Q1216.77 1511.93 1218.56 1512.28 Q1220.36 1512.63 1222.31 1513.32 Z" fill="#000000" fill-rule="evenodd" fill-opacity="1" /><path clip-path="url(#clip100)" d="M1242.61 1530.71 Q1239.27 1530.71 1237.35 1532.49 Q1235.46 1534.27 1235.46 1537.4 Q1235.46 1540.52 1237.35 1542.31 Q1239.27 1544.09 1242.61 1544.09 Q1245.94 1544.09 1247.86 1542.31 Q1249.78 1540.5 1249.78 1537.4 Q1249.78 1534.27 1247.86 1532.49 Q1245.96 1530.71 1242.61 1530.71 M1237.93 1528.72 Q1234.92 1527.98 1233.23 1525.92 Q1231.57 1523.86 1231.57 1520.89 Q1231.57 1516.75 1234.51 1514.34 Q1237.47 1511.93 1242.61 1511.93 Q1247.77 1511.93 1250.71 1514.34 Q1253.65 1516.75 1253.65 1520.89 Q1253.65 1523.86 1251.96 1525.92 Q1250.29 1527.98 1247.31 1528.72 Q1250.69 1529.5 1252.56 1531.8 Q1254.46 1534.09 1254.46 1537.4 Q1254.46 1542.42 1251.38 1545.11 Q1248.33 1547.79 1242.61 1547.79 Q1236.89 1547.79 1233.81 1545.11 Q1230.76 1542.42 1230.76 1537.4 Q1230.76 1534.09 1232.65 1531.8 Q1234.55 1529.5 1237.93 1528.72 M1236.22 1521.33 Q1236.22 1524.02 1237.89 1525.52 Q1239.58 1527.03 1242.61 1527.03 Q1245.62 1527.03 1247.31 1525.52 Q1249.02 1524.02 1249.02 1521.33 Q1249.02 1518.65 1247.31 1517.14 Q1245.62 1515.64 1242.61 1515.64 Q1239.58 1515.64 1237.89 1517.14 Q1236.22 1518.65 1236.22 1521.33 Z" fill="#000000" fill-rule="evenodd" fill-opacity="1" /><path clip-path="url(#clip100)" d="M1260.02 1532.24 L1272.49 1532.24 L1272.49 1536.03 L1260.02 1536.03 L1260.02 1532.24 Z" fill="#000000" fill-rule="evenodd" fill-opacity="1" /><path clip-path="url(#clip100)" d="M1289.88 1515.64 Q1286.27 1515.64 1284.44 1519.2 Q1282.63 1522.75 1282.63 1529.87 Q1282.63 1536.98 1284.44 1540.55 Q1286.27 1544.09 1289.88 1544.09 Q1293.51 1544.09 1295.32 1540.55 Q1297.14 1536.98 1297.14 1529.87 Q1297.14 1522.75 1295.32 1519.2 Q1293.51 1515.64 1289.88 1515.64 M1289.88 1511.93 Q1295.69 1511.93 1298.74 1516.54 Q1301.82 1521.12 1301.82 1529.87 Q1301.82 1538.6 1298.74 1543.21 Q1295.69 1547.79 1289.88 1547.79 Q1284.07 1547.79 1280.99 1543.21 Q1277.93 1538.6 1277.93 1529.87 Q1277.93 1521.12 1280.99 1516.54 Q1284.07 1511.93 1289.88 1511.93 Z" fill="#000000" fill-rule="evenodd" fill-opacity="1" /><path clip-path="url(#clip100)" d="M1310.85 1543.18 L1318.49 1543.18 L1318.49 1516.82 L1310.18 1518.49 L1310.18 1514.23 L1318.44 1512.56 L1323.12 1512.56 L1323.12 1543.18 L1330.76 1543.18 L1330.76 1547.12 L1310.85 1547.12 L1310.85 1543.18 Z" fill="#000000" fill-rule="evenodd" fill-opacity="1" /><path clip-path="url(#clip100)" d="M1337.45 1532.24 L1349.92 1532.24 L1349.92 1536.03 L1337.45 1536.03 L1337.45 1532.24 Z" fill="#000000" fill-rule="evenodd" fill-opacity="1" /><path clip-path="url(#clip100)" d="M1367.31 1515.64 Q1363.7 1515.64 1361.87 1519.2 Q1360.06 1522.75 1360.06 1529.87 Q1360.06 1536.98 1361.87 1540.55 Q1363.7 1544.09 1367.31 1544.09 Q1370.94 1544.09 1372.75 1540.55 Q1374.57 1536.98 1374.57 1529.87 Q1374.57 1522.75 1372.75 1519.2 Q1370.94 1515.64 1367.31 1515.64 M1367.31 1511.93 Q1373.12 1511.93 1376.17 1516.54 Q1379.25 1521.12 1379.25 1529.87 Q1379.25 1538.6 1376.17 1543.21 Q1373.12 1547.79 1367.31 1547.79 Q1361.5 1547.79 1358.42 1543.21 Q1355.36 1538.6 1355.36 1529.87 Q1355.36 1521.12 1358.42 1516.54 Q1361.5 1511.93 1367.31 1511.93 Z" fill="#000000" fill-rule="evenodd" fill-opacity="1" /><path clip-path="url(#clip100)" d="M1388.28 1543.18 L1395.92 1543.18 L1395.92 1516.82 L1387.61 1518.49 L1387.61 1514.23 L1395.87 1512.56 L1400.55 1512.56 L1400.55 1543.18 L1408.19 1543.18 L1408.19 1547.12 L1388.28 1547.12 L1388.28 1543.18 Z" fill="#000000" fill-rule="evenodd" fill-opacity="1" /><path clip-path="url(#clip100)" d="M1692.73 1543.18 L1700.37 1543.18 L1700.37 1516.82 L1692.06 1518.49 L1692.06 1514.23 L1700.33 1512.56 L1705 1512.56 L1705 1543.18 L1712.64 1543.18 L1712.64 1547.12 L1692.73 1547.12 L1692.73 1543.18 Z" fill="#000000" fill-rule="evenodd" fill-opacity="1" /><path clip-path="url(#clip100)" d="M1722.22 1546.4 L1722.22 1542.14 Q1723.98 1542.98 1725.79 1543.42 Q1727.59 1543.86 1729.33 1543.86 Q1733.96 1543.86 1736.39 1540.75 Q1738.84 1537.63 1739.19 1531.29 Q1737.85 1533.28 1735.79 1534.34 Q1733.73 1535.41 1731.23 1535.41 Q1726.04 1535.41 1723.01 1532.28 Q1720 1529.13 1720 1523.69 Q1720 1518.37 1723.15 1515.15 Q1726.3 1511.93 1731.53 1511.93 Q1737.53 1511.93 1740.67 1516.54 Q1743.84 1521.12 1743.84 1529.87 Q1743.84 1538.05 1739.96 1542.93 Q1736.09 1547.79 1729.54 1547.79 Q1727.78 1547.79 1725.97 1547.44 Q1724.17 1547.1 1722.22 1546.4 M1731.53 1531.75 Q1734.68 1531.75 1736.51 1529.6 Q1738.36 1527.44 1738.36 1523.69 Q1738.36 1519.97 1736.51 1517.81 Q1734.68 1515.64 1731.53 1515.64 Q1728.38 1515.64 1726.53 1517.81 Q1724.7 1519.97 1724.7 1523.69 Q1724.7 1527.44 1726.53 1529.6 Q1728.38 1531.75 1731.53 1531.75 Z" fill="#000000" fill-rule="evenodd" fill-opacity="1" /><path clip-path="url(#clip100)" d="M1752.39 1546.4 L1752.39 1542.14 Q1754.15 1542.98 1755.95 1543.42 Q1757.76 1543.86 1759.49 1543.86 Q1764.12 1543.86 1766.55 1540.75 Q1769.01 1537.63 1769.35 1531.29 Q1768.01 1533.28 1765.95 1534.34 Q1763.89 1535.41 1761.39 1535.41 Q1756.21 1535.41 1753.17 1532.28 Q1750.16 1529.13 1750.16 1523.69 Q1750.16 1518.37 1753.31 1515.15 Q1756.46 1511.93 1761.69 1511.93 Q1767.69 1511.93 1770.84 1516.54 Q1774.01 1521.12 1774.01 1529.87 Q1774.01 1538.05 1770.12 1542.93 Q1766.25 1547.79 1759.7 1547.79 Q1757.94 1547.79 1756.14 1547.44 Q1754.33 1547.1 1752.39 1546.4 M1761.69 1531.75 Q1764.84 1531.75 1766.67 1529.6 Q1768.52 1527.44 1768.52 1523.69 Q1768.52 1519.97 1766.67 1517.81 Q1764.84 1515.64 1761.69 1515.64 Q1758.54 1515.64 1756.69 1517.81 Q1754.86 1519.97 1754.86 1523.69 Q1754.86 1527.44 1756.69 1529.6 Q1758.54 1531.75 1761.69 1531.75 Z" fill="#000000" fill-rule="evenodd" fill-opacity="1" /><path clip-path="url(#clip100)" d="M1781.23 1512.56 L1803.45 1512.56 L1803.45 1514.55 L1790.9 1547.12 L1786.02 1547.12 L1797.83 1516.5 L1781.23 1516.5 L1781.23 1512.56 Z" fill="#000000" fill-rule="evenodd" fill-opacity="1" /><path clip-path="url(#clip100)" d="M1809.82 1532.24 L1822.29 1532.24 L1822.29 1536.03 L1809.82 1536.03 L1809.82 1532.24 Z" fill="#000000" fill-rule="evenodd" fill-opacity="1" /><path clip-path="url(#clip100)" d="M1839.68 1515.64 Q1836.07 1515.64 1834.24 1519.2 Q1832.43 1522.75 1832.43 1529.87 Q1832.43 1536.98 1834.24 1540.55 Q1836.07 1544.09 1839.68 1544.09 Q1843.31 1544.09 1845.12 1540.55 Q1846.95 1536.98 1846.95 1529.87 Q1846.95 1522.75 1845.12 1519.2 Q1843.31 1515.64 1839.68 1515.64 M1839.68 1511.93 Q1845.49 1511.93 1848.54 1516.54 Q1851.62 1521.12 1851.62 1529.87 Q1851.62 1538.6 1848.54 1543.21 Q1845.49 1547.79 1839.68 1547.79 Q1833.87 1547.79 1830.79 1543.21 Q1827.73 1538.6 1827.73 1529.87 Q1827.73 1521.12 1830.79 1516.54 Q1833.87 1511.93 1839.68 1511.93 Z" fill="#000000" fill-rule="evenodd" fill-opacity="1" /><path clip-path="url(#clip100)" d="M1860.65 1543.18 L1868.29 1543.18 L1868.29 1516.82 L1859.98 1518.49 L1859.98 1514.23 L1868.24 1512.56 L1872.92 1512.56 L1872.92 1543.18 L1880.56 1543.18 L1880.56 1547.12 L1860.65 1547.12 L1860.65 1543.18 Z" fill="#000000" fill-rule="evenodd" fill-opacity="1" /><path clip-path="url(#clip100)" d="M1887.25 1532.24 L1899.72 1532.24 L1899.72 1536.03 L1887.25 1536.03 L1887.25 1532.24 Z" fill="#000000" fill-rule="evenodd" fill-opacity="1" /><path clip-path="url(#clip100)" d="M1917.11 1515.64 Q1913.5 1515.64 1911.67 1519.2 Q1909.86 1522.75 1909.86 1529.87 Q1909.86 1536.98 1911.67 1540.55 Q1913.5 1544.09 1917.11 1544.09 Q1920.74 1544.09 1922.55 1540.55 Q1924.38 1536.98 1924.38 1529.87 Q1924.38 1522.75 1922.55 1519.2 Q1920.74 1515.64 1917.11 1515.64 M1917.11 1511.93 Q1922.92 1511.93 1925.97 1516.54 Q1929.05 1521.12 1929.05 1529.87 Q1929.05 1538.6 1925.97 1543.21 Q1922.92 1547.79 1917.11 1547.79 Q1911.3 1547.79 1908.22 1543.21 Q1905.16 1538.6 1905.16 1529.87 Q1905.16 1521.12 1908.22 1516.54 Q1911.3 1511.93 1917.11 1511.93 Z" fill="#000000" fill-rule="evenodd" fill-opacity="1" /><path clip-path="url(#clip100)" d="M1938.08 1543.18 L1945.72 1543.18 L1945.72 1516.82 L1937.41 1518.49 L1937.41 1514.23 L1945.67 1512.56 L1950.35 1512.56 L1950.35 1543.18 L1957.99 1543.18 L1957.99 1547.12 L1938.08 1547.12 L1938.08 1543.18 Z" fill="#000000" fill-rule="evenodd" fill-opacity="1" /><polyline clip-path="url(#clip102)" style="stroke:#000000; stroke-linecap:butt; stroke-linejoin:round; stroke-width:2; stroke-opacity:0.1; fill:none" points="
  170.857,1251.49 2352.76,1251.49 
  "/>
<polyline clip-path="url(#clip102)" style="stroke:#000000; stroke-linecap:butt; stroke-linejoin:round; stroke-width:2; stroke-opacity:0.1; fill:none" points="
  170.857,1007.84 2352.76,1007.84 
  "/>
<polyline clip-path="url(#clip102)" style="stroke:#000000; stroke-linecap:butt; stroke-linejoin:round; stroke-width:2; stroke-opacity:0.1; fill:none" points="
  170.857,764.19 2352.76,764.19 
  "/>
<polyline clip-path="url(#clip102)" style="stroke:#000000; stroke-linecap:butt; stroke-linejoin:round; stroke-width:2; stroke-opacity:0.1; fill:none" points="
  170.857,520.54 2352.76,520.54 
  "/>
<polyline clip-path="url(#clip102)" style="stroke:#000000; stroke-linecap:butt; stroke-linejoin:round; stroke-width:2; stroke-opacity:0.1; fill:none" points="
  170.857,276.889 2352.76,276.889 
  "/>
<polyline clip-path="url(#clip100)" style="stroke:#000000; stroke-linecap:butt; stroke-linejoin:round; stroke-width:4; stroke-opacity:1; fill:none" points="
  170.857,1486.45 170.857,123.472 
  "/>
<polyline clip-path="url(#clip100)" style="stroke:#000000; stroke-linecap:butt; stroke-linejoin:round; stroke-width:4; stroke-opacity:1; fill:none" points="
  170.857,1251.49 189.755,1251.49 
  "/>
<polyline clip-path="url(#clip100)" style="stroke:#000000; stroke-linecap:butt; stroke-linejoin:round; stroke-width:4; stroke-opacity:1; fill:none" points="
  170.857,1007.84 189.755,1007.84 
  "/>
<polyline clip-path="url(#clip100)" style="stroke:#000000; stroke-linecap:butt; stroke-linejoin:round; stroke-width:4; stroke-opacity:1; fill:none" points="
  170.857,764.19 189.755,764.19 
  "/>
<polyline clip-path="url(#clip100)" style="stroke:#000000; stroke-linecap:butt; stroke-linejoin:round; stroke-width:4; stroke-opacity:1; fill:none" points="
  170.857,520.54 189.755,520.54 
  "/>
<polyline clip-path="url(#clip100)" style="stroke:#000000; stroke-linecap:butt; stroke-linejoin:round; stroke-width:4; stroke-opacity:1; fill:none" points="
  170.857,276.889 189.755,276.889 
  "/>
<path clip-path="url(#clip100)" d="M82.7975 1234.21 L101.154 1234.21 L101.154 1238.15 L87.0799 1238.15 L87.0799 1246.62 Q88.0984 1246.27 89.1169 1246.11 Q90.1354 1245.92 91.1539 1245.92 Q96.941 1245.92 100.321 1249.1 Q103.7 1252.27 103.7 1257.68 Q103.7 1263.26 100.228 1266.36 Q96.7558 1269.44 90.4364 1269.44 Q88.2604 1269.44 85.9919 1269.07 Q83.7466 1268.7 81.3392 1267.96 L81.3392 1263.26 Q83.4225 1264.4 85.6447 1264.95 Q87.8669 1265.51 90.3438 1265.51 Q94.3484 1265.51 96.6863 1263.4 Q99.0243 1261.29 99.0243 1257.68 Q99.0243 1254.07 96.6863 1251.97 Q94.3484 1249.86 90.3438 1249.86 Q88.4688 1249.86 86.5938 1250.28 Q84.7419 1250.69 82.7975 1251.57 L82.7975 1234.21 Z" fill="#000000" fill-rule="evenodd" fill-opacity="1" /><path clip-path="url(#clip100)" d="M122.913 1237.29 Q119.302 1237.29 117.473 1240.85 Q115.668 1244.4 115.668 1251.53 Q115.668 1258.63 117.473 1262.2 Q119.302 1265.74 122.913 1265.74 Q126.547 1265.74 128.353 1262.2 Q130.182 1258.63 130.182 1251.53 Q130.182 1244.4 128.353 1240.85 Q126.547 1237.29 122.913 1237.29 M122.913 1233.59 Q128.723 1233.59 131.779 1238.19 Q134.857 1242.78 134.857 1251.53 Q134.857 1260.25 131.779 1264.86 Q128.723 1269.44 122.913 1269.44 Q117.103 1269.44 114.024 1264.86 Q110.969 1260.25 110.969 1251.53 Q110.969 1242.78 114.024 1238.19 Q117.103 1233.59 122.913 1233.59 Z" fill="#000000" fill-rule="evenodd" fill-opacity="1" /><path clip-path="url(#clip100)" d="M53.3995 1021.19 L61.0384 1021.19 L61.0384 994.82 L52.7282 996.486 L52.7282 992.227 L60.9921 990.56 L65.668 990.56 L65.668 1021.19 L73.3068 1021.19 L73.3068 1025.12 L53.3995 1025.12 L53.3995 1021.19 Z" fill="#000000" fill-rule="evenodd" fill-opacity="1" /><path clip-path="url(#clip100)" d="M92.7512 993.639 Q89.1401 993.639 87.3114 997.204 Q85.5058 1000.75 85.5058 1007.88 Q85.5058 1014.98 87.3114 1018.55 Q89.1401 1022.09 92.7512 1022.09 Q96.3854 1022.09 98.1909 1018.55 Q100.02 1014.98 100.02 1007.88 Q100.02 1000.75 98.1909 997.204 Q96.3854 993.639 92.7512 993.639 M92.7512 989.935 Q98.5613 989.935 101.617 994.542 Q104.696 999.125 104.696 1007.88 Q104.696 1016.6 101.617 1021.21 Q98.5613 1025.79 92.7512 1025.79 Q86.941 1025.79 83.8623 1021.21 Q80.8068 1016.6 80.8068 1007.88 Q80.8068 999.125 83.8623 994.542 Q86.941 989.935 92.7512 989.935 Z" fill="#000000" fill-rule="evenodd" fill-opacity="1" /><path clip-path="url(#clip100)" d="M122.913 993.639 Q119.302 993.639 117.473 997.204 Q115.668 1000.75 115.668 1007.88 Q115.668 1014.98 117.473 1018.55 Q119.302 1022.09 122.913 1022.09 Q126.547 1022.09 128.353 1018.55 Q130.182 1014.98 130.182 1007.88 Q130.182 1000.75 128.353 997.204 Q126.547 993.639 122.913 993.639 M122.913 989.935 Q128.723 989.935 131.779 994.542 Q134.857 999.125 134.857 1007.88 Q134.857 1016.6 131.779 1021.21 Q128.723 1025.79 122.913 1025.79 Q117.103 1025.79 114.024 1021.21 Q110.969 1016.6 110.969 1007.88 Q110.969 999.125 114.024 994.542 Q117.103 989.935 122.913 989.935 Z" fill="#000000" fill-rule="evenodd" fill-opacity="1" /><path clip-path="url(#clip100)" d="M53.3995 777.535 L61.0384 777.535 L61.0384 751.169 L52.7282 752.836 L52.7282 748.577 L60.9921 746.91 L65.668 746.91 L65.668 777.535 L73.3068 777.535 L73.3068 781.47 L53.3995 781.47 L53.3995 777.535 Z" fill="#000000" fill-rule="evenodd" fill-opacity="1" /><path clip-path="url(#clip100)" d="M82.7975 746.91 L101.154 746.91 L101.154 750.845 L87.0799 750.845 L87.0799 759.317 Q88.0984 758.97 89.1169 758.808 Q90.1354 758.623 91.1539 758.623 Q96.941 758.623 100.321 761.794 Q103.7 764.965 103.7 770.382 Q103.7 775.961 100.228 779.063 Q96.7558 782.141 90.4364 782.141 Q88.2604 782.141 85.9919 781.771 Q83.7466 781.401 81.3392 780.66 L81.3392 775.961 Q83.4225 777.095 85.6447 777.651 Q87.8669 778.206 90.3438 778.206 Q94.3484 778.206 96.6863 776.1 Q99.0243 773.993 99.0243 770.382 Q99.0243 766.771 96.6863 764.665 Q94.3484 762.558 90.3438 762.558 Q88.4688 762.558 86.5938 762.975 Q84.7419 763.391 82.7975 764.271 L82.7975 746.91 Z" fill="#000000" fill-rule="evenodd" fill-opacity="1" /><path clip-path="url(#clip100)" d="M122.913 749.989 Q119.302 749.989 117.473 753.553 Q115.668 757.095 115.668 764.225 Q115.668 771.331 117.473 774.896 Q119.302 778.438 122.913 778.438 Q126.547 778.438 128.353 774.896 Q130.182 771.331 130.182 764.225 Q130.182 757.095 128.353 753.553 Q126.547 749.989 122.913 749.989 M122.913 746.285 Q128.723 746.285 131.779 750.891 Q134.857 755.475 134.857 764.225 Q134.857 772.952 131.779 777.558 Q128.723 782.141 122.913 782.141 Q117.103 782.141 114.024 777.558 Q110.969 772.952 110.969 764.225 Q110.969 755.475 114.024 750.891 Q117.103 746.285 122.913 746.285 Z" fill="#000000" fill-rule="evenodd" fill-opacity="1" /><path clip-path="url(#clip100)" d="M56.6171 533.884 L72.9365 533.884 L72.9365 537.82 L50.9921 537.82 L50.9921 533.884 Q53.6541 531.13 58.2375 526.5 Q62.8439 521.847 64.0245 520.505 Q66.2698 517.982 67.1494 516.246 Q68.0522 514.486 68.0522 512.797 Q68.0522 510.042 66.1078 508.306 Q64.1865 506.57 61.0847 506.57 Q58.8856 506.57 56.4319 507.334 Q54.0014 508.097 51.2236 509.648 L51.2236 504.926 Q54.0477 503.792 56.5014 503.213 Q58.955 502.635 60.9921 502.635 Q66.3624 502.635 69.5568 505.32 Q72.7513 508.005 72.7513 512.496 Q72.7513 514.625 71.9411 516.547 Q71.1541 518.445 69.0476 521.037 Q68.4689 521.709 65.367 524.926 Q62.2652 528.121 56.6171 533.884 Z" fill="#000000" fill-rule="evenodd" fill-opacity="1" /><path clip-path="url(#clip100)" d="M92.7512 506.338 Q89.1401 506.338 87.3114 509.903 Q85.5058 513.445 85.5058 520.574 Q85.5058 527.681 87.3114 531.246 Q89.1401 534.787 92.7512 534.787 Q96.3854 534.787 98.1909 531.246 Q100.02 527.681 100.02 520.574 Q100.02 513.445 98.1909 509.903 Q96.3854 506.338 92.7512 506.338 M92.7512 502.635 Q98.5613 502.635 101.617 507.241 Q104.696 511.824 104.696 520.574 Q104.696 529.301 101.617 533.908 Q98.5613 538.491 92.7512 538.491 Q86.941 538.491 83.8623 533.908 Q80.8068 529.301 80.8068 520.574 Q80.8068 511.824 83.8623 507.241 Q86.941 502.635 92.7512 502.635 Z" fill="#000000" fill-rule="evenodd" fill-opacity="1" /><path clip-path="url(#clip100)" d="M122.913 506.338 Q119.302 506.338 117.473 509.903 Q115.668 513.445 115.668 520.574 Q115.668 527.681 117.473 531.246 Q119.302 534.787 122.913 534.787 Q126.547 534.787 128.353 531.246 Q130.182 527.681 130.182 520.574 Q130.182 513.445 128.353 509.903 Q126.547 506.338 122.913 506.338 M122.913 502.635 Q128.723 502.635 131.779 507.241 Q134.857 511.824 134.857 520.574 Q134.857 529.301 131.779 533.908 Q128.723 538.491 122.913 538.491 Q117.103 538.491 114.024 533.908 Q110.969 529.301 110.969 520.574 Q110.969 511.824 114.024 507.241 Q117.103 502.635 122.913 502.635 Z" fill="#000000" fill-rule="evenodd" fill-opacity="1" /><path clip-path="url(#clip100)" d="M56.6171 290.234 L72.9365 290.234 L72.9365 294.169 L50.9921 294.169 L50.9921 290.234 Q53.6541 287.479 58.2375 282.85 Q62.8439 278.197 64.0245 276.854 Q66.2698 274.331 67.1494 272.595 Q68.0522 270.836 68.0522 269.146 Q68.0522 266.391 66.1078 264.655 Q64.1865 262.919 61.0847 262.919 Q58.8856 262.919 56.4319 263.683 Q54.0014 264.447 51.2236 265.998 L51.2236 261.276 Q54.0477 260.142 56.5014 259.563 Q58.955 258.984 60.9921 258.984 Q66.3624 258.984 69.5568 261.669 Q72.7513 264.354 72.7513 268.845 Q72.7513 270.975 71.9411 272.896 Q71.1541 274.794 69.0476 277.387 Q68.4689 278.058 65.367 281.276 Q62.2652 284.47 56.6171 290.234 Z" fill="#000000" fill-rule="evenodd" fill-opacity="1" /><path clip-path="url(#clip100)" d="M82.7975 259.609 L101.154 259.609 L101.154 263.544 L87.0799 263.544 L87.0799 272.016 Q88.0984 271.669 89.1169 271.507 Q90.1354 271.322 91.1539 271.322 Q96.941 271.322 100.321 274.493 Q103.7 277.665 103.7 283.081 Q103.7 288.66 100.228 291.762 Q96.7558 294.84 90.4364 294.84 Q88.2604 294.84 85.9919 294.47 Q83.7466 294.1 81.3392 293.359 L81.3392 288.66 Q83.4225 289.794 85.6447 290.35 Q87.8669 290.905 90.3438 290.905 Q94.3484 290.905 96.6863 288.799 Q99.0243 286.692 99.0243 283.081 Q99.0243 279.47 96.6863 277.364 Q94.3484 275.257 90.3438 275.257 Q88.4688 275.257 86.5938 275.674 Q84.7419 276.09 82.7975 276.97 L82.7975 259.609 Z" fill="#000000" fill-rule="evenodd" fill-opacity="1" /><path clip-path="url(#clip100)" d="M122.913 262.688 Q119.302 262.688 117.473 266.253 Q115.668 269.794 115.668 276.924 Q115.668 284.03 117.473 287.595 Q119.302 291.137 122.913 291.137 Q126.547 291.137 128.353 287.595 Q130.182 284.03 130.182 276.924 Q130.182 269.794 128.353 266.253 Q126.547 262.688 122.913 262.688 M122.913 258.984 Q128.723 258.984 131.779 263.591 Q134.857 268.174 134.857 276.924 Q134.857 285.651 131.779 290.257 Q128.723 294.84 122.913 294.84 Q117.103 294.84 114.024 290.257 Q110.969 285.651 110.969 276.924 Q110.969 268.174 114.024 263.591 Q117.103 258.984 122.913 258.984 Z" fill="#000000" fill-rule="evenodd" fill-opacity="1" /><path clip-path="url(#clip100)" d="M1250.77 16.7545 L1250.77 25.383 Q1246.64 21.5346 1241.94 19.6307 Q1237.28 17.7268 1232.01 17.7268 Q1221.64 17.7268 1216.13 24.0867 Q1210.62 30.4061 1210.62 42.3968 Q1210.62 54.3469 1216.13 60.7069 Q1221.64 67.0263 1232.01 67.0263 Q1237.28 67.0263 1241.94 65.1223 Q1246.64 63.2184 1250.77 59.3701 L1250.77 67.9175 Q1246.47 70.8341 1241.65 72.2924 Q1236.87 73.7508 1231.53 73.7508 Q1217.79 73.7508 1209.89 65.3654 Q1202 56.9395 1202 42.3968 Q1202 27.8135 1209.89 19.4281 Q1217.79 11.0023 1231.53 11.0023 Q1236.95 11.0023 1241.73 12.4606 Q1246.56 13.8784 1250.77 16.7545 Z" fill="#000000" fill-rule="evenodd" fill-opacity="1" /><path clip-path="url(#clip100)" d="M1271.59 18.8205 L1271.59 41.5461 L1281.88 41.5461 Q1287.59 41.5461 1290.71 38.5889 Q1293.83 35.6318 1293.83 30.163 Q1293.83 24.7348 1290.71 21.7777 Q1287.59 18.8205 1281.88 18.8205 L1271.59 18.8205 M1263.41 12.096 L1281.88 12.096 Q1292.05 12.096 1297.23 16.714 Q1302.46 21.2916 1302.46 30.163 Q1302.46 39.1155 1297.23 43.6931 Q1292.05 48.2706 1281.88 48.2706 L1271.59 48.2706 L1271.59 72.576 L1263.41 72.576 L1263.41 12.096 Z" fill="#000000" fill-rule="evenodd" fill-opacity="1" /><path clip-path="url(#clip100)" d="M1313.44 12.096 L1321.62 12.096 L1321.62 72.576 L1313.44 72.576 L1313.44 12.096 Z" fill="#000000" fill-rule="evenodd" fill-opacity="1" /><polyline clip-path="url(#clip102)" style="stroke:#009af9; stroke-linecap:butt; stroke-linejoin:round; stroke-width:4; stroke-opacity:1; fill:none" points="
  2291,162.047 2289.4,164.795 2287.84,171.164 2286.23,183.352 2284.67,193.785 2283.06,204.393 2281.61,213.472 2280,220.45 2278.39,225.849 2276.83,227.043 
  2275.23,226.268 2273.67,226.795 2272.06,228.559 2270.45,232.54 2268.89,238.894 2267.28,245.731 2265.73,245.755 2264.12,237.345 2262.61,234.601 2261,238.046 
  2259.4,242.905 2257.84,241.764 2256.23,241.092 2254.67,243.952 2253.06,244.932 2251.45,244.869 2249.9,246.954 2248.29,247.203 2246.73,249.854 2245.12,256.413 
  2243.67,263.362 2242.06,268.547 2240.45,270.881 2238.89,266.958 2237.29,262.83 2235.73,265.004 2234.12,266.432 2232.51,267.114 2230.95,267.197 2229.34,269.151 
  2227.79,274.228 2226.18,279.062 2224.72,281.806 2223.12,287.283 2221.51,293.828 2219.95,293.121 2218.34,293.15 2216.78,292.39 2215.17,298.725 2213.57,302.297 
  2212.01,301.473 2210.4,302.555 2208.84,303.574 2207.23,307.097 2205.78,308.062 2204.17,311.785 2202.56,318.641 2201.01,319.026 2199.4,317.194 2197.84,318.661 
  2196.23,321.482 2194.62,322.559 2193.06,320.658 2191.46,324.503 2189.9,329.22 2188.29,334.722 2186.78,339.697 2185.18,340.648 2183.57,342.553 2182.01,338.601 
  2180.4,336.155 2178.84,335.633 2177.23,333.825 2175.63,332.178 2174.07,332.256 2172.46,336.315 2170.9,342.192 2169.29,344.531 2167.84,351.339 2166.23,356.285 
  2164.62,350.9 2163.06,344.375 2161.46,338.128 2159.9,335.214 2158.29,336.086 2156.68,334.147 2155.12,333.694 2153.51,335.853 2151.96,339.887 2150.35,343.683 
  2148.9,351.051 2147.29,355.267 2145.68,359.491 2144.12,359.394 2142.51,357.07 2140.95,354.131 2139.35,355.457 2137.74,356.826 2136.18,357.274 2134.57,359.998 
  2133.01,362.016 2131.4,360.836 2129.95,363.794 2128.34,372.985 2126.73,376.294 2125.18,373.272 2123.57,367.932 2122.01,367.493 2120.4,372.502 2118.79,378.715 
  2117.24,376.893 2115.63,375.251 2114.07,373.935 2112.46,377.312 2110.95,385.738 2109.35,390.601 2107.74,395.44 2106.18,392.721 2104.57,391.79 2103.01,389.509 
  2101.4,391.186 2099.8,394.221 2098.24,395.196 2096.63,394.017 2095.07,399.172 2093.46,406.185 2092.01,416.701 2090.4,421.993 2088.79,427.08 2087.24,428.912 
  2085.63,429.361 2084.07,430.686 2082.46,431.305 2080.85,432.772 2079.29,432.996 2077.69,431.958 2076.13,432.782 2074.52,434.624 2073.07,438.961 2071.46,439.224 
  2069.85,442.82 2068.29,440.963 2066.68,441.709 2065.13,442.722 2063.52,443.38 2061.91,445.734 2060.35,444.067 2058.74,453.019 2057.18,456.021 2055.58,458.608 
  2054.12,461.123 2052.51,466.24 2050.9,470.698 2049.35,459.992 2047.74,439.779 2046.18,429.01 2044.57,427.533 2042.96,423.255 2041.41,428.854 2039.8,439.492 
  2038.24,448.307 2036.63,454.617 2035.13,463.559 2033.52,466.547 2031.91,471.634 2030.35,470.947 2028.74,476.994 2027.18,479.168 2025.58,481.96 2023.97,480.098 
  2022.41,479.84 2020.8,481.804 2019.24,487.959 2017.63,494.459 2016.18,503.489 2014.57,508.766 2012.96,511.768 2011.41,513.23 2009.8,511.768 2008.24,506.408 
  2006.63,501.535 2005.02,503.484 2003.47,506.408 2001.86,508.357 2000.3,513.23 1998.69,521.514 1997.24,526.874 1995.63,528.824 1994.02,536.133 1992.46,532.235 
  1990.85,524.438 1989.3,526.387 1987.69,538.082 1986.08,542.955 1984.52,547.341 1982.91,547.828 1981.35,546.854 1979.75,553.189 1978.29,560.498 1976.68,565.859 
  1975.07,567.808 1973.52,564.397 1971.91,564.884 1970.35,569.757 1968.74,571.706 1967.13,572.193 1965.58,570.732 1963.97,573.655 1962.41,579.016 1960.8,581.939 
  1959.3,587.787 1957.69,592.66 1956.08,597.046 1954.52,596.071 1952.91,593.635 1951.36,592.66 1949.75,595.584 1948.14,598.995 1946.58,599.97 1944.97,600.944 
  1943.41,599.482 1941.81,597.533 1940.35,602.893 1938.74,609.716 1937.13,613.614 1935.58,611.665 1933.97,611.665 1932.41,613.127 1930.8,614.589 1929.19,617.512 
  1927.64,618.487 1926.03,618.974 1924.47,618.974 1922.86,623.847 1921.41,628.72 1919.8,632.131 1918.19,634.081 1916.63,630.67 1915.02,629.208 1913.47,626.284 
  1911.86,630.182 1910.25,630.182 1908.69,627.746 1907.08,629.208 1905.53,633.106 1903.92,636.517 1902.46,638.466 1900.85,641.877 1899.25,647.238 1897.69,646.75 
  1896.08,647.238 1894.52,648.7 1892.91,653.085 1891.3,653.085 1889.75,655.035 1888.14,659.42 1886.58,660.395 1884.97,660.882 1883.47,667.704 1881.86,672.577 
  1880.25,675.014 1878.69,675.014 1877.08,675.501 1875.53,676.963 1873.92,680.862 1872.31,682.811 1870.75,685.247 1869.14,685.247 1867.58,685.247 1865.98,691.095 
  1864.52,693.531 1862.91,694.506 1861.3,696.455 1859.75,695.968 1858.14,695.968 1856.58,697.917 1854.97,698.892 1853.36,699.866 1851.81,700.841 1850.2,701.815 
  1848.64,703.277 1847.03,704.739 1845.58,706.201 1843.97,707.663 1842.36,709.125 1840.8,708.15 1839.19,707.663 1837.64,709.612 1836.03,711.561 1834.42,713.023 
  1832.86,713.998 1831.25,714.973 1829.7,714.485 1828.09,715.46 1826.63,717.409 1825.02,719.846 1823.42,722.282 1821.86,722.282 1820.25,723.744 1818.69,726.181 
  1817.08,728.617 1815.47,730.079 1813.92,731.541 1812.31,732.028 1810.75,733.49 1809.14,736.414 1807.64,740.312 1806.03,742.749 1804.42,747.134 1802.86,746.647 
  1801.25,746.16 1799.7,748.596 1798.09,750.058 1796.48,752.007 1794.92,752.007 1793.31,753.469 1791.76,754.931 1790.15,757.368 1788.69,759.804 1787.08,762.728 
  1785.48,765.652 1783.92,765.652 1782.31,766.626 1780.75,767.114 1779.14,769.063 1777.53,771.987 1775.98,773.936 1774.37,776.372 1772.81,776.86 1771.2,777.834 
  1769.75,780.271 1768.14,782.707 1766.53,784.657 1764.97,784.657 1763.36,785.144 1761.81,788.068 1760.2,789.53 1758.59,791.479 1757.03,791.479 1755.42,792.453 
  1753.87,793.428 1752.26,795.377 1750.8,797.814 1749.2,800.25 1747.59,803.661 1746.03,803.174 1744.42,804.149 1742.86,806.585 1741.25,808.534 1739.65,810.484 
  1738.09,811.945 1736.48,814.382 1734.92,815.357 1733.31,816.331 1731.81,819.742 1730.2,822.179 1728.59,823.153 1727.03,823.641 1725.42,825.59 1723.87,826.564 
  1722.26,829.488 1720.65,831.437 1719.09,832.412 1717.48,834.361 1715.93,836.311 1714.32,837.285 1712.86,838.26 1711.25,839.234 1709.65,843.133 1708.09,843.133 
  1706.48,844.595 1704.92,848.493 1703.31,853.853 1701.7,859.701 1700.15,862.137 1698.54,865.549 1696.98,867.01 1695.37,867.985 1693.92,871.396 1692.31,874.32 
  1690.7,880.655 1689.14,881.629 1687.54,883.091 1685.98,886.015 1684.37,887.964 1682.76,888.939 1681.2,890.401 1679.59,891.863 1678.04,895.274 1676.43,899.172 
  1674.98,902.583 1673.37,905.02 1671.76,907.944 1670.2,908.918 1668.59,909.406 1667.03,911.355 1665.43,915.253 1663.82,917.69 1662.26,920.126 1660.65,922.563 
  1659.09,924.512 1657.48,927.436 1655.98,929.872 1654.37,931.334 1652.76,932.796 1651.2,932.796 1649.59,933.283 1648.04,934.745 1646.43,937.669 1644.82,940.593 
  1643.26,942.055 1641.65,944.004 1640.1,945.953 1638.49,948.877 1637.03,951.314 1635.43,953.263 1633.82,956.674 1632.26,957.161 1630.65,957.648 1629.09,958.136 
  1627.48,960.572 1625.88,961.547 1624.32,961.547 1622.71,964.471 1621.15,965.933 1619.54,964.958 1618.09,962.521 1616.48,961.06 1614.87,962.521 1613.32,963.983 
  1611.71,965.445 1610.15,967.394 1608.54,968.856 1606.93,969.831 1605.37,970.806 1603.77,972.267 1602.21,974.217 1600.6,976.653 1599.15,978.602 1597.54,981.039 
  1595.93,982.013 1594.37,982.013 1592.76,982.013 1591.2,983.475 1589.6,985.912 1587.99,987.861 1586.43,989.81 1584.82,991.272 1583.26,992.734 1581.65,995.171 
  1580.15,996.145 1578.54,998.582 1576.93,1001.51 1575.37,1001.99 1573.77,1002.97 1572.21,1004.43 1570.6,1006.87 1568.99,1008.33 1567.43,1010.28 1565.82,1011.74 
  1564.27,1014.66 1562.66,1018.07 1561.21,1018.07 1559.6,1018.56 1557.99,1019.54 1556.43,1017.59 1554.82,1016.61 1553.26,1018.07 1551.66,1019.05 1550.05,1020.02 
  1548.49,1022.46 1546.88,1028.31 1545.32,1032.69 1543.71,1034.64 1542.26,1034.15 1540.65,1035.62 1539.04,1037.08 1537.49,1038.54 1535.88,1040 1534.32,1040.98 
  1532.71,1045.36 1531.1,1048.77 1529.54,1053.65 1527.94,1057.55 1526.38,1060.96 1524.77,1063.88 1523.32,1066.8 1521.71,1071.19 1520.1,1074.6 1518.54,1078.5 
  1516.93,1081.91 1515.38,1085.81 1513.77,1089.22 1512.16,1092.14 1510.6,1092.14 1508.99,1096.53 1507.43,1100.43 1505.83,1104.81 1504.32,1110.66 1502.71,1116.02 
  1501.1,1121.38 1499.55,1125.28 1497.94,1128.69 1496.38,1131.61 1494.77,1135.51 1493.16,1138.92 1491.6,1142.82 1490,1146.72 1488.44,1151.11 1486.83,1155.01 
  1485.38,1158.42 1483.77,1162.31 1482.16,1165.24 1480.6,1166.7 1478.99,1168.16 1477.43,1171.09 1475.83,1173.52 1474.22,1174.98 1472.66,1177.42 1471.05,1180.83 
  1469.49,1183.76 1467.88,1186.19 1466.43,1188.63 1464.82,1190.58 1463.21,1192.53 1461.66,1193.5 1460.05,1194.96 1458.49,1195.94 1456.88,1196.91 1455.27,1197.89 
  1453.72,1199.35 1452.11,1201.3 1450.55,1202.76 1448.94,1205.2 1447.49,1207.15 1445.88,1210.07 1444.27,1211.53 1442.71,1212.51 1441.1,1212.99 1439.55,1214.46 
  1437.94,1215.43 1436.33,1216.89 1434.77,1218.35 1433.16,1219.82 1431.61,1221.77 1430,1222.74 1428.49,1223.23 1426.88,1224.2 1425.27,1224.69 1423.72,1225.66 
  1422.11,1227.61 1420.55,1229.07 1418.94,1230.54 1417.33,1231.02 1415.77,1233.95 1414.17,1235.9 1412.61,1237.36 1411,1238.33 1409.55,1239.31 1407.94,1241.26 
  1406.33,1242.23 1404.77,1244.18 1403.16,1246.13 1401.61,1248.57 1400,1251.49 1398.39,1254.41 1396.83,1256.36 1395.22,1258.31 1393.66,1261.24 1392.06,1262.21 
  1390.6,1265.14 1388.99,1268.06 1387.38,1270.01 1385.83,1271.47 1384.22,1272.93 1382.66,1274.88 1381.05,1275.37 1379.44,1279.27 1377.89,1279.75 1376.28,1281.22 
  1374.72,1282.68 1373.11,1284.14 1371.66,1286.09 1370.05,1287.55 1368.44,1288.04 1366.88,1288.53 1365.27,1289.01 1363.72,1289.99 1362.11,1290.47 1360.5,1290.96 
  1358.94,1291.94 1357.33,1292.42 1355.78,1292.91 1354.17,1293.4 1352.66,1293.89 1351.05,1294.86 1349.44,1294.86 1347.89,1295.84 1346.28,1295.84 1344.72,1296.32 
  1343.11,1296.32 1341.5,1296.81 1339.95,1297.3 1338.34,1298.76 1336.78,1299.73 1335.17,1300.22 1333.72,1300.71 1332.11,1301.2 1330.5,1301.2 1328.94,1302.17 
  1327.33,1303.14 1325.78,1304.12 1324.17,1305.09 1322.56,1305.09 1321,1306.07 1319.39,1307.04 1317.84,1307.53 1316.23,1308.99 1314.77,1309.97 1313.16,1310.94 
  1311.56,1311.43 1310,1312.4 1308.39,1313.38 1306.83,1314.35 1305.22,1314.84 1303.61,1315.81 1302.06,1316.79 1300.45,1317.76 1298.89,1318.25 1297.28,1319.23 
  1295.83,1320.69 1294.22,1321.66 1292.61,1322.15 1291.05,1322.64 1289.44,1323.12 1287.89,1324.1 1286.28,1324.59 1284.67,1325.07 1283.11,1326.05 1281.5,1327.02 
  1279.95,1327.51 1278.34,1328 1276.83,1328.48 1275.22,1328.97 1273.61,1329.95 1272.06,1330.43 1270.45,1330.92 1268.89,1331.41 1267.28,1331.9 1265.67,1332.38 
  1264.12,1332.87 1262.51,1333.36 1260.95,1333.84 1259.34,1334.33 1257.89,1334.82 1256.28,1334.82 1254.67,1334.82 1253.11,1334.82 1251.5,1334.82 1249.95,1335.79 
  1248.34,1335.79 1246.73,1336.77 1245.17,1337.26 1243.56,1337.74 1242.01,1337.74 1240.4,1338.72 1238.94,1339.2 1237.33,1340.18 1235.73,1340.18 1234.17,1340.67 
  1232.56,1340.67 1231,1341.15 1229.39,1341.15 1227.78,1341.15 1226.23,1341.15 1224.62,1342.13 1223.06,1342.13 1221.45,1342.62 1220,1343.1 1218.39,1343.1 
  1216.78,1343.1 1215.22,1343.1 1213.62,1343.59 1212.06,1343.59 1210.45,1344.08 1208.84,1343.59 1207.28,1344.08 1205.67,1344.57 1204.12,1344.57 1202.51,1344.57 
  1201,1344.57 1199.39,1344.57 1197.79,1344.57 1196.23,1345.05 1194.62,1345.05 1193.06,1345.54 1191.45,1345.54 1189.84,1345.54 1188.29,1346.03 1186.68,1346.51 
  1185.12,1346.51 1183.51,1346.51 1182.06,1347 1180.45,1347 1178.84,1347 1177.28,1347 1175.67,1347 1174.12,1347 1172.51,1347.49 1170.9,1347.49 
  1169.34,1347.98 1167.73,1347.98 1166.18,1347.98 1164.57,1348.46 1163.11,1348.46 1161.51,1348.95 1159.9,1348.95 1158.34,1348.95 1156.73,1348.95 1155.17,1348.95 
  1153.56,1349.44 1151.96,1348.95 1150.4,1349.93 1148.79,1349.93 1147.23,1349.93 1145.62,1349.93 1144.17,1349.93 1142.56,1349.93 1140.95,1349.93 1139.39,1349.93 
  1137.79,1349.93 1136.23,1350.9 1134.62,1350.9 1133.01,1350.9 1131.45,1350.9 1129.84,1351.39 1128.29,1351.39 1126.68,1351.87 1125.17,1351.87 1123.56,1352.36 
  1121.96,1351.87 1120.4,1351.87 1118.79,1351.87 1117.23,1352.36 1115.62,1352.85 1114.01,1352.85 1112.46,1353.34 1110.85,1353.82 1109.29,1353.82 1107.68,1354.31 
  1106.23,1354.31 1104.62,1353.82 1103.01,1354.31 1101.45,1353.82 1099.85,1354.31 1098.29,1354.31 1096.68,1354.31 1095.07,1353.82 1093.51,1354.31 1091.9,1354.31 
  1090.35,1354.31 1088.74,1354.8 1087.29,1355.77 1085.68,1355.77 1084.07,1356.75 1082.51,1356.75 1080.9,1357.24 1079.34,1357.24 1077.74,1357.24 1076.13,1357.24 
  1074.57,1358.21 1072.96,1358.7 1071.4,1359.18 1069.79,1359.67 1068.34,1360.16 1066.73,1360.65 1065.12,1360.65 1063.57,1361.13 1061.96,1361.13 1060.4,1361.62 
  1058.79,1362.11 1057.18,1361.62 1055.62,1362.6 1054.02,1363.57 1052.46,1364.06 1050.85,1364.54 1049.34,1364.54 1047.74,1364.54 1046.13,1364.54 1044.57,1364.06 
  1042.96,1364.06 1041.4,1364.06 1039.79,1364.54 1038.19,1364.54 1036.63,1365.03 1035.02,1365.03 1033.46,1365.03 1031.85,1365.03 1030.4,1365.03 1028.79,1365.03 
  1027.18,1365.03 1025.63,1364.54 1024.02,1364.54 1022.46,1364.54 1020.85,1364.06 1019.24,1364.06 1017.68,1364.06 1016.08,1364.06 1014.52,1364.54 1012.91,1364.06 
  1011.46,1364.06 1009.85,1364.06 1008.24,1364.06 1006.68,1364.06 1005.07,1363.57 1003.51,1364.06 1001.91,1364.06 1000.3,1364.54 998.74,1364.54 997.131,1365.03 
  995.574,1365.52 993.965,1365.52 992.511,1366.01 990.902,1365.52 989.293,1365.03 987.736,1365.03 986.127,1365.03 984.57,1365.03 982.961,1365.03 981.352,1365.03 
  979.795,1366.01 978.186,1366.49 976.629,1366.49 975.02,1366.98 973.515,1366.98 971.906,1366.01 970.297,1366.01 968.74,1366.49 967.131,1367.47 965.574,1367.96 
  963.965,1368.93 962.356,1368.93 960.799,1368.93 959.19,1368.93 957.633,1369.42 956.024,1369.42 954.571,1369.9 952.962,1371.37 951.353,1373.32 949.796,1374.78 
  948.187,1375.27 946.63,1376.24 945.021,1376.73 943.412,1377.7 941.855,1379.16 940.246,1379.65 938.689,1380.14 937.08,1380.14 935.626,1380.63 934.017,1380.63 
  932.408,1380.14 930.851,1379.16 929.242,1379.65 927.685,1378.68 926.076,1379.16 924.467,1379.65 922.91,1378.68 921.301,1379.16 919.744,1378.68 918.135,1379.16 
  916.682,1379.16 915.073,1378.19 913.464,1377.7 911.907,1377.21 910.298,1376.24 908.741,1375.75 907.132,1375.75 905.523,1376.24 903.966,1377.7 902.357,1378.68 
  900.8,1379.16 899.191,1381.11 897.686,1380.63 896.077,1379.65 894.468,1381.11 892.911,1382.57 891.302,1383.06 889.745,1383.06 888.136,1385.5 886.527,1386.96 
  884.97,1387.94 883.361,1388.42 881.804,1388.42 880.195,1388.42 878.741,1390.37 877.132,1390.37 875.524,1390.37 873.966,1391.35 872.357,1393.78 870.8,1395.73 
  869.191,1396.71 867.582,1398.66 866.025,1404.02 864.416,1404.99 862.859,1405.48 861.25,1405.97 859.797,1406.94 858.188,1406.45 856.579,1406.45 855.022,1406.94 
  853.413,1406.94 851.856,1406.94 850.247,1406.94 848.638,1406.94 847.081,1406.94 845.472,1407.91 843.915,1408.4 842.306,1408.4 840.853,1408.4 839.244,1408.4 
  837.635,1408.4 836.078,1408.89 834.469,1408.89 832.912,1408.89 831.303,1408.89 829.694,1408.89 828.137,1409.38 826.528,1409.86 824.971,1409.86 823.362,1410.35 
  821.856,1410.35 820.248,1410.35 818.639,1410.35 817.081,1410.35 815.473,1410.35 813.915,1410.35 812.306,1410.84 810.697,1410.35 809.14,1409.86 807.531,1409.86 
  805.974,1410.35 804.365,1411.33 802.912,1412.79 801.303,1412.79 799.694,1412.79 798.137,1413.27 796.528,1413.76 794.971,1414.74 793.362,1414.74 791.753,1415.22 
  790.196,1415.71 788.587,1415.71 787.03,1416.69 785.421,1417.17 783.968,1418.15 782.359,1418.64 780.75,1419.61 779.193,1420.1 777.584,1420.58 776.027,1421.56 
  774.418,1422.53 772.809,1423.51 771.252,1423.51 769.643,1424.97 768.086,1425.46 766.477,1425.94 765.023,1426.43 763.414,1426.43 761.805,1426.43 760.248,1426.92 
  758.639,1426.92 757.082,1426.92 755.473,1426.92 753.864,1426.92 752.307,1426.43 750.698,1426.92 749.141,1426.92 747.532,1426.92 746.027,1426.92 744.418,1427.41 
  742.809,1426.92 741.252,1426.92 739.643,1426.92 738.086,1426.43 736.477,1427.89 734.868,1427.89 733.311,1427.89 731.702,1427.89 730.145,1427.89 728.536,1427.41 
  727.083,1427.41 725.474,1426.92 723.865,1426.92 722.308,1426.92 720.699,1426.92 719.142,1426.43 717.533,1426.43 715.924,1426.43 714.367,1426.43 712.758,1426.43 
  711.201,1425.94 709.592,1426.43 708.138,1426.43 706.53,1425.94 704.921,1424.97 703.363,1424.48 701.754,1424 700.197,1424 698.588,1424.48 696.979,1424.48 
  695.422,1424.97 693.813,1424.97 692.256,1425.46 690.647,1425.94 689.194,1426.43 687.585,1426.43 685.976,1426.92 684.419,1426.92 682.81,1426.92 681.253,1426.92 
  679.644,1426.92 678.035,1427.41 676.478,1427.89 674.869,1428.38 673.312,1428.38 671.703,1428.38 670.198,1427.89 668.589,1427.89 666.98,1427.89 665.423,1427.89 
  663.814,1428.38 662.257,1428.38 660.648,1428.38 659.039,1428.38 657.482,1428.38 655.873,1427.89 654.316,1427.89 652.707,1428.38 651.254,1428.38 649.645,1428.87 
  648.036,1429.84 646.479,1429.36 644.87,1429.36 643.312,1428.87 641.703,1429.84 640.095,1429.84 638.537,1429.84 636.928,1430.33 635.371,1430.33 633.762,1430.33 
  632.309,1430.33 630.7,1430.82 629.091,1430.82 627.534,1430.82 625.925,1430.82 624.368,1430.82 622.759,1430.82 621.15,1431.3 619.593,1433.25 617.984,1433.74 
  616.427,1433.74 614.818,1433.74 613.365,1433.25 611.756,1432.28 610.147,1431.3 608.59,1430.82 606.981,1430.33 605.424,1429.84 603.815,1429.36 602.206,1428.87 
  600.649,1428.87 599.04,1428.38 597.483,1427.41 595.874,1426.92 594.369,1426.43 592.76,1425.46 591.151,1424 589.594,1423.51 587.985,1422.53 586.427,1422.05 
  584.819,1421.56 583.21,1421.56 581.652,1421.56 580.044,1420.58 578.486,1419.61 576.877,1419.12 575.424,1418.64 573.815,1417.66 572.206,1416.69 570.649,1415.22 
  569.04,1414.74 567.483,1414.25 565.874,1414.74 564.265,1414.25 562.708,1413.27 561.099,1412.79 559.542,1412.3 557.933,1412.79 556.48,1412.3 554.871,1411.81 
  553.262,1411.33 551.705,1410.84 550.096,1410.84 548.539,1410.84 546.93,1410.84 545.321,1410.84 543.764,1411.81 542.155,1412.3 540.598,1412.79 538.989,1412.3 
  537.535,1411.81 535.927,1411.81 534.318,1411.81 532.76,1411.33 531.152,1411.33 529.594,1410.84 527.985,1411.81 526.376,1411.81 524.819,1411.81 523.21,1411.33 
  521.653,1411.81 520.044,1411.81 518.539,1411.81 516.93,1410.84 515.321,1410.84 513.764,1410.84 512.155,1410.35 510.598,1410.84 508.989,1411.33 507.38,1410.84 
  505.823,1409.38 504.214,1410.35 502.657,1410.84 501.048,1410.84 499.595,1410.35 497.986,1409.86 496.377,1408.89 494.82,1408.89 493.211,1409.38 491.654,1409.86 
  490.045,1410.35 488.436,1409.86 486.879,1408.89 485.27,1408.4 483.713,1407.91 482.104,1408.4 480.651,1407.91 479.042,1407.91 477.433,1407.91 475.876,1407.43 
  474.267,1408.89 472.709,1408.89 471.101,1408.89 469.492,1408.89 467.934,1409.86 466.325,1410.84 464.768,1411.33 463.159,1410.84 461.706,1411.33 460.097,1410.84 
  458.488,1410.84 456.931,1411.33 455.322,1411.33 453.765,1411.81 452.156,1412.3 450.547,1411.81 448.99,1412.3 447.381,1412.3 445.824,1412.3 444.215,1411.81 
  442.71,1411.33 441.101,1410.84 439.492,1410.84 437.935,1410.84 436.326,1410.84 434.769,1411.33 433.16,1411.81 431.551,1411.33 429.994,1412.3 428.385,1412.79 
  426.828,1412.79 425.219,1413.27 423.766,1413.27 422.157,1413.27 420.548,1412.79 418.991,1413.27 417.382,1413.76 415.825,1414.25 414.216,1414.25 412.607,1413.27 
  411.049,1413.76 409.441,1413.76 407.883,1413.76 406.274,1413.76 404.821,1412.79 403.212,1412.79 401.603,1410.84 400.046,1410.35 398.437,1409.86 396.88,1409.86 
  395.271,1408.89 393.662,1408.89 392.105,1409.38 390.496,1408.89 388.939,1406.94 387.33,1405.97 385.877,1405.48 384.268,1402.55 382.659,1400.6 381.102,1398.66 
  379.493,1398.17 377.936,1397.68 376.327,1396.22 374.718,1393.78 373.161,1393.3 371.552,1394.76 369.995,1396.22 368.386,1399.14 366.881,1400.12 365.272,1401.09 
  363.663,1403.04 362.106,1404.99 360.497,1406.94 358.94,1408.4 357.331,1408.89 355.722,1410.35 354.165,1412.79 352.556,1412.79 350.998,1413.76 349.39,1415.22 
  347.936,1416.2 346.327,1414.74 344.718,1414.74 343.161,1415.71 341.552,1417.17 339.995,1418.64 338.386,1420.1 336.777,1421.56 335.22,1423.51 333.611,1424.48 
  332.054,1425.94 330.445,1426.92 328.992,1426.43 327.383,1426.92 325.774,1428.38 324.217,1429.36 322.608,1429.36 321.051,1430.33 319.442,1431.79 317.833,1432.77 
  316.276,1431.79 314.667,1432.77 313.11,1433.74 311.501,1436.67 310.048,1436.67 308.439,1438.13 306.83,1438.61 305.273,1439.1 303.664,1440.08 302.106,1441.05 
  300.498,1442.03 298.889,1442.51 297.331,1442.51 295.723,1443 294.165,1443.49 292.556,1443.97 291.051,1444.46 289.442,1444.46 287.833,1444.95 286.276,1444.95 
  284.667,1445.44 283.11,1445.92 281.501,1445.92 279.892,1445.92 278.335,1445.92 276.726,1445.92 275.169,1446.41 273.56,1446.9 272.107,1446.41 270.498,1445.92 
  268.889,1445.92 267.332,1445.44 265.723,1445.92 264.166,1445.44 262.557,1445.44 260.948,1446.41 259.391,1446.9 257.782,1446.9 256.225,1447.39 254.616,1446.9 
  253.163,1446.9 251.554,1446.41 249.945,1446.41 248.388,1445.92 246.779,1446.41 245.222,1446.41 243.613,1446.9 242.004,1446.9 240.447,1447.39 238.838,1447.87 
  237.28,1447.39 235.671,1447.39 234.218,1447.39 232.609,1447.39 
  "/>
</svg>
