<?xml version="1.0" encoding="utf-8"?>
<svg xmlns="http://www.w3.org/2000/svg" xmlns:xlink="http://www.w3.org/1999/xlink" width="600" height="400" viewBox="0 0 2400 1600">
<defs>
  <clipPath id="clip8700">
    <rect x="0" y="0" width="2400" height="1600"/>
  </clipPath>
</defs>
<polygon clip-path="url(#clip8700)" points="
0,1600 2400,1600 2400,0 0,0 
  " fill="#ffffff" fill-rule="evenodd" fill-opacity="1"/>
<defs>
  <clipPath id="clip8701">
    <rect x="480" y="0" width="1681" height="1600"/>
  </clipPath>
</defs>
<polygon clip-path="url(#clip8700)" points="
237.767,1503.47 2321.26,1503.47 2321.26,47.2441 237.767,47.2441 
  " fill="#ffffff" fill-rule="evenodd" fill-opacity="1"/>
<defs>
  <clipPath id="clip8702">
    <rect x="237" y="47" width="2084" height="1457"/>
  </clipPath>
</defs>
<polyline clip-path="url(#clip8702)" style="stroke:#000000; stroke-width:2; stroke-opacity:0.1; fill:none" points="
  547.553,1503.47 547.553,47.2441 
  "/>
<polyline clip-path="url(#clip8702)" style="stroke:#000000; stroke-width:2; stroke-opacity:0.1; fill:none" points="
  1035.53,1503.47 1035.53,47.2441 
  "/>
<polyline clip-path="url(#clip8702)" style="stroke:#000000; stroke-width:2; stroke-opacity:0.1; fill:none" points="
  1523.5,1503.47 1523.5,47.2441 
  "/>
<polyline clip-path="url(#clip8702)" style="stroke:#000000; stroke-width:2; stroke-opacity:0.1; fill:none" points="
  2011.47,1503.47 2011.47,47.2441 
  "/>
<polyline clip-path="url(#clip8702)" style="stroke:#000000; stroke-width:2; stroke-opacity:0.1; fill:none" points="
  237.767,1462.26 2321.26,1462.26 
  "/>
<polyline clip-path="url(#clip8702)" style="stroke:#000000; stroke-width:2; stroke-opacity:0.1; fill:none" points="
  237.767,1259.17 2321.26,1259.17 
  "/>
<polyline clip-path="url(#clip8702)" style="stroke:#000000; stroke-width:2; stroke-opacity:0.1; fill:none" points="
  237.767,1056.07 2321.26,1056.07 
  "/>
<polyline clip-path="url(#clip8702)" style="stroke:#000000; stroke-width:2; stroke-opacity:0.1; fill:none" points="
  237.767,852.978 2321.26,852.978 
  "/>
<polyline clip-path="url(#clip8702)" style="stroke:#000000; stroke-width:2; stroke-opacity:0.1; fill:none" points="
  237.767,649.884 2321.26,649.884 
  "/>
<polyline clip-path="url(#clip8702)" style="stroke:#000000; stroke-width:2; stroke-opacity:0.1; fill:none" points="
  237.767,446.79 2321.26,446.79 
  "/>
<polyline clip-path="url(#clip8702)" style="stroke:#000000; stroke-width:2; stroke-opacity:0.1; fill:none" points="
  237.767,243.696 2321.26,243.696 
  "/>
<polyline clip-path="url(#clip8700)" style="stroke:#000000; stroke-width:4; stroke-opacity:1; fill:none" points="
  237.767,1503.47 2321.26,1503.47 
  "/>
<polyline clip-path="url(#clip8700)" style="stroke:#000000; stroke-width:4; stroke-opacity:1; fill:none" points="
  237.767,1503.47 237.767,47.2441 
  "/>
<polyline clip-path="url(#clip8700)" style="stroke:#000000; stroke-width:4; stroke-opacity:1; fill:none" points="
  547.553,1503.47 547.553,1481.63 
  "/>
<polyline clip-path="url(#clip8700)" style="stroke:#000000; stroke-width:4; stroke-opacity:1; fill:none" points="
  1035.53,1503.47 1035.53,1481.63 
  "/>
<polyline clip-path="url(#clip8700)" style="stroke:#000000; stroke-width:4; stroke-opacity:1; fill:none" points="
  1523.5,1503.47 1523.5,1481.63 
  "/>
<polyline clip-path="url(#clip8700)" style="stroke:#000000; stroke-width:4; stroke-opacity:1; fill:none" points="
  2011.47,1503.47 2011.47,1481.63 
  "/>
<polyline clip-path="url(#clip8700)" style="stroke:#000000; stroke-width:4; stroke-opacity:1; fill:none" points="
  237.767,1462.26 269.02,1462.26 
  "/>
<polyline clip-path="url(#clip8700)" style="stroke:#000000; stroke-width:4; stroke-opacity:1; fill:none" points="
  237.767,1259.17 269.02,1259.17 
  "/>
<polyline clip-path="url(#clip8700)" style="stroke:#000000; stroke-width:4; stroke-opacity:1; fill:none" points="
  237.767,1056.07 269.02,1056.07 
  "/>
<polyline clip-path="url(#clip8700)" style="stroke:#000000; stroke-width:4; stroke-opacity:1; fill:none" points="
  237.767,852.978 269.02,852.978 
  "/>
<polyline clip-path="url(#clip8700)" style="stroke:#000000; stroke-width:4; stroke-opacity:1; fill:none" points="
  237.767,649.884 269.02,649.884 
  "/>
<polyline clip-path="url(#clip8700)" style="stroke:#000000; stroke-width:4; stroke-opacity:1; fill:none" points="
  237.767,446.79 269.02,446.79 
  "/>
<polyline clip-path="url(#clip8700)" style="stroke:#000000; stroke-width:4; stroke-opacity:1; fill:none" points="
  237.767,243.696 269.02,243.696 
  "/>
<g clip-path="url(#clip8700)">
<text style="fill:#000000; fill-opacity:1; font-family:Arial,Helvetica Neue,Helvetica,sans-serif; font-size:48px; text-anchor:middle;" transform="rotate(0, 547.553, 1557.47)" x="547.553" y="1557.47">Loop</text>
</g>
<g clip-path="url(#clip8700)">
<text style="fill:#000000; fill-opacity:1; font-family:Arial,Helvetica Neue,Helvetica,sans-serif; font-size:48px; text-anchor:middle;" transform="rotate(0, 1035.53, 1557.47)" x="1035.53" y="1557.47">Generator</text>
</g>
<g clip-path="url(#clip8700)">
<text style="fill:#000000; fill-opacity:1; font-family:Arial,Helvetica Neue,Helvetica,sans-serif; font-size:48px; text-anchor:middle;" transform="rotate(0, 1523.5, 1557.47)" x="1523.5" y="1557.47">Broadcast</text>
</g>
<g clip-path="url(#clip8700)">
<text style="fill:#000000; fill-opacity:1; font-family:Arial,Helvetica Neue,Helvetica,sans-serif; font-size:48px; text-anchor:middle;" transform="rotate(0, 2011.47, 1557.47)" x="2011.47" y="1557.47">Inbounds</text>
</g>
<g clip-path="url(#clip8700)">
<text style="fill:#000000; fill-opacity:1; font-family:Arial,Helvetica Neue,Helvetica,sans-serif; font-size:48px; text-anchor:end;" transform="rotate(0, 213.767, 1479.76)" x="213.767" y="1479.76">0</text>
</g>
<g clip-path="url(#clip8700)">
<text style="fill:#000000; fill-opacity:1; font-family:Arial,Helvetica Neue,Helvetica,sans-serif; font-size:48px; text-anchor:end;" transform="rotate(0, 213.767, 1276.67)" x="213.767" y="1276.67">20</text>
</g>
<g clip-path="url(#clip8700)">
<text style="fill:#000000; fill-opacity:1; font-family:Arial,Helvetica Neue,Helvetica,sans-serif; font-size:48px; text-anchor:end;" transform="rotate(0, 213.767, 1073.57)" x="213.767" y="1073.57">40</text>
</g>
<g clip-path="url(#clip8700)">
<text style="fill:#000000; fill-opacity:1; font-family:Arial,Helvetica Neue,Helvetica,sans-serif; font-size:48px; text-anchor:end;" transform="rotate(0, 213.767, 870.478)" x="213.767" y="870.478">60</text>
</g>
<g clip-path="url(#clip8700)">
<text style="fill:#000000; fill-opacity:1; font-family:Arial,Helvetica Neue,Helvetica,sans-serif; font-size:48px; text-anchor:end;" transform="rotate(0, 213.767, 667.384)" x="213.767" y="667.384">80</text>
</g>
<g clip-path="url(#clip8700)">
<text style="fill:#000000; fill-opacity:1; font-family:Arial,Helvetica Neue,Helvetica,sans-serif; font-size:48px; text-anchor:end;" transform="rotate(0, 213.767, 464.29)" x="213.767" y="464.29">100</text>
</g>
<g clip-path="url(#clip8700)">
<text style="fill:#000000; fill-opacity:1; font-family:Arial,Helvetica Neue,Helvetica,sans-serif; font-size:48px; text-anchor:end;" transform="rotate(0, 213.767, 261.196)" x="213.767" y="261.196">120</text>
</g>
<g clip-path="url(#clip8700)">
<text style="fill:#000000; fill-opacity:1; font-family:Arial,Helvetica Neue,Helvetica,sans-serif; font-size:66px; text-anchor:middle;" transform="rotate(-90, 57.6, 775.359)" x="57.6" y="775.359">Time</text>
</g>
<polygon clip-path="url(#clip8702)" points="
352.363,916.381 352.363,1462.26 742.742,1462.26 742.742,916.381 352.363,916.381 352.363,916.381 
  " fill="#009af9" fill-rule="evenodd" fill-opacity="1"/>
<polyline clip-path="url(#clip8702)" style="stroke:#000000; stroke-width:4; stroke-opacity:1; fill:none" points="
  352.363,916.381 352.363,1462.26 742.742,1462.26 742.742,916.381 352.363,916.381 
  "/>
<polygon clip-path="url(#clip8702)" points="
840.337,156.43 840.337,1462.26 1230.72,1462.26 1230.72,156.43 840.337,156.43 840.337,156.43 
  " fill="#009af9" fill-rule="evenodd" fill-opacity="1"/>
<polyline clip-path="url(#clip8702)" style="stroke:#000000; stroke-width:4; stroke-opacity:1; fill:none" points="
  840.337,156.43 840.337,1462.26 1230.72,1462.26 1230.72,156.43 840.337,156.43 
  "/>
<polygon clip-path="url(#clip8702)" points="
1328.31,479.045 1328.31,1462.26 1718.69,1462.26 1718.69,479.045 1328.31,479.045 1328.31,479.045 
  " fill="#009af9" fill-rule="evenodd" fill-opacity="1"/>
<polyline clip-path="url(#clip8702)" style="stroke:#000000; stroke-width:4; stroke-opacity:1; fill:none" points="
  1328.31,479.045 1328.31,1462.26 1718.69,1462.26 1718.69,479.045 1328.31,479.045 
  "/>
<polygon clip-path="url(#clip8702)" points="
1816.28,940.622 1816.28,1462.26 2206.66,1462.26 2206.66,940.622 1816.28,940.622 1816.28,940.622 
  " fill="#009af9" fill-rule="evenodd" fill-opacity="1"/>
<polyline clip-path="url(#clip8702)" style="stroke:#000000; stroke-width:4; stroke-opacity:1; fill:none" points="
  1816.28,940.622 1816.28,1462.26 2206.66,1462.26 2206.66,940.622 1816.28,940.622 
  "/>
<circle clip-path="url(#clip8702)" style="fill:#000000; stroke:none; fill-opacity:1" cx="547.553" cy="624.724" r="18"/>
<circle clip-path="url(#clip8702)" style="fill:#e26f46; stroke:none; fill-opacity:1" cx="547.553" cy="624.724" r="14"/>
<circle clip-path="url(#clip8702)" style="fill:#000000; stroke:none; fill-opacity:1" cx="1035.53" cy="88.4582" r="18"/>
<circle clip-path="url(#clip8702)" style="fill:#e26f46; stroke:none; fill-opacity:1" cx="1035.53" cy="88.4582" r="14"/>
<circle clip-path="url(#clip8702)" style="fill:#000000; stroke:none; fill-opacity:1" cx="1523.5" cy="431.467" r="18"/>
<circle clip-path="url(#clip8702)" style="fill:#e26f46; stroke:none; fill-opacity:1" cx="1523.5" cy="431.467" r="14"/>
<circle clip-path="url(#clip8702)" style="fill:#000000; stroke:none; fill-opacity:1" cx="2011.47" cy="890.631" r="18"/>
<circle clip-path="url(#clip8702)" style="fill:#e26f46; stroke:none; fill-opacity:1" cx="2011.47" cy="890.631" r="14"/>
<polygon clip-path="url(#clip8700)" points="
1800.7,312.204 2249.26,312.204 2249.26,130.764 1800.7,130.764 
  " fill="#ffffff" fill-rule="evenodd" fill-opacity="1"/>
<polyline clip-path="url(#clip8700)" style="stroke:#000000; stroke-width:4; stroke-opacity:1; fill:none" points="
  1800.7,312.204 2249.26,312.204 2249.26,130.764 1800.7,130.764 1800.7,312.204 
  "/>
<polygon clip-path="url(#clip8700)" points="
1824.7,215.436 1968.7,215.436 1968.7,167.052 1824.7,167.052 1824.7,215.436 
  " fill="#009af9" fill-rule="evenodd" fill-opacity="1"/>
<polyline clip-path="url(#clip8700)" style="stroke:#000000; stroke-width:4; stroke-opacity:1; fill:none" points="
  1824.7,215.436 1968.7,215.436 1968.7,167.052 1824.7,167.052 1824.7,215.436 
  "/>
<g clip-path="url(#clip8700)">
<text style="fill:#000000; fill-opacity:1; font-family:Arial,Helvetica Neue,Helvetica,sans-serif; font-size:48px; text-anchor:start;" transform="rotate(0, 1992.7, 208.744)" x="1992.7" y="208.744">Median</text>
</g>
<circle clip-path="url(#clip8700)" style="fill:#000000; stroke:none; fill-opacity:1" cx="1908.7" cy="251.724" r="25"/>
<circle clip-path="url(#clip8700)" style="fill:#e26f46; stroke:none; fill-opacity:1" cx="1908.7" cy="251.724" r="21"/>
<g clip-path="url(#clip8700)">
<text style="fill:#000000; fill-opacity:1; font-family:Arial,Helvetica Neue,Helvetica,sans-serif; font-size:48px; text-anchor:start;" transform="rotate(0, 1992.7, 269.224)" x="1992.7" y="269.224">Maximum</text>
</g>
</svg>
