<?xml version="1.0" encoding="utf-8"?>
<svg xmlns="http://www.w3.org/2000/svg" xmlns:xlink="http://www.w3.org/1999/xlink" width="600" height="400" viewBox="0 0 2400 1600">
<defs>
  <clipPath id="clip430">
    <rect x="0" y="0" width="2400" height="1600"/>
  </clipPath>
</defs>
<path clip-path="url(#clip430)" d="M0 1600 L2400 1600 L2400 0 L0 0  Z" fill="#ffffff" fill-rule="evenodd" fill-opacity="1"/>
<defs>
  <clipPath id="clip431">
    <rect x="480" y="0" width="1681" height="1600"/>
  </clipPath>
</defs>
<path clip-path="url(#clip430)" d="M186.274 686.448 L2352.76 686.448 L2352.76 47.2441 L186.274 47.2441  Z" fill="#ffffff" fill-rule="evenodd" fill-opacity="1"/>
<defs>
  <clipPath id="clip432">
    <rect x="186" y="47" width="2167" height="640"/>
  </clipPath>
</defs>
<polyline clip-path="url(#clip432)" style="stroke:#000000; stroke-linecap:round; stroke-linejoin:round; stroke-width:2; stroke-opacity:0.1; fill:none" points="247.59,686.448 247.59,47.2441 "/>
<polyline clip-path="url(#clip432)" style="stroke:#000000; stroke-linecap:round; stroke-linejoin:round; stroke-width:2; stroke-opacity:0.1; fill:none" points="758.552,686.448 758.552,47.2441 "/>
<polyline clip-path="url(#clip432)" style="stroke:#000000; stroke-linecap:round; stroke-linejoin:round; stroke-width:2; stroke-opacity:0.1; fill:none" points="1269.51,686.448 1269.51,47.2441 "/>
<polyline clip-path="url(#clip432)" style="stroke:#000000; stroke-linecap:round; stroke-linejoin:round; stroke-width:2; stroke-opacity:0.1; fill:none" points="1780.48,686.448 1780.48,47.2441 "/>
<polyline clip-path="url(#clip432)" style="stroke:#000000; stroke-linecap:round; stroke-linejoin:round; stroke-width:2; stroke-opacity:0.1; fill:none" points="2291.44,686.448 2291.44,47.2441 "/>
<polyline clip-path="url(#clip430)" style="stroke:#000000; stroke-linecap:round; stroke-linejoin:round; stroke-width:4; stroke-opacity:1; fill:none" points="186.274,686.448 2352.76,686.448 "/>
<polyline clip-path="url(#clip430)" style="stroke:#000000; stroke-linecap:round; stroke-linejoin:round; stroke-width:4; stroke-opacity:1; fill:none" points="247.59,686.448 247.59,667.55 "/>
<polyline clip-path="url(#clip430)" style="stroke:#000000; stroke-linecap:round; stroke-linejoin:round; stroke-width:4; stroke-opacity:1; fill:none" points="758.552,686.448 758.552,667.55 "/>
<polyline clip-path="url(#clip430)" style="stroke:#000000; stroke-linecap:round; stroke-linejoin:round; stroke-width:4; stroke-opacity:1; fill:none" points="1269.51,686.448 1269.51,667.55 "/>
<polyline clip-path="url(#clip430)" style="stroke:#000000; stroke-linecap:round; stroke-linejoin:round; stroke-width:4; stroke-opacity:1; fill:none" points="1780.48,686.448 1780.48,667.55 "/>
<polyline clip-path="url(#clip430)" style="stroke:#000000; stroke-linecap:round; stroke-linejoin:round; stroke-width:4; stroke-opacity:1; fill:none" points="2291.44,686.448 2291.44,667.55 "/>
<path clip-path="url(#clip430)" d="M209.893 717.367 Q206.282 717.367 204.453 720.931 Q202.648 724.473 202.648 731.603 Q202.648 738.709 204.453 742.274 Q206.282 745.815 209.893 745.815 Q213.527 745.815 215.333 742.274 Q217.161 738.709 217.161 731.603 Q217.161 724.473 215.333 720.931 Q213.527 717.367 209.893 717.367 M209.893 713.663 Q215.703 713.663 218.759 718.269 Q221.837 722.853 221.837 731.603 Q221.837 740.329 218.759 744.936 Q215.703 749.519 209.893 749.519 Q204.083 749.519 201.004 744.936 Q197.949 740.329 197.949 731.603 Q197.949 722.853 201.004 718.269 Q204.083 713.663 209.893 713.663 Z" fill="#000000" fill-rule="nonzero" fill-opacity="1" /><path clip-path="url(#clip430)" d="M230.055 742.968 L234.939 742.968 L234.939 748.848 L230.055 748.848 L230.055 742.968 Z" fill="#000000" fill-rule="nonzero" fill-opacity="1" /><path clip-path="url(#clip430)" d="M255.124 717.367 Q251.513 717.367 249.684 720.931 Q247.879 724.473 247.879 731.603 Q247.879 738.709 249.684 742.274 Q251.513 745.815 255.124 745.815 Q258.758 745.815 260.564 742.274 Q262.393 738.709 262.393 731.603 Q262.393 724.473 260.564 720.931 Q258.758 717.367 255.124 717.367 M255.124 713.663 Q260.934 713.663 263.99 718.269 Q267.069 722.853 267.069 731.603 Q267.069 740.329 263.99 744.936 Q260.934 749.519 255.124 749.519 Q249.314 749.519 246.235 744.936 Q243.18 740.329 243.18 731.603 Q243.18 722.853 246.235 718.269 Q249.314 713.663 255.124 713.663 Z" fill="#000000" fill-rule="nonzero" fill-opacity="1" /><path clip-path="url(#clip430)" d="M285.286 717.367 Q281.675 717.367 279.846 720.931 Q278.041 724.473 278.041 731.603 Q278.041 738.709 279.846 742.274 Q281.675 745.815 285.286 745.815 Q288.92 745.815 290.726 742.274 Q292.555 738.709 292.555 731.603 Q292.555 724.473 290.726 720.931 Q288.92 717.367 285.286 717.367 M285.286 713.663 Q291.096 713.663 294.152 718.269 Q297.23 722.853 297.23 731.603 Q297.23 740.329 294.152 744.936 Q291.096 749.519 285.286 749.519 Q279.476 749.519 276.397 744.936 Q273.342 740.329 273.342 731.603 Q273.342 722.853 276.397 718.269 Q279.476 713.663 285.286 713.663 Z" fill="#000000" fill-rule="nonzero" fill-opacity="1" /><path clip-path="url(#clip430)" d="M721.353 717.367 Q717.742 717.367 715.914 720.931 Q714.108 724.473 714.108 731.603 Q714.108 738.709 715.914 742.274 Q717.742 745.815 721.353 745.815 Q724.988 745.815 726.793 742.274 Q728.622 738.709 728.622 731.603 Q728.622 724.473 726.793 720.931 Q724.988 717.367 721.353 717.367 M721.353 713.663 Q727.164 713.663 730.219 718.269 Q733.298 722.853 733.298 731.603 Q733.298 740.329 730.219 744.936 Q727.164 749.519 721.353 749.519 Q715.543 749.519 712.465 744.936 Q709.409 740.329 709.409 731.603 Q709.409 722.853 712.465 718.269 Q715.543 713.663 721.353 713.663 Z" fill="#000000" fill-rule="nonzero" fill-opacity="1" /><path clip-path="url(#clip430)" d="M741.515 742.968 L746.4 742.968 L746.4 748.848 L741.515 748.848 L741.515 742.968 Z" fill="#000000" fill-rule="nonzero" fill-opacity="1" /><path clip-path="url(#clip430)" d="M760.612 744.913 L776.932 744.913 L776.932 748.848 L754.987 748.848 L754.987 744.913 Q757.649 742.158 762.233 737.528 Q766.839 732.876 768.02 731.533 Q770.265 729.01 771.145 727.274 Q772.048 725.515 772.048 723.825 Q772.048 721.07 770.103 719.334 Q768.182 717.598 765.08 717.598 Q762.881 717.598 760.427 718.362 Q757.997 719.126 755.219 720.677 L755.219 715.955 Q758.043 714.82 760.497 714.242 Q762.95 713.663 764.987 713.663 Q770.358 713.663 773.552 716.348 Q776.747 719.033 776.747 723.524 Q776.747 725.654 775.936 727.575 Q775.149 729.473 773.043 732.066 Q772.464 732.737 769.362 735.954 Q766.261 739.149 760.612 744.913 Z" fill="#000000" fill-rule="nonzero" fill-opacity="1" /><path clip-path="url(#clip430)" d="M786.793 714.288 L805.149 714.288 L805.149 718.223 L791.075 718.223 L791.075 726.695 Q792.094 726.348 793.112 726.186 Q794.131 726.001 795.149 726.001 Q800.936 726.001 804.316 729.172 Q807.695 732.343 807.695 737.76 Q807.695 743.339 804.223 746.44 Q800.751 749.519 794.432 749.519 Q792.256 749.519 789.987 749.149 Q787.742 748.778 785.335 748.038 L785.335 743.339 Q787.418 744.473 789.64 745.028 Q791.862 745.584 794.339 745.584 Q798.344 745.584 800.682 743.478 Q803.02 741.371 803.02 737.76 Q803.02 734.149 800.682 732.042 Q798.344 729.936 794.339 729.936 Q792.464 729.936 790.589 730.353 Q788.737 730.769 786.793 731.649 L786.793 714.288 Z" fill="#000000" fill-rule="nonzero" fill-opacity="1" /><path clip-path="url(#clip430)" d="M1231.82 717.367 Q1228.21 717.367 1226.38 720.931 Q1224.57 724.473 1224.57 731.603 Q1224.57 738.709 1226.38 742.274 Q1228.21 745.815 1231.82 745.815 Q1235.45 745.815 1237.26 742.274 Q1239.09 738.709 1239.09 731.603 Q1239.09 724.473 1237.26 720.931 Q1235.45 717.367 1231.82 717.367 M1231.82 713.663 Q1237.63 713.663 1240.68 718.269 Q1243.76 722.853 1243.76 731.603 Q1243.76 740.329 1240.68 744.936 Q1237.63 749.519 1231.82 749.519 Q1226.01 749.519 1222.93 744.936 Q1219.87 740.329 1219.87 731.603 Q1219.87 722.853 1222.93 718.269 Q1226.01 713.663 1231.82 713.663 Z" fill="#000000" fill-rule="nonzero" fill-opacity="1" /><path clip-path="url(#clip430)" d="M1251.98 742.968 L1256.86 742.968 L1256.86 748.848 L1251.98 748.848 L1251.98 742.968 Z" fill="#000000" fill-rule="nonzero" fill-opacity="1" /><path clip-path="url(#clip430)" d="M1267.1 714.288 L1285.45 714.288 L1285.45 718.223 L1271.38 718.223 L1271.38 726.695 Q1272.4 726.348 1273.42 726.186 Q1274.43 726.001 1275.45 726.001 Q1281.24 726.001 1284.62 729.172 Q1288 732.343 1288 737.76 Q1288 743.339 1284.53 746.44 Q1281.05 749.519 1274.73 749.519 Q1272.56 749.519 1270.29 749.149 Q1268.05 748.778 1265.64 748.038 L1265.64 743.339 Q1267.72 744.473 1269.94 745.028 Q1272.17 745.584 1274.64 745.584 Q1278.65 745.584 1280.98 743.478 Q1283.32 741.371 1283.32 737.76 Q1283.32 734.149 1280.98 732.042 Q1278.65 729.936 1274.64 729.936 Q1272.77 729.936 1270.89 730.353 Q1269.04 730.769 1267.1 731.649 L1267.1 714.288 Z" fill="#000000" fill-rule="nonzero" fill-opacity="1" /><path clip-path="url(#clip430)" d="M1307.21 717.367 Q1303.6 717.367 1301.77 720.931 Q1299.97 724.473 1299.97 731.603 Q1299.97 738.709 1301.77 742.274 Q1303.6 745.815 1307.21 745.815 Q1310.85 745.815 1312.65 742.274 Q1314.48 738.709 1314.48 731.603 Q1314.48 724.473 1312.65 720.931 Q1310.85 717.367 1307.21 717.367 M1307.21 713.663 Q1313.02 713.663 1316.08 718.269 Q1319.16 722.853 1319.16 731.603 Q1319.16 740.329 1316.08 744.936 Q1313.02 749.519 1307.21 749.519 Q1301.4 749.519 1298.32 744.936 Q1295.27 740.329 1295.27 731.603 Q1295.27 722.853 1298.32 718.269 Q1301.4 713.663 1307.21 713.663 Z" fill="#000000" fill-rule="nonzero" fill-opacity="1" /><path clip-path="url(#clip430)" d="M1743.28 717.367 Q1739.67 717.367 1737.84 720.931 Q1736.03 724.473 1736.03 731.603 Q1736.03 738.709 1737.84 742.274 Q1739.67 745.815 1743.28 745.815 Q1746.91 745.815 1748.72 742.274 Q1750.55 738.709 1750.55 731.603 Q1750.55 724.473 1748.72 720.931 Q1746.91 717.367 1743.28 717.367 M1743.28 713.663 Q1749.09 713.663 1752.14 718.269 Q1755.22 722.853 1755.22 731.603 Q1755.22 740.329 1752.14 744.936 Q1749.09 749.519 1743.28 749.519 Q1737.47 749.519 1734.39 744.936 Q1731.33 740.329 1731.33 731.603 Q1731.33 722.853 1734.39 718.269 Q1737.47 713.663 1743.28 713.663 Z" fill="#000000" fill-rule="nonzero" fill-opacity="1" /><path clip-path="url(#clip430)" d="M1763.44 742.968 L1768.32 742.968 L1768.32 748.848 L1763.44 748.848 L1763.44 742.968 Z" fill="#000000" fill-rule="nonzero" fill-opacity="1" /><path clip-path="url(#clip430)" d="M1777.33 714.288 L1799.55 714.288 L1799.55 716.279 L1787.01 748.848 L1782.12 748.848 L1793.93 718.223 L1777.33 718.223 L1777.33 714.288 Z" fill="#000000" fill-rule="nonzero" fill-opacity="1" /><path clip-path="url(#clip430)" d="M1808.72 714.288 L1827.07 714.288 L1827.07 718.223 L1813 718.223 L1813 726.695 Q1814.02 726.348 1815.04 726.186 Q1816.06 726.001 1817.07 726.001 Q1822.86 726.001 1826.24 729.172 Q1829.62 732.343 1829.62 737.76 Q1829.62 743.339 1826.15 746.44 Q1822.68 749.519 1816.36 749.519 Q1814.18 749.519 1811.91 749.149 Q1809.67 748.778 1807.26 748.038 L1807.26 743.339 Q1809.34 744.473 1811.57 745.028 Q1813.79 745.584 1816.26 745.584 Q1820.27 745.584 1822.61 743.478 Q1824.95 741.371 1824.95 737.76 Q1824.95 734.149 1822.61 732.042 Q1820.27 729.936 1816.26 729.936 Q1814.39 729.936 1812.51 730.353 Q1810.66 730.769 1808.72 731.649 L1808.72 714.288 Z" fill="#000000" fill-rule="nonzero" fill-opacity="1" /><path clip-path="url(#clip430)" d="M2243.51 744.913 L2251.15 744.913 L2251.15 718.547 L2242.84 720.214 L2242.84 715.955 L2251.1 714.288 L2255.78 714.288 L2255.78 744.913 L2263.42 744.913 L2263.42 748.848 L2243.51 748.848 L2243.51 744.913 Z" fill="#000000" fill-rule="nonzero" fill-opacity="1" /><path clip-path="url(#clip430)" d="M2272.86 742.968 L2277.75 742.968 L2277.75 748.848 L2272.86 748.848 L2272.86 742.968 Z" fill="#000000" fill-rule="nonzero" fill-opacity="1" /><path clip-path="url(#clip430)" d="M2297.93 717.367 Q2294.32 717.367 2292.49 720.931 Q2290.69 724.473 2290.69 731.603 Q2290.69 738.709 2292.49 742.274 Q2294.32 745.815 2297.93 745.815 Q2301.57 745.815 2303.37 742.274 Q2305.2 738.709 2305.2 731.603 Q2305.2 724.473 2303.37 720.931 Q2301.57 717.367 2297.93 717.367 M2297.93 713.663 Q2303.74 713.663 2306.8 718.269 Q2309.88 722.853 2309.88 731.603 Q2309.88 740.329 2306.8 744.936 Q2303.74 749.519 2297.93 749.519 Q2292.12 749.519 2289.04 744.936 Q2285.99 740.329 2285.99 731.603 Q2285.99 722.853 2289.04 718.269 Q2292.12 713.663 2297.93 713.663 Z" fill="#000000" fill-rule="nonzero" fill-opacity="1" /><path clip-path="url(#clip430)" d="M2328.1 717.367 Q2324.48 717.367 2322.66 720.931 Q2320.85 724.473 2320.85 731.603 Q2320.85 738.709 2322.66 742.274 Q2324.48 745.815 2328.1 745.815 Q2331.73 745.815 2333.54 742.274 Q2335.36 738.709 2335.36 731.603 Q2335.36 724.473 2333.54 720.931 Q2331.73 717.367 2328.1 717.367 M2328.1 713.663 Q2333.91 713.663 2336.96 718.269 Q2340.04 722.853 2340.04 731.603 Q2340.04 740.329 2336.96 744.936 Q2333.91 749.519 2328.1 749.519 Q2322.29 749.519 2319.21 744.936 Q2316.15 740.329 2316.15 731.603 Q2316.15 722.853 2319.21 718.269 Q2322.29 713.663 2328.1 713.663 Z" fill="#000000" fill-rule="nonzero" fill-opacity="1" /><polyline clip-path="url(#clip432)" style="stroke:#000000; stroke-linecap:round; stroke-linejoin:round; stroke-width:2; stroke-opacity:0.1; fill:none" points="186.274,668.357 2352.76,668.357 "/>
<polyline clip-path="url(#clip432)" style="stroke:#000000; stroke-linecap:round; stroke-linejoin:round; stroke-width:2; stroke-opacity:0.1; fill:none" points="186.274,517.602 2352.76,517.602 "/>
<polyline clip-path="url(#clip432)" style="stroke:#000000; stroke-linecap:round; stroke-linejoin:round; stroke-width:2; stroke-opacity:0.1; fill:none" points="186.274,366.846 2352.76,366.846 "/>
<polyline clip-path="url(#clip432)" style="stroke:#000000; stroke-linecap:round; stroke-linejoin:round; stroke-width:2; stroke-opacity:0.1; fill:none" points="186.274,216.09 2352.76,216.09 "/>
<polyline clip-path="url(#clip432)" style="stroke:#000000; stroke-linecap:round; stroke-linejoin:round; stroke-width:2; stroke-opacity:0.1; fill:none" points="186.274,65.3348 2352.76,65.3348 "/>
<polyline clip-path="url(#clip430)" style="stroke:#000000; stroke-linecap:round; stroke-linejoin:round; stroke-width:4; stroke-opacity:1; fill:none" points="186.274,686.448 186.274,47.2441 "/>
<polyline clip-path="url(#clip430)" style="stroke:#000000; stroke-linecap:round; stroke-linejoin:round; stroke-width:4; stroke-opacity:1; fill:none" points="186.274,668.357 205.172,668.357 "/>
<polyline clip-path="url(#clip430)" style="stroke:#000000; stroke-linecap:round; stroke-linejoin:round; stroke-width:4; stroke-opacity:1; fill:none" points="186.274,517.602 205.172,517.602 "/>
<polyline clip-path="url(#clip430)" style="stroke:#000000; stroke-linecap:round; stroke-linejoin:round; stroke-width:4; stroke-opacity:1; fill:none" points="186.274,366.846 205.172,366.846 "/>
<polyline clip-path="url(#clip430)" style="stroke:#000000; stroke-linecap:round; stroke-linejoin:round; stroke-width:4; stroke-opacity:1; fill:none" points="186.274,216.09 205.172,216.09 "/>
<polyline clip-path="url(#clip430)" style="stroke:#000000; stroke-linecap:round; stroke-linejoin:round; stroke-width:4; stroke-opacity:1; fill:none" points="186.274,65.3348 205.172,65.3348 "/>
<path clip-path="url(#clip430)" d="M62.9365 654.156 Q59.3254 654.156 57.4967 657.721 Q55.6912 661.262 55.6912 668.392 Q55.6912 675.498 57.4967 679.063 Q59.3254 682.605 62.9365 682.605 Q66.5707 682.605 68.3763 679.063 Q70.205 675.498 70.205 668.392 Q70.205 661.262 68.3763 657.721 Q66.5707 654.156 62.9365 654.156 M62.9365 650.452 Q68.7467 650.452 71.8022 655.059 Q74.8809 659.642 74.8809 668.392 Q74.8809 677.119 71.8022 681.725 Q68.7467 686.308 62.9365 686.308 Q57.1264 686.308 54.0477 681.725 Q50.9921 677.119 50.9921 668.392 Q50.9921 659.642 54.0477 655.059 Q57.1264 650.452 62.9365 650.452 Z" fill="#000000" fill-rule="nonzero" fill-opacity="1" /><path clip-path="url(#clip430)" d="M83.0984 679.758 L87.9827 679.758 L87.9827 685.637 L83.0984 685.637 L83.0984 679.758 Z" fill="#000000" fill-rule="nonzero" fill-opacity="1" /><path clip-path="url(#clip430)" d="M108.168 654.156 Q104.557 654.156 102.728 657.721 Q100.922 661.262 100.922 668.392 Q100.922 675.498 102.728 679.063 Q104.557 682.605 108.168 682.605 Q111.802 682.605 113.608 679.063 Q115.436 675.498 115.436 668.392 Q115.436 661.262 113.608 657.721 Q111.802 654.156 108.168 654.156 M108.168 650.452 Q113.978 650.452 117.033 655.059 Q120.112 659.642 120.112 668.392 Q120.112 677.119 117.033 681.725 Q113.978 686.308 108.168 686.308 Q102.358 686.308 99.2789 681.725 Q96.2234 677.119 96.2234 668.392 Q96.2234 659.642 99.2789 655.059 Q102.358 650.452 108.168 650.452 Z" fill="#000000" fill-rule="nonzero" fill-opacity="1" /><path clip-path="url(#clip430)" d="M138.33 654.156 Q134.719 654.156 132.89 657.721 Q131.084 661.262 131.084 668.392 Q131.084 675.498 132.89 679.063 Q134.719 682.605 138.33 682.605 Q141.964 682.605 143.769 679.063 Q145.598 675.498 145.598 668.392 Q145.598 661.262 143.769 657.721 Q141.964 654.156 138.33 654.156 M138.33 650.452 Q144.14 650.452 147.195 655.059 Q150.274 659.642 150.274 668.392 Q150.274 677.119 147.195 681.725 Q144.14 686.308 138.33 686.308 Q132.519 686.308 129.441 681.725 Q126.385 677.119 126.385 668.392 Q126.385 659.642 129.441 655.059 Q132.519 650.452 138.33 650.452 Z" fill="#000000" fill-rule="nonzero" fill-opacity="1" /><path clip-path="url(#clip430)" d="M63.9319 503.4 Q60.3208 503.4 58.4921 506.965 Q56.6865 510.507 56.6865 517.636 Q56.6865 524.743 58.4921 528.308 Q60.3208 531.849 63.9319 531.849 Q67.5661 531.849 69.3717 528.308 Q71.2004 524.743 71.2004 517.636 Q71.2004 510.507 69.3717 506.965 Q67.5661 503.4 63.9319 503.4 M63.9319 499.697 Q69.742 499.697 72.7976 504.303 Q75.8763 508.886 75.8763 517.636 Q75.8763 526.363 72.7976 530.97 Q69.742 535.553 63.9319 535.553 Q58.1217 535.553 55.043 530.97 Q51.9875 526.363 51.9875 517.636 Q51.9875 508.886 55.043 504.303 Q58.1217 499.697 63.9319 499.697 Z" fill="#000000" fill-rule="nonzero" fill-opacity="1" /><path clip-path="url(#clip430)" d="M84.0938 529.002 L88.978 529.002 L88.978 534.882 L84.0938 534.882 L84.0938 529.002 Z" fill="#000000" fill-rule="nonzero" fill-opacity="1" /><path clip-path="url(#clip430)" d="M103.191 530.946 L119.51 530.946 L119.51 534.882 L97.566 534.882 L97.566 530.946 Q100.228 528.192 104.811 523.562 Q109.418 518.909 110.598 517.567 Q112.844 515.044 113.723 513.308 Q114.626 511.548 114.626 509.859 Q114.626 507.104 112.682 505.368 Q110.76 503.632 107.658 503.632 Q105.459 503.632 103.006 504.396 Q100.575 505.16 97.7974 506.71 L97.7974 501.988 Q100.621 500.854 103.075 500.275 Q105.529 499.697 107.566 499.697 Q112.936 499.697 116.131 502.382 Q119.325 505.067 119.325 509.558 Q119.325 511.687 118.515 513.609 Q117.728 515.507 115.621 518.099 Q115.043 518.771 111.941 521.988 Q108.839 525.183 103.191 530.946 Z" fill="#000000" fill-rule="nonzero" fill-opacity="1" /><path clip-path="url(#clip430)" d="M129.371 500.322 L147.728 500.322 L147.728 504.257 L133.654 504.257 L133.654 512.729 Q134.672 512.382 135.691 512.22 Q136.709 512.034 137.728 512.034 Q143.515 512.034 146.894 515.206 Q150.274 518.377 150.274 523.794 Q150.274 529.372 146.802 532.474 Q143.33 535.553 137.01 535.553 Q134.834 535.553 132.566 535.183 Q130.32 534.812 127.913 534.071 L127.913 529.372 Q129.996 530.507 132.219 531.062 Q134.441 531.618 136.918 531.618 Q140.922 531.618 143.26 529.511 Q145.598 527.405 145.598 523.794 Q145.598 520.183 143.26 518.076 Q140.922 515.97 136.918 515.97 Q135.043 515.97 133.168 516.386 Q131.316 516.803 129.371 517.683 L129.371 500.322 Z" fill="#000000" fill-rule="nonzero" fill-opacity="1" /><path clip-path="url(#clip430)" d="M62.9365 352.645 Q59.3254 352.645 57.4967 356.209 Q55.6912 359.751 55.6912 366.881 Q55.6912 373.987 57.4967 377.552 Q59.3254 381.094 62.9365 381.094 Q66.5707 381.094 68.3763 377.552 Q70.205 373.987 70.205 366.881 Q70.205 359.751 68.3763 356.209 Q66.5707 352.645 62.9365 352.645 M62.9365 348.941 Q68.7467 348.941 71.8022 353.547 Q74.8809 358.131 74.8809 366.881 Q74.8809 375.608 71.8022 380.214 Q68.7467 384.797 62.9365 384.797 Q57.1264 384.797 54.0477 380.214 Q50.9921 375.608 50.9921 366.881 Q50.9921 358.131 54.0477 353.547 Q57.1264 348.941 62.9365 348.941 Z" fill="#000000" fill-rule="nonzero" fill-opacity="1" /><path clip-path="url(#clip430)" d="M83.0984 378.246 L87.9827 378.246 L87.9827 384.126 L83.0984 384.126 L83.0984 378.246 Z" fill="#000000" fill-rule="nonzero" fill-opacity="1" /><path clip-path="url(#clip430)" d="M98.2141 349.566 L116.57 349.566 L116.57 353.501 L102.496 353.501 L102.496 361.973 Q103.515 361.626 104.534 361.464 Q105.552 361.279 106.571 361.279 Q112.358 361.279 115.737 364.45 Q119.117 367.621 119.117 373.038 Q119.117 378.617 115.645 381.719 Q112.172 384.797 105.853 384.797 Q103.677 384.797 101.409 384.427 Q99.1632 384.057 96.7558 383.316 L96.7558 378.617 Q98.8391 379.751 101.061 380.307 Q103.284 380.862 105.76 380.862 Q109.765 380.862 112.103 378.756 Q114.441 376.649 114.441 373.038 Q114.441 369.427 112.103 367.321 Q109.765 365.214 105.76 365.214 Q103.885 365.214 102.01 365.631 Q100.159 366.047 98.2141 366.927 L98.2141 349.566 Z" fill="#000000" fill-rule="nonzero" fill-opacity="1" /><path clip-path="url(#clip430)" d="M138.33 352.645 Q134.719 352.645 132.89 356.209 Q131.084 359.751 131.084 366.881 Q131.084 373.987 132.89 377.552 Q134.719 381.094 138.33 381.094 Q141.964 381.094 143.769 377.552 Q145.598 373.987 145.598 366.881 Q145.598 359.751 143.769 356.209 Q141.964 352.645 138.33 352.645 M138.33 348.941 Q144.14 348.941 147.195 353.547 Q150.274 358.131 150.274 366.881 Q150.274 375.608 147.195 380.214 Q144.14 384.797 138.33 384.797 Q132.519 384.797 129.441 380.214 Q126.385 375.608 126.385 366.881 Q126.385 358.131 129.441 353.547 Q132.519 348.941 138.33 348.941 Z" fill="#000000" fill-rule="nonzero" fill-opacity="1" /><path clip-path="url(#clip430)" d="M63.9319 201.889 Q60.3208 201.889 58.4921 205.454 Q56.6865 208.996 56.6865 216.125 Q56.6865 223.232 58.4921 226.796 Q60.3208 230.338 63.9319 230.338 Q67.5661 230.338 69.3717 226.796 Q71.2004 223.232 71.2004 216.125 Q71.2004 208.996 69.3717 205.454 Q67.5661 201.889 63.9319 201.889 M63.9319 198.185 Q69.742 198.185 72.7976 202.792 Q75.8763 207.375 75.8763 216.125 Q75.8763 224.852 72.7976 229.458 Q69.742 234.042 63.9319 234.042 Q58.1217 234.042 55.043 229.458 Q51.9875 224.852 51.9875 216.125 Q51.9875 207.375 55.043 202.792 Q58.1217 198.185 63.9319 198.185 Z" fill="#000000" fill-rule="nonzero" fill-opacity="1" /><path clip-path="url(#clip430)" d="M84.0938 227.491 L88.978 227.491 L88.978 233.37 L84.0938 233.37 L84.0938 227.491 Z" fill="#000000" fill-rule="nonzero" fill-opacity="1" /><path clip-path="url(#clip430)" d="M97.9826 198.81 L120.205 198.81 L120.205 200.801 L107.658 233.37 L102.774 233.37 L114.58 202.746 L97.9826 202.746 L97.9826 198.81 Z" fill="#000000" fill-rule="nonzero" fill-opacity="1" /><path clip-path="url(#clip430)" d="M129.371 198.81 L147.728 198.81 L147.728 202.746 L133.654 202.746 L133.654 211.218 Q134.672 210.87 135.691 210.708 Q136.709 210.523 137.728 210.523 Q143.515 210.523 146.894 213.695 Q150.274 216.866 150.274 222.282 Q150.274 227.861 146.802 230.963 Q143.33 234.042 137.01 234.042 Q134.834 234.042 132.566 233.671 Q130.32 233.301 127.913 232.56 L127.913 227.861 Q129.996 228.995 132.219 229.551 Q134.441 230.107 136.918 230.107 Q140.922 230.107 143.26 228 Q145.598 225.894 145.598 222.282 Q145.598 218.671 143.26 216.565 Q140.922 214.458 136.918 214.458 Q135.043 214.458 133.168 214.875 Q131.316 215.292 129.371 216.171 L129.371 198.81 Z" fill="#000000" fill-rule="nonzero" fill-opacity="1" /><path clip-path="url(#clip430)" d="M53.7467 78.6796 L61.3856 78.6796 L61.3856 52.314 L53.0754 53.9807 L53.0754 49.7214 L61.3393 48.0548 L66.0152 48.0548 L66.0152 78.6796 L73.654 78.6796 L73.654 82.6148 L53.7467 82.6148 L53.7467 78.6796 Z" fill="#000000" fill-rule="nonzero" fill-opacity="1" /><path clip-path="url(#clip430)" d="M83.0984 76.7352 L87.9827 76.7352 L87.9827 82.6148 L83.0984 82.6148 L83.0984 76.7352 Z" fill="#000000" fill-rule="nonzero" fill-opacity="1" /><path clip-path="url(#clip430)" d="M108.168 51.1335 Q104.557 51.1335 102.728 54.6983 Q100.922 58.2399 100.922 65.3695 Q100.922 72.4759 102.728 76.0407 Q104.557 79.5824 108.168 79.5824 Q111.802 79.5824 113.608 76.0407 Q115.436 72.4759 115.436 65.3695 Q115.436 58.2399 113.608 54.6983 Q111.802 51.1335 108.168 51.1335 M108.168 47.4298 Q113.978 47.4298 117.033 52.0362 Q120.112 56.6195 120.112 65.3695 Q120.112 74.0963 117.033 78.7028 Q113.978 83.2861 108.168 83.2861 Q102.358 83.2861 99.2789 78.7028 Q96.2234 74.0963 96.2234 65.3695 Q96.2234 56.6195 99.2789 52.0362 Q102.358 47.4298 108.168 47.4298 Z" fill="#000000" fill-rule="nonzero" fill-opacity="1" /><path clip-path="url(#clip430)" d="M138.33 51.1335 Q134.719 51.1335 132.89 54.6983 Q131.084 58.2399 131.084 65.3695 Q131.084 72.4759 132.89 76.0407 Q134.719 79.5824 138.33 79.5824 Q141.964 79.5824 143.769 76.0407 Q145.598 72.4759 145.598 65.3695 Q145.598 58.2399 143.769 54.6983 Q141.964 51.1335 138.33 51.1335 M138.33 47.4298 Q144.14 47.4298 147.195 52.0362 Q150.274 56.6195 150.274 65.3695 Q150.274 74.0963 147.195 78.7028 Q144.14 83.2861 138.33 83.2861 Q132.519 83.2861 129.441 78.7028 Q126.385 74.0963 126.385 65.3695 Q126.385 56.6195 129.441 52.0362 Q132.519 47.4298 138.33 47.4298 Z" fill="#000000" fill-rule="nonzero" fill-opacity="1" /><polyline clip-path="url(#clip432)" style="stroke:#000000; stroke-linecap:round; stroke-linejoin:round; stroke-width:4; stroke-opacity:1; fill:none" points="264.818,373.535 264.818,371.221 "/>
<polyline clip-path="url(#clip432)" style="stroke:#000000; stroke-linecap:round; stroke-linejoin:round; stroke-width:4; stroke-opacity:1; fill:none" points="534.7,397.021 534.7,360.506 "/>
<polyline clip-path="url(#clip432)" style="stroke:#000000; stroke-linecap:round; stroke-linejoin:round; stroke-width:4; stroke-opacity:1; fill:none" points="756.536,421.145 756.536,358.231 "/>
<polyline clip-path="url(#clip432)" style="stroke:#000000; stroke-linecap:round; stroke-linejoin:round; stroke-width:4; stroke-opacity:1; fill:none" points="970.252,420.312 970.252,354.402 "/>
<polyline clip-path="url(#clip432)" style="stroke:#000000; stroke-linecap:round; stroke-linejoin:round; stroke-width:4; stroke-opacity:1; fill:none" points="1171.19,412.004 1171.19,350.086 "/>
<polyline clip-path="url(#clip432)" style="stroke:#000000; stroke-linecap:round; stroke-linejoin:round; stroke-width:4; stroke-opacity:1; fill:none" points="1383.28,395.852 1383.28,346.393 "/>
<polyline clip-path="url(#clip432)" style="stroke:#000000; stroke-linecap:round; stroke-linejoin:round; stroke-width:4; stroke-opacity:1; fill:none" points="1583.23,395.485 1583.23,358.46 "/>
<polyline clip-path="url(#clip432)" style="stroke:#000000; stroke-linecap:round; stroke-linejoin:round; stroke-width:4; stroke-opacity:1; fill:none" points="1794.15,388.729 1794.15,363.396 "/>
<polyline clip-path="url(#clip432)" style="stroke:#000000; stroke-linecap:round; stroke-linejoin:round; stroke-width:4; stroke-opacity:1; fill:none" points="2003.27,378.116 2003.27,364.775 "/>
<polyline clip-path="url(#clip432)" style="stroke:#000000; stroke-linecap:round; stroke-linejoin:round; stroke-width:4; stroke-opacity:1; fill:none" points="2168.42,379.319 2168.42,371.77 "/>
<line clip-path="url(#clip432)" x1="280.818" y1="373.535" x2="248.818" y2="373.535" style="stroke:#000000; stroke-width:3.2; stroke-opacity:1"/>
<line clip-path="url(#clip432)" x1="280.818" y1="371.221" x2="248.818" y2="371.221" style="stroke:#000000; stroke-width:3.2; stroke-opacity:1"/>
<line clip-path="url(#clip432)" x1="550.7" y1="397.021" x2="518.7" y2="397.021" style="stroke:#000000; stroke-width:3.2; stroke-opacity:1"/>
<line clip-path="url(#clip432)" x1="550.7" y1="360.506" x2="518.7" y2="360.506" style="stroke:#000000; stroke-width:3.2; stroke-opacity:1"/>
<line clip-path="url(#clip432)" x1="772.536" y1="421.145" x2="740.536" y2="421.145" style="stroke:#000000; stroke-width:3.2; stroke-opacity:1"/>
<line clip-path="url(#clip432)" x1="772.536" y1="358.231" x2="740.536" y2="358.231" style="stroke:#000000; stroke-width:3.2; stroke-opacity:1"/>
<line clip-path="url(#clip432)" x1="986.252" y1="420.312" x2="954.252" y2="420.312" style="stroke:#000000; stroke-width:3.2; stroke-opacity:1"/>
<line clip-path="url(#clip432)" x1="986.252" y1="354.402" x2="954.252" y2="354.402" style="stroke:#000000; stroke-width:3.2; stroke-opacity:1"/>
<line clip-path="url(#clip432)" x1="1187.19" y1="412.004" x2="1155.19" y2="412.004" style="stroke:#000000; stroke-width:3.2; stroke-opacity:1"/>
<line clip-path="url(#clip432)" x1="1187.19" y1="350.086" x2="1155.19" y2="350.086" style="stroke:#000000; stroke-width:3.2; stroke-opacity:1"/>
<line clip-path="url(#clip432)" x1="1399.28" y1="395.852" x2="1367.28" y2="395.852" style="stroke:#000000; stroke-width:3.2; stroke-opacity:1"/>
<line clip-path="url(#clip432)" x1="1399.28" y1="346.393" x2="1367.28" y2="346.393" style="stroke:#000000; stroke-width:3.2; stroke-opacity:1"/>
<line clip-path="url(#clip432)" x1="1599.23" y1="395.485" x2="1567.23" y2="395.485" style="stroke:#000000; stroke-width:3.2; stroke-opacity:1"/>
<line clip-path="url(#clip432)" x1="1599.23" y1="358.46" x2="1567.23" y2="358.46" style="stroke:#000000; stroke-width:3.2; stroke-opacity:1"/>
<line clip-path="url(#clip432)" x1="1810.15" y1="388.729" x2="1778.15" y2="388.729" style="stroke:#000000; stroke-width:3.2; stroke-opacity:1"/>
<line clip-path="url(#clip432)" x1="1810.15" y1="363.396" x2="1778.15" y2="363.396" style="stroke:#000000; stroke-width:3.2; stroke-opacity:1"/>
<line clip-path="url(#clip432)" x1="2019.27" y1="378.116" x2="1987.27" y2="378.116" style="stroke:#000000; stroke-width:3.2; stroke-opacity:1"/>
<line clip-path="url(#clip432)" x1="2019.27" y1="364.775" x2="1987.27" y2="364.775" style="stroke:#000000; stroke-width:3.2; stroke-opacity:1"/>
<line clip-path="url(#clip432)" x1="2184.42" y1="379.319" x2="2152.42" y2="379.319" style="stroke:#000000; stroke-width:3.2; stroke-opacity:1"/>
<line clip-path="url(#clip432)" x1="2184.42" y1="371.77" x2="2152.42" y2="371.77" style="stroke:#000000; stroke-width:3.2; stroke-opacity:1"/>
<circle clip-path="url(#clip432)" cx="264.818" cy="372.378" r="14.4" fill="#009af9" fill-rule="evenodd" fill-opacity="1" stroke="#000000" stroke-opacity="1" stroke-width="3.2"/>
<circle clip-path="url(#clip432)" cx="534.7" cy="378.763" r="14.4" fill="#009af9" fill-rule="evenodd" fill-opacity="1" stroke="#000000" stroke-opacity="1" stroke-width="3.2"/>
<circle clip-path="url(#clip432)" cx="756.536" cy="389.688" r="14.4" fill="#009af9" fill-rule="evenodd" fill-opacity="1" stroke="#000000" stroke-opacity="1" stroke-width="3.2"/>
<circle clip-path="url(#clip432)" cx="970.252" cy="387.357" r="14.4" fill="#009af9" fill-rule="evenodd" fill-opacity="1" stroke="#000000" stroke-opacity="1" stroke-width="3.2"/>
<circle clip-path="url(#clip432)" cx="1171.19" cy="381.045" r="14.4" fill="#009af9" fill-rule="evenodd" fill-opacity="1" stroke="#000000" stroke-opacity="1" stroke-width="3.2"/>
<circle clip-path="url(#clip432)" cx="1383.28" cy="371.123" r="14.4" fill="#009af9" fill-rule="evenodd" fill-opacity="1" stroke="#000000" stroke-opacity="1" stroke-width="3.2"/>
<circle clip-path="url(#clip432)" cx="1583.23" cy="376.973" r="14.4" fill="#009af9" fill-rule="evenodd" fill-opacity="1" stroke="#000000" stroke-opacity="1" stroke-width="3.2"/>
<circle clip-path="url(#clip432)" cx="1794.15" cy="376.062" r="14.4" fill="#009af9" fill-rule="evenodd" fill-opacity="1" stroke="#000000" stroke-opacity="1" stroke-width="3.2"/>
<circle clip-path="url(#clip432)" cx="2003.27" cy="371.446" r="14.4" fill="#009af9" fill-rule="evenodd" fill-opacity="1" stroke="#000000" stroke-opacity="1" stroke-width="3.2"/>
<circle clip-path="url(#clip432)" cx="2168.42" cy="375.544" r="14.4" fill="#009af9" fill-rule="evenodd" fill-opacity="1" stroke="#000000" stroke-opacity="1" stroke-width="3.2"/>
<polyline clip-path="url(#clip432)" style="stroke:#e26f46; stroke-linecap:round; stroke-linejoin:round; stroke-width:4; stroke-opacity:1; fill:none" points="247.59,668.357 451.975,608.055 656.36,547.753 860.745,487.45 1065.13,427.148 1269.51,366.846 1473.9,306.544 1678.29,246.241 1882.67,185.939 2087.06,125.637 2291.44,65.3348 "/>
<path clip-path="url(#clip430)" d="M258.49 172.231 L945.738 172.231 L945.738 68.5509 L258.49 68.5509  Z" fill="#ffffff" fill-rule="evenodd" fill-opacity="1"/>
<polyline clip-path="url(#clip430)" style="stroke:#000000; stroke-linecap:round; stroke-linejoin:round; stroke-width:4; stroke-opacity:1; fill:none" points="258.49,172.231 945.738,172.231 945.738,68.5509 258.49,68.5509 258.49,172.231 "/>
<circle clip-path="url(#clip430)" cx="354.778" cy="120.391" r="23.04" fill="#009af9" fill-rule="evenodd" fill-opacity="1" stroke="#000000" stroke-opacity="1" stroke-width="5.12"/>
<path clip-path="url(#clip430)" d="M452.64 103.111 L457.663 103.111 L466.251 115.958 L474.886 103.111 L479.909 103.111 L468.798 119.708 L480.649 137.671 L475.626 137.671 L465.904 122.972 L456.113 137.671 L451.066 137.671 L463.404 119.222 L452.64 103.111 Z" fill="#000000" fill-rule="nonzero" fill-opacity="1" /><path clip-path="url(#clip430)" d="M510.348 132.74 L510.348 123.458 L502.709 123.458 L502.709 119.615 L514.978 119.615 L514.978 134.453 Q512.27 136.375 509.006 137.37 Q505.742 138.342 502.038 138.342 Q493.936 138.342 489.353 133.62 Q484.793 128.875 484.793 120.426 Q484.793 111.953 489.353 107.231 Q493.936 102.486 502.038 102.486 Q505.418 102.486 508.45 103.319 Q511.506 104.153 514.075 105.773 L514.075 110.75 Q511.483 108.551 508.566 107.44 Q505.649 106.328 502.432 106.328 Q496.089 106.328 492.895 109.87 Q489.723 113.412 489.723 120.426 Q489.723 127.416 492.895 130.958 Q496.089 134.5 502.432 134.5 Q504.909 134.5 506.853 134.083 Q508.797 133.643 510.348 132.74 Z" fill="#000000" fill-rule="nonzero" fill-opacity="1" /><path clip-path="url(#clip430)" d="M528.195 121.166 L528.195 133.828 L535.695 133.828 Q539.469 133.828 541.274 132.277 Q543.103 130.703 543.103 127.486 Q543.103 124.245 541.274 122.717 Q539.469 121.166 535.695 121.166 L528.195 121.166 M528.195 106.953 L528.195 117.37 L535.117 117.37 Q538.543 117.37 540.209 116.097 Q541.899 114.801 541.899 112.162 Q541.899 109.546 540.209 108.25 Q538.543 106.953 535.117 106.953 L528.195 106.953 M523.52 103.111 L535.464 103.111 Q540.811 103.111 543.705 105.333 Q546.598 107.555 546.598 111.653 Q546.598 114.824 545.117 116.699 Q543.635 118.574 540.765 119.037 Q544.214 119.777 546.112 122.139 Q548.033 124.477 548.033 127.995 Q548.033 132.625 544.885 135.148 Q541.737 137.671 535.927 137.671 L523.52 137.671 L523.52 103.111 Z" fill="#000000" fill-rule="nonzero" fill-opacity="1" /><path clip-path="url(#clip430)" d="M565.904 114.731 Q562.478 114.731 560.487 117.416 Q558.496 120.078 558.496 124.731 Q558.496 129.384 560.464 132.069 Q562.455 134.731 565.904 134.731 Q569.306 134.731 571.297 132.046 Q573.288 129.361 573.288 124.731 Q573.288 120.125 571.297 117.44 Q569.306 114.731 565.904 114.731 M565.904 111.12 Q571.459 111.12 574.63 114.731 Q577.802 118.342 577.802 124.731 Q577.802 131.097 574.63 134.731 Q571.459 138.342 565.904 138.342 Q560.325 138.342 557.154 134.731 Q554.005 131.097 554.005 124.731 Q554.005 118.342 557.154 114.731 Q560.325 111.12 565.904 111.12 Z" fill="#000000" fill-rule="nonzero" fill-opacity="1" /><path clip-path="url(#clip430)" d="M594.908 114.731 Q591.482 114.731 589.491 117.416 Q587.501 120.078 587.501 124.731 Q587.501 129.384 589.468 132.069 Q591.459 134.731 594.908 134.731 Q598.311 134.731 600.302 132.046 Q602.292 129.361 602.292 124.731 Q602.292 120.125 600.302 117.44 Q598.311 114.731 594.908 114.731 M594.908 111.12 Q600.464 111.12 603.635 114.731 Q606.806 118.342 606.806 124.731 Q606.806 131.097 603.635 134.731 Q600.464 138.342 594.908 138.342 Q589.329 138.342 586.158 134.731 Q583.01 131.097 583.01 124.731 Q583.01 118.342 586.158 114.731 Q589.329 111.12 594.908 111.12 Z" fill="#000000" fill-rule="nonzero" fill-opacity="1" /><path clip-path="url(#clip430)" d="M630.394 112.509 L630.394 116.537 Q628.588 115.611 626.644 115.148 Q624.7 114.685 622.616 114.685 Q619.445 114.685 617.848 115.657 Q616.274 116.629 616.274 118.574 Q616.274 120.055 617.408 120.912 Q618.542 121.745 621.968 122.509 L623.426 122.833 Q627.963 123.805 629.862 125.588 Q631.783 127.347 631.783 130.518 Q631.783 134.129 628.913 136.236 Q626.065 138.342 621.065 138.342 Q618.982 138.342 616.713 137.926 Q614.468 137.532 611.968 136.722 L611.968 132.324 Q614.329 133.551 616.621 134.176 Q618.913 134.777 621.158 134.777 Q624.167 134.777 625.788 133.759 Q627.408 132.717 627.408 130.842 Q627.408 129.106 626.227 128.18 Q625.07 127.254 621.112 126.398 L619.63 126.051 Q615.672 125.217 613.913 123.504 Q612.153 121.768 612.153 118.759 Q612.153 115.102 614.746 113.111 Q617.338 111.12 622.107 111.12 Q624.468 111.12 626.551 111.467 Q628.635 111.815 630.394 112.509 Z" fill="#000000" fill-rule="nonzero" fill-opacity="1" /><path clip-path="url(#clip430)" d="M642.778 104.384 L642.778 111.745 L651.551 111.745 L651.551 115.055 L642.778 115.055 L642.778 129.129 Q642.778 132.301 643.635 133.203 Q644.514 134.106 647.176 134.106 L651.551 134.106 L651.551 137.671 L647.176 137.671 Q642.246 137.671 640.371 135.842 Q638.496 133.99 638.496 129.129 L638.496 115.055 L635.371 115.055 L635.371 111.745 L638.496 111.745 L638.496 104.384 L642.778 104.384 Z" fill="#000000" fill-rule="nonzero" fill-opacity="1" /><path clip-path="url(#clip430)" d="M698.287 105.773 L698.287 110.703 Q695.926 108.504 693.241 107.416 Q690.579 106.328 687.57 106.328 Q681.644 106.328 678.496 109.963 Q675.347 113.574 675.347 120.426 Q675.347 127.254 678.496 130.889 Q681.644 134.5 687.57 134.5 Q690.579 134.5 693.241 133.412 Q695.926 132.324 698.287 130.125 L698.287 135.009 Q695.833 136.676 693.079 137.509 Q690.347 138.342 687.292 138.342 Q679.445 138.342 674.931 133.551 Q670.417 128.736 670.417 120.426 Q670.417 112.092 674.931 107.301 Q679.445 102.486 687.292 102.486 Q690.394 102.486 693.125 103.319 Q695.88 104.129 698.287 105.773 Z" fill="#000000" fill-rule="nonzero" fill-opacity="1" /><path clip-path="url(#clip430)" d="M717.106 124.639 Q711.944 124.639 709.954 125.819 Q707.963 127 707.963 129.847 Q707.963 132.115 709.444 133.458 Q710.949 134.777 713.519 134.777 Q717.06 134.777 719.19 132.277 Q721.343 129.754 721.343 125.588 L721.343 124.639 L717.106 124.639 M725.602 122.879 L725.602 137.671 L721.343 137.671 L721.343 133.736 Q719.884 136.097 717.708 137.231 Q715.532 138.342 712.384 138.342 Q708.403 138.342 706.042 136.12 Q703.704 133.875 703.704 130.125 Q703.704 125.75 706.62 123.527 Q709.56 121.305 715.37 121.305 L721.343 121.305 L721.343 120.889 Q721.343 117.949 719.398 116.352 Q717.477 114.731 713.981 114.731 Q711.759 114.731 709.653 115.264 Q707.546 115.796 705.602 116.861 L705.602 112.926 Q707.94 112.023 710.139 111.583 Q712.338 111.12 714.421 111.12 Q720.046 111.12 722.824 114.037 Q725.602 116.953 725.602 122.879 Z" fill="#000000" fill-rule="nonzero" fill-opacity="1" /><path clip-path="url(#clip430)" d="M734.375 101.653 L738.634 101.653 L738.634 137.671 L734.375 137.671 L734.375 101.653 Z" fill="#000000" fill-rule="nonzero" fill-opacity="1" /><path clip-path="url(#clip430)" d="M747.546 111.745 L751.805 111.745 L751.805 137.671 L747.546 137.671 L747.546 111.745 M747.546 101.653 L751.805 101.653 L751.805 107.046 L747.546 107.046 L747.546 101.653 Z" fill="#000000" fill-rule="nonzero" fill-opacity="1" /><path clip-path="url(#clip430)" d="M779.328 124.731 Q779.328 120.032 777.384 117.37 Q775.463 114.685 772.083 114.685 Q768.703 114.685 766.759 117.37 Q764.838 120.032 764.838 124.731 Q764.838 129.43 766.759 132.115 Q768.703 134.777 772.083 134.777 Q775.463 134.777 777.384 132.115 Q779.328 129.43 779.328 124.731 M764.838 115.68 Q766.18 113.365 768.217 112.254 Q770.277 111.12 773.125 111.12 Q777.847 111.12 780.787 114.87 Q783.75 118.62 783.75 124.731 Q783.75 130.842 780.787 134.592 Q777.847 138.342 773.125 138.342 Q770.277 138.342 768.217 137.231 Q766.18 136.097 764.838 133.782 L764.838 137.671 L760.555 137.671 L760.555 101.653 L764.838 101.653 L764.838 115.68 Z" fill="#000000" fill-rule="nonzero" fill-opacity="1" /><path clip-path="url(#clip430)" d="M805.833 115.727 Q805.115 115.31 804.259 115.125 Q803.425 114.916 802.407 114.916 Q798.796 114.916 796.851 117.277 Q794.93 119.615 794.93 124.014 L794.93 137.671 L790.648 137.671 L790.648 111.745 L794.93 111.745 L794.93 115.773 Q796.273 113.412 798.425 112.278 Q800.578 111.12 803.657 111.12 Q804.097 111.12 804.629 111.19 Q805.162 111.236 805.81 111.352 L805.833 115.727 Z" fill="#000000" fill-rule="nonzero" fill-opacity="1" /><path clip-path="url(#clip430)" d="M822.083 124.639 Q816.921 124.639 814.93 125.819 Q812.939 127 812.939 129.847 Q812.939 132.115 814.421 133.458 Q815.925 134.777 818.495 134.777 Q822.036 134.777 824.166 132.277 Q826.319 129.754 826.319 125.588 L826.319 124.639 L822.083 124.639 M830.578 122.879 L830.578 137.671 L826.319 137.671 L826.319 133.736 Q824.861 136.097 822.685 137.231 Q820.509 138.342 817.361 138.342 Q813.379 138.342 811.018 136.12 Q808.68 133.875 808.68 130.125 Q808.68 125.75 811.597 123.527 Q814.537 121.305 820.347 121.305 L826.319 121.305 L826.319 120.889 Q826.319 117.949 824.374 116.352 Q822.453 114.731 818.958 114.731 Q816.736 114.731 814.629 115.264 Q812.523 115.796 810.578 116.861 L810.578 112.926 Q812.916 112.023 815.115 111.583 Q817.314 111.12 819.398 111.12 Q825.023 111.12 827.8 114.037 Q830.578 116.953 830.578 122.879 Z" fill="#000000" fill-rule="nonzero" fill-opacity="1" /><path clip-path="url(#clip430)" d="M843.564 104.384 L843.564 111.745 L852.337 111.745 L852.337 115.055 L843.564 115.055 L843.564 129.129 Q843.564 132.301 844.421 133.203 Q845.3 134.106 847.962 134.106 L852.337 134.106 L852.337 137.671 L847.962 137.671 Q843.032 137.671 841.157 135.842 Q839.282 133.99 839.282 129.129 L839.282 115.055 L836.157 115.055 L836.157 111.745 L839.282 111.745 L839.282 104.384 L843.564 104.384 Z" fill="#000000" fill-rule="nonzero" fill-opacity="1" /><path clip-path="url(#clip430)" d="M857.939 111.745 L862.198 111.745 L862.198 137.671 L857.939 137.671 L857.939 111.745 M857.939 101.653 L862.198 101.653 L862.198 107.046 L857.939 107.046 L857.939 101.653 Z" fill="#000000" fill-rule="nonzero" fill-opacity="1" /><path clip-path="url(#clip430)" d="M881.157 114.731 Q877.731 114.731 875.74 117.416 Q873.749 120.078 873.749 124.731 Q873.749 129.384 875.717 132.069 Q877.707 134.731 881.157 134.731 Q884.559 134.731 886.55 132.046 Q888.541 129.361 888.541 124.731 Q888.541 120.125 886.55 117.44 Q884.559 114.731 881.157 114.731 M881.157 111.12 Q886.712 111.12 889.883 114.731 Q893.055 118.342 893.055 124.731 Q893.055 131.097 889.883 134.731 Q886.712 138.342 881.157 138.342 Q875.578 138.342 872.407 134.731 Q869.258 131.097 869.258 124.731 Q869.258 118.342 872.407 114.731 Q875.578 111.12 881.157 111.12 Z" fill="#000000" fill-rule="nonzero" fill-opacity="1" /><path clip-path="url(#clip430)" d="M921.666 122.023 L921.666 137.671 L917.406 137.671 L917.406 122.162 Q917.406 118.481 915.971 116.652 Q914.536 114.824 911.666 114.824 Q908.217 114.824 906.226 117.023 Q904.235 119.222 904.235 123.018 L904.235 137.671 L899.953 137.671 L899.953 111.745 L904.235 111.745 L904.235 115.773 Q905.763 113.435 907.823 112.278 Q909.906 111.12 912.615 111.12 Q917.082 111.12 919.374 113.898 Q921.666 116.652 921.666 122.023 Z" fill="#000000" fill-rule="nonzero" fill-opacity="1" /><path clip-path="url(#clip430)" d="M186.274 1486.45 L2352.76 1486.45 L2352.76 847.244 L186.274 847.244  Z" fill="#ffffff" fill-rule="evenodd" fill-opacity="1"/>
<defs>
  <clipPath id="clip433">
    <rect x="186" y="847" width="2167" height="640"/>
  </clipPath>
</defs>
<polyline clip-path="url(#clip433)" style="stroke:#000000; stroke-linecap:round; stroke-linejoin:round; stroke-width:2; stroke-opacity:0.1; fill:none" points="305.434,1486.45 305.434,847.244 "/>
<polyline clip-path="url(#clip433)" style="stroke:#000000; stroke-linecap:round; stroke-linejoin:round; stroke-width:2; stroke-opacity:0.1; fill:none" points="787.475,1486.45 787.475,847.244 "/>
<polyline clip-path="url(#clip433)" style="stroke:#000000; stroke-linecap:round; stroke-linejoin:round; stroke-width:2; stroke-opacity:0.1; fill:none" points="1269.51,1486.45 1269.51,847.244 "/>
<polyline clip-path="url(#clip433)" style="stroke:#000000; stroke-linecap:round; stroke-linejoin:round; stroke-width:2; stroke-opacity:0.1; fill:none" points="1751.56,1486.45 1751.56,847.244 "/>
<polyline clip-path="url(#clip433)" style="stroke:#000000; stroke-linecap:round; stroke-linejoin:round; stroke-width:2; stroke-opacity:0.1; fill:none" points="2233.6,1486.45 2233.6,847.244 "/>
<polyline clip-path="url(#clip430)" style="stroke:#000000; stroke-linecap:round; stroke-linejoin:round; stroke-width:4; stroke-opacity:1; fill:none" points="186.274,1486.45 2352.76,1486.45 "/>
<polyline clip-path="url(#clip430)" style="stroke:#000000; stroke-linecap:round; stroke-linejoin:round; stroke-width:4; stroke-opacity:1; fill:none" points="305.434,1486.45 305.434,1467.55 "/>
<polyline clip-path="url(#clip430)" style="stroke:#000000; stroke-linecap:round; stroke-linejoin:round; stroke-width:4; stroke-opacity:1; fill:none" points="787.475,1486.45 787.475,1467.55 "/>
<polyline clip-path="url(#clip430)" style="stroke:#000000; stroke-linecap:round; stroke-linejoin:round; stroke-width:4; stroke-opacity:1; fill:none" points="1269.51,1486.45 1269.51,1467.55 "/>
<polyline clip-path="url(#clip430)" style="stroke:#000000; stroke-linecap:round; stroke-linejoin:round; stroke-width:4; stroke-opacity:1; fill:none" points="1751.56,1486.45 1751.56,1467.55 "/>
<polyline clip-path="url(#clip430)" style="stroke:#000000; stroke-linecap:round; stroke-linejoin:round; stroke-width:4; stroke-opacity:1; fill:none" points="2233.6,1486.45 2233.6,1467.55 "/>
<path clip-path="url(#clip430)" d="M267.738 1517.37 Q264.127 1517.37 262.298 1520.93 Q260.492 1524.47 260.492 1531.6 Q260.492 1538.71 262.298 1542.27 Q264.127 1545.82 267.738 1545.82 Q271.372 1545.82 273.178 1542.27 Q275.006 1538.71 275.006 1531.6 Q275.006 1524.47 273.178 1520.93 Q271.372 1517.37 267.738 1517.37 M267.738 1513.66 Q273.548 1513.66 276.603 1518.27 Q279.682 1522.85 279.682 1531.6 Q279.682 1540.33 276.603 1544.94 Q273.548 1549.52 267.738 1549.52 Q261.928 1549.52 258.849 1544.94 Q255.793 1540.33 255.793 1531.6 Q255.793 1522.85 258.849 1518.27 Q261.928 1513.66 267.738 1513.66 Z" fill="#000000" fill-rule="nonzero" fill-opacity="1" /><path clip-path="url(#clip430)" d="M287.9 1542.97 L292.784 1542.97 L292.784 1548.85 L287.9 1548.85 L287.9 1542.97 Z" fill="#000000" fill-rule="nonzero" fill-opacity="1" /><path clip-path="url(#clip430)" d="M312.969 1517.37 Q309.358 1517.37 307.529 1520.93 Q305.724 1524.47 305.724 1531.6 Q305.724 1538.71 307.529 1542.27 Q309.358 1545.82 312.969 1545.82 Q316.603 1545.82 318.409 1542.27 Q320.238 1538.71 320.238 1531.6 Q320.238 1524.47 318.409 1520.93 Q316.603 1517.37 312.969 1517.37 M312.969 1513.66 Q318.779 1513.66 321.835 1518.27 Q324.913 1522.85 324.913 1531.6 Q324.913 1540.33 321.835 1544.94 Q318.779 1549.52 312.969 1549.52 Q307.159 1549.52 304.08 1544.94 Q301.025 1540.33 301.025 1531.6 Q301.025 1522.85 304.08 1518.27 Q307.159 1513.66 312.969 1513.66 Z" fill="#000000" fill-rule="nonzero" fill-opacity="1" /><path clip-path="url(#clip430)" d="M343.131 1517.37 Q339.52 1517.37 337.691 1520.93 Q335.886 1524.47 335.886 1531.6 Q335.886 1538.71 337.691 1542.27 Q339.52 1545.82 343.131 1545.82 Q346.765 1545.82 348.571 1542.27 Q350.399 1538.71 350.399 1531.6 Q350.399 1524.47 348.571 1520.93 Q346.765 1517.37 343.131 1517.37 M343.131 1513.66 Q348.941 1513.66 351.997 1518.27 Q355.075 1522.85 355.075 1531.6 Q355.075 1540.33 351.997 1544.94 Q348.941 1549.52 343.131 1549.52 Q337.321 1549.52 334.242 1544.94 Q331.187 1540.33 331.187 1531.6 Q331.187 1522.85 334.242 1518.27 Q337.321 1513.66 343.131 1513.66 Z" fill="#000000" fill-rule="nonzero" fill-opacity="1" /><path clip-path="url(#clip430)" d="M750.276 1517.37 Q746.665 1517.37 744.836 1520.93 Q743.03 1524.47 743.03 1531.6 Q743.03 1538.71 744.836 1542.27 Q746.665 1545.82 750.276 1545.82 Q753.91 1545.82 755.716 1542.27 Q757.544 1538.71 757.544 1531.6 Q757.544 1524.47 755.716 1520.93 Q753.91 1517.37 750.276 1517.37 M750.276 1513.66 Q756.086 1513.66 759.141 1518.27 Q762.22 1522.85 762.22 1531.6 Q762.22 1540.33 759.141 1544.94 Q756.086 1549.52 750.276 1549.52 Q744.466 1549.52 741.387 1544.94 Q738.331 1540.33 738.331 1531.6 Q738.331 1522.85 741.387 1518.27 Q744.466 1513.66 750.276 1513.66 Z" fill="#000000" fill-rule="nonzero" fill-opacity="1" /><path clip-path="url(#clip430)" d="M770.438 1542.97 L775.322 1542.97 L775.322 1548.85 L770.438 1548.85 L770.438 1542.97 Z" fill="#000000" fill-rule="nonzero" fill-opacity="1" /><path clip-path="url(#clip430)" d="M789.535 1544.91 L805.854 1544.91 L805.854 1548.85 L783.91 1548.85 L783.91 1544.91 Q786.572 1542.16 791.155 1537.53 Q795.762 1532.88 796.942 1531.53 Q799.188 1529.01 800.067 1527.27 Q800.97 1525.51 800.97 1523.82 Q800.97 1521.07 799.026 1519.33 Q797.104 1517.6 794.002 1517.6 Q791.803 1517.6 789.35 1518.36 Q786.919 1519.13 784.141 1520.68 L784.141 1515.95 Q786.965 1514.82 789.419 1514.24 Q791.873 1513.66 793.91 1513.66 Q799.28 1513.66 802.475 1516.35 Q805.669 1519.03 805.669 1523.52 Q805.669 1525.65 804.859 1527.57 Q804.072 1529.47 801.965 1532.07 Q801.387 1532.74 798.285 1535.95 Q795.183 1539.15 789.535 1544.91 Z" fill="#000000" fill-rule="nonzero" fill-opacity="1" /><path clip-path="url(#clip430)" d="M815.715 1514.29 L834.072 1514.29 L834.072 1518.22 L819.998 1518.22 L819.998 1526.7 Q821.016 1526.35 822.035 1526.19 Q823.053 1526 824.072 1526 Q829.859 1526 833.238 1529.17 Q836.618 1532.34 836.618 1537.76 Q836.618 1543.34 833.146 1546.44 Q829.674 1549.52 823.354 1549.52 Q821.178 1549.52 818.91 1549.15 Q816.664 1548.78 814.257 1548.04 L814.257 1543.34 Q816.34 1544.47 818.562 1545.03 Q820.785 1545.58 823.262 1545.58 Q827.266 1545.58 829.604 1543.48 Q831.942 1541.37 831.942 1537.76 Q831.942 1534.15 829.604 1532.04 Q827.266 1529.94 823.262 1529.94 Q821.387 1529.94 819.512 1530.35 Q817.66 1530.77 815.715 1531.65 L815.715 1514.29 Z" fill="#000000" fill-rule="nonzero" fill-opacity="1" /><path clip-path="url(#clip430)" d="M1231.82 1517.37 Q1228.21 1517.37 1226.38 1520.93 Q1224.57 1524.47 1224.57 1531.6 Q1224.57 1538.71 1226.38 1542.27 Q1228.21 1545.82 1231.82 1545.82 Q1235.45 1545.82 1237.26 1542.27 Q1239.09 1538.71 1239.09 1531.6 Q1239.09 1524.47 1237.26 1520.93 Q1235.45 1517.37 1231.82 1517.37 M1231.82 1513.66 Q1237.63 1513.66 1240.68 1518.27 Q1243.76 1522.85 1243.76 1531.6 Q1243.76 1540.33 1240.68 1544.94 Q1237.63 1549.52 1231.82 1549.52 Q1226.01 1549.52 1222.93 1544.94 Q1219.87 1540.33 1219.87 1531.6 Q1219.87 1522.85 1222.93 1518.27 Q1226.01 1513.66 1231.82 1513.66 Z" fill="#000000" fill-rule="nonzero" fill-opacity="1" /><path clip-path="url(#clip430)" d="M1251.98 1542.97 L1256.86 1542.97 L1256.86 1548.85 L1251.98 1548.85 L1251.98 1542.97 Z" fill="#000000" fill-rule="nonzero" fill-opacity="1" /><path clip-path="url(#clip430)" d="M1267.1 1514.29 L1285.45 1514.29 L1285.45 1518.22 L1271.38 1518.22 L1271.38 1526.7 Q1272.4 1526.35 1273.42 1526.19 Q1274.43 1526 1275.45 1526 Q1281.24 1526 1284.62 1529.17 Q1288 1532.34 1288 1537.76 Q1288 1543.34 1284.53 1546.44 Q1281.05 1549.52 1274.73 1549.52 Q1272.56 1549.52 1270.29 1549.15 Q1268.05 1548.78 1265.64 1548.04 L1265.64 1543.34 Q1267.72 1544.47 1269.94 1545.03 Q1272.17 1545.58 1274.64 1545.58 Q1278.65 1545.58 1280.98 1543.48 Q1283.32 1541.37 1283.32 1537.76 Q1283.32 1534.15 1280.98 1532.04 Q1278.65 1529.94 1274.64 1529.94 Q1272.77 1529.94 1270.89 1530.35 Q1269.04 1530.77 1267.1 1531.65 L1267.1 1514.29 Z" fill="#000000" fill-rule="nonzero" fill-opacity="1" /><path clip-path="url(#clip430)" d="M1307.21 1517.37 Q1303.6 1517.37 1301.77 1520.93 Q1299.97 1524.47 1299.97 1531.6 Q1299.97 1538.71 1301.77 1542.27 Q1303.6 1545.82 1307.21 1545.82 Q1310.85 1545.82 1312.65 1542.27 Q1314.48 1538.71 1314.48 1531.6 Q1314.48 1524.47 1312.65 1520.93 Q1310.85 1517.37 1307.21 1517.37 M1307.21 1513.66 Q1313.02 1513.66 1316.08 1518.27 Q1319.16 1522.85 1319.16 1531.6 Q1319.16 1540.33 1316.08 1544.94 Q1313.02 1549.52 1307.21 1549.52 Q1301.4 1549.52 1298.32 1544.94 Q1295.27 1540.33 1295.27 1531.6 Q1295.27 1522.85 1298.32 1518.27 Q1301.4 1513.66 1307.21 1513.66 Z" fill="#000000" fill-rule="nonzero" fill-opacity="1" /><path clip-path="url(#clip430)" d="M1714.36 1517.37 Q1710.75 1517.37 1708.92 1520.93 Q1707.11 1524.47 1707.11 1531.6 Q1707.11 1538.71 1708.92 1542.27 Q1710.75 1545.82 1714.36 1545.82 Q1717.99 1545.82 1719.8 1542.27 Q1721.62 1538.71 1721.62 1531.6 Q1721.62 1524.47 1719.8 1520.93 Q1717.99 1517.37 1714.36 1517.37 M1714.36 1513.66 Q1720.17 1513.66 1723.22 1518.27 Q1726.3 1522.85 1726.3 1531.6 Q1726.3 1540.33 1723.22 1544.94 Q1720.17 1549.52 1714.36 1549.52 Q1708.55 1549.52 1705.47 1544.94 Q1702.41 1540.33 1702.41 1531.6 Q1702.41 1522.85 1705.47 1518.27 Q1708.55 1513.66 1714.36 1513.66 Z" fill="#000000" fill-rule="nonzero" fill-opacity="1" /><path clip-path="url(#clip430)" d="M1734.52 1542.97 L1739.4 1542.97 L1739.4 1548.85 L1734.52 1548.85 L1734.52 1542.97 Z" fill="#000000" fill-rule="nonzero" fill-opacity="1" /><path clip-path="url(#clip430)" d="M1748.41 1514.29 L1770.63 1514.29 L1770.63 1516.28 L1758.08 1548.85 L1753.2 1548.85 L1765 1518.22 L1748.41 1518.22 L1748.41 1514.29 Z" fill="#000000" fill-rule="nonzero" fill-opacity="1" /><path clip-path="url(#clip430)" d="M1779.8 1514.29 L1798.15 1514.29 L1798.15 1518.22 L1784.08 1518.22 L1784.08 1526.7 Q1785.1 1526.35 1786.12 1526.19 Q1787.13 1526 1788.15 1526 Q1793.94 1526 1797.32 1529.17 Q1800.7 1532.34 1800.7 1537.76 Q1800.7 1543.34 1797.23 1546.44 Q1793.75 1549.52 1787.43 1549.52 Q1785.26 1549.52 1782.99 1549.15 Q1780.74 1548.78 1778.34 1548.04 L1778.34 1543.34 Q1780.42 1544.47 1782.64 1545.03 Q1784.87 1545.58 1787.34 1545.58 Q1791.35 1545.58 1793.68 1543.48 Q1796.02 1541.37 1796.02 1537.76 Q1796.02 1534.15 1793.68 1532.04 Q1791.35 1529.94 1787.34 1529.94 Q1785.47 1529.94 1783.59 1530.35 Q1781.74 1530.77 1779.8 1531.65 L1779.8 1514.29 Z" fill="#000000" fill-rule="nonzero" fill-opacity="1" /><path clip-path="url(#clip430)" d="M2185.67 1544.91 L2193.31 1544.91 L2193.31 1518.55 L2185 1520.21 L2185 1515.95 L2193.26 1514.29 L2197.94 1514.29 L2197.94 1544.91 L2205.57 1544.91 L2205.57 1548.85 L2185.67 1548.85 L2185.67 1544.91 Z" fill="#000000" fill-rule="nonzero" fill-opacity="1" /><path clip-path="url(#clip430)" d="M2215.02 1542.97 L2219.9 1542.97 L2219.9 1548.85 L2215.02 1548.85 L2215.02 1542.97 Z" fill="#000000" fill-rule="nonzero" fill-opacity="1" /><path clip-path="url(#clip430)" d="M2240.09 1517.37 Q2236.48 1517.37 2234.65 1520.93 Q2232.84 1524.47 2232.84 1531.6 Q2232.84 1538.71 2234.65 1542.27 Q2236.48 1545.82 2240.09 1545.82 Q2243.72 1545.82 2245.53 1542.27 Q2247.36 1538.71 2247.36 1531.6 Q2247.36 1524.47 2245.53 1520.93 Q2243.72 1517.37 2240.09 1517.37 M2240.09 1513.66 Q2245.9 1513.66 2248.95 1518.27 Q2252.03 1522.85 2252.03 1531.6 Q2252.03 1540.33 2248.95 1544.94 Q2245.9 1549.52 2240.09 1549.52 Q2234.28 1549.52 2231.2 1544.94 Q2228.14 1540.33 2228.14 1531.6 Q2228.14 1522.85 2231.2 1518.27 Q2234.28 1513.66 2240.09 1513.66 Z" fill="#000000" fill-rule="nonzero" fill-opacity="1" /><path clip-path="url(#clip430)" d="M2270.25 1517.37 Q2266.64 1517.37 2264.81 1520.93 Q2263.01 1524.47 2263.01 1531.6 Q2263.01 1538.71 2264.81 1542.27 Q2266.64 1545.82 2270.25 1545.82 Q2273.88 1545.82 2275.69 1542.27 Q2277.52 1538.71 2277.52 1531.6 Q2277.52 1524.47 2275.69 1520.93 Q2273.88 1517.37 2270.25 1517.37 M2270.25 1513.66 Q2276.06 1513.66 2279.12 1518.27 Q2282.19 1522.85 2282.19 1531.6 Q2282.19 1540.33 2279.12 1544.94 Q2276.06 1549.52 2270.25 1549.52 Q2264.44 1549.52 2261.36 1544.94 Q2258.31 1540.33 2258.31 1531.6 Q2258.31 1522.85 2261.36 1518.27 Q2264.44 1513.66 2270.25 1513.66 Z" fill="#000000" fill-rule="nonzero" fill-opacity="1" /><polyline clip-path="url(#clip433)" style="stroke:#000000; stroke-linecap:round; stroke-linejoin:round; stroke-width:2; stroke-opacity:0.1; fill:none" points="186.274,1468.36 2352.76,1468.36 "/>
<polyline clip-path="url(#clip433)" style="stroke:#000000; stroke-linecap:round; stroke-linejoin:round; stroke-width:2; stroke-opacity:0.1; fill:none" points="186.274,1312.19 2352.76,1312.19 "/>
<polyline clip-path="url(#clip433)" style="stroke:#000000; stroke-linecap:round; stroke-linejoin:round; stroke-width:2; stroke-opacity:0.1; fill:none" points="186.274,1156.02 2352.76,1156.02 "/>
<polyline clip-path="url(#clip433)" style="stroke:#000000; stroke-linecap:round; stroke-linejoin:round; stroke-width:2; stroke-opacity:0.1; fill:none" points="186.274,999.846 2352.76,999.846 "/>
<polyline clip-path="url(#clip430)" style="stroke:#000000; stroke-linecap:round; stroke-linejoin:round; stroke-width:4; stroke-opacity:1; fill:none" points="186.274,1486.45 186.274,847.244 "/>
<polyline clip-path="url(#clip430)" style="stroke:#000000; stroke-linecap:round; stroke-linejoin:round; stroke-width:4; stroke-opacity:1; fill:none" points="186.274,1468.36 205.172,1468.36 "/>
<polyline clip-path="url(#clip430)" style="stroke:#000000; stroke-linecap:round; stroke-linejoin:round; stroke-width:4; stroke-opacity:1; fill:none" points="186.274,1312.19 205.172,1312.19 "/>
<polyline clip-path="url(#clip430)" style="stroke:#000000; stroke-linecap:round; stroke-linejoin:round; stroke-width:4; stroke-opacity:1; fill:none" points="186.274,1156.02 205.172,1156.02 "/>
<polyline clip-path="url(#clip430)" style="stroke:#000000; stroke-linecap:round; stroke-linejoin:round; stroke-width:4; stroke-opacity:1; fill:none" points="186.274,999.846 205.172,999.846 "/>
<path clip-path="url(#clip430)" d="M138.33 1454.16 Q134.719 1454.16 132.89 1457.72 Q131.084 1461.26 131.084 1468.39 Q131.084 1475.5 132.89 1479.06 Q134.719 1482.6 138.33 1482.6 Q141.964 1482.6 143.769 1479.06 Q145.598 1475.5 145.598 1468.39 Q145.598 1461.26 143.769 1457.72 Q141.964 1454.16 138.33 1454.16 M138.33 1450.45 Q144.14 1450.45 147.195 1455.06 Q150.274 1459.64 150.274 1468.39 Q150.274 1477.12 147.195 1481.73 Q144.14 1486.31 138.33 1486.31 Q132.519 1486.31 129.441 1481.73 Q126.385 1477.12 126.385 1468.39 Q126.385 1459.64 129.441 1455.06 Q132.519 1450.45 138.33 1450.45 Z" fill="#000000" fill-rule="nonzero" fill-opacity="1" /><path clip-path="url(#clip430)" d="M130.367 1325.53 L138.006 1325.53 L138.006 1299.17 L129.695 1300.83 L129.695 1296.57 L137.959 1294.91 L142.635 1294.91 L142.635 1325.53 L150.274 1325.53 L150.274 1329.47 L130.367 1329.47 L130.367 1325.53 Z" fill="#000000" fill-rule="nonzero" fill-opacity="1" /><path clip-path="url(#clip430)" d="M133.955 1169.36 L150.274 1169.36 L150.274 1173.3 L128.33 1173.3 L128.33 1169.36 Q130.992 1166.61 135.575 1161.98 Q140.181 1157.32 141.362 1155.98 Q143.607 1153.46 144.487 1151.72 Q145.39 1149.96 145.39 1148.27 Q145.39 1145.52 143.445 1143.78 Q141.524 1142.05 138.422 1142.05 Q136.223 1142.05 133.769 1142.81 Q131.339 1143.57 128.561 1145.13 L128.561 1140.4 Q131.385 1139.27 133.839 1138.69 Q136.293 1138.11 138.33 1138.11 Q143.7 1138.11 146.894 1140.8 Q150.089 1143.48 150.089 1147.97 Q150.089 1150.1 149.279 1152.02 Q148.492 1153.92 146.385 1156.51 Q145.806 1157.19 142.705 1160.4 Q139.603 1163.6 133.955 1169.36 Z" fill="#000000" fill-rule="nonzero" fill-opacity="1" /><path clip-path="url(#clip430)" d="M143.144 998.492 Q146.501 999.21 148.376 1001.48 Q150.274 1003.75 150.274 1007.08 Q150.274 1012.2 146.756 1015 Q143.237 1017.8 136.756 1017.8 Q134.58 1017.8 132.265 1017.36 Q129.973 1016.94 127.519 1016.08 L127.519 1011.57 Q129.464 1012.7 131.779 1013.28 Q134.094 1013.86 136.617 1013.86 Q141.015 1013.86 143.306 1012.13 Q145.621 1010.39 145.621 1007.08 Q145.621 1004.02 143.468 1002.31 Q141.339 1000.58 137.519 1000.58 L133.492 1000.58 L133.492 996.733 L137.705 996.733 Q141.154 996.733 142.982 995.367 Q144.811 993.978 144.811 991.386 Q144.811 988.723 142.913 987.311 Q141.038 985.876 137.519 985.876 Q135.598 985.876 133.399 986.293 Q131.2 986.71 128.561 987.589 L128.561 983.423 Q131.223 982.682 133.538 982.311 Q135.876 981.941 137.936 981.941 Q143.26 981.941 146.362 984.372 Q149.464 986.779 149.464 990.899 Q149.464 993.77 147.82 995.76 Q146.177 997.728 143.144 998.492 Z" fill="#000000" fill-rule="nonzero" fill-opacity="1" /><path clip-path="url(#clip433)" d="M305.434 865.335 L305.434 1468.36 L498.25 1468.36 L498.25 865.335 L305.434 865.335 L305.434 865.335  Z" fill="#009af9" fill-rule="evenodd" fill-opacity="1"/>
<polyline clip-path="url(#clip433)" style="stroke:#000000; stroke-linecap:round; stroke-linejoin:round; stroke-width:4; stroke-opacity:1; fill:none" points="305.434,865.335 305.434,1468.36 498.25,1468.36 498.25,865.335 305.434,865.335 "/>
<path clip-path="url(#clip433)" d="M498.25 1433.37 L498.25 1468.36 L691.067 1468.36 L691.067 1433.37 L498.25 1433.37 L498.25 1433.37  Z" fill="#009af9" fill-rule="evenodd" fill-opacity="1"/>
<polyline clip-path="url(#clip433)" style="stroke:#000000; stroke-linecap:round; stroke-linejoin:round; stroke-width:4; stroke-opacity:1; fill:none" points="498.25,1433.37 498.25,1468.36 691.067,1468.36 691.067,1433.37 498.25,1433.37 "/>
<path clip-path="url(#clip433)" d="M691.067 1450.1 L691.067 1468.36 L883.883 1468.36 L883.883 1450.1 L691.067 1450.1 L691.067 1450.1  Z" fill="#009af9" fill-rule="evenodd" fill-opacity="1"/>
<polyline clip-path="url(#clip433)" style="stroke:#000000; stroke-linecap:round; stroke-linejoin:round; stroke-width:4; stroke-opacity:1; fill:none" points="691.067,1450.1 691.067,1468.36 883.883,1468.36 883.883,1450.1 691.067,1450.1 "/>
<path clip-path="url(#clip433)" d="M883.883 1448.03 L883.883 1468.36 L1076.7 1468.36 L1076.7 1448.03 L883.883 1448.03 L883.883 1448.03  Z" fill="#009af9" fill-rule="evenodd" fill-opacity="1"/>
<polyline clip-path="url(#clip433)" style="stroke:#000000; stroke-linecap:round; stroke-linejoin:round; stroke-width:4; stroke-opacity:1; fill:none" points="883.883,1448.03 883.883,1468.36 1076.7,1468.36 1076.7,1448.03 883.883,1448.03 "/>
<path clip-path="url(#clip433)" d="M1076.7 1443.39 L1076.7 1468.36 L1269.51 1468.36 L1269.51 1443.39 L1076.7 1443.39 L1076.7 1443.39  Z" fill="#009af9" fill-rule="evenodd" fill-opacity="1"/>
<polyline clip-path="url(#clip433)" style="stroke:#000000; stroke-linecap:round; stroke-linejoin:round; stroke-width:4; stroke-opacity:1; fill:none" points="1076.7,1443.39 1076.7,1468.36 1269.51,1468.36 1269.51,1443.39 1076.7,1443.39 "/>
<path clip-path="url(#clip433)" d="M1269.51 1429.35 L1269.51 1468.36 L1462.33 1468.36 L1462.33 1429.35 L1269.51 1429.35 L1269.51 1429.35  Z" fill="#009af9" fill-rule="evenodd" fill-opacity="1"/>
<polyline clip-path="url(#clip433)" style="stroke:#000000; stroke-linecap:round; stroke-linejoin:round; stroke-width:4; stroke-opacity:1; fill:none" points="1269.51,1429.35 1269.51,1468.36 1462.33,1468.36 1462.33,1429.35 1269.51,1429.35 "/>
<path clip-path="url(#clip433)" d="M1462.33 1404.53 L1462.33 1468.36 L1655.15 1468.36 L1655.15 1404.53 L1462.33 1404.53 L1462.33 1404.53  Z" fill="#009af9" fill-rule="evenodd" fill-opacity="1"/>
<polyline clip-path="url(#clip433)" style="stroke:#000000; stroke-linecap:round; stroke-linejoin:round; stroke-width:4; stroke-opacity:1; fill:none" points="1462.33,1404.53 1462.33,1468.36 1655.15,1468.36 1655.15,1404.53 1462.33,1404.53 "/>
<path clip-path="url(#clip433)" d="M1655.15 1357.5 L1655.15 1468.36 L1847.96 1468.36 L1847.96 1357.5 L1655.15 1357.5 L1655.15 1357.5  Z" fill="#009af9" fill-rule="evenodd" fill-opacity="1"/>
<polyline clip-path="url(#clip433)" style="stroke:#000000; stroke-linecap:round; stroke-linejoin:round; stroke-width:4; stroke-opacity:1; fill:none" points="1655.15,1357.5 1655.15,1468.36 1847.96,1468.36 1847.96,1357.5 1655.15,1357.5 "/>
<path clip-path="url(#clip433)" d="M1847.96 1205.43 L1847.96 1468.36 L2040.78 1468.36 L2040.78 1205.43 L1847.96 1205.43 L1847.96 1205.43  Z" fill="#009af9" fill-rule="evenodd" fill-opacity="1"/>
<polyline clip-path="url(#clip433)" style="stroke:#000000; stroke-linecap:round; stroke-linejoin:round; stroke-width:4; stroke-opacity:1; fill:none" points="1847.96,1205.43 1847.96,1468.36 2040.78,1468.36 2040.78,1205.43 1847.96,1205.43 "/>
<path clip-path="url(#clip433)" d="M2040.78 1084.83 L2040.78 1468.36 L2233.6 1468.36 L2233.6 1084.83 L2040.78 1084.83 L2040.78 1084.83  Z" fill="#009af9" fill-rule="evenodd" fill-opacity="1"/>
<polyline clip-path="url(#clip433)" style="stroke:#000000; stroke-linecap:round; stroke-linejoin:round; stroke-width:4; stroke-opacity:1; fill:none" points="2040.78,1084.83 2040.78,1468.36 2233.6,1468.36 2233.6,1084.83 2040.78,1084.83 "/>
<circle clip-path="url(#clip433)" style="fill:#009af9; stroke:none; fill-opacity:0" cx="401.842" cy="865.335" r="2"/>
<circle clip-path="url(#clip433)" style="fill:#009af9; stroke:none; fill-opacity:0" cx="594.659" cy="1433.37" r="2"/>
<circle clip-path="url(#clip433)" style="fill:#009af9; stroke:none; fill-opacity:0" cx="787.475" cy="1450.1" r="2"/>
<circle clip-path="url(#clip433)" style="fill:#009af9; stroke:none; fill-opacity:0" cx="980.291" cy="1448.03" r="2"/>
<circle clip-path="url(#clip433)" style="fill:#009af9; stroke:none; fill-opacity:0" cx="1173.11" cy="1443.39" r="2"/>
<circle clip-path="url(#clip433)" style="fill:#009af9; stroke:none; fill-opacity:0" cx="1365.92" cy="1429.35" r="2"/>
<circle clip-path="url(#clip433)" style="fill:#009af9; stroke:none; fill-opacity:0" cx="1558.74" cy="1404.53" r="2"/>
<circle clip-path="url(#clip433)" style="fill:#009af9; stroke:none; fill-opacity:0" cx="1751.56" cy="1357.5" r="2"/>
<circle clip-path="url(#clip433)" style="fill:#009af9; stroke:none; fill-opacity:0" cx="1944.37" cy="1205.43" r="2"/>
<circle clip-path="url(#clip433)" style="fill:#009af9; stroke:none; fill-opacity:0" cx="2137.19" cy="1084.83" r="2"/>
<path clip-path="url(#clip430)" d="M1545.42 972.231 L2280.54 972.231 L2280.54 868.551 L1545.42 868.551  Z" fill="#ffffff" fill-rule="evenodd" fill-opacity="1"/>
<polyline clip-path="url(#clip430)" style="stroke:#000000; stroke-linecap:round; stroke-linejoin:round; stroke-width:4; stroke-opacity:1; fill:none" points="1545.42,972.231 2280.54,972.231 2280.54,868.551 1545.42,868.551 1545.42,972.231 "/>
<path clip-path="url(#clip430)" d="M1569.49 941.127 L1713.93 941.127 L1713.93 899.655 L1569.49 899.655 L1569.49 941.127  Z" fill="#009af9" fill-rule="evenodd" fill-opacity="1"/>
<polyline clip-path="url(#clip430)" style="stroke:#000000; stroke-linecap:round; stroke-linejoin:round; stroke-width:4; stroke-opacity:1; fill:none" points="1569.49,941.127 1713.93,941.127 1713.93,899.655 1569.49,899.655 1569.49,941.127 "/>
<path clip-path="url(#clip430)" d="M1742.67 906.953 L1742.67 919.94 L1748.55 919.94 Q1751.82 919.94 1753.6 918.25 Q1755.38 916.56 1755.38 913.435 Q1755.38 910.333 1753.6 908.643 Q1751.82 906.953 1748.55 906.953 L1742.67 906.953 M1738 903.111 L1748.55 903.111 Q1754.36 903.111 1757.33 905.75 Q1760.31 908.365 1760.31 913.435 Q1760.31 918.551 1757.33 921.166 Q1754.36 923.782 1748.55 923.782 L1742.67 923.782 L1742.67 937.671 L1738 937.671 L1738 903.111 Z" fill="#000000" fill-rule="nonzero" fill-opacity="1" /><path clip-path="url(#clip430)" d="M1780.59 915.727 Q1779.87 915.31 1779.02 915.125 Q1778.18 914.916 1777.16 914.916 Q1773.55 914.916 1771.61 917.277 Q1769.69 919.615 1769.69 924.014 L1769.69 937.671 L1765.41 937.671 L1765.41 911.745 L1769.69 911.745 L1769.69 915.773 Q1771.03 913.412 1773.18 912.278 Q1775.34 911.12 1778.41 911.12 Q1778.85 911.12 1779.39 911.19 Q1779.92 911.236 1780.57 911.352 L1780.59 915.727 Z" fill="#000000" fill-rule="nonzero" fill-opacity="1" /><path clip-path="url(#clip430)" d="M1806.19 923.643 L1806.19 925.727 L1786.61 925.727 Q1786.89 930.125 1789.25 932.439 Q1791.63 934.731 1795.87 934.731 Q1798.32 934.731 1800.61 934.129 Q1802.93 933.527 1805.2 932.324 L1805.2 936.351 Q1802.91 937.324 1800.5 937.833 Q1798.09 938.342 1795.61 938.342 Q1789.41 938.342 1785.78 934.731 Q1782.16 931.12 1782.16 924.963 Q1782.16 918.597 1785.59 914.87 Q1789.04 911.12 1794.87 911.12 Q1800.1 911.12 1803.14 914.5 Q1806.19 917.856 1806.19 923.643 M1801.93 922.393 Q1801.89 918.898 1799.97 916.815 Q1798.07 914.731 1794.92 914.731 Q1791.35 914.731 1789.2 916.745 Q1787.07 918.759 1786.75 922.416 L1801.93 922.393 Z" fill="#000000" fill-rule="nonzero" fill-opacity="1" /><path clip-path="url(#clip430)" d="M1830.24 915.68 L1830.24 901.653 L1834.5 901.653 L1834.5 937.671 L1830.24 937.671 L1830.24 933.782 Q1828.9 936.097 1826.84 937.231 Q1824.8 938.342 1821.93 938.342 Q1817.23 938.342 1814.27 934.592 Q1811.33 930.842 1811.33 924.731 Q1811.33 918.62 1814.27 914.87 Q1817.23 911.12 1821.93 911.12 Q1824.8 911.12 1826.84 912.254 Q1828.9 913.365 1830.24 915.68 M1815.73 924.731 Q1815.73 929.43 1817.65 932.115 Q1819.6 934.777 1822.97 934.777 Q1826.35 934.777 1828.3 932.115 Q1830.24 929.43 1830.24 924.731 Q1830.24 920.032 1828.3 917.37 Q1826.35 914.685 1822.97 914.685 Q1819.6 914.685 1817.65 917.37 Q1815.73 920.032 1815.73 924.731 Z" fill="#000000" fill-rule="nonzero" fill-opacity="1" /><path clip-path="url(#clip430)" d="M1843.28 911.745 L1847.53 911.745 L1847.53 937.671 L1843.28 937.671 L1843.28 911.745 M1843.28 901.653 L1847.53 901.653 L1847.53 907.046 L1843.28 907.046 L1843.28 901.653 Z" fill="#000000" fill-rule="nonzero" fill-opacity="1" /><path clip-path="url(#clip430)" d="M1875.1 912.74 L1875.1 916.722 Q1873.3 915.727 1871.47 915.24 Q1869.66 914.731 1867.81 914.731 Q1863.67 914.731 1861.38 917.37 Q1859.09 919.986 1859.09 924.731 Q1859.09 929.476 1861.38 932.115 Q1863.67 934.731 1867.81 934.731 Q1869.66 934.731 1871.47 934.245 Q1873.3 933.736 1875.1 932.74 L1875.1 936.676 Q1873.32 937.509 1871.4 937.926 Q1869.5 938.342 1867.35 938.342 Q1861.49 938.342 1858.04 934.662 Q1854.59 930.981 1854.59 924.731 Q1854.59 918.389 1858.07 914.754 Q1861.56 911.12 1867.63 911.12 Q1869.59 911.12 1871.47 911.537 Q1873.34 911.93 1875.1 912.74 Z" fill="#000000" fill-rule="nonzero" fill-opacity="1" /><path clip-path="url(#clip430)" d="M1886.72 904.384 L1886.72 911.745 L1895.5 911.745 L1895.5 915.055 L1886.72 915.055 L1886.72 929.129 Q1886.72 932.301 1887.58 933.203 Q1888.46 934.106 1891.12 934.106 L1895.5 934.106 L1895.5 937.671 L1891.12 937.671 Q1886.19 937.671 1884.32 935.842 Q1882.44 933.99 1882.44 929.129 L1882.44 915.055 L1879.32 915.055 L1879.32 911.745 L1882.44 911.745 L1882.44 904.384 L1886.72 904.384 Z" fill="#000000" fill-rule="nonzero" fill-opacity="1" /><path clip-path="url(#clip430)" d="M1901.1 911.745 L1905.36 911.745 L1905.36 937.671 L1901.1 937.671 L1901.1 911.745 M1901.1 901.653 L1905.36 901.653 L1905.36 907.046 L1901.1 907.046 L1901.1 901.653 Z" fill="#000000" fill-rule="nonzero" fill-opacity="1" /><path clip-path="url(#clip430)" d="M1924.32 914.731 Q1920.89 914.731 1918.9 917.416 Q1916.91 920.078 1916.91 924.731 Q1916.91 929.384 1918.88 932.069 Q1920.87 934.731 1924.32 934.731 Q1927.72 934.731 1929.71 932.046 Q1931.7 929.361 1931.7 924.731 Q1931.7 920.125 1929.71 917.44 Q1927.72 914.731 1924.32 914.731 M1924.32 911.12 Q1929.87 911.12 1933.04 914.731 Q1936.21 918.342 1936.21 924.731 Q1936.21 931.097 1933.04 934.731 Q1929.87 938.342 1924.32 938.342 Q1918.74 938.342 1915.57 934.731 Q1912.42 931.097 1912.42 924.731 Q1912.42 918.342 1915.57 914.731 Q1918.74 911.12 1924.32 911.12 Z" fill="#000000" fill-rule="nonzero" fill-opacity="1" /><path clip-path="url(#clip430)" d="M1964.83 922.023 L1964.83 937.671 L1960.57 937.671 L1960.57 922.162 Q1960.57 918.481 1959.13 916.652 Q1957.7 914.824 1954.83 914.824 Q1951.38 914.824 1949.39 917.023 Q1947.4 919.222 1947.4 923.018 L1947.4 937.671 L1943.11 937.671 L1943.11 911.745 L1947.4 911.745 L1947.4 915.773 Q1948.92 913.435 1950.98 912.278 Q1953.07 911.12 1955.77 911.12 Q1960.24 911.12 1962.53 913.898 Q1964.83 916.652 1964.83 922.023 Z" fill="#000000" fill-rule="nonzero" fill-opacity="1" /><path clip-path="url(#clip430)" d="M1993.25 906.953 L1993.25 933.828 L1998.9 933.828 Q2006.05 933.828 2009.36 930.588 Q2012.7 927.347 2012.7 920.356 Q2012.7 913.412 2009.36 910.194 Q2006.05 906.953 1998.9 906.953 L1993.25 906.953 M1988.58 903.111 L1998.18 903.111 Q2008.23 903.111 2012.93 907.301 Q2017.63 911.467 2017.63 920.356 Q2017.63 929.291 2012.9 933.481 Q2008.18 937.671 1998.18 937.671 L1988.58 937.671 L1988.58 903.111 Z" fill="#000000" fill-rule="nonzero" fill-opacity="1" /><path clip-path="url(#clip430)" d="M2024.89 911.745 L2029.15 911.745 L2029.15 937.671 L2024.89 937.671 L2024.89 911.745 M2024.89 901.653 L2029.15 901.653 L2029.15 907.046 L2024.89 907.046 L2024.89 901.653 Z" fill="#000000" fill-rule="nonzero" fill-opacity="1" /><path clip-path="url(#clip430)" d="M2054.59 912.509 L2054.59 916.537 Q2052.79 915.611 2050.84 915.148 Q2048.9 914.685 2046.82 914.685 Q2043.64 914.685 2042.05 915.657 Q2040.47 916.629 2040.47 918.574 Q2040.47 920.055 2041.61 920.912 Q2042.74 921.745 2046.17 922.509 L2047.63 922.833 Q2052.16 923.805 2054.06 925.588 Q2055.98 927.347 2055.98 930.518 Q2055.98 934.129 2053.11 936.236 Q2050.27 938.342 2045.27 938.342 Q2043.18 938.342 2040.91 937.926 Q2038.67 937.532 2036.17 936.722 L2036.17 932.324 Q2038.53 933.551 2040.82 934.176 Q2043.11 934.777 2045.36 934.777 Q2048.37 934.777 2049.99 933.759 Q2051.61 932.717 2051.61 930.842 Q2051.61 929.106 2050.43 928.18 Q2049.27 927.254 2045.31 926.398 L2043.83 926.051 Q2039.87 925.217 2038.11 923.504 Q2036.35 921.768 2036.35 918.759 Q2036.35 915.102 2038.95 913.111 Q2041.54 911.12 2046.31 911.12 Q2048.67 911.12 2050.75 911.467 Q2052.83 911.815 2054.59 912.509 Z" fill="#000000" fill-rule="nonzero" fill-opacity="1" /><path clip-path="url(#clip430)" d="M2066.98 904.384 L2066.98 911.745 L2075.75 911.745 L2075.75 915.055 L2066.98 915.055 L2066.98 929.129 Q2066.98 932.301 2067.83 933.203 Q2068.71 934.106 2071.38 934.106 L2075.75 934.106 L2075.75 937.671 L2071.38 937.671 Q2066.45 937.671 2064.57 935.842 Q2062.7 933.99 2062.7 929.129 L2062.7 915.055 L2059.57 915.055 L2059.57 911.745 L2062.7 911.745 L2062.7 904.384 L2066.98 904.384 Z" fill="#000000" fill-rule="nonzero" fill-opacity="1" /><path clip-path="url(#clip430)" d="M2096.38 915.727 Q2095.66 915.31 2094.8 915.125 Q2093.97 914.916 2092.95 914.916 Q2089.34 914.916 2087.39 917.277 Q2085.47 919.615 2085.47 924.014 L2085.47 937.671 L2081.19 937.671 L2081.19 911.745 L2085.47 911.745 L2085.47 915.773 Q2086.82 913.412 2088.97 912.278 Q2091.12 911.12 2094.2 911.12 Q2094.64 911.12 2095.17 911.19 Q2095.7 911.236 2096.35 911.352 L2096.38 915.727 Z" fill="#000000" fill-rule="nonzero" fill-opacity="1" /><path clip-path="url(#clip430)" d="M2100.84 911.745 L2105.1 911.745 L2105.1 937.671 L2100.84 937.671 L2100.84 911.745 M2100.84 901.653 L2105.1 901.653 L2105.1 907.046 L2100.84 907.046 L2100.84 901.653 Z" fill="#000000" fill-rule="nonzero" fill-opacity="1" /><path clip-path="url(#clip430)" d="M2132.63 924.731 Q2132.63 920.032 2130.68 917.37 Q2128.76 914.685 2125.38 914.685 Q2122 914.685 2120.06 917.37 Q2118.14 920.032 2118.14 924.731 Q2118.14 929.43 2120.06 932.115 Q2122 934.777 2125.38 934.777 Q2128.76 934.777 2130.68 932.115 Q2132.63 929.43 2132.63 924.731 M2118.14 915.68 Q2119.48 913.365 2121.51 912.254 Q2123.58 911.12 2126.42 911.12 Q2131.14 911.12 2134.08 914.87 Q2137.05 918.62 2137.05 924.731 Q2137.05 930.842 2134.08 934.592 Q2131.14 938.342 2126.42 938.342 Q2123.58 938.342 2121.51 937.231 Q2119.48 936.097 2118.14 933.782 L2118.14 937.671 L2113.85 937.671 L2113.85 901.653 L2118.14 901.653 L2118.14 915.68 Z" fill="#000000" fill-rule="nonzero" fill-opacity="1" /><path clip-path="url(#clip430)" d="M2143.67 927.439 L2143.67 911.745 L2147.93 911.745 L2147.93 927.277 Q2147.93 930.958 2149.36 932.81 Q2150.8 934.638 2153.67 934.638 Q2157.12 934.638 2159.11 932.439 Q2161.12 930.24 2161.12 926.444 L2161.12 911.745 L2165.38 911.745 L2165.38 937.671 L2161.12 937.671 L2161.12 933.689 Q2159.57 936.051 2157.51 937.208 Q2155.47 938.342 2152.76 938.342 Q2148.3 938.342 2145.98 935.564 Q2143.67 932.787 2143.67 927.439 M2154.39 911.12 L2154.39 911.12 Z" fill="#000000" fill-rule="nonzero" fill-opacity="1" /><path clip-path="url(#clip430)" d="M2178.37 904.384 L2178.37 911.745 L2187.14 911.745 L2187.14 915.055 L2178.37 915.055 L2178.37 929.129 Q2178.37 932.301 2179.22 933.203 Q2180.1 934.106 2182.76 934.106 L2187.14 934.106 L2187.14 937.671 L2182.76 937.671 Q2177.83 937.671 2175.96 935.842 Q2174.08 933.99 2174.08 929.129 L2174.08 915.055 L2170.96 915.055 L2170.96 911.745 L2174.08 911.745 L2174.08 904.384 L2178.37 904.384 Z" fill="#000000" fill-rule="nonzero" fill-opacity="1" /><path clip-path="url(#clip430)" d="M2192.74 911.745 L2197 911.745 L2197 937.671 L2192.74 937.671 L2192.74 911.745 M2192.74 901.653 L2197 901.653 L2197 907.046 L2192.74 907.046 L2192.74 901.653 Z" fill="#000000" fill-rule="nonzero" fill-opacity="1" /><path clip-path="url(#clip430)" d="M2215.96 914.731 Q2212.53 914.731 2210.54 917.416 Q2208.55 920.078 2208.55 924.731 Q2208.55 929.384 2210.52 932.069 Q2212.51 934.731 2215.96 934.731 Q2219.36 934.731 2221.35 932.046 Q2223.34 929.361 2223.34 924.731 Q2223.34 920.125 2221.35 917.44 Q2219.36 914.731 2215.96 914.731 M2215.96 911.12 Q2221.51 911.12 2224.69 914.731 Q2227.86 918.342 2227.86 924.731 Q2227.86 931.097 2224.69 934.731 Q2221.51 938.342 2215.96 938.342 Q2210.38 938.342 2207.21 934.731 Q2204.06 931.097 2204.06 924.731 Q2204.06 918.342 2207.21 914.731 Q2210.38 911.12 2215.96 911.12 Z" fill="#000000" fill-rule="nonzero" fill-opacity="1" /><path clip-path="url(#clip430)" d="M2256.47 922.023 L2256.47 937.671 L2252.21 937.671 L2252.21 922.162 Q2252.21 918.481 2250.77 916.652 Q2249.34 914.824 2246.47 914.824 Q2243.02 914.824 2241.03 917.023 Q2239.04 919.222 2239.04 923.018 L2239.04 937.671 L2234.75 937.671 L2234.75 911.745 L2239.04 911.745 L2239.04 915.773 Q2240.57 913.435 2242.63 912.278 Q2244.71 911.12 2247.42 911.12 Q2251.88 911.12 2254.18 913.898 Q2256.47 916.652 2256.47 922.023 Z" fill="#000000" fill-rule="nonzero" fill-opacity="1" /></svg>
