<?xml version="1.0" encoding="utf-8"?>
<svg xmlns="http://www.w3.org/2000/svg" xmlns:xlink="http://www.w3.org/1999/xlink" width="600" height="400" viewBox="0 0 2400 1600">
<defs>
  <clipPath id="clip230">
    <rect x="0" y="0" width="2400" height="1600"/>
  </clipPath>
</defs>
<path clip-path="url(#clip230)" d="M0 1600 L2400 1600 L2400 0 L0 0  Z" fill="#ffffff" fill-rule="evenodd" fill-opacity="1"/>
<defs>
  <clipPath id="clip231">
    <rect x="480" y="0" width="1681" height="1600"/>
  </clipPath>
</defs>
<path clip-path="url(#clip230)" d="M186.76 1486.45 L2352.76 1486.45 L2352.76 47.2441 L186.76 47.2441  Z" fill="#ffffff" fill-rule="evenodd" fill-opacity="1"/>
<defs>
  <clipPath id="clip232">
    <rect x="186" y="47" width="2167" height="1440"/>
  </clipPath>
</defs>
<polyline clip-path="url(#clip232)" style="stroke:#000000; stroke-linecap:round; stroke-linejoin:round; stroke-width:2; stroke-opacity:0.1; fill:none" points="248.062,1486.45 248.062,47.2441 "/>
<polyline clip-path="url(#clip232)" style="stroke:#000000; stroke-linecap:round; stroke-linejoin:round; stroke-width:2; stroke-opacity:0.1; fill:none" points="831.774,1486.45 831.774,47.2441 "/>
<polyline clip-path="url(#clip232)" style="stroke:#000000; stroke-linecap:round; stroke-linejoin:round; stroke-width:2; stroke-opacity:0.1; fill:none" points="1415.75,1486.45 1415.75,47.2441 "/>
<polyline clip-path="url(#clip232)" style="stroke:#000000; stroke-linecap:round; stroke-linejoin:round; stroke-width:2; stroke-opacity:0.1; fill:none" points="1999.46,1486.45 1999.46,47.2441 "/>
<polyline clip-path="url(#clip230)" style="stroke:#000000; stroke-linecap:round; stroke-linejoin:round; stroke-width:4; stroke-opacity:1; fill:none" points="186.76,1486.45 2352.76,1486.45 "/>
<polyline clip-path="url(#clip230)" style="stroke:#000000; stroke-linecap:round; stroke-linejoin:round; stroke-width:4; stroke-opacity:1; fill:none" points="248.062,1486.45 248.062,1467.55 "/>
<polyline clip-path="url(#clip230)" style="stroke:#000000; stroke-linecap:round; stroke-linejoin:round; stroke-width:4; stroke-opacity:1; fill:none" points="831.774,1486.45 831.774,1467.55 "/>
<polyline clip-path="url(#clip230)" style="stroke:#000000; stroke-linecap:round; stroke-linejoin:round; stroke-width:4; stroke-opacity:1; fill:none" points="1415.75,1486.45 1415.75,1467.55 "/>
<polyline clip-path="url(#clip230)" style="stroke:#000000; stroke-linecap:round; stroke-linejoin:round; stroke-width:4; stroke-opacity:1; fill:none" points="1999.46,1486.45 1999.46,1467.55 "/>
<path clip-path="url(#clip230)" d="M119.857 1544.91 L136.176 1544.91 L136.176 1548.85 L114.232 1548.85 L114.232 1544.91 Q116.894 1542.16 121.477 1537.53 Q126.083 1532.88 127.264 1531.53 Q129.509 1529.01 130.389 1527.27 Q131.292 1525.51 131.292 1523.82 Q131.292 1521.07 129.347 1519.33 Q127.426 1517.6 124.324 1517.6 Q122.125 1517.6 119.671 1518.36 Q117.241 1519.13 114.463 1520.68 L114.463 1515.95 Q117.287 1514.82 119.741 1514.24 Q122.194 1513.66 124.232 1513.66 Q129.602 1513.66 132.796 1516.35 Q135.991 1519.03 135.991 1523.52 Q135.991 1525.65 135.181 1527.57 Q134.394 1529.47 132.287 1532.07 Q131.708 1532.74 128.606 1535.95 Q125.505 1539.15 119.857 1544.91 Z" fill="#000000" fill-rule="nonzero" fill-opacity="1" /><path clip-path="url(#clip230)" d="M155.991 1517.37 Q152.38 1517.37 150.551 1520.93 Q148.745 1524.47 148.745 1531.6 Q148.745 1538.71 150.551 1542.27 Q152.38 1545.82 155.991 1545.82 Q159.625 1545.82 161.43 1542.27 Q163.259 1538.71 163.259 1531.6 Q163.259 1524.47 161.43 1520.93 Q159.625 1517.37 155.991 1517.37 M155.991 1513.66 Q161.801 1513.66 164.856 1518.27 Q167.935 1522.85 167.935 1531.6 Q167.935 1540.33 164.856 1544.94 Q161.801 1549.52 155.991 1549.52 Q150.18 1549.52 147.102 1544.94 Q144.046 1540.33 144.046 1531.6 Q144.046 1522.85 147.102 1518.27 Q150.18 1513.66 155.991 1513.66 Z" fill="#000000" fill-rule="nonzero" fill-opacity="1" /><path clip-path="url(#clip230)" d="M186.152 1517.37 Q182.541 1517.37 180.713 1520.93 Q178.907 1524.47 178.907 1531.6 Q178.907 1538.71 180.713 1542.27 Q182.541 1545.82 186.152 1545.82 Q189.787 1545.82 191.592 1542.27 Q193.421 1538.71 193.421 1531.6 Q193.421 1524.47 191.592 1520.93 Q189.787 1517.37 186.152 1517.37 M186.152 1513.66 Q191.963 1513.66 195.018 1518.27 Q198.097 1522.85 198.097 1531.6 Q198.097 1540.33 195.018 1544.94 Q191.963 1549.52 186.152 1549.52 Q180.342 1549.52 177.264 1544.94 Q174.208 1540.33 174.208 1531.6 Q174.208 1522.85 177.264 1518.27 Q180.342 1513.66 186.152 1513.66 Z" fill="#000000" fill-rule="nonzero" fill-opacity="1" /><path clip-path="url(#clip230)" d="M207.125 1544.91 L214.763 1544.91 L214.763 1518.55 L206.453 1520.21 L206.453 1515.95 L214.717 1514.29 L219.393 1514.29 L219.393 1544.91 L227.032 1544.91 L227.032 1548.85 L207.125 1548.85 L207.125 1544.91 Z" fill="#000000" fill-rule="nonzero" fill-opacity="1" /><path clip-path="url(#clip230)" d="M233.722 1533.96 L246.198 1533.96 L246.198 1537.76 L233.722 1537.76 L233.722 1533.96 Z" fill="#000000" fill-rule="nonzero" fill-opacity="1" /><path clip-path="url(#clip230)" d="M263.583 1517.37 Q259.972 1517.37 258.143 1520.93 Q256.337 1524.47 256.337 1531.6 Q256.337 1538.71 258.143 1542.27 Q259.972 1545.82 263.583 1545.82 Q267.217 1545.82 269.022 1542.27 Q270.851 1538.71 270.851 1531.6 Q270.851 1524.47 269.022 1520.93 Q267.217 1517.37 263.583 1517.37 M263.583 1513.66 Q269.393 1513.66 272.448 1518.27 Q275.527 1522.85 275.527 1531.6 Q275.527 1540.33 272.448 1544.94 Q269.393 1549.52 263.583 1549.52 Q257.772 1549.52 254.694 1544.94 Q251.638 1540.33 251.638 1531.6 Q251.638 1522.85 254.694 1518.27 Q257.772 1513.66 263.583 1513.66 Z" fill="#000000" fill-rule="nonzero" fill-opacity="1" /><path clip-path="url(#clip230)" d="M284.555 1544.91 L292.194 1544.91 L292.194 1518.55 L283.883 1520.21 L283.883 1515.95 L292.147 1514.29 L296.823 1514.29 L296.823 1544.91 L304.462 1544.91 L304.462 1548.85 L284.555 1548.85 L284.555 1544.91 Z" fill="#000000" fill-rule="nonzero" fill-opacity="1" /><path clip-path="url(#clip230)" d="M311.152 1533.96 L323.629 1533.96 L323.629 1537.76 L311.152 1537.76 L311.152 1533.96 Z" fill="#000000" fill-rule="nonzero" fill-opacity="1" /><path clip-path="url(#clip230)" d="M341.013 1517.37 Q337.402 1517.37 335.573 1520.93 Q333.767 1524.47 333.767 1531.6 Q333.767 1538.71 335.573 1542.27 Q337.402 1545.82 341.013 1545.82 Q344.647 1545.82 346.453 1542.27 Q348.281 1538.71 348.281 1531.6 Q348.281 1524.47 346.453 1520.93 Q344.647 1517.37 341.013 1517.37 M341.013 1513.66 Q346.823 1513.66 349.878 1518.27 Q352.957 1522.85 352.957 1531.6 Q352.957 1540.33 349.878 1544.94 Q346.823 1549.52 341.013 1549.52 Q335.203 1549.52 332.124 1544.94 Q329.068 1540.33 329.068 1531.6 Q329.068 1522.85 332.124 1518.27 Q335.203 1513.66 341.013 1513.66 Z" fill="#000000" fill-rule="nonzero" fill-opacity="1" /><path clip-path="url(#clip230)" d="M361.985 1544.91 L369.624 1544.91 L369.624 1518.55 L361.314 1520.21 L361.314 1515.95 L369.577 1514.29 L374.253 1514.29 L374.253 1544.91 L381.892 1544.91 L381.892 1548.85 L361.985 1548.85 L361.985 1544.91 Z" fill="#000000" fill-rule="nonzero" fill-opacity="1" /><path clip-path="url(#clip230)" d="M703.569 1544.91 L719.888 1544.91 L719.888 1548.85 L697.944 1548.85 L697.944 1544.91 Q700.606 1542.16 705.189 1537.53 Q709.796 1532.88 710.976 1531.53 Q713.221 1529.01 714.101 1527.27 Q715.004 1525.51 715.004 1523.82 Q715.004 1521.07 713.059 1519.33 Q711.138 1517.6 708.036 1517.6 Q705.837 1517.6 703.384 1518.36 Q700.953 1519.13 698.175 1520.68 L698.175 1515.95 Q700.999 1514.82 703.453 1514.24 Q705.907 1513.66 707.944 1513.66 Q713.314 1513.66 716.508 1516.35 Q719.703 1519.03 719.703 1523.52 Q719.703 1525.65 718.893 1527.57 Q718.106 1529.47 715.999 1532.07 Q715.421 1532.74 712.319 1535.95 Q709.217 1539.15 703.569 1544.91 Z" fill="#000000" fill-rule="nonzero" fill-opacity="1" /><path clip-path="url(#clip230)" d="M739.703 1517.37 Q736.092 1517.37 734.263 1520.93 Q732.457 1524.47 732.457 1531.6 Q732.457 1538.71 734.263 1542.27 Q736.092 1545.82 739.703 1545.82 Q743.337 1545.82 745.143 1542.27 Q746.971 1538.71 746.971 1531.6 Q746.971 1524.47 745.143 1520.93 Q743.337 1517.37 739.703 1517.37 M739.703 1513.66 Q745.513 1513.66 748.568 1518.27 Q751.647 1522.85 751.647 1531.6 Q751.647 1540.33 748.568 1544.94 Q745.513 1549.52 739.703 1549.52 Q733.893 1549.52 730.814 1544.94 Q727.758 1540.33 727.758 1531.6 Q727.758 1522.85 730.814 1518.27 Q733.893 1513.66 739.703 1513.66 Z" fill="#000000" fill-rule="nonzero" fill-opacity="1" /><path clip-path="url(#clip230)" d="M769.865 1517.37 Q766.254 1517.37 764.425 1520.93 Q762.619 1524.47 762.619 1531.6 Q762.619 1538.71 764.425 1542.27 Q766.254 1545.82 769.865 1545.82 Q773.499 1545.82 775.304 1542.27 Q777.133 1538.71 777.133 1531.6 Q777.133 1524.47 775.304 1520.93 Q773.499 1517.37 769.865 1517.37 M769.865 1513.66 Q775.675 1513.66 778.73 1518.27 Q781.809 1522.85 781.809 1531.6 Q781.809 1540.33 778.73 1544.94 Q775.675 1549.52 769.865 1549.52 Q764.055 1549.52 760.976 1544.94 Q757.92 1540.33 757.92 1531.6 Q757.92 1522.85 760.976 1518.27 Q764.055 1513.66 769.865 1513.66 Z" fill="#000000" fill-rule="nonzero" fill-opacity="1" /><path clip-path="url(#clip230)" d="M788.846 1514.29 L811.068 1514.29 L811.068 1516.28 L798.522 1548.85 L793.638 1548.85 L805.443 1518.22 L788.846 1518.22 L788.846 1514.29 Z" fill="#000000" fill-rule="nonzero" fill-opacity="1" /><path clip-path="url(#clip230)" d="M817.434 1533.96 L829.911 1533.96 L829.911 1537.76 L817.434 1537.76 L817.434 1533.96 Z" fill="#000000" fill-rule="nonzero" fill-opacity="1" /><path clip-path="url(#clip230)" d="M847.295 1517.37 Q843.684 1517.37 841.855 1520.93 Q840.049 1524.47 840.049 1531.6 Q840.049 1538.71 841.855 1542.27 Q843.684 1545.82 847.295 1545.82 Q850.929 1545.82 852.735 1542.27 Q854.563 1538.71 854.563 1531.6 Q854.563 1524.47 852.735 1520.93 Q850.929 1517.37 847.295 1517.37 M847.295 1513.66 Q853.105 1513.66 856.161 1518.27 Q859.239 1522.85 859.239 1531.6 Q859.239 1540.33 856.161 1544.94 Q853.105 1549.52 847.295 1549.52 Q841.485 1549.52 838.406 1544.94 Q835.35 1540.33 835.35 1531.6 Q835.35 1522.85 838.406 1518.27 Q841.485 1513.66 847.295 1513.66 Z" fill="#000000" fill-rule="nonzero" fill-opacity="1" /><path clip-path="url(#clip230)" d="M868.267 1544.91 L875.906 1544.91 L875.906 1518.55 L867.596 1520.21 L867.596 1515.95 L875.859 1514.29 L880.535 1514.29 L880.535 1544.91 L888.174 1544.91 L888.174 1548.85 L868.267 1548.85 L868.267 1544.91 Z" fill="#000000" fill-rule="nonzero" fill-opacity="1" /><path clip-path="url(#clip230)" d="M894.864 1533.96 L907.341 1533.96 L907.341 1537.76 L894.864 1537.76 L894.864 1533.96 Z" fill="#000000" fill-rule="nonzero" fill-opacity="1" /><path clip-path="url(#clip230)" d="M924.725 1517.37 Q921.114 1517.37 919.285 1520.93 Q917.48 1524.47 917.48 1531.6 Q917.48 1538.71 919.285 1542.27 Q921.114 1545.82 924.725 1545.82 Q928.359 1545.82 930.165 1542.27 Q931.993 1538.71 931.993 1531.6 Q931.993 1524.47 930.165 1520.93 Q928.359 1517.37 924.725 1517.37 M924.725 1513.66 Q930.535 1513.66 933.591 1518.27 Q936.669 1522.85 936.669 1531.6 Q936.669 1540.33 933.591 1544.94 Q930.535 1549.52 924.725 1549.52 Q918.915 1549.52 915.836 1544.94 Q912.781 1540.33 912.781 1531.6 Q912.781 1522.85 915.836 1518.27 Q918.915 1513.66 924.725 1513.66 Z" fill="#000000" fill-rule="nonzero" fill-opacity="1" /><path clip-path="url(#clip230)" d="M945.697 1544.91 L953.336 1544.91 L953.336 1518.55 L945.026 1520.21 L945.026 1515.95 L953.29 1514.29 L957.966 1514.29 L957.966 1544.91 L965.604 1544.91 L965.604 1548.85 L945.697 1548.85 L945.697 1544.91 Z" fill="#000000" fill-rule="nonzero" fill-opacity="1" /><path clip-path="url(#clip230)" d="M1287.55 1544.91 L1303.87 1544.91 L1303.87 1548.85 L1281.92 1548.85 L1281.92 1544.91 Q1284.58 1542.16 1289.17 1537.53 Q1293.77 1532.88 1294.95 1531.53 Q1297.2 1529.01 1298.08 1527.27 Q1298.98 1525.51 1298.98 1523.82 Q1298.98 1521.07 1297.04 1519.33 Q1295.12 1517.6 1292.01 1517.6 Q1289.82 1517.6 1287.36 1518.36 Q1284.93 1519.13 1282.15 1520.68 L1282.15 1515.95 Q1284.98 1514.82 1287.43 1514.24 Q1289.89 1513.66 1291.92 1513.66 Q1297.29 1513.66 1300.49 1516.35 Q1303.68 1519.03 1303.68 1523.52 Q1303.68 1525.65 1302.87 1527.57 Q1302.08 1529.47 1299.98 1532.07 Q1299.4 1532.74 1296.3 1535.95 Q1293.2 1539.15 1287.55 1544.91 Z" fill="#000000" fill-rule="nonzero" fill-opacity="1" /><path clip-path="url(#clip230)" d="M1323.68 1517.37 Q1320.07 1517.37 1318.24 1520.93 Q1316.44 1524.47 1316.44 1531.6 Q1316.44 1538.71 1318.24 1542.27 Q1320.07 1545.82 1323.68 1545.82 Q1327.32 1545.82 1329.12 1542.27 Q1330.95 1538.71 1330.95 1531.6 Q1330.95 1524.47 1329.12 1520.93 Q1327.32 1517.37 1323.68 1517.37 M1323.68 1513.66 Q1329.49 1513.66 1332.55 1518.27 Q1335.63 1522.85 1335.63 1531.6 Q1335.63 1540.33 1332.55 1544.94 Q1329.49 1549.52 1323.68 1549.52 Q1317.87 1549.52 1314.79 1544.94 Q1311.74 1540.33 1311.74 1531.6 Q1311.74 1522.85 1314.79 1518.27 Q1317.87 1513.66 1323.68 1513.66 Z" fill="#000000" fill-rule="nonzero" fill-opacity="1" /><path clip-path="url(#clip230)" d="M1344.65 1544.91 L1352.29 1544.91 L1352.29 1518.55 L1343.98 1520.21 L1343.98 1515.95 L1352.25 1514.29 L1356.92 1514.29 L1356.92 1544.91 L1364.56 1544.91 L1364.56 1548.85 L1344.65 1548.85 L1344.65 1544.91 Z" fill="#000000" fill-rule="nonzero" fill-opacity="1" /><path clip-path="url(#clip230)" d="M1388.17 1530.21 Q1391.53 1530.93 1393.4 1533.2 Q1395.3 1535.47 1395.3 1538.8 Q1395.3 1543.92 1391.78 1546.72 Q1388.26 1549.52 1381.78 1549.52 Q1379.61 1549.52 1377.29 1549.08 Q1375 1548.66 1372.55 1547.81 L1372.55 1543.29 Q1374.49 1544.43 1376.81 1545.01 Q1379.12 1545.58 1381.64 1545.58 Q1386.04 1545.58 1388.33 1543.85 Q1390.65 1542.11 1390.65 1538.8 Q1390.65 1535.75 1388.5 1534.03 Q1386.37 1532.3 1382.55 1532.3 L1378.52 1532.3 L1378.52 1528.45 L1382.73 1528.45 Q1386.18 1528.45 1388.01 1527.09 Q1389.84 1525.7 1389.84 1523.11 Q1389.84 1520.45 1387.94 1519.03 Q1386.07 1517.6 1382.55 1517.6 Q1380.63 1517.6 1378.43 1518.01 Q1376.23 1518.43 1373.59 1519.31 L1373.59 1515.14 Q1376.25 1514.4 1378.57 1514.03 Q1380.9 1513.66 1382.96 1513.66 Q1388.29 1513.66 1391.39 1516.09 Q1394.49 1518.5 1394.49 1522.62 Q1394.49 1525.49 1392.85 1527.48 Q1391.2 1529.45 1388.17 1530.21 Z" fill="#000000" fill-rule="nonzero" fill-opacity="1" /><path clip-path="url(#clip230)" d="M1401.41 1533.96 L1413.89 1533.96 L1413.89 1537.76 L1401.41 1537.76 L1401.41 1533.96 Z" fill="#000000" fill-rule="nonzero" fill-opacity="1" /><path clip-path="url(#clip230)" d="M1431.27 1517.37 Q1427.66 1517.37 1425.83 1520.93 Q1424.03 1524.47 1424.03 1531.6 Q1424.03 1538.71 1425.83 1542.27 Q1427.66 1545.82 1431.27 1545.82 Q1434.91 1545.82 1436.71 1542.27 Q1438.54 1538.71 1438.54 1531.6 Q1438.54 1524.47 1436.71 1520.93 Q1434.91 1517.37 1431.27 1517.37 M1431.27 1513.66 Q1437.08 1513.66 1440.14 1518.27 Q1443.22 1522.85 1443.22 1531.6 Q1443.22 1540.33 1440.14 1544.94 Q1437.08 1549.52 1431.27 1549.52 Q1425.46 1549.52 1422.38 1544.94 Q1419.33 1540.33 1419.33 1531.6 Q1419.33 1522.85 1422.38 1518.27 Q1425.46 1513.66 1431.27 1513.66 Z" fill="#000000" fill-rule="nonzero" fill-opacity="1" /><path clip-path="url(#clip230)" d="M1452.25 1544.91 L1459.88 1544.91 L1459.88 1518.55 L1451.57 1520.21 L1451.57 1515.95 L1459.84 1514.29 L1464.51 1514.29 L1464.51 1544.91 L1472.15 1544.91 L1472.15 1548.85 L1452.25 1548.85 L1452.25 1544.91 Z" fill="#000000" fill-rule="nonzero" fill-opacity="1" /><path clip-path="url(#clip230)" d="M1478.84 1533.96 L1491.32 1533.96 L1491.32 1537.76 L1478.84 1537.76 L1478.84 1533.96 Z" fill="#000000" fill-rule="nonzero" fill-opacity="1" /><path clip-path="url(#clip230)" d="M1508.7 1517.37 Q1505.09 1517.37 1503.26 1520.93 Q1501.46 1524.47 1501.46 1531.6 Q1501.46 1538.71 1503.26 1542.27 Q1505.09 1545.82 1508.7 1545.82 Q1512.34 1545.82 1514.14 1542.27 Q1515.97 1538.71 1515.97 1531.6 Q1515.97 1524.47 1514.14 1520.93 Q1512.34 1517.37 1508.7 1517.37 M1508.7 1513.66 Q1514.51 1513.66 1517.57 1518.27 Q1520.65 1522.85 1520.65 1531.6 Q1520.65 1540.33 1517.57 1544.94 Q1514.51 1549.52 1508.7 1549.52 Q1502.89 1549.52 1499.81 1544.94 Q1496.76 1540.33 1496.76 1531.6 Q1496.76 1522.85 1499.81 1518.27 Q1502.89 1513.66 1508.7 1513.66 Z" fill="#000000" fill-rule="nonzero" fill-opacity="1" /><path clip-path="url(#clip230)" d="M1529.68 1544.91 L1537.31 1544.91 L1537.31 1518.55 L1529 1520.21 L1529 1515.95 L1537.27 1514.29 L1541.94 1514.29 L1541.94 1544.91 L1549.58 1544.91 L1549.58 1548.85 L1529.68 1548.85 L1529.68 1544.91 Z" fill="#000000" fill-rule="nonzero" fill-opacity="1" /><path clip-path="url(#clip230)" d="M1871.26 1544.91 L1887.58 1544.91 L1887.58 1548.85 L1865.63 1548.85 L1865.63 1544.91 Q1868.3 1542.16 1872.88 1537.53 Q1877.49 1532.88 1878.67 1531.53 Q1880.91 1529.01 1881.79 1527.27 Q1882.69 1525.51 1882.69 1523.82 Q1882.69 1521.07 1880.75 1519.33 Q1878.83 1517.6 1875.73 1517.6 Q1873.53 1517.6 1871.07 1518.36 Q1868.64 1519.13 1865.87 1520.68 L1865.87 1515.95 Q1868.69 1514.82 1871.14 1514.24 Q1873.6 1513.66 1875.63 1513.66 Q1881 1513.66 1884.2 1516.35 Q1887.39 1519.03 1887.39 1523.52 Q1887.39 1525.65 1886.58 1527.57 Q1885.8 1529.47 1883.69 1532.07 Q1883.11 1532.74 1880.01 1535.95 Q1876.91 1539.15 1871.26 1544.91 Z" fill="#000000" fill-rule="nonzero" fill-opacity="1" /><path clip-path="url(#clip230)" d="M1907.39 1517.37 Q1903.78 1517.37 1901.95 1520.93 Q1900.15 1524.47 1900.15 1531.6 Q1900.15 1538.71 1901.95 1542.27 Q1903.78 1545.82 1907.39 1545.82 Q1911.03 1545.82 1912.83 1542.27 Q1914.66 1538.71 1914.66 1531.6 Q1914.66 1524.47 1912.83 1520.93 Q1911.03 1517.37 1907.39 1517.37 M1907.39 1513.66 Q1913.2 1513.66 1916.26 1518.27 Q1919.34 1522.85 1919.34 1531.6 Q1919.34 1540.33 1916.26 1544.94 Q1913.2 1549.52 1907.39 1549.52 Q1901.58 1549.52 1898.5 1544.94 Q1895.45 1540.33 1895.45 1531.6 Q1895.45 1522.85 1898.5 1518.27 Q1901.58 1513.66 1907.39 1513.66 Z" fill="#000000" fill-rule="nonzero" fill-opacity="1" /><path clip-path="url(#clip230)" d="M1928.37 1544.91 L1936 1544.91 L1936 1518.55 L1927.69 1520.21 L1927.69 1515.95 L1935.96 1514.29 L1940.63 1514.29 L1940.63 1544.91 L1948.27 1544.91 L1948.27 1548.85 L1928.37 1548.85 L1928.37 1544.91 Z" fill="#000000" fill-rule="nonzero" fill-opacity="1" /><path clip-path="url(#clip230)" d="M1957.86 1548.13 L1957.86 1543.87 Q1959.62 1544.7 1961.42 1545.14 Q1963.23 1545.58 1964.96 1545.58 Q1969.59 1545.58 1972.02 1542.48 Q1974.48 1539.36 1974.82 1533.01 Q1973.48 1535.01 1971.42 1536.07 Q1969.36 1537.13 1966.86 1537.13 Q1961.68 1537.13 1958.64 1534.01 Q1955.63 1530.86 1955.63 1525.42 Q1955.63 1520.1 1958.78 1516.88 Q1961.93 1513.66 1967.16 1513.66 Q1973.16 1513.66 1976.31 1518.27 Q1979.48 1522.85 1979.48 1531.6 Q1979.48 1539.77 1975.59 1544.66 Q1971.72 1549.52 1965.17 1549.52 Q1963.41 1549.52 1961.61 1549.17 Q1959.8 1548.82 1957.86 1548.13 M1967.16 1533.48 Q1970.31 1533.48 1972.14 1531.32 Q1973.99 1529.17 1973.99 1525.42 Q1973.99 1521.7 1972.14 1519.54 Q1970.31 1517.37 1967.16 1517.37 Q1964.01 1517.37 1962.16 1519.54 Q1960.33 1521.7 1960.33 1525.42 Q1960.33 1529.17 1962.16 1531.32 Q1964.01 1533.48 1967.16 1533.48 Z" fill="#000000" fill-rule="nonzero" fill-opacity="1" /><path clip-path="url(#clip230)" d="M1985.12 1533.96 L1997.6 1533.96 L1997.6 1537.76 L1985.12 1537.76 L1985.12 1533.96 Z" fill="#000000" fill-rule="nonzero" fill-opacity="1" /><path clip-path="url(#clip230)" d="M2014.99 1517.37 Q2011.37 1517.37 2009.55 1520.93 Q2007.74 1524.47 2007.74 1531.6 Q2007.74 1538.71 2009.55 1542.27 Q2011.37 1545.82 2014.99 1545.82 Q2018.62 1545.82 2020.43 1542.27 Q2022.25 1538.71 2022.25 1531.6 Q2022.25 1524.47 2020.43 1520.93 Q2018.62 1517.37 2014.99 1517.37 M2014.99 1513.66 Q2020.8 1513.66 2023.85 1518.27 Q2026.93 1522.85 2026.93 1531.6 Q2026.93 1540.33 2023.85 1544.94 Q2020.8 1549.52 2014.99 1549.52 Q2009.18 1549.52 2006.1 1544.94 Q2003.04 1540.33 2003.04 1531.6 Q2003.04 1522.85 2006.1 1518.27 Q2009.18 1513.66 2014.99 1513.66 Z" fill="#000000" fill-rule="nonzero" fill-opacity="1" /><path clip-path="url(#clip230)" d="M2035.96 1544.91 L2043.6 1544.91 L2043.6 1518.55 L2035.29 1520.21 L2035.29 1515.95 L2043.55 1514.29 L2048.23 1514.29 L2048.23 1544.91 L2055.87 1544.91 L2055.87 1548.85 L2035.96 1548.85 L2035.96 1544.91 Z" fill="#000000" fill-rule="nonzero" fill-opacity="1" /><path clip-path="url(#clip230)" d="M2062.55 1533.96 L2075.03 1533.96 L2075.03 1537.76 L2062.55 1537.76 L2062.55 1533.96 Z" fill="#000000" fill-rule="nonzero" fill-opacity="1" /><path clip-path="url(#clip230)" d="M2092.42 1517.37 Q2088.8 1517.37 2086.98 1520.93 Q2085.17 1524.47 2085.17 1531.6 Q2085.17 1538.71 2086.98 1542.27 Q2088.8 1545.82 2092.42 1545.82 Q2096.05 1545.82 2097.86 1542.27 Q2099.68 1538.71 2099.68 1531.6 Q2099.68 1524.47 2097.86 1520.93 Q2096.05 1517.37 2092.42 1517.37 M2092.42 1513.66 Q2098.23 1513.66 2101.28 1518.27 Q2104.36 1522.85 2104.36 1531.6 Q2104.36 1540.33 2101.28 1544.94 Q2098.23 1549.52 2092.42 1549.52 Q2086.61 1549.52 2083.53 1544.94 Q2080.47 1540.33 2080.47 1531.6 Q2080.47 1522.85 2083.53 1518.27 Q2086.61 1513.66 2092.42 1513.66 Z" fill="#000000" fill-rule="nonzero" fill-opacity="1" /><path clip-path="url(#clip230)" d="M2113.39 1544.91 L2121.03 1544.91 L2121.03 1518.55 L2112.72 1520.21 L2112.72 1515.95 L2120.98 1514.29 L2125.66 1514.29 L2125.66 1544.91 L2133.3 1544.91 L2133.3 1548.85 L2113.39 1548.85 L2113.39 1544.91 Z" fill="#000000" fill-rule="nonzero" fill-opacity="1" /><polyline clip-path="url(#clip232)" style="stroke:#000000; stroke-linecap:round; stroke-linejoin:round; stroke-width:2; stroke-opacity:0.1; fill:none" points="186.76,1445.72 2352.76,1445.72 "/>
<polyline clip-path="url(#clip232)" style="stroke:#000000; stroke-linecap:round; stroke-linejoin:round; stroke-width:2; stroke-opacity:0.1; fill:none" points="186.76,1171.94 2352.76,1171.94 "/>
<polyline clip-path="url(#clip232)" style="stroke:#000000; stroke-linecap:round; stroke-linejoin:round; stroke-width:2; stroke-opacity:0.1; fill:none" points="186.76,898.158 2352.76,898.158 "/>
<polyline clip-path="url(#clip232)" style="stroke:#000000; stroke-linecap:round; stroke-linejoin:round; stroke-width:2; stroke-opacity:0.1; fill:none" points="186.76,624.379 2352.76,624.379 "/>
<polyline clip-path="url(#clip232)" style="stroke:#000000; stroke-linecap:round; stroke-linejoin:round; stroke-width:2; stroke-opacity:0.1; fill:none" points="186.76,350.6 2352.76,350.6 "/>
<polyline clip-path="url(#clip232)" style="stroke:#000000; stroke-linecap:round; stroke-linejoin:round; stroke-width:2; stroke-opacity:0.1; fill:none" points="186.76,76.8205 2352.76,76.8205 "/>
<polyline clip-path="url(#clip230)" style="stroke:#000000; stroke-linecap:round; stroke-linejoin:round; stroke-width:4; stroke-opacity:1; fill:none" points="186.76,1486.45 186.76,47.2441 "/>
<polyline clip-path="url(#clip230)" style="stroke:#000000; stroke-linecap:round; stroke-linejoin:round; stroke-width:4; stroke-opacity:1; fill:none" points="186.76,1445.72 205.658,1445.72 "/>
<polyline clip-path="url(#clip230)" style="stroke:#000000; stroke-linecap:round; stroke-linejoin:round; stroke-width:4; stroke-opacity:1; fill:none" points="186.76,1171.94 205.658,1171.94 "/>
<polyline clip-path="url(#clip230)" style="stroke:#000000; stroke-linecap:round; stroke-linejoin:round; stroke-width:4; stroke-opacity:1; fill:none" points="186.76,898.158 205.658,898.158 "/>
<polyline clip-path="url(#clip230)" style="stroke:#000000; stroke-linecap:round; stroke-linejoin:round; stroke-width:4; stroke-opacity:1; fill:none" points="186.76,624.379 205.658,624.379 "/>
<polyline clip-path="url(#clip230)" style="stroke:#000000; stroke-linecap:round; stroke-linejoin:round; stroke-width:4; stroke-opacity:1; fill:none" points="186.76,350.6 205.658,350.6 "/>
<polyline clip-path="url(#clip230)" style="stroke:#000000; stroke-linecap:round; stroke-linejoin:round; stroke-width:4; stroke-opacity:1; fill:none" points="186.76,76.8205 205.658,76.8205 "/>
<path clip-path="url(#clip230)" d="M63.4226 1431.51 Q59.8115 1431.51 57.9828 1435.08 Q56.1773 1438.62 56.1773 1445.75 Q56.1773 1452.86 57.9828 1456.42 Q59.8115 1459.96 63.4226 1459.96 Q67.0569 1459.96 68.8624 1456.42 Q70.6911 1452.86 70.6911 1445.75 Q70.6911 1438.62 68.8624 1435.08 Q67.0569 1431.51 63.4226 1431.51 M63.4226 1427.81 Q69.2328 1427.81 72.2883 1432.42 Q75.367 1437 75.367 1445.75 Q75.367 1454.48 72.2883 1459.08 Q69.2328 1463.67 63.4226 1463.67 Q57.6125 1463.67 54.5338 1459.08 Q51.4782 1454.48 51.4782 1445.75 Q51.4782 1437 54.5338 1432.42 Q57.6125 1427.81 63.4226 1427.81 Z" fill="#000000" fill-rule="nonzero" fill-opacity="1" /><path clip-path="url(#clip230)" d="M83.5845 1457.12 L88.4688 1457.12 L88.4688 1463 L83.5845 1463 L83.5845 1457.12 Z" fill="#000000" fill-rule="nonzero" fill-opacity="1" /><path clip-path="url(#clip230)" d="M108.654 1431.51 Q105.043 1431.51 103.214 1435.08 Q101.409 1438.62 101.409 1445.75 Q101.409 1452.86 103.214 1456.42 Q105.043 1459.96 108.654 1459.96 Q112.288 1459.96 114.094 1456.42 Q115.922 1452.86 115.922 1445.75 Q115.922 1438.62 114.094 1435.08 Q112.288 1431.51 108.654 1431.51 M108.654 1427.81 Q114.464 1427.81 117.52 1432.42 Q120.598 1437 120.598 1445.75 Q120.598 1454.48 117.52 1459.08 Q114.464 1463.67 108.654 1463.67 Q102.844 1463.67 99.765 1459.08 Q96.7095 1454.48 96.7095 1445.75 Q96.7095 1437 99.765 1432.42 Q102.844 1427.81 108.654 1427.81 Z" fill="#000000" fill-rule="nonzero" fill-opacity="1" /><path clip-path="url(#clip230)" d="M138.816 1431.51 Q135.205 1431.51 133.376 1435.08 Q131.57 1438.62 131.57 1445.75 Q131.57 1452.86 133.376 1456.42 Q135.205 1459.96 138.816 1459.96 Q142.45 1459.96 144.256 1456.42 Q146.084 1452.86 146.084 1445.75 Q146.084 1438.62 144.256 1435.08 Q142.45 1431.51 138.816 1431.51 M138.816 1427.81 Q144.626 1427.81 147.681 1432.42 Q150.76 1437 150.76 1445.75 Q150.76 1454.48 147.681 1459.08 Q144.626 1463.67 138.816 1463.67 Q133.006 1463.67 129.927 1459.08 Q126.871 1454.48 126.871 1445.75 Q126.871 1437 129.927 1432.42 Q133.006 1427.81 138.816 1427.81 Z" fill="#000000" fill-rule="nonzero" fill-opacity="1" /><path clip-path="url(#clip230)" d="M64.6495 1157.74 Q61.0384 1157.74 59.2097 1161.3 Q57.4041 1164.84 57.4041 1171.97 Q57.4041 1179.08 59.2097 1182.64 Q61.0384 1186.18 64.6495 1186.18 Q68.2837 1186.18 70.0892 1182.64 Q71.9179 1179.08 71.9179 1171.97 Q71.9179 1164.84 70.0892 1161.3 Q68.2837 1157.74 64.6495 1157.74 M64.6495 1154.03 Q70.4596 1154.03 73.5152 1158.64 Q76.5938 1163.22 76.5938 1171.97 Q76.5938 1180.7 73.5152 1185.3 Q70.4596 1189.89 64.6495 1189.89 Q58.8393 1189.89 55.7606 1185.3 Q52.7051 1180.7 52.7051 1171.97 Q52.7051 1163.22 55.7606 1158.64 Q58.8393 1154.03 64.6495 1154.03 Z" fill="#000000" fill-rule="nonzero" fill-opacity="1" /><path clip-path="url(#clip230)" d="M84.8114 1183.34 L89.6956 1183.34 L89.6956 1189.22 L84.8114 1189.22 L84.8114 1183.34 Z" fill="#000000" fill-rule="nonzero" fill-opacity="1" /><path clip-path="url(#clip230)" d="M109.881 1157.74 Q106.27 1157.74 104.441 1161.3 Q102.635 1164.84 102.635 1171.97 Q102.635 1179.08 104.441 1182.64 Q106.27 1186.18 109.881 1186.18 Q113.515 1186.18 115.32 1182.64 Q117.149 1179.08 117.149 1171.97 Q117.149 1164.84 115.32 1161.3 Q113.515 1157.74 109.881 1157.74 M109.881 1154.03 Q115.691 1154.03 118.746 1158.64 Q121.825 1163.22 121.825 1171.97 Q121.825 1180.7 118.746 1185.3 Q115.691 1189.89 109.881 1189.89 Q104.071 1189.89 100.992 1185.3 Q97.9363 1180.7 97.9363 1171.97 Q97.9363 1163.22 100.992 1158.64 Q104.071 1154.03 109.881 1154.03 Z" fill="#000000" fill-rule="nonzero" fill-opacity="1" /><path clip-path="url(#clip230)" d="M130.853 1185.28 L138.492 1185.28 L138.492 1158.92 L130.182 1160.58 L130.182 1156.32 L138.445 1154.66 L143.121 1154.66 L143.121 1185.28 L150.76 1185.28 L150.76 1189.22 L130.853 1189.22 L130.853 1185.28 Z" fill="#000000" fill-rule="nonzero" fill-opacity="1" /><path clip-path="url(#clip230)" d="M65.0198 883.956 Q61.4087 883.956 59.58 887.521 Q57.7745 891.063 57.7745 898.192 Q57.7745 905.299 59.58 908.864 Q61.4087 912.405 65.0198 912.405 Q68.6541 912.405 70.4596 908.864 Q72.2883 905.299 72.2883 898.192 Q72.2883 891.063 70.4596 887.521 Q68.6541 883.956 65.0198 883.956 M65.0198 880.253 Q70.83 880.253 73.8855 884.859 Q76.9642 889.442 76.9642 898.192 Q76.9642 906.919 73.8855 911.526 Q70.83 916.109 65.0198 916.109 Q59.2097 916.109 56.131 911.526 Q53.0754 906.919 53.0754 898.192 Q53.0754 889.442 56.131 884.859 Q59.2097 880.253 65.0198 880.253 Z" fill="#000000" fill-rule="nonzero" fill-opacity="1" /><path clip-path="url(#clip230)" d="M85.1818 909.558 L90.066 909.558 L90.066 915.438 L85.1818 915.438 L85.1818 909.558 Z" fill="#000000" fill-rule="nonzero" fill-opacity="1" /><path clip-path="url(#clip230)" d="M110.251 883.956 Q106.64 883.956 104.811 887.521 Q103.006 891.063 103.006 898.192 Q103.006 905.299 104.811 908.864 Q106.64 912.405 110.251 912.405 Q113.885 912.405 115.691 908.864 Q117.52 905.299 117.52 898.192 Q117.52 891.063 115.691 887.521 Q113.885 883.956 110.251 883.956 M110.251 880.253 Q116.061 880.253 119.117 884.859 Q122.195 889.442 122.195 898.192 Q122.195 906.919 119.117 911.526 Q116.061 916.109 110.251 916.109 Q104.441 916.109 101.362 911.526 Q98.3067 906.919 98.3067 898.192 Q98.3067 889.442 101.362 884.859 Q104.441 880.253 110.251 880.253 Z" fill="#000000" fill-rule="nonzero" fill-opacity="1" /><path clip-path="url(#clip230)" d="M134.441 911.502 L150.76 911.502 L150.76 915.438 L128.816 915.438 L128.816 911.502 Q131.478 908.748 136.061 904.118 Q140.668 899.465 141.848 898.123 Q144.093 895.6 144.973 893.864 Q145.876 892.104 145.876 890.415 Q145.876 887.66 143.931 885.924 Q142.01 884.188 138.908 884.188 Q136.709 884.188 134.256 884.952 Q131.825 885.716 129.047 887.266 L129.047 882.544 Q131.871 881.41 134.325 880.831 Q136.779 880.253 138.816 880.253 Q144.186 880.253 147.38 882.938 Q150.575 885.623 150.575 890.114 Q150.575 892.243 149.765 894.165 Q148.978 896.063 146.871 898.655 Q146.293 899.327 143.191 902.544 Q140.089 905.739 134.441 911.502 Z" fill="#000000" fill-rule="nonzero" fill-opacity="1" /><path clip-path="url(#clip230)" d="M64.0708 610.177 Q60.4597 610.177 58.631 613.742 Q56.8254 617.284 56.8254 624.413 Q56.8254 631.52 58.631 635.085 Q60.4597 638.626 64.0708 638.626 Q67.705 638.626 69.5105 635.085 Q71.3392 631.52 71.3392 624.413 Q71.3392 617.284 69.5105 613.742 Q67.705 610.177 64.0708 610.177 M64.0708 606.474 Q69.8809 606.474 72.9365 611.08 Q76.0151 615.663 76.0151 624.413 Q76.0151 633.14 72.9365 637.747 Q69.8809 642.33 64.0708 642.33 Q58.2606 642.33 55.1819 637.747 Q52.1264 633.14 52.1264 624.413 Q52.1264 615.663 55.1819 611.08 Q58.2606 606.474 64.0708 606.474 Z" fill="#000000" fill-rule="nonzero" fill-opacity="1" /><path clip-path="url(#clip230)" d="M84.2327 635.779 L89.1169 635.779 L89.1169 641.659 L84.2327 641.659 L84.2327 635.779 Z" fill="#000000" fill-rule="nonzero" fill-opacity="1" /><path clip-path="url(#clip230)" d="M109.302 610.177 Q105.691 610.177 103.862 613.742 Q102.057 617.284 102.057 624.413 Q102.057 631.52 103.862 635.085 Q105.691 638.626 109.302 638.626 Q112.936 638.626 114.742 635.085 Q116.57 631.52 116.57 624.413 Q116.57 617.284 114.742 613.742 Q112.936 610.177 109.302 610.177 M109.302 606.474 Q115.112 606.474 118.168 611.08 Q121.246 615.663 121.246 624.413 Q121.246 633.14 118.168 637.747 Q115.112 642.33 109.302 642.33 Q103.492 642.33 100.413 637.747 Q97.3576 633.14 97.3576 624.413 Q97.3576 615.663 100.413 611.08 Q103.492 606.474 109.302 606.474 Z" fill="#000000" fill-rule="nonzero" fill-opacity="1" /><path clip-path="url(#clip230)" d="M143.631 623.024 Q146.987 623.742 148.862 626.011 Q150.76 628.279 150.76 631.612 Q150.76 636.728 147.242 639.529 Q143.723 642.33 137.242 642.33 Q135.066 642.33 132.751 641.89 Q130.459 641.473 128.006 640.617 L128.006 636.103 Q129.95 637.237 132.265 637.816 Q134.58 638.395 137.103 638.395 Q141.501 638.395 143.793 636.659 Q146.107 634.923 146.107 631.612 Q146.107 628.557 143.955 626.844 Q141.825 625.108 138.006 625.108 L133.978 625.108 L133.978 621.265 L138.191 621.265 Q141.64 621.265 143.468 619.899 Q145.297 618.511 145.297 615.918 Q145.297 613.256 143.399 611.844 Q141.524 610.409 138.006 610.409 Q136.084 610.409 133.885 610.825 Q131.686 611.242 129.047 612.122 L129.047 607.955 Q131.709 607.214 134.024 606.844 Q136.362 606.474 138.422 606.474 Q143.746 606.474 146.848 608.904 Q149.95 611.312 149.95 615.432 Q149.95 618.302 148.306 620.293 Q146.663 622.261 143.631 623.024 Z" fill="#000000" fill-rule="nonzero" fill-opacity="1" /><path clip-path="url(#clip230)" d="M62.9365 336.398 Q59.3254 336.398 57.4967 339.963 Q55.6912 343.505 55.6912 350.634 Q55.6912 357.741 57.4967 361.306 Q59.3254 364.847 62.9365 364.847 Q66.5707 364.847 68.3763 361.306 Q70.205 357.741 70.205 350.634 Q70.205 343.505 68.3763 339.963 Q66.5707 336.398 62.9365 336.398 M62.9365 332.695 Q68.7467 332.695 71.8022 337.301 Q74.8809 341.884 74.8809 350.634 Q74.8809 359.361 71.8022 363.968 Q68.7467 368.551 62.9365 368.551 Q57.1264 368.551 54.0477 363.968 Q50.9921 359.361 50.9921 350.634 Q50.9921 341.884 54.0477 337.301 Q57.1264 332.695 62.9365 332.695 Z" fill="#000000" fill-rule="nonzero" fill-opacity="1" /><path clip-path="url(#clip230)" d="M83.0984 362 L87.9827 362 L87.9827 367.88 L83.0984 367.88 L83.0984 362 Z" fill="#000000" fill-rule="nonzero" fill-opacity="1" /><path clip-path="url(#clip230)" d="M108.168 336.398 Q104.557 336.398 102.728 339.963 Q100.922 343.505 100.922 350.634 Q100.922 357.741 102.728 361.306 Q104.557 364.847 108.168 364.847 Q111.802 364.847 113.608 361.306 Q115.436 357.741 115.436 350.634 Q115.436 343.505 113.608 339.963 Q111.802 336.398 108.168 336.398 M108.168 332.695 Q113.978 332.695 117.033 337.301 Q120.112 341.884 120.112 350.634 Q120.112 359.361 117.033 363.968 Q113.978 368.551 108.168 368.551 Q102.358 368.551 99.2789 363.968 Q96.2234 359.361 96.2234 350.634 Q96.2234 341.884 99.2789 337.301 Q102.358 332.695 108.168 332.695 Z" fill="#000000" fill-rule="nonzero" fill-opacity="1" /><path clip-path="url(#clip230)" d="M141.177 337.394 L129.371 355.843 L141.177 355.843 L141.177 337.394 M139.95 333.32 L145.83 333.32 L145.83 355.843 L150.76 355.843 L150.76 359.731 L145.83 359.731 L145.83 367.88 L141.177 367.88 L141.177 359.731 L125.575 359.731 L125.575 355.218 L139.95 333.32 Z" fill="#000000" fill-rule="nonzero" fill-opacity="1" /><path clip-path="url(#clip230)" d="M64.418 62.6192 Q60.8069 62.6192 58.9782 66.184 Q57.1726 69.7256 57.1726 76.8552 Q57.1726 83.9617 58.9782 87.5265 Q60.8069 91.0681 64.418 91.0681 Q68.0522 91.0681 69.8578 87.5265 Q71.6865 83.9617 71.6865 76.8552 Q71.6865 69.7256 69.8578 66.184 Q68.0522 62.6192 64.418 62.6192 M64.418 58.9155 Q70.2281 58.9155 73.2837 63.522 Q76.3624 68.1053 76.3624 76.8552 Q76.3624 85.582 73.2837 90.1885 Q70.2281 94.7718 64.418 94.7718 Q58.6078 94.7718 55.5291 90.1885 Q52.4736 85.582 52.4736 76.8552 Q52.4736 68.1053 55.5291 63.522 Q58.6078 58.9155 64.418 58.9155 Z" fill="#000000" fill-rule="nonzero" fill-opacity="1" /><path clip-path="url(#clip230)" d="M84.5799 88.2209 L89.4641 88.2209 L89.4641 94.1005 L84.5799 94.1005 L84.5799 88.2209 Z" fill="#000000" fill-rule="nonzero" fill-opacity="1" /><path clip-path="url(#clip230)" d="M109.649 62.6192 Q106.038 62.6192 104.209 66.184 Q102.404 69.7256 102.404 76.8552 Q102.404 83.9617 104.209 87.5265 Q106.038 91.0681 109.649 91.0681 Q113.283 91.0681 115.089 87.5265 Q116.918 83.9617 116.918 76.8552 Q116.918 69.7256 115.089 66.184 Q113.283 62.6192 109.649 62.6192 M109.649 58.9155 Q115.459 58.9155 118.515 63.522 Q121.594 68.1053 121.594 76.8552 Q121.594 85.582 118.515 90.1885 Q115.459 94.7718 109.649 94.7718 Q103.839 94.7718 100.76 90.1885 Q97.7048 85.582 97.7048 76.8552 Q97.7048 68.1053 100.76 63.522 Q103.839 58.9155 109.649 58.9155 Z" fill="#000000" fill-rule="nonzero" fill-opacity="1" /><path clip-path="url(#clip230)" d="M129.857 59.5405 L148.214 59.5405 L148.214 63.4757 L134.14 63.4757 L134.14 71.9478 Q135.158 71.6006 136.177 71.4386 Q137.195 71.2534 138.214 71.2534 Q144.001 71.2534 147.38 74.4247 Q150.76 77.596 150.76 83.0126 Q150.76 88.5913 147.288 91.6931 Q143.816 94.7718 137.496 94.7718 Q135.32 94.7718 133.052 94.4014 Q130.807 94.0311 128.399 93.2903 L128.399 88.5913 Q130.482 89.7255 132.705 90.2811 Q134.927 90.8366 137.404 90.8366 Q141.408 90.8366 143.746 88.7302 Q146.084 86.6237 146.084 83.0126 Q146.084 79.4015 143.746 77.295 Q141.408 75.1886 137.404 75.1886 Q135.529 75.1886 133.654 75.6052 Q131.802 76.0219 129.857 76.9015 L129.857 59.5405 Z" fill="#000000" fill-rule="nonzero" fill-opacity="1" /><polyline clip-path="url(#clip232)" style="stroke:#000000; stroke-linecap:round; stroke-linejoin:round; stroke-width:4; stroke-opacity:1; fill:none" points="248.062,1277.18 248.062,1007.21 "/>
<polyline clip-path="url(#clip232)" style="stroke:#000000; stroke-linecap:round; stroke-linejoin:round; stroke-width:4; stroke-opacity:1; fill:none" points="345.303,1336.54 345.303,1041.56 "/>
<polyline clip-path="url(#clip232)" style="stroke:#000000; stroke-linecap:round; stroke-linejoin:round; stroke-width:4; stroke-opacity:1; fill:none" points="442.544,1361.35 442.544,1193.64 "/>
<polyline clip-path="url(#clip232)" style="stroke:#000000; stroke-linecap:round; stroke-linejoin:round; stroke-width:4; stroke-opacity:1; fill:none" points="539.785,1236.9 539.785,985.617 "/>
<polyline clip-path="url(#clip232)" style="stroke:#000000; stroke-linecap:round; stroke-linejoin:round; stroke-width:4; stroke-opacity:1; fill:none" points="637.292,1296.38 637.292,1091.93 "/>
<polyline clip-path="url(#clip232)" style="stroke:#000000; stroke-linecap:round; stroke-linejoin:round; stroke-width:4; stroke-opacity:1; fill:none" points="734.533,1173.46 734.533,940.796 "/>
<polyline clip-path="url(#clip232)" style="stroke:#000000; stroke-linecap:round; stroke-linejoin:round; stroke-width:4; stroke-opacity:1; fill:none" points="831.774,1317.52 831.774,1162.66 "/>
<polyline clip-path="url(#clip232)" style="stroke:#000000; stroke-linecap:round; stroke-linejoin:round; stroke-width:4; stroke-opacity:1; fill:none" points="929.015,1445.67 929.015,1346.74 "/>
<polyline clip-path="url(#clip232)" style="stroke:#000000; stroke-linecap:round; stroke-linejoin:round; stroke-width:4; stroke-opacity:1; fill:none" points="1026.52,1348.45 1026.52,1191.98 "/>
<polyline clip-path="url(#clip232)" style="stroke:#000000; stroke-linecap:round; stroke-linejoin:round; stroke-width:4; stroke-opacity:1; fill:none" points="1123.76,1397.9 1123.76,1267.89 "/>
<polyline clip-path="url(#clip232)" style="stroke:#000000; stroke-linecap:round; stroke-linejoin:round; stroke-width:4; stroke-opacity:1; fill:none" points="1221,1375.96 1221,1237.17 "/>
<polyline clip-path="url(#clip232)" style="stroke:#000000; stroke-linecap:round; stroke-linejoin:round; stroke-width:4; stroke-opacity:1; fill:none" points="1318.25,1293.05 1318.25,1108.86 "/>
<polyline clip-path="url(#clip232)" style="stroke:#000000; stroke-linecap:round; stroke-linejoin:round; stroke-width:4; stroke-opacity:1; fill:none" points="1415.75,1323.13 1415.75,1155.05 "/>
<polyline clip-path="url(#clip232)" style="stroke:#000000; stroke-linecap:round; stroke-linejoin:round; stroke-width:4; stroke-opacity:1; fill:none" points="1512.99,636.339 1512.99,87.9763 "/>
<polyline clip-path="url(#clip232)" style="stroke:#000000; stroke-linecap:round; stroke-linejoin:round; stroke-width:4; stroke-opacity:1; fill:none" points="1610.23,1068.31 1610.23,782.437 "/>
<polyline clip-path="url(#clip232)" style="stroke:#000000; stroke-linecap:round; stroke-linejoin:round; stroke-width:4; stroke-opacity:1; fill:none" points="1707.48,1424.85 1707.48,1324.54 "/>
<polyline clip-path="url(#clip232)" style="stroke:#000000; stroke-linecap:round; stroke-linejoin:round; stroke-width:4; stroke-opacity:1; fill:none" points="1804.98,1379.59 1804.98,1247.96 "/>
<polyline clip-path="url(#clip232)" style="stroke:#000000; stroke-linecap:round; stroke-linejoin:round; stroke-width:4; stroke-opacity:1; fill:none" points="1902.22,1389.03 1902.22,1276.13 "/>
<polyline clip-path="url(#clip232)" style="stroke:#000000; stroke-linecap:round; stroke-linejoin:round; stroke-width:4; stroke-opacity:1; fill:none" points="1999.46,1257.32 1999.46,1084.35 "/>
<polyline clip-path="url(#clip232)" style="stroke:#000000; stroke-linecap:round; stroke-linejoin:round; stroke-width:4; stroke-opacity:1; fill:none" points="2096.71,1445.72 2096.71,1445.72 "/>
<polyline clip-path="url(#clip232)" style="stroke:#000000; stroke-linecap:round; stroke-linejoin:round; stroke-width:4; stroke-opacity:1; fill:none" points="2194.21,1374.13 2194.21,1179.99 "/>
<polyline clip-path="url(#clip232)" style="stroke:#000000; stroke-linecap:round; stroke-linejoin:round; stroke-width:4; stroke-opacity:1; fill:none" points="2291.45,1408.9 2291.45,1232.51 "/>
<line clip-path="url(#clip232)" x1="264.062" y1="1277.18" x2="232.062" y2="1277.18" style="stroke:#000000; stroke-width:3.2; stroke-opacity:1"/>
<line clip-path="url(#clip232)" x1="264.062" y1="1007.21" x2="232.062" y2="1007.21" style="stroke:#000000; stroke-width:3.2; stroke-opacity:1"/>
<line clip-path="url(#clip232)" x1="361.303" y1="1336.54" x2="329.303" y2="1336.54" style="stroke:#000000; stroke-width:3.2; stroke-opacity:1"/>
<line clip-path="url(#clip232)" x1="361.303" y1="1041.56" x2="329.303" y2="1041.56" style="stroke:#000000; stroke-width:3.2; stroke-opacity:1"/>
<line clip-path="url(#clip232)" x1="458.544" y1="1361.35" x2="426.544" y2="1361.35" style="stroke:#000000; stroke-width:3.2; stroke-opacity:1"/>
<line clip-path="url(#clip232)" x1="458.544" y1="1193.64" x2="426.544" y2="1193.64" style="stroke:#000000; stroke-width:3.2; stroke-opacity:1"/>
<line clip-path="url(#clip232)" x1="555.785" y1="1236.9" x2="523.785" y2="1236.9" style="stroke:#000000; stroke-width:3.2; stroke-opacity:1"/>
<line clip-path="url(#clip232)" x1="555.785" y1="985.617" x2="523.785" y2="985.617" style="stroke:#000000; stroke-width:3.2; stroke-opacity:1"/>
<line clip-path="url(#clip232)" x1="653.292" y1="1296.38" x2="621.292" y2="1296.38" style="stroke:#000000; stroke-width:3.2; stroke-opacity:1"/>
<line clip-path="url(#clip232)" x1="653.292" y1="1091.93" x2="621.292" y2="1091.93" style="stroke:#000000; stroke-width:3.2; stroke-opacity:1"/>
<line clip-path="url(#clip232)" x1="750.533" y1="1173.46" x2="718.533" y2="1173.46" style="stroke:#000000; stroke-width:3.2; stroke-opacity:1"/>
<line clip-path="url(#clip232)" x1="750.533" y1="940.796" x2="718.533" y2="940.796" style="stroke:#000000; stroke-width:3.2; stroke-opacity:1"/>
<line clip-path="url(#clip232)" x1="847.774" y1="1317.52" x2="815.774" y2="1317.52" style="stroke:#000000; stroke-width:3.2; stroke-opacity:1"/>
<line clip-path="url(#clip232)" x1="847.774" y1="1162.66" x2="815.774" y2="1162.66" style="stroke:#000000; stroke-width:3.2; stroke-opacity:1"/>
<line clip-path="url(#clip232)" x1="945.015" y1="1445.67" x2="913.015" y2="1445.67" style="stroke:#000000; stroke-width:3.2; stroke-opacity:1"/>
<line clip-path="url(#clip232)" x1="945.015" y1="1346.74" x2="913.015" y2="1346.74" style="stroke:#000000; stroke-width:3.2; stroke-opacity:1"/>
<line clip-path="url(#clip232)" x1="1042.52" y1="1348.45" x2="1010.52" y2="1348.45" style="stroke:#000000; stroke-width:3.2; stroke-opacity:1"/>
<line clip-path="url(#clip232)" x1="1042.52" y1="1191.98" x2="1010.52" y2="1191.98" style="stroke:#000000; stroke-width:3.2; stroke-opacity:1"/>
<line clip-path="url(#clip232)" x1="1139.76" y1="1397.9" x2="1107.76" y2="1397.9" style="stroke:#000000; stroke-width:3.2; stroke-opacity:1"/>
<line clip-path="url(#clip232)" x1="1139.76" y1="1267.89" x2="1107.76" y2="1267.89" style="stroke:#000000; stroke-width:3.2; stroke-opacity:1"/>
<line clip-path="url(#clip232)" x1="1237" y1="1375.96" x2="1205" y2="1375.96" style="stroke:#000000; stroke-width:3.2; stroke-opacity:1"/>
<line clip-path="url(#clip232)" x1="1237" y1="1237.17" x2="1205" y2="1237.17" style="stroke:#000000; stroke-width:3.2; stroke-opacity:1"/>
<line clip-path="url(#clip232)" x1="1334.25" y1="1293.05" x2="1302.25" y2="1293.05" style="stroke:#000000; stroke-width:3.2; stroke-opacity:1"/>
<line clip-path="url(#clip232)" x1="1334.25" y1="1108.86" x2="1302.25" y2="1108.86" style="stroke:#000000; stroke-width:3.2; stroke-opacity:1"/>
<line clip-path="url(#clip232)" x1="1431.75" y1="1323.13" x2="1399.75" y2="1323.13" style="stroke:#000000; stroke-width:3.2; stroke-opacity:1"/>
<line clip-path="url(#clip232)" x1="1431.75" y1="1155.05" x2="1399.75" y2="1155.05" style="stroke:#000000; stroke-width:3.2; stroke-opacity:1"/>
<line clip-path="url(#clip232)" x1="1528.99" y1="636.339" x2="1496.99" y2="636.339" style="stroke:#000000; stroke-width:3.2; stroke-opacity:1"/>
<line clip-path="url(#clip232)" x1="1528.99" y1="87.9763" x2="1496.99" y2="87.9763" style="stroke:#000000; stroke-width:3.2; stroke-opacity:1"/>
<line clip-path="url(#clip232)" x1="1626.23" y1="1068.31" x2="1594.23" y2="1068.31" style="stroke:#000000; stroke-width:3.2; stroke-opacity:1"/>
<line clip-path="url(#clip232)" x1="1626.23" y1="782.437" x2="1594.23" y2="782.437" style="stroke:#000000; stroke-width:3.2; stroke-opacity:1"/>
<line clip-path="url(#clip232)" x1="1723.48" y1="1424.85" x2="1691.48" y2="1424.85" style="stroke:#000000; stroke-width:3.2; stroke-opacity:1"/>
<line clip-path="url(#clip232)" x1="1723.48" y1="1324.54" x2="1691.48" y2="1324.54" style="stroke:#000000; stroke-width:3.2; stroke-opacity:1"/>
<line clip-path="url(#clip232)" x1="1820.98" y1="1379.59" x2="1788.98" y2="1379.59" style="stroke:#000000; stroke-width:3.2; stroke-opacity:1"/>
<line clip-path="url(#clip232)" x1="1820.98" y1="1247.96" x2="1788.98" y2="1247.96" style="stroke:#000000; stroke-width:3.2; stroke-opacity:1"/>
<line clip-path="url(#clip232)" x1="1918.22" y1="1389.03" x2="1886.22" y2="1389.03" style="stroke:#000000; stroke-width:3.2; stroke-opacity:1"/>
<line clip-path="url(#clip232)" x1="1918.22" y1="1276.13" x2="1886.22" y2="1276.13" style="stroke:#000000; stroke-width:3.2; stroke-opacity:1"/>
<line clip-path="url(#clip232)" x1="2015.46" y1="1257.32" x2="1983.46" y2="1257.32" style="stroke:#000000; stroke-width:3.2; stroke-opacity:1"/>
<line clip-path="url(#clip232)" x1="2015.46" y1="1084.35" x2="1983.46" y2="1084.35" style="stroke:#000000; stroke-width:3.2; stroke-opacity:1"/>
<line clip-path="url(#clip232)" x1="2112.71" y1="1445.72" x2="2080.71" y2="1445.72" style="stroke:#000000; stroke-width:3.2; stroke-opacity:1"/>
<line clip-path="url(#clip232)" x1="2112.71" y1="1445.72" x2="2080.71" y2="1445.72" style="stroke:#000000; stroke-width:3.2; stroke-opacity:1"/>
<line clip-path="url(#clip232)" x1="2210.21" y1="1374.13" x2="2178.21" y2="1374.13" style="stroke:#000000; stroke-width:3.2; stroke-opacity:1"/>
<line clip-path="url(#clip232)" x1="2210.21" y1="1179.99" x2="2178.21" y2="1179.99" style="stroke:#000000; stroke-width:3.2; stroke-opacity:1"/>
<line clip-path="url(#clip232)" x1="2307.45" y1="1408.9" x2="2275.45" y2="1408.9" style="stroke:#000000; stroke-width:3.2; stroke-opacity:1"/>
<line clip-path="url(#clip232)" x1="2307.45" y1="1232.51" x2="2275.45" y2="1232.51" style="stroke:#000000; stroke-width:3.2; stroke-opacity:1"/>
<circle clip-path="url(#clip232)" cx="248.062" cy="1142.19" r="14.4" fill="#009af9" fill-rule="evenodd" fill-opacity="1" stroke="#000000" stroke-opacity="1" stroke-width="3.2"/>
<circle clip-path="url(#clip232)" cx="345.303" cy="1189.05" r="14.4" fill="#009af9" fill-rule="evenodd" fill-opacity="1" stroke="#000000" stroke-opacity="1" stroke-width="3.2"/>
<circle clip-path="url(#clip232)" cx="442.544" cy="1277.5" r="14.4" fill="#009af9" fill-rule="evenodd" fill-opacity="1" stroke="#000000" stroke-opacity="1" stroke-width="3.2"/>
<circle clip-path="url(#clip232)" cx="539.785" cy="1111.26" r="14.4" fill="#009af9" fill-rule="evenodd" fill-opacity="1" stroke="#000000" stroke-opacity="1" stroke-width="3.2"/>
<circle clip-path="url(#clip232)" cx="637.292" cy="1194.16" r="14.4" fill="#009af9" fill-rule="evenodd" fill-opacity="1" stroke="#000000" stroke-opacity="1" stroke-width="3.2"/>
<circle clip-path="url(#clip232)" cx="734.533" cy="1057.13" r="14.4" fill="#009af9" fill-rule="evenodd" fill-opacity="1" stroke="#000000" stroke-opacity="1" stroke-width="3.2"/>
<circle clip-path="url(#clip232)" cx="831.774" cy="1240.09" r="14.4" fill="#009af9" fill-rule="evenodd" fill-opacity="1" stroke="#000000" stroke-opacity="1" stroke-width="3.2"/>
<circle clip-path="url(#clip232)" cx="929.015" cy="1396.21" r="14.4" fill="#009af9" fill-rule="evenodd" fill-opacity="1" stroke="#000000" stroke-opacity="1" stroke-width="3.2"/>
<circle clip-path="url(#clip232)" cx="1026.52" cy="1270.22" r="14.4" fill="#009af9" fill-rule="evenodd" fill-opacity="1" stroke="#000000" stroke-opacity="1" stroke-width="3.2"/>
<circle clip-path="url(#clip232)" cx="1123.76" cy="1332.89" r="14.4" fill="#009af9" fill-rule="evenodd" fill-opacity="1" stroke="#000000" stroke-opacity="1" stroke-width="3.2"/>
<circle clip-path="url(#clip232)" cx="1221" cy="1306.56" r="14.4" fill="#009af9" fill-rule="evenodd" fill-opacity="1" stroke="#000000" stroke-opacity="1" stroke-width="3.2"/>
<circle clip-path="url(#clip232)" cx="1318.25" cy="1200.96" r="14.4" fill="#009af9" fill-rule="evenodd" fill-opacity="1" stroke="#000000" stroke-opacity="1" stroke-width="3.2"/>
<circle clip-path="url(#clip232)" cx="1415.75" cy="1239.09" r="14.4" fill="#009af9" fill-rule="evenodd" fill-opacity="1" stroke="#000000" stroke-opacity="1" stroke-width="3.2"/>
<circle clip-path="url(#clip232)" cx="1512.99" cy="362.157" r="14.4" fill="#009af9" fill-rule="evenodd" fill-opacity="1" stroke="#000000" stroke-opacity="1" stroke-width="3.2"/>
<circle clip-path="url(#clip232)" cx="1610.23" cy="925.375" r="14.4" fill="#009af9" fill-rule="evenodd" fill-opacity="1" stroke="#000000" stroke-opacity="1" stroke-width="3.2"/>
<circle clip-path="url(#clip232)" cx="1707.48" cy="1374.7" r="14.4" fill="#009af9" fill-rule="evenodd" fill-opacity="1" stroke="#000000" stroke-opacity="1" stroke-width="3.2"/>
<circle clip-path="url(#clip232)" cx="1804.98" cy="1313.77" r="14.4" fill="#009af9" fill-rule="evenodd" fill-opacity="1" stroke="#000000" stroke-opacity="1" stroke-width="3.2"/>
<circle clip-path="url(#clip232)" cx="1902.22" cy="1332.58" r="14.4" fill="#009af9" fill-rule="evenodd" fill-opacity="1" stroke="#000000" stroke-opacity="1" stroke-width="3.2"/>
<circle clip-path="url(#clip232)" cx="1999.46" cy="1170.84" r="14.4" fill="#009af9" fill-rule="evenodd" fill-opacity="1" stroke="#000000" stroke-opacity="1" stroke-width="3.2"/>
<circle clip-path="url(#clip232)" cx="2096.71" cy="1445.72" r="14.4" fill="#009af9" fill-rule="evenodd" fill-opacity="1" stroke="#000000" stroke-opacity="1" stroke-width="3.2"/>
<circle clip-path="url(#clip232)" cx="2194.21" cy="1277.06" r="14.4" fill="#009af9" fill-rule="evenodd" fill-opacity="1" stroke="#000000" stroke-opacity="1" stroke-width="3.2"/>
<circle clip-path="url(#clip232)" cx="2291.45" cy="1320.7" r="14.4" fill="#009af9" fill-rule="evenodd" fill-opacity="1" stroke="#000000" stroke-opacity="1" stroke-width="3.2"/>
<path clip-path="url(#clip230)" d="M1642.59 198.898 L2280.56 198.898 L2280.56 95.2176 L1642.59 95.2176  Z" fill="#ffffff" fill-rule="evenodd" fill-opacity="1"/>
<polyline clip-path="url(#clip230)" style="stroke:#000000; stroke-linecap:round; stroke-linejoin:round; stroke-width:4; stroke-opacity:1; fill:none" points="1642.59,198.898 2280.56,198.898 2280.56,95.2176 1642.59,95.2176 1642.59,198.898 "/>
<circle clip-path="url(#clip230)" cx="1738.86" cy="147.058" r="23.04" fill="#009af9" fill-rule="evenodd" fill-opacity="1" stroke="#000000" stroke-opacity="1" stroke-width="5.12"/>
<path clip-path="url(#clip230)" d="M1835.13 129.778 L1840.15 129.778 L1849.73 143.99 L1859.25 129.778 L1864.27 129.778 L1852.05 147.879 L1852.05 164.338 L1847.35 164.338 L1847.35 147.879 L1835.13 129.778 Z" fill="#000000" fill-rule="nonzero" fill-opacity="1" /><path clip-path="url(#clip230)" d="M1884.52 150.31 L1884.52 152.393 L1864.94 152.393 Q1865.22 156.791 1867.58 159.106 Q1869.96 161.398 1874.2 161.398 Q1876.65 161.398 1878.95 160.796 Q1881.26 160.194 1883.53 158.99 L1883.53 163.018 Q1881.24 163.99 1878.83 164.5 Q1876.42 165.009 1873.95 165.009 Q1867.74 165.009 1864.11 161.398 Q1860.5 157.787 1860.5 151.629 Q1860.5 145.264 1863.92 141.537 Q1867.37 137.787 1873.2 137.787 Q1878.44 137.787 1881.47 141.166 Q1884.52 144.523 1884.52 150.31 M1880.26 149.06 Q1880.22 145.565 1878.3 143.481 Q1876.4 141.398 1873.25 141.398 Q1869.69 141.398 1867.53 143.412 Q1865.4 145.426 1865.08 149.083 L1880.26 149.06 Z" fill="#000000" fill-rule="nonzero" fill-opacity="1" /><path clip-path="url(#clip230)" d="M1903.3 151.305 Q1898.13 151.305 1896.14 152.486 Q1894.15 153.666 1894.15 156.514 Q1894.15 158.782 1895.63 160.125 Q1897.14 161.444 1899.71 161.444 Q1903.25 161.444 1905.38 158.944 Q1907.53 156.421 1907.53 152.254 L1907.53 151.305 L1903.3 151.305 M1911.79 149.546 L1911.79 164.338 L1907.53 164.338 L1907.53 160.402 Q1906.07 162.763 1903.9 163.898 Q1901.72 165.009 1898.57 165.009 Q1894.59 165.009 1892.23 162.787 Q1889.89 160.541 1889.89 156.791 Q1889.89 152.416 1892.81 150.194 Q1895.75 147.972 1901.56 147.972 L1907.53 147.972 L1907.53 147.555 Q1907.53 144.615 1905.59 143.018 Q1903.67 141.398 1900.17 141.398 Q1897.95 141.398 1895.84 141.93 Q1893.74 142.463 1891.79 143.527 L1891.79 139.592 Q1894.13 138.69 1896.33 138.25 Q1898.53 137.787 1900.61 137.787 Q1906.24 137.787 1909.01 140.703 Q1911.79 143.62 1911.79 149.546 Z" fill="#000000" fill-rule="nonzero" fill-opacity="1" /><path clip-path="url(#clip230)" d="M1935.59 142.393 Q1934.87 141.977 1934.01 141.791 Q1933.18 141.583 1932.16 141.583 Q1928.55 141.583 1926.61 143.944 Q1924.69 146.282 1924.69 150.68 L1924.69 164.338 L1920.4 164.338 L1920.4 138.412 L1924.69 138.412 L1924.69 142.44 Q1926.03 140.078 1928.18 138.944 Q1930.33 137.787 1933.41 137.787 Q1933.85 137.787 1934.38 137.856 Q1934.92 137.903 1935.57 138.018 L1935.59 142.393 Z" fill="#000000" fill-rule="nonzero" fill-opacity="1" /><path clip-path="url(#clip230)" d="M1940.06 128.319 L1944.32 128.319 L1944.32 164.338 L1940.06 164.338 L1940.06 128.319 Z" fill="#000000" fill-rule="nonzero" fill-opacity="1" /><path clip-path="url(#clip230)" d="M1964.01 166.745 Q1962.21 171.375 1960.5 172.787 Q1958.78 174.199 1955.91 174.199 L1952.51 174.199 L1952.51 170.634 L1955.01 170.634 Q1956.77 170.634 1957.74 169.8 Q1958.71 168.967 1959.89 165.865 L1960.66 163.921 L1950.17 138.412 L1954.69 138.412 L1962.79 158.689 L1970.89 138.412 L1975.4 138.412 L1964.01 166.745 Z" fill="#000000" fill-rule="nonzero" fill-opacity="1" /><path clip-path="url(#clip230)" d="M2001.21 133.62 L2001.21 160.495 L2006.86 160.495 Q2014.01 160.495 2017.32 157.254 Q2020.66 154.014 2020.66 147.023 Q2020.66 140.078 2017.32 136.861 Q2014.01 133.62 2006.86 133.62 L2001.21 133.62 M1996.54 129.778 L2006.14 129.778 Q2016.19 129.778 2020.89 133.967 Q2025.59 138.134 2025.59 147.023 Q2025.59 155.958 2020.87 160.148 Q2016.14 164.338 2006.14 164.338 L1996.54 164.338 L1996.54 129.778 Z" fill="#000000" fill-rule="nonzero" fill-opacity="1" /><path clip-path="url(#clip230)" d="M2055.03 150.31 L2055.03 152.393 L2035.45 152.393 Q2035.73 156.791 2038.09 159.106 Q2040.47 161.398 2044.71 161.398 Q2047.16 161.398 2049.45 160.796 Q2051.77 160.194 2054.04 158.99 L2054.04 163.018 Q2051.75 163.99 2049.34 164.5 Q2046.93 165.009 2044.45 165.009 Q2038.25 165.009 2034.62 161.398 Q2031 157.787 2031 151.629 Q2031 145.264 2034.43 141.537 Q2037.88 137.787 2043.71 137.787 Q2048.94 137.787 2051.98 141.166 Q2055.03 144.523 2055.03 150.31 M2050.77 149.06 Q2050.73 145.565 2048.81 143.481 Q2046.91 141.398 2043.76 141.398 Q2040.19 141.398 2038.04 143.412 Q2035.91 145.426 2035.59 149.083 L2050.77 149.06 Z" fill="#000000" fill-rule="nonzero" fill-opacity="1" /><path clip-path="url(#clip230)" d="M2073.81 151.305 Q2068.64 151.305 2066.65 152.486 Q2064.66 153.666 2064.66 156.514 Q2064.66 158.782 2066.14 160.125 Q2067.65 161.444 2070.22 161.444 Q2073.76 161.444 2075.89 158.944 Q2078.04 156.421 2078.04 152.254 L2078.04 151.305 L2073.81 151.305 M2082.3 149.546 L2082.3 164.338 L2078.04 164.338 L2078.04 160.402 Q2076.58 162.763 2074.41 163.898 Q2072.23 165.009 2069.08 165.009 Q2065.1 165.009 2062.74 162.787 Q2060.4 160.541 2060.4 156.791 Q2060.4 152.416 2063.32 150.194 Q2066.26 147.972 2072.07 147.972 L2078.04 147.972 L2078.04 147.555 Q2078.04 144.615 2076.1 143.018 Q2074.18 141.398 2070.68 141.398 Q2068.46 141.398 2066.35 141.93 Q2064.25 142.463 2062.3 143.527 L2062.3 139.592 Q2064.64 138.69 2066.84 138.25 Q2069.04 137.787 2071.12 137.787 Q2076.75 137.787 2079.52 140.703 Q2082.3 143.62 2082.3 149.546 Z" fill="#000000" fill-rule="nonzero" fill-opacity="1" /><path clip-path="url(#clip230)" d="M2095.29 131.051 L2095.29 138.412 L2104.06 138.412 L2104.06 141.722 L2095.29 141.722 L2095.29 155.796 Q2095.29 158.967 2096.14 159.87 Q2097.02 160.773 2099.68 160.773 L2104.06 160.773 L2104.06 164.338 L2099.68 164.338 Q2094.75 164.338 2092.88 162.509 Q2091 160.657 2091 155.796 L2091 141.722 L2087.88 141.722 L2087.88 138.412 L2091 138.412 L2091 131.051 L2095.29 131.051 Z" fill="#000000" fill-rule="nonzero" fill-opacity="1" /><path clip-path="url(#clip230)" d="M2131.21 148.689 L2131.21 164.338 L2126.95 164.338 L2126.95 148.828 Q2126.95 145.148 2125.52 143.319 Q2124.08 141.49 2121.21 141.49 Q2117.76 141.49 2115.77 143.69 Q2113.78 145.889 2113.78 149.685 L2113.78 164.338 L2109.5 164.338 L2109.5 128.319 L2113.78 128.319 L2113.78 142.44 Q2115.31 140.102 2117.37 138.944 Q2119.45 137.787 2122.16 137.787 Q2126.63 137.787 2128.92 140.565 Q2131.21 143.319 2131.21 148.689 Z" fill="#000000" fill-rule="nonzero" fill-opacity="1" /><path clip-path="url(#clip230)" d="M2171.35 148.134 Q2172.86 148.643 2174.27 150.31 Q2175.7 151.977 2177.14 154.893 L2181.88 164.338 L2176.86 164.338 L2172.44 155.472 Q2170.73 152 2169.11 150.865 Q2167.51 149.731 2164.73 149.731 L2159.64 149.731 L2159.64 164.338 L2154.96 164.338 L2154.96 129.778 L2165.52 129.778 Q2171.44 129.778 2174.36 132.254 Q2177.28 134.731 2177.28 139.731 Q2177.28 142.995 2175.75 145.148 Q2174.24 147.301 2171.35 148.134 M2159.64 133.62 L2159.64 145.889 L2165.52 145.889 Q2168.9 145.889 2170.61 144.338 Q2172.35 142.764 2172.35 139.731 Q2172.35 136.699 2170.61 135.171 Q2168.9 133.62 2165.52 133.62 L2159.64 133.62 Z" fill="#000000" fill-rule="nonzero" fill-opacity="1" /><path clip-path="url(#clip230)" d="M2198.46 151.305 Q2193.3 151.305 2191.3 152.486 Q2189.31 153.666 2189.31 156.514 Q2189.31 158.782 2190.8 160.125 Q2192.3 161.444 2194.87 161.444 Q2198.41 161.444 2200.54 158.944 Q2202.69 156.421 2202.69 152.254 L2202.69 151.305 L2198.46 151.305 M2206.95 149.546 L2206.95 164.338 L2202.69 164.338 L2202.69 160.402 Q2201.24 162.763 2199.06 163.898 Q2196.88 165.009 2193.74 165.009 Q2189.75 165.009 2187.39 162.787 Q2185.05 160.541 2185.05 156.791 Q2185.05 152.416 2187.97 150.194 Q2190.91 147.972 2196.72 147.972 L2202.69 147.972 L2202.69 147.555 Q2202.69 144.615 2200.75 143.018 Q2198.83 141.398 2195.33 141.398 Q2193.11 141.398 2191 141.93 Q2188.9 142.463 2186.95 143.527 L2186.95 139.592 Q2189.29 138.69 2191.49 138.25 Q2193.69 137.787 2195.77 137.787 Q2201.4 137.787 2204.17 140.703 Q2206.95 143.62 2206.95 149.546 Z" fill="#000000" fill-rule="nonzero" fill-opacity="1" /><path clip-path="url(#clip230)" d="M2219.94 131.051 L2219.94 138.412 L2228.71 138.412 L2228.71 141.722 L2219.94 141.722 L2219.94 155.796 Q2219.94 158.967 2220.8 159.87 Q2221.67 160.773 2224.34 160.773 L2228.71 160.773 L2228.71 164.338 L2224.34 164.338 Q2219.41 164.338 2217.53 162.509 Q2215.66 160.657 2215.66 155.796 L2215.66 141.722 L2212.53 141.722 L2212.53 138.412 L2215.66 138.412 L2215.66 131.051 L2219.94 131.051 Z" fill="#000000" fill-rule="nonzero" fill-opacity="1" /><path clip-path="url(#clip230)" d="M2256.49 150.31 L2256.49 152.393 L2236.91 152.393 Q2237.18 156.791 2239.55 159.106 Q2241.93 161.398 2246.17 161.398 Q2248.62 161.398 2250.91 160.796 Q2253.23 160.194 2255.49 158.99 L2255.49 163.018 Q2253.2 163.99 2250.8 164.5 Q2248.39 165.009 2245.91 165.009 Q2239.71 165.009 2236.07 161.398 Q2232.46 157.787 2232.46 151.629 Q2232.46 145.264 2235.89 141.537 Q2239.34 137.787 2245.17 137.787 Q2250.4 137.787 2253.43 141.166 Q2256.49 144.523 2256.49 150.31 M2252.23 149.06 Q2252.18 145.565 2250.26 143.481 Q2248.36 141.398 2245.22 141.398 Q2241.65 141.398 2239.5 143.412 Q2237.37 145.426 2237.05 149.083 L2252.23 149.06 Z" fill="#000000" fill-rule="nonzero" fill-opacity="1" /></svg>
